/* XPM */
static char *_97255e0008e43fc9c609f25a415b014ifdBKCsykUne4Zgx[] = {
/* columns rows colors chars-per-pixel */
"64 64 174 2 ",
"   c #040404",
".  c #080202",
"X  c #090708",
"o  c #0B0909",
"O  c #060608",
"+  c #190F0E",
"@  c #0A0A14",
"#  c #141414",
"$  c #1B1B1C",
"%  c #181715",
"&  c #25100F",
"*  c #360F10",
"=  c #3B0F10",
"-  c #261A1A",
";  c #3E1718",
":  c #3A1616",
">  c #280A0A",
",  c #1E3616",
"<  c #1E3518",
"1  c #203516",
"2  c #273B16",
"3  c #283B16",
"4  c #203418",
"5  c #263C18",
"6  c #293B18",
"7  c #241627",
"8  c #251628",
"9  c #231F20",
"0  c #331C26",
"q  c #331B28",
"w  c #232223",
"e  c #272729",
"r  c #2A2A2A",
"t  c #2D2526",
"y  c #312425",
"u  c #392C2D",
"i  c #2F2D30",
"p  c #343434",
"a  c #3B3A3C",
"s  c #4D1415",
"d  c #421D1D",
"f  c #561819",
"g  c #671D1E",
"h  c #761B1F",
"j  c #771B20",
"k  c #442020",
"l  c #4C2B32",
"z  c #463D3E",
"x  c #5B3F3E",
"c  c #7D2224",
"v  c #732123",
"b  c #2D4217",
"n  c #354D1B",
"m  c #47691F",
"M  c #5F761E",
"N  c #5E781D",
"B  c #60761F",
"V  c #7A483F",
"C  c #79473E",
"Z  c #466922",
"A  c #486922",
"S  c #5F7520",
"D  c #607820",
"F  c #403F44",
"G  c #773F40",
"H  c #434344",
"J  c #464648",
"K  c #4A494B",
"L  c #514B4B",
"P  c #4E4D51",
"I  c #535354",
"U  c #575759",
"Y  c #5C575B",
"T  c #5A5A5C",
"R  c #684D4E",
"E  c #6B4847",
"W  c #7A4741",
"Q  c #7A4841",
"!  c #68504F",
"~  c #7E4D51",
"^  c #605E5F",
"/  c #645153",
"(  c #646264",
")  c #6B6667",
"_  c #6D6968",
"`  c #736A65",
"'  c #831E24",
"]  c #931F27",
"[  c #A71F29",
"{  c #842224",
"}  c #8E2327",
"|  c #8D2629",
" . c #862829",
".. c #8D2D2F",
"X. c #902127",
"o. c #9D2126",
"O. c #952329",
"+. c #9A262B",
"@. c #9D282E",
"#. c #92282C",
"$. c #8E2F35",
"%. c #9D2830",
"&. c #96363B",
"*. c #A62127",
"=. c #A72129",
"-. c #AB232B",
";. c #A32A2F",
":. c #B2252F",
">. c #B4282F",
",. c #AF2630",
"<. c #A42C32",
"1. c #AA2D33",
"2. c #B52931",
"3. c #BB2C34",
"4. c #B62731",
"5. c #AD3A3F",
"6. c #BD3236",
"7. c #B53139",
"8. c #BC333A",
"9. c #C22F37",
"0. c #C22E38",
"q. c #C13037",
"w. c #C5333B",
"e. c #C9333C",
"r. c #CA383F",
"t. c #9B3741",
"y. c #A33E46",
"u. c #B93842",
"i. c #CC3C44",
"p. c #C43D45",
"a. c #854345",
"s. c #9F5D5F",
"d. c #A14A50",
"f. c #B14E53",
"g. c #AE5155",
"h. c #AD585C",
"j. c #B05156",
"k. c #B5565A",
"l. c #AD7657",
"z. c #AE7856",
"x. c #AE7758",
"c. c #8A5D60",
"v. c #A45F64",
"b. c #8D6B6A",
"n. c #9C6B6E",
"m. c #976566",
"M. c #8E7676",
"N. c #9A7B7E",
"B. c #A06265",
"V. c #B06468",
"C. c #CF434C",
"Z. c #D0444D",
"A. c #CD4750",
"S. c #C54B56",
"D. c #D34C53",
"F. c #D2535B",
"G. c #D65961",
"H. c #CF646C",
"J. c #D2666D",
"K. c #DC6C73",
"L. c #86817E",
"P. c #DC7B82",
"I. c #868482",
"U. c #888785",
"Y. c #8C8C8A",
"T. c #999997",
"R. c #999999",
"E. c #939290",
"W. c #A19D9C",
"Q. c #A5A5A3",
"!. c #A5A6A5",
"~. c #A3A5A4",
"^. c #B8B2B2",
"/. c #C0C0BE",
/* pixels */
", 2 2 , , 3 2 5 3 n m N Z 2 A n 3 n A A 2 5 2 n n 2 2 2 n 3 , , 1 b 2 , , 5 2 2 2 Z Z B Z 2 m n 2 A A A 2 2 2 n n 2 2 3 n 2 , , ",
"2 2 2 2 , 1 2 2 2 2 5 Z B n 2 3 n n n n n 2 2 n n 2 2 2 , , , g.g.g.j.j.j.j.g.f.n 2 2 Z N n 2 2 A A M M m 2 1 n n 2 , , 2 , , 2 ",
"6 5 n 2 2 , < , , 2 2 2 2 2 2 2 2 2 2 2 3 3 2 2 2 2 , e.h.L.L.L.L.L.L.L.L.L.L.L.I.I.L.L.B.w.e.e.3 3 2 5 2 2 2 2 2 , , 3 2 2 2 2 ",
"n n n 2 n 2 3 2 , , 2 3 , , 5 2 , 2 3 2 2 n 5 2 2 , C.n.Y.R.R.R.T.T.T.R.E.U.U.U.U.U.U.U.Y.Y.Y.N.p.u.n n n 2 2 2 , , 2 2 2 2 2 n ",
"A n 2 2 n n 5 6 2 , , 1 1 , , , 1 , 3 2 3 n n 3 V.h.m.M.W.!.!.!.Q.Q.Q.Q.Q.Q.Q.Q.!.!.!.!./././.^.N.v.1.[ *.1 1 2 , 2 2 n 2 2 2 n ",
"n 3 2 2 2 n 5 n n n 1 1 , 2 , , 1 , 2 2 2 n n k.n.d.o. .c.b.b.b.b.b.b.b.b.b.b.b.b.b.b.n.n.n.n.h.[ =.[ [ =.*.*.3 5 2 2 n n 2 2 n ",
"2 2 n n n 2 n n 2 w.0.e.9.3.3.3.3.w.w.r.w.i.e.e.;.+.|  .#.+.+.%.@.@.;.+.%.;.<.;.<.<.<.2.2.3.3.u.2.3.3.3.3.=.4.:.=.2 2 n n 2 2 2 ",
"2 3 2 2 n 2 w.e.w.w.w.w.A.J.J.H.J.F.r.r.w.r.i.e.7.7.7.7.6.w.w.w.u.~ y.0.w.e.e.K.K.K.D.G.F.r.e.F.e.e.e.e.e.9.e.q.6.2.=.2 n 3 2 n ",
"n 3 3 3 3 e.e.e.e.3.+.| ..&.&.C.Z.i.e.e.e.e.e.e.e.e.e.e.e.e.e.e.8.u.u.w.e.e.e.Z.C.Z.i.i.i.e.e.S.=.| | | -.w.e.e.w.0.-.=.5 5 n n ",
"n n 3 e.e.e.e.e.=.O.=   . . c O.4.q.9.>.q.e.e.e.e.e.e.e.e.e.e.e.w.e.2.-.=.=.=.-.=.=.=.-.=.e.P.#.f . . . g -.e.e.e.e.w.,.5 n n 5 ",
"n n :.*.9.e.e.] f r e F a X P u { *.=.q.-.=.=.=.[ [ =.=.=.=.=.=.=.=.=.=.*.=.=.=.=.=.=.-.=.=.v p a $ K $ K - c 2.e.e.q.,.2 n 2 2 ",
"2 3 ] ] :.9.-.h $ J + F p + X H > } =.3.-.=.-.=.[ [ =.=.=.=.=.=.=.=.=.=.=.=.[ =.[ =.=.=.-.6.  J o # K e w T & 2.i.3.G $.2 2 2 2 ",
"2 2 k ; +.:.[ g p a $ K J E 9 p - j =.>.,.=.=.=.*.*.*.*.=.=.=.=.=.-.,.>.-.,.-.>.:.,.-.>.2.f w p $ r P / t I u ' 9.1.a.&.2 2 2 n ",
"n 2 x % h =.] d K e K ^ ( ` R z F = +.=.>.3.2.2.4.4.3.3.2.2.2.2.2.9.3.2.4.2.2.>.2.4.>.3.=.. T e a ) ^ ) ! r Y s ] [ ] 3 2 2 n M ",
"2 , : ; ] =.o.d I a U ^ ( _ / L H * { o.-.>.2.>.>.>.>.>.2.2.>.>.>.>.-.=.=.=.=.=.=.=.=.=.| . T a K ) ( ) ! a / s { ] ] 3 n M M M ",
"2 2 2 , X.X.{ - p i % K K E y i w n c { { { +.+.+.+.+.+.+.+.+.+.@.+.+.+.+.+.+.+.+.+.+.} c Z r r % r I ! y H i m n 3 2 n Z Z M n ",
"2 n 2 2 2 2 2 2 $ J # F p o X J   1 , , n n , , , 2 , , < 3 2 2 2 n 2 2 2 n n 2 2 2 n A n 2 X J   # J w e U   A 5 2 2 A A A A 2 ",
"b n 2 2 2 n n n 3 e e z p   T r , 1 5 2 , n n 2 1 2 3 3 2 2 2 2 5 n 2 2 n n n 2 2 2 3 A l l l l l l l l K O Z n n n 2 n n n 5 2 ",
"n 2 2 n 2 2 n n n 5 $ e r e , 1 , 2 2 2 2 2 2 2 < 3 5 2 2 2 2 2 n 2 2 n n 1 2 2 2 l l l l l l l l l l l l l n n 3 2 3 3 2 2 2 2 ",
"2 2 2 n n 2 2 , , 2 3 l.z.l.z.z.z.l.l.l.l.3 n 3 < 6 2 n n 2 n 2 2 2 2 3 2 l.l.l.l.l l l l l l l l l l l l l l 1 , , , 2 2 2 2 2 ",
"n 2 2 2 n 2 2 2 , , l.l.l.Q Q Q x.l.Q Q z.l.z.2 5 n n 2 2 5 n 5 z.l.l.z.l.l.l.l.l l l l l l l Q Q Q l l l l l l l 5 n 2 2 2 2 3 ",
"n n b 2 2 2 2 2 l.Q l.Q Q l.Q l.0 l l.l.l.l.l.l.l.n 5 5 l.l.l.l.l.z.l.Q l.l.l l.l l l l l l Q V Q l l l l l l l l l n 5 2 n n 2 ",
"n n 2 5 n n n z.l.l.Q Q Q Q Q l.q l l.l.l.l.z.l.l.l.l.l.l.l.l.Q Q Q z.V Q l l l l l l l Q Q Q l l Q Q Q Q l l l l l l 5 n n 5 2 ",
", n 1 n n z.z.C Q Q Q Q Q Q Q q l l.x.l.l.l.l.l.l.l.l.l.l.l.l.l.l.Q Q Q V l l l l l Q Q Q Q Q Q Q Q Q l l l l l l l l l 5 2 5 2 ",
"2 5 2 l 0 0 l l V Q 7 7 7 Q Q l l.l.l.Q l.l.l.l.l.l.l.l.Q C Q Q l.l.Q l l l l l l l V Q Q l l Q Q W Q l l l l l l l l l A 2 2 2 ",
"2 Z @ @ @ 0 l l l Q Q Q Q Q W Q Q Q l.l.Q l.l.l.l.Q Q l.l.Q Q Q Q Q l l l l l l l l l Q Q Q l l Q W l l l l Q l l l l l l 3 n 2 ",
"b Z 0 @ q 0 0 l l V l l Q Q Q Q Q Q l.l.Q Q Q Q l.l.Q Q l.Q Q Q Q Q l Q W l l Q Q Q Q Q Q V Q Q Q Q Q Q Q Q l l l l l l l n n 2 ",
"2 2 0 7 0 0 0 0 l l l Q Q Q Q Q V l.x.Q Q Q Q l.l.l.Q Q Q Q Q Q Q Q Q Q l l l Q Q Q Q Q Q Q Q Q Q Q Q Q Q Q Q l l l l l l l 2 , ",
"2 2 y 8 0 0 0 0 l l l Q Q Q Q Q Q Q Q W Q V Q Q l.Q Q Q Q Q Q Q Q Q Q Q l l l l l Q Q Q l l a.Q Q l l l Q Q Q Q l l l l l l 5 < ",
"2 5 0 8 q 0 0 q l l Q Q l Q Q Q Q Q Q Q V V Q Q l.Q Q Q Q Q Q Q Q Q Q V Q l l V l V Q Q V l l Q Q W Q l l l l l l l l l l l l 1 ",
"5 2 0 8 8 7 0 0 0 l l l l Q Q Q Q Q Q Q Q Q Q Q Q W Q W Q Q Q Q V Q Q l Q l l V Q Q Q Q Q Q Q Q Q Q Q Q l l l l l l l l l l l 2 ",
"2 2 , 0 q 0 0 0 0 0 0 l l l Q l l Q Q Q Q Q Q Q Q W Q Q Q Q Q Q Q Q V l l l l l Q Q Q Q Q Q Q Q Q Q Q Q Q l l l l l l q y l l l ",
", 2 2 , 0 0 0 q q q 0 0 0 q l l V W V Q Q Q Q Q Q Q Q Q Q Q Q Q Q Q Q Q Q l Q W Q Q Q Q Q l W Q Q Q l Q Q Q l l l l l l 0 0 l 0 ",
"2 n 2 2 , , 3 n 3 2 n m 0 0 0 0 l l W l Q Q Q Q W Q Q W Q Q Q Q Q V Q l l l l Q l l Q Q Q l l Q Q Q V l Q V l l l l l l l 0 0 0 ",
"n n 2 , , , 3 n n 2 < < 2 Z 2 0 0 l l l Q Q W Q W W Q Q V Q Q Q Q Q l l l l l l l Q Q Q Q Q l l Q Q Q l l l l l l l 0 0 l 0 0 0 ",
"n n 2 , 2 2 2 2 2 2 < n n n n n 0 l l Q Q l W Q Q Q Q Q Q Q Q Q Q Q l l l l l Q Q Q Q Q Q W Q Q Q Q Q l l l l l l l 0 0 0 0 0 n ",
"n n 2 2 2 2 n 2 2 3 M B A , n < , l l l l W Q l Q Q Q Q Q Q Q Q l Q V Q l l l l Q Q Q Q Q Q W Q Q Q Q Q l l l 0 0 l : 0 0 0 2 n ",
"n 2 2 5 n n 2 2 2 A m n 2 2 2 2 2 2 l l l Q l l Q l Q Q Q Q Q Q l l l Q l 0 q 0 l Q Q l l Q l l Q l Q Q Q l l l q y l 0 0 2 2 n ",
"2 2 2 n n n 2 2 2 2 2 3 2 2 2 2 2 n n l l l l Q l l Q Q Q l W Q V l l l q 0 0 0 0 l Q l l Q Q l l l l Q Q Q l l 0 0 0 0 , 2 2 2 ",
"5 2 2 2 2 2 , , 2 n n n 2 2 2 2 n n 2 2 2 l l Q l Q V V Q l l l V l l 0 0 0 0 0 0 l l l l Q Q l l l l l l l l l q 0 0 0 , 2 2 n ",
"2 2 n 2 2 , 2 , 2 2 3 n n 2 3 2 2 2 6 2 2 n l l l l l l V Q l l Q l 0 0 0 2 2 0 0 0 l l 0 l l l l l l l l l l l 0 0 0 5 , 2 n n ",
"m n n 2 2 n n , 2 2 2 3 n 2 2 M M M Z 2 2 2 2 n l l V l l l l 0 q 0 0 M 2 2 2 n 0 0 0 0 0 0 l l l 0 l l 0 l l 0 0 0 q < , 2 n 2 ",
"Z n 2 2 n n 6 , 2 M n 1 3 2 Z A M A n 5 2 2 , l l l l l l 0 0 0 0 B Z n n M M A 2 2 0 0 0 0 0 0 0 0 l l 0 0 l 0 0 @ , , 3 3 2 2 ",
"2 A 2 2 2 2 , , 2 M B n 2 Z n A Z n 2 2 n n l l l l l l 0 0 0 @ @ n B n 3 2 2 2 5 2 5 3 n n 2 n 7 7 0 l l 0 0 0 @ @ @ 5 2 5 5 2 ",
"5 2 2 2 2 , , , 2 m m A 2 2 n A 2 2 2 2 n 7 l l l 0 0 0 0 @ @ @ @ 2 n n 2 < , , , 3 n A 6 2 m n 2 7 7 0 0 0 0 7 @ @ @ @ 2 2 2 n ",
"B 5 n n 3 , , , < 2 n A n 2 A A 2 2 2 2 8 l l q 0 0 0 0 @ @ @ @ @ 2 2 2 , , 2 2 , 1 2 n Z n A 3 2 , 7 0 0 0 7 @ @ @ @ @ @ 2 n M ",
"2 , 2 n n 2 2 2 < 2 2 n n 2 3 2 Z Z n , 7 0 0 0 0 7 2 2 @ @ @ @ @ , 2 2 , 3 2 n 2 , , 5 n n 2 3 , , 7 0 0 7 2 @ @ @ @ @ @ 2 M M ",
"2 5 2 2 n n 5 2 2 2 2 3 2 6 2 n A M M 7 7 0 7 7 7 n n 3 3 @ @ @ @ < , , , 2 2 n n 3 , 5 2 2 2 , , 2 7 0 7 7 2 3 , @ @ @ @ @ M n ",
"2 n 2 2 2 2 2 2 < , 2 2 2 2 2 , < 1 7 7 7 7 7 7 n 2 2 2 2 @ @ @ @ @ 2 5 2 2 2 2 n 2 5 Z 2 3 , , 2 2 7 7 8 7 3 2 2 , @ @ @ @ A 5 ",
"2 n 2 n n n 2 3 , , , 2 < < , < , 2 8 7 7 7 7 2 5 n 2 2 2 2 @ @ @ @ n 2 2 n A 2 3 2 A N 2 2 , 2 2 7 7 7 7 2 n 2 2 2 @ @ @ @ 2 3 ",
"n 2 2 A A 5 2 2 n n n 2 1 1 , , , 8 7 7 7 2 2 n 2 n n 3 2 2 2 @ @ @ n n 2 3 n A n 2 N n 3 2 , , 7 7 7 7 7 n A 5 2 n n @ @ @ 2 2 ",
"2 3 5 2 2 2 2 n n 2 2 , 2 2 2 2 2 8 7 7 7 2 n n 5 2 n 2 5 2 n @ @ @ 5 2 2 2 3 N A n Z n 2 2 2 , 7 7 7 7 2 n M A 2 n 3 3 , , , , ",
"N B A 2 2 2 2 2 2 2 2 , n n n 2 2 2 , 2 3 2 n A , , n 3 2 n n 2 M n 2 2 n n 2 2 A n n 3 A m n , , 2 2 n 2 n D M 3 5 2 2 2 2 2 2 ",
"M A A A 2 A A B M Z 2 , , 2 n n 2 3 , n 2 5 A 2 2 2 2 2 A n n 2 M M n n 2 A Z n 5 n n n n 2 3 2 , 2 2 2 2 2 n M 2 n A M A n n 5 ",
"n m A n 2 n n Z , 2 2 , , 2 2 n n 2 < n n 2 , , 5 5 2 2 A A 3 2 Z Z n 5 2 2 N Z n n 2 n 5 2 2 , , 2 2 2 n n n A n m S A n 2 2 2 ",
", n m , , n A , , 5 2 2 , , 2 2 2 3 2 n A 2 2 2 Z A M A 5 2 2 2 Z n 2 2 2 2 2 2 n n 2 2 3 , , , 2 n n m M M Z n n n n n 2 3 , , ",
"2 2 b n n 5 , , Z Z n 2 2 , 2 2 2 2 5 2 A A 2 Z B M n 2 5 3 2 2 2 n 2 6 , , 2 2 2 n 2 2 2 2 3 , 2 5 2 2 2 n n n , , 2 2 , , < 2 ",
"2 Z N A 2 6 2 Z n n 2 n , , 2 Z 2 2 5 2 2 6 3 A B 2 , A Z n n 2 2 Z 2 6 , , , 5 3 3 2 , 2 2 3 2 , , 3 2 5 3 , , , , 2 3 2 2 n 2 ",
"b A b 5 2 2 2 5 2 2 2 5 2 , 2 A A 2 2 n A M M n 2 2 A M M M A 2 n A 2 , , 2 , , 2 2 , , , 2 n 2 3 , , 2 2 , , 2 n 1 , 2 3 2 n 2 ",
"3 6 5 b b b 2 2 2 b b 2 , , 2 A A 2 n B M A A A 2 2 A n A A 2 , 2 2 3 , 2 n 2 < , < < 2 2 2 n n 2 2 , < , , 3 n n 3 , , 2 2 5 , ",
"2 2 b b 5 2 2 2 3 3 b < < , 2 Z 2 2 5 n A M Z m n 3 n n A 5 2 1 2 2 2 , 6 n 2 2 2 , n 5 2 5 5 n 2 5 2 , 1 2 n n n 2 2 , 2 2 2 , ",
"2 2 n 2 2 2 n n 3 2 n < , 2 2 5 3 2 2 2 2 2 2 2 , , 3 2 2 2 , < 2 2 5 , 3 n n 2 3 2 n 2 2 2 6 2 n 2 2 2 2 2 n 2 2 2 2 , 2 2 1 , ",
"2 2 3 2 , 2 2 n 2 2 2 2 < 2 n 5 2 2 2 A A 2 2 2 2 2 2 2 2 2 , 2 2 2 2 , , n 2 n 5 2 n n , 2 n 5 2 2 2 A Z 2 5 2 2 2 2 2 2 2 , b ",
"2 2 , , , 2 2 n 3 2 6 Z < 2 n n 2 2 n n A 2 2 2 n 2 2 n n < , , 2 2 , , , 2 2 n 2 2 3 Z < 2 n n 2 2 n n Z 2 2 2 n 5 2 n n < , , "
};
