/* XPM */
static char *_d21b8b99a1443f39e9e45352d4e3828LfC2DBXzbDqDKMqK[] = {
/* columns rows colors chars-per-pixel */
"64 64 243 2 ",
"   c #000501",
".  c #0D0909",
"X  c #170504",
"o  c #051200",
"O  c #11180A",
"+  c #171716",
"@  c #1B0F13",
"#  c #240000",
"$  c #2B0000",
"%  c #360704",
"&  c #301711",
"*  c #1A2E0B",
"=  c #162D05",
"-  c #1D3505",
";  c #1E340C",
":  c #1D390D",
">  c #193706",
",  c #1C2E12",
"<  c #1C2419",
"1  c #1E3412",
"2  c #1D3B15",
"3  c #3D2C0D",
"4  c #36270E",
"5  c #233B05",
"6  c #21360D",
"7  c #243B0D",
"8  c #293D0C",
"9  c #283808",
"0  c #38370B",
"q  c #27291A",
"w  c #3A2B13",
"e  c #3B2D1A",
"r  c #362914",
"t  c #223613",
"y  c #2B3414",
"u  c #253B13",
"i  c #293E14",
"p  c #24341A",
"a  c #263B19",
"s  c #293E1A",
"d  c #2A341B",
"f  c #3C3214",
"g  c #323C1C",
"h  c #363717",
"j  c #171F22",
"k  c #272A24",
"l  c #342727",
"z  c #2D3C21",
"x  c #293322",
"c  c #393728",
"v  c #383A36",
"b  c #2B2C30",
"n  c #271721",
"m  c #470B0A",
"M  c #571A17",
"N  c #451C11",
"B  c #691D18",
"V  c #741C1B",
"C  c #45270D",
"Z  c #53240C",
"A  c #472B13",
"S  c #562915",
"D  c #423315",
"F  c #46371B",
"G  c #4A320E",
"H  c #581921",
"J  c #691E27",
"K  c #751C23",
"L  c #462724",
"P  c #542524",
"I  c #4B3B25",
"U  c #543C2A",
"Y  c #463A3A",
"T  c #4C3538",
"R  c #692A26",
"E  c #792827",
"W  c #673729",
"Q  c #773426",
"!  c #7D2E32",
"~  c #7A3B30",
"^  c #66361F",
"/  c #1E4316",
"(  c #294106",
")  c #26410A",
"_  c #2A420D",
"`  c #274505",
"'  c #334A0B",
"]  c #30440F",
"[  c #254113",
"{  c #2B4214",
"}  c #25411A",
"|  c #2C421B",
" . c #2D4B1C",
".. c #2F4B13",
"X. c #334B14",
"o. c #31461C",
"O. c #344B1C",
"+. c #364919",
"@. c #3A521B",
"#. c #385116",
"$. c #2E4321",
"%. c #2C4C22",
"&. c #324622",
"*. c #394523",
"=. c #354B23",
"-. c #394E24",
";. c #364A2A",
":. c #3A4D29",
">. c #334629",
",. c #355123",
"<. c #3A5223",
"1. c #3C5329",
"2. c #3B4635",
"3. c #3F5531",
"4. c #3F6C35",
"5. c #46451B",
"6. c #454725",
"7. c #544226",
"8. c #445C25",
"9. c #465D2C",
"0. c #485F29",
"q. c #46443B",
"w. c #465D31",
"e. c #495F32",
"r. c #56532E",
"t. c #6E432C",
"y. c #4B6326",
"u. c #4B642C",
"i. c #4E692D",
"p. c #456427",
"a. c #516A2C",
"s. c #546628",
"d. c #4C6333",
"f. c #4E6932",
"g. c #4D6339",
"h. c #456933",
"j. c #536B33",
"k. c #51663B",
"l. c #546B3B",
"z. c #576B38",
"x. c #567233",
"c. c #5A7234",
"v. c #5B733C",
"b. c #5A753B",
"n. c #4E773D",
"m. c #627738",
"M. c #676E3B",
"N. c #3F3D42",
"B. c #474748",
"V. c #584647",
"C. c #595346",
"Z. c #575656",
"A. c #4E5051",
"S. c #665655",
"D. c #795851",
"F. c #694946",
"G. c #556941",
"H. c #5C7442",
"J. c #5E7A42",
"K. c #637A45",
"L. c #7B6858",
"P. c #5D5C61",
"I. c #695E63",
"U. c #6C6668",
"Y. c #757070",
"T. c #87211F",
"R. c #9C1C27",
"E. c #AA1D25",
"W. c #A71E2A",
"Q. c #B21D2D",
"!. c #8B2D2A",
"~. c #882B29",
"^. c #9A262C",
"/. c #982728",
"(. c #863329",
"). c #872A32",
"_. c #952C31",
"`. c #982A35",
"'. c #873634",
"]. c #973739",
"[. c #9B362E",
"{. c #A3232A",
"}. c #AB222B",
"|. c #A72729",
" X c #B2222C",
".X c #AC2D32",
"XX c #A42633",
"oX c #B32433",
"OX c #B42B33",
"+X c #BA2938",
"@X c #A7363A",
"#X c #BC343B",
"$X c #BE3A3E",
"%X c #B43538",
"&X c #AA302F",
"*X c #C42938",
"=X c #C4353C",
"-X c #CD333C",
";X c #C2393C",
":X c #C93639",
">X c #D03B3F",
",X c #904D3A",
"<X c #A4413B",
"1X c #B83843",
"2X c #AA3144",
"3X c #983846",
"4X c #C63843",
"5X c #995B5D",
"6X c #92534A",
"7X c #B54547",
"8X c #B44D4F",
"9X c #876859",
"0X c #99645C",
"qX c #A6635B",
"wX c #A45D61",
"eX c #94696B",
"rX c #986667",
"tX c #867D7B",
"yX c #94756C",
"uX c #A3666A",
"iX c #A8767B",
"pX c #B67476",
"aX c #C84749",
"sX c #D64D56",
"dX c #E25D60",
"fX c #D3696E",
"gX c #E56568",
"hX c #7E8677",
"jX c #87847B",
"kX c #908478",
"lX c #9C7D82",
"zX c #B77A81",
"xX c #898583",
"cX c #9A999A",
"vX c #948C88",
"bX c #AB9D9B",
"nX c #BE9D98",
"mX c #B1A299",
"MX c #AD9EA2",
"NX c #AFA1A4",
"BX c #B6A3A3",
"VX c #D59D9E",
"CX c #DCB6B8",
/* pixels */
"t 6 d i * a d y i @.p.n.h.5 y.5.9 O.z.0.8 _ 7 O.,.i t s >.z r w N S A N Z M C A 7 h.h.n.h.5 s.' ` p.p.p.9 8 7 ,.&.o.u 2  .} 6 : ",
"} { i d 1 2 s y y 8 ) h.x.@.` - 1.O.{ -.O.i : <.&.y F c p s q L.9X9XL.L.9X9X9XL.:.} } g.z.5.0 ] y.s.x.m.j.8 7 &.&.y t t } ; ; [ ",
": i o.s / 2 t t y u u i i u 7 | 2 a } | > 2 } ; z e N D.L.hXhXhXxXlXhXxXxXjXtXkXjXY.jXkXeX9XF.6XZ G ( ) u y s | s p , y g d a s ",
",.O.-.s %./ 2 2 u * s t 1 a $.2 1 } : t  .=.} g e P wXuXkXmXvXcXcXcXcXcXvXxXxXjXxXvXlXlXiXiXfXiX6X,X7.7.I f y t 6 u y g d s s o.",
"h.&.i 9 | ,.[ } s t 2 2 2 * , , p 1 } a : <.+.3 yXrX5XuXnXmXmXmXMXMXNXNXMXNXNXBXMXBXbXnXCXCXCXVXpX8X3X).).M D y ; u s *.t 6 s -.",
"O.u i y .. .i +.F 7.4 w e F e l 4 w f f f F W qXqX6X! ! 5X5X0XrXeXeXeXeXeXeXeXeXrXeXrXrXiXrXuXuX)._.XXW.{.~.Q Z f y h 5.,.[ 7 =.",
"u | +.O. .7 5.^ V @X@X@X].,X].].].<X8X7X<X7X<X$X|./.^./.~.).`.`.).'.'.).]._._.].].[.`.`.@X@XXX1X@X2XoX4XoX.X&X[.Q S C 5.<.{ 9 u ",
"i y y 8 5.3 ,X<X%X;X4X4X8XfXfXdXgXsX;X=X:X;X:X-X*X#XOX%X@X%X4X=X%X<X@X%X#XOXaXgXgXgXsXdXsX1X1XfX1X1X4X4X1X+X4X+X%X[.Q G +.8 i O.",
":.6 0 G Z ,X%X$X>X%X_.! ~ '.].aX4XsX-X-X*X:X:X:X:X;X;X$X$X;X-X-X;X;X$X$X=X=X;XaXaXaX<X>X4X1X1X8X`.E E (./.1X4X=X:X%X/.'.G 7 ,. .",
":.6.C 6X<X%X;X+XR.~.m # # $ R '.2X+X*X*X*X:X>X:X;X;X$X$X;X=X-X-X=X+XOX}.Q.Q.Q.|./.|.|.|.oX1XfX3XM % X X R !.2X#X:XaXaX!.G -. ./ ",
"*.I t./.:X-X1X`.J N L T l X F.P K `.oX*X}.}.E.E.E./.{.{.^.{.{.E. XW.{.W.{.W.}.}.|.R.E.}.W.`.E P L @ q.& U % K 1X4X*X2X'.A *.: / ",
"i F R T.oX+XXXK % B.. N.N.j . T % ! R.2X X}.E.|.{.{.{.{.{.{.{.{.E.W.W.XX}.}.E.E.R.|.}.{.`.3X$ V.X + C.l q S.m 3X1X1XXX'.w i { 2 ",
"t f C M _._._.H l N.j A.N.A.n T & R `.+XoXQ.W.E.{.|.Q.Q.Q.E.E.}.}. XOXoXoX X X XOX X XOX&XR & l @ l Z.Z.n S.P R 2X2X].t.f 8 h @.",
":.h 7.% K `.! H V.b B.Z.Y.Y.Z.T q.% _.W.oXOX+X.X&X.XoX+X*X+XOXOXOXOXOXOXoXoX+XOXE.OX&X&X`.$ S.k Y U.I.U.Z.l F.M )._.Q Z 0 _ 0 M.",
"1 t q N K `.).H V.B.A.U.S.I.V.V.U % E /.XXXX.XOX.X.XOXOX XOX.X&X&X.X|.}.W.}.{.{.|.|.T./.! # Z.B.A.U.P.U.F.T S.r R W 7.0 #.x.m.m.",
"2 u y 3 Q J ! % c v + V.V.S.k k q U R E Q E (.!.(.!.!.!.!.!.(.(.Q (.!.!.!.!.(.Q (.(.(.Q S D.k k + b Z.Z.e q.l r.U D 0 5.y.y.m.' ",
"u -.i y w D D l < q.O v v . o q.  d r r I 7.w 4 4 D w 4 w w D A F I 3 F 3 7.F D 3 F 5.r.6.y o 2.  j B.j q C.  G.d y 8 d.f.f.i.5 ",
"{ o.9 i { :.;.6.z < q 2.v   A.v d , s | 1 | <.t s t p p s d u i t &.i i X.O.o.5 9 8 9 j.e.a >.2.v + B.< q.o G.$.-.O.{ O.O.{ 8 { ",
"{ { { O.i i s 2.>.c O d q < x k 1 a s ; u u u { ; u t s u | i u -.7 { +.-.7 o.) _ 5 { i &.:.:.p O k k q z *.-.O.7 { ) - 7 { u i ",
"{ i 7 -.O.s i s t t $.p $.p p p z &.:.i _ 7 O.7 9 u o.-.o.s s i 8 7 7 { u 7 z.v.z.i.i i s t u s z d d s t u t 7 7 = : [ { u u u ",
" .[ u } &.{ a 6 ; t ; u -.t o.| s u =.O.O.9 f.8 8 O.o.7 i 6 1.8 b.#.9 : u l.{ H.j.O.7 7 | t u :.*.;.g s k.u - 7 [ { { { 7 t | u ",
"=.=.{ u u : [ u } 7 u 7 g.O.u 6 i i u 7 @.5 u.c.5 @.8 { 7 u -.9 v.a.@._ e.@.j.u.+.7 [ 7 [ ; a ; -.e.+.9 9.H._ ) ..9.<.7 { =.:.p ",
"=.-.t { O.<. .i O.d.1.= 1.O.: G.&.s 6 8 _ 5 @.z.5 _ O.G.-.o.6 i u.a.p.#.) 9.k.7 o.; @. .O.{ : a 6 ] +.i z.c.u.- f.O.{ 7 =.&.s u ",
"6 %.u -.O.,.7 u 6 ,.9.,.: > O.o.i i +.k.v.v.X.#.8 +.H.@.u 6 s 6 d.X.i.X.) 7 { u 6 k.O.{ 7 6 a ; g - _ _ - @.u.5 f.> 8 u 7 i s s ",
"u i 7 u u i 9 i 7 u u <.=.- ; u s *.o.{ ] v.v.+.8 d.e.o.u 6 i i O.@...X.7 7 i a t a t 7 6 } t a - _ 7 p.) ) ..@.- f.H.w.k.7 { t ",
"{ e.{ i i 8 i u 6 i ; ; t i u ; * u o.u i @.9.@.7 { u u s s s t 7 o.<._ 7 { [ a $.t 6 : 6 u 1 1 6 7 d.b.b.i.#._ i.J.u._ 9 u -.{ ",
"g d.i +.-.6 } i -.o.u ; t * i :.t ; i 6 7 5 { 7 i 6 6 s s t s u 8...6 -.s 6 t g.e.=.i p t p ; t { 7 _  .h.l.k.X.f.<.{ _ 8 O.=.7 ",
"i { y s :.O.u i u -.:.&.| s a =.>.t 6 6 { y u u i s s s t p t u - @.i 3.$.&.} u <.=.} u 1 a 1 -.7 [ : _ o.e.f.@.d...7 <.O.=.i 6 ",
"7 6 i u i ;.u t t u a t u i } &.:.i t u i 6 i s * d 1 1 p p ; ; i u t &.:.1 i u 9 o.=.s d t ; =.,.; [ 9 7 7 - { 7 9 9 6 u | u u ",
"i u i } ; i } i ; t u s i u u i =.s u i i 6 * t 1 t , a ;.u ; t i u s s ;.=.i i i ] } t | t u i <.-.{ 6 u { { 7 7 i | i i u t t ",
"a } 1 } 2 1 i | i =.,. .t u O.{ i 6 i o.:.i i t s d a 2.:.a ; s t i i u 6 :.u o.i 7 - i 7 i &.s 6 { : z.d.9 7 i i 6 t s s t t s ",
"t } 2 ; ; } : } 7 [ O.d.<.7 O.O.8 7 <.-.e.i s u ;.s a ;.>.t p 6 s d u 6 ; u i :.6 { 8 j.- i -.=.{ _ { @.d.8 { 6 -.| i ;.$.p p , ",
"; } i 1 : u u u _ d.i.b.u.) i.X.` 8.i.j.7 _ {  .o.s i t ;.z p t t u t t t u i t _ d.9.H.f.7 g.@.) y.y.y.5 8 8 +.&.u a s ;.a 1 t ",
"$.$.a t p t } =.7 ) O.u.v...5 ` a.a.j.c.u.7 7 -.:.* o.s p t 1 s a =.| | > 1 } =.O.{ _ u.v.O.{ - a.y.c.v.s.5 7 -.-.s p , p p p s ",
"&.%.i t ; ; i O.O.{ = _ 5 d.{ o.' x.c.[ ; ; a ;.s a 6 u } 9 7 { -.=.= 2 1 u u u 6 - : - 7 7 7 { u 9 { 7 { 7 i u p p s s | i 6 i ",
"=.=.| t u } a i 7 7 7 +.O.<.O.O.f.p.{ > i t 1 z a u { 7 7 _ o.0.-.-.t t t u 6 u ; -.{ : ; t } i t =.t s i 6 :.p u u a t u u i &.",
"-.O.u 6 a | | i i } H.G.g.> =.1 ; 2 ; p 1 a 1 | -.O.o.y._ 5 m.v.+.&.s ; t u u =.t -.| | a 1 a 1 a a &.s i d.+.o.i t u i s s u O.",
"+.u : | -.&.} i { g.g.&.| a 1 | } | ;.:.;.s t : - <.X.@.s.5 5 s.O.{ ; ; a } | ;.s | &.&.a 1 1 $.i t l.i 6 K.u 5 u 6 * t t i i :.",
"{ 8 [ O.:.%.i i ; u { [ t { t i [  .O.7 i ; 9 - _ u { 9.d.u i i {  .6 O.o.[ =.=.i t s } 1 a 1 a 7 @.9.z.@.X.X.] 8 i u i u i 6 i ",
"7 7 u u i u 1 ; { O.&.@._ 6 { 7 ..#.{ > [ { | ,.-.- i 7 u 6 s u 7 #.9 h.<.u &.u { u 6 } ; u :.g.H.y.' a.X.' #.0.z.k.-.i * s s ;.",
"7 { &.u | 1 i ; u 7 7 <.o.) { 7 ) - 7 { t -.-.=.&.u O.[ 5 O.H.5 ( 5 ) v. .7 7 { { [ 7 <.6 { s u X.m.y.' #.#.8.m.@.7 i i u p ;.;.",
"k.+.<.i > :.-.6 u { ) 5 #.5 7 c.J.v.9.{ u } p ;.:.| u 7 @.v.c.( i.y.#.c.7 _ - O.O.u 7 d.| { 1.7 _ ) a.s.' 5 i.O.8 u u t t s &.s ",
"h.1.; | :.:.i ; 7 H.X.5 5 7 j.9.x.p.@.{ 6 6 2 ; | =.i 8 H.e.8 5 u.x.u.X.+.H.J.f.7 7 { d...1.; { i 8 -.O.@.7 { i u s t , s i y i ",
"6 g.u 6 a 2 > u [ v.H.O.) i.X.i.h.@.7 9 1.-.u u { 9 { 7 u.O.9 { 5 #.v.#._ 7 u 6 _ 7 7 7 <.,.- O.&.s 6 u s i ; a s =.s u i i ; { ",
"7 u { s t t ; ; { w.f.d.7 ) o.f.u i u [ O.7 : { 0.j.u.5 ( _ - ) 5 5 <.+.: u 6 7 7 : o.z.7 7 k.-.| p s s u s t d t =.;.s 7 i 5 @.",
"H.| { ,.| ; u t : 7 -.d.{ [ j.d.[ 7 _ u : 6 f.K.H.y.y.( ( y.K.z.H._ 6 [ } 6 1 a ; ; } @.d.O.d.u t u s p :.s p t t s -.=.7 7 #.v.",
"7 7 u O.&.u } i ; u u -.1.9 ; 7 p.i.o.5 9 ; - t { - { 5 a.c.c.1.u : $.; t 1 | -.i 1 : 6 -.-.u } u ; u o.-.i o.t t t i O.8 _ j.m.",
"{ - u { -.,.t a i | t : u | i O.h.b.v.u.7 7 } u =.O.O.7 i i 9 7 7 u ; 1 p s 1 ;.=.i 6 7 i : i ; 9 7 8 :.=.6 d s * s i i 5 X.m.' ",
"_ o._ [ > s i } 6 t 1 } a $.p 1 1 2 ; 6 u ; i =.O.u u { i t { 7 i &.i i u 6 } 7 O.5 _ j.7 } p 1 u u u | &.s s p p t s -.u +.d.8 ",
"7 <.7 O.-.1.1 t 1 i a a 1 1 1 t 1 a | a = ; | u i O.6 6 } u s u u =.%.u a :.d.5 ) 5 u.x.7 6 1 s i =.i 6 i s :.| s i &.=.7 +.i u ",
"#.5 ) d.d.7 i } &.&.=.a a 1 t u 1 1 z 1 t } 6 :.t -.1.[ 7 } t s +.{ -.-.u : <.d.#._ x.<._ i 1 : u :.O.| u { d.8 7 1.O.-.8 i i i ",
") _ 5 { _ 7 7 O.=.{ i : i i s 2 a a 1 1 1 [ <.O.t $.o.} 7 7 1.t 7 7 ) i 6 { [ H.p.#.i._ { { u t i s +.O.8 @.K.8.9 X.5 { 9 * 6 ; ",
"v.b.j.5 5 7 { 7 { u 6 u &.-.=.[ } t p a | u  .d.{ ; -.: { +.-.[ x.@.[ 7 1.O.7 7 u.#.X.o.u.w.:.t t t | O.8 #.c.c.( 5 ( 7 6 } i s ",
"v.y.8.i._ u.d.H.H.w.+.> : u O.-.a u : :.6 7 g._ 7 6 7 _ 0.,.O.7 x.K.{ O.: d.k.+.{ o.X.#.O.[ } t t i i 9 ( 5 ' c.5 ' a.H.d.=.&.s ",
"#.u.i..._ O.@.9.: 6 6 7 6 { } &.=.a t -.-.{ t - _ 5 7 { 9.d.{ 5 j.8.@...{ 7 H.k.O.-.{  .{ 6 i 1 , s u u X.@.X.s.#.s.s.z.O.6 s s ",
"- #.y.5 - O.d.7 7 7 u i : 6 t i t { 7 O.9.{ - { u.i.l.d.i u 7 ) u.X._ 5 u u u u -.O.u 8 u 1 i 1 t -.-.k.v.v.u.X.' @.@.O.u s * p ",
"5 7 { O.O.u - 6 g.d.=.[ t 6 } i 6  .7 5 j.d.7 f.v.x.X.5 { ) 5 ) 5 O.7 { 7 = } i u =.| 6 i } u : s u s i 7 o.-.O.5 9 i i u * t a ",
") d.v.u.{ 6 { d.=.-.t &.; ; i g.| - 7 ) _ 7 9 i.b.5 - f.u.O.@.7 { d.{ 6 t ; u u } } p ; s u | t , 6 u i s s u 6 t ; a u u i &.s ",
"+.9.O.u 7  .: u t | s $.i ; t d.9.7 { O.8.v.z.#.) 5 j.J.l.v.0.7 o.h.i * t a t t u t t 1 t a -.a i 8 ; 6 s 6 , s >., p u s s =.t ",
"; } u i { | t | i } | ; t 1 | g.d._  .H.K.j.p.i.5 7 u.O.j.u.[ 6 { | u 6 } &.t u t t i s t | $.-.6 u u t t t z ;.3.p 1 p s s s t ",
"} i s | } u u t s | | u > 6 { d.{ { 7 -.9.x.j.p.@.{ { O.d.7 u t } 1 u t i -.a i i ; | } i i u -.8 i i ; ; t :.&.*.s p t s t t t ",
"i u &.o.t i ;.:.i } o.u t 6 u u 7 7 6 O.u 7 _ _ - 7 i { { : t ; a a | t 6 <.| [ i u 1.t i i u i &.8 u i | u =.s t s u 6 s t 6 d ",
"} u t t ; u } $.i t } u ; [ ,.7 { 6 [ u.e.7 u 7 _ 7 6 6 a } ; a a a i : ; O.O.o.7 [ =.&.; i -.7 o.u i 9.d.u i 7 i u u u s t u p ",
"t i ; i 1 i i :.{ t i d.- 7 +.-.u | | O.k.7 [ u O._ u -.2.1 1 2 a z p t 6 [ 7 -.[ 7 7 l.: 6 -.O.6 s +.-.d.8 i 7 -.9 u =.-.t 6 u "
};
