/* XPM */
static char *result[] = {
/* columns rows colors chars-per-pixel */
"64 64 141 2 ",
"   c #000000",
".  c #090A14",
"X  c #131419",
"o  c #0E2801",
"O  c #0D2209",
"+  c #132A05",
"@  c #142A0A",
"#  c #173103",
"$  c #1A3503",
"%  c #1F3804",
"&  c #1B320C",
"*  c #122815",
"=  c #152C1E",
"-  c #1B3414",
";  c #1E331C",
":  c #233C05",
">  c #23330B",
",  c #213A0C",
"<  c #203614",
"1  c #253B15",
"2  c #21361D",
"3  c #25391C",
"4  c #293F1C",
"5  c #241527",
"6  c #341C27",
"7  c #192C23",
"8  c #1F3325",
"9  c #212121",
"0  c #2B2B28",
"q  c #223624",
"w  c #273A24",
"e  c #25392C",
"r  c #323232",
"t  c #41393E",
"y  c #254005",
"u  c #2C4506",
"i  c #2D4A05",
"p  c #27400C",
"a  c #2C450D",
"s  c #2E4A0C",
"d  c #334F04",
"f  c #354D0D",
"g  c #375303",
"h  c #36520D",
"j  c #3D5A0D",
"k  c #294114",
"l  c #2E441C",
"z  c #324B16",
"x  c #344C1D",
"c  c #345014",
"v  c #3F5413",
"b  c #37511C",
"n  c #2A4025",
"m  c #2A402C",
"M  c #314427",
"N  c #334C25",
"B  c #3B5325",
"V  c #425F0B",
"C  c #415E15",
"Z  c #415D1F",
"A  c #456A07",
"S  c #4A6B07",
"D  c #46640D",
"F  c #4B6A0D",
"G  c #577804",
"H  c #56760C",
"J  c #557A0D",
"K  c #5C7D0B",
"L  c #446315",
"P  c #496515",
"I  c #4B6915",
"U  c #44621F",
"Y  c #48651F",
"T  c #4C6A1F",
"R  c #516D17",
"E  c #506C1F",
"W  c #537417",
"Q  c #5A7715",
"!  c #5C7B15",
"~  c #55731F",
"^  c #5C761E",
"/  c #5C7B1F",
"(  c #617C17",
")  c #617D1C",
"_  c #455F2A",
"`  c #446227",
"'  c #4B6426",
"]  c #476921",
"[  c #4C6927",
"{  c #4B642E",
"}  c #516B27",
"|  c #526C2E",
" . c #557225",
".. c #5B7627",
"X. c #5D7B27",
"o. c #4A6437",
"O. c #4D6930",
"+. c #536B37",
"@. c #5C7630",
"#. c #627D27",
"$. c #617C32",
"%. c #505051",
"&. c #5D5C5D",
"*. c #5D7441",
"=. c #5F5865",
"-. c #6B6C6C",
";. c #70706B",
":. c #648320",
">. c #658328",
",. c #7F877A",
"<. c #787D80",
"1. c #7C8484",
"2. c #828686",
"3. c #878B83",
"4. c #878B8A",
"5. c #8F9389",
"6. c #8F9888",
"7. c #92958C",
"8. c #959B8F",
"9. c #9A9D8A",
"0. c #8E8F90",
"q. c #8F9495",
"w. c #959693",
"e. c #969A93",
"r. c #9B959A",
"t. c #9F9F9E",
"y. c #A0A19C",
"u. c #A7AAA7",
"i. c #AFA9AF",
"p. c #B0AEB6",
"a. c #B5B7B6",
"s. c #BCBCBB",
"d. c #B8C0AE",
"f. c #BEC3BE",
"g. c #C0C4B5",
"h. c #C2C3BC",
"j. c #BDBFC4",
"k. c #BFC3C5",
"l. c #C3C2C4",
"z. c #C5CAC1",
"x. c #C4C4CC",
/* pixels */
"- 1 1 < < 1 5 6 6 5 5 #.. . . . . x Y ] 1 1 1 x z 1 1 1 x 1 < - < 4 1 . . 5 5 5 5 . ] #.Y 1 Y z 1 T ] T 1 1 1 x x 1 3 1 x 1 < < ",
"1 4 1 1 < < 5 5 5 5 1 ' ) . . . . . . b x 1 1 b b 1 4 1 - 1 ; 1 1 x 1 1 < . 5 5 5 . . ] ) x 4 3 ' ] ^ ^ ] 1 1 b x 1 < 3 1 < < 1 ",
"1 1 x 1 3 < 5 5 5 5 1 1 1 1 . . . . . . 1 1 4 1 3 1 2 < < ; 1 1 x x 1 < < 1 5 5 5 5 . 1 < 1 1 z 1 1 1 1 1 4 1 1 1 < < 1 1 1 1 3 ",
"x x b 1 z 1 5 5 5 5 5 1 < < 3 . . . . . 1 x 1 1 1 1 3 < < < x Y b x - 1 3 3 5 5 5 5 1 1 z 1 1 B 1 1 x x x 1 1 1 < 3 < 1 1 1 1 x ",
"[ x 1 4 z z 4 5 5 5 5 - ; < < < < ; 1 1 1 x x 1 4 1 1 1 < ' ) ..x x 1 - 1 x x 5 5 5 1 4 / 1 b b 1 B b 1 1 < 1 ; 1 1 1 x 4 1 1 x ",
"b 1 1 4 1 x 1 z x x < - < 1 2 < < - 1 4 1 x x 1 1 1 z 1 1 < 1 ] z 4 1 1 < 1 1 x x 1 1 ] ^ x x - 1 z 1 1 1 < - 1 1 1 1 x x 1 1 x ",
"> : l a z a 1 B k & & 1 1 k > - - > < , c : z x > : _ < 3 & 1 1 , , - - & - # 1 & b 1 L X.[ : - 3 1 1 & & - & - 1 1 > k v 1 > a ",
"1 & : 1 N > : : $ & - 1 , 1 1 < & < < & { : : > : ..R : < < , 1 < 1 @ & & - & & , & k c U f k % & , , > & - - @ & z , % z 1 1 l ",
"z k > , < - 1 3 $ ; % - N c & , 1 : - & F #., , H T f , & 1 z s s : 1 - & > , x / ! ! I z b - c S @...% # y - - 1 f > 1 < > b z ",
"b a , 1 1 1 & + - % 1 4 i s k & k B x a T ..c u ` z , 1 1 , , z [ z & - & 1 , , 1 p ' P Y i Y L z & $ - - $ - y # b a : 3 z z 1 ",
"z x x , # + > 1 - g 4 ; z $ - k % 1 k d c D ^ f x 1 $ , 1 > < 1 U _ , , > k & , u 1 : f ` c k - 1 - & - & - l , : 1 b u , x # > ",
": > , , , k , > 4 D U 2 1 p c l h 3 k c l h ^ c i U | ` z , , , y b k & 1 k a 1 < + < 4 - & - - $ # % , k , k s f > 1 x 1 w k , ",
", : > k l b z 1 & E K i 1 s f z p 1 & - - c c c T T f % , , z k : p p % x x & , 3 1 : , > 3 + y - - < $ z ` I ../ i - 2 > 1 & h ",
"k 1 , & , 1 l x 3 < H ..4 k z - > , - ; $ a & , $ , 1 - < & f f k , 1 k b p , < _ ..Q ^ : 3 ; 1 z x & & 1 - : ] ! ^ k > i # c W ",
"k > , & > , > : 1 > f Y x k y 1 , : & - $ & ; & - 1 - 1 4 x c k p - , b p : , , h I ( F C : & , g ^ l < & - : : d E ' % u R #.#.",
", < < & & $ , x H ! z f d ' ( ! ` c , p b & & - & - $ $ : , , < < 1 , b % : N > f s O.` c { y k ! / , & 1 1 ' Y l & , f _ R Q f ",
"> x 1 , & , : > - [ T c D X. .T > - - @ N k % % $ , < & > > 1 1 p z % - % c s , y , z ` z 1 , T ' I 3 ; c U / I % : , ` T U Y , ",
"1 l & < a x x N % : k k T D c $ k o p , # z x - > & < - , > > 1 - N k p z N s & - - , U U i k Y x - : %  .W T z x x 1 z f i % p ",
"u z 1 x > : : N l k - & f p - 3 o , , % & 1 & k % < < , , 1 , , s & u k l % n k 1 k , : h s z , % 1 : , k h i l - 4 1 $ , n & k ",
"1 : & x z : 1 : & 1 - 4 p - * & 4 x z , k 1 l : & 1 , N k 1 k , , 1 8 k y - ~ :...` , 1 : - , > - , 3 , p o s 8 - + $ 1 1 - 1 - ",
"k , > a z : , , < + & % c 3 l % 1 1 z a z k { % 1 l a : 1 $ B , X.x % & % [ y G I i & 4 < , 1 M N z - 1 [ p % * 1 p p p 1 - 1 : ",
"b c 1 > 1 # 1 > , p & $ ` c - y # , - 1 M % L / , z : u > , b & :.S b : ` N } Y z : a & % $ , & c Y y k } W , % a ` c $ , b a : ",
"x x : , k b a 1 x [ k - z s % ` c : % 1 , % d X.> : f | b p , , F ] L x y Z O.% q p f k B % - < & k g # R X.' - ] c 1 < N z 1 > ",
"# z , N z v , > - g T x & # B s 2 > b L Q >.s M , c @.h # > k & O.i [ z y : % q , ` d p < - # - , % ; l & z I $ ] $ < < > : , 1 ",
", , , > > k & 1 < 1 , N M & - - < z b : f #...d : ' _ p , , , , a c b x % , & 1 > 1 # & 1 - > & $ 1 % ` p - x h - T J A +.& k 1 ",
": { 1 1 , 1 k & # % $ $ , & & $ & 1 # - , i Y b & k k > & > - < : k l , k $ 1 1 < 3 1 @ < 1 < & - - [ ^ ! I c k ` >.A - - & z p ",
"k ` : k z % u - x k - # & & , z $ + 1 3 - 1 , - & : & 1 : 1 , # N 6.e.q.q.q.w.0.8.3.7.e.3.5.7.7.1 % % d D ^ T s I j 1 n 1 a f : ",
"% k % u x z & p p x x l 4 1 , z N # & < - & - 4 1 , k , , 1 1 & &                               & k 1 1 a L ' N Y s p N z c & & ",
"& & , > , b 1 & # - 1 , & < : z b > 1 , , & > : & - - - @ - - - 1                               N % ; 8 1 % # k 1 & & : : k < ; ",
"k , 1 1 & 1 k & & $ , p 1 & & , f & k : % % & > - - $ , l , # & -             -.l.l.0.          c c p - - p p & > k k - & < - $ ",
"1 , & 1 & & & 1 k x z a : , x , 1 1 @ c s > < < > & > a x 1 & - 3           h.0 0 r 9 l.        & k % ] U % - 3 % & & k 1 - - - ",
", 1 & - - 1 : 1 - y z ` c : z z : 1 N a { z.l.f.j.k.l.z.f.f.l.x.f.        <.l.l.l.l.l.9 y.      1 1 k h [ 1 k % x , - c i & & % ",
"& 1 > $ > < > : % I S / U y [ g y L E U p f.k.x.9.a.p.i.r.r.l.h.h.        x.l.h.l.l.l.&.h.      % ' F ` - - w k B , > 1 x 1 + & ",
"1 1 u > & - 1 c - ; b P / s @ q ` Y W W } f.l.d.s.p.a.g.d.k.j.u.e.        j.l.s.t.e.y.p.s.      O.] W :.I $ % c b & : $ & & & 1 ",
"z k , > & & , z N p O e & [ y z h >.W s # & k l 1 4 , , k < 1 y a         -.f.s.l.l.l.X u.      , % 4 + k 8 p , , , , , k & > 1 ",
"s z 1 > - - 1 : % y : s b N z u ` ` , # < ; O k , & 1 > - < p F x           a.=.%.&.%.p.        % z - , k @ c & , > 1 @ 1 1 > z ",
"b z p & 1 k 1 : ; i ~ W Y % x & & % # - * 2 1 & z i s [ y : @.H d             t h.h.;.          , : s , : D a l q > & 1 1 1 , z ",
"k , , , z z 1 1 k { T k 1 , $ 3 - - z c c & - # > N k j _ , , | z                               1 & } 1 , $.% & 1 < @ & & , , c ",
"k , , z x k , , $ - k % # 4 < 1 1 c s $ , $ $ - : k p ] ' , , > 3 2.2.4.<.3.4.2.3.4.2.2.4.1.3.,.% b L ~ g i x 4 : : > 1 1 , $ : ",
"& 1 1 > : % > & , z z N > , : , s z - 3 - 1 x a f < * , : & < 1 : N : ' N > z > , > 1 > $ > c O.^ L z } f w h A  .Y h , + < 1 N ",
"% 1 M - 1 & & - y - , c z 3 , , 1 $ 1 q > h z M s - s , - f ) < u & k / f , 3 , < , , N % p 1 & s >.D i b x L :.b < 1 : < < x z ",
"] s b y # b z % , q < : z > , ~ :.! D : % 1 $ z z 4 , 1 g ^ .., _ U i  .- p & f c < : ' k k b - k p T ] a , O.s , < - & > > k 1 ",
"T c $ p c c , # - X.d - < : ' A W L B k & - 1 $ s z 1 - / Y , $ U ^ Y h f Q ^ ] & : , O.s b $ p - , c z c - 1 - : k - - , , 1 1 ",
"% { , $ - # - ; % J ! N 3 { d Y I c , # c x 2 - n $ y , I z - k % g ..f k $ , ; 1 : % : c z $ z s k - & k , $ % > z < - , 1 & , ",
": 1 k - % - - - p ] A I : k s U % 1 - : x - & , L W L < p k # p 2 $ b z > - , & & - k | % % [ z p , < 2 , - & 1 & s c 1 : < & d ",
"*.u p N l # & & - - c A y , O.] - % 1 1 $ % ] :.Q D T q > U :.+.) : # 1 : < @ 1 & @ k x { z ` % & & , , c p , - - : f z , 1 x ) ",
"$ % % s z % p & - - % x N y # y L } x - 7 & & - w - i # T ! J v - < 4 & @ 7 , d 1 % & & z c - p < & , f c - k - - - , z 1 > } #.",
"1 & 1 k l B > - $ k - - $ l ; c L :.J L , , : > z z f < < 3 > > < 2 # & : - : x l , $ : 1 & 1 & & - % x N & & p @ < 1 , > f #.d ",
"% z 1 1 & , : 2 & & % $ , , 1 - - & # - ; - - N z 1 2 k 1 # u < 1 l > : & - 1 % x , k [ - y % * - , < k z 1 w > , & 2 M , z { : ",
"% B % c g N & , = 2 2 ; & & & & - - k - O & p , p a $ & k , 2 % y h z , , z +.& & % ] ..- - & 1 1 b 1 & : : N 1 1 > z f : u p & ",
"h > & ] T - 3 p s c p k $ < & < % # - & & k $ c < f b , & 1 & y m p h z 1 $ h I h i  .c , 1 % - < B z 1 , u P % : b a c % & 1 ; ",
"1 l & k p & : s z p < - < < , $ & 1 & & & & b s & l k y 1 - b - 1 & & : & 3 i ^ ` z I p y k & - , , s f , z #.V & z & k & & & & ",
"! ..T $ - ; 1 % p % % - M M b y p - & 1 k % s [ < - N % k a f 1 Q c 1 > B z % , L b x k L ` c - # > u s 1 M ^ ( k % : % % k 1 - ",
"/ D L O., ` U /  .] k $ # , k z p , & N $ % o.% & , 2 1 U c x , Q #., N # T } k 1 u i N z 1 1 % & 2 1 , 3 q u Q - s } ..[ c z : ",
"f Y T s 1 c h L - 4 - & & 1 k z n , % N b , - & , % : p U { 1 @ } C h k 1 :  .T N c k l p # 3 # * 1 > , s z z } x O.T ~ d # p - ",
"= h L - - c U & $ , p - & & - % % , - c ` p + l ' ' R I p , : < P z k & 1 1 - : c s < < > # 3 & 1 f f [ H K Y z a h h s - w - - ",
"- > k x x , & ; U T s , 1 - 1 : - p > : R ' % I :.Q h - k p & ; % x , p - o k p : z 1 > , < - > p , , , , k l N - & 4 1 & $ & - ",
", T ! D 1 - p L s z : x & @ , ' l + , , 3 - 1 I  .$ $ [ A c b y k ` k & & & & & 1 < > @ < , 1 > - & > 1 k y - # # & - p - p l 1 ",
"l ` d : & l & % % p , l - $ % U C < w h D Q W c 1 $ O.X.W X.j & a ` p + - ; - & - - > & > , z , - - & - - & # p z $ - - % k N & ",
"$ k < w , k 1 w < 3 k + - - , ' T p i G X.} F ' - % ] d ] L y & p p > & 1 N & 1 - < < < & a a B & 1 & - - & 1 N N % @ & , - 1 % ",
"1 1 u k 1 % , % - k a & & - % ` : w q b U ~ R C c 1 p s ` - - - % & & - , N % , < % k , 1 < , N , 1 - # # & b k k k - & 1 & & & ",
"& : a a > , x c , p s , & - p % , , - 1 : : n 1 + 1 1 k 1 & - % - - k & & b s y 1 : c : & < 1 % l y % , p % N p & k - & p 1 - 1 ",
"1 < < 1 + , k l - , p & & 1 N - 8 & p L I % 1 # 3 : & & & k # k k - k & @ N k k < , z a & 1 N % k $ u b ` y p - y % & , p & & - ",
"& - & 2 , , : b , - , o.$ p k c % p z s O.& 1 1 z , , z N - - - % , & $ & 1 % b 1 & % +.$ , b c - k z j ` : a - N % , z c $ & 8 "
};
