/* XPM */
static char *result[] = {
/* columns rows colors chars-per-pixel */
"64 64 142 2 ",
"   c #000000",
".  c #090A14",
"X  c #131419",
"o  c #0E2406",
"O  c #0E2801",
"+  c #0D2209",
"@  c #132A05",
"#  c #142A0A",
"$  c #173103",
"%  c #1A3504",
"&  c #1F3804",
"*  c #1B320C",
"=  c #122815",
"-  c #152C1E",
";  c #1C3414",
":  c #1E331C",
">  c #233C05",
",  c #23330B",
"<  c #213A0C",
"1  c #213614",
"2  c #253B15",
"3  c #21371C",
"4  c #25391C",
"5  c #293F1C",
"6  c #241527",
"7  c #341C27",
"8  c #192C22",
"9  c #1F3325",
"0  c #212121",
"q  c #2B2B28",
"w  c #223624",
"e  c #273A24",
"r  c #25392C",
"t  c #323232",
"y  c #4D2B32",
"u  c #41393E",
"i  c #254004",
"p  c #2C4506",
"a  c #2D4A05",
"s  c #27400C",
"d  c #2C450D",
"f  c #2E4A0C",
"g  c #334F04",
"h  c #354D0D",
"j  c #375303",
"k  c #36520D",
"l  c #3D5A0D",
"z  c #294114",
"x  c #2E441C",
"c  c #324B16",
"v  c #344C1C",
"b  c #345014",
"n  c #3E5413",
"m  c #37511C",
"M  c #2A4025",
"N  c #2A402C",
"B  c #314427",
"V  c #334B25",
"C  c #3A5225",
"Z  c #425F0B",
"A  c #415E15",
"S  c #415D1F",
"D  c #456A07",
"F  c #46640D",
"G  c #4A690D",
"H  c #577904",
"J  c #56760C",
"K  c #557A0D",
"L  c #5C7D0B",
"P  c #446315",
"I  c #486515",
"U  c #4B6915",
"Y  c #44621F",
"T  c #48651F",
"R  c #4C6A1F",
"E  c #516D17",
"W  c #506C1F",
"Q  c #537417",
"!  c #5A7715",
"~  c #5C7B15",
"^  c #55731F",
"/  c #5D761F",
"(  c #5C7B1F",
")  c #617C17",
"_  c #617D1C",
"`  c #465F2A",
"'  c #446227",
"]  c #4B6426",
"[  c #476921",
"{  c #4C6927",
"}  c #4B642E",
"|  c #516B27",
" . c #536C2E",
".. c #557225",
"X. c #5B7627",
"o. c #5D7B27",
"O. c #4A6437",
"+. c #4D6930",
"@. c #536B37",
"#. c #5C7630",
"$. c #627D27",
"%. c #617C32",
"&. c #505051",
"*. c #5D5C5D",
"=. c #7A4841",
"-. c #5D7441",
";. c #5F5865",
":. c #6B6C6C",
">. c #70706B",
",. c #648320",
"<. c #658328",
"1. c #7F877A",
"2. c #797D80",
"3. c #7C8484",
"4. c #828686",
"5. c #878B83",
"6. c #878B89",
"7. c #8F9389",
"8. c #8E9888",
"9. c #92958C",
"0. c #959B8F",
"q. c #9A9D8A",
"w. c #8E8F90",
"e. c #8F9495",
"r. c #969A93",
"t. c #9B959A",
"y. c #9F9F9E",
"u. c #A0A19C",
"i. c #A7AAA7",
"p. c #AFA8AF",
"a. c #B0AEB6",
"s. c #ADB1B2",
"d. c #B5B7B6",
"f. c #BCBCBB",
"g. c #B8C0AE",
"h. c #BEC3BE",
"j. c #C2C3BC",
"k. c #BDBFC4",
"l. c #BFC3C5",
"z. c #C3C2C4",
"x. c #C5CAC1",
"c. c #C4C4CC",
/* pixels */
"; 5 2 1 1 2 2 2 4 v [ _ ] 2 ] c 2 v ] [ y y =.=.y =.=.=.=.=.y y y =.y y 7 y 7 7 y y y =.y y =.=.y y y y =.=.=.7 7 7 7 2 v 4 1 1 ",
"2 2 2 2 3 1 2 2 2 2 2 ] _ v 2 2 v v b v v y y y y y =.y y =.=.y y y y y 7 7 7 7 y y y y y y =.=.y y y y y y y 7 7 7 7 2 2 1 1 2 ",
"2 2 v 2 2 2 1 2 1 4 2 2 2 2 2 2 2 2 2 2 2 2 y y y y =.y y y y y y 7 y 7 7 7 7 7 7 y y 7 y y y =.y y y y y y y 7 7 7 1 2 2 2 4 2 ",
"v v v 2 v 2 4 2 1 1 2 2 1 1 2 2 3 2 2 2 2 v 2 y y y y y y y 7 7 7 7 7 7 7 2 2 2 7 7 7 7 7 y y y 7 y y 7 y y 7 7 7 6 2 2 2 2 2 v ",
"[ v 2 2 m v 2 2 2 ; : 1 1 ; 1 1 3 : 2 2 2 v v . . 6 y y y 7 7 6 v v : 2 2 v v v 2 7 7 7 7 7 7 7 7 y y 7 7 y 7 7 7 6 2 v 2 2 5 v ",
"v 2 2 2 2 v 2 v v m ; : 3 4 ; : 1 1 2 2 2 v . . . 6 y y 7 7 6 { v 2 2 ; 3 2 2 b v 2 2 [ _ v v 7 7 7 y y 7 7 7 7 7 6 6 v v 2 2 v ",
"2 2 v m v 2 v v 2 2 1 1 5 2 2 2 1 2 2 2 v . . . . 6 6 y 7 7 6 2 2 2 4 1 : 1 2 2 2 v 2 [ / [ 2 2 5 . . . 6 6 7 7 7 7 6 m v 2 2 2 ",
"2 2 2 2 v 2 2 2 1 ; 2 2 2 v 2 2 2 2 1 1 R . . . . . 6 y 7 6 6 2 2 2 1 1 ; : 1 1 2 2 2 v [ v 2 2 2 . . . . 6 6 6 7 7 6 2 v 2 2 v ",
"v 2 2 2 2 2 2 2 1 4 5 2 v v 2 2 2 2 2 2 . . . . ] _ 6 6 7 6 v v v 2 2 ; 1 2 2 v $._ / ] v v 2 v . . . . . ; 6 6 6 7 7 6 2 2 v v ",
"v v 5 5 2 2 1 1 3 2 2 2 v b 2 2 v v . . . . . v T m 2 6 6 6 6 v R v 2 2 3 2 2 2 2 v T T R v [ . . . . . 2 2 2 6 6 6 7 6 2 v v 2 ",
"v c v 2 1 1 1 5 2 v 2 2 v 2 5 2 2 . . . . . $.x v 2 2 6 6 6 6 2 R v 2 2 2 2 2 2 2 2 2 v [ v . . . . . : 2 2 2 2 6 6 6 6 , S 2 2 ",
"2 2 2 2 2 4 2 2 2 [ [ 2 2 2 v v v . . . . v _ c v R [ [ 6 6 6 2 2 [ 2 5 2 v 2 2 2 2 2 2 2 . . . . . 1 2 2 2 m 6 6 6 6 6 4 2 2 2 ",
"2 2 2 2 v v v 2 2 ] / v 2 v v v 2 2 2 2 2 v v m T [ v 2 6 6 6 v 2 2 2 2 v v 2 2 2 2 2 2 2 . . . . 4 ; 2 v ] T 6 6 6 6 2 2 4 2 v ",
"v 2 2 5 2 2 v c 2 2 / _ 2 v v 2 2 2 1 1 ; 2 2 z 2 2 2 2 2 2 v v v 2 2 m v 2 2 2 T $./ / 2 2 1 5 m v 2 ; ; 2 2 T _ ) 2 2 2 2 v _ ",
"2 , , , , < , , 2 , h T v 2 > 2 < > * 1 % * : * ; z 2 ; 5 v b z z < , V s > < 2 h I _ G A > * < j / x 2 * ; , , g W ] , > E $.$.",
"< 1 1 * * , > c J ) c h g W ) ) ' b > < C * # ; * ; % % > < < 1 1 2 & C & > v , h h +.' b } i z ! ( < * z < W S 5 , 2 c ] E ! h ",
", v 2 < * < > , & +.[ b F o...R , ; ; @ v z % < % < 1 * * , 2 2 z c & 2 & b f < < < c ' b 2 < R ] U 4 : b [ o.U % > & ' [ T T < ",
"z x * 1 d v v V & > z z [ F b % 2 O z < % c v * , ; 1 ; , < , 2 ; v 2 s v m s * ; 2 ; [ T a z ] v * & & ..~ R c v v 2 c k f & 2 ",
"s c 1 v 2 > < m x z ; * h < ; 4 @ < < & < 2 * z & 1 1 < < z < > f * z z v % M z < z & < k a c > & 2 > < z k a x ; 5 2 $ < x * z ",
"s < * v h > < , * 2 1 3 s ; = < 5 v c < 2 1 x > * 1 s v z 2 2 < < 2 9 z i & ..,.X.[ , 2 < * < , ; < 4 < ; O f 9 ; @ $ z 1 1 1 ; ",
"z < , d x < < , 1 @ < & v 3 z i 1 2 c p c 2 } & 2 x f & < & C < / v % * & { i H U a * x 1 < 2 M V b ; 2 { s & = 2 s s s 2 ; 2 > ",
"b v z , < > < , < > * % ' m & i % < 1 2 V & P ( , c & a > < m * ,.D m > ' v | [ c < d * & % < * c T i z | Q & & d ' b % s v c > ",
"V v > < z m c 2 V { z ; c f < ' b > < 1 < & j o., < h  .V z * s G [ P V > S +.% w s f z v > ; ; * z k % E ( ] 2 R b 2 ; v c < , ",
"$ c > v c c < , 1 j [ v * $ v f 3 , m P ~ $.f B < b #.k $ , z * +.a { c i i < r & Y g s : 1 % ; & & : x * c U $ [ % 1 1 , > < 3 ",
"< , < , , z * 2 ; 2 < V V * ; ; 1 c v > h $.X.g > { ` s < < < < a b m V & < & 2 , 2 % * 2 ; , * $ 2 < ' s ; v k ; R K D @.& z : ",
"> +.s 2 s ; z * $ < % % * * * % * 2 @ 1 < a ] v * z z , * , 1 1 i x x , z % 2 : 1 4 1 # ; 2 1 * ; & ] ( ~ U b z ' <.F & ; * m s ",
"z ' > z c & z & v z & $ * * < b % @ z 4 ; z & * & > * < > 1 < $ B 8.r.7.e.e.r.7.0.5.9.r.5.9.9.9.2 & i a F / W f U l ; M ; d h & ",
"& z & s v c * z 2 v V x x 2 < z C $ * ; ; * ; 5 3 , z < < 2 2 * *                               ; z ; z d P ] V T f z V b m & * ",
"; * < , s v 2 * $ & 2 < * 1 s c v * 2 < > * < , ; ; ; ; * ; ; ; 2                               v % : 9 1 & % z 1 * ; & > z ; 3 ",
"z < ; 2 * 2 z * * % < s 2 * * < h * 2 > * & * , * ; $ s x * $ * ;             :.z.z.w.          b b 2 2 ; s s * < z z < * 1 ; % ",
"z < * 2 * * * z z v c f > < v < < 2 * c h < , 1 * ; , f v 2 * ; 4           z.q q t 0 z.        * z % R T % 1 4 < * * 2 z ; * ; ",
"& 2 * ; ; 2 & < ; < c ' c > c c > 2 C d } x.l.k.l.l.z.j.h.h.z.c.h.        2.z.z.z.z.z.0 u.      2 2 z k ] 2 z & c < ; b f * * % ",
"* 2 < & * 1 , < & U D ( [ & ] j < I [ [ s j.l.c.q.s.d.p.t.t.z.h.j.        c.z.j.z.z.z.*.j.      & ] G ' ; 1 e z m , , 2 v 2 $ * ",
"2 z > , ; ; 2 n : : m U ( a * w ' [ Q Q | g.z.h.h.a.d.j.g.h.k.i.0.        k.z.f.y.r.y.p.f.      +.[ Q ,.U % % b v < & $ * * * 2 ",
"c z < * * # , c v s + r * { i c k <.^ a % * z z 1 5 * > z 1 2 i d         :.h.f.z.z.z.X i.      < % 5 @ z 9 s < < < < < z < < 1 ",
"h c s , ; 1 < < % s > d m V v p T ' & $ : : + s < * 2 , ; 4 d F v           d.;.&.*.&.a.        & c ; s 2 * b * < , 2 * ; 1 , c ",
"c c < * 2 z z > : a ..Q [ % v * ; % % * = 3 2 ; b p h { > > #.H g             u j.j.>.          , > h < & D f M 3 , ; 2 2 2 < c ",
"z s , < c c < 2 z { R z z , % 3 ; ; c b b * ; $ , V z l ` < < @.v                               : & { 2 < %.& * 2 ; # * ; < > b ",
"z < s c v z * 1 % ; z & $ 5 1 2 2 b c % < % % ; & 2 < R { < < , 4 3.4.6.2.5.6.4.6.6.4.4.6.3.5.1.& C P ..j g v 4 > > , 2 1 < $ > ",
"* 2 2 , > > , * < c c m , > < , f c ; 2 ; 2 v f h : ; & & * 1 2 > V > ] V , c , > , 2 < $ < c  .~ P c | f M h D ..] n > @ 1 2 V ",
"% z V ; 2 * * ; i ; & n c 3 < > 2 % 1 w < g c B f ; f < ; h _ 1 p * 2 ( h > w < 1 < < v % s 2 * f #.F a m V [ ~ v 1 2 > 1 2 c c ",
"{ a m > % v c % s : ; < c < < ^ ( ~ F i < 2 % c c x & 3 g ( o.< ' T g ..; z * h c 1 > ] z z m ; z s R [ f < +.f > 1 ; * * , z 2 ",
"[ b % z b b < $ ; X.a ; 1 > { D ~ A C z * ; 1 % a c 2 ; / R & % T / T k h ~ / R , & < +.f m % z & z v c v & z & > z ; ; < < 2 < ",
"& } & % ; $ ; : & J ,.m 1 O.g T U b < $ b v : 2 M % i , U c : z & j X.f z $ & : 2 > & > b c $ c d z ; ; z & & < , v 1 ; < 1 * s ",
"i ; z 2 & * ; ; s Y D [ > z f T & z & i v ; * < P Q P 1 , d $ < 3 % v c < ; * * * ; z  .& & | b s & : 3 < & ; ; ; f c 2 , 1 * g ",
"-.s s V z * * * ; ; k D > < +.T : < ; 1 % & ] ,.! G R w < T ,. ._ > $ 3 > 1 * 2 * * z V } b Y & * * < > b s ; ; ; i h v > 2 b o.",
"% & & f c & s * ; ; i v V i % > P { V 1 - * * ; e ; p $ | ! K A ; 1 2 , # 8 > g ; & ; * c b ; s 9 * s f b ; z ; ; * , c 2 > | $.",
"1 * 2 z v V < ; % z ; ; % 5 : b P ,.H P < < < < v c f 1 2 2 , , 1 3 $ * > ; > V x & % > ; * 2 * * & & V V * * < $ : 2 < , h $.g ",
"< c 2 2 # < < 4 * * & % < < 2 ; ; * @ * : ; ; V c 1 3 z 2 & < ; 2 x , < * ; 2 & v * z { ; > $ ; & & 3 z c 2 e % , * 3 V < c } & ",
"& C & k j C * > 8 3 : : * * * * ; ; z ; o * z > s d % * 2 < 4 > i h c > < v @.* * > T o.1 : * 1 2 V 2 * > > V 2 2 , c h > d s * ",
"k * * R [ ; 3 s f c s z & ; * ; * % ; $ ; z % b 1 g m < * 2 ; & N s n c 2 % k U k a ..b < 2 $ ; 1 V c z < p I & < v f b & & 2 3 ",
"2 x * z s & < a c z 2 * ; 3 & % * z * * * * m f * 5 c i ; 2 m & ; * * > * 4 a ~ Y c U s i 2 < ; < < f h < b $.Z < c * 2 * * * * ",
") / [ > ; : 2 & s % & ; V B m i s ; * 2 z & a { 3 ; V & z d h 2 ~ b 1 , C c % < P m v z P ' b ; , * s h 2 B / ~ z & i & & z 2 & ",
"( F P +.< ` Y ( ..[ z % $ < z c z ; * V % & O.< # , 3 2 Y b c < ~ $.s V % R | z z p a V c 1 2 > * 3 2 , 4 3 p ! & f | X.' b c < ",
"h Y R a 2 b k F ; 2 * ; * 2 z c v & & v m < ; * s & i s Y } 2 * | l k z 1 & ..R V c z x < % 4 & * 2 < < f v c | V +.| ^ a % z ; ",
"- k P ; ; c Y ; % < s ; * * 1 & ; & * m ' s $ 4 T { R U s < > ; U c z * 2 z 1 & b h 1 1 , $ 3 * 1 f h { J L T c d b j z ; e * ; ",
"< , z v v < * : [ ] f < 2 ; 1 & ; < , < E ] & U ,.Q k ; z s * : % m & 2 ; O z < > c 1 * , 2 1 * z & s < > z v v ; * z : * $ * ; ",
", R ! F s ; < P f c & v * * , { x $ < , 4 ; z U X.$ % [ D b m i z ' z * ; * * * 2 1 1 * 1 < 2 < ; * , ; z < ; $ $ * : & < z x z ",
"x ' g > * x * > & s < x ; % & Y P : e k F ~ Q c ; % +.<.Q <.l % d ' s $ ; : ; * ; ; , * * < c < ; ; * ; ; * % z c $ ; ; * z V * ",
"$ x 3 e < z 1 e 2 2 z @ ; ; & { U s a H o.W G { ; > [ a [ A > ; s s , * 2 v * 2 ; 1 1 1 , p d v & ; * ; ; * ; v V & * * s & ; & ",
"z < s z 2 < < & ; z s < * ; & ' & e w m T ^ R P n 2 z f Y ; ; ; < * * ; < m * s 1 & z > 2 1 , V ; 2 & * $ * m z z z : # 2 * * & ",
"* < d f 1 & c b < s c ; * ; s ; < < ; 2 > > M 2 @ ; 2 z ; * ; > ; ; z * ; m a < 2 > v > < 1 2 & v i & & s & v z & z ; ; z ; ; : ",
"2 2 1 2 $ < z x ; > < & * ; C & w * s P U % 1 % 4 > * * ; z % 4 z < 1 * * V z z ; < c f * 2 V % z % z m ' i s * < ; & & f ; ; ; ",
"* 3 # 1 ; & > m 2 * s O.% s z c & s c f +.* 2 < c < > c v ; ; ; & & * % * 2 & m 2 * & @.% & m c ; z c l ' < s ; m > < c c % % : "
};
