/* XPM */
static char *result[] = {
/* columns rows colors chars-per-pixel */
"64 64 142 2 ",
"   c #000000",
".  c #090A14",
"X  c #121419",
"o  c #0E2801",
"O  c #0D2209",
"+  c #132A05",
"@  c #142A0A",
"#  c #173103",
"$  c #1A3504",
"%  c #1F3804",
"&  c #1A320C",
"*  c #122815",
"=  c #152C1E",
"-  c #1C3414",
";  c #1E331C",
":  c #233D04",
">  c #23330B",
",  c #213A0C",
"<  c #213614",
"1  c #253B15",
"2  c #21371D",
"3  c #25391C",
"4  c #293F1C",
"5  c #241527",
"6  c #341C27",
"7  c #192C23",
"8  c #1F3325",
"9  c #212121",
"0  c #2B2B28",
"q  c #223624",
"w  c #273A24",
"e  c #25392C",
"r  c #323232",
"t  c #4D2B32",
"y  c #41393E",
"u  c #254005",
"i  c #2C4506",
"p  c #2D4A05",
"a  c #27400C",
"s  c #2C450D",
"d  c #2E4A0C",
"f  c #334F04",
"g  c #354D0D",
"h  c #375303",
"j  c #36520D",
"k  c #3D5A0D",
"l  c #294114",
"z  c #2E441C",
"x  c #334B16",
"c  c #344D1C",
"v  c #355114",
"b  c #3E5413",
"n  c #37511C",
"m  c #2A4025",
"M  c #2A402C",
"N  c #314426",
"B  c #344B25",
"V  c #3B5225",
"C  c #425F0B",
"Z  c #415E15",
"A  c #456A07",
"S  c #4A6B06",
"D  c #46640D",
"F  c #4A690D",
"G  c #577804",
"H  c #55760C",
"J  c #557A0D",
"K  c #5C7D0B",
"L  c #446315",
"P  c #486515",
"I  c #4B6915",
"U  c #44621F",
"Y  c #48651F",
"T  c #4C6A1F",
"R  c #516D16",
"E  c #506C1F",
"W  c #537417",
"Q  c #5A7715",
"!  c #5C7B15",
"~  c #55731F",
"^  c #5E761F",
"/  c #5C7B1F",
"(  c #617C17",
")  c #617D1C",
"_  c #455F2C",
"`  c #446227",
"'  c #4B6427",
"]  c #476921",
"[  c #4C6927",
"{  c #4B642E",
"}  c #516B27",
"|  c #536C2E",
" . c #557225",
".. c #5B7627",
"X. c #5D7B27",
"o. c #4A6437",
"O. c #4D6930",
"+. c #536B37",
"@. c #5C7630",
"#. c #627D27",
"$. c #617C32",
"%. c #505051",
"&. c #5D5C5D",
"*. c #7A4841",
"=. c #5D7441",
"-. c #5F5865",
";. c #6B6C6C",
":. c #70706B",
">. c #648320",
",. c #658328",
"<. c #7F877A",
"1. c #797D80",
"2. c #7C8484",
"3. c #828686",
"4. c #878B83",
"5. c #868B8A",
"6. c #8F9389",
"7. c #8E9888",
"8. c #92958C",
"9. c #959B8F",
"0. c #9A9D8A",
"q. c #8E8F90",
"w. c #8F9495",
"e. c #969A93",
"r. c #9B959A",
"t. c #9F9F9E",
"y. c #A0A19C",
"u. c #A7AAA7",
"i. c #AFA9AF",
"p. c #B0AEB6",
"a. c #ADB1B2",
"s. c #B5B7B6",
"d. c #BCBCBB",
"f. c #B8C0AE",
"g. c #BEC3BE",
"h. c #C0C4B5",
"j. c #C2C3BC",
"k. c #BDBFC4",
"l. c #BFC3C5",
"z. c #C3C2C4",
"x. c #C5CAC1",
"c. c #C4C4CC",
/* pixels */
"- 6 5 5 5 6 6 6 t t t t *.*.*.*.*.*.*.*.*.*.*.*.*.*.*.*.*.*.*.*.*.*.t t t t t t *.*.*.*.*.*.*.*.*.*.*.*.*.t t t t t t t t t - < ",
"1 1 6 6 6 6 6 6 6 6 t t t *.t t *.*.*.*.*.*.*.*.*.*.*.*.*.*.*.*.*.*.*.*.t t t t t *.*.*.*.*.*.*.*.*.*.*.*.*.t t t t 6 6 t t t 3 ",
"1 1 c 6 6 6 6 6 6 6 6 6 6 t t *.*.*.*.*.*.*.*.*.*.*.*.*.*.*.*.*.*.*.t t t t t *.*.*.*.*.*.*.t *.*.*.*.t *.*.*.t t t t 6 6 t 6 1 ",
"c c n 1 c 1 1 1 1 < 1 6 6 6 6 t t *.t *.*.*.*.*.*.*.*.*.*.*.*.*.*.*.*.t t t t t *.t t *.*.*.t t *.*.*.*.t *.*.t t t t t 6 6 6 c ",
"] c 1 1 c c 1 1 3 < 2 - < < 6 6 t t t *.t *.*.*.*.*.*.*.*.*.*.*.*.*.*.t t t t t t t *.*.*.*.*.t t *.*.*.t t t t t 6 6 t 6 6 6 c ",
"c 1 1 1 1 c 1 c c c - < < 3 < 6 t t t t *.*.t *.*.*.*.*.*.*.*.*.*.t *.*.*.t t t *.*.*.*.*.*.*.*.*.*.*.*.t t t t t 6 6 6 6 6 1 c ",
"1 1 n c c 1 c n 1 < 2 < 1 1 1 < < t t t *.t t *.*.t *.*.*.*.*.*.*.t t t *.t t t t *.*.*.*.*.*.*.*.*.*.*.*.t 6 6 t 6 6 6 6 1 1 1 ",
"1 1 1 1 c 1 1 1 < < 1 1 1 c 1 3 1 1 t t t t *.*.t t *.*.*.*.t *.*.*.t t t t 6 t t t *.*.t t *.t t *.t *.*.*.t 6 6 t 6 6 c 1 1 n ",
"c 1 1 4 1 1 1 1 - 4 1 1 c c 1 1 1 1 1 < t t *.*.t *.*.*.*.*.t t t *.t t 6 6 6 6 t t t *.t t *.*.t t t t *.*.*.6 6 6 6 3 1 1 c c ",
"c c 1 1 1 1 < < < 1 1 4 c c 1 1 c c n c ] t t t t t *.t t *.*.t t t t 6 6 6 6 6 t t t t t t *.*.t t t t t t t 6 6 6 6 1 1 c c 1 ",
"c c c 1 < < 1 1 1 c 1 1 c 1 1 1 1 1 c c c ] t t t t *.t t t t t 6 6 6 6 6 6 6 6 6 t t 6 t t t *.t t t t t t t 6 6 6 n c 1 c 1 1 ",
"1 1 1 1 3 3 1 1 1 ] ] 1 1 1 c c c 1 1 c c c . . t t t t t t 6 6 6 6 6 6 6 c 1 4 1 6 6 6 6 t t t 6 t t 6 t t 6 6 6 1 1 c 1 1 1 1 ",
"1 1 1 1 c c c 1 1 ' ) c 1 c c c 1 3 1 1 3 . . . . 5 t t t 6 6 6 3 1 1 1 c c 1 1 1 1 6 6 6 6 6 6 6 t t 6 6 t 6 6 6 5 1 1 1 1 1 n ",
"c 1 1 1 1 1 c c 1 1 ^ ) 1 n c 1 1 1 < < . . . . . . 5 5 t 6 6 5 n 1 1 c c 1 1 1 Y #.) ) 1 1 < 6 6 6 t t 6 6 6 6 6 6 5 1 1 1 c #.",
"1 ; 4 1 < 3 1 1 1 1 c ' c c 1 1 1 1 1 . . . . . . 1 1 5 t t 6 5 1 1 1 c c 1 1 1 c Y ) Y ' 1 1 - c . . 5 5 6 6 6 6 6 5 5 x ) ) ^ ",
"1 1 1 < < 1 1 z ^ ) c c c Z #.) T c 1 . . . . . . < - 5 t t 6 5 3 1 1 c 1 1 c 1 c c ' Y c Y 1 c #.. . . . 1 5 5 5 6 6 5 ' ' ^ x ",
"1 c 1 1 1 1 1 1 1 ] ] c ] ) #.Y 1 - . . . . . . ; 1 < 2 5 t 5 5 1 c 3 1 1 c c 1 1 1 n ] c 1 1 ] Z . . . . ' ^ Y 5 5 6 5 5 ] ] 3 ",
"1 c 1 1 1 c 4 Z 1 1 c 1 ] ] c 1 < . . . . . . 3 < 1 1 1 5 5 5 5 5 c 1 1 c c c 1 4 1 1 ] ] 1 c ] c . . . . ) ] c c 5 5 5 5 c 1 1 ",
"c 1 1 c 1 1 Z 4 c 4 1 1 c 1 2 < - . . . . . 1 1 < 1 1 1 1 5 5 5 5 1 1 c c 1 1 1 1 1 1 1 c c c 1 . . . . 1 c c B 1 5 5 5 5 1 1 1 ",
"1 1 1 c c 1 1 0 < 1 1 1 1 - < 1 . . . . 1 1 c 1 1 1 3 c c 1 5 5 5 1 1 1 1 1 ^ ^ ) ' 1 1 1 1 1 . . . . . 1 1 1 < - < 5 5 5 1 1 1 ",
"c 1 1 4 c 1 1 1 < 2 - 1 c 1 1 1 . . . . c 1 ] 1 1 c n 1 1 1 5 5 5 c < 1 1 ] n / Y c 1 1 1 1 1 . . . . 1 ] 1 < < 1 1 c 1 1 1 1 1 ",
"c c 1 1 1 1 1 1 1 1 < ; ] n 1 1 1 1 1 1 c 1 Y #.1 c 1 1 1 1 c 1 ) ) c 1 Y c ] ] c 1 1 1 1 - 2 < c ] c 1 ] ) 1 1 c Y c 1 1 c n 1 ",
"c c 1 1 c z c 1 c ] c - c c 1 ] n 1 1 1 1 1 c ) 1 1 c ) c 1 1 l T Y ' c 1 T ] 1 1 1 c c c 1 1 - 1 3 c 1 ] ^ ] 1 ] c 1 1 c c 1 3 ",
"$ g , c x Z > > < f ] c & # B d q > n Z Q #.d N > v @.j % > l & { p ' x u u , q , U f a 2 < $ - , > 3 z & x P $ T % 3 1 > : , 3 ",
"> > > > > l & 1 < l - B B & & - < x n : j #...f : ' _ , u - , , s v n c % % < 1 > 1 % & < - > & $ 1 % ' a < c j - T J A O.& l - ",
", | a 1 a - l & $ % $ $ - - % $ & 1 # - , p Y n & l l > & > - < u l z > l $ 1 - < 3 < @ < 1 < & & - ' / Q I v 1 ` ,.D % 1 & c s ",
"l ` u l x % a - c l % # @ & > v % + 1 3 - l - & > : > , % 1 , $ B 7.e.w.w.w.e.6.9.4.8.e.4.6.8.8.l & u p D ^ E d P k 1 m < d g % ",
"% l % a c x & l 1 c B z z l , l c # & - - & - z 1 & l a , 1 < & &                               & l - l s L ] B Y d - V x v - & ",
"& & a > , B 1 & # % l , & < s x c > < , , > > % - * - - @ - - - 3                               n $ ; 8 - % $ z 1 & - % : l < ; ",
"l , - 1 & 1 l & & $ & a 1 & & , g & l , % $ & > - - # a z & # & -             ;.z.z.q.          v v l - - a a & > l l - & < - $ ",
"l , & 1 & & % l l c x s % , c , , 1 & v d > < < > % > s B 1 & - 3           j.0 0 r 9 z.        & l $ T Y $ - 1 : & & l , - & - ",
"% 1 & - - 1 % , - , x ' v : x x : 1 B s { x.z.g.l.l.z.x.g.g.x.c.g.        1.z.z.z.z.z.9 y.      1 1 l j [ 1 l % x , < v d & & % ",
"& < > % & < > > u I S / U % [ f , L T ] , g.l.x.0.a.s.i.r.r.z.g.j.        c.z.j.z.z.z.&.j.      % ' F U 1 - w l n > > 1 z 1 $ & ",
"l l a > & - 1 b - ; c I / p & q ' Y W W } g.l.g.j.p.s.h.f.g.k.u.9.        k.z.d.t.e.y.p.d.      O.] W >.I $ $ v c , : # & & & 1 ",
"x l , > & & , c B a O e & [ u x j ,.W p $ & l z 1 4 & , l < < u s         ;.g.d.z.l.z.X u.      , $ 4 + l 8 a , , , , , l , > 1 ",
"d x , > - - : , & u : d n B c i U ` % # 2 ; O , > & 1 > < 2 s F c           s.-.%.&.%.p.        % x - 1 - & n & , > 1 & < - > x ",
"v x s & 1 z 1 : ; d ~ W Y $ c & - $ $ - * ; l - v p d [ : % $.H f             y j.j.:.          > u d , : D s z 3 < & 1 1 , a x ",
"l , & , v l , 1 l ] T l l > $ 3 - - d v v & - # > B l k ` , , | x                               - % } 1 , $.% & 1 - @ & & - , v ",
"l , , x c l , < $ - l % % 3 < < 1 v x $ , $ $ < % 1 , Y [ , , > 3 3.3.4.2.3.5.3.4.5.3.3.5.2.4.<., n L ~ h p c 4 : : > 1 < , # : ",
"& 1 1 > : : > & , x x c > : a , d x - 2 1 - c s g < - , % & < 1 : B : ' B > x > , > 1 > $ > v | Q L c | d m g A  .E j , + < 1 V ",
"% l B - 1 & & - u - % v x 3 , , 1 $ 1 q > j x B d - d a - g ) 2 i - l / g : 2 , < > , c $ a 1 & d @.D p n B P ! c < 1 : > 1 x x ",
"[ d n u $ c x $ a ; ; : x > & ~ >.! D u % 1 # x l z - l h ^ .., _ P p  .- l & d v 1 , ' l l n - l a T T d , O.j , < - & & > 1 1 ",
"Y v $ a v v u # - X.f - < : [ A Q Z B l & - - $ p x 1 < / Y % % Y ^ Y j g ! / T , % , | d n $ l , a v x x - 1 - : 1 - - , , 1 1 ",
"% { % $ - @ - ; u S >.B 2 { h ] I v , $ v c 2 < m $ u % P x - l % h ..d l # , ; < : % % v x # x s l - & l , $ , , x < < , < & a ",
"u , l - - & - - a U A I : 1 p U - a - u c - & , L W P ; , l # s ; $ c x > - & & & - 1 | % % [ v a - 1 - , , - - & g v 1 > < & h ",
"=.a s n l $ & & - - v A : , O.T - , < < $ % Y >.Q D T q > U >.| ) : # 1 : < & 1 & & l B { v U % & & , : v a % - - : g v , 1 v / ",
"$ & % s x % a % - - : n V : $ : P [ c - = & & - w - i % E ! J k - < 1 - @ 7 a f - % , & x v - a ; & u d v - l - - - , x 1 , } #.",
"1 & 1 l B B > - $ l - - $ 4 ; j L >.J L , , a > x x d < < 3 > > < 2 # & : - : z z , $ : < & 1 & & , , B B @ - u + ; < , > g #.f ",
"u x 1 < @ , : 3 & & % $ , , 1 - - & # & 3 - - B x < 2 l 1 $ a - 1 z > , & & 1 % B % l [ - : $ - - , - l x 1 w % > & ; B % x { % ",
"$ V - j h V & , = 2 3 ; & & @ & - - 1 - O & l : a s % & l > 2 % u j x , , x +.& & % Y ..- ; & 1 1 n < & , : B 1 1 > x g : s s & ",
"j > & T ] - 3 s d v a l & < & < & $ - & - l $ v < g n , & 1 - u M a j x 1 % j I j p  .v % 1 $ - > B x l , p P % & n d v % - 1 ; ",
"1 l & l a & : p x l < & < < , $ & 1 % & & & c d & z l u 1 - n , < & & : & 3 p / U x I a a l & & , , g g > v #.C , x & l % @ & & ",
"( / T % - ; - , a % - - B B v u a - & - l , s [ < - B % l s g - ! v 1 > V v $ , L n x z L ` v - % & a g < B ^ ( l % u - - l 1 % ",
"/ D L O.- ` Y / W T a & # - l x l - & n $ $ o.u & > < 1 U v c , Q #., B $ T } l l s p z x < l % & 2 1 , 3 2 i Q % d } ..T v x : ",
"g Y T d a v j C - 4 - & & 1 l x z , - z v u - & , % u a U { l & } Z j l - %  .E B v l z a # 3 $ - 1 > , g x x ' c O.T ~ p # l & ",
"= j L - & n U - $ - a - & & % , % , , n ` a + z Y [ T I a > % - I x l & 1 l - : v d 3 - > # q & < s g [ H K ] x s j f x - w - - ",
", > l c c , & ; T P d , < & < > - , > : R ' % I >.Q j - l a & ; # n % - , o l , : x , > > < - > l , , , , l c c - & 4 1 & # & - ",
", T Q D , - a L d x % c & & % [ z # , , 3 - 1 I  .$ $ [ A v n : l ' l & - & & & 1 < < & 1 , l > - & > - l u - $ $ & - a % l z 1 ",
"z ` f : & z & : - a , z - $ % U L ; w d D Q W v , $ O.X.W X.k % s ` a # - 1 - - - - > & & , x , - - & - < & # - l $ & - & l B & ",
"$ 4 2 w , l < w < 1 x + - - u [ T a p G X.E F ' - % ] f ] L : - a a > & - z & l - < < < & s s c & 1 & - - & l c B - & & , % 1 % ",
"1 , s x 1 - , % 1 a a - & - - ] % w q n Y ~ T L v 1 l g Y - - - % & & - l n & , < % l , 1 < > n , < % # # & n 1 l l - & 1 - % & ",
"& : s s > % v v % a x % & - - % a > - l : : m 1 + < 1 l - & - % 1 - l - & n d u 1 : c : , < 1 - z u % , a % B l & 1 1 $ l - - - ",
"1 < < < $ , l x ; % , , & 1 V % 8 & a L I $ < $ 3 : & & - l # l 1 % - & & z l l < , x d & 1 c $ l $ s n ` u , % a - - - s % - - ",
"& < @ 2 - % , n - - , o.$ a l x % a x d O.& 1 , x , , x c - - - , - - $ % a - n 1 & $ +.$ % n x - l x k ` : s - n % % x x $ & ; "
};
