/* XPM */
static char *result[] = {
/* columns rows colors chars-per-pixel */
"64 64 143 2 ",
"   c #000000",
".  c #090A14",
"X  c #131419",
"o  c #0E2307",
"O  c #0E2901",
"+  c #0D2209",
"@  c #132A05",
"#  c #142A0A",
"$  c #173103",
"%  c #1A3503",
"&  c #1F3804",
"*  c #1A320C",
"=  c #122814",
"-  c #152C1E",
";  c #1C3414",
":  c #1E331C",
">  c #233C04",
",  c #23330B",
"<  c #213A0C",
"1  c #213614",
"2  c #253B15",
"3  c #21371C",
"4  c #25391C",
"5  c #293F1C",
"6  c #241527",
"7  c #341C27",
"8  c #192C23",
"9  c #1F3325",
"0  c #212121",
"q  c #2B2B28",
"w  c #223624",
"e  c #273A24",
"r  c #25392C",
"t  c #323232",
"y  c #4D2B32",
"u  c #41393E",
"i  c #254005",
"p  c #2C4506",
"a  c #2D4A05",
"s  c #27400C",
"d  c #2C450D",
"f  c #2E4A0C",
"g  c #334F04",
"h  c #354D0D",
"j  c #375303",
"k  c #36520D",
"l  c #3D5A0D",
"z  c #294114",
"x  c #2E441C",
"c  c #334B16",
"v  c #344C1C",
"b  c #345014",
"n  c #3E5413",
"m  c #37511C",
"M  c #2A4025",
"N  c #2A402C",
"B  c #314427",
"V  c #334B25",
"C  c #3B5225",
"Z  c #425F0B",
"A  c #415E15",
"S  c #415D1F",
"D  c #456A07",
"F  c #4A6B06",
"G  c #46640D",
"H  c #4A690D",
"J  c #577804",
"K  c #55760C",
"L  c #557A0D",
"P  c #5C7D0B",
"I  c #446315",
"U  c #486515",
"Y  c #4B6915",
"T  c #44621F",
"R  c #48651F",
"E  c #4C6A1F",
"W  c #516D17",
"Q  c #506C1F",
"!  c #537417",
"~  c #5A7715",
"^  c #5C7B15",
"/  c #55731F",
"(  c #5E761F",
")  c #5C7B1F",
"_  c #617C17",
"`  c #617D1C",
"'  c #455F2C",
"]  c #446227",
"[  c #4B6427",
"{  c #476921",
"}  c #4C6927",
"|  c #4B642E",
" . c #516B27",
".. c #536C2E",
"X. c #557225",
"o. c #5B7627",
"O. c #5D7B27",
"+. c #4A6437",
"@. c #4D6930",
"#. c #536B37",
"$. c #5C7630",
"%. c #627D27",
"&. c #617C32",
"*. c #505051",
"=. c #5D5C5D",
"-. c #7A4841",
";. c #5D7441",
":. c #5F5865",
">. c #6B6C6C",
",. c #70706B",
"<. c #648320",
"1. c #658328",
"2. c #7F877A",
"3. c #797D80",
"4. c #7C8485",
"5. c #828686",
"6. c #878B83",
"7. c #878B8A",
"8. c #8F9389",
"9. c #8E9888",
"0. c #92958C",
"q. c #959B8F",
"w. c #9A9D8A",
"e. c #8E8F90",
"r. c #8F9495",
"t. c #959693",
"y. c #969A93",
"u. c #9B959A",
"i. c #9F9F9E",
"p. c #A0A19C",
"a. c #A7AAA7",
"s. c #B0AEB6",
"d. c #ADB1B2",
"f. c #B5B7B6",
"g. c #BCBCBB",
"h. c #BEC3BE",
"j. c #C0C4B5",
"k. c #C2C3BC",
"l. c #BDBFC4",
"z. c #BFC3C5",
"x. c #C3C2C4",
"c. c #C5CAC1",
"v. c #C4C4CC",
/* pixels */
"; 2 y y y y y y y y y -.-.-.-.-.-.-.-.-.-.-.-.-.y y y y y y -.-.-.-.-.-.-.-.-.-.-.-.-.-.-.-.-.-.-.-.-.-.y y y y 7 7 7 6 6 6 7 1 ",
"2 y y y 7 7 y y y y -.-.-.-.-.-.-.-.-.-.-.-.-.y y y y y -.-.-.-.-.-.-.-.-.-.-.-.-.-.-.-.-.-.-.-.y y -.y y y 7 7 7 7 7 7 7 7 3 2 ",
"2 7 y 7 7 y y y y -.-.-.y -.-.-.-.y -.-.-.-.-.-.-.y y y y y -.-.-.-.-.-.-.-.-.-.-.-.-.-.-.-.-.-.-.y y 7 7 7 7 7 7 7 7 7 7 2 2 2 ",
"v 7 7 7 y y y y y -.-.y -.-.-.-.y y -.-.-.y y -.y y y y y -.-.-.-.-.-.-.-.-.-.-.-.-.-.-.-.y -.y y 7 7 7 7 2 2 2 3 ; 2 2 2 2 2 v ",
"{ 7 7 7 y 7 7 y y y y y -.-.-.y y -.-.-.-.-.y y y y y y y -.-.-.-.-.-.-.-.-.-.-.-.-.-.y -.y y y 7 7 m 2 2 2 1 : 1 2 2 v 2 2 2 v ",
"v 2 7 7 7 7 7 y y y y y -.-.-.-.-.-.-.-.-.-.-.-.y y y -.-.-.y -.-.-.-.-.-.-.-.-.-.y -.-.y y y y 7 v 2 2 4 1 1 4 4 2 2 v m 2 2 v ",
"2 2 m 7 7 7 7 y 7 7 y -.-.-.-.-.-.-.-.-.-.-.-.y y y y -.y y y -.-.-.-.-.-.-.y -.-.y y -.y y y 2 2 2 2 2 1 : 1 1 2 2 2 m v 2 2 2 ",
"2 2 2 2 7 7 y 7 7 y -.-.-.y -.y y -.y y -.-.y y y 7 y y y y -.-.-.y -.-.-.-.y y -.-.y y y y 2 2 2 2 4 2 1 1 1 1 2 m 2 2 v 2 2 v ",
"v 2 4 2 2 7 7 7 7 -.-.-.y y y y -.-.y y -.y y y 7 7 7 7 y y -.y y y -.-.-.-.-.y -.-.y y v v 2 v S %.%.1 1 3 3 2 2 m 2 2 2 2 v v ",
"v v 2 2 2 7 7 7 7 y y y y y y y -.-.y y y y y y 7 7 7 7 7 y y y y -.-.y y -.y y y y y { { v { { v 2 1 : 1 2 2 2 2 v m 2 2 v v 2 ",
"v v v 2 1 1 7 7 7 y y y y y y y -.y y y 7 y y 7 7 7 7 7 7 7 7 7 y y y y y -.y y y y 2 v { v 2 2 2 1 1 1 2 2 2 2 2 2 v v , S 2 2 ",
"2 2 2 2 2 2 2 7 7 7 y y 7 y y 7 y y y 7 7 7 7 V v E R 7 7 7 7 7 7 7 y y y y y y . . 2 2 2 2 1 4 1 1 1 2 2 2 c c v 2 2 v 4 2 2 2 ",
"2 2 2 2 v v 6 7 7 7 y 7 7 y y 7 7 7 7 7 7 7 v v R { m 2 2 5 2 v 7 7 7 y y y 6 . . . . 2 2 2 1 2 2 2 3 1 v { { %.( v 2 2 2 2 2 v ",
"m 2 2 2 2 6 7 7 7 7 7 7 y y 7 7 7 2 1 1 1 2 2 4 2 2 2 2 2 2 m v 6 7 7 y 6 6 . . . . . . 2 5 1 4 v v 2 1 1 2 2 { ( %.2 2 2 2 v ( ",
"2 1 2 2 6 6 7 7 7 7 7 6 6 . . 2 2 2 2 2 1 ; 1 4 2 2 2 2 2 v m V 6 7 y y 6 2 2 . . . . . . 2 2 1 x ` 2 2 1 1 2 2 v R Q 2 c ( ( ( ",
"2 4 2 1 6 7 7 6 6 6 v . . . . %.{ m 2 2 v 2 3 1 1 1 1 2 2 2 2 2 6 7 y y 6 2 v . . . . . . { 2 v ` %.2 2 2 2 [ E v 2 2 c [ [ ( v ",
"2 v 2 6 6 7 6 6 2 { { . . . . { 2 3 3 2 v v 1 ; 1 2 3 1 ; 2 2 2 6 6 y 6 2 v m 2 . . . . . . 2 { [ { 2 2 v { ` R 2 2 2 { { R { 2 ",
"2 v 4 6 6 6 6 m 2 2 v . . . . 2 ; 2 2 2 ; v v 2 1 2 2 2 2 2 2 6 6 6 6 6 v v v 2 2 . . . . . . { c 1 5 2 ( ` ] v v v 2 v v v 2 2 ",
"v 2 2 6 6 6 6 m v 2 2 2 . . . . ; 2 2 2 2 2 2 2 3 2 2 2 2 2 2 6 6 6 6 v v 2 2 2 2 2 . . . . . 2 2 4 2 2 2 v v v 2 2 2 2 2 2 2 2 ",
"2 2 2 6 6 6 2 1 : 2 2 2 . . . . . v v 2 2 2 v 2 ; 2 2 v m 2 v 6 6 6 2 2 2 2 ( ( ` ] 2 2 . . . . 2 2 2 2 2 2 2 : 1 1 3 2 2 2 2 2 ",
"v 2 2 2 v 2 2 2 ; 1 1 2 m . . . . 2 v v m 2 { 2 2 v v 2 2 2 v 6 6 6 2 2 ; { m ( { m 2 2 . . . . m v 2 2 { 2 ; 1 2 2 v 2 5 2 2 2 ",
"c m z * , , > , < s * % ] b * i % > 1 1 V < I ( , c & a , < m < <.F m > ] m  .{ z < d * & % < * n S p z  .! < > d ] b % s m c < ",
"v v > < z v z 2 V } z ; c f & ] b > < 2 < & j %., s h ..m z * < H } I v > S @.% e < h z v > ; ; * 2 g $ W o.[ 1 E b 2 ; v c < , ",
"$ c < m c n < , 1 j { v * $ V f w , m I ~ %.f B < b $.k $ , z * @.a } c > i < e < R g < : 1 % ; < < 4 2 < c Y $ { % 3 1 , s , 2 ",
", < < , < z * 2 2 2 * C B * ; ; 1 c m & h %.o.g > [ ' s < < & < d b b v % < < 1 , 2 $ < 1 ; , * $ 2 < ] s ; v k ; R <.D @.* z ; ",
"s | < 2 < < z * $ < % $ < * & % * 2 $ 1 < a R m * z z , * , 1 1 i z x , x % 1 2 1 4 1 # ; 2 1 * ; & [ ) ^ Y b z ] 1.I & ; % b s ",
"z ] i z b * s * V z * % * * < b % @ z 4 * z < ; < , * < & 2 < $ V 9.y.r.r.r.t.8.q.6.0.y.6.0.0.0.z * i a G ( } f Y l s M 2 f h & ",
"& z & d v c * s 2 v v x 5 2 < z v $ * ; ; * ; 2 2 < z < < 2 2 * *                               * z ; z d I [ V R f 2 V c b * * ",
"* * < , s V 2 * $ & 2 < * 2 s c V , 2 < < * < , ; = ; ; # ; ; ; 2                               m % : 9 2 & % z 2 * ; > & z 1 : ",
"z < ; 2 * 2 z * * % < s 1 * * < h * z < % & * , * ; $ < x < $ * ;             >.x.x.e.          b b 2 1 ; s i * , z z * * 1 ; % ",
"z < * 2 * * * z z v c d & < v < < 2 * b h , 1 1 < < , d v 2 * ; 4           x.q q t 0 x.        * z % E R % 1 3 & ; * z s ; ; ; ",
"& 2 * ; * 2 > 2 * s c ] b > v c > 2 V p | c.z.h.z.z.x.c.h.h.x.v.h.        3.x.x.x.x.x.0 p.      2 2 d k [ 2 z & c < ; b f * * % ",
"* 2 < % * 1 , , & Y F ( R > } g < I E R > h.z.x.w.d.s.s.u.u.x.h.k.        v.x.k.x.x.x.=.k.      & [ H ] 2 ; e z m < , 2 v 1 $ * ",
"2 z < , ; ; , n ; : m Y ) p * w ] R ! !  .h.z.h.k.s.f.j.f.h.l.a.q.        l.x.g.i.y.i.s.g.      @.{ ! <.Y % % b v < , $ * * * 2 ",
"c c > 1 * * 2 c V s + r * } > c k 1.! a $ * z x 1 2 * > f 1 2 > d         >.h.g.x.x.x.X a.      < % 2 $ z 9 s s < < < < z * , 2 ",
"f c < , ; 1 > < & s > d m V b p R ] < $ 3 : + s < < 2 , ; 4 d H v           f.:.*.=.*.s.        & c ; 2 ; * b * < , 2 * 1 < , c ",
"c c < < 2 z 5 < : a X.! { % V * ; & % ; = 3 2 ; c p h } i > $.K g             u k.k.,.          , > f > > G d M 3 1 ; 2 2 2 > c ",
"z < , < b z > 2 z } E z z < % 4 ; * f b b * ; $ , V z l ' < < ..c                               2 *  .2 < &.& * 2 ; # * ; < < b ",
"z < > c v z * 1 % ; z & % 2 1 1 2 b v $ < % % 1 % z s { } < < , 4 5.5.7.3.5.7.5.6.7.5.5.7.4.6.2.* m I X.j g V z > > , 2 2 < $ > ",
"* 2 2 , > > < * < c c m , > < < f c ; 2 1 1 v f h ; ; * % * 1 2 > V > [ V , b < < , 2 , % < v @.^ I b  .f e h D X.Q k > @ 1 2 V ",
"% 2 V ; 2 * * ; i ; * b c 4 < s 2 % 1 w < k c B f ; f < ; k ` 2 p ; 2 ) h > 3 < 1 , < C & i 2 * f $.G a m m T <.v ; 2 < 1 1 c c ",
"} f m i % v c % s : 2 > c , * / ) ^ G i < 2 $ c c 2 * z g ( o.< ' U g X.; z * f b 1 > [ z z m ; z s E { f < @.f , 1 * * , < 2 2 ",
"R b & s b b s $ * O.a ; 1 > } D ^ A C z * ; 1 % a c 1 1 ) R < % R ( R k h ^ ( E < % < @.f m % < < s b c v & 2 * > z ; ; < < 2 2 ",
"& | & % ; # ; : & K <.V 3 | g R Y b < $ b v 3 1 M & i < Y c 1 z & j o.f z $ < : 2 > & & b c % c d z ; ; z * % & < c 1 1 < 2 $ s ",
"< < z 1 ; ; * ; i { D Y i 2 f R & z * > v ; * > I ! I 3 > z $ s 3 $ m c < * < # * ; z #.> &  .v s & : 4 < & ; 2 ; f b 2 < 1 , g ",
";.s s m d $ * * ; ; b D i < @.T ; * 2 2 % & { <.~ H R w , R <...` > $ 1 > 1 * 4 * * 2 v [ c T & * * & > b s * ; 1 > h v < 2 c ( ",
"% & < f c & s ; ; ; i v V i % i U } v ; - * * ; e ; a *  .^ L n ; 1 2 1 # 8 < g ; % < * c b ; s 4 * s f b ; z ; * ; < c 2 >  .%.",
"2 * 1 z x V < < % z ; ; % 5 : b I <.L I < < < , c c f 1 1 2 , , 1 3 $ * > ; > v x < % > 2 * 2 * * < * V V * * s @ : 1 s , h %.a ",
"< c 1 2 * & < 3 * * & % < * 2 ; ; * @ * 3 ; ; v c 2 : z 2 % s 1 2 x , < * * 2 & m * z } ; i % ; * & ; z c 2 e % < * 3 B < c | & ",
"& C & k j C * < - 3 : 9 * & * * ; ; z ; o * z > s d % * 2 < 4 & i k c < s c #.* * & R o.; : # 2 z V 2 * , > V 2 1 , c h i d s * ",
"k , * E E * 4 s f b s s * ; * ; * % ; * * z % b 1 h m < & 2 ; > N s k c 2 % k Y k a X.b < 2 % ; 1 V c z < p U , < m p b & * 2 : ",
"2 x * z s ; < a c z 2 * 1 2 < % * s ; * * * V f * x z p ; ; m & 2 * * > * 4 a ( { c Y s i z * * < < f h < n %.Z < c * z * * % * ",
"^ ( E & * : 2 & s & * ; V V v > z * * ; z < f @.1 ; V & z d h 2 ~ b 2 , C c % < I m v z I ] n ; > * < h 2 V ` _ z > i & < z 2 * ",
") G I @.; | T ) X.R s $ $ < z c s < ; v & % +.& * * 3 2 T b V < ~ O.s V % E } z 2 d a V c 1 2 & * 3 2 < 4 3 > ~ * f } o.{ b c > ",
"h R R f s b f I 2 2 ; ; * 2 z c x < * v b & ; * s & > s T [ z *  .l k z 2 & X.E v b z x < & 2 % = 2 < < f c c  .v @. ./ a $ z < ",
"- k I ; ; b { * % & s ; * * < & < ; & m ] s $ z R } E Y s , & ; Y c z * 2 z ; & b h 3 ; , $ w * 1 h h } K P R c d k j z 1 w ; ; ",
"< , z v v < # : } { f < 1 ; 1 , ; s , > W [ < Y <.~ b ; z i ; ; % m < s * O z 2 > c 2 * < 1 1 * 2 < < < i z x V ; * z 2 * % * ; ",
"< { ~ G s ; s I f c & v * * < { x @ & < 4 ; < Y X.$ % { G b m i z ] z * ; * ; * 1 1 1 * 2 < 2 , ; * < ; z s ; $ % * ; ; * z x z ",
"x ] g > * x * > & s < x ; % & R I : e h G ~ ! c < % ..1.! O.l ; d ] s @ ; 4 ; % ; * , * * < c < ; 1 * ; ; * $ s c $ ; ; * z V * ",
"% 5 3 e < z 1 M ; 2 x @ * ; < } Q s a J O. .H } ; & T g E I & ; s s , * ; v * ; ; 1 1 2 , d d v * 1 * ; ; * 2 v V & * * < & 2 & ",
"2 < d z 2 * < & 2 z i ; * ; & ] > e w v R / Q A b 2 z f { ; ; * & * * ; z m * > 2 $ x < 1 1 < C < 2 & $ $ * b z z z ; * 2 * * * ",
"* > d f , < v b & z f & * ; s & < < ; 2 > > M 2 @ 2 1 z 2 * ; % : ; z * % V f s 2 > c > < 1 2 * x i % s s & V z ; z ; * z ; ; 2 ",
"1 1 1 1 $ < z x ; & < ; * 2 V ; w * s I Y % 1 $ 5 > * * ; z $ s z & 2 * * M z z 1 > c p * 2 v & z % s m ] i s * i * ; & s ; ; * ",
"* 1 * 4 < < > b 1 ; s +.% s z b & s c f @.* 2 < v < > c v ; ; ; < ; % % ; z & m 1 * & #.% < m c ; z c l ] > s ; C & > c b % * : "
};
