/* XPM */
static char *result[] = {
/* columns rows colors chars-per-pixel */
"64 64 139 2 ",
"   c #000000",
".  c #090A14",
"X  c #131419",
"o  c #0E2801",
"O  c #0D2209",
"+  c #132A05",
"@  c #142A0A",
"#  c #173103",
"$  c #1A3503",
"%  c #1F3804",
"&  c #1B320C",
"*  c #122815",
"=  c #152C1E",
"-  c #1C3414",
";  c #1E331C",
":  c #233C05",
">  c #23330B",
",  c #213A0C",
"<  c #203614",
"1  c #253B15",
"2  c #21371D",
"3  c #25391C",
"4  c #293F1C",
"5  c #241527",
"6  c #341C27",
"7  c #192C23",
"8  c #1F3325",
"9  c #212121",
"0  c #2B2B28",
"q  c #223624",
"w  c #273A24",
"e  c #24392C",
"r  c #323232",
"t  c #41393E",
"y  c #254005",
"u  c #2C4506",
"i  c #2D4A05",
"p  c #27400C",
"a  c #2C450D",
"s  c #2E4A0C",
"d  c #334F04",
"f  c #354D0D",
"g  c #375303",
"h  c #36520D",
"j  c #3D5A0D",
"k  c #294114",
"l  c #2E441C",
"z  c #324B16",
"x  c #344C1D",
"c  c #345014",
"v  c #3E5413",
"b  c #37511C",
"n  c #2A4025",
"m  c #2A402D",
"M  c #314427",
"N  c #334C25",
"B  c #3B5325",
"V  c #425F0B",
"C  c #415E15",
"Z  c #415D1F",
"A  c #456A07",
"S  c #4A6B07",
"D  c #46640D",
"F  c #4B6A0D",
"G  c #577804",
"H  c #56760C",
"J  c #557A0D",
"K  c #5C7D0B",
"L  c #446315",
"P  c #4B6915",
"I  c #44621F",
"U  c #48651F",
"Y  c #4C6A1F",
"T  c #516D17",
"R  c #506C1F",
"E  c #537417",
"W  c #5A7715",
"Q  c #5C7B15",
"!  c #55731F",
"~  c #5C761E",
"^  c #5C7B1F",
"/  c #617C17",
"(  c #617D1C",
")  c #455F2A",
"_  c #446227",
"`  c #4B6426",
"'  c #476921",
"]  c #4C6927",
"[  c #4B642E",
"{  c #516B27",
"}  c #526C2E",
"|  c #557225",
" . c #5B7627",
".. c #5D7B27",
"X. c #4A6437",
"o. c #4D6930",
"O. c #536B37",
"+. c #5C7630",
"@. c #627D27",
"#. c #617C32",
"$. c #505051",
"%. c #5D5C5D",
"&. c #5D7441",
"*. c #5F5865",
"=. c #6B6C6C",
"-. c #70706B",
";. c #648320",
":. c #658328",
">. c #7F877A",
",. c #797D80",
"<. c #7C8484",
"1. c #828686",
"2. c #878B83",
"3. c #878B8A",
"4. c #8F9389",
"5. c #8E9888",
"6. c #92958C",
"7. c #959B8F",
"8. c #9A9D8A",
"9. c #8E8F90",
"0. c #8F9495",
"q. c #959693",
"w. c #969A93",
"e. c #9B959A",
"r. c #A0A19C",
"t. c #A7AAA7",
"y. c #AFA9AF",
"u. c #B0AEB6",
"i. c #B5B7B6",
"p. c #BCBCBB",
"a. c #B8C0AE",
"s. c #BEC3BE",
"d. c #C0C4B5",
"f. c #C2C3BC",
"g. c #BDBFC4",
"h. c #BFC3C5",
"j. c #C3C2C4",
"k. c #C5CAC1",
"l. c #C4C4CC",
/* pixels */
"- 1 1 < < 1 1 1 1 x ' @.U 1 ' x 1 x ' U 1 1 . 5 5 5 5 . . 1 < < < 3 1 < < 4 1 1 1 ` Y ( _ 1 ' . . . . . 1 5 5 6 6 5 4 1 x 1 < < ",
"1 4 3 1 2 < 1 3 1 1 1 ` ( x 1 3 b x x x b . . 5 5 5 . 1 - < < 3 1 x 1 1 ; < 1 x B 1 1 ' ( . . . . . . ( ' 1 5 5 5 5 < < 1 < < 3 ",
"1 1 x 1 1 < < 3 1 3 1 1 1 1 1 1 1 1 1 1 1 . 5 5 5 5 1 < < ; 1 1 b x < < < 1 1 1 1 1 1 1 . . . . . . < 3 1 1 5 5 5 5 2 1 1 1 3 1 ",
"x x b 1 x 1 1 1 < < 1 1 < < 3 1 1 1 3 1 1 x 5 5 5 5 2 < - < x U x x < 1 3 1 4 1 1 1 1 1 . . . . . 1 x x x 5 5 5 5 5 1 1 1 1 1 x ",
"Y x 1 1 x x 1 1 1 - < ; < < < < < ; 1 1 1 x 5 5 5 1 1 1 1 ' ( @.b x < - 1 x x x 1 1 1 4  .1 x b 3 z x 1 1 5 5 5 5 1 3 x 4 1 1 x ",
"x 1 1 1 1 b 1 x x b - ; < 3 < < < < 1 3 1 b x 1 1 1 x 1 3 < 1 ' x 4 1 ; < 1 1 x x 1 1 ' ~ c x 1 1 x 1 1 1 2 < 3 1 1 1 b b 1 1 x ",
"1 1 x b x 1 z x 1 < < < 1 1 3 < < 2 1 1 b 1 x b 1 1 ' 1 1 < 3 1 1 1 1 < < - < 1 1 b 1 U ~ ' k 1 1 1 1 1 1 < < < 1 1 1 x c 4 1 1 ",
"1 > , , x > : : $ & < 1 , 1 1 1 > < 1 & ) : : > >  .T : < < > 1 < 1 @ - & - & & , & k c U f p - > > , , & - - @ > z , : z > 1 l ",
"z l > , < < < 2 $ ; , - x z & , 1 : & & F .., , H Y h , & k z s s : 1 - & > % x ^ Q Q P z b - c F +...$ $ : - - 1 f > 3 > > N z ",
"x a , 1 1 1 & # < % < k i f k & k B x s Y  .c a _ x % < < , , z ] z & - > 1 - , 1 a ` L U i U L z & $ - - $ - y % b a : 1 z z p ",
"z x x , + + > 1 - d 4 ; z $ - l % 1 k g c D ~ f x 1 $ > k > < 1 I ) , & : 1 & , p 1 : f _ c k - < - & ; & - l % > 1 x u , z # , ",
": > , , , k , , 4 D _ 3 1 , c l h 2 k c l h ~ c i U O._ z % , > y b k , 1 k p k 1 + < 4 - & & - $ $ % % k , k s f > 1 x < w k , ",
", : > p l N z : & R K i - s h z 1 1 & - 1 z c h ' ' f - , , z k : y p % b x & , 2 k : > < 2 + : - < 3 # z _ P  .^ i < 2 > 1 & h ",
"l 1 , & , 1 l x 2 < G  .l a x - > , - ; # p % - $ y - 1 < & f h k , k k b p , - ) ~ Q ~ : 2 ; 1 z z & & < - y ] Q ~ k > a $ c E ",
"k > , & > , > : 1 > f ` z k y 1 , : & < $ - ; - - k 1 - 4 x z z k , > N p : , 1 h P ( F C : > , g ^ l - & - % : d R ` % u T ;.@.",
", < < & & % , x H Q c f i ` / W _ c : , b & & - $ & $ $ y & , < - 1 % N % : N > d s o._ c [ y k W ..: & , 1 ] U l & , z ) T W f ",
"> x 1 > & , : > - ] ' c D  .| Y > - & @ N k $ % # > < & & > 1 1 k z % 1 - c a p , , z _ c 1 , U ` P 3 ; c ' ^ P % : & _ Y U U % ",
"k k & < a x x x % y z k Y D c $ k o k 1 # z N - > - < - , , > 1 - b 1 p c b a & - 1 - ' U i k U x % % % | E Y z x x 1 z h i % k ",
"p z 1 x 1 : , N l k - & f , - q o , % $ % 1 & k $ 1 1 , , k , , s & p k l $ n 1 , k % , h a z p % 1 : , k h d n - 4 < $ > N & k ",
"p , & N z : , : & 1 - 2 p - * % 4 x z p 1 1 l : & 1 , x k 1 1 : , < 3 k y - ! ;...' < 1 % % , > - > 3 , p o a 8 - + % 1 - < - - ",
"k , > a z : , > ; + % % b ; l y < 1 z a z k [ % 1 l a $ , % B , ^ N $ & % { y G P g & 4 < > k M N c - 1 ` p % * p p p p 1 - 1 : ",
"c b 1 > > : p & % p & $ _ c & y % , - 1 M % L ^ > z % i : , x > ;.S b : _ N { ' k , a & % $ & & c U i k ] E % : a _ c $ p x z : ",
"x N : , a b l 1 x ] z - z s % _ z : , 1 , % d ;.> p f } N k & , A ] L b % Z o.$ q p s k N : - - & k g # T ^ ` - ' c 1 - x z , > ",
"% a , x z c , > - g U x & # N s 3 & b L W :.s n , c +.h # > k & o.i ] z y y y q , _ d p < < $ - % - ; l & z P $ ' $ ; 1 > y & 3 ",
", > , > , 1 & 1 1 1 , N M & - - < z b > f @. .i : ] ) p , , , , a c b x % % , < > 1 % & < - > & $ < , ' p - x h - Y J A O.- k < ",
", [ p 1 1 % k & # , $ # , & % $ & 1 # , , i U x & k k > & > - 1 y k l > k $ 3 < < 3 < @ - 1 < & - , ` ~ W P c k _ :.A - - % x p ",
"k _ y k z % p & x k % # @ - > c $ + k 3 - k & - , > & : % 1 , $ N 5.w.0.0.0.q.4.7.2.6.w.2.6.6.6.1 % y i D ~ { s P j 1 n < s f : ",
"% k % p x z & k 1 x N l l k , k N # & - 1 & - 4 1 , k , , 1 1 & &                               & k - k a L ` N U s , N z c & & ",
"- & , > p x 1 & # % k % - < p z x > 1 > , & > % * - - - @ - - - 1                               N $ 2 8 - : # k < & - % : k < ; ",
"k , - 1 & 1 k & & $ > p 1 & & , f & k , % $ & > - - # , l > $ & -             =.j.j.9.          c c 1 1 < p p & , k k % & < - $ ",
"k p & 1 & & & k k x z s % , x , p 1 & c s , 1 < > % , a x < & - 3           j.0 0 r 9 j.        & p # Y U $ < 3 , & & k k - & - ",
"% < & - - 1 : 1 - , z _ c : z z : < N a o.f.j.s.h.h.j.k.s.s.j.l.s.        ,.j.j.j.j.j.9 r.      1 1 k h ] < k % z , - c s & & $ ",
"& 1 > $ & < > : % P S ^ I : ] d , L ' ' , f.h.l.8.u.u.u.e.e.j.f.f.        l.f.f.j.j.j.%.f.      % ` F _ 1 - w k b > > 1 x 1 # & ",
"4 k , > - < 1 z ; ; b P ^ i & q _ U E E { a.h.s.f.u.i.d.a.s.g.t.7.        g.j.p.r.q.r.y.p.      o.' E ;.P # $ c x , % # & & & 1 ",
"z a , , @ & , b x p O e & ] y z h :.! i $ & k l 1 4 & : k 1 1 : a         =.s.p.j.h.j.X t.      % $ 4 + k 8 p p , & p , k , > 1 ",
"f z : > - < , , % , : a b N x u U ` % # 3 ; O p > & 1 > - 2 a D N           i.*.$.%.$.u.        % x - p 1 & x & , > 1 & 1 - > z ",
"x z , > 1 l 1 : ; i | E U $ x & - $ # & * ; 1 - c i s ] : : #.H d             t f.f.-.          > : s , : D s k 2 < - 1 1 1 , z ",
"k , & , b a : 1 k ] Y k 1 , $ 3 - - c c c & - # > M k j _ & , } x                               ; % { 1 , #.- & 1 < + & - & , c ",
"k , p z x k , < $ - p % % 4 < < 1 c z # y $ $ - % k p U ] , , > 2 <.3.3.-.3.3.1.3.3.1.1.3.<.2.>., b L ! g i x k : : > 1 1 , # : ",
"& 1 1 > : % > & , z c N > : , , s z - 1 - 1 x s z - & , : & < 1 : N : [ B > z > , > 1 > % > c o.Q L x { s n f A | Y h , + 1 1 x ",
"$ p M - k & & - y - % c z 3 , , 1 $ 1 q > c z M s - s , - f ( < u & k ^ f : 2 , 1 , , x % p 1 & s :.D i b N ' Q x < 1 : < 1 a c ",
"] s b : # x z $ y ; < , z > % ! ;.Q D y % 1 $ z z l % 2 d ^  ., _ U i | - k & d x < > ` k k b - k p Y U s , o.z > < - & > > 1 1 ",
"' c $ p c c y $ -  .i - < : { D E C B k & - 1 # i z < < ^ U > % U ~ U h s Q ^ U & : , o.s b $ , - , c z z % p % : 1 - - , , 1 1 ",
"% [ , $ - @ - ; % J ;.N 2 [ d ' P c , # c x 2 - n $ : , P c 1 1 % g  .f k $ , ; 1 : % : c z # z s k - - k - % - , z 1 - , 1 & p ",
"% p k 1 , & - - p ' A P : k a U % k % y x - & , L E L 2 p k # p ; & b z > - 1 & & - k } % % { x p % ; 3 > , - < - s c k > < & g ",
"&.p p N k $ & & - - c A y , o.U ; , - 1 $ : U ;.W F Y q > U ;.} ;.: # 1 : < @ 1 & & k x [ c ' % & & % : c p % - - : d x , 1 z ..",
"$ % % a z % p & - - y x N y # y L ] N - = & & - w - i $ Y Q J v & < 1 - @ 7 , d - % , @ z c - p ; & 1 s c - l - - - , z 1 , { @.",
"< & 1 1 x N , < $ p - - $ 4 ; c L ;.J L % , p > z z s - < 3 > > < 2 # & : - : z l , $ : < & 1 & & , % N N @ & y + ; < : > f @.d ",
", k 1 1 & , : 2 & & % $ , % 4 - - & # & 2 - - N z 1 < k 1 & p < k l > , & - 1 % N % k ] - , $ & % % ; k z 1 w $ > & 2 M % z [ y ",
"% ) & h g N & , = 2 ; ; & % - @ - - k - O & k : , s $ & p > 4 $ : f z , , z O.& & % U  .- ; & 1 4 N 1 & : : N 1 1 > z f y k p & ",
"h , & Y U - 3 p s c p k $ < & - & $ - # - k $ c < f b , & 1 & y m p h z 1 % h P h i | c , 1 % - 1 N z k , u P % , x s c % & 1 ; ",
"1 k & k k % , d z k 1 & < < , $ & 1 & & & & x s @ 4 z y 1 - b , 1 & & : & 2 i ^ I z P p y k , & , , a f , z @.V , z & k - & & $ ",
"/  .Y % - ; - % p % - - N M b y k - & 1 k y s ] 3 - M % k s h - W c 1 > B z $ , L b x k L _ c * % & p f < N ~ / k % y % % k < , ",
"^ D L o.% [ I ..! U p $ # % k x 1 % & N $ $ X., & > 3 1 _ c x & W @.a M $ P { k k a i x z < 1 : & < 1 & 3 q u W % s {  .' c z , ",
"f U Y s 1 z h V 1 1 & - & 1 k z l , % x c , - & , : : p U [ k & ] C h k 1 % | Y N c k l p % 3 $ * 1 > , s z z { N o.{ ! i # k % ",
"= f L & - c ' - $ - p - & & , & , - % b _ p + 4 U ] P P , > % 1 P z 1 & 1 k - % c s 3 - > # 2 & 1 f f { H K U z a c g k < q - - ",
", > k x x , & ; U U s , < - 1 % - , > : T ` , P ;.Q h - k p & ; $ b , , % o k - : z 1 > , 1 < & k , , , : k x b - & 3 1 & # & - ",
", U Q D p - , L s z % x & & & ] l # , , 3 - p P | # $ ' D c b % k _ k & - & - % 1 < > @ < , k > - & > - k p - # $ & p - % k l k ",
"l _ d : & l & % % p , l - $ % U C ; w h D W E z 1 # } :.E :.j % a _ p # - ; - & - - > & & , z > - - & - - & # - z # - - & p N & ",
"$ 4 2 w , k 1 w 1 1 l + - - , ] Y p i G ..R F ] - % U i ' C y - p p > & < x & 1 - < < 1 & a a N & 1 & - - & 1 x N % @ - p - 1 $ ",
"1 , a z 1 % , % - k p , $ - % _ : w q b U ! R C c 1 k s I - - - - $ - - k x % , 1 # k , 1 < > N % 1 % & # & b k k k - & 1 % - & ",
"& : a a > , x c - p z % & - y - , , - 1 y % n 1 + 1 1 k 1 & - $ - 1 k & & b s , 1 : c : , < 1 % x % % - p : x k & 1 1 $ p - - ; ",
"1 < < < + , k l 1 % y - & 1 N - 8 & p L P # 1 # 3 : & & - k # 1 k % 1 @ $ l k k - , z a & 1 x $ p $ p b _ y 1 % p % % - p - - - ",
"& < @ 2 , , : b < % , X.# , z c % p c s o.& 1 , z , , z x - - - 1 % $ $ - k - b 1 & % O.$ , B c - k z V _ , p - N % , z c $ $ ; "
};
