/* XPM */
static char *result[] = {
/* columns rows colors chars-per-pixel */
"64 64 145 2 ",
"   c #000000",
".  c #090A14",
"X  c #131419",
"o  c #0E2406",
"O  c #0E2801",
"+  c #0D2208",
"@  c #132A05",
"#  c #142A0A",
"$  c #173103",
"%  c #1A3504",
"&  c #1F3804",
"*  c #1B320C",
"=  c #122815",
"-  c #152C1E",
";  c #1B3414",
":  c #1E331C",
">  c #233C05",
",  c #23330B",
"<  c #213A0C",
"1  c #213614",
"2  c #253B15",
"3  c #21371C",
"4  c #25391C",
"5  c #293F1C",
"6  c #241527",
"7  c #341C27",
"8  c #192C23",
"9  c #1F3325",
"0  c #212121",
"q  c #2C2B28",
"w  c #223624",
"e  c #273A24",
"r  c #25392C",
"t  c #323232",
"y  c #4D2B32",
"u  c #41393E",
"i  c #254004",
"p  c #2C4506",
"a  c #2D4A05",
"s  c #27400C",
"d  c #2C450D",
"f  c #2E4A0C",
"g  c #334F04",
"h  c #354D0D",
"j  c #375303",
"k  c #36520D",
"l  c #3D5A0D",
"z  c #294114",
"x  c #2E441C",
"c  c #324B16",
"v  c #344C1C",
"b  c #345014",
"n  c #3E5413",
"m  c #37511C",
"M  c #2A4025",
"N  c #2A402C",
"B  c #314427",
"V  c #334B25",
"C  c #3A5225",
"Z  c #425F0B",
"A  c #415E15",
"S  c #415D1F",
"D  c #456A07",
"F  c #4A6B07",
"G  c #46640D",
"H  c #4A690D",
"J  c #577804",
"K  c #56760C",
"L  c #557A0D",
"P  c #5C7D0B",
"I  c #446315",
"U  c #486515",
"Y  c #4B6915",
"T  c #44621F",
"R  c #48651F",
"E  c #4C6A1F",
"W  c #516D17",
"Q  c #506C1F",
"!  c #537417",
"~  c #5A7715",
"^  c #5C7B15",
"/  c #55731F",
"(  c #5E761F",
")  c #5C7B1F",
"_  c #617C17",
"`  c #617D1C",
"'  c #465F2A",
"]  c #446227",
"[  c #4B6426",
"{  c #476921",
"}  c #4C6927",
"|  c #4B642E",
" . c #516B27",
".. c #526C2E",
"X. c #557225",
"o. c #5B7627",
"O. c #5D7B27",
"+. c #4A6437",
"@. c #4D6930",
"#. c #536B37",
"$. c #5C7630",
"%. c #627D27",
"&. c #617C32",
"*. c #505051",
"=. c #5D5C5D",
"-. c #7A4841",
";. c #5D7441",
":. c #5F5865",
">. c #6B6C6C",
",. c #70706B",
"<. c #648320",
"1. c #658328",
"2. c #7F877A",
"3. c #797D80",
"4. c #7D8484",
"5. c #828686",
"6. c #878B83",
"7. c #878B89",
"8. c #8F9389",
"9. c #8E9888",
"0. c #92958C",
"q. c #959B8F",
"w. c #9A9D8B",
"e. c #8E8F90",
"r. c #8F9595",
"t. c #959693",
"y. c #969A93",
"u. c #9B959A",
"i. c #9F9F9E",
"p. c #A0A19C",
"a. c #A7AAA7",
"s. c #AFA9AF",
"d. c #B0AEB6",
"f. c #ADB1B2",
"g. c #B5B7B6",
"h. c #BCBCBB",
"j. c #B8C0AE",
"k. c #BEC3BE",
"l. c #C0C4B5",
"z. c #C2C3BC",
"x. c #BDBFC4",
"c. c #BFC3C5",
"v. c #C3C2C4",
"b. c #C5CAC1",
"n. c #C4C4CC",
/* pixels */
"; 2 2 4 1 7 7 7 7 -.-.-.y y y y -.-.y y -.y y y 7 7 y 7 y y -.y y y -.-.-.-.-.y -.-.y y { 2 } c 2 R R { 2 2 2 v v 2 2 2 v 2 1 ; ",
"2 2 2 2 1 7 7 7 7 y y y y y y y -.-.y y y y y y 7 7 7 7 y y y y y -.-.y y -.y y y y y } ` v 2 2 } R ` ( { 2 2 v v 2 ; 4 2 4 4 2 ",
"2 2 v 2 2 1 7 7 7 y y y y y y y -.y y y 7 y y 7 7 7 7 7 7 y 7 y y y y y y -.y y y y 2 2 2 2 4 v 2 2 2 2 2 2 2 2 2 1 1 2 2 2 2 2 ",
"v m v 2 v 2 6 7 7 7 y y 7 y y 7 y y y 7 7 7 7 7 5 2 2 7 7 7 7 7 7 7 y y y y y y y 2 2 2 v 2 2 v 2 2 v v v 2 2 2 3 1 2 2 2 2 2 v ",
"{ v 2 2 v v 6 7 7 7 y 7 7 y y 7 7 7 7 7 7 7 7 2 2 2 2 2 1 } %.` 6 7 7 y y y 6 . . 2 2 2 ` 2 v v 2 v v 2 2 1 ; 4 2 2 2 v 2 2 2 v ",
"v 2 2 2 2 6 6 7 7 7 7 7 y y 7 7 7 1 2 2 2 v v 2 2 2 v 2 2 1 2 } x 6 7 7 y y 6 . . . 2 { ( v m 4 2 v 2 5 4 1 1 2 2 2 2 v v 2 2 v ",
"2 2 v m m 6 7 7 7 7 6 6 . . . 1 1 4 2 2 v 2 v v 2 2 R 2 2 1 2 2 2 6 7 7 y 6 6 . . . . R ` ' 2 2 2 5 2 2 1 1 : : 2 2 2 v v 2 2 2 ",
"2 2 2 2 v 6 7 7 6 6 6 . . . . 4 2 2 1 1 } 2 2 2 2 %.R 2 2 2 2 2 2 6 6 7 y 6 . . . . . v E c 2 2 2 2 2 2 1 1 1 1 2 v 2 2 v 5 2 v ",
"v 2 2 2 6 7 7 6 6 6 2 . . . . . 2 2 2 1 { ` 2 2 } ` v 2 2 2 v v v 2 6 7 6 6 2 v . . . . v v 2 v ] ` %.1 1 1 1 2 2 v 2 2 2 2 m v ",
"v v 2 2 6 7 6 6 6 2 2 2 . . . . . v m v ] ` c v R v 2 2 2 2 2 m [ 6 6 6 6 2 2 5 2 . . . . . { { v 4 1 1 1 2 4 2 2 m v 2 2 v v 2 ",
"v v v 2 6 6 6 6 2 v 2 2 v . . . . . v v v R ` v v 2 2 2 2 2 2 2 E 6 6 6 6 2 2 2 2 2 . . . . . 2 2 1 1 1 3 2 2 2 2 2 v v , S 2 2 ",
"2 2 2 2 6 6 6 6 6 } R 2 2 2 . . . . . v v v ( v v R R E v 5 2 5 2 6 6 6 2 m 2 5 2 2 2 . . . . 1 1 1 1 2 2 2 v v m 2 2 v 4 2 2 2 ",
"2 2 2 2 v 6 6 6 6 R ( v 2 v v . . . . 2 2 v v v { { v 2 2 2 2 v 2 6 6 6 m v 2 2 2 2 1 4 2 2 ; 2 2 2 1 1 v { { ` ` v 2 2 4 2 2 v ",
"v 2 2 2 2 2 v v 2 2 ( ( 5 v m 2 2 2 1 1 ; 2 2 5 2 2 2 2 2 2 v v v 2 2 c v 2 2 2 R %.` ` 2 2 4 2 v v 2 : 1 2 2 { ( ` 2 2 4 2 A ( ",
"z , , , , < , , 2 , h Q v 2 > 2 < > * 1 & * : * ; 2 2 1 2 v b z 2 < < V s > < 1 h U _ H A > * < j ( x 1 * ; > , g Q [ , , W ( $.",
"< ; 4 * , % > v K _ c h g R _ _ ] b > < C * % ; * ; % % i < < 1 2 2 , v > > v , h h @.' n | > z ~ O.> * 2 < [ R 5 , , c [ W W Z ",
", v 2 < * < , , ; } Q b Z O./ E < ; ; # v z % < % < 1 * * , 2 2 z c & z ; b d s & s c ] b 2 < Y [ Y 2 : b { ) Y % > < ] E R R < ",
"z z * 1 d v v v & & c z E G b % 2 o z < $ c m * , ; 1 ; < , , 1 ; v 2 s c m d * ; ; < T { a z R v * & & X.~ R c v m 1 c h p & s ",
"s c 2 v < > < C x z ; * h < ; w O & ; % < 1 * z & 1 ; < < 5 < s f * s z x & M 2 2 x < > k s c s > 2 > < z k a x ; 5 2 % < v ; z ",
"s < * v c > < < * 2 1 2 s ; = & x v c s 2 2 x < * 2 s v z 2 2 < < 2 9 z i & / <.o.T > 2 ; < ; , 1 < 3 < 2 O a 9 ; @ % 2 1 ; ; ; ",
"z < , d c > 2 < 1 @ ; & c 4 x > 2 2 c p c z | % 2 x a & < > C < ) v % * & } i J Y a * 5 1 * z B B c ; 2 ] s & = 2 s s s 1 ; 2 > ",
"c c 2 * , % < , < s * % ] b * i $ < 1 1 V & I ) , c & p > < m * <.D m > ] v  .{ c > d * & % < * b R p z  .! < > d ] b % s m c > ",
"v v > < d m c 2 v } c ; c f ; { b > < 2 < & j O., s h ..V 2 * s D } I V > S @.% w s f z m & ; ; * z j $ W ) [ ; E b 2 1 x c < , ",
"% c < C c c < , ; g R v * $ m f 4 * m I ^ %.f B < c $.k % , z * @.a } c i i s w < ] g s 4 1 % ; & < : x * c Y % E % 3 1 , > < 4 ",
"< , < , , z * 2 1 2 & V V * ; ; 1 c v > h %.o.g > } ' s < < < < d b m v % < < 2 , 5 $ , 1 ; , * $ 2 < { s ; v k ; E <.D @.* z ; ",
"2 [ s 2 < < z * $ < % % < * * % * 2 $ 1 < a R v * z z , * , ; 1 i z x , z % 2 1 1 4 1 @ 1 1 1 * ; * [ ) ~ Y b 2 ] 1.G < ; % b s ",
"z ] i z c < s * v z ; % * # < c & @ 2 4 ; z < ; < > * < & 2 < $ V 9.y.r.r.r.t.e.q.6.0.y.6.8.0.0.2 < i a G ) E h U l < M 1 z f & ",
"& z > s v c * z 2 v v x x z < z v $ * ; ; * ; 2 2 < z < < 2 2 * *                               * z 1 z s I [ V R f 2 V b b & ; ",
"* * < < < C 2 * $ ; z < * 1 s c V , 2 < < * < , = ; ; ; # ; ; ; 2                               v % 4 9 2 % $ x 2 * ; & & z ; : ",
"z < ; 2 * 2 z * % % , s 2 * * < h * z < > % * , ; ; % < x < $ * ;             >.v.v.e.          b b 2 ; 2 < s * < z d ; * 2 ; & ",
"z < * 2 * # < z z v c s > < v < < 2 * b f , 1 1 , * , f v 2 * ; 4           z.q q t 0 v.        * z % E { % ; 2 & * * 2 z ; ; ; ",
"& 2 * ; * 2 > 1 ; s c ] b > c c > 2 V p | b.v.k.c.c.v.z.z.k.v.n.k.        3.v.v.v.v.v.0 p.      2 2 z k [ 2 z & c < ; b f * % % ",
"* 2 , % * 1 , , < U F ) T & } g < I E R < k.c.n.w.f.d.s.u.u.v.k.z.        n.z.z.v.v.v.=.z.      & [ H ] 1 1 e z m , , 2 v 2 $ * ",
"2 d 2 , ; * 2 n ; : m Y ) p * w { R ~ !  .k.v.j.z.d.g.l.j.k.x.a.y.        x.v.h.i.y.p.s.h.      @.{ ! <.Y % % b v < > @ * * * 2 ",
"c z < < * * < v m s o r * } p c k 1.! a $ * z x 2 2 * < z 2 2 > d         >.c.h.v.c.v.X a.      ; % 2 % d 9 s < < < < < 2 < < 2 ",
"h c < , ; ; > < & < > s m C c p T ] ; % 4 : + s < * 2 , ; 4 d G v           g.:.*.=.*.d.        > c ; 2 ; ; m * < , 2 * 1 ; , c ",
"c c < < 2 z 5 < : a / ! E % v * ; % $ ; = : 2 ; b p h } > & &.K g             u z.z.,.          , & h < & G f z 1 1 ; 2 2 2 < c ",
"z < < < m d > 2 z } { z 2 < % 3 ; ; f b b * ; $ < V 2 l ' < < ..v                               ; <  .2 < &.< # 2 ; @ * * < < b ",
"z < < c m z < ; $ ; z & % 5 1 1 2 b b $ < & % ; > z s R } < < , 4 5.5.7.3.6.7.5.6.7.5.5.7.4.6.2.< m I / j a v x < > , 2 2 < $ > ",
"* 2 2 , > % , * s c c C , > < < f b ; : 1 1 v d h ; ; < > * 1 2 > V > [ V , c , < , 2 , & , b @.~ I b  .f M h D X.Q k < @ 2 2 v ",
"% < V ; 2 * * ; s ; & b c 4 < < 2 & 1 w < h c V d ; f < ; h ` 1 p ; 2 ) h > 3 < 1 < < v & s 2 * c 1.G a m v I <.v 1 2 > 1 2 c c ",
"} h m i $ v c % & 2 4 < c < < / ) ^ G i < 2 $ c c 5 & 5 g ) o.< ' U a X.; z * h c 2 < [ z z m ; z s E R a < @.f , 1 ; , , < z 1 ",
"R b % s b b < % ; o.a ; 1 > [ D ~ I C z * ; 1 % a c 2 ; ) R < % R ) R k f ^ ( { < & < ..f m % 2 ; < b c v ; 2 ; > z ; = < & 2 1 ",
"& | < % ; $ ; : & K <.V 1 +.g R Y b < $ c v 4 ; M % i & Y c 1 z < j o.f z % < : 2 > & & b c $ c a z ; * z < & < < c 2 ; < 2 * s ",
"& 2 d 2 & ; ; ; s { D Y > s d R ; 2 & i v ; * < I ! I 4 < z % < 4 $ m d < 1 < * * ; 2 ..& & } b s ; 1 4 * < ; ; * f m z < 2 * g ",
";.s s V x $ % * ; ; b D > < @.R 2 < ; 1 % > R <.~ G E w , R <..._ > $ 2 , 1 # 2 * # z v | b T % * * < > m s & ; ; > h c < 2 c O.",
"% & & d c & s ; ; ; > v V i $ i I { v ; - * * ; e ; p % Q ^ L n ; , 2 ; # 8 s g ; > & * c b ; s : * < f m & z ; ; ; < d 2 <  .%.",
"; ; 1 z v V , 1 % z ; ; % x 4 b I <.L I < < s , v c h 1 1 2 , , 1 3 $ ; > ; & v x < * > 2 ; 2 * * & < m V * * s # ; 2 < , h %.g ",
"s c 1 2 * < > 3 * * & * s < 2 ; ; * $ * 3 ; ; v c 2 : z 2 % 2 1 2 x , < * ; 2 & m < z } ; i % ; ; < 1 z c 2 e , < * 3 V ; c } > ",
"& C & k j V * < - 3 ; : * * * * ; ; z ; o * 2 > s d % * 2 < 2 > i k c < < c #.* * & R o.2 : # 2 2 v 1 * > > V 2 2 , c h i s s * ",
"b , * E R ; 4 s f b s z % ; * ; * $ ; * ; z % b 1 h m < & 2 ; i N s k c 2 & k Y k a X.b * 2 % ; 1 C c z < p U % , v a b & * 2 3 ",
"2 z * z s * > f c z 2 * 1 1 ; & * 2 * * * * m f * x z p ; ; m & 1 * * > * 2 a ( S c Y s i z < * < < f h < b %.Z < c * 2 * * * * ",
"^ ( { & ; : 2 & s & < ; V V c i s ; * 2 z & f } 1 ; V & z s h 2 ^ b 2 , C c % < I m v z I ] b = % * 2 h 2 V ( _ z > i & ; z 1 < ",
") G I @.; | R ) / R s % $ < z c s ; ; v % & +.< * * 4 2 R b v * ~ %.< V % E  .z z d a V c 1 z > * 3 2 < 3 3 p ~ ; f } o.E b c > ",
"h R E a s b f G ; 5 ; ; # 2 z c v & ; v b < ; * < > > s T | 2 *  .A k z 2 & X.E v b z x s % 4 $ ; 2 , < h c c  .v .. ./ a $ z & ",
"- k I ; ; b { ; % < s ; * * < < ; & & m ] s @ x R } E Y s < > 1 Y c z * 2 2 ; > b f 3 ; , @ 4 * , d h  .K P T c s k j z 1 w ; ; ",
"< , z v v < # 4 R R f < 1 ; 1 > ; < , > W [ & Y ^ L b ; z > ; : $ m < 2 < O 2 s > c 2 , < 2 * < z < < < & z v v ; * 5 2 * $ * ; ",
"< { ~ G s ; s I f c & v * * < [ x $ < < 4 ; 2 Y o.$ % { G b m > z ] 2 * ; * * * 2 1 , # 2 * z , ; * < ; z s ; $ $ * ; & ; s x z ",
"x ] g > * x * > & s < v ; % % R I : e h G ^ ! c 2 * ..1.! O.l & p ] s $ ; : ; * ; ; , * * < c 2 ; 2 * ; ; * $ 2 c % ; ; * d v * ",
"% 5 3 e < z 1 M 4 1 z @ ; ; < [ E s a J o.Q H } ; & R g { I i ; s s < * 2 v * 2 ; 1 2 < * d d v * ; * ; ; * s V V & * ; < ; 2 & ",
"2 < d z 2 ; < % ; z d & * ; ; { & e w m R / Q A b 2 z f R ; 1 ; ; * * ; ; m ; > 1 % z 2 2 1 < m < 2 & $ $ * m 2 z z ; ; 2 * * * ",
"* > d d , < c b < s x & % ; < < < < * z > > M 2 @ 2 2 z 1 * ; % 1 ; z * * m a s 2 > c > * 1 2 ; x > & & s & v z & z ; % s 2 ; ; ",
"1 1 2 1 $ < z c ; > i ; * 2 C & w * s I Y $ 2 $ 2 > * * ; z $ z s & 2 * * v z z 1 < c p * 2 v & z & z m ] i < * < ; ; < s & ; ; ",
"* 1 * 3 < * > m 1 ; < +.$ < x c & s c f @.; 2 < c < < c v ; ; ; < ; % $ ; s ; m 2 * & #.% < m c ; z v l ] > s 2 m & < c c % ; : "
};
