/* XPM */
static char *result[] = {
/* columns rows colors chars-per-pixel */
"64 64 142 2 ",
"   c #000000",
".  c #02030C",
"X  c #131419",
"o  c #0E2406",
"O  c #0E2801",
"+  c #0C2208",
"@  c #132A05",
"#  c #142A0A",
"$  c #173103",
"%  c #1A3504",
"&  c #1F3804",
"*  c #1A320D",
"=  c #122815",
"-  c #152C1E",
";  c #1A3313",
":  c #1E331C",
">  c #233C05",
",  c #23340B",
"<  c #21390D",
"1  c #203614",
"2  c #233B13",
"3  c #22361D",
"4  c #25391C",
"5  c #293F1C",
"6  c #1F0D22",
"7  c #311522",
"8  c #192D23",
"9  c gray13",
"0  c #2B2B28",
"q  c #223624",
"w  c #273A24",
"e  c #25392C",
"r  c #323232",
"t  c #4C272E",
"y  c #40393E",
"u  c #254004",
"i  c #2C4506",
"p  c #2C4A05",
"a  c #27400C",
"s  c #2C450D",
"d  c #2E4B0C",
"f  c #334F04",
"g  c #354D0D",
"h  c #375303",
"j  c #36520D",
"k  c #3D5A0D",
"l  c #294114",
"z  c #2E441C",
"x  c #324B15",
"c  c #334C1E",
"v  c #345014",
"b  c #3E5413",
"n  c #37511C",
"m  c #2A4025",
"M  c #2A412C",
"N  c #314427",
"B  c #334C25",
"V  c #3B5225",
"C  c #415E15",
"Z  c #415D1F",
"A  c #456A07",
"S  c #4A6B06",
"D  c #46640D",
"F  c #4B6A0D",
"G  c #577804",
"H  c #56760C",
"J  c #557A0D",
"K  c #5C7D0B",
"L  c #446315",
"P  c #486515",
"I  c #4B6915",
"U  c #44621F",
"Y  c #48651F",
"T  c #45691B",
"R  c #4C6A1F",
"E  c #516D17",
"W  c #506C1F",
"Q  c #537417",
"!  c #5A7715",
"~  c #5C7B15",
"^  c #55731F",
"/  c #5E771A",
"(  c #5D7A1D",
")  c #617C17",
"_  c #617D1C",
"`  c #455F2A",
"'  c #7B463F",
"]  c #446227",
"[  c #4C6426",
"{  c #4C6927",
"}  c #4B642E",
"|  c #516B27",
" . c #526C2E",
".. c #557225",
"X. c #5B7627",
"o. c #5D7B27",
"O. c #4A6437",
"+. c #4D6930",
"@. c #536B37",
"#. c #5C7630",
"$. c #627D27",
"%. c #617C32",
"&. c #505151",
"*. c #5D5C5D",
"=. c #5D7440",
"-. c #5F5865",
";. c #6B6C6C",
":. c #70706B",
">. c #AE7856",
",. c #648320",
"<. c #658228",
"1. c #7F877A",
"2. c #787D80",
"3. c #7C8584",
"4. c #828686",
"5. c #878B83",
"6. c #878B8A",
"7. c #8F9289",
"8. c #8E9988",
"9. c #92958C",
"0. c #959B8E",
"q. c #9A9D8A",
"w. c #8E8F90",
"e. c #8F9495",
"r. c #959693",
"t. c #969A93",
"y. c #9B959B",
"u. c #9F9F9E",
"i. c #A7AAA7",
"p. c #AFA8AF",
"a. c #B0AEB6",
"s. c #B5B7B6",
"d. c #BCBCBB",
"f. c #B8C0AE",
"g. c #BEC3BE",
"h. c #C0C4B5",
"j. c #C2C3BC",
"k. c #BDBFC4",
"l. c #BFC3C5",
"z. c #C3C2C4",
"x. c #C4CAC0",
"c. c #C4C4CC",
/* pixels */
"* 2 1 ; < * 1 1 * n L X.I & +.s u d T { * < < v j % 2 % v l * % * * & % ; ; * z a [ [ ~ S > | z < T T T < 2 * v x < < < x < * * ",
"* 2 2 % , , , 1 2 < % U <.c > a m v v n l l & x l 2 4 l # ; ; : l c ; ; % ; l c l a > Y #.5 < > Y T / ) T < < x x < * ; < ; * ; ",
"> , c , 2 , , , 1 < < < < < * < 2 2 & < < 2 < a < 2 ; # * ; 5 u l n * 2 * * & < a * 2 2 & 2 2 s w < < < ; 2 ; 2 < * ; < < < < < ",
"v s n < l 2 % 1 1 $ 2 2 o 1 5 1 ; * < * a z 2 * * < 1 * * $ d L v x & ; ; l a & , 1 1 > x * > V < < x x v & a & ; * * < < ; < v ",
"} s 2 > l c > 2 * * # ; * * * * * < & l * c c & 2 , 5 , $ { o.( v l & ; 2 B l x 2 a 4 > ..l x l 1 x x 2 < * * ; * 2 < x < 2 < x ",
"c < > > 2 x , 5 v V ; * * & # * ; * * l > d x a ; x x * 1 % $ R v * l ; ; l * v N u 1 D ,.s d l 2 x < < * * * ; * < < x x < < x ",
", < x z x l 2 Z l * * ; l l < ; ; , 2 * v u x c 1 u Z 2 4 * 2 < a * * ; * ; % 2 * n ; L o.{ > ; 2 * 2 < ; * ; * < < < x x 1 < < ",
"2 , < > c > > > % * 2 2 * l 2 2 * 2 1 * } > > , > ..E > 1 1 < 2 2 2 * ; * ; * * a * l v U d l & * < < < * * * * 2 x < * x < < x ",
"x x , < 1 1 1 4 % : < * c x * u 2 > * * F $.< < H W j < * l x g d > 2 ; * , < c ^ ~ ~ I x B 2 v F / / ; * * * 1 < x < < 1 < x x ",
"c s < 2 2 1 * $ ; % 2 5 p g z * l V n s { X.v s ` x < 2 2 < < x { c * ; < 2 < & 2 s [ P R p U L x < < * ; < < < * x x < < x x * ",
"x c c < $ @ , 2 ; h 5 : x % * z > 2 5 f v D / g c 2 % , 2 , 1 < L ` < < , l * < > 2 > g ] v l ; 2 * * * * < < < < < x x < x < < ",
"> , < < < l < , z D ] 3 2 & x z j 4 2 v z j ^ v i T  .] x < < , u n 2 < 2 l a l 2 @ 1 5 ; * ; 1 % * * 1 < < x x v < < x 2 < < < ",
", < , a z n x < * W K p 2 d j x < 2 * 1 2 x v v R T j < < < x l > a a < x c * < w 5 > , , 4 @ u ; 2 * * x T T ) / x 2 * < 2 < x ",
"x 2 < * < 2 z c 3 1 H X.m l v ; , < 1 : % s ; & % < 2 ; < * g g l < 2 l n a < 1 ` / ) ^ u 4 : 2 x x * ; ; < * T / / < , * < x ) ",
"l , < * , < , > 2 , g Y c l u 2 < > * 1 % * : * ; 2 2 ; 5 c x x l < < B a > < 2 j I ) F C > * < h ~ < < * * < < x T T < x ) / / ",
"< 1 1 * % , < c H ~ x g f [ ) / ] v > a c * * ; * ; & & > < < 2 ; 2 < n > > c , g d } ] v } u l ! / 2 < < < T T x < < x T T / x ",
", c 2 < * < > , < { R v D o.^ R , ; ; # c l % & $ < , * , , 2 2 l x & 2 & v d a & u x ] v 1 < R [ T < 1 x T / T < < < T T T T < ",
"l l * 1 s c c c < u l l R D v % l o l < % x B ; , 1 1 ; < < , 2 ; c 2 a c v l * : ; 2 U Y p l Y c < < < ) / T x x x < v x x * 2 ",
"> x 2 c 2 > > c z 2 ; * g a ; 4 o & & % < 2 * l & 1 1 < < 5 < < d * s l z & m 2 < z < > j d x < & < 1 < < x x x < * 2 < < < < < ",
"s < , B x > > 2 * 2 1 2 < ; = < z c c a 2 2 z > * 2 < c l 2 2 < < 2 q l u ; ..,.o.] , 2 < & < , ; 1 < < 2 < * * * * * * < < 2 < ",
"x , , s 5 > > , 1 @ < & c 3 z u 2 2 x s x 2 } > 2 z s > < > V < ( c & * & | u G I f * z 1 * l N B x < < T < ; * < < >.>.>.>.>.>.",
"x v l * > , 2 , < a * % ] v & u % < 1 2 B & L ( , x > i > < n * ,.S n > ] B | T l > s * & % < * v T x < U ) < < x >.>.>.' ' ' >.",
"c c > < l c x 2 B { l 2 x d * ] v > < 2 < & f $., > g  .c 2 * < A { L c > Z +.% q a d l c > ; 1 * < x < T / T >.' >.' ' >.' >.7 ",
"$ x < n x b , , ; h Y c * $ n d 3 * n L ! $.d N < v #.j % , l < +.p { x > > u q < ] f a 3 1 % ; < < * < < x >.>.>.' ' ' ' ' >.7 ",
"< < < , , 2 < 2 1 2 < B N * * ; 1 x n > j $.$.f > [ ` 2 < < < < d x c c & < < 2 , 2 $ , 1 ; , * $ < < U >.>.' ' ' ' ' ' ' ' 7 t ",
"< } a 2 < < 2 < $ < % $ < * * & * 2 $ 1 < p Y c * l l , * , 2 ; u l z , l % 2 2 1 4 2 # 1 2 1 * ; < t 7 7 t t ' ' 6 6 6 ' ' t >.",
"l [ u l x < a < c l < $ * * , x $ @ 2 4 ; 2 < ; < > , < > 2 < & B 8.t.e.e.e.r.w.0.5.9.t.5.7.9.9.2 . . . 7 t t t ' ' ' ' ' ' ' ' ",
"& 2 > a c x < 2 2 c c z z 2 < x B $ , 1 1 * ; 4 2 * l > , 2 2 * *                               * 7 . 7 7 7 t t ' t t ' ' ' ' ' ",
"; * < , < n 2 * $ < l & * 1 < x c , 2 < , * < > ; ; ; ; * ; ; ; 2                               n 7 6 7 7 7 7 t t t ' ' ' ' ' ' ",
"l < 2 2 * 2 l * * % , a 2 * < < g * 5 > > & * , ; ; $ < z < $ * ;             ;.z.z.e.          v 7 6 7 7 7 7 t t t ' ' ' ' ' ' ",
"l < * 2 * * , 2 2 c x s & < B < 2 2 * j d , 1 1 , * , s c 2 * ; 4           j.0 0 r 9 z.        * 7 6 7 7 7 7 t t ' ' t ' ' ' ' ",
"& 2 * ; ; 2 > 2 < < x [ v > x x > 2 B s } j.z.g.k.z.z.x.j.g.z.c.l.        2.z.z.z.z.z.9 u.      2 7 6 6 6 7 7 7 t t t t ' ' ' ' ",
"* 2 , & , 1 , , < I S ( U > | f < L W U < l.l.c.q.s.a.p.y.y.z.j.j.        c.j.j.z.z.z.*.j.      > T 7 7 7 7 7 7 7 7 t t t ' t t ",
"2 s < , ; ; 2 b ; : c I ( i * q ] Y Q Q | h.z.f.g.a.s.h.f.g.l.i.0.        k.z.d.u.t.u.p.d.      +.U / 7 7 7 7 7 7 7 7 7 7 t t ' ",
"x x < < * # > x n a + e * { > x j <.Q p $ * l z 2 4 < < l 1 2 > s         ;.l.d.z.l.z.X i.      < < < < < 2 < < < < < 7 7 7 7 t ",
"s x 2 , ; 1 2 > & a > d n B v p U ] < $ 3 3 + s < * 2 , ; 3 s D c           s.-.&.*.&.a.        & < < < < < x < < * 1 < < < 7 7 ",
"x x < , 2 z 2 2 : p ..Q Y % c * ; & % * = 3 2 ; b p d { u & %.G f             y j.j.:.          , < x & 1 T x * 2 * ; < < < < 7 ",
"x < , < v l > 2 l ] R l l , % 4 ; ; v v v * ; $ , N 2 k ` < <  .c                               1 1 T < < / < < < * * * 1 < < x ",
"l < < x c l < 1 % ; l & % 5 1 2 2 v x % < % % ; > l a R [ < < , 4 4.4.6.2.5.6.4.5.6.4.4.6.3.5.1.< x T / x x x < < < < < * < < 1 ",
"< 2 2 , > > , * < x x n , > < < g x ; 3 ; 2 c s g ; ; < > * 1 2 > B > [ B , x , < , 2 , & , x +.! T x T x x x T / T x * ; < < x ",
"% 2 B ; 2 * * ; u ; * v x 4 < < 2 % 2 q , j x N d ; x < ; j _ 2 i ; l o.g < 3 < 1 < < c & a 2 * g ~ T x x x T ) x < 2 < * 2 x v ",
"{ f n u $ c x & a 3 2 < x , < ^ _ ~ D u < 2 $ x x l < 2 f / X.< ] L p ..; l , g v 1 > [ l l n 1 l x T T x 1 T x 2 < ; * * * v * ",
"] x % a v v u $ ; X.f ; 1 > { A ! L V l * ; 2 % p x 2 1 ( [ < $ Y ^ Y j f ~ ( Y < & < +.d n % 2 * < x x x < < < * < * * < < < < ",
"> } < % ; * ; : & G ,.B 4 [ f ] I v < $ v c 3 1 m % > < I x 1 l < h X.f 2 $ < : 2 > & > v x $ x s < < < * < < < 2 x < 2 < < 2 < ",
"> 2 l 2 < * ; ; a ] F I & l d T * a < u c ; * < L Q L 3 < l & < 3 & n x < * < * * ; 2  .> > | x a < < 2 2 < * * < x x < 1 1 < x ",
"=.a a c l $ * * ; ; j F u 2 +.U 2 * 2 ; % > Y ,./ D R q , Y ,. .) > $ 2 > 1 * 2 * * 5 c } x U > * * < < v * ; ; * < x x < < x / ",
"% & < s x > a < ; ; u c B u % > L { c 2 - * * ; w ; d $ E ! J b ; , 2 : # 8 2 f ; > * * x x 2 a 3 * < x x < < < * 2 * x < < / ) ",
"2 * 2 2 c B , 1 % l ; ; % l 3 v L ,.J P < < < , x x d 1 2 4 , , 1 q $ * > ; > c z < % > 2 * 2 # * < 1 x x < < ; * * , < < x / x ",
"< l 2 2 * < > 3 * * & % < < 2 1 ; = $ * : ; ; c x 2 3 l 2 & < 1 < z , < * ; 2 & c < 2 { ; > $ ; * < < < x < < < 1 * < x < x T < ",
"& V < j h V * < - 3 3 3 * * * * ; 2 l 2 o * l < a s & * l , 4 > u g x < 2 x @.* * > Y X.1 : * 2 2 x < < < < x < < < x x < x < 1 ",
"j , * R [ ; 3 s d v a l % 2 * 1 * $ ; * ; 2 % v 1 g n < * 2 ; u M a j x 2 & j I j p ..b < 2 $ ; 1 x x < < x T < < x x x < * < < ",
"2 z * l a * > p x l 2 # 1 ; < % * 2 * * * , B f * z l u 2 ; n < 2 * * > * 4 p / U x I a > 5 < 1 < < x x < x / T < x * < * ; * * ",
") ^ R & ; : 2 & a & < 1 B N v > u ; * 2 l & d { 2 ; B & 2 s g < ~ b 1 , ` l & < L n x 5 L ` v * > , < x < x / / < < < < < 2 < < ",
"( F L +.< ] ] ( ^ R < & $ < l x l < * n % & O.< # , 3 2 ] v c * ~ $.a N $ R | l l s p c x 2 2 > * * < < < , x / < x U ~ T x x 1 ",
"g Y R d 2 v j D 1 4 ; ; * 2 5 x z < * B v a ; * 2 > > a U } l * | C j l 2 & ..R c v l z < % 4 & ; < < < x x x T x T / T x 2 < < ",
"- j L ; ; v ] * % < < ; * % < < < ; & v ] a @ z Y { E I a , > 1 I x 2 * 2 2 2 > x d 3 1 , $ 3 * : x x T / / T x x x x x < * * * ",
"< > l c n < # : Y Y s < , ; 1 > ; < , > E [ & I ~ ! j * l a * : % n < < < O l 2 > x 2 * , 2 1 * l < ; 2 * x x x * * & 2 ; ; * & ",
"< R ! D 2 ; a L d x > c * * < [ z $ < < 4 ; 2 I o.% % { L v n u l ] l * ; * * * 4 1 , * 2 < 2 , ; * 2 & < 2 * * ; * < < & 2 v ; ",
"z ` f u * z * > < a 2 z ; % & U L : w j D ! Q v 2 $  .o.Q o.k & s ] a $ 2 3 ; * 1 ; , * * , x < ; * ; & < * * < x ; ; ; 2 < v ; ",
"$ 5 3 w < l 1 m ; 2 x @ ; * < { E < f G $.| F [ ; > ] h T L u ; < a , * ; c * 2 * 1 2 1 * s s V ; & ; * ; * < x x & * * < < < ; ",
"2 < < x < < < & ; l s & * ; * { > w q c Y ^ W C v 2 5 g U 2 ; ; < * * ; l c & > 1 & l , 2 1 , V < 2 * * * ; x x v < < ; < < ; * ",
"< > s s , < x v & s l < * 2 u * < < ; 2 > > w 2 # 2 2 2 2 * ; % 2 ; l * * n d < 2 > v > < 1 2 * z < < 2 < < x < 2 < < * < < * ; ",
"2 1 2 1 $ < l z 2 & u ; * 2 V * q * a L I & 2 % 5 > * * ; l % l l * l * * z l l 1 < x s * 2 c & l < < T T < < < * < < < 2 & * < ",
"* 1 * 3 < < < n 1 ; < O.% < z v & a x d +.* 2 < x < < x B ; ; ; * & * % * l * n 2 * & @.% < n x 2 * v x T < < < x 2 ; x x * ; * "
};
