/* XPM */
static char *_468_60ec2b0058a3be6e0c5695e95458e4aa7eb71c27d198ef0199519bfbe9748c14[] = {
/* columns rows colors chars-per-pixel */
"64 64 47 1 ",
"  c #090A14",
". c #1E3616",
"X c #1F3616",
"o c #1E3716",
"O c #1F3716",
"+ c #1E3617",
"@ c #1F3617",
"# c #1F3717",
"$ c #263A16",
"% c #273A16",
"& c #263B16",
"* c #273B16",
"= c #263A17",
"- c #273A17",
"; c #263B17",
": c #273B17",
"> c #241527",
", c #341C26",
"< c #341C27",
"1 c #341D27",
"2 c #4C2B32",
"3 c #4D2B32",
"4 c #2D4217",
"5 c #2C4317",
"6 c #2D4317",
"7 c #344C1A",
"8 c #354C1A",
"9 c #344D1A",
"0 c #344C1B",
"q c #354C1B",
"w c #344D1B",
"e c #354D1B",
"r c #5F761E",
"t c #5E761F",
"y c #5F761F",
"u c #5E771F",
"i c #5F771F",
"p c #476820",
"a c #466920",
"s c #476920",
"d c #476821",
"f c #466921",
"g c #476921",
"h c #7A4840",
"j c #7A4841",
"k c #7A4941",
"l c #AD7757",
/* pixels */
"X&&XX&&&&0dyg&gw&wdg&&&ww&&&w&XX@&&XX;&&&ggif&gw&ggg&;&ew&&&e&.X",
"&*&$OX&&&&&dyw&&wwwww&&ww&&&XXX&&e*$.X&ww&&gyw&&ggyyg&&ww&XX$XX&",
"&&w&&@XX@&&&&&&&&&&&&&;&&&.XXX&&ewX@X&&&&$&&$&&w&&&;&&&&&XX&&&&&",
"wwe&w=&&.X*&.X;&X&&&&w&&&&&X.Xwgww.&&&&&&&$&w&&w*&www&&&X@&*&&&w",
"gw&&ww&&;XXOXXXXXX&&&ww&&&&&XgyywwXX&www&&&&y$w9&ww&&.XXX&&w&*&w",
"w$&&&w&0ewXOO&XXX.&&&ew&&&w&&X&gw&&X@&$ww&&gyww&&0&&&XX&&&&ww&&w",
"&&ww9*ww&XXX*&&XX$&&9&ww*&g&$X&&$&&.XXX&&w&gyg&*&&&&XXXX&&&ww&&&",
"&&&&w%&&X@&&&w&&&&XXg&&&&yg&&&&&&$XXXXXo&&&wgw&&$&&&XXXX&w&&w&&w",
"w&&;&&&&X&&&0w&&$&&Xgy;&gyw&&&www&&XX&&wyuyg9w;wgyyXXXX&&w&&&;ww",
"ww&&&&XXX&&*ww&;wwwwgywwgw=*&&&0gw&&X&&&&qgggwsgw&&XX$&&&ww*&w0&",
"www&XXX*&w&&w;&*&$wwwgyw9&&&&&**gw&&&=&&*&&qgw&&&XX@&*&;&&ww&w&$",
"&&&&&&;&&sg&$&wew;&w0eywwgggw;&&&g&&&e&&&&&&&&XXOXO&&&wwe&&w&&&&",
"$;&&www&&grw&www&&&&;ewwfgw&&$&w&&%&ww&*&&&&;&X&&&#Xwggyyw&&$;&w",
"w&&&&&ew&*yy&ww&&&XX.&&&&&&&$&w00;&ww&*&gyyy&&X&ww&XX&$gyy&;&&wy",
"&X&XO&&&&&wgww&&&&*&X+O&&$&&&wew&X&ww&&&wgygg&&Xwy&&XX&*wgg&wyyy",
"&&&XX&&wyywewgrys0&&w&OOXXO&$;&&;&&w&&w&wwsgwg=wyy$&&&gg0&&wfgyw",
"&w&&&&$&$ggwgyyd$XXXwwXXO%XXX*&&&e&&&w0&&&wgw&&gsg:;wgyg&&&gggf&",
"&w&&&wwe&&w&ggw&XX&$Xww&X&&&*&&&&w&&w0w$$&&sg&wgw&&&yydww9&0ww&&",
"w&&w&&www&&&w&XXX&&&&;*&X&&&&&&&w&&ww&&&&&&*www&&&&&*9w0&&&&$&&&",
"&&&ww;&oX&&&&XX&&ww*&&w&X&&ww&w&&&&&&$yyyg&;&;&&&&&&&&&OXXX;&&&$",
"llllll$&XOX&w&&$&&9ww&g&&we&;&e&ywX;&gwigw&&&*&ww9&&g&XX&&w&&%&&",
"ljjjlll$&&X@gw&&&$&&w&ft&w&&&;w&yyw&gwgae$&&&XXXwgw&gy&&0gw&&w9&",
"<ljljjljlgwXew&gw$*&&&0y;*wy9&&&fgg0&gg:&&9ww&:X&&0&gyg&sw&=ww&&",
"<ljjkjjlllg9XXww&&wfyiww&wye&&&&gws9&&&&&gw&&&XX&$&&&wgXf&&&*&&*",
"3<jjjjjjjjllwXXX&ww&wiyw&dg&&&&&wwww&&&&$&X.&&X&X&&g&&wwXgygg&&&",
"l3jj>>>hj33<<3&X#&&&&wgw&;&;;&&&;0w&*;&&&&XXXXXXX&pyygwwgya$&&w&",
"jjkjjjjj333<   wXX&&&&&&&&&&&&$&ww;w$&&dfw&XXXX&&&&wgrgwgf$&&w9&",
"jjjjj33j32<<< <wwXXX&&&&&&&&&&&X&w%ww&&&ww&&XXXe&&&&&ggwg&&eww;X",
"jjjjjj333<1<,><ww&&&&@&*XXXXXXXX&&;9w&&;&ww=$XX9w&$&&&&&&&&&&&&X",
"jjjjjj333<1<<><&w*&&&XXXXXX&wXXX&&&&ww=&&&&&&&&*ww&&&&&&&&;&&&X#",
"jjjj3jj33<<<<><&&&&ww&&%&&&ee*X&$$&;Xw&w&&&&@&w&&&$gg;&&&&&$&&X&",
"jjjj3333<<<>>><w:&wwg&&&w&*wwXXX&&XXX&&w&&&gX&0w:&wwg;&&w&&wwXXX",
"33j333<<<<1<<<g9*ggg&&;ww&&&w&@XX*$XX&&&&ggyg&gw&ggf&&&ww&;&w&XX",
"j33<<<<<<<<<<w&$gdyys&&ww$&&&XX&&w;&@X$9w&&gyw;&ggyyg&&ww&XX;XX&",
"3<<<<X&ww&X.&g&wwyy&XX&9$&&&&&&&wwX..;$$X..X&*&*&&*&&$&&&&&&&&&&",
"<<&X&;&&&;Xwwwwwgf&XXXX=&&&&&&wgww@&.XXXXw*XXX&&&&*&&$9&&X&&*&&w",
"<0&&&&w&&&yygXwXXXXX#&X$wwed&&iywwXXX&&w&we&&XX&&&w&%gw&&.X&&&&w",
"w&&$ww&&&ggw&&&&&&www&.X&wwwg&&gw&XO&&;0&$qw&X@&:&g&&i&&;&XX*&&e",
"&&&www&&&&*&&&&&*ww&&XXX&&&gg&&&&w&&0&w0&&&*XX&&;9gy0ww&*&&&X&&&",
"&&$&&&XX*9e9&&&&ww&&&&0wwX&$XX&&&w&gw&w&$&&*.&wgyg0gwwwgygw&@&&w",
"&&9&;X&.&&&wq&&&&&&&&ww0w%w&&wy&&&&yw&&&&&&w&&&&wyf090gyw&&&O&ww",
"gww&&w0X&&&&w&&yyyg*&&&ww&;&wyy*ggwy&&&ww&&g;ww&&wggw&dw&&;XX$w&",
"g9&&ww&X&ywX&*gsygw*&&.Xww&&yf&$fygwwyyg&&&gww*&;&ww9&&&&&..&&&*",
"&g&&&&XX&yyw&gegfw&$ww&.&$&&gw&&&wyw&&&&&&;&9e&ww*&&&&&&&w&;*&;&",
"&&;$&XXX&gsg*&wg&&&&wXXwggg&&&&&&&ww&XXXX&wg&&fw&&&&&;OX&ww&&*&w",
"y=ww&@X.X&wdw&gs&&&*XOgyygd&&dyyy&&&XX&&XX&wgwg&$X&&w&;@X&ww&*wy",
"&X&ww&&&X&&0w&$&ggeXXXX;&&&&gyy8&X&&X&&w&XX&0w&&XX&7w&&$X;&w&&ir",
"&&&*ww$&&&&&&*&wgyyg&&&&www&&&$&&XXXX&&w0&X&&&&OX&&ww&&&.X$&&wiw",
"&w&&&*&&+X&$&&&X@OXXXX&w9&&&&&&&&w&&&&&&w&;g&&XX&&$&w&&$;X&w&wg&",
"&w&eww&&XXX;XXXXX&$OX+&;&w&&&&&&&w0&&wg&&&gy&&X&&w&$&&w&&&ww&w&&",
"e&&sg&&&ww9&X&XXXX&XX&&0*w7&&&&&w;ww&&wgw&yw&;XO&ww*&wg;*9ww&&$&",
"&&&;&&&ww&&o&&&&&XXXX&ww;&0&&&w&&$&&;;&ygwgw&&&.&&ww*wrg*w&&XXXX",
"ytg&$&$&&&&.www&&&X&&&wgXXw&$ww&yw&&ww&&gww&ggwXX&&w&wty&&&&&$&&",
"yggg&gfryg&.X&we:&Xw&&g&&&*&gww$yyww&dgw*wwwe&&&X&;&&&ey&wgyg0w&",
"wsgw&w9gX&&XX;*ww&Xww&X.;;&&gg&&ssw&&&ygww&w&$&XX&&&wwwgwgygw&*&",
"XwdXXwg@X;&&XX&-&*&wg&&&ggyg;&&&gw&&&&&&ww&&&XXX&wwgyygwwwww&$X@",
"&*6w0;XXggw&$X&&&&&*gg&gyyw&&&&&&e*&XX&&&w&&&&&X&&&&&w0wX.&&XXX&",
"&gyg&&&gww&e.X$g&&&&&$$gy*Xgfww&&g&&OXX&&&*X&&&&XX&&&&XXXX&&&&w&",
"6g6;&&;&&&&&;X&gg&$wgyyw&&gtyyg&wg&+X&XX$&XXX&w&&X+&&XX&wXX&&&w&",
"&&&666&*&66&XO&gs&wyygsg&&gwgg&O&&&X&w&#OXX&&&w9&&X+.X&ww&.X&&&.",
"&&46*&&&&65XX.&g&&;egyggw&e9g&&X&&*X&e&&&Xw&&&:0&&&XX&wwe&*X&&&O",
"&$w;&&09&&wXX&&&&$*&&&&&X@&&&&XX&&&X&ww&$&w&&&&&0&&&&&w;&&&X&&XX",
"&$*&X&&w&&&&X$w&&:*gg&&*&&$$&&X*&;&XXw&w&;wwX&w&&&&gs&&&&&*;&&X&",
"*&XXX&&w;&&gX=w0&&wws&&&w&&ww+XX$&XOX&$w&&*gX&ww&&w0g&&&w;&wwXXX"
};
