/* XPM */
static char *_955_c17e7760f216a4d3e9b5d130edba46b1c68e1fc1f6d4dd20b8a5973c8409a6fa[] = {
/* columns rows colors chars-per-pixel */
"64 64 48 1 ",
"  c #090A14",
". c #1E3616",
"X c #1F3616",
"o c #1E3716",
"O c #1F3716",
"+ c #1E3617",
"@ c #1F3617",
"# c #1E3717",
"$ c #1F3717",
"% c #263A16",
"& c #273A16",
"* c #263B16",
"= c #273B16",
"- c #263A17",
"; c #273A17",
": c #263B17",
"> c #273B17",
", c #241527",
"< c #251527",
"1 c #341C26",
"2 c #341C27",
"3 c #351C27",
"4 c #4D2B32",
"5 c #4D2B33",
"6 c #2D4217",
"7 c #2C4317",
"8 c #2D4317",
"9 c #344C1A",
"0 c #354C1A",
"q c #344D1A",
"w c #344C1B",
"e c #354C1B",
"r c #344D1B",
"t c #354D1B",
"y c #5F761E",
"u c #5E761F",
"i c #5F761F",
"p c #5E771F",
"a c #5F771F",
"s c #476820",
"d c #466920",
"f c #476920",
"g c #466821",
"h c #476821",
"j c #466921",
"k c #476921",
"l c #7A4841",
"z c #AD7757",
/* pixels */
"X**XX****whik*kr*rhk*:*rr***r*XX@**XX:***kkij*kr*kkk*:*tr***t*XX",
"*=*%O.*%***hir**rrrrr**rr***XXX**t=%.X*rr**kir**kkiik**rr*XX%XX*",
"**r**@.X@*************:***.XXX*:trX@X****%**%%*q***:*****XX*****",
"rrt*r:**oX=*XX:*X****r*****O.XrkrrX*******%=r**r=*rrr***X@*****r",
"kr**rr**:XXOXXXXXX***rr*****XkiarrXX*rrr****i%rq*rr**.XXX*:r**:r",
"r%***r*wtrXOX*XXXX***tr***r:*X%kr**.@*%rr**kirr**r***XX****rr**r",
"**trq=rr*X.X=**X@***q*rr**k**.**-%*+XXX**r*kik*>****XXXX***rr:**",
"****r***X@***r****XXk%***ik******%XXXXXO***rkr**%***XXOX*r**r**r",
"r**:****X***wr**%**Xki:*kir***rrr**XX**riuikrr*rhiiXOXX**r****rw",
"rr****XXX**=rr**rrrrkirrkr-=%**wkr**X%***tkkkrfkr**XX%***rr**wq*",
"rrr*XX.=*r**r:*=**rrrkirr*****=*kr***:*=***ekr***XXX*=****rr%r*%",
"******=**fk*%*rtr:*rrtirrfkkt:***k*=*t********XXOOO***rrt**r****",
"%:**rrr**kyr*rrr****:rrrjkr**%:r****rr*****%:*X***$Xrkkiir:*%**r",
"r:%%**er**ii*rr***XX.*********rwr:*rr*=*kiii**.*rr*XX*%kii****ri",
"*X*XO*****rkrr****=*X+O******rtr*X*rr:%*rkikh**Xri**XX*=rhk*riii",
"***XX**riirtrkyikw**r*XXXXX*%:=*:**r**r*rtfkrk*rii*=%*kkw**rkkir",
"*r****%*%kkrkiih*XXXrwXXO=XXX=***t***rw%**rkr**kfk*-rkik***kkkj*",
"*r***rrt**r*kkr*XX**Xrr*O********r**rwr%-**fk*rkr***iikrrr*rrw**",
"r**r**rrr***w*XXX*****=*X*******r**rr*******rrr*****=qrw%=**&***",
"***rr**OX****XX**rr=**r:X**rr*r******%iiik*:*:*********OXXO*%***",
"r***r*%*XOX*q**%**rrr*k**rt*:*t*irX:*krakr*****rrr**k*XX**r=*&**",
"qr********XXkr=*****r*ju*r***:r*iit*krkkr****XXXrkr*ki**wjr**rq*",
"rt**rrr*rkrXrt*kr*=:**ri:=rir***kkkw*kk=**qrw*:X**t*kif*kw*-rr**",
"Xr*wqq=*%rhqXXrr**rjiarr*wir****krsq*****kr***XX*%***rkXj***=**z",
"*=**=***:**rrXOX*rr*rair*hk*****rrrr****%*XX**X*X%*k**rrXkikk%zz",
"*k*%****X@XXXX*O$****rkt*:*>:***:rr*=:****XXXXXXX*hiukrrkif%zzll",
"8k=qr==*rr.X$X*rXX**************rr:r%**kjr*XXXX:**:rkikrfj42244l",
"****rt***qrr***rwXXX*******=***X*r&rr:**rr**XXXt*****kfrk   1444",
"%****r**XX**=**rr**-*@*=XX@XXXXX**:rr-*:*rr-%XXqr********2 22244",
"******=XX**%****r=***XX@@X@*rXXX****rq-****=****rr%******2,22224",
"****X@.r=trrX*r****rr*%&***rt*X****:Xr*r****X*r***-kk****2,22325",
"**XXX***%*rkr=rr=*rrk***r*=wrXXX*:XXX**r*=*kX*wr>*rrk***r2,22224",
"X**X.%***kkik%kq=kkk**:rr***r*@XX*&XX****kkyk*kr*kkj***rr2<,,222",
"*r*=XX*r**rkir*%khiik**rr%***XX**r**XX%tr**kiq::kkiik**rr*222222",
"rr*XXX*rr*X.*k*rrii*XX*q%****=*%rrX..:*%X@.X%**=*==**%*****22222",
"rq*X***=::Xrrrrrkg*XXXX-******rkrrX*.XXXXr=XXX****=***r**X*:***r",
"rw****r***iikOrXXXXXO*X*rrtk**iirrXXX**r*rr**XO%**r*%kr**.X****r",
"r**%rr**=kkr******rrr*XX*rrrk%*kr*XX**:w*%tr*X+*>*k**a**:*X@=**t",
"***rrr**********=rr**@.X***kk****r**r*rw***=XX**:qkirrt*=***X%**",
"**%***XX*rtq****rr****rrrX=%XX***r*kr*r*****.*rjikwkrrrkikw*@**r",
"**r*:X*.***rw*%****=*rrwr:r**ri****ir******r****ryjwqwkir***$*rr",
"krr**rwX****r**iiik****rr***qii=kkri*=*rr**k:rr**rkkr*kr**:XX*r*",
"kq**rr*X*irX*=kfikr=**XXrr**ij**jikrriik***krr=*:*rrq*****..***=",
"*k****XX*air*krkjr*%rw*X****kr***rur=*****:*qr*rr=*******r*:=*:*",
"**:*%XX@*kfk=*rk****rXXrkkk*******rr:XO.@*rk**jr*****:OX*rr**>*r",
"i%rt*@X.X*rhr*kk****XOkyikf**hiiu***XX**@X*rjrk=*.**r*:@X*rr*=ri",
"*X*rr***@**wr*%*kkeXOXX>****kii0*X*=X**r*XX*wr**XX*9r***X:*r**iy",
"***=wt%****:***rkiik**%*rrr*%****XXXX*=rr*X****OO**rr***.X***rar",
"*r***=**+X*%***X@#XXXX*rq********r*****:r*:h**XX**%*r**%*X*r*rk*",
"*r*rrr**XXX:XXX.X*%OX@*:*r*=*****rw*%rk*=*ky**X**r****r***rq*r**",
"t**fk***rrr*X*XXXX*XX**e*tw*****r:rr**rkr*ir*:XO*rr=*rk>=qrr**%*",
"*******rr**o*****XXXX*rq:*r***r**%***:*ikwkr***X**rr=ryk=r**XXXX",
"iik**=%**=*.qrt***X***rkXXr*%rr*ir**rr**krr*kktXX*=r*rui***:*%**",
"ikkk*kjyik*XX*rr>*Xr**k***=*krr%iirr*kkr*rrrr***X::*%*ri*rkikwr*",
"rkhr*rqkX**XX:*rr*Xwr*X.::**kk**kdr***ikrr*r***X.***wrrhwkikr*==",
"XrsX.wk@X:**XX*;***rk***kkik:***kr******rr*:=XOX*rrkiikr9rrr**X@",
"*=8rw:XXkkr*%X*****>kf*kiir******r=*XX%**r*****X****=rwrX.**XXX*",
"*kik***krr*0XX%k**:**%%ki=Xkjrq**k**XXX***=X*=**XX****XXXX****r*",
"8k8:********:X*kk*%rkiir**kpiak*rk*+X*XX%*XXX*w**XX**OX*rXX***r*",
"***888***86%XO*kf*riikjk**krkk*X***X%r*$XXX***rr**X@XX*rr*XX%**.",
"**68=****87XXo*k**:rkikkr*tqk**X***X*t***Xr**:>w***XX*rrt*=X***O",
"*%r***wq**rXX*:**%******XX****XX=**X*wr*%*r**%**w*****r***:X**XX",
"*%=*X*:r****X%r**==kk**=**-=**X=***XXr*w**rrX*r****kf*****=***X*",
"=*XXX**r***kX%rw**rtk***r**rr@XX%*XOX**r***kX*rr**rwk***r:*rrXXX"
};
