/* XPM */
static char *_0476_0f4a0394afac222bfe5d7bc65e6a1a6dea9f5993d672111c7fac665a2a5ec18b[] = {
/* columns rows colors chars-per-pixel */
"64 64 160 2 ",
"   c #000100",
".  c #010A00",
"X  c #100100",
"o  c #170407",
"O  c #081103",
"+  c #10100E",
"@  c #090A14",
"#  c #151E12",
"$  c #11191C",
"%  c #270000",
"&  c #330100",
"*  c #2C1008",
"=  c #22101B",
"-  c #0E2901",
";  c #132A03",
":  c #152A0A",
">  c #163403",
",  c #1A3205",
"<  c #1F3804",
"1  c #1B320B",
"2  c #17380D",
"3  c #1F3113",
"4  c #332206",
"5  c #3A2905",
"6  c #36260B",
"7  c #392E0C",
"8  c #233502",
"9  c #233C03",
"0  c #27310C",
"q  c #223A0B",
"w  c #353403",
"e  c #222413",
"r  c #22251F",
"t  c #382913",
"y  c #253114",
"u  c #223C13",
"i  c #2E3915",
"p  c #29391B",
"a  c #333410",
"s  c #241527",
"d  c #341C27",
"f  c #2F2E28",
"g  c #312222",
"h  c #353733",
"j  c #450303",
"k  c #431508",
"l  c #521F04",
"z  c #561310",
"x  c #76151E",
"c  c #432205",
"v  c #492E06",
"b  c #45270B",
"n  c #55240D",
"m  c #40300D",
"M  c #44221F",
"N  c #53201F",
"B  c #453414",
"V  c #4A3820",
"C  c #533925",
"Z  c #4D2B32",
"A  c #483536",
"S  c #692521",
"D  c #7A2322",
"F  c #673424",
"G  c #783121",
"H  c #18410E",
"J  c #254005",
"K  c #2C4206",
"L  c #2F4903",
"P  c #27400C",
"I  c #2E4A0C",
"U  c #35500E",
"Y  c #2A4214",
"T  c #294A15",
"R  c #2D431C",
"E  c #284B1C",
"W  c #334712",
"Q  c #314A15",
"!  c #36431E",
"~  c #344C1F",
"^  c #375114",
"/  c #35511E",
"(  c #304424",
")  c #364B24",
"_  c #395224",
"`  c #3D542D",
"'  c #384432",
"]  c #444314",
"[  c #434520",
"{  c #534021",
"}  c #445D22",
"|  c #455E2B",
" . c #55522A",
".. c #444238",
"X. c #6E4128",
"o. c #436422",
"O. c #4A6321",
"+. c #4A6428",
"@. c #4D692B",
"#. c #536623",
"$. c #506A28",
"%. c #4B6331",
"&. c #436930",
"*. c #546B32",
"=. c #506638",
"-. c #536A3B",
";. c #557330",
":. c #5A7331",
">. c #5B7439",
",. c #676E38",
"<. c #627835",
"1. c #454546",
"2. c #574445",
"3. c #595244",
"4. c #4D4F50",
"5. c #565555",
"6. c #694744",
"7. c #7A4841",
"8. c #665554",
"9. c #7A5751",
"0. c #5C7540",
"q. c #5E7B40",
"w. c #637B43",
"e. c #5D5C61",
"r. c #6C6668",
"t. c #881B19",
"y. c #AB1720",
"u. c #A41E25",
"i. c #AA1A26",
"p. c #B31729",
"a. c #B31C29",
"s. c #B41F30",
"d. c #892724",
"f. c #8C2925",
"g. c #88252E",
"h. c #992223",
"j. c #96282D",
"k. c #873024",
"l. c #9C332A",
"z. c #992532",
"x. c #883331",
"c. c #983436",
"v. c #A82224",
"b. c #AC2A2D",
"n. c #A52130",
"m. c #B52730",
"M. c #BB2435",
"N. c #A73938",
"B. c #B73236",
"V. c #C52435",
"C. c #CA3336",
"Z. c #C93139",
"A. c #993544",
"S. c #AB2D42",
"D. c #B93541",
"F. c #C73541",
"G. c #935249",
"H. c #B54C4E",
"J. c #C94547",
"K. c #D4696E",
/* pixels */
"1 , Z Z Z Z Z Z Z Z Z 7.7.7.7.7.7.7.7.7.7.7.7.7.Z Z Z Z Z Z 7.7.7.7.7.7.7.7.7.7.7.7.7.7.7.7.7.7.7.7.7.7.Z Z Z Z d d d s s s d , ",
"u Z Z Z d d Z Z Z Z 7.7.7.7.7.7.7.7.7.7.7.7.7.Z Z Z Z Z 7.7.7.7.7.7.7.7.7.7.7.7.7.7.7.7.7.7.7.7.Z Z 7.Z Z Z d d d d d d d d , < ",
"> d Z d d Z Z Z Z 7.7.7.Z 7.7.7.7.Z 7.7.7.7.7.7.7.Z Z Z Z Z 7.7.7.7.7.7.7.7.7.7.7.7.7.7.7.7.7.7.7.Z Z d d d d d d d d d d y 3 Y ",
"_ d d d Z Z Z Z Z 7.7.Z 7.7.7.7.Z Z 7.7.7.Z Z 7.Z Z Z Z Z 7.7.7.7.7.7.7.7.7.7.7.7.7.7.7.7.Z 7.Z Z d d d d 7 0 1 1 q 0 i y u u T ",
"&.d d d Z d d Z Z Z Z Z 7.7.7.Z Z 7.7.7.7.7.Z Z Z Z Z Z Z 7.7.7.7.7.7.7.7.7.7.7.7.7.7.Z 7.Z Z Z d d A.g.g.z 7 0 , q u ! 1 , Y ) ",
"T < d d d d d Z Z Z Z Z 7.7.7.7.7.7.7.7.7.7.7.7.Z Z Z 7.7.7.Z 7.7.7.7.7.7.7.7.7.7.Z 7.7.Z Z Z Z d j.n.y.u.d.G l 7 0 a ] _ < 9 E ",
"q Y W d d d d Z d d Z 7.7.7.7.7.7.7.7.7.7.7.7.Z Z Z Z 7.Z Z Z 7.7.7.7.7.7.7.Z 7.7.Z Z 7.Z Z Z D.N.S.s.F.s.b.b.l.G n c ] _ P 8 1 ",
"q 0 0 9 d d Z d d Z 7.7.7.Z 7.Z Z 7.Z Z 7.7.Z Z Z d Z Z Z Z 7.7.7.Z 7.7.7.7.Z Z 7.7.Z Z Z Z D.K.D.D.F.F.D.M.F.M.B.l.G v W 9 q Q ",
") , w v l d d d d 7.7.7.Z Z Z Z 7.7.Z Z 7.Z Z Z d d d d Z Z 7.Z Z Z 7.7.7.7.7.Z 7.7.Z Z F.D.D.H.z.D D k.j.D.F.F.C.B.h.x.v < / T ",
") [ c G.N.d d d d Z Z Z Z Z Z Z 7.7.Z Z Z Z Z Z d d d d d Z Z Z Z 7.7.Z Z 7.Z Z Z Z Z v.M.B.K.A.z & X X S f.S.B.C.J.J.f.v ) T H ",
"! B X.h.C.Z.d d d Z Z Z Z Z Z Z 7.Z Z Z d Z Z d d d d d d d d d Z Z Z Z Z 7.Z Z Z Z y.a.i.z.D N M o ..* C & x D.Z.V.S.x.b ! > H ",
"Y B S t.M.M.n.d d d Z Z d Z Z d Z Z Z d d d d v.u.u.u.d d d d d d d Z Z Z Z Z Z @ @ i.u.z.A.% 2.X + 3.g e 8.j A.D.D.n.x.5 q P 2 ",
"1 7 c z j.j.s d d d Z d d Z Z d d d d d d d i.y.u.v.p.p.p.y.y.i.d d d Z Z Z s @ @ @ @ m.b.S * g o g 5.5.= 8.z S S.N.c.X.a 9 a ^ ",
") a { & x s d d d d d d Z Z d d d & j.i.s.m.M.b.b.b.m.M.V.M.m.m.s d d Z s s @ @ @ @ @ @ z.% 8.r A r.r.r.5.g 6.z g.j.G n w J w ,.",
"1 1 e k s s d d d d d s s @ @ 2.C & D h.n.n.b.m.b.b.m.m.a.m.b.b.s d Z Z s i.u.@ @ @ @ @ @ o 5.1.4.r.e.r.6.A 8.6 S F C w U ;.<.<.",
"2 q 0 5 s d d s s s + @ @ @ @ r e C S D G D k.f.f.f.f.f.f.f.k.k.s d Z Z s d.k.@ @ @ @ @ @ 9.r r @ f 5.4.t ..d  .C b w ] O.O.<.L ",
"q ) q s s d s s # ..O @ @ @ @ ..  i 6 6 V { 6 4 4 m 6 4 6 5 m b s s Z s 5 { B 7 @ @ @ @ @ @ . '   $ 1.$ e 3.  -.y 0 9 +.%.*.@.< ",
"P Y 8 s s s s [ p # e @ @ @ @ h y : u i 1 u _ 1 u 1 y 3 u y q s s s s s I Q Y < 9 @ @ @ @ @ @ ' h + 1.# ... 0.p ) Q P T Q P 8 P ",
"P P P s s s s ' ( f . y @ @ @ @ 1 u u , 1 q < P , q 1 u q Y q s s s s W / 9 R J J < @ @ @ @ @ 3 O r r e p ( ~ W 9 q J > < P < q ",
"P q 9 s s s q u 1 1 R 3 @ @ @ @ @ R ) q P < Q < 8 q Y / Y u u s s s 9 q q 8 -.>.*.@.q q @ @ @ @ p y y u 1 < 1 < < - > P P q q q ",
"T P 1 Y ! P u , , 1 , q ) @ @ @ @ q ~ Q Q 8 @.9 9 W R < q , _ s s s 8 , 1 -.P >.*.Q < < @ @ @ @ ( ) i u =.q > < H P P P < 1 Y 1 ",
"E ~ P q q > < q H < q < %.Q q < q q 1 9 ^ < +.:.< ^ 8 P 9 q ~ 8 >.$.^ J %.^ *.+.W 9 2 < P , 3 > _ | W 8 | >.J 9 L | / < P ) ) 3 ",
"~ ~ 1 q T / E q T %._ - _ Q > -.! u , 9 J 8 ^ *.< J Q -.) Y , q +.$.o.U < o.=.8 Y , ^ T Q q > u , K W q *.:.+., @.Q Y < ~ ! u q ",
", E q / Q ~ 9 q , / | / > > Q R q q W =.>.>.I ^ 8 W w.Q q < i , %.I @.I 9 9 P q , -.Q P < , u ; i , 9 J , ^ +.< @.> 9 < < q u u ",
"q q q q q q 8 q 9 q q _ ~ > , 1 Y ( R P K >.>.W 9 %.+.R q , q q Q ^ I I < < q u 1 u 1 < , u 2 u > J < o.9 J I ^ > @.0.| =.< P 1 ",
"q +.q q q 9 q q , q , , 1 q < , ; < Y 9 q ^ | ^ < q q q u u u q < R _ J < P < u R 1 , > , q 1 , < < %.>.>.@.U P @.q.+.J 8 q ) P ",
"i %.q W _ , Y q / Y 0 > 1 ; q ) 1 , q , < < P < q , , u u 1 u q } I , ^ u < 2 =.&.! P 3 1 3 , 1 P < J T &.*.=.I @._ q J 9 Q ~ < ",
"P P 0 i ) T < q q ~ ) R Y i u E ( 1 , < P 0 q q q u u u 1 y 1 1 > ^ q ` R R u 1 _ ) H < 1 3 1 ~ < < , 9 Y &.@.^ %.I < / Q ~ q , ",
"< , q q q ) 2 1 1 q u 1 q q u ! ) q 1 q q , P u ; y 1 1 3 3 , , q q 1 R ) 1 q < 8 R ~ i y 1 , ~ _ > H 8 9 < > q < 8 8 , q u q q ",
"q q Y 2 , q Y 2 , 1 q u q q q q ~ i q 9 q < ; 1 1 q : u ) 1 , 1 q q u u ( ) u q q K 2 1 i 1 q q / ) P , q q q 9 < q Y q q q 1 1 ",
"u 2 2 u 2 1 q Y q ~ / T 1 q Q q q , q R ) q q 1 u y y ' ) u , u 1 q q q , ) q R q 9 > P < q R u < P , *.%.8 9 q q < 1 Y u 1 1 i ",
"1 Y 2 , , u > Y 8 q T %./ 8 Q Q 9 < _ ~ | q i q ) u u ( ( 1 3 , i y 8 , , q q _ 1 P 9 $., q ~ ~ P J P ^ %.9 P , ) Y q ( R 3 3 : ",
", u q 1 > q q q P +.@.>.O.H $.I J } @.$.< J P T Q u q 1 ( p 3 1 1 q 1 1 1 < q 2 J @.| 0.@.< %.^ J O.O.O.< 9 9 W R 1 1 u ) u 1 1 ",
"R p u 1 3 1 u ~ > J Q +.:.I < J $.$.*.:.+.< 8 ) ) ; R u 3 , 1 Y 3 ~ Y Y > 1 2 ~ W P 9 +.>.Q P , $.O.:.>.#.< 9 ) / u y : 3 3 3 u ",
"R E q q > , q ~ Q P - J 8 @.P R L ;.:.P > , u ( u u < q H q 8 P / ~ - 2 1 q q q , > > > < < < P 1 8 P 9 P < q < y y u u Y q , q ",
"E ) Y 1 q 2 u q < 9 < W Q / Q T @.o.q > q 2 2 p y q q < < K Y } / ) 1 1 1 q 1 q , ) P > 1 1 2 u 1 ~ 1 u q < ) y q 1 u 1 q q q R ",
"~ Q q , u i Y q q 2 0.0.%.> E 1 > 2 , 3 1 3 1 P ~ W Y O.9 < <.>.W R u , 1 < q ) 1 _ Y Y 3 1 3 1 u u ! u q %.W Y q 0 q q u i < Q ",
"W q , u / R H q P =.=.R Y u 1 i H Y ) ) ) u 1 > > ~ I ^ #.< < #.T P , , u 3 Y ( 2 Y R R 3 2 , p q 1 -.q , w.q < < , ; 1 1 q u _ ",
"P 9 P Q ) E q q , q q 2 1 P 1 q H T Q 1 q , 8 > J q P o.%.q q q P T , Q R q ~ E Y 1 Y H , u 1 u 8 ^ | *.^ I I K 9 q q q q q , q ",
"9 q 1 < u < 1 , P Q ! ^ J 1 P < I U P > P P u / ~ , u 8 q < u q 8 ^ 8 &.^ q R q P 1 , Y , 1 ) %.0.O.L $.I L U +.*.-._ q ; u u ) ",
"< q R q Y 1 q > q < < / T 9 P < 9 , < P 1 ) _ ~ R < Q P < T >.< J < < >.T < < P P q 9 _ > q u q I <.O.L U U } <.^ q q q q y ( ) ",
"=.Q / q > ) ~ , 1 P J < U < < :.>.>.| P < H 3 ) ) Y q 1 ^ >.:.J $.O.U :.< J , T Q q 1 +.Y P _ 9 J J @.#.L < $.Q 8 q q 1 q u R u ",
"&._ , i ) ) q , < 0.I < < < $.+.;.o.^ P , , 2 ; Y ~ q 9 >.%.9 8 +.;.+.I Q q.>.@.< < P %.I _ , q q 9 ~ W Q 8 q q 1 u 1 : i q 0 q ",
"< %.q 1 1 2 > q P >.>.Q 9 +.I @.&.^ 9 8 _ ~ q q P 8 P < +.Q 8 q < U >.U J < q , q 9 < < / / , W R u , q Y q , u u ~ u q P q , P ",
"9 1 P u 1 1 , , P | @.%.8 H R @.q q 1 < Q < > P o.*.+.8 J J , 9 < < _ W > < , < < > T *.< < =._ Y y u u q u q y 1 ~ ) u < q < ^ ",
"0.Y P / Y , < 1 > < ) %.P P $.%.P q J q , < @.w.>.O.O.9 J O.w.*.>.J , < Y 2 2 3 , , Y ^ %.Q %.q 1 q u 3 ) q y 1 1 u ~ ~ < < ^ >.",
"< < q Q R 1 Y 2 > q q ) _ 8 , 9 o.@.Y < 8 , , 2 P , q < $.;.:._ < 2 R , 1 1 Y ~ q 2 , , ) ~ q H q , q Y ~ q R q 1 1 q Q 9 P $.<.",
"q > q P ~ _ 1 u q Y 1 > < Y q T &.>.>.+.< < u q ~ Q Q 9 q q 8 8 < 2 , 1 3 u : ) ~ q , < q , q , 8 < 9 _ ~ , y u ; u q q < I <.L ",
"J Y J q > u q H , q : u 3 R 3 1 2 2 , , q , q ~ Q q q P q 2 q 9 q R q q q , u < Q < J *.q H 3 1 1 q q u ! u u 3 3 2 u ~ q W @.9 ",
"9 _ < Q ) _ 1 1 1 q u u 1 , 1 2 , 3 u u - ; u q q Q , , Y u u q q ~ E q u ) %.8 J < +.;.8 , 1 u q ~ q , q i ) Y u q R ~ < W q q ",
"U < J @.%.9 u 2 R R ~ u u 1 1 1 1 , p 1 1 u < ) 1 ~ _ q < 2 1 u W P ) ~ 1 > / @.U J ;./ J q 1 , q _ Q i q q +.9 9 _ Q ) 9 q q q ",
"J J < q 9 q 9 Q ! P q > q q u 2 u 3 1 : 1 H / Q 1 R Y Y 9 < _ 1 < 9 J q < P H 0.o.U @.J P P q 1 q u W Q 9 ^ w.} 8 I 8 P 8 ; , , ",
">.>.;.8 < < P < u q > 1 R ) ~ H u 2 y u Y 1 T +.P , _ > P W ~ P ;.^ 2 9 _ Q < < o.U I Y +.| ) 1 1 1 Y Q 9 U :.:.J < 9 < , u q u ",
">.O./ $.J +.%.>.0.+.Q > > q W / u 1 > ) , < =.9 < , < J } / T < ;.w.P Q 1 %.=.W P R I U Q H u 1 0 q q 8 9 < L :.< L #.w.%.) ! u ",
"U o.@.I J Q ^ | > < < < , P u ! ~ u 1 ~ ) P 1 > J < < P | %.P < $.} ^ I q 8 >.=.W / P T P 1 q 1 : u q q I ^ I #.U #.#.-.W < u u ",
"> U O.< > Q @.< 9 < 1 P > , 1 q 1 P 9 W | P > P +.@.*.%.q < < J +.I J < q q q q / Q q 9 < 1 q 1 1 ~ ~ =.>.>.+.I L ^ ^ T < u ; y ",
"8 1 P Q Q q > 1 =.%.) < 1 1 H q , T < < @.@.< @.>.;.I < P J < 9 < Q 8 P < - H q q ) Y , q Y q , u q i q 8 Q ~ Q < 8 q q q ; 1 u ",
"J %.>.+.P , P %.R ) 2 R , , q =.Y , < J 9 < 8 @.>.< , @.o.Q ^ < P %.P , 1 , q q 2 Y 3 > u 1 u 1 : < 1 q u u 1 , 1 > q q q q ! u ",
"W o.Q < < T , < 1 Y 3 R q , 1 %.| 8 q Q } >.*.^ J < $.q.-.>.o.< R &.q ; 1 u 1 1 q 1 2 1 1 u ~ u q 9 , , u , : u ( : 3 1 u u E 1 ",
"1 2 q q P Y 2 i q Y P > 1 1 Y =.%.P T >.w.*.o.@.< < +.Q *.+.P 1 P Y q , 2 ! 1 q 1 1 q p 1 Y R ~ 1 q q 1 1 1 p ) ` 3 1 3 u u i 1 ",
"Y P Y Y u q q 1 u u R q > , P %.P P < _ | ;.*.o.^ P P T %.9 1 1 u 1 q 1 P / u q q , Y 2 q q q ) 9 q q , , 1 ) ! ! u y 1 u 1 1 1 ",
"q 1 R Y 1 q ) ) q u T 1 1 , q < < < , T < < J J > < q P P , 1 , u u u 1 1 / Y q P < _ 2 q q q q R 9 q q u q ~ u 1 u q , u q , y ",
"Y q 1 1 , q u R q q u < , H ) < P 1 q +.| q q 8 J 8 < , u 2 ; u u q q > , T Q R > P ) R < q / 8 Y q q | %.q q 9 q q q 1 u 1 q y ",
"1 q > q 1 q q _ q 1 q @., < W ~ < Y Y Q =.< H q Q 9 q ~ ' 1 1 2 3 p u 1 , P 8 ~ P < < =., < ~ Q , i W / %.9 q 8 ~ 8 q ~ _ 1 , 1 "
};
