/* XPM */
static char *_3897_a045ddc84e2c5bfc621f032471f2eafbb63da54947f1c447f8eb73dde7529192[] = {
/* columns rows colors chars-per-pixel */
"64 64 178 2 ",
"   c #090A0B",
".  c #160202",
"X  c #090A14",
"o  c #2A0804",
"O  c #330100",
"+  c #0E2901",
"@  c #132A03",
"#  c #152A0A",
"$  c #163503",
"%  c #1A3205",
"&  c #1F3804",
"*  c #1B320B",
"=  c #17380D",
"-  c #1F3113",
";  c #372605",
":  c #36260B",
">  c #392E0C",
",  c #233502",
"<  c #233D03",
"1  c #27310C",
"2  c #223A0B",
"3  c #353403",
"4  c #222413",
"5  c #382913",
"6  c #253114",
"7  c #223C13",
"8  c #2E3915",
"9  c #29391B",
"0  c #333410",
"q  c #241527",
"w  c #341C27",
"e  c #312222",
"r  c #363423",
"t  c #450303",
"y  c #431508",
"u  c #521F04",
"i  c #561314",
"p  c #751514",
"a  c #76151E",
"s  c #442407",
"d  c #492E06",
"f  c #4E280D",
"g  c #45221F",
"h  c #53201F",
"j  c #443414",
"k  c #663319",
"l  c #691823",
"z  c #4C3629",
"x  c #4D2B32",
"c  c #692521",
"v  c #7A2322",
"b  c #7E2A2E",
"n  c #673424",
"m  c #783121",
"M  c #7A382C",
"N  c #18410E",
"B  c #254005",
"V  c #2C4206",
"C  c #2F4903",
"Z  c #27400C",
"A  c #2E4A0C",
"S  c #35500E",
"D  c #294114",
"F  c #294A15",
"G  c #2D431C",
"H  c #284B1C",
"J  c #334712",
"K  c #314A15",
"L  c #36431E",
"P  c #344C1F",
"I  c #375114",
"U  c #35511E",
"Y  c #304424",
"T  c #364B24",
"R  c #395224",
"E  c #3D542D",
"W  c #384432",
"Q  c #444314",
"!  c #44442D",
"~  c #534021",
"^  c #445D22",
"/  c #445D2A",
"(  c #6E4128",
")  c #436422",
"_  c #4A6321",
"`  c #4A6428",
"'  c #4D692B",
"]  c #536623",
"[  c #506A28",
"{  c #4B6331",
"}  c #436930",
"|  c #536B31",
" . c #506638",
".. c #536B3A",
"X. c #4D783A",
"o. c #557330",
"O. c #5A7331",
"+. c #5B7539",
"@. c #676E38",
"#. c #627835",
"$. c #3D3A40",
"%. c #4E4546",
"&. c #6D4F4B",
"*. c #7A4841",
"=. c #5C7540",
"-. c #5E7B40",
";. c #637B43",
":. c #7C6857",
">. c #767070",
",. c #881B19",
"<. c #9D1522",
"1. c #AB1720",
"2. c #A41E25",
"3. c #AA1A26",
"4. c #B31729",
"5. c #B31C28",
"6. c #B41F30",
"7. c #8A2824",
"8. c #88252E",
"9. c #992223",
"0. c #9B2128",
"q. c #96282D",
"w. c #9C332A",
"e. c #992532",
"r. c #883331",
"t. c #983436",
"y. c #A82224",
"u. c #AC2A2D",
"i. c #A52130",
"p. c #B52730",
"a. c #BB2435",
"s. c #A83337",
"d. c #A53F38",
"f. c #B53235",
"g. c #BE353B",
"h. c #C52435",
"j. c #CA3336",
"k. c #C43539",
"l. c #CE3039",
"z. c #D1383D",
"x. c #914C37",
"c. c #993544",
"v. c #AB2D42",
"b. c #B93541",
"n. c #C73541",
"m. c #935249",
"M. c #9A5B5D",
"N. c #B5494B",
"B. c #886858",
"V. c #9A645C",
"C. c #A7635B",
"Z. c #AD7757",
"A. c #A55D61",
"S. c #996667",
"D. c #95696B",
"F. c #8E7A74",
"G. c #A4666A",
"H. c #A9777C",
"J. c #B77577",
"K. c #C94547",
"L. c #D74C55",
"P. c #E35D60",
"I. c #D4696E",
"U. c #E66568",
"Y. c #7F8778",
"T. c #88857C",
"R. c #918579",
"E. c #9D7E83",
"W. c #8A8684",
"Q. c #958D89",
"!. c #9B9A9B",
"~. c #AC9E9C",
"^. c #BF9E99",
"/. c #B2A39A",
"(. c #AE9FA3",
"). c #B2A3A5",
"_. c #D69E9F",
"`. c #DDB7B9",
/* pixels */
"* % 6 2 @ 7 6 1 2 I ) X.} & _ Q , K ..^ < V & K R 2 * 7 Y 9 : : y f s y u i ; s , } } X.} & ] C B ) ) ) , < , R H D 2 = F 7 % $ ",
"7 Z 2 6 * = 7 1 1 < < } o.I B @ R K Z U K 2 $ T G 1 j r - 7 4 :.B.B.:.:.B.B.B.:.T 7 N  ...Q 3 < _ ] o.#.| 2 , G G 1 * * 7 $ $ 2 ",
"% 2 K 7 N = * * 1 2 2 2 2 * < D = = 7 7 $ = = $ 9 5 y :.:.Y.Y.Y.W.E.T.W.W.T.F.R.W.>.T.T.S.B.&.m.u d < B 2 1 7 8 7 - # 1 8 1 7 7 ",
"U K R 7 H N = = 2 @ 7 * * 7 D = * D * * F P D 8 5 i A.G.R./.Q.!.!.!.!.!.Q.W.W.W.W.Q.F.E.H.H.I.H.m.x.~ ~ j > 1 * & 2 1 8 6 7 7 G ",
"} G 2 , 8 R 2 D 7 * = = = @ # # - # N 7 $ R J ; F.S.M.G.^./././.(.(.(.).(.(.).).(.).~._.`.`.`._.J.N.c.8.8.i > 1 % 2 7 L * % 7 P ",
"K 2 2 1 A F 2 J j ~ : : 5 j 5 e ; ; > > > j n C.C.m.b r.M.M.V.S.D.D.D.D.D.D.D.D.S.D.S.S.E.D.G.G.8.q.i.3.2.7.m f > 1 0 Q T Z & P ",
"& D K K F < Q k p s.s.s.t.x.t.t.t.d.N.N.d.N.d.g.y.9.<.9.7.8.e.e.8.r.r.8.t.q.q.t.t.s.e.e.s.s.i.b.s.v.p.n.4.u.u.w.m u s Q U Z , & ",
"2 1 1 < J ; x.d.f.k.n.n.N.I.I.P.U.L.k.j.j.k.j.l.h.f.p.f.s.f.n.k.f.d.s.f.g.p.K.U.U.P.L.P.L.b.b.I.g.b.n.n.b.a.n.a.f.w.m d J 2 2 K ",
"P % 3 d u x.f.b.z.f.e.b M r.t.K.n.L.l.l.h.l.j.j.j.k.k.g.k.k.l.l.k.k.g.g.k.l.k.K.K.K.d.n.n.b.b.N.e.v 7.r.0.b.n.k.l.f.9.r.d , U F ",
"R ! s m.d.f.n.a.<.7.t o . o c r.v.a.h.h.h.j.z.j.k.k.g.g.k.k.l.l.k.a.p.3.4.4.4.y.9.y.y.y.6.b.I.c.i O .   c 7.v.f.j.K.K.7.d R F N ",
"L j ( 9.j.l.b.e.l ; g x e . &.h a e.6.h.3.3.1.1.1.9.2.2.0.i.2.1.3.3.y.3.2.3.3.3.y.2.1.3.2.e.v h g   ! o z O a b.n.h.v.r.s L $ N ",
"7 j c ,.6.a.i.a O %.  r $.X   x O b <.v.6.3.1.y.y.y.2.2.2.2.2.2.1.3.3.i.3.3.1.1.x x x x x x x x x x x x x &.t c.b.b.i.r.> 2 Z = ",
"1 > s i q.q.q.i e $.Z.Z.Z.Z.Z.Z.Z.Z.Z.Z.6.4.3.1.<.y.5.5.4.1.1.3.3.5.p.6.Z.Z.Z.Z.x x x x x x x x x x x x x x h c v.v.t.( > < 0 I ",
"T 0 ~ O a e.b i %.Z.Z.Z.*.*.*.Z.Z.*.*.Z.Z.Z.6.u.u.u.p.a.h.a.p.Z.Z.Z.Z.Z.Z.Z.Z.x x x x x x x *.*.( x x x x x x x 8.q.m u 3 B 3 @.",
"* * 4 y a e.8.Z.*.Z.*.*.Z.*.Z.w x Z.Z.Z.Z.Z.Z.Z.u.u.p.Z.Z.Z.Z.Z.Z.Z.*.Z.Z.x Z.x x x x x x *.*.*.x x x x x x x x x n ~ 3 I o.#.#.",
"= 2 1 ; m l Z.Z.Z.*.*.*.*.*.Z.w x Z.Z.Z.Z.Z.Z.Z.Z.Z.Z.Z.Z.Z.*.*.*.Z.*.*.x x x x x x x ( m.*.x x *.*.*.m.x x x x x x 3 Q _ _ #.C ",
"& T 2 1 Z.Z.*.*.*.*.*.*.*.*.w x Z.Z.Z.Z.Z.Z.Z.Z.Z.Z.Z.Z.Z.Z.Z.Z.*.*.*.*.x x x x x *.*.*.*.*.*.*.*.*.x x x x x x x x x { ' | ' & ",
"Z D x w w x x *.*.q q q *.*.x Z.Z.Z.*.Z.Z.Z.Z.Z.Z.Z.Z.*.*.*.*.Z.Z.*.x x x x x x x *.*.*.x x *.*.*.*.x x x x x x x x x G K 2 , Z ",
"Z X X X w x x x *.*.*.*.*.*.*.*.*.Z.Z.*.Z.Z.Z.Z.*.*.Z.Z.*.*.*.*.*.x x x x x x x x x *.*.*.x x *.*.x x x x *.x x x x x x , Z = 2 ",
"Z w X w w w x x *.x x *.*.*.*.*.*.Z.Z.*.*.*.*.Z.Z.*.*.Z.*.*.*.*.*.x *.*.x x *.*.*.*.*.*.*.*.*.*.*.*.*.*.*.x x x x x x x Z 2 2 2 ",
"F w q w w w w x x x *.*.*.*.*.*.Z.Z.*.*.*.*.Z.Z.Z.*.*.*.*.*.*.*.*.*.*.x x x *.*.*.*.*.*.*.*.*.*.*.*.*.*.*.*.x x x x x x x * D & ",
"T w q w w w w x x x *.*.*.*.*.*.*.*.*.*.*.*.*.Z.*.*.*.*.*.*.*.*.*.*.*.x x x x x *.*.*.x x *.*.*.x x x *.*.*.*.x x x x x x P T - ",
"P w q w w w w x x *.*.x *.*.*.*.*.*.*.*.*.*.*.Z.*.*.*.*.*.*.*.*.*.*.*.*.x x *.x *.*.*.*.x x *.*.*.*.x x x x x x x x x x x x 7 2 ",
"% w q q q w e w x x x x *.*.*.*.*.*.*.*.*.*.*.*.*.*.*.*.*.*.*.*.*.*.x *.x x *.*.*.*.*.*.*.*.*.*.*.*.*.x x x x x x x x x x x 7 7 ",
"2 2 w w w w w w w w x x x *.x x *.*.*.*.*.*.*.*.*.*.*.*.*.*.*.*.*.*.x x x x x *.*.*.*.*.*.*.*.*.*.*.*.*.x x x x x x w w x x x * ",
"2 ` Z w w w w w w w w w w x x *.*.*.*.*.*.*.*.*.*.*.*.*.*.*.*.*.*.*.*.*.x *.*.*.*.*.*.*.x *.*.*.*.x *.*.*.x x x x x x w w x w Z ",
"8 { 2 J P * D 2 U D 2 w w w w x x *.x *.*.*.*.*.*.*.*.*.*.*.*.*.*.*.x x x x *.x x *.*.*.x x *.*.*.*.x *.*.x x x x x x x w w w 2 ",
"2 Z 1 7 R K = 2 2 P T L D 7 w w x x x *.*.*.*.*.*.*.*.*.*.*.*.*.*.*.*.x x x x x *.*.*.*.*.x x *.*.*.x x x x x x x w w x w w w % ",
"< * 2 2 2 T 2 * 1 & 7 * 2 2 D w x x *.*.x *.*.*.*.*.*.*.*.*.*.*.*.*.*.x x x *.*.*.*.*.*.*.*.*.*.*.*.x x x x x x x w w w w w 2 * ",
"2 2 7 D % 2 7 7 $ * 2 7 2 2 2 2 x x x x *.*.x *.*.*.*.*.*.*.*.*.*.x *.*.*.x x *.*.*.*.*.*.*.*.*.*.*.*.x x x w w x w w w w 2 * * ",
"7 D * = = * 2 D 2 P U F * 2 K 2 2 x x x *.x x *.*.x *.*.*.*.*.*.*.x x x *.x e x *.*.x x *.x x *.x *.*.*.x x x w w x w w 7 * * 7 ",
"1 = = $ % 7 $ N , = K { U , K K < & x x x x *.*.x x *.*.*.*.x *.*.*.x x x x w x x *.x x *.*.x x x x *.*.*.*.x w w w w T D 6 6 # ",
"% 7 2 * $ 2 2 2 B { ' +._ & [ A B ^ ' | x x *.*.x *.*.*.*.*.x x x *.x x w x w w x x x x *.x *.x x x x x x x x w w w w 7 T 6 * * ",
"9 G 7 * - * 7 T & B K ` +.A < B [ ' | O._ x x x x x *.x x *.*.x x x x x w w w w w x x w x x *.x x x x x x x x w w w - # - - 6 7 ",
"G H 2 * $ % 2 K F Z + B & ' Z D C o.O.Z $ $ x x x x *.x x x x x x w x w w w w w w w w w w x x x w x x w x x w w w w 7 7 D 2 % 2 ",
"P P G * 2 = 7 2 & , & J K U K F ' ) 2 $ 2 * * 9 x x x x x w w w w w w w w w * 7 % w w w w w w w w x x w w x w w X X 7 * 2 2 2 G ",
"P K = & 2 7 D 2 2 N =.=. .$ P * $ = % 6 * 7 # q x x x w w w X X J G 7 % * 2 = P * U 8 F - * = * q q x x w w q X X X 2 2 7 7 2 J ",
"J & & 7 P L 7 2 Z  . .9 7 7 # D = D T T T 7 q x x w w w q q X ] K Z % @ 7 - D T 2 G G G = * * G w q w w w w q X X X X 1 * 2 2 R ",
"Z < 2 K R H 2 2 * = 2 Z * Z * 2 N F F , 2 q q x w w q X X X X 2 Z F % K F Z P P 2 * G = * 7 * - & q w w w q X X X X X 2 2 2 * 2 ",
"2 , = 2 2 2 * % Z K G I < & Z & A I Z $ Z q q q q q X X X X X * , S , } R * G & Z = % D @ 2 T  .=.q w w q q X X X X X 2 @ 7 7 T ",
", Z G 2 D * 2 $ & & & U D B Z & N % & Z q q q q G 2 X X X X +.< B & B +.F , & Z Z Z & R % Z 7 & q w w q q S X X X X X X 2 6 T T ",
" .J U 2 $ T P % 2 Z 2 & S & & o.#.O.q q q q q T T 7 2 X X X X < ' _ S o., 2 $ F K 2 & { D Z R q q w q q C < [ X X X X X * 7 D 7 ",
"} R * D T T 2 % & =.A , & & ' ` o.q q q q q = * D P 2 X X X X & ` o._ A J =.-.' & & Z { A R q q q q q K I , 2 2 X X X X 7 2 1 2 ",
"% { & * 7 = $ 2 2 +.=.F B ' A ' } q q q q R = & Z , Z & X X X Z & S +.I < & 2 % B & & & R q q q q q * 2 7 2 % X X X X X 2 2 % Z ",
"& 2 Z 7 * * $ % Z / ' { < N G ' & 2 2 & K & $ Z ` | ` & X X X < & & U J % 2 * < & $ D | < q q q q - 7 7 2 7 1 X X X X 7 2 Z & I ",
"+.D Z P 8 $ 2 * % < T ' < Z | { Z & Z 2 % % | ;.+._ _ < B _ ;...+.B & = D % * = $ $ 7 I { K { & * 2 7 - T 7 * * * 8 U T , , I +.",
"* , 2 K G = = 2 * 2 2 P R , % & ) ' D < , % $ * Z $ Z & [ O.O.R = $ G $ = # D P 2 # $ * T R 2 7 2 % 2 J P 2 D * * * 2 K < B ' #.",
"Z $ 2 Z U U 1 7 2 7 * $ 2 D 2 F } +.+.` & $ D * P K K , 2 2 < & , 2 % * - 7 * T T 2 & & 2 $ 2 % , & , T P * 7 7 @ D 2 2 & A #.C ",
"B F < 2 $ 7 2 N & * # 7 7 9 - * * = $ * 2 % 2 P F 2 2 Z 2 * Z , 2 G Z 2 & $ D & K & B | , N 6 # * 2 2 7 P 7 7 - - * 7 R 2 J ` , ",
", R & K U R * * * 2 7 7 * * * * # 7 7 7 + % 8 2 2 K % * 7 7 7 2 & T H & 7 T { & B & _ o.& % * 7 2 T 2 * 2 7 T G 7 2 G P & J 2 2 ",
"S & B { { & = D G G P 7 7 * * & # * 9 * * N * R * P R < & N * 7 K Z T P * % U { S B o.U Z 2 * = 2 R J D 2 2 { < , R J P , 2 2 7 ",
"N B & Z Z & , K T 2 2 $ 2 2 7 = 7 = * * # Z U J * 9 F D , & R * & & B Z % Z 2 =.) S ' B Z Z 2 * 2 7 J K , I ;.^ , A < Z , @ * % ",
"O.O.' & & & Z & 2 2 & = G P P & 7 * 6 7 8 2 F { Z % R $ Z J U Z o.I Z & R K < & ` S A G ` / R * * * D K , S O.O.B & B , & D 2 7 ",
"+._ ^ [ B _ { +.=./ J $ = 2 K T 7 * $ T $ 2 { < & % , B ` U F & o.;.Z F $ {  .K Z F C S J N 7 * 1 2 2 , B < C O.& C [ =.' Y G 7 ",
"S _ ' A B K I / = & % & , 2 N G P 7 * U P Z * $ B & & 2 / ' 2 & | ^ I A 2 , =. .J R 2 F Z % 2 * # 7 2 2 A I A ] S ] ] | K & 7 7 ",
"% S _ & $ K { & & , 2 2 % * 2 2 * Z & J / Z $ Z ` ' ..' 2 * , B ` A B & 2 2 * 2 P K 2 < & * 2 * * P P  .+.+._ A C I I K * 7 @ 6 ",
"& , Z K J 2 % *  .{ P N * * 2 2 * F < & [ { , ' +.o.A & Z B & B & F , Z , @ N 7 = P D % 2 7 & = 7 2 7 2 , D P K & , 2 2 2 @ * 6 ",
"B { +.` Z % Z { P P * G % % Z { 7 $ , & B & , ' +.& $ | _ F I & 2 ` 2 , = % 2 2 7 7 6 $ 7 2 8 * # * 2 2 D 7 2 % * % 7 = 2 2 G 7 ",
"K / K = & F % 2 * D 7 9 2 $ * { / < Z K ) +.| S N , [ ;...+.^ , K } 2 @ * 7 * * 2 * * * * 7 P 7 2 < % % 7 % # 7 Y @ 6 & D 8 T * ",
"$ 7 & 2 Z D * D 2 7 D $ * * D  .{ B F =.;.| ) ' & & ` F | ` 2 * 2 G 2 % 7 G * 2 * 2 2 7 * D 9 U * 2 2 * * * 9 T E - * - 7 7 7 * ",
"7 2 D D 7 = 2 * = D D * $ % 2 { Z Z & T / o.| ) I Z Z J { & 2 * D # 2 * 2 P 2 2 2 * D 2 2 2 2 R < 2 2 % % * R G L 7 - * 7 * * * ",
"2 2 G F * 2 T T 2 D G 2 * % 2 2 & & % K = < B B $ & 2 Z Z $ * $ = 7 D * * U G 2 2 2 R * 2 2 2 2 L , 2 2 7 2 G 8 * 7 2 & 7 * * 7 ",
"7 2 * * $ 2 D 9 2 2 7 2 % N U & Z % = ` ` 2 = , B & % & 7 7 $ 7 7 7 2 $ $ K J D & N P G * 2 U , D 2 2 ` { 2 7 , 2 2 * 2 7 * , 6 ",
"* 2 % 2 * 2 2 R Z * 2 ` % , J P , D G K  ., 2 2 K < 2 P W * # = - 9 6 * % Z , U 2 & & ..$ , U J % 7 J P { < 2 , P , 2 P T * & * "
};
