/* XPM */
static char *_71541d344984931f6d0e342f97060c8YKxcMyROTTaE8dg6[] = {
/* columns rows colors chars-per-pixel */
"64 64 37 1 ",
"  c #090A14",
". c #1E3616",
"X c #1F3616",
"o c #1E3716",
"O c #1E3617",
"+ c #263A16",
"@ c #263B16",
"# c #263A17",
"$ c #263B17",
"% c #273B17",
"& c #241527",
"* c #341C26",
"= c #341C27",
"- c #341D27",
"; c #4D2A32",
": c #4C2B32",
"> c #4D2B32",
", c #4D2B33",
"< c #2D4217",
"1 c #2C4317",
"2 c #344C1B",
"3 c #354C1B",
"4 c #344D1B",
"5 c #354D1B",
"6 c #5E761F",
"7 c #5F761F",
"8 c #5F771F",
"9 c #476920",
"0 c #466821",
"q c #476821",
"w c #466921",
"e c #7A4840",
"r c #7A4841",
"t c #7B4841",
"y c #7A4941",
"u c #AD7756",
"i c #AD7757",
/* pixels */
"X@@@@@@@@2060@04+49w++@44@@@4+.XX+@@X++$@9960@04@09q+++22+++4+o.",
"@@@@oX@@@@@062@@44224$@44@@@.+.+$4@@X.+44@@964@@qq880++44+.++..@",
"@@2@$XXX.@@@@@@@@@$$@@$@@@oo..@$44XX.@$$@@@@@@@4@@@@++##+o.@@@@@",
"222@4$$@..@@@X@@.@@+@4@@@+++oo4944X$@@@$@@@@4@@4@@442+##oo@@@@@4",
"02@@22@@+XXXXXXXXX++@44@@@@@.96622+.@442@@@$6@44@44@@@..+@@4@@@4",
"2@@@@2@422XXX@..XX++@44@@@4@$X$92++..@+24@@9844@@4@@#+.#+@@44@@4",
"@@222@24+.OX++++.+@@4@44@+9@@.@@+++..+.+@4$q80@@@@@@..+.++@44@@@",
"@@@@2@$$XX+++2+++++@9@@$@6w$@@@@++......$$$404@@@@@@....+4@@4@@4",
"4$$+@@@@X$@@44++@@@.96$$q84$@@344++.X@@4666944@4066XXXX@@4++@+44",
"44+@@@..X$@@42@@44449844q4$%@@@4w2@@X@@@$49904004@@XX@@@+44+@44+",
"444@+..@$4+$4@@@@@4449644%%$@@@@w4@@@@@@@@$404@@@@XX@@@@$@44@4@@",
"@@++++@@$ww$@@444$@4446449qq3@@@+w@@@4@@@@@@@@XXXXX@@@244++4@@@@",
"@@@@444+$964@444@@@$+422094$@@@4@@@@44@@@@@@@@X@@@XX200684@$@@@4",
"4@@@++44$$66@44@@@..o+++$$@$@@444@@44@@@9688@@X@22@XX@@086@$@@46",
"@X@X.+@@@@4944@@$@@@.X.+++@@@444@.@44@@@4q8qq@@+26@@@X@@499$4666",
"@@@X+@@48844496694@@4$...+$@@@@@@@@4@@4@440q4q@466@@@@994@$49964",
"@4@@@@@@@0020660@XXX22XX.+...@@@@4@@@44@@@494@@900@@2060++@99ww+",
"@4@@@444@@2@002@XX@@X22@.+@@@@@@@4@@444@@@@99+492@@@660224+444$+",
"4@@4@@442@@@2@XXX@@@@@@@.+@@@@@@4%@44@$%@@@@444+@@@@+222+@@+@@$@",
"@@@44@@XX@@@$@X@@22@@@2@+@@44@4@@@@@@@8660@@@@@+@@@@+##..o++@@@@",
"2@@@4@@@#XX@2@@@@@442$9$@44@@@4@84@@@94604$$@@@444$@9@+.@@4@@+@@",
"22@#uuiuiiuuii@@@@@@2$96@4@@@$4$882@94994$@@@...404$98@@494@@44@",
"22iiirriurrriiiq4@$$$$46$@464@@@0992@99$@$444+$X$$4@989#94@@44@@",
"iiiiiii;=iruryuru@498844@464@@@@0292@@$@@94@@@.o$$@@@4q@9@@@@$@@",
"iiiiiii,=iyyrrruuu4$4664$99$@@@@4244@@@@@@+X++X+@@@q@@44+w699$$@",
"iiiiiiii;=rrryrreeuu@404$$$$@@@@@24@@@@@@$XXXXXX+@q86044w69@+$4@",
"iiiiiriiu;rr&&&yy,,-*:++@@@@@@@$24@4@@@994@.XXX+#@@49694ww$++44@",
"iyiiriirrrrreeyy;,;-   +@@@@@@@X@4@44@@@44@@XXX4@#@@@994w+$424++",
"iirrruirrrrrr,,y,,==* *+@XXXXXXX@@@24@@@@44@$.X22@@@@@@@@@@@+$+.",
"iyrrrriurrrrrr;;,-**=&*+XXX@2XXo@@@@44@@@@@@$++@22@@@$@@@@@@++.o",
"irrrrrrrrrrrrr,,,--*=&=+@@@22@X+@@@@X4@4@@@$o$2@@@@09$@@@@+@@@.@",
"yrrrrrrrrrrr,ry,,--*=&=+4@@22XXX@@X@X@@4@@@9.@22@@229@@+4@+44..o",
"rrrryyeerrrr:::;==-&&&*24@@@4@XXX@@XX@@@+9969$02@090@@@44@++2+..",
"rrrrryye,;r;;:*-=---**@24@@@@XX@@4$$XX@44@$964@@9066q@@44@+.+..@",
"rrrrr:eer,;-*---==***o@4@@@@@@@@22XOX@@@...o$@@@@@$$@@@@@@@#@@@@",
"rrrrr;,,;-=--22200$XXXX@@@@@@@2022X@XXXX.4@.@X@@@@@$@@4@@@@@@@@2",
"rrr;ee;,--660@2XXXXXX@X@2220@@6644+.X@@4@44++Xo@@@4@@q4@$X.+@@@2",
"r;yy;;;,@002@@@@$$444@XX@2449@@04+..@@@4@@22+.+@@@9@@8@@$+XX@@@2",
"y;;y;;;@$$$$@@@@$44$@XXX@@@09@@@+4$$4$22@@@@XX@@@496444@$$@@X@@@",
"yy;;::X@$444@@@@44$$@@424@$$X@@@+4$04$4$@@@@.$4w694044406w2@X@@2",
"ey>>@@@X@@@44@@@@@@@@4442@2@@28+@@@64+@+@@@4+@@@469244964@@@.@44",
";;,$@44X@@@@4@@6669@@@@44@@@288@ww46@@@44@$9+24@$4094$94@@@..@4@",
";,$$22@X@64.@$99694@++@+44@@80$@96944869@@@942@@$$244@@@@@..@@@@",
";0$$++XX+662@94994@@22+.@@@@q4$$$464$@$@@@@$44@44@@@@@@@@4@@@@@@",
" @@++XXX+0ww$$40@@$$2XX290q@@$@$$@44+...@@20++w4@$@@++..@44@@@@4",
"  44+oXX+@2w4$00@$$$..0689q@$9666@@$..@@XX+202w$@o@@2++o@@44@@48",
"   44+$@++@44$@@994XXXX@@@@@9664@+++X@@4@.++44+$.+@42+##+#@4@@88",
"   +44@@@@@@@$@49660+@@@444@$$@@@oXXX$@42@.+++$X.@@42+##..@@@482",
"    @@@@X@$$$@@.XXXXXX#22$$$@@@@@4@@@@@@4$@9@@..+++@4@@@@+@4@40@",
"@     @@XXo$....X@$X#X@$$4$$@@@@@44@@49@$$08@@.@+4@@@@4@@@44@2@@",
"4@     @222+.+.+XX@XX@@2+44+@@@@4@44@@494+64@@..@44@@49$@222@@@@",
"@@@    42@@X@+++@XXXX@22@+4@@@4@@@@@@@$69494@$+.@@44@489@2@@XXXX",
"660$$$@@@$$.444+@@X@@@49oo4@@44@64@@44$@922@ww4+.@@4@468$$$$@@@@",
"6900$99669@..@44@@X4@$9+@@@@944@8644$094@4444@+@.@@@@+46$408044@",
"4994@449.@@.o@+44@X44@o+@$$$w9$@qq4@@@6944@4+$+..@@$444949802@@@",
"o49@o49X.$@$oo++@@@49@$$9969$@$@q2@@@@@@42@@+XXX@44968944422@@XX",
"@@<24@XX994@@X@#@@@@00$9664@@+@+@2++..@+@4@@@#@X@$$$@222+X$@...@",
"@060@@@044@4@++0@@@@@@$06@@9w44+%q++...@@@@@#@@@.X$$@@XXXX$+@@4@",
"<q1@@@@@$@@@+.+09@@40684@@9666w+49$+.+.+@@XX.#2@@.X$@XX@4XX+@@4@",
"@@@111@@$11@..+09@46890q@@94ww++$$$++2+.XXX@##22@@XXXX@24+XX@@@.",
"@@<<@@@@@11...@9@@@406002@229$@.+@+X+4++@X2@@@@4@@@.@@224@@X@@@X",
"@@4%@@22@+4..@@$@@@@$@@@XX@@@@..@$+X@44@@@4@@@@@4@@@@@2@@@@X@@XX",
"@@%%@@@4@@++.+4+@@$90$@@@@@@+@.@@@@+o4+4@@44++4@@@@9q@@@@@@@@@X@",
"@@X@o@@4@@+0++44$$449$@@4@@24...+@ooo@@4@@@0.+44@@440@@@4@@44XXX"
};
