/* XPM */
static char *_7983_cbbe2231d54b86d40a34a39965facffb99055f5addac70eccf1a2d5d9e300daf[] = {
/* columns rows colors chars-per-pixel */
"64 64 54 1 ",
"  c #090A14",
". c #1E3616",
"X c #1F3616",
"o c #1E3716",
"O c #1F3716",
"+ c #1E3617",
"@ c #1F3617",
"# c #1E3717",
"$ c #1F3717",
"% c #263A16",
"& c #273A16",
"* c #263B16",
"= c #273B16",
"- c #263A17",
"; c #263B17",
": c #273B17",
"> c #241526",
", c #241527",
"< c #251527",
"1 c #341C27",
"2 c #4D2A32",
"3 c #4C2B32",
"4 c #4D2B32",
"5 c #4D2B33",
"6 c #2D4217",
"7 c #2C4317",
"8 c #2D4317",
"9 c #344C1A",
"0 c #354C1A",
"q c #344D1A",
"w c #354D1A",
"e c #344C1B",
"r c #354C1B",
"t c #344D1B",
"y c #354D1B",
"u c #5E761E",
"i c #5F761E",
"p c #5E761F",
"a c #5F761F",
"s c #5F771F",
"d c #466920",
"f c #476920",
"g c #476821",
"h c #466921",
"j c #476921",
"k c #7A4840",
"l c #7A4940",
"z c #7A4841",
"x c #7B4841",
"c c #7A4941",
"v c #AD7756",
"b c #AD7657",
"n c #AC7757",
"m c #AD7757",
/* pixels */
"X**O@**=%egag*je;tgj*;*te***t*X.$**XX;**=jjah*jt%jjj*;*yt***y*@O",
"****OO*****gat**qtqtt**tt***XXX*%y=%.X*tt**jat**jjaaj**tt=XX%XX*",
"**q*&@.X@*=***********;***XXXX**yqO@X*=**%**%**t***;*****XX*&**;",
"tyr*t***.X**XX;%X****t*%**=XXXtjetX*********t**t=;tyt%*;XX*:***t",
"ht**tt%*=OXXXOXXXX*%*qt*****XjaattXX*ttt*;**a%tt*tt**XXXX**t**=y",
"t%*%*t*tttOoX*XXOO***yy***t**X*jt**XX*%tt**jsqt**t***X.***=tt*%t",
";*qtq:ty*X.X=**XX***t*tt**j**X==%**XXXX**t*jaj******XXXX***tt***",
"****e***XX***t****XXf;***aj=*****%.XX@.X*%*tjt**%***X.XX*q**t**t",
"t**;***;X*%*et***%*Xja**gat;**ttt**XX*=yaiajtt*tfaaXXXX**t**=*te",
"tt;***X.X***et*;ttttjattjt%=***tjt&*X=***tjjjtjjt**XX****yt**ty%",
"ttt*XXX=*t**t;;=**tttfptt*;*****jt*:*;=**%*rjt***OXX******tt*t*%",
"******=**jj*%*ttt;*ttyattfhjt;***j***t*******=XXOXX;**ttt**t*;**",
"%***ttt*=jit*ttt*****ttthjt%***t**;*tt******;*X**%$Xtjjaat*=-**t",
"t**%**tt**aa*tt***XX.*********ttt**ty*=*jaap**@*tt*XX*%jia=***ta",
"*X*.X*****yjtt******X.X****;*tyt*X*tt***tfpjj**Xta**X.*;tjj*taaa",
"***XX**tasyyqjaajt**t*XXXXX**-**:;*t**t*ttgjtj*taa****jje**tjjat",
"*t****%*%jjtjaag*XXXetXXO=XXX=***y***qt***tjt**jdj*;tjsj***jjgh*",
"*t***tty*%t*jjt*XX=*Xyt*X**;**%*;t**ttt&***jj*tjt***aahttt*ttt**",
"t**t**ttt***t*XXX;*;****@*******t**tt=******ytt******qte********",
";**te:%XX*;**@X**et***t*X=*yt*t*******aaaj*************XXX@*;***",
"q**;e*%*XXX*t*=%*;tyt*j=*qy***y*atX*%jtajt:**=*tqt**j*X@**t*****",
"9t****&***.Xft******t*hp*q**=;t*aat*jtjht****XXXtgt*ja**tjt**tq*",
"ty;*ttt*qjtXtt*jt*****ta;=taq***jjje*jj=%*qtt**X**0*faj*jt*-tt**",
"Xt*tet***tjtXXqt**tjastt*tat****jtjt**%**jt***XX****;tjXh***=**=",
"*==*=******qtXXX=tt*tsay*jj**==*tytt****%*OX**X*X%*g**ttXjajj***",
"*j**%%**XXXXX.*XX%***tjt*;*;****;tt;=;**%*XXXXXXX=gaajtejij=**t=",
"8j;tt***ttXXXX*tXX**************et;t***fht*XXXX****tjsjtjj*;*te*",
"****ty**=twt***ttOXX********=**X*y=tt**;tt**XXXy*****jjtj**ttt*X",
"%****t*%XX*****tt****.**XXXXXXXX***tt=***tt**XXtt**********%***X",
"******=XX*******t****.XXXXX*tXXX****tt-****:*=%*tt*********;**X$",
"****X@Xt%tttX*t***%tt*=%;;*tt*X**;**Ot*t****X*t****jj*****&***X*",
"%%XOX*****tjt*tt=*teg***t**ttXXX;*XXX=*t**;jX*et:*ttj%**t**ttXXX",
"X;*X.%%**jjaf%jq=jjj**;tt***t*$O.=%XX****hjaj*jt*jjh***tt*;*t*@X",
"=t;=OX*t**tjat*%jgaaj**tt****X@*%t**XX%yt**jaq**jjaaj**tt*X@*+X*",
"tt*X.X*yt*XX*j*ttaa;XX*t*;*****%ttX.X;**+X.X*********%%******;**",
"et*O****=*Xtytttjj*XXXX*******qjttO*XXXXXt*XX.****=*=*t**X*****t",
"te****t*=*aajXt@XX@XX*X;tttj**aattXXX**9*tt**XX**;t**jy**XX****y",
"y***et***jjy*%***%tyt*XX:tttj**jt*X.**;t**yt*XX*=*j**a****XX***y",
"***ttt****=*%***=yt**XXX***jj****q**t*tt***=XX***qjattt%****O;**",
"******XO*tyt****tt****tttX**XX*%*t*jt=t*****X*qjajtjtttjaft*@**t",
"**t*;@*#***qe********ttty*t*;ta****st**%***t****tajtqtjay***@*tt",
"jtt**ttX;***t**aaaj*;=*te***taa=jjea***ty**j%tt;*tjjt*jt***@X*t*",
"gq**tt*X*atO**jjajt**;XXet**ah**hajttaaj***44444444tq***=*..***=",
"*j**-*XO*aat*jtjjt*%tt%X*%**jt***tst****4444444444444****t**=*;*",
"**;*=XXX*jfj**tj****tXXtjfj*****=*etmmmm45444444444444OX*tt****t",
"a*tt*@X.X*mmmmmmvmmmXOjaajf%*jammmmmbmm43444444zzz454444X*tt**ta",
"*X*tt***XmmmzzzmmzzmmmX****mmvmmmmzmm4m4444444zzz44444444;*t**ai",
"*;*=tt*mzmzzmzm15mmmmmmmttmmmmzzkmzz44444444zzz44zzzz44444***yst",
"*t***=mmmzzzzzm13nmmmmmmmmmmmmmmzzzz444444zzzzzzzzz44444344t*yj*",
"*t*emmzzzzzzzz14mmmmmmmmmmmzzzzmmz44444444zzz44zzzz44444444t*t**",
"y%41144zz<,>zz4mmmzmmmmmmmmnzzzzx4444444444zzz44zz4444z45444****",
"*   1444zzzzzzzzzmmzmmmmzzzmzzzzz4zz444zzzzzzlzzzzzzzz444444XX.X",
"a1 11144z44zxzzzzmmzzzzmmzzzzzzzzzz4444zzzzzzzzzzzzzzzz444445%**",
"u1,1111444zzzzzzmmzzzzmmzzzzzzzzczz344444zzk44zzz443zzzz44444qt*",
"t1,1111444zzzzzzzzzzkzzmzzzzzzzzczcz444z4zzzk34zzzz44444444444**",
"X1,111144zc4zzczzzzzzzzzzzzzzzzzzz4zz44zzzzzzzzzczzz4444444444.@",
";1,,,1114444zzzzzzzzzzzzzzzzxzzzzz444444czkzzzzzzzzzz4444411444*",
"*j11111111444z44xzzczzzzzzzzzzzzzxzz54zzzzzzz4zzzz4zzz544441141*",
"8j8111111111144zzz4zzzzzzzzzzzzzzz44444z44zzz44zzzz4zz444344111*",
"***888***88111144z4zzzzzzckzczzzzzz444444zzzzz44zzz444444114111X",
"%*68:**;*87XXX1144zzz4zzzzzzzzzzzzz4244zxzzzzzzzzzz44444411111*O",
"*%t%**tt**tXX**1445z4zz4zzzzzzzzz4zzz544zzzzxzzzzzzz241141111;.X",
";%=;X**t****X%t**4444z44zz4zzzzzz444z4144zz44z44z4zzz4511411**X=",
"=*XXX**t*;;jX%te**t4244zz44zzz4zzz44441144c44zz4444zzz41111ttXXX"
};
