/* XPM */
static char *_7211_c73ac35a259a7ea2edc0037882860a036e9420696ef5fb5d08cdb6f05bf88e49[] = {
/* columns rows colors chars-per-pixel */
"64 64 57 1 ",
"  c #090A14",
". c #1E3616",
"X c #1F3616",
"o c #1E3716",
"O c #1F3716",
"+ c #1E3617",
"@ c #1F3617",
"# c #1F3717",
"$ c #263A16",
"% c #273A16",
"& c #263B16",
"* c #273B16",
"= c #263A17",
"- c #273A17",
"; c #263B17",
": c #273B17",
"> c #241526",
", c #241427",
"< c #241527",
"1 c #251527",
"2 c #341C26",
"3 c #341C27",
"4 c #351C27",
"5 c #341D27",
"6 c #4D2A32",
"7 c #4C2B32",
"8 c #4D2B32",
"9 c #4D2B33",
"0 c #2D4316",
"q c #2D4217",
"w c #2C4317",
"e c #2D4317",
"r c #344C1A",
"t c #354C1A",
"y c #344D1A",
"u c #354D1A",
"i c #344C1B",
"p c #354C1B",
"a c #344D1B",
"s c #354D1B",
"d c #5F761E",
"f c #5E761F",
"g c #5F761F",
"h c #5F771F",
"j c #476920",
"k c #476821",
"l c #466921",
"z c #476921",
"x c #7A4840",
"c c #7B4840",
"v c #7A4841",
"b c #7B4841",
"n c #7A4941",
"m c #AD7756",
"M c #AD7657",
"N c #AC7757",
"B c #AD7757",
/* pixels */
"X&&XX&&&&ikgz&za&akz&;&aa&&&a&XX@&&OX;&&$zzgl&za&zzz&;&sa&&&s&XX",
"&*&$OX;&&&&kga&&aaaaa&&aa&&&XXX&&s*$.X&aa&&zga&&zzfhz&&aa&XX$XX&",
"&&a&&@.X@$&&&&&&&&&&&$:&&&.XX+&&syX@X&&&&$&&$&&a&&&;&&&&&XX&&&&&",
"aas&a;&&.X*&XX;&X&&&&a&&&&&X.XakaaX&&&&&&&$&a&&a*&aaa&&&X@&&&&*a",
"za$&aa&&;OXOXXXXXX&;&aa&&&$&XzggaaXX&aaa&&;;g%ay$aa&&.XXX&;a&*&a",
"a$&&&a&isaXOX&XXXX&&&sa&&&a&&X&zs;&X@&$aa&&zgaa&&y&&&XX&&&&aa&&a",
"&&aay*aa&X.X*&&XX&&&y&aa&&j&&X&&$&&.XXX$&a&zgz&*&&&&XXXX&&$ra&;$",
"&&&&a&&&X@&&&a&&&&XXz&&&&gz&&&&&&$.XXXXO&&&aza&&$&&&XXXX&a&&y*&a",
"a&&;&=&*X&&&ia&&$&&Xzg;&zga&&&aaa&&XX&&agfgzya&azggXXXX&&a&&&&ai",
"aa&&&&XXX&&*aa&&aaaazgiazy=&&&&ija&&X&&&&szzzajza&&X.&&&&aa*&aa&",
"aaa&XXX*&a&&a;&*&$ayazgaa&&&&&*&za&&&;&&&&&pza&&&XX.&*&&&&aa&a&$",
"&&&&&&&&&jz&%&asa;&aasgaazzza;&&&z&$&s&&&&&&&&XXOXO&&&aas&&a&&&&",
"$;&&yaa;&jda&aaa&&&&;aaalza&&$&a&&&&aa&&&&&&;&X&&&#Xakzgga&&$&$a",
"a&&&&&sa&&gg&ay&$&XX.&&&&&&&$&aia;&aa&*&zggg&&X&aa&XX&$lgg&&&$af",
"&X&XO&&&&&azaa&&&&&&X+O&:&&&&asa&X=aa&&&azgzz&&Xag&&XX&*azz&aggh",
"&&&X@&&aggasazdgzi&&a&XXXXX&$;&&;&$a&&a&aazzaz&agg&&&&zzi&&azzga",
"&a&&&&$&$zlyzgfk&XXXaaXXO:XXX*&&&s;&&si;&&aza&&zjz&;azgk&&&zzzl&",
"%a&&&aas&&a&zza&XX&&Xaa&X&&&&&&&&a&&aia$$*&jz&aza&&&ggzaaa&aaa&&",
"a&&a&&aaa&&&a&XXX&&&&&*&X&&&&&&&a&&as&&&$&&;aaa&&&&;*yai&&&88888",
"&&&aa&&OX&&&&XX&&aa*&&a&X&&ia&a&&&&&&$gghz&&&;&&&&&&&&&O88888888",
"a&&&a&$&OOX&a:&%&&aaa&z&&aNBBBBBBBNB&zahza&&&&&aya&&BBBB88888888",
"ya**&&&&&&XXza&&&&&&a&lf&BBBvvvBBvvBBBlza&&&&XXBBBBBBBB88888888v",
"ap&&aaa*azaXaa&za&*&&&aBnBvvBvB38BBBBBBB&&yBBBBBBBvBB8B8886888vv",
"Xa&iay&&$azyXXaa&&alghBBBvvvvvB38BBBBBBBBBBBBBvvvBvv88888888vvv8",
"&*&&%&&&&$&aaXXX&aa$BBvvvvvvvv38BBBBBBBBBBBBBBBBvvvv888888vvvvvv",
"&z&&&&&&X@XXXX&X#&83388vv<<<vn8BBmvBBBBmBBBvvvvBBv88888888vvv98v",
"ez&aa*&&aa.X@X&aX   3888vvvvxvvvvNBvBBBBvvBBvvvvv8888888888vvv88",
"&&&&as&&&aaa&&&aa3 33388v88vvvxvvBBvvvvBBvbBvvvvv8vv888vvvnvvvbv",
"$&&&&a&&XX&&*&&aa3<3333888vvvvvvBBvvvvBBBvvvxvvvnvv8888xvvvvvvvv",
"&*&&%&*XX&&&&&&&a3<3353888vvvvvvvvvvvvvMvvvvvvvvvvv886888vvv98cv",
"&&&&X@.a%aaaX&a&&3<333388vv8vvvvvvvvvvvBvvvvvvvvvvvv888v8vvvv88v",
"&&XXX:&&$&aza&aa*3<<14338888vvvvvvvvvvvvvvvvvvvvvv7vv88vvvvvvvvv",
"X&&X.$&&&zzgz$zy*z33233333889v88vvvvvvvvvvvvvvvvvv888888vvvvnvvv",
"&a&*XX&a&&azgi&$zkg333333333388vvvvvvvvvvvvvvvvbvvvv88vvvvvvb8vv",
"ai&XXX&aa&X.&z&aagd&XX&y$&&333388v8vvvvvvvvvvvvvcv88888v88vvv88v",
"aa&X&&&&&;Xaaaaazl&.XXX=&&&&&$33888vvvvvvvvvvvvvvvv888888vvvvv88",
"ai&&&&a&&&ggzXaXXXXXO&X&aasz&&g388vv8vvvvvvvvvvvvvv8888vvvvvvvvv",
"a&&$aa&&&zza&&&&&&aaa&X@&saaz&&z8888vv8xvvvvvvvvv8vvn888vvvvvvvv",
"&&:aya&&&&&&&&&&*aa&&XXX&&&zz&&;&888v88vx8vvvvvvv888v8388vv88v88",
"&&$&&&XX&asy$&&&as&&&&aaaX&$XX&*&a8888vv88vvvv8vvv88873388v88vv6",
"&&a&;X&.&&&ai&&&&*&&&aaia&a$&ag%;&&g88vv8vvvvv888v88383388888vv8",
"zaa&&aiX&&&&a&&gggz&&&&aa$&&agg*zzag&88888v88vv888863333388388v8",
"zy&&aa*O&gaX&*zjgza*&&XXia&&gl&&lgzyag8898v888888383333333333888",
"&z&&&&XX&gga&zazza&$aa&X$&&&za&&&aga&&&788888833333333&&;3333333",
"&&;&&XXX&zjz*&ak&&&&aXXazzz&&&&&&&aa;XXX<<888333;&&;&;OX&aa$&:&s",
"g&aa&@X.X&aka&zz&&&&XOzggzz&&kggg&&&XX&   <8833<&X&&a&;@X&aa&*ag",
"&X&aa&&&@&&ia$$&zzsXXXX;&&&&zggt&X&*X$&  19833<<XX&ta&&&X;;a&&gd",
"&&&*aa$&&&&&&&&azggz&&&&aas&&&&&&X.XX&&<<<<33<<OX$&aa&&&oX&&&aha",
"&a&&&*&&+X&$&&&X@OOXXX&ay&&&;&&&&a&&&&><<<<<<&XX&&$&a&&$&X&a&az,",
";a&aaa&&XXX;XXXXX&$OX@&;&a&&&&&&&ai&&<1<<<<g&&X&&a&&&&a&&&aa&<<<",
"s&&jz&&&aaa&X&XXXX&XX&*i&ai&&&&&a;aa&<<<< ga&;XO&aa*&az;*yia<<<<",
"&$&&&&&aa&&o&&&;&XXXO&aa;&a&&&a&&$&&&;    za&&&X&&aa*adz*a&&<<<<",
"ggz&&&%&&&&.aaa&%&X&&&azXXa&$aa&ga&&aa   aa&zzaXX&&a&afg&&&&&$&&",
"gzzj&zldgz&X@&aa:$Xa&&z&&&*&zaa$ggaa&zza*aaaa&&&X&;&$&ag&azgzia&",
"azza&ayzX&&XX;&aa&Xaa&X.;;&&zz&&zja&&&gzaa&a&&&XX&&&aaazazgza$*&",
"XakXXaz@X;&&XX&-&&&az*&&zzgz;*&&za&&&&&&aa&&&XXX&aazggzaaaaa&&X@",
"&*eai;XXzza&$X&&&&&%zz&zgga&&&&&$a*&OX&&&a&&;&&X&&&*&aiiX.&&XXX&",
"&zgz&&&zaa&sXX$z&&&&&$$zg*Xzlas&;z&&XXX&&&*X&&&&XX&&&&XXXX&&&&a&",
"eze;&&&&*&&&;X&zz&$azdga&&zfggz&ak&+X&.X%&OXX&a&&XX&&XX&aXX&&&a&",
"&&&eee&&&ee&XO&zj&ihgzzz&&zazz&X&&&X&a&#XXX&&&aa&&X@XX&aa&XX&&&.",
"&&qe*&&&&0wXX.&z$&;szgjza*suz&&X&&&X&s&&&Xa&&&:p&&&XX&aas&*X&&&O",
"&$a&&&iy&&aXX&&&*$&&*&&&XX&&&&XX&&&X&aa&$$a&&&&&i&&&&&a&&&&X&&XX",
"&$*&@&&a&&&&O$a&&**zz&&*&&$&&&X*&&&XXa&a*&yaX&a&&&&zj&&&&&*&&&X&",
"*&XXX&&a&&&zX$ai&$aaz&&&a&&aa@XX$&XOX*&a&&&zX&aa&$aiz&&&a;&aaXXX"
};
