/* XPM */
static char *_5440_c56545e756ab0b08ed39cd12b9d8c24d687cb32afa4c00c81e3e017abf05858a[] = {
/* columns rows colors chars-per-pixel */
"64 64 121 2 ",
"   c #090A14",
".  c #0E2901",
"X  c #132A03",
"o  c #152A0A",
"O  c #163403",
"+  c #1A3205",
"@  c #1F3804",
"#  c #1B320B",
"$  c #17380D",
"%  c #1F3113",
"&  c #3A2805",
"*  c #35260C",
"=  c #392E0C",
"-  c #233502",
";  c #233D03",
":  c #27310C",
">  c #223A0B",
",  c #353403",
"<  c #222413",
"1  c #382913",
"2  c #253114",
"3  c #223C13",
"4  c #2E3915",
"5  c #29391B",
"6  c #333410",
"7  c #241527",
"8  c #341C27",
"9  c #363423",
"0  c #431508",
"q  c #521F04",
"w  c #561310",
"e  c #432205",
"r  c #492E06",
"t  c #45270B",
"y  c #55240D",
"u  c #40300D",
"i  c #52201F",
"p  c #453414",
"a  c #4A3820",
"s  c #4D2B32",
"d  c #692521",
"f  c #783121",
"g  c #18410E",
"h  c #254005",
"j  c #2C4206",
"k  c #2F4903",
"l  c #27400C",
"z  c #2E4A0C",
"x  c #35500E",
"c  c #2A4114",
"v  c #294A15",
"b  c #2D431C",
"n  c #284B1C",
"m  c #334712",
"M  c #314A15",
"N  c #36431E",
"B  c #344C1F",
"V  c #375114",
"C  c #35511E",
"Z  c #304424",
"A  c #354B24",
"S  c #395224",
"D  c #3D542D",
"F  c #384432",
"G  c #444314",
"H  c #534021",
"J  c #445E22",
"K  c #455D2A",
"L  c #6E4128",
"P  c #436422",
"I  c #4A6321",
"U  c #4A6428",
"Y  c #4D692B",
"T  c #536623",
"R  c #506A28",
"E  c #4B6331",
"W  c #436930",
"Q  c #546B32",
"!  c #506638",
"~  c #536B39",
"^  c #4D783A",
"/  c #557330",
"(  c #5A7331",
")  c #5B7539",
"_  c #676E38",
"`  c #627835",
"'  c #694744",
"]  c #7A4841",
"[  c #7A5750",
"{  c #5C7540",
"}  c #5E7B40",
"|  c #637B43",
" . c #7C6857",
".. c #767071",
"X. c #881B19",
"o. c #992223",
"O. c #96282D",
"+. c #983436",
"@. c #A43F38",
"#. c #914C37",
"$. c #935249",
"%. c #886858",
"&. c #AD7757",
"*. c #A55D61",
"=. c #95696B",
"-. c #877E7C",
";. c #A4666A",
":. c #A9777C",
">. c #D4696E",
",. c #7F8778",
"<. c #88857C",
"1. c #918579",
"2. c #9D7E83",
"3. c #8A8684",
"4. c #958D89",
"5. c #9B9A9B",
"6. c #AC9E9C",
"7. c #BF9F99",
"8. c #B2A39A",
"9. c #AE9FA3",
"0. c #B2A3A5",
/* pixels */
"# + 2 > X % 2 : > V P ^ W @ I G - M Q J ; ; @ M C > # 3 Z 5 * * 0 y t 0 q w e t @ W W ^ W + T k h P P P - - ; A b v > # v c + O ",
"3 l > 2 # $ 3 : : ; h W / V h O S M l S M > O C b : p 9 % 5 <  .%.%. . .%.%.%. .A l 3 ! Q G , j I T / ` Q ; ; N b : # > % O + g ",
"@ > v 3 g $ # $ : > @ 3 > s s s s s s s s $ c + 5 1 0 [  .,.,.,.3.2.,.3.3.<.-.1.<...<.1.=.%.' $.y r h g 3 : 3 3 3 2 o : 4 2 3 3 ",
"A m S 3 n g $ $ > X 3 s s s s s s s s s s s s s 1 i *.;.1.8.4.5.5.5.5.5.4.3.3.<.3.4.2.2.:.:.>.:.#.#.H H p = : + + > : 3 2 3 3 c ",
"W b > - c S @ c 5 3 s s s s s s s s s s s s s s &.&.&.&.8.8.0.8.9.9.0.0.9.9.0.0.9.0.6.7.&.&.&.&.&.&.&.&.&.&.u : + > 3 N # @ 3 A ",
"M > > : z v > m s s s s s s ] L ] s s s s s s s s &.&.&.&.&.&.&.&.=.=.=.=.=.=.=.=.=.&.&.&.] ] &.&.] ] ] &.&.&.y = : 6 G C > @ B ",
"@ c M M v @ G s s s s s s s s ] ] ] s s s s s s s &.s &.&.] &.&.&.&.&.&.&.O.O.+.&.&.&.&.&.&.&.s 8 &.] &.] ] &.] &.y e G S > - @ ",
"> : : ; G & s s s s s ] ] ] ] s s ] ] ] s s s s s s s s $.L &.] ] ] &.&.&.&.&.&.&.&.&.&.&.&.&.s 8 &.] ] ] ] ] &.&.&.f r m ; > M ",
"A # , r y s s s s s s s s ] ] ] ] ] ] ] ] ] s s s s s s ] ] ] ] &.&.&.&.&.&.&.&.&.&.&.&.&.&.&.&.s 8 ] ] ] ] ] ] ] ] &.&.r ; B v ",
"A G e $.@.s s s s s s s s ] ] ] ] s s ] ] ] s s s s s s s s ] &.&.] ] ] ] &.&.&.&.&.&.&.&.] &.&.&.s ] ] 7 7 7 ] ] s s 8 8 s v g ",
"N a L o.s s s s s ] s s s s ] ] s s ] ] ] s s s s s s s s s s ] ] ] ] ] &.&.] ] &.&.&.&.] &.&.] ] ] ] ] ] ] ] ] s s s 8       g ",
"> p d X.s s s s s s ] ] ] ] ] ] ] ] ] ] ] ] ] ] ] s s s ] ] s ] ] ] ] ] &.] ] &.&.] ] ] ] &.&.] ] ] ] ] ] s s ] s s 8 8 8   8 $ ",
"# = e s s s s s s ] ] ] ] ] ] ] ] ] ] ] ] ] ] ] ] s s s s ] ] ] ] ] ] ] ] ] ] &.&.&.] ] ] ] &.&.] ] ] ] ] ] s s s 8 8 8 8 7 8 V ",
"A 6 H s s s s s ] ] ] ] s s s ] ] ] s s ] ] ] s s s s s s ] ] ] ] ] ] ] ] ] ] ] &.] ] ] ] ] ] ] ] ] ] ] ] ] s s s 8 8 8 8 7 8 _ ",
"# # s s s s s s s s s s s ] ] ] ] s s ] ] ] ] s ] s s s ] ] ] ] ] ] ] ] ] ] ] ] &.] ] ] ] ] ] ] ] ] ] ] s ] ] s s 8 8 8 8 7 8 ` ",
"$ > s s s s s s s s s s ] ] ] ] ] ] ] ] ] ] ] ] ] s s ] ] s ] ] ] ] ] ] ] ] ] ] ] ] ] ] ] ] ] ] ] ] ] ] s s s s 8 8 8 7 7 7 8 k ",
"> s s s 8 8 s s s s s ] ] ] ] ] ] ] ] ] ] ] ] ] s s s s s s ] ] ] ] ] ] ] ] ] ] ] ] ] ] ] ] ] ] s s ] s s s 8 8 8 8 8 8 8 8 Y @ ",
"l 8 s 8 8 s s s s s ] ] ] s ] ] ] ] s ] ] ] ] ] ] ] s s ] ] ] ] ] ] ] ] ] ] ] ] ] ] ] ] ] ] ] ] ] s s 8 8 8 8 8 8 8 8 8 8 l ; l ",
"l 8 8 8 s s s s s s ] ] s ] ] ] ] s s ] ] ] s s ] s s s s s ] ] ] ] ] ] ] ] ] ] ] ] ] ] ] s ] s s 8 8 8 8 N B M @ > h O ; > @ > ",
"l 8 8 8 s 8 8 s s s s s s ] ] ] s s ] ] ] ] ] s s s s s s ] ] ] ] ] ] ] ] ] ] ] ] ] ] ] ] s s s 8 8 2 3 # > # @ @ . O l > > $ > ",
"n @ 8 8 8 8 8 s s s s s s ] ] ] ] ] ] ] ] ] ] ] ] s s s s ] ] ] ] ] ] ] ] ] ] ] ] ] ] s ] ] s s 8 A 4 3 ! > O @ > l l l ; # c > ",
"B B l 8 8 8 8 s 8 8 s s ] ] ] L ] ] ] ] ] ] ] ] s s s ] ] ] s ] ] ] ] ] ] ] ] ] ] s ] ] s s s s A K m - K { h ; z K C @ l A A 2 ",
"B B # l 8 8 s 8 8 s s ] ] ] s $.s s ] s s ] ] s s 8 s ] s s s ] ] ] ] ] ] ] s ] ] s s ] s s s % + j m > Q ( U + Y v l @ B N 3 > ",
"+ n > B M 8 8 8 8 s ] ] ] s s s s ] ] s s ] s s 8 8 s s s s ] ] ] s ] ] ] ] s s ] ] s s s s $ O 4 O h h + V U @ Y O ; # @ > 3 3 ",
"@ > @ $ > 8 8 8 8 s s s s s s s s ] ] s s s s s 8 8 s 8 s s ] s s s ] ] ] ] ] s ] ] s s + $ # % O h @ P h ; z V O Y { K ! ; > # ",
"l E l > > - 8 8 8 s s s s s s s s ] s s 8 s s 8 8 8 8 8 s s s s s ] ] s s ] s s s s s $ @ > # # + @ E ) ) Y x h Y | U h - $ S l ",
"4 E > m S + 8 8 8 8 s s 8 s s 8 s s s 8 8 8 8 8 8 8 8 8 8 s 8 s s s s s s ] s s s s > % # % + # l ; h v W Q ! z Y S l h ; m B @ ",
"> l : c A M $   8 8 s 8 8 s s 8 8 8 8 8 8 8 8 > > 3 8 8 8 8 8 8 8 8 s s s s s s s B l > # % # A ; $ + ; c W Q V U z @ C M B > + ",
"; + > > > A >     8 8 8 s s 8 7 F l > > > + > 3 X 2 o + 2 % + + 8 8 8 s s s 7 7 - c B 3 2 # + B C + l - ; @ O > > - - @ > 3 > > ",
"> > 3 c + > 3     7 7 8 8 8 7 > B 3 > > > + X > o > o 3 A @ + # 7 8 8 s s 7       j 3 # c # > > C A > @ > > > ; @ > c > > > # # ",
"2 g # $ $ #         7 7 8 8 8 7 $ + > c A > 4 # 3 2 2 F A 3 o 3 7 7 8 8 s s 7     ; O > @ > b 3 + l O Q E - - > > @ # 3 3 # # 3 ",
"# c $ + + g           7 7 8 8 7 ; > C S K > 3 > A 3 3 A Z # % + c 7 7 8 8 7 7 7 7 > ; Q @ > B B l h l V E ; l + S 3 > A 5 2 2 o ",
"+ g > # @ >           ) 7 7 8 8 7 J Y Q @ h l v b 3 > # A 5 2 # # > # 7 7 7 7 7 7 7 K ) Y @ E V h I I I @ ; ; m b > % 3 A 3 # # ",
"b b 2 > % #         m U ) 7 7 7 7 7 7 ) U @ O B S X m 3 % # + 3 3 B c c O 7 7 7 7 7 7 U ) M l + R I ( ) T @ - B B 3 2 o % % % 3 ",
"b n > # + X         . ; @ U 7 7 7 7 7 7 + O % A 3 3 + > $ ; @ l B B . $ # $   7 7 7 7 O @ @ @ l > - l ; l ; > # 2 % 3 3 c > + > ",
"B Z c # $ l           m M C M 7 7 7 7 7 > # # 5 2 > > ; > ; b J B B # # # @         l # # # g 3 # Z # 3 > + S 2 # > 3 # > > > b ",
"B M > + 3 3 c         { ! O B # + $ @ % # % # v B M c I ; @ ` ) m N 3 + # > >       c c $ # % # 3 3 N 3 > Y m c > # > > 3 3 > m ",
"M > + 3 B b 3 > l ! ! 5 3 3 # 3 $ c A A A 3 # O O B z V T @ @ T v > + + 3 3 3 A 3 c b b 3 # # 5 > # ~ > + | > @ : + X > # > > S ",
"> ; l v S n > > + > > g # l # > l v M @ > + - @ ; > l K U > > > l v @ M b g B B > # $ c # % # 3 - V K Q V m z j ; > > > > > + > ",
"; @ > > > > # + l v N V h # l @ z x > O l l 3 M B + > ; > @ 3 > ; x - W C @ N # l > # l + $ A E { I k Y z k x P Q ! S > X 3 3 A ",
"- > N @ c # > + > ; @ C b @ l @ g O @ l # S B B N # M @ @ M ) @ ; @ ; ) v @ @ > l > ; S + > 3 > z ` I k x x J ` V - > > > 2 Z A ",
"~ m S > O A A + $ l ; @ x @ @ ( ) ( K l $ 3 % A S 3 > @ V ) ( h Y I x ( ; > O M M > # U c l S ; h h R T k @ T M ; > > > # 2 b 3 ",
"W S + 3 A A > @ @ { z @ @ @ Y P / P V l + + $ X c B > ; { E ; @ U / U z m { } Y @ @ l E z S + l > ; B M V @ > > > 3 # o 3 l : > ",
"+ ! # @ % $ O @ l ) ) M h R z Y W V ; - S B > > l - l @ U M - > @ x ) x ; @ > + h @ @ ; C C O v N 3 # @ c > + 3 3 Z 3 > > > + l ",
"@ > l 3 # # + o l K Y E ; g b E > > $ @ M @ O l K R U @ ; ; O ; @ @ C m O > @ @ @ O N Q @ @ ! A c % 3 3 > 3 # 2 # B A 3 ; > @ V ",
"{ c l C v O > + + ; A E l l R U > ; l > + @ Y | ) I U h h I | ~ ) h + $ $ @ o 3 + # g V E M E @ # @ 3 % S 3 2 o # 3 B A ; @ x ) ",
"@ @ > m b > g > + $ @ B S - @ @ P Y c @ - + + # l O l @ T ( ( S @ # b O 3 # 3 A > # O + A C > c > o > b A > m # # > > M ; ; Q ` ",
"> O > > C Z > 3 > c # @ # c > M W ) ) U @ @ c $ B M M ; > > - ; @ > O # % 3 # A B > + @ > O > + - ; ; A B + 2 3 X 3 > > - z ` k ",
"h c ; > O 3 > $ @ # o 3 3 5 % # $ $ + + > O > B M > > l > # l ; > b > > > # g @ M @ h Q > g % # > # > c N 3 3 2 % # 3 B > m U ; ",
"; S ; M S S # # # > 3 3 # # O # # $ c % . + 3 > > m + + c # 3 $ > B n > 3 A E @ h @ U / - + # 3 > B > + > 5 S 3 3 > N B @ m > > ",
"x @ ; E E @ > 3 b b B 3 3 # # $ # # 5 # # g # S # A S > @ 3 # 3 m l A B > + S U x h / C h > # O > S M c > > U ; ; S M C ; > > > ",
"g h @ l h @ @ M A l > O > > 3 $ % % # # # @ S M # 5 v c ; ; S # @ ; ; > @ > > { P x Y h l l > # > 3 m M ; V | J - z @ > - X + # ",
"( ) R @ @ @ l @ > > + # N C B > g # 2 3 5 > v U l @ B O l M C > / V l O S v - @ P x z c U K A # # # c M ; x ( ( h @ ; @ + 3 > 3 ",
") I J Y h U E { { K m O O $ M B 2 > O A + @ E h @ + @ h K C v @ / | l M # E ! m l b z x M l 3 # > > > - ; - k ( @ k R ) E B N 3 ",
"x I Y z h M V K @ # @ ; + l c b B 3 # B C l # + h @ @ l K E l @ R J V z > - ) ! m C l v l + > # o 2 > > z V z T x T T ~ M @ 3 3 ",
"+ x I @ O M U @ @ @ $ l O + # > # > ; M K l + > U Y Q E > @ @ h U z h @ > > > > C M > ; $ # > # # B B ! ) ) U z k V V B @ 3 X 2 ",
"@ @ l M m > + + ! E Z l # + c $ @ v @ @ R E ; Y ) / z @ l h @ ; @ M @ l @ . 3 > $ B c + > 3 > + 3 > 3 > - c S M @ - > > > X # 3 ",
"; E ) U > @ > E B B # b O + > E c X @ ; l @ - Y ) @ + Y U v V @ l E l + # + $ > 3 3 2 O 3 @ 3 # o @ > > 3 3 > + # O 3 > > > b 3 ",
"M K M > ; v + > # b 3 c > + > E K ; l M J ) ~ x h @ R } ~ ) P - b W > X # 3 > # > # # # # 3 A 3 > - o + 3 + o 3 Z X % # 5 3 B # ",
"@ $ > > > c > 3 > $ c + # # c E E h v { | Y P Y @ @ U B R U > @ l c ; + 3 b # > # > > 3 # c b B + > > > # # 5 A D 2 # % 3 3 3 # ",
"3 > 3 c c $ > # 3 c c > O # l E l l @ B K / Q P V > l M E @ $ # c o > $ > C 3 : > + c 3 > > > A - > > + + # S b N 3 2 # 3 # # # ",
"> > b b # > A A > l b $ # + $ @ ; # + M > ; h > O @ > l l @ > o 3 3 c # + C c l > > S # > > > > N ; > > 3 > N 3 > 3 # + 3 > + 2 ",
"3 > # # + > $ b > # c # # @ S ; l - g U K - $ ; h @ @ + % g O > % 3 > O + M v b @ g B b @ > B - c > > U E > > @ > > > > 3 # > 2 ",
"# > @ > # > 3 S l # > U O @ m B > 3 c M ! @ @ > M h > B F # # $ % 5 % # + @ ; B > @ @ ~ O @ B M @ 3 m A E ; > - N - > B C # + # "
};
