/* XPM */
static char *result[] = {
/* columns rows colors chars-per-pixel */
"64 64 56 1 ",
"  c #080A14",
". c #090A14",
"X c #090B14",
"o c #1E3616",
"O c #1F3616",
"+ c #1E3716",
"@ c #1F3716",
"# c #1E3617",
"$ c #1F3617",
"% c #1F3717",
"& c #263A16",
"* c #273A16",
"= c #263B16",
"- c #273B16",
"; c #263A17",
": c #273A17",
"> c #263B17",
", c #273B17",
"< c #241526",
"1 c #241427",
"2 c #241527",
"3 c #251527",
"4 c #341C26",
"5 c #341C27",
"6 c #351C27",
"7 c #341D27",
"8 c #4C2A32",
"9 c #4D2A32",
"0 c #4C2B32",
"q c #4D2B32",
"w c #4D2B33",
"e c #2D4217",
"r c #2C4317",
"t c #2D4317",
"y c #344C1A",
"u c #344D1A",
"i c #354D1A",
"p c #344C1B",
"a c #354C1B",
"s c #344D1B",
"d c #354D1B",
"f c #5F761E",
"g c #5E761F",
"h c #5F761F",
"j c #5E771F",
"k c #5F771F",
"l c #466920",
"z c #476920",
"x c #476821",
"c c #466921",
"v c #476921",
"b c #7A4840",
"n c #7A4940",
"m c #7A4841",
"M c #7B4841",
"N c #7A4941",
/* pixels */
"O=qqqqqqqqqmmmmmmmmmmmmmqqqq0qmmmmmmmmmmmmmmmmmmmmmmqqqq5752225O",
"=qqq55qqqqmmmmmNmmmmmmmqqqqqmmmmmmmmmmmmmmmmmmmmqqmwqw55555555@=",
"=5055qqqqmmmqmmmbqmmmmmmmqqqqqbmmmmmmmbmmmMmmmmmmqq5555555555===",
"s555qqqqqmm0mmmNqwmmmqqmqqqqqmmmmmmmmmNmmmmNmqmqq5555===OO==&==s",
"v555055qqqqqmmmqqmmmmmqqqqqqqmmmNmmmMmmmmmmqmqqq55s==OO@O==s===s",
"s&55555qqqqqmmmmmmmmbmmmqqqmmmqmmmmmmbmmmqmmqqqq5u*==OO====ss==s",
"==s5556q55qmmmmmmmmmmmMqqqqmqqqmmNmNmmqmmqqmqqq=====OOOO===ss===",
"===&55q55qmmmwm9qmqqmmqqq5q9qqmmmqmmMmqqmmqqqq==&===OOOO=s==s=&s",
"s==>=5555nmmqqqqmmqqmqqq5555qqmqqqmmmmmqmm0qss,svhhoOOO==s====sy",
"us===5556qqqqqqqmmqqqqqq55555qqq0Nmqqmqqqqqvvsvcs==OO=->=ss==ds=",
"ssd=OO555qqwqqqqmqqq5q0555545555qqqqqmqqqw=avs===OOo======us=s=&",
"===-===555q85qq7qqq5755sszz55555550qqqqq.X====OOOOO===sss==s====",
"&===ss2555055qq4555555sscvs&=-=d555qqq2X...===O=-&%Osxvhhp-=&&=s",
"s====2455555qq555=OOo=========ss255q22......&=O=ss=OO=&vkh===-sh",
"=O=O225555522..=====OoO-====-sds25qq2==......&=Osh==OO=>svv=shhh",
"===O255222s....hxs-=s=OOOOO=&>==25qq2=s...X..v=shk====vvp==svzks",
"=s=22522&vv....x=OO@ssOO@-OOO-==22q2=ss=......=vzv=>svkv===vvvv>",
"=s=22<2d==s....>OO==Oss=O&=-;==22322ssu&=......vs===hhvuss=sss=>",
"p==2221ss===....O&======O======2222sp>=-==.....======ysp>=======",
"===222=oO===.... ss===s=$==ss=d222====hkhv==....=&=====#OO$=====",
"s===u=&=OO$=s....&sss=c>=sd==&d222O==vdhvs==....ss=-c=OO=>s=====",
"us=====&==$$vs=&====s=cg=s===>d=hhs=vsvvs>===OOOsvs=vk==svy==su=",
"sd==ssd=svsOus=vs===>=sh>-uhs===vcvp=vv-==uss==O==u=vhv=vs=;ss==",
"Os&sus===svsOOsp=-svhkds=shs==>=vsxs===->xs===OO=====svOc==&-==-",
"=-=&-======ssOOO=ss=ukhs=vv=====ssps======OO==O=O&=v==sdOvhcv===",
"=v======OOOOOO&OO===&svs=>=>====>ss>->====OOOOOOO=xhhcssvhv=>=u=",
"tv=ss==>ssOOOO=sOO==-===========ss,s=&*vcs=OoOO====szhvsvv===ss=",
"===-sd===sus===ssOOO===========O=s,ss===ss==OOOd=====vvsv==pss=O",
"&====s==$O=====ss====O-=OOOOOOOO===ss->=&ss==OOps========&-====@",
"=====&-OO=======s====OOOOOO=sOoO====ss;=========ss==========->O@",
"====O$Os=sdpO=s==&=ss==&===ss=O=====Os=s====O=s====vv-=====:==O=",
"==OOO=====svs=ps-=ssv==&s==suOOO==O@O==s===vO=as,=ssv===s==ssOOO",
"O==Oo&===vvhc&vu-vvv==>ss===s=$OO=&O$====vvhv=vs=vcc===ss=>=d=OO",
"=u=-OO=s==svhs=&vxhhv==ss====OO==s==Oo&du==vhp==vvhhv==ss=OO=OO=",
"ss=OOo=ss=OO=v=sshh=OO=s=====-&=ssOoO>==OOoO&=,=&=&===*==>======",
"ss=O===-=-Osssssvv=OOOO=======svsyO=OOOOOs=OOO=-==-===s==O====&s",
"sa====s===ghvOsOOOOOO>O=sdsv==hhss$$O==s=ss==OO=*=s=&vs==OO====u",
"s>==sp===vcs==-===ssu=OO=sssv==vs=OO==>s==ds=OO=->v&=h==-=OO=-=d",
"===sss&>====&==&-ss==OOO===vv>==-s=-s=ss====@O==&uvhsss=====$===",
"======OO=udp==&&sd====sssO=>OO===s&vd=s=>===O=svhvsvspsxhxs=$==s",
"==s=>O=o===sp========psss=s>=sh>==&hs======s====shvsusvhs===$=ss",
"vss==ssO====s==hhhv&===ss===shh-vvsk==-ss==v=ss==svxs=xs--=$O=s=",
"vu-=ss=O-hsO==vvhvs===OOsd==hc;=ckvssghc===vss-=>=ssu=====oo=&=-",
"&v====OO=hhs=csvvs==ss=O====vs===shs======>-us=ps==&*====s==->>=",
"==>-=OOO=vzv>=sv>===sOOsvzv=======ss=OO$O=sv==vs=====>@O=ss====s",
"h=sd=OOoO=uvd=vv==>>O@vhhvv==zhfh===oO=&OO=svsv==o==s=>$O=ss=>sh",
"=O=ss=-=O>=us===vvd@OOO=====vhhd=O>-O==s>OO=ps==OO=ys===O>=s==hf",
"====su=========sxhhz====sss===>==OOOO==us=O===,OO==ss==-oO===uks",
"=s===-==#O=&===O$@OOOO=su>=======s===>==s=>v==OO====d=>==O=s&sv=",
"=d=sss==OOO=OOoOO-&OO$&>=s=>=====sp==sv===vh==O&>s====s&==ss>s==",
"d==zv===sss=@=OOOO=OO==s,ss==&==s=ss==svs-hs==OO=ss&=pv>-uss====",
"=====>&ss==+==&==OOOO=ps>=s===s======>=hxsvs=&=O==ss=shv=s=-oOOO",
"hhv=>=&-===Osss>==O>==svOOs==ss=hs==ss==vps=vvsOO==s=shk=====&==",
"hvvv=vvhhv=OO-ss,=Os==v&==-=vsu&fhsd=vvs=usss===o====-sh=uvhvsp=",
"svvs=ssvO==OO>=ss=Ous&OO>>==vv==vvs===hvss=s=>=OO===sssvpvhvs=&=",
"OsvOOsvO@===OO=====sz===vvhv>===vu======ss===$$O=ssvhjvdssss==O$",
"=-tsp>OOvvs=&O======vv=vhhs======s==OO===u=>=*=O====>spsOO==OOO>",
"=vhv===vss=do@=v>====&&vh=Ovlss==v&=OOO>==-O====OO->==$OOO-==-s=",
"tvt;=====&&=>O=vv=&svkhs==vhhhv=uv>OO=OO&=OOO=s==OO==OO=dOO=>=s=",
"===ttt===tt=O@=vv=shgvxz==vsvv=$==-O=s=OOOo===sd>=O$OO=ss=OO===o",
"==et-====trOOO-v===szhvvs=suz==O===O-s===Os===,s=&=OO=sss>=@=>=@",
"=;s===ss==sO@===========OO====OO===O=ss===u=====p>-==>s&===O==OO",
"=&-=O==s====O&d====vv====&&==>O-===OOs=s==dpO=s====vv====>*==&O=",
"-=OOO==i=-=vO&sp=-ssv===s==ss$OO&=O@O==s&==vO=sp==spz===s>=ssOOO"
};
