/* XPM */
static char *_0982_caeb7084d6559e1ea00b6c32bddde4e73a54958755a221ec3109f60e04501f93[] = {
/* columns rows colors chars-per-pixel */
"64 64 192 2 ",
"   c #020101",
".  c #010A00",
"X  c #090D0D",
"o  c #160202",
"O  c #10110E",
"+  c #131C17",
"@  c #270000",
"#  c #330100",
"$  c #281010",
"%  c #0E2901",
"&  c #132A03",
"*  c #152A0A",
"=  c #163403",
"-  c #1A3205",
";  c #1F3804",
":  c #1B320B",
">  c #17380D",
",  c #1F3113",
"<  c #372505",
"1  c #36260B",
"2  c #392E0C",
"3  c #233502",
"4  c #233C03",
"5  c #27310C",
"6  c #223A0B",
"7  c #353403",
"8  c #222413",
"9  c #22251F",
"0  c #382913",
"q  c #253114",
"w  c #223C13",
"e  c #2D3816",
"r  c #29391B",
"t  c #333410",
"y  c #241527",
"u  c #341C27",
"i  c #312222",
"p  c #302F27",
"a  c #353733",
"s  c #450303",
"d  c #431508",
"f  c #521F04",
"g  c #571314",
"h  c #76151C",
"j  c #462807",
"k  c #40300D",
"l  c #4E2314",
"z  c #53201F",
"x  c #443414",
"c  c #663319",
"v  c #691822",
"b  c #4A3820",
"n  c #533925",
"m  c #4D2B32",
"M  c #4A3335",
"N  c #692521",
"B  c #7A2322",
"V  c #7E2A2E",
"C  c #673424",
"Z  c #783121",
"A  c #7B382C",
"S  c #18410E",
"D  c #254005",
"F  c #2C4206",
"G  c #2F4903",
"H  c #27400C",
"J  c #2E4A0C",
"K  c #35500E",
"L  c #2A4214",
"P  c #294A15",
"I  c #2D431C",
"U  c #284B1C",
"Y  c #334712",
"T  c #314A15",
"R  c #36431E",
"E  c #354C1F",
"W  c #375114",
"Q  c #35511E",
"!  c #304424",
"~  c #364B24",
"^  c #395224",
"/  c #3D542D",
"(  c #384432",
")  c #444314",
"_  c #434520",
"`  c #534021",
"'  c #445D22",
"]  c #455E2B",
"[  c #55522A",
"{  c #444238",
"}  c #6E4128",
"|  c #436422",
" . c #4A6321",
".. c #4A6428",
"X. c #4D692B",
"o. c #536623",
"O. c #506A28",
"+. c #4B6331",
"@. c #436930",
"#. c #546B32",
"$. c #506638",
"%. c #536A3B",
"&. c #4D783A",
"*. c #557330",
"=. c #5A7331",
"-. c #5B7539",
";. c #676F38",
":. c #627835",
">. c #3D3A40",
",. c #454546",
"<. c #574445",
"1. c #585244",
"2. c #4D4F50",
"3. c #565555",
"4. c #724B46",
"5. c #665554",
"6. c #5C7540",
"7. c #5E7B40",
"8. c #637B43",
"9. c #7C6857",
"0. c #5D5C61",
"q. c #695E63",
"w. c #6C6668",
"e. c #767070",
"r. c #881B19",
"t. c #9D1522",
"y. c #AB1720",
"u. c #A41E25",
"i. c #AA1A26",
"p. c #B31729",
"a. c #B31C28",
"s. c #B41F30",
"d. c #892724",
"f. c #8C2925",
"g. c #88252E",
"h. c #992223",
"j. c #9B2129",
"k. c #96282D",
"l. c #873024",
"z. c #9C332A",
"x. c #992532",
"c. c #883331",
"v. c #983436",
"b. c #A82224",
"n. c #AC2A2D",
"m. c #A52130",
"M. c #B52730",
"N. c #BB2435",
"B. c #A83337",
"V. c #A53F38",
"C. c #B53235",
"Z. c #BE353B",
"A. c #C52435",
"S. c #CA3336",
"D. c #C43539",
"F. c #CE3039",
"G. c #D1383D",
"H. c #914C37",
"J. c #993544",
"K. c #AB2D42",
"L. c #B93541",
"P. c #C73541",
"I. c #935249",
"U. c #9A5B5D",
"Y. c #B5494B",
"T. c #886858",
"R. c #9A645C",
"E. c #A7635B",
"W. c #AD7757",
"Q. c #A55D61",
"!. c #996667",
"~. c #95696B",
"^. c #8E7B74",
"/. c #A86F73",
"(. c #C94547",
"). c #D74C55",
"_. c #E35D61",
"`. c #D4696E",
"'. c #E66568",
"]. c #7F8778",
"[. c #88857C",
"{. c #918579",
"}. c #9D7E83",
"|. c #8A8684",
" X c #958D89",
".X c #9B9A9B",
"XX c #B99E9A",
"oX c #B2A39A",
"OX c #AE9FA3",
"+X c #B2A3A5",
"@X c #D69E9F",
"#X c #DDB7B9",
/* pixels */
": - q 6 & w q 5 6 W | &.@.;  .) 3 P #.' 4 4 ; T Q 6 : w ! r 1 1 d l j < f g d j 4 @.@.&.@.; O.G D | | | 3 4 3 ^ I L 6 > P > : > ",
"w H H q : > w 5 5 4 4 +.*.W D = ^ T 6 ^ Y e = ^ I 5 x p , w 8 9.T.T.9.9.T.T.T.9.~ w w $.#.) 7 F  .o.*.:.#.3 ; I I 5 : : H = - D ",
"; 6 L w S > : : 5 6 6 6 H > ; H > w S L = > S - r 0 d 9.9.].].[.|.}.[.[.|.[.^.{.[.e.[.{.~.T.4.I.f j D D 6 5 w e w , * 5 e e w w ",
"^ T Q w U S > > 6 & w : : , I > : w > : P E H e 0 z Q.Q.{.oX X.X.X.X.X.X X|.|.|.|. X}.}./.}.`./.I.H.` ` b 2 6 : - 6 5 e q w w L ",
"@.I 6 3 L ^ 6 S w : > > > & * * , : > w = Q Y 2 ^.!.U.!.XXoXoXoXOXOX+X+XOXOXOX+XOX+XoXXX#X#X#X@X/.Y.J.g.g.g k 5 - 6 w R : ; w E ",
"T ; 6 5 J P 6 Y x ` < 1 0 x 0 i < 2 2 2 2 x C E.E.I.V c.U.U.R.!.~.~.~.~.~.~.~.~.!.~.!.!./.~.Q./.g.z.m.i.u.d.Z f 2 5 t ) E > 4 E ",
": L T T P 4 ) c h B.B.B.v.H.v.v.v.V.Y.L.V.Y.V.D.b.h.t.h.f.g.x.x.g.c.c.g.v.k.k.v.v.v.x.x.B.B.m.L.B.K.N.D.s.n.n.z.Z f j ) ^ 6 3 6 ",
"6 5 5 4 ) < H.V.C.D.P.P.Y.`.`._.'.).D.D.S.D.S.F.A.D.M.C.B.C.F.D.C.V.B.C.Z.M.(.'.'.'.)._.).L.L.`.L.L.P.P.L.N.P.N.C.z.Z j Y 4 6 T ",
"~ - 7 j f H.C.P.G.C.k.V A c.v.(.P.).F.F.A.S.S.S.S.D.D.Z.L.D.F.F.D.D.Z.Z.D.D.D.(.(.(.V.G.P.L.L.Y.x.B B l.h.L.P.F.S.C.h.c.j 4 Q P ",
"~ _ j I.V.C.P.N.t.d.s o @ @ N c.K.N.A.A.A.S.G.S.D.D.L.D.D.D.F.F.D.N.M.i.p.p.p.i.h.b.b.b.M.L.`.J.g # o o N d.K.D.S.(.(.f.j Q P S ",
"! x } h.S.F.L.x.v d l M i   4.z h x.a.A.i.i.i.y.i.h.u.u.j.u.u.y.p.u.b.i.u.i.i.i.b.t.y.i.i.x.d.g 0 o { $ n # h L.P.A.K.c.j R > S ",
"e x N r.s.N.m.v # ,.  >.>.+   M # V t.K.a.i.y.b.b.b.u.u.u.u.u.b.y.i.i.m.b.i.y.y.t.b.i.b.x.J.@ { o O 1.i 8 5.s v.L.L.m.c.2 6 H > ",
": 2 j g x.k.k.g p >.+ 2.>.2.y m $ N x.N.s.p.i.y.u.b.p.p.p.y.y.i.i.p.M.M.s.p.p.a.M.a.a.M.n.N $ i O u 3.3.y 5.z N K.B.v.} 2 4 t W ",
"^ t n # h x.V g <.y ,.3.e.e.3.M { # k.y.s.M.N.n.n.n.s.N.A.N.M.M.M.M.M.M.s.s.N.M.y.M.n.n.x.@ 5.9 M w.q.w.3.i <.g g.k.Z f 7 4 7 ;.",
": : 8 d h x.g.g <.,.2.w.5.q.<.<.n # B h.m.m.n.M.n.n.M.M.a.M.n.n.n.n.b.i.i.i.u.u.b.b.r.h.V @ 3.,.2.w.0.w.4.m 5.1 N C n 7 K =.:.:.",
"> 4 5 < Z v c.# p a O <.<.5.9 9 8 n N B Z B l.f.l.f.f.f.f.f.l.l.Z l.f.f.f.f.l.Z l.l.l.Z l 9.9 9 O 9 3.3.0 { i [ n k 7 )  . .:.G ",
"; ~ H 5 1 k k i * { X a a   . {   q 1 1 b ` 1 1 < 2 1 < 1 1 k j x b < x 2 ` x 2 < x ) [ ) 5 . (   + ,.+ 8 1.  6.q 5 3 X.X.X.X.; ",
"H L 3 6 H ~ ~ ) r + 8 ( a   2.a q * w L : w Q : w : q , w q 6 w : E 6 6 J T L ; 3 4 3 #.+.w ! ( a O ,.+ { . %.r ~ L H T T H 4 H ",
"H H H T H 6 w ( ~ p . q 8 + q 9 : , H = : 6 6 6 = 6 5 w : L 6 ; E 4 6 Y Q 3 L D D 4 H w r ~ ~ , X 9 9 9 r R E T ; H 4 - 4 H 6 6 ",
"H H ; ~ T w w w : : I q I q , , r I ~ 6 H ; T 4 3 6 L E L e H w 4 3 4 6 6 4 #.-.#.O.6 6 w 5 6 w r q q w : 6 : ; ; % = S 6 : 6 6 ",
"P > 6 w R H w - - : & : E : P L L : ~ T T 3 X.3 4 T P 4 6 - ^ 4 -.W 3 = : %.H 6.#.T ; ; L : 6 ~ R ~ e w #.6 = 4 6 H H H 4 : L 6 ",
"T E H 6 : > D 6 w 6 6 4 +.Y 6 - 6 6 ; 3 W ; ..=.; W 3 H 4 6 ~ 3 -.O.W D ] W #.X.Y ; 6 ; S - w - ~ ] Y 3 ] 6.4 4 J ] Q ; 6 ~ ~ , ",
"~ Q : H P Q P 6 P ..^ % ^ T > %.I w - 4 D ; W #.; D T %.~ P ; 6 ..O.| K ; ..$.4 L = W P T H = , - F Y 6 #.=...= X.P 6 6 E R w W.",
"; U 6 E T ^ 4 : = Q ] ^ = = T L 6 6 Y #.-.-.J W 3 Y 6.W 5 - w - X.Y X.J D ; H : ; $.T H ; - w = e = D D - T ..4 X.= 4 ; ; 6 W.W.",
"6 6 4 6 6 6 3 6 4 6 6 E ~ = = : L ! L H F -.-.Y 3 X.] I 6 - 6 6 P W J J 4 4 6 w : w : 4 - w : , = 4 ; | D ; J W = X.6.+.W.W.4.4.",
"6 ] 6 6 6 4 6 6 ; 6 = - : 6 ; : & 6 Y 6 6 W ] W 4 H 6 ; w w w 5 4 L Q D ; H ; w I : - - > ; : : - ; X.-.-.X.W 4 X.7.m u u m m 4.",
"e +.6 W ~ - L 6 E P 6 & : & 6 ~ : - 6 - 6 ; H ; 6 - : w w : w 6 ' F - ~ w > : $.] ~ 6 q : , - : 6 6 D P @.#.%.J X.X X X u m m m ",
"6 H 5 e ^ T : 6 6 ~ ~ R L H , E ! : - - 6 5 6 6 6 w w w : q : 6 = W 6 / I I w : Q E S 6 : w : R ; D = D L @.X.W +.u X u u u m m ",
"4 - w 6 6 ~ 6 : : 6 w : 6 6 L I ~ 6 6 6 6 - 6 w & e : * , , - & 6 : 5 I ~ * 6 6 3 L E w q : - E ^ = ; 3 4 ; = H 5 u y u u u u m ",
"6 6 6 L - 6 w 6 - : 6 w 6 6 6 6 E e 6 6 6 - & : : : * w ~ ; - : 6 6 w w ~ E 6 6 6 H w : L : 6 6 Q E 6 > : H H ; 5 u y u u u u m ",
"w w : > > : 6 I 6 E Q P : 6 T 6 6 - 6 L ~ 6 6 5 w q w ( ~ w = w 6 6 6 6 - ~ 6 T 6 4 - 6 ; 6 R w ; 6 > =.X.3 4 6 5 u y u u u u m ",
": w > = = w = S 3 > T X.E 3 T T 4 4 ^ E ] 6 L 6 ~ w q ! ! : , : w q 6 - - 6 6 ~ ; H 4 O.- 6 E E 6 F 6 W +.3 H - E u y y y u u u ",
"- w 6 > > : 6 6 D ..X.-...4 X.J D ' X.O.; D D P L w 6 : ~ r q > : 6 : : : ; 6 : D X.] -.X.: $.W 4  . . .4 3 4 Y I 6 u u u u u u ",
"I I w : 5 : w E ; D T ..-.J ; D O.X.#.-...; ; E ~ & T w , : = e w E L L = : > ~ T H 4 ..-.T H = X. .=.-.o.- 4 E E w q u u u u u ",
"I P 6 : = = 6 T T H % 4 ; X.6 T G *.=.D > = , ~ e w : 6 > 4 4 6 E R % > * 6 6 6 - - = = 4 ; ; H 6 3 H ; H 4 6 6 q , w w L 6 - 6 ",
"E ~ L : : w w 6 ; ; 4 Y P E T P X.| 6 = 6 : : r w ; 6 3 4 H L ' E E : : : 6 - 6 - E H - - : w 6 : E : w 6 - ~ , : 6 w : : ; 6 R ",
"E T ; : w e H L w w 6.6.+.= U : = > - q : w : e ~ T P  .4 - :.-.T R w - : : 6 ~ > E L L , : , = w w R w 6 X.Y L 6 6 6 6 L w : T ",
"Y : = L E R S 6 H +.$.r e w : L > L ~ ~ ~ w : = = E J W o.3 4 o.T 6 - = w H L ~ w e I I , : > I 6 : %.6 - 8.6 4 6 - & : : H 6 ^ ",
"6 4 > T ~ U 6 6 = 6 6 S : H : 6 ; P P 4 4 - 3 - D 6 6 ] +.6 6 6 H P - T L D E E 6 6 w L > : : , ; W ] #.W J J F 3 6 6 6 6 6 ; 6 ",
"4 4 6 6 6 6 > - 6 T R W D ; H ; P K H = S H L Q E - 6 3 6 - w 6 ; K 3 @.^ : I > 6 6 > S - 6 ~ $.6.' G O.Y G K ' #.%.~ 6 & w w ~ ",
"3 H I 6 w : 6 - 6 ; ; ^ L S H ; D = ; H : ^ ~ E R ; P 6 ; P -.4 4 ; ; -.P : 4 6 H 6 4 Q - H w 6 J :. .G K K ' :.W 3 6 6 6 q ~ ~ ",
"$.T ^ 6 = ~ E - : H D ; K 4 ; =.-.-.] H 6 > , ~ ~ w 6 4 W -.=.4 O. .K =.4 4 = T T 6 ; +.H H ^ ; F 4 O.o.G - O.T 6 6 6 : : w I w ",
"+.^ = L ~ ~ 6 - ; 6.J ; - ; O.] *.| W H - ; > - L E 6 4 6...6 4 ..*...J T 6.7.X.4 ; H +.J ^ - H 6 3 E T W 4 6 6 6 w : * w 6 5 6 ",
"= $.: - 6 > = 6 D -.6.T D O.J X.@.W ; 4 ^ E 6 : H 3 H 3 ..T 3 6 ; K -.K D 4 : - 6 ; ; ; Q Q - P I H - 6 w 6 - w w R w 6 6 6 - H ",
"; : H w : : - & H ] X.+.; D I X.> 6 : H T 4 = H ] O...4 4 D = 4 ; ; Q T = 6 - 4 ; = L #.; ; $.^ I , w w 6 w : q : E ~ w 4 6 3 W ",
"7.L H Q L = 6 : = ; ~ +.H 6 O.X.H ; H ; = - X.8.-. ...4 4  .8.#.-.D - H w - * w - - L W +.U +.: > 6 w q ~ w w : : w E E 6 ; K -.",
"; ; ; E ! ; L 6 - ; 6 E ^ 3 - 4 | O.L 3 3 - = : H = H ; O.=.=.^ > = I & > : w E 6 : = - ~ E 6 H 6 - : L Q 6 L : : : H Y 4 D #.:.",
"H = : D ^ Q : , 6 L : > : L 6 P @.-.-...6 6 > 6 E Y P 4 6 H 3 4 4 6 = : q w : ~ E 6 - ; 6 ; 6 - 3 4 4 ~ ~ - q H & e 6 6 - J :.G ",
"D L D D = w 6 w - : : S w I , : : > = - 6 - 6 E T 6 6 H 6 : H 6 6 I 6 w ; - w 3 T ; H O.; w , : 6 ; : I R w w , , : w E 6 Y +.4 ",
"; ^ 4 U ~ ^ : > : 6 , w * : : : > , w w & & e 6 6 T - - w 6 w 6 6 E U ; w ~ +.4 D ; ..*.; - : w 6 R 6 - 6 w ~ L w 6 I E 4 Y 6 6 ",
"K ; 4 +...; H > I I E w w > : : : : r : : H > ~ : E ^ D ; > : w Y H E E 6 = Q +.K D *.Q D 6 * > 6 ~ T L 5 H X.3 4 ^ T E 4 6 6 6 ",
"; D ; H H ; 6 T E H 6 = 6 6 w > w : : * - > Q T : I I S 6 4 ^ : ; 4 D 6 : H S 6.| K X.D H H 6 : 6 w T T 4 W 8.' 3 J ; H 3 & - - ",
"-.-.X.; ; ; 6 4 6 6 - : R E E > , > q w L : P +.H - ~ = H Y E D *.W 6 ; ^ T ; 3 ..K J P ..] ~ 6 : : L T 4 K =.=.D ; 4 4 5 > w e ",
"-. .' ..D ..+.-.6.] T = = 6 Y E w 6 = ~ ; 6 +.4 4 - 4 D ] Q P ; *.8.H T = +.$.T H L J K T 6 S : 6 6 6 3 D - G =.; G O.6...E I H ",
"K ..O.J D T W ] - ; ; ; ; 6 H I E w : E E 6 : = 4 ; ; 6 ] +.6 ; X.' W J H 4 6.$.Y E H P 6 ; 6 - * w 5 6 J W J o.K o.o.#.T : w w ",
"= K  .; = T X.; ; ; 6 6 - > : H : H 4 T ] H = H ..X.%.X.6 4 ; D ..J D ; : 6 6 6 Q T 6 3 6 : 6 > : E Q $.-.-...J G W W T 6 w & , ",
"- 4 H T T 6 = > $.+.E > : ; w 6 ; P 3 ; #.+.4 X.-.*.J ; H 4 ; D ; T ; H ; % > e w ~ L - 6 w : > w : w 6 4 L E T ; 3 6 H 6 & : w ",
"D +.-...H - H +.E ~ : I - - 6 +.w = ; 4 D > 3 X.-.; = X...T W - H +.H ; : - 6 > S H , = w 6 L ; * ; 6 H w w 6 - : = w : 6 6 I w ",
"Y ] T 6 ; P = ; : L w I 6 = : +.] ; H T ' -.#.K D ; O.8.#.-.] 4 L @.6 & : w 6 : 6 : : : : w E , 6 4 - - w - * w I * , : w e E : ",
"> ; 6 6 6 L : L 6 > L - : : L $.+.F P -.:.#.| X.; ; ..P #...6 - H L 6 - w I : 6 : : w > : e I E ; 6 : : 5 : r ~ / q : , w w w : ",
"w 6 w L L : ; , > L I 6 = - H +.H H > E ] *.#.| W H H P +.4 6 : > : 6 : 6 E w 6 6 - L L 6 6 6 ~ 4 6 6 - = : ~ I R w , : w : : : ",
"6 6 I L : H ~ ~ w H L : : - ; 6 ; ; - T ; ; D D = ; 6 H H > : - w w L : - Q L H 6 ; ^ : 6 6 6 6 R 4 6 6 e 6 ~ w : w 6 - e > - q ",
"w 6 : : - : w I 6 6 w ; = D ^ - H : 6 ..] 6 6 ; 4 4 - - , S = , w w 6 - = T T P 4 6 E R 3 6 E 4 L 6 6 ] ..6 6 ; 6 5 6 6 w : 6 q ",
": 6 ; 6 : 6 6 ~ H : 6 +.= ; T ~ ; L L T $.; 6 6 T D 6 E ( : : : w r , : - 6 3 E S ; ; %.- - E T - w Y ~ +.4 6 4 E 3 6 R Q > - 6 "
};
