/* XPM */
static char *_3907_f2f3d1f941f101493ca437bcd8c883049ac4ff616bc6fd37e40862d0c79193f6[] = {
/* columns rows colors chars-per-pixel */
"64 64 53 1 ",
"  c #090A14",
". c #1E3616",
"X c #1F3616",
"o c #1E3716",
"O c #1F3716",
"+ c #1E3617",
"@ c #1F3617",
"# c #1F3717",
"$ c #263A16",
"% c #273A16",
"& c #263B16",
"* c #273B16",
"= c #263A17",
"- c #263B17",
"; c #273B17",
": c #241527",
"> c #341C27",
", c #351C27",
"< c #341D27",
"1 c #4D2A32",
"2 c #4C2B32",
"3 c #4D2B32",
"4 c #4D2B33",
"5 c #2D4217",
"6 c #2C4317",
"7 c #2D4317",
"8 c #344C1A",
"9 c #344D1A",
"0 c #354D1A",
"q c #344C1B",
"w c #354C1B",
"e c #344D1B",
"r c #354D1B",
"t c #5F761E",
"y c #5F771E",
"u c #5E761F",
"i c #5F761F",
"p c #5E771F",
"a c #5F771F",
"s c #466820",
"d c #466920",
"f c #476920",
"g c #466821",
"h c #476821",
"j c #466921",
"k c #476921",
"l c #7A4840",
"z c #7A4841",
"x c #7B4841",
"c c #7A4941",
"v c #AD7756",
"b c #AC7757",
"n c #AD7757",
/* pixels */
"X$&XX-&$&qsik&ke*ehk*-&ee&&&e&XX@&&XO=&&&hkij&ke&kkk&-&re&&&r-XX",
"&*&=OX&&&*$hie&&eeqee&&ee&&&XXX&&r*$.X$ee&&kie&&khiik&&ee&XO$XX&",
"&&e&&@oX@&&&&&&&&&-*&--&&&XXXX&&reX@X&&&&$&&$&&r&&&-&&&&&XX&*&&&",
"rer&e&&&..-&X@=&X&&&&e&&&$&XXXejeeX&&&&&*&$&e&&e;&eee&&*XX&-&&&e",
"ke&&ee&&-XXXXXXXXX&$&ee&&&&&Xhii9eXX$ere&&&&i$ee&ee&&XXXX&&e&&&e",
"e$&&&e&qeeXOX&XXXX*&&re&&&e*&X&ke&-XX&$eq&&huee&&e&&&XX&&$$ee&&e",
"&&ee9*ee&O.X*&&XX&&*e&ee&&j&$X&&$&&XXXX&&e&kik&&&&&&XXXX&&&ee&&&",
"&&&&e$&&.X&&&e&-&&XXk&&&&if*&&&&&$XXXXXX&&&eke&&$-&&XXOX&e&&e&&e",
"q&&-%&&&X&&&qe&&$&&Xki&&kie&&&ree&&XX&&riiikee&ekatXXX@&&e$&&&eq",
"qe-&&&OX@&--ee&&eeeekueekr$*&&&eke&&X&&&&ekkkekjr&&XX-&&$ee&&ee$",
"eee-XXX&&e&&9-&*&&ee9kiee&&-&&&&ke&&--&&&&&wke&&&XXX*&&&&&ee-r&$",
"&&&&&&&&&kk&$&ee9-&eerteekkk9-&&&k&&&e&&&&$&&&XXXXO&&-eee&&e&&&&",
"$-$&eee&&kte&eee&&&&&eeejke*&&&e&&&&ee&&&$&&-&X&&&#@ejkite&&$&&e",
"e&&&&&ee&-ii&ee&&&XX.&&&&&&&&&eee&&ee&*-fiit&&.&ee&XX&$kii&&&&ei",
"-X&XX-&&&&ekee&$&&&&X.X&&&&&&er9-O&ee&&&ektkk&&Xei&&XO*&ekk&eiii",
"&&*OX&&eiierekiike&&e&XXXXX&&--&-&&q&&e&eekkef&eii&&-&kkq&&ekkte",
"*r*&&&$&$hkekiih&XXXeeXXO*XXX*&&&r&&$ee&&&eke&&kdk&&ekik&&&kfkk&",
"&e&&-eer&&e&kkr&XX&&Xee&X&&&&&&&&e=&ree$&&&kk$eke&&&aik9ee&eqe&&",
"q&&e*&eee&&&e&XXX&*$&&$&X&&&&&*&r&&ee&&&&&&&eee&&&&&&9eq&&&&&&&&",
"&&&ee&&XX&&-&XX&&ee&&&e&X&&re&e&&&&*&&iiik&&&&-&&&&&&&&XXXX&&&&;",
"e&&&e&$&XXX&e&&&&&eee&k&&er&&*r&ieX&&keihe&&&&&eee&&k&XX&&e&&&&&",
"9e&&&&&&$&XXke&&&&&&e*jp&e&&&=e&iie&kekke%&&&XXXeke&ki$&ek9&&e9&",
"er&*eee&rkqXee&kr&&&&&ei-*eie&&&hjkq&kk*&&9ee&&X&&e&jtk&ke&=ee&&",
"Xe&eee&&&ekeXXee&&ekiaee&9iq&&&&keke$&&&&ke&&&XX&&$&&efXj&&&*&&*",
"&*&&;&&&&&&e9OXX&ee&eaie&kk&&&&&eeqe&&&&$&XX&&X&X$&k&&eeOkikk&&&",
"*k$&&&&&X.XXXX-XX&&-&eke&-&=&&&&-ee&*-&&&&XXXXXXX&hiikeekik&&&e&",
"5k&ee&&&qeXXXX&eXX&&&&&&&*&&&&&-ee-e&&&kje&XXXX&&*&ekikekk&&&eq-",
"&&&&rr&&&eee&&&9e@XX&&&-$&&&&*$X&e*ee&-&ee%-XXXr$&&&-kkej&&eee*X",
"&&&&&e&&XX*&&&&ee&&&&X$&XXXXXXX@&&&9e*&&&ee&&XXee&&&&&&&&&&&&&&X",
"*-&&&&*XX&&&&&&&e&&&&O..@XX&eXXX&&&&ee=&&&$&-%&&ee&&&&&&&&&$&&X#",
"&&&&X@Xe&eeeX&e*&&&r9&&$&&&ee&X&&&&&#e&e&&&&X$e&&&&kk&&&&&&$*&X&",
"&&XXX&&&&&eke&ee*&eek&&&e&&8eXXX&&XXX&*e%&&kX&qe;$eek&&&e&&erXXX",
".*-X.%&&&kkik$k9*khk&&-ee$&&e&@XX&$XX&&&&kkik&ke&khj&&&ee&-&e&XX",
"&e&*XX&e&$ekie&$khiik&*qe&&$&XX&*e&&XX$9e&&kie&&kkiik&&ee&XX&XX&",
"ee&XXX&e9&XX&f-eqii&XX&e&&&&-&&&reX.X-&&X@.X&&&&&&&&-$&&&&&&&&&&",
"ee&X*&&&&&Xeeeeekk&XXXX&&&$&&&ekee@&XXX@@e&XXX&-&&*&&&e&&.&&&&-e",
"9q=&&&e&&$iakXe.XXXXX&X&erek&&iterXXX&*r&ee&$XX&&&e&&kr&*XX*-&&e",
"e$&&ee&*&kke&&&&&&eee&@X&eeqk&&ke&XX&&-e&&re&XX&*&k&&i&&&&XX&&&r",
"&&&eee&&&&&&&*&&*ee&&XOX&&&kk&&&&e&&e&ee&&&*@X&&&9kieqe&&&&&X&&&",
"&&$&&&X.&ere&&&*ee&&&*eeeX&&.X&&&9&ke&e&&-&&X&ejikekeeekike&@&&q",
"&-e&-X&.&&&eq&=&&&&&&eqee&e&&ei&&&&ue&&&&&&e&&&&eikq9ekie&&;@&ee",
"kee&&eeX*-&&e&&iiuk&&&&ee&&&eii*kkei&$&ee&&k&ee&&9kke&ke&&&@X&e&",
"k9$&ee&X&ieX&&kkike&&&XXee&&ij&&jikeeiik&&&kee;&&&ee9&&&&&..&&-*",
"&g$&&$X.&iie&kekke-=ee&X&&-&ke&&&eie&&&&&&-&ee&ee&&&&&&&&q&&*&-&",
"&&;&&X@X&kfk&&ek&&&&eXXekkk&-&&&&=ee&XXXX&ef&&ke&&&&&-OX&ee&&&&e",
"t&ee&XX.X&ekq&kf-&&&XOkiikk&&kiti&-&XX&=XX&qkek-&X&$e$-@@&re&&ei",
"*X&ee&&&X&&ee&&&kkrXXXX&&$&&kiie&X&*X&&e&XX$qe&&XX&8e&-&X-&e&&it",
"&&&&ee&&&**&&&&ekiik&&&&eee&&&&&&OXXO&&ee&X&&$&XX&&ee&&&oX&$&eae",
"$e&&&*&-+X&$*&&X@OXXXX&e9&&&&&&&&e&&&&&&e&-k-&XX&&&&e&&&&X-e&ek&",
"&e&eqe&&@XX&XXXXX&$X@@&-&e*&&&&&&eq&&ek&&&ki&&X*&e&-&&r&&&ee$e&$",
"r&&fk-&&eee&X&XXXX&XX&&e&ee&&&&&e&eq&&9ke&iq&-XX&ee&&ek-*eee&&&&",
"&&&&&&&ee*&o&33333333329-&e*&&e&-&&&&-&ikeke&&&X&&ee-eih&e&&OXXX",
"tik&&&=&&&&1333332333333nnnn&ee&ie&&0e&&kee&kkeXX&-e&eii&&&&&$&&",
"ijkk&kkuik333333333334333nnnnbnnna9e&kke-eeennnnnnnnnnei&ekikee-",
"ekkq&eek23333zzz333331333n3nnznnnnnnn&ikeennnzznnzzznnnkekyke&&&",
"XekXXek3333333zzx33334333333zznzzxnnnn&&nnnnnnn3>nznzznzneee&&X@",
"-*79q-3333zzzz33zzc333333333zxzznnnnnnnnnnnnnnn3>nzzzzznnn&&XOX*",
"&kij&3333333zzzzzzzzz333333333znnzzzznnnnnnvnbnn3>zzzzzzzznn&&e&",
"6k7=&4333333zzzz33zzz3333333333zzzzznnnnnnnnnzbnn3zz:::zz33>>3e&",
"&&&73333z3433zz33zzz33333333zz3zzzzznzzzbnnnznnzzzzzzzzz333>   .",
"&&5733333czzzzxzzzzzzzzz33333zzzzzzzzzznnzzzznnzzzzzz32z33>>> >O",
"&$e33333zzzzzzzzzzzzzzzz33333zzzzzzzzzzznnzzzznnzzzzxz333>>>>:>X",
"&$*3323zzzz333zzz33zzz333332zzzzzlzzzzzznzzzzzzzzzzzzz323>>,>:>&",
"*&3333333333zxzz43zzzz3z333zz3zzzlzzzzzzzzzzzzzzzzzx3zz33>>>>:<@"
};
