/* XPM */
static char *result[] = {
/* columns rows colors chars-per-pixel */
"64 64 146 2 ",
"   c #000000",
".  c #02030C",
"X  c #131419",
"o  c #0E2406",
"O  c #0E2801",
"+  c #0C2208",
"@  c #132A05",
"#  c #142A0A",
"$  c #173103",
"%  c #1A3503",
"&  c #1F3804",
"*  c #1A320C",
"=  c #122815",
"-  c #152C1E",
";  c #1A3313",
":  c #1E331C",
">  c #233C05",
",  c #23330B",
"<  c #21390D",
"1  c #203614",
"2  c #233B13",
"3  c #21361D",
"4  c #25391C",
"5  c #293F1C",
"6  c #1F0D22",
"7  c #200D22",
"8  c #311522",
"9  c #192D22",
"0  c #1F3325",
"q  c gray13",
"w  c #2B2B28",
"e  c #223624",
"r  c #273A24",
"t  c #25392C",
"y  c #323232",
"u  c #4C272E",
"i  c #40393E",
"p  c #254004",
"a  c #2C4506",
"s  c #2C4B05",
"d  c #27400C",
"f  c #2C450D",
"g  c #2E4B0C",
"h  c #334F04",
"j  c #354D0D",
"k  c #375303",
"l  c #36520D",
"z  c #3D5A0D",
"x  c #294114",
"c  c #2E441C",
"v  c #324B15",
"b  c #344C1E",
"n  c #345014",
"m  c #3F5413",
"M  c #37511C",
"N  c #2A4025",
"B  c #2A412C",
"V  c #314427",
"C  c #334C25",
"Z  c #3B5225",
"A  c #415E15",
"S  c #415D1F",
"D  c #456A07",
"F  c #4A6B06",
"G  c #46640D",
"H  c #4B6A0D",
"J  c #577804",
"K  c #56760C",
"L  c #557A0D",
"P  c #5C7D0B",
"I  c #446315",
"U  c #486515",
"Y  c #4B6915",
"T  c #44621F",
"R  c #48651F",
"E  c #45691B",
"W  c #4C6A1F",
"Q  c #516D17",
"!  c #506C1F",
"~  c #537417",
"^  c #5A7715",
"/  c #5C7B15",
"(  c #55731F",
")  c #5D771B",
"_  c #5C7B1F",
"`  c #617C17",
"'  c #617D1C",
"]  c #455F2A",
"[  c #7B463F",
"{  c #446227",
"}  c #4B6426",
"|  c #4C6927",
" . c #4B642E",
".. c #516B27",
"X. c #526C2E",
"o. c #557225",
"O. c #5B7627",
"+. c #5D7B27",
"@. c #4A6437",
"#. c #4D6930",
"$. c #536B37",
"%. c #5C7630",
"&. c #627D27",
"*. c #617C32",
"=. c #505051",
"-. c #5D5C5D",
";. c #5D7440",
":. c #5F5865",
">. c #6B6C6C",
",. c #70706B",
"<. c #AE7856",
"1. c #648320",
"2. c #658228",
"3. c #7F877A",
"4. c #787D80",
"5. c #7C8484",
"6. c #828686",
"7. c #878B83",
"8. c #878B8A",
"9. c #8F9289",
"0. c #8E9988",
"q. c #92958C",
"w. c #959B8E",
"e. c #9A9D8A",
"r. c #8E8F90",
"t. c #8F9495",
"y. c #959693",
"u. c #969A93",
"i. c #9B959B",
"p. c #9F9F9E",
"a. c #A0A19C",
"s. c #A7AAA7",
"d. c #AFA8AF",
"f. c #B0AEB6",
"g. c #ADB1B2",
"h. c #B5B7B6",
"j. c #BCBCBB",
"k. c #B8C0AE",
"l. c #BEC3BE",
"z. c #C0C4B5",
"x. c #C2C3BC",
"c. c #BDBFC4",
"v. c #BFC3C5",
"b. c #C3C2C4",
"n. c #C4CAC0",
"m. c #C4C4CC",
/* pixels */
"* 2 1 ; 1 * 1 1 * M I O.Y >  .f p g | | * < < n l & 2 $ n x # % * & < % ; & ; x d | } / F > ..b < | | R < 2 * b v , 2 x b : # < ",
"* 2 2 % , , , 1 2 d % T 2.b > d c v n n x x * v x 2 4 x # ; ; ; x C 2 ; % * x C x d > R *.2 > > } H K ) R f p v v < * * * * ; < ",
"> * b , 2 % , , ; < < < 2 < * < 2 2 < * * x * d < 2 ; # * ; c > x C & ; * ; & > 2 * 2 2 > 1 2 f N & > , 2 9 r < < * * < < 2 < < ",
"m f M < f 2 , 1 1 $ 2 2 o 1 5 1 ; * < < f c d * * * 2 * ; $ f I n n % : ; x d & , 1 1 > v * > C < % g n M 2 * < * ; * 2 < * < v ",
"] f f % x M < < & * # ; * * * * * > < x * b b & d , 2 , & | +._ n x & < ; C x v 2 d 4 > o.x v x ; C M % * * * * * < ; v < < 1 v ",
"b 2 > 2 2 v > 5 v C 2 * * * * * ; * * 2 > s v 2 ; v v * 1 % $ E n < 2 ; ; x * M V p 1 G 1.f g x 2 b > x x * # ; 2 < < v v < < v ",
", > c f v x x M x ; * ; 2 x & ; ; < 2 * n p v b 1 p ] 2 3 * x 2 < * * : * ; % 2 * M ; I +.| p ; 1 x 1 * * * * * < < < v v 2 < < ",
"2 , > 2 b , > > % * 2 2 * x 2 2 * 2 ; *  .> > , > o.Q & 1 1 , 2 : x # ; * ; * * d * x n S j d * * < < < * ; ; * * v < < v < * v ",
"v c , < 1 2 1 3 % : & ; C v * & 2 > ; * H +.< d K ! l < * x b g h & 2 ; * , > C _ / / Y v C 2 n K %.O.% $ > 2 * < v < < < < v v ",
"M f < 2 2 1 * $ ; % 2 5 s j c * x Z b g W O.n f { v * 2 2 * > v | n * ; * 2 < * 2 f } U W s E I x ; % 1 1 % ; < < v v < < v v * ",
"f C b > $ # , 2 ; k 5 : v % * c & 2 x h n G ) j b 2 & , x < ; d { { < * , x * < > x > j { n x ; 2 1 * ; * ; c < < 2 v v < v < < ",
"> , 2 < < 2 < * c G { 3 2 < n c l 4 x M c l ) v s R ..{ c < , , p M x < 2 c d x 2 @ 1 4 ; * ; ; % $ % < x < x v v < * v < < < 2 ",
"> > , f c Z v > * ! P s 2 g l v 2 ; * ; 2 v n M W R l & < < c c p d d ; n b * & 4 5 > , , 3 @ p ; 1 3 % v { Y ) ` v 1 < 1 < < v ",
"c 2 < * < 2 c b 3 ; J O.c x v ; , > 2 : % d ; & % d 2 ; 2 * h l x & d x M d , 2 ] ) / O.p 3 : 2 v b * * 2 ; > E ) ) < , < < v ) ",
"2 , , * , < , , 5 , j | b x p 2 < & * 1 % * : & ; x ; 3 5 b n c x < < C d > < 2 l Y ` H A > * < k ) c 1 * ; > < f R E < v ^ ) ` ",
"< 2 1 * , % > b J ^ v j h } ` ^ { m > < M * * ; * ; % % > > , 1 ; 2 < M & > C , j g #.{ m  .> x ^ _ > * 2 2 | E v < < v E E ` c ",
", Z 2 , * < > , < | | n G +.o.W , ; ; # b x % & $ < 1 , * , 2 2 x v & 2 & n f 2 < d v { n 2 * W } Y 4 : v E +.E & ; < E E E E * ",
"2 x * 2 f v b Z < p x x W G m % x o x < % v Z ; , ; 1 ; < < , 2 ; C 2 d b M f & ; 2 ; T R s x | c < & & o.^ W v n n < n v v < 2 ",
"f c 2 b 2 > > C c 2 ; * j d ; 4 o & * % < 2 * x & 1 1 < < x < > g * d x c % N 2 & c < p l f v d > 2 > > x n s v * < < * < < < < ",
"> 2 , b v > < > * 2 1 2 > ; = ; x b n x 2 ; c > * 2 d b c , 2 2 < 2 0 x a & ( 1.+.{ , x ; & * , 1 < 3 < d O g * * ; * 2 < 2 < < ",
"c , , f c > > , 1 @ < & v 5 x > 1 2 v f v x  .& 2 c f & < & Z < _ b % * & | p J Y s * 5 1 , x V V n ; 2  .d & * < < v < < < < < ",
"v M x * > , 2 * < > * % { n * d , < ; 2 C & I _ , v , s > < M * 1.F M > { C o.{ v > f * & % & * v R a x | ~ < * v E v < 1 v c < ",
"b b > < c b f 2 b | c 1 v g & { n > < 2 > & h &., > j X.M 2 < < H | I b & S #.% e d j x b & ; 1 * x k $ ~ _ } < E v < 2 v v , < ",
"% v > b v m < , 1 h E C * $ Z g 4 * M I ^ &.g V < n %.l % , x * #.s | v p p d e > T s d 3 1 % ; & * 4 c * v Y * E * * < < < < <.",
", & < < , x * 2 1 2 < C C * ; ; 1 v M , l &.O.h > | ] 2 > < < < s v M b & > * 2 , 2 % , 1 ; , * % 1 * } d ; b v ; E ) E E < <.<.",
"d  .> 2 < < x * $ < % $ < * * % * 2 % 1 < s R M * x 2 , * , 1 1 > c c , x % 2 2 1 4 1 # 1 2 1 * ; > | _ ^ Y n v E ` E < <.<.[ [ ",
"x { p c v > d * b c < $ * # , n $ @ 2 4 ; x < * > , , > * 2 > & C 0.u.t.t.t.y.r.w.7.9.u.7.q.q.q.2 < p s G _ W v E E u 8 8 u u [ ",
"* x & d b v * x < b b c c 2 > c M $ , ; ; * ; 5 2 < x 2 < 2 2 * *                               * 2 ; x f I } v E . . . 8 u u u ",
"* * < , d b 2 * $ * 2 < * 2 d v C * 2 < < * , , = ; ; ; * ; ; ; 4                     .         M % : 0 1 & % < < 8 . 8 8 8 u u ",
"x < 1 2 * 2 x * * % , d 2 * * < j , 2 < > % * , ; ; $ < c , % * ;             >.b.b.r.          n m 5 ; 1 > d < < 8 6 8 8 8 8 u ",
"x < * 2 * * , x x b v f & < b < > 2 * m g , 1 1 , < , d C 2 * ; 4           x.w w y q b.        * x % W } % ; < 1 8 7 8 8 8 8 u ",
"> 2 * ; ; 2 & 2 & x v { n > v v > 2 C f #.n.c.l.v.v.n.n.x.l.b.m.l.        4.b.b.b.b.b.q a.      2 2 x l | 2 x < v 8 7 8 8 8 8 u ",
"* 2 , % * 1 , , & E F _ T & | k d I W R > l.v.b.e.g.f.f.i.i.b.x.x.        m.x.x.b.b.b.-.x.      & } H T 2 1 r v v 8 6 6 6 8 8 8 ",
"2 x > , ; 1 2 v 2 : M Y _ a * e { R ~ ~ | l.n.l.x.f.h.z.k.l.v.s.w.        c.b.j.p.u.a.d.j.      #.| ~ 1.U % % v v < 8 8 8 8 8 8 ",
"v c 2 , * * > v C d + t * | p v l 2.~ s $ * x c 1 5 * > c , 2 > f         >.l.j.b.c.b.X s.      * % 5 @ x 0 f ; * < 2 8 8 8 8 8 ",
"h v > , ; 1 2 > & < > f M Z v a T { < @ 3 3 + d < * x , ; : f G C           h.:.=.-.=.h.        > v ; d 2 * n 2 < * < 2 < < * v ",
"M b > * 2 c x 2 : s ( ~ R % b * ; & % ; = : 2 ; m s g | > > *.K h             i x.x.,.          < > h < > G f & < ; ; * < 2 < v ",
"x > , 2 v v > 2 x | W x x , % 3 ; ; v n n * ; $ , V x z ] < < X.M                     .         2 * ..2 * *.< < 2 < * * < < < v ",
"x < > v b x , 1 % ; x % % 5 1 1 2 n v % d % % ; & x d R | > < , 4 6.6.8.4.6.8.6.7.8.6.6.8.5.7.3.< M I ( k s b < < < 2 < * 1 < < ",
", 2 1 , > & , * < v v M , > 2 < h v ; 3 2 ; C f j 2 ; * , * 1 2 , C > } C , n , < , 2 , $ , v #.^ I b ..j N j E ) E v < * < * v ",
"% 2 C ; 2 * * ; p ; < n v 4 > < 2 % 2 e , l v C g ; v < ; v ' 1 a * 2 _ l > e 2 2 , > C & d 2 * g %.H s M b R ) v < < < ; < v v ",
"| g M p % C v % < 4 1 > v , , ( 1.) G p < 2 $ v v x > 2 k ) O.> { E h o.; 2 , f n 1 > } x x M 2 x d W | f < #.n < < ; * * < v < ",
"| n % d n n d $ ; +.s ; , > ..D ^ A Z 2 * ; 1 % s v 2 ; _ | , % { ) R l h / _ W < * > #.g M % 2 > < n v n < 2 < < * ; * 2 < < < ",
"&  .& % ; * ; : & K 1.M e ] h | Y n > $ m b 3 1 N % p , Y v ; x > k O.g 2 & * : 2 > > & n v $ v f x ; ; x * % ; < v < 2 < < * 2 ",
"> d 2 2 & * ; - 2 E H E p x s R < 2 & > c ; * d A ~ I 3 > c % > 4 $ M v , ; , * * ; 2 $.> & ..v d < 2 4 , > ; * < v v < < 1 < v ",
";.d d M x % * * ; 2 n D p ; #.R 2 2 ; 2 % & | 1.^ H W e , R 1.X.' > $ 2 > 1 * 2 * * x b  .n T > * * * > n d < ; * * v v < < c ` ",
"$ & < f v > d > ; ; > b C p % > I | C ; - * # ; r 1 a % W ^ L A ; 1 5 ; # 9 > h 1 & * * v v ; d : * d g n * c 2 * 2 2 v 1 < ` ) ",
"2 ; 2 x c C , 1 % x ; ; % x : n I 1.L I > < d , v c j 1 1 4 , , 1 3 $ * > ; > C c < % > 2 * 2 * * < & C C * * * * * < < , f ` v ",
"< c 2 2 * > > 3 * * & $ < < 2 ; ; # $ * 3 ; ; C v 2 3 x 2 & < ; 2 c , < * ; 2 > M , x | ; > $ ; * & 2 2 v 1 r 2 < * < v < v E * ",
"& Z > l k Z * < - 3 3 4 * < * * ; 2 x 1 + * x > d f % * c , 4 > p j v > 2 v $.* * > R O.2 : * 2 2 Z 2 * > > C , , < v v < v < < ",
"l , * W { ; 4 d g n d 2 $ 1 * 1 * % ; * ; 2 % n 1 j M < * 2 ; & B d l v 2 % l U l s o.M < 2 % ; 1 C b x < f U < 2 v v v < ; 2 < ",
"2 c * 2 d * > k v 2 2 * 1 1 < % * 2 * * * , M g * 5 c p ; 2 M & 2 * , > * 4 s _ S v Y d p 2 , ; < > g j > n &.E < v < < * * * * ",
"` ) | & ; : 2 * d & < 2 C C n > d ; * 2 x > g | 1 ; C , x f j 2 ^ n 2 < ] f % , I M v c U ] n ; , * 2 j 2 C ) ) < < < 2 2 < < < ",
"+.G I #.< { R _ ( T x % * * 2 M x & ; b * & @.& * , 3 2 T n C > ^ &.d V % W ..x x f s C v 1 2 > * 3 1 < 4 3 a ) < v E / E v v < ",
"j R W s 2 n l D 1 4 ; ; * 2 x v b * & b v < ; ; > > > d T  .x * ..A l x 2 > o.W b n 2 c > % 4 % = 2 , < j v c Y v R ) E v < 2 < ",
"- l I ; ; v { ; % > < ; * * > , < < * M { d $ 5 } | Y Y d , & ; Y v 2 * 2 2 ; > n g : 2 , % e * 1 h l ..K P R v v v v v < ; * * ",
"> , x b M < # : { R j > 1 ; 1 , ; x , > Q  .> Y / L l ; x < * : & b > 2 * O x d > v 2 * < 1 1 * 2 < < < > x b v * * < < ; * * d ",
"; W ^ G 2 ; d I g v > b * * * | c $ * > 4 ; 2 Y O.$ % | G n M p x { x * ; * * * 1 1 , * 2 , 2 , ; < , 1 x d ; * * * : & & ; n ; ",
"c } h > * c * > < d < c ; % > T z : e j G ^ ~ v 2 * #.2.~ 2.z & f { d @ 2 3 ; * ; 1 , , * > b > 2 ; * ; 1 * % < v * ; & < < n & ",
"$ 5 3 r > x 2 r ; 2 c @ ; ; > | ( d s J +.! H | ; & E h | A > ; d d , * ; C * 2 ; 1 1 1 , x f M * 2 * ; ; * 2 v v ; * ; < 2 ; ; ",
"x < d c 2 > * & 2 x d d * ; * { > r e M R o.! A M 2 x g T 2 1 ; * * ; ; 2 b > > 1 % c > 2 1 , M < 2 & $ $ * M v n < < ; < * < ; ",
"* > f g , < M n & d x ; * 2 d < < , * x > > r 2 @ 2 2 x 2 * ; % 2 2 x & * M f < 2 > n , < 1 2 * c > & < < > b < < * 2 ; < 2 ; * ",
"2 1 1 1 $ < x c : & 2 & * 2 C & e * d I Y & 1 % 5 > * * ; x % 2 d * ; * * c x c 1 < v f * 2 b & x & x M { p < < < < < & 2 * & ; ",
"* 1 * 3 * 2 > M 2 * & @.% d x v & d v g #.* 2 < v < > v C ; ; ; < < * % ; x & M 2 * & $.% < M v ; x v z { > d 2 C & < v v % * 4 "
};
