/* XPM */
static char *_64_fc530bffddd45541f79a019349919fd6836654d0b343298a9bebe00d0b06c28c[] = {
/* columns rows colors chars-per-pixel */
"64 64 192 2 ",
"   c #020101",
".  c #010A00",
"X  c #090D0D",
"o  c #160202",
"O  c #10100E",
"+  c #131C17",
"@  c #270000",
"#  c #330100",
"$  c #281010",
"%  c #0E2901",
"&  c #132A03",
"*  c #152A0A",
"=  c #163403",
"-  c #1A3205",
";  c #1F3804",
":  c #1B320B",
">  c #17380D",
",  c #1F3113",
"<  c #372505",
"1  c #36260B",
"2  c #392E0C",
"3  c #233502",
"4  c #233C03",
"5  c #27310C",
"6  c #223A0B",
"7  c #353403",
"8  c #222413",
"9  c #22251F",
"0  c #382913",
"q  c #253114",
"w  c #223C13",
"e  c #2D3816",
"r  c #29391B",
"t  c #333410",
"y  c #241527",
"u  c #341C27",
"i  c #312222",
"p  c #302F27",
"a  c #353733",
"s  c #450303",
"d  c #431508",
"f  c #521F04",
"g  c #561314",
"h  c #76151C",
"j  c #462807",
"k  c #40300D",
"l  c #4E2314",
"z  c #53201F",
"x  c #443414",
"c  c #663319",
"v  c #691823",
"b  c #4A3820",
"n  c #533925",
"m  c #4D2B32",
"M  c #4A3335",
"N  c #692521",
"B  c #7A2322",
"V  c #7E2A2E",
"C  c #673424",
"Z  c #783121",
"A  c #7A382C",
"S  c #18410E",
"D  c #254005",
"F  c #2C4206",
"G  c #2F4903",
"H  c #27400C",
"J  c #2E4A0C",
"K  c #35500E",
"L  c #2A4214",
"P  c #294A15",
"I  c #2D431C",
"U  c #284B1C",
"Y  c #334712",
"T  c #314A15",
"R  c #36431E",
"E  c #344C1F",
"W  c #375114",
"Q  c #35511E",
"!  c #304424",
"~  c #364B24",
"^  c #395224",
"/  c #3D542D",
"(  c #384432",
")  c #444314",
"_  c #434520",
"`  c #534021",
"'  c #445D22",
"]  c #455E2B",
"[  c #55522A",
"{  c #444238",
"}  c #6E4128",
"|  c #436422",
" . c #4A6321",
".. c #4A6428",
"X. c #4D692B",
"o. c #536623",
"O. c #506A28",
"+. c #4B6331",
"@. c #436930",
"#. c #546B32",
"$. c #506638",
"%. c #546A3C",
"&. c #4D783A",
"*. c #557330",
"=. c #5A7331",
"-. c #5B7539",
";. c #676E38",
":. c #627835",
">. c #3D3A40",
",. c #454546",
"<. c #574445",
"1. c #595244",
"2. c #4D4F50",
"3. c #565555",
"4. c #6F4C48",
"5. c #7A4841",
"6. c #665554",
"7. c #5C7540",
"8. c #637B43",
"9. c #7C6857",
"0. c #5D5C61",
"q. c #695E63",
"w. c #6C6668",
"e. c #767070",
"r. c #881B19",
"t. c #9D1522",
"y. c #AB1720",
"u. c #A41E25",
"i. c #AA1A26",
"p. c #B31729",
"a. c #B31C28",
"s. c #B41F30",
"d. c #892724",
"f. c #8C2925",
"g. c #88252E",
"h. c #992223",
"j. c #9B2128",
"k. c #96282D",
"l. c #873024",
"z. c #9C332A",
"x. c #992532",
"c. c #883331",
"v. c #983436",
"b. c #A82224",
"n. c #AC2A2D",
"m. c #A52130",
"M. c #B52730",
"N. c #BB2435",
"B. c #A83337",
"V. c #A53F38",
"C. c #B53235",
"Z. c #BE353B",
"A. c #C52435",
"S. c #CA3336",
"D. c #C43539",
"F. c #CE3039",
"G. c #D1383D",
"H. c #914C37",
"J. c #993544",
"K. c #AB2D42",
"L. c #B93541",
"P. c #C73541",
"I. c #935249",
"U. c #9A5B5D",
"Y. c #B5494B",
"T. c #886858",
"R. c #9A645C",
"E. c #A7635B",
"W. c #AD7757",
"Q. c #A55C61",
"!. c #996667",
"~. c #95696B",
"^. c #8E7A74",
"/. c #A86F73",
"(. c #C94547",
"). c #D74C55",
"_. c #E35D60",
"`. c #D4696E",
"'. c #E66568",
"]. c #7F8778",
"[. c #88857C",
"{. c #918579",
"}. c #9D7E83",
"|. c #8A8684",
" X c #958D89",
".X c #9B9A9B",
"XX c #B99E9A",
"oX c #B2A39A",
"OX c #AE9FA3",
"+X c #B2A3A5",
"@X c #D69E9F",
"#X c #DDB7B9",
/* pixels */
": - q 6 & w q 5 6 W | &.@.3  .) 3 T %.' 4 4 ; T Q 6 : L ! r < 1 < g j < f g d j 3 @.@.&.@.6 o.G D | | | 3 3 ; ~ I L 6 > P > : ; ",
"w H 6 q : > w 5 5 4 4 @.*.W D = ^ T 6 Q T e - E I 5 x p , w 8 9.T.T.9.9.T.T.T.9.^ w > $.#.) 7 J  .o.=.:.#.4 ; I I 5 : : L = - S ",
"- 6 P w S > : : 5 6 6 6 6 ; ; L > w w L = > L = r 0 d 9.9.].].[.|.}.[.|.|.[.^.{.[.e.[.{.~.T.4.I.f j 4 D 6 5 w L L q * 5 e q 6 w ",
"Q Y ^ w U S > > 6 & w : > , I > : S = : P E S e 0 z Q.Q.{.oX X.X.X.X.X.X X|.|.[.|. X}.}./.}.`./.I.H.` ` b 2 5 : - > 5 e q w w L ",
"@.I 6 3 L Q H S w > > > > & * * , * L > = ^ Y < ^.!.U.!.XXoXoXoXOXOX+XOXOXOX+X+X+X+XoXXX#X#X#X@X/.Y.J.g.g.g k 5 - 6 w R 6 : w Q ",
"T 6 6 5 J P 6 Y x n < 1 0 x 0 i < < 2 2 2 x C E.E.I.V V U.Q.R.!.~.~.~.~.~.~.~.~.!.~.!.!./.!.!./.g.z.u.i.u.d.Z f 2 5 t ) E 6 4 E ",
"6 L Y T P ; ) c h B.B.B.v.H.v.v.v.V.Y.Y.V.Y.V.D.b.h.t.h.f.f.x.x.g.c.c.g.v.k.k.v.v.z.x.x.B.B.m.L.B.K.N.P.s.n.n.z.Z f j ) Q H 3 : ",
"6 5 5 4 ) < H.V.C.D.P.P.Y.`.`._.'.).D.D.S.D.S.F.A.Z.M.C.B.C.P.D.C.V.B.C.Z.M.(.'.'.'.)._.).L.L.`.L.L.P.P.L.N.P.N.C.z.Z j Y 4 6 Y ",
"~ - 7 j f H.C.L.G.C.k.g.A c.v.(.P.).F.F.A.S.S.S.S.D.D.Z.Z.D.F.F.D.D.Z.Z.D.D.D.(.(.(.V.G.P.L.L.Y.x.B B l.t.L.P.D.F.C.h.c.j 4 Q P ",
"~ _ j I.V.C.D.N.t.d.s o o @ N c.K.N.A.A.A.S.G.S.D.D.Z.Z.D.D.F.F.D.N.M.i.p.p.p.b.t.b.b.b.s.L.`.J.g # o o N d.K.Z.S.(.(.f.j ^ P S ",
"R b } j.F.F.L.x.v d l M i o 4.g h x.M.A.i.i.y.y.y.h.u.u.j.u.u.y.i.i.b.i.b.i.i.i.b.t.y.b.i.x.B z l X { $ n # h L.P.A.K.c.j R = S ",
"6 x N r.M.N.m.h # ,.  >.>.+ . M # V t.K.a.i.i.b.b.b.u.u.u.u.u.u.y.i.i.m.a.i.y.y.t.b.i.u.x.J.@ <.o O 1.i 8 6.# J.L.L.m.c.1 H H > ",
": 2 j g x.x.k.g i >.+ 2.>.2.y M $ N x.N.s.p.i.y.b.b.i.p.p.i.i.i.i.a.M.N.s.a.a.a.M.a.a.M.n.N # i o i 3.3.$ 6.z N K.K.v.} 2 4 t W ",
"^ t n # h x.V g <.9 ,.3.e.e.3.M { # k.i.s.N.s.n.n.n.s.N.A.N.M.M.M.M.M.M.s.s.N.M.i.M.n.n.x.@ 6.9 a w.q.w.3.i 4.g g.k.Z f 7 D 7 ;.",
": : 8 d h x.g.g <.,.2.w.6.q.<.<.n # B t.m.m.n.M.n.n.M.M.a.M.n.n.n.n.u.i.i.i.u.u.b.b.r.h.V o 3.,.2.w.0.w.4.M 6.1 N C ` 7 W *.:.:.",
"> 4 5 < Z v V # a a X <.<.6.9 9 8 n N B Z B l.f.l.f.f.f.f.f.l.f.Z l.f.f.d.d.l.Z l.l.l.Z l 9.9 9 X p 3.3.0 { i [ n 2 7 )  . .:.G ",
"; ~ 6 5 1 k k i + { O a a   . {   q 1 1 b ` 1 < < k 1 < 1 1 k j x b < x < ` x 2 j x ) [ R 5 . (   + ,.+ 8 1.  %.q 5 4 +.X.X.X.; ",
"H L 4 6 H ^ ~ ) r * 8 ( a   2.a q * L L * L Q : w : q , w q 6 6 : E 6 6 J T Y ; 3 4 3 #...q ! ( a O ,.+ { . %.I ~ T H Y T H 4 H ",
"H H H T 6 6 r ( ! p X q 8 + q 9 : , w - > 3 > H - : : w ; L 6 6 E 3 H T Q 3 I D D ; 6 6 E ~ ~ q X 9 9 9 r R E Y 3 H 4 - 6 H 6 6 ",
"H 6 4 ~ T w 6 w : > L , I q , , r I ~ 6 F 6 P ; 3 6 T E I w w 6 4 6 ; H ; 6 #.-.#.O.6 6 w : 6 w r q q w : 6 > ; ; % = S 6 : 6 6 ",
"P H 6 w E 6 w - > : - 6 ~ : T w w 6 E Y T 3 X.4 4 Y L ; 6 - ' 4 -.K 3 = > #.H 7.#.P 6 ; L : 6 ~ R ! e w $.6 - ; 6 H H 6 4 : L 6 ",
"E E H 6 6 = 6 6 > ; 6 3 +.T 6 - 6 6 : 6 W ; ..=.; W 4 H ; 5 ~ 3 -.O.W 4 ] W #...Y ; ; 4 S - w - ~ ] Y 4 ] :.4 4 J ' Q 4 H T ~ , ",
"I Q : 6 Y Q P 6 T X.^ % ^ T = %.I w : 4 D 3 T #.3 H T %.E L - 6 ..O.| K D ' +.6 L = W P T H = w - F Y 6 %.=...= X.E 6 4 ~ I w 6 ",
"- U 6 Q P Q 6 6 = ~ ' ~ = = Y L H 6 Y +.-.-.K K 4 Y -.W 6 : w : X.J X.J 4 6 H 6 : $.T H ; - , = e = D D - T ..4 X.= 6 6 3 6 w w ",
"6 6 6 6 6 6 4 6 3 6 6 Q E - - 6 w R T 6 F -.-.Y 4 +.] I 6 - 6 6 T W J J 6 6 4 q : q > 6 - 6 : q = D ; | ; D J W = X.7.@.+.: H : ",
"H ] H 6 6 4 6 6 : 6 - - : 6 6 = & 6 T 6 6 W ' W 3 H ; 6 w w w 6 3 L Q D 4 6 H > I : - = > ; : - - ; +.-.-.X.K D X.-...D 3 6 Q H ",
"e +.6 Y E - L 6 Q L 6 - : & 6 ~ : = 6 - 4 ; H 6 6 : : w w : w : ' J - E w = : +...~ 6 q : , = > H ; D P @.*.$.J X.^ H D 4 T E 3 ",
"6 H 5 w ~ T 6 6 6 E ~ I L w w ~ ! 5 - - 6 5 6 6 6 w w w : q : 6 = W 6 / I I L 6 Q ~ > 6 : q : E ; H = D I ] X.W +.J ; Q T E 6 - ",
"6 ; w 6 6 ~ > : : 6 q : > 6 w I ~ 6 : 6 6 - 6 w - q : : , , - = 6 6 : I ~ : 6 ; 3 T R w q : - E Q = S 3 6 4 = H 6 3 3 - 6 w 6 6 ",
"6 3 6 w - 6 L 6 - : 6 w 6 6 6 6 E w 6 6 6 - & : : : * , ~ ; - : 6 6 w w ~ ! 6 w 6 F w > L : 6 6 ~ Q H - 6 6 6 3 3 6 L 6 6 6 : : ",
"w S : S > : ; L 6 E Q P 6 6 T 6 6 - 6 Y ~ 6 6 : w q q ( ~ q = w : 6 6 6 - ^ 6 L 6 4 = w ; 6 I w - H = #.+.3 4 6 6 - : w w : : e ",
": w , = - L > > 3 6 P X.Q 3 T T 4 3 ^ Q +.6 e 6 ~ w 6 ~ ! > , - w q 6 - - 6 6 ~ - H 4 O.- 6 E E H F H W ..4 H : E L 6 ~ I , , * ",
": > 6 : = 6 6 6 4 X.X.-. .S X.J D | X.#.; D H P T w 6 : ~ r q : 5 > : : : ; 6 : D X.] 7.X.; +.W D  . . .; 4 3 Y I 6 , w ~ > : : ",
"I I w : , : w ~ : D P ..=.J 4 D O.X.O.=...; ; Q ~ & L w , : > w w E L w = : L ~ Y H 4 ..-.T 6 = O. .=.-.o.; ; E Q w q & , , q w ",
"I U 6 : - = 6 T T H % D 4 ..6 L G *.=.6 = = , ! w w - 6 w 3 4 6 Q E % > : 6 > : = - = = ; ; ; H 6 3 H ; H 4 6 : q q w w L 6 > 6 ",
"E ~ L : ; w w 6 ; 4 3 Y T ^ T T X.| H = 6 : : r q 6 H ; ; D L ' E E : 5 : : ; 6 - ~ H = : : > L : ~ : w 6 - ^ q : 6 w : 6 6 6 I ",
"E T > - q L L 6 6 L 7.7.+.= E : = > = , : , > L E Y L  .D ; :.-.Y I w - : 6 : E : E L L , : > : w q ! w 6 +.Y L 6 5 6 6 w w 6 Y ",
"Y ; - L ~ I S 6 H +.+.r L 6 : w w L ~ ~ ~ L : = = Q J W o.3 ; o.T H - = w w w ~ w L I I > : : I 6 > #.6 : 8.6 4 ; - & : 5 6 6 ~ ",
"6 4 H T ^ U 6 6 - ; L > : H : 6 ; P P 3 6 - 3 - D 6 H ..+.6 6 6 H P - T L H E E 6 5 w > > w : , ; W ] #.W J K F 4 6 6 6 6 6 - 6 ",
"4 6 6 > 6 6 : = H T I W D : H ; J W H = ; H L E Q = 6 : 6 - w 6 6 K 3 @.Q : I 6 6 6 6 w - 6 ~ $.-. .G O.J G K ' #.$.^ 6 & w w ~ ",
"3 H E 6 w : 6 - 6 3 ; Q L D H ; S = ; 6 : E E I I 6 T 6 4 Y -.4 4 ; 4 -.P ; ; 6 H 6 6 Q - H w ; J :. .G K K ' :.W 6 6 6 6 q ~ ! ",
"$.Y ^ 6 = ~ E - > H D ; K ; 6 =.-.-.] H 6 L , ~ ^ w 6 - W -.*.D O. .K *.; H = T T 6 : X.L H ^ ; D 4 O.o.G ; X.Y 4 6 5 : : w I w ",
"@.^ - w ~ ~ 6 - 3 7.J ; ; ; O.' =.| W H - - > = L E 6 4 -.] 6 ; ..*...J Y -.-.X.; ; H X.J ^ - H 6 4 E T W ; 6 6 6 w : * L 6 5 6 ",
"- +.6 - 6 > = 6 6 -.7.T S o.J X.@.W ; 4 ^ Q 6 > H 3 H ; ..T 3 H ; K -.K D 6 6 - D 3 4 : Q E - T E w ; 6 w 6 - 6 w E w 6 6 6 - H ",
"6 : H w : : - - H ] X.+.4 S L +.6 6 > ; Y 6 = H  .#...; 4 D = 4 ; ; ^ Y = ; - 6 ; = L #.; ; $.E w q w w 6 w : q : E ~ w 6 6 4 W ",
"-.L H ^ w - 6 : = 6 ^ ..D H #...6 ; F 6 - : X.8.7. . .4 D  .8.#.-.D = H > : > > - = L W +.T +.w : 6 w q ~ e q > : w E ~ ; ; K -.",
"6 ; > Y I ; w 6 - 6 6 E ^ 3 = 4 | X.L 4 3 - = : H = 6 4 O.=.=.^ 6 = I - : : L ~ 6 : = - ~ ^ ; S : - : L Q 6 L 6 : : 6 T 4 D O.:.",
"6 = 6 H ~ Q : w 6 w : = 6 L 6 T @.-.-...; = L 6 T T T 6 6 6 3 ; ; 6 = * q L * ~ ~ 6 - ; 6 = 6 - 3 3 4 ^ ~ - q w & w 6 6 3 J :.G ",
"D L D H = > 6 L - > : w > I , : * > = = 6 = 6 E T 6 6 6 6 6 H 3 6 I 6 w 6 - w ; T ; D #.6 S , * 6 6 6 w R w w q , : w E 6 Y ..6 ",
"4 Q ; Y ^ ^ : : : 6 w > : : * : : w L q % = w 6 6 Y - : > > w 6 6 E U ; w ~ +.3 D ; ..*.3 - : w 6 E 6 : 6 w ^ L w 6 I E 4 Y 6 6 ",
"K ; D X.+.; ; L I E E q w : : 6 : : r : : L - ^ : ~ ^ H ; L : w Y H E E : ; Q X.K D *.Q D 6 * > 6 ^ T L 6 6 ..6 6 ^ Y E 4 6 6 6 ",
"S D ; 6 D ; ; Y E 6 6 = 6 6 w > > , : > : > Q T : r Y S 3 6 ^ > ; 6 D 6 - H S -.| m m m m m m m m m m Y 4 T 8.' 3 J ; H 3 & - - ",
"=.-.O.; ; ; 6 6 H > : ; I ~ E H > 6 q , L 6 P X.H - E = H Y E 6 *.W H = W.W.W.W.m m m m m m m m m m m m m Y =.=.4 ; 4 3 3 w 6 w ",
"-. .' ..D ..+.7.7.] W.W.W.W.W.W.W.W.W.W.- : +.H 4 : ; D | Q T W.W.W.W.W.W.W.W.m m m m m m m m m m m m m m m G =.; G X.8.+.E E w ",
"K ..O.J D P W ] - W.W.W.5.5.5.W.W.5.5.W.W.W.: - D ; ; W.W.W.W.W.W.W.} W.W.m W.m m m m m m m m m } 5.5.m m m m m K o.o.#.T - w w ",
"- K  .; = Y X.W.5.W.5.5.W.5.W.u m W.W.W.W.W.W.W...O.W.W.W.W.5.5.5.W.4.I.m m m m m m m m m m m 5.I.4.m m m m m m m W T T 6 w % q ",
"; 6 6 T I 6 W.W.W.5.5.5.5.5.W.u m W.W.W.W.W.W.W.W.W.W.W.W.W.W.W.5.5.5.5.m m m m m m m m m 5.5.5.m m 5.5.5.5.m m m m 6 6 6 & : w ",
"4 +.:.+.W.W.5.5.5.5.5.5.5.5.u m W.W.W.W.W.W.W.W.W.W.W.5.5.5.5.W.W.5.m m m m m m m m m 5.5.5.5.5.5.5.5.5.m m m m m m m ; 6 6 E w ",
"Y ] m u u m m 5.5.y y y 5.5.m W.W.W.5.W.W.W.W.W.W.W.W.W.5.5.5.5.5.m m m m m m m m m m 5.5.5.m m 5.5.5.5.m m m m m m m 6 w w E : ",
"& X X X u m m m 5.5.5.5.5.5.5.5.5.W.W.5.W.W.W.W.5.5.5.W.5.5.5.5.5.m 5.5.m m m m m m m m 5.5.5.m m 5.5.m m m m 5.m m m m w w q : ",
"w u X u u u m m 5.m m 5.5.5.5.5.5.W.W.5.5.5.5.W.W.5.5.5.5.5.5.5.5.5.5.m m m m m 5.5.5.5.5.5.5.5.5.5.5.5.5.5.5.m m m m m w : 6 : ",
"6 u y u u u u m m m 5.4.5.5.5.5.W.W.5.5.5.5.W.W.5.5.5.5.5.5.5.5.5.5.5.m m m m m 5.5.5.5.5.5.5.5.5.5.5.5.5.5.5.5.m m m m m : - q ",
"L u y u u u u m m m } I.5.5.5.5.5.5.5.5.5.5.5.W.5.5.5.5.5.5.5.5.5.5.5.5.m m m m m m 5.5.5.m m 5.5.5.m m m 5.5.I.} M m m m : 6 q ",
"> u y u u u u m m 5.5.m 5.5.5.5.5.5.5.5.5.5.5.5.5.5.5.5.5.5.5.5.5.5.m 5.5.m m m 5.m 5.5.5.5.m m 5.5.5.5.m m m m m m m m m m : : "
};
