/* XPM */
static char *_257_90a8071fa240a309ea72349ecd11ccdc9d2107ba14e9991fb32cf26c79c2366d[] = {
/* columns rows colors chars-per-pixel */
"64 64 191 2 ",
"   c #020101",
".  c #010A00",
"X  c #090D0D",
"o  c #160202",
"O  c #10100E",
"+  c #131C17",
"@  c #270000",
"#  c #330100",
"$  c #281010",
"%  c #0E2901",
"&  c #132A03",
"*  c #152A0A",
"=  c #163403",
"-  c #1A3205",
";  c #1F3804",
":  c #1B320B",
">  c #17380D",
",  c #1F3113",
"<  c #372505",
"1  c #36260B",
"2  c #392E0C",
"3  c #233502",
"4  c #233C03",
"5  c #27310C",
"6  c #223A0B",
"7  c #353403",
"8  c #222413",
"9  c #22251F",
"0  c #382913",
"q  c #253114",
"w  c #223C13",
"e  c #2D3816",
"r  c #29391B",
"t  c #333410",
"y  c #241527",
"u  c #341C27",
"i  c #312222",
"p  c #302F27",
"a  c #353733",
"s  c #450303",
"d  c #431508",
"f  c #521F04",
"g  c #561314",
"h  c #76151C",
"j  c #462807",
"k  c #40300D",
"l  c #4E2314",
"z  c #53201F",
"x  c #443414",
"c  c #663319",
"v  c #691823",
"b  c #4A3820",
"n  c #533925",
"m  c #4D2B32",
"M  c #4A3335",
"N  c #692521",
"B  c #7A2322",
"V  c #7E2A2E",
"C  c #673524",
"Z  c #783121",
"A  c #7A382C",
"S  c #18410E",
"D  c #254005",
"F  c #2C4206",
"G  c #2F4903",
"H  c #27400C",
"J  c #2E4A0C",
"K  c #35500E",
"L  c #2A4214",
"P  c #294A15",
"I  c #2D431C",
"U  c #284B1C",
"Y  c #334712",
"T  c #314A15",
"R  c #36431E",
"E  c #344C1F",
"W  c #375114",
"Q  c #35511E",
"!  c #304424",
"~  c #354B24",
"^  c #395224",
"/  c #3D542D",
"(  c #384432",
")  c #444314",
"_  c #4A4A24",
"`  c #534021",
"'  c #445D22",
"]  c #455E2B",
"[  c #444238",
"{  c #6E4128",
"}  c #436422",
"|  c #4A6321",
" . c #4A6428",
".. c #4D692B",
"X. c #536623",
"o. c #506A28",
"O. c #4B6331",
"+. c #436930",
"@. c #546B32",
"#. c #506638",
"$. c #546A3C",
"%. c #4D793A",
"&. c #557330",
"*. c #5A7331",
"=. c #5B7539",
"-. c #676E38",
";. c #627835",
":. c #3D3A41",
">. c #454546",
",. c #574445",
"<. c #595244",
"1. c #4D4F50",
"2. c #565555",
"3. c #6F4C48",
"4. c #7A4841",
"5. c #665554",
"6. c #5C7540",
"7. c #637B43",
"8. c #7C6857",
"9. c #5D5C60",
"0. c #695E63",
"q. c #6C6668",
"w. c #767070",
"e. c #881B19",
"r. c #9D1522",
"t. c #AB1720",
"y. c #A41E25",
"u. c #AA1A26",
"i. c #B31729",
"p. c #B31C28",
"a. c #B41F30",
"s. c #892724",
"d. c #8C2925",
"f. c #88252E",
"g. c #992223",
"h. c #9B2128",
"j. c #96282D",
"k. c #873024",
"l. c #9C332A",
"z. c #992532",
"x. c #883331",
"c. c #983436",
"v. c #A82224",
"b. c #AC2A2D",
"n. c #A52130",
"m. c #B52730",
"M. c #BB2435",
"N. c #A83337",
"B. c #A53F38",
"V. c #B53235",
"C. c #BE353B",
"Z. c #C52435",
"A. c #CA3336",
"S. c #C43539",
"D. c #CE3039",
"F. c #D1383D",
"G. c #914C37",
"H. c #993544",
"J. c #AB2D42",
"K. c #B93541",
"L. c #C73541",
"P. c #935249",
"I. c #9A5B5D",
"U. c #B5494B",
"Y. c #886858",
"T. c #9A645C",
"R. c #A7635B",
"E. c #AD7757",
"W. c #A55D61",
"Q. c #996667",
"!. c #95696B",
"~. c #8E7A74",
"^. c #A86F73",
"/. c #C94547",
"(. c #D74C55",
"). c #E35D60",
"_. c #D4696E",
"`. c #E66568",
"'. c #7F8778",
"]. c #88857C",
"[. c #918579",
"{. c #9D7E83",
"}. c #8A8684",
"|. c #958D89",
" X c #9B9A9B",
".X c #B99E9A",
"XX c #B2A39A",
"oX c #AE9FA3",
"OX c #B2A3A5",
"+X c #D69E9F",
"@X c #DDB7B9",
/* pixels */
": - q 6 & w q 5 6 W } %.+.; | ) 3 T $.' 4 4 ; T ~ 6 : w ! r 1 1 d l j d f g d j 4 +.+.%.+.; X.G D | } } 3 3 - Q I L 6 > P > - ; ",
"w H 6 q : > w 5 5 4 4 +.*.W D = ^ T 6 ^ W 6 = ^ U 5 x p , w 8 8.Y.Y.8.8.Y.Y.Y.8.~ w w #.@.) 7 F | X.&.;.@.4 6 I I 5 : : w = = H ",
"- 6 T w S > : : 5 6 6 6 6 ; ; L > w > L = : > = r 0 d Y.8.'.'.].].|.].].}.].].[.].w.].[.!.Y.3.P.f j D D 6 5 w L L , * 5 e q , L ",
"Q T ^ w U S > > 6 & w : : , L > : S ; : P E L e 0 z W.W.[.XX|. X X X X X|.}.}.].}.|.{.{.^.{._.^.P.G.` ` b 2 5 : - 6 5 e q w w L ",
"+.I w 3 L E H S w : > > > & * * , * w w = Q Y 2 ~.Q.I.W..XXXXXXXoXoXoXoXoXOXOXOXoXOXoX.X@X@X@X+X^.U.H.f.f.g k 5 - 6 w R : ; w E ",
"T 6 6 5 J P 6 Y x ` < 0 0 x 0 i < < 2 2 2 x C R.R.P.V V I.I.T.Q.!.!.!.Q.!.!.!.!.Q.!.Q.Q.{.Q.Q.^.f.l.n.u.y.s.Z f 2 5 t ) ^ S ; E ",
"; L Y T P ; ) c h N.N.N.c.G.c.c.c.B.U.U.B.U.B.S.v.g.y.g.d.f.z.z.f.x.x.f.c.j.j.c.c.l.z.z.m.N.n.K.N.J.M.L.p.b.b.l.Z f j ) Q 6 3 6 ",
"6 5 5 4 ) < G.B.V.S.L.L.U._._.).`.(.S.S.A.S.A.D.Z.V.m.V.N.V.L.S.V.B.N.V.C.m./.`.`.`.(.).(.K.K._.K.K.L.L.K.M.L.M.V.l.Z j Y 4 6 Y ",
"~ - 7 k f G.m.L.F.V.j.V A x.c./.L.(.D.D.Z.A.A.A.S.S.S.S.S.S.D.D.S.S.C.S.S.S.S./././.B.F.L.K.K.U.z.B B k.r.K.L.S.D.V.g.x.j D Q P ",
"~ R j P.B.V.S.K.r.s.s o o @ N x.J.M.Z.Z.Z.A.F.A.S.S.C.K.S.S.D.D.S.M.m.u.i.i.i.v.g.v.v.v.a.K._.H.g @ o o N d.J.V.A././.d.j Q P S ",
"R x A g.S.D.K.z.v d l M i o 3.g h z.a.Z.u.u.t.t.t.g.y.y.h.v.y.t.i.u.v.y.u.u.u.u.u.y.t.u.y.z.B g l X [ $ n # h K.L.Z.J.x.j ! ; S ",
"e x N e.a.M.n.h # >.  :.:.+   M # V y.J.i.u.t.v.v.v.y.y.y.y.y.y.t.u.u.n.v.u.t.t.r.v.u.y.z.H.@ ,.o O <.i 8 5.s H.K.K.n.x.2 6 H > ",
"6 2 d g z.j.j.g i :.+ 1.:.1.y M $ N z.M.a.i.u.t.y.v.i.i.i.t.t.u.u.i.m.m.a.i.i.p.m.p.u.m.b.N $ 0 o i 2.2.$ 5.z N J.J.c.{ 2 4 t W ",
"^ t ` # h z.V g ,.9 >.2.w.w.2.M ( # j.u.a.m.M.b.b.b.m.M.Z.M.m.m.m.m.m.m.a.m.M.m.t.m.b.b.z.@ 5.9 M q.q.q.2.i 3.g f.j.Z f 7 4 7 -.",
": : 8 d h z.f.g ,.>.1.q.5.0.,.,.n # B r.n.n.b.M.b.b.m.m.p.m.b.b.b.b.v.u.u.u.y.y.v.v.e.g.V @ 2.>.1.q.9.q.3.M 5.0 N C ` 7 K *.;.;.",
": 6 5 7 Z v V # a a O ,.,.5.9 9 8 n N B Z B k.d.k.d.s.s.d.d.k.k.Z k.d.d.s.s.k.Z k.k.k.Z l 8.9 9 O 9 2.2.0 [ i _ n 2 7 ) | | ;.G ",
"; ~ 6 5 2 k k u + [ X a a   . M . q 1 1 b b 1 < < k 1 < 1 1 k j x x 2 x < ` x 2 j x ) _ _ 5 . (   + >.+ 8 <.  6.8 5 4  .......; ",
"H L 3 6 H ^ ~ ) r * 8 ( a   1.a q * w L : L Q : w : , , w q 6 6 6 R 6 6 K T L ; 3 4 4 @.] w ! ( a O >.+ [ . $.I ~ P H Y T L 4 6 ",
"H H H T 6 6 w ( ! p X q 8 * 9 9 : , L - 6 > 6 H - 6 : w 6 L 6 6 ^ 3 6 Y Q 3 L D D 4 H 6 I ~ ~ q X 9 9 9 r R E Y ; H D - 4 6 6 6 ",
"H 6 4 ~ E w 6 w : : L , I q w , r I ~ > D ; T ; 3 6 L ~ e w w 6 4 : 4 H > 3 @.=.@. .6 6 w : > w r q q , : 6 : ; ; % = S 6 6 6 6 ",
"P ; 6 w I H w - - : - 6 ~ : L L w 6 ~ T Y 3 ..4 4 Y I 4 6 - ^ 4 =.K 3 - 6 $.H 6.@.T - 6 L : ; ^ I ~ e w @.6 = ; H H H H 4 : L 6 ",
"~ E H 6 6 = H 6 w 4 : ; O.T 6 & 6 6 6 3 W 4  .*.4 W 4 6 3 6 ^ 3 =.o.W D ] W @. .Y 4 6 4 H - , - ~ O.Y 3 ] 6.D 4 J ] Q - 6 E ~ q ",
"E E : H P Q P 6 P O.^ % ^ T - 6.I w - 4 4 4 T @.4 4 T $.~ L - 6  .o.} K ; } #.; L - W P P H - w = F Y 6 @.*. .- ..P 6 4 E ! w ; ",
"- U 6 Q T ~ ; ; = Q ] Q = = T L 6 6 Y #.=.=.J W 4 Y =.T 6 ; e - ..J ..J D ; H 6 - #.T H ; - , = e = D D - T  .4 ..= 4 6 ; 6 w w ",
"; 6 ; > 6 6 3 6 4 6 6 Q T = - 6 w R Y 6 F =.=.Y 3 O.O.L 6 - 6 6 T W J J 4 4 6 w : , : ; - S : w = D ; } ; D J W = ..6.O.O.; H : ",
"H O.H 6 6 3 6 6 - 6 - - : 6 : - & 6 Y 6 6 W ] W 4 H 6 ; w w w 6 4 L Q 4 - H 6 w I : ; = : 6 : : - ; O.=.=...K D ..7. .D 3 6 ~ H ",
"e O.6 Y ^ - L 6 ~ Y 6 - > & 6 ~ : - 6 : 4 ; H 3 6 - - w w : w 6 ' J - ^ w - : O.O.I w , : q = : H ; D P +.&.#.J ..Q H D 4 T E ; ",
"H H 5 w ~ T > 6 6 E ~ I L L , ~ ! : - - 6 5 6 6 6 w w w : , : 6 = T 6 / I ! > 6 Q E w ; : w * E 4 S = D L O.@.W O.J - Q T E 6 - ",
"4 - 6 6 6 ~ w : : 6 w : 6 6 L I ~ 6 : 6 6 - 6 w - q : * , , - & 6 6 6 I ~ : 6 6 3 L E w q : - E E - 6 4 4 3 = 6 3 4 3 3 6 w 6 6 ",
"6 6 w L - 6 S ; & : 6 w 6 6 6 6 E w 6 6 6 - & : : : * w ~ 6 - : 6 6 w w ~ E 6 6 6 F L : L : 6 6 Q E 6 - 6 6 6 4 ; 6 L 6 6 6 : : ",
"w w : > > : 6 L 6 E Q P : 6 Y 6 6 - 6 Y ~ e 6 6 w q q ( ~ w - w : 6 6 6 - ~ 6 L H 4 = 6 ; 6 I w - H = @.O.3 4 6 w - : w w : : w ",
": w > - - S : L 4 6 P O.Q 3 T T 4 4 ^ Q ] 6 w 6 ~ w w ! ! : , - e q 6 - - 6 6 ~ - H 3 @.= 6 E E H F H W O.4 H = ~ L 6 ! I , q * ",
"- L 6 : = ; 6 6 6  ...=.| S o.J D } ..o.; D H P Y w w : ~ r q : : 6 : : : : 6 : D O.} 6...6 #.W 4 | | | ; 3 4 Y I 6 , w ~ w : : ",
"I I w : , : w E ; D T  .*.J 4 D o...@.=. .; ; E ~ & L w , : : w w E L L = : S E Y H 4  .=.T H = ..| *.=.X.; 4 E E w q * , , , w ",
"I U 6 : : - 6 T T H % D 4 ..6 L G &.*.; - = , ~ w w - ; > 3 4 H E E % : : : 6 6 - = = = ; ; ; H 6 3 H ; H 4 6 6 q , w w L 6 - 6 ",
"~ U L : 6 > w 6 ; ; 3 Y T E T T ..} H = 6 : : r w 6 L ; 4 D L ' E E : : : 6 - 6 - E H = - : w 6 : E : w 6 - ~ q : 6 w : 6 6 6 I ",
"E T 6 - w L w 6 6 L 6.6.#.= E : = > - q * w : L ~ Y Y | 4 ; ;.=.Y I w - : 6 : E 6 ~ w L , = , : w , I w 6 ..Y L 6 : 6 6 w w 6 T ",
"Y : = L Q I L 6 H O.O.r w w : w > L ~ ~ ~ w : = & Q J W X.4 ; X.T H - - w w L ~ w w R I , : > I 6 : $.6 - 7.6 4 6 - & 5 : 6 6 ^ ",
"6 4 6 T ~ U 6 6 - 6 L > : H 6 6 S P P 4 H = 3 - D 6 H ] O.6 6 6 H P - T L H E I 6 6 w L > w : q 4 W ] @.W J J F 4 6 6 6 6 6 - 6 ",
"4 4 6 > 6 6 : - H P I W D - H - J W 6 = 6 H L E Q = 6 - 6 - w 6 4 K 3 +.Q 6 I > H > : > - ; ~ O.6.| G o.J G W ' @.#.Q 6 & w w ~ ",
"3 H R 6 w - 6 - 6 4 3 Q L D 6 6 D = - H : ^ E E I ; T S 4 T 6.; 4 ; 4 =.P ; ; H H 6 ; Q - 6 w 6 J ;.| G K K ' ;.W 3 6 6 6 q ~ ~ ",
"#.Y ^ 6 = ~ E - > H 4 ; K ; 4 *.6.*.] H 6 S , ~ ~ L 6 ; W =.*.4 ..| K *.; D = T T 6 ; O.L H ^ 4 4 4 o.X.G 4 o.T 6 6 6 : : w I w ",
"+.^ - L ~ ~ 6 - ; 6.J 3 ; ; o.} &.| W H - - > - L E 6 3 6.] 4 4  .&. .J Y 6.=...4 ; H O.J ^ - 6 6 4 Q T W ; 6 6 6 w : * w 6 5 6 ",
": O.> - w > = 6 6 =.6.P S X.J ..+.W ; 4 ^ E : 5 H 3 H ;  .Y 3 6 ; K =.K D 6 6 - 6 ; ; ; Q Q = T R w - 6 w 6 & w w R w 6 6 6 - H ",
"; ; H w : : = & H ] ....4 D L ..6 6 6 S T ; = H | @. .; D D - D ; ; Q Y = 6 - ; ; = L @.; ; O.^ L , w w 6 w 6 q : E ~ w 4 6 3 W ",
"6.L H ^ L - 6 : ; - ~ O.H S @.O.6 4 4 6 ; - ..7.=.| | 4 D | 7.$.=.D - 6 L - > , - - L W O.P O.6 : 6 w q ~ w q : : w E E 4 6 K =.",
"; ; > Y I ; L 6 - 6 6 Q ^ 3 - ; } ..L ; 3 - = : H = 6 ; o.*.*.^ 6 - I = > : w E 6 : = : ^ Q 6 w > - 6 L E 6 Y : : 6 6 T 4 4 @.;.",
"H - ; H ^ Q : , 6 L : = : L 6 Y +.=.=. .; ; L > E T T 4 6 6 3 - ; > - : , w : ~ E 6 - ; 6 = 6 - 3 4 3 ~ ! - q w & w 6 6 ; J ;.G ",
"H L D S = w 6 S - 5 > > w I , * : > - - 6 & 6 E P 6 6 H w : H 4 6 I 6 6 : = L ; Y ; D @.6 > , : 6 6 6 w I w w q w : w E 6 Y  .4 ",
"; Q 4 Y ~ ^ : : : 6 w , : : : : > , w w & - L 6 6 Y - - S : w 6 6 ~ P 6 w ~ O.4 S 4  .&.; - : w 6 E 6 - 6 w ~ L w 6 I E ; Y 6 6 ",
"K ; 4 O.O.; w S I I I w , : : 6 : : r : : w - ~ : ~ ^ 6 ; L : w Y H E E 6 = ^ O.K D &.Q D 6 : = 6 ~ Y L 6 H O.3 3 ^ T ^ 3 6 6 w ",
"S D ; H D 3 4 T E H H = 6 m m m m m m m m m m T : L L L 3 4 ^ - ; 4 D 6 - H > 6.} K ..D H H 6 : 6 w Y Y 3 W 7.' 3 J 4 6 3 & - - ",
"*.*.o.; ; ; H ; 6 6 - m m m m m m m m m m m m m E.E.E.E.H Y ^ S &.W S 4 ^ T 3 ; | K J Y  .] ~ : 6 : w E 4 K *.*.D ; D ; 3 > 6 L ",
"=.| '  .D  .O.=.6.] M m m m m m m m m m m m m m m E.E.E.E.E.E.E.E.7.6 Y - ..#.Y H L J K E.E.E.E.E.E.E.E.E.E.G *.; G o.;.O.~ I w ",
"K  .o.J D T W ] m m m m m 4.4.4.m m m m m m m m m E.m E.E.4.E.E.E.E.E.E.E.- 6.#.T Q E.E.E.4.4.E.E.4.4.4.E.E.E.X.K X.X.$.T - w w ",
"= K | 4 = Y O.m m m m m m m 4.4.4.m m m m m m m m m m m 4.4.E.4.4.4.E.E.E.E.6 6 E.E.E.E.E.E.E.m u E.4.E.4.4.E.4.E.W W Y 6 w & q ",
"; ; 6 Y T 6 m m m m 4.4.4.4.m m 4.4.4.m m m m m m m m m 4.4.4.4.E.E.E.E.E.E.E.E.E.E.E.E.E.E.E.m u E.4.4.4.4.4.E.E.E.6 6 6 & : w ",
"D O.=. .H m m m m m m m 4.4.4.4.4.4.4.4.4.m m m m m m m m m 4.E.E.4.4.4.4.E.E.E.E.E.E.E.E.E.E.E.m u 4.4.4.4.4.4.4.4.E.E.6 6 I w ",
"Y ] T 6 4 m m m m m m m 4.4.4.4.m m 4.4.4.m m m m m m m m m m 4.4.4.4.4.E.E.E.E.E.E.E.E.E.4.E.E.E.m 4.4.y y y 4.4.m m u u m E : ",
"- > 6 6 m m m m 4.m m m m 4.4.m m 4.4.4.m m m m m m m m 4.4.m 4.4.4.4.4.E.4.4.4.E.E.E.E.4.E.E.4.4.4.4.4.4.4.4.4.m m m u X X X : ",
"L 6 L L m m m m m 4.4.4.4.4.4.4.4.4.4.4.4.4.4.4.m m m m m 4.4.4.4.4.4.4.4.4.4.E.E.4.4.4.4.E.E.4.4.4.4.4.4.m m 4.m m u u u X u , ",
"6 > I m m m m m 4.4.4.4.4.4.4.4.4.4.4.4.4.4.4.4.m m m m m 4.4.4.4.4.4.4.4.4.4.4.E.E.4.4.4.4.E.E.4.4.4.4.4.4.m m m u u u u y u 9 ",
"L 6 : m m m m 4.4.4.4.m m m 4.4.4.m m 4.4.4.m m m m m m 4.4.4.4.4.4.4.4.4.4.4.4.E.4.4.4.4.4.4.4.4.4.4.4.4.4.m m m u u u u y u q ",
": 6 m m m m m m m m m m 4.4.4.4.m m 4.4.4.4.m 4.m m m 4.4.m 4.4.4.4.4.4.4.4.4.4.4.4.4.4.4.4.4.4.4.4.4.4.m 4.4.m m u u u u y u w "
};
