/* XPM */
static char *_6828_0942eca385494130ffd669bdec0b202119c8e8bcdf3bac10f0aad98168a341b3[] = {
/* columns rows colors chars-per-pixel */
"64 64 55 1 ",
"  c #080A14",
". c #090A14",
"X c #1E3616",
"o c #1F3616",
"O c #1E3716",
"+ c #1F3716",
"@ c #1E3617",
"# c #1F3617",
"$ c #1F3717",
"% c #263A16",
"& c #263B16",
"* c #273B16",
"= c #263A17",
"- c #263B17",
"; c #273B17",
": c #241526",
"> c #241527",
", c #251527",
"< c #341C26",
"1 c #341C27",
"2 c #351C27",
"3 c #341D27",
"4 c #4C2A32",
"5 c #4D2A32",
"6 c #4C2B32",
"7 c #4D2B32",
"8 c #4D2B33",
"9 c #2D4217",
"0 c #2C4317",
"q c #2D4317",
"w c #344C1A",
"e c #344D1A",
"r c #344C1B",
"t c #354C1B",
"y c #344D1B",
"u c #354D1B",
"i c #5E761E",
"p c #5F761E",
"a c #5E761F",
"s c #5F761F",
"d c #5F771F",
"f c #466920",
"g c #476920",
"h c #466821",
"j c #476821",
"k c #466921",
"l c #476921",
"z c #7A4840",
"x c #7A4841",
"c c #7B4841",
"v c #7A4941",
"b c #AD7756",
"n c #AD7657",
"m c #AC7757",
"M c #AD7757",
/* pixels */
"o&&oo&MnMxxxxxM27MMMMMMMMMMMMMmMxxxx777777xvxxxxvxz77777777&u&oo",
"&*&%MMxcxxxxxx17MMMMMMbMMMMxxxxMMx77677777xxv77xxxx77777777o%oo&",
"&&71177zx>>>xc7nMMxMMMMMMMMMxxxxx7777777777xxx77xx7767x77777&&&&",
"y...1777cxxxxxxxxMMxMMMMxxxMxxxxx7xx777xxxxxxxxxxxvxxv777777&&&y",
"l1.11177v77xxxxxxMbzxxxMMxxcxxxxxxx7777xxxxxxxxxxxxxxxx777777&&y",
"y1>1111677xxxxxxMMxvxxMMxxxxxxxxxxx677777vxx77zxx777xxxx77777&&y",
"&1>1131757xcxxxxxxxxxxxMxxxxxxxxxxxx777x7xxxx77xxzx75777777777&&",
"*1>1<1177xx7xxxxxxxxxxxxxxxxxvxxxx6xx77zxxxzxxxxxxxx7577777776&y",
"y<>>>3317777xxxxxcxxxxxxxxxxxxvxxz777757cxxxvxxxvxxxx7757711757r",
"yy11111111776x77xxxxxxxxxxxxxxxxxxxx77xxxxxxx7xcxx7xxx777771171&",
"yyu<12111111177vxx7xxxxxxxxxxxxxxx77777x77xxx77xxxv7xx777757111%",
"&&&*&&&&&ll111167x7xxxxcxxxxcxxxxxx777777xxxxx77xxx777777117111&",
"%&&&yyy&&lpy&y1177xxx7xxxxxxcxxxxxx7777xxxxxxxxxxxx77477711111&y",
"y&&&&&yy&&ss&uy1777x7xx7xxxxxxxxx7xxx777xxcxxxxxxxvx77117<111*yd",
"*o&o+&&&%&ylyy&&&7777x77xx7xxxxxx777x7177xx77x77x7xxx771171<ysss",
"&&&oo&&yssytelspjy*7777xx77xxx7xxx77771177x87xx7777xxx71111yllsy",
"&y%&&&%&%ljyjssj&ooo777xx7xxxx777v76171177777xx777777771211lhll&",
"&y*&&yyu&&y&lfy&oo&&o777777x7xx777771111177177z77777777113&eyy&&",
"y&&y&&yyy&&&y&oo+&&&&&..777x777771711111111117771771771111&&&&&&",
"&&&yu&&Xo&&&&#o&&yy&&&..7>777771111111sds1111111177117111oo&&&&&",
"y&&&y&%&ooo*y%&&&&yyy%....7771<>>>o&%lusly&&&&%y11771111>-y&&&&&",
"ey&&&&&%&&##ly&&&&&&y......>7711>sy&lelly&&&&oooyl>>><11>>e&&ee&",
"yu-&yyu&ylyoey&ly-&-.......>>7111>lr%ll*&&eey&&o&&e&>:112>&=yy&%",
"oy&yey&&&ylyooyr&*y.... ..sy>>671>jr&&&&%jy&&&oo&&&&.>>>1>&%*&&*",
"%*&%*&&&&&%yy+oo&yy.....&ll&&>>71>>y&&&&&&oo&&o&o%&l...>,>skl&&&",
"&l&&-&%&oooooo%o#&....ly&;&-&&>>>>>-*-&&&&o@ooooo&js..>>>sl&&&y&",
"ql&yu&&&yyoooo&yoo....&&&&&&&&>>>>>y&&%lky&oooo&&&%..>>,>l&&&yy&",
"&-&&yu&&&yey&&&yr....*&&&&&&&&&o>>>ey&&&yy&&ooou&&...>>>l&&yyy&+",
"%&&&&y&&#o&&&&&yy ..&o&&oooooooo>>>yy*-&%yy&&ooyy&....&&&%*&&&&+",
"&&&&&%*oo&&&&&&&y&&&&oooooo&yXoo&&&&uy=&&&&&&&&&yy&&&&&&&&-&&&o+",
"&&&&o#oy&eyro&y&&&&yy&&%&&&yy&o-*&&&oy&y&&&&#-y&&&&ll*&&&&&=&&o-",
"&&ooo&&&&&ylu&yy*&yyl-&-y&&yyooo&&ooo&&y&&&lo&ty;&yyl&&&u&&yyooo",
"o&&oO%&&&jlsk%le*lll&&-yy&&&y&#oo&%oo&&&&llsl&ly&lkk&&-yy&-&u&oo",
"&y&*oo*y&&ylsy&%ljssl&&yy&-*&oo-&y&&oo%yy&&lsy&&llssl&&ye%oo&oo&",
"yy&o#X&yy%oo&l&yyss%oo&y&&&%&*&&yroXo-&&+oXo&&&&%&&&&%%&&&&&&&&&",
"ye&o-&&*&&oyyyyyll&oooo&&&&&*&ylurX&oooooy&ooo-*&&*&&&y&&o&&&&&y",
"yw-&&&y&&&asloyo#oooo&o&yuul&&sseyo#o&&y&yy&&oo&%&y-%ly&&oo&&&&y",
"y-&&yy&&&lky%&*&&&yye&oo&yyyl%&ly&oo&&-y&&uy&oo&*-l%&s&&*&oo&&&u",
"&&&yyy&&&&&&&&-%*yy&&ooo&&&ll&&&&y&&y&yy&&&*$o&&&elsyey&&&&&#&&*",
"&&&&&&oo&yur&&%%yu&&&&yyyo&&oo&&&y&lu&u&-&&&o&ylslylyyyjsjy%#&&y",
"&&y&-o&X&&&yr&&&&&&&&yyyy&y-&ys&&&&sy&&&&&&y&&&&yslreylsy&&&@&yy",
"lyy&&yyo&&&&y&&sssl%&&&yy&&&yss*llyd&&&yy&&l&yy&&yljy&ly&*&#o&y&",
"le&&yy&o&syo&&llsly&&&o#yu&&sk%&kslyyisl&&&lyy*&-&yye&-&&&XX&&&*",
"&l&&&&oo-day*lylly&%yy&o&&%&ly&&&ysy&&&&&&-*ey&ty-&&;&&&&y&&*--&",
"&&-&&+oX&lgl&&yl-&&&yooylgl&&&&&&&uy&oo#+&yl&-ly&&&&&-+o&yy&&&&y",
"s&ey&ooX#&ely&ll&&&-oolssjk&&gsps&&&Xo&&oX&rlyl&&O&&y&-#o&uy&&ys",
"&o&yy&&&o-&er&&&lluOooo&&&&&lssu&o-*o&&y&oo&ry*&oo-wy&&&o-&y&&sp",
"&&&&ye&&&&&&&&&ylssg&&&&yyy&&&-&&oooo&&yy&o&&&&oo&&yy&&;Xo&&*edu",
"&u&&&*%&@o&%&&&o#+oo+o&ye-&&&&&&&y&&&&&&y&-l&*oo&&&%y&&&&o&y&yl&",
"&y&yyy&&o#o&ooXoo*%oo#&-&y&-&&&&&yt&&rl&&&ls&&o%*e&&&&y&&&ry-y&&",
"u%&gl&&&ryy&o&oooo&oo&&y-uy*&&&&y-yy&&yly*sy&&oo&yy&&rl-*eyy&&&&",
"&&&&&-&ry&&O&&&&&oooo&ty-&y&&&y&&&&&&&&sjyly&&&o-&yu&ysl&y&*o#oo",
"asl&&&%*&&&oyyy&&&o&&&ylooy&&yy&sy&&yy&&lry&llyoo&&y&ysd&&&&&%&&",
"slll&llssl&oo&yy;&+y&&l%&&*%lyy%dsyu&lly&eyyy&&%o&&&&*yd-ylslyr&",
"yllr&yygo&&oo-&ru&oey%oo--&&ll&&lly&&&slyy-y&-&oo&&&yyylrlsly-&&",
"oylooyjoo*&&oo&&&&&yl&&&llsl-&&&le&&&&&&uy&*&##o&yygsdlyyyyr&&##",
"&*qyr-oolly&%o&&&&&&ll*lssy&&&&&&y&&#o&&&y&&&%&o&-&&&yry#o&&ooo&",
"&lsl&&&lyy&uo+&l-&&&&%&ls&olfyy&&l%&ooo&&&*o&&&&oo&-&&oooX*&&*r&",
"0lq=&&&&&&%&-o&ll&%yldsy&&lsssl&yl&oo&oo%%ooo&y&&oo&&Xo&yoo&%&y&",
"&&&qqq&&&qq&o+&ll&ysaljg&&lyll&o&&&o-y&oooo&&&yy-&o#Xo&yy&oo&-&X",
"&&9q*&&&&q0Xoo*l&&&ylslly&yej&&#&&*o*y&&&oy&&&;y&%&oo&yyy&&o%-&$",
"*=y&&&yy&&yo+&&&&&&&&&&&o#*&&&oo&&&o&yy&&&e&&&&-r&&&&&y&&&&o&&oo",
"&%*&o&&y&&&&o%y&&&&ll&&&&&%&&&o*&&&ooy&y&&uy+&y&&&&ll&&-&-*&&%o&",
"*&ooo&&e&*&lo%yr&&yyl&&&y&&ey#oo%&o$o&&y&&&lo&yr&%yrl%&&y--yyooo"
};
