/* XPM */
static char *_7380_a880653fce70715e0b7d690c623508d6b0e47cad31504a65d5af3fc099dababe[] = {
/* columns rows colors chars-per-pixel */
"64 64 193 2 ",
"   c #020101",
".  c #010A00",
"X  c #160202",
"o  c #081103",
"O  c #10100E",
"+  c #090A14",
"@  c #131C17",
"#  c #270000",
"$  c #330100",
"%  c #281010",
"&  c #0E2901",
"*  c #132A03",
"=  c #152A0A",
"-  c #163403",
";  c #1A3205",
":  c #1F3804",
">  c #1B320B",
",  c #17380D",
"<  c #1F3113",
"1  c #372505",
"2  c #36260B",
"3  c #392E0C",
"4  c #233502",
"5  c #233D03",
"6  c #27310C",
"7  c #223A0B",
"8  c #353403",
"9  c #222413",
"0  c #22251F",
"q  c #382913",
"w  c #253114",
"e  c #223C13",
"r  c #2D3816",
"t  c #29391B",
"y  c #333410",
"u  c #241527",
"i  c #341C27",
"p  c #312222",
"a  c #302F27",
"s  c #353733",
"d  c #450303",
"f  c #431508",
"g  c #521F04",
"h  c #561314",
"j  c #76151C",
"k  c #462807",
"l  c #40300D",
"z  c #4E2314",
"x  c #53201F",
"c  c #443414",
"v  c #663319",
"b  c #691822",
"n  c #4A3820",
"m  c #533925",
"M  c #4D2B32",
"N  c #4A3335",
"B  c #692521",
"V  c #7A2322",
"C  c #7E2A2E",
"Z  c #673424",
"A  c #783121",
"S  c #7B382C",
"D  c #18410E",
"F  c #254005",
"G  c #2C4207",
"H  c #2F4903",
"J  c #27400C",
"K  c #2E4A0C",
"L  c #35500E",
"P  c #2A4214",
"I  c #294A15",
"U  c #2D431C",
"Y  c #284B1C",
"T  c #334712",
"R  c #314A15",
"E  c #36431E",
"W  c #354C1F",
"Q  c #375114",
"!  c #35511E",
"~  c #304424",
"^  c #364B24",
"/  c #395224",
"(  c #3D542D",
")  c #384432",
"_  c #444314",
"`  c #4A4A24",
"'  c #534021",
"]  c #445D22",
"[  c #455E2A",
"{  c #444238",
"}  c #6E4128",
"|  c #436422",
" . c #4A6321",
".. c #4A6428",
"X. c #4D692B",
"o. c #536623",
"O. c #506A28",
"+. c #4B6331",
"@. c #436930",
"#. c #536B32",
"$. c #506638",
"%. c #546A3C",
"&. c #4D783A",
"*. c #557330",
"=. c #5A7331",
"-. c #5B7439",
";. c #676F38",
":. c #627835",
">. c #3D3A40",
",. c #454546",
"<. c #574445",
"1. c #585244",
"2. c #4D4F50",
"3. c #565555",
"4. c #6F4C48",
"5. c #7A4841",
"6. c #665554",
"7. c #5C7540",
"8. c #5E7B40",
"9. c #637B43",
"0. c #7C6857",
"q. c #5D5C61",
"w. c #695E63",
"e. c #6C6668",
"r. c #767070",
"t. c #881B19",
"y. c #9D1522",
"u. c #AB1720",
"i. c #A41E25",
"p. c #AA1A26",
"a. c #B31729",
"s. c #B31C28",
"d. c #B41F30",
"f. c #892724",
"g. c #8C2925",
"h. c #88252E",
"j. c #992223",
"k. c #9B2129",
"l. c #96282D",
"z. c #873024",
"x. c #9C332A",
"c. c #992532",
"v. c #883331",
"b. c #983436",
"n. c #A82224",
"m. c #AC2A2D",
"M. c #A52130",
"N. c #B52730",
"B. c #BB2435",
"V. c #A83337",
"C. c #A53F38",
"Z. c #B53235",
"A. c #BE353B",
"S. c #C52435",
"D. c #CA3336",
"F. c #C43539",
"G. c #CE3039",
"H. c #D1383D",
"J. c #914C37",
"K. c #993544",
"L. c #AB2D42",
"P. c #B93541",
"I. c #C73541",
"U. c #935249",
"Y. c #9A5B5D",
"T. c #B5494B",
"R. c #886858",
"E. c #9A645C",
"W. c #A7635B",
"Q. c #AD7757",
"!. c #A55D61",
"~. c #996667",
"^. c #95696B",
"/. c #8E7B74",
"(. c #A86F73",
"). c #C94547",
"_. c #D74C55",
"`. c #E35D61",
"'. c #D4696E",
"]. c #E66568",
"[. c #7F8778",
"{. c #88857C",
"}. c #918579",
"|. c #9D7E83",
" X c #8A8684",
".X c #958D89",
"XX c #9B9A9B",
"oX c #B99E9A",
"OX c #B2A39A",
"+X c #AE9FA3",
"@X c #B2A3A5",
"#X c #D69E9F",
"$X c #DDB7B9",
/* pixels */
"> ; w 7 * e w 6 7 Q | &.@.:  ._ 4 T #...4 F 5 R / e > e ~ t 2 2 f z k f g h k k 4 @.@.&.@.4 o.H F | | | 4 5 7 W U P 7 , I e > - ",
"e J 7 w > , e 6 6 7 5 +.*.Q F - / I J ! R 7 - ! P 6 c a < e 9 0.R.R.0.R.R.R.R.0./ e , $.#._ 8 T  .o.*.:.#.5 : U U 6 > > , : ; J ",
"; 7 R e D , > > 6 7 7 7 J : : P , < e P - , , - t q f 0.0.[.[.[. X/.{. X X{./.{.{.r.}.}.^.R.4.U.g k F D 7 6 e P e w = 6 r w < P ",
"! T / e Y D , , 7 * e > , < P , , P ; > I W P r q h !.!.}.OX.XXXXXXXXXXX.X X X X X.X|.|.|.(.'.(.U.J.' ' n 3 6 > ; 7 6 r w e e I ",
"@.U 7 4 P ! J D e > , , , * = = < > , e - ! T 1 /.~.Y.(.oXOXOXOX+X+X@X+X+X+X+X@X+X@X+XoX$X$X$X#X(.).K.h.h.h 3 6 - 7 e E > ; P ^ ",
"R : 7 6 K I 7 T c m 2 2 q c q p 1 2 3 3 3 c Z W.W.U.C C Y.Y.E.~.^.^.^.^.^.^.^.^.~.^.~.~.(.~.(.~.h.x.M.p.i.f.A g 3 6 y _ ! : : W ",
"e P T R I : _ v j V.V.V.b.J.b.b.b.C.T.T.C.T.C.A.n.j.k.j.f.h.c.c.h.v.v.h.b.l.l.b.b.b.c.c.V.V.M.P.V.L.N.I.s.m.m.x.A g k _ / J : : ",
"7 6 6 5 _ 1 J.C.Z.F.I.I.T.'.'.`.]._.F.F.D.F.D.G.S.F.N.Z.V.Z.F.G.Z.C.V.Z.A.N.).].].]._.`._.P.P.'.P.P.I.I.P.B.I.B.Z.x.A k T 5 7 R ",
"^ ; 8 k g J.Z.I.H.Z.l.C S v.b.).I._.G.G.S.D.D.D.D.F.A.A.A.F.G.G.F.F.A.A.F.F.F.).).).C.G.I.P.P.T.l.V V z.y.P.I.F.G.Z.j.v.k 5 ! I ",
"/ ` k U.C.Z.F.L.y.f.d X # # B v.L.B.S.S.S.D.H.D.F.F.A.A.F.F.G.G.F.B.N.n.a.a.a.n.j.n.n.n.d.Z.'.K.h $ X X B f.L.Z.D.).).g.k ! I D ",
"E c Z j.G.G.P.c.b f z N p   4.x j c.s.S.s.p.p.u.u.j.i.i.k.n.i.u.a.p.i.p.n.p.p.s.n.y.p.p.p.c.V x z + { % m $ j P.I.S.L.v.k ^ - D ",
"e c B t.d.B.M.j $ ,.  >.>.@   N $ C y.L.s.p.u.n.n.n.i.n.M.y.i.n.u.p.p.M.p.p.u.u.y.n.s.i.c.K.# <.X O 1.p 9 6.d K.P.P.M.v.2 7 J , ",
"7 3 f h l.l.l.h p >.@ 2.>.2.u M % B l.B.d.a.p.p.k.n.a.a.a.u.u.s.p.s.N.d.d.s.a.s.N.s.p.N.m.B % q X p 3.3.% 6.x B L.L.b.} 3 5 y Q ",
"^ y ' $ j c.C h <.0 ,.3.r.r.3.N { $ l.p.d.N.B.m.m.m.s.B.S.B.N.N.N.N.N.N.d.d.B.N.u.N.m.m.c.# 6.0 s e.w.e.3.p 4.h h.l.A g 8 5 8 ;.",
"> : 9 f j c.h.h <.,.2.e.6.w.<.<.m $ V y.M.M.m.N.m.m.N.N.s.N.m.m.m.m.n.s.i.p.i.i.n.n.t.j.C # 3.,.2.e.q.e.4.N 6.q B Z ' 8 L =.:.:.",
", 7 6 1 C b v.$ a s O <.<.6.0 0 9 m B V A V z.g.z.g.g.g.g.g.g.z.A z.g.g.f.g.z.A z.z.z.A z 0.0 0 + a 3.3.q { p ` m l 8 _  . .:.H ",
"7 ^ 7 6 3 l l p @ { o s s . . {   w 2 2 c ' 2 1 1 l 2 1 2 2 l k c c 3 c 3 ' c l 3 c _ ` ` 6 . )   @ ,.@ 9 1.  7.< 6 5 +.O.O.X.: ",
"J P 4 7 J ^ ~ ` t @ 9 ) s   2.s w = e P > t ! , e > w < e w 7 7 e E 7 7 H R P 4 4 F 8 #.[ e ~ ) s O ,.@ { . %.U ^ P J R R J 5 J ",
"J J J R 7 7 e ) ~ a o w 9 @ w 0 > < P - > 7 7 7 ; 7 > e > P 7 7 ^ 4 7 T W 5 U 5 F 4 7 e U ^ ^ w o 0 0 0 t E W R : J : - 4 7 7 7 ",
"J 7 5 W Q e 7 e > < U < U w < < t U ^ 7 F : R 5 4 7 P ^ P e e 7 5 : 5 7 7 : #.-.#.O.7 7 e > 7 e t w w e > 7 > : 4 & - D J 7 7 7 ",
"I J 7 e U J e ; ; > ; : W > P P e 7 W R R 4 X.5 5 R P 5 7 4 / 5 -.L 4 - 7 %.J 7.#.R : : t > 7 ^ ~ ^ r e $.7 - 4 J J J 7 : > e 7 ",
"W W 7 7 7 ; 7 7 e : > 5 +.R 7 ; 7 7 > 5 Q 4 ..=.: Q 5 J 4 7 ^ 4 -.O.Q F [ L O.X.T : Q.Q.Q.Q.Q.Q.Q.Q.Q.Q.[ -.F 4 K [ / 5 J ^ ^ Q.",
"W W > J I ! I 7 I X./ & / R ; %.U e ; 5 F 4 Q %.4 F R %.^ P ; 7 ..O.| Q D [ $.5 P Q.Q.Q.5.5.5.Q.Q.5.5.Q.Q.Q...; X.I J Q.Q.Q.Q.Q.",
"; Y 7 W R W 5 7 - ! [ / - - R P J 7 T $.-.-.K L 5 T 7.R 7 : e 4 X.K X.K 5 : J Q.5.Q.5.5.Q.5.Q.i M Q.Q.Q.Q.Q.Q.Q.X.- Q.Q.Q.Q.5.5.",
": e : 7 7 7 5 7 5 7 7 W W ; ; 7 e t E J G -.-.T 5 +.+.P 7 ; 7 7 R R K K 5 : Q.Q.Q.5.5.5.5.5.Q.i N Q.Q.Q.Q.Q.Q.Q.Q.Q.Q.Q.Q.Q.Q.Q.",
"J [ J 7 7 5 7 7 > 7 ; ; > 7 > ; ; 7 P 7 7 R ..Q 4 7 7 7 e e e 7 4 R ! F Q.Q.5.5.5.5.5.5.5.5.u M Q.Q.Q.Q.Q.Q.Q.Q.Q.Q.Q.5.5.5.5.Q.",
"r +.7 R ^ ; P 7 W P 7 ; 7 * 7 ^ > ; 7 4 5 : J 4 7 ; ; e e > e > ] J M i i M M 5.5.u u u 5.5.M Q.Q.Q.5.Q.Q.Q.Q.Q.Q.Q.Q.Q.5.5.5.5.",
"7 J 6 e ^ R : 7 7 W ^ U e e e W ~ > ; ; 7 6 7 7 7 e e e > w > 7 - + + + i M M M 5.5.5.5.5.5.5.5.U.Q.Q.5.Q.Q.Q.Q.5.5.5.Q.5.5.} 5.",
"5 ; J 7 7 ^ , > > 7 e > 7 7 P U ^ 7 > 7 7 4 7 e ; w = > < < ; ; 7 i + i i i M M 5.M M 5.5.5.5.5.5.Q.Q.5.5.5.5.Q.Q.5.5.5.5.5.5.5.",
"7 7 7 , ; e P , ; > 7 e 7 7 7 7 W P 7 7 7 ; * , > 6 = e ~ 7 ; > 7 i u i i i i M M M 5.5.5.5.5.5.Q.Q.5.5.5.5.Q.Q.5.5.5.5.5.5.5.5.",
"e P , P , > 7 P 7 W ! I > 7 R 7 7 ; 7 P ^ 7 7 6 e w e ) ^ e ; e > i u i i i i M M M 5.5.5.5.5.5.5.5.5.5.5.5.5.Q.5.5.5.5.5.5.5.5.",
"6 , , * ; , : P 4 7 I +.W 4 R R 5 5 / W +.7 e 7 ~ e e ~ ~ > < ; e i u i i i i M M 5.5.M 5.5.5.5.5.5.5.5.5.5.5.5.5.5.5.5.5.5.5.5.",
"; P 7 , - 7 7 7 F +.X.-...F O.K F | X.O.: F J I R e 7 > ~ t w 7 7 i u u u i i i M M M M 5.5.5.5.5.5.5.5.5.5.5.5.5.5.5.5.5.5.5.5.",
"U t e > w > e W : 5 R ..-.K : F O.X.#.-.X.: : W ^ * P e e > = e e W i i i i i i i i M M M 5.M M 5.5.5.5.5.5.5.5.5.5.5.5.5.5.5.5.",
"U Y 7 > ; ; 7 R R J & F : @.7 P H *.*.: ; ; < ^ e e ; 7 e 4 5 7 W U * i i i i i i i i i i M M 5.5.5.5.5.5.5.5.5.5.5.5.5.5.5.5.5.",
"W W P > 7 , e 7 : : : T R Q R I X.| J - 7 > > t w 7 J : : F P ] W W > > > 7 ; 7 ; W J i i i i M M 5.M 5.5.5.5.5.5.5.5.5.5.5.5.5.",
"W R 7 ; e r P 7 7 D 7.7.$.- W > - , ; w > < , P ^ R U  .5 : :.-.T U e ; > 7 7 U > W P P < > i i M M M 5.M 5.5.5.5.5.5.5.5.5.5.5.",
"P : - P / U , J J $.$.t e e = P , P ~ ^ ^ e ; - - Q K L o.: : o.R J ; * e e e ^ e P U U < = , i M M M M 5.5.M 5.5.5.5.5.5.5.5.5.",
"7 5 , R ^ Y 7 7 ; 7 7 7 > J > 7 D I R 5 7 ; 4 - F > J [ +.7 7 7 J I : R P 7 W W 7 > e P , e , w : M M M 5.M M 5.5.M 5.5.5.5.5.5.",
"7 5 7 7 7 7 , ; J R U Q F : J : K L J - J J e W / ; 7 5 7 : e 7 5 L 4 @.! 7 U 7 P : > , ; : ^ $.7. .M M M M 5.5.M M 5.5.5.5.M 5.",
"4 J E 7 P > 7 - e : : ! P 5 7 5 F - : J > ^ W W U : R P - R -.: 5 : 5 -.I : : 7 J 7 5 ! ; J e : K :. .H M M 5.5.M 5.5.5.5.5.M M ",
"$.R / 7 - ^ W ; : J 5 : L : : =.8.=.[ J 7 e < ~ ^ P : : Q -.*.5 X. .L =.7 F - R R 7 : +.P J / : F 5 X.o.H M M M M M 5.M M 5.5.M ",
"@./ ; e ^ ^ 7 ; : 8.K : : : O...*.| Q J ; ; , - P W 7 5 7.+.4 : ..*...K T 7.8.X.: : 7 +.K / ; J 7 5 / T Q : M M M M 5.M M M M M ",
"; +.7 ; 7 , - 7 7 -.7.R D o.K X.@.Q : 4 / W 7 7 J 4 J 4 ..R 4 J : L -.L 5 : 7 ; F : 4 5 Q ! ; R U e ; 7 e 7 + + M M M M M M i i ",
": : 7 e > > ; ; 7 [ #.+.4 F P X.7 7 7 : R : - P [ O...: F 5 - F : : / T - : ; 5 : , P %.5 : %.W P w e e 7 + + + + u M M M i i i ",
"7.P J / e ; 7 > - 5 ^ ..J D #.+., : F 7 - : X.9.7. . .5 5  .9.%.-.F - J D > = e ; ; e Q +.R +.7 > 7 e w + + + + + + u u M i i u ",
": : 7 R U : e 7 ; 7 7 W / 4 ; : | O.P : : ; - > J - F : O.=.=./ : , P ; > > P ^ 7 > - ; W / 7 , : > : + + + + + + > 7 u M M i u ",
"J ; 7 F ^ ^ > e 7 e > , : P J R @.-.-...: : P > W R R 5 7 7 7 : : 7 ; = w e , ~ W 7 ; : 7 - 7 ; 4 4 5 + + + + + + P 7 u M M i u ",
"J P F J - e 7 D ; > = e e U < = > , ; ; : - 7 W R 7 7 7 : < J : 7 U 7 7 7 ; P 5 R : F #.7 D < > < 7 + + + + + + < > e W u M u u ",
": ! 5 I ^ / > > > 7 e e ; > > > > > P < & > e 7 7 R ; 4 P : e : 7 W Y 7 e ^ @.4 F : ..*.4 ; > e 7 + + + + + + P e 7 U W u u u u ",
"L : 5 +.+.: 7 e U U W e w , , > , > t > > e - / , ^ / 7 : e 7 e T 7 / W > - ! +.L F *.! F 7 > - : + + + + + X.4 7 / R ^ 5 u u u ",
"D F : J F : 5 R ^ J 7 ; 7 7 e : e < = , > D ! R > P P P : 4 / > 4 5 5 7 : 7 , 7.| L X.F J J 7 > + + + + 4 Q 9.] 4 K 4 F 4 * u u ",
"=.-.*.: : 5 J : 7 7 > : U / W : , e w w P > I X.J ; ^ - J T ^ D *.Q 7 : / R : : ..L K P X.[ ^ > + + + + 4 L =.=.F : 5 4 : , u u ",
"-. .! O.F ..+.7.7.[ R - - 7 I / e : - ^ ; 7 +.5 5 ; : F | ! R : *.9.J R - +.%.R F P K L T D e > > e 7 4 F : H =.: H O.7.+.W U e ",
"L  .X.K F I L [ ; > ; : : 7 , ^ W e > W / 7 > - 5 : 5 J [ X.7 : O.] Q K 7 : -.$.R / J I P ; 7 > = e 7 7 K L K o.L o.o.#.R 7 e e ",
"; L  .4 - T +.5 : : 7 7 ; : > 7 > J 4 T [ J - J ..X.$.+.7 7 4 5 ..K F : 6 7 7 7 W R 7 5 : > 7 > > / W $.-.-.X.K H Q Q R 7 e * w ",
"4 7 7 R R 7 - ; +.+.W : , : , e : I 4 : O.+.: X.-.*.K : F F 4 D : R : J : & , e 7 W e ; 7 , 7 ; e 7 e 7 5 P ^ R : 4 7 7 7 * > e ",
"5 +.:...7 : 7 +.W / , U ; * 7 $.e - : 5 F : 4 X.-.: - X...T Q : J +.J : > ; 7 7 D P w ; e 7 e > = : 7 7 e e 7 : > - e 7 7 7 U e ",
"T ] R 7 5 I ; 7 > P < U 7 ; 7 +.[ : J R ] -.#.Q F : #.8.%.-.] : P @.7 * > w 7 > 7 > > , 7 e W e 7 5 ; > e ; = e ~ = < > e e E > ",
"> D 7 7 J e , P 7 P P - > > e +.+.F I 7.9.#.| X.: : ..R O...J > J P 7 ; P U > 7 > > 7 < > t U W ; 7 : > > 6 t ~ ( < > < r e e > ",
"e 7 e P P > : > e P P > - : 7 +.J J : W [ *.#.| Q J J I +.5 7 > , > 7 > , W e 7 7 ; P P 7 7 7 ^ 4 7 7 ; ; > ^ E E e w > J > > > ",
"7 7 U P > e ~ / 7 e U 7 > ; 7 7 : : > R 7 : F F - : 7 F J - > ; e e P > : ! P 7 7 7 / > 7 7 7 7 U 5 7 7 e 7 W e 7 e > ; e 7 ; w ",
"e 7 7 > - : P U 7 > e 7 , : ^ : J ; 7 X.[ : 7 5 5 4 : ; < D - e e w 7 ; ; R R P : D W U ; 7 W 5 P 7 7 [ +.7 7 : 7 7 7 7 e > 7 w ",
"> 7 ; 7 > 7 7 ^ J > 7 ..- 5 T W : P P R $.> , 7 R 5 7 / ) > > , < t w , ; 7 5 W J : : %.- 4 ! T ; r T / +.5 7 4 W 4 7 W W > ; > "
};
