/* XPM */
static char *_5331_6405843811b58619f8ec9181fb00a76b89b34d10475c75b8b034023e6cd6f348[] = {
/* columns rows colors chars-per-pixel */
"64 64 55 1 ",
"  c #080A14",
". c #090A14",
"X c #090B14",
"o c #090A15",
"O c #1E3616",
"+ c #1F3616",
"@ c #1E3716",
"# c #1F3716",
"$ c #1E3617",
"% c #1F3617",
"& c #1F3717",
"* c #263A16",
"= c #273A16",
"- c #263B16",
"; c #273B16",
": c #263A17",
"> c #263B17",
", c #273B17",
"< c #241526",
"1 c #241427",
"2 c #241527",
"3 c #341C26",
"4 c #341C27",
"5 c #351C27",
"6 c #341D27",
"7 c #4D2A32",
"8 c #4C2B32",
"9 c #4D2B32",
"0 c #4D2B33",
"q c #2D4217",
"w c #2C4317",
"e c #2D4317",
"r c #344C1A",
"t c #344D1A",
"y c #344C1B",
"u c #354C1B",
"i c #344D1B",
"p c #354D1B",
"a c #5E761E",
"s c #5F761E",
"d c #5E761F",
"f c #5F761F",
"g c #5F771F",
"h c #476820",
"j c #476920",
"k c #476821",
"l c #466921",
"z c #476921",
"x c #7A4840",
"c c #7A4841",
"v c #7B4841",
"b c #7A4941",
"n c #AD7657",
"m c #AC7757",
"M c #AD7757",
/* pixels */
"+--++----ykfz-zi-ikz->-iy---i-++%--++>---zzfl-zi-zzz->-pi---p-O+",
"-;-*#+-----kfi--titii--ii---+++-=p;*O+-ii--zfi--zzffz--ii-++*O+-",
"--i-=%O+%-;----------*>---++++--pt+%+*-;-*--*--i--->-----++---->",
"iup-i---O+--++>-+-*--i-----+++rzyp+---------i--i;>iii-->++>;---i",
"zi--ii--;&++%+++++-*-ii-----+zdfii++-iii->--f*ii-ii--++++--i--;p",
"i*-*-i-yii+@+-++++---pi---i--+-zi--%+-*ii--zfii--i---+O>---ii-*i",
"--tii;ip-+O+;*-#+;--i-ii--z--+;-*--++%+--i-zfz------++++---ii-->",
"----i---++---i----++j,---fz------*O+++++---izi-;*---OO++-i--i--i",
"i-->----+---yi-->*;+zf--kfi---iii--++-;pfsfzii-izff++++--i----iy",
"ii>---+#+---ii--iiiikfiizi*;---izi*-+;---izzzizzi--++----ii--ii:",
"iii-+++;-i-;i>-;--iiilfii----;--zi-;--;--*-uzi---#%+------ii-i;*",
"------=--zz-*-iii>-iipfiijzzi>---z---i-------;+%+++---iii;>i->--",
"*>--iit-*zsi-iii----;iiilki*---i---;ii------>-+--*&+izzfsi-;:--i",
"i--*--ii--df-ii---++O---------iii--it-;-zfff--+-ii-++-*zsf->--if",
"-+-O+---->izii------+O+->-->-ipi-+-ii---ijazz--+if--++--izz-ifff",
"---++--iffipizffzi--i-+++++--:-;,>-i--i-iikziz-iff----zzy-;izzfi",
"-i----*-*zzizffk-+++ii++#;+++;---p---ti---izi--zjz->izfz>--zzkl-",
"-i---iip--i-jzi-++;-+ii-+----*-->t--tti=---zz-izi---fsziii-iii--",
"i--i>-iii---i-+O+-------+-------i-;ii;-->*--pii------tiy--------",
">--iy>*++->--%%--ii---i-+--ii-i-------fffz---->--------+++%---*-",
"i---y-*-+++-i-;*--ipi-z=-rp---p-ft+--zpfzi;--;-iti--z-++--i-----",
"ti----;--;O+ji------i-ld-i--;>i-ffi-lizzi----+++iki-lf--izi->it-",
"ip>-iii-tzi+it-zi-----if>;ifi---kzzy-zz;--tip--+--p-zfz-zi-:ii--",
"+i-iyi---izi++ii--izfgii-ifi----zizi-----zi---++---*>yz+l---;--;",
"-;--;------ii%++-pi-igfi-zj--;--ipii----**++--+-#:-h--it+zfzl---",
"-z----;-++++++-++*---izi->->---->ii>;>--*-+++++++>kffzirzsz;--i-",
"ej-ii---ii++++-i++--------------ii:i---zli-99999999izszizz---iy-",
"----ip---iti---ii+++-----------+-i;ii---9999999999999zjiz--iyi-+",
"*----i-*++MMMMMMMMMM-+--++++++++---iMMMM99999999909999---------+",
"------;++MnMcccMMccMMM+++++-i++MMMMMMMM9999999ccc9997999-;-:--+&",
"----+%+McMccMcM49MMMMMMM---MmMMMMMcMM9n999999ccc999999999-=-->&*",
"-*+#+-MMMcccccM49nMMMMnMnMMMMMcccMcc9799999ccc99cccc999999-ii+++",
"+--+MMcccccccc49MMMMMMMMMMMMMMMmcccc99999ccccccxcc999999999-i-%+",
"-i94499bc222cc9MMMxMMMMMMMMccccMMc9999999ccc99cccc999999999%-$+-",
"i...4999cccccccccmMcMMMMcvMMccccc999909999ccc99cc7999c999999----",
"i4.54499c99bcccccMMccccMMccMccccc9cc99cccccccccccbccv9999999---i",
"i424444999ccccccMMccccMMMcccccvcccc999cccccccccccccccc9999999--t",
"i424444999cccccccccccccMcvccccccccc99999ccc99ccc999cccc999999--p",
"-42444399cx9cccccccccccMcccbcccccccc99c9cccc99cccc899999999999--",
"-422<4449999bxccccccccccccccccbccc9c99cccccccccbccc99999999990-i",
"--44444544999c99cccccccccccccccccc99999cccccccxcbccc99999944999i",
"zip444444444489ccxvcvcccbcccccccccvc9ccccccc9cccc9ccc9999994494-",
"zt--ii-+-fi444499c9ccvccxcccccbccc9999b99ccc99cccc9cc9999999444;",
"-z--:-++-gdi-z44099cxcccccccccccccc99999ccccc99ccc9999999349444-",
"-->--+++-zjz--i499cc9cccxcccccccccc899ccbccccccccc999999944444-i",
"f-ii-++O+-izi-zz9989cc9cccbcccccc9ccc99cccccccccccc9994494444-if",
"-+-ii---+--ii---z999c99cc9ccccccc999c949cc99c99c9ccc99944944->fs",
"---;ii---------izf9999cc99cccv9xcc9999499c99vc9999cccc04444--pgi",
"-i---;;-$+-*---+%#++99cc9ccccc999c9949449999c9c999999994444i-iz-",
"-i-uti;-+++-++++%-*++99999c99cc998974444499499c09999999444ii-i--",
"p--jz---iii-+-%+++-++-9999c9999094954444444469894994994444ii----",
"------:ii--@---->+++O-ii99999444444444*fz444444349944944..--++++",
"ffz---*----+iiy*--+---i2099444..fi--ii--zii-zzi+2299442...---*--",
"dkzz-jzffz-++-ii,-+i--29944422.*ffii-zzi-iiyi---4244442..o.fzti-",
"izzi-iiz+--+#>-ii;+ii229442....-zzi---fzii-i---++24442.....zi---",
"+iz++iz++>--++--;->iz22222.....-zi-----*ii---+#%-24422o....r--O%",
"-;eiy>++zzi-*+-,----<222df....---p--++---i-----+24422i......+++-",
"-zfz---zpi-p++-z--22222zf-+....--z--+++---;+---2242<--+.....--i-",
"eze>-----;--:+-zz22212fi;=z....-pz-++*%%**+++-22222--++-....--i-",
"---eee*--ee-+#-zz2222zjz--zi...+---+-i-++++;-22222+O++-. ...>*-+",
"--qe;-->-ew+++>z-;-izfzli-it...+---+-i---+y*-2222--++-i..X.+---#",
"-*i---yi--i++------>----++----++---%-ii---i-----y---;;i;---+;-O+",
"-*;>+>-i----+*i----kz-----*-;-+;---++i>i;*ii+-i--*-zz>----;---+;",
";-+++--i->*z+*iy--iiz---i--ii%+%*-+#%--i---z+-ip--iyz--*i>-ii+++"
};
