/* XPM */
static char *_7654_ca8c2fa0df4c26b00b14de4067487786f4083a5add226daa7925e43d1a026cbd[] = {
/* columns rows colors chars-per-pixel */
"64 64 192 2 ",
"   c #020201",
".  c #010A00",
"X  c #160202",
"o  c #081103",
"O  c #11100E",
"+  c #090A14",
"@  c #131C17",
"#  c #270000",
"$  c #330100",
"%  c #281010",
"&  c #0E2901",
"*  c #132A03",
"=  c #152A0A",
"-  c #163403",
";  c #1A3205",
":  c #1F3804",
">  c #1B320B",
",  c #17380D",
"<  c #1F3113",
"1  c #36260B",
"2  c #382908",
"3  c #233502",
"4  c #233C03",
"5  c #27310C",
"6  c #223A0B",
"7  c #353403",
"8  c #222413",
"9  c #22251F",
"0  c #382913",
"q  c #253114",
"w  c #223C13",
"e  c #2C3816",
"r  c #29391B",
"t  c #333410",
"y  c #241527",
"u  c #341C27",
"i  c #312222",
"p  c #302F27",
"a  c #353733",
"s  c #450303",
"d  c #431508",
"f  c #521F04",
"g  c #561314",
"h  c #76151C",
"j  c #462807",
"k  c #40300D",
"l  c #4E2314",
"z  c #53201F",
"x  c #443414",
"c  c #663319",
"v  c #691822",
"b  c #4A3820",
"n  c #533925",
"m  c #4D2B32",
"M  c #4A3335",
"N  c #692521",
"B  c #7A2322",
"V  c #7E2A2E",
"C  c #673424",
"Z  c #783121",
"A  c #7A382C",
"S  c #18410E",
"D  c #254005",
"F  c #2C4206",
"G  c #2F4903",
"H  c #27400C",
"J  c #2E4A0C",
"K  c #35500E",
"L  c #2A4214",
"P  c #294A15",
"I  c #2D431C",
"U  c #284B1C",
"Y  c #334712",
"T  c #314A15",
"R  c #36431E",
"E  c #354C1F",
"W  c #375114",
"Q  c #35511E",
"!  c #304424",
"~  c #354B24",
"^  c #395224",
"/  c #3D542D",
"(  c #384432",
")  c #444314",
"_  c #4A4A24",
"`  c #534021",
"'  c #445E22",
"]  c #455E2A",
"[  c #444238",
"{  c #6E4128",
"}  c #436422",
"|  c #4A6321",
" . c #4A6428",
".. c #4D692C",
"X. c #536623",
"o. c #506A28",
"O. c #4B6331",
"+. c #436930",
"@. c #546B32",
"#. c #506638",
"$. c #536A3B",
"%. c #4D783B",
"&. c #557330",
"*. c #5A7331",
"=. c #5B7439",
"-. c #676E38",
";. c #627835",
":. c #3D3A40",
">. c #454546",
",. c #574445",
"<. c #585244",
"1. c #4D4F50",
"2. c #565555",
"3. c #6F4C48",
"4. c #7A4841",
"5. c #665554",
"6. c #5C7540",
"7. c #5E7B40",
"8. c #637B43",
"9. c #7C6857",
"0. c #5D5C61",
"q. c #695E63",
"w. c #6C6668",
"e. c #767070",
"r. c #881B19",
"t. c #9D1522",
"y. c #AB1720",
"u. c #A41E25",
"i. c #AA1A26",
"p. c #B31729",
"a. c #B31C28",
"s. c #B41F30",
"d. c #892724",
"f. c #8C2925",
"g. c #88252E",
"h. c #992223",
"j. c #9B2129",
"k. c #96282D",
"l. c #873024",
"z. c #9C332A",
"x. c #992532",
"c. c #883331",
"v. c #983436",
"b. c #A82224",
"n. c #AC2A2D",
"m. c #A52130",
"M. c #B52730",
"N. c #BB2435",
"B. c #A83337",
"V. c #A53F38",
"C. c #B53235",
"Z. c #BE353B",
"A. c #C52435",
"S. c #CA3336",
"D. c #C43539",
"F. c #CE3039",
"G. c #D1383D",
"H. c #914C37",
"J. c #993544",
"K. c #AB2D42",
"L. c #B93541",
"P. c #C73541",
"I. c #935249",
"U. c #9A5B5D",
"Y. c #B5494B",
"T. c #886858",
"R. c #9A645C",
"E. c #A7635B",
"W. c #AD7757",
"Q. c #A55D61",
"!. c #996667",
"~. c #95696B",
"^. c #8E7B74",
"/. c #A86F73",
"(. c #C94547",
"). c #D74C55",
"_. c #E35D61",
"`. c #D4696E",
"'. c #E66568",
"]. c #7F8778",
"[. c #88857C",
"{. c #918579",
"}. c #9D7E83",
"|. c #8A8684",
" X c #958D89",
".X c #9B9A9B",
"XX c #B99E9A",
"oX c #B2A39A",
"OX c #AE9FA3",
"+X c #B2A3A5",
"@X c #D69E9F",
"#X c #DDB7B9",
/* pixels */
"> ; q 6 & < q 5 6 W } %.+.: | ) 3 T $.' 4 4 : T Q 6 > L ! r 1 1 d f j d f g d j 4 +.+.%.+.: X.G D } } } 3 4 : Q I I 6 , P w > - ",
"w H 6 q > , L 5 5 4 D +.&.W D - ^ T 6 Q W 6 - Q I 5 x p < w 8 9.T.T.9.9.T.T.T.9.~ w < #.@.) 7 J | X.&.;.@.4 : I I 5 ; > S ; - H ",
"; 6 T w S , > , 5 > 6 6 H : : L , w L w ; , w ; r 0 d 9.9.].].[.|. X[.|.|.[.[.{.[.e.{.{.~.T.3.I.f j D S 6 5 w w w q = 5 e q < H ",
"Q T ^ w U S , , : * w > , < I , > S ; > P E w e 0 z Q.Q.{.oX X.X.X.X.X.X X|.|.[.|. X}.}./.}.`./.I.H.` ` n 2 5 > ; 6 5 e q w w I ",
"+.I 6 3 L ~ : L w > , , , * = = < * H 6 - ^ Y 2 ^.!.U.Q.oXoXoXoXOXOXOX+XOXOXOX+X+X+XOXXX#X#X#X@X/.(.J.g.g.g k 5 ; 6 w R > : w E ",
"T 6 6 5 J P 6 Y x n 1 1 0 x 0 i 1 1 0 t 2 x C E.E.I.V V U.Q.R.!.~.~.~.~.~.~.~.~.!.~.!.!./.!.!./.g.z.m.u.u.d.Z f 2 5 t ) Q S 4 E ",
": L T T P 4 ) c h B.B.B.v.H.v.v.v.V.Y.Y.V.Y.V.D.i.h.h.h.d.g.x.x.g.c.c.g.v.k.k.v.v.z.x.x.B.B.m.L.B.K.M.P.s.n.n.z.Z l j ) ^ 6 3 6 ",
"6 5 5 4 ) 2 H.V.C.D.P.P.Y.`.`._.'.).D.D.S.D.S.F.A.D.M.C.B.C.P.D.C.V.B.C.Z.M.(.'.'.'.)._.).L.L.`.L.L.P.P.L.N.P.N.C.z.Z j Y 4 6 Y ",
"~ * 7 j f H.C.P.G.C.k.V A c.v.(.P.).F.F.A.S.S.S.S.D.D.Z.Z.D.F.F.D.D.D.Z.D.D.D.(.(.(.V.G.P.L.L.Y.k.B B l.t.L.P.D.S.C.h.c.j D Q P ",
"~ _ j I.V.C.P.N.t.d.s X # # N c.K.N.A.A.A.S.G.S.D.D.Z.Z.D.D.F.F.D.N.M.i.p.p.p.i.h.b.b.b.M.L.`.J.g $ X X N f.K.C.S.(.(.f.j Q P S ",
"R x { h.S.F.L.x.v d l M i   3.z h x.a.A.i.i.i.y.i.h.u.u.j.u.u.y.p.i.b.u.u.u.i.i.b.t.y.i.i.x.d.g l + [ % n $ h L.S.A.K.c.j R - S ",
"L x N r.s.N.m.v $ >.  :.:.@   M $ V t.K.a.i.y.b.b.b.u.u.u.u.u.u.y.i.i.m.a.i.i.y.t.b.i.u.x.J.# [ X O <.i 8 5.s J.L.L.m.c.1 H H , ",
"> 2 j g x.x.k.g i :.@ 1.:.1.y m % N x.N.s.p.i.y.t.b.a.a.a.y.y.a.u.a.M.s.s.a.a.a.M.a.a.M.n.N % i X i 2.2.% 5.z N K.K.v.{ 2 4 t W ",
"~ t ` $ h x.V g ,.9 >.2.e.e.2.M [ $ k.i.s.M.N.n.n.n.M.N.A.N.M.M.M.M.M.M.s.s.N.M.y.M.n.n.x.# 5.9 a w.q.w.2.i 3.g g.k.Z f 7 H 7 -.",
"> > 8 d h x.g.g ,.>.1.w.5.q.,.,.n $ B h.m.m.n.M.n.n.M.M.a.M.M.n.n.n.u.i.y.a.u.u.b.b.r.h.V # 2.>.1.w.0.w.3.M 5.0 N C ` 7 K &.;.;.",
"> 6 5 2 Z v c.$ p a O ,.,.5.9 9 8 n N B Z B l.f.f.f.f.d.f.f.l.l.Z l.f.f.f.f.l.Z l.l.l.Z l 9.9 9 + p 2.2.0 [ i _ n k 7 ) | | ;.G ",
": ^ 6 5 2 k k i @ [ o a a   . [   q 1 1 b ` 1 1 1 k 1 1 1 1 k j x b 2 x 2 ` x 2 j x ) _ ) 5 . (   @ >.@ 8 <.  6.8 5 4 ....@...; ",
"H L 3 6 H ~ ~ _ r = 8 ( a   1.a q = w w > w Q > w > q < w 5 6 6 6 I 6 6 K Y P : 3 4 4 @.] w ! ( a O >.@ [ . $.I ~ P H P T 6 4 H ",
"H H H T 6 6 w ( ! p o q 8 @ q 9 = w w ; 6 > 6 6 ; 6 > w > w 6 6 E 3 H Y E 4 I D 4 4 L 6 ! ~ ~ < o 9 9 9 r R E T ; H 4 - 3 6 6 6 ",
"H 6 4 ~ T w 6 w > > I q I q < < r I ^ 6 4 4 Y 4 3 6 L E L w w 6 4 4 : 6 6 : @.=.$...6 6 w > 6 w r q q w > 6 > 4 4 & - H H 6 6 6 ",
"P H > w I H w : ; > ; > ~ > Y w w 6 E T T 3 ..4 4 T I 4 6 ; ^ 4 =.K 3 - < $.H 6.o.T 4 : L > 6 ~ R ~ e w $.4 - ; H H H 6 : > L > ",
"E E H 6 W.W.W.W.W.W.W.W.W.W.6 * 6 6 > 3 W 4  .*.: W 4 H 3 6 ^ 3 =...W 4 ] W &. .Y 3 H > 6 ; w - ~ ] Y 3 ] =.D 4 J ] ^ : H E ~ q ",
"I Q W.W.W.4.4.W.W.4.4.4.W.W.W.6.E w ; 4 4 4 E @.3 4 Y $.^ L ; 6  .X.} W : } #.3 I ; W P T 6 - w ; F T 6 $.*. .- ..P H 4 ~ T w 6 ",
"W.W.W.W.W.W.W.m u W.4.W.4.4.W.4.W.6 Y #.=.=.J K 4 Y 6.W 6 ; w : O.J ..J D : H 4 ; #.P H : ; w - e ; D D ; W  .3 ..- 4 > : 6 w w ",
"W.W.W.W.W.W.W.m u W.4.4.4.4.4.W.W.W.Y H F =.=.Y 4 O.] Y 6 ; 6 6 T W J J 4 4 6 q > < > : - L > < - D : } S 4 J W - ..6.] #.4 H , ",
"W.W.W.W.W.W.W.W.m u 4.4.4.4.4.4.4.4.W.W.6 W ] W 4 6 6 6 w w w > 4 I Q D : 6 S w I > ; - , > > > : : O.=.*...K D ..7. .D 3 > ^ 6 ",
"W.W.W.W.W.4.W.W.W.m 4.4.y y y 4.4.m m u u m H > 6 ; > w L > w > ' J - E w : > O.] E 6 < > < - > 6 : D P +.@.#.T ..Q 6 D 4 T E 3 ",
"W.4.W.W.4.W.W.4.4.4.4.4.4.4.4.4.m m m u + + + 6 6 w w w > q > 6 - W 6 / I I w 6 Q ~ H 6 > w > E : H ; D L  ...W O.J 4 Q T E 6 ; ",
"W.W.4.4.4.W.W.4.4.4.4.4.4.m m 4.m m u u u + u w * q , > < < ; ; 6 6 > I ~ > 6 > 3 L ~ w q > ; E Q - : 4 3 : - H 4 3 3 ; 6 w 5 : ",
"W.4.4.4.4.4.W.W.4.4.4.4.4.4.m m m u u u u y u > > 5 = < ~ : ; > 6 : e w ! E H 6 6 F w > w > 6 6 ^ E H ; 6 H 6 4 3 6 L 6 6 6 > > ",
"W.4.4.4.4.4.4.4.4.4.4.4.4.4.m m m u u u u y u > w q w ( ~ < - w > 6 6 6 ; ~ 6 I w 4 : 6 4 6 I w ; H , $.O.3 4 6 w ; > w w > > w ",
"4.4.4.4.4.4.4.4.4.4.4.4.m 4.4.m m u u u u y u 6 ~ w < ~ ! > < ; w q 6 ; ; 6 6 ^ 3 6 4 o.; 6 E E H D H K O.4 6 ; E L w ~ I < < > ",
"4.4.4.4.4.4.4.4.4.4.I.{ m m m m u u u y y y u P I w 6 > ~ r < 5 6 6 > 6 > 6 6 > D O.] =...6 O.W D | | | ; 4 4 Y I 6 q w ~ < , > ",
"4.4.4.4.4.4.4.4.m m 3.m m m u u u u u u u u : E ~ * Y w < > > w w I w L - * L E T H 4  .=.T H - ..| *.=.X.4 3 E E w q = < < < w ",
"4.4.4.4.4.m 4.4.4.m m u u u u u u u u u u ; w ~ w w : > , 4 : 6 ~ E * , > 6 > > ; - ; - : : : H 6 3 H : H 4 6 > q < w w L 6 ; 6 ",
"4.4.4.4.4.m m m m u u u u Q T T ..} 6 - 6 > > r w 6 H > 4 D Y } E E > > > 6 ; 6 ; Q H - ; > w 6 > ~ > w 6 > ~ < 6 : w > 6 6 H I ",
"4.4.4.m 4.4.m m u u 6.6.#.- E > ; , > < > w > w E T P | 4 4 ;.=.Y I w - > 6 6 ~ 5 E L L < * < , w w I w 6 @.Y Y 6 5 6 6 w w 6 T ",
"4.m 4.4.m m m m w O.#.r w w > w H L ! ~ ~ w > - ; E J W X.; ; X.Y H * ; w , L ~ w w I I w , > I 6 > @.6 ; 8.6 3 6 ; * > > 6 6 ~ ",
"4.m m 4.m m m 6 ; 6 6 6 > H > 6 : P P 4 6 ; 3 - 4 6 6 ' O.6 6 6 H P ; T Y S I E 6 6 w S , 6 > q ; W ] $.W J J F 4 6 6 6 6 6 : 6 ",
"4.4.m m m m > - H T I W D ; H 6 J K H - 6 H L E E ; 6 4 6 : w 6 4 W 3 +.^ : ! : H 6 > w ; > ~ O.=.| G o.J G K ' $.#.^ 6 * w w ~ ",
"4.4.m m L > 6 ; 6 : : Q I D 6 4 S - 4 6 > E E I I 6 Y 6 : T =.: 4 : S *.P : : H H : : ^ - H w 6 J ;.| G K K ' ;.W 3 6 6 6 q ! ~ ",
"m m m 6 - ~ ~ ; 6 H 4 : K : : *.=.=.] H 6 L < ~ ^ w 6 : W =.*.D o.| K *.: H - T T 6 : O.L H ^ : D D o.X.G : ..T 4 6 6 > > w I w ",
"m m > w ~ ~ 6 - - 6.J : : : o.} *.} W 6 ; ; , - L E 6 4 =.O.4 : | *.| J T =.;...: : H O.J ^ ; H 6 4 E T W : H 6 6 w 6 = w 6 5 6 ",
"m O.> : 6 , - 6 H =.=.I S X.J ..+.W 4 4 ^ ~ 6 6 H 3 H :  .T 3 6 4 K =.K H : 6 ; D : : : Q Q - T T w ; 6 w 6 ; w w I w 6 6 6 ; 6 ",
"+ 6 H w > > ; ; H  .....4 4 I ..: H > 6 T 4 , H ] o...: D 4 - D ; : Q T - 6 ; ; : - P =.: : #.~ w q w w 6 w > q > E ~ w 4 6 3 W ",
"+ + H Q L - > > ; ; ~ O.6 S @.O.S : H : - ; ..8.=.| | 4 4 | 8.@.=.D - H w ; , < - ; < W O.T O.: 6 6 w < ~ w q > > w E E 4 6 K =.",
"+ + + T I 6 L 6 ; 6 6 E ^ 3 ; 4 } o.L : 3 > - > H - H : o.*.*.^ 6 , I * > > L E w > - ; ~ Q 6 w 6 - 6 e E 6 L 5 6 > 6 T 4 D @.;.",
"+ + + H E Q , < 6 L > - 6 L 6 T +.=.=. .: : H > E T T 4 6 6 3 : 4 > ; > < w > ~ E 6 ; 4 6 ; 6 ; 3 4 4 ~ E ; q w * w 6 6 3 J ;.G ",
"+ + + + - L S H - > , H < I < = ; , * ; 6 * 6 E Y 6 6 H 6 , H : 6 T 6 6 6 ; S : T : D @.6 S < > > 6 6 w I w w w < > w E 6 Y O.4 ",
": + + + + + > > > 6 < w , , > > , < L w & ; w 6 6 T : ; L > w 6 6 E U 6 w ~ O.: D :  .&.3 ; > w 6 ~ 6 ; 6 w ^ e w 6 I E 4 Y 6 6 ",
"K : + + + + + < I I E < q , > : = > r = > S : ~ > ~ ^ 6 : w > w Y 6 ~ E 6 - Q O.K D &.Q D 6 > - 6 ^ Y I 5 H O.4 3 ^ T E 4 6 6 6 ",
"4 D : + + + + T ~ H 6 - 6 6 w , w w > > > 6 ^ T > I T , : 4 ^ > 4 6 4 6 : 6 H 6.} K ..D H H > , 6 w Y T 4 W 8.' 3 J : H 3 * 3 * ",
"=.=.&.: : 4 6 4 H 6 ; > I ^ E : w > < w L 6 P ..H ; ~ - H T ^ 6 &.T H : ^ T : :  .K J P  .] ~ > > > e T 4 K *.*.4 : 4 4 > w 6 w ",
"=.| Q o.D  .O.6.6.] T - - 6 P ^ w 6 - ~ ; > O.D 4 ; 4 D } E P : &.8.H T > O.#.T H L J K P H L > > 6 6 3 4 4 G *.: G o.=.O.E I w ",
"K  . .J D T W ] - : : : ; H H I I w > E E H > - 4 : : 6 ] ..6 : ..' W J 6 3 =.#.T E H P H ; 6 = = w 6 6 J W J X.K X.X.$.T : w w ",
"- K | : - T  .: 4 > 6 6 - ; > w 6 6 4 T ] H - H  ...$...6 6 3 4  .J D : 6 6 6 6 E Y 6 4 6 > 6 > > E E #.=.=.| J G W W T 6 w * q ",
": : H T T 6 - ; O.O.I H , ; w 6 ; P 4 : o.O.: ..=.&.J : H D ; 4 : P 6 H 4 * H w 6 ~ w ; 6 w 6 ; w 6 L 6 4 L ^ Y : 4 6 6 6 * > w ",
"4 O.=. .H ; H O.E ~ > I - ; w O.w - > D 4 4 3  .=.: ; .. .T W : 6 ..6 : > * 6 : S L < ; w 6 w > = ; 6 6 w w 6 ; ; ; w 6 6 6 I w ",
"T ] T 6 4 P ; 6 > L w I 6 - > O. .: H Y ' =.$.K D : @.7.@.=.} 4 Y +.6 * > w > > 6 > > > > w E w 6 4 ; ; w ; = w ! = < > w w R > ",
"- 6 6 6 H w > L 6 H w > > > L O.O.D P 6.8.@.} o.: :  .P @. .H > 6 L 6 ; , ! > 6 > > 6 w > L I E ; 6 > > 5 > r ~ / < > < w w w > ",
"w 6 w L w 6 6 > w L L > - : 6 O.6 H 6 E ] &.@.} W H H P ..3 > > < > 6 > w E w 6 6 ; L w 6 6 6 E 4 6 6 ; ; > ~ I R w q > w > > > ",
"6 6 I I > 6 ! ~ 6 H I 6 > ; 6 6 : 4 ; T : : D D - : 6 H H , > ; , w L > : Q L 6 6 6 ^ > 6 6 6 6 I 4 5 6 w 6 E w 6 w > ; e 6 : q ",
"w 6 : > ; 6 w I 6 , w 6 - 6 ~ : H ; 6  .O.: 6 : 4 4 ; ; < S - q w w 6 - - T Y I 4 6 E I ; 6 E 4 I 6 6  .O.6 6 : 6 6 > 6 w > 6 < ",
"> 6 ; 6 , 6 6 ~ H > 6  .- : T E 6 w L P #.: 6 6 T D 6 E ( > > , w r q > ; 6 4 Q S 4 : $.; 3 E T ; w Y ~ O.4 6 3 E 3 6 E E > ; 6 "
};
