/* XPM */
static char *_6220_20570242aa506e1ab4ae59f31466ac18acbc794a204069a5bff20c95c8588d72[] = {
/* columns rows colors chars-per-pixel */
"64 64 116 2 ",
"   c #030201",
".  c #010A00",
"X  c #081103",
"o  c #10100E",
"O  c #090A14",
"+  c #151F12",
"@  c #10191C",
"#  c #330100",
"$  c #0E2901",
"%  c #132A03",
"&  c #152A0A",
"*  c #163403",
"=  c #1A3205",
"-  c #1F3804",
";  c #1B320B",
":  c #17380D",
">  c #1F3113",
",  c #3A2905",
"<  c #34250C",
"1  c #392E0C",
"2  c #233502",
"3  c #233D03",
"4  c #27310C",
"5  c #223A0B",
"6  c #353403",
"7  c #222413",
"8  c #22251F",
"9  c #253114",
"0  c #223C13",
"q  c #2E3915",
"w  c #24311C",
"e  c #29391B",
"r  c #333410",
"t  c #241527",
"y  c #341C27",
"u  c #27282C",
"i  c #312222",
"p  c #363423",
"a  c #353733",
"s  c #431508",
"d  c #561310",
"f  c #57121B",
"g  c #76151E",
"h  c #432205",
"j  c #40300D",
"k  c #443414",
"l  c #691823",
"z  c #533925",
"x  c #4D2B32",
"c  c #692521",
"v  c #7E2A2E",
"b  c #783121",
"n  c #18410E",
"m  c #254005",
"M  c #2C4206",
"N  c #2F4903",
"B  c #27400C",
"V  c #2E4A0C",
"C  c #35500E",
"Z  c #2A4114",
"A  c #294A15",
"S  c #2D431C",
"D  c #284B1C",
"F  c #334712",
"G  c #314A15",
"H  c #36431E",
"J  c #344C1F",
"K  c #375114",
"L  c #35511E",
"P  c #304424",
"I  c #364B24",
"U  c #395224",
"Y  c #3D542D",
"T  c #384432",
"R  c #444314",
"E  c #445D22",
"W  c #455E2B",
"Q  c #444238",
"!  c #6E4128",
"~  c #436422",
"^  c #4A6321",
"/  c #4A6428",
"(  c #4D692B",
")  c #536623",
"_  c #506A28",
"`  c #4B6331",
"'  c #436930",
"]  c #536B32",
"[  c #506638",
"{  c #536A3A",
"}  c #557330",
"|  c #5A7331",
" . c #5B7439",
".. c #676E38",
"X. c #627835",
"o. c #3D3A40",
"O. c #454546",
"+. c #574445",
"@. c #4D4F50",
"#. c #565555",
"$. c #7A4841",
"%. c #665554",
"&. c #5C7540",
"*. c #5E7B40",
"=. c #637B43",
"-. c #695E62",
";. c #6C6668",
":. c #767071",
">. c #881B19",
",. c #B41F30",
"<. c #88252E",
"1. c #96282D",
"2. c #992532",
"3. c #A52130",
"4. c #BA2435",
"5. c #AD7757",
/* pixels */
"; = 9 5 & 0 5.5.5.$.$.$.$.$.5.y x 5.5.5.5.5.5.5.5.5.5.5.5.5.5.5.$.$.$.$.x x x x x x $.$.$.$.$.$.$.$.$.x x x x x x x x : A : ; * ",
"0 B 5 9 5.5.$.$.$.$.$.$.$.$.y x 5.5.5.5.5.5.5.5.5.5.5.$.$.$.$.5.5.$.x x x x x x x x $.$.$.x x $.$.$.$.x x x x x x x x ; Z * * B ",
"- 0 x i y x x $.$.t t t $.$.x 5.5.5.$.5.5.5.5.5.5.5.5.5.$.$.$.$.$.x x x x x x x x x x $.$.$.x x $.$.x x x x $.x x x x x q 9 0 0 ",
"L O O O y x x x $.$.$.$.$.$.$.$.$.5.5.$.5.5.5.5.$.$.$.5.$.$.$.$.$.x $.$.x x x $.$.$.$.$.$.$.$.$.$.$.$.$.$.$.x x x x x x 9 0 0 Z ",
"' y O y y y x x $.x x $.$.$.$.$.$.5.5.$.$.$.$.5.5.$.$.$.$.$.$.$.$.$.$.x x x x $.$.$.$.$.$.$.$.$.$.$.$.$.$.$.$.x x x x x x - 0 I ",
"G y t y y y y x x x $.$.$.$.$.$.5.5.$.$.$.$.5.5.$.$.$.$.$.$.$.$.$.$.$.x x x x x x $.$.$.x x $.$.$.x x x $.$.$.$.x x x x x 5 - J ",
"; y t y y y y x x x $.$.$.$.$.$.$.$.$.$.$.$.$.5.$.$.$.$.$.$.$.$.$.$.$.$.x x x $.x $.$.$.$.x x $.$.$.$.x x x x x x x x x x x 2 5 ",
"5 i t y y y y x x $.$.x $.$.$.$.$.$.$.$.$.$.$.$.$.$.$.$.$.$.$.$.$.$.x $.$.x x $.$.$.$.$.$.$.$.$.$.$.$.$.x x x x x x x x x x 5 G ",
"I y t t t y y y x x x x $.$.$.$.$.$.$.$.$.$.$.$.$.$.$.$.$.$.$.$.$.$.x x x x x x $.$.$.$.$.$.$.$.$.$.$.$.$.x x x x x y y x x x A ",
"I I y y y y y y y y x x x $.x x $.$.$.$.$.$.$.$.$.$.$.$.$.$.$.$.$.$.$.$.x x $.$.$.$.$.$.$.x $.$.$.$.x $.$.$.x x x x x y y x y n ",
"H k ! y y y y y y y y y y x x $.$.$.x $.$.$.$.$.$.$.$.$.$.$.$.$.$.$.x x x x x $.x x $.$.$.x x $.$.$.$.x $.$.x x x x x x y y y n ",
"q k c >.,.4.3.g # O.  y y y y x x $.x $.$.$.$.$.$.$.$.$.$.$.$.$.$.$.$.x x x x x x $.$.$.$.$.x x $.$.$.x x x x x x y y x y y y : ",
"; 1 h d 1.1.1.f i o.@ @.o.@.y y x x $.$.$.x $.$.$.$.$.$.$.$.$.$.$.$.$.x x x x $.$.$.$.$.$.$.$.$.$.$.$.x x x x x x y y y y y r K ",
"U r z # g 2.v f +.u O.#.:.:.#.y x x x $.x $.$.x $.$.$.$.$.$.$.$.$.x $.$.$.x x x $.$.$.$.$.$.$.$.$.$.$.$.x x y y x y y y y 3 6 ..",
"= ; 7 s g 2.<.f +.O.@.;.%.-.+.+.z x x x x $.x x $.$.x $.$.$.$.$.$.x x x $.x y x x $.$.x x $.x x $.x $.$.$.x x y y x y y C } X.X.",
": 5 4 , b l v # p a o +.+.%.8 i 7 z c x x x x $.$.x x $.$.$.x $.$.$.x x x x y y x x $.x x $.$.x x x x $.$.$.x y y y y R ^ ^ X.N ",
"5 J 5 4 < j j y + Q X a a   . Q   9 < < x x x $.$.x $.$.$.$.x x x $.x x y x y y x x x x x $.$.x x x x x x x x y y y y ( ( ( ( - ",
"B Z 2 5 B U I R e + 7 T a   @.a 9 & 5 e ; x x x x x x $.x $.$.x x x x x y y y y y x x i x x $.x x x x x x x x y y y B G G q 3 B ",
"B B B G 0 5 0 T P p X 9 7 + w 8 ; : 0 = - 5 O O x x x $.x x x x x y x y y y y y y y y y y x x x y x x y x x y y y y 3 = - B - 5 ",
"B 5 3 U G 0 5 0 : ; S 9 e 9 > > e S U 0 B - O O x t x x x x x y y y y y y y {  .{ y y y y y y y y x x y y x y y y % * n B 5 - 5 ",
"A n - 0 H B 0 = = ; = ; L ; Z e 0 5 J G G 2 O O O O x x x y y t t t 2 * ; { B  .] G 2 - Z ; - I y y x x y y y y t B B B - ; Z 5 ",
"J I B 5 5 * B 5 n - 5 3 ` G 5 - 5 5 ; - K O O O O O O t x x y y t _ K m / K ] / F 5 B - B = > * U W t t t y y y t t L - 0 J I > ",
"J J ; B A L A 5 G ` U $ U G * { H 0 = 3 O O O O O O O t t x y y y t ~ C 3 W [ 3 Z = K A G 5 = 0 = M F 5 t t y y y t q - J H 0 5 ",
"= D 5 L G I - - * I ~ I = * G Z B 5 F O O O O O O O =.K t t x x y t ( V m 5 5 ; - [ A B - = 0 = q = 3 m O t t t y t 3 5 * 5 0 0 ",
"5 5 3 5 5 5 2 5 3 5 5 J I * = 5 0 H Z O O O O O 3 ( ` Z 5 t t x y t t V 3 5 5 0 ; 0 ; 2 = : ; : * m 3 ~ O O O t t t &.' ` - 0 ; ",
"5 / 5 0 5 3 5 5 ; 5 = = ; 5 5 % % 5 O O O O W K - 5 5 5 0 0 t t t t t m - 5 B 9 S ; = * - 0 ; ; = - `  .O O t t t  ./ m 2 5 L q ",
"q ` 5 F U = Z 5 J Z ; = ; % 5 I ; = O O O O B 2 5 = = 0 0 ; t t t t t L 0 = = ` W J 5 > ; > % ; B - 5 O O t t t t U B m 3 G G - ",
"q B 4 0 I G ; 5 5 J U S B 0 0 I P O O O O 4 5 5 5 0 0 0 ; > ; 5 t t t Y S D Z ; U I n - ; 0 ; I * B O O O t t t ( V - L G J 5 = ",
"- = 5 5 5 I - : 4 - 0 ; 5 5 n H U O O O 5 - 5 0 & 4 ; ; > > = = t t t S I ; ; 5 2 Z I 0 9 ; * J L = O O O O * B - 2 2 - 5 e 5 5 ",
"5 3 5 0 = 5 Z : = : 5 0 5 5 - 5 J 0 5 5 5 = % ; ; 4 & > I - = ; 5 5 0 0 I I 5 5 5 M Z ; Z ; - 5 L J B = - B B - - 5 Z 5 5 5 ; ; ",
"0 n ; 0 : : ; Z 5 J L A ; 5 G q 5 ; 5 Z U 5 q ; 0 9 > T I > * 0 ; 5 5 5 = U 5 Z 5 - = 5 - 5 H 0 ; B * ] ` 2 - 5 5 ; ; 0 0 = ; 0 ",
"; 0 : = = Z * Z 2 : G ` L 3 G G 3 2 U J W 5 0 5 I 0 0 I P : > = q 9 5 = = 5 5 U - B 3 ] = 5 L J B m B K / 3 q - J Z 5 I S > 9 & ",
"* Z 5 = = 5 5 5 m / (  .^ n _ V m E ( ] 3 m B A F 0 5 ; I e 9 ; ; 5 ; ; ; ; 5 ; m ` W  .( 5 [ K 3 ^ ^ ^ - 3 3 F S 5 9 0 I : ; ; ",
"e S 0 ; > ; 0 J 3 m A / | V - m _ _ _ | / * - J I % G 0 > = ; 0 > J Z Z * ; Z J G 5 m /  .G B * ( ^ |  .) - - I J 0 9 & > > 9 0 ",
"S D 5 ; = * 5 G G B $ m 3 / B Z N } | n = * 9 I 0 0 = 5 n 5 3 B J J $ : ; 5 : 5 = * * * - - - B 5 2 B - B - 5 - 9 0 0 0 Z 5 ; 5 ",
"D I e : - 0 0 5 - - - F F U G A ( ~ B * 5 ; : e > 4 0 3 2 3 Z ~ L J ; ; ; ; = 5 * J B * = ; 0 5 ; J ; 0 B = I 9 - ; 0 ; 5 5 5 S ",
"J G 5 = 0 0 Z 5 0 0 &.&.` * J & = : * > ; > ; Z I G Z ^ m - X. .F H 0 % ; - 5 J ; L Z Z 0 ; : ; 0 9 S 0 5 ` F Z 5 ; 5 5 0 0 5 G ",
"F 5 = Z I S 0 5 B ` [ e e 0 ; Z Z Z P I I 0 = * * L V K ) 2 - ) A B = * 0 0 0 I 0 Z S H > ; ; e 5 = { 5 - =.5 2 5 - % 4 ; 5 5 U ",
"q 3 n F U D 5 5 = 5 B : ; B ; 5 - A A 3 5 = 2 * 3 5 B / ` ; B 5 B A - F F n I J 3 ; 0 n ; : ; 0 - K / ] K V V M 2 5 5 5 5 5 = 5 ",
"- - 5 5 5 5 ; * B G S K m - B - V K 5 * B B 0 L J * 5 - 5 = 0 - 3 C 2 ' J 5 S ; q 5 ; 0 ; 5 I [ &.^ N ( V N K E ] [ I 5 % 0 0 I ",
"- B S 5 0 ; 5 % 5 3 - L Z m B - n = - B : U U H S 5 G - - A  .- 3 - m  .D - - B B B * L = B 0 ; V X.^ N C C E X.K 3 5 5 5 > I P ",
"[ V U 5 * U J - ; B m * C 2 - }  . ./ B 5 : > I I Z 5 - K  .| m ( ^ C | - m * G G 5 3 ` B B U 3 m m _ ) N - _ G 3 5 5 ; 4 0 S 0 ",
"' U = Z I I 5 = - &.V - - - ( / | ~ K m - = : * Z J 5 3 &.W 3 - / } / V F  .*.( - - B ` V U = B 5 3 J F K - B 5 5 0 ; & Z 5 4 5 ",
"= ` 5 = : ; * 5 5  . .G m ( V ( ' K - 2 U I 5 ; B 2 B * ( G 2 q - C  .C B 3 ; = B - - - L L = G S 0 = 5 0 5 * 9 0 P 0 5 5 5 = B ",
"- : B Z ; ; = = 5 W ( ` - - A ( 5 5 - B G 3 * 5 / ] ^ - 3 m * 3 - - U F * ; = - - * Z ] 3 5 [ J Z 9 0 0 5 0 ; 9 ; J I 0 3 5 2 K ",
" .Z B I Z = 5 ; * - U ` m B ] ` B * B 5 * = ( =. .^ ^ m m ^ =.]  .m = - Z - ; > = * 0 K ` G ` 5 ; 5 0 > I 0 9 ; ; 0 J J 3 ; C  .",
"- - ; G H ; 0 5 = 5 5 L U 3 = - ~ ( Z - 2 * = ; B * B - ) | | U - : S * : ; 0 J 5 ; * ; J U 5 : 5 = 5 Z I 5 F ; ; 5 5 G 3 m ] X.",
"B * - B U L ; 0 5 Z ; * 5 e 5 A '  . ./ - = Z 5 J G G - 5 5 2 3 - ; = ; > 0 ; I J 5 = - 5 * 5 = 2 2 3 I J = 9 0 % 0 5 5 - V X.N ",
"m Z m B * 0 5 : ; ; ; 0 0 S > ; ; : * = 5 = 5 G G 5 5 B 0 ; B 5 5 S 5 5 5 = n - G - B _ 5 : > ; ; 5 5 0 H B 0 > > = 0 J 5 F / 3 ",
"- L - G J U ; ; ; B : 0 ; & ; ; & 0 0 0 $ = e 5 5 G = - : - Z ; 5 J D 5 9 U ` - m - / } 3 = ; 0 5 J 5 - 5 0 I Z 0 5 H D - F 5 5 ",
"C - m ` ` 3 5 0 S S J 0 > ; ; - ; ; e ; ; Z = U ; J U 5 - Z : 0 F B J J 5 * L ` C m } L 3 5 ; * 5 U G e 5 q / 3 - U G L 3 5 5 5 ",
"n m - B 3 5 3 A J B 5 = 5 0 0 : 0 : & ; ; ; L A ; S H n ; 3 U = - 3 m 5 = B 5 &.~ C ( B B B 5 ; 5 0 F G 2 K =.E 3 V - q 2 % ; = ",
"|  .( - - - B - B 5 = - S U J - n ; 9 0 Z ; A / B * I * B F J B } K 5 - U G ; 3 ^ C V Z ( W U ; ; ; 0 F 3 K | | m - 3 3 2 : q 5 ",
" .^ E ( m / ` &.&.W G * * 5 A U 9 5 * I = - [ m - = 3 m ~ L F - } =.B G * ( [ F B Z V C G : 0 ; 5 5 5 2 m 2 N | - N _ &.` I S B ",
"C ^ ( V m A K W ; = ; 3 = B Z S J 0 ; L I B ; = 3 - 3 5 W / 5 - ( E K V B - &.[ F U B A B - 5 ; & 0 5 5 V K V ) C ) ) ] G = 0 0 ",
"= C ^ - * F ( 2 - - ; B * = = 5 ; B - F W B * B / ( { ` 5 5 5 3 / V m - 5 ; 5 5 J G 5 3 ; ; 5 ; ; J J [  . ./ V N K K L ; 0 % 9 ",
"- - q G G 5 * = [ ` J 5 ; = 0 5 = D 3 - _ ` - /  .} A - B m - 3 - G - B - $ : Z = I Z * 5 0 5 = 0 ; q 5 2 Z I G - 2 5 B 5 % ; 0 ",
"n /  .( 5 = B ` S J : S = * 5 ` B * - 3 B - - (  .- = ( / A K - B ` B - ; = 5 5 Z 0 > * Z ; Z ; ; = 5 5 0 0 5 = ; * 0 ; ; B S 0 ",
"F E G 5 3 A = 5 : Z 0 e 5 * ; ` W 2 B G E  .] K m - ] *.{  .^ - Z ' 5 % = 9 ; ; 5 ; ; > : 9 L : 5 3 = = 0 - & 0 P & > - 0 e J ; ",
"= 0 5 5 5 Z ; Z 5 Z Z * ; ; Z [ ` m A &.=.( ^ ( - - / G _ / 5 = B Z 5 = n S ; 5 ; : B : ; Z S J = 5 5 ; ; ; e I Y > & 9 0 0 0 ; ",
"Z B Z Z Z ; : ; 0 Z Z 5 * = B ` 5 B 3 J / } ] ^ K B B A ` - 5 : 0 ; 5 ; 0 U 9 5 5 = Z Z 5 5 5 U 2 5 5 = * ; I S H 0 9 ; 0 ; ; ; ",
"- ; S Z ; 5 I U 5 n S ; ; = 5 5 - 3 ; G ; * m 3 * - 5 B B = ; = 0 0 0 : - L B B 0 5 U = 5 5 5 5 H 3 5 5 q 5 J 0 ; 0 ; = 0 5 = 4 ",
"0 5 = : = - : S q = Z - = n J - B = : / ` - 5 - 3 3 - = > n = 0 9 0 5 * = A A Z - - J S = 5 J 3 Z 5 5 W ` 5 5 3 5 5 ; 5 0 ; 5 9 ",
"; 5 = 0 * q 0 U B ; 5 / = - F I 5 Z Z G [ - 5 5 G 3 5 J T ; ; : ; e 9 ; = B 2 U 5 - - { - = J F = 0 F U ` 3 5 3 J 2 5 J U ; - ; "
};
