/* XPM */
static char *_188_1a05f7f961f9e193446af9154d8a8e88c3d6c6b47f150c65db4d892984a843d4[] = {
/* columns rows colors chars-per-pixel */
"64 64 191 2 ",
"   c #020101",
".  c #010A00",
"X  c #160202",
"o  c #081103",
"O  c #10100E",
"+  c #090A14",
"@  c #131C17",
"#  c #270000",
"$  c #330100",
"%  c #281010",
"&  c #0E2901",
"*  c #132A03",
"=  c #152A0A",
"-  c #163403",
";  c #1A3205",
":  c #1F3804",
">  c #1B320B",
",  c #17380D",
"<  c #1F3113",
"1  c #372505",
"2  c #36260B",
"3  c #392E0C",
"4  c #233502",
"5  c #233C03",
"6  c #27310C",
"7  c #223A0B",
"8  c #353403",
"9  c #222413",
"0  c #22251F",
"q  c #382913",
"w  c #253114",
"e  c #223C13",
"r  c #2D3816",
"t  c #29391B",
"y  c #333410",
"u  c #241527",
"i  c #341C27",
"p  c #312222",
"a  c #302F27",
"s  c #353733",
"d  c #450303",
"f  c #431508",
"g  c #521F04",
"h  c #561315",
"j  c #76151C",
"k  c #462907",
"l  c #40300D",
"z  c #4E2314",
"x  c #53201F",
"c  c #443414",
"v  c #663319",
"b  c #691823",
"n  c #4A3820",
"m  c #533925",
"M  c #4A3335",
"N  c #692521",
"B  c #7A2322",
"V  c #7E2A2E",
"C  c #673424",
"Z  c #783121",
"A  c #7A382C",
"S  c #18410E",
"D  c #254005",
"F  c #2C4206",
"G  c #2F4903",
"H  c #27400C",
"J  c #2E4A0C",
"K  c #35500E",
"L  c #2A4214",
"P  c #294A15",
"I  c #2D431C",
"U  c #284B1C",
"Y  c #334712",
"T  c #314A15",
"R  c #36431E",
"E  c #344C1F",
"W  c #375114",
"Q  c #35511E",
"!  c #304424",
"~  c #364B24",
"^  c #395224",
"/  c #3D542D",
"(  c #384432",
")  c #444314",
"_  c #434520",
"`  c #534021",
"'  c #445D22",
"]  c #455E2B",
"[  c #55522A",
"{  c #444238",
"}  c #6E4128",
"|  c #436422",
" . c #4A6321",
".. c #4A6428",
"X. c #4D692B",
"o. c #536623",
"O. c #506A28",
"+. c #4B6331",
"@. c #436930",
"#. c #546B32",
"$. c #506638",
"%. c #536A3B",
"&. c #4D783A",
"*. c #557330",
"=. c #5A7331",
"-. c #5B7539",
";. c #676E38",
":. c #627835",
">. c #3D3A40",
",. c #454546",
"<. c #574445",
"1. c #595244",
"2. c #4D4F50",
"3. c #565555",
"4. c #6F4C48",
"5. c #665554",
"6. c #5C7540",
"7. c #5E7B40",
"8. c #637B43",
"9. c #7C6857",
"0. c #5D5C61",
"q. c #695E63",
"w. c #6C6668",
"e. c #767070",
"r. c #881B19",
"t. c #9D1522",
"y. c #AB1720",
"u. c #A41E25",
"i. c #AA1A26",
"p. c #B31729",
"a. c #B31C28",
"s. c #B41F30",
"d. c #892724",
"f. c #8C2925",
"g. c #88252E",
"h. c #992223",
"j. c #9B2128",
"k. c #96282D",
"l. c #873024",
"z. c #9C332A",
"x. c #992532",
"c. c #883331",
"v. c #983436",
"b. c #A82224",
"n. c #AC2A2D",
"m. c #A52130",
"M. c #B52730",
"N. c #BB2435",
"B. c #A83337",
"V. c #A53F38",
"C. c #B53235",
"Z. c #BE353B",
"A. c #C52435",
"S. c #CA3336",
"D. c #C43539",
"F. c #CE3039",
"G. c #D1383D",
"H. c #914C37",
"J. c #993544",
"K. c #AB2D42",
"L. c #B93541",
"P. c #C73541",
"I. c #935249",
"U. c #9A5B5D",
"Y. c #B5494B",
"T. c #8C6759",
"R. c #A7635B",
"E. c #A55D61",
"W. c #996667",
"Q. c #95696B",
"!. c #95766C",
"~. c #A4666A",
"^. c #A9777C",
"/. c #B77577",
"(. c #C94547",
"). c #D74C55",
"_. c #E35D60",
"`. c #D4696E",
"'. c #E66568",
"]. c #7F8778",
"[. c #8E857A",
"{. c #9D7E83",
"}. c #8A8684",
"|. c #958D89",
" X c #9B9A9B",
".X c #B99E9A",
"XX c #B2A39A",
"oX c #AE9FA3",
"OX c #B0A2A5",
"+X c #D69E9F",
"@X c #DDB7B9",
/* pixels */
"> ; w 7 & e u i i u u &.+ + + + + T #.' 5 5 : T Q 7 > e ! t 2 2 f z 2 + + u u u u + @.&.@.4 o.G D | | | 4 5 4 Q I L 7 , P e ; - ",
"e H 7 w > , u u u u D @.*.+ + + + + + ~ W 7 - ^ I 6 c a w S 9 9.T.T.9.9.T.+ u u u + + +.#.) 8 F  .o.*.=.#.5 > R I 7 > > e - ; S ",
": 7 P e S , u u u u : 7 e : + + + + + + - , e : t q f 9.9.].].[.}.|.[.[.}.[.u u u u + [.Q.T.4.I.g k D D 7 6 e L e w = 6 r w e e ",
"Q Y ^ e U S u u u u u > > < I + + + + + P ~ , r q h E.~.[.XX|. X X X X X|.}.u u u u {.{.^.^.`.^.I.H.` ` n 3 6 > ; 7 6 r w e e Y ",
"@.I 7 4 L ^ H u u u u , , * = = < = S e : Q Y 2 !.W.U.~..XXXXXXXoXoXOXOXoXoXoXu u u oX.X@X@X@X+X/.Y.J.g.g.h 3 6 ; 7 e R > ; e Q ",
"T 7 7 6 J P 7 Y 3 m 1 3 q c q p 1 1 3 3 3 c C R.R.I.V V U.U.U.W.Q.Q.Q.Q.Q.Q.Q.Q.W.Q.W.W.^.Q.~.~.g.k.m.u.u.d.Z g 3 6 y ) ~ 7 5 E ",
"> L Y T P : ) v j B.B.B.v.H.v.v.v.V.Y.Y.V.Y.V.D.b.h.j.h.f.g.x.x.g.c.c.g.v.k.k.v.v.z.x.x.B.B.m.L.B.K.M.P.a.n.n.z.Z g k ) Q H 4 > ",
"7 6 6 5 ) 1 H.V.C.D.P.P.Y.`.`._.'.).D.D.S.D.S.F.A.Z.M.C.B.C.D.S.C.V.B.C.C.M.(.'.'.'.)._.).L.L.`.Z.L.P.P.L.N.P.N.C.z.Z k Y 5 7 T ",
"~ ; 8 k g H.C.P.G.C.k.V A c.v.(.P.).F.F.A.S.S.S.S.D.D.L.L.D.F.F.D.D.L.D.D.D.D.(.(.(.V.G.P.L.L.Y.k.B B l.t.L.P.D.F.C.h.c.k 5 Q P ",
"~ _ k I.V.C.P.s.t.f.d X # # N c.K.N.A.A.A.S.G.F.D.D.D.D.D.D.F.F.D.N.M.i.p.p.p.b.h.b.b.b.N.L.`.J.h $ X X N f.K.D.F.(.(.f.k Q P S ",
"! c } h.S.F.L.x.b f z M p   4.x j x.M.A.i.i.y.y.i.h.u.u.j.u.b.y.i.i.b.i.u.i.i.i.i.u.y.i.i.x.B x q O { % m $ j L.P.A.K.c.k R - S ",
"e c N r.s.N.m.j $ ,.  >.>.@   M $ V t.K.a.i.y.b.b.b.u.u.u.u.u.u.y.i.i.m.i.i.i.y.t.b.i.u.x.J.# <.X O 1.p 9 5.d J.L.L.m.c.3 H H , ",
"7 3 k h k.k.k.h i >.@ 2.>.2.u M % N x.N.s.p.i.y.t.b.a.a.p.y.y.i.i.p.M.M.s.p.a.a.M.a.a.M.n.N % q X p 3.3.% 5.x N K.K.v.} 3 5 y W ",
"~ y m $ j x.V x <.p ,.3.e.e.3.M ( $ k.i.s.N.N.n.n.n.s.N.A.N.M.M.M.M.M.M.s.M.N.M.y.M.n.n.k.# 5.0 M w.q.w.3.p <.h g.k.Z g 8 5 8 ;.",
"= 7 9 f j x.g.h <.,.2.w.5.q.<.<.m $ B t.m.m.n.M.n.n.M.M.a.M.n.n.n.n.b.i.i.i.i.u.b.b.r.h.V # 3.,.2.w.0.w.4.M 5.2 N C ` 8 T *.:.:.",
", 5 6 1 Z b V $ a s O <.<.5.0 0 9 m N B Z B l.f.l.f.f.f.f.f.l.l.Z l.f.f.d.f.l.Z l.l.l.Z z 4.0 0 + a 3.3.q { p [ m l 8 )  . .:.G ",
"7 E H 6 2 l l p = { o s s   . {   w 2 2 n ` 2 2 1 3 2 1 2 2 l k c n 1 c 1 ` c 3 1 c ) [ _ 6 . (   @ ,.@ 9 1.  6.9 6 5 ..X.#.X.4 ",
"H L 4 7 H ^ ~ _ r @ 9 ( s   2.s w = e L = L Q > e > < < e w 5 r > R 7 7 K T L : 5 4 4 #.] e ! ( s + ,.@ { . %.I ~ P H T T 7 5 H ",
"H H H Y 7 7 e ( ! a o w 9 @ w 0 > < L - e : > H ; 6 > e 7 e 7 7 Q : H Y Q 4 L D F 4 L 7 I ~ ~ w o 0 0 0 t R E Y : H 5 ; 7 7 7 7 ",
"H 7 5 ~ Y e 7 e > > I < I < w < t I ~ 7 D : T : 4 7 T Q L e e 7 5 : : H 7 : -.-.%.O.7 7 e > 7 e t w w e > 7 > : : & - S H 7 : 7 ",
"P H 7 e R H e ; > > ; 7 ~ > L L e 7 ~ T T 4 X.5 5 T L 7 7 ; ^ 5 -.K 4 - > %.H -.O.T 5 : L > : ^ R ! r e %.7 - : S H H H : > L : ",
"E E 7 7 7 - , 7 , : 7 : +.T 7 ; 7 7 : 4 W : ..=.4 K 5 H 5 7 ~ 4 -.O.W D ] W #...Y : , : H ; e * ~ ..Y 4 ] -.D 5 J ..Q : H E ~ < ",
"E E > H Y Q P H T +.^ & ^ T : %.R e ; 5 5 : T #.4 D Y %.E L > 7 ..O.| W 5 ] $.: L ; W P T 7 - e ; F Y 7 %.=...- X.T H : E R e 7 ",
"- U 7 Q P ~ 5 7 - ~ | Q - - T L 7 7 Y $.-.-.K K 7 Y 6.W 7 ; e : X.J X.J 5 5 7 7 : %.T H ; ; e - r - D D ; K ..4 X.- 4 7 ; e e e ",
"> 7 > 7 7 7 4 7 4 7 7 Q E * ; > e ~ L 7 G -.-.Y 4 +...I 7 ; 7 7 T W J J 5 7 7 e > < > : - S > e - D 5 | 5 S J W - X.-.] $.7 H > ",
"H ..H 7 7 5 7 7 > 7 * ; 7 7 7 ; * 7 T 7 7 T ] W 5 7 7 7 e e e 6 5 L Q D 4 7 7 e I > ; : > 7 > > ; : +.-.=.X.K D X.7.X.D 4 > ~ H ",
"r +.7 Y E : L 7 Q L 7 ; > * 7 ~ > - 7 ; 5 : 7 4 7 ; ; e e > e : ' J ; Q e : > +...! 7 < > < ; > H : D P @.#.$.Y X.E H D 5 Y E : ",
"H H 6 e ~ T , e 7 E ~ I e e e E ! 6 ; ; H 6 7 7 7 e e e > < > 7 - T 7 / I ! , 7 Q E e 7 > e = E : H - D L +.X.W +.J : Q P E 7 ; ",
"5 ; 7 7 7 ~ : > 6 : e > 7 7 L I ~ 7 > 7 7 > 7 e ; w = > < < ; ; 7 7 > R ~ = 7 7 4 T E e w > - E Q - , 4 4 : - H : 4 4 : 7 e 7 7 ",
"7 7 e L ; 7 L 7 - > 7 e 7 7 7 7 ~ e 7 7 7 ; * 7 > 6 = e ! 7 ; > 7 7 e e ~ E 7 7 7 H e > L > > H ^ E H ; 7 H 7 5 : 7 L 7 7 7 > 6 ",
"e e > , , > 7 I e E Q P > 7 T 7 7 ; 7 Y ~ 7 r > e w e ( ~ e ; e > 7 7 7 ; ~ 7 L 7 5 ; H : 7 I e ; H : #.+.4 5 7 7 : > L e > > e ",
"> e , - ; e - S 5 , T +.Q 4 T T 5 5 Q Q ] 7 e 7 ! e e ! ! > < ; e w 7 ; ; 7 7 ^ ; H 5 O.; 7 ~ E H D H W +.5 7 : ~ e 7 ! I < < = ",
"; S 7 > - 7 7 7 5 X.X.-. .S O.J G Q X.#.: D H P T e 7 > ~ t e > 7 7 > > > , 7 > F X.] -.+.: $.T D  . . .: 4 5 Y I 7 < L ~ , > > ",
"I t e > < > e ~ : D Y ..-.J : D O.O.#.*.X.: 5 Q ~ * L e w > = e < R L L - > L T T 7 5 X.-.T H - O. .=.-.o.: : Q Q e < * < < < e ",
"I U 7 > ; - 7 T P H & D 5 X.H L G *.=.H * ; < ! e w : 7 S 4 4 H ^ E & , > 7 > > ; - - - : 4 : H 7 4 H : H : 7 7 w w e L L 7 ; 7 ",
"E ~ I > : e e 7 5 : : Y T E Y P X.| H - 7 > > t e 7 7 : 5 H L ' E E > > > > : 7 - ~ H - - > , L > E > e 7 : ~ w > 7 < > 7 7 7 I ",
"E T 7 : e L L H 7 L 6.6.$.- ~ > - , ; < > < , L E Y L  .5 : :.-.Y R e - > , : ~ > ^ L L > > < > e e T e 7 ..Y L 7 > 7 7 e e 7 T ",
"Y > ; e ~ I , 7 e +.+.t e e > e S L ! ~ ~ e ; - ; E K K o.: : o.T 7 ; - e L L ! e L I I e > , I 7 = %.7 > 8.7 4 7 ; * 6 > 7 7 ^ ",
"7 5 H P ~ P 7 7 - 7 L , > H > 7 , P T 5 7 - 4 - 5 7 H ] +.7 e 7 H P ; Y L H E E 7 > t e > < > < 5 W ] %.W Y J F 4 7 7 7 7 7 > 7 ",
"5 : 7 7 7 7 > ; H T I W 5 : H 4 J W H - H 7 L Q ~ - 7 : 7 : e > : K : @.^ > I : H 7 ; S - : ~ +.6. .G O.J G K ' #.$.^ 7 * e e ~ ",
": 7 I 7 e > 7 ; > 5 : Q L D 7 7 D - : H > ~ E U I 7 T H : P :.5 D : S =.P : : 7 H H : ^ - H e 7 J :. .G K K ' :.W 5 7 7 7 < ! ~ ",
"$.Y ^ 7 - ~ E : 7 H 5 : K : 5 =.-.-.] H : L < ~ ! L : : W -.=.D X. .K =.5 D - T Y 7 : +.L H ^ : D 5 O.o.G : X.T 5 7 7 > 6 e I e ",
"@.^ * L ~ ~ 7 ; 5 6.J : : : O.| *.| W H ; : , ; L E H 4 6.] 5 4 ..=...J Y 6.7.X.: : H +.J ^ ; H 7 5 ~ T K 5 H 7 7 e > = L 7 6 7 ",
": $.7 ; 7 , - 7 , -.6.T S o.J X.@.W : 5 ^ ~ 7 > H 4 H : X.P 4 7 : K -.K D 5 , ; D : : : Q Q ; Y R e ; 7 e 7 * 7 e ! e 7 7 7 ; H ",
": : H e > > ; ; H +.X...4 S L X.7 7 : H T 5 - H | #...: 5 D ; 5 : : ^ Y - : ; 4 : - T %.5 7 $.~ L < e e 7 r > w > E ~ e 5 7 : W ",
"6.L H Q e ; 7 > ; > E +.H H #.+., : D > - ; X.8.-. . .5 D  .8.%.-.D - H S > , < > - , W +.T +.7 > 7 e w ^ e w > > e E ~ 5 : K -.",
": : > E E > e 7 - 7 : ^ ^ 4 ; : | O.I : 4 ; - > H - H : O.=.=.^ 7 - I * > > L ~ 7 > - ; E E 7 S 7 * : L E 7 L 7 > > 7 T 5 5 #.:.",
"H - : H E E > e 7 L > - : L H T @.-.-...5 7 , 7 E T T 4 7 7 4 : : 7 - > w e > ! E 7 ; : 7 ; 7 ; 4 7 5 ^ E ; w e * e 7 7 4 J :.G ",
"D L D H - e 7 L - > > L < L < > , , - ; 7 ; 7 E P 7 7 7 e > H 5 7 I 7 7 7 ; e 5 Y : D O.: L < > 7 7 > e I e e w w > e E 7 Y X.5 ",
": ^ 5 P ~ ^ > > > 7 e , , > = > > > e e & ; L 7 7 Y ; : e 7 e 7 : R E 7 e ~ +.4 S : X.=.: > = e 7 E 7 4 7 r ^ e e 7 I E : Y 7 7 ",
"J : 5 +.+.4 7 S I I E < e , > > , > t > > L - ~ > ^ ^ 7 : S > e T H W Q > : Q +.K D *.Q D , > - 7 ^ T L 7 7 +.5 5 ^ T E 5 7 7 7 ",
"D D : H 5 7 5 T E H 7 - 7 7 L , < < > > = 7 Q T > I L e : : ^ > : : S 7 ; H S 6.| K X.D H H 7 > 7 e Y T 5 W 8.' 4 J : H 4 * > ; ",
"-.=.O.: : : 7 7 H 7 ; > I E E , , > w e L > P ..H ; E ; H Y E H *.W S 5 ^ T 5 :  .K J T X.] ~ 7 > > L T 5 K =.=.5 : 5 5 ; e 7 e ",
"-. .' ..D ..+.-.6.] Y - - 7 T Q e 7 - ~ : 7 +.D : ; : D | Q T : *.8.7 T - +.$.Y H L J K Y S , > > 7 7 4 5 : G =.: G O.6.+.E R e ",
"K X...J D T W ] - > ; 5 ; H L I Q e > E ~ 7 > - D : : H ] +.7 : #.' W J H : 6.$.T Q H P H > 7 > = e : 7 J K J o.K o.o.#.T ; e e ",
"- K  .: - T X.: : : 7 7 - : > 7 > H 4 T ] H - H ..X.%...7 7 5 5 ..J D 4 > 6 7 7 Q T 7 4 : > 7 > 6 ~ ~ $.-.-...J G W W T 7 e * w ",
": 5 H L T 7 ; : $.+.E , > ; L : ; P 4 : #...: X.-.*.J : H D : 5 : Y : H : & S e e E L ; 7 e 7 ; e 7 e 7 5 L ~ T : 4 7 7 7 * > e ",
"5 +.-.X.H ; H +.E E > I ; ; , $.e - : D H : 5 O.-.: - X...P W : H X.H > > ; 7 7 , L < - e 7 L = = 4 7 7 e e 7 : > - e 7 7 7 I e ",
"T ] T : : P - , > L e I 7 - > +.] : H T ^ *.O.K D : #.-.%.-. .5 L @.7 * > e 6 > 7 > > > > e E e 7 5 ; ; e ; = e ! = < > e e E > ",
"; , 7 7 H L > L 7 e L - > > I +.X.H P -.]. .|  .: : X.T O..., > H L > : L I > > > > 7 , > L I E > 7 7 > > > t ! / < > < e e e > ",
"L H e L L : > > e L e 7 - ; 7 +.H H : ~ | *.#.| W 7 H T X.4 7 > , > 7 > 7 E e 7 7 ; L L 7 7 7 ~ 4 7 7 ; ; > ^ I R e w > r > > > ",
"7 > I L > 7 ~ ~ 7 L I 7 > ; 7 7 : 4 ; T 7 : D D - : 7 H H , > ; e e L > ; Q L H 7 7 ^ > 7 7 7 7 R 5 7 7 e 7 R e 6 7 > ; e 7 ; w ",
"L 7 > > ; 7 e I 7 > , 7 - H Q 4 7 : , X.] > 7 4 D : : ; e , - < e e 7 - ; P P L 5 7 E I ; 7 Q 4 L 7 7 ] +.7 7 : 7 : 7 7 e > 7 w ",
"> 7 ; H > 7 7 ~ H > 7 +.- : Y E 7 L L T $.5 , 7 T D 7 E ( = > > e t w > ; H 4 Q S : : %.; 4 ~ T : e Y E +.5 H : ~ 4 7 E Q > ; > "
};
