/* XPM */
static char *enterdownr61680168797[] = {
/* columns rows colors chars-per-pixel */
"64 64 49 1 ",
"  c #090A14",
". c #090B14",
"X c #090A15",
"o c #1E3616",
"O c #1F3616",
"+ c #1E3716",
"@ c #1E3617",
"# c #263A16",
"$ c #263B16",
"% c #273B16",
"& c #263A17",
"* c #273A17",
"= c #263B17",
"- c #273B17",
"; c #241526",
": c #251526",
"> c #241427",
", c #241527",
"< c #251527",
"1 c #341C26",
"2 c #341C27",
"3 c #351C27",
"4 c #341D27",
"5 c #4D2A32",
"6 c #4C2B32",
"7 c #4D2B32",
"8 c #4D2B33",
"9 c #2D4217",
"0 c #2C4317",
"q c #344C1A",
"w c #344D1A",
"e c #344C1B",
"r c #354C1B",
"t c #344D1B",
"y c #5F761E",
"u c #5F761F",
"i c #5E771F",
"p c #5F771F",
"a c #466920",
"s c #476920",
"d c #466821",
"f c #476821",
"g c #466921",
"h c #7A4840",
"j c #7A4841",
"k c #7B4841",
"l c #AD7657",
"z c #AC7757",
"x c #AD7757",
/* pixels */
"O$$$O====tgyg$se%rff%%%ee--=t&OOO&=OO&$$$ggyg$ge$sss===tt$$$t$OO",
"$$$$OO==$$$gye$$rrtte%%ee%==OOO&=t=&OO$tt$$gpe$$fsppa=$tt$OO$$O$",
"$$e$$OOOO=$$%66677776%%%$$$OOO$$tt&Oo$$$$$$$$=%t==$$====$oo$$$$$",
"eee$t$$$OO$6666677776666$%$Oo&tgtto$#$$$$$$$e%$t-$eet==&oo$$$$$t",
"de$$tt$$%%77677767576666xxxx$gyytqoo#ttt%%$$zzxzxxzxxx&OO$$t$$$t",
"e$$$$t$t677666kkk66665666zxxllzzl$$#o##te%xxxkkzzkkkxxz%$$$tq$$t",
"$$eet$t66666666kkk7666666x6xljllllzlzoo#xxxxxxz61zkzkkzkz$$tt$$$",
"$$$$t$66666kkkk66kkk66666666jhlkhhzzzzzzxxxxxxz61zkkkkkzzz$$t$$t",
"t$%-*77766777kkkkkkjjj666666jkkklzzzzzzzzzzxzzzz64jjkkkkhhzz$$tt",
"tt$-*77766767kkkk66kjj66666666jzzkkkkzzzzzxxzkzzz6jj,,,kh56116t$",
"ttt-77777k6666kk66jjj6666666666kkkkkzzkkzzxxkzzkkkkjkkkk5661XXX$",
"$$**777777kkkkkkjjjkjjkkk666kk6kkkhkzhjzzkkkkzzkjkkkk66k56111X1$",
"%%%666676kkkkkkkjjjkkkkkk6666kkkkjhjjjjzxxkkkkzzjjjkkk6664441>2r",
"t%%66666kkkk666kjk66kkk666766kkkjjjjjjjjzkkkjjjjjjjjkk6664431;3u",
"$$66666666666kkkk66kkkk6k777kkkkjjjkjjjjxkkkjhjjjjjj6kk663332>3p",
"$%6666666666kkkkkkkkkkkkk76kk6kkhjjjjjjhkkkkjjjjjjjj6666333>>>2t",
"$5661266777kkkkkkkkkkjjj666777kkjjjjjhjjjjjjkkjj66k66622122222g$",
"$362266676kkk6kkkk6kkkjjkk67kkkkjjjjjjjhhjjjkjhjk662212222222e$$",
"e111556666kk6kkkk66kjk66k66566kkkjjjjjjjjjkjk5j662221qeq=$$$$$$$",
"$311622666666kkk66kkjkk666666kkkjjjjjjjjjjkjj56622$$&&&oOOO$$$$$",
"t$22333666666kkkjjkkkjjjk6666kkkjjjjkjjjjjj5hh662t$$g$&o$$r$$$$$",
"tt$133363366kkkkjjjkjjjj666kkk6kjjjjkkjjj5jj6666tgt$gy$$egr$$ee$",
"tt$$4463366kkk6k66k66kk6636k666khkjjkk6kk65k566o$$t$syg$ge$$tt$$",
"$t$tt33336kkk6666kk66k66336666kkj6jjkk66kk6555o&$$$$$tg$g$$$$$$$",
"$$$$$332266666566kk66665216266j666kkkkk6jj56$$o&$$$g$$tt$dygg$$$",
"$d$$$$11266666666k662662233266566kh66k66665$@OOOO$gyysttdyg$$$r$",
"9d$ee$1133553664666222212222263566666k6666$O@@O$$$$qsystdg$$=ee$",
"$$$$ee$ 336336632222222$$$222242226666666t$$$@Oe&&$$$sgtg$$tte$O",
"$$$$$e$ X233662>t$$$$$$$OOOOOOOO333666;;$tt$$OOtq$$$$$$$&$$&===O",
"$$$$$$$ X>;133>$t$$$$OooOOO$t@OO>3366;XXX$$$$$$$qe$$$$$$$$$&==$O",
"$$$$O@XXX ;;422,=$$te$$&$=$tt$O$>>3365;.X$$$O$t$==$dd$$$$$$$$$O$",
"$$OOO$XXX X;,42,=$ttg$$$t$$ttOOO$<>11<<<;$$gO$tt==ted$$$q$$ttooO",
"o$$oo$  ...y>>22>sss$$$tq$$$t&oo+$=>>>>;;;sis$st$sgg$$$ee$&=t$oo",
"$q$&oo   .tai>>;>>>is$$tt$$$$o&$$t=&O>>;>>>sit$$gsyys*$ee$O&=oo$",
"qq&ooo.   OO$a>;>>>>OO#t&$$$$$&&tt&OO$.>>>>O$$$$$$$$$*$=$$$$$$$$",
"tq&&$$..   tttq>>>>>OOo$$$$$$$qdttO&O+..  $O+O$$$$$$==t=$+$$$$$t",
"tq$$$$t.   ys&to++OOo$o$ttta&&iitt@OO$$.  q$$o$$$$e$$ft=&oO$$$$t",
"t$$$tt$$&daq$$&$$$ttt$#o$tttd&&aq&@$$$$t$$tt$OO$$$f$$y==$$OO$$$t",
"$$$ttt$$$$&&&$$$=tt$$ooo$$&ad&$$&t$$t$tt&&$$OO$$$rdytre$$$$$#$$$",
"$$$$$$OO$ttt$$$$tt=$$#ttto$&&$$$&t$gt$t$&$$$O$tgufrgrregydt$O$$t",
"$$e$=$$@$$$tt#====$$$ettt$t$$tu$&==yt&&=$$$t$$$$tyatttayq$$$O$qt",
"gtq$$eeO$#$$t$=yyyf$$$$tt$$$tyy$aaty$$=tt$$s$tt$$taat=at$$$OO$q$",
"dt$$ee$O#yto$=aayge=&&$&tt$$yg$$aiattiia$$$stt$$$$ttt=&&$$OO==$=",
"$g$$$$OO#yyt$stage$$tt&O$$$$ge$$&tyt$$&&$$$$tt$qt$$$$=&&$q$$$===",
"$$$$$OOO#saa$$ts====tOOtsss$$$$===tt#ooo$$tg$$gt$#$$$$&O$tt$$$$t",
"p=tt$OOOo$tat$ss====OOayygs$$gyyy=$$oo&&OO$tstg$$o$$t$&OO$tt$$ty",
"$O$te$$$$$$tt&$$aatoo+O&*%$$fyyt=o&#o#$q$Oo$qt$$oo$tt$$$o&$t$=yy",
"$$$$te$$$$===&=tayya$$$&ttt$=$=$=$oo#$$qt$o$$$$Oo$#tt$$$oo$$$tpt",
"$t=$===$oO&&$$$ooooooo$ee$$$$$$$$t$$$=$=t&&d&&&o$$$$t====O$t$tg$",
"$t$ttt$$OOO$oooo&$&o&o$$$e$=$$$$$tt$$ts==&ai&&o$$e$$==t$$$tt$t$$",
"t$$ga&=&ttt$o$o#oo$Oo&&q=te$$$==t$tt$$tst$iq##OO$ee$=eg=$qtt$$$$",
"$$$$===tt$$O$$&$$OOOo&qq=$t$$$t=$$$$$==yatdq$$$O$$ee=epa$t$$ooo&",
"ypa&&&&&$$$Ottt#$$$$$$tgOOt$$qt=yt==tt==sqq&gge$+$$t$typ$$=$$$$$",
"iaaa=adiis$Oo#tt$$@r$$g$$$$&get$yytt=sst&tqte$$$$$$$$$qy$qgpdqe$",
"eddt=teaO$$OO$#tt$Ott$$+==$&gg==sst===ystt&t$=$Oo$$&ttqsegyge$$$",
"&eaOOta&O$$$Oo$$$$$rd$$$ggpa$$==sw$$====tt=&$@OO$ttayysqeett$$OO",
"$$0tq&O$sat$$O$$$$$$fs$fyyt$$$$$&t$$Oo$$$t$$$$$O$$$$$eet$O$$ooo=",
"$sya&&&gtt$t$O$d$$$%$$$fy$Ogsqq$=s$$ooO$$$$O$$$$OO$=$$OOOO=$$=r$",
"0s0&&&$$&$$$$O$ds$$efpue==gyyyd$ts$OO$OO$$OOO$r$$OO$$OO$eOO$$$r$",
"$$$000$$=00$OO$ds$eypgff==gtgg$O==$$$q$oOOO$$$tt=$OOOO$te$OO$$$O",
"$$00$$$$$00oOO$g$$$egyggt=tqd$$O$$$O$t$$$Or$$$$t$$$OO$ttt$$O$$=O",
"$$q$$$tt$&toO$$$$$$$$$$$OO$$&&OO$$$O$tt$$$t$$$$$e$$$$$t$$$$O$$OO",
"$$$$O$$q$$&&$$t$$$$sg$$$$$$$$$$$$$$OOt$t$$eeO$t$$$$dg$$$$$$$$$O=",
"$$O$O$$q$$&dO$tt$$eeg$$$t$$tqOOO$$OOO$$t$$$gO$te$$erg$$$t$$teOOO"
};
