/* XPM */
static char *_1797_5327cd3f60c581631b748444f4ad20d87e8c6735c4bee7d779a804da3a381c49[] = {
/* columns rows colors chars-per-pixel */
"64 64 193 2 ",
"   c #020101",
".  c #010A00",
"X  c #160202",
"o  c #081103",
"O  c #10110E",
"+  c #131C17",
"@  c #270000",
"#  c #330100",
"$  c #281010",
"%  c #0E2901",
"&  c #132A03",
"*  c #152A0A",
"=  c #163403",
"-  c #1A3205",
";  c #1F3804",
":  c #1B320B",
">  c #17380D",
",  c #1F3113",
"<  c #372505",
"1  c #36260B",
"2  c #392E0C",
"3  c #233502",
"4  c #233C03",
"5  c #27310C",
"6  c #223A0B",
"7  c #353403",
"8  c #222413",
"9  c #22251F",
"0  c #382913",
"q  c #253114",
"w  c #223C13",
"e  c #2D3816",
"r  c #29391B",
"t  c #333410",
"y  c #341C27",
"u  c #312222",
"i  c #302F27",
"p  c #353733",
"a  c #450303",
"s  c #431508",
"d  c #521F04",
"f  c #561314",
"g  c #76151C",
"h  c #462807",
"j  c #40300D",
"k  c #4E2314",
"l  c #53201F",
"z  c #443414",
"x  c #663319",
"c  c #691823",
"v  c #4A3820",
"b  c #533925",
"n  c #4D2B32",
"m  c #4A3335",
"M  c #692521",
"N  c #7A2322",
"B  c #7E2A2E",
"V  c #673424",
"C  c #783121",
"Z  c #7A382C",
"A  c #18410E",
"S  c #254005",
"D  c #2C4206",
"F  c #2F4903",
"G  c #27400C",
"H  c #2E4A0C",
"J  c #35500E",
"K  c #2A4214",
"L  c #294A15",
"P  c #2D431C",
"I  c #284B1C",
"U  c #334712",
"Y  c #314A15",
"T  c #36431E",
"R  c #344C1F",
"E  c #375114",
"W  c #35511E",
"Q  c #304424",
"!  c #364B24",
"~  c #395224",
"^  c #3D542D",
"/  c #384432",
"(  c #444314",
")  c #434520",
"_  c #534021",
"`  c #445D22",
"'  c #455E2B",
"]  c #55522A",
"[  c #444238",
"{  c #6E4128",
"}  c #436422",
"|  c #4A6321",
" . c #4A6428",
".. c #4D692B",
"X. c #536623",
"o. c #506A28",
"O. c #4B6331",
"+. c #436930",
"@. c #546B32",
"#. c #506638",
"$. c #536A3C",
"%. c #4D783A",
"&. c #557330",
"*. c #5A7331",
"=. c #5B7539",
"-. c #666E38",
";. c #627835",
":. c #3D3A40",
">. c #454546",
",. c #574445",
"<. c #595244",
"1. c #4D4F50",
"2. c #565555",
"3. c #6F4C48",
"4. c #7A4841",
"5. c #665554",
"6. c #5C7540",
"7. c #5E7B40",
"8. c #637B43",
"9. c #7C6857",
"0. c #5D5C61",
"q. c #695E63",
"w. c #6C6668",
"e. c #767070",
"r. c #881B19",
"t. c #9D1522",
"y. c #AB1720",
"u. c #A41E25",
"i. c #AA1A26",
"p. c #B31729",
"a. c #B31C28",
"s. c #B41F30",
"d. c #892724",
"f. c #8C2925",
"g. c #88252E",
"h. c #992223",
"j. c #9B2128",
"k. c #96282D",
"l. c #873024",
"z. c #9C332A",
"x. c #992532",
"c. c #883331",
"v. c #983436",
"b. c #A82224",
"n. c #AC2A2D",
"m. c #A52130",
"M. c #B52730",
"N. c #BB2435",
"B. c #A83337",
"V. c #A53F38",
"C. c #B53235",
"Z. c #BE353B",
"A. c #C52435",
"S. c #CA3336",
"D. c #C43539",
"F. c #CE3039",
"G. c #D1383D",
"H. c #914C37",
"J. c #993544",
"K. c #AB2D42",
"L. c #B93541",
"P. c #C73541",
"I. c #935249",
"U. c #9A5B5D",
"Y. c #B5494B",
"T. c #886858",
"R. c #9A655C",
"E. c #A7635B",
"W. c #AD7757",
"Q. c #A55D61",
"!. c #996667",
"~. c #95696B",
"^. c #8E7A74",
"/. c #A8696D",
"(. c #A9777C",
"). c #C94547",
"_. c #D74C55",
"`. c #E35D60",
"'. c #D4696E",
"]. c #E66568",
"[. c #7F8778",
"{. c #88857C",
"}. c #918579",
"|. c #9D7E83",
" X c #8A8684",
".X c #958D89",
"XX c #9B9A9B",
"oX c #B99E9A",
"OX c #B2A39A",
"+X c #AE9FA3",
"@X c #B2A3A5",
"#X c #D69E9F",
"$X c #DDB7B9",
/* pixels */
": - q 6 & w q 5 6 E } %.+.3 | ( 4 Y $.} 4 4 4 Y ~ 6 : w Q r 1 1 < f j s d f h h 4 +.+.%.+.; X.F S } } } 3 4 ; ! P K 6 : L w - - ",
"w G 6 q : > w 5 5 4 4 +.&.E S = ~ Y G R U 6 - W P 5 z i , w 8 9.T.T.9.9.T.T.T.9.! w w O.@.( 7 4 | X.&.;.@.4 3 P P 6 : : A : - A ",
"; 6 L w A > : : 5 6 6 6 6 6 ; K > q > K = > A - r 0 s 9.9.[.[.{. X(.[. X X{.^.{.{.e.{.}.~.T.3.I.d h 4 S 6 5 w K w q * 5 e q w w ",
"W U ~ w I A > > 6 & w : : , K > = K > : L ! w e 0 l Q.Q.}.OX.XXXXXXXXXXX.X X X{. X.X|.|.(.(.'.(.I.H._ _ v 2 5 : - 6 5 e q w w U ",
"+.P 6 3 K ~ G A w : > > > & * * , * A w ; W U 2 ^.!.U./.oXOXOXOX+X+X+X@X+X+X+X@X+X@X+XoX$X$X$X#X(.Y.J.g.g.f 2 5 - 6 w T : - w R ",
"Y 6 6 5 H L 6 U z _ 1 1 0 z 0 u < 2 2 2 2 z V E.E.I.B B U.U.R.!.~.~.~.~.~.~.~.~.!.~.!.!.(.!././.g.z.i.i.u.f.C d 2 5 t ( R G ; R ",
": K U Y L ; ( x g B.B.B.v.H.v.v.v.V.Y.L.V.Y.V.D.b.h.t.h.d.d.x.x.g.c.c.g.v.k.k.v.v.z.x.x.B.B.m.L.B.K.s.P.s.n.n.z.C d h ( W G 3 ; ",
"6 5 5 4 ( < H.V.C.D.P.P.Y.'.'.`.]._.Z.D.S.D.S.F.A.D.M.C.B.C.P.D.C.V.B.C.Z.M.).].].]._.`._.L.L.'.Z.L.P.P.L.N.P.N.C.z.C h U 4 w Y ",
"! : 7 j d H.C.P.G.C.k.B Z c.v.).P._.F.F.A.S.S.S.D.D.D.D.D.D.F.F.D.D.Z.Z.D.D.D.).).).V.F.P.L.L.Y.x.N N l.t.L.P.D.F.C.h.c.h 4 W L ",
"! ( h I.V.C.P.s.t.d.a X X @ M c.K.N.A.A.A.S.G.S.D.D.Z.L.D.D.F.F.D.N.M.i.p.p.p.b.h.b.b.b.s.L.'.J.f @ X X M f.K.Z.S.).).f.h W L A ",
"! z V j.S.F.L.x.c s k m u X 3.f g x.s.A.i.i.y.y.i.h.u.u.j.b.u.y.i.i.b.i.b.i.i.i.b.t.i.i.y.x.d.l k O [ $ b # g L.P.A.K.c.h Q = A ",
"e z M r.s.N.m.g # >.  :.:.+   m # B t.K.a.i.y.b.u.b.u.u.u.u.u.u.y.i.i.m.a.i.y.y.t.b.i.u.x.J.@ [ X O <.u 8 5.# J.L.L.m.c.1 G G > ",
": 2 h f x.k.k.l y :.+ 1.:.1.9 n $ M k.N.s.p.i.y.u.b.p.p.p.y.y.i.i.p.M.M.s.p.a.a.M.a.a.M.n.M $ u X u 2.2.$ 5.l M K.K.v.{ 2 4 t E ",
"! t b # g x.B f ,.9 >.2.e.e.2.m [ # k.i.s.M.N.n.n.n.s.N.A.N.M.M.M.M.M.M.s.s.N.M.y.M.n.n.k.@ 5.9 p w.q.w.2.u 3.f g.k.C d 7 S 7 -.",
": : 8 s g x.g.f ,.>.1.w.5.q.,.,.b # N t.m.m.n.M.n.n.M.M.a.M.n.n.n.n.b.i.i.i.u.u.b.b.r.h.B @ 2.>.1.w.0.w.3.n 5.1 M V _ 7 J &.;.;.",
"> 4 5 < C c B # p p O ,.,.5.9 9 8 b M N C N l.f.l.f.f.f.f.f.l.l.C l.f.f.f.f.l.C l.l.l.C k 9.9 9 O i 2.2.0 [ u ] b j 7 ( | | ;.F ",
"6 R 6 5 1 j j u + [ o p p   . [   q 1 1 v _ 1 < < j 1 < 1 1 j h z z < z 2 _ z 2 < z ( ] ( 5   /   + >.+ 8 <.  6.8 5 4 ....@...; ",
"G K 3 6 G ! ! ) r 8 8 / p   1.p q * w K * K W : w : , , w q 6 6 , R 6 6 H Y K ; 3 4 3 @.O.w Q / p O >.+ [ . $.P ! L G U Y 6 4 G ",
"G G G U G 6 w / Q i o q 8 + q 9 > w w - 6 > : G - 6 : w 6 K 6 6 ~ ; G U R 4 K S S 4 G 6 P ! ! w o 9 9 + r T R U ; G 4 - 4 6 6 6 ",
"G 6 4 ~ Y w 6 w : : K q P , , , r P ! 6 4 ; Y 4 3 6 K ! e w w 6 4 ; 4 6 6 3 @.=.@...6 w w : 6 6 r q q r : 6 : ; ; % = A G 6 : 6 ",
"L 6 6 A T G w - = , = > R : P w w 6 ! Y U 3 ..4 4 Y K 4 6 - ~ 4 =.J 3 = : @.G 6.@.Y ; ; K : 6 ! Q ! e w @.6 = ; 6 G G 6 4 : K 6 ",
"R R K 6 6 = 6 6 G ; : ; O.Y 6 ; 6 6 ; 3 E 4  .*.; E 4 G 4 5 ~ 3 =.o.E S O.E @. .U 4 > 3 6 - w * ! O.U 3 ' 6.S 4 H ' ~ ; 6 R ! , ",
"R R : G Y W L 6 Y O.~ % ~ U = $.P w - 4 S 3 E $.3 S Y $.~ K - 6  .o.} J 4 ' #.; K - E L L G > , - D U 6 @.*. .- ..Y 6 4 R P w 6 ",
"- I ; ! Y W ; 6 ; I ' ~ = = U K w 6 U #.=.=.H J 3 U 6.E 6 - w - ..H ..H 4 4 6 6 ; $.Y G 4 ; > - e - 4 S - E  .; ..= 4 6 3 6 w w ",
"; w 4 : 6 6 4 6 4 6 6 R R - - 6 w T Y 6 D =.=.U 4 O.O.K 6 - 6 6 Y E H H ; ; 6 w : , > ; - A : q = S 4 } A 4 H E = ..6.' #.4 6 6 ",
"G ' G 6 6 4 6 6 : 6 - - : 6 6 & & 6 Y 6 6 E ' E 3 G > ; w w w 6 3 K W S ; G ; w P : - = : 6 = : - ; O.=.*...J S ..7. .S 3 > ~ 6 ",
"e ..6 U ! - K 6 R K : - 6 & 6 ! : - 6 - 4 ; G 3 6 3 - w w : w 6 ` H - ! w ; : #.' R 6 q : q * : G ; S L +.@.#.H ..W G S 3 Y R ; ",
"6 K 5 w ! Y ; 6 6 R ~ P w w w ! Q 5 - - 6 5 6 6 w w w w : q : : - E 6 ^ P P w > ~ R G 6 : w - R ; G : S K  .@.E O.H ; W Y R 6 - ",
"4 - 6 6 6 ! 6 : 5 ; w : 6 6 w P ! 6 : 6 6 - 6 w & q : * , , - - 6 6 5 P ! * 6 6 3 Y Q w q : - R I - 6 3 3 4 = 6 4 3 3 - 6 w 6 6 ",
"6 6 w K - 6 w w - : 6 w 6 6 6 6 R w 6 6 6 - & : : 6 * w ! ; - : 6 ; w w ! ! 6 6 6 D w : K : 6 6 W ~ G = 6 G 6 4 3 6 K 6 6 6 : : ",
"q A : > > : w K 6 R I L : 6 Y 6 6 - 6 K ~ 6 6 6 w q w / ! w - w : 6 6 6 - ! 6 K 6 4 = 6 ; 6 P w - G ; @.O.3 4 6 6 : : w w : : w ",
": K > - - > ; A ; G Y O.W 4 Y Y 4 4 ~ R ' e w 6 Q e w Q Q : , - w q 6 - - 6 6 ~ - G 4 o.- 6 ! R G S G E O.4 6 = ! K w ! K q q * ",
": A 6 : = 6 6 6 4 ....=. .; ..H S ` o.o.; S G L Y w 6 : ! r q 6 6 6 6 : : 6 6 : S O.' =...6 O.E S | | | ; 4 4 U P 6 w w Q , > - ",
"K P q : , : w ! 3 S L  .=.H ; S o.o.@.*. .; ; ! ! & P w , : * w w ! w K = * w R U 6 S  .=.Y G = ..| *.=.X.3 ; R R w , * q , q w ",
"P I 6 6 = - 6 U Y G % S ; ..w Y F &.&.A - - , ! w w ; 6 A 3 4 6 R P & > : 6 ; 6 - = = = ; ; ; G 6 3 G ; G 4 6 : q q w w K 6 - 6 ",
"R ! K : 6 > w 6 ; ; ; U U W Y Y ..} G = 6 : = r , 5 6 ; 4 G K ` R R : : : : : 6 = ~ G - - : w 6 : R : w 6 - ~ q : 6 w : 6 6 6 P ",
"! Y 6 = w K w 6 w K 6.6.O.- R : - > - , : w * K R Y L | 4 ; ;.=.U P w - : 6 6 ! : ~ w K , > , : w w P w 6 ..U K 6 : ; e w w 6 U ",
"U : = K W P K 6 G O.O.r w w = w A K ! ! ! w : ; = W H E X.; ; X.Y G - - w > w ! w K P T w * > P 6 : @.e - 8.6 4 6 - & : : 6 6 ! ",
"G 6 6 Y ! I 6 6 - 6 w A : G : 6 A L Y ; 6 = 3 - 4 6 6 '  .6 6 6 G L - Y K G R R 6 : w A = q = q ; E ' @.E H H D 4 6 6 6 6 6 ; 6 ",
"4 ; ; 6 6 6 : - 6 Y P E S ; G ; H E 6 = 6 G K W R - 6 4 6 ; w 6 ; J 3 +.W : P 6 G 6 : G - > ! #.6.` F o.H F E ` @.#.~ 6 & w w ! ",
"; 6 P 6 K : 6 - 6 4 3 W K S G ; 4 = ; G : R R R P 6 Y ; ; Y =.; S ; ; =.P ; ; 6 G G ; W - G w ; H ;.| F J J ` ;.E 4 6 6 6 q ! ! ",
"$.U ~ 6 = ! R - > G S ; J ; ; *.=.=.' G > K , ! ! w 6 ; E =.*.S o.| J *.4 S = L Y 6 ; O.K G ~ ; S 4 o.X.F ; o.Y 4 6 6 : : w P w ",
"+.~ - w ! ! 6 - ; 6.H 3 ; ; o.' &.} E G - - > - K R 6 4 6.O.4 ;  .&. .H Y 6.7...; ; G O.H ~ - G 6 4 R Y E ; 6 6 6 w : * w 6 5 6 ",
"- O.6 - 6 > = 6 6 =.6.L A X.H ..+.E 4 3 ~ R 6 : K 3 G 3  .Y 3 6 ; J =.J 4 ; 6 - 4 ; 4 ; W R = Y P w ; 6 w 6 = w q ! w 6 6 6 - G ",
"; : G w : : - * G ' ..O.4 A P ..; 6 ; G Y ; = G ' o. .4 4 4 = 4 ; ; W U ; ; - ; ; > P @.4 3 #.R K q w w 5 w : q : R ! w 4 6 ; E ",
"6.K G W K - : ; - ; ! ..6 G o.O.G ; G : - - } [.=.| | 4 S | 8.@.=.S = 6 K : > , = - A E O.Y O.> : 6 w , ~ w q : : w R R 4 ; U =.",
"; ; 6 Y P 6 G w - 6 6 R ~ 3 - ; } ..K 4 4 - = = G = 6 4 o.*.*.~ ; > P - = : w ! 6 : = : ! ! ; K 6 - 6 K R 6 U : 6 : 6 Y 4 S o.;.",
"G = 6 G R W > , 6 K : = 6 K 6 L +.=.=. .; ; > ; R Y Y 4 6 6 3 ; ; > = : , w : ! R 6 - 3 6 ; 6 = 3 3 4 ! Q - q w & w 6 6 4 Y ;.F ",
"S K S G = w 6 K = : > 6 w P , : : > = - 5 = 6 R Y 6 : G 6 : K 4 6 P 6 6 : ; > ; U ; S @.6 > , : : 6 6 w P w w q q : w R 6 U O.4 ",
"4 R ; Y ! ~ = : = w , w = * : : * w w w % - K 6 6 Y - ; w 6 w 6 6 R I 6 w ~ O.; S ;  .&.4 - : w 6 R 6 - 6 w ~ K w 6 P R 3 U 6 6 ",
"J ; S O...3 w > P P ! w w : : : > > r : : K = ! : ~ ~ 6 ; A : w U G R R 6 > W O.J S &.W S 6 : = 6 ! Y K 6 6  .4 4 ~ Y ~ 4 6 6 6 ",
"; S ; G 6 4 4 Y ! 6 6 - 6 w w > , q = * : ; ~ L : r Y A ; ; ~ : 4 4 4 6 ; 6 G 6.} J ..S G G > : 6 w U U 3 E 8.` 3 H ; 6 3 & - - ",
"=.=.o.; ; ; G ; G 6 - : P W R 6 w : , w K 6 L ..G - ~ - 6 U R G &.Y G ; ~ Y ; ;  .J H L  .' ! : 6 : K Y 4 E *.*.S ; S ; - w 6 w ",
"=.| }  .S  .O.6.6.' Y = - > Y R w 6 - ! - : O.4 4 - 4 S } W Y ; &.8.G Y = O.#.U G K H J Y 6 K : 5 6 6 3 4 ; F *.; F o.6.O.! P w ",
"J  .o.H S L E ' = ; ; ; ; G G P P w : R R G : - 4 ; ; 6 ' O.6 ; ..` E H 6 3 6.#.Y R G L 6 ; w = * w 6 ; H E H X.J X.X.@.Y 3 w w ",
"= J } ; = U ..3 : ; 6 6 = : : 6 6 6 4 Y ' G = G  ...$. .6 6 4 4  .H S ; 6 6 6 6 R U 6 4 6 : 6 : : ! R $.=.=. .H F E E Y 6 w & q ",
"; 4 G Y Y 6 = - O.O.R > : - A 6 ; L 3 ; o.O.; ..=.&.H ; G 4 ; S ; Y 4 6 4 % w 6 > ! K - 6 w 6 - w 6 w 6 3 K ~ U ; 3 6 6 6 & : w ",
"4 O.=. .6 ; 6 O.R ! : P - - 6 #.w - ; 4 G ; 4  .=.; = .. .L E ; G O.G - : - > 6 K w , = w ; w : * - 6 6 w w 6 - : = 6 6 6 6 P w ",
"U ' Y 6 4 L = 6 : K w P 6 - : O.' 4 6 Y ` =.@.J S ; @.7.$.=.} ; K +.6 & : w 6 : 6 : : : : w ! w 6 4 - - w - * w Q * , : w w R : ",
"- > 6 6 6 K : K 6 G K - : : K #.O.S L 6.8... ...; ;  .Y o. .G : G K 6 - w P : 6 : n n n n n n n n n n : 5 : r ! ^ , : , w w w : ",
"K 6 K K K : 6 : w K K 6 = - 6 O.G G 4 ! ` &.@.} E 6 G Y O.; ; : , : 6 : W.W.W.W.n n n n n n n n n n n n n : ! P T w q : w 6 : : ",
"6 > P K : 6 ! ! 6 > W.W.W.W.W.W.W.W.W.W.> ; S G = ; 6 G G = : W.W.W.W.W.W.W.W.n n n n n n n n n n n n n n n R w : 6 6 - e : - q ",
"w 6 : : - > K P G W.W.W.4.4.4.W.W.4.4.W.W.W.; ; S ; ; W.W.W.W.W.W.W.4.W.W.n W.n n n n n n n n n 4.4.4.n n n n n 6 6 6 : w : 6 q ",
": 6 ; 6 : 6 6 W.4.W.4.4.W.4.W.y n W.W.W.W.W.W.W.W.W.W.W.W.W.4.4.4.W.4.4.n n n n n n n n n n n 4.4.4.n n n n n n n 3 6 R ~ : - : "
};
