/* XPM */
static char *_3716_c35fab617f9b0c599a939c6770089fe60e8c6f2d10059e9a47ced87affc43b24[] = {
/* columns rows colors chars-per-pixel */
"64 64 191 2 ",
"   c #020101",
".  c #010A00",
"X  c #160202",
"o  c #081103",
"O  c #10100E",
"+  c #090A14",
"@  c #131C17",
"#  c #270000",
"$  c #330100",
"%  c #281010",
"&  c #0E2901",
"*  c #132A03",
"=  c #152A0A",
"-  c #163403",
";  c #1A3205",
":  c #1F3804",
">  c #1B320B",
",  c #17380D",
"<  c #1F3113",
"1  c #36260B",
"2  c #382908",
"3  c #233502",
"4  c #233C03",
"5  c #27310C",
"6  c #223A0B",
"7  c #353403",
"8  c #222413",
"9  c #22251F",
"0  c #382913",
"q  c #253114",
"w  c #223C13",
"e  c #2C3816",
"r  c #29391B",
"t  c #333410",
"y  c #241527",
"u  c #341C27",
"i  c #312222",
"p  c #302F27",
"a  c #353733",
"s  c #450303",
"d  c #431508",
"f  c #521F04",
"g  c #561314",
"h  c #76151C",
"j  c #462807",
"k  c #40300D",
"l  c #4E2314",
"z  c #53201F",
"x  c #443414",
"c  c #663319",
"v  c #691822",
"b  c #4A3820",
"n  c #533925",
"m  c #4D2B32",
"M  c #4A3335",
"N  c #692521",
"B  c #7A2322",
"V  c #7E2A2E",
"C  c #673424",
"Z  c #783121",
"A  c #7B382C",
"S  c #18410E",
"D  c #254005",
"F  c #2C4206",
"G  c #2F4903",
"H  c #27400C",
"J  c #2E4A0C",
"K  c #35500E",
"L  c #2A4214",
"P  c #294A15",
"I  c #2D431C",
"U  c #284B1C",
"Y  c #334712",
"T  c #314A15",
"R  c #36431E",
"E  c #354C1F",
"W  c #375114",
"Q  c #35511E",
"!  c #304424",
"~  c #364B24",
"^  c #395224",
"/  c #3D552D",
"(  c #384432",
")  c #444314",
"_  c #4A4A24",
"`  c #534021",
"'  c #445D22",
"]  c #455E2A",
"[  c #444238",
"{  c #6E4128",
"}  c #436422",
"|  c #4A6321",
" . c #4A6428",
".. c #4D692B",
"X. c #536623",
"o. c #506A28",
"O. c #4B6331",
"+. c #436930",
"@. c #546B32",
"#. c #506638",
"$. c #536A3A",
"%. c #4D783A",
"&. c #557330",
"*. c #5A7331",
"=. c #5B7439",
"-. c #676E38",
";. c #627835",
":. c #3D3A40",
">. c #454546",
",. c #574445",
"<. c #585244",
"1. c #4D4F50",
"2. c #565555",
"3. c #6F4C48",
"4. c #7A4841",
"5. c #665554",
"6. c #5C7540",
"7. c #5E7B40",
"8. c #637B43",
"9. c #7C6857",
"0. c #5D5C61",
"q. c #695E63",
"w. c #6C6668",
"e. c #767070",
"r. c #881B19",
"t. c #9D1522",
"y. c #AB1720",
"u. c #A41E25",
"i. c #AA1A26",
"p. c #B31729",
"a. c #B31C28",
"s. c #B41F30",
"d. c #892724",
"f. c #8C2925",
"g. c #88252E",
"h. c #992223",
"j. c #9B2129",
"k. c #96282D",
"l. c #873024",
"z. c #9C332A",
"x. c #992532",
"c. c #883331",
"v. c #983436",
"b. c #A82224",
"n. c #AC2A2D",
"m. c #A52130",
"M. c #B52730",
"N. c #BB2435",
"B. c #A83337",
"V. c #A53F38",
"C. c #B53235",
"Z. c #BE353B",
"A. c #C52435",
"S. c #CA3336",
"D. c #C43539",
"F. c #CE3039",
"G. c #D1383D",
"H. c #914C37",
"J. c #993544",
"K. c #AB2D42",
"L. c #B93541",
"P. c #C73541",
"I. c #935249",
"U. c #9A5B5D",
"Y. c #B6494B",
"T. c #886858",
"R. c #A7635B",
"E. c #AD7757",
"W. c #A55D61",
"Q. c #996667",
"!. c #95696B",
"~. c #8E7B74",
"^. c #A86F74",
"/. c #C94547",
"(. c #D74C55",
"). c #E35D61",
"_. c #D4696E",
"`. c #E66568",
"'. c #7F8778",
"]. c #88857C",
"[. c #918579",
"{. c #9D7E83",
"}. c #8A8684",
"|. c #958D89",
" X c #9B9A9B",
".X c #B99E9A",
"XX c #B2A39A",
"oX c #AE9FA3",
"OX c #B2A3A5",
"+X c #D69E9F",
"@X c #DDB7B9",
/* pixels */
"> ; q 6 * < q 5 6 W } %.+.4 | ) 6 T @.' 4 4 : T ~ 6 > H ! r 1 1 d l j d j g d j 4 +.+.%.+.4 X.G D } } } 3 4 : ~ I I 6 , P w : , ",
"w H 6 q > , H q 5 4 D +.&.W D - ^ T 6 ^ W 6 - ^ I 5 x p < 6 8 9.T.T.9.9.T.T.T.9.~ w , #.@.) 7 J | X.&.;.@.4 : I I 5 > > S ; ; : ",
"; 6 T w S , > > 5 : , 6 H : : H , , w L - , w : r 0 d 9.9.'.'.].}.{.].].}.].].[.].e.[.[.!.T.3.I.f j 4 4 6 t w L 6 q = 5 e q w w ",
"Q Y ^ w U S , , 6 * r > > < I , > H ; > P E , e 0 z W.W.[.XX|. X X X X X|.}.}.].}.|.{.{.^.{._.^.I.H.` ` x t 5 > : > 5 e q w w L ",
"+.I 6 3 L Q 6 H w < , , , * = = < = 6 w : Q Y 2 ~.Q.U.^..XXXXXXXoXoXoXOXoXOXoXOXoXOXoX.X@X@X@X+X^.Y.J.g.g.g 0 5 ; 6 w R > ; w ~ ",
"T , 6 5 J P 6 Y x ) 1 0 0 x 0 i 2 2 2 t 2 x C R.R.I.V V U.U.Q.Q.!.!.!.!.Q.Q.!.!.Q.Q.Q.Q.^.Q.^.Q.g.B.m.i.u.d.Z f 2 5 t ) ^ D : E ",
"6 L Y T P 4 ) c h B.B.B.v.H.v.v.v.V.Y.Y.V.Y.V.D.i.h.t.h.d.g.k.x.g.c.c.g.v.k.k.v.v.v.x.x.B.B.m.L.B.K.M.P.a.n.n.z.Z l j ) Q L 3 : ",
"6 5 5 4 ) 2 H.V.C.D.P.P.Y._._.).`.(.D.D.S.D.S.F.A.D.M.C.B.C.D.S.C.V.B.C.Z.M./.`.`.`.(.).(.L.L._.Z.L.P.P.L.N.P.N.C.z.Z j Y 4 6 T ",
"~ > 7 k f H.C.P.G.C.x.V A c.v./.P.(.F.F.A.S.G.S.D.D.D.Z.D.D.F.F.D.D.Z.Z.D.S.D./././.V.P.P.L.L.Y.x.B B l.t.L.P.D.S.C.h.c.j 4 Q P ",
"~ ) j I.V.C.D.N.t.d.s X X # N c.K.N.A.A.A.S.P.S.D.D.Z.Z.D.D.F.F.D.N.M.b.p.p.p.b.h.b.b.b.M.L._.J.g $   X N d.K.Z.S././.f.j Q P S ",
"! x A h.D.F.L.x.v d l M i X 3.g h x.s.A.i.i.y.y.i.h.u.u.j.b.u.y.p.i.b.i.u.i.i.i.u.u.y.a.i.x.d.g l O [ % n $ h L.D.A.K.c.j R : S ",
"w x N r.s.N.m.v $ >.  :.:.@   M $ V t.K.a.i.y.b.u.b.u.u.u.u.u.u.y.i.i.m.i.i.i.y.t.b.i.u.x.J.# [ X O <.i 8 5.s J.L.L.m.c.1 6 H , ",
"6 2 j g x.x.k.g i :.@ 1.:.1.y M % N x.N.s.p.i.y.u.b.p.p.p.y.y.i.i.i.M.s.s.a.a.a.M.a.a.M.n.N % i X i 2.2.% 5.z N K.K.v.{ 0 4 t W ",
"~ t n $ h x.V g ,.9 >.2.e.e.2.M [ $ k.y.s.N.s.n.n.n.M.N.A.N.M.M.M.M.M.M.s.s.N.M.y.M.n.n.k.# 5.9 a w.q.w.2.i 3.g g.k.Z f 7 F 7 -.",
"> > 8 d h x.g.g ,.>.1.w.5.q.,.,.n $ B h.m.m.n.M.n.n.M.M.a.N.n.n.n.n.b.i.i.i.u.u.b.b.r.h.V # 2.>.1.w.0.w.3.M 5.1 N C ` 7 K &.;.;.",
", 4 5 2 Z v c.$ p a O ,.,.5.9 9 8 n N B Z B l.f.l.f.f.d.f.f.l.l.Z l.f.f.f.f.l.Z f.l.l.Z l 9.9 9 + p 2.2.0 [ i _ n k 7 ) | | ;.G ",
"6 E H 5 1 k k i @ [ o a a   . [   q 1 1 x n 1 2 2 k 1 1 2 2 k j x b 2 x 2 ` x k j x ) _ ) 5   (   @ >.@ 8 <.  6.8 5 4  ...o...: ",
"H L 3 6 H ~ ! _ r = 8 ( a   1.a q = w w > I Q > w > q < 6 q 6 6 6 I 6 6 J T L ; 3 4 4 @.O.w ! ( a O >.@ [ . $.I ~ P H Y T w 4 H ",
"H H H Y 6 6 w ( ! p o q 8 @ q 9 , w w ; > 6 6 6 ; 6 > w > L 6 6 E 6 H Y Q 3 Y 4 D 4 H 6 I ~ ~ q o 9 9 9 r R E Y : H D ; 6 6 6 6 ",
"H 6 4 ~ T H 6 w > > I q r q q < r I ~ 6 D : T 4 3 6 L E L w w 6 3 ; : H 6 4 $.=.@. .6 w w > 6 w r q q w > 6 > : : & - S 6 6 6 6 ",
"P D : w I H w ; ; > ; > Q > I L w 6 E T T 3 ..4 3 Y I : 6 ; ^ 4 =.K 3 : 6 @.H 6.@.T : > L > , ~ ! ~ e w $.6 - : D H H H 4 > L 6 ",
"E.! H 6 6 , 6 6 S : 6 6 E.E.E.E.E.E.E.E.E.E. .*.4 W 4 H 4 5 ^ 3 =.o.W D ] W @. .Y 4 : 4 D ; w ; ~ ] Y 3 ] =.D D J ] Q > 6 E ~ q ",
"E.E.E.E.E.Q P 6 Y O.E.E.E.4.4.E.E.4.4.4.E.E.E.$.; D T $.E L ; 6  .o.} K S ' #.: L ; W U T H - w ; F Y 6 $.*. .* ..T H 4 E R w > ",
"4.4.E.E.E.E.: 6 E.E.E.E.E.E.E.m u E.4.E.4.4.E.4.E.Y 8.T 6 : w : O.J o.J 4 : H 6 ; $.T H ; ; w * t ; D D ; W  .4 ..- 4 : : 6 w w ",
"E.E.E.E.E.E.E.E.E.E.E.E.E.E.E.m u E.4.4.4.4.4.E.E.E.] I 6 > 6 6 T W J J : : 6 w > w > : ; L > w - D : } : D J W - ..6.] #.4 6 > ",
"E.4.4.4.4.E.E.E.E.E.E.E.E.E.E.E.m u 4.4.4.4.4.4.4.4.E.E.w w w > : I Q D : H 6 w I > ; - ; , > > ; : O.=.=.o.K D ..7. .4 3 , ^ H ",
"4.4.4.4.E.E.E.E.E.E.E.E.E.4.E.E.E.m 4.4.y y y 4.4.m m u u m w 6 ' G - ~ w : > O.O.I 6 < > < * > H : D P +.&.#.J ..Q D D 3 T E ; ",
"4.4.4.4.E.4.4.4.E.E.E.E.4.E.E.4.4.4.4.4.4.4.4.4.m m m u + + + : - W 6 / I ! , 6 Q E w 6 > w > E 4 S - D L O...W O.P : ^ T E 6 : ",
"4.4.4.4.4.4.4.E.E.4.4.4.4.E.E.4.{ I.4.4.4.m m 4.m m u u u + u = 6 6 > I ~ > 6 > 3 I E w q > ; E E ; 6 3 6 ; ; 6 4 3 3 : 6 L > 6 ",
"4.4.4.4.4.4.4.4.E.E.4.4.4.4.E.E.4.4.4.4.4.4.m m m u u u u y u > 6 5 w w ~ E 6 6 6 F w > L > 6 6 Q E H ; 6 6 H 4 : 6 L 6 6 6 > > ",
"4.4.4.4.4.4.4.4.E.4.4.4.4.4.4.4.4.4.4.4.4.4.m m m u u u u y u w > 6 6 6 ; ~ 6 I 6 4 ; 6 : 6 I w : H - @.O.3 4 6 6 > > w w > > w ",
"4.4.4.4.4.4.4.4.4.4.4.4.4.4.4.4.4.4.4.4.m 4.4.m m u u u u y u > w e 6 ; ; 6 6 ^ : H 4 o.; 6 Q ! H D H W ..4 H ; E r 6 ~ I < q = ",
"4.4.4.4.4.4.4.4.4.4.4.4.4.4.4.4.4.4.4.4.m m m m u u u y y y u > > 6 > > > , 6 > D ..] 6...: O.W D | | | 4 3 4 Y I 6 < w ~ w > > ",
"4.4.4.4.4.4.4.4.4.4.4.4.4.4.4.4.m m 4.m m m u u u u u u u u > w q E L H - > H ~ T H 4  .=.T H ; o.| *.=.X.; 4 ~ E w q = < < < w ",
"4.4.4.4.4.4.4.4.4.4.4.4.4.4.4.4.4.m m u u u u u u u u u u 3 4 6 T E & , > > , 6 ; - - ; : > 4 H > 3 H 4 6 4 6 6 q q w w L 6 ; 6 ",
"4.4.4.4.4.4.4.4.4.4.4.4.4.m 4.m m u u u u > > r w 6 6 : 4 D L | ^ E > > > 6 ; 6 ; Q H - ; > , w > E > w 6 : ~ < : , w > 6 6 6 I ",
"4.4.4.4.4.4.4.4.4.4.4.m 4.m m m u u ; < > < , L ~ Y I | 4 4 ;.=.Y I w ; > : 6 ! > ~ L L < - < > w w R w 6 O.Y L 6 > 6 6 w w 6 T ",
"4.4.4.4.4.4.4.4.4.m 4.4.m m m m u L ! ~ ~ w > - - Q J K X.; ; X.T H ; ; w w L ~ w L I I < > > U 6 > $.6 ; 8.6 3 5 : * > > 6 6 ~ ",
"4.4.4.4.4.4.m 4.4.m m 4.m m m 6 : P P 4 6 ; 3 - 4 6 H ' O.6 6 6 H P ; T I H E I 6 > w S , < > < 6 W ] @.W J J F 4 6 6 6 5 6 6 6 ",
"4.m 4.4.4.4.m m 4.4.m m m m H : J K H - 6 H H Q ~ ; 6 4 6 : w 6 : K 3 +.W 6 I , H 6 > L - : ~ #.=.| G o.J G K | @.$.Q 6 * w w ~ ",
"m m 4.4.4.4.4.m 4.4.m m I D H : S ; : H > ~ ^ I I 6 T D : T =.: D : 4 =.P : : H H : : ^ ; H w 6 J ;.| G K K ' ;.W 4 6 6 6 q ~ ~ ",
"m 4.4.m m 4.m m m m m : K : 4 *.=.=.] H : w < ~ ~ w 6 ; W =.*.D ..| K &.: D - T T 6 : O.H H ^ : D 4 ..X.G : o.T 4 > 5 > > w I w ",
"m m m m m 4.m m m m J : : : o.' &.} W H ; : , - L E 6 4 6.O.4 :  .&. .J Y 6.=...: : H O.J ^ ; H 6 3 ^ Y W : H 6 6 w > = w 6 5 6 ",
"u u m m m m m m + + =.P S X.J ..+.W 4 4 ^ E 6 , H 3 H :  .T 3 6 : K =.K D 6 6 ; H : : : Q E - T I H : , w D - < w E w 6 6 6 - H ",
"u u u m m m y + + + + O.: D L ..6 6 6 S T 4 - w ' @. .: 4 D ; 4 : : ^ Y - 6 ; : : - L @.: : #.Q L < w w 6 w > q > E ~ w 6 6 ; W ",
"y u u m y y + + + + + + H 6 @...6 4 4 : ; ; ..8.=.| | D 4 | 8.@.=.D ; : H ; , < ; - L W O.T O.q > 6 w q ~ e q > > w E E 4 4 K =.",
"y u m m y > L + + + + + + 3 ; : } ..I : 3 ; ; > H - H : o.*.*.^ 6 - I - > , w ~ 6 > - ; ^ ^ : S 6 ; , Y E 6 L 6 > > H T 3 D @.;.",
"y u m m y Q , + + + + + + L 6 T +.=.=. .: : w 6 E T T : H 6 3 : : 6 = > < w > ~ ~ 6 ; : 6 - 6 ; 3 6 6 ~ E ; q w * w 6 6 4 J ;.G ",
"y y m y - w 6 S + + + + + + q > > , - ; 6 - 6 E T 6 6 6 w > H 4 6 I 6 6 6 ; , : T : D @.6 , < > 6 : , L I L w < < > w E 6 Y  .3 ",
"y y y y ~ ^ > > > + + + + + + > , < w w & ; L 6 6 T : ; H , w 6 6 E U 6 w ~ O.: D :  .&.4 - > w 6 R 6 ; 6 w ~ L w 6 I E 6 Y 6 6 ",
"y y y O.O.4 w , I I + + + + + , , ; r > = H ; ~ > ~ ^ 6 4 w > w Y H E E : , ^ O.K D &.Q D 6 = > 6 ~ T L 5 H ..3 4 ^ T E 4 6 6 6 ",
"y y : H 4 4 6 T E 6 6 : + + + + < < > > > 6 ^ P > I Y S > 4 ^ > : 4 D 6 ; H H 6.} K ..D H H 6 6 6 w Y T 3 W 8.' 3 J : H 3 * : ; ",
"y y ..: : : 6 4 6 6 ; > + + + + S > q w L 6 P ..H ; ~ ; H Y E D &.W : : ^ T : :  .K J L  .] ~ > 5 > w T 4 K *.*.D ; 4 6 > w 6 w ",
"=.} '  .D  .O.=.6.] T - ; 6 T E q 6 - ~ ; > O.D : ; 4 D } Q P : &.8.H T - O.#.Y H L J K T 6 S > > 6 6 3 4 4 G *.4 G o.6.O.E I w ",
"K  .o.J D T W ] ; > : 4 ; H L I E w > ~ ~ H > - D : : 6 ] O.6 : o.' W P H 4 6.#.T Q H P 6 : 6 > = w 6 6 J W J X.K X.o.@.T : r 6 ",
"; K | : - T ..: 4 : , H - > > : > 6 4 T ' H ; 6  ...#...6 6 4 4  .J D : > 6 6 6 E Y 6 4 6 > 6 > > ^ E #.=.=. .J G W W T : w * q ",
"; : H T Y 6 - ; O.O.! S > ; H 6 ; P 4 ; o.O.: ..=.&.J : H 4 : 4 : T 4 6 4 * , w 6 ~ L ; 6 H 6 ; w 6 e 6 : Y E T : 3 6 6 6 * > w ",
"D ..=. .w : 6 O.E ~ > I ; ; w O.w - 6 4 D 4 3 ..=.: - .. .P W : H O.H ; > ; 6 6 , L < ; w , w > = ; 6 6 w w 6 ; > ; w : 6 6 I w ",
"J ] T 6 4 P - 6 > L , I 6 ; > O.] 4 H T ' =.@.K D : @.7.$.=.} : I +.6 * > w > > , > > > > w ~ w 6 4 ; ; w ; = w ! * q > e w ~ > ",
"- w 6 6 H r > L 6 H I ; > > L O.O.D P =.8.@.} ..: :  .T o. .H ; H L 4 ; w I > 6 > > 6 w > L I E ; 6 6 > > > r ~ / < > < w w w > ",
"w 6 w L w 6 6 > w L L > - ; H O.H H 4 ~ ] &.@.} W H H P O.: , > w > , > 6 E w 6 6 ; L L 6 6 6 ^ 4 6 6 ; - > ~ I R w < > w > 6 > ",
"6 6 I I > 6 ~ ~ w H I 6 > ; 6 , > : ; T : : D 4 - : 6 H H - > ; w w L > : ~ L D 6 6 ^ > 6 5 6 6 R 4 6 6 r 6 E w > w 6 ; w > ; q ",
"w 6 : > ; 6 S I 6 > w 6 - 6 Q 4 H : 6  .O.: 6 4 4 4 ; ; w L ; , q < H - ; T T I : S ! T ; 6 E 4 L 6 6 ] ..6 6 3 6 6 6 6 w > 6 q ",
"> 6 ; 6 > 6 6 ~ H > 6  .- : Y ~ > L L P #.: 6 6 T D 6 E ( > > , < L < > > : : E D : : $.; : E T ; w Y E O.3 6 6 E 3 6 E E > ; > "
};
