/* XPM */
static char *_2959_85b4be1d8211ed4da661682b94e892ba3e4d83dc0fe7120a65def3813925dd95[] = {
/* columns rows colors chars-per-pixel */
"64 64 54 1 ",
"  c #080A14",
". c #090A14",
"X c #090B14",
"o c #090A15",
"O c #1E3616",
"+ c #1F3616",
"@ c #1E3716",
"# c #1F3716",
"$ c #1E3617",
"% c #1F3617",
"& c #263A16",
"* c #273A16",
"= c #263B16",
"- c #273B16",
"; c #263A17",
": c #263B17",
"> c #273B17",
", c #241427",
"< c #251427",
"1 c #241527",
"2 c #251527",
"3 c #341C26",
"4 c #341C27",
"5 c #351C27",
"6 c #341D27",
"7 c #4D2A32",
"8 c #4C2B32",
"9 c #4D2B32",
"0 c #4D2B33",
"q c #2D4217",
"w c #2C4317",
"e c #2D4317",
"r c #344C1A",
"t c #344D1A",
"y c #354D1A",
"u c #344C1B",
"i c #354C1B",
"p c #344D1B",
"a c #354D1B",
"s c #5F761E",
"d c #5E761F",
"f c #5F761F",
"g c #5E771F",
"h c #5F771F",
"j c #476820",
"k c #466920",
"l c #476920",
"z c #476821",
"x c #466921",
"c c #476921",
"v c #7A4840",
"b c #7A4841",
"n c #7B4841",
"m c #7A4941",
/* pixels */
"+41114449999bbbbbbbbbbbbbbbbbbbbbb999999bbbbbbbbbbbbb999999999++",
"=-44444444999b99bbbbbbbbbbbbbmbbbbbb99999bbbbbbbbbbbbb999944999=",
"==p444344434409bbbbbbbbbbbbbbbbbbb99999bnbbbbb9bbbb9bbv99993494=",
"ppa=p===O+=544499b9bbbbbbbbbbbbbbbb99999b99bbb99bbbb8bb99999444p",
"cp==pp==:+++O+44999b9mbbbbbmbbbbbbb9999999bbbbb99bbb99999449444p",
"p&===p=ppp+#+=+47999bb9bbbbbbvbnb9bbb999bbbbbbbbbbbb9979944444=p",
"==ppt-pp=#$+-:-++799b99bb9bbbbmvb999b9999bbbbbbbbbbbb04494444===",
"====p===++===p====9999bb99nbbb9bbb99794990bb97b99b9nbb944044p==p",
"p==:====+-==up==&==+99bb9bbbbb999b994444999b99bb9999bbv4444>==uu",
"pp:===+++===pp==ppppc99999b99bb999944544999999mn99999994444==pp=",
"ppa=++%==p==p::-==uppc9999b98998454444444994999b9999999444pu=p=&",
"===-==&==cc=&=ppp;=ppa..9999994444444p=-&4446999499499444==p====",
"&===ppp==lsp=pup=&==:....1990444====pp====4344444994494441==&&=p",
"p=====pp-=ff=ap===++...o..119441p==pp=-:cffh==+444994444441==-pf",
"=+=+#===:=pcpp==:==......==19941=+:pp===pcfcc==+p..114444311pfff",
"===++==pffpipcffzp&......++19941>==p==y=ppcxpc=pf. ..=111441ccfp",
"=p====&=&ccpcffz=+o.....#-++1911=y===pp===pcp==cl..o.chc11411cc=",
"=p===ppa==p=cxp=+......=+===11111p==ppp&:==cc&pcp....fztp111<p==",
"p=*p==ppp===p=+++.....==O====1111==pi:====-=ppp=.X..=tpu:,111===",
"===ta==O+====O+=o...==p=+==pp:1,1=&===fhfc===-=.....===%++112===",
"p===p=&=+++:p&=-....p=c==pa==&111p+==cafcp====&....-c=++=:p=====",
"tp=====&==%%cp======p=xd=p===:a=ffp=xpccu====+++pcp=cf==pct:=tp=",
"pa==pua=pcp+tp=xa=====pf:-afp===zccu=cc-==tpp==+&&t=cfc=cp=;pp==",
"+p=ptp===pcp++pu=-pcfhaa:pfp==:-cpzp=====zp===+%=====pc+c==&-==-",
"=-=&=======pp+++=pa=phfp=cc=:===ppup======#+==+=+;=c==pa+lfxc:=&",
"=c======++++++&++===&pcp=:=:====:pp:-:====+%+++++=zffcppcfc=&:p=",
"ec=pp===pp++++=u++==-===========pp;p==&cxp=++++:===plhcpcc===pp=",
"====pa=:=ptp===pp+++===========+=p>pp===pp==+++a=====ccpc==ppp=+",
"&====p==%+=====pp====+==++++++++===pp-:=&pp==++pp===&=&==&-====#",
"=====&-++=-=====p====++++++=p+++===&up;==::=====pp============+#",
"====+%+p=ppu+=p====pp==&===pp=+=====%p=p====+=p====cc-=====;=:+=",
"=&+++====&pcy:pp-=ppc:==p==pt+++=&#%+==p===c+=ip>=ppc===p==pp+++",
"+==+O&===ccfx&ct-zcc==:pp===p=%++=&++====ccfc-cp=cxx===pp=:=a=++",
"=p=-++=p=:pcfp=&czffx==pp==&=++==p==O+&tp==cfp==ccfhc==ap=++=++=",
"pp-++O=pp=++=c=ppff=++=p=:===-==pp+O+:==#+O+====&====&&=========",
"pp=+===-==+pppppcc=++++===&===pcpu+=+++++p=+++=-==-===p==+==>==p",
"pu==&=p=&=gfc+p++++++=+=papc=&fspp+%+==p=pp==++=&=p=&cp;=++====p",
"p:==pp===zxp==-===ppt=++=pppc==cp=++==:p==ip=++--:c&=f==-=++===a",
"===ppp=:====&==&-pp==#++===cc====p==p=pp===>#O===tcfppp====&%=:=",
"======++=pau==&&pa====ppp+==++===p=ca=p=:===+=pcfcpcpppzfzp=%==p",
"==p=:+=O===pu========pupp=p:=pd====fp=-====p====pfcutpcsp===%=pp",
"cpp==pp#====p==fffc====pp===pff-ccph==-pp==c=pp==uczp=cp=-=%+=t=",
"ct==pp=#=fp+==ccfcp===+%pa==fx&=xfcppdfc===cpp-=:=ppt=====OO=&&-",
"=c====++-ffp=lpccp=&pp=+====cp===pfp======:-tp=up===-====p=&-::=",
"==:==+++=cjc==ac:===p++pclc===&*==pp=++%+=pc==cp=====>#+=up===&p",
"f-pp=++O+=tcp=cc&==:+#cffzc==lfsf==:O+==++=pcpc==O==p=:%+=tp==pf",
"=+=pp-==+:=tp===cca#+++=====cffa=+:-+==p=++=up==++=rp===+:=p==fs",
"====pt=========pcdfl====ppp===;==++O+=&pp=+===-++==pp==-O+===thp",
"=p===-==$+=&===+%#++++=pt:=======p==:===p=:c==++===&p====+=p=pc=",
"=p=ppp==+++=++O++-&++%=:=p=:=====pi&=pc===cf==+&=p-===p&==pp:p>=",
"a==ll===ppp=+=+%++=++==p:pp-====p=pp==pcp-fp==++=pp==pc:-tpp====",
"==-==:&pp==@=====+%++=pp==p===p========fzpcp===+==pp=pfc=p--++++",
"ffc===&-===+ppp===+:==pc++p==pp&fp==pp==cup=ccp++==p=pfh=====&==",
"fccc=ccffc=++=pp>=+p==c&==-=cpp;fdpp=czp=tptp===+====-pf=pcfcpu=",
"pccp=ppc+==++:=up=+yp&++::==cc=:ccp===fcap=p=:=++===pppcucfcp===",
"+px++pc++===++====&pc===ccfc:=&=ct======pp&==%%+=apcfhcppppp==+%",
"=-epu:++ccp=&+======cz=cfdp======p==++===p===&=+=====pup++==+++=",
"=cfc===cpp=a+#=c:====&=cf=+ckpp==l&=+++==->+====++=:==++++-==-p=",
"ece;======&=:+=xz=&ulhfp==cffdc=pc=++=++&=+++=p-=O+=:++=p++===p=",
"===eee===we=+#=cc=afdczl==cpcc=+=:=+:p=++++===pp:=+%%+=pp=++===O",
"==qe-====ew+++-c===pcfccp=ptc==+===+-p===+p==->p:&=++-ppp==+=:=#",
"=;p===pu::p+#==========-#+====++===+=pp===t=====r=====p====+==++",
"=&-=+==p====#&p====cc===&=*===+-===++p=p==ap%=p====cc===&:-==&+=",
"-=+++=&p=-=x+&pu==ppc===p==pp%++&=+#+==p===c+=pu==puc===p:=pp+++"
};
