/* XPM */
static char *_2263_06955b720089cc2210e69fc4d807882db753bdc891712d35720990fd7d89b729[] = {
/* columns rows colors chars-per-pixel */
"64 64 192 2 ",
"   c #020101",
".  c #010A00",
"X  c #090D0D",
"o  c #160202",
"O  c #10100E",
"+  c #131C17",
"@  c #270000",
"#  c #330100",
"$  c #281010",
"%  c #0E2901",
"&  c #132A03",
"*  c #152A0A",
"=  c #163403",
"-  c #1A3205",
";  c #1F3804",
":  c #1B320B",
">  c #17380D",
",  c #1F3113",
"<  c #372505",
"1  c #36260B",
"2  c #392E0C",
"3  c #233502",
"4  c #233C03",
"5  c #27310C",
"6  c #223A0B",
"7  c #353403",
"8  c #222413",
"9  c #22251F",
"0  c #382913",
"q  c #253114",
"w  c #223C13",
"e  c #2C3816",
"r  c #29391B",
"t  c #333410",
"y  c #241527",
"u  c #341C27",
"i  c #312222",
"p  c #302F27",
"a  c #353733",
"s  c #450303",
"d  c #431508",
"f  c #521F04",
"g  c #561314",
"h  c #76151C",
"j  c #462807",
"k  c #40300D",
"l  c #4E2314",
"z  c #53201F",
"x  c #443414",
"c  c #663319",
"v  c #691822",
"b  c #4A3820",
"n  c #533925",
"m  c #4D2B32",
"M  c #4A3335",
"N  c #692521",
"B  c #7A2322",
"V  c #7E2A2E",
"C  c #673424",
"Z  c #783121",
"A  c #7B382C",
"S  c #18410E",
"D  c #254005",
"F  c #2C4206",
"G  c #2F4903",
"H  c #27400C",
"J  c #2E4A0C",
"K  c #35500E",
"L  c #2A4214",
"P  c #294A15",
"I  c #2D431C",
"U  c #284B1C",
"Y  c #334712",
"T  c #314A15",
"R  c #36431E",
"E  c #344C1F",
"W  c #375114",
"Q  c #35511E",
"!  c #304424",
"~  c #364B24",
"^  c #395224",
"/  c #3D542D",
"(  c #384432",
")  c #444314",
"_  c #434520",
"`  c #534021",
"'  c #445D22",
"]  c #455E2B",
"[  c #55522A",
"{  c #444238",
"}  c #6E4128",
"|  c #436422",
" . c #4A6321",
".. c #4A6428",
"X. c #4D692B",
"o. c #536623",
"O. c #506A28",
"+. c #4B6331",
"@. c #436930",
"#. c #546B32",
"$. c #506638",
"%. c #546A3B",
"&. c #4D783A",
"*. c #557330",
"=. c #5A7331",
"-. c #5B7539",
";. c #676E38",
":. c #627835",
">. c #3D3A40",
",. c #454546",
"<. c #574445",
"1. c #585244",
"2. c #4D4F50",
"3. c #565555",
"4. c #724B46",
"5. c #665554",
"6. c #5C7540",
"7. c #5E7B40",
"8. c #637B43",
"9. c #7C6857",
"0. c #5D5C61",
"q. c #695E63",
"w. c #6C6668",
"e. c #767070",
"r. c #881B19",
"t. c #9D1522",
"y. c #AB1720",
"u. c #A41E25",
"i. c #AA1A26",
"p. c #B31729",
"a. c #B31C28",
"s. c #B41F30",
"d. c #892724",
"f. c #8C2925",
"g. c #88252E",
"h. c #992223",
"j. c #9B2129",
"k. c #96282D",
"l. c #873024",
"z. c #9C332A",
"x. c #992532",
"c. c #883331",
"v. c #983436",
"b. c #A82224",
"n. c #AC2A2D",
"m. c #A52130",
"M. c #B52730",
"N. c #BB2435",
"B. c #A83337",
"V. c #A53F38",
"C. c #B53235",
"Z. c #BE353B",
"A. c #C52435",
"S. c #CA3336",
"D. c #C43539",
"F. c #CE3039",
"G. c #D1383D",
"H. c #914C37",
"J. c #993544",
"K. c #AB2D42",
"L. c #B93541",
"P. c #C73541",
"I. c #935249",
"U. c #9A5B5D",
"Y. c #B5494B",
"T. c #886858",
"R. c #A7635B",
"E. c #AD7757",
"W. c #A55D61",
"Q. c #996667",
"!. c #95696B",
"~. c #8E7B74",
"^. c #A8696D",
"/. c #A9777C",
"(. c #C94547",
"). c #D74C55",
"_. c #E35D61",
"`. c #D4696E",
"'. c #E66568",
"]. c #7F8778",
"[. c #88857C",
"{. c #918579",
"}. c #9D7E83",
"|. c #8A8684",
" X c #958D89",
".X c #9B9A9B",
"XX c #B99E9A",
"oX c #B2A39A",
"OX c #AE9FA3",
"+X c #B3A3A5",
"@X c #D69E9F",
"#X c #DDB7B9",
/* pixels */
": - q 6 & w q 5 6 W | &.@.4  .) 3 T #.' 4 4 4 T ^ 6 : w ! r 1 1 d l j d f g j j 4 @.@.&.@.;  .G D | | | 3 4 4 ~ I L 6 : P H : = ",
"w H 6 q : > w 5 5 6 4 @.=.T D = ^ T H ^ W 6 = Q I 5 x p , 6 8 9.T.T.9.9.T.T.T.9.~ w > $.%.) 7 F  .o.*.:.#.4 3 I E 6 : : > : - H ",
"- 6 T w S > : : 5 6 6 6 w ; ; L > > w L = > w : r 0 d 9.9.].].[.|.{.[.|.|.[.~.[.[.e.{.{.!.T.4.I.f j D D w 5 w r w , * 5 e q > w ",
"Q Y ^ w U S > > 6 & w : : 6 r > : w > : P R S e 0 g W.W.{.oX X.X.X.X.X.X X|.|.|.|. X}.}././.`./.I.H.` ` x 2 5 : - 6 5 e q w w I ",
"@.I 6 3 L ^ D S w : > > > & * * , : > w = Q Y < ~.Q.U.^.XXoXoXoXOXOXOXOXOXOX+X+XOX+XOXXX#X#X#X@X/.Y.J.g.g.g k 5 = 6 w R 6 - w ~ ",
"T ; 6 5 J P 6 Y x ` 1 1 0 x 0 i < < 2 2 2 x C R.R.I.V V U.U.Q.Q.!.!.!.!.!.!.!.!.Q.!.Q.Q./.Q.Q.^.d.z.m.i.u.d.Z f 2 5 t ) E D ; E ",
"; L Y T P ; ) c h B.B.B.v.H.v.v.v.V.Y.Y.V.Y.V.Z.b.h.j.h.d.g.x.x.g.c.c.g.v.k.k.v.v.z.x.x.B.B.m.L.B.K.s.P.a.n.n.z.Z f j ) ^ H 3 ; ",
"w q 5 4 ) < H.V.C.D.P.P.Y.`.`._.'.).D.D.S.D.S.F.A.D.M.C.B.C.D.S.C.V.B.C.Z.M.(.'.'.'.)._.).L.L.`.L.L.P.P.L.N.P.N.C.z.Z j Y 4 6 T ",
"~ ; 7 j f H.C.P.G.C.k.V A c.v.(.P.).F.F.A.S.S.S.D.D.D.Z.D.D.F.F.D.D.D.Z.D.D.D.(.(.(.V.G.P.L.L.Y.k.B B l.t.L.P.D.S.C.h.c.j 4 Q P ",
"~ _ j I.V.C.P.s.t.d.s o @ @ N c.K.N.A.A.A.S.G.S.D.D.Z.Z.D.D.F.F.S.N.M.i.p.p.p.b.h.b.b.b.M.L.`.J.g # o o N f.K.C.S.(.(.f.j ^ P S ",
"~ x C j.D.F.L.x.v d l M i   4.z h x.a.A.i.a.i.y.i.h.u.u.j.u.u.y.i.i.b.i.u.i.a.i.b.t.y.i.i.x.B z l X { $ n # h L.P.A.K.c.j ~ = S ",
"e x N r.s.N.m.h # ,.  >.>.+   M # V t.K.a.i.y.b.b.b.u.u.u.u.u.b.y.i.i.m.i.i.i.y.t.b.i.u.x.J.@ <.o O 1.i 8 5.s J.L.L.m.c.< 6 H > ",
": 2 j g k.k.k.z i >.+ 2.>.2.y m $ N x.N.s.p.i.y.u.b.p.p.p.y.y.i.i.p.M.M.s.p.a.a.M.a.a.C.n.N # i X u 3.3.+ 5.g N K.K.v.} 2 4 t W ",
"~ t ` # h x.V g <.9 ,.3.e.e.3.M { # k.u.s.M.N.n.n.n.s.N.A.N.M.M.M.M.M.M.s.s.N.M.y.M.n.n.x.@ 5.9 M w.q.w.3.u 4.g g.k.Z f 7 6 7 ;.",
": : 8 d h x.g.g <.,.2.w.5.q.<.<.n # B t.m.m.n.M.n.n.M.M.a.M.n.n.n.n.b.i.i.i.u.u.b.b.r.h.V o 3.,.2.w.0.w.4.M 5.1 N C ` 7 K =.:.:.",
"> 6 5 < Z v g.# a a O <.<.5.9 9 8 n N B Z B l.f.l.f.f.f.f.f.l.l.Z l.f.f.d.d.l.Z l.l.f.Z f 9.9 9 O 9 3.3.0 { i [ n k 7 )  . .:.G ",
"6 E 6 5 1 2 k i * { X a a   . {   q 1 1 b n 1 < < k 1 < 1 1 2 j x b < x < n x 2 < x ) [ _ 5 . (   + ,.+ 8 1.  6.8 5 4 +.X.#.X.; ",
"F L 4 6 F ~ ~ _ r + 8 ( a   2.a q * w L * L Q : w : q , w q 6 6 : E 6 6 J T T 3 3 4 3 #.+.w ! ( a O ,.+ { . %.I ~ P F T T 6 3 H ",
"H H H Y H 6 w ( ! p X q 8 + q 9 : > w ; w ; 6 H - : : w : L 6 6 E 3 H T Q 4 L 4 F ; H 6 I ~ ~ , X 9 9 9 r R E T ; 6 D = ; H 6 6 ",
"H 6 4 ~ T r 6 w : : I , I q , , r I ~ 6 4 ; T ; 3 6 T E L w r H 4 ; 4 6 6 3 #.-.%.X.6 6 w : 6 w r q q w : 6 : ; ; % - S H ; 6 6 ",
"U ; > L I H w - - : - ; E : L r w 6 E T T 3 X.4 3 T L 4 6 : ^ 4 -.W 3 = 6 #.6 8.O.T 3 ; L : ; ~ E ! e e $.6 = ; D H H 6 ; : H 6 ",
"E ~ H ; 6 - H ; S ; 6 3 +.T 6 & 6 6 : ; W ; ..=.; W 4 H 3 6 Q 3 -.O.W D ] K #.X.Y 4 S ; H = , = ~ ] Y 3 ..-.4 4 J ] ^ ; H ~ ~ , ",
"E.E : H P ^ P 6 T +.^ % ^ T = 6.E w ; 4 4 ; W #.; 4 L 6.Q Y = 6 ..O.| K S ] $.3 L : W P T H - w ; F Y 6 #.=...= X.P H 4 ! E w 6 ",
"E.E.; ^ T ~ ; ; - ~ | Q = = Y L 6 6 Y $.-.-.J W 4 Y 6.W 3 : e : ..Y X.J 4 4 6 6 ; $.T H ; - , = e = 4 D = W ..; X.= 3 6 ; 6 w w ",
"4.I.E.E., w 6 6 3 6 6 E E = = 6 w R Y 6 F -.-.Y 4 +...I 6 ; 6 6 T W J J ; ; 6 w : , : ; - L : w = D 4 | 4 S J W = X.6...$.; H : ",
"} m m u u m w 6 : 6 - - : 6 6 - & 6 Y 6 6 W ] W ; 6 6 6 w w w : 4 L Q D ; H ; w I > - = - > * : - ; +.-.=.X.K D X.7...D ; : ~ H ",
"m m m u X O X 6 E L ; - : & 6 ~ : - 6 - ; ; H 4 6 : - w w : w ; ' J - ~ w : : $...! 6 , : , = : H ; D P @.%.$.J X.~ H D 4 T E ; ",
"m m u u u X u 6 6 ~ ~ I L w w ~ ! : : : H 5 ; 6 6 w w w : , , 6 = W 6 / I ! S ; Q E L ; : w : E ; 6 = D L ..#.W +.J ; Q T E 6 - ",
"m u u u u y u : : 6 w : 6 6 w I ~ 6 5 ; 6 - 6 r & 5 * : , , & - 6 : 5 I ~ * 6 6 3 L E w q : - E ~ = D 3 4 ; - 6 ; 3 3 ; 6 r ; 6 ",
"m u u u u y u 6 - : 6 w 6 6 6 6 E w 6 6 6 - & : : 6 * w ~ ; - : 6 6 w w ~ E 6 6 6 F L : L : ; 6 Q Q H : 6 6 6 4 ; 6 L 6 6 6 : : ",
"m u u u u y u U 6 E Q P : 6 T 6 6 ; 6 L ~ 6 H : w q q ( ~ w : w 3 6 6 6 : ~ 6 T 6 6 = 6 ; w I w = H = %.+.3 3 6 6 ; : w w : : w ",
"u u u y y y u , 4 6 P +.Q 3 T T 3 3 Q ^ +.6 w 6 ! w w ~ ! : , - w q 6 - = 6 6 ~ - F 3 #.= 6 E ~ F D H W +.4 H - ^ w 6 ~ I , q * ",
"u u u u u u 6 6 D ..X.-...; X.J D ' O.O.; D 6 P L w 6 , ! r w : : 6 : : : ; 6 : F X.] -.#.; +.W D  . . .; 3 4 Y I 6 w w ! w : : ",
"u u u u u : > E ; D T ..-.J ; D O.O.#.=...; ; E ~ & P w q : - w w ~ e L = > > E T 6 4 ..-.P H = X. .=.-.O.; 4 E E w q * , , , w ",
"I U 6 5 : = 6 T P H % D ; ..F P G *.=.S - - , ~ r 6 : ; w 3 4 6 E E % > - 6 6 6 : = = = 3 ; ; H 6 3 H ; H 4 w ; q , w w L 6 = 6 ",
"U E L : 6 w w H ; 4 ; Y T Q Y P X.| H = 6 : > r w 6 H ; ; D L ' E E : : : 6 : 6 = Q H = - : w w : E : w 6 - ~ q : 6 w : 6 6 6 I ",
"Q T 6 - w w L 6 w w 6.6.+.= U : = > - q : ; : L E T L  .H ; :.-.Y I w - : 6 ; ~ : ^ e L w & , > w w I e 6 X.Y L 6 5 6 6 w w 6 T ",
"Y 6 = r ^ I w 6 H +.$.r L w : r > L ~ ~ ~ e : > = Q J W o.; ; o.T H - - w , L ~ w L I I , > : I 6 - %.6 - 8.; 3 : : & : 5 6 6 ~ ",
"L 6 D T ~ U 6 6 - 6 H > : H : 6 D P P 4 6 - 3 = 4 6 H ' +.; 6 6 H P ; T L 6 U E 6 : > L : > : , : W ] #.W J Y F 4 6 6 6 6 6 ; 6 ",
"; ; ; ; 6 6 : - H T I W D : F ; J W 6 = S F e E Q = 6 6 6 - L ; ; K 3 @.Q : E : H 6 : w - 6 ~ $.6. .G O.J G K | #.#.Q 6 & w w ~ ",
"; 6 I 6 L : 6 = ; ; ; ^ P 4 H ; S = ; H : ^ E R I 6 T > 4 T -.; 4 ; D -.P ; ; 6 H 6 4 ^ - H w 6 J :. .G K K ' :.W 6 6 6 6 q ! ~ ",
"%.Y Q 4 = ~ E - 6 H D ; J ; ; =.-.-.] H 6 S , ~ ~ w 6 ; W -.=.D X. .K =.; D = T T 6 ; ..H H ^ ; D 4 O.o.G 4 X.T 3 6 6 : : w I w ",
"@.^ = e ~ ~ 6 - ; 6.J ; ; ; X.] =.| W H - : > - L E 6 4 -.] 4 ; ..*...J Y 6.7.X.; ; w +.J ^ - H 6 4 Q Y W ; 6 6 6 w : * e 6 5 6 ",
": +.6 : > > = 6 6 -.-.P D O.J X.@.W ; 3 ^ ~ ; ; H 3 F ; X.T 3 e ; K -.K D ; 6 - 4 ; 4 ; Q Q = T E w = 6 w 6 - w w E w 6 H 6 : H ",
"; ; H w : : - - H ] #.+.4 S L #.6 6 6 ; T 4 = H ] O...; D D - 4 ; ; ^ Y - ; : 3 ; > T #.6 3 $.~ r , w w 6 w : q : E ~ w ; 6 ; W ",
"6.L H ~ L - 6 : > ; ~ +.H ; #.+.D ; 6 6 = : #.8.-. ...4 4  .8.#.-.D ; > L - : > - = S W +.T +.; : 6 w q ~ w q : : w Q ~ ; ; K -.",
"; ; ; T I ; w 6 - ; ; E ^ 3 - 4 | X.L 4 3 = = : H = H ; O.=.=.^ ; > I - > : w ~ 6 : = - ~ E 6 w : - 6 L E 6 L : : 5 6 T 4 D O.:.",
"H = 6 H ~ E : w 6 L : ; : L 6 P @.-.-...3 6 S : E T T 4 6 6 6 ; ; ; & : , w : ~ E 6 : 3 6 = 6 - 3 4 3 ~ E ; q w & w 6 6 4 J :.G ",
"H L D H = w 6 S ; : : > w I , * : > & : 6 & 6 E P 6 6 H 6 : H ; 6 E 6 6 6 - w 4 P ; F O.6 > , : 6 6 6 w I e H , , : w ~ 6 Y +.4 ",
"; Q 4 P ~ ^ : : : 6 , w : : : : * w L w % - e 6 6 Y ; = L : w ; 6 E U 6 w ~ +.4 D ; ..*.; - : w 6 E 6 ; 6 r ~ L w 6 L E ; T 6 6 ",
"K ; D +.+.; 6 w E I E w , : : ; - : r : : L = ^ : ~ ^ 6 ; w : w Y 6 E E : = Q +.K D *.Q D 6 : = 6 ^ T r 6 6 ..3 ; ^ T ~ 3 6 6 6 ",
"; D ; H D ; ; T E 6 6 - H w w > w > : * : 6 Q P : I T > 4 4 ^ : ; 4 4 6 ; H > 6.| K X.D H H 6 : 6 w Y T 4 W 8.' 4 J ; F 3 & - : ",
"-.-.X.; ; ; 6 4 H ; : ; I ^ E 6 w : , w w 6 P +.H - ~ = H Y Q 6 *.T H ; ^ T ; ; ..K J L X.] ^ : : : r Y 4 K =.=.4 ; 4 3 ; w 6 w ",
"-. .| O.D ..+.6.6.] T = = > Y Q w 6 = ~ : 4 +.4 ; ; ; F | Q P ; *.8.H T = +.%.T H L J K T > w : : 6 6 3 4 4 G =.; G O.6...~ E w ",
"K ....J D P W ] > - : ; - H L I E w 5 Q Q 6 : = 4 ; ; 6 ] +.H ; O.' W J H ; 8.$.T Q H P H : 6 : * w 6 6 J W J o.K o.o.#.T = w w ",
"= K  .; = Y X.; ; ; ; H = : : ; : 6 ; T ] H = H ..X.$.X.6 6 ; 4 ..J D ; ; : 5 6 Q T 6 4 ; : 6 : : Q E #.-.-...J G W W T 6 w & q ",
"; 4 6 T T ; = : $.+.~ S : : 6 6 = P 4 ; X.+.; X.-.*.J ; H D ; 4 ; T 4 H ; % > w 6 E L - 6 w 6 = w 4 e 6 4 L E Y ; 3 6 6 6 & : w ",
"4 +.-.X.H - H +.U ~ : I = = 6 $.e = ; D D ; 3 O.-.; = X...P W 4 H +.H - : - 6 6 > L , = w 6 L : * : 4 6 w w 6 ; : = w 6 6 6 I w ",
"Y ] T 6 ; U = ; : L w r 6 = 6 +.] ; H T ' -.%.K 4 ; O.8.#.-.| : L @.6 & - w : : 6 : : : : w E w 6 4 = : w : * r ! & , : w e E : ",
"; > 6 6 6 L : L 6 H L - : : r +.+.D P 6.8.O.| X.; ; X.P #...H - H L 6 - w E : 6 : : 6 w : L r E - 6 6 : : : r ! / q : , w w w : ",
"w 6 w L L > ; , w L L > = : F ..6 H 4 E ] *.O.| W 6 F P +.; ; : w : 6 : w E w 6 6 : L w 6 6 6 ^ 4 6 e = = : ^ I R w , : w 6 : : ",
"6 6 E L : 6 ~ ~ 6 w I ; : = : 6 ; ; : T ; ; H H = ; 6 H H = , = w > L : - Q r 6 6 6 ^ : 6 6 6 6 I 3 6 6 r 6 T w : w 6 - w : : q ",
"w 6 : : = ; L I 6 : L ; = ; ^ ; w ; 6 ..+.; 6 ; 4 3 ; : : w - , w w 6 - = T T L ; S E I : 6 E 3 L 6 6 ] +.6 6 ; 6 6 ; w e : 6 q ",
": 6 = 6 : 6 6 ~ L : 6 +.= ; Y ~ ; L L P $.; 6 6 T 4 6 Q ( > : > q r , : ; 6 4 Q 6 ; ; #.; - Q T ; w Y E +.4 6 3 ~ 3 6 T Q : = : "
};
