/* XPM */
static char *eab7766511484fe5d20f228060ca4ec3niTQPJc8RimMnPYQ[] = {
/* columns rows colors chars-per-pixel */
"64 64 29 1 ",
"  c #090A14",
". c #1E3616",
"X c #1F3616",
"o c #1E3716",
"O c #1E3617",
"+ c #263A16",
"@ c #263B16",
"# c #273B16",
"$ c #263A17",
"% c #263B17",
"& c #241427",
"* c #241527",
"= c #341C27",
"- c #2D4217",
"; c #2C4317",
": c #2D4317",
"> c #344C1A",
", c #344C1B",
"< c #344D1B",
"1 c #354D1B",
"2 c #5E761F",
"3 c #5F761F",
"4 c #5F771F",
"5 c #466920",
"6 c #476920",
"7 c #466821",
"8 c #476821",
"9 c #466921",
"0 c #476921",
/* pixels */
"X@@@@@*==*&2     >79@@%><%%%>@XXX@%  ***& 639@5<#000@@@>>%%@<@+o",
"@@@@oo****@52      >>@%>>%@@XXX@%<%%X **&  63<@#55335@@>>%XX@oo+",
"@@,@@o****@@@@      @$%%@+ooXX@@><XXX%**&& @%%%<@#@@@@$$%XX%@@@@",
",,,@<@****&@XX@     @>%%@+++XX>9<<X%%%**&&@@<#@<@#<<>@+$oo%%@@@>",
"7,@@,,@****XXXXX..+@@<1%@@@@$522>>+o@>>*&&@@2@<<@<<@@+XXX@@<@@@>",
",@@@%,%<>>XXX@XX..+@@<<%@@>@$X@5>++oo@%><@@02<<%#<@@$XX$@@@<>@@>",
"@@,,<%<<%XXX@@@X++@@<@11@@5@$o@@@@%oXXo%@<@026%%@@@@XXXX@@@<<@@@",
"@@@@<%%%XX@@@>@@@@o%5@%%@25@$$@@@@XXXXXX@@@<6<%%@@@@XXXX@<@@<@@>",
">%@@@@@@X%@@<<@@@$%X92%%62<%@@<<>%%XX@@,2227<>$,722+ooX$@<@@@@<,",
">>@@@@o.o%@%<<@@<<<<92,,6<%%@@@<9>%%@@@@@,577>99>++.o$$$@<<@@<<@",
"<<>@XX.$%<%%<%%@@@<<,04,<%%%$%@@5>%%@@@@@@@,7>@@$ooo@@$$@@<<@,@@",
"%%@@@@$$%55%@#<<<$@,,,4,<599>%@@%5@@@<@#@@@@@@XX..o@@@>><@@<@@@@",
"%%@@>>>$#63<@<<<@@@@@>>>95<#@@@,%%@@<<@@@@@@@@X@@@XX>7723<%%@$@>",
"<%@@++,,@#33@<<#@@XXX@@@%%%%@@<<<@@<<@#@6333#@X@>,@X+@+733%%@@,2",
"@o@o++@@@@<6<<#@@@@@XXX@@@@%@,>>@o%<<@@@<6300@@+,2@@@X@@<69%,222",
"@@@o@@@<33<<<6227<@@>@XXXX@@@@@@%@@<@@<@<<00<0@<22@@@@66<@%,992,",
"@<@@@@@@@99<9229@@XX><XXo@@.X@@@#<@@#<<@@@<6>%%576@@,727@@@5555%",
"@<@@@<<<@@<@99<@OO@@X,<@o$++@@@@@,@@<<<@@%%65%>5<@@@227,,,@>><@$",
"<@%<@+<<,@@@<@XXO@@@@@@@X$@@@@@@<@@<,###@@#@<<>%@@@@+>>>@$@$@@@@",
"@@@<>+++X@@@@XX@@>>@@@<@+@@<>@>@@@@@@@3336@@%%@%@@@@+++XX.$$@@@@",
"<@@@>@@@X@X@>@@@@@<<,@9@%<<@@@>@3<@@@0<36<%#@@@><<@@9@+X@@<@@$@@",
"<<@@%%@@@@XO9>@@@@@@<@92%<@@@$<@33,@0<00<%@@%Xoo<0,@03+@<5<@@<>@",
"<<%%>>>%,9,X<<@5<@@@@@<2%%,2<@@@777,@66#@@<<>%%X#@,@030@9<@@<<@@",
"@<%<<>@@@,9,XX>>@@<922<,%,2<@@@@5,7,@@@@@6<@@@oX@@@@@<0@9%@@@@@@",
"@%@@@@@@@%%>>XXo@,,@,22,%99%@@@@<<<<@@@@%%XX%%X%@@%6%%,,@9299@@@",
"@5@@@@@@ooXoo+$o@@++$,9,%%%%@@@@@<<#@@@@%@XXXXXXX%6340,,929@@@<@",
";5@>>@++<>XXoo%<XX+@@@@@@@%%@@@@<<@<@@@99>@XXXX%@@%<039,99@@@><@",
"@@@@>>++%>>>@@@<,XXX@@@@#@@@@@@X@<@<<@@@>>@@XXX>@@%%%09<9@@<,>@@",
"@@@@@>$$oo%%%@@>,@@@@X@@@Xoo+.XX@@$><##@@>>@@XX,,@@@@@@@@@@@@@@X",
"@@@@@@$Xo%%%@@%%,@@@@XXXXXo@>.XX@@@$<<@@@@@@@@@@,,@@@@@@@@@@@@XX",
"@@@@XX$>%>><@@>%@@@<<@@@%%@>>@X@@@$$+,@,@@@@@@<@@@@79@@@@@@@@@X@",
"@@XXX@$$%%>5>@>>@@<<9@@@>%@>>XXX@@XXX@#,@@@7X@,,@@,,9@@@,@@,,XXX",
"X@@oo@%%@7727@5>%555@@$<>@@@>@XXX@%XX%%@@5949%9>@999@@@<<@++>+XX",
"@>@@oo@>@$>72<@@95225@@>>@@@@XX@@>%%XX%>>$%94>@@99220@@<,@X++XX+",
">>@o+o@>>@XX@7@,<22@oo@>@@@@@@@@><XXX@@@.XXX%@@@@@@@@@@@@@@+$$$$",
">>@o++@@@@+<<<,,99@XXXX@@@@@@@>5><X%XoooX,@X@X@@@@@@@@,@@@++$$$>",
"><@@%%>%@@226@,XO+XXX@X@<<<9++22>>+oX@@>@,,@@X@@@@<@@0<@%XX%@@@>",
"<$@@>>%%@59<@@@@%%<,>@XX@<<<7+@5>$Xo@@@>@@,,@XX@@@0@@3@@%%Xo@@@>",
"@@@<>>$$@@@@@#@@%><$@XXX%%@57+@@@<%%>%>>@@@@XX@@@<03<<<@@@@@o@@@",
"@@@@+$X+@<<,@@@%>>$$@@>>>%%%+@@@@<%9<%>%@@@@X@<930<0<<<825>@o@@>",
"@@<@@X@X%@@<<@#%%%%@@<<<<@<@@<3@@%@2,@@@@@@,@@@@<29<<<52>%@@X@<<",
"9<<@@,<X%%@@<@%3445%@@@<<@@@<33#55<2@@@,,@@9@<<@@<99<@5>%%%XX%<@",
"9<@@<<@X%2>X@%6629<%@@+.<<@@35%@949,<229@@@9<<@@@@<<<@@@@@oo@@@@",
"@9@@@@XX%22>@5<69>%%>>$X@@#%6<%@%,4,@@@@@@@@<<@<<@@@@@@@%<@@@%%@",
"@@@@@XXX@759%%<9@@@$>XX>666%@%@@%%>>@XXO@@<9@@9<@@@@@@oX@<<@@@@<",
"2@<,@XXXo+>5<%99@@@$oX94360%@6322%@@XX@@XX@<9,9@@X@@>$@.@@<<@@<2",
"@X@,,@@@++@<<@%%55>XXX@@@@@@634<%X@@X@@<@XX@,,@@XX@<>$++++@<@@33",
"%%@@,<@@@@@@@@%<9227@@@@<<<@@%%@%@XXX@@>>@X@@@@XX@@<>++$Xo@@@<3<",
"%<%%%%%%XX%@@@@o%XXXXX@<<@@@@@@@#<@@@@@@<%%9@@XX@@@@<%%@@+%<%<5%",
"%<@<<<%%XXo%ooo+o@$XX.@%@<@%@@@@@<,@#<0@%%92@$X$@<@@%#<%++<<%<@@",
"<@@55$@$>>>%.@..XX@XX$$>%<<@@@@@<@<<@@<0<%2>@@XX@<<@%<0%+>>>@@@@",
"@@@%@@@<>%%o@@@@@XXoX$>>%@<@@@<@@@@@@@@35<5>@@$X@@<<%,40@>@%+ooo",
"237$$$@@@%%X>>>@@@X@++>7XX<%%><@2<#@<<@@5<<@99,+X@@<@<44@@@@+$@@",
"3677@55225@XX@>>@@X>@+7+@@@@9<<%23<<@00<%<<<,@%%X@@@@@,4@>525>>@",
"<55>@>>5o@%XX%@>>@X>>@@+%%%%99%%09<#@@36<<@<@$@XX@@@<,,9>525>$@@",
"@<9+$>5XX@%%XX%%@@@>5@%%5525%%%%0<@#@@@@<<@@@OOX@<<9229,<<>>$$$.",
"%#-<>%XX55<@@X$$@@@@55%622<@@@@@@<@@XX@@@,@@@@@X@@@@@<>>oX%%@XX@",
"%925%%$9<<@<+X$5%%@@%%%02@@05>>@@0@@OOX+@@@X@@@@XX@$@@XXXX%%@@>@",
";6;%%%@@@@@@@X$55%%>644<@@93227@<0@X+@XX@@XXX@<@@XX@@XX@<XX%@@>@",
"%%%--;@@@--@X@@55%>44560@@9<95@o@@@@+,+XXXX@@@<<$@XOXX@><%XX@@@X",
"@@--@@$@@;;XXX@7@@@>5455,+>>5@@o@@$X@,++@X<@@@$<@@@X@@>><@@X@@@X",
"@%<@@@<<@@,XX@@@@@@@@@@@+X$$$@oo@@@X+>,@@@<@@@$@<@@@%%>@@@@X@@XX",
"++#@X@@<@@@@X@>@%%%99@@@@+$$$$$@@@$XX,@,@@<<X@<@@@@95%%%@$@@@@X@",
"+$+@X@@<@@@7X@<>%%>>9@@@>$$>>XXX@@XXX@@,@@@9X@<<@@<<5%%%<$@<>XXX"
};
