/* XPM */
static char *_1693_1bfb46aa9f1e52858fe1e1a0267b13b4bd2e364c36cafda6e2768582e7154902[] = {
/* columns rows colors chars-per-pixel */
"64 64 193 2 ",
"   c #020101",
".  c #010A00",
"X  c #160203",
"o  c #081103",
"O  c #10100E",
"+  c #090A14",
"@  c #131C17",
"#  c #270000",
"$  c #330100",
"%  c #281010",
"&  c #0E2901",
"*  c #132A03",
"=  c #152A0A",
"-  c #163403",
";  c #1A3205",
":  c #1F3804",
">  c #1B320B",
",  c #17380D",
"<  c #1F3113",
"1  c #372505",
"2  c #36260B",
"3  c #392E0C",
"4  c #233502",
"5  c #233C04",
"6  c #27310C",
"7  c #223A0B",
"8  c #353403",
"9  c #222413",
"0  c #22251F",
"q  c #382913",
"w  c #253114",
"e  c #223C13",
"r  c #2D3816",
"t  c #29391B",
"y  c #333410",
"u  c #241527",
"i  c #341C27",
"p  c #312222",
"a  c #302F27",
"s  c #353733",
"d  c #450303",
"f  c #431508",
"g  c #521F04",
"h  c #561314",
"j  c #76151C",
"k  c #462807",
"l  c #40300D",
"z  c #4E2314",
"x  c #53201F",
"c  c #443414",
"v  c #663319",
"b  c #691823",
"n  c #4A3820",
"m  c #533925",
"M  c #4D2B32",
"N  c #4A3335",
"B  c #692521",
"V  c #7A2322",
"C  c #7E2A2E",
"Z  c #673424",
"A  c #783121",
"S  c #7A382C",
"D  c #18410E",
"F  c #254005",
"G  c #2E4605",
"H  c #27400C",
"J  c #2D4A0C",
"K  c #35500E",
"L  c #2A4214",
"P  c #294A15",
"I  c #2D431C",
"U  c #284B1C",
"Y  c #334712",
"T  c #314A15",
"R  c #36431E",
"E  c #354C1F",
"W  c #375114",
"Q  c #35511E",
"!  c #304424",
"~  c #364B24",
"^  c #395224",
"/  c #3D542D",
"(  c #384432",
")  c #444314",
"_  c #434520",
"`  c #534021",
"'  c #435D21",
"]  c #455E2B",
"[  c #55522A",
"{  c #444238",
"}  c #6E4128",
"|  c #436422",
" . c #4A6321",
".. c #4A6428",
"X. c #4D692B",
"o. c #516825",
"O. c #4B6331",
"+. c #436930",
"@. c #546B32",
"#. c #506638",
"$. c #536A3C",
"%. c #4D783A",
"&. c #557330",
"*. c #5A7331",
"=. c #5B7539",
"-. c #676E38",
";. c #627835",
":. c #3D3A40",
">. c #454546",
",. c #574445",
"<. c #595244",
"1. c #4D4F50",
"2. c #565555",
"3. c #6F4C48",
"4. c #7A4841",
"5. c #665554",
"6. c #5C7540",
"7. c #5F7B40",
"8. c #637B43",
"9. c #7C6857",
"0. c #5D5C61",
"q. c #695E63",
"w. c #6C6668",
"e. c #767070",
"r. c #881B19",
"t. c #9D1522",
"y. c #AB1720",
"u. c #A41E25",
"i. c #AA1A26",
"p. c #B31729",
"a. c #B31C28",
"s. c #B41F30",
"d. c #892724",
"f. c #8C2925",
"g. c #88252E",
"h. c #992223",
"j. c #9B2128",
"k. c #96282D",
"l. c #873024",
"z. c #9C332A",
"x. c #992532",
"c. c #883331",
"v. c #983436",
"b. c #A82224",
"n. c #AC2A2D",
"m. c #A52130",
"M. c #B52730",
"N. c #BB2435",
"B. c #A83337",
"V. c #A53F38",
"C. c #B53235",
"Z. c #BE353B",
"A. c #C52435",
"S. c #CA3336",
"D. c #C43539",
"F. c #CE3039",
"G. c #D1383D",
"H. c #914C37",
"J. c #993544",
"K. c #AB2D42",
"L. c #B93541",
"P. c #C73541",
"I. c #935249",
"U. c #9A5B5D",
"Y. c #B5494B",
"T. c #886858",
"R. c #9A645C",
"E. c #A7635B",
"W. c #AD7757",
"Q. c #A55D61",
"!. c #996667",
"~. c #95696B",
"^. c #8E7A74",
"/. c #A8696D",
"(. c #A9777C",
"). c #C94547",
"_. c #D74C55",
"`. c #E35D60",
"'. c #D4696E",
"]. c #E66568",
"[. c #7F8778",
"{. c #88857C",
"}. c #918579",
"|. c #9D7E83",
" X c #8A8684",
".X c #958D89",
"XX c #9B9A9B",
"oX c #B99E9A",
"OX c #B2A39A",
"+X c #AE9FA3",
"@X c #B2A3A5",
"#X c #D69F9F",
"$X c #DDB7B9",
/* pixels */
"> ; w 7 * e w 6 7 W | %.+.:  .) 5 Y $. .5 5 : Y ~ 7 > e ! t 1 2 f z k 1 g h f k 4 +.+.%.+.: o.G F | | | 4 4 4 ~ U L 7 , P D > ; ",
"e H 7 w > , e 6 6 5 5 +.*.W F - ^ T H E T 7 ; Q U 6 c a < e 9 9.T.T.9.9.T.T.T.9.~ e e O.@.) 8 F  .o.&.;.@.5 : I I 6 > > H - - H ",
"; 7 P e D , > > 6 7 7 7 7 7 : e , , D L - , H > r q f 9.9.[.[.{. X|.{. X X{.^.}.{.e.{.}.~.T.3.I.g k 5 F 7 6 e L r < = 6 r w < L ",
"Q Y ^ e U D , , 7 * e > > 7 I , = L , > P ~ D r q x Q.Q.}.OX.XXXXXXXXXXX.X X X{. X.X|.|.(.(.'.(.I.H.` ` n 3 6 > ; 7 6 r w e e L ",
"+.I e 4 L Q H D e > , , , * = = < = H < ; Q Y 3 ^.!.R./.oXOXOXOX+X+X+X@X+X+X+X@X+X@X+XoX$X$X$X#X(.Y.J.g.g.h l 6 ; 7 7 R > : e E ",
"T 7 7 6 J P 7 Y c m 1 2 q c q p 1 1 3 3 3 c Z E.E.I.C C U.U.R.!.~.~.~.~.~.~.~.~.!.~.!.!.(.!./.!.g.z.m.i.u.d.A g 3 6 y ) Q D 4 E ",
"7 L Y Y P : ) v j B.B.B.v.H.v.v.v.V.Y.Y.V.Y.V.D.b.h.t.h.d.g.x.x.g.c.c.g.v.k.k.v.v.z.x.x.B.B.m.L.B.K.a.P.s.n.n.z.A g k ) ^ H 4 , ",
"7 6 6 5 ) 1 H.V.C.D.P.P.Y.'.'.`.]._.D.D.S.D.S.F.A.D.M.C.B.C.P.D.C.V.B.C.Z.M.).].].]._.`._.L.L.'.Z.L.P.P.L.N.P.N.Z.z.A k Y 5 7 Y ",
"~ : 8 k g H.C.P.G.C.k.C S c.v.).P._.F.F.A.S.S.S.S.D.D.Z.D.D.F.F.D.D.Z.Z.D.D.D.).).).V.G.P.L.L.Y.x.V V l.t.L.P.D.S.C.h.c.k 5 Q P ",
"~ _ k I.V.C.D.s.t.d.d X X # B c.K.N.A.A.A.S.G.S.D.D.L.Z.D.D.F.F.D.N.N.b.p.p.p.b.h.b.b.b.s.L.'.J.h # X X B d.K.Z.S.).).f.k ^ P D ",
"! c Z j.D.F.L.x.b f z N p X 3.h j x.s.A.i.i.y.y.i.h.u.u.j.b.u.y.p.y.b.i.b.i.i.i.b.t.y.i.i.x.V x z O { % m $ j L.P.A.K.c.k R , D ",
"r c B r.s.N.m.j $ >.  :.:.@   N $ C t.K.a.i.y.b.u.b.u.u.u.u.u.u.i.u.i.m.i.i.y.y.t.b.i.u.x.J.# ,.X O <.p 9 5.$ J.L.L.m.c.2 7 F , ",
"> 3 k h k.k.k.x p :.@ 1.:.1.u N % B x.N.s.p.i.y.u.b.i.p.p.y.y.i.i.p.M.M.s.p.a.a.M.a.a.M.n.B % q X p 2.2.% 5.x B K.K.v.} 3 5 y W ",
"^ y m $ j x.C h ,.0 >.2.e.e.2.N { $ k.y.s.M.N.n.n.n.s.N.A.N.M.M.M.M.M.M.s.s.N.M.y.M.n.n.x.# 5.0 s w.q.w.2.p 3.h g.k.A g 8 F 8 -.",
"> > 9 f j x.g.h ,.>.1.w.5.q.,.,.m $ V h.m.m.n.M.n.n.M.M.a.M.n.n.n.n.b.i.i.i.u.u.b.b.r.h.C # 2.>.1.w.0.w.3.N 5.2 B Z ` 8 K &.;.;.",
", 5 6 1 C b c.$ a s O ,.,.5.0 0 9 m B V A V l.f.f.f.f.f.f.f.l.l.A l.f.f.d.f.l.A l.l.l.A z 9.0 0 + a 2.2.q { p [ m l 8 )  . .;.G ",
"7 E H 6 2 l l p @ { o s s . . {   w 2 2 n ` 2 1 1 l 2 1 2 2 l k c n 1 c 1 ` c 3 1 c ) [ c 6 . (   @ >.@ 9 <.  6.9 6 5 X.X.X.X.; ",
"H L 4 7 H ~ ~ ) r @ 9 ( s   1.s w = e L = L ~ > e > w < e w 7 7 > I 7 H J Y Y : 4 4 5 @.O.e ! ( s O >.@ { . $.I ~ P H Y Y L 5 H ",
"H H H T H 7 e ( ! a o w 9 @ w 0 > < H - 7 > > J ; 7 > e > r 7 7 Q 5 H Y ~ 5 I F F 5 L 7 I ~ ~ w o 0 0 0 t R E Y : H 5 ; 5 H 7 7 ",
"H 7 5 ~ T e e e > > I < I w < < t I ~ e F 5 P : 4 7 L ~ P e L 7 5 : 5 H > : @.=.@.X.7 7 e > 7 e t w w e > 7 > : : & - D H > 7 7 ",
"P H , L I H < ; > > ; 7 ~ > L L L > ~ Y Y 4 X.5 4 T L 5 7 ; ^ 5 =.K 4 ; > $.H =.@.Y > 5 L > 7 ~ t ~ r r @.> - : : H H H : > e 7 ",
"E ~ H , 7 : H 7 , : 7 : O.Y 7 * 7 H > 5 W : ..*.: W 5 H 4 7 ~ 4 =.X.W F O.W @...J 5 H : D - e ; ~ O.Y 4 ] 7.F 5 J ] Q : H E ~ w ",
"U E > H Y Q P 7 T X.~ & ^ T - 6.U e ; 4 F : W @.4 F L 6.~ Y ; 7 X.o.| K : | #.: L ; W P Y H ; e ; G Y 7 @.*...- X.T H 5 ~ T e > ",
"; U : ~ T Q 5 , - ~ | Q , - Y L 7 7 Y #.=.=.J W 5 Y 6.T 7 ; e 4 X.J X.J F : H 7 ; #.P H : ; e * r ; 5 F ; W ..: X.- 4 7 : 7 e e ",
"7 7 5 7 > H 4 7 5 7 7 Q E - * 7 r R P H G =.=.Y 5 O.] I 7 ; 7 7 Y W J J 5 5 7 e > < > : ; H > e - F : | 5 F J W - X.=.] #.7 H > ",
"H ] 7 7 H 5 7 7 ; 7 - ; 6 7 7 - * 7 L 7 7 T ] W 4 H 7 7 e e e > : I Q F : 7 , e I > ; , ; > , > ; ; X.=.=.X.K F X.7.X.F 4 , E H ",
"r O.7 Y ~ ; L 7 E Y 7 * > * 7 ~ > ; 7 : 5 : 7 4 7 4 ; e e > e 7 ' J ; E e : 6 O.O.E 7 M M M M M M M M P +.@.#.J X.~ H F 5 Y E : ",
"7 H y e ~ Y , 7 7 ~ ~ I e e e E ! > ; ; H 6 7 7 7 e e e > w > 7 - W 7 / I ! , 7 M M M M M M M M M M M M M O.X.W O.J : Q P E 7 ; ",
"5 ; 7 7 7 ~ , 6 > 7 W.W.W.W.W.W.W.W.W.W.7 ; 7 e * w > > < < * ; 7 7 > I W.W.W.W.M M M M M M M M M M M M M M - 7 : 5 4 : 7 e 7 7 ",
"7 7 7 L ; e e 7 ; W.W.W.4.4.4.W.W.4.4.W.W.W.* 7 > > = e ~ > ; W.W.W.W.W.W.W.W.M M M M M M M 4.4.4.M M M M M M M : r e 7 7 7 > 6 ",
"e e > , , , 7 W.4.W.4.4.W.4.W.i M W.W.W.W.W.W.W.e w e W.W.W.W.W.W.W.4.W.W.M W.M M M M M M 4.4.4.M M M M M M M M M ; > e e > > e ",
"> e , - ; H W.W.W.4.4.4.4.4.W.i M W.W.W.W.W.W.W.W.W.W.W.W.W.4.4.4.W.4.4.M M M M M M M 4.4.4.M M 4.4.4.4.M M M M M M 7 ~ I < < = ",
"> , 7 > W.W.4.4.4.4.4.4.4.4.i M W.W.W.W.W.W.W.W.W.W.W.W.W.W.W.W.4.4.4.4.M M M M M 4.4.4.4.4.4.4.4.4.M M M M M M M M M e ~ e = > ",
"I I M i i M M 4.4.u u u 4.4.M W.W.W.4.W.W.W.W.W.W.W.W.4.4.4.4.W.W.4.M M M M M M M 4.4.4.M M 4.4.4.4.M M M M M M M M M = < < w e ",
"I + + + i M M M 4.4.4.4.4.4.4.4.4.W.W.4.W.W.W.W.4.4.W.W.4.4.4.4.4.M M M M M M M M M 4.4.4.M M 4.4.M M M M 4.M M M M M M L 7 ; 7 ",
"E i + i i i M M 4.M M 4.4.4.4.4.4.W.W.4.4.4.4.W.W.4.4.W.4.4.4.4.4.M 4.4.M M 4.4.4.4.4.4.4.4.4.4.4.4.4.4.4.M M M M M M M > 7 H I ",
"~ i u i i i i M M M 4.4.4.4.4.4.W.W.4.4.4.4.W.W.W.4.4.4.4.4.4.4.4.4.4.M M M 4.4.4.4.4.4.4.4.4.4.4.4.4.4.4.4.M M M M M M M L 7 Y ",
"Y i u i i i i M M M 4.4.4.4.4.4.4.4.4.4.4.4.4.W.4.4.4.4.4.4.4.4.4.4.4.M M M M M 4.4.4.M M 4.4.4.M M M 4.4.4.4.M M M M M M 7 7 ~ ",
"H i u i i i i M M 4.4.M 4.4.4.4.4.4.4.4.4.4.4.W.4.4.4.4.4.4.4.4.4.4.4.4.M M 4.M 4.4.4.4.M M 4.4.4.4.M M M M M M M M M M M M ; 7 ",
"5 i u u u i i i M M M M 4.4.4.4.4.4.4.4.4.4.4.4.4.4.4.4.4.4.4.4.4.4.M 4.M M 4.4.4.4.4.4.4.4.4.4.4.4.4.M M M M M M M M M M M e ~ ",
": H i i i i i i i i M M M 4.M M 4.4.4.4.4.4.4.4.4.4.4.4.4.4.4.4.4.4.M M M M M 4.4.4.4.4.4.4.4.4.4.4.4.4.M M M M M M i i M M M ~ ",
"O.Y Q i i i i i i i i i i M M 4.4.4.4.4.4.4.4.4.4.4.4.4.4.4.4.4.4.4.4.4.M 4.4.4.4.4.4.4.M 4.4.4.4.M 4.4.3.M M M M M M i i M i e ",
"+.^ ; L ~ ~ 7 ; 5 6.J i i i i M M 4.M 4.4.4.4.4.4.4.4.4.4.4.4.4.4.4.M M M M 4.M M 4.4.4.M M 4.4.4.4.M 4.4.M M M M M M M i i i 7 ",
"> O.7 ; e , - 7 D =.6.Y 5 ..i i M M M 4.4.4.4.4.4.4.4.4.4.4.4.4.4.4.4.M M M M M 4.4.4.4.4.M M 4.4.4.M M M M M M M i i M i i i H ",
"5 > H e > > ; ; H ] X.O.: F L i M M 4.4.M 4.4.4.4.4.4.3.4.4.4.4.4.4.4.M M M 4.4.4.4.4.4.4.4.4.4.4.4.M M M M M M M i i i i i : W ",
"6.L H Q e ; 7 > , 5 E X.H H @.O.M M M M 4.4.M 4.4.4.4.4.4.4.4.4.4.M 4.4.4.M M 4.4.4.4.4.4.4.4.4.4.4.4.M M M i i M i i i i 7 K =.",
": : 7 Y U > , 7 ; > 7 Q ^ 4 - > ' M M M 4.M M 4.4.M 4.4.4.4.4.4.4.M M M 4.M i M 4.4.M M 4.M M 4.M 4.4.4.M M M i i M i i 5 F @.;.",
"7 - 7 H Q ~ 6 e 7 L > - > L 7 Y +.=.M M M M 4.4.M M 4.4.4.4.M 4.4.4.M M M M i M M 4.M M 4.4.M M M M 4.4.I.} M i i i i 7 5 J ;.G ",
"F L F 7 - e 7 D : > > e < L < , = , ; ; M M 4.4.M 4.4.4.I.4.M M M 4.M M i M i i M M M M 4.M 4.M M M M M M M M i i i i E 7 Y O.4 ",
"5 ^ 5 T ~ ^ > > > 7 e e > > = > > e L < & M M M M M 4.M N } 4.M M M M M i i i i i M M i M M 4.M M M M M M M M i i i U E 4 Y 7 7 ",
"K : 5 X.O.: e D I I E e e > > 7 > = t - > H M M M M 4.M M M M M M i M i i i i i i i i i i M M M i M M i M M i i i i Y ~ 5 7 H 7 ",
"F F : 7 5 5 7 Y E 7 7 ; 7 7 e , e e = > > D Q T M M M M M i i i i i i i i i 7 6.| i i i i i i i i M M i i M i i + + : 7 4 * ; ; ",
"=.=.X.: : : H : H > : > I ~ E : < > < e r 7 P u M M M i i i + + &.W D 5 ^ T > 5 X.K J L ..] ~ > u u M M i i u + + + 5 5 : , r L ",
"=.| ' X.F ..O.=.6.] Y - - 7 T ~ e 7 , E ; 5 u M M i i i u u + : &.8.H Y - O.#.Y 7 I J K P H H > i u i i i i u + + + + 7.O.E I e ",
"K  .X.J F Y W ] : ; : : ; H D I E e > ~ E u u M i i u + + + + : X.' W J 7 5 =.#.T ~ H P H ; 7 > = u i i i u + + + + + @.Y : e e ",
"- K  .: - Y O.: > : 7 7 ; > 7 7 > H : Y | u u u u u + + + + + F ..J F : 7 7 7 7 Q Y 7 5 7 > 7 > > u i i u u + + + + + T > e * < ",
": : H T Y 7 ; ; O.O.E : > ; e 7 ; P : : u u u u =.&.+ + + + : 5 5 Y : H > & e 7 e I L ; 7 e , ; u i i u u L + + + + + + , * 6 < ",
"F O.=...H ; 7 ..E ~ > I > - e O.L - u u u u u X.=.: ; + + + + : H O.H ; > : > 7 D H w - e , L u u i u u e e > + + + + + 7 7 I L ",
"Y ] Y 7 7 P , 7 > L e I 7 ; > O.] u u u u u @.K F : @.+ + + + 7 L +.7 * > e > > 7 > > > 7 w u u u u u > e 4 = e + + + + e H E > ",
"; , 7 7 H e > L H D L ; > > L O.X.u u u u X.| X.: : ..P + + + ; H L 7 ; , E > 7 > > 7 e > u u u u u 7 > > > t + + + + + e e e > ",
"H H L L H , 7 > e L L > - ; H O.H H : ~ ] &.X.| W 7 H T + + + > , > > : 7 ~ e 7 7 ; L e 7 u u u u 7 7 ; - > ~ + + + + > e > > > ",
"e > I L > 7 ~ ~ 7 L L 7 > ; > 7 : : ; T > : H J - : 7 H H : > - e e L > : Q L 7 7 7 ^ > 7 7 7 7 I 5 7 7 r 7 E e > e 7 ; e > > w ",
"D 7 > > ; 7 L I 7 > e 7 ; D Q 5 H ; H ..O.: : : F : : ; < D - e e w 7 , - Y T P 5 7 E I ; 7 E 5 L 7 7 ] X.7 7 4 7 7 7 7 e > 7 w ",
"> 7 ; 7 > 7 , ~ H > 7 ..; : Y ~ > L L P O.: H > Y F 7 E ( > > , < t w > ; H 4 E D : : $.; : ~ Y : r Y Q O.7 7 4 E 4 7 E E > : , "
};
