/* XPM */
static char *_730_cbbc61c15424e9f823e7243ebf28f6f5fb2983673af0b5a955026b3dfe5df395[] = {
/* columns rows colors chars-per-pixel */
"64 64 191 2 ",
"   c #020101",
".  c #010A00",
"X  c #160202",
"o  c #081103",
"O  c #10100E",
"+  c #090A14",
"@  c #131C17",
"#  c #270000",
"$  c #330100",
"%  c #281010",
"&  c #0E2901",
"*  c #132A03",
"=  c #152A0A",
"-  c #173403",
";  c #1A3205",
":  c #1F3804",
">  c #1B320B",
",  c #17380D",
"<  c #1F3113",
"1  c #36260B",
"2  c #382908",
"3  c #233502",
"4  c #233C03",
"5  c #27310C",
"6  c #223A0B",
"7  c #353403",
"8  c #222413",
"9  c #22251F",
"0  c #382913",
"q  c #253114",
"w  c #223C13",
"e  c #2C3816",
"r  c #29391B",
"t  c #333410",
"y  c #241527",
"u  c #341C27",
"i  c #312222",
"p  c #302F27",
"a  c #353733",
"s  c #450303",
"d  c #431508",
"f  c #521F04",
"g  c #561314",
"h  c #76151C",
"j  c #462807",
"k  c #40300D",
"l  c #4E2314",
"z  c #53201F",
"x  c #443414",
"c  c #663319",
"v  c #691822",
"b  c #4A3820",
"n  c #533925",
"m  c #4D2B32",
"M  c #4A3335",
"N  c #692521",
"B  c #7A2322",
"V  c #7E2A2E",
"C  c #673424",
"Z  c #783121",
"A  c #7B382C",
"S  c #18410E",
"D  c #254005",
"F  c #2C4206",
"G  c #2F4903",
"H  c #27400C",
"J  c #2E4A0C",
"K  c #35500E",
"L  c #2A4114",
"P  c #294A15",
"I  c #2D431C",
"U  c #284B1C",
"Y  c #334712",
"T  c #314A15",
"R  c #36431E",
"E  c #354C1F",
"W  c #375114",
"Q  c #35511E",
"!  c #304424",
"~  c #364B24",
"^  c #395224",
"/  c #3D542D",
"(  c #384432",
")  c #444314",
"_  c #534021",
"`  c #445E22",
"'  c #455D2B",
"]  c #55522A",
"[  c #444238",
"{  c #6E4128",
"}  c #436422",
"|  c #4A6321",
" . c #4A6428",
".. c #4D692C",
"X. c #526825",
"o. c #4B6331",
"O. c #436930",
"+. c #546B32",
"@. c #506638",
"#. c #536A3A",
"$. c #4D783B",
"%. c #557330",
"&. c #5A7331",
"*. c #5B7439",
"=. c #676E38",
"-. c #627835",
";. c #3D3A40",
":. c #454546",
">. c #574445",
",. c #585244",
"<. c #4D4F50",
"1. c #565555",
"2. c #6F4C48",
"3. c #7A4841",
"4. c #665554",
"5. c #5C7540",
"6. c #5E7B40",
"7. c #637B43",
"8. c #7C6857",
"9. c #5D5C61",
"0. c #695E63",
"q. c #6C6668",
"w. c #767070",
"e. c #881B19",
"r. c #9D1522",
"t. c #AB1720",
"y. c #A41E25",
"u. c #AA1A26",
"i. c #B31729",
"p. c #B31C28",
"a. c #B41F30",
"s. c #892724",
"d. c #8C2925",
"f. c #88252E",
"g. c #992223",
"h. c #9B2129",
"j. c #96282D",
"k. c #873024",
"l. c #9C332A",
"z. c #992532",
"x. c #883331",
"c. c #983436",
"v. c #A82224",
"b. c #AC2A2D",
"n. c #A52130",
"m. c #B52730",
"M. c #BB2435",
"N. c #A83337",
"B. c #A53F38",
"V. c #B53235",
"C. c #BE353B",
"Z. c #C52435",
"A. c #CA3336",
"S. c #C43539",
"D. c #CE3039",
"F. c #D1383D",
"G. c #914C37",
"H. c #993544",
"J. c #AB2D42",
"K. c #B93541",
"L. c #C73541",
"P. c #935249",
"I. c #9A5B5D",
"U. c #B5494B",
"Y. c #886858",
"T. c #9A645C",
"R. c #A7635B",
"E. c #AD7757",
"W. c #A55D61",
"Q. c #996667",
"!. c #95696B",
"~. c #8E7B74",
"^. c #A86F74",
"/. c #C94547",
"(. c #D74C55",
"). c #E35D61",
"_. c #D4696E",
"`. c #E66568",
"'. c #7F8778",
"]. c #88857C",
"[. c #918579",
"{. c #9D7E83",
"}. c #8A8684",
"|. c #958D89",
" X c #9B9A9B",
".X c #B99E9A",
"XX c #B2A39A",
"oX c #AE9FA3",
"OX c #B2A3A5",
"+X c #D69E9F",
"@X c #DDB7B9",
/* pixels */
"> ; q 6 * w q 5 6 W } $.O.: | ) 3 T #.| 4 4 : P Q 6 > w ! r 1 1 d l j d f g d j 6 O.O.$.O.: X.G D | } } 3 4 : ~ I L 6 , P w ; - ",
"w H 6 q > , w 5 5 4 4 O.&.W D - ^ T 6 Q T 6 - Q I 5 x p q w 8 8.Y.Y.8.8.Y.Y.Y.8.~ w w o.+.) 7 J | X.%.-.+.4 : I I 5 > > w - - H ",
"; 6 P w S , > > 5 6 > 6 6 > : L , w L e - , w - r 0 d Y.8.'.'.'.}.{.'.}.}.].].[.].w.[.[.!.Y.2.P.f j 4 D 6 5 w w L w = 5 e q < L ",
"Q Y ^ w U S , , 6 * w > > w L , > S - > P E L e 0 z W.W.[.XX|. X X X X X|.}.}.].}.|.{.{.^.{._.^.P.G._ _ n 2 5 6 ; > 5 e q w w L ",
"O.I 6 3 L Q H S w > , , , * = = > * w w - ^ Y 2 ~.Q.I.Q..XXXXXXXoXoXOXoXoXoXOXOXoXOXoX.X@X@X@X+X^.U.H.f.f.g 2 5 - 6 w R > : w Q ",
"T 6 6 5 J P 6 Y x _ 1 1 0 x 0 i 1 1 2 t t x C R.R.P.V V I.W.T.Q.!.!.!.!.!.!.!.!.Q.!.Q.Q.^.Q.^.Q.f.l.n.u.y.s.Z f 2 5 t ) Q S 3 E ",
"6 L Y T P 3 ) c h N.N.N.c.G.c.c.c.B.U.U.B.U.B.C.v.g.r.g.d.d.z.z.f.x.x.f.c.j.j.c.c.l.z.z.N.N.n.K.N.J.M.L.a.b.b.l.Z f j ) ^ H 3 > ",
"6 5 5 4 ) 2 G.B.V.S.L.L.U._._.).`.(.S.A.A.A.A.D.Z.S.m.V.N.V.L.S.V.B.N.V.C.m./.`.`.`.(.).(.K.K._.K.K.S.L.K.M.L.M.C.l.Z j Y 4 6 T ",
"~ ; 7 j f G.V.L.F.V.j.x.A x.c./.L.(.D.D.Z.A.A.A.A.S.S.C.K.S.D.D.S.S.C.C.S.S.S./././.B.F.L.K.K.U.j.B B k.r.K.L.A.A.V.g.x.j 4 Q P ",
"~ ~ j P.B.V.S.M.r.s.s X X # N x.J.M.Z.Z.Z.A.F.A.S.S.C.S.S.S.D.D.S.M.m.u.i.i.i.y.g.v.v.v.m.K._.H.g $ X X N s.J.C.A././.d.j Q P S ",
"R b { h.D.D.K.z.v d l M i X 2.g h z.a.Z.u.u.t.t.u.g.y.y.h.y.y.t.i.y.v.u.v.u.u.u.v.r.t.u.u.z.s.g l + [ % n $ h K.L.Z.J.x.j ! - S ",
"6 x N e.a.M.n.v $ :.  ;.;.@   M $ V r.J.p.u.t.v.v.v.y.y.y.y.y.v.t.u.u.n.p.u.t.t.r.v.u.y.z.H.# [ X O ,.i 8 4.$ H.K.K.n.x.1 H H , ",
"5 2 j g j.j.j.g u ;.@ <.;.<.y M % N z.M.a.i.u.t.r.v.p.i.p.t.t.u.u.p.m.a.a.p.p.p.m.p.p.m.b.N % i X i 1.1.y 4.g N J.J.c.{ t 4 t W ",
"~ t _ $ h z.V g >.9 :.1.w.w.1.M [ $ j.t.a.m.a.b.b.b.m.M.Z.M.m.m.m.m.m.m.a.a.M.m.t.m.b.b.z.# 4.9 a q.0.q.1.0 2.g f.j.Z f 7 4 7 =.",
"; > 8 d h z.f.g >.:.<.q.4.0.>.>.n $ B g.n.n.b.m.b.b.m.m.p.m.m.b.b.b.v.u.u.u.y.y.v.v.e.g.V # 1.:.<.q.9.q.2.M 4.1 N C n 7 K &.-.-.",
", 6 5 2 A v V $ p a O >.>.4.9 9 8 n N B V B k.d.k.d.d.d.d.d.k.k.Z k.s.d.d.d.k.Z k.k.k.Z l 8.9 9 + p 1.1.0 [ i ] n k 7 ) | | -.G ",
"6 E 6 5 2 k k u @ [ o a a   . [   q 1 1 b _ 1 1 1 k 1 1 1 1 k j x b 2 x 2 n x t 2 x ) ] x 5 . (   @ :.@ 8 ,.  5.8 5 4 o.......3 ",
"H L 3 6 H ^ ~ ) r 8 8 ( a   <.a q = w L = L Q > w > q < w 5 6 6 6 I 6 6 G T Y 3 3 4 3 +.o.w ! ( a O :.@ [ . #.I ~ P H Y T 6 4 H ",
"m m m m m 6 r ( ! p o q 8 @ q 9 > < L - : 6 > H ; 6 > w > L 6 6 ~ 3 H Y Q 4 L 4 4 4 H w I ~ ~ q o 9 9 9 r R E Y : H D - 4 6 6 6 ",
"m m m m m m m m > , r < L q < < r I ~ 6 H : T : 3 > Y E L w w 6 4 : : H 6 3 +.*.#.X.6 6 w , 6 w r q q w > 6 > : : & - S H 6 6 6 ",
"m m m m m m m m E.E.E.E.^ > L L w 6 ~ T P 3 ..4 4 T L 4 E.E.E.E.E.E.E.E.E.E.6 7.+.T : : L > 6 ~ ! ! e w #.6 - : 6 H H 6 : > L 6 ",
"3.m m m m m m m m E.E.E.E.E.E.E.E.6 > : W 3  .&.: W E.E.E.3.3.E.E.3.3.3.E.E.E. .Y 3 H : S ; w ; Q ' Y 3 ' *.D 4 J ' ^ : 6 E ~ q ",
"3.3.m m m m m m m E.m E.E.{ E.E.E.E.E.E.E.4 W +.E.E.E.E.E.E.E.m u E.3.E.3.3.E.3.E.- W P T H - < > F Y 6 +.&. .- ..T H 4 E I w > ",
"m 3.3.3.m m m m m m m m 2.P.E.3.3.3.E.E.E.E.E.E.E.E.E.E.E.E.E.m u E.3.3.3.3.3.E.E.E.P H : ; w - t - D D ; W  .3 ..- 4 > 4 H w w ",
"3.3.3.3.3.3.m m m m m m 3.3.3.3.E.E.E.E.E.E.E.E.E.E.E.E.E.E.E.E.m u 3.3.3.3.3.3.3.3.E.E.> w > 6 - 6 : } S D J W - ..6.' @.: H > ",
"3.m m 3.3.3.m m m m m m m m 3.E.E.3.3.3.3.E.E.E.E.E.E.E.E.3.E.E.E.m 3.3.y y y 3.3.m m u u m > > : 4 O.*.&...K D ..*. .D : > ~ H ",
"m m 3.3.3.m m m m m m m m m m 3.3.3.3.3.E.E.3.3.E.E.E.E.3.E.E.3.3.3.3.3.3.3.3.3.m m m u + + + > 6 4 D P  .#.@.J ..^ H D 4 T E : ",
"3.3.3.3.3.3.3.3.3.m m m 3.3.m 3.3.3.3.3.E.3.3.E.E.3.3.3.3.E.E.3.3.3.3.3.3.m m 3.m m u u u + u E : 6 - D L  .+.W o.J : Q T E 6 - ",
"3.3.3.3.3.3.3.3.3.m m m m 3.3.3.3.3.3.3.3.3.3.E.E.E.3.3.3.3.E.E.3.3.3.3.3.3.m m m u u u u y u E Q - H : 3 : - 6 4 3 3 > 6 w 6 6 ",
"3.3.m m 3.3.3.m m m m m m 3.3.3.3.3.3.3.3.3.3.3.E.3.3.3.3.3.3.3.3.3.3.3.3.3.m m m u u u u y u 6 Q ~ 6 - 6 H 6 4 4 6 L 6 6 6 > > ",
"3.m m 3.3.3.3.m 3.m m m 3.3.3.3.3.3.3.3.3.3.3.3.E.3.3.3.3.3.3.3.3.3.3.3.m 3.3.m m u u u u y u w : H - +.o.3 4 6 6 > > w w > > w ",
"3.3.3.3.3.3.3.3.3.m m 3.3.m 3.3.3.3.3.3.3.3.3.3.3.3.3.3.3.3.3.3.3.3.3.3.m m m m u u u y y y u E 6 F H W o.4 6 : ~ w 6 ~ L q q = ",
"3.3.3.3.3.3.3.3.m m m m m m 3.3.3.3.3.3.3.3.3.3.3.3.3.3.3.3.3.3.m m 3.m m m u u u u u u u u @.W : | | | 3 4 4 Y I 6 w w ! w = > ",
"3.3.m 3.3.3.3.3.3.3.m m 3.3.3.3.3.3.3.3.3.3.3.3.3.3.3.3.3.3.3.3.3.m m u u u u u u u u u u T H - ..| &.*.X.3 4 E E w < = q < q w ",
"3.m m 3.3.3.m m 3.m m m m m 3.3.3.3.3.3.3.3.3.3.3.3.3.3.3.m 3.m m u u u u 6 6 6 ; - ; - 4 4 : H 6 3 H 3 6 4 6 6 < q w w L 6 ; 6 ",
"m m 3.3.3.3.3.m m m m m m 3.3.3.3.3.3.3.3.3.3.3.3.3.3.3.3.m m m u u > > > 6 ; 6 ; E H - * > w 6 > U > L 6 ; ~ w 6 > w > 6 6 6 I ",
"3.3.3.3.3.3.3.3.3.m m m m 3.3.3.3.3.3.3.3.3.3.3.3.3.3.m 3.3.m m u I w - > 6 6 ~ > ^ L L < > < > w w I w 6 ..Y L 6 > 6 6 w w 6 T ",
"3.3.3.3.3.3.3.3.m m m 3.3.3.m 3.3.3.3.3.3.3.3.3.3.m 3.3.m m m m T H ; ; q , w ~ w L I I : > , I 6 > #.6 > 7.6 3 6 > * > > 6 6 ~ ",
"m m 3.m m 3.3.m m u m 3.m m m 3.3.3.3.3.3.3.m 3.3.m m 3.m m m 6 H P ; T L H E E 6 > r S , w > q 3 W ' #.W J J F 4 6 6 6 6 6 3 6 ",
"m 3.3.m m 3.m m u u m m m m 3.3.3.m 3.3.3.3.m m 3.3.m m m m w 6 4 K 3 O.Q 6 I > H > : w ; > ~ o.5.| G X.J G K ` +.@.^ 6 * w w ~ ",
"m 3.3.m m m m m u u m u m m 3.m m m 3.3.3.3.3.m 3.3.m m : T *.4 4 : 4 *.P : : 6 H 6 : ^ - 6 w 6 J -.| G K K ` -.W 4 6 6 6 q ! ~ ",
"m 3.m m u m m u u u u u m m m m m 3.3.m m 3.m m m m m 3 W *.&.4 ..| K &.4 H - T T 6 : ..L H ^ 4 D 4 X.X.G : X.T 4 5 6 > > w I w ",
"m m m u u u u u u u u u u m u m m m m m m 3.m m m m 6 4 5.' 4 :  .%. .J Y *.6...> : 6 o.J ^ ; 6 6 4 E T W : 6 6 6 w > = w 6 5 6 ",
"u u u u u u u : : *.u u u u u u u u m m m m m m m 4 H :  .T 3 H : K *.K 6 4 > ; D : : 4 Q Q - Y I w : 6 w 6 - w w E w 6 6 6 > H ",
": > H w < > > - 6 ' +.o.: D L o.u u u m m m y y | .. .3 4 D - 4 : : Q Y - 6 - 4 4 - L #.: : @.~ L < w w 6 w 5 q > E ~ w 4 6 3 W ",
"6.L H Q L - > > - 4 ~ ..H 6 +...y u u m m y + + + | | 4 D  .-.#.*.D > S w ; , < - ; L W O.T ..6 > 6 w q ^ w < > > w E E 4 3 W *.",
": : 6 T I > S 6 - 6 6 Q ^ 3 ; 6 y y u u m m y + + - H : X.&.&.^ > - I ; > > L E 6 > - ; Q ~ 6 w 6 ; 6 L ~ 6 Y 6 > > 6 P 3 D +.-.",
"H - 6 H Q ~ 5 w 6 L > - > L 6 T O.y y u u y y y y T P : 6 H 3 3 4 6 - = q 6 > ~ ~ 6 ; : 6 ; 6 - 3 3 4 ~ I ; q w * w 6 H : J -.G ",
"y L D H - w 6 , : > > S w I < > > , - y y y y y y y > H 6 6 H 6 6 I 6 6 6 > w : T : D +.6 , < > > 6 > L R w w q < > w E 6 Y ..4 ",
"y y y P ~ ^ > > > 6 < w = > > > > < w < & y y y y y y : , , w 6 6 E U 6 w ~ O.3 D :  .%.4 ; > w 6 ~ 6 : 6 w ^ e w 6 I E : Y 6 6 ",
"y y y y ..: 6 w I I E w w > > > > > r , > H + y y y y H : L > w Y H E E 5 - ^ O.K D %.Q D 6 > - 6 ~ T L 6 6 ..4 3 ^ T Q 4 6 6 6 ",
"y y y y H : : T ~ H 6 - 6 6 w , < w - , > S + + + + L S : : ^ > : 4 4 6 - H : 5.} K ..D H H 6 > 6 w Y T 3 W 7.` 3 J : H 3 * > ; ",
"*.*.+.: : : 6 4 H > : > I ~ E H L > < < L > P + + + ~ - H T E H %.W 6 : ^ T 6 :  .K J L  .' ~ > > > w T 4 K &.&.D : D > > w 6 w ",
"*.| `  .D } o.5.5.' Y - - 6 P E w > - ~ > 4 o.4 4 > 3 F } Q T : %.7.H T - o.@.Y H L J K T S w > > 6 6 3 D 3 G &.: G X.-...R I w ",
"K  ...J D T W ' : > ; : : H L I E w > E E H > - D : : 6 ' o.6 : +.` W J 6 4 *.@.T E H P L ; 6 > = w 6 6 J W J X.K X.X.+.T : w w ",
"- K | 3 - T ..: : : 6 6 - - > 6 > H 3 T ' H - H  ...+.O.6 6 4 4 } J D : 6 6 6 6 Q T 6 4 : > 6 > 6 ~ E @.*.*. .J G W T T 6 w * q ",
": : H T T 6 - > o.o.E S 6 > w 6 > P 3 : ..o.: ..*.%.J : H D : D : T 4 H 4 & , w 6 ~ w ; 6 w 6 - w 6 w 6 3 Y Q Y : 3 w w 6 * > w ",
"4 ..*...H ; H o.E ~ > I * - 6 @.w - : D D 4 3 ..*.3 - .. .P W 4 6 ..6 > > ; 6 6 S L q - w 6 L > = > 6 6 w w 6 > > - w : 6 6 I w ",
"Y ' T > : P - : , L w r 6 - : ..' 3 H P ` *.+.K D : ..7.+.*.` > L O.6 * > w 5 > 6 > > > > w ~ 6 6 4 * 3 w > = w ! * < : w w R > ",
"; , 6 6 H L > L 6 w L - > > r o...D P 6.7.+.}  .: :  .P +. .H ; H L 6 : , E > > > > 6 , > L r E > 6 6 > > > r ~ / q > < w w w > ",
"L H w L L > 6 > < L L > - ; H o.H H 4 ~  .%.+.} W H H P ..: > > w > 6 > 6 Q w 6 6 ; L L 6 6 6 ~ 4 6 6 3 ; > ~ I e w < > w > 6 > ",
"6 > I L > 6 ~ ~ H L I 6 > ; 6 6 : > ; T : : D D - : 6 H L : > ; w w w , > Q L 6 6 6 ^ > 6 6 6 6 I 4 6 6 w 6 E w 6 w 6 ; e > : q ",
"w 6 > > ; > L I : , w 6 , : E : H - H  .' > 6 > 4 4 ; : w , - w w w 6 - - T T Y 4 6 ~ I : 6 E 3 Y 6 6 ' o.6 6 4 w 6 6 6 w > > q ",
"> 6 ; H , w : ~ H > 6  .- : Y E : L L T #.> : 6 T 4 6 E ( > = , q q q > ; 6 4 ~ S : 3 +.- > E Y ; w Y E o.4 6 3 ~ 3 6 R Q , > : "
};
