/* XPM */
static char *_8750_1de662e85c1583bac4bc06f9c746007d739e48cd36d41ef90c50a83334baa4b5[] = {
/* columns rows colors chars-per-pixel */
"64 64 44 1 ",
"  c #1E3616",
". c #1F3616",
"X c #1E3716",
"o c #1F3716",
"O c #1E3617",
"+ c #1F3617",
"@ c #1F3717",
"# c #263A16",
"$ c #273A16",
"% c #263B16",
"& c #273B16",
"* c #263A17",
"= c #263B17",
"- c #273B17",
"; c #341C27",
": c #4D2A32",
"> c #4C2B32",
", c #4D2B32",
"< c #2D4217",
"1 c #2C4317",
"2 c #2D4317",
"3 c #344C1A",
"4 c #344D1A",
"5 c #354D1A",
"6 c #344C1B",
"7 c #354C1B",
"8 c #344D1B",
"9 c #354D1B",
"0 c #5F761E",
"q c #5E761F",
"w c #5F761F",
"e c #5E771F",
"r c #5F771F",
"t c #466920",
"y c #476920",
"u c #476821",
"i c #466921",
"p c #476921",
"a c #7A4841",
"s c #7B4841",
"d c #7A4941",
"f c #AD7657",
"g c #AD7757",
"h c None",
/* pixels */
".%%..%%%%6uwp%p8%8up%=%86%%%8%..+%%..=%%%ppwi%p8%ppi%=%98%%%9%..",
"%&%#o.%%%%%uw8%%48488%%68%%%...%#9&# .%68%%pw8%%ppwwp%%88%..#..%",
"%%8%$+ .+%&%%%%%%%%%%%=%%%....%&94.++%%%%#%%#%%8%%%=%#%%%..%%%%=",
"899%8%%% .%%..=%.%%%%8%%%%%...6p68.%%%%%%%%%8%%8&=888%%=. %&%%%8",
"p8%%88%%&o  +.....%#%88%%%%%.pww88..&888%=%%w#88%88%%... %%8%%&9",
"8#%#%8%668oX.%....%%%98%%%8%%o%p8%%..%#88%%pq88%%8%%%. %%%%88%$8",
"%%484&89%. .&%%..%%%8%88%%p%%.&%#=%...o%%8%pwp%%%%%%....%%%88=%%",
"%%%%8%%%..%%%8%%%%..y=%%%wp%%%%%%# .....%%%8p8%%#%=#. ..%8%%8%%4",
"8%%=%%%%.%%%68%%%#%.pw#%uw8%%%848%%..%&7w0wp88%8yww....%%8%%%%86",
"88%%%%...%%%88%%8888pw88p8#&%%%8p8#%.&%%%8ppp8up9%%..%%%%88%%88#",
"888%..+&%8%%8=%&%%868yq88%%%%%%%p8%&%=&%%#%7p8%%%o..%%%%&%88%8%#",
"%%%%%%&=%pp%#%888=%889w89yyp8=%%%p%%%8%%%%%%#&.....%%%888%%8%=%%",
"#=%%888%%p08%888%%%%%888ip8#%%%8%%%%88%%%%%%=%.%%#@.8ppww8%&*%%8",
"8%%#%%88%%ww=88%%%.. %%%%%%%%%888%%88%&%pwww#%.%88%..%#p0w%%#%8w",
"%.% .%%%%%8p88%%%&%%. .%%%%=%898%.%88%%%8yqpp%%.8w%%+.%%8pp%8wew",
"%%%..%%8ww898pwwp8%%8%.....%%*%%-=%8%%8&88up8i%8ww%%%%pp6%%8ppw8",
"%8%%%%#%#pp8pwwu%...88..o&...&%%%9%%%48%%%8p8&%pyp%=8pwp%%%ppup%",
"%8%%%889%%8%pp4%..&%.88%.%%%%%%%%8%%888$#%%pp%8p8%%%wwp888%888%%",
"8%%8&%898%%%8%...#%%%%%%.%%=%%%%8%%84&%%%%%%988%&%%%%486%%%%%%%%",
"=%%86=#o.%=%%+.%%88%%%8%.%%88%8%%%%%%%wwwp%%%%%%%%%%%%%...+%%%%%",
"8%%%6%#%...%8%&#%%898%p&%49%%%9%w8o%%p8wp8-%%&%848%%p%..%%8%%%%%",
"48%%%%&%%% .y8%%%%%%8%pq%8=%&=8%ww8%p8pp8#%%%...8p8%pw==8p8%%84%",
"89%%888%4p8.88%y8%%%%%8w=-8w8%%%ppp6%pp&%%488%%.%%9%pwp%p8%*88%%",
".8%868%=%8p8..88%%8p0r88=8w8%%%%p8p8%%%%%p8%%%..%%%%=8p.i=%%&%%&",
"%&%%&%%%%%%48...%88%4rw8%pi%%&%%8888%%%%#%..%%.%.#%u%%88.pwpi%%=",
"%p%%%%%%......%..#%%%8p8%=%=%%%%=88=&=%%#&.......%uwwp83p0p&%%8%",
"2p%84%%%88....%8..%%%%&%#%%%#%%%88=8&%%pi8%....%%%%8pwp8pp%%%86%",
"%%%%89%%%848%%%88...%%%=%%%%%%%.%8&88%%%88%%.. 9%%&%%ii8p%%888%.",
"#%%%%4%#.+%%%%%88%%%%.%% .......%%%88&%%%88%%..88%%%%%%%%%%%%%%.",
"%%%%%%&..%&%%%%%8%&%% .....%8...%%#%88*%%=%=%%%%88%%%%&%%%%=#&.@",
"%%%%.+.8#888.%8%%%%88%%#%%%88%.%%%%%.8%8%%#%.%8%%%%pp%%%%%$%%%.%",
"%#.o.%%&%%8p4%86&%86u%%%8==88...%%...%%8%%=p.%68-%88p%%%8%%88.o.",
".%%. #%%%ppwy#p4&ppp%%=88%%%8%+..&#..%%%%ipqp%p4%ppi%%%88%=%8%+.",
"%8=&o.%8%%8pw8%%yuwwp%%88%=#%..%#8%%..#88%=pw8%%ppwwp%%88%.+%O.%",
"88%. .&98%..%p%88ww%..%8%=%%&%%#88. .=%%.. .%%%%%#%%%#%%%%%=%%%%",
"88%o%%%=&%.89888pp%....%%%%=%%4y88.%.....8%..+%#%%&%%%9%=.%%%%%8",
"86%%%%8%&%wwp.8+.....%.%888p%%ww89...%%8%48%%..%&%8%%p8%%..%%%%8",
"8%%%68%%%pp9%%%%%#898%..-888p%%p8#. %%=8%%98% .%&%p%%w%%%%..%%%9",
"%%%888%%%%&%#%=%&88%%...%%%yp%%%%4%%9=88%%%&..%%%8pw888%%%%#o%%%",
"%%%%%%..%898%%%%88%%%%888.%%..%#%8%p8&8%%%%%.%4pwp8p888pwp8%+%%8",
"%%8%=+% %%%86%%%=%%%%8888%8==8w%%%%w8%%#%%%8%%%&8wp848pw8%%%+%88",
"p88#%88.%%%%8%%wwwp%=&%66%%%8ww&pp6q%%%88%%p%88%%8pp8%p8%%%+.%8%",
"p4%%88%.%w8o%%ppwu8%%=..68%%wi%%iwp88wwp%%%p88-%=%885%%%&% X%%%&",
"%p%%*%..%ww8=p8pp8%*88%.%%%%p8%%%8r4&%%%%%=%58#88%%%%%%%%8%%&%=%",
"%%=%%...%ptp%%8p%%%%8..8pyp=%%%%%%88%....%8y%%u8%%%%%=o.%88%%%%8",
"w%88%.. .%8p8%pp%==%.opwwip%%pwww%%=..%%..%8p8p%%.%%8%=+.%89%%8w",
"%.%88%%%.%%88%%%pp7....%%%%%pww8%.%&.*%8%..%68=%.+%38#%#.=%8%%w0",
"%%%&88%%%%%&%%%8pwwp%#%%888%%%%%%....%%88=.%%%%..%&88%%% .%%%9r8",
"%8%%%&&%O.%#%%%.+o..o %44%%%%%%#%8%%%%%&8%=p%%..%%%%8&%%%.%8%8p%",
"%8*748&%...%....+%#..+%=&8%%%#%%%86=%8y%%%pw%#.==8%%%%6%%%88%8%=",
"9%%yp%%%888%.%....%..%%8%88%%%%%8%88%%8p8%w8%%..%88%%8p=-888%%%%",
"%%%%%%#88%%X%%%%=.o..%88%%8%%%8%&%%%%=%wp8p8%%%O%%88%8wp%8%%....",
"wwp%%%#%#%%.888#%%.%%%8p..8%%89%w6%%88%%p88%pi8..#%4%8ww%&%%%#%%",
"qupp%ipwqy%..%88-%.8%&p%%%&%p88#ww88%pp8%8888%%%.%%%%%8w%8pwp48%",
"8pp8%88p+%% .*%88%.88#.+==#%pp%%pp8%%%wp88%8%%#..%%%888p8pwp4%%%",
".8p..8p..=%%..%%%%%8p%%%ppwp=&=%p8%%%%%%88%%%.o.%88p0wi88888%% +",
"%&286=..pp9%#.%-%%%#pp%pqw8%%%%%%9%%..%%%8%%%%%.%%%%%868o.%%...%",
"%pwp%%%p98%9..%p%%%%%#%pw%.ii88%%p%%...%%&&.%%%%..%#%%....%%%&8%",
"2p2=%%%%%%%%=.%pp%#8p0w8&#pwwwp%9p%..#+.#% ..%8%%..%%..%8o.%%%8%",
"%%%212%%%22%..%pp%9wwppp%%p8pp&.%%%.%8%.o,,,,>,,,,,...%88%..=%%.",
"%%<2&%%=%21...=p%&%8pwpp8%84y%%.%%%.fggg,,,,,,,,,,,,:%889=%.%%%o",
"%#8%%%88%%gggggggggg%h%%..%%%%.gggggggg,,,,,,,,,,,,,,,8&%%%.%= .",
"%#&=.%%8%gggaasggaaggg%%%=#gggggggagg,g,,,,,,,,,aaa,,:,,%%-%%%.&",
"&%...%%gagaagdg;,gggggggggggggaaagaa,,,,,,,,,,>aaa,,,,,>,=%88+.."
};
