/* XPM */
static char *_7125_71900f77889ecded01f4acb31f300dd7a039ea1b07d89965d9d2b918c441cf47[] = {
/* columns rows colors chars-per-pixel */
"64 64 192 2 ",
"   c #020201",
".  c #010A00",
"X  c #160202",
"o  c #081103",
"O  c #10100E",
"+  c #090A14",
"@  c #131C17",
"#  c #270000",
"$  c #330100",
"%  c #281010",
"&  c #0E2901",
"*  c #132A03",
"=  c #152A0A",
"-  c #173403",
";  c #1A3205",
":  c #1F3804",
">  c #1B320B",
",  c #17380D",
"<  c #1F3113",
"1  c #36260B",
"2  c #382908",
"3  c #233502",
"4  c #233C03",
"5  c #27310C",
"6  c #223A0B",
"7  c #353403",
"8  c #222413",
"9  c #22251F",
"0  c #382913",
"q  c #253114",
"w  c #2C3716",
"e  c #223C13",
"r  c #29391B",
"t  c #333410",
"y  c #241527",
"u  c #341C27",
"i  c #312222",
"p  c #302F27",
"a  c #353733",
"s  c #450303",
"d  c #431508",
"f  c #521F04",
"g  c #561314",
"h  c #76151D",
"j  c #462807",
"k  c #40300D",
"l  c #4E2314",
"z  c #53201F",
"x  c #443414",
"c  c #663319",
"v  c #691922",
"b  c #4A3820",
"n  c #533925",
"m  c #4D2B32",
"M  c #4A3335",
"N  c #692521",
"B  c #7A2322",
"V  c #7E2A2E",
"C  c #673424",
"Z  c #783121",
"A  c #7B382C",
"S  c #18410E",
"D  c #254005",
"F  c #2C4206",
"G  c #2F4903",
"H  c #27400C",
"J  c #2E4A0C",
"K  c #35500E",
"L  c #2A4114",
"P  c #294A15",
"I  c #2D431C",
"U  c #284B1C",
"Y  c #334712",
"T  c #314A15",
"R  c #36431E",
"E  c #354C1F",
"W  c #375114",
"Q  c #35511E",
"!  c #304424",
"~  c #364B24",
"^  c #395224",
"/  c #3D542D",
"(  c #384432",
")  c #444314",
"_  c #4A4A24",
"`  c #534021",
"'  c #445D22",
"]  c #455D2A",
"[  c #444238",
"{  c #6E4128",
"}  c #436422",
"|  c #4A6321",
" . c #4A6428",
".. c #4D692C",
"X. c #526825",
"o. c #4B6331",
"O. c #436930",
"+. c #546B32",
"@. c #506638",
"#. c #536A3B",
"$. c #4D783B",
"%. c #557330",
"&. c #5A7331",
"*. c #5B7539",
"=. c #676E38",
"-. c #627835",
";. c #3D3A40",
":. c #454546",
">. c #574445",
",. c #585244",
"<. c #4D4F50",
"1. c #565555",
"2. c #6F4C48",
"3. c #7A4841",
"4. c #665554",
"5. c #5C7540",
"6. c #5E7B40",
"7. c #637B43",
"8. c #7C6857",
"9. c #5D5C61",
"0. c #695E63",
"q. c #6C6668",
"w. c #767070",
"e. c #881B19",
"r. c #9D1522",
"t. c #AB1720",
"y. c #A41E25",
"u. c #AA1A26",
"i. c #B31729",
"p. c #B31C28",
"a. c #B41F30",
"s. c #892724",
"d. c #8C2925",
"f. c #88252E",
"g. c #992223",
"h. c #9B2129",
"j. c #96282D",
"k. c #873024",
"l. c #9C332A",
"z. c #992532",
"x. c #883331",
"c. c #983436",
"v. c #A82224",
"b. c #AC2A2D",
"n. c #A52130",
"m. c #B52730",
"M. c #BB2435",
"N. c #A83337",
"B. c #A53F38",
"V. c #B53235",
"C. c #BE353B",
"Z. c #C52435",
"A. c #CA3336",
"S. c #C43539",
"D. c #CE3039",
"F. c #D1383D",
"G. c #914C37",
"H. c #993544",
"J. c #AB2D42",
"K. c #B93541",
"L. c #C73541",
"P. c #935249",
"I. c #9A5B5D",
"U. c #B5494B",
"Y. c #886858",
"T. c #9A645C",
"R. c #A7635B",
"E. c #AD7757",
"W. c #A55D61",
"Q. c #996667",
"!. c #95696B",
"~. c #8E7B74",
"^. c #A8696D",
"/. c #A9777C",
"(. c #C94547",
"). c #D74C55",
"_. c #E35D61",
"`. c #D4696E",
"'. c #E66568",
"]. c #7F8778",
"[. c #88857C",
"{. c #918579",
"}. c #9D7E83",
"|. c #8A8684",
" X c #958D89",
".X c #9B9A9B",
"XX c #B99E9A",
"oX c #B2A39A",
"OX c #AE9FA3",
"+X c #B2A3A5",
"@X c #D69E9F",
"#X c #DDB7B9",
/* pixels */
"> ; q 6 * < q 5 6 W } $.O.: | ) 4 T +.| 4 4 : T Q 6 > e ! r 1 1 d l 2 d f g j j 3 O.O.$.O.: X.G D } } } 3 4 6 Q I L 6 , P , > : ",
"e H 6 q , , e 5 5 4 4 O.%.W D - ^ E 6 E E 6 : Q I 5 x p < e 8 8.Y.Y.8.8.Y.Y.Y.8.^ e , @.+.) 7 F | X.%.-.+.4 3 I I 5 > > L - - S ",
"; 6 T e S , > > 5 6 6 6 6 > : L , , H L - , e ; r 0 d 8.8.].].[.|./.].|.|.[.~.[.[.w.[.{.!.Y.2.P.f j 4 : , 5 e L H q = 5 w q e e ",
"Q Y ^ e U S , , 6 * e > > e L , = L - > P E S w 0 z W.W.{.oX X.X.X.X.X.X X|.|.[.|. X}.}././.`./.P.G.` ` n 2 5 > ; , 5 w q e e Y ",
"O.I 6 3 L Q 6 H e > , , , * = = < ; < e ; Q T 2 !.Q.I.^.XXoXoXoXOXOXOX+XOX+X+X+XOX+XOXXX#X#X#X@X/.U.H.f.f.g k 5 ; 6 e R > : e ~ ",
"T , 6 5 J P 6 Y x ` 1 1 0 x 0 i 1 2 t 2 2 x C R.R.P.V f.I.I.T.Q.!.!.!.!.!.!.!.!.Q.!.Q.Q./.Q.^.Q.d.l.n.u.y.s.Z f 2 5 t ) E 6 : E ",
"6 L Y T P 4 ) c h N.N.N.c.G.c.c.c.B.U.U.B.U.B.S.b.g.g.g.s.f.j.z.f.x.x.f.c.j.j.c.c.l.z.z.N.N.n.K.N.J.a.L.p.b.b.l.Z l j ) Q H 3 > ",
"6 5 5 4 ) 2 G.B.V.S.L.L.U.`.`._.'.).S.S.A.S.A.D.Z.C.m.V.N.V.S.S.V.B.N.V.C.m.(.'.'.'.)._.).K.K.`.K.K.L.L.K.M.L.M.V.l.Z j Y 4 6 T ",
"~ ; 7 j f G.V.L.F.V.j.f.A x.c.(.L.).D.D.Z.A.A.A.A.S.S.C.C.S.D.D.S.S.C.S.S.S.S.(.(.(.B.L.L.K.K.U.j.B B k.r.K.L.S.A.V.g.x.j 4 Q P ",
"^ _ j P.B.V.S.J.r.s.s X X # N x.J.M.Z.Z.Z.A.F.A.S.S.K.C.S.A.D.D.S.M.m.u.i.i.i.u.g.v.v.v.M.K.`.H.g $ X X N d.J.S.A.(.(.d.j Q P S ",
"R b C g.D.D.K.z.v d l M i X 2.z h j.a.Z.u.u.u.t.u.g.y.y.h.v.y.t.i.y.n.u.v.u.u.u.v.r.t.p.u.z.s.g l + [ % n $ h K.F.Z.J.x.j R - S ",
"6 x N e.a.M.n.h $ :.  ;.;.@   M $ V r.J.p.u.t.v.v.v.y.y.y.y.y.y.t.t.u.n.u.u.t.t.r.v.u.v.z.H.# [ X O ,.i 8 4.$ H.C.K.n.x.1 H H , ",
"> 2 j g z.j.j.g u ;.@ <.;.<.y m % N j.M.a.i.u.u.y.v.i.i.p.t.t.u.u.p.m.M.p.p.p.p.m.p.p.m.b.N % i X i 1.1.y 4.g N J.J.c.{ t 4 t W ",
"^ t n $ h z.V g <.9 :.1.w.w.1.M [ $ j.u.a.m.M.b.b.b.p.M.Z.M.m.m.m.m.m.m.a.M.M.m.t.m.b.b.j.# 4.9 a q.0.q.1.0 2.g f.j.Z f 7 D 7 =.",
"> ; 8 d h z.f.g >.:.<.q.4.4.>.>.n $ B r.n.n.b.m.b.b.m.m.p.m.m.b.b.b.v.u.u.u.y.y.v.v.e.g.V # 1.:.<.q.9.q.2.M 4.0 N C n 7 K %.-.-.",
", 6 5 2 Z v x.$ p a O >.>.4.9 9 8 n N B Z B k.d.k.d.d.d.d.d.k.k.Z k.s.s.s.s.k.Z k.k.k.Z l 8.9 9 + p 1.1.0 [ i _ n k 7 ) | | -.G ",
": ~ 6 5 2 k k u @ [ o a a . . [   q 1 1 b ` 1 1 1 2 2 1 1 1 k j x b 2 x 2 ` x k j x ) _ _ 5 . (   @ :.@ 8 ,.  5.8 5 4  ...+...: ",
"H L 3 6 H ^ ~ ) r @ 8 ( a   <.a q = e L = L Q > e > q < e q 6 6 6 I 6 6 J T L : 3 4 4 +.] < ! ( a O :.@ [ . #.I ~ P H P T e 4 H ",
"H H H T 6 e e ( ! p O r 8 @ q 9 > < H - 6 < : H - 6 5 e 6 e 6 6 E 6 H Y E 4 L D D : L 6 I ~ ~ q o 9 9 9 r R E T : 6 D - 3 6 6 6 ",
"H 6 4 ^ T m m m m m m m m q q < r I ~ 6 D : T : 3 6 L E L e e 6 4 : : H 3 6 +.*.+...6 6 e > 6 e r q q e > 6 > : : & - H H : 6 6 ",
"P : 6 m m m m m m m m m m m m m e > E T T 4 ..6 4 T L 6 6 ; ^ 4 *.K 3 - e #.L 7.+.T : : P > : ~ R ! w e #.6 - : 6 H H H : > L : ",
"~ ~ m m m m m m m m m m m m m m E.E.E.E.W : | &.: W 4 H 3 6 ^ 3 *.X.W D E.E.E.E.E.E.E.E.E.E.e - E o.Y 3 ] *.D 4 J ] Q : H ~ ~ < ",
"m m m m m m m 3.3.3.m m m m m m m E.E.E.E.E.E.E.E.4 T #.~ L ; 6  .X.E.E.E.{ 3.E.E.3.3.3.E.E.E.< ; F Y 6 +.&. .- ..P H : ~ I e 6 ",
"m m m m m m m m 3.3.3.m m m m m m E.m E.E.3.E.E.E.E.E.E.E.: e : E.E.E.E.E.E.E.m u E.3.E.3.3.E.3.E.- 4 D ; W  .3 ..- 6 3 6 6 e e ",
"m m m m 3.3.3.3.m m 3.3.3.m m m m m m m 3.3.E.3.3.3.E.E.E.E.E.E.E.E.E.E.E.E.E.m u E.3.3.3.3.3.E.E.E.: } D D J W - ..*.] @.6 H > ",
"m m m m m m 3.3.3.3.3.3.3.3.3.m m m m m 3.3.3.3.E.E.E.E.E.E.E.E.E.E.E.E.E.E.E.E.m u 3.3.3.3.3.3.3.3.E.E.&...K D ..*...D 3 , E H ",
"m m m m m m 3.3.3.3.m m 3.3.3.m m m m m m m 3.E.E.3.3.3.3.E.E.E.E.E.E.E.E.3.E.E.E.m 3.3.y y y 3.3.m m u u m @.J ..^ H D 4 P E 4 ",
"m M { m m m m 3.3.m m 3.3.3.m m m m m m m m m 3.3.3.3.3.E.E.3.3.E.E.E.E.3.E.E.3.3.3.3.3.3.3.3.3.m m m u + + + T o.J : Q Y E 6 ; ",
"m m m 3.3.3.3.3.3.3.3.3.3.3.3.3.3.3.m m 3.3.m 3.3.3.3.3.E.3.3.E.E.3.3.3.3.E.E.3.3.3.3.3.3.m m 3.m m u u u + u F 6 3 3 : 6 L , 6 ",
"m m 3.3.3.3.3.3.3.3.3.3.3.3.3.3.3.3.m m m 3.3.3.3.3.3.3.3.3.3.E.E.E.3.3.3.3.E.E.3.3.3.3.3.3.m m m u u u u y u 6 : 6 L e 6 5 > > ",
"m 3.3.3.3.m m m 3.3.3.m m 3.3.3.m m m m m 3.3.3.3.3.3.3.3.3.3.3.E.3.3.3.3.3.3.3.3.3.3.3.3.3.m m m u u u u y u 6 6 ; > e e > > e ",
"m m m m m m 3.3.3.3.m m 3.3.3.3.m 3.m m 3.3.3.3.3.3.3.3.3.3.3.3.E.3.3.3.3.3.3.3.3.3.3.3.m 3.3.m m u u u u y u ; E L 6 ~ L q q = ",
"m m m m m 3.3.3.3.3.3.3.3.3.3.3.3.3.m m 3.m 3.3.3.3.3.3.3.3.3.3.3.3.3.3.3.3.3.3.3.3.3.3.m m m m u u u y y y u Y I 6 e e ! < - > ",
"m m m m 3.3.3.3.3.3.3.3.3.3.3.3.3.m m m m m 3.3.3.3.3.3.3.3.3.3.3.3.3.3.3.3.3.3.m m 3.m m m u u u u u u u u : ~ E e q = q < q e ",
"m m m 3.3.3.m 3.3.3.3.m 3.3.3.3.3.3.3.m 3.3.3.3.3.3.3.3.3.3.3.3.3.3.3.3.3.3.3.3.3.m m u u u u u u u u u u : 6 6 q q e e L 6 > 6 ",
"m m m 3.3.m 3.3.3.3.m m 3.3.3.m m 3.m m m m 3.3.3.3.3.3.3.3.3.3.3.3.3.3.3.m 3.m m u u u u > L 6 > ~ > e 6 : ~ < : , e > 6 6 6 I ",
"m m m m m m 3.3.3.m m 3.3.3.3.3.m m m m m 3.3.3.3.3.3.3.3.3.3.3.3.3.3.3.3.m m m u u L L e = < > < , T e 6 o.Y L 6 > 6 6 e L : E ",
"m m m m m m 3.3.3.3.3.3.3.3.3.3.3.3.m m m 3.3.3.3.3.3.3.3.3.3.3.3.3.3.m 3.3.m m u L I I e > - r 6 6 #.6 ; 7.6 : 6 : * > > 6 6 ~ ",
"u u m m m 3.3.3.3.3.3.3.3.3.3.3.3.m m 3.3.3.m 3.3.3.3.3.3.3.3.3.3.m 3.3.m m m m 6 > , L = e > e 6 W ] #.W J J F 4 6 6 6 6 6 : 6 ",
"u m m m 3.3.3.m 3.m m 3.m m 3.3.m u m 3.m m m 3.3.3.3.3.3.3.m 3.3.m m 3.m m m : H 6 > H ; , ~ o.*.| G X.Y G K | +.@.E 6 * e e ~ ",
"u m 3.3.3.3.m m m m 3.3.m m 3.m m u m m m m 3.3.2.m 3.3.3.3.m m 3.3.m m m m : H H 6 6 Q ; H e 6 J -.| G K K ' -.W 6 5 6 6 q ~ ~ ",
"u m m m m m m m m 3.m 3.m m m m u u m u m m 3.m m m 3.3.3.3.3.m 3.3.m m : F - T T , 3 ..L H ^ 4 4 4 X.X.G : ..T 3 6 6 > > e I e ",
"u m m m m m m m m 3.m m u m m u u u u u m m m m m P.{ m m 3.m m m m m J Y *.6...: 6 6 o.J ^ - 6 6 4 E T W 4 6 6 6 e > = e 6 5 6 ",
"u u m m u m m u m m m u u u u u u u u u u m u m m m m m m 3.m m m m *.T D 6 , ; 4 : : 6 Q E - T I e - 6 e 6 ; e e E e 6 6 6 - H ",
"u u m u u m m u u u u u u u u ..6 6 u u u u u u u u u m m m m m 4 : Q Y ; , > : : - T #.6 3 #.^ L q e e 5 e > q > E ~ e 6 6 3 W ",
"+ y u u m m y y - : ~ o.H H @. .6 : 4 6 > - o.7.+ + u u u m m m y D ; 6 e : - < - - , W  .T o.6 6 6 e < ~ e e > > e ~ E 6 : K &.",
"+ y u u u u y u ; : : ~ ^ 3 - : } ..L 4 3 - - > H + y y u u u m m y L - > > H ^ 6 > : ; ~ Q 6 , > ; 6 L E 6 L 6 > > 6 T 4 D +.-.",
"+ + y u u u y e e L > : , H 6 E O.&.*. .3 6 , 6 E + + + + y u u m y y > q e = ~ E 6 ; : 6 ; 6 ; 3 3 4 ~ E : q e * e 6 6 : J -.G ",
"+ + y y u u y L - > > L < I < = > , > ; 6 - 6 ~ T + + + + + y y y y y 6 6 > , : P : D %.: L < > 6 6 > L I e e q < > e E 6 Y  .4 ",
"+ + : y y u u y = 6 , e - , > > - < e e & ; e 6 6 T + + + + L 6 y y y y q ^ o.: D :  .&.: ; = e 6 ~ 6 : 6 e ^ w L 6 I E : Y 6 6 ",
"+ : 4  .y y u y y I ~ < e > > , > - r > > H - ^ > + + + + , > e Y y y y y y ^  .K D %.Q D , > - 6 ^ T e 6 6  .4 : ^ T E 4 6 e 6 ",
"S D : H 4 y y y y y H - 6 6 e , e < > = = 6 ^ P 5 + + + + 6 ^ > : 6 y y y y y 5.} K ..D H H 6 > 6 e Y T 4 W 7.' 3 J : H 3 * ; ; ",
"+ &.X.: : : y y y y y > I ~ E 6 e > < e e 6 P  .H + + + H Y E H %.W S y y y y : | K J T  .] ^ > > > L Y 4 K &.&.D : 4 6 ; e 6 e ",
"+ | ' ..D  .o.y y y y - : 6 T E e 6 - ~ ; 6 o.D : + + + } Q P : %.7.H Y -  .@.Y H L J K T S e > 5 6 6 3 D : G &.: G X.5.o.E I e ",
"K  .X.J D Y W ] - ; : : > H S I E e 6 E ^ 6 > - D : : H ] o.H : +.' W J H 6 5.@.Y ^ 6 P H : H > = e 6 6 J W J X.K X.X.+.T 3 e e ",
"- K | : - P ..: : 6 6 6 ; ; 6 6 > 6 : Y ] H - H  ...+.o.6 > : D | J D : 6 > 6 6 E T 6 4 < - 6 = > ~ E @.&.*. .Y G K W T 6 e * q ",
": 6 6 T T 6 - ; o.o.! S > ; e 6 ; P 3 : +. .: ..&.%.J : H 4 : 4 : Y : H : & L , 6 ~ e ; 6 L 6 - e 6 e 6 3 L E T : 3 6 6 6 * > e ",
"4 o.-. .H ; 6 o.E ~ > I - - 6 @.e - 6 4 D : 3 ..*.: - .. .P W : H  .H ; > ; 6 6 S L q ; e : H , = ; 6 6 e e 6 ; > - e : 6 6 I e ",
"Y ] T 6 6 P ; 6 > L e I 6 ; >  .] : H T ' *.@.K S 4 +.6.#.*.| : I O.6 * > e > > , > > = > < ^ < 6 4 ; : e ; = e ! = < > e e E > ",
"; , 6 6 F 6 6 e 6 H L - > > e @...D P 5.7.+.} ..: :  .T +.| 6 ; H L : > e I > 6 > > H e > L I ~ 3 6 , > > 5 r ~ / q > < e e e > ",
"L 6 e L e , 6 > e L L 6 - : 6 o.H H : ~ ' %.+.} W 6 H Y O.: , > , > , > 6 E e 6 e ; L H 6 6 6 ~ 3 6 6 ; ; > ^ I R e q > e > > > ",
"6 : I I > 6 ~ ~ e H L > > ; 6 6 : : ; T > 4 D D - : 6 H H - 6 ; e e L > : ^ L : H , ^ > 6 6 6 6 I 6 6 6 e 6 ~ e > e 6 - e 5 : q ",
"S 6 > > - 6 e L 6 > e 6 - 4 E : H ; H |  .> 6 6 D : : : < L - q e e 6 : - E T L : : E I ; 6 E 3 Y 6 6 ] o.6 6 3 6 6 6 6 e > 6 q ",
"5 6 ; H > 6 e ^ H > 6 o.- 6 T E , L L Y @.6 , 6 T 4 6 E ( = > > e r < > ; : : ^ H : : #.; : ^ Y ; e Y Q o.4 6 3 E 3 > E ^ > ; > "
};
