/* XPM */
static char *_3340_8791ec912b267931a8d987b0a326b013b47087766a9edafe4f28eb004daa4d53[] = {
/* columns rows colors chars-per-pixel */
"64 64 175 2 ",
"   c #020101",
".  c #010A00",
"X  c #1B0000",
"o  c #081103",
"O  c #10100E",
"+  c #090A14",
"@  c #151F12",
"#  c #10191C",
"$  c #270000",
"%  c #330100",
"&  c #2C1008",
"*  c #22101B",
"=  c #0E2901",
"-  c #132A03",
";  c #152A0A",
":  c #163403",
">  c #1A3205",
",  c #1F3804",
"<  c #1B320B",
"1  c #17380D",
"2  c #1F3113",
"3  c #332206",
"4  c #3A2805",
"5  c #36260B",
"6  c #392E0C",
"7  c #233502",
"8  c #233C03",
"9  c #27310C",
"0  c #223A0B",
"q  c #353403",
"w  c #222413",
"e  c #22251F",
"r  c #382913",
"t  c #253114",
"y  c #223C13",
"u  c #2E3915",
"i  c #24311C",
"p  c #29391B",
"a  c #333410",
"s  c #241527",
"d  c #341C27",
"f  c #2F2E28",
"g  c #312222",
"h  c #353733",
"j  c #440C06",
"k  c #521F04",
"l  c #571217",
"z  c #751514",
"x  c #76151E",
"c  c #462907",
"v  c #40300D",
"b  c #4D2316",
"n  c #53201F",
"m  c #443414",
"M  c #663319",
"N  c #691823",
"B  c #4A3820",
"V  c #533925",
"C  c #4D2B32",
"Z  c #4A3335",
"A  c #692521",
"S  c #7C2729",
"D  c #673424",
"F  c #783121",
"G  c #7B382C",
"H  c #18410E",
"J  c #254005",
"K  c #2C4206",
"L  c #2F4903",
"P  c #27400C",
"I  c #2E4A0C",
"U  c #35500E",
"Y  c #2A4214",
"T  c #294A15",
"R  c #2D431C",
"E  c #284B1C",
"W  c #334712",
"Q  c #314A15",
"!  c #36431E",
"~  c #344C1F",
"^  c #375114",
"/  c #35511E",
"(  c #304424",
")  c #364B24",
"_  c #395224",
"`  c #3D542D",
"'  c #384432",
"]  c #444314",
"[  c #434520",
"{  c #534021",
"}  c #445D22",
"|  c #455E2B",
" . c #55522A",
".. c #444238",
"X. c #6E4128",
"o. c #436422",
"O. c #4A6321",
"+. c #4A6428",
"@. c #4D692B",
"#. c #536623",
"$. c #506A28",
"%. c #4B6331",
"&. c #436930",
"*. c #546B32",
"=. c #506638",
"-. c #536A3B",
";. c #4D783A",
":. c #557330",
">. c #5A7331",
",. c #5B7539",
"<. c #676E39",
"1. c #627835",
"2. c #3D3A40",
"3. c #454546",
"4. c #574445",
"5. c #595244",
"6. c #4D4F50",
"7. c #565555",
"8. c #694744",
"9. c #7A4841",
"0. c #665554",
"q. c #7A5751",
"w. c #5C7540",
"e. c #5E7B40",
"r. c #637B43",
"t. c #695F63",
"y. c #6C6668",
"u. c #767070",
"i. c #881B19",
"p. c #9D1522",
"a. c #AB1720",
"s. c #A41E25",
"d. c #AA1A26",
"f. c #B31729",
"g. c #B31C28",
"h. c #B41F30",
"j. c #8C2925",
"k. c #88252C",
"l. c #992223",
"z. c #96282D",
"x. c #873024",
"c. c #9C332A",
"v. c #992532",
"b. c #883331",
"n. c #983436",
"m. c #A82224",
"M. c #AC2A2D",
"N. c #A52130",
"B. c #B52730",
"V. c #BB2435",
"C. c #A83337",
"Z. c #A53F38",
"A. c #B53235",
"S. c #BF363B",
"D. c #CA3336",
"F. c #C43539",
"G. c #CE3039",
"H. c #CD313A",
"J. c #914C37",
"K. c #AB2D42",
"L. c #B93541",
"P. c #C73541",
"I. c #935249",
"U. c #B54A4C",
"Y. c #996667",
"T. c #95696B",
"R. c #A76F73",
"E. c #C94547",
"W. c #D74C55",
"Q. c #E35D60",
"!. c #D4696E",
"~. c #E66568",
"^. c #8A8684",
"/. c #AE9FA3",
"(. c #B1A2A5",
/* pixels */
"< > t 0 - y t 9 0 ^ o.;.&., O.] 7 Q -.} C C 9.9.C 9.9.9.9.9.C C C 9.C C d C d d C C C 9.C C 9.9.C C C C 9.9.9.d d d d 1 T H < < ",
"y P 0 t < 1 y 9 9 8 8 &.>.^ J : _ Q P / W C C C C C 9.C C 9.9.C C C C C d d d d C C C C C C 9.9.C C C C C C C d d d d < y > : P ",
", 0 T y H 1 < < 9 0 0 0 y , , Y 1 y y Y : 1 C C C C 9.C C C C C C d C d d d d d d C C d C C C 9.C C C C C C C d d d ; 9 u t 2 Y ",
"/ W _ y E H 1 1 0 - y < < 2 Y 1 < H > < T ) 1 C C C C C C C d d d d d d d ^.^.^.d d d d d C C C d C C d C C d d d s 9 u t y y Y ",
"&.R 0 7 Y / P H y < 1 1 1 - ; ; 2 < 1 y : / W + + s C C C d d s /././.(./.(.(.(./.d d d d d d d d C C d d C d d d s y ! < , y ~ ",
"Q 0 y 9 I T 0 W m { 3 5 r m r g 3 5 6 6 6 m + + + s C C d d s Y.T.T.T.T.T.T.T.T.Y.T.Y.Y.R.Y.R.d d d C C d d d d d s s ] / H 7 ~ ",
"< Y W W T , ] M z C.C.C.n.J.n.n.n.Z.U.U.Z.+ + + + s s C g d s v.k.b.b.k.n.z.z.n.n.c.v.v.C.C.N.L.C.+ + + s s d d d d s ] / Y 7 , ",
"0 9 9 8 ] 4 J.Z.A.F.P.P.U.!.!.Q.~.W.F.F.D.+ + + + + s C d s s G.A.Z.C.A.S.B.E.~.~.~.W.Q.W.L.L.!.L.+ + + + s s s d d s c W 8 0 Q ",
") > q v k J.A.P.H.A.v.S G b.n.E.P.W.G.G.+ + + + D.F.s s d s G.G.F.F.S.S.F.F.F.E.E.E.Z.H.P.L.L.U.+ + + + + L.s s s d d s c 8 / T ",
") ] c I.Z.A.F.V.p.j.j X $ $ A b.K.V.+ + + + + D.F.F.L.s s s s G.F.V.B.d.f.f.f.s.l.m.m.m.B.L.!.+ + + + + A j.K.s s s d s c / T H ",
"( B G l.F.G.L.v.N j B Z g X 8.n x + + + + + a.a.a.l.s.s s s s a.f.d.s.d.m.s.d.d.m.p.a.g.s.v.+ + + + + & V % x S.s s s s c ! , H ",
"0 m A i.h.V.N.x % 3.  2.2.#   Z % + + + + d.a.m.s.m.s.s.s s s p.a.d.d.N.g.d.a.a.p.m.d.s.z.+ + + + + 5.d w 0.j s s s s s 5 0 P 1 ",
"< 6 c l v.z.z.l d 2.# 6.2.6.# C & A v.V.h.f.d.a.s.m.f.f.s s s d.d.g.B.B.h.f.g.g.B.g.g.B.M.+ + + + g 7.7.* 0.n s s s s X.6 8 a ^ ",
") a V % x v.G l 4.f 3.7.u.u.7.Z ..% z.d.h.B.V.M.M.M.B.V.G.V.B.B.B.B.B.B.h.h.V.B.a.B.M.M.v.$ 0.e Z y.y.y.7.g 8.l k.z.F k q J q <.",
"> 9 w j x v.k.l 4.3.6.y.0.t.4.4.V % S l.N.N.M.B.M.M.B.B.g.B.B.M.M.M.m.d.d.d.s.s.m.m.i.l.S $ 7.3.6.y.7.y.8.Z 0.5 A D { q ^ :.1.1.",
"1 0 9 q F N S % f h O 4.4.0.e e w V A x F S j.k.x.j.j.j.j.j.x.x.F x.j.j.j.j.x.F x.x.x.F b q.e e + f 7.7.r ..g  .V 6 q ] O.O.1.L ",
", ) 0 9 6 v v g @ ..o h h . . ..  t 5 5 B { 5 3 3 v 5 3 5 5 v c m B 4 m 4 { m v 4 m ]  .] 9 . '   # 3.# w 5.  w.t 9 8 %.@.@.@., ",
"P Y 7 0 P ) ) [ p @ w ' h   6.h t ; y Y ; Y ) < y < t 2 y t 0 0 < ! 0 0 I Q Y , 7 8 7 *.| y ( ' h O 3.@ ... -.p ) Y P W Q P 8 P ",
"P P P Q 0 0 y ' ( f o t w @ i e > 2 y > 0 0 , P > 0 < u 0 Y 8 0 / , P W / 7 T J P 7 Y 8 ( ) ) 2 o e e w p ! ~ Q 7 P J : 7 0 0 0 ",
"P 0 8 ) ^ y 0 y < < R 2 R t 2 2 p R ) P J 8 E , 7 0 Y / Y y y 0 8 , 8 P < 8 -.,.*.@.0 0 y < 0 y p t t y < 0 < , , = : H P 0 0 0 ",
"T 0 0 y ! P y > > < > 0 _ < Y Y y 0 ~ Q Q 7 @.8 8 Q Y 0 0 , ` 8 ,.U 7 : < -.P ,.*.Q , , Y < 0 ) ! ) u y =.0 : , , P P P , < Y , ",
"~ ~ P 0 , 1 , 0 y , < , %.Q 0 > 0 P < , ^ , +.>., ^ 8 0 , 9 ~ 7 ,.@.^ J | ^ *.+.W , P , 0 > y > ) | W 7 | w.J 8 I | _ 7 P ) ) 2 ",
"~ ~ < 0 T / E 0 T %._ = _ Q > -.R y , 7 J 7 Q *.8 8 W -.~ Y > 0 +.$.o.U J | =.8 Y > ^ T T P : 2 : K W 0 *.>.O.: @.T y 8 E ! y 0 ",
"> E 0 / Q ~ 8 0 > / o.) : : Q Y 0 0 W =.,.,.I ^ 8 W w.Q 0 , y , %.I @.I 8 , P < , =.T P , > y > u : J J > ^ +., @.: 7 0 8 0 y y ",
", 0 8 < 0 0 7 0 8 0 0 / ! : > 0 Y ! Y P K ,.,.W 7 @.| R 0 , 0 0 Q ^ I I 8 8 0 y < y < , > y < 0 : P 8 o.J H I ^ : @.w.| =., P < ",
"Y | P y P 7 0 0 > 0 > > 0 0 < > - 0 Y 0 0 ^ | ^ , P , 0 y y y < 8 Y / J , 0 0 y R < > > > 0 1 < > , %.,.>.@.U J @.e.+.J 7 < _ P ",
"u @.0 W _ > Y 0 ) W < > < - 0 ) < > 0 , , , P , 0 > < y y < y 0 } I > ) y > < =.| ~ 0 t < 2 > < P , J T &.*.=.I @._ P J 7 T ~ , ",
"0 P 9 Y ) Q < 0 0 / ) R y y y ~ ( < > > P 9 0 0 0 y y y < t < < : ^ 8 ` R R y < / ) H 0 < y ; ) , , : 8 R +.@.^ %.I , / Q ~ 0 > ",
", > 0 , y ) 0 < < 0 y < 0 0 Y R ) 0 < 9 0 > 0 y > t < > 2 2 > : 0 0 < R ) > 0 < 7 Y ~ y t < : ) _ > H 7 7 , : P 8 7 7 , 0 Y 0 < ",
"0 0 y Y > 0 H 0 - < 0 y 0 0 0 0 ) y 0 0 0 > - < < < ; 2 ) < > < y 0 y y ) ) P 0 0 K y < Y < < 8 / / P > 0 u P , , 0 Y 0 8 0 < < ",
"y y < 1 1 < 0 Y 0 ~ / T < 0 Q 0 0 > 0 W ) 0 y 9 y t y ' ) y > y < 0 0 0 < ) 0 Y 0 0 > 8 8 0 R y , P > *.%.7 8 0 0 > < y y < < y ",
"< y 1 > > 1 1 Y 8 0 T %./ 7 Q Q 8 8 / _ +.0 y 0 ) y t ) ( < 2 < y t , , > 0 0 ) , 0 8 *.> 0 ) ~ P J P ^ %.8 0 > _ y y ( R 2 t < ",
"> H y > : 0 0 9 8 @.@.,.+.J $.I J } $.$., J P T W y 0 < ) p t < 9 0 < < < < 0 < J +.| w.@.0 %.^ 8 O.O.O.7 8 8 W R 0 2 y ) 2 1 < ",
"R R 2 9 2 0 1 _ , J Q +.,.I , J $.$.*.>.+., , ) ) - Q y 2 < > y 2 ~ Y Y : > Y ) Q P 8 +.,.Q P : @.O.>.,.#.7 , ~ / y t ; 2 2 t y ",
"R E 0 < > > 0 Q Q 0 = 8 , @.P Y L :.>.H > > y ( y y < 0 1 0 8 P / ~ = 1 > 0 1 0 > : : : 8 8 < P 0 7 P , 0 0 0 0 t 2 y y Y 0 > 0 ",
"~ ) Y < y 1 y 0 , 8 8 W T ~ Q T @.o.P : 0 < > p 2 9 0 , 8 J Y o.~ / < < < < > 0 : ) P : - < Y 0 < ~ < y 0 > ) 2 , 0 y < 0 0 0 R ",
"~ Q < , y y Y 0 0 1 r.w.%.: ) < > 1 < 2 1 2 1 Y ) Q Y O.J , 1.,.W R y > < , 0 ) < _ y Y 2 < 2 < y y Q y 0 %.W Q 0 < 9 0 y y 0 W ",
"W , 1 Y / R y 0 P =.=.p Y y > y 1 Y ) ) ( Y < : : / I ^ #.7 , #.T P > > y y y ) y Y ! R 2 > 1 R 0 < -.0 > r.0 7 0 , - < < 0 0 ) ",
"P 8 , Q _ E 0 0 < , 0 H < P < 0 H T Q , 0 > 7 : J 0 P o.%.< 0 0 P T > Q Y P ~ E 0 < Y Y 1 2 > 2 , ^ | -.^ I I K 8 0 0 0 0 0 < P ",
", 8 0 < 0 < < > P Q ! ^ J < P , I U P : , P Y / ) > 0 7 0 , y 0 8 U 7 &./ < ! 0 P 1 > H > , ) =.,.O.L $.I L U } -.=._ 0 - y y ) ",
", Y R 0 y < 0 > 0 , , / Y J P , 8 : , P < ) / E ! , E 0 , W w.7 8 , 8 ,.T , , 0 P P , _ > P y , I 1.O.L U U } 1.^ 7 8 0 0 t ) ) ",
"=.W _ 0 : ) ~ > < P J , U , 7 >.,.,.+.P < Y 2 ) ) y 0 8 ^ ,.>.8 @.O.U >., J : Q Q 0 < +.Y P _ , J J $.#.L , @.Q 7 0 0 < < y ( y ",
"&._ > Y ) ) 8 < , w.I , , , $.o.:.o.^ P > , 1 > Y ) 8 8 ,.+.8 8 +.:.+.I W w.e.@., , P %.I _ > P 0 8 ~ W ^ , P 8 0 y < ; Y 0 9 0 ",
"> %.< , 2 1 : 0 P ,.,.Q H $.I @.&.^ , 7 _ ~ 0 < P 7 P , +.E 7 0 , U ,.U J , 0 > J , , 8 / ~ : Q ! y > 0 y 0 : 2 y ~ y 0 0 0 > 0 ",
", 0 P y < < > > P | @.%.7 H Y @.0 0 , 0 Q 8 1 8 | $.+.7 8 J : 8 , , _ W : , > , , 1 Q -.8 7 =.~ Y t y y 0 y < t < ~ ) y 8 0 , ^ ",
"w.Y P / Y : , < : , ) %.P P *.%.0 , J 0 : > @.r.,.O.+.J J O.r.-.,.J > 1 Y < 1 2 > : 1 ^ %.Q %.1 < < y 2 _ y t < < y / ~ , , U ,.",
", , 0 W E < Y < > , 0 ~ _ 7 , , o.@.R , 7 > > < P : 0 , $.>.>._ 0 : R > 1 > y ) 0 < > > ) _ , Y 0 > 0 Y ~ 0 Y 9 < < y Q 7 J *.1.",
"0 : 0 0 _ / < y 0 Y < : 0 Y 0 T &.,.,.O.0 0 1 0 ~ Q Q 8 8 0 7 7 , 0 > > 2 y < ) ~ 0 > , 0 : 0 > 7 8 8 ) ) , t y - y 0 8 , I 1.L ",
"J Y J P : Y , H < < > H y R 2 ; < 1 - > 0 > 0 ~ Q 0 0 0 0 0 P 0 0 ! 0 0 0 , H , Q , P $.0 H 2 < < 0 0 Y ! y y y t < y ~ 0 W @.8 ",
"8 ) , Q ) _ > < < 0 y 2 < ; < < 1 2 Y y = - Y 0 0 Q > > 1 1 y 0 , ~ E 0 y ) %., J , +.:., > < y 0 ~ 0 > 0 y ) Y y 0 R ~ , W 0 < ",
"U , J @.%., y y ! R E y y < < 0 1 > p < < H < ) < ) _ P , Y < y Q P ~ ~ < > _ %.U J :./ 8 0 < : 0 _ Q y 0 0 @.7 7 _ Q ) 8 0 0 0 ",
"H J , 0 J , , Q ) P 0 , 0 0 y 1 y 2 ; > < P / Q < R Q 1 , 8 _ < , 8 J 0 > P 0 w.o.U @.P P P 0 < 0 y W Q 8 ^ r.} 7 I , P 7 - , > ",
">.,.:.7 , , 0 8 P 0 > < R ~ ~ 0 2 < 2 y Y < T +.P > ) : P W ~ 0 :.^ 1 8 _ T 7 , +.U I Y +.+.) < 9 < Y Q 8 Q >.>.8 , 8 8 < y 8 y ",
",.O./ $.J +.%.,.w.| W : 1 0 Q ~ y 0 : _ > , =.J 8 > 8 J o./ Q , :.r.P Q > %.=.Q P Y I U T P y < < 0 8 7 J 7 L >.7 L $.w.%.~ ( y ",
"U O.@.I J Q ^ | : < , 8 > P Y R ~ y < / ) P < > 8 , , 0 | %.0 , $.} ^ I 0 8 ,.=.Q / P T P < 0 < ; y 0 0 I ^ I #.U #.#.*.W > y y ",
"> U O., : Q @., , , 1 P : < < , < 0 8 W | P : P +.@.-.@.0 0 8 8 @.I J , 0 0 0 0 ~ W 0 8 < < 8 < < ) ~ =.,.,.+.I L ^ ^ Q 0 y - t ",
", , P Q Q < > > %.%.) , < < H 0 , T 7 , @.%., @.,.:.I , P J , J , Q 8 P 8 = y 0 < ) Y > 0 Y 0 > y , y 0 8 Y ~ Q , 7 0 0 0 - < y ",
"J %.,.@.P > P %.~ ) < R : > 0 =.y : , J P , 7 @.,., : @.+.T ^ , 0 %.0 > < > < 0 H Y 2 > y 1 y < ; 9 0 0 y y 0 > < : y < 0 0 ! y ",
"W | Q < 8 T , , < Y 1 R 0 > < %.| 7 0 Q } ,.*.^ J , *.r.=.,.o.< Y &.0 - < y < < 0 < < > < y ~ y 0 8 > > y > ; y ( ; 2 , y y ~ < ",
"> H 0 0 P Y < y 0 Y Y > < < R %.@.P T ,.r.@.o.@., , +.Q $.+.P , P Y 0 , 1 ! < 0 < < y p < Y Y ) < 0 0 < < < p ) ` 2 < 2 y y y < ",
"y 0 y Y Y 1 0 < 1 Y Y 0 : > P +.0 P 8 ) | :.*.o.^ P P T %., < < Y ; 0 < Y _ y 0 P > Y 1 8 0 0 ) 8 0 0 > > 9 ) R ) y t < y < < 9 ",
"0 0 ! Y < 0 ) ) 0 Y Y < < > 0 0 0 8 > Q , , J J : , 8 P P , < > 2 y Y < > / Y 0 P < _ 1 0 0 0 0 R 8 0 0 y 0 ~ y < y , > y 0 > t ",
"y , < < > 0 Y p y 0 y 0 > H ) , 8 > H +.%., < 8 8 8 , > 2 H - y 1 y 0 > > W W Y , P ) Q > 0 ~ 8 Y 0 0 | %.0 0 , 0 0 < 0 y < 0 2 ",
"< 0 : P < 0 0 _ 0 < 0 +.> , W ~ 0 Y Y Q =.< 0 0 Q 8 0 ) ' < < 1 y p 2 < , H , / , , , -.> < / W > u W ) %.8 0 7 ~ 7 0 ~ ) < , < "
};
