/* XPM */
static char *_0472_e401af97490e1c20d54d0c06fdcd3453190de067f421584e5ff46f36b420bc37[] = {
/* columns rows colors chars-per-pixel */
"64 64 45 1 ",
"  c #1E3616",
". c #1F3616",
"X c #1E3716",
"o c #1F3716",
"O c #1E3617",
"+ c #1F3617",
"@ c #1F3717",
"# c #263A16",
"$ c #273A16",
"% c #263B16",
"& c #273B16",
"* c #263A17",
"= c #273A17",
"- c #263B17",
"; c #273B17",
": c #341C27",
"> c #4D2A32",
", c #4C2B32",
"< c #4D2B32",
"1 c #4D2B33",
"2 c #2D4217",
"3 c #2C4317",
"4 c #2D4317",
"5 c #344C1A",
"6 c #344D1A",
"7 c #354D1A",
"8 c #344C1B",
"9 c #354C1B",
"0 c #344D1B",
"q c #354D1B",
"w c #5F761E",
"e c #5F771E",
"r c #5E761F",
"t c #5F761F",
"y c #5F771F",
"u c #476820",
"i c #476920",
"p c #476821",
"a c #466921",
"s c #476921",
"d c #7A4840",
"f c #7A4841",
"g c #AD7657",
"h c #AC7757",
"j c #AD7757",
/* pixels */
".%%..%%%%8uts%s0%0ps&-%00%%%0%..+%%.o-%%%psta%s0%sss%-%90%%%q-..",
"%&%#o.%%%&%pt0%%00800%%00#%%...%%q&# .%00%%st0-%sptts%%00%.o#..%",
"%%0%%+X.+%%%%%%%%%-%%%-%%%....%%q0.+.%%%%#%%#%%q%%%%%%%%%..%&%%%",
"80q%0%%% o-%..-%.%%%%0%%%%%...0s00.%%%%%%%#%0%%0&%q00%%&..%%%%%0",
"s0%%00%%-.........%%%00%%%%%.stt60..#0q0%%%%t#00#00%%....%%0%%-0",
"0%%%%0%800.o.%....%%%q0%%%0%%.%s0%%. %$08%%pr80%%0%%%..%%#$00%%0",
"%%806&00%o +&%%..%%%0%00%%s%%.%%#%%....%%0%sts%%%%%%..o.%%%00%%%",
"%%%%0#%% .%%%0%%%%..s%#%%ti&%&%%%#..+...%%%0s0%%#-%%....%0%%0%%0",
"0%%-$%%%.%%%80%%#%%.sy%%st0#%%000%%..%%6ttts80%0syw....%%0%$%%88",
"80-%%%o.+%%-00%%0000st00sq#&%%%0s0%%.%%-%qpss0sa0-%..%%%%00#%00#",
"000%...#%0%%6-&%%%006st00%%-%#%%s0%%%-%%%%%9s0%%%...%%%%%%00%q%#",
"%%%%%%%%&ss%#%0q6-%00qw00sss0-%%%s%%%0%%%%%%%%....o%%-000%%0%%%%",
"#-%&060%%sw0%000%%%%%000as0&%%%0%%%%00&%%#%%-%.%%%@.0sstt0&%#%%0",
"0%%%%%00%&tt%00%%%.. %%%%%%%%%000%%00#&%sttw#%X%00%.o%#stt%%%%0t",
"%.%..%%%%%0i00&#%%%%o .%%-%%%0q0%.%00%%%8stis#%.0t%%.o&-0ss%0ttt",
"%%%..%%0yt0q0stts0%%0%.....%%--%-%%8%%6%00ss0s%0tt%-%%ss8%%0ssw0",
"%0&%%%#%#ps0sttp%...00+.o&...&%%%q%%#00%%%0s0%%sis%-0sws%%%siss%",
"%0%%#00q%%0%ss0& .%%.00%.%%%%%%%&0#%900#%%%ss%0s0%%%tts700%080%%",
"0%%0&%000%%%0%...%%*%%#%.%%%%%%%0%%00%%%%%%%000%%%%%%608%%%%#%%%",
"%%%00%%..%%-%.X%%00%%%0%.%%q0%0%%%%%%%ttts&%%%-%%%%%-%%....-%%%&",
"0%%%0-#%...%0%%&%#000%s%%0q%%&0%t0.%%s0yp0%%%%%600%%s%..%%0%%%%%",
"60%%%%%%%%..s0%%%%%%0%ar%0%%%-0%tt0%s0ss0%%%%...0s0%st%%0s6%%06%",
"0q%&000%0s0.00%sq%%-%%0t-&6t8%&%pas8%ss&%%600%-.%%0%sws%s0%*00%%",
".0%600%%%0s0..00%%0sty00%0t0%%%%s0a0#%%%%i0%%%..%%%%%0i a%%%&%%&",
"%&%%&%%%%%&06o..%80%0yt0%ss%%%%%0000%%%%#%..%-.%.#%s%%00ostss%%%",
"&s#%%%#%. ....%..%%-%0s0%-%-%%%%-00%&-%%#%.......%utta00pts%%%0%",
"2s%00%-%00..+.%0..-%%%%%%&%%%%%%00-0%%%sa5%...+%%%%0sts0as%%%08%",
"%%-#0q%%%000%%%00+..%%%--%%%%&%.%0&00%%%00&-...q%%%%-ss0a%%000%.",
"#%%%%0%%..%%%%%00%%#%.#%..... .+%%%60&%%%00#%..00%%%%%%%%%%%%%%.",
"%%%-%%;..%%%%%%%0&%%%. ++oo%0...%%%%00*%%%#%-;#%00%%%%%%%%%#%%.@",
"%%%%.+.0%000.%0&%;%q6%%#%%%00%.%%%%%@0-0%%%%.#0%%%%ss%%%%%%#&%.%",
"%%...%%%%%0s0%00&%00s%%%0%%60.. %%...%%0&%%s.%80;#00s%%%0%%0q...",
".%%. $%%%ssts#s6&sps%%-00%%%0%+..%#..%%%#ssta%s0%ssa%%%00%-%0%..",
"%0%;..%0%$0st0%#sptts%%80%%#%..%-0%%..#00%%st8%%sstts#%00%..%..%",
"00%...%00%.+%s%08tt%..%0%%%%%%%#q0. .-%%.. .%%%%%%%%-#%%%%%%%%%%",
"00-.&#%%%%.00000ss%....%%%%%%%0s00+%.....0%...%-%&&%%%0%% %%%%-0",
"08*%%%0%%#tys.0..... %.%0q0s%%tt0q...%&q%00%#..%%%6%%sq%%.o&%-%0",
"0%%&00&&%ss0%%-%%%000%..%088s%%s0%..%%-8%%q0%..%&%s%%t%%-%..%%%q",
"%%%000%%%%%%%&%%&00%%.o.%%%ss-%%%0%%0%00%%%&..%%%6it080-%%%%.%%%",
"%%%%%#. %090%%%&00%%%%000.%- .%%%0%s0%0%%-%&.%0ats0s000stp0%+%%8",
"%-0%-.% %%%88%-%%%%%%0800%0%%0t%%%%t0%%%%%%0%%%%0rs860st0%%;.%00",
"s00%%00.&#%%0%%ttrs%&%%00%%%0tt&ss0t%%%00%%s#00%%6ss0%i0%%%+.%6%",
"s6%%00%.&t0.%%ssts0&%%.+00%%ta%&ats08tts%%%s00&%%%006%%%%% X%%%&",
"%a#%%%. %tt0%s0ss0%#00%.%%%%s0%%%0t0%%%%%&-#68%00%&%%%%%%0%%&%-%",
"%%-%%.+.%sis%%0s%%%%0..0sss%-%%%%#00%.o.o%0i%%s6%%%%&-o.%q0%-%%0",
"w%00%.. .%0s0%si-%%% osttss%%stwt&%%..%-o.%8s0s%%.-%0%-+.%q0%%0t",
"&.%00%%%.-%00%%%ssq.o..%%%%%stt0%o%&.%%0%..%90%%..%50%#%.-%0%%tw",
"%%%%00%%-&;%%%%0stts%%%%000%%%%%%o..o%%00%.%%#%..%%00%%% .%%%0y0",
"%0%%%&%-O.%#%%%.+o....%06%%%%%%%%8%%%%%%0%-s%%..%%%%0%%%%.-0%0s%",
"%0%008%%+..% ....%#..+%-%0&%%%#%%08%%0s%%%st%%.&%0%%%%q%%%00#0%#",
"q%%is-%%080%.%....%..%%0%q0%%%%%0&09%%6u0%t0%*..%00%%0s-&000%%#%",
"%%%%%%%00%%X%-%%%....%00-%0%%%0%%%%%%*%ts0i0%%%.%%00-0tp%0%%....",
"wts%%%#%%%%+q00%%%.%%%0s..0%%00%t0%%q0%%s00%ss0..%-0%0tt%%%%%*%%",
"tass&ssrts%+.%00;%o0%%s%%%&%s80#ty00%is0-0000%%% %%%%%0t%6sts00%",
"0ss8&00s.%%..-%00%.00#.+--%%ss%%ss0$%%ys00%0%%%+.%%%q00s0ses0%%%",
".0s.+0s .-#%..%%%%%0s&#%ssts-%%%s0%%#%%%80%%%o..&00stts00800%%.+",
"%&468-..ss0%#.%%%%%%ss%swt0%%&%%%0%%..-%%0%%#-%+%%%%%080. %%.o.&",
"%sts%%%s00%q..%s#-%=%#-st%.sa00%%s%%..o%%%&.%#%%..%%%%....&%%%0%",
"4s4-%%%%%%%%;.-ss%#0stt0%%swtts%0s-..%..#%...%8%%+o%% .%0..%-%0%",
"%%%444#%%44%.<<<<<<<<<<s%-a0ss#.&%&o%0%....%%%00%%o...-00%..%%& ",
"%%24&%%%%43<<<<<<,<<<<<1jjjjp&%o%%;.%0%#%o0%%%-0%%%..%000&%.%-%o",
"%#0%%%08%&<<<><<<<<<<<<<<jjjjjhjj%%.%00%%#q%jjjjjjjjjj0%##%.%%+.",
"%#&%o%%0<<<<<fff<<<<<<<<<j<gjfgjjjjjj0%0%%jjjffjjfffjjj--%;%%%.#",
"&%...%%<<<<<<<fdf<<<<<<<<<<<ffjfffjjjjjjjjjjjhj<:jfjffjfj-%00..."
};
