/* XPM */
static char *_434_fc9d6a32acd3e55c0f8d4bf2683949d495578b643c3266a72b98b674e1eb978f[] = {
/* columns rows colors chars-per-pixel */
"64 64 191 2 ",
"   c #020101",
".  c #010A00",
"X  c #090D0D",
"o  c #160203",
"O  c #10100E",
"+  c #131C17",
"@  c #270000",
"#  c #330100",
"$  c #281010",
"%  c #0E2901",
"&  c #132A03",
"*  c #152A0A",
"=  c #163403",
"-  c #1A3205",
";  c #1F3804",
":  c #1B320B",
">  c #17380D",
",  c #1F3113",
"<  c #36260B",
"1  c #382908",
"2  c #233502",
"3  c #233C03",
"4  c #27310C",
"5  c #223A0B",
"6  c #353403",
"7  c #222413",
"8  c #22251F",
"9  c #382913",
"0  c #253114",
"q  c #223C13",
"w  c #2D3816",
"e  c #29391B",
"r  c #333410",
"t  c #241527",
"y  c #341C27",
"u  c #312222",
"i  c #302F27",
"p  c #353733",
"a  c #450303",
"s  c #431508",
"d  c #521F04",
"f  c #561314",
"g  c #76151C",
"h  c #462807",
"j  c #40300D",
"k  c #4E2314",
"l  c #53201F",
"z  c #443414",
"x  c #663319",
"c  c #691822",
"v  c #4A3820",
"b  c #533925",
"n  c #4D2B32",
"m  c #4A3335",
"M  c #692521",
"N  c #7A2322",
"B  c #7E2A2E",
"V  c #673424",
"C  c #783121",
"Z  c #7B382C",
"A  c #18410E",
"S  c #254005",
"D  c #2C4206",
"F  c #2F4903",
"G  c #27400C",
"H  c #2E4A0C",
"J  c #35500E",
"K  c #2A4214",
"L  c #294A15",
"P  c #2D431C",
"I  c #284B1C",
"U  c #334712",
"Y  c #314A15",
"T  c #36431E",
"R  c #354C1F",
"E  c #375114",
"W  c #35511E",
"Q  c #304424",
"!  c #364B24",
"~  c #395224",
"^  c #3D542D",
"/  c #384432",
"(  c #444314",
")  c #4A4A24",
"_  c #534021",
"`  c #445D22",
"'  c #455E2A",
"]  c #444238",
"[  c #6E4128",
"{  c #436422",
"}  c #4A6321",
"|  c #4A6428",
" . c #4D692B",
".. c #536623",
"X. c #506A28",
"o. c #4B6331",
"O. c #436930",
"+. c #546B32",
"@. c #506638",
"#. c #546A3C",
"$. c #4D783A",
"%. c #557330",
"&. c #5A7331",
"*. c #5B7439",
"=. c #676E38",
"-. c #627835",
";. c #3D3A40",
":. c #454546",
">. c #574445",
",. c #585244",
"<. c #4D4F50",
"1. c #565555",
"2. c #6F4C48",
"3. c #7A4841",
"4. c #665554",
"5. c #5C7540",
"6. c #5E7B40",
"7. c #637B43",
"8. c #7C6857",
"9. c #5D5C61",
"0. c #695E63",
"q. c #6C6668",
"w. c #767070",
"e. c #881B19",
"r. c #9D1522",
"t. c #AB1720",
"y. c #A41E25",
"u. c #AA1A26",
"i. c #B31729",
"p. c #B31C28",
"a. c #B41F30",
"s. c #892724",
"d. c #8C2925",
"f. c #88252E",
"g. c #992223",
"h. c #9B2129",
"j. c #96282D",
"k. c #873024",
"l. c #9C332A",
"z. c #992532",
"x. c #883331",
"c. c #983436",
"v. c #A82224",
"b. c #AC2A2D",
"n. c #A52130",
"m. c #B52730",
"M. c #BB2435",
"N. c #A83337",
"B. c #A53F38",
"V. c #B53235",
"C. c #BE353B",
"Z. c #C52435",
"A. c #CA3336",
"S. c #C43539",
"D. c #CE3039",
"F. c #D1383D",
"G. c #914C37",
"H. c #993544",
"J. c #AB2D42",
"K. c #B93541",
"L. c #C73541",
"P. c #935249",
"I. c #9A5B5D",
"U. c #B5494B",
"Y. c #886858",
"T. c #9A645C",
"R. c #A7635B",
"E. c #AD7757",
"W. c #A55D61",
"Q. c #996667",
"!. c #95696B",
"~. c #8E7B74",
"^. c #A86F74",
"/. c #C94547",
"(. c #D74C55",
"). c #E35D61",
"_. c #D4696E",
"`. c #E66568",
"'. c #7F8778",
"]. c #89857C",
"[. c #918579",
"{. c #9D7E83",
"}. c #8A8684",
"|. c #958D89",
" X c #9B9A9B",
".X c #B99E9A",
"XX c #B2A39A",
"oX c #AE9FA3",
"OX c #B2A3A5",
"+X c #D69E9F",
"@X c #DDB7B9",
/* pixels */
": - 0 5 % q 0 4 5 E { $.O.; } ( 2 Y +.} 3 3 ; Y W 5 : q Q e < < s k j s d f h h ; O.O.$.O.; ..F D { { { 3 3 2 ! P K 5 > L > : ; ",
"q G 5 0 : > q 0 4 3 3 O.+.E S = ~ Y 5 ! Y 5 - W P 4 z i , q 7 8.Y.Y.8.Y.Y.Y.Y.8.! q G @.#.U 6 D } ..%.-.+.3 ; P P 4 : : K = - A ",
"; 5 L q A > 4 : 4 5 5 5 5 : ; K > q G K = > G : e 9 s 8.8.'.'.].}.~.].}.}.].~.].].w.[.[.!.Y.2.P.d h S 3 5 4 q K K , * 4 w 0 q q ",
"W U ~ q I A > > 5 & q : : q K > , A = : L ! A w 9 l W.W.[.XX|. X X X X X|.}.}.].}.|.{.{.^.^._.{.P.G._ _ v 1 4 : - ; 4 w 0 q q K ",
"O.P 5 2 K ~ S A q : > > > & * * , = > q ; W U 1 ~.Q.I.Q..XXXXXXXoXoXOXOXoXoXoXOXOXOXoX.X@X@X@X+X^.U.H.f.f.f 9 4 = 5 q T 5 - q ! ",
"Y 5 5 4 H L 5 U z _ < < 9 z 9 u < 1 r 9 r z V R.R.P.B x.I.I.T.Q.!.!.!.!.!.!.!.!.!.!.Q.Q.^.Q.^.W.f.l.n.u.y.s.C d 1 4 r ( R 5 ; R ",
": K U Y L ; ( x g N.N.N.c.G.c.c.c.B.U.K.B.U.B.C.v.g.r.g.d.f.z.z.f.x.x.f.c.j.z.c.c.l.z.z.N.N.n.K.N.J.m.L.p.b.b.l.C k h ( W G 2 5 ",
"5 4 4 3 ( 1 G.B.V.S.L.L.U._._.).`.(.S.S.A.A.A.D.Z.S.m.V.N.V.L.A.V.B.N.V.C.m./.`.`.`.(.).(.K.K._.L.K.L.L.K.M.L.M.V.l.C h U 3 5 U ",
"~ : 6 j d G.V.L.F.V.j.x.Z x.c./.L.(.D.D.Z.A.A.A.A.S.S.C.C.S.D.D.S.S.C.C.S.S.S./././.B.F.L.K.K.U.j.N N k.r.K.L.S.A.V.g.x.h 3 W L ",
"! ( h P.B.V.L.a.r.s.a o o @ M x.J.M.Z.Z.Z.A.F.S.S.S.K.C.S.S.D.D.S.M.m.u.i.i.i.y.g.v.v.v.m.K._.H.f # o o M d.J.S.A././.d.j W L A ",
"Q v V h.A.D.K.z.c s k m u o 2.f g z.a.Z.u.p.t.t.u.g.y.y.h.v.y.t.u.u.y.u.v.y.u.u.v.r.t.u.u.z.N f k X ] $ b # g K.D.Z.J.x.h T ; A ",
"5 z M e.a.M.n.g # :.  ;.;.+   m # B r.J.p.u.t.v.v.v.y.y.y.y.y.y.t.u.u.n.p.u.t.t.r.v.u.y.z.H.@ >.o O ,.u 7 4.# H.K.K.n.x.1 5 G > ",
"4 1 h f j.j.j.l u ;.+ <.;.<.t m $ M z.M.a.i.u.t.r.v.p.i.i.t.t.p.u.i.m.m.a.i.p.p.m.p.p.m.b.M $ 8 X y 1.1.t 4.f M J.J.c.[ 9 3 r E ",
"! r _ # g z.B f >.8 :.1.w.w.1.m ] # j.u.a.m.M.b.b.b.m.M.Z.M.m.m.m.m.m.m.a.a.M.m.t.m.b.b.j.@ 4.8 m q.0.q.1.9 2.f f.j.C d 6 S 6 =.",
"- : 7 s g z.f.f >.:.<.q.4.9.>.>.b # N r.n.n.b.m.b.b.m.m.p.m.b.b.b.b.v.u.u.u.y.v.v.v.e.g.B @ 1.:.<.q.9.q.2.m 4.9 M V _ 6 J %.-.-.",
"> 5 4 1 C c f.# p p O >.>.4.8 8 7 b M N C N k.d.k.d.d.s.d.d.k.k.C k.d.d.d.d.d.C k.k.d.C k 8.8 8 O 8 1.1.9 ] u ) b j 6 ( } } -.F ",
"5 R 5 4 1 j j u + ] . p p . . ]   0 < < v _ < < < j < < < < j h z z 1 z 1 b z 1 1 z ( ) ( 4 . /   + :.+ 7 ,.  5.0 4 3  .o.X. .; ",
"G K 2 5 G ~ Q ) e 7 7 / p   <.p 0 * q K * K W : q : 0 , q 4 5 5 5 R 5 5 H Y Y ; 3 S 6 +.' q Q / p O :.+ ] . #.e ! K G U Y G 3 5 ",
"G G G U 5 5 q / Q i X 0 7 + 0 8 : q q - 5 > : G & 5 5 q : q 5 3 ! 2 G U W 3 U 3 3 3 5 5 Q ! ! 0 X 8 8 8 e T R Y ; G S = 3 5 5 5 ",
"G 5 3 ! E q 5 q : > K 0 P 0 , , e K ! 5 3 ; Y 3 2 5 U ! K q q w 3 ; ; 5 5 2 #.*.+. .q 5 q : 5 q e 0 0 q : 5 : 3 ; % = A 5 5 5 5 ",
"L A ; q T G q - : : - : ! : K K q 5 P Y U 2  .3 3 Y K 3 5 - ~ 3 *.E 2 = > #.G 5.+.Y ; ; K : 5 ~ T ! w q +.5 = 2 5 G E.E.E.E.E.E.",
"R ! G 5 : - A 5 > 2 5 3 o.Y 5 - 5 5 5 3 E 3 | &.; E 3 5 3 5 R 2 *. .E S ' E X. .U 2 > ; 5 - q & R ' U 2 ' 5.3 3 H E.E.E.3.3.3.E.",
"R R : G Y W L 5 L o.~ % ~ Y - #.P q - 3 S 2 E #.3 3 U #.! U - 5 | X.{ J S ' @.; K - E L Y 5 = q - D U 5 #.&.| E.3.E.3.3.E.3.E.y ",
"- I 5 ! Y W 2 5 = W | W = = Y K 5 5 U @.*.*.H J 3 U 5.Y 5 - w - o.H  .H 3 3 5 5 ; #.Y G ; - q = w = S S = E E.E.E.3.3.3.3.3.E.y ",
"5 5 2 5 5 5 2 5 3 5 5 W R = - 5 w T Y G D *.*.H 3 o.o.K 5 - 5 5 Y E H H ; ; 5 q : q : ; - K : q - S : o.E.E.3.3.3.3.3.3.3.3.y n ",
"5 | G 5 5 3 5 5 : 5 - - : 5 : - & 5 K 5 5 E ' E 2 G 5 5 q q q 5 3 K ~ 3 ; S A 0 K : : - - > * : - ; n y y n n 3.3.t t t 3.3.n E.",
"w o.5 U ! - K G R K : - 4 & 5 ~ : - 5 ; 5 ; G ; 5 - - q q : q : ` H = T q ; : o.o.P 5 , : , = : G X X X y n n n 3.3.3.3.3.3.3.3.",
"5 G 4 q ! Y ; 5 5 R ~ P q q q R Q : - - 5 4 5 ; 5 q q q : 0 : 5 = E 5 ' P P q 5 W R q 5 : q : R : y X y y y n n 3.n n 3.3.3.3.3.",
"3 ; 5 5 5 ! > : : 5 q : 5 5 q P ! 5 : 5 5 - 5 w & 0 * : , , - - 5 : : T ! : 5 ; 2 P R q 0 : - R ~ y t y y y y n n n 3.3.3.3.3.3.",
"5 5 q A - 5 K > - : 5 q 5 5 5 5 ! q 5 4 5 - * : : 4 * q ! : - : 5 5 q q Q ! q 5 5 D q : K : 5 5 W y t y y y y n n n 3.3.3.3.3.3.",
"0 > > q > : 5 K 5 R W L : 5 Y 5 5 - 5 U ~ 5 5 5 q 0 q / ! q - q 5 5 5 5 - ! 5 K 5 3 - 5 ; 5 P q - y t y y y y n n 3.3.n 3.3.3.3.",
": K > - - q : G 2 5 L o.R 3 Y Y 3 3 W ~ ' 5 q 5 ! q q Q Q : , - q 0 5 - - 5 5 ~ ; G 3 X.- 5 R ! S y t t t y y y n n n n 3.3.3.3.",
": A 5 : = 5 5 5 3  . .*.} A X.H S `  .+.; S G L K q 5 4 Q e 0 : 4 ; : : : > 5 : S o.' *. .; o.E 3 } y y y y y y y y n n n 3.n n ",
"P P , 4 0 5 > R 3 3 L  .&.H ; S  .X.X.%. .; ; R ~ & K q , : : q , ! K K = : q R U G S | *.R G = X.} &.y y y y y y y y y y n n 3.",
"P I 5 5 & - 5 Y R 5 % 3 ;  .G K F %.&.G = & , ! q q - > K ; 3 S W R % > : > ; 5 - = = = ; ; 2 G 5 2 G ; 5 3 5 : 0 , q y y y y n ",
"R R q : q A q G ; ; 3 U Y W U L  .{ G = 5 : : e q 5 G ; ; S K ' R R : : : 5 : ; - R G - = : > K : ! : q 5 - ~ 0 5 5 q : : 4 y y ",
"R Y 5 - q q K 5 5 q 5.5.o.= ! : = > = , : , = K ! U P } 3 2 -.&.U T q - : 5 5 P : ~ K K , : , = q q T q 5  .U Y 5 : 5 5 q q 5 y ",
"U : - q R R q 5 G o.o.P K q : q K K Q ! ! q > - - Y H E ..; ; ..L 5 - = q q q ! q K P P > : > P 5 : #.5 - 7.> 2 5 - & 5 : 5 5 ~ ",
"5 3 G L ! P 5 5 - > q 5 : G : q > L L 3 5 - 2 = 3 5 G | o.5 q 5 G L ; Y K 5 R R 5 : e > > q : , ; Y ' +.E H H D 2 5 5 5 5 5 - 5 ",
"3 ; 5 5 5 5 : = G Y P E S - G ; H J G = G 5 K W R = 5 ; 5 - q 5 2 J 2 O.W 5 P 5 5 5 ; q - 5 ! @.5.} F X.H F J } #.#.! 5 & q q ! ",
"3 5 P 5 K : 5 = 5 ; ; W K S G ; S = ; G : ! R R T : Y 5 ; L -.; S ; 3 *.I ; 2 5 G 5 ; W - G q ; H -.} F J J ` -.E 3 5 5 5 0 ! Q ",
"@.U ~ 5 = ! R = > G 3 ; J ; ; &.*.*.' G 5 q , ! ~ q 5 ; E *.&.3  .} J %.3 3 = Y Y 5 ; o.K G ~ ; S S X...F 3  .Y 2 5 ; : : q P q ",
"O.~ - K ! ! 5 - ; 5.H ; ; ;  .` %.{ E G ; - > = K R 5 3 *.' 3 3 | %.| H Y 5.6. .; ; G o.H ~ - G 5 3 R U E ; G 5 5 q - * K 5 4 q ",
": o.5 - 0 = = 5 G *.*.Y S X.H  .O.E ; 3 ~ R 5 : G 2 G ;  .Y 2 5 3 J *.J S ; 5 - S ; 3 ; W W - U P q = 5 q 5 & q q R w 5 5 5 - G ",
"3 > G q > : - & G '  .o.3 3 K  .5 5 : 5 Y ; = K ' X. .; S 3 = S ; ; W U = 5 : ; ; = K +.; ; #.R K 0 q q 5 w : 0 : R ! q 3 5 3 Y ",
"5.K G R K - 5 : = 2 ! o.G A +. .5 3 S 5 = -  .7.*.} } 3 3 } 7.+.*.3 - 5 G - : > = : K E o.Y o.> : 5 q 0 ~ q 0 - : q ! R ; ; J *.",
"; ; 5 Y P ; K 5 = 5 5 ! ~ 2 - ; {  .K ; 2 - = : G = S ; X.&.&.~ 5 - P = : : K ! 5 : = - ! ~ ; q : : : K R 5 K 5 : : 5 U 3 S +.-.",
"G & 5 G ! ~ : > 5 K : - 5 q 5 Y O.*.*.| 3 5 > 5 ! Y Y 3 5 5 2 ; ; > - : , q : Q ! 5 - ; 5 = 5 = 2 2 3 ~ R - 0 q & q 5 5 3 H -.F ",
"S K D 5 = q 5 > ; : = K , P , * : > = : 5 & 5 R L 5 5 5 5 : G ; 5 P 5 q ; - q ; U ; S +.5 > , : 5 5 5 q P q q 0 0 : q R 5 U o.3 ",
"3 W 3 L R ~ : : : 5 0 q > : : > = , q q % - K 5 5 U - ; K q q 5 5 R I ; q ! o.3 A ;  .%.3 - : q 5 R 5 ; 5 w ~ q q 5 P R 2 U q ; ",
"J ; 3 o.o.3 q > P P R > q : : : : : e : : > : ~ > ! ~ 5 ; > 5 q U G R R : : ~  .J D %.W 3 5 : = 5 ~ Y q 5 5  .3 3 ~ Y R 3 5 5 5 ",
"S S ; G 5 3 3 Y ! G 5 ; 5 5 q > q , : : : G W Y : K K K ; 2 ~ : ; ; S G - G > 5.{ J  .S G G > : q q U U 2 E 7.` 2 H ; G 2 & - - ",
"*.*.%.3 ; ; 5 3 G > : ; P ! R A q : 0 > q 5 I | G - ! = G U R 5 %.E G ; ~ Y ; 2 } J H Y  .' ! : 4 : K Y 3 J &.&.3 ; S 5 2 > 5 q ",
"*.} W X.S | o.5.5.' U = - 5 Y E q : = ! : 3 o.3 3 - ; S } W L ; %.7.G L = o.@.Y S K H J Y 5 K : : 5 5 2 3 ; F &.; F X.5.o.! R q ",
"J {  .H 3 Y E ' - - - 3 : G q P R q : ! R 5 : = 3 ; ; 5 ' o.G ; X.` E H 5 3 5.@.Y ! 5 L S - 5 * * q 5 5 H E H ..J ....+.U - q q ",
"= J } ; = U  .; 3 ; 5 5 - ; : 5 : G 3 U | G = G  . .+.o.5 > 3 3  .H S ; 5 5 5 5 R U 5 3 5 : 5 : : R R @.*.*.| H F E E Y 5 q & 0 ",
"3 : 5 L Y 5 - - @.o.! > : - q 5 - L 3 ; X.o.;  .*.%.L ; D A ; S ; L 3 5 3 % q 5 5 ! K - 5 > 5 ; q 5 q 5 ; U ! Y ; 2 5 5 5 & : q ",
"3 o.-. .G - G o.P ! > P = = 5 @.q = 2 3 S ; 2  .*.2 =  .| U E : G o.5 : : - 5 5 > K , = q q q : * ; 5 5 q q 5 - : = q 5 5 5 T q ",
"U ` Y ; ; L - ; : K q K 5 - 5  .' ; G Y ` *.+.E S ;  .6.+.*.} ; Y  .5 & : q : : 5 : : : : q ! q 5 3 - - q - * q Q & , : q q R : ",
": > 5 5 G K : K 5 G K : : * e o.o.S L 5.7.+.{  .; ; } R X. .5 - 5 q 5 ; q P : 5 : : 5 q 5 q P R - 5 4 : : : e ! ^ 0 : , q q q : ",
"K q q K q 5 : : q K K : = ; G o.5 G 3 R ' %.+.{ E 5 S Y o.3 5 : > : 5 : q R q 5 5 = K q 5 5 5 ! 3 5 5 - - 5 ! P Q q , 4 q : : : ",
"5 ; P K 5 5 ! ! q G K 5 : - > ; ; ; : Y : 3 S 3 = ; 5 G G > : - q q K > - W K 5 q ; ~ : 5 5 5 5 T 2 5 5 q 5 R q 4 q ; - q 4 ; 0 ",
"K 5 : : - 5 > P 5 : q 5 = A ~ 2 K = 5 | | : 5 3 3 3 ; - q > - > 0 q 5 = - Y Y K 3 G ! Y - 5 R 3 K 5 5 ' o.5 5 ; 5 5 > 5 w : > 0 ",
": 5 - G : q 5 ~ G : 4  .= ; U ! ; K K Y @.3 > 5 Y S 5 ! / : : > 0 e 0 : - 5 3 W > ; ; #.- 2 R Y ; q U ! o.3 5 ; R 2 ; R R : = 5 "
};
