/* XPM */
static char *_561_188ddd60e49e26a950f35c9ee9741aa16cebb1d4297571e4989e01670013086e[] = {
/* columns rows colors chars-per-pixel */
"64 64 117 2 ",
"   c black",
".  c #010A00",
"X  c #081103",
"o  c #10100E",
"O  c #090A14",
"+  c #151E12",
"@  c #10191C",
"#  c #22101B",
"$  c #0E2901",
"%  c #132A03",
"&  c #152A0A",
"*  c #163403",
"=  c #1A3205",
"-  c #1F3804",
";  c #1B320B",
":  c #17380D",
">  c #1F3113",
",  c #3A2905",
"<  c #36260B",
"1  c #392F0C",
"2  c #233502",
"3  c #233C03",
"4  c #27310C",
"5  c #223A0B",
"6  c #353403",
"7  c #222413",
"8  c #22251F",
"9  c #382913",
"0  c #253114",
"q  c #223C13",
"w  c #2E3915",
"e  c #29391B",
"r  c #333410",
"t  c #241527",
"y  c #341C27",
"u  c #27282C",
"i  c #312222",
"p  c #353633",
"a  c #450303",
"s  c #431508",
"d  c #521E04",
"f  c #561310",
"g  c #40300D",
"h  c #53201F",
"j  c #533925",
"k  c #4D2B32",
"l  c #4B3235",
"z  c #692521",
"x  c #673424",
"c  c #783121",
"v  c #18410E",
"b  c #254005",
"n  c #2C4206",
"m  c #2F4903",
"M  c #27400C",
"N  c #2E4A0C",
"B  c #35500E",
"V  c #2A4214",
"C  c #294A15",
"Z  c #2D431C",
"A  c #284B1C",
"S  c #334712",
"D  c #314A15",
"F  c #36431E",
"G  c #344C1F",
"H  c #375114",
"J  c #35511E",
"K  c #304424",
"L  c #364B24",
"P  c #395224",
"I  c #3D542D",
"U  c #384432",
"Y  c #444314",
"T  c #445D22",
"R  c #455E2B",
"E  c #55522A",
"W  c #444238",
"Q  c #6E4128",
"!  c #436422",
"~  c #4A6321",
"^  c #4A6428",
"/  c #4D692B",
"(  c #536623",
")  c #506A28",
"_  c #4B6331",
"`  c #436930",
"'  c #536B32",
"]  c #506638",
"[  c #546A3C",
"{  c #557330",
"}  c #5A7331",
"|  c #5B7439",
" . c #676E38",
".. c #627835",
"X. c #454546",
"o. c #595244",
"O. c #4D4F51",
"+. c #565555",
"@. c #694744",
"#. c #7A4841",
"$. c #665554",
"%. c #7A5751",
"&. c #5C7540",
"*. c #5E7B40",
"=. c #637B43",
"-. c #5D5D61",
";. c #695E63",
":. c #6C6668",
">. c #88252E",
",. c #96282D",
"<. c #883331",
"1. c #983436",
"2. c #A52130",
"3. c #993544",
"4. c #AB2D43",
"5. c #B93541",
"6. c #AD7757",
/* pixels */
"; = 0 5 % k k k k k k k k #.#.#.#.#.#.#.#.#.k k k k k k #.#.#.#.6.6.6.6.6.6.6.6.6.6.6.6.6.6.6.k y 6.#.#.#.#.#.6.6.6.: : C M ; * ",
"q M 5 0 5 k k k k k k k k #.#.#.#.k k #.#.#.k k k k k k k k #.6.6.#.#.#.#.6.6.6.6.6.6.6.6.6.6.6.k y #.#.#.#.#.#.#.#.6.6.q = = : ",
"- 5 C q k k k k k #.k k k k #.#.k k #.#.#.k k k k k k k k k k #.#.#.#.#.6.6.6.6.6.6.6.6.6.#.6.6.6.k #.#.t t t #.#.k k y i k q q ",
"P S P q k k k k k k #.#.#.#.#.#.#.#.#.#.#.#.#.#.#.k k k #.#.k #.#.#.#.#.6.#.#.#.6.6.6.6.#.6.6.#.#.#.#.#.#.#.#.#.k k k y O O O V ",
"` Z 5 k k k k k k #.#.#.#.#.#.#.#.#.#.#.#.#.#.#.#.k k k k #.#.#.#.#.#.#.#.#.#.6.6.#.#.#.#.6.6.#.#.#.#.#.#.k k #.k k y y y O y L ",
"C - 5 k k k k k #.#.#.#.k k k #.#.#.k k #.#.#.k k k k k k #.#.#.#.#.#.#.#.#.#.#.6.6.#.#.#.#.6.6.#.#.#.#.#.#.k k k y y y y t y G ",
"5 q k k k k k k k k k k k #.#.#.#.k k #.#.#.#.k #.k k k #.#.#.#.#.#.#.#.#.#.#.#.6.#.#.#.#.#.#.#.#.#.#.#.#.#.k k k y y y y t y 5 ",
"5 4 k k k k k k k k k k #.#.#.#.#.#.#.#.#.#.#.#.#.k k #.#.k #.#.#.#.#.#.#.#.#.#.#.#.#.#.#.#.#.#.#.#.#.#.k #.#.k k y y y y t y S ",
"L k k k y y k k k k k #.#.#.#.#.#.#.#.3.%.@.#.#.k k k k k k #.#.#.#.#.#.#.#.#.#.#.#.#.#.#.#.#.#.#.#.#.#.k k k k y y y t t t y C ",
"L y k y y k k k k k #.#.#.k #.#.#.#.k Q #.#.#.#.#.#.k k #.#.#.#.#.#.#.#.#.#.#.#.#.#.#.#.#.#.#.#.k k #.k k k y y y y y y y y C v ",
"F y y y k k k k k k #.#.k #.#.#.#.k k #.#.#.l k #.k k k k k #.#.#.#.#.#.#.#.#.#.#.#.#.#.#.k #.#.#.k k y y y y y y y y y y F = v ",
"5 y y y k y y k k k k k k #.#.#.k k #.#.#.#.#.k k k k k k #.#.#.#.#.#.#.#.#.#.#.#.#.#.#.#.k #.k k y y y y $.a 3.5.5.2.<.1 5 M : ",
"5 1 y y y y y k k k k k k #.#.#.#.#.#.#.#.#.#.#.#.k k k k 3.%.#.#.#.#.#.#.#.3.%.#.#.k #.#.#.k k y y +.+.# $.h z 4.4.1.Q 1 3 r H ",
"L r j y y y y k y y k k #.#.#.#.#.#.#.#.#.#.#.#.k k k #.Q @.l @.#.#.#.#.#.#.Q @.l #.#.k #.k k k y :.;.:.+.i @.f >.,.c d 6 b 6  .",
"; ; 7 s y y k y y k k #.#.#.k #.k k #.k k #.#.k k y k #.k k l %.#.#.Q @.#.l Q %.l l #.k k k k X.O.:.-.:.@.l $.< z x j 6 B { ....",
": 5 4 , c y y y y k #.#.#.k k k k #.#.k k #.k k y y k k k k #.3.#.k 3.%.#.l l 3.Q l k k k %.u 8 o u +.+.9 W i E j g 6 Y ~ ~ ..m ",
"5 G 5 4 1 y y y y k k k k k k k k #.#.k k k k k y y k y k k Q k k k #.#.#.#.k #.#.k k k Y 4 . U   @ X.@ 7 o.  &.7 4 3 / / ' / - ",
"M V 2 5 5 P y y y k k k k k k k k #.k k y k k y y y y y k k k k k #.#.k #.k k k k k k ' _ q K U p o X.+ W . [ Z L C M S D 5 3 5 ",
"M M M S w 5 y y y y k k y k k y k k k y y y y y y y y y y k y k k k k k #.k k k O O M 5 Z L L 0 X 8 8 7 e F G D 3 M b * 3 5 5 5 ",
"M 5 3 G D q 5 y y y k y y k k y y y y y y y y - 2 5 y y y y y y y k k k k k t k O O q 5 q ; 5 q e 0 0 q ; 5 ; - = % * v 5 5 5 5 ",
"C 5 : M D 5 q t y y y y k k y y q 5 G D D 2 / 3 3 D V 5 5 = t t t y y k k k O O O O 3 2 V ; 5 L F L w q ] 5 = - M 5 M 5 3 ; V 5 ",
"G L M 5 5 * t t y y y t t t 5 = 4 5 5 3 H - ^ } 2 H 3 M 2 5 G t y y k k t O O O O O O - 5 = q % L R S 2 R | b 3 N R P 3 5 L L 0 ",
"G G ; 5 D J t y y y t t P D * [ Z q = 3 3 3 D ' 3 3 S [ L D t y y y k t t O O O O O O O D 5 * q = n D 5 ' } ^ * / D 5 3 F D q 5 ",
"= A 5 G D P t y t t t O * * D w 5 5 S ] | | N H 3 S &.D 5 = t y k k t t 3 - O O O O O O O = q = w = b b * H ^ 2 / * 3 : - 5 q q ",
"- 5 - : 5 5 t t t O O O G * * 5 q F V M n | | S 3 _ _ V 5 t t y k t t N 3 - 5 q O O O O O : ; q * b - ! - b N H * / &.R ] = M ; ",
"M _ M 5 5 3 5 t t t O O ; 5 5 = % 5 V 5 5 H R H 2 M : - q t t t t t J b - M 5 q Z ; O O O O ; : = - _ | | / H 3 / *.^ b 2 5 L M ",
"w / 5 S L = v t t t t O O % 5 L ; = 5 2 3 - 5 3 5 = ; w q t t t t t = L q ; ; _ R G O O O O = ; M - b C ` { [ N / J M b 3 D G - ",
"5 M 4 w L D 5 5 t t t O O O q L K ; = ; 5 4 5 5 5 q q q ; t t t * H 5 I Z A > 5 P A V O O O O L - M * b Z R ) H _ N - J D G 5 = ",
"3 ; : q 5 L : ; 5 4 O O O O q Z P 5 ; 5 5 = 5 q % w & ; > t t t 5 5 : F L ; 5 5 3 S K q O O O L J * : 3 = 3 * 5 3 2 3 = 5 V 5 5 ",
"5 ; M : = 5 V 5 = ; 5 q 5 5 5 5 G q 5 5 5 = % ; ; ; & q K 5 * ; 5 5 q q L G 5 5 5 n q ; w ; 5 5 J J 5 = 5 M 5 3 2 5 V 5 5 5 ; ; ",
"q V & V : & M Z 5 G J C ; 5 D 5 5 = 5 S L 5 5 4 q 0 q U L q * q ; 5 5 5 = L 5 V 5 3 = 5 - 5 D q = M - ' _ 2 3 5 5 = ; q q ; ; q ",
"; M : * = V * v 3 : D _ J 3 D D 3 3 P G _ 5 q 5 K q q L K ; 0 = w 0 5 = = 5 5 L = M 3 ) * 5 G L M b M H _ 3 M = L V 5 L e > 0 & ",
"= q 5 ; * 5 5 5 3 / / | ~ v ) N b T ) ) - b M C D q 5 : K e 0 ; ; 5 : = ; ; 5 ; b / R &./ - ] H b ~ ~ ~ - 3 3 S D 5 q q K q & : ",
"Z Z q ; > 5 : G 2 b C ^ } N - b ) ) ] } ^ - - G L % V w > ; ; q 5 G V w * ; M G D M 3 ^ | D M = ) ~ } | ( 2 = L L q 0 & 0 > 0 q ",
"Z A 5 ; = % 5 D D M $ b 3 ^ M V m { } v = * > L q q = : V - 3 M G G $ : & 5 : 5 = * * * = 3 5 M 5 2 M - M 3 5 ; 0 0 q q q 5 * 5 ",
"Z G V ; : V q 5 - - 2 S D P D C / ! M * 5 ; ; e q 5 M - - 3 V T L G : ; ; 5 = 5 = G M * = ; : 5 ; G ; q 5 = L 0 - : q ; 4 5 q S ",
"L D 5 * q V V 5 5 > *.&._ * L ; = : * > ; > : V G D V ~ 3 2 ..| S F q = ; 5 ; G ; L V V > ; > ; q q D q 5 ] S S 5 ; - 5 q V 5 D ",
"D 5 * w G F q 5 M ] _ Z V q & V M V K L L q ; * = G N H ( - - ( D 5 * = q q V L w q Z Z : ; : Z 5 & [ 5 = =.5 3 5 = % 4 ; 5 5 L ",
"5 3 v D L A 5 5 * 5 q v ; M 5 5 v C D - 5 * 2 * 3 5 5 T ^ 5 5 5 M C = D V 5 G A 5 5 q : : q ; > 3 H R ] H N N n 3 5 5 5 5 5 = 5 ",
"3 2 5 5 5 5 ; = 5 D Z H 3 = M = N H M * M M w J G = 5 3 5 = q 5 3 B 3 ` J ; F 5 M 5 = q = 5 L _ | ~ m ) N m B T [ ] P 5 % q q L ",
"= M D 5 q ; 5 = 5 2 - P V v 5 3 b * ; M ; L L A D 5 G : 3 D =.- 3 - 3 | C - - 5 M M - P = 5 q 5 N ..~ m B B T ..H 3 5 5 5 0 L K ",
"[ S P 5 * L L = : M b - B 3 - } | | ! M 5 M 0 L L q ; 3 H | } 3 / ~ B } 3 b * D D 5 - ^ V M P 3 b 3 ) ( m 3 ) D 3 5 5 ; ; q F q ",
"` P = q L L 5 = - &.N - - - ) R { ! H M 2 = : * V G 5 3 | R 3 3 ^ { ^ N S &.*./ - - V ^ N P * M 5 3 G S H - 5 5 5 q ; & V 5 4 5 ",
"= _ 5 = 5 : * 5 M | | D 3 / N / ` H - 2 P L : - M 2 M - ^ D 2 5 - B | B b = 5 * b - - ; J G * D F q * 5 q 5 * q q F q 5 5 5 = M ",
"3 : M q ; ; = = M R / _ - - V / 5 5 5 : D - * M ~ ' ^ - 3 b * b - - J S = 5 = 3 - : V ' - - ] G V > q q 5 q ; 0 ; G L q - 5 3 H ",
"&.V M J V = ; ; = 3 L _ M M ' / 5 3 b 5 = = / =.| ~ ~ 3 b ~ =.] | b = v M = : > = * V H _ C _ : ; 5 q 0 L q 0 ; ; q G G - - H | ",
"= 3 5 D Z ; M 5 = : - P P 3 = - ! / V 3 = * = ; 5 = M - ) } | P - - Z & ; ; V L 5 & - = P L - V 5 = : D L 5 S ; ; 5 5 D 3 M ) ..",
"5 * - M L P ; q 5 V ; * ; V 5 D ` | | ^ - - V 5 G D D 3 5 5 2 - - : * ; > q ; K G 5 = - 5 - 5 = 2 2 3 L F = 0 q % q 5 5 - N ..m ",
"b V b 5 * q 5 q * ; * q q e > : ; : * = 4 = 5 G D 5 5 5 5 5 M 2 5 F 5 5 5 = v - D - b ) - > > ; ; 5 5 q F q q 0 > : q G 5 S ^ 3 ",
"3 P 3 D L P ; : ; 5 > q ; ; ; ; & q q q $ * V 5 5 D = = : : q 5 5 G A 5 q L _ - b - ^ { : * ; q 5 G 5 = 5 q P w q 5 F G - D 5 5 ",
"B - 3 _ _ 3 5 q Z Z G q q ; ; ; : * e ; ; M : L ; G P M - V ; q D M J G 5 = P _ B b { J n M ; * 5 L S V 5 5 ^ 3 3 P D G 3 5 5 5 ",
"v b - M b - - D G M 5 = 5 5 q : q > & ; ; : J S ; Z V V - 2 P : - - b 5 = 5 5 | ! B / b M M 5 5 5 q S D 3 H =.T 2 N - 5 2 % ; = ",
"} } { 3 - - M 3 M 5 = : Z G G : > ; > q q 5 C / M * L * M S P M { H 5 - P D - - ! B N V ^ _ L ; 5 ; w D 3 B } } 3 - 3 2 2 V : q ",
"| ~ J / b ^ _ &.&.R S * * 5 D J q 5 * P 2 ; _ b - = - b ~ J C - { =.M D : _ ] S M V N H D 5 : ; ; 5 5 2 3 - m } - m ) =._ F F q ",
"B ^ ) N b D H R = = = - = M V Z G q ; G L M ; * b - - 5 R _ M - / T H N 5 2 &._ S J M C M = : ; & q : 5 N H N ( B ( ( ' D = q q ",
"= B ~ - * D ^ = - 3 5 5 - = ; 5 ; 5 3 D R M = 5 ^ / [ / 5 - - - ^ N b - 5 5 5 5 P S 5 3 5 ; 5 ; 4 L G [ | | ^ N m H D D 5 q % q ",
"- 3 M D D 5 = ; ] _ L v ; = q 5 = C - 3 ) ^ 3 / | { N - M b - 3 - D 3 M 3 $ q 5 - A V = 5 > : - q 5 q 5 3 V P D - 2 5 5 5 % ; 5 ",
"3 _ | ^ 5 = 5 ^ G G ; Z * = 5 ] w * - v 3 5 2 ) | - * / ! D H 3 5 / M = ; = : 5 V q > ; V : V - & = 5 5 q q 5 = ; * q 5 5 5 F q ",
"S R S 5 3 C : 5 ; V q e 5 = ; / R - M D T | ] B b - ) *.[ | ~ = V ` 5 % : q 4 ; 5 ; ; ; ; > J > 5 2 = = q = & q K & > ; q q G ; ",
"= : 5 5 5 V ; V 5 q V * 5 ; q _ _ b C &.=.' ! ) - - ^ D ' ^ 5 = M V 5 = q F ; : ; ; 5 q - Z Z G = 5 5 ; : 4 e K I > ; > q q q ; ",
"V 5 V V M : 5 ; q V V ; * = 5 _ M M - J R { ' ! H 5 M D _ - - : : ; 5 ; 5 G q 5 5 = V V 5 5 5 L 3 5 5 = = : L F K q > 4 q : ; ; ",
"5 : F V ; 5 L L 5 V V 5 ; = 5 5 - - = D ; 3 b 3 * - 5 M v * ; ; q q V ; - G V 5 5 : P ; 5 5 5 5 F 3 5 5 w 5 D q ; q - = w ; = 0 ",
"q 5 : ; = 5 V Z 5 ; q 5 - : G 3 M = M ^ R 3 5 3 3 3 - = > V * > q q 5 * * D D V 3 M A Z = 5 G 3 V 5 5 R _ 5 5 2 5 5 : 5 w ; 5 0 ",
"; 5 * 5 ; 5 : L M ; 5 ^ * - S L ; V V D ] ; : 5 D b 5 G U ; ; ; q e 0 ; = 5 3 J : 2 3 [ - 2 G D = w S G _ 5 5 3 G 2 - G J ; = ; "
};
