/* XPM */
static char *_242_6e31ad69e8567f4d1f9d2898511316857ded08b866687cdc31d80253e15e4899[] = {
/* columns rows colors chars-per-pixel */
"64 64 188 2 ",
"   c #020101",
".  c #010A00",
"X  c #160202",
"o  c #081103",
"O  c #10100E",
"+  c #090A14",
"@  c #131C17",
"#  c #270000",
"$  c #330100",
"%  c #281010",
"&  c #0E2901",
"*  c #132A03",
"=  c #152A0A",
"-  c #163403",
";  c #1A3205",
":  c #1F3804",
">  c #1B320B",
",  c #17380D",
"<  c #1F3113",
"1  c #36260B",
"2  c #372908",
"3  c #233502",
"4  c #233C03",
"5  c #27310C",
"6  c #223A0B",
"7  c #353403",
"8  c #222413",
"9  c #22251F",
"0  c #382913",
"q  c #253114",
"w  c #223C13",
"e  c #2C3816",
"r  c #29391B",
"t  c #333410",
"y  c #241527",
"u  c #341C27",
"i  c #312222",
"p  c #302F27",
"a  c #353733",
"s  c #450303",
"d  c #431508",
"f  c #521F04",
"g  c #561315",
"h  c #76151D",
"j  c #462807",
"k  c #40300D",
"l  c #4E2314",
"z  c #53201F",
"x  c #443414",
"c  c #663319",
"v  c #691823",
"b  c #4A3820",
"n  c #533925",
"m  c #4A3335",
"M  c #692521",
"N  c #7A2322",
"B  c #7E2A2E",
"V  c #673424",
"C  c #783121",
"Z  c #7A382C",
"A  c #18410E",
"S  c #254005",
"D  c #2C4206",
"F  c #2F4903",
"G  c #27400C",
"H  c #2E4A0C",
"J  c #35500E",
"K  c #2A4214",
"L  c #294A15",
"P  c #2D431C",
"I  c #284B1C",
"U  c #334712",
"Y  c #314A15",
"T  c #36431E",
"R  c #344C1F",
"E  c #375114",
"W  c #35511E",
"Q  c #304424",
"!  c #364B24",
"~  c #395224",
"^  c #3D542D",
"/  c #384432",
"(  c #444314",
")  c #434520",
"_  c #534021",
"`  c #445D22",
"'  c #455E2B",
"]  c #55522A",
"[  c #444238",
"{  c #6E4128",
"}  c #436422",
"|  c #4A6321",
" . c #4A6428",
".. c #4D692B",
"X. c #536623",
"o. c #506A28",
"O. c #4B6331",
"+. c #436930",
"@. c #546B32",
"#. c #506638",
"$. c #536A3B",
"%. c #4D783A",
"&. c #557330",
"*. c #5A7331",
"=. c #5B7439",
"-. c #676E38",
";. c #627835",
":. c #3D3A40",
">. c #454546",
",. c #574445",
"<. c #595244",
"1. c #4D4F50",
"2. c #565555",
"3. c #704D49",
"4. c #665554",
"5. c #5C7540",
"6. c #5E7B40",
"7. c #637B43",
"8. c #7C6857",
"9. c #5D5C61",
"0. c #695F63",
"q. c #6C6668",
"w. c #767070",
"e. c #881B19",
"r. c #9D1522",
"t. c #AB1720",
"y. c #A41E25",
"u. c #AA1A26",
"i. c #B31729",
"p. c #B31C28",
"a. c #B41F30",
"s. c #892724",
"d. c #8C2925",
"f. c #88252E",
"g. c #992223",
"h. c #9B2128",
"j. c #96282D",
"k. c #873024",
"l. c #9C332A",
"z. c #992532",
"x. c #883331",
"c. c #983436",
"v. c #A82224",
"b. c #AC2A2D",
"n. c #A52130",
"m. c #B52730",
"M. c #BB2435",
"N. c #A83337",
"B. c #A53F38",
"V. c #B53235",
"C. c #BE353B",
"Z. c #C52435",
"A. c #CA3336",
"S. c #C43539",
"D. c #CE3039",
"F. c #D1383D",
"G. c #914C37",
"H. c #993544",
"J. c #AB2D42",
"K. c #B93541",
"L. c #C73541",
"P. c #975755",
"I. c #B5494B",
"U. c #886858",
"Y. c #A7635B",
"T. c #A55D61",
"R. c #996667",
"E. c #95696B",
"W. c #A4666A",
"Q. c #B0767A",
"!. c #C94547",
"~. c #D74D55",
"^. c #E35D60",
"/. c #D4696E",
"(. c #E66569",
"). c #7F8778",
"_. c #88857C",
"`. c #918579",
"'. c #9D7E83",
"]. c #8A8684",
"[. c #958D89",
"{. c #9B9A9B",
"}. c #B99E9A",
"|. c #B2A39A",
" X c #AE9FA3",
".X c #B2A3A5",
"XX c #D69E9F",
"oX c #DDB7B9",
/* pixels */
"> ; q 6 = w q 5 6 E } %.+.: | ( 3 Y $.| 4 4 + y y y y + + r 1 1 $ l j d f g d j 4 +.+.%.+.: X.+ + + + + 3 y y u u y 6 , L A ; ; ",
"w G 6 q > , w 5 5 4 S +.&.E S - ~ Y 6 ! U + + y y y + p q w 8 8.U.U.8.U.U.U.U.8.! w w O.@.+ + + + + + ;.@.3 y y y y > > w ; - G ",
": 6 L w A , > > 5 6 6 6 G : : K , w G w - + y y y y d 8.8.).).).[.[._._.]._._.`._.w._.`.+ + + + + + 4 4 6 5 y y y y = 5 e q w w ",
"W U ~ w I A , , 6 * q > , < K , > A - 5 L ! y y y y T.W.`.|.[.{.{.{.{.{.[.].]._.].[.'.'.+ + + + + G._ _ b y y y y y 5 e q w w K ",
"+.P 6 3 K ~ S A w > , , , * = = < - A w - ~ y y y R.P.W.|.|.|.|. X X.X X X X X.X X.X X}.oXoXoXXXQ.I.H.f.f.y y y y 6 w T 6 ; w ! ",
"Y 6 6 5 H L 6 U x n 1 1 0 x 0 i 1 2 0 t t x V Y.Y.P.B s.P.T.R.R.E.E.E.E.E.E.E.E.E.E.R.R.Q.E.W.W.f.j.n.u.y.s.C f 2 5 t ( R 6 : R ",
"> K U Y L : ( c h N.N.N.c.G.c.c.c.B.I.K.B.I.B.C.t.g.g.g.d.f.z.z.f.x.x.f.c.j.j.c.c.l.z.z.N.N.n.K.N.J.M.L.a.b.b.l.C l j ( W G 3 6 ",
"6 5 5 4 ( 2 G.B.V.S.L.L.I././.^.(.~.S.S.A.A.A.D.Z.V.m.V.N.V.L.S.V.B.N.V.C.m.!.(.(.(.~.^.~.K.K./.K.K.S.L.K.M.L.M.V.l.C j U 4 6 U ",
"! ; 7 j j G.V.L.F.V.j.B Z x.c.!.L.~.D.D.Z.A.A.A.A.S.S.C.C.S.D.D.S.S.S.C.S.S.S.!.!.!.B.F.L.K.K.I.z.N N k.r.K.L.S.A.V.g.x.j S W L ",
"! ( j P.B.V.S.M.r.s.s X # # M x.J.M.Z.Z.Z.A.F.S.S.S.C.C.S.S.D.D.S.m.m.v.i.i.i.u.g.v.v.v.m.K./.H.g $ X X M s.J.C.A.!.!.d.j W L A ",
"T b { g.D.D.K.z.v d l m i   3.z h z.a.Z.u.p.t.t.u.g.y.y.h.y.y.t.i.u.y.u.v.y.u.p.v.r.t.u.u.z.s.g 0 X [ % n $ h K.F.Z.J.x.j T - A ",
"6 x M e.a.M.n.v $ >.  :.:.@   m $ B r.J.p.u.t.v.v.v.y.y.y.y.y.y.t.u.u.n.u.u.t.t.r.v.p.y.z.H.# [ X O <.i 8 4.$ H.K.K.n.x.1 G G , ",
"> 2 j g z.z.z.g u :.@ 1.:.1.y m % M z.M.a.i.u.t.r.v.p.i.i.t.t.p.u.p.m.m.a.i.p.p.m.p.u.m.b.M % i + i 2.2.% 4.z M J.J.c.{ t 3 t E ",
"~ t n $ h z.B g ,.p >.2.w.w.2.m [ $ j.t.a.M.a.b.b.b.m.M.Z.M.m.m.m.m.m.m.a.a.M.m.t.m.b.b.z.# 4.9 m q.0.q.2.i 3.g f.j.C f 7 S 7 -.",
"> > 8 d h z.f.g ,.>.1.q.4.4.,.,.n $ N h.n.n.b.m.b.b.m.m.p.m.b.b.b.b.v.u.u.u.y.y.v.v.e.g.B # 2.>.1.q.9.q.3.m 4.1 M V _ 7 J &.;.;.",
", 4 5 2 C v B $ p a O ,.,.4.9 9 8 n M N C N k.d.k.d.d.d.d.d.k.k.C k.d.d.s.d.k.C k.k.k.C l 8.9 9 + p 2.2.0 [ i ] n k 7 ( | | ;.F ",
"6 R 6 5 2 k k i @ [ o a a   . [   q 1 1 b _ 1 1 2 k 1 1 1 2 k j x b 2 x 2 _ x k 2 x ( ] ( 5 . /   @ >.@ 8 <.  5.8 < 3 O.......: ",
"G K 3 6 G ~ ! ) r 8 8 / a   1.a q = G K = K R , w > q < 6 < 6 6 > T 6 6 H Y K : 3 4 3 @.O.w Q / a O >.@ [ . $.P R U G L Y G 4 G ",
"G G G U 6 6 w / Q p o q 8 @ r 9 > < w ; > 6 : K ; 6 > w 6 K 6 6 W 4 6 U W 4 U 4 D : G 6 P ! ! q o 9 9 8 r T ! Y : G 4 - 4 G 6 6 ",
"G 6 4 ! E w 6 w > > P q K < < < r P ! 6 S 4 L : 3 6 K ! e w w 6 4 4 4 6 6 3 $.=.@.o.w 6 w > 6 w r q q w > 6 > : : & - G G > 6 6 ",
"L S , K Q G w ; ; > ; , ! > K K w 6 R Y Y 3 ..4 4 L U : 6 ; ~ 4 =.E 3 ; 6 $.G 5.o.Y : : K > 6 ! r ! e w @.6 - : : G G G : > w 6 ",
"R ! 6 : 6 ; : 6 A > 6 3 O.Y 6 : 6 w : : E :  .*.: E 3 G 4 6 ! 3 =. .E S ' E o. .U : w : 6 ; w * ! O.U 3 ' 5.S 4 H ' W : G R ! q ",
"R ! > K Y W L 6 Y O.~ & ~ Y - $.P w : 3 4 : E @.3 G K 5.! K ; 6  .o.} J A ` #.: K ; E L L G - w ; D U 6 @.*. .- ..Y G : R T w 6 ",
"- I : W Y ! : 6 - W } ! - - U K 6 6 U #.=.=.U J 3 U 5.J 6 : w : ..H ..H S : G 6 ; #.Y G : ; w - e ; S S ; J  .3 ..- 6 : : 6 w w ",
": w : 6 6 6 3 6 3 6 6 W ! - ; 6 w T K 6 D =.=.U 4 O.' U 6 ; 6 6 Y Y H H 4 : 6 w > w > : ; G > < ; S : } A 4 H E - ..5.' #.4 6 > ",
"G ' G 6 6 4 6 6 > 6 - ; > 6 > ; ; 6 U 6 6 E ' J 6 6 6 6 w w e > 4 K W S : G : w r > ; - : , > > ; : O.=.*...J S ..6. .S : , ! G ",
"e O.6 U ! : K 6 W K 6 * > * 6 ! > ; 6 ; 4 : 6 4 6 ; ; w w > w > ` H ; R w - > #.+.R 6 < > < = > G : S L +.@.#.H ..~ G S 4 Y R 4 ",
"6 G 5 w ! Y 6 6 6 R ! T K w w ! Q > ; > G 5 6 6 6 e w w > q > 6 ; E 6 ^ P P K > ! R G 6 > w > R : S ; G K  ...E O.H : W Y R 6 ; ",
"4 ; 6 6 6 ! , > > 6 w > 6 6 G P ~ 6 > 6 6 ; 6 w = q ; ; < < ; ; 6 6 > P ! > 6 : 3 P R w q > ; R W - A 3 : : - G 4 3 3 : 6 w 6 6 ",
"6 6 w K ; 6 G w ; > 6 w 6 6 6 6 R w 6 6 6 ; * > > > = w ! > ; > 6 6 w w Q ! 6 w 6 D w > K > 6 6 ! W 6 : 6 G G : > 6 K 6 6 6 > > ",
"w w > , , , 6 K 6 ! W L > 6 Y 6 6 ; 6 U ! 6 6 > w q w / ! w ; w > 6 6 6 ; ! 6 K 6 : ; 6 : 6 P w ; G : @.O.3 4 6 6 : > w w > 5 w ",
"> w , ; ; K - , 4 : L O.W 3 Y Y 4 3 ~ W O.6 e 6 ! w w Q Q > < ; w q 6 ; ; 6 6 ~ : G 4 o.; 6 R ! G S G E O.3 G ; ! K 6 ! r < < = ",
"- K 6 ; ; 6 6 6 4 ....=.| A o.J S } ..o.: S G L K w 6 > ! r q > 6 6 > > 6 6 6 > S O.' =...: O.E 4 | | | : 3 4 U P 6 < w ! w > > ",
"r r w 6 < > w R : S U  .*.H ; S o...@.=. .: : ! ! = U w < > > w w T w K - = w R U G S  .=.Y G - o.| *.=.X.: 4 R R w q = < < < w ",
"P I w > - ; 6 Y Y G & 4 4  .G K F &.*.: - ; < ! w w > 6 , 3 4 G R R & , ; 6 : , ; - - - : 3 : G 6 3 G : G 4 6 6 q < w w K 6 ; 6 ",
"I ! K > 6 , w 6 : : : U Y ~ Y Y  .} G - 6 > > r w 6 6 : 4 S K ` ! R > > > 6 ; 6 ; ! G - > , , K > ! > w 6 ; ! < > 6 w > 6 6 6 P ",
"! U : > w w K 6 w K 5.5.O.- I > ; , ; q > < , K R Y K | 4 : ;.=.U T w ; > 6 6 Q 6 ! e K < > w > w w T w 6 ..U K 6 > 6 6 w w 6 U ",
"U 6 - K ! P w 6 G O.O.r K w = K A K ! ! ! w > - ; E U E X.: : X.Y 6 ; ; w w K Q w w Y P , > = r 6 ; $.6 ; 7.6 : 6 : * > > 6 6 ~ ",
"G 4 A Y ~ I 6 6 : , G , > G > 6 : L L 4 6 - 3 - S 6 G ` O.6 6 6 G L ; L K S R R 6 6 w A > w > w 3 E ' @.E H U D 4 6 5 6 6 6 ; 6 ",
": 3 6 6 6 6 > ; G Y P E 4 : K : H E 6 - S 6 K W ! ; 6 : 6 : w 6 : J 3 +.~ 6 P > 6 6 > w ; 6 ! O.5.| F ..H F J } @.#.W 6 = w w ! ",
": G Y 6 e > 6 - 6 3 : W K S G : A ; : 6 > ! R R T > Y : : Y 5.: S : A *.L : : G G G : W ; 6 w 6 U ;.| F J J ` ;.E 4 6 6 6 q Q ! ",
"#.U ~ 6 - ! R ; , G S : J : : *.=.=.' G 6 G < ! ~ w 6 : E =.*.4 o.| J *.: G - Y Y > : O.K G ~ 4 S 4 o.X.F : o.E 3 6 6 > > w T w ",
"+.~ - K ! ! 6 ; : 5.H 4 : : o.` &.} E G ; ; , - K R 6 4 6.' 4 4  .&. .H U 5.6...: : G O.H ~ ; 6 6 4 R Y J 3 6 6 6 w > = w 6 5 6 ",
"; #.> ; 6 , - , G =.=.Y A X.H ..+.E 4 4 ~ R 6 > G 3 G :  .Y 3 6 4 J =.J 4 : 6 ; S : : : W W ; Y T 6 > 6 w 6 * w w ! w 6 6 6 ; G ",
": 6 G w > > ; ; 6 ' ..O.4 4 P ..6 6 6 6 Y : - G | @. .: S 4 - S : : W U ; 6 ; 4 : , K @.6 : #.W K < w w 6 w > q > R ! w 4 6 : E ",
"5.K G W K ; 6 > - : ! O.6 A @.O.: : S 6 : ; ..7.=.| | 4 4 | 7.@.=.S : , K ; = w - ; w E O.Y O.w > : w < ~ w q > > w ! ! 4 : Y =.",
": 3 , U P : w 6 ; 6 6 R ~ 3 - : } ..K 4 3 - - , G ; 6 4 o.&.*.~ 6 - r - - , w ! 6 > - ; R ! : A > ; 6 P R 6 K 6 > > 6 U 4 4 o.;.",
"G - 6 G ! R > w 6 K > - 6 K G Y +.=.=. .> : w 6 R Y Y 4 6 6 3 3 : 6 ; > < w > ! R 6 ; 4 6 : 6 ; 3 4 4 ! R ; q w * w 6 6 4 J ;.F ",
"S K S 6 - w 6 A : > , w w r < - > , - ; 6 ; 6 ! U 6 6 G 6 , 6 6 6 P w 6 6 > , 4 Y : S @.: < < > 6 6 > K T w w q q > w ! 6 U O.3 ",
": ~ : Y ! ~ > > > 6 , w > > > > > < w w & = w 6 6 U ; ; K 6 w 6 6 R I : w ~ O.: S :  .&.: - > w 6 R 6 : 6 w ~ w w 6 Y R : U 6 6 ",
"J : S O.O.: w G P T R < w > > 6 = > r = > A > ~ - ! ~ 6 3 , 6 w U G R R 5 - ~ ..J S &.W S G > - 6 ! Y K 6 6 ..3 4 ~ L W 3 6 6 6 ",
"A S : G S : : Y R 6 6 - 6 w w , w w > ; > S W Y , P K K : : ~ > : 4 S 6 ; G , 5.} J  .S G G 6 > 6 w U Y 4 E 7.` 3 U 4 6 3 = : ; ",
"*.*.&.4 : : 6 : 6 6 > : P ! R : w > < w K > L ..6 ; ! - G U W 6 &.E , 4 ~ Y : 4 } J H U  .+.! > > > w U 4 J *.*.S : 4 6 : , 6 w ",
"=.| W ..S  .O.5.=.+.U - ; 6 L ~ w > - ! > : O.S : : 4 S ` W L : &.7.G Y ; O.#.U G L H J Y 6 w > 6 6 6 3 4 4 F *.: F o.5. .! ! w ",
"J  .o.H S Y E ' > ; ; : ; G w P R w > R R G > - 4 4 : G '  .6 : o.` E H 6 4 =.#.Y ! 6 L G ; 6 > = w 6 6 H J U X.J X.X.@.U ; w w ",
"; J | : - U ..: : 4 6 6 ; : > 6 6 6 4 Y ' G - G  ...#.O.6 6 6 S  .H S : 6 > 6 6 ~ U 6 4 6 > 6 > > ! R #.=.=. .H F E E Y 6 w * q ",
": 4 6 Y Y 6 - : #.O.R , 6 ; , 6 ; L 4 : @.O.: ..=.&.H : D A : S : Y 4 6 6 * w 6 6 ! K ; 6 G 6 ; w 6 w 6 3 K R Y : 3 6 6 6 = > w ",
"4 O.=. .6 ; 6 O.R ! > P ; ; 6 #.w - 3 4 S : 4 o.=.: - .. .U E > G O.6 ; > ; : 6 , K < - w , w > = ; 6 6 w w 6 ; > - w 6 6 6 K w ",
"U ' Y 6 4 L > > > K w P 6 > 6 O.' 4 G Y ~ &.o.J 4 : @.6.@.=.` 4 K +.6 * > < , > 6 > > > > w ! w 6 4 ; ; w : = w Q = < > w w ! > ",
"- w 6 6 G K 6 w 6 , K ; > > w O.O.S L =.).| } | : :  .Y o. .6 ; G K 6 : G T > 6 > > 6 w > K K ! > 6 6 > > > r ! ~ q > < w w w > ",
", 6 w K A 6 6 > w K w 6 - ; G O.G G : ! ' &.@.} E G G L O.: , > , > 6 > 6 W w 6 6 ; K w 6 6 6 ! 3 6 6 ; ; > ! T T w q > w 6 > > ",
"G 6 P Y 5 6 ! ! 6 K K 6 > ; 6 6 : : ; Y 6 4 S 4 - : 6 G G - 6 ; w w K > > W K A 6 6 ~ > 6 6 6 6 T 4 6 6 w 6 R w > w 6 ; e > ; q ",
"w 6 > > ; 6 , P 6 > G , > : R : G > 6  .' : , 4 S 3 : ; w w = w w w 6 - ; Y Y K : A R P ; 6 R 4 K 5 6 ' O.6 6 : 6 6 6 > w > 6 q ",
"> 6 ; w > 6 w ~ G > 6 O.- 4 U R 6 K w Y #.: 6 6 Y 4 6 W / = ; , w r q > ; 6 3 W G : : $.- 3 R Y : w U W O.4 6 4 R 3 6 R R > : > "
};
