/* XPM */
static char *_2_6bb5d5d6916a2ed395c5a69d860e46eb7a24f8f4d377853343f9d5f07d2db234[] = {
/* columns rows colors chars-per-pixel */
"64 64 190 2 ",
"   c #020101",
".  c #010A00",
"X  c #090D0D",
"o  c #160202",
"O  c #10100E",
"+  c #131C17",
"@  c #270000",
"#  c #330100",
"$  c #281010",
"%  c #0E2901",
"&  c #132A03",
"*  c #152A0A",
"=  c #163403",
"-  c #1A3205",
";  c #1F3804",
":  c #1B320B",
">  c #17380D",
",  c #1F3113",
"<  c #36260B",
"1  c #382908",
"2  c #233502",
"3  c #233C03",
"4  c #27310C",
"5  c #223A0B",
"6  c #353403",
"7  c #222413",
"8  c #22251F",
"9  c #382913",
"0  c #253114",
"q  c #223C13",
"w  c #2C3816",
"e  c #29391B",
"r  c #333410",
"t  c #241527",
"y  c #341C27",
"u  c #312222",
"i  c #302F27",
"p  c #353733",
"a  c #450303",
"s  c #431508",
"d  c #521F04",
"f  c #571314",
"g  c #76151C",
"h  c #462807",
"j  c #40300D",
"k  c #4E2314",
"l  c #53201F",
"z  c #443414",
"x  c #663319",
"c  c #691822",
"v  c #4A3820",
"b  c #533925",
"n  c #4D2B32",
"m  c #4A3335",
"M  c #692521",
"N  c #7A2322",
"B  c #7E2A2E",
"V  c #673424",
"C  c #783121",
"Z  c #7B382D",
"A  c #18410E",
"S  c #254005",
"D  c #2C4206",
"F  c #2F4903",
"G  c #27400C",
"H  c #2E4A0C",
"J  c #35500E",
"K  c #2A4214",
"L  c #294A15",
"P  c #2D431C",
"I  c #284B1C",
"U  c #334712",
"Y  c #314A15",
"T  c #36431E",
"R  c #354C1F",
"E  c #375114",
"W  c #35511E",
"Q  c #304424",
"!  c #364B24",
"~  c #395224",
"^  c #3D542D",
"/  c #384432",
"(  c #444314",
")  c #4A4A24",
"_  c #534021",
"`  c #445D22",
"'  c #455E2B",
"]  c #444238",
"[  c #6E4128",
"{  c #436422",
"}  c #4A6321",
"|  c #4A6428",
" . c #4D692B",
".. c #536623",
"X. c #506A28",
"o. c #4B6331",
"O. c #436930",
"+. c #546B32",
"@. c #506638",
"#. c #536A3B",
"$. c #4D783A",
"%. c #557330",
"&. c #5A7331",
"*. c #5B7439",
"=. c #676E38",
"-. c #627835",
";. c #3D3A40",
":. c #454546",
">. c #574445",
",. c #585244",
"<. c #4D4F50",
"1. c #565555",
"2. c #6F4C48",
"3. c #7A4841",
"4. c #665554",
"5. c #5C7540",
"6. c #5E7B40",
"7. c #637B43",
"8. c #7C6857",
"9. c #5D5C61",
"0. c #6C6668",
"q. c #767070",
"w. c #881B19",
"e. c #9D1522",
"r. c #AB1720",
"t. c #A41E25",
"y. c #AA1A26",
"u. c #B31729",
"i. c #B31C28",
"p. c #B41F30",
"a. c #892724",
"s. c #8C2925",
"d. c #88252E",
"f. c #992223",
"g. c #9B2129",
"h. c #96282D",
"j. c #873024",
"k. c #9C332A",
"l. c #992532",
"z. c #883331",
"x. c #983436",
"c. c #A82224",
"v. c #AC2A2D",
"b. c #A52130",
"n. c #B52730",
"m. c #BB2435",
"M. c #A83337",
"N. c #A53F38",
"B. c #B53235",
"V. c #BE353B",
"C. c #C52435",
"Z. c #CA3336",
"A. c #C43539",
"S. c #CE3039",
"D. c #D1383D",
"F. c #914C37",
"G. c #993544",
"H. c #AB2D42",
"J. c #B93541",
"K. c #C73541",
"L. c #935249",
"P. c #9A5B5D",
"I. c #B5494B",
"U. c #886858",
"Y. c #9A645C",
"T. c #A7635B",
"R. c #AD7757",
"E. c #A55D61",
"W. c #996667",
"Q. c #95696B",
"!. c #8E7B74",
"~. c #A86F73",
"^. c #C94547",
"/. c #D74C55",
"(. c #E35D61",
"). c #D4696E",
"_. c #E66568",
"`. c #7F8778",
"'. c #88857C",
"]. c #918579",
"[. c #9D7E83",
"{. c #8A8684",
"}. c #958D89",
"|. c #9B9A9B",
" X c #B99E9A",
".X c #B2A39A",
"XX c #AE9FA3",
"oX c #B2A3A5",
"OX c #D69E9F",
"+X c #DDB7B9",
/* pixels */
": - 0 5 & , 0 4 5 E { $.O.; } ( 2 Y #.` 6 S ; L ~ 5 : q Q e < < s d h s d f s h ; O.O.$.O.; ..F S { { { 2 3 ; ! P K 5 > L > : - ",
"q G 5 0 : > q 0 4 3 3 O.%.E S = ~ Y 5 W Y 5 = W P 4 z i , q 7 8.U.U.8.8.U.U.U.8.~ q q o.#.( 6 D } ..%.-.+.3 ; P P 4 : : G - = G ",
"; 5 L q A > : > 4 5 5 5 5 : ; K > q K q = > A - e 9 s 8.8.`.`.'.{.}.'.{.{.'.!.'.'.q.].].Q.U.2.L.d h S S 5 r w q q , * 4 w 0 , K ",
"W U ~ q I A > > 5 & q : : q K > > > = : L R K w 9 l E.E.]..X}.|.|.|.|.|.}.{.{.'.{.}.[.[.~.~.).[.L.F._ _ z r 4 : ; ; 0 w 0 q q L ",
"O.P 5 2 K ~ 3 G q : > > > & * * , * G q = W U 1 Q.W.P.~. X.X.X.XXXXXoXXXXXoXoXoXXXoXXX X+X+X+XOX~.I.G.d.d.f j 4 = 5 q T : = q ! ",
"Y 5 5 4 H L 5 U z _ < < 9 z 9 u 1 < 1 r 1 z V T.T.L.B B P.P.Y.W.Q.Q.Q.Q.Q.Q.Q.Q.W.Q.W.W.~.W.~.W.d.k.b.y.t.a.C d 1 4 r ( W G ; R ",
": K U Y L ; ( x g M.M.M.x.F.x.x.x.N.I.I.N.I.N.V.c.f.e.f.a.d.l.l.d.z.z.d.x.h.h.x.x.k.l.l.M.M.b.J.M.H.m.K.p.v.v.k.C k h ( ~ G 2 ; ",
"5 4 4 3 ( 1 F.N.B.A.K.K.I.).).(._./.A.Z.Z.A.Z.S.Z.V.n.B.M.B.A.A.B.N.M.B.V.n.^._._._./.(./.J.J.).J.J.A.K.J.m.K.m.B.k.C h U 3 5 Y ",
"~ : 6 j d F.B.K.D.B.h.d.Z z.x.^.K./.S.S.C.Z.Z.Z.Z.A.A.V.V.A.S.S.A.A.V.V.A.A.A.^.^.^.N.D.K.J.J.I.l.N N j.f.J.K.S.Z.B.f.z.h S W L ",
"! ( h L.N.B.A.m.e.a.a o o @ M z.H.m.C.C.C.Z.D.Z.A.A.V.V.A.A.S.S.A.m.n.y.u.u.u.y.f.c.c.c.n.J.).G.f # o o M a.H.B.Z.^.^.s.h W L A ",
"! z V g.Z.S.J.l.c s k m u o 2.f g l.p.C.y.y.y.r.y.f.t.t.g.t.t.r.u.y.c.t.c.y.y.y.c.e.r.y.y.l.N l k X ] $ b # g J.S.C.H.z.h T - A ",
"w z M w.p.m.b.g # :.  ;.;.+ . m # B e.H.i.y.r.c.c.c.t.t.t.t.t.c.r.y.y.b.y.y.r.y.e.c.y.c.l.G.@ >.o X ,.u 7 4.a G.J.J.b.z.< G G > ",
": 1 h f h.h.h.f u ;.+ <.;.<.t m $ M l.m.p.u.y.r.e.c.i.u.u.y.r.y.y.u.n.n.p.u.u.i.n.i.i.v.v.M # u o u 1.1.$ 4.l M H.H.x.[ r 3 r E ",
"~ r b # g l.B l >.t :.1.q.q.1.m ] # h.r.p.n.m.v.v.v.n.m.C.m.n.n.n.n.n.n.p.n.m.n.y.n.v.v.l.@ 4.8 m 0.0.0.1.u 2.f d.h.C d 6 S 6 =.",
": : 7 s g l.d.f >.:.<.0.4.9.>.>.b # N f.b.b.v.m.v.v.n.n.i.n.v.v.v.v.c.y.y.y.t.t.c.c.w.f.j.o 1.:.<.0.9.0.2.m 4.9 M V _ 6 J %.-.-.",
"> 3 4 1 C c B # p p O >.>.4.8 8 7 b M N C N j.s.j.a.s.a.s.s.j.s.C j.s.s.a.a.j.C s.j.j.C k 8.8 8 O 8 1.1.9 ] u ) b j 6 ( } } -.F ",
"5 R 5 4 1 j j y + ] X p p   . ]   0 < < v _ < < < j < < < < j h z z 1 z 1 _ z j h z ( ) ( 4 . /   + :.+ 7 ,.  5., 4 3  . .+. .; ",
"G K 2 5 G ~ ! ( e * 7 / p   <.p 0 * q K : q W : q : 0 , 5 0 5 5 q T 5 5 H Y K ; 2 3 3 +.o.q Q / p O :.+ ] . #.P ! K G Y Y 5 3 G ",
"G G G Y 5 5 q / Q i X 0 7 * 8 8 : , G = 5 : : G - : : q 5 K 5 5 ! 2 5 Y R 3 K S S 2 G 5 P ! ! , X 8 8 8 e T R Y - G S = 2 5 5 5 ",
"G 5 3 ! Y q q q : : K , P 0 0 , e P ! 5 S ; Y 3 2 5 U R K q q 5 3 3 3 5 5 3 +.*.+. .5 q q : 4 q e 0 0 , : 5 : ; 2 % = A S 5 5 5 ",
"R.R.R.R.R.R.q 2 : : - 5 R : P q q 5 R Y Y 2  .3 3 Y K 3 5 - ~ 3 *.J 2 = > #.G 5.+.Y ; ; K : 5 ! ! ! w w +.; = 2 5 G G 5 5 : K 5 ",
"R.3.3.3.R.R.R.5 > ; 5 ; o.Y 5 - 5 5 : 3 E ; | &.2 E 3 G 3 5 R 2 *.X.E S ' E +.| Y 3 5 ; > - q = ! ' U 2 | 5.S 3 H ' ~ ; 5 R ! , ",
"y R.3.R.3.3.R.3.R.o.~ % ~ Y - 5.R q - 3 S 2 E #.- S Y #.! U - 5 | X.{ E ; | @.; K - E L Y G = q = D U 5 #.&.| =  .Y 5 3 R P q 5 ",
"y R.3.3.3.3.3.R.R.R.{ ! = = Y K 5 5 U @.*.*.H J 2 U 7.Y 5 - q ; | H  .H S ; G 5 - @.Y G 2 = q = w = S S = Y | ;  .= 3 5 2 5 q q ",
"n y 3.3.3.3.3.3.3.3.R.R.Q * : : w T K G D *.*.U 3 o.| P 5 - 5 5 Y E H H 3 3 5 q : q : 3 - > : , = S ; { A 3 H E =  .5.' @.: G : ",
"R.n 3.3.t t t 3.3.n n y y n 5 - & 5 K 5 5 Y ' E 3 5 5 5 q q w : 3 P W 3 ; 5 > q K : : = ; q : : - ; o.*.&. .J S  .6.| S 2 5 R G ",
"3.3.3.3.3.3.3.3.n n n y X X X ! : = 5 - 3 ; 5 3 5 - - q q : q 5 ` H = R q - 4 o.o.P 5 0 : , * : G 3 S L O.+.@.H  .W 5 S 3 Y R 3 ",
"3.3.3.3.3.n n 3.n n y y y X y ! Q 5 - - G 4 5 5 5 q q q : 0 : : & E 5 ' e R q > R R q 5 : q : R 3 > - S K | +.E O.H 3 W U R 5 - ",
"3.3.3.3.3.3.n n n y y y y t y R ! 5 5 5 5 - 5 q & w : * , , - - 5 5 : T ~ * 5 5 2 U ! q 0 : = R ! - G - ; ; = 5 2 3 2 5 5 q 5 5 ",
"3.3.3.3.3.3.n n n y y y y t y 5 R w 5 5 5 - & : * : * q ! ; - : 5 5 q q ! R 5 5 5 D > 5 K : 5 5 W W G - 5 G 5 3 ; 5 w 5 5 5 : : ",
"3.3.3.3.n 3.3.n n y y y y t y 5 5 - 5 K ! 5 5 4 w 0 q / ! q - q : 5 5 5 - ! 5 K 5 3 = 5 2 5 P q - G = &.o.2 ; 5 5 - : q q : : q ",
"3.3.3.3.n n n n y y y t t t y Y 3 3 W R o.5 q 5 ! q q Q Q > , - q 0 5 - - 5 5 ~ - G 3 +.= 5 ! R G S G E o.3 G ; R K 5 Q P , 0 * ",
"n n [ n n n y y y y y y y y X.H S `  .X.; S G L K q 5 : ! e , : 4 > : : : > 5 : S o.' *.+.; @.E ; } } } - 3 3 U T ; q q ! , : > ",
"3.n n y y y y y y y y y y H ; S X.X.+.&. .; = ! ! * U q , : : K q R K w = = K R Y 5 S | *.Y G =  .} &.*...; 2 ! ! q 0 * , , , q ",
"n y y y y - 5 Y Y G % S ; | G K F %.&.5 = = , ! q q : 5 > 3 2 G R R & > : 5 ; > ; = - = ; ; ; G : 2 G 2 G 3 5 5 , , q q w 5 - 5 ",
"y y K : 5 K q 5 ; ; ; Y Y W Y L  .{ G = 5 : : e q 5 5 ; 3 S K ` R R : : : 5 - 5 - R G - - : q 5 : ! > G 5 - ! , 5 ; q : ; 5 5 R ",
"y Y 5 - q w K 5 5 K 5.5.@.= R : = > - 0 = q : K R U K } S ; -.*.U R q - : : 5 ! 5 ! q q , : , : q q T q 5  .U U 5 : 4 5 q q 5 Y ",
"R q ; q ! P A 5 G o.o.e q q * K A K ! ! ! w : = - W H E ..- ; ..U G - = q q K Q q q R P , : > K 5 : #.5 - 7.> 2 5 ; & 5 : 5 5 ~ ",
"5 3 5 Y ~ I 5 5 - : q A : G > q ; L L 2 5 - 2 = S 5 G ' o.5 5 5 5 L = Y K ; R R 5 > K A > , : , 3 Y ' +.E H H D 3 5 5 5 5 5 - 5 ",
"5 3 : 5 q ; : - G U R E S 2 5 ; H E G = A S w W R = 5 2 5 ; q 5 ; J 2 O.~ 5 P : G ; : K = ; ! @.5.} F X.H F J } #.@.R 5 * q q ! ",
"3 5 R 5 q * 5 - > 5 2 W L 3 G ; A = ; G : ! ! R P ; Y 5 ; Y *.; 3 2 S *.L ; ; G G 5 ; W - G q 5 H -.} F J J ` -.E 2 5 5 5 0 ! ! ",
"@.U W 5 = ! R - ; G S = J 2 ; &.*.*.| G > G , ! ! K > 3 E *.&.S  .} J %.5 S = Y Y 5 ; o.K S ~ ; S S  ...F 2 X.Y 2 5 5 : : q P q ",
"O.~ : K ! ! 5 - ; 5.H ; ; = X.| &.{ E G - ; > = K R 5 3 5.| 5 2 | %.| H U *.6. .; ; S o.H ~ - G 5 3 ! Y E ; 5 5 5 q : * q 5 4 5 ",
"- o.5 - 5 > = 5 G *.*.L S X.H X.O.E ; 2 ~ ! : ; G 2 G 2 | Y 2 5 ; J *.J 5 ; 5 - 3 3 : 3 W R = Y T q - ; K 5 = q q R q 5 5 5 : S ",
"; > G G : : - - G o. .o.2 S K  .5 5 5 S Y 5 = G } @.| ; 3 3 = 3 ; ; W U - 5 - 3 ; : K #.; ; @.! K , q q 5 q : 0 : R ! q 3 q ; E ",
"*.P G ! K - 5 : = ; ! o.G A +.o.G : S > = -  .7.*.} } S 3 } 7.#.*.S - > G - * q - = K E o.L | 5 : ; q , ! q 0 : ; q ! R 2 ; J *.",
"; ; ; Y P ; q 5 - : ; ~ ~ 2 = 2 {  .K ; 2 - = : 5 = G ; X.&.&.~ 5 = P = > : q ! 5 : = - W ~ 5 q 5 * 5 K R 5 U : : : 5 Y 3 G X.-.",
"G - 5 G ! R : q 5 P : = ; K 5 Y O.*.*.| ; ; q 5 R Y Y 3 5 S 2 5 ; ; : : , q : ! R 5 - ; 5 - 5 = 2 ; 3 ~ R - 0 q * q 5 5 2 H -.F ",
"S K S A = q 5 G : : > K , P , : > > - - 5 * 5 ! U 5 5 G 5 > 5 3 5 P 5 5 ; : q 2 Y ; S +.3 A , : 5 5 5 q T q q 0 , : q R 5 U o.3 ",
"; ~ 3 U R ~ : : : 5 q > = : : : = , q q % = q 5 5 Y - ; K 5 q 5 5 R I 5 q ! o.3 S 2 | %.5 : * q 5 R 5 - 5 q ~ K q 5 P R 3 U 5 5 ",
"J ; 3 o.o.; 5 q P P R , q : : > : : e * : A ; ! : R ~ 5 3 > : q U G ! R > - W | J S %.W 3 5 : = 5 ! Y K 5 5 | 3 3 ~ Y R 3 5 5 5 ",
"A S ; G S ; 5 Y P G G = 5 5 q > q , : : : 5 W Y : P P G ; ; ~ : ; 3 3 5 ; G A 5.{ J  .S G G 5 : 5 q U Y 2 E 7.` 2 H - G 2 * - - ",
"&.*.X.2 ; ; 5 3 5 5 - ; P R R ; > , q q K : L | G - ~ = G Y ! G %.E > 3 ~ Y ; 2 { J H U | ' ~ : 4 : K Y 3 J &.&.S ; 3 5 - q 5 q ",
"*.} `  .S  .o.*.5.' Y = : 5 Y ! q ; = ! - ; @.S ; - ; S ' W L ; %.7.G Y = o.@.Y G K H J Y 5 q : : 5 5 2 S 2 F &.; F X.*.o.R P w ",
"J | X.F S Y E ' - ; ; : - G A R R q : R ! G : = S = 2 G ` o.G ; X.` E H G 5 *.@.Y ! G L 5 ; q = * q 5 5 H E H ..J ..X.+.Y - K 5 ",
"= J } - = L | 5 ; ; 5 5 - - : 5 : G 2 Y ' G = S |  .#.| 5 ; ; S | H S ; : 5 5 5 R Y 5 3 5 > 5 : : ! R @.*.*.| H F E E Y 5 q & , ",
"; ; G Y Y 5 = - @.o.R G : = > K - L ; ; +.| ;  .*.%.H ; S S ; ; ; Y 3 5 3 & > w > ! q - 5 q 4 = q 5 w 5 3 K ! Y ; 2 5 5 5 & : q ",
"3 o.*.| G - G o.R ! : P - - 5 o.K = ; 3 G ; ; X.*.; =  .| Y E ; G o.5 = : - 5 ; K G , = q 5 q : * - 5 5 q w 5 - : = q 5 5 5 P q ",
"Y ' Y 5 2 L : : : K q e 5 - : o.' ; G Y W %.X.J S = X.7.#.*.| ; K O.5 * * q > : > : : : : q R q S 3 = - q - * q Q * , : q w R : ",
"; > 5 5 S K 5 q 5 A K - : : K @.o.S L *.`.} { X.; 2 | L +.| 5 - G K 5 ; q R : 5 : : q q : K P R - 5 5 : : : e Q ^ 0 - , q q q : ",
"q 5 q K G > 5 : q K K : = - S o.G G ; ~ ' %.+.{ E G G Y  .2 5 : > : 5 : 5 ! q 5 5 - K G 5 5 5 ! 3 5 5 - - 5 ! P T q 0 : q : 5 : ",
"5 5 R K : q ! ! 5 K K 5 : - 5 > ; - - Y : 3 S 3 = ; S G G > : - q q K : ; W K 5 5 5 ~ : 5 5 5 5 T 3 5 5 q 5 R q : q : - q : - 0 ",
"q 5 : : - ; G e 5 > K > - 5 R 3 K - 5 | | : 5 3 S ; - - q > * q q q 5 - = L Y K 3 5 W P - 5 R 2 K 5 5 ' o.5 5 2 5 5 5 5 q : 5 0 ",
": 5 - 5 : 5 q ~ G : 5 | = ; U ! ; K K Y @.3 > 5 Y 3 5 ~ / - : > , e , : ; G 2 R A ; ; #.- 2 R Y ; q U ! o.3 5 3 R 2 5 R R : - : "
};
