/* XPM */
static char *_0350_d4215673abaff0ebd9170e0e28de69ec5e083d3e8de0af4e19415ad542d9475e[] = {
/* columns rows colors chars-per-pixel */
"64 64 191 2 ",
"   c #020101",
".  c #010A00",
"X  c #090D0D",
"o  c #160202",
"O  c #10100E",
"+  c #131C17",
"@  c #270000",
"#  c #330100",
"$  c #28100F",
"%  c #0E2901",
"&  c #132A03",
"*  c #152A0A",
"=  c #163403",
"-  c #1A3205",
";  c #1F3804",
":  c #1B330B",
">  c #17380D",
",  c #1F3113",
"<  c #372505",
"1  c #36260B",
"2  c #392E0C",
"3  c #233502",
"4  c #233C03",
"5  c #27310C",
"6  c #223A0B",
"7  c #353403",
"8  c #222413",
"9  c #22251F",
"0  c #382913",
"q  c #253114",
"w  c #2D3716",
"e  c #223C13",
"r  c #29391B",
"t  c #333410",
"y  c #241527",
"u  c #341C27",
"i  c #312222",
"p  c #302F27",
"a  c #353733",
"s  c #450303",
"d  c #431508",
"f  c #521F04",
"g  c #561314",
"h  c #76151D",
"j  c #462807",
"k  c #40300D",
"l  c #4E2314",
"z  c #53201F",
"x  c #443414",
"c  c #663319",
"v  c #691823",
"b  c #4A3820",
"n  c #533925",
"m  c #4D2B32",
"M  c #4A3335",
"N  c #692521",
"B  c #7A2322",
"V  c #7E2A2E",
"C  c #673424",
"Z  c #783121",
"A  c #7A382C",
"S  c #18410E",
"D  c #254005",
"F  c #2C4206",
"G  c #2F4903",
"H  c #27400C",
"J  c #2E4A0C",
"K  c #35500E",
"L  c #2A4214",
"P  c #294A15",
"I  c #2D431C",
"U  c #284B1C",
"Y  c #334712",
"T  c #314A15",
"R  c #36431E",
"E  c #344C1F",
"W  c #375114",
"Q  c #35511E",
"!  c #304424",
"~  c #354B24",
"^  c #3A5225",
"/  c #384432",
"(  c #444314",
")  c #534021",
"_  c #445E22",
"`  c #455E2B",
"'  c #55522A",
"]  c #444238",
"[  c #6E4128",
"{  c #436422",
"}  c #4A6321",
"|  c #4A6428",
" . c #4D692C",
".. c #536623",
"X. c #506A28",
"o. c #4B6332",
"O. c #436930",
"+. c #546B32",
"@. c #506638",
"#. c #546A3C",
"$. c #4D783A",
"%. c #557330",
"&. c #5A7331",
"*. c #5B7439",
"=. c #676E38",
"-. c #627835",
";. c #3D3A40",
":. c #454546",
">. c #574445",
",. c #595244",
"<. c #4D4F50",
"1. c #565555",
"2. c #6F4C48",
"3. c #7A4841",
"4. c #665554",
"5. c #5C7540",
"6. c #5F7B40",
"7. c #637B43",
"8. c #7C6857",
"9. c #5D5C61",
"0. c #695E63",
"q. c #6C6668",
"w. c #767070",
"e. c #881B19",
"r. c #9D1522",
"t. c #AB1720",
"y. c #A41E25",
"u. c #AA1A26",
"i. c #B31729",
"p. c #B31C28",
"a. c #B41F30",
"s. c #892724",
"d. c #8C2925",
"f. c #88252E",
"g. c #992223",
"h. c #9B2128",
"j. c #96282D",
"k. c #873024",
"l. c #9C332A",
"z. c #992532",
"x. c #883331",
"c. c #983436",
"v. c #A82224",
"b. c #AC2A2D",
"n. c #A52130",
"m. c #B52730",
"M. c #BB2435",
"N. c #A83337",
"B. c #A53F38",
"V. c #B53235",
"C. c #BE353B",
"Z. c #C52435",
"A. c #CA3336",
"S. c #C43539",
"D. c #CE3039",
"F. c #D1383D",
"G. c #914C37",
"H. c #993544",
"J. c #AB2D42",
"K. c #B93541",
"L. c #C73541",
"P. c #935249",
"I. c #9A5B5D",
"U. c #B5494B",
"Y. c #886858",
"T. c #A7635B",
"R. c #AD7757",
"E. c #A55D61",
"W. c #996667",
"Q. c #95696B",
"!. c #8E7A74",
"~. c #A8696D",
"^. c #A9777C",
"/. c #C94547",
"(. c #D74C55",
"). c #E35D60",
"_. c #D4696E",
"`. c #E66568",
"'. c #7F8778",
"]. c #88857C",
"[. c #918579",
"{. c #9D7E83",
"}. c #8A8684",
"|. c #958D89",
" X c #9B9A9B",
".X c #B99E9A",
"XX c #B2A39A",
"oX c #AE9FA3",
"OX c #B2A3A5",
"+X c #D79E9F",
"@X c #DDB7B9",
/* pixels */
": - q 6 * e q 5 6 W { $.O.; } ( 4 T +.} 4 4 3 T Q 6 : e ! r 1 1 d l j d f g j j ; O.O.$.O.; ..G D { { { 3 4 3 Q I P 6 > L e ; - ",
"e H 6 q : > e 5 5 4 4 O.%.W D = ^ T H ~ T 6 = Q P 5 x p , 6 8 8.Y.Y.8.8.Y.Y.Y.8.~ e e o.+.( 7 F } } %.-.@.4 ; I I 5 : : S - - > ",
"- 6 P e S > : : 5 6 6 6 6 6 ; e > , > L - > S * r 0 d 8.8.'.'.].}.{.].].}.].!.].].w.].[.Q.Y.2.P.f j D D 6 5 e L e q * 5 w q e e ",
"Q Y ^ e U S > > 6 & e : : 6 I > : H > : P E L r 0 g E.~.[.XX|. X X X X X|.}.}.].}.|.{.{.^.^._.^.P.G.) ) b 2 5 : - 6 5 w q w e P ",
"O.I 6 3 L Q 6 S e : > > > & * * , : > e = ^ Y < !.W.I.~.XXXXXXXXoXoXOXoXoXoXoXOXoXOXXX.X@X@X@X+X^.U.H.f.f.g k 5 - 6 e R : ; e E ",
"T 6 6 5 J P 6 Y x n < 1 0 x 0 i < 1 2 2 2 x C T.T.P.V V I.I.W.W.Q.Q.Q.Q.Q.Q.Q.Q.W.Q.W.W.{.W.W.~.f.l.n.t.y.s.Z f 2 5 t ( Q S 3 E ",
"6 L Y T P 4 ( c h N.N.N.c.G.c.c.l.B.U.U.B.U.B.C.v.g.r.g.d.f.z.z.f.x.x.f.c.j.j.c.c.b.z.z.N.N.n.K.N.J.a.L.a.b.b.l.Z f j ( Q 6 3 6 ",
"6 5 5 4 ( < G.B.V.S.L.L.U._._.).`.(.S.S.A.S.A.D.Z.S.m.V.N.V.S.A.V.B.N.V.C.m./.`.`.`.(.).(.K.K._.C.K.L.L.K.M.L.M.C.l.Z j Y 4 6 T ",
"^ : 7 k f G.V.K.F.V.j.V A x.c./.L.(.D.D.Z.A.A.A.A.S.S.S.C.S.D.D.S.S.C.K.S.S.S./././.B.F.L.K.K.U.z.B B k.r.K.L.S.A.V.g.x.j 4 Q P ",
"~ ( j P.B.V.L.M.r.s.s o @ @ N x.J.M.Z.Z.Z.A.F.A.S.S.K.C.S.S.D.D.S.M.M.v.i.i.i.v.r.v.v.v.M.K._.H.g # o o N s.J.C.A././.d.j Q P S ",
"R b C h.A.D.K.z.v d l M i   2.z h z.a.Z.u.u.t.t.t.g.y.y.h.y.y.u.u.u.v.u.v.u.u.u.v.r.t.v.u.z.s.g l X ] $ n # h K.L.Z.J.x.j R = S ",
"6 x N e.m.M.n.h # :.  ;.;.+   M # x.r.J.p.u.t.v.v.v.y.y.y.y.y.y.t.u.u.n.u.u.u.t.r.v.u.y.z.H.@ ] o O ,.i 8 4.# H.K.K.n.x.2 6 H > ",
": 2 d g j.j.j.g i ;.+ <.;.<.y m $ N z.M.a.i.u.t.y.v.i.i.p.t.t.u.u.p.m.a.a.p.p.p.m.p.p.m.b.N $ i o i 1.1.$ 4.z N J.J.c.[ 2 4 t W ",
"^ t ) # h z.V g >.9 :.1.w.w.1.M ] # j.u.a.m.M.b.b.b.a.m.Z.M.m.m.m.m.m.m.a.a.M.m.t.m.b.b.j.@ 4.9 a q.0.q.1.i 2.g f.j.Z f 7 D 7 =.",
": : 8 d h z.f.g >.:.<.q.4.0.>.>.n # B r.n.n.b.m.b.b.m.m.p.m.b.b.b.b.v.u.t.u.y.y.v.v.e.h.V @ 1.:.<.q.9.q.2.M 4.1 N C ) 7 T %.-.-.",
": 4 5 2 V v x.# p a O >.>.4.9 9 8 n N B Z B k.f.k.d.d.d.d.d.k.d.Z k.d.d.d.d.k.Z k.k.k.Z l 8.9 9 O p 1.1.0 ] i ' n k 7 ( } } -.G ",
"; ~ 6 5 2 k k u + ] X a a . . ]   q 1 1 b ) 1 1 < k 1 < 1 1 k j x b < x < ) x k < x ( ' ( 5 . /   + :.+ 8 ,.  #.q 5 4  . .X. .4 ",
"6 P 3 6 H ^ ~ ( r * 8 / a   <.a q * e L * L E > e : 8 , e q 6 6 : I H 6 K T L ; 3 4 3 +.o.e ! / a O :.+ ] . 5.r ~ P H T T 6 4 6 ",
"H H H T 6 6 e / ! p X q 8 + q 9 : , H - > 6 ; H - 6 6 e ; L 6 6 Q 4 H Y E 3 I 4 F ; H 6 I ~ ~ q X 9 y 9 w R Q P 3 6 D - 4 6 6 6 ",
"H 6 4 ~ E e 6 e : : L q I q , , r I ~ 6 H ; T ; 3 6 L ~ I e e 6 4 ; ; H 6 ; +.*.+.X.e 6 e : 6 e w q r > : 6 : ; ; % - S 6 6 6 6 ",
"P 6 > H R H e - : : - : ~ : P e e 6 E Y T 3  .4 4 T L 4 6 - ^ 4 *.T 3 = 6 #.H 5.X.T ; ; L : : ~ R ~ w e #.6 - ; H H H H 6 6 e 6 ",
"E E H 6 6 = ; 6 S ; 6 3 o.Y 6 * 6 6 : ; W 3 | &.; W 4 6 4 6 ~ 3 *.X.W D ` W X.| Y ; e ; H - e - E O.Y 3 ` -.4 4 J ` Q : 6 E ~ q ",
"E E : H T Q P H P o.^ % ^ T - 5.I e ; 4 4 ; W +.; 4 Y #.E L - 6 } X.{ K S _ @.; L - W P P H = e = 4 Y 6 +.&.| -  .P 6 4 E I e 6 ",
"- U 6 E T ~ 4 > - Q _ Q = - T Y 6 6 Y @.*.*.J W 4 Y 5.W 6 ; e ; o.J X.K D ; H 6 - @.T H ; - e = w = F 4 - W | ;  .= 4 6 3 6 e e ",
"; 6 ; > 6 6 3 6 3 6 6 Q E - - > L R P 6 F *.*.Y 4 o.| I 6 - 6 6 P W J J 3 ; 6 e : e : ; - e : , = D ; { S ; J W -  .5.` @.4 6 6 ",
"H o.H 6 6 4 6 6 : 6 - - : 6 ; - & 6 Y 6 6 W ` W ; 6 6 6 e e w : 3 P ^ 4 ; H > e I : = - : ; : : - ; o.*.&. .W D  .*. .D 3 > ~ 6 ",
"w @.6 Y E - e 6 E Y 6 - 5 & 6 ^ : - 6 : 4 3 H ; 6 - - e e : e 6 _ J - ^ e - : @.| ~ 6 q : , * : H 4 D P O.%.@.J  .Q H D 4 T E 3 ",
"6 H 5 e ^ T 6 e 6 E ~ I e e e E ! 5 - - H 5 > 6 6 e e e > q : : = W 6 ^ I I e 6 Q ~ > 6 : e - E 4 > - 4 I |  .W o.J ; Q T E 6 ; ",
"4 - 6 6 6 ~ 6 : : 6 e : 6 6 e I ~ 6 : 5 6 : 6 e & w : * q , - - 6 6 : I ~ * 6 6 3 P E e q : - ~ Q - H 3 3 ; - H 4 3 3 ; 6 e 6 6 ",
"6 6 6 L - 6 S e - : 6 e 6 6 6 6 E e 6 6 6 - & 5 : : * e ~ ; - > 6 6 e e ~ E 6 6 6 F e : L : ; 6 Q ~ H - 6 H H ; : 6 L 6 6 6 : : ",
"e e : > > * H L 6 E Q P : > T H 6 - 6 Y ~ 6 e : e q e / ~ , - H : 6 6 6 3 ~ 6 P H ; - 6 ; 6 I e - H = +.o.3 4 6 6 ; : e e : : e ",
": e > - - L = S - 6 T | ~ 3 T T 4 4 Q Q | 6 e 6 ~ e q ! ! : , - w q 6 - - 6 6 ~ - H 4 +.- 6 Q E H D H W o.4 6 - E L 6 ~ r , q * ",
": > 6 : : 6 6 6 D o. .*.| ; ..J D {  .+.; 4 H P P e 6 : ~ r q : : 6 : : : 6 6 : D  .` *. .6 @.W 4 } } } ; 4 4 Y I 6 , e ~ e : : ",
"I I e : , : > E ; D P | *.J ; D X.X.X.&.| ; 4 E ~ & R e , > : e e E L e = : e E T 6 4 | *.T 6 ; X.} &.*...; 3 E E e q * , , , e ",
"I U 6 : - - 6 T T H % D ; | H P G %.&.> - - e ! e e ; : e 3 3 6 E E % > : 6 ; > = - = - ; ; ; H : 3 H 4 H 4 6 : q , e e L 6 = 6 ",
"E ~ L : 6 S e 6 ; ; 4 Y T Q T P  .{ H = 6 : : r e 6 H ; ; 4 P _ E E : : : 6 - 6 - ^ H - - : > e : E : e 6 ; ~ q : 6 e : 6 6 6 I ",
"E Y : - 6 L L 6 6 L 5.5.@.- E : - > = , : e : e E Y L } D ; -.*.Y R e - : 6 : E : Q L L , - e : e e I e 6 @.Y P 6 : 6 6 e e 6 T ",
"Y 6 = L Q R e 6 H o.o.r e e : e L L ! ~ ~ e : - - E J W ..4 ; ..Y 6 - - e e L ! e L I I e : * r 6 : +.6 ; 7.6 3 6 - & 6 : 6 6 ~ ",
"6 4 H P ~ U 6 6 = 6 e S : H : e S P P 4 6 - 3 - 4 6 H _ | : 6 6 H P - T P 6 E E 6 : e L : , : e 3 W ` +.W J J F 3 6 6 6 6 6 3 6 ",
"4 ; 6 6 6 6 : - 6 P R W D - H ; J W 6 = S H H Q ~ - 6 4 6 ; e 6 ; K 3 O.Q 6 I : H > : S - ; ~ @.5.} G  .J G K _ +.#.~ 6 & e e ~ ",
"; 6 R 6 L : 6 = 6 3 ; Q L D H ; 4 - ; H : ^ ~ E R ; T 6 ; Y *.; D ; S &.P 3 ; H H 6 ; ^ : 6 e > J -.} G K K _ -.W 3 6 6 6 q ~ ! ",
"#.T Q 6 = ~ Q - 6 6 D ; K ; ; &.6.&.` H ; S q ! ~ L > 4 W *.%.D  .} K &.4 4 - P T 6 ; | L H ^ 4 D D X...G ; X.T 4 6 ; 5 : e I e ",
"O.^ - e ~ ~ 6 - 4 5.J 3 ; ; X.{ %.{ W H - ; > - L E 6 4 5.o.3 ; | %.| K T 5.6. .; ; H m m m m m m m m T W ; H 6 6 e : * H w 6 6 ",
"- o.6 - e - - 6 S *.6.T ; X.J  .O.W ; 3 ^ ~ > ; 6 4 H ; | T 3 H ; K &.K 4 ; 6 = m m m m m m m m m m m m m 6 * e e ! e 6 H 6 - 6 ",
"4 > H e : : - - H ^ +.O.; ; I o.6 6 6 S T 4 - H _ +.| 3 D D - D ; ; ~ Y R.R.R.R.m m m m m m m m m M m m m m : q : E ~ e ; 6 ; W ",
"5.H H E L - : : - ; R.R.R.R.R.R.R.R.R.R.- -  .7.*.} } 4 D } 7.R.R.R.R.R.R.R.R.m m m m m m m m 3.[ 3.m m m m m m 5 e Q E ; ; W *.",
"6 ; 6 T I ; S 6 - R.R.R.3.3.P.R.R.[ 3.R.R.R.- : H = H R.R.R.R.R.R.R.P.R.R.m R.m m m m m m m 3.3.3.m m m m m m m m : 6 T 4 H X.-.",
"6 - 6 H ~ ~ 6 R.3.R.3.3.R.3.R.u M R.R.R.R.R.R.R.E P R.R.R.R.3.3.[ R.2.3.m m m m m m m m 3.3.3.m m 3.3.P.3.m m m m m 6 6 ; J -.G ",
"D L D 6 - e R.R.R.3.3.3.3.3.R.u m R.R.R.R.R.R.R.R.R.R.R.R.R.R.R.3.3.3.3.m m m m m m 3.3.3.3.3.3.3.3.3.m m m m m m m m ~ > Y | 4 ",
"4 Q 4 T R.R.3.3.3.3.3.3.3.3.u m R.R.R.R.R.R.R.R.R.R.R.3.3.3.3.R.R.3.m m m m m m m m 3.3.3.m m 3.3.3.3.m m m m m m m m ! ; Y 6 6 ",
"T : m u u m m 3.3.y y y 3.3.m R.R.R.3.R.R.R.R.R.R.R.R.R.3.3.3.3.3.m m m m m m m m m m 3.3.3.m m 3.3.m m m m 3.m m m m m 4 6 6 6 ",
"D X X X u m m m 3.3.3.3.3.3.3.3.3.R.R.3.R.R.R.R.3.3.3.R.3.3.3.3.3.m 3.3.m m m 3.3.3.3.3.3.3.3.3.3.3.3.3.3.3.m m m m m m 3 & - - ",
"*.u X u u u m m 3.m m 3.3.3.3.3.3.R.R.3.3.3.3.R.R.3.3.3.3.3.3.3.3.3.3.m m m m 3.3.3.3.3.3.3.3.3.3.3.3.3.3.3.3.m m m m m m e 6 e ",
"*.u y u u u u m m m 3.3.3.3.3.3.R.R.3.3.3.3.R.R.3.3.3.3.3.3.3.3.3.3.3.m m m m m m 3.3.3.m m 3.3.3.m m m 3.3.3.3.m m m m m ~ R e ",
"W u y u u u u m m m 3.3.3.3.3.3.3.3.3.3.3.3.3.R.3.3.3.3.3.3.3.3.3.3.3.3.m m m 3.m 3.3.3.3.m m 3.3.3.3.m m m m m m m m m m m e e ",
"= u y u u u u m m 3.3.m 3.3.3.3.3.3.3.3.3.3.3.3.3.3.3.3.3.3.3.3.3.3.m 3.3.m m 3.3.3.3.3.3.3.3.3.3.3.3.3.m m m m m m m m m m & q ",
"3 u y y y u u u m m m m 3.3.3.3.3.3.3.3.3.3.3.3.3.3.3.3.3.3.3.3.3.3.m m m m m m 3.3.3.3.3.3.3.3.3.3.3.3.3.m m m m m u u m m m e ",
"4 | u u u u u u u u m m m 3.m m 3.3.3.3.3.3.3.3.3.3.3.3.3.3.3.3.3.3.3.3.m m 3.3.3.3.3.3.3.m 3.3.3.3.m 3.3.3.m m m m m u u m u e ",
"T ` E u u u u u u u u u u m m 3.3.3.m 3.3.3.3.3.3.3.3.3.3.3.3.3.3.3.m m m m m 3.m m 3.3.3.m m 3.3.3.3.m 3.3.m m m m m m u u u : ",
"= e 6 6 H e 6 e 6 e L u u u u m m 3.m 3.3.3.3.3.3.3.3.3.3.3.3.3.3.3.3.m m m m m m 3.3.3.3.3.m m 3.3.3.m m m m m m u u m u u u : ",
"e 6 e L e > 6 : e r e 6 = - u u m m 3.3.3.m 3.3.3.3.3.3.3.3.3.3.3.3.3.m m m m 3.3.3.3.3.[ 3.3.3.3.3.3.m m m m m m u u u u u : : ",
"6 6 I P > 6 ~ ~ 6 e Y 6 : - > u m m m 3.m 3.3.m 3.3.3.3.3.3.3.3.3.m 3.3.3.m m m 3.3.3.3.P.3.3.3.3.3.3.3.m m u u m u u u u : ; q ",
"> 6 5 : - ; H r 6 : e 6 = S Q 4 6 m m m m 3.m m 3.3.m 3.3.3.3.3.3.m m m 3.m u m m 3.3.m m 2.m m 3.m 3.3.3.m m u u m u u e : 6 q ",
": 6 - 6 : 6 e ^ H 6 6 | = 3 Y ~ 6 e r m m m m 3.3.m m 3.3.3.m 3.3.3.m m m m u u m m 3.m m 3.3.m m m m 3.3.3.m u u u u E Q : - : "
};
