/* XPM */
static char *_cfa0244749f4776b53a0c83080c3695se5WohIXHi00KIOc[] = {
/* columns rows colors chars-per-pixel */
"64 64 46 1 ",
"  c #080A14",
". c #090A14",
"X c #090B14",
"o c #1E3616",
"O c #1F3616",
"+ c #1E3716",
"@ c #1E3617",
"# c #263A16",
"$ c #273A16",
"% c #263B16",
"& c #273B16",
"* c #263A17",
"= c #263B17",
"- c #273B17",
"; c #241526",
": c #241527",
"> c #251527",
", c #341C27",
"< c #351C27",
"1 c #4D2A32",
"2 c #4C2B32",
"3 c #4D2B32",
"4 c #4D2B33",
"5 c #2D4217",
"6 c #2C4317",
"7 c #2D4317",
"8 c #344D1A",
"9 c #354D1A",
"0 c #344C1B",
"q c #354C1B",
"w c #344D1B",
"e c #5E761F",
"r c #5F761F",
"t c #5F771F",
"y c #476820",
"u c #476920",
"i c #476821",
"p c #466921",
"a c #476921",
"s c #7A4840",
"d c #7A4841",
"f c #7B4841",
"g c #AD7756",
"h c #AD7657",
"j c #AC7757",
"k c #AD7757",
/* pixels */
"O%%%#22222222fffffdddd222222fffdggjjjjjjjjjgggh4,kdfdddjjj&%q%#o",
"%%%%$32222223ffff22fdd22222222fghfddfjjjjjjjgghh2,ddddddddgg&%o#",
"%%0%33332f2222ff22ddd2223344222dfffdjjjjhjjjhfjjk2dd>>>ff22<,2#%",
"000%333322ffffffdddfddfff334ff2dffddjfffhjjjfhhffddddddf224<   0",
"i0%222332fffffffdddfddfff3333fssddddfddjjffdsjjfddfdf24f22,,, ,0",
"0%%22233ffff222fdf22ddd233333fffddddffdfjjfdffjjdddddd422,,,,;,0",
"%%22222322222fffd22dddd2f333sfffdddfddddjfddddfddddddd222,,,,;,%",
"%%2222332222ffffddfdddddf33ff2ffdddddddddddddddfdddd2ff22,,,,;,0",
"0333,,22222ffffffddddddd222222ddddddddfdddddffffffff2222,,,;::,0",
"0,3,,22222fff2ffff2fddffff22fddfdddddfddddddffff22f222,,,,,,,,0%",
"0,<<222222ff2dfff22ddd22f22222ffddddddddddddf2fff22,,,,,,<<<,0%%",
"$,<,2,,222222fff22fsddf222222fffffdddsddddddf2f22,,,,%0qq$%q%%%%",
"$%<<,,,122222fddfffsfffff4442fffdddddddddd2fff22,,#Oqiietw%%%%%0",
"q%%<,,,1,,22ffddffffffff222fdd2fdddddddd2df2f222,w*O@%%itt%%%%0t",
"%O%O,,2,,22dff2d22f22ff22<4f222ddfddd2ff22f2222%0e%%%@%%wip%0ttt",
"%%%O#,,,,2ddf2222ff22f22<<4222ddd2ddd22ff2222i%0ee%%%%iiw%%wppt0",
"%0%%%,,,,22222444ff22244,,2,22d222ffff3fd2220%%ipp%%0peu%%%pppp%",
"%0%%%w,,<22222222f22<23<,,,,22222ff3f333222pp%0i0%%%eep000%000%%",
"0%%0%%,,<,22,22<222<<<<<,,,,,2,22333f223 X%%000#%%%%%000%**%%%%%",
"%%%00%%,<<2,,24<<<<<<<<&%%,,,,,,<32222>3XX%%%%##%%%%***O%O+*%%%%",
"0%%%0%%:,,,<22,,%%00q%u%%ww%%%::><<222..X **%%%q00%%p%#O%%0%%%%%",
"00%%%%::,,,>:;%*%%%%q%ut%w%%%-0:,<22> ..X X*%o#@0p0%it%%0p0%%w0%",
"08%%ww:<,,::00%pq%%%%%0e-%0e0-:,,,2>>X..  XXq%#o%%0%iti%p8%%00%%",
"+8%0ww:,::: OO00%%0ptt00%0e0%%:,22>>$*...    %oo%%%%%wi%p%%%%%%%",
"%%%%%%;::   0OOO%00%qtt0%pp%%;:,2>:0%%%%   XX*o#%%%p%%ww+ptuu%%%",
"%u%%%%%;::  #+*O%%%%%qp0%%%%%;::>>q%%%%%%%XX Xo#O%pttuwwptu%%%w%",
"7u%q0%%;:::  +%0OO%%%%%%%%%%*;::>>%q%%%ip0XX  $$%%%0ptp0pu%%%ww%",
"%%%%00%%:::   %0qO++%%%%%%%%*:::%0$qq%%%0q*X   q%%%%%pp0u%%8ww%%",
"%%%%%w%%++X   %00%%%%+%%*O+OO;;;%%%00%%%%ww%   00%%%%%%%%%%%%%%+",
"%%%%%%*OO-%%--%%0%%%%+++OO+%0OOO%%%%00%%%%%%-%%%00%%%%%%%%%*%%#+",
"%%%%#@O0%www%%0%%%%wq%%%*%%00%+*%%%%%0%q%%%%+%0%%%%pp%%%%%%%**O*",
"%%%+O***%%wp0%00%%wwu%%%0%%00++#%%OOO%%q%%%p+%00%%00p%%%0%%00OOO",
"+##++%%%*ppep%p0&puu%%%00%%%0*+#O%%OO%%%%ppep%i0%ppp%%%qq%%%0%OO",
"#0##++%w**0pe0%%upeeu%%q0%%%*++%%0%%OO%q0%%pe0%%ppeep%%qq%%+%OO%",
"00##++%w0%+#%p%0qee%++#q%%%%*%#%00++O%%%OO++%%%%%%%*%%%%%%%%%%%%",
"00#+##%%%%+000q0pu%OOO+#%%%%%%0p00O%OOOOO0%%%O%%%%%%%%0%%+%%%%%0",
"0w%%%%w%%%eei%qO%#o++%+#000u**ee00++O%%0%00%%O+%%%w%%pq%%OO%%%%0",
"w%%%00%%%uu0%%%%%%000%++%0w0p**p0-@+%%-0%%0w%++%%*i%%t%%%%O+%*%0",
"%%%w00**%%%%%%%%*00*%+++%%%pp*%%%w%%0%00%%%-OO-%%witq00%%%%%+%%%",
"%%%%%#+*%000%%%%00**##000%%%#%%%%w%uw%0%-%%%O%0ueiwiq00pep0-+%%0",
"%%w%%+%+%%%0q%%%%%%%%000w%w%%qt%%--e0%%%%%%w%%%%0tu000pew%%%O%00",
"pww%%w0+%%%%0%%teeu%%%%0w%%%qtt%uuwt%%%00%%u%ww%-0uu0%p0%-%OO-0%",
"pw%%00%+%eq+%%ppeu0%#%*Oww%%tp%%ptuw0tep%%%uww%%-%0q0%%%%%OO%%%%",
"%p%%###+%et0%p0pp0%%00*O%%%%pq%%=0tw%%%%%%--ww%0w%%%%%%%%w%%%--%",
"%%%%%+++%ppp%%qp%%%%0++0iii%%%%%%%00%++@%%0p%%p0%%%%%-+@%w0%%%%0",
"t%00%+++O%0pq%pp%%%%++ueepu%%pttt%**+O%%O+%0p0p%%+%%0%-++%q0%%0t",
"%+%00###%%%q8%%%pp0+OOO%%%%%ptt0%O*%O%%0%OO%00%%%+%00%%%+-%0%%tt",
"%%##q0##%%%%%%%qpeep%%%%000%%%%%%%OOO%%00*O%%%%++%%00%%%+%%%%0t0",
"%0%%%%%%+O%%%%%OOOO+++*00#%%%%%%%w%%%%%%0%%u**@+%%%%q%%%%%%0%wu%",
"%0%w00%%OO+%+OOOO%%*++**#0%%%%%%%ww%%wp%%%ut**+*%0%%%%q%%%00%0%%",
"w%%pu*%%00w%O%OOOO%O+**0%80%%%%%w%ww%%wp0%e0**+@%w0%%wi%%000%%%%",
"%%%%%%%00%%+%%%%%OOO@*00%%0%%%w%%%%%%%%tu0u0##*O%%00%wtp%0%%#+++",
"ttp%%%%%%%%O000%%%O%%%wi+#0%%0w%t0%%00%%u00%pp0%+%%w%wtt%%-%**%%",
"tupu%ppeep%O+%00%*O0%%p%%%%%p00%ttw0%upw%0800%%%+%%%%%we%0uep00%",
"0up0%00pO%%O*%%00*#ww%%+%*%%pp%%ppw%%%tu08%8*%*#+%%%wwwp0uep0%%%",
"#0p+*0uOO%*%O+%%***wp%%%upep%%%%u0%%%%%%08%%*OO+%wwpetpw0000%%OO",
"%%5w0%+%pp0%%O%%%%%%iu%uee0%%%%%%q%%++##%0%%%%%+%%%%%000=+%%OOO%",
"%pei%%%u00%0%O%p%%%%%%%ue%%pp00%%p##+++#%%%O%%%%OO%-%*O#O+%%%%0%",
"5p6%%%%%%%%%*O%ip%%0uttq%%pteep%qp%#O%+O%%++O%0%%OO%%O+%0+O%%%0%",
"%%%666%%%66%O+*ip%qttpii%%p0pp%O%%%%%0%OOOO%%%00-%O@OO%w0%OO%%%O",
"%%55%%%%%66OO+#u%%%0ptuu0%00u*%O##*O%0%%%+0%-%-0%%%O+%ww0%%+%%%+",
"%*w%%%00%%0O+*%%%%%%%%%%OO%%%%OO##*O%00%%%0%%%%%0%%%%%w%%%%+%%OO",
"##%%O%%0%%%%+%0%%%%pp%%%%%%%%%+##%%#+0%0%%00+%0%%%%pp%%%%%%%%%O%",
"*##%O%%0%%%u+%00%%q0p%%%0%%00O++#%%++%%0%-%p+%00%%00p%%%0-%00OOO"
};
