/* XPM */
static char *_0834_942994ee48985c4ae6891e43745ada5a2674dc5cce91de0355a70b33d74026b3[] = {
/* columns rows colors chars-per-pixel */
"64 64 193 2 ",
"   c #020101",
".  c #010A00",
"X  c #160202",
"o  c #081103",
"O  c #10100E",
"+  c #090A14",
"@  c #121C17",
"#  c #270000",
"$  c #330100",
"%  c #281010",
"&  c #0E2901",
"*  c #132A03",
"=  c #152A0A",
"-  c #163403",
";  c #1A3205",
":  c #1F3804",
">  c #1B330B",
",  c #17380D",
"<  c #1F3113",
"1  c #372505",
"2  c #36260B",
"3  c #392E0C",
"4  c #233502",
"5  c #233C04",
"6  c #27310C",
"7  c #223A0B",
"8  c #353403",
"9  c #222413",
"0  c #22251F",
"q  c #382913",
"w  c #253114",
"e  c #223C13",
"r  c #2D3816",
"t  c #29391B",
"y  c #333410",
"u  c #241527",
"i  c #341C27",
"p  c #312222",
"a  c #302F27",
"s  c #353733",
"d  c #450303",
"f  c #431508",
"g  c #521F04",
"h  c #561314",
"j  c #76151C",
"k  c #462807",
"l  c #40300D",
"z  c #4E2314",
"x  c #53201F",
"c  c #443414",
"v  c #663319",
"b  c #691823",
"n  c #4A3820",
"m  c #533925",
"M  c #4D2B32",
"N  c #4A3335",
"B  c #692521",
"V  c #7A2322",
"C  c #7E2A2E",
"Z  c #673424",
"A  c #783121",
"S  c #7A382C",
"D  c #18410E",
"F  c #254004",
"G  c #2E4604",
"H  c #27400C",
"J  c #2D4A0C",
"K  c #35500E",
"L  c #2A4214",
"P  c #294A15",
"I  c #2D431C",
"U  c #284B1C",
"Y  c #334712",
"T  c #314A15",
"R  c #36431E",
"E  c #344C1F",
"W  c #375114",
"Q  c #35511E",
"!  c #304424",
"~  c #354B24",
"^  c #3A5226",
"/  c #384432",
"(  c #444314",
")  c #434520",
"_  c #534021",
"`  c #435D21",
"'  c #455E2B",
"]  c #55522A",
"[  c #444238",
"{  c #6E4128",
"}  c #436422",
"|  c #4A6321",
" . c #4A6428",
".. c #4D692B",
"X. c #536623",
"o. c #506A28",
"O. c #4B6331",
"+. c #436930",
"@. c #546B33",
"#. c #506638",
"$. c #536A3C",
"%. c #4D783A",
"&. c #587331",
"*. c #5B7539",
"=. c #676E38",
"-. c #627835",
";. c #3D3A40",
":. c #454546",
">. c #574445",
",. c #595244",
"<. c #4D4F50",
"1. c #565555",
"2. c #6F4C48",
"3. c #7A4841",
"4. c #665554",
"5. c #5C7540",
"6. c #5F7B40",
"7. c #637B43",
"8. c #7C6857",
"9. c #5D5C61",
"0. c #695E63",
"q. c #6C6668",
"w. c #767070",
"e. c #881B19",
"r. c #9D1522",
"t. c #AB1720",
"y. c #A41E25",
"u. c #AA1A26",
"i. c #B31729",
"p. c #B31C28",
"a. c #B41F30",
"s. c #892724",
"d. c #8C2925",
"f. c #88252E",
"g. c #992223",
"h. c #9B2129",
"j. c #96282D",
"k. c #873024",
"l. c #9C332A",
"z. c #992532",
"x. c #883331",
"c. c #983436",
"v. c #A82224",
"b. c #AC2A2D",
"n. c #A52130",
"m. c #B52730",
"M. c #BB2435",
"N. c #A83337",
"B. c #A53F38",
"V. c #B53235",
"C. c #BE353B",
"Z. c #C52435",
"A. c #CA3336",
"S. c #C43539",
"D. c #CE3039",
"F. c #D1383D",
"G. c #914C37",
"H. c #993544",
"J. c #AB2D42",
"K. c #B93541",
"L. c #C73541",
"P. c #935249",
"I. c #9A5B5D",
"U. c #B5494B",
"Y. c #886858",
"T. c #9A645C",
"R. c #A7635B",
"E. c #AD7757",
"W. c #A55D60",
"Q. c #996667",
"!. c #95696B",
"~. c #8E7A74",
"^. c #A4666A",
"/. c #A9777C",
"(. c #B77577",
"). c #C94547",
"_. c #D74C55",
"`. c #E35D60",
"'. c #D4696E",
"]. c #E66568",
"[. c #7F8778",
"{. c #88857C",
"}. c #918579",
"|. c #9D7E83",
" X c #8A8684",
".X c #958D89",
"XX c #9B9A9B",
"oX c #B99E9A",
"OX c #B2A39A",
"+X c #AE9FA3",
"@X c #B2A3A5",
"#X c #D69E9F",
"$X c #DDB7B9",
/* pixels */
"> ; w 7 * e w 6 7 W } %.+.: | ( 5 P @.| 5 5 5 T Q 7 > e ! t 2 2 1 g k f g h f k : +.+.%.+.: X.G F } } } 4 5 4 Q I P 7 , P , : > ",
"e H 7 w > , e 6 6 5 5 +.&.W F - ^ T H Q T 7 ; Q I 6 c a < e 9 8.Y.Y.8.8.Y.Y.Y.8.~ L e O.@.( 8 F | X.&.-.@.5 ; R I 6 > > e ; - D ",
"; 7 P e D , > > 6 7 7 7 7 : : e , < e e - , e ; t q f 8.8.{.[.[. X|.{. X X{.{.}.{.w.{.}.!.Y.2.P.g k F D 7 6 e e e < * 6 r w e e ",
"Q Y ^ e U D , , 7 * e > > e I , = L : > U E D r q h W.^.}.OX.XXXXXXXXXXX.X X X{. X.X|.|././.'./.P.G._ _ n l 6 > > 7 6 r w e e Y ",
"+.I 7 4 L Q H D e > , , , * = = < = D e : Q Y 2 ~.Q.I.^.oXOXOXOX+X+X@X@X+X+X+X@X@X@XOXoX$X$X$X#X(.U.H.f.f.h 3 6 ; 7 e R > ; e Q ",
"T 7 7 6 J P 7 Y c m 1 2 q c q p 1 1 3 3 3 c Z R.R.P.C f.I.I.T.Q.!.!.!.!.!.!.!.!.Q.!.Q.Q./.Q.^.^.s.l.n.u.y.s.A g 3 6 y ( E 7 5 E ",
"7 L Y T P : ( v j N.N.N.c.G.c.c.c.B.U.U.B.U.B.S.v.g.g.g.s.f.z.z.f.x.x.f.c.j.j.c.c.l.z.z.N.N.n.K.N.J.a.L.a.b.b.l.A g k ( Q 7 4 7 ",
"7 6 6 5 ( 1 G.B.V.S.L.L.U.'.'.`.]._.S.S.A.S.A.D.Z.S.m.V.N.V.L.S.V.B.N.V.C.m.).].].]._.`._.K.K.'.K.K.L.L.K.M.L.M.V.l.A k Y 5 7 T ",
"~ ; 8 k g G.M.K.F.V.j.C S x.c.).L._.D.D.Z.S.A.A.A.S.C.C.S.S.D.D.S.S.C.C.S.A.S.).).).B.L.L.K.K.U.z.V V k.r.K.L.S.D.V.g.x.k F Q P ",
"~ ) k P.B.V.S.K.r.s.d X X # B x.J.M.Z.Z.Z.A.F.D.S.S.C.C.S.S.D.D.S.M.m.u.i.i.i.v.g.v.v.v.a.K.'.H.h # X X B s.J.C.D.).).d.k Q P D ",
"R n { g.A.D.K.z.b f z N p X 2.h j z.m.Z.u.u.t.t.t.g.v.y.h.n.y.t.u.u.y.u.y.u.u.u.y.y.t.p.u.z.V h z O [ % m $ j C.L.Z.J.x.k R - D ",
"7 c B e.a.M.n.j $ :.  ;.;.@   N $ C r.J.p.u.t.v.v.v.y.y.y.y.y.y.t.u.u.n.u.u.u.t.r.v.u.y.z.H.# >.X O ,.p 9 4.d H.K.K.n.x.2 H H , ",
"7 3 k h z.j.j.h p ;.@ <.;.<.u N % B z.M.a.i.u.t.r.v.p.i.i.t.t.u.u.p.m.m.a.p.p.p.m.p.p.m.b.B % p X p 1.1.@ 4.x b J.N.c.S 3 5 y W ",
"~ y m $ j z.C h >.0 :.1.w.w.1.N [ $ h.u.a.M.a.b.b.b.m.M.Z.M.m.m.m.m.m.m.a.a.M.m.t.m.b.b.z.# 4.0 s q.0.q.1.p 2.h f.j.A k 8 H 8 =.",
"> : 9 f j z.f.h >.:.<.q.4.0.>.>.m $ V g.n.n.b.m.b.b.m.m.p.m.b.b.b.b.v.u.u.u.y.y.v.v.e.g.C X 1.:.<.q.9.q.2.M 4.2 B Z _ 8 K &.-.-.",
", 5 6 1 A b C $ s s O >.>.4.0 0 9 m B V A V k.d.k.d.d.s.d.d.k.k.A d.d.d.s.d.k.A k.k.k.A g 8.0 0 + a 1.1.q [ p ] m 3 8 ( | | -.G ",
"> ~ 7 6 2 l l p @ [ o s s . . [   w 2 2 n _ 2 1 1 l 2 1 2 2 l k c n 1 c 1 _ c 3 1 c ( ] ( 6 . /   @ :.@ 9 ,.  5.w 6 5 O.o.@...: ",
"H L 5 7 H ^ ~ ( r @ 9 / s   <.s w = e L = L Q > e > w < e w 7 7 : R 7 7 J T T 4 4 7 4 o.' e ! / s + :.@ [ . $.t E T 7 T T H 5 H ",
"H H H T 7 7 e / ! a o w 9 @ w 0 > < H - 7 7 , H - 7 > e : e 7 7 ~ : H T Q 5 L F F 5 L 7 ! ~ ~ w o 0 0 9 t R Q P ; H F - 4 7 7 7 ",
"H 7 5 ~ T e e e > > I < I w < < t I ~ e 5 ; T 5 4 7 L ~ I e r 7 5 : 5 7 7 4 $.*.@.o.7 7 e > 7 e t w w t > 7 > 4 4 & - D H 7 7 7 ",
"P 7 7 D R H e ; > > ; 7 ~ > L L e 7 E T T 4 ..5 5 T L 5 7 > ^ 5 *.K 4 - 7 #.H *.@.T : : L > 7 ~ R ~ r e #.7 - : 7 H H H : > L : ",
"E E H 7 7 - : 7 , 4 7 : O.T 7 ; 7 e : 5 W :  .&.: W 5 H 4 7 E 4 *...W F  .W @. .Y 4 H : D ; 7 ; ~ ' Y 4 ' *.F 5 J ` ^ ; H E ~ < ",
"E E > H T Q U 7 P ..^ & ^ T - $.I e ; 5 F 4 W @.5 5 T $.Q L 4 7  .o.} K D ` #.; I ; W P T H - e ; G Y 7 @.&. .- ..T 7 5 E R e , ",
"; U 7 ~ T Q : 7 - Q ' Q - - T r 7 7 Y #.*.*.J W 4 Y 5.W 5 > e ; ..J ..J 5 5 H 7 ; #.P H ; > e - r - F F ; W  .: ..- 5 7 5 7 e e ",
": e 5 > 7 7 4 7 5 7 7 Q E - - 7 r R L H G *.*.T 5 O.O.L 7 > 7 7 T W J J 4 : 7 e > < > : > D > < - F : } D 5 J W - ..5.+.O.; H > ",
"H ' H 7 7 5 7 7 > 7 ; ; > 7 7 ; * 7 L 7 7 W ' W 4 7 : 7 e e e > 5 L ^ F : H : e L > ; - ; 7 > > ; : O.*.&...K F ..6. .F 4 7 ^ H ",
"r O.7 T Q ; L 7 E Y 7 ; > * 7 ~ : ; 7 ; 5 4 7 4 7 > > e e > e , ` J ; ~ e ; > #.O.E 7 w > < ; : H 5 F P +.@.#.J ..~ H F 4 T E : ",
"7 H 6 e ~ T , 7 7 E ~ I L e e E ! 7 ; ; 7 6 7 7 7 e e e > w 7 > - W 7 ^ I R e , Q ~ e 7 > e = ~ 4 D ; F I  .@.W O.J : Q T E 7 - ",
"5 4 7 7 7 ~ , > > 7 e > : 7 e I ~ e : 7 7 ; 7 e ; w > = < < ; ; 7 7 > I ~ > : , 4 T R e w > ; E Q ; H 4 5 ; - 7 4 4 4 > 7 e 7 7 ",
"7 7 7 L ; e L 7 * > 7 e e 7 7 7 E e 7 7 7 > * > > > = 7 ~ : ; > 7 7 e e ~ E 7 7 7 G D > I > : 7 Q E H ; 7 7 H 5 : 7 L 7 7 7 > > ",
"e , < D , > 7 L 7 E Q P > 7 T 7 7 ; 7 L ^ 7 7 7 e w e / ~ e ; e > 7 7 7 4 ~ 7 I 7 5 - 7 : 7 I e ; H - @...4 4 7 7 ; > e e > 7 w ",
"> e , ; ; , , H 4 H P O.E 5 T T 5 4 ^ E ' 7 e 7 ! e w ~ ! > < ; e w 7 ; ; 7 7 ~ ; 7 5 @.- 7 Q ~ H F H W O.5 H > E P 7 ~ I < < = ",
"> D 7 > ; , , : 5 ....*.} F o.J D `  .@.: F H P L e 7 7 ~ t w > 7 7 > > > : 7 > F O.' *.@.: #.W 5 | | | : 5 5 Y I 7 e e ~ < > > ",
"I I w > w > L E : F T  .*.J : D X.o.@.&. .: 4 ~ ~ * Y e < > > e e E L e - > e ~ P H 5  .*.T 7 - o.| &.*.X.: : E Q e < = < < < e ",
"I U 7 7 - ; 7 Y P H & F 4 M M M M M M M M ; e ! e w ; , , 4 5 H ~ E & , > 7 : 7 ; - : - : ; 5 H 7 4 H 5 H : 7 : w < e e L 7 ; 7 ",
"I E L > 7 , e H ; 5 : M M M M M M M M M M M M M e 7 H : 5 H L ` E E > > > 7 ; > ; E H ; ; > D e > E > e H ; ~ w : 7 w > 7 7 7 I ",
"~ Y : > e e L 7 7 L M M M M M M M M M M M M M M E.E.E.E.7 : -.*.T I e ; > 7 7 ~ > E L e E.E.E.E.E.E.E.E.E.E.Y L 7 > 7 7 e e 7 T ",
"Y 7 - L E R e 7 M M M M M M 3.3.{ N M M M M M M M E.E.E.E.E.E.E.E.H ; - e , e ~ e L E.E.E.3.3.E.E.3.3.3.E.E.E.4 7 > * > > 7 7 ~ ",
"H 4 D T ^ U 7 M M M M M M M M 3.3.3.M M M M M M M E.M E.E.3.E.E.E.E.E.E.E.: ~ E E.E.E.E.E.E.E.M i E.3.E.3.3.E.3.E.7 7 7 7 7 : 7 ",
": : 7 7 7 , M M M M M 3.3.3.3.M M 3.3.P.M M M M M M M M 3.3.E.3.3.3.E.E.E.E.E.E.E.E.E.E.E.E.E.M i E.3.3.3.3.3.E.E.E.^ 7 * e e ~ ",
": H I 7 L M M M M M M M M 3.3.3.3.3.3.3.3.3.M M M M M M 3.3.3.3.E.E.E.E.E.E.E.E.E.E.E.E.E.E.E.E.M i 3.3.3.3.3.3.{ P.E.E.< < ~ ! ",
"#.Y ^ 7 - M M M M M M M M 3.3.3.3.M M 3.3.3.M M M M M M M M 3.E.E.3.3.3.3.E.E.E.E.E.E.E.E.3.E.E.E.M 3.3.u u u 3.3.M M i i M I e ",
"+.^ ; L M M M M M 3.M M M M 3.3.M M 3.3.3.M M M M M M M M M M 3.3.3.3.3.E.E.3.3.E.E.E.E.3.E.E.3.3.3.3.3.3.3.3.3.M M M i + + + 7 ",
"; O., ; M M M M M M 3.3.3.3.3.3.3.3.3.3.3.3.3.3.3.M M M 3.3.M 3.3.3.3.3.E.3.3.E.E.3.3.3.3.E.E.3.3.3.3.3.3.M M 3.M M i i i + p H ",
"; : H M M M M M M 3.3.3.3.3.3.3.3.3.3.3.3.3.3.3.3.M M M M 3.3.3.3.3.3.3.3.3.3.E.E.E.3.3.3.3.E.E.3.3.3.3.3.3.M M M i i i i u i W ",
"5.L H M M M M M 3.3.3.3.M M M 3.3.3.M M 3.3.3.M M M M M M 3.3.3.3.3.3.3.3.3.3.3.E.3.3.3.3.3.3.3.3.3.3.3.3.3.M M M i i i i u i *.",
"5 : M M M M M M M M M M M 3.3.3.3.M M 3.3.3.3.M 3.M M M 3.3.3.3.3.3.3.3.3.3.3.3.E.3.3.3.3.3.3.3.3.3.3.3.M 3.3.M M i i i i u i -.",
"7 - M M M M M M M M M M 3.3.3.3.3.3.3.3.3.3.3.3.3.M M 3.3.M 3.3.3.3.3.3.3.3.3.3.3.3.3.3.3.3.3.3.3.3.3.3.M M M M i i i u u u i J ",
"F M M M i i M M M M M 3.3.3.3.3.3.3.3.3.3.3.3.3.M M M M M M 3.3.3.3.3.3.3.3.3.3.3.3.3.3.3.3.3.3.M M 3.M M M i i i i i i i i O.5 ",
"5 i M i i M M M M M 3.3.3.M 3.3.3.3.M 3.3.3.3.3.3.3.M M 3.3.3.3.3.3.3.3.3.3.3.3.3.3.3.3.3.3.3.3.3.M M i i i i i i i i i i Y 7 7 ",
"W i i i M M M M M M { 3.M 3.3.3.3.M M 3.3.3.M M 3.M M M M M 3.3.3.3.3.3.3.3.3.3.3.3.3.3.3.M 3.M M i i i i H ..5 5 ^ T E 5 7 7 7 ",
"5 i i i M i i M M M M M M 3.3.3.M M 3.3.3.3.3.M M M M M M 3.3.2.3.3.3.3.3.3.3.3.3.3.3.3.3.M M M i i Y T 4 W 7.` 4 J 4 H 4 * > ; ",
"*.*.i i i i i M M M M M M 3.3.3.3.3.3.3.3.3.3.3.3.M M M M 3.{ P.3.3.3.3.3.3.3.3.3.3.3.M 3.3.M M i 6 L T 5 K &.&.F : 5 7 : H 7 e ",
"*.| ` i i i i M i i M M 3.3.3.3.3.3.3.3.3.3.3.3.M M M 3.3.3.M 3.3.3.3.3.3.3.3.3.3.M 3.3.M M M M > 7 7 4 F 4 G &.: G o.5. .! R e ",
"K  .o.J i i M i i M M 3.3.3.M 3.M M 3.M M 3.3.M M i M 3.M M M 3.3.3.3.3.3.3.M 3.3.M M 3.M M M > = e 7 7 J W J X.K X.X.@.T ; e e ",
"- K } : - i i i i M 3.3.3.M M M M 3.3.M M 3.M M i i M M M M 3.3.3.M 3.3.3.3.M M 3.3.M M M M 7 > > ~ E #.*.*. .J G W W T 7 e * < ",
": 4 H T T i i i i M M M M M M M M 3.3.M M M M M i i M i M M 3.M M M 3.3.3.3.3.M 3.3.M M 7 H 7 ; e 7 e 7 5 L E T : 4 H 7 , * 7 e ",
"F O.*. .7 ; i i i M M M M M M M M 3.M M i M M i i i i i M M M M M 3.3.M M 3.M M M M M ; e , e > = > 7 7 e e 7 > : - < 7 7 7 I e ",
"Y ' T 7 5 P i i i i M M i M M i M M M i i i i i i i i i i M i M M M M M M 3.M M M M > > > e ~ e 7 5 ; ; e ; = e ! = < > e e E > ",
"; , , 7 H L > + i i M i i M M i i i i p i i i ..4 ; i i i i i i i i M M M M M M M > 7 e > L I E ; 7 7 > > > r ~ ^ w > < r e e > ",
"L 7 L L e 7 7 + + i i i M M i u H H : ~ ' &.@.} W H H T O.5 7 > i i i M M M u u 7 - r e 7 7 7 E 5 7 7 - ; > ~ I R e < > e > > > ",
"7 , I L > 7 ~ + + u u i i i u e : : > T : : F F - 4 H H H , > ; u i i M M u + + + 7 ^ : 7 7 7 7 R 5 7 7 e 6 ~ e > e 7 ; e > ; w ",
"L 7 > > ; 7 + + + + u u i i i u H - : ..' : 7 : 5 5 ; ; e , ; , u u i i M M u + + D E I ; 7 ^ : L 5 7 ' O.7 7 : 7 7 7 : e > 7 w ",
"> 7 ; 7 > e + + + + + u u i i u < L L T #.: 7 7 T F , Q / > > , < u u i i u u u u : : $.; 4 Q T ; r Y E  .5 7 : ^ 4 7 E ~ > > : "
};
