/* XPM */
static char *_3994_81670ccafd91a0a3b8296c63fe25f8caf10af17dcf505155a286d22e694975bb[] = {
/* columns rows colors chars-per-pixel */
"64 64 56 1 ",
"  c #090A14",
". c #090B14",
"X c #1E3616",
"o c #1F3616",
"O c #1E3716",
"+ c #1F3716",
"@ c #1E3617",
"# c #1F3617",
"$ c #1E3717",
"% c #1F3717",
"& c #263A16",
"* c #273A16",
"= c #263B16",
"- c #273B16",
"; c #263A17",
": c #273A17",
"> c #263B17",
", c #273B17",
"< c #241526",
"1 c #241427",
"2 c #241527",
"3 c #341C26",
"4 c #351C26",
"5 c #341D26",
"6 c #341C27",
"7 c #351C27",
"8 c #341D27",
"9 c #4D2A32",
"0 c #4C2B32",
"q c #4D2B32",
"w c #4D2B33",
"e c #2D4217",
"r c #2C4317",
"t c #2D4317",
"y c #344C1A",
"u c #344D1A",
"i c #344C1B",
"p c #344D1B",
"a c #354D1B",
"s c #5E761E",
"d c #5F761E",
"f c #5E761F",
"g c #5F761F",
"h c #5F771F",
"j c #476920",
"k c #476821",
"l c #466921",
"z c #476921",
"x c #7A4840",
"c c #7A4841",
"v c #7B4841",
"b c #7A4941",
"n c #AD7756",
"m c #AD7657",
"M c #AC7757",
"N c #AD7757",
/* pixels */
"o==oo====ikgz=zp=pkz=>>pp===i&oo#==oX>===zjgz=zp=zzj=>=ap===a=oo",
"=-=;+o===&=kgp&=ppppa>=pp===ooo==a=&Xo=ip==zgi==zjggz==pp=oo&oo=",
"==p>=#X##=============>===Xooo==apo#o=======&==p-==>===-=oo=====",
"ppa=u>==Xo-=oo>-o====p=====oXopzppo==&====&=p==p-=ppp===o#===&=p",
"zp==pp==>Oo+oooooo===pp=====ozggppoo=ppp====g&pu=pp==Xoo#==p=-=p",
"p&===p=iapo+#=oo#o===pp=>=p==o=za==o#=&pp==zgpp&=p===oo====pp==p",
"==ppu,pp-oXo-==oo===u=pp=-z=-o=&&==Xooo==p=zgz=-====oooo===pp===",
"====u===o#&==p====ooz===&gz=-====&ooooo+===pzp==&===oooo=p==p==p",
"p&=>====o===pp==&==ozg>=zgp===pup==oo==pgggzup=pzggoooo==p====pi",
"pp====ooo==-pp==ppppzgapzp;-===izp==+====azzzpjzp==oo====pp==pp=",
"ppu=ooo-=p==p>=*=&pppzgpp=====-=zp=========izp===#oo=-====pp=p=&",
"=&=======jz=&=pap>=ppagppzzzp>===z===a========oo+o%===ppa==p===>",
"&>==ppp==zsp=ppp=-==>ipplzp&=&=p====pp======>=o>=>+opzzggp==&==p",
"p=====ap==gg=pp===ooo=&=====&=pip>=pp=-=zggh==o=pp=oo=&zgg====pg",
"=o=o+====>pzpp====--o@+======pap=o=pp===pzgzz==opf==oo=-pzz=pggg",
"===oo==pggpapzdgzi==p=ooooo=&>==>==p==p=pijzpz=phg====zji==pzzhp",
"=p&===&=&kzplggk=oooppoo+-ooo-=-=a===pi===pzp==zjz=>pzgz===lzzl>",
"=p>==ppa==p=zzp=oo=-#pp=o========p==pip&&==jz=pzp===ggzppp=ppp==",
"p==p==ppp===p=ooo=====-=o=-=====i==pp=======pap=-==qqqqqqqq====&",
"===pp==+#====o#==pp-=&p=o==pp=p======&gggz===>==qqqqqqq9qqwqq===",
"p==&a=&=o+o=p==&==NNNNNNNNNN>=a-gpo>=zphzp==MNNNwqqqqqqqqqqqqq==",
"up==&=====Xozp=&=NNmcccNNccNMNp=ggp=zpzNNNNNNNNq0qqqqqcccqqqqqqq",
"pa==app=pzpopp=NcNccNcN6qNNNNNNNzzzNNNNNNNcNNqNqqqqqqcccqqqq0qqq",
"Xp=ipu==&pzuooNNNcccccN6qNNNNNNNNNNNNNcccNccqqqqqqqcccqqccccwqqq",
"=-==-======pNnccvccccc6qNMNNNNNNMNNNNNNNccccqqqqqccccxccccqqqqqq",
"=j======o#q66qqcc222ccqNNNcNNNNNNNMccccNNcqqqqqqqcbcqqccccqqqqq9",
"tz=pp-==p   6qqqcccccccccMNcNNNNccNNccccvqqqqqqqqqcccqqccqqqqcqq",
"====pa===6 666qqcqqccccccNNccccNNccNcccccqccqqcccccccccccccvcqqq",
"&&===p==o626666qqqccccccNNccccNNNccccccbxccqqqccccccccccccccccqw",
"=====&-oo626666qqqcccccccccccccNcccccccccccqqqqqvcvqqcccqqqccccq",
"===>o#op-626666qqccqcccccccccccNccccccccccccqqcqccccqqccccqqqqqq",
"==ooo===&6222666qqqqccccccccccccccccccccccqcqqbxcccccccxcccqqqqq",
"o==oX&===z66665666qqqcqqcccccccccccccccccc9qqqqccxcccccccvccqqq9",
"=i=-oo=p==a3666666667qqcccccccccccxccccbccccqcccccccqccccqcccqqw",
"pp=oOo=pp=+X=z=ppgg6666qqcqcccccccccccccccqqqqcqqcccqqccccqccqqq",
"pp&o=====>opipppzl=ooo66qqqccccccccccccccccqqqqqcccccqqcccqqq9qq",
"pi====p===ggzopooooo+=o6qqccqccccccccccccccqqqccccccccccccqqq0qq",
"p==&pp=-=zzp======ppu=oo0qwqccqcbccccccccqcccqqccccccccccccqqq64",
"===ppp==========*pp==ooo=qqqcqqccqcccccccqqwcq6qccqqcqqcqcccqqq6",
"==&===oX=pau====pp====pppoqqqqccqqccccqcccqqqq6qqcqqccqqwqccccq6",
"==p=>o=X-==pi========ppip=p=qqccqcccccqqqc0q6q660qqwcqcqqqqqqqq8",
"zpp==pio====p==gggz====pa=&=pqqq9qcqqcc9qqqq66666qq6qqcqqqqqqqq6",
"za==pp=o>gpo=-zjgzp->=#opp==glqqqqcqqqq0q6q6663686666qqq7qq6qq66",
"=z====#o=ggp=zpzzp=;pp=o====zp==qqqqq666666666=pp66666666qq66q66",
"==>==ooo-zjz*=pz====poopzzz====2qqq666  o=pz==lp=====>+o22qq662 ",
"g=pp=##Xo=pkp=zz====o+zggzz==k2qq66622 =oo=pzpz==o==p=>#7266662 ",
"=+=pp===#==ip=&=zzaoo+o>====z22q662    p=o#=ip==oo=yp===o26662  ",
"===-pp&=-======pzggz====ppp==22222     pp=o===>+o==pi===X<6622  ",
"=p===-=>@o-&===o#+oooo=pu==&1222=p    ==p=>z==oo==&-p==&26622p  ",
"=p=ppi==ooo>Xoooo=&+o#&>=p22222==pi    ===lg==o&=p====p22622=p= ",
"a==kz===ppp=o=oooo=oo==i=22222==p>p    zp=gp=>o+=pp-=p22222p==&>",
"======&pp==$=====oooo=pp>2222=p==&==.  gzpzp===o==pp-22222==ooo ",
"ggz===&====@ppp===o===pzXop=&pp=gp==   =zpp=zzpoo==a=2222====&= ",
"gzzz=zldgz=oo=pp,=op==z===-=zpp&ggpp=zzp-pppp===o=>=&=pg=pzgzip=",
"pzzp=puzX==oo>=pp=opp=oX>>==zz==zjp===gzpp=p===oo===pppzpzgzp=-=",
"opkoopz#o>>=oo=:=-=pz===zzgz>===la======pp===ooo=ppzggzppppp==o#",
"=-tui>oozzu=&o=====-zz=zggp======p-=oo>==p=====o=====pipoX==ooo=",
"=zgz===zpp=aoo&l=====&&zg-ozlpp==z==ooo===-o====oo====oooo====i=",
"tzt>=&====&=>o=zz=&pzggp==zfggz=uz=@o=oo&=ooo=p==oo==oo=poo===p=",
"===ttt===tt=o+=zj=pggzzz==zpzz=o-==o=p=%ooo===pp==o#oo=pp=oo===X",
"==et-==>=trooX=z==>azgzzp=auz==o-==o=a===op===,i=&=oo=ppa=-o===+",
"=&p&==iu==p+o====&======oo====oo===o=pp=&=p=====i===>=p->==o==oo",
"=&==o==p====o&p=---zz==--=&===o-=>=oou=p==ppo=p====zj=====&=&=o=",
"->ooo==p===zo&pi>=ppz===p==ppo+o&=o+o==p===zo=pp==pij===p>=ppooo"
};
