/* XPM */
static char *_1584_a9bdf9fdfd357f338bd481081cb55deb41b12ce39b66ce5c293491ff3ccae87f[] = {
/* columns rows colors chars-per-pixel */
"64 64 54 1 ",
"  c #080A14",
". c #090A14",
"X c #1E3616",
"o c #1F3616",
"O c #1E3716",
"+ c #1F3716",
"@ c #1E3617",
"# c #1F3617",
"$ c #1F3717",
"% c #263A16",
"& c #273A16",
"* c #263B16",
"= c #273B16",
"- c #263A17",
"; c #273A17",
": c #263B17",
"> c #273B17",
", c #241427",
"< c #241527",
"1 c #251527",
"2 c #341C26",
"3 c #341C27",
"4 c #351C27",
"5 c #4D2A32",
"6 c #4C2B32",
"7 c #4D2B32",
"8 c #2D4316",
"9 c #2D4217",
"0 c #2C4317",
"q c #2D4317",
"w c #354C1A",
"e c #344D1A",
"r c #344C1B",
"t c #354C1B",
"y c #344D1B",
"u c #354D1B",
"i c #5F761E",
"p c #5E761F",
"a c #5F761F",
"s c #5F771F",
"d c #476820",
"f c #466920",
"g c #476920",
"h c #476821",
"j c #466921",
"k c #476921",
"l c #7A4840",
"z c #7A4841",
"x c #7B4841",
"c c #7A4941",
"v c #AD7756",
"b c #AD7657",
"n c #AC7757",
"m c #AD7757",
/* pixels */
"o**oo****rhak*ky*yhk*:*yy***y*oo#**#o:***kkaj*ky*kkk***uy***u*oo",
"*=*%+o%****har**yyyyy**yy***ooo**u=%XX*yy**hay**kkaak**yy*oo%oo*",
"**y**#Xo#****:********:***X$oo**uyo#o****%**%*=y***:*****oo*****",
"yyu*y:**Xo==oo:*o****y*****oXoykyyo*******%*y**y=*yyy***o#*****y",
"ky**yy**:oo+oooooo***yy***=*okaayyoo*yyy*=**a%ye*yy**X#oo%*y*=*y",
"y%***y*ruyo+o*oooo***uy***y**o*ky**o#*%ye**kayy**y***oo****yy**y",
"**yye=yy*oXo=**oo***e*yr**k**o**%**X#oo**y*kpk*=****oooo*%*yy***",
"**:*y***o#***y****ook****ak******%ooooo+***yky**%*:*oooo*y*%y**y",
"y**:****o***ry**%**oka::kay***yyy**oo**yapakyy*ykaaoooo**y****yr",
"yy****o#o**=yy**yyyukayyku-=***rky**o****ykkkrgke%*oo****yy=*yy*",
"yyy*ooo=*y**y:*=*%yyykayy:****=*ky***:*****tky*%%+oo*>***:yy=y*%",
"*********gk=%*yur:*yyuayykkky:***g***u*******:oo+o+%**yyu**y****",
"%:**yyy**kiy*yyy****:yyyjky**%*y****yu******:*#***$oykkaay**%*=y",
"y*****uy*:aa*yy***ooX***=**%%*ery:*yy*=*kaaa**o:yy*oo*%kap=***ys",
"*#*o+%*%*=ykyy****=*o@+****=*yuy*o*yy***ykakk*=oya**oo*=rkk*yaaa",
"***oo**yaayuykiakr**y*ooooo*%:**:**y*%y*uygkyk*yaa****gkr**ykkay",
"*y**:*%*%kkykaah*oooyyoo+=ooo=***u***yr***yky**ggk*:ykak***kkkj*",
"*y***yyu=*e*kky*oo**oyy*o:*******y**yry%%**gk*yky***aakyyy*yry**",
"y**y**yyy***y*o#o****%=*o*******y**yy******%ryy***:==eyr****%***",
"***yy**+o****oo**ye=**y*o**ey*r*%****%aaak***:****:****+ooo****%",
"y***y*%*o+o*y**%**yyy*k**yu*:*u*ayo:*kysky*****yyy**k*oo**y*%&**",
"ey********ooky******y*jp*y***:y=iar*kykky*mbmmnmmmmbka**tky**yem",
"yy**yyy*ykuoyy*gy*=***ya:=yay***kjkr*kk=*mmmxzzmmzzmmmk*ky*mmmmm",
"oy*rye**%ykeo+yy**yjasyy*ypy*:**kyfy**:mzmzzmzm37mmmmmmmj*mmmmzz",
"*=**=******yyooo*yy*ysay*hk*%***yyyy**mmmzzzzzm37mmmmmmmmmmmmmmm",
"*k******o#o#oo*o$****yky*:*::***:yy*mmzzzzzzzz37mmmmmmmmmmmzzxzm",
"qk*yu=**yyXo#o*yoo****%*********yy73377zz<<<zz7mmbzmmmmmbmmmzczz",
"***:yu**:yyy***yyooo***********o*...3757zzzzzzzzzmmzmnmmzzzmzzzz",
"%**%*y**oo**=**yy**=*#*=oooooooo*3 33377z77zzzzzzmmzzzlvmzzzzzzz",
"%*****=oo*******y=***oooooo*eooo*3<3333777zxzzzzmmzzzxmmzzzzzzzz",
"****o#Xy=yyuo*r****ey**&*:*yu*o**313333777zlzzzzzzzzxzzmzzzzzzzz",
"**oo#***%*rky*yy>%yrk***y*=yyooo*3<333377zz7zzzzzzzzzzzzxzzzzzzz",
"o**oX%***kkak%ke=kkk**:yy***y*#oo3<<<3337777zzzzzzzzzzzzzzzzzzzz",
"*y*=oo*y**ykae*%khaak**uy%***oo**y33333333777z77zzzzzzzzzzzzzzzz",
"yy*ooo*yy*oX*k*yyaa*+o*e%***:***yyo333333333377zzzxzzzzzzzzzzzzz",
"yy*o*****:oyyyyykj=ooo+-****=*ykyyo*XoXooy=333377z7zzzzzzxzzzzzz",
"yr****y***aakoyooooo+*o*yyuk**aayyooo**y*yy:*o34777z7zzzzzzzzzzz",
"y**%yy***kky:*****yyy*oo=yryk**ky*oo*%:y*%uy*o#37777zz7zzlzzzzzz",
"***yyy**********=yy**ooo***kk**=*y**y%yr***=oo**:757z77zz7zzczzx",
"**%***oo:yue****yy****yyyo*%#o***y*ky*y*****X*ykak7767zz77zzzz7z",
"**y*:o*X***yr********yyry*y**ya****au=*****y****yajr77zz7zzzzz77",
"kyy**yro****y%*aaak****yy***yaa=kkya***yy**k:yy**ykky77777z77zz7",
"ke**yy*o*ayo*=kgaky=**ooyy**aj**jakyyaak***kyy=*:*yye*7677z77767",
"%k***:oo*aay*kykky*%yy*o****ky***yiy******:*ey%yy&****..77777733",
"*****ooo*kgk=*rk****yooykkk****:**yy:oooo*yh**ju*****....<577333",
"a*ey%#oXo*yhy*kk****o+kaakk**kaaa%**oo**oo*ykyk**X**......<<723<",
"*o*yy***#*%ry*%*kkuoooo:***:kaaw*o*=o**y*oo*ry**oo*.. ...:*<773<",
"***=yu%:****:%*ykaak****yye******o#oo**yy*o****+o**..... o*<773<",
"*y***=**#o*%*%*o#+oooo*ye********y*****%y*:h**oo**......*o*y<7<<",
"*y*yyy**ooo:ooooo*%+o#*>*y*******yr**yk***ki**o*%.. ...***yy<<,<",
"u**gk***yyy=o*oooo*oo**y*yr****:y:yy**yky*ay=:o+*.....k:=eye:<<<",
"*******yy**O***%*oooo*yu:%y***y%*%***:*akyky***o....=yik=y**oo<<",
"aak***&****Xyyy***X***ekooy*%yy*ay**yy:*kyy*kkyo....*ypa*****%<,",
"akkk*kjiak*oo*ye>*oy**k***=*kyy%aayy*kky=yyyy***o*:*%*yi*yhakry*",
"ykky*yeko**oo:*yy*oyy*oX::**kk**kgr***akyy*y***oo***yyykykaky*&*",
"oyhooyk#o:**oo*;***yj***kkak:***ky****=*yy***ooo*yykaakyyyyy**o#",
"*=qyr:ookky*%o*****=kg*kaay******y=*oo***y*%***#*****yrroX**ooo*",
"*kak***kyy*uoo%g*****%%ka=okjyy**k**ooo=**=o***>oo****oooo****y*",
"8kq>*****:*%:o*kk*%ykaay**kpaak*yk*@o*o#%*ooo*y**oo**oo*yoo***y*",
"***qqq***0q*o+*kg*yaakkh**kykk*o***X*y*$ooo***yy**o#oo*yy*oo***X",
"**9q=****00ooX*k**=ukakdy*uek**o***o*u*:*oy***>r***+o*yyu*=o***+",
"*%y**:re**yoo****%******oo****oo***o*yy*%*y*****r*****y****o**oo",
"*%=*+**y*:*:o%y**==kk:*=**%***o=%*%ooy*u**yyo*y***%kg*****=***o*",
"=*+o+**y***ko%yr**yyk***y%*yy#oo%%o+o**y***ko*yy*%yrk***y:*yyooo"
};
