/* XPM */
static char *enterdownr71680168797[] = {
/* columns rows colors chars-per-pixel */
"64 64 51 1 ",
"  c #080A14",
". c #090A14",
"X c #090B14",
"o c #1E3616",
"O c #1F3616",
"+ c #1E3716",
"@ c #1F3716",
"# c #1E3617",
"$ c #263A16",
"% c #263B16",
"& c #273B16",
"* c #263A17",
"= c #263B17",
"- c #241427",
"; c #241527",
": c #251527",
"> c #341C26",
", c #341C27",
"< c #351C27",
"1 c #341D27",
"2 c #4D2A32",
"3 c #4C2B32",
"4 c #4D2B32",
"5 c #4C2B33",
"6 c #4D2B33",
"7 c #2C4217",
"8 c #2C4317",
"9 c #2D4317",
"0 c #344C1A",
"q c #344D1A",
"w c #354D1A",
"e c #344C1B",
"r c #354C1B",
"t c #344D1B",
"y c #354D1B",
"u c #5F761E",
"i c #5E761F",
"p c #5F761F",
"a c #5F771F",
"s c #466920",
"d c #476920",
"f c #476821",
"g c #466921",
"h c #7A4840",
"j c #7A4940",
"k c #7A4841",
"l c #7B4841",
"z c #7A4941",
"x c #AD7657",
"c c #AC7757",
"v c #AD7757",
/* pixels */
"O%%%O$$%%egig%ge%ess%%%tq%%%t*OOO=%OO%%%%gfug%gy%gff%%%ee===y%O%",
"%%%%O$$%%%%gie=%eeeet%%tq%%%OOO*=t%%OO%ty%%fuy%%gguug%%ty%OO%OO%",
"%%e%%+++#%%%%%==%%%%%%%%%%+$OO**ttOOO%%%%%%%%%%y%%%=%%%%=OO=%%%%",
"eee%y%%%OO%%OO%%#%%$%q%%%%$OOOtfttO=%%%%%%%=y%%y%%yyy%%%OO==%%%e",
"fe%%ee%%%OOOOOOOO#$$=yy%%%%%OgiittOO%ttt===%i%tt%yy%%OOOO%%t%%%t",
"e%%%%e%teeOOO%OOOO$$%yy=%%e%%%%ft%%OO%%ty&=gitt%%y%%%OO%%%%te%%e",
"%%eet%tt%OOO%%%%%%%%y%yy%%g%%O%%%%%OOOO%%e%fig%%%%%%OOOO%%%tt%%%",
"%%%%t%%%OO%*%e%%%%OOg%==%ig%%%%%%%OOOOOO%%%efe%%%%%%OOOO%e%%t%%t",
"y%%%%%%%O%%%ee%%&&%Ogi&&giy%%%ttt%%OO%%eiuufyt%yfiiOO%O=%t%%%%te",
"ty%%%%++O%%%ee%%yeyygueegy%%%%%yge%%%%%%%egfgygge%%OO===%tt%%tt%",
"tty%OO+%%e%%y33344443fuey%%%%%%%gy%%%%%%%%%ege%%%OOO%%==%%et%e%%",
"%%%%%%%%%gg3333344443333ygggt%==%g%%%y%&%%%%%%O%OOO%%%yyt%%t%%%%",
"%%%%eee%&f44333334444444vvvc===y%%==yy%%%%%%xcxvccccvvgiue%%%%%e",
"t%%%$$et6444333lll4444443vccvvccv%%ey=&%fivvcllxclllvvvguu%%%%ei",
"%%%OO$&466444444lll444443v3vvkxxvvccc%%%vvvvcxx3>clcllvlxfg%eiii",
"%%%O$%666644llll44lll4443333llxlllccccccvvvvccx3>clllllvvv%egsie",
"%t%%%333444433llllhhhhh53444llllvcvvxxccvvvvvcvv3,llhhhlllcxfff%",
"%t%%%333444433llll33hhh5334444lxxkkkkxxcxvvcvlvvv3ll:-:lh33,,3&%",
"e%%t333344l3363ll55lhh553333444lkklkcxkkvvcclcvlkkkkjhlk333,X..=",
"%%%e3333336lllllllllhhhlll33ll4lklkkxkkccllllvvhkkkkj66k35,,>.,=",
"y&&4344433llhhhhhlkkklhklh335hhhkkkkkkkcxcllkkvvkkkkkk333,,,<;<%",
"yy&433443lllk555hll55khl33335hhlkkkkkkkkvlllkkjjkkkkkk333,,><;<%",
"yy444444325555hhhk55kkkh3l55hhllkkkkkkhhchllkkkkkkkk6kj33,,,<;1%",
"Oy44444436555khhkkkkkkkkhh35h5lkkkkkkhhhhhhlkkkkkkkk3333,,<-;-1%",
"%333<<333444hhhhkkkkkkkkk55563llkkkkkkkklkkkkkhh33h3331<,,<11,%%",
"%,3,<333344lll3lkkk5kkkkkkl5llllkkkkkkkkllkkkkkkl33,,,,>,,>,,%e%",
"9>,,3333444ll3llll55kkh53l5566llkkkkkkkkllllk5k33>,,,igyff%=*ee=",
"&>,,3,,3444466lll55khhhh33336lllkkkkkkkkllllk333,,%%%fgyf%%ete*$",
"&%>>,,,3443444llllllllhhll333lllkkkkkkkklll3ll33,&&&%%%%%%%%$%%O",
"%%%>,,,3<<334lllllllhhhhl33lll4lkkkkkkzzl4ll3333ee==%%%%%%%%$%O+",
"%%%%,,3,<333lll4l33l55hh3<3l333lkkkkkk6kl44l333%%%=fg%%%%%%%==O=",
"%%$oo,,,<3llll4455ll55h53<3333llk3kkkk56ll4443yy%%yyg%%%t%%ttOOO",
"O%%OO,,,>46633333l3l3333,,4,33h335lllll3jj33d%ge%sgg%%%ee%%%y%OO",
"%e%%OO,,>44643363l33>33>,,>,33333kl33l43443suy%%ggiig%%ye%OO%OO%",
"ee%OOO11>>66,43<333>11>>,,,,,3,353333l4366++%$$$%=%%%%%=%%%%%%%%",
"ee%O%%..>>6<<33<1,>>>1>%&&,,>,>,11133333Oy%+$O$$%%%%%%t=%O%%%%%y",
"ee==%%..X;<<33;;%OOO#%$%rrrf%%ii..<<<663;ee%$$O%%%y%%fy=%OO%%%%y",
"e===tX..X;<<,,;<%%eee%##&errf%%gy.;;<<>33;qq$#O%&%g%%u=%=%OO%%%y",
"%%=tt.XXX.;<,,-=%te%%OOO**&fg%%%%...X;><3;;%##%%%yguyee%=%%%+%%%",
"%%%=%XX X.-;,>-%te%%%=ttt$=&%O%=%.XXXX;;--;%#$egugygyyegigy%O%%e",
"%%e%.XXXXX%:->>;%%===ytty%y=%tu%%%.. X%%;---%%=%yaseeegiy%%%O%ye",
"gty%XXXXX%%%-->;-ig=%%%ty%%%yii%fX.. %%ty;--;;t%%tsse%gt%%%OO%e%",
"gy%%.   %uyO%:-;--e=%=OOyy%=ig%=f... iig==-;--;%%%eee%%%%%OO%%%%",
"%g%%.   Xuiy%g----;%ty=O%%%%sy%=%...$$$$===;;;;ee%%%%%%%%y%%%%%%",
"%%%%%.   ggs==y:---%y%Otgff%%%%%%X. %OOOO=eg%%ge%%%%%%OO%tt%%%%y",
"i%ee%%OOO%ysy%gg%%%%OOgiigf%%guui%%=OO$$+O%tges%%+%%t%%OO%tt%%ya",
"$o%ee%%%O%%et%%%ggeOOOO%%%%%duiy%=%=O$$e=OO%ee%%++%et%%%O=%t%%ii",
"%$%%ee%%%%%%%%%ygiis%%%%yyy%%%%%%O#O*$$et%%%%%%O$%%ee%%%O%=%%yay",
"%e%%%%%%OO=%%%%OOOOOOO=tt===%%%%%t%=%%%%e%%s%%OO$%%%y==%%O%e%es%",
"%y%eee%%OOO=OOOOO%%OOO=%=t%=%%%%%yt=%yg%%%gi%%O%$e%%==y%%%ee%e%%",
"y%%sf%%%eee%O%OOOO%OO%%y=tt%%%%%t%yt%%egt=ie%%OO%ee%=yf%%yyy%%%%",
"%%%%%%%ee%%+%%%%%OO+O%ey=%t%%%y%%%===%%agyse%%%O%%ee%yug%y%%$+++",
"aug%%%$%%%%Ottt%%%+%$$egOOy%%yy%iy%%yy%%gye%sseO+%%e%eii%%%%$$%%",
"isgg%gfiig%OO%tt%%Oe%$g$%%%%gyy%iuyy%ggy%yeee%%%+%%%%%yi%egagee%",
"ysse%eegO%%OO%%te%+ee%%$=%%%gg%%gse%%%aste%e%%$$+%%%yeesygage%%%",
"Oyg%$egoO%%%OO%%%%%eg%=%ggig%%=%ge%%%%%%te%%%###%eegaisyeyee%%OO",
"%&9ye%++ggy=%O%%%%%%gg=fiiy%%%%%%y%%OO%%%e%%%%%#%%%%%eeeOO==O%O%",
"%dig%%%gyy=yO%%f%%%%%%=gi$$fsee%%g%%OOo%%%%O%%%%OO%%%%+OOO=%==t%",
"9g7%%%%%%=%=%O%gg%%yfuuy%%guiis%yg%Oo*$o%%++#%e%%OO%%O+%e++%%%t%",
"%&%777%%=88=OO%sg%yuugff%%gyss%#%%%%%e*oOO%%%%ee%%OOOO%ee%OO%%%O",
"==77%%%%$77OOO%g=%%ygisge%eeg%%#%%%O%e%%%+y%==%e%%%O%$eee%%#%=%O",
"==y&%%ee$$e%O%=%%%%%%%%%OO%%==OO%%%O%ee%%%e%%==%e%%%%%e$%%%#%=OO",
"%%&%O%%e$$%%O%t=%%%gs%%%%%%%%%O%%%%OOe%e%%ee+%e%%%%ss%%%%%%%$$#$",
"%%O%+%%e%%%gO%tt=%yyg%%%e%%eeOOO%%OOO%%e%%%gO%ee%%ees%%%e%$ee#$#"
};
