/* XPM */
static char *_716_048c2f1fe790b8136ef04dfff00ce807ec3707a103b04acb705832f86982d0ff[] = {
/* columns rows colors chars-per-pixel */
"64 64 192 2 ",
"   c #020101",
".  c #010A00",
"X  c #160202",
"o  c #081103",
"O  c #10100E",
"+  c #090A14",
"@  c #131C17",
"#  c #270000",
"$  c #330100",
"%  c #28100F",
"&  c #0E2901",
"*  c #132A03",
"=  c #152A0A",
"-  c #163403",
";  c #1A3205",
":  c #1F3804",
">  c #1B320B",
",  c #17380D",
"<  c #1F3113",
"1  c #36260B",
"2  c #382908",
"3  c #233502",
"4  c #233C03",
"5  c #27310C",
"6  c #223A0B",
"7  c #353403",
"8  c #222413",
"9  c #22251F",
"0  c #382913",
"q  c #253114",
"w  c #223C13",
"e  c #2C3816",
"r  c #29391B",
"t  c #333410",
"y  c #241527",
"u  c #341C27",
"i  c #312222",
"p  c #302F27",
"a  c #353733",
"s  c #450303",
"d  c #431508",
"f  c #521F04",
"g  c #561314",
"h  c #76151C",
"j  c #462807",
"k  c #40300D",
"l  c #4E2314",
"z  c #53201F",
"x  c #443414",
"c  c #663319",
"v  c #691823",
"b  c #4A3820",
"n  c #533925",
"m  c #4D2B32",
"M  c #4A3335",
"N  c #692521",
"B  c #7A2322",
"V  c #7E2A2E",
"C  c #673424",
"Z  c #783121",
"A  c #7B382C",
"S  c #18410E",
"D  c #254005",
"F  c #2C4206",
"G  c #2F4903",
"H  c #27400C",
"J  c #2E4A0C",
"K  c #35500E",
"L  c #2A4214",
"P  c #294A15",
"I  c #2D431C",
"U  c #284B1C",
"Y  c #334712",
"T  c #314A15",
"R  c #36431E",
"E  c #354C1F",
"W  c #375114",
"Q  c #35511E",
"!  c #304424",
"~  c #364B24",
"^  c #395224",
"/  c #3D542D",
"(  c #384432",
")  c #444314",
"_  c #4A4A24",
"`  c #534021",
"'  c #445D22",
"]  c #455E2B",
"[  c #444238",
"{  c #6E4128",
"}  c #436422",
"|  c #4A6321",
" . c #4A6428",
".. c #4D692B",
"X. c #536623",
"o. c #506A28",
"O. c #4B6331",
"+. c #436930",
"@. c #546B32",
"#. c #506638",
"$. c #546A3C",
"%. c #4D793A",
"&. c #557330",
"*. c #5A7331",
"=. c #5B7439",
"-. c #676E38",
";. c #627835",
":. c #3D3A40",
">. c #454546",
",. c #574445",
"<. c #585244",
"1. c #4D4F50",
"2. c #565555",
"3. c #6F4C48",
"4. c #7A4841",
"5. c #665554",
"6. c #5C7540",
"7. c #5E7B40",
"8. c #637B43",
"9. c #7C6857",
"0. c #5D5C61",
"q. c #695E63",
"w. c #6C6668",
"e. c #767070",
"r. c #881B19",
"t. c #9D1522",
"y. c #AB1720",
"u. c #A41E25",
"i. c #AA1A26",
"p. c #B31729",
"a. c #B31C28",
"s. c #B41F30",
"d. c #892724",
"f. c #8C2925",
"g. c #88252E",
"h. c #992223",
"j. c #9B2129",
"k. c #96282D",
"l. c #873024",
"z. c #9C332A",
"x. c #992532",
"c. c #883331",
"v. c #983436",
"b. c #A82224",
"n. c #AC2A2D",
"m. c #A52130",
"M. c #B52730",
"N. c #BB2435",
"B. c #A83337",
"V. c #A53F38",
"C. c #B53235",
"Z. c #BE353B",
"A. c #C52435",
"S. c #CA3336",
"D. c #C43539",
"F. c #CE3039",
"G. c #D1383D",
"H. c #914C37",
"J. c #993544",
"K. c #AB2D42",
"L. c #B93541",
"P. c #C73541",
"I. c #935249",
"U. c #9A5B5D",
"Y. c #B5494B",
"T. c #886858",
"R. c #9A645C",
"E. c #A7635B",
"W. c #AD7757",
"Q. c #A55D61",
"!. c #996667",
"~. c #95696B",
"^. c #8E7B74",
"/. c #A86F73",
"(. c #C94547",
"). c #D74C55",
"_. c #E35D61",
"`. c #D4696E",
"'. c #E66568",
"]. c #7F8778",
"[. c #88857C",
"{. c #918579",
"}. c #9D7E83",
"|. c #8A8684",
" X c #958D89",
".X c #9B9A9B",
"XX c #B99E9A",
"oX c #B2A39A",
"OX c #AE9FA3",
"+X c #B2A3A5",
"@X c #D69E9F",
"#X c #DDB7B9",
/* pixels */
"> ; q 6 * < q 5 6 W } %.+.: | ) 3 T @.| 4 4 4 T E 6 , w ! r 1 1 d l j d j g d j 4 +.+.%.+.: X.G D } } } 4 4 3 ~ I L 6 , P , : ; ",
"w H 6 q > , w 5 5 4 4 +.&.W D ; ^ T H ~ T 6 - Q I 5 x p q w 8 9.T.T.9.T.T.T.T.9.~ w w #.@.) 7 J | X.&.;.@.4 4 I I 6 > > w ; ; H ",
"; 6 T w S , > , 5 6 6 6 6 , : L , w H L - , , ; r 0 d T.9.].].].|.^.[.|.|.[.[.{.[.e.{.{.~.T.3.I.f j 4 D 6 5 w L w q = 5 e q < L ",
"Q Y ^ w U S , , 6 * w > > < L , < S - > P E L r 0 g Q.Q.{.oX X.X.X.X.X.X X|.|.[.|. X}.}./.}.`./.I.H.` ` b 2 5 > ; 6 5 e q L , L ",
"+.I 6 3 L ^ 6 H w > , , , * = = > = w q : Q Y 2 ^.!.U.!.XXoXoXoXOXOX+X+XOX+X+X+XOX+XOXXX#X#X#X@X/.Y.J.g.g.g 0 5 ; 6 w R > : w E ",
"T : 6 5 J P 6 J x ` 1 2 0 x 0 i 2 2 2 t 2 x C E.E.I.V V U.Q.R.!.~.~.~.~.~.~.~.~.!.~.!.!./.!./.!.g.z.m.i.u.d.Z f 2 5 t ) ^ S : E ",
"w L Y T P : ) c h B.B.B.v.H.v.v.v.V.Y.Y.V.Y.V.D.b.h.j.h.d.g.x.x.g.c.c.g.v.k.j.v.v.z.x.x.B.B.m.L.B.K.N.P.a.n.n.z.Z l j ) Q H 3 > ",
"6 5 5 4 ) 2 H.V.C.D.P.P.Y.`.`._.'.).D.D.S.D.S.F.A.Z.M.C.B.C.P.S.C.V.B.C.Z.M.(.'.'.'.)._.).L.L.`.L.L.P.P.L.N.P.N.C.z.Z j Y 4 6 T ",
"~ > 7 k f H.C.P.G.C.k.c.A c.v.(.P.).F.F.A.S.G.S.D.D.D.Z.D.D.F.F.Z.D.Z.Z.D.D.D.(.(.(.V.G.P.L.L.Y.k.B B l.t.L.P.S.F.C.h.c.j 4 Q P ",
"~ ) j I.V.C.D.N.t.d.s X X # N c.K.N.A.A.A.S.P.S.D.D.Z.Z.D.D.F.F.D.N.M.i.p.a.p.u.h.b.b.b.M.L.`.J.g # X X N f.K.Z.F.(.(.f.k Q P S ",
"! b { h.F.F.L.x.v d l M i X 3.g h x.s.A.i.i.y.y.y.h.u.u.j.m.u.y.p.u.b.i.b.i.i.i.b.t.y.p.i.x.B z l + [ % n $ h L.G.A.K.c.j R - S ",
"6 x N r.s.N.m.v $ >.  :.:.@   M $ V t.K.a.i.y.b.b.b.u.u.u.u.u.u.y.i.i.m.i.i.y.y.t.b.i.u.k.J.# ,.X O <.i 8 5.$ J.Z.L.m.c.2 6 H , ",
"5 2 j g k.k.k.g u :.@ 1.:.1.y M % N x.N.s.p.i.y.u.b.p.p.a.y.y.i.i.p.M.M.s.a.p.a.M.a.b.M.n.N $ i X i 2.2.y 5.g N K.K.v.{ 2 4 t W ",
"~ t ` $ h x.V g ,.9 >.2.e.e.2.M [ $ k.y.s.M.N.n.n.n.s.N.A.N.M.M.M.M.M.M.s.s.N.M.y.M.n.n.x.# 5.9 M w.w.w.2.0 3.g g.k.Z f 7 H 7 -.",
"> 3 8 d h x.g.g ,.>.1.w.5.q.,.,.n $ B h.m.m.n.M.n.n.M.M.a.M.n.n.n.n.b.i.i.p.u.u.b.b.r.h.g.X 2.>.1.w.0.w.3.M 5.0 N C ` 7 K &.;.;.",
", , 5 2 A v V $ p a O ,.,.5.9 9 8 n N B Z B l.d.l.f.f.d.f.f.f.l.Z l.d.d.f.f.l.Z l.l.l.Z l 9.9 9 + 9 2.2.0 [ i _ n k 7 ) | | ;.G ",
"> ^ 6 5 2 k k i @ [ o a a   . [   q 1 1 b ` 1 1 1 j 1 1 1 1 k j x x 2 x 2 ` x k 2 x x X.) 5 . (   @ >.@ 8 <.  6.q 5 4  ...o...4 ",
"H L 3 6 H ~ ~ _ r 8 8 ( a   1.a q = w L > w Q > w 6 < < 6 q 6 6 w E 6 6 J T L : 3 4 5 @.O.w ! ( a O >.@ [ . $.r ~ L H P T w 4 6 ",
"H H H T 6 6 w ( ! p o q 8 @ q 9 > < H - > 6 , H ; , 5 w , w 6 4 ~ 3 H Y E 4 T 4 F 4 H 6 r ~ ~ < o 9 9 9 e ~ E T 4 6 D ; 4 6 6 6 ",
"H 6 4 E T w 6 w > > r < I < < < r I ~ 6 H 4 T 3 3 6 L E T w w e 4 : : 6 6 3 $.=.@. .6 w w > 6 w r q q w > 6 > > : & - H 6 6 6 6 ",
"P 6 6 S R H w ; ; > ; 6 ~ > L L w 6 E T T 3 ..4 4 T L 4 6 ; ^ 4 =.K 3 - 6 $.6 ;.o.T 6 3 L > 6 ~ ! ~ e W.W.W.W.W.W.W.W.W.W.6 w 5 ",
"E E 6 6 6 ; : 6 w 4 , 4 O.T 6 ; 6 6 > 4 W :  .*.: W 4 6 3 6 E 3 =.o.W D ] W @. .T 4 : : 6 ; w ; ~ ] W.W.W.4.4.4.W.W.4.4.W.W.W.< ",
"E E > H T Q U 6 P O.^ & ^ T : $.I w ; 4 D 3 W @.3 4 T $.^ L : 6  .o.} T S ' #.: L ; W U T 6 - w W.{ W.4.4.W.4.W.u m W.W.W.W.W.W.",
": U 6 ~ T Q : 6 - ~ } Q - - T L 6 6 Y #.=.=.J K 4 Y 6.W 6 ; w ; O.J o.J D : H 6 ; #.T H : ; w W.W.W.I.3.4.4.4.W.u m W.W.W.W.W.W.",
"6 6 4 6 6 6 3 6 4 6 6 E E * ; > e R L H F =.=.Y 4 O. .I 6 ; 6 6 T W J J : : 6 w > w > 3 ; W.W.4.4.4.4.4.4.4.4.i m W.W.W.W.W.W.W.",
"6 ] 6 6 6 4 6 6 ; 6 ; ; 6 6 6 ; ; 6 L 6 6 W ] W : 6 6 6 w w w 5 4 L Q D : H 6 w I > ; m u u m m 4.4.y y y 4.4.m W.W.W.4.W.W.W.W.",
"e O.6 W ~ : w 6 E L 6 ; > * 6 ~ > ; 6 : 4 : H : 6 ; ; w w > w 6 ' J ; E w ; > O.] ~ + + + u m m m 4.4.4.4.4.4.4.4.4.W.W.4.W.W.4.",
"6 H 5 e ~ T 6 w 6 E ~ I L w w E ! > ; ; 6 5 6 6 6 w w w > q > 6 ; W 6 / I E , 6 Q ~ u + u u u m m 4.m m 4.4.4.4.4.4.W.W.4.4.4.W.",
"4 ; 6 6 6 ~ w > > 6 w > 6 5 w I ~ 6 5 > 6 : 6 w * e > > < < ; * 6 6 > I ~ = 6 6 3 L u y u u u u m m m 4.4.4.4.4.4.W.W.4.4.4.4.4.",
"6 6 w S ; 6 S : ; > 6 w 6 , 6 6 ~ w 6 6 6 ; * > > > = w ~ > ; > 5 6 w w ~ ~ 6 6 6 F u y u u u u m m m 4.4.4.4.4.4.4.4.4.4.4.4.4.",
"w , > L , > 6 L 6 ~ Q P 6 6 T 6 6 ; 6 T ~ w 6 5 w q w ( ~ w ; w > 6 6 6 ; ^ 6 L 6 4 u y u u u u m m 4.4.m 4.4.4.4.4.4.4.4.4.4.4.",
"> w , ; ; w - L 3 6 P  .E 4 T T 4 4 ^ E  .6 w 6 ~ q w ! ! > < ; w q 6 ; ; 6 H ~ ; L u y y y u u u m m m m 4.4.4.4.4.4.4.4.4.4.4.",
"> w 6 > ; 6 6 6 D O...=.| S o.J D ' o.o.: D H P Y w 6 > ~ r q 6 > 6 > > > , 6 > D  .] u u u u u u u u m m m 4.m m 4.4.4.4.4.4.4.",
"r I w > < > w E 4 D P  .=.J : D o.o.@.*. .: : E ~ * T w < > = w w E L L - > S E P H 4  .u u u u u u u u u u m m 4.4.4.m 4.4.4.4.",
"E U 6 > ; ; 6 T T 6 & D 4  .H L G &.*.S - ; < ~ w w > 6 , 4 4 6 E E * > > 5 6 6 - ; : - 4 : 3 H 6 3 H 4 u u u u m m m m 4.4.4.4.",
"E E L > 6 S w 6 : 4 3 Y T Q T P ..} H - 6 > > r q 6 6 : : F L ' E E > > > 6 ; 6 ; E H ; ; > , w > ! 6 w 6 3 ~ u u m m 4.4.m 4.4.",
"E Y 6 ; w L L 6 6 w 6.6.O.; E > ; , ; q , < , L E T L | 4 : ;.=.Y I w ; > 6 6 E 6 ~ w L 6 = w > w w I w 6 @.J L 6 m m m m 4.4.m ",
"P > - w E I w 6 6 #.O.I L w > w , L ~ ~ ! L > - ; Q J W X.: : X.T 6 ; ; < S L ! w w R I w > = I 6 > $.6 ; 8.6 : 6 ; m m m 4.m m ",
"6 4 H T ~ U 6 6 ; , w : > H > 6 H P P 4 6 ; 3 - 4 6 H ' O.6 6 6 H P ; T P : E E 6 6 w S = w > w 3 T ] @.W J Y F 3 6 6 m m m m 4.",
"4 4 , 6 6 6 > ; H T ! W D > H : J K 6 - : H L Q ~ ; 6 : 6 : w 6 4 K 3 +.^ 6 I > 6 6 > H = 6 ~ O.6.| G o.J G K | @.#.^ 6 * m m 4.",
"3 H I 6 L ; 6 ; , 4 3 Q L D H : S ; : 6 > ~ E E I 6 T 6 : Y =.: 4 4 4 =.P 3 , H H S 4 E ; H w , J ;.| G K K ' ;.W 6 6 6 6 q m m ",
"#.Y Q 6 - ~ E ; 6 H 4 : K : : *.=.=.' H 6 L < ~ ~ w , 4 W =.*.D ..| K *.: D ; Y T 6 4  .L H ^ : D D o.X.G :  .T 3 6 6 > > w I m ",
"+.^ = L ~ ~ 6 ; : 6.J : : : ..} &.} W H ; : , ; L E 6 4 =.O.4 :  .&. .J Y 6.7...4 : 6 O.J ^ ; H 6 4 E T W 4 H 6 6 w 5 = L 6 5 6 ",
"; #.6 ; < , - 6 6 =.6.T D ..J ..+.W : 4 ^ E , > H 3 H :  .T 3 6 : K =.K D : 6 ; 4 : 3 6 Q Q ; T I w ; 6 w 6 ; w w E w > 6 6 ; H ",
": 6 H w > > ; ; H ] ..O.: D L ..6 6 6 : T : - H | @. .: D D ; D : : Q Y - 6 ; : , ; L @., 4 #.E L q w w 6 w > q > E ~ w 4 6 4 + ",
"=.L H Q L - , > ; 4 ~  .H 6 @.O.S : D 6 ; ; @.8.6.| | 4 4 | 8.@.=.D > : L ; , < ; ; L W  .T O., > 6 w < ~ w q > > w E ~ : : + + ",
": , > T I > L 6 ; , 6 E ^ 3 ; 4 } o.L : 3 ; - > H - H : o.*.*.^ 6 - I ; , > w E 6 > - ; ~ ~ 6 H 6 = 6 L E 6 L > 5 > 6 T 4 4 + + ",
"H ; 6 H ^ Q > 6 6 L > ; , L 6 T +.=.=. .: 4 w , T T T : 6 H 3 > : > ; > < w > ~ E 6 : : 6 ; 6 ; 3 4 3 ^ E : q w * w 6 6 : + + + ",
"F L D 6 - w 6 , > > > S w r < > > , ; ; 6 - 6 E T 6 > H 6 > H 4 6 I 6 6 6 > , : Y : D @.6 , < , , 6 3 L I w w w q > w + + + + + ",
": W 4 T ~ ^ > > > H < w > > > > , < w < & ; L 6 6 T ; : w , w 6 6 E U 6 w ~ O.: D :  .&.4 ; > w 6 E 6 ; 6 w ^ e w 6 + + + + + 6 ",
"K : : O.O.4 w , I I E w w > > , ; > r > > 6 : ~ > ^ ^ 6 : H > w Y H E E 6 - ^ ..K D &.Q D 6 > - 6 ~ T L 6 F O.3 4 ^ + + + + 6 6 ",
"D D : H 4 4 4 T E H 6 - 6 6 w , w < > = > S Q T > r T S : : ^ > : 4 D 6 : 6 6 6.} K ..D H H 6 > 6 w Y T 3 W 8.' 3 J : 6 3 * : ; ",
"=.=.o.: : : 6 4 H 6 ; > I E E 6 w > < w L 6 P ..H ; ~ - H Y E H &.T H : ^ P 4 :  .K J P  . .~ > > 5 w T 3 K *.*.4 4 4 4 ; w 6 w ",
"=.| '  .D ..O.6.6.] Y - ; 6 T Q w > - ^ ; > O.D 4 ; 4 D ' Q T : &.8.H T > O.#.Y H L J K Y 6 , < , 6 6 3 4 4 G *.: G  .8.O.E I w ",
"K } ..J D Y W ] - > : : : 6 H I E w > E E H > ; 4 3 : 6 ] O.H : o.' W J 6 3 =.#.T E H P H : 6 > = w 6 6 J W J X.K X.X.@.Y : w w ",
"- K | : ; P ..: : : 6 6 ; > , 6 > H : T ] H - H  ...$...6 , 4 4  .J D : 6 6 6 6 E T 6 4 , > 6 > > ^ E #.=.=. .J G W W T , w = q ",
": 4 H Y T 6 ; ; O.O.! S > ; H w ; P : : o.O.: ..=.&.J : F S : D : P 4 6 6 * w 6 6 E w ; 6 L 6 ; w 6 w 6 4 L ~ T : 3 6 6 6 * 5 w ",
"4 O.=. .H ; H O.E ~ > I ; ; 6 O.L ; : : D : 3 ..=.: ; .. .Y W > H O.6 ; > ; 6 6 S w q ; w , w > = 3 6 6 w w 6 ; > ; w , 6 6 I w ",
"Y ' T , : P ; 6 > L w L 6 ; , O.] : H T ' =.@.K S 4 o.7.@.=.| : L +.6 * > w > > 6 > > > > q Q w 6 4 ; ; w ; = w ! * q > w w E > ",
"; w 6 6 H L > L 6 H L > 6 > w O.O.D P 6.8.@.} ..: :  .T @. .6 ; H L 6 : w I > 6 > > 6 w > L I E ; 6 6 > > > r ~ / < > < w w w > ",
", 6 w L H 6 , > w L w 6 - > 6 O.H H : ^ ] &.@.} W 6 H Y O.: , > w > 6 > 6 E w 6 6 ; L w 6 6 6 E 3 6 6 ; ; > ~ I R w q > w > > > ",
"L 6 I L > 6 ~ ~ 6 L L 6 > ; 6 6 : : ; T > 4 D D ; : 6 H H - 6 ; w w w > ; Q L H 6 6 ^ > e 6 6 6 ! 4 6 6 e 6 E w > w 6 ; w 5 : q ",
"w 6 > > ; > H I 6 > , 6 ; H E : H ; 6  .O.: , 4 D : : ; , w ; < w w 6 - ; P T L 4 6 E I ; 4 E 4 Y 6 6 ]  .6 6 4 6 6 6 > w > 6 < ",
"> 6 : 6 , 6 w ~ H > 6 O.- : Y E > L L T #.: : 6 T D 6 E ( > > , q r < > : H : E S : : $.; : ~ T ; w Y E O.6 6 3 E 3 6 E E > ; 6 "
};
