/* XPM */
static char *_8419_9a1bcc6a30c4b37f442b765229f9771a84da5e0b08a80648c203258af716701f[] = {
/* columns rows colors chars-per-pixel */
"64 64 178 2 ",
"   c #0B0A08",
".  c #100100",
"X  c #1B0204",
"o  c #090A14",
"O  c #270000",
"+  c #330100",
"@  c #2C1008",
"#  c #0E2901",
"$  c #132A03",
"%  c #152A0A",
"&  c #173403",
"*  c #1A3205",
"=  c #1F3804",
"-  c #1B320B",
";  c #17380D",
":  c #1F3113",
">  c #372605",
",  c #36270B",
"<  c #392E0C",
"1  c #233502",
"2  c #233C03",
"3  c #27310C",
"4  c #223A0B",
"5  c #353403",
"6  c #222413",
"7  c #382913",
"8  c #253114",
"9  c #223C13",
"0  c #2E3915",
"q  c #29391B",
"w  c #333410",
"e  c #241527",
"r  c #341C27",
"t  c #312222",
"y  c #363423",
"u  c #450303",
"i  c #431508",
"p  c #521F04",
"a  c #561310",
"s  c #57121B",
"d  c #741514",
"f  c #76151E",
"g  c #442407",
"h  c #492E06",
"j  c #4E280D",
"k  c #44221F",
"l  c #53201F",
"z  c #443414",
"x  c #663319",
"c  c #691823",
"v  c #4D3727",
"b  c #4D2B32",
"n  c #692521",
"m  c #7C2729",
"M  c #673424",
"N  c #783121",
"B  c #7A382C",
"V  c #18410E",
"C  c #254005",
"Z  c #2C4206",
"A  c #2F4903",
"S  c #27400C",
"D  c #2E4A0C",
"F  c #35500E",
"G  c #294114",
"H  c #294A15",
"J  c #2D431C",
"K  c #284B1D",
"L  c #334712",
"P  c #314A15",
"I  c #36431E",
"U  c #354C1F",
"Y  c #375114",
"T  c #35511E",
"R  c #304424",
"E  c #364B24",
"W  c #395224",
"Q  c #3D542D",
"!  c #384432",
"~  c #444314",
"^  c #44442C",
"/  c #534021",
"(  c #445E22",
")  c #455D2A",
"_  c #6F4128",
"`  c #436422",
"'  c #4A6321",
"]  c #4A6428",
"[  c #4D692B",
"{  c #536623",
"}  c #506A28",
"|  c #4B6331",
" . c #436930",
".. c #546B32",
"X. c #506638",
"o. c #536B38",
"O. c #4D783A",
"+. c #557330",
"@. c #5A7331",
"#. c #5B7439",
"$. c #676E38",
"%. c #627835",
"&. c #3D3A40",
"*. c #514945",
"=. c #6D4F4B",
"-. c #7A4841",
";. c #5C7540",
":. c #5E7B40",
">. c #637B43",
",. c #7C6857",
"<. c #767070",
"1. c #881B19",
"2. c #9D1522",
"3. c #AB1720",
"4. c #A41E25",
"5. c #AB1B26",
"6. c #B31729",
"7. c #B31C28",
"8. c #B41F30",
"9. c #8A2824",
"0. c #88252E",
"q. c #992223",
"w. c #9B2128",
"e. c #96282D",
"r. c #9C332A",
"t. c #992532",
"y. c #883331",
"u. c #983436",
"i. c #A82224",
"p. c #AC2B2D",
"a. c #A52130",
"s. c #B52730",
"d. c #BB2435",
"f. c #A83337",
"g. c #A53F38",
"h. c #B53235",
"j. c #BE353B",
"k. c #C52435",
"l. c #CA3336",
"z. c #C43539",
"x. c #CE3039",
"c. c #D1383D",
"v. c #914C37",
"b. c #993544",
"n. c #AB2D42",
"m. c #B93541",
"M. c #C73541",
"N. c #935249",
"B. c #9A5B5D",
"V. c #B5494B",
"C. c #886858",
"Z. c #9A645C",
"A. c #A7635B",
"S. c #AD7757",
"D. c #A55D61",
"F. c #996667",
"G. c #95696B",
"H. c #8E7A74",
"J. c #A4666A",
"K. c #A9777C",
"L. c #B77577",
"P. c #C94547",
"I. c #D74C55",
"U. c #D4696E",
"Y. c #E66568",
"T. c #7F8778",
"R. c #88857C",
"E. c #918579",
"W. c #9D7E83",
"Q. c #8A8684",
"!. c #958D89",
"~. c #9B9A9B",
"^. c #AC9E9C",
"/. c #B2A39A",
"(. c #AE9FA3",
"). c #B2A3A5",
"_. c #D69E9F",
"`. c #DDB7B9",
/* pixels */
"- * 8 4 # : 8 3 4 Y ` O. .= ' ~ 1 P @.` 2 2 = P T 4 - 9 R q , , i j g i p a g g 2  . .O. .= { A V ` ` ` 1 2 1 E J G 4 ; H 9 - & ",
"9 S 4 8 - ; G 3 3 2 C  .@.Y C & W H S E L 4 & W J 3 z y : 9 6 ,.C.C.,.,.C.C.C.,.E V : X.o.~ 5 Z ' { +.%...2 = J J 3 - - V - & S ",
"= 4 H 9 V ; - 4 3 ; 4 4 4 - = G ; : 9 G & ; V * q 7 i ,.,.T.T.R.Q.W.R.Q.Q.R.H.R.R.<.Q.E.G.C.=.N.p h C 2 9 3 9 G G : % 3 0 8 : G ",
"E L W 9 K V : ; = % 9 - - 9 G ; - G & - H E 9 0 7 l D.D.E./.!.~.~.~.~.~.!.Q.Q.R.Q.!.W.H.K.K.U.K.N.v./ / z < 3 - * = 3 0 8 9 9 G ",
" .J 4 1 G T 4 V G - ; ; ; $ % % : % ; 9 & W L > H.F.B.J._.^././.(.(.(.(.(.).).).(.).^._.`.`.`._.L.V.b.0.0.a z 3 * 4 9 I - = 9 U ",
"P 4 4 3 D H 4 L z v > , 7 z 7 t > > < < < z M A.A.N.B m B.B.Z.F.G.G.G.G.G.G.G.G.F.G.F.F.K.F.J.J.0.e.a.5.4.9.N p < 3 w ~ T V 1 U ",
"= G P P H 2 ~ x d f.f.f.u.v.u.u.u.g.V.V.g.V.g.z.5.q.2.q.9.0.t.t.0.y.y.0.u.e.e.u.u.r.t.e.f.f.a.m.f.n.s.M.8.a.p.r.N p g ~ W 4 1 4 ",
"4 3 3 2 ~ > v.g.h.z.M.z.V.U.U.Y.Y.I.z.z.l.z.l.x.k.j.s.h.f.f.z.z.h.g.f.h.j.s.P.Y.Y.Y.I.Y.I.m.m.U.j.m.M.M.m.d.z.d.h.r.N h L 2 4 P ",
"U * 5 h p v.h.j.c.h.e.m B y.u.P.M.I.x.x.k.l.l.l.c.z.z.z.z.z.x.x.z.z.j.j.z.z.z.P.P.P.g.M.M.m.m.V.w.m 9.y.q.m.z.z.x.h.q.y.h 2 T H ",
"E ^ g N.g.h.z.d.2.9.u X X O n y.n.d.d.k.k.l.c.l.z.z.m.m.z.z.x.x.z.d.s.i.6.6.6.i.q.i.i.i.8.m.U.b.a + .   n 9.n.j.l.P.P.9.h E H V ",
"I z _ q.l.x.m.t.c @ k b t . =.l f t.s.k.5.5.3.3.3.q.4.4.w.4.4.3.6.5.4.5.i.5.5.5.i.2.3.7.5.t.m s k   ^ @ v + f m.M.k.n.y.g I & V ",
"9 z n 1.s.d.a.f + *.. b b b b b b b b b b b b b i.i.4.4.4.4.4.4.3.5.5.a.5.5.3.3.2.i.5.4.t.b.O *.. o *.t 6 =.u b.m.m.a.y., 4 S ; ",
"4 < g a e.e.e.s r &.b b b b b b b b b b b b b b S.S.S.S.6.3.3.5.5.6.s.s.8.6.7.7.s.7.7.s.S.S.S.S.S.S.S.S.S.S.l n n.n.u._ < 2 w Y ",
"E w v + f t.m s b b b b b b b _ -.-.b b b b b b b S.S.S.S.S.S.S.S.s.s.s.8.8.d.s.3.s.S.S.S.-.-.S.S.N.-._ S.S.S.a 0.e.N p 5 C 5 $.",
"- - 6 i f t.0.b b b b b b b b b -.-.-.b b b b b b S.b S.S.-.S.S.S.S.S.S.S.5.4.4.S.S.S.S.S.S.S.b r S.-.S.-.-.S.-.S.M / 5 Y +.%.%.",
"; = 3 h N c b b b b b b -.-.=.N.b b -.-.-.b b b b b b b -.-.S.-.-.-.S.S.S.S.S.S.S.S.S.S.S.S.S.b r S.-.-.-.-.-.S.S.S.5 ~ ' ' %.A ",
"= E 4 3 < b b b b b b b b b -.-.-.-.-.-.-.-.-.b b b b b -.-.-.-.S.S.S.S.S.S.S.S.S.S.S.S.S.S.S.S.b r -.-.-.-.-.-.-.-.S.S.X. .} 2 ",
"S G 1 4 S b b b b b b b b b -.-.-.-.b b -.-.-.b b b b b b b -.S.S.-.-.-.-.S.S.S.S.S.S.S.S.-.S.S.S.b -.-.e e e -.-.b b r r b 2 4 ",
"S S S P b b b b b b -.b b b b -.-.b b -.-.-.b b b b b b b b b -.-.-.-.-.S.S.-.-.S.S.S.S.-.S.S.-.-.-.-.-.-.-.-.-.b b b r o o o 4 ",
"S 4 2 E b b b b b b b -.-.-.-.-.-.-.-.-.-.-.-.-.-.-.b b -.-.b -.-.-.-.-.S.-.-.S.S.-.-.-.-.S.S.-.-.-.-.-.-.b b -.b b r r r o r 4 ",
"H S 4 b b b b b b b -.-.-.-.-.-.-.-.-.-.-.-.-.-.-.-.b b b -.-.-.-.-.-.-.-.-.-.S.S.S.-.-.-.-.S.S.-.-.-.-.-.-.b b b r r r r e r 4 ",
"U U 4 b b b b b b -.-.-.-.b b b -.-.-.b b -.-.-.b b b b b -.-.-.-.-.-.-.-.-.-.-.S.-.-.-.-.-.-.-.-.-.-.-.-.-.b b b r r r r e r 8 ",
"U U b b b b b b b b b b b b -.-.-.-.b b -.-.-.-.b -.b b -.-.-.-.-.-.-.-.-.-.-.-.S.-.-.-.-.-.-.-.-.-.-.-.b -.-.b b r r r r e r - ",
"* K b b b b b b b b b b b -.-.-.-.-.-.-.-.-.-.-.-.-.b b -.b -.-.-.-.-.-.-.-.-.-.-.-.-.-.-.-.-.-.-.-.-.-.b b b b r r r e e e r 9 ",
"- b b b r r b b b b b b -.-.-.-.-.-.-.-.-.-.-.-.-.b b b b b -.-.-.-.-.-.-.-.-.-.-.-.-.-.-.-.-.-.b b -.b b b r r r r r r r r S - ",
"S r b r r b b b b b b -.-.-.b -.-.-.-.b -.-.-.-.-.-.-.b -.-.-.-.-.-.-.-.-.-.-.-.-.-.-.-.-.-.-.-.-.b b r r r r r r r r r r 4 U S ",
"0 r r r b b b b b b b -.-.b -.-.-.-.b b -.-.-.b b -.b b b b -.-.-.-.-.-.-.-.-.-.-.-.-.-.-.b -.b b r r r r o.X.D ..T S C 2 P U = ",
"4 r r r b r r b b b b b b b -.-.-.b b -.-.-.-.-.b b b b b -.-.-.-.-.-.-.-.-.-.-.-.-.-.-.-.b b b r r * C G | [ Y | D = T P U 4 * ",
"2 * r r r r r b b b b b b b -.-.-.-.-.-.-.-.-.-.-.-.b b b -.-.-.-.-.-.-.-.-.-.-.-.-.-.b -.-.b b r * V 1 = 2 $ 4 4 1 1 1 4 9 4 4 ",
"4 4 4 r r r r b r r b b b -.-.-.-.-.-.-.-.-.-.-.-.b b -.-.-.b -.-.-.-.-.-.-.-.-.-.b -.-.b b b b W U 4 = 4 S S 2 = 4 G 4 4 4 - - ",
"9 V - V r r b r r b b b -.-.-.b -.b b -.b b -.-.b r b -.b b b -.-.-.-.-.-.-.b -.-.b b -.b b b 9 * S = ..| 1 2 4 4 = - 9 9 - - 9 ",
"- 9 : & * r r r r b -.-.-.-.b b b b -.-.b b -.b b r b b b b -.-.-.b -.-.-.-.b b -.-.b b b b U U S C S Y | 2 4 * E G 4 R J : 8 % ",
"- V 4 - & r r r r b b b b b b b b -.b -.b b b b r r b r b b -.b b b -.-.-.-.-.b _ -.b b ..= | Y C ' ' ' = 2 1 L J 4 9 9 R : * - ",
"G J 8 4 : 3 r r r b b b b b b b b -.b b r b b r r r r r b b b b b -.-.b b -.b b b b b | #.P S * } ' @.#.{ 2 = U E 9 8 % 8 : : 9 ",
"J K 4 - & & r r r r b b r b b r b b b r r r r r r r r r r b r b b b b b b -.b b b b & & = = = S 4 1 4 2 4 2 4 4 8 8 9 9 G 4 * 4 ",
"U R 9 - 4 9 o o r r b r r b b r r r r r r r r q 9 = r r r r r r r r r b b b b b & E S & - - V 9 - E - 9 4 = E : = ; 9 - - 4 4 U ",
"E L = - 9 9 o o o e r r b b e e & ; & : - : * G E L G ' 2 1 %.#.o o r r r b b b e W G G : - : % 9 9 I 9 4 | L G 4 - 4 4 9 G 4 P ",
"L 4 & G U o o o o e r r r r e r 9 G E E E 9 - & & U D Y { = = { P o e e r r r b b e J J ; - ; J 4 - o.4 = >.4 1 4 * $ 3 - 4 4 E ",
"S 1 V P W o o o o o e r r r e 4 V H P - 4 * 1 & 2 4 S ] ] 4 4 4 S o o o o e r r b e e G - 9 - 8 1 P ) ..Y D D Z 1 4 4 4 4 4 = 4 ",
"2 = 4 4 4 o o o o o e e r t e = D F S & S S 9 T U & 4 = 4 * 9 4 2 o o o o o e e e e e ; * 4 E | ;.' A } D A Y ` ..X.E 4 $ 9 9 E ",
"= S I 4 o o o o o o 2 e e r r e 2 & = S - E T U J 4 L ; 2 P >.= 2 = o o o o 2 9 e e e e * S 9 4 D %.' A F F ( %.Y 2 4 4 4 : R E ",
"X.L T 4 o o o o o 4 2 = e e r e e #.) S = 9 : R W 9 4 1 Y #.@.2 [ o o o o C & L P e e e e e W 2 C 2 } { A = [ P 2 4 4 - 3 9 J 9 ",
" .W - G o o o o 2 ;.D 1 = e e e e e Y S * * ; * G U 4 2 ;.) 2 2 ] o o o o ;.:.[ = = e e e e e S 4 2 U L Y 2 S 4 4 9 - % 9 S 3 4 ",
"* | ; * o o o o o #.;.H = [ e e e e e 1 W E 4 = S 1 4 = ] P 1 4 = o o o 2 2 ; * 4 = 2 e e e e P I 9 * 4 9 4 $ 9 9 R 9 4 4 4 * S ",
"= ; S G - o o o o ) | | 2 V G e e e e S P 2 & S ` ..] 2 2 C & 2 = o o o & 4 * = 2 & G o.2 = X.U G : 9 9 4 9 3 8 - U E 9 2 4 2 Y ",
"#.G S E G * 4 - & = E [ 4 S ..] ; = C - & * ..>.#.' ' 2 C ' >...#.C = ; 9 * - 9 & * G P | P | 4 - = 9 8 W 9 : - - 9 U U 2 - F #.",
"= = 4 P I ; ; 4 * 2 4 U W 1 & = ` } J = 1 * & - S * S = } @.@.W 4 & J & - - G E 4 - & * U T 4 9 - * ; L U 4 L - - 4 4 P 1 S } %.",
"4 & = S U T 3 9 4 G - * 4 G S P  .#.#.] = 4 V = U H L 2 4 4 1 4 = - * - : 9 - R U 4 - = 4 & 4 * 1 4 2 E R * 8 9 $ 9 4 4 2 D %.A ",
"C G C 4 & ; S V - - - G : J : - % ; * * 4 & 4 U P 4 = S 4 - S 1 4 J 4 4 4 * V = P = C } = : : - 4 4 4 9 I 9 9 8 8 - 9 T 4 L | 1 ",
"2 W = P W W - - - 4 9 ; * ; % - - 9 G : # * G 4 4 P * * 9 9 9 4 4 U K 4 9 W | = C = ] +.; * - 9 4 U 4 * 4 9 W 9 9 4 J U 2 L 4 4 ",
"F * C [ | = S : I P R : : - - ; * % q - - G * E - E W S = V - 9 L S E T - * T | F C +.T Z S - & 4 W L G 4 4 [ 1 2 W P E 2 4 4 4 ",
"C C = S C = = P R S S & S 4 G ; 9 ; - - - ; T P - J J V = 2 W - 1 2 2 4 = 4 S ;.` F [ C S S 4 - 9 9 L L 2 Y >.( 1 D = 4 1 $ = * ",
"#.#.+.= = = 4 2 S 4 * = J T U S : - : 9 G 4 H | S * U & S L U 4 +.Y 4 = W P = = ` F D P ] ) W - - - G P 2 F @.@.2 = 2 2 * 9 4 9 ",
"#.` Y [ C ] | ;.;.) L & & ; L U 9 4 & E - 1 | 2 2 * 4 C ` T P 2 +.>.S P - ] X.L S G D F L V 9 - 3 4 4 1 2 = A @.= A [ ;.| U I 9 ",
"F ] } D C P Y ) * - = 4 = S V I U 9 - U U S - & 2 = = 4 ) | 4 = ..( Y D S = ;.X.L E S H S * 4 % % 9 4 4 D Y D { F { { ..P * 9 9 ",
"& F ' = & L [ = = = ; 4 * * - 4 - S = P ) S & S ] [ o.] 4 4 2 2 ` D C = 4 - 4 4 U P 4 2 4 - 4 - - U U X.#.#.] D A Y Y P 4 9 $ 8 ",
"= 2 4 P P 4 * * | | R S - * 9 4 * H 1 = [ | = [ #.+.D = S 2 = 2 = P = S = # 9 4 4 R G * 4 G 4 & 9 4 9 4 * L U P = 1 4 4 4 $ - 8 ",
"2 | #.] 4 * S | U E - J & & 4 | 9 & 2 2 C = 1 [ #.= & [ ] P Y = S | S * - * ; 4 V G 8 & 9 - G - % - 4 4 9 9 4 * - * 9 ; 4 4 I 9 ",
"L ) P 4 2 H * 4 - G 9 J 4 & - | ) 2 S P ( #...F C = } >.o.#.' 2 G  .4 $ - 9 4 - 4 - - - - 9 U 9 4 1 * * 9 1 % 9 R $ 8 = 9 9 U - ",
"* ; 4 4 S G - G 4 V G * - - G X.| C H ;.>...` [ = = ] H ..] ; - S G 4 = 9 J - 4 - - 4 ; - G G E * 4 4 - - - q E Q : - : 9 9 9 - ",
"G 4 G G 9 4 ; - 9 G G - & * S | 4 S 2 E ) +.} ` Y 4 S P [ 1 4 - ; - 4 - 4 U 9 4 S * G G 4 4 4 E 2 4 4 * * - W J E 9 8 - 9 - - - ",
"4 ; I G - 4 E E 4 G G 4 - * - 4 = 2 * P - 2 S S & = 4 S S ; - * 9 9 G - * U G 4 4 ; W - 4 4 4 4 I 2 4 4 9 4 E 9 - 9 = * 9 4 * 8 ",
"V = - - & 4 9 J 4 - 9 4 * V T = S * ; ] ] - ; 2 C = = * 9 ; & : 9 9 4 & * P P L & S E J * 4 U = G 4 4 ) | 4 4 1 4 4 - 4 9 - 4 8 ",
": S * 4 - 4 4 W S - 4 ] * 2 L E 4 G G P X.2 4 = P C 4 U ! - % - 9 q 8 - = ; 2 E S = = o.& 1 U P = 0 L U | 2 4 1 U 1 4 U E - * 4 "
};
