/* XPM */
static char *_f98f7aae8df4389949a2ec8f181a33d2hH97lD4XXlShGRk[] = {
/* columns rows colors chars-per-pixel */
"64 64 38 1 ",
"  c #080A14",
". c #090A14",
"X c #1E3616",
"o c #1F3616",
"O c #1E3716",
"+ c #1E3617",
"@ c #1F3717",
"# c #263A16",
"$ c #273A16",
"% c #263B16",
"& c #273B16",
"* c #263B17",
"= c #273B17",
"- c #241427",
"; c #241527",
": c #251527",
"> c #341D26",
", c #341C27",
"< c #351C27",
"1 c #4D2A32",
"2 c #4D2B32",
"3 c #4D2B33",
"4 c #2D4217",
"5 c #2C4317",
"6 c #344D1A",
"7 c #344C1B",
"8 c #354C1B",
"9 c #344D1B",
"0 c #354D1B",
"q c #5E761F",
"w c #5F761F",
"e c #5E771F",
"r c #5F771F",
"t c #476820",
"y c #476920",
"u c #476821",
"i c #466921",
"p c #7A4841",
/* pixels */
"o%%%o,,,,ppp2222pp32p222,,2,22p222ppppp2pp33y%y7%yyy%*%99%%%7%oo",
"%%%%+,,,,3232222pp222222,,,,22222pp22p22333yw0%%yyewi%%98%oo%oo%",
"%%7%*+,,,3332222p333<22,>>,,,2,222222p2233%&%%%0%*%&%%%%%oo%%%%%",
"777%7*;,,,33>22>333,<,,,%%%>,,,,,,2222223%%$0%%0%%008%%%oo%%%%%7",
"u7%%77;><<3<>22>,,,,<<<%%%%%%uww-,,322; .==$w%88=98%%oooO%%9%%%7",
"7%%%%;;>,<<<22>>,o%%%89%%%0%%o%u9-,,22; . =yq89%%9%%%oo%%%%97%%7",
"%%777;>>,,--   oo%%%7%99%%i%%o#%%-<<2;;    yri*%%%%%oooo%*%97%%%",
"%%%%9;>>;;-    %%*ooi%%%%qt%%#%%%-->3;     9y9%%%%%%oooo%9%%9%%7",
"7%%%;,>;;;%     %%%#iq%%iw9%%%009%;>::%9    79*8uqqo+%o%%9%%%%99",
"77%%;>;;;%%%     999iq99y0%=%%%7i;---%%%%     ii7#%o+%%%%99%%99%",
"777%;;;;%7%%0 ..  777iq90%%%%%%%i;--:%%%&&     #%o++%%%%%%99%9%%",
"%%%%;;;;;ii%$$..   778q97iii9*%%%:::%0%%&&&    ooo+%%%779%%9%%%%",
"%%%%7;;;;yw0&07.   %*777ii9$%%=7%--:99%%%%====o#%%oo8uiqw9%%%%%9",
"7%%%%%77%%ww&00$%%%oO%%#%%%%%%079%%99%%%yrrr&&o#77%o+%%uww%%%%9r",
"##%Oo%%%%%0i00$%%%%%Ooo###%%%870%O%99%%%9yryi%=#7w%%%+=%9ii=9wwr",
"#%%O%%%7ww070irri7%%7%oooo#%%%%%%%%9%%9%99yy9i%9ww%%%%it9%*8yyw9",
"#7%%%%%%%ii9iwqi%ooo77Ooo%ooo%%%$9%%%99%%%6i7**iit%%7iwi%%%iiii%",
"*7%%%999%%9%ii7#oo%%o77%o%%%%%%%%9%%999=%%%ii*7y7%%%wwi777%770%%",
"7**9%%999%%%9#ooo%%%%%%%o%%%%%%%9%%99=&&%%%%997%%%%%%777%%%%%%%%",
"***77%%Oo%%%%#o#%77%%%7%O%%70%0%%%%%%%eeey%%%%%%%%%%%%%oOoo%%%%%",
"9%%%9%%%Ooo%7%%%%%997%i%%77%%%0%r9##%y0ey0%%%%%777%%y%oo%%0%%%%%",
"99%%%%%%%%ooy0%%%%%%9%ie%0%%%%0%rr7#i0yy7%%%%Ooo7y0%ye%%0i7%%07%",
"96%%999%7i7o77%y9%&%%%9e%%0e0%%%iii7%yy%%%797*#o%%7%ywi%i7%%00%%",
"O9%999%%%0y0OO77%%9irr99%0e7%%%%i7i7%%%%%y9%##oo%%%%%0i%i%%%%%%%",
"%*%%%%%%%%%07ooo%77%9rr9%ii%%%%%7799%%%%%%Oo%%o#%%%y%%77oiwiy=%%",
"%y%%%%%%OO#Ooo%o##%%%9i9%=%=%%%%%09*%*%%%%ooooooO%yeey77iwi%*%9%",
"5y%67%%%77XXoo%7oo%%%%%%%%%%%%%%78*9%%%iy7%Ooo##%%%7yei7yi%*%79$",
"%%%%70%%%777%%%77ooo%%=%%=%%%%%o*9*88%%%77%%ooo7%%%%%yy7y%%977##",
"%%###7%%OO%%%%%77%%%%O%%#ooooooo%%%78%*%%77%%OO70%%%%%%%%%**%*%o",
"%%##**%OO%%%%%%%7%%%%OOOooO*7ooo%%%%99*%%%%%%%%%07%%%%%%%%%*%%o#",
"%%%#OOO7%777o%7%%%%97%%%##*77%O%%%%%o9%8*%*###7%%%%ii*%%%%****o*",
"%%%oO%%%%%7y7%70%%77i*%%7#*77OOo%%%Oo%%9***io#77%%77i%%%7%*77ooo",
"O**oO%%%%iieu%u7&iii%%%07%%%8%+%o%%o+%%%%yiei%i7%iii%%%77$#*7%oo",
"%7**#O%7%%7iq7%%yirri%%77%%%%++%%7%%oo%97%%ie7%%iiwwi%%70%oo%oo%",
"77*ooo%07%oo%i%79we%oo%0%%%%%%%%77O+o*%%OoOO%%%%%%%%%%%%%###%%%%",
"77#o##%%%%o77789yy%oooo%%%%%%%8i77O%ooooO7%O%O%%%%%%%%7%%###%%%7",
"97%%%%0%%%eeio9%%#ooo%o%787i%%qq98o+o%%9*77*#o%%%%7%%t7%%o%%%%%7",
"9%%%77%%%ii7%%%%%%779%oo%777i#%i9*+o%%*9**77#o#%%%i%$w%%%%oO%%%7",
"%%%977%%%%%%%%%%#77#%ooo%%%ii#%%%9%%9%99**##oo%%%7tw077%%%%%O%%%",
"%%%%%%oo%077%%&%77##%%999o%%o#%%%9%i9%9%####o#7iwi0y070iqu9*O%%7",
"%%9%%O%O%%%00%%%##%%%7799$9*%9r%%%%w7%%%%%%7%%%%0ey777ie7%%%+%77",
"y99%%97O%%%%7%%eqqi%*%%79$$%9rw%ii0w%%%07%%y%07%%0yi9%i7%%%+o%7%",
"i9%%70%O%r0O%%iyei7%%%O+99%%ry*%iwi07eey%%%i99%%&%999%*%%%oo%%%%",
"%i%%%%oo%ee7%i0ii7%%99%o%%%%i9%%%0w7%%%%%%%%98%99%%%%%%%%7%%%**%",
"%%%%%ooo%yyy**7i%%%%9oo7iiy%%%%%%&77*oOOO%7i%%i9%##**%Oo%99%%%%9",
"e%99%Oooo%7y7*ii%%%%#oiqwiy%%ierr%##oo%*oo%0i0i%%#**7*%o#%99%%9r",
"%O%97%%%O%%77%#*uu7%ooo#$%%%yrr9%o%#o**7%oo%70%%OO*77*##o#%9%%re",
"%%%%77%%%%%%%%#7iqei***#899%%%*%%#ooo**70%o%%%%oO**77*##oo%%%9r9",
"%0%%%%%%oo%%%%%ooooooo#77%%%%%%%%7%%%%%%7%%i%%oo%%%%7%%%%O%0%7i%",
"%0%777%%ooo%ooooo%%o%+%%%7%%%%%%%77%%0i%%%iw%%o%%7%%%%7%%%77%0%%",
"0%%ii%%%887%o%oooo%o+%%7*77%%%%%7%70%%0i7$w7%%oo%77%%0i%%000%%%%",
"%%%%%%%77%%o%%%%%ooo+%77*%7%%%9%%%%%%%%ei0i7%%%o%%77%0ey%0%%oooo",
"eei%%%%%**#o777%%%o%%%8uoo7%%79%e0%%00%%i77$tt7oo%%7%7ee%%%%%%%%",
"ryii%iiqei*oo%77%%o7%%i%%%%%i79%er00%yi0%0007%%%o%%%%%9e%9iei08%",
"0ii7%77io*#o#=*97%o77%%+**%%ii%%ii7%%%ey77%0%%%Xo%%%779i9yei8%%%",
"%0io%7i+o*##oO%%%%%7u%%%iiei*%%%y7%%%%%%77%%%oXX%77yeey99877%%o+",
"%&499*ooii7%%o%%%%%%ii%yqq9=%%%%%0%%oo%%%0%%%%%#%%%%%777o#**#oo#",
"%iri%%%i77%7oO%y==%%%%%yq%#yi99%%i%%ooo%%%%O%%%%oo%%%%Oooo*##*7#",
"4y5=%%%%*%%%%o%yy=%9iww9%%yweri%0i%oo%oo%%OOO%7%%oo%%Oo%7+o#%%7*",
"%%%444%%%55%o%%yy%8wwiyi%%i9ii%o%%%%%7%oOOO%%%77%%oooo%77#oo%%*+",
"%%44%%%%%55ooo%i%%%0ieii7%77i%%o%%%o%7%%%O7%%%*9%%%oo%777%%X%%%O",
"%=9%%%99%%7oo%%%%%%%%%%%oo%%%%Oo%%%o%77%%*7%%%%%7%%%%%7%%%%#%%OO",
"##%%o%%7%%%%O%7%%%%iy%%%%%%%%%o%%%%oo7%7**77O%7%%%%iu%%#%%%%%%O%",
"##o#O%*7%%%io%77%%89y%%%9%*77ooo%%ooo%%7***i#%77%%77u%%%7%%77OOO"
};
