/* XPM */
static char *ZW50ZXJkb3dubDI_[] = {
/* columns rows colors chars-per-pixel */
"64 64 37 1 ",
"  c #080A14",
". c #090A14",
"X c #090B14",
"o c #1E3616",
"O c #1F3616",
"+ c #1E3716",
"@ c #1F3716",
"# c #1F3617",
"$ c #263A16",
"% c #273A16",
"& c #263B16",
"* c #273B16",
"= c #263A17",
"- c #263B17",
"; c #241527",
": c #251527",
"> c #341C27",
", c #2D4217",
"< c #2C4317",
"1 c #2D4317",
"2 c #344C1A",
"3 c #344D1A",
"4 c #344C1B",
"5 c #354C1B",
"6 c #344D1B",
"7 c #5F761E",
"8 c #5F771E",
"9 c #5E761F",
"0 c #5F761F",
"q c #5F771F",
"w c #476820",
"e c #466920",
"r c #476920",
"t c #466821",
"y c #476821",
"u c #466921",
"i c #476921",
/* pixels */
"O&&&O-&&&6e7e&e5=6te&& ::;;X =o=o=&OO&&&&ee0e-iXXXX.&;;>>;&&4&##",
"&&&&@@&&&&&e72&&22662  ;;;X&ooo==6&=OO=65&-eqX  XXX0e&;;;;OO&##&",
"=&4&-@@@O&&&==&&&&&&& ;;;;OOOO&=62OOO&&&&&&&X   X %%&&;;;;&&&&&&",
"444&2---OO&&O=-&O&&&=6;;;;&OO&6e22O=&&&&&&&&XX  X%456;;:;;&&&&&2",
"t2--22&-&OooOOOO@@&&&6;;;&&&&e9966OO&662&&&&q&66%45&&:::;&&6&&&2",
"4&---2&622ooO=OO@@&&-66-&&2&&#=e2&&OO&=22&&eq66-%4&&&OO&&&&62&&4",
"&&426&66&Ooo&===O---6&66&&e&&O=&==&OOOO=&2&eqe--%&&%OOOO&&=66=&&",
"&&==6&&-OO=&&6&==&&@e---&8e=&&&-&&OOOOOO&&&6e6===&&&OOOO&2&&6==4",
"2&&&&&&&O&&&66&&&&&Oe9--iq2---666&&O@&&6q88e66&4e88oOO=&&6&&=&66",
"22&&&&OoO&&-66-&4444e955i2---&&2e6&&@&&&&6eee6ee6&&oO==&&66&=66&",
"442&&Oo&=6&-6&-&&&224e052&&--&--e6&&&-&&&&=6e6==&Ooo==&&&=66&6&&",
"==&&&&&&-ee=&&664&&244052iee6---=e&&&6&&&--=&&OOOOo===446&&6&&&&",
"=---666&-e05&666&&&&&666ii6&&&-5--&&22&&&&--&&O=&&OO6ee9q5--&&&6",
"6&&-&&66--q0-66&&&OO&&&&&&--&&556-&62&&&e800&&O=46&OO&=eqq-=&&28",
"&O&@O=----4e44&&&&&&@@@&&&--&522-&&64===6e8ei=&=28&&&@&&5ee=4988",
"&&&@=&&27q444e88e6&&6&@@@@@&&&&&--&6==6&66ee5e&598&&&&ii2-=4ee92",
"&6&&&&&&&ee2e7qe-O@@26@@@&&OO&&&&6--*62&--2e6&&ete==2e9e==&eeee=",
"&6&&&666&&2-ee2-OO&&@22&@&&&&&&&&6&*652&--&ee&6e6&==88t666&666--",
"6&&6=&222---5-@OO---&&&&@&-&&&&&6&-62-&*&&--626&&&--=622=&&&&&--",
"&&&66&&O@----#O--22-&&2&@&&62&2&&&----qqqe===&&&&&&-===#OOO&&&&&",
"6&&&6-&-OOO=6&&&&-666&i&-22--&5&q2==&i2qi2&-&&&622&&i&=#&&6&&-&&",
"33&&&&&&&&OOe6&&&-&-2&eq-2--&-5&qq6=r2rr2&--&OOO2e6&eq&&6e6&&66&",
"64&&666&2e2o63&e6&----5q--2q5-&&eee6&ir*&&666&&O&&6&iqe&e2&&66&&",
"O2&666&&&4e6oo66&&6eqq55-2q2--&&e6e6-&&&&r6&&&OO&&&&-2i&e&&&&&&&",
"&&&=&&&&&&&66OOO&66&2995=ee-&&&&6266=---&&OO&&O&&&&e--52&e9ee-&&",
"&e--&&&&OOOOOO&O&&&&&2e5----&&&&&25-----&&OOOOOO=&eqqi52e8e&=-5&",
"1e&63&&&33OOOO=6@@&&&&&&&&--&&&&25-5&&&ee6&OOOO&==&6iqe5te=&-55&",
"-&&&36&&&366&&&66@OO&&&&&&--&&&O&2-52&&=66&&OOO6==&&&ie2e&=566&O",
"&&==&2&&oo=&&-&66&&&&O&&@@OOOOOO&&&62&--&66&-O@62===&&&&&&&&&--@",
"&&===&&o$&==&&&&2&&&&OOO@@@&2OOO&&&&26--&&&&&&&&22-&&&&&&&&&--O@",
"&&&=ooo6&222@&6&&=&66&&&&&&22&@-&&&&@6-6&&&=@&6&=&-ee&&&&&&&&-O-",
"&&&=o$$&&&2e6&66&&66e&&&2&&25@OO&&@@&&&6&&&e@&66-&66e&&&6&&66OOO",
"@--O@&&&=ee9e&t2&ett=&&66&&&6&OOO&$$o$&&&eeqe%e6&eee-&&65&&&2&@@",
"&2&&@@&6==4e92&&et88t&&66&&&=OO&&6$$oo&22&&eq5&-eeqqe&&25&@@&@O&",
"22&O@O-65-OO&e&2288=OO=6&&&&&&=&63ooO&&&OO@@-==-&&--&&&-----&&&&",
"66&O&&----O44426ee&OOOO&&&&&&&6e66o$OOOO@2&@=#==&&&&&&2--@--&&&2",
"62&&--6--=88e&6O#O@&O&O&642e=&8866OOO==6&22&&O@-&&2&&i5-=OO=&&&2",
"6&&&55---ee2&&&&==666&OO&624t==e6-O@&=&6&&26&O@-&&i-&0&&&=O=&&&2",
"&&&222&&&-=-&&&&&66&&O&@--&et=&&&6&=6&66&&&&OO--&2eq255-&&&&@&&&",
"&&&&&&@@&225&&&&66&&&&666@===&&&&6&e6&6&&&&&@-2e0i5e255eqt2&@&&6",
"&&6-&@&@=&&66&&&&&=&&4446&2&&2q-&&=q6&&&&&&6----6qe666e96&=-O-66",
"i23&&55O==&&6&&q88e&&&=46&*&5qq-ee6q&&&66&&e-56&&6ee4=e4&&=OO-6&",
"i3&&66-O=86O&&te8t4&--OO66&&qe--e8e6688e-=&e62&&&&666&&&&&OO&&&&",
"-i&&&-OO=896&t6et2&&22=O&&&&e5--&686-==&&=&&65&66&-===&&&6&&&--&",
"&&&&&OOO=ttt&&2i-&--2@O5rrr&&&&&&=66&O@O&&2e&&e6&&&&&&OO&66&&&&6",
"8&66&OOO=&6e6&ri&&--@@eqqrr&&eqq8=&-O@&&OO&2e2e&&O&&2&&O&&66&&68",
"&O-66&&&&&&66&&&ee2@OO#---&&eqq2=O--O&&6&OO&56&&OO&66&&&O&=6&&88",
"&&&&66--*&&&&&&2iq9e----222&&--&-OOOO&&62&O&&&&@O&&26&&&OO=&&686",
"&6&&-&-&=O&&&&&@#OOOOO=66&--&&&&-3&--&--5&&e&&OO&=-&5--&&=&6&6e&",
"&6&625--OOO&@@@@O&&OO#==&6--&&&&-33-&3i-&=e8&&O&&2&&&&2&==66&6&&",
"2&&ee---666&O&@@OO&#O&&6&66&&&&&3-33&&6i5-82&&OO&62&&5e&=666====",
"&&&&---56==+&&&&&OOOO&55-&6-&-2-&-&&&&-qe2e2&&-@--55-50e&6&&O=@O",
"88y=--==&&&o666=&&O&&&5e@&6-&62-q3&&22--e55&ei2@@-&6&689&&===&&&",
"9eye-ee98e&oO=33=&O6&=e&&&-=e62&qq33=ee2-5652-&-@---&&68&6e9e66&",
"4ee4&66e&&&oo$&34&O65&&@&===ee=&ii3&--qe66-6--&@O&--666e6t9e6&&&",
"O4e=O5e#O&&&oo&&&&&4e&&&ee9e=---i2&&--&&66---OO@-66e88e66666=&OO",
"=&126-OOtt4&&O&&&&&&ii&i995==&&&&6&&OO&&&3&$$$&@&&--&666&O&&OOO&",
"=e8e&&-e22&4OO&e&&&&&&&i9==ee44&&i&&OO=&&&&$$$&&@@--&&OOOO&$&&6=",
"1e1&&&&&&&&&=O&ei&&2iqq2&&e988e&6i&@o=oo&&ooo&2&&@O==OO=6oo$&&6&",
"--&111&-&<<&O&=ei&6qqeei&&e5et&O&&&&=6=oooo=$$22&&OOOO=46&oo&=&O",
"&&11-&-&&<1OOO&e--&2e9ee5&56e&&O&&$o&6&&&=6=&&&4&&&OO&246&&O&=&@",
"&&2&--66&&6OO&&=--&&=&=&OO&&&&OO&&&o&66&--6=&&&&6&&&&&2&&&&O&&@@",
"==%=O-=6&&&&O=4=---ee=&&&&&&&&o&&&$oo6&2=-44O&4&&&&ee&&&&&&&&&@&",
"===&O-=5&&-eO&52--55e&&&6&&62Oo=&&ooo==2=&%eO&66&&66e&&&6&&66@@@"
};
