/* XPM */
static char *result[] = {
/* columns rows colors chars-per-pixel */
"64 64 56 1 ",
"  c #080A14",
". c #090A14",
"X c #090A15",
"o c #1E3616",
"O c #1F3616",
"+ c #1E3716",
"@ c #1F3716",
"# c #1E3617",
"$ c #1F3617",
"% c #1F3717",
"& c #263A16",
"* c #273A16",
"= c #263B16",
"- c #273B16",
"; c #263A17",
": c #263B17",
"> c #273B17",
", c #241427",
"< c #241527",
"1 c #251527",
"2 c #341C26",
"3 c #341C27",
"4 c #351C27",
"5 c #341D27",
"6 c #4D2A32",
"7 c #4C2B32",
"8 c #4D2B32",
"9 c #4D2B33",
"0 c #2D4217",
"q c #2C4317",
"w c #2D4317",
"e c #344C1A",
"r c #344D1A",
"t c #354D1A",
"y c #344C1B",
"u c #354C1B",
"i c #344D1B",
"p c #354D1B",
"a c #5E761E",
"s c #5F761E",
"d c #5E761F",
"f c #5F761F",
"g c #5F771F",
"h c #466920",
"j c #476920",
"k c #476821",
"l c #466921",
"z c #476921",
"x c #7A4840",
"c c #7A4841",
"v c #7B4841",
"b c #7A4941",
"n c #AD7756",
"m c #AD7657",
"M c #AC7757",
"N c #AD7757",
/* pixels */
"O==OO====ykfz=zi=ikz=:=ip===i=OO$==OO:===zzfl=zi=klz=:=pi===p=OO",
"=-=&@O=====kfi==iiiii==ii===OOO==p-&#O=ii==zfi==zzffz==ii&OO&OO=",
"==i==$oO$=============:===OOOO==piO$O======88888888:=====OO=====",
"iip&i===+O==OO:&O====i=====@OOiziiO===;=8888888888879===OO=====i",
"zi==ii==:ONNNNNNNNNN=ii&====OzffiiOONNNN88898888888888O@%==i===i",
"i&===i=iiNNNcccNNccNNNr===i==O=NNNNNNNN88888868ccc888888===ii==i",
"==iir-iMcNccNcm38NNNNNNN-=zNNNNNNNcNN8N8888888vcc98888888==ii===",
"====i=NNNcccccN38NNNNNNNNNNNNNcxcNcc88868688ccc88cccc88888==i==i",
"i==:NNcccccccc38NNNNNNNNNNNNNNNNcccc888898ccccccccc88886888===iy",
"ii83388cc<<<cc8mNNcNNNmnNNNccccNNc88888887ccc88ccxc88898898==pi-",
"i...3878cxcccccccNNcNNNNccNNccccc8888888888ccb88vx9788c88888&i=&",
"=3.43388c88cccxccNNccccNNcbNccccc8cc888cccccccccccvxcc888888====",
"&3<3333888ccccccNNccccNNNcccccccccc7888cccccccccccccccc888889&=i",
"i3<3333888cccccccccccccNccccccccccc888888ccc88ccc888bccc88886=if",
"=3<333388cc8cccccccccccNccbccccccccc888c8cccc88cccc88888888888ff",
"=3<<<3338888cbccccccccccccccccvccc8cc88ccccbcccxcccc8888888888fi",
"=i33333333888c88cccccccccccccccccc888888ccccccccxcccc8888833689=",
"=i=333333333388vbccccccccccccccccccc88ccccccc8xccx8ccc888883383=",
"i==i==iii==333388c8ccccvcccccxcccc88888c88ccv86cbcc8cc888888433=",
"===ip==oO====o33888cccccccccccccccc888888ccccc88ccc888889328334=",
"i===i=&=OOO=r&=388cv8cccccccccccccc8888ccccbccccccc78888833333==",
"ri=====&==$$zi==8888cc8cccccccccc8vcc886xccccccccccc882393333ir=",
"ip==iip:pzrOri=zi888c88cc8ccvcccc888c8388cc88c88c8ccb8833833ii==",
"Oi=iri===iziOOiy=-8888cc88cccc8ccc78875388c88cc8888ccc83333&-==-",
"=-=&-======iiOOO=ii=88cc8cccxx888b98383388898cc888888883334lz===",
"=z=-==-=OOOOOO&@O===&88888c88cc888883333388388c88889888333z-==i=",
"wl=ii===iiOOOO=iOO&=-=8888c8888883833333333338883883883333=-=ii=",
"====ip===iri===iiOOO===888888833234333==r332333338823833.==iii=O",
"&====i==$o=====ii====O==<<688333===ii-:=&ii==OOi<388533..&-====@",
"==-==&-OO=======i=::=OO...18833<====ii;==&====&=i<333<<..=====O@",
"====O$Oi=iiuO=i===-ii==..<8933<,====Oi&i====O=i=<333<<....=;=-O=",
"==OOO=====izp-ii-=iiz:=1<<<33<<O==OOO==i===zO=ui<33<<.....=iiOOO",
"O==Oo&===zzfl&zr-zzz==<<<<<<<=$OO=&OO====zzsz=z<33<<=....X:=p=OO",
"=i=-OO=i==ijfi=&zkffz<<<<<<==OO==i==OO&ii==zf<<<<<<fz=... OO=OO=",
"ii=OOo=ri=OO=z=iiff=O<<<<.==;-==ipOoO:==@Oo@<<<<<<===&X...==:===",
"ii=O===>==Oiiiiizz=OOO. ..===&iziyo=OOOOOi=O<<<<<=-==.....=====i",
"iy====i===dfzOioOOOOO=...piz==ffiiO$O==i=ii==OO&&=i=&....OO===-y",
"i:==ii===zli==-===iir=OO=iiiz:=zi-OO==:y==pi=OO=-:z&=f==-&OO===p",
"===iii======&==&-ii==OOO===zz====i==p=ii===-@O=-=rkfiii===:=#===",
"=====&$O=ipy=:&&ip====iiiO==OO===i:zp=r=:===O=ilfjiziiikfki=$-=i",
"==i=:O-o===iy=-====&=iiii=i:=if====fi-=;===i====ifzyrizfr===$=ii",
"zii==iiO===&i==fffz&==:ii===iff-zzpg==-ii==z=ii==izki=zi=-=$@=i=",
"zr==ii=O=diO-=zzfzi==:O$ii==fl&=lfkiidfz===zii-=:=iir=====oo===-",
"=z==-=OO=ffi=zizzi=&ii-O====zi===ifi======:-rp=yi===-====i==-::=",
"==:==OOO=zjz==yz>===i@Oizjz=======ii=OO#O=iz&=zi=====:@O=ii====i",
"f=ii=OOoO=rzi=zz===:O@zfgzz==jfsf===oO==OO=iziz==o==i=:$O=ii==if",
"=O=iy===O:=ri===zzp@OOO=====zffp=O>-O==i=OO=yi==OO=ei===O:=i==fs",
"====it===::==:=izffj====iii===:==OOOO==iy&O====OO==ii==-oO===rgi",
"=i===-==#O=&===O$@OOOO=ir:=======i======i=:z==OO===&i====%-i=iz=",
"=i=iii==OOO-OOOOO>&OO$&==i=:==-==iy==iz===zg==O&=i===-i&==ii:i==",
"p==jz==&iii=O=OOOO=OO==i:ii=====i=ii==izi-fi==OO=ii==yz:-rii====",
"=====:&ii==+=====OOOO=ii::i===i-=======fkizi===O==ii=ifz=i=>OOOO",
"ffz-==&-===Oiii===o:==izOOi==ii=fi==ir==zyi=zziOO==i=isg=====&&=",
"fzzz=zjffz=OO=ii>=Oi==z&==-=zii&ffip=zzi=riii===O====-if=rzfziy=",
"izzi=iizO==OO:=ii=Oei&OO::==zz==zzi===fzii=i=:=OO===iiizyzfzi===",
"OizOOizOO===OO===:=iz===zzfz:===zr======ii===$$O=iizagziiiii==O$",
"=-wiy:OOzzi=&O====:=zz=zffi======i==OO=-:i===&=O=====iyiOO==OOO=",
"=lfz===zir=pO@=z:====&=zf=Ozhii==z&=OOO==--o==-&OO=:==OOOO-==*i=",
"wzw;=====&&=:O=zz=&izgfi==zfffz=iz=@O=@O&=OOO=i==OO==oO=iO$===i=",
"===www===ww=O@=zz=ifdzkj==zikz=O===O:i=OOOO===ii:=O$OO=ii=OO===o",
"==0w-====wqOOO-z===izfzzi=irz==O==:O>i==-Oi===>i=&=OO-iti==O=:=@",
"=;i===ii==iO@===========OO====OO===O=ii===r=====y=====i====O=:OO",
"=&-=O==i====O&i====zz=====&-==O-==:OOi=r:=piO=p====zz===-:-==&@=",
"-=OOO==i=-=zO&iy==iiz===i==ii$OO&=O@O==i===zO=ry==iyz===i:=iiOOO"
};
