/* XPM */
static char *_699_e509ae258fbda13764d8a32c67b5eee3079cc05da21df3b1e5c15eb312e4fc1d[] = {
/* columns rows colors chars-per-pixel */
"64 64 184 2 ",
"   c #020101",
".  c #010A00",
"X  c #160203",
"o  c #081103",
"O  c #10100E",
"+  c #090A14",
"@  c #131C17",
"#  c #270D0E",
"$  c #330100",
"%  c #0E2901",
"&  c #132A03",
"*  c #152A0A",
"=  c #163403",
"-  c #1A3205",
";  c #1F3804",
":  c #1B320B",
">  c #17380D",
",  c #1F3113",
"<  c #332206",
"1  c #3A2805",
"2  c #36260B",
"3  c #392E0C",
"4  c #233502",
"5  c #233C03",
"6  c #27310C",
"7  c #223A0B",
"8  c #353403",
"9  c #222413",
"0  c #22251F",
"q  c #382913",
"w  c #253114",
"e  c #223C13",
"r  c #2E3915",
"t  c #24311C",
"y  c #29391B",
"u  c #333410",
"i  c #241527",
"p  c #341C27",
"a  c #2F2E28",
"s  c #312222",
"d  c #353733",
"f  c #440C06",
"g  c #521F04",
"h  c #561314",
"j  c #76151E",
"k  c #442407",
"l  c #492E06",
"z  c #40300D",
"x  c #4D2316",
"c  c #53201F",
"v  c #443414",
"b  c #691823",
"n  c #4A3820",
"m  c #533925",
"M  c #4D2B32",
"N  c #493336",
"B  c #692521",
"V  c #7A2322",
"C  c #7E2A2E",
"Z  c #673424",
"A  c #783121",
"S  c #19410E",
"D  c #254005",
"F  c #2C4206",
"G  c #2F4903",
"H  c #27400C",
"J  c #2E4A0C",
"K  c #35500E",
"L  c #2A4214",
"P  c #294A15",
"I  c #2D431C",
"U  c #284B1C",
"Y  c #334712",
"T  c #314A15",
"R  c #36431E",
"E  c #344C1F",
"W  c #375114",
"Q  c #35511E",
"!  c #304424",
"~  c #364B24",
"^  c #395224",
"/  c #3D542D",
"(  c #384432",
")  c #444314",
"_  c #434520",
"`  c #534021",
"'  c #445D22",
"]  c #455E2B",
"[  c #55522A",
"{  c #444238",
"}  c #6E4128",
"|  c #436422",
" . c #4A6321",
".. c #4A6428",
"X. c #4D692B",
"o. c #536623",
"O. c #506A28",
"+. c #4B6331",
"@. c #436930",
"#. c #546B32",
"$. c #506638",
"%. c #536A3B",
"&. c #557330",
"*. c #5A7331",
"=. c #5B7539",
"-. c #676E38",
";. c #627835",
":. c #3D3A40",
">. c #454546",
",. c #574445",
"<. c #595244",
"1. c #4D4F50",
"2. c #565555",
"3. c #6D4B48",
"4. c #7A4841",
"5. c #665554",
"6. c #5C7540",
"7. c #5E7B40",
"8. c #637B43",
"9. c #5D5D61",
"0. c #695E63",
"q. c #6C6668",
"w. c #767070",
"e. c #881B19",
"r. c #9D1522",
"t. c #AB1720",
"y. c #A41E25",
"u. c #AB1B26",
"i. c #B31729",
"p. c #B31C28",
"a. c #B41F30",
"s. c #892724",
"d. c #8C2925",
"f. c #88252E",
"g. c #992223",
"h. c #9B2128",
"j. c #96282D",
"k. c #873024",
"l. c #9C332A",
"z. c #992532",
"x. c #883331",
"c. c #983436",
"v. c #A82224",
"b. c #AC2A2D",
"n. c #A52130",
"m. c #B52730",
"M. c #BB2435",
"N. c #A73837",
"B. c #B53235",
"V. c #BE353B",
"C. c #C52435",
"Z. c #CA3336",
"A. c #C43539",
"S. c #CE3039",
"D. c #D1383D",
"F. c #914C37",
"G. c #993544",
"H. c #AB2D42",
"J. c #B93541",
"K. c #C73541",
"L. c #935249",
"P. c #9A5B5D",
"I. c #B5494A",
"U. c #91675A",
"Y. c #A7635B",
"T. c #A55D61",
"R. c #996667",
"E. c #95696B",
"W. c #95766C",
"Q. c #A4666A",
"!. c #A9777C",
"~. c #B77577",
"^. c #C94547",
"/. c #D74C55",
"(. c #E35D60",
"). c #D4696E",
"_. c #E66568",
"`. c #8D857B",
"'. c #9D7F83",
"]. c #A69997",
"[. c #B99E9A",
"{. c #B2A39A",
"}. c #D69E9F",
"|. c #DDB7B9",
/* pixels */
": - w H & p p p p 4.4.4.M M M M 4.4.M M 4.M M M p p M p M M 4.M M M 4.4.4.4.4.M 4.4.M M @.- o.G S | | | 4 5 4 E I L 7 > P L - = ",
"e H 7 w : p p p p M M M M M M M 3.L.M M M M M M p p p p M M M M M 4.4.M M 4.M M M M M $.#.v 8 D  .o.&.;.#.5 ; I E 6 : : > - - S ",
"= 7 L e S > p p p M M M M M M M } N M M p M M p p p p p p M p M M M M M M 4.M M M M ].`.E.U.3.L.g l D D 7 6 e L e , * 6 r w e e ",
"Q T ^ e U S i p p p M M p M M p M M M p p p p p q c T.p p p p p p p M M M M M M s ].E.'.!.!.).!.L.F.` ` n 3 6 : - 7 6 r w e e L ",
"@.I 7 4 L Q i p p p M p p M M p p p p p p p p 1 W.R.P.Q.[.{.{.{.i p p M M M i + + [.{.[.|.|.|.}.~.I.G.f.f.h 3 6 - 7 7 R 7 - e E ",
"T 7 7 6 J i i p p p p p M M p p p 3 3 3 3 v Z Y.T.L.C C P.P.P.R.E.i p p M M i + + + E.R.'.R.Q.Q.f.j.n.u.r.s.A g 3 6 u ) ~ 7 4 E ",
"7 L Y T P i p p p p i i + + + c.c.N.I.I.N.I.N.V.v.g.h.g.d.f.z.z.f.i p p M i i + + + + z.B.N.n.J.N.H.m.K.a.b.b.l.A g k ) Q L 4 ; ",
"7 6 6 5 ) i p p i i i + + + + (._./.A.A.Z.A.Z.S.C.V.a.B.N.B.S.A.B.i i p M i + + + + + (./.J.J.).V.J.K.K.J.M.K.M.B.l.A l Y 7 7 T ",
"~ - 8 z i p p i i i z.+ + + + + K./.S.S.C.A.Z.Z.Z.A.A.A.V.A.S.S.A.A.i p i i A.^.+ + + + K.K.J.I.j.V V k.g.J.K.A.Z.B.h.x.l 5 ~ P ",
"~ _ k L.i p i i i s.f X + + + + + M.C.C.C.Z.D.Z.A.A.J.V.A.A.S.S.A.i i i i i.i.v.g.+ + + + + ).G.h $ X X B d.H.V.Z.^.^.d.l Q P S ",
"R n } h.i i i i b f x N s + + + + + a.C.u.u.t.t.u.g.y.y.h.y.y.t.p.i i i i u.u.u.v.r.+ + + + O c x + { # m $ j V.K.C.H.x.z R = S ",
"7 v B e.i i i i i >.  :.:.@ + + + + + H.p.u.t.v.y.v.y.y.y.y.y.y.t.i i i v.u.t.t.r.v.u.+ + + + { X O <.s 9 5.$ G.J.J.n.x.2 7 H > ",
"7 3 k h z.i i i i :.@ 1.:.1.i + + + + M.a.i.u.t.y.v.p.i.i.t.t.u.u.i i i a.p.p.p.m.p.p.m.b.B # s X s 2.2.i 5.h B H.N.c.} 3 5 u W ",
"~ u m $ j z.C h ,.0 >.2.w.w.2.M { $ j.u.a.m.M.b.b.b.p.M.C.M.m.m.m.m.m.m.a.m.M.m.t.m.b.b.j.$ 5.0 d q.0.q.2.s 3.h f.j.A g 8 D 8 -.",
": : 9 f j z.f.h ,.>.1.q.5.0.,.,.m $ V g.n.n.b.M.b.b.m.m.p.m.b.b.b.b.v.u.u.u.y.v.v.v.e.g.C # 2.>.1.q.9.q.3.M 5.2 B Z m 8 K &.;.;.",
"> 7 7 1 A b x.$ a d O ,.,.5.0 0 9 m B V A V k.d.k.d.d.d.d.d.k.k.A k.d.d.s.d.d.A k.k.k.A x 3.0 0 + a 2.2.q { p [ m z 8 )  . .;.G ",
"7 E 7 6 1 z z s @ { o d d     {   w 2 2 n n 2 < < z 2 < 2 2 z l v v 1 v 1 ` v 3 1 v ) [ ) 6 . (   @ >.@ 9 <.  6.9 6 5 ..X.#.X.; ",
"H L 4 7 L ~ ~ ) y * 9 ( d   1.d w * e L : L Q > e : w , e w 7 7 : E 7 7 J T T 4 4 5 5 O.] e ! ( d O >.@ { . %.I ~ P H T T 7 5 H ",
"H H H T 7 7 e ( ! a o w 9 * t 0 : , e - > ; 7 L - 7 7 e 7 r 7 7 ~ 5 H T ~ 4 L D 7 5 L 7 ! ~ ~ w o 0 0 9 y R E P 4 H D - 4 7 7 7 ",
"H 7 5 E W e e e : : y , R w , , y I ~ 7 F 4 T ; 4 7 L ~ L e e 7 5 5 ; H 7 ; %.=.#.O.7 7 e : 7 e y w w y : 7 : ; ; % = S H 7 7 7 ",
"P ; 7 e R H e - - : - 7 ~ : L L e 7 E T T 4 X.5 5 T L 5 7 4 ^ 5 =.T 4 = 7 $.7 ;.#.T ; 5 L : 7 ~ ! ! r e $.7 - ; ; H H H ; : L : ",
"~ E H 7 7 = H : > 5 7 7 +.T 7 - 7 7 7 4 W ; ..*.; W 5 7 4 7 ~ 4 =.X.W F ..W #...Y 4 7 : > - e - ~ ] Y 4 ] =.D 5 J ] ^ ; H E ~ , ",
"U E : H T Q P 7 P +.^ % ^ T ; %.I e - 5 5 ; W #.4 5 T %.~ L - 7 ..O.| K S ' $.; L - W P T H - e ; F Y 7 #.*...- X.P 7 5 E E e 7 ",
"; U 7 E T ~ 5 > = Q ] Q = = T L 7 7 Y $.=.=.K T 5 Y 6.W 7 ; e - X.J X.J D ; H 7 - $.T H ; - e - r - 5 D - W ..; X.= 4 7 ; 7 e e ",
"7 7 7 7 7 7 4 7 5 7 7 Q E - - : r ~ L L F =.=.T 4 X.] I 7 - 7 7 T T J J ; ; 7 e : e : ; - e : > = D ; | S D J W = X.=.] $.7 L - ",
"7 ..7 7 7 5 7 6 - 7 - - : 7 7 - & ; L 5 H W ] W ; H : 7 e e e 7 4 T Q D ; H ; e I : - - - 7 : : ; ; +.=.*.X.K H X.7...D 4 > E 7 ",
"r +.7 Y ~ ; L 7 E L ; : : & 7 ~ : - 7 - ; ; H ; 7 - ; e e : e 7 ' J - E e : > $.] ~ 7 , : , - : H ; D P @.#.+.J X.Q H D 5 T E 5 ",
"H H 6 r ~ T > 7 7 E ~ I L e e E ! : ; - H 6 ; 7 7 e e e : w : : - W 7 / I I e : Q U L 7 : e * E 5 > - D L ..#.W +.J ; ^ T E 7 - ",
"; - 7 > 7 ~ 7 : : 7 e : 7 7 e I ~ 7 : 7 7 - 7 r - w : : w , - - 7 7 : I ~ : 7 ; 4 P E e w : - E ^ - S 4 5 ; - 7 4 5 4 4 7 e 7 7 ",
"7 ; e L - 7 e 7 - : 7 e 7 7 7 7 E e 7 7 7 - & : : : * e ! : - : 7 7 e e ~ E 7 7 7 F e : L : ; 7 Q E H - 7 7 7 5 ; 7 L 7 7 7 6 : ",
"e S : > > : 7 L 7 E Q P : 7 T 7 7 : 7 Y ^ 7 7 : e w e ( ~ e - e : 7 7 7 ; ~ 7 I 7 4 - 7 ; e R 7 - L = *.+.4 5 7 e - : e e : : e ",
": L > : - L = S 5 7 P +.E 5 T T 5 4 Q ~ ] r e 7 ! e e ! ! : w - e w 7 - - 7 7 ~ - L 5 O.- 7 Q E 7 F 7 W +.5 H - E L 7 ! I , , * ",
"= L 7 : = ; 7 7 5 X.X.=...D X.J D ' X.#.; D H P T e e : ~ y , : 6 ; : : : : 7 : D X.] 6.X.; +.W D  . . .; 5 5 T I 7 , e ~ > : : ",
"e I w : , : e E ; D T ..=.J ; D O.O.O.*...; ; E ~ & L e , : : e > ~ L L = : L E T H 5 ..=.P H - X. .*.=.o.4 4 ~ E e w * , , w e ",
"! U 7 7 - - 7 T P L % 5 ; ..7 T G &.&.S - - , ~ e e : ; > 4 5 H ~ E & > : 7 ; > - - = - 7 ; ; H ; 4 H ; H 5 7 > w , e e L 7 : 7 ",
"U E e : e S e 7 ; 4 ; Y T Q T T X.| H = 7 : : y e 7 H ; ; F L ' E E : : : 7 - 7 = E H = - : e 7 : E : e 7 - ^ w ; 7 e : 7 7 7 I ",
"~ T 7 - e L L 7 7 L 6.6.+.= U : - > - , : > : I E T L  .D ; ;.=.Y I e - : 6 7 ~ : E L L > : , : e e T e r ..T L 7 : 7 7 e e 7 T ",
"Y 7 = r E I e 7 H +.+.y L e : e L e ~ ~ ~ e : = - E J W o.; ; o.T H - - e > L ~ e L I I e : > I 7 : %.7 - 8.; 4 7 - & 7 : 7 7 ~ ",
"H 5 S T ~ U 7 7 - 7 L > : H : 7 S P P ; H - 4 = 5 7 F ] +.7 H 7 H P - Y L 7 U E 7 : e L * e : , : W ] #.W J J F 4 7 7 7 7 7 4 7 ",
"; 4 7 7 7 7 : - H P I W D ; H ; J K H = ; H L Q ~ = 7 4 7 - e 7 5 K 5 @.Q : E : L ; : > - 7 ~ +.6. .G O.J G W ' #.%.~ 7 & e e ~ ",
"; H E 7 r = > - ; ; ; Q L D H ; 5 - ; L : ^ ~ E T 7 T > 4 T =.4 5 ; 5 =.P ; ; H H 7 5 ^ - H e ; J =. .G K K ' ;.W 4 7 7 7 w ! ~ ",
"+.Y ^ 7 = ~ ~ - 7 H H ; K ; 4 &.=.=.| H ; > , ~ ~ e 7 ; W =.&.D X. .K &.; D - T T > ; ..L H ^ ; D D O.o.G ; X.T 5 7 7 : : e R e ",
"@.^ : e ~ ~ 7 - ; 6.J ; ; ; X.] &.| W H ; = > - L E 7 4 6...7 4 ..&...J T =.7.X.; ; 7 +.J ^ - H H 5 ~ T W 4 7 7 7 e : * e 7 6 7 ",
"; +.: ; 7 > = 7 7 =.=.P S o.J O.@.W ; 4 ^ ~ 7 : H 5 H ; ..T 4 7 ; K =.K H ; 7 - 5 ; 5 7 Q Q - T I 7 - ; L 7 - , e ~ e 7 7 7 - H ",
"; ; H e : : - & H ] #.+.; D L +.7 7 > H T ; = L ] O...; D D = D ; ; Q Y - 7 - ; 5 = T %.4 ; $.E L , e e 7 e 7 w : E ~ e 5 7 4 W ",
"6.L H E L - 7 : = 5 ~ +.H H #...> 5 D ; - - X.8.=. . .D 5  .8.#.=.D - S L - : > & : S W +.T +.7 : 7 e w ~ e w : : e E E 5 ; W =.",
"; ; 7 T I ; L 7 - 7 > ~ ^ 4 ; ; ..O.L 4 4 - - : H - H ; O.&.*.^ 7 = I - : : L E 7 : = ; ~ Q 7 e : - 7 L E 7 T : : : 7 T 4 H O.;.",
"H - 7 H ~ ^ : > 7 L : = ; L 7 P @.=.=...; 7 S ; E T T 5 7 7 4 ; ; 7 & : , e * ~ ~ 7 - ; 7 = 7 - 4 5 5 ~ E - w e & e H 7 ; J ;.G ",
"D L D ; = e 7 S - : > e e e w : : > & - 7 & 7 E T 7 7 7 7 : L 4 7 I 7 7 ; = L 5 P ; D #.; > , : 7 7 7 e I e e w : : e Q 7 Y +.5 ",
"; ^ 5 U ~ ^ : : : 7 w > : : : : * e L e % - L 7 7 T - ; e 7 e 7 7 E U 7 e ~ +.4 D ; ..&.; : : e 7 E 7 - r e ~ L e 7 I E ; Y 7 7 ",
"K ; D +.X.; 7 e E I E e e : : > : : y : : S : ~ > E ^ 7 ; S : r T L Q E : : Q +.K D &.Q H H : = 7 ~ T L 7 7 ..5 5 ^ T ~ 5 7 7 7 ",
"; D ; H H ; ; T E 7 7 - 7 7 e > e > : * : 7 Q T : I L L ; ; ^ : ; ; D 7 - H > 6.| K X.D H H ; : r e Y T 5 W 8.' 4 J 4 H 4 & - - ",
"=.=.&.; ; ; H ; 7 7 ; : R ~ E H > , e e y > P ..7 - E = L J E S &.W H ; ^ T 5 ; ..K J L ..] ~ : : : L T 5 K *.*.5 ; 5 4 - e 7 e ",
"=. .Q X.D ..+.=.6.] T = = > T E e ; - ~ ; ; +.D 4 ; ; D ..Q T ; &.;.L P - +.$.Y H L K K P H L : : 7 7 4 D 4 G *.; G O.6.+.E I r ",
"K ..O.J D T W ] - - - 5 ; 7 S E E e - E E L : - D ; ; H ' +.7 ; O.' W J 7 5 6.$.T E H P H - 7 : * e 7 7 J W J o.K o.o.*.T - e e ",
"= K  .; = T X.; : 5 7 7 - - : 7 : H 4 T ] H - H ..X.$.+.7 7 5 5 ..J D ; 7 7 > ; ^ T ; 4 : : 7 : : E E $.=.=...J G W T T 7 e & e ",
"; 5 7 T T 7 - - +.+.E ; > - e 7 - P ; ; O.+.; X.=.&.J ; H 5 ; 5 ; P ; H ; & S 7 7 ~ L - 7 S 7 = e 7 e 7 4 Y E P ; 4 7 r ; - : e ",
"5 +.=...7 = H +.E ~ : I - - 7 $.L - ; ; D ; 4 X.=.; = X...P W ; 7 ..L - : = 7 7 > L , - e 7 L : * - 7 7 e e 7 - : - e > > 7 R e ",
"Y ] T 7 5 P : 7 : L > I 7 - > +.] 4 L T | =.#.K D ; #.7.%.=...; T @.7 & : e : : 7 : : : : w ~ e r 4 - : e - * e ! & , ; e e E : ",
"- > 7 7 H L : L 7 L L - 7 : e +...D P 6.8.#.| X.; ; ..T O...7 - r L ; : > R : 7 : : e > 7 e I E - ; 7 : : : y ~ / , : , e e e : ",
"L 7 L L L ; > : e L L : = - 7 +.7 L 4 E ] &.#.| W H H P +.; ; : > : 7 : 7 E e 7 7 - L L 7 7 7 ~ 5 7 7 ; - : ~ I R e , : e : : : ",
"7 > I L : 7 ~ ~ 7 L L 7 : - 7 7 ; 5 = T > ; D 5 - ; 7 H L = > - e e L : 4 ^ L 7 7 7 ^ : 7 7 7 7 I 5 7 7 r 7 E e : e 7 ; e 6 - w ",
"e 7 : : - : L I 7 : S 7 - 7 ~ ; H - 7 ..] 5 > 5 D 4 ; - , S - , e e 7 = ; T T L 5 7 E U - 7 E 5 L 7 7 ] +.7 7 ; 7 7 7 : e : 7 w ",
": 7 ; 7 > 7 ; ~ H : 7 +.- 5 Y E 7 e L T $.7 H ; T 5 7 E ( : : : e y w : - > 5 E > 5 4 %.- 4 Q Y - e Y ~ +.5 7 5 ~ 4 ; E ~ : : ; "
};
