/* XPM */
static char *_9634_5e246a8058af0c49ef902d538f4a0a6ca5bcd1fc31c34808542b2f8b18eb35ec[] = {
/* columns rows colors chars-per-pixel */
"64 64 50 1 ",
"  c #090A14",
". c #090B14",
"X c #090A15",
"o c #090B15",
"O c #1E3616",
"+ c #1F3616",
"@ c #1E3716",
"# c #1F3716",
"$ c #1E3617",
"% c #1F3617",
"& c #1F3717",
"* c #263A16",
"= c #273A16",
"- c #263B16",
"; c #273B16",
": c #263A17",
"> c #273A17",
", c #263B17",
"< c #273B17",
"1 c #241526",
"2 c #241427",
"3 c #241527",
"4 c #341C27",
"5 c #351C27",
"6 c #341D27",
"7 c #4D2A32",
"8 c #4C2B32",
"9 c #4D2B32",
"0 c #4D2B33",
"q c #2D4217",
"w c #2C4317",
"e c #2D4317",
"r c #344C1A",
"t c #344D1A",
"y c #354D1A",
"u c #344C1B",
"i c #354C1B",
"p c #344D1B",
"a c #354D1B",
"s c #5F761E",
"d c #5E761F",
"f c #5F761F",
"g c #5F771F",
"h c #476820",
"j c #466920",
"k c #476920",
"l c #476821",
"z c #466921",
"x c #476921",
"c c #7A4841",
/* pixels */
"+--++----ulfx-xp-plx99cc9ccccc999c994944999c99cc9999ccc4444-a-++",
"-;-*#+-----lfp--ppppp99999c99cc999994444999999cc99999994544+*++-",
"--p--%O+%-------*;----9999c79999949444444994999c9999998444+-----",
"pta-p---O+--++,*+----p-09999994444444--;464440904994994443-----p",
"xp--pp--,++++O++++---pp  3999443pp++-ppp-46444444894494443-p---p",
"p*--,p-ppp+#+-++++---a  o399443xp;-++-*pp--xfpp444994444433pp--p",
"--ppt;up-+O+;,;++-,-p    330443-*--++++--p-xsx*--.  3344443pp---",
"----p---++---p----++k     39433,-*+%+%++---pxp,-*    333443-p--p",
"p--,----+---up--*--+    xf1342ppp--++-;pfffxpp,p  .  +313443-;pu",
"pp-;--+#+---pp--pp     pxp=3333pkp,-+----pxkxpx.    +-;33343,pp-",
"ppa-#+%--p--p,,;-     fpp--3333-xp-;-:-----izp  XX +---;3333-p-*",
",--;-----xx-*-ppp    afppkxx333--x---p-;*----     %-;-p13333----",
"*---ppp--xsp*ppp-*--,pptzxp*333a----pu------,    *&+plx1333-:*-p",
"p-----pp--ff-ap---++O---,-----ppp--pp-;-xfff--+-pp-++-*xgf---;pd",
"-+-+@-----pxpp-----,+@+;----;pap-+,pp---uxfxx--+pf;-+O--pxx-ufff",
"---++--pffpipxfflp;-p-+++++-;,--,--p--t-aaxxpx-pff----xxu--pxxfp",
"-p----*-*xxpxffl*+++pp++#;+++;---a---pp---tkp--xkx-,pzgx---xxxx-",
"-p---ppa--p;xzp-++--+pa-+--------p--upp*---xx-pxp---ffxtpp-ppp--",
"p--p--ppp---a-+O+;------+-------p--pu,-;--;*ppp------tpu,-------",
"---pa--O+----O+--pp---p,+--pp-y-------fgfx---;-----,---++++-----",
"p---p-*-%++-p*----apa-x--pa--*a-fp+--xafxp----*ppp-;x-++-,p-----",
"tp-----*--%%xp------p-zd-u---,a-ffp*xpxxp----+O+pxp-xf--pxt--pt-",
"pa--ppa-pxp+yp-zp-----pf,;pfu---xzxu-xk;--tpp--+--t-xgx-xp->pp--",
"+p-ptp---pxp++pu-;pxfgap-pfp--,-xalp-----xp---++----;pk+z--*;--;",
"-;-*;--;---pp++#-pp-pgfp,xx-----ppup------++--+-O*-x--pa+xfzx;--",
"-x-----*++++++*++---*plp-,-,----,pp,;,-*--+%++++#-lffxppxfx---p-",
"ex-pa---pp++++-p++--;-----------pp,p--*zzp,++++--;;pkfxpxx---pp-",
"----pa---ptp---pp+++---,-------+-p<pp---pp--+++a-----kxpx--ppp-+",
"*----p--%+--,--pp----+--+++#+O++---pp;,-*pp--++pp--------*;---;#",
"-----*;++-------t----++++++-p+++----pa:---------pp---,--------+#",
"----+%Oa-ppu+-p---*pp--*---up-+-----#p-p----+*p----xx;--;--:--+-",
"--+++--*--pxa-pp-*ppx,--p*-pp+++--+++--p---x+-ip<-apx---p--pp+++",
"+--+O*---xxfz*xt;xxx--,pp---p-%++;*++----xxfx-xp-xzz---pp-,-a-++",
"-p-;++-p--pxfp-*xlffx-*pp----++-,p,-++*pp--xfp--xxfgx--pp-++-++-",
"pp-++O-pp-++-x-ppff-++;p-----;--pp+O+,--#+O+,---*----**---------",
"pp-&---;--+pppppxx-++++-------pzpu+-+++++p-+++-;--;---p*-+*----p",
"pu----p---dfx+t++++++-+-pipx-*ffpp+$+--p-pp--%+-*-p-*lp--++---;p",
"p,--pa---xzp--;---ppt-++-pppx--xp-++--,p-,ap-++-;,x*-f--;-++---a",
"---ppp----*-*--*;pp--+++---xx-;--p--p-pp-,-;#+---txfppp---;-%--*",
"--,---++-pau--**pa----ppp+--++---p-za-p-,---+-pxfzpxapplflp-%--p",
"--p-,+-O---pu-----*--pppp-p,-pf---;fp;--;--p----pfxutpxfp---%-pp",
"xpp--pu+----p--ffsx*---pp---pff;xxpg--;pp-;x-pp--pxlp-xp-=-%+-p-",
"xt--pp-+-fp+--xxflp---+%pa--fz*-zfxppdfx---xpp;-,-ppt-----OO---;",
",x----%#-sfp-xpxxp-*pp-+----xa---pfu------,;tp-up---;----p--;,,-",
"--,--+++-xkx--px,---p++pzkx---;---pa-++$+-px--xp-----,#+-pp----p",
"f-tp-++O+-txp-xx---,+#xffkx--kfsf---O+--++-pxpx--O--p-,%+-pp--pf",
"-+-pp---+,-tp,--xxa#+++-----xffa*+,;+--p-++-up-*++-rp;--+,-p--fs",
"----pt---------pxfgk--,-ppp---,--++++--pa-+-;--++--pp--;O%,--tgp",
"-p---;--$+-*---#%#++++-pr,-------p----*-p-,x--++*--*p----%-p-px-",
"-p-ppp--+++-++O++<*++%-,-p-,--*--pu--px---xf--+*-p----a*--pa,p--",
"a--kx---ppp-+-%++O-++-*p,pp-----p-pp--pxp;fp--++-pp--ux,;tpp----",
"-----,*pp--@-----++++-pp,-p---p--------flpxp---+-;pp-pfx-p-;++++",
"ffx-*-*;-*-+upp---+--;px++p--pp-fp-*pp--xup-xxp++--p-tfg-----*--",
"fxzx-xxffx-++-pp<-+p--x*--;-xpp*ffpp-xxp-tppp---+,---;pf-pxfxau-",
"pxxp-ppx+;-++,-pt-+tp-++,,--xx--xxp---fxpp-p-,-%+---pppxuxfxp---",
"+px++pl++---++-----px--;xxfx,*--xt-----*pp-*-%%+-ppxfgxppppp,-+%",
"-;epu,+%xxp-*+------xx-xffp-,----p--++---p---*-+-----prp++--+++-",
"-xfx---xpp-a+#-x,----*-xf-+xjpp--x*-+++---;+----++-,--++++;---p-",
"exq>------=-,+-xx,*pxgfp--xfffx-pk-++-++*-+++-p--++--++-p++---p-",
"---eee---ee-+#-xx-pfdxlk--xpxx-+---%,p-++++*--pp,-+$++-pp-++---O",
"--qe;----ew++O;x---pxfxxp,prx--+---+=p---+p---<p-*-++-ppp--+-,-#",
"-:p---pp--u+#-----------++*---++---+-pp---t-----u*----p----+--++",
"-*;-+--p----+*p---;xx-----*---+;--*++u-p--ap+-p---;hx----,;--*+-",
";-+++--p-;-x+*pu--ppx---p--pp%++*-+#%--p---x+-pu--pux---p,-pp+++"
};
