/* XPM */
static char *_0252_78c4cd67e90f1e9a0fc6201146911afd2bb2b41c8841e5644ad760582bb0eefc[] = {
/* columns rows colors chars-per-pixel */
"64 64 192 2 ",
"   c #020101",
".  c #010A00",
"X  c #160202",
"o  c #081103",
"O  c #10100E",
"+  c #090A14",
"@  c #131C17",
"#  c #270000",
"$  c #330100",
"%  c #281010",
"&  c #0E2901",
"*  c #132A03",
"=  c #152A0A",
"-  c #173403",
";  c #1A3205",
":  c #1F3804",
">  c #1B320B",
",  c #17380D",
"<  c #1F3113",
"1  c #36260B",
"2  c #382908",
"3  c #233502",
"4  c #233C03",
"5  c #27310C",
"6  c #223A0B",
"7  c #353403",
"8  c #222413",
"9  c #22251F",
"0  c #382913",
"q  c #253114",
"w  c #223C13",
"e  c #2C3816",
"r  c #29391B",
"t  c #333410",
"y  c #241527",
"u  c #341C27",
"i  c #312222",
"p  c #302F27",
"a  c #353733",
"s  c #450303",
"d  c #431508",
"f  c #521F04",
"g  c #571314",
"h  c #76151C",
"j  c #462807",
"k  c #40300D",
"l  c #4E2314",
"z  c #53201F",
"x  c #443414",
"c  c #663319",
"v  c #691822",
"b  c #4A3820",
"n  c #533925",
"m  c #4D2B32",
"M  c #4A3335",
"N  c #692521",
"B  c #7A2322",
"V  c #7E2A2E",
"C  c #673524",
"Z  c #783121",
"A  c #7B382C",
"S  c #18410E",
"D  c #254005",
"F  c #2C4206",
"G  c #2F4903",
"H  c #27400C",
"J  c #2E4A0C",
"K  c #35500E",
"L  c #2A4214",
"P  c #294A15",
"I  c #2D431C",
"U  c #284B1C",
"Y  c #334712",
"T  c #314A15",
"R  c #36431E",
"E  c #354C1F",
"W  c #375114",
"Q  c #35511E",
"!  c #304424",
"~  c #364B24",
"^  c #395224",
"/  c #3D542D",
"(  c #384432",
")  c #444314",
"_  c #4A4A24",
"`  c #534021",
"'  c #445E22",
"]  c #455E2A",
"[  c #444238",
"{  c #6E4128",
"}  c #436422",
"|  c #4A6321",
" . c #4A6428",
".. c #4D692C",
"X. c #536623",
"o. c #506A28",
"O. c #4B6331",
"+. c #436930",
"@. c #546B32",
"#. c #506638",
"$. c #536A3A",
"%. c #4D783A",
"&. c #557330",
"*. c #5A7331",
"=. c #5B7439",
"-. c #676E38",
";. c #627835",
":. c #3D3A40",
">. c #454546",
",. c #574445",
"<. c #585244",
"1. c #4D4F50",
"2. c #565555",
"3. c #6F4C48",
"4. c #7A4841",
"5. c #665554",
"6. c #5C7540",
"7. c #5E7B40",
"8. c #637B43",
"9. c #7C6857",
"0. c #5D5C61",
"q. c #695E63",
"w. c #6C6668",
"e. c #767070",
"r. c #881B19",
"t. c #9D1522",
"y. c #AB1720",
"u. c #A41E25",
"i. c #AA1A26",
"p. c #B31729",
"a. c #B31C28",
"s. c #B41F30",
"d. c #892724",
"f. c #8C2925",
"g. c #88252E",
"h. c #992223",
"j. c #9B2129",
"k. c #96282D",
"l. c #873024",
"z. c #9C332A",
"x. c #992532",
"c. c #883331",
"v. c #983436",
"b. c #A82224",
"n. c #AC2A2D",
"m. c #A52130",
"M. c #B52730",
"N. c #BB2435",
"B. c #A83337",
"V. c #A53F38",
"C. c #B53235",
"Z. c #BE353B",
"A. c #C52435",
"S. c #CA3336",
"D. c #C43539",
"F. c #CE3039",
"G. c #D1383D",
"H. c #914C37",
"J. c #993544",
"K. c #AB2D42",
"L. c #B93541",
"P. c #C73541",
"I. c #935249",
"U. c #9A5B5D",
"Y. c #B5494B",
"T. c #886858",
"R. c #9A645C",
"E. c #A7635B",
"W. c #AD7757",
"Q. c #A55C60",
"!. c #996667",
"~. c #95696B",
"^. c #8E7B74",
"/. c #A86F73",
"(. c #C94547",
"). c #D74C55",
"_. c #E35D61",
"`. c #D4696E",
"'. c #E66568",
"]. c #7F8778",
"[. c #88857C",
"{. c #918579",
"}. c #9D7E83",
"|. c #8A8684",
" X c #958D89",
".X c #9B9A9B",
"XX c #B99E9A",
"oX c #B2A39A",
"OX c #AE9FA3",
"+X c #B2A3A5",
"@X c #D69E9F",
"#X c #DDB7B9",
/* pixels */
"> ; q 6 * < q 5 6 W } %.+.: | ) 3 T $.' 4 4 : P ^ 6 > w ! r 1 1 d f j d f g d j : +.+.%.+.: o.G D } } } 3 4 : Q I L 6 , P L ; - ",
"w H 6 q , , w 5 5 4 4 +.&.W D - ^ T H Q T 6 : Q I 5 x p < w 8 9.T.T.9.9.T.T.T.9.~ H w #.@.) 7 F | X.&.;.@.4 : ! I 5 > > S ; ; S ",
"; 6 T w S , > > 5 6 6 6 6 , : L , w H e - > L ; r 0 d T.9.].].[.|. X[.|.|.[.[.{.[.e.{.{.~.T.3.I.f j D D 6 5 w L w q = 5 e q w w ",
"Q Y ^ w U S , , 6 * w > > < L , > S - > P E , r 0 z Q.Q.{.oX X.X.X.X.X.X X|.|.[.|. X}.}./.}.`./.I.H.` ` b 2 5 > : > 5 e q e w L ",
"+.I 6 3 L Q 6 H w > , , , * = = > = w w : Q Y 2 ^.!.U.!.XXoXoXoXOXOX+X+XOXOXOX+XOX+XOXXX#X#X#X@X/.Y.J.g.g.g k 5 ; 6 w R > ; w ~ ",
"T , 6 5 J P 6 Y x ` 1 2 0 x 0 i 1 1 2 t t x C E.E.I.V V U.E.R.!.~.~.~.~.~.~.~.~.!.!.!.!./.!.!./.g.z.m.i.u.d.Z f 2 5 t ) Q D : E ",
"6 L Y T P 4 ) c h B.B.B.v.H.v.v.v.V.Y.Y.V.Y.V.D.b.h.t.h.d.g.x.x.g.c.c.g.v.k.k.v.v.v.x.x.B.B.m.L.B.K.N.P.a.n.n.z.Z l j ) Q H 3 : ",
"6 5 5 4 ) 2 H.V.C.D.P.P.Y.`.`._.'.).D.S.S.S.S.F.A.Z.M.C.B.C.P.D.C.V.B.C.Z.M.(.'.'.'.)._.).L.L.`.L.L.P.P.L.N.P.N.C.z.Z j Y 4 w T ",
"~ * 7 j f H.C.L.G.C.k.g.A c.v.(.P.).F.F.A.S.S.S.D.D.D.Z.Z.D.F.F.D.Z.Z.Z.D.D.D.(.(.(.V.P.P.L.L.Y.x.B B l.h.L.P.D.S.C.h.c.j 4 Q P ",
"^ _ j I.V.C.P.s.t.f.s X X # N c.K.N.A.A.A.S.P.S.D.D.Z.Z.D.D.F.F.S.N.M.i.p.p.p.b.h.b.b.b.M.L.`.J.g $ X X N f.K.C.S.(.(.f.j Q P S ",
"R x { h.F.F.L.x.v d l M i X 3.g h x.s.A.i.i.y.y.y.h.u.u.j.u.u.y.i.i.u.i.b.i.i.i.u.u.y.a.i.x.d.g 0 X [ % n $ h Z.G.A.K.c.j ! - S ",
"w x N r.s.N.m.h $ >.  :.:.@ . M $ V t.K.a.i.y.b.b.b.u.u.b.u.u.b.y.i.y.m.i.i.y.y.y.b.i.u.x.J.# [ X O <.i 8 5.s J.L.L.m.c.2 D H , ",
"5 t j g x.x.k.z i :.@ 1.:.1.y M % N x.N.s.p.i.i.u.b.p.p.p.y.y.i.i.p.M.M.s.p.a.a.M.i.a.M.n.N % i + i 2.2.y 5.g N K.K.v.{ 2 4 t W ",
"~ t n $ h x.V g ,.9 >.2.e.e.2.M [ $ k.y.s.N.s.n.n.n.s.N.A.N.M.M.M.M.M.M.s.M.N.M.y.M.n.n.k.# 5.9 M w.q.w.2.i 3.g g.k.Z f 7 H 7 -.",
"> > 8 d h x.g.g ,.>.1.w.5.q.,.,.n $ B h.m.m.n.M.n.n.M.M.a.M.n.n.n.n.b.i.i.i.i.u.b.i.r.h.V # 2.>.1.w.0.w.3.M 5.2 N C ` 7 W &.;.;.",
", 4 5 2 Z v c.$ p a + ,.,.5.9 9 8 n N B Z B l.f.l.f.f.d.f.f.l.l.Z l.f.f.d.d.l.Z l.l.l.Z l 9.9 9 O 9 2.2.0 [ i _ n k 7 ) | | ;.G ",
"> Q 6 5 2 k k i @ [ o a a   . [   q 1 1 b n 1 1 1 k 1 1 1 1 k j x x 2 x 2 ` x 0 j x ) _ _ 5 . (   @ >.@ 8 <.  6.8 5 4 O.......4 ",
"H L 3 6 H ~ ! _ I @ 8 ( a   1.a q = w L , w Q > w > q < w 5 6 6 w E 6 6 J T Y 4 3 4 4 @.] < ! ( a O >.@ [ . $.I ~ P H Y T H 4 6 ",
"H F H T 6 6 w ( ! p o q 8 = 9 9 > < H ; 6 , 6 H ; 6 > w > e H 6 ~ 3 H Y Q 4 L D F : H 6 L ~ ~ 5 o 9 9 9 r R E Y : H 4 - 3 6 6 6 ",
"H 6 4 ~ W w 6 w > > L q I q < < r I ~ 6 D : Y : 3 6 L ~ L w w 6 4 : : H > 3 @.=.@...w 6 w > 6 w r q q r > 6 > : : & - S H 6 6 6 ",
"W.W.W.W.R H w ; = > ; > ^ > L w w 6 ~ T T 3 ..4 4 T L 4 6 : ^ 4 =.K 3 ; , $.H 6.o.T : : L > 6 ~ ! ~ t w $.6 - : D H H 6 4 > L 6 ",
"m W.W.W.W.W.W.W.W.3 6 : O.T 6 ; 6 6 : 3 W.W.W.W.W.W.W.W.W.W.E 3 =...W D ] W @. .Y 6 , 3 S ; w ; ~ ] Y 3 ] =.D 4 J ] ^ : 6 ~ ~ < ",
"m W.m W.W.4.W.W.W.W.W.W.W.T ; 6.! w W.W.W.4.4.W.W.4.4.4.W.W.W.H  .o.} K :  .#.: L ; W P T H - < ; F Y 6 $.*. .- ..P 6 4 E I w 6 ",
"m m m m 4.4.W.4.4.4.W.W.W.W.T L W.W.W.W.W.W.W.m u W.4.W.4.4.W.4.W.J ..J 4 4 6 6 : $.T H : ; w - e - D D ; W  .: ..- 3 6 4 6 w w ",
"m m m m 4.4.4.4.W.W.W.W.W.W.W.W.W.W.W.W.W.W.W.m u W.4.4.4.4.4.W.W.W.J J : 4 6 w > w > : ; H > w - D : } D : J W - ..=.O.#.4 6 > ",
"m m m m m m 4.W.W.4.4.4.4.W.W.W.W.W.W.W.W.W.W.W.m u 4.4.4.4.4.4.I.{ W.W.> H : w r > ; ; > , = > ; : O.=.=.o.W D ..7. .D : > ^ H ",
"m m m m m m m 4.4.4.4.4.W.W.W.W.W.W.W.W.W.4.W.W.W.m 4.4.y y y 4.3.m m u u m > #. .~ 6 q > < ; > H 4 D P +.@.#.J ..^ 6 D 4 T E : ",
"4.m m m 4.4.m 4.4.4.4.4.W.4.4.4.W.W.W.W.4.W.W.4.4.4.4.4.4.4.4.4.m m m u + + + > Q ~ S 6 > w > E : : - D L +...W O.J : Q T E 6 ; ",
"4.m m m m 4.4.4.4.4.4.4.4.4.4.W.W.4.4.4.4.W.W.4.4.4.4.4.4.m m 4.m m u u u + u 6 3 L E w q > ; E ^ - : 4 6 3 ; H 4 3 3 : 6 w 6 6 ",
"m m m m m 4.4.4.4.4.4.4.4.4.4.4.W.W.4.4.4.4.W.W.4.4.4.4.4.4.m m m u u u u y u 6 6 F w > L > > 6 Q ~ H ; 6 6 6 4 : 6 L 6 6 6 > > ",
"4.m m m 4.4.4.4.4.4.4.4.4.4.4.4.W.4.4.4.4.4.4.4.4.4.4.4.4.4.m m m u u u u y u L 6 4 - 6 4 6 I w : H - $. .3 4 6 6 ; > w w > > w ",
"4.m m 4.4.m 4.4.4.4.4.4.4.4.4.4.4.4.4.4.4.4.4.4.4.4.4.4.m 4.4.m m u u u u y u ~ ; H 4 @.; 6 E E H D H W #.4 6 ; ^ w 6 ~ r < q = ",
"m m m m m m 4.4.4.4.4.4.4.4.4.4.4.4.4.4.4.4.4.4.4.4.I.{ m m m m u u u y y y u > D  .] 6...6 O.W D | | | : 4 4 Y I 6 w w ! < , > ",
"4.4.m m 4.4.4.4.4.4.4.4.4.4.4.4.4.4.4.4.4.4.4.4.m m 4.m m m u u u u u u u u w E T H D  .=.T H - ..| &.=.X.: 3 E ~ w q = q < q w ",
"4.m m m m m 4.4.4.4.4.4.4.4.4.4.4.4.4.4.4.m 4.4.4.m m u u u u u u u u u u 6 6 6 ; - - - : : : H 6 3 H 4 H 4 w : q > w w L 6 ; 6 ",
"m m m m m 4.4.4.4.4.4.4.4.4.4.4.4.4.4.4.4.m 4.m m u u u u D L } ^ E > > > > : > - ~ H - ; > , e > E > w 6 ; ~ q > 6 w > 6 6 6 I ",
"4.m m m m 4.4.4.4.4.4.4.4.4.4.4.4.4.m 4.I.4.m m u u I } D : ;.=.Y I w ; > 6 : ~ > E L L < = < > w w I 6 6 O.Y L 6 5 6 6 w w 6 Y ",
"m m m 4.4.4.m 4.4.4.4.4.4.4.4.4.m 4.4.m { m m m u ~ J W X.: : X.T 6 ; ; w w L ! w L I I , ; , I 6 = $.6 3 8.6 4 6 ; * > > 6 6 ~ ",
"m u m 4.m m m 4.4.4.4.4.4.m 4.4.m m 4.m m m m - D 6 H ] O.6 6 6 H P ; T Y S E E 6 > w H , w > < 4 W ] $.W J J F 4 6 6 6 6 6 : 6 ",
"u u m m m m 4.4.4.m 4.4.4.m m 4.4.m m m m H w Q E - 6 : 5 ; w 6 4 K 3 +.Q 6 I > L : > w ; 6 ~ #.6.| G o.J G K ' $.#.^ 6 * w w ~ ",
"u u m u m m 4.m m m 4.4.4.4.m 4.4.m m m > ~ E E R : T S 4 T 6.4 4 4 4 =.P 6 : 6 6 H 4 E ; H w : J ;.| G K K ' ;.W 4 6 6 6 q ! ~ ",
"u u u u m m m m m 4.4.m 4.m m m m m m H 6 L < ! ~ w 6 : W =.*.4 ..| J *.4 4 - T T 6 : ..L H ^ : D D o.X.G : ..P 3 6 6 > > w I w ",
"u u u u u m u m m m m m 4.m m m + + T 6 ; ; , - L E 6 4 6.] 4 4  .&. .J T 6.7...: : 6 O.J ^ ; H 6 4 E Y W 4 H 6 6 w > = e 6 5 6 ",
"; O.u u u u u u u m m m m m y m + + : 6 ^ ^ , : H 3 H :  .T 3 6 4 K =.K 4 : 6 ; 4 4 > 4 Q Q - T I w ; 6 w 6 ; w w E w 6 D 6 ; H ",
"4 > H w > > y y y u u m m m + + + + 6 , T : - H  .o. .: D 4 - D : : Q Y ; 6 - 4 6 - L @.: : #.~ L < w w : w > q > E ~ w : 6 : W ",
"6.L H E w > 6 y u u m m y + + + + + + 6 ; : ..8.=.| | 4 4 | 8.@.=.4 ; S , : , < ; ; L W O.T O., > 6 w q ~ e q > > w ~ E : : K =.",
": : 6 T I 6 y u u u m y y + + + + + + + 3 ; ; > H ; 6 4 o.&.=.^ 6 - I ; 6 , e E 6 > - ; ~ ^ : L 6 ; 6 L ~ 6 P > > > 6 T 4 D @.;.",
"H - 6 H E E y u m m y y 6 L + + + + + + + 4 w , E T T 4 6 6 3 : : 6 ; = q w > ! E 6 ; : 6 - 6 - 3 : 3 ^ T : q e * w 6 6 4 J ;.G ",
"4 L D H - y y u m y y H w I < = + + + + + - 6 E P 6 6 H 6 > H : 6 I 6 6 6 > , 4 Y : D @.: w < > > 6 6 w R L w < < > w ^ 6 Y  .4 ",
": Q : T E y y y y y , < , > > > > < + + + + e 6 6 Y : ; L , w 6 6 E U 6 q ^ O.3 S :  .&.: ; , w 6 ~ 6 : 6 w ~ L w 6 I E : Y 6 6 ",
"K : D O.O.y y y y y E < w > > , , > + + + + ; ^ > ~ ^ : : w > w Y H E ~ , : Q  .K D &.Q D 6 > ; 6 ~ T w 5 H  .3 : ^ T E 4 6 6 6 ",
"S D : H D y y y E D 6 , 6 6 w , 6 < > + + + + P , I L L 3 4 ^ > : 4 D 6 ; H S 6.} K ..D H H , 5 6 e Y T 4 W 8.' 3 J : H 3 * > ; ",
"*.*.&.4 : y y y H 6 ; > R E E S w > < w + + + ..6 ; ~ - 6 T Q 6 &.W : : ^ T : : | K J L  .] ~ > > > w T 4 K *.*.D : D : 3 w 6 w ",
"=.| Q o.D | O.6.6.] Y - - 6 T Q w > - ~ : > O.4 4 - 4 D | Q P : &.8.H T - O.$.Y H Y J K T 6 S > > H 6 3 D 3 G *.: G o.=.O.! I w ",
"K  .o.J D T T ] - ; ; 4 ; 6 w I R w > Q ~ 6 > - 4 : : H ] O.6 : @.} W J 6 : 6.#.T Q H P 6 : 6 > = w 6 6 J W J X.K X.X.@.T - e L ",
"- K | : - T ..3 : : 6 6 : ; 6 6 6 6 4 T ] H - H  ...$. .6 6 4 4  .J D : 5 6 6 6 E T 6 4 6 , 6 > > Q Q #.=.=. .J G W W T 6 w * < ",
": 4 6 T T 6 - ; #.O.E , > ; H w ; P : : ..O.: ..=.&.J : H D : 4 - Y : H : & w 6 w ~ w ; 6 w 6 ; e , L 6 : Y Q P : 3 6 6 6 * > w ",
"4 O.=. .H ; 6 O.E ~ 5 I ; ; 6 O.L - : 4 D : 3 ..=.: ; .. .P W 4 H O.H ; > ; , 6 S H q - w : w > = ; 6 6 w w 6 ; > - w 6 6 6 I w ",
"Y ] T 6 3 P ; 6 > L w I 6 - > O.] 3 H T ' =.@.K D : @.7.@.=.} > L +.6 * > w 6 > 6 > > > > w ~ w 6 4 ; ; w ; = L ! = < > w w E > ",
"; , 6 6 H L 6 w 6 S w ; > > L #.O.D P 6.8.@.} ..: :  .P @. .D ; H L 6 : w I > 6 > > 6 w > L L ~ : 6 > 5 > > r ! / < > < w w w > ",
"L w w L L , 6 > w L w 6 - - H O.6 H 4 E ] &.@.} W D H P O.: 6 > w > , > 6 ^ w 6 6 ; L w 6 6 6 ~ 4 6 6 ; ; > ~ R R w 8 > w > > > ",
"6 : R L > 6 ~ ~ 6 w T , > ; 6 , : 4 > T > 4 D 4 - : 6 H H ; > ; < w L > ; Q e 6 6 6 ^ > 6 6 6 6 I 4 6 6 w 6 E w > w : ; e 6 ; q ",
"L , > > ; 6 w I 6 6 w 6 : , E 4 H ; ,  . .> 6 4 4 3 : ; < S - w w w 6 : ; T T P 4 6 ~ I ; 6 E 3 Y 6 6 ] O.6 6 : 6 6 6 6 w > 6 q ",
"> 6 ; D > 6 6 ~ 6 > 6  .; : Y E 6 L L T #.4 , 6 T 4 6 ^ ( > > , < r < > ; : 4 E S : : @.; : ~ T ; w Y Q O.4 6 3 ^ 3 6 E Q > ; > "
};
