/* XPM */
static char *result[] = {
/* columns rows colors chars-per-pixel */
"64 64 58 1 ",
"  c #080A14",
". c #090A14",
"X c #090B14",
"o c #090A15",
"O c #1E3616",
"+ c #1F3616",
"@ c #1E3716",
"# c #1F3716",
"$ c #1E3617",
"% c #1F3617",
"& c #1F3717",
"* c #263A16",
"= c #273A16",
"- c #263B16",
"; c #273B16",
": c #263A17",
"> c #263B17",
", c #273B17",
"< c #241526",
"1 c #241427",
"2 c #241527",
"3 c #251527",
"4 c #341C26",
"5 c #341C27",
"6 c #351C27",
"7 c #341D27",
"8 c #4D2A32",
"9 c #4C2B32",
"0 c #4D2B32",
"q c #4D2B33",
"w c #2D4217",
"e c #2C4317",
"r c #2D4317",
"t c #344C1A",
"y c #344D1A",
"u c #344C1B",
"i c #354C1B",
"p c #344D1B",
"a c #354D1B",
"s c #5F761E",
"d c #5F771E",
"f c #5E761F",
"g c #5F761F",
"h c #5F771F",
"j c #466920",
"k c #476920",
"l c #476821",
"z c #466921",
"x c #476921",
"c c #7A4840",
"v c #7A4940",
"b c #7A4841",
"n c #7B4841",
"m c #7A4941",
"M c #AD7756",
"N c #AD7657",
"B c #AC7757",
"V c #AD7757",
/* pixels */
"+--++----ulgx-xp-plx->-pa---p-++%--++>---xxgz-xp-lxx->-ap--;a-++",
"-;-*#+-----lsp--ppppp--pp---+++--a;*O%-pp--xgp--xxggx--up*++*++-",
"--p--%O+%------------>>---++++--ap+%+-------*-*p--->-----++-----",
"ppa-p---O+--++>*+----a-----#++pxpp+-------*-p;-p;>upp---++-----p",
"xp--pp-->+++++++++---pp*----+xggpp++-ppp---*g*pp-pp--++#+--p---p",
"p*---p-ppp+#+-++++---ap---p--+-xp;-+O-*pp--xspp--p:>-#+--->pp->p",
"--ppy;pp-+O+;>;++-->y-pp;-x--+>-*--++%%--p-zgx------%+++---pp---",
"----p---++---p;---++x----gk-;-->-*+++%++>--pxp--*---++++-p-;p--p",
"p-->----+---ip--*--+xg--xgp---ppp--++-;pgggxpp>pxggO+++--p----pu",
"py----+++---pp--paypxgypxp*;---pkp>-+----pxxxpxzp--++-;--up--pp-",
"ppa-++%--p--p->=--uppxgup--->-*-xp-;-:-----00000000+-----*pp-p-*",
"---;-----lx-*-ppp>-ppagppkxxu>---x---p-;0000q00000000-ppp--p;---",
"*---ppp--xVVVVVVVVVV>ppyzxp*-;-a----VVVB00000000000000xggu--**-p",
"p-----pa-VVNbbbVVbbVVV-->-----pVVVVVVVV0000000bbb0000009hg---;pg",
"-+>+&--VbVbmVbV50VVVVVVB---VVVVVVMbVV0V000000bmb00000000qlx-pggg",
"---++-VVVbbmbbV50MVVVNVVVVVVVVbbbVbc0000000bbb00bbbb000800-pxxgp",
"-p--VVbbbbbbbb50VVVVVVVVVNVVVVVVbbbb00000bbbbbbbbb000000000xxxx*",
"-p05500bb222bb0VVVbVVVVVVVVbnbbVVb0000000cbb00bbbb080000008ppp--",
"p...5000bbbbbbbbmVVbVVVVbbVVbbbbb009000000bbb00bb0000b000000>---",
"-5.55500bq0bbbbbbVVbbbbVVbbVbcbbb0bb0qbbmbbbbbbbbbmbb0000000----",
"p525555000bbbbbbVVbbbbVVVbcbbbbnbbb080bbbbbbbbbnbbnbbb0008008---",
"y525555008bbbbbbbbbbbbbVbbbbbbbbbbb00000cnb00bbb008bbbb000000py-",
"p51555500bb0bbbbbbvbbbbVbbbbbbbbbbbb00b8bbbb00bbbb000000000008;-",
"+5122555q00qbbcbbbbbbbmbmbbbbbbbbb0b00bbbbmbbbbbbbb00000000000-;",
"-;55555555008b00bbbbnbbbbbbbbbbbbb00000bbbbbbbbbbbbb00800055000-",
"-x-555555565500bbbbbbbbbbbbbbbbmbbbb0bbbbbbb0bbbb0bbb0000005505-",
"rx-pp---pp+555590b0bbbcbbbbbbbbbbb0000b00bbb00bbbb0bb0000000555-",
"----pa---pyp--55000bbbbbbbbbbbbbbbb00000bbbbb00bbb0000800550555+",
"*----u--%+-----500bb9bbnbbcbbbbmbmb000bbbbbnbbnbbb008000865454-#",
"-----*;++-------0000bb0bbnbbmbbbb0bbb00bbbbbbbbbbcm0005505555-+#",
"----+%+p-ppu+-p->000m00bb0bbbbbbb000b050bb08b00b0cbb00056055--+-",
"--+++-*---pla-ap;-0000bb00bbbb0bbb008q500b00bb0000bbbb05555pp+++",
"+--+O*---xxgz*xy;xxx00bb0bbbbn000b0050650000m0b000800005555-a-++",
"-p-;++-p--pxgp-*xlgsx00800b00bb000005555509500b00000000555++-++-",
"pp-++O-pp-++-x-ppgg-++0080b0000005055555555550006005005557------",
"pp-+---;--+pppppxx*#+++-00000555555555+++555555550055055..---;;p",
"pu-*--p---fgx+p++++++-+2000555..yp+%+--p*ap--++-2200552...O-;--p",
"p>--pp;--xza>-;---ppy-20055522.xp-++-->p--ap-++*5257573....+---a",
"---ppp------*--*;pp*-228552....--p--p-pp---;#+---25552.....*%---",
"-;--->+#-pau--**ya---22222.....--p-xa*p->---#-pxg25522.....-%--p",
"--p->+-O---pu-------2222p-X...g----gp------p-->;2552<p......%*pp",
"xpp--pp+----p--ggg22222pp--o...;xxph--;pp--x-pp22521p-x.. ..+-p-",
"xy--pp-+-gpO--xxg22222+%pa-....-zgxppfgl---xpp22222pt---....---;",
"-x----++-ggp-xpxx<232p-+----...--ugp---*-->;y22222--;--X....;>>-",
"-->--+++-xzx--px>---p++pxkx-...---pp-#+%+-px-2222;--->#....----p",
"g-pp-++@+-yxp-xx--->+#xggxx--kgsg*--O+;-++-pxpx--O--p->%+-py--pg",
"-+-pp>--+>>yp---zka#+O+---*-lgga-+>;+--p-++-py--++-tp---+>-p;-gs",
"----py--*--*->-pxggk->--pyp--->--++++--pp-+----++-*pp--;O+---yhp",
"-p---;--$+-*---+%#+O++*py>-------p------p*>x--++---*p----+-p-px-",
"-p-ppp--+++-++O++=*++%->;p->-----pu--px---xg->+*-p----p*--pp>p--",
"a>-kl---ppp-+-O+++-+&--p>pp-->--p-pu-;axp;gp--%+-pp--ux,;pya-->-",
"-----:*pp--@-----%+++-pp>-p---p--------glpxp--*+--pp-phx-p-;++++",
"ggx---*;---+pup---+---px++p--pp*gp--pp--xup-xxp++--p-pgd-----*--",
"gxxx-xxggx-++-pp,-+a--x*--;-xpp*ggpa-xxp-yppp--*+--;-;pg-pxgxpu-",
"pxxp-apx+--++>-pp-+yp*++>>--xx--xxp;--gxpp-p->-+O---pppxuxgxp---",
"+px++yx++---++*----px---xxgx>---xy------pp---+%+-ppxghxppppp--+%",
"-;rpu>++xxp-*+------xx-xggp------p--++--;p--;*-+-----pup++--+++;",
"-xhx---xpp-a+#-x>>-;-*-xg*+xjap--x*-+++---;+----+O->-*+%++---;p-",
"rxr:------*;>+-xx-*pxhga--xgggx-px-++-++*-+++-p--++;-++-p++---p-",
"--;rrr---rr-+#-xx-ugfxlk--xpxx-+--;+>y-++++---pp>-+%++-pp-++---O",
"--wr;----re+++;x---pxgxxp;pyx--+*--+;p---Op-;-,p-*-++-ppp--+->-#",
"-:p--;pp--p+#-------*->-++----++---+-pp---y-;---u-----p----+--++",
"-*;-+--p----#*p--;-xx-----*--;+;---++p-p--ap+-p----xx---->;--*+-",
";-+++--p>;-x+*pu--upx---p--pp%++*-+#+--p-*-x+-pu--pux---p>-pp+++"
};
