/* XPM */
static char *_6508_58416533c9bf0c4a52bb405cf53822a20c17ae097980f1649700b00c5e0af466[] = {
/* columns rows colors chars-per-pixel */
"64 64 58 1 ",
"  c #080A14",
". c #090A14",
"X c #090A15",
"o c #1E3616",
"O c #1F3616",
"+ c #1E3716",
"@ c #1F3716",
"# c #1E3617",
"$ c #1F3617",
"% c #1F3717",
"& c #263A16",
"* c #273A16",
"= c #263B16",
"- c #273B16",
"; c #263A17",
": c #273A17",
"> c #263B17",
", c #273B17",
"< c #241526",
"1 c #241427",
"2 c #241527",
"3 c #341C26",
"4 c #341C27",
"5 c #351C27",
"6 c #341D27",
"7 c #351D27",
"8 c #4D2A32",
"9 c #4C2B32",
"0 c #4D2B32",
"q c #4D2B33",
"w c #2D4217",
"e c #2C4317",
"r c #2D4317",
"t c #354C1A",
"y c #344D1A",
"u c #344C1B",
"i c #354C1B",
"p c #344D1B",
"a c #354D1B",
"s c #5E761E",
"d c #5F761E",
"f c #5E761F",
"g c #5F761F",
"h c #5F771F",
"j c #476820",
"k c #476920",
"l c #466821",
"z c #476821",
"x c #466921",
"c c #476921",
"v c #7A4840",
"b c #7A4841",
"n c #7B4841",
"m c #7A4941",
"M c #AD7756",
"N c #AD7657",
"B c #AC7757",
"V c #AD7757",
/* pixels */
"O=&o@==>=ulgc=zp-pzc=>=pa===p=O@O==OO>==&ccgx=cp-ccx=>=ap==&a=Oo",
"*-=&@O=====zgp==ppppp==pp===OOO=-a-&oO=up==cgp==ccggc=>pp=OO&OO&",
">=p==$oO$=&===========>===+OOO==apO$O>===&==&==p===>=====OO=====",
"apa=p>==oO-=OO>-O====p=====OoOpcppO=======&=a==p-=ppp===O$=====p",
"kp==pp==>OO@OOOOOO&==pp==-==OcggppOO=ppp====g&py=pp==#OOO==p=-=p",
"p&===p=uapOOO=OOOO===ap===p==O=cp==O$=&pp==cgpp==p===OO====pp==p",
"==ppy-pp=OoO-==OO===y=pp&=c==O==&==oOOO==p=cgc=-====OOOO===pp===",
"====p===O$===p&===OOc====gc==&===&OOOOO@===pcp-=&===OOOO=p==p=-p",
"p>->====O===up==&==Ocg>=cgp===ppp==OO>=pgffcyp=pcggoOOO==p====pu",
"pp====OOO==-up==ppppcgppcp;-===ucp==O&>==acccpkcp==OO====pp-=pp=",
"ppp=OOO-=p==p>=-=&pppcdpp==>==-=cp===>==-==icp===OOO--====pp=p=&",
"=========kc=&=pap>=ppagppkccp>===c===a========OO@O@===ppa==p====",
";>=>ppp==cdp=ppp====>pppxcp==&=p====pp====-->=O===%$pxcfgp==&==a",
"p=====ap==gg=pp===OOo>=====>&=pup>=pp=-=cggg==O=pp=OO=&zgg====ug",
"=O=O@===-=pcpp====-=O#@======yap=O=pp===pcgcc==Opg&=O$=-pcc=pggg",
"===OO==pggpapcdgcu==p=OOOOO=&>==>==p==p=ppkcpc=pgg====cci==pccgp",
"-p&===&==ccpcggz=OOOpyOO@-OOO-===a===pu===pcp==ckc=>pcgc===cckx=",
"=p==-ppa==a=ccp=OO==Opp=O==-=====p==pup&&==kc=pcp-==ggcupp=ppp==",
"p==p==ppu===p=oOO=====-=O-======p==pp=>=====ppp=====-ppu====&===",
"===pp==@O=&==OO==pp-==p=O==pp=p======&gggc===>=========@OOO=====",
"a=-=p=&=O@O=p==&==ppp=c==pa=>=a=gpO>=cphcp===&=ppp==c=O$==p=VVVV",
"yp========OOcp==-===p-cf&y===>p=ggVBVVMVVVVV=OOOpcp=zg=VVVVVVVV0",
"pa-=ppp=pcpOpp=xp=-===pg>*pgp===cVVVbbbVVbbVVV>O==pNVVVVVVbVV0V0",
"Op=upy==&pcyOOpp=>pxghpp=pgy===VbVbbVbV40VVVVVVV=&VVNVbbbVbb0008",
"&-==-=====>ppOOO=pp=phgp=zc===VVVbbbbbV40VVVVVVVVVVVVVVVbbbb8000",
"=c======O%OOOO=O%====pcp=>=>VVbbmbbbbv70VVMVVVBVVVVbbbbVVb000000",
"rc=pp-==ppoO$O=pOO=====>==04400bb222bb0VVVmVVVMVVVVVbbbbb0000000",
"====pa=>=ppp=&=ppOOO=====...4000bbbbbbbbbVVbVVMVbbbVbmbbb0bbq00b",
"&====p==OO==-==pp&===O=-O4.44400b00bbbbbbVVbbbbVVbbbbbvbbbb8000b",
"======-OO=======p-===OOOO424444000bbmbbbVBbbbbVMbbbvbbvvbbb00000",
"====O$ou-pppO=p====pp==*=424444008bbbbbbbbbbbbbVbbbbbbbbbbbn000b",
"==OOO===&=pcp=pp-=ppc===p42443400bb0bbbbbbbbbbbbnbbbbbbbmb0bb09m",
"O&=$#&==&ccgc&cy-ccc==>pp52224440000bbbbbmnbbbbbbbbbbbbbbb000000",
"=p=-OO=p==pcgp=&czggc==pp&44444444000b80bbbbbbbbbbbvbbbbbbbb00bb",
"pp=OOO=pp=Oo=c=ppgg=OO=y&==444444444400bbb0nbbbbbbbbbbbbbb00000b",
"pp=O=====>Opypppcx=OOOO;======pcpp$444400b0bbbbbmbbbnbbbbbb00090",
"pu====p===ggcOpOOOOO@=O=ppac>=ggppOOO=4400bbb0bbbbbmbbbbbbb0000b",
"p==&pp===ccp======ppa=OO=pypc==cp=OO==>4009b0bb0bbbbbbbbb0bbb000",
"===ppp==========-pp==$OO=&=zc====p==p=pu=0800b00bb0bbbbbb009b940",
"==&===OO=aay====pp====pppO&&OO===p=cp=p====0000bb00bbb0bbb009044",
"-=p=>O=o===pu========ppup=p==pg====gp======p000bb0bbbb000b094044",
"cpp=>puo====p==gggc====pp=&=pdg-ccpg===pp==c>00q000b0bb000004444",
"cy==pp=O=gpO=-ckgcp-==OOpp==gx==cgcppggc==-cpp. 090m000004844443",
"=k====OO=ggp-cpccp&&pp=O==-=cp===pgp======>=yp..02000094446344>,",
"==>==oOO=ckc-=pc====pOOpccc===*===pp,OOOO=pc==....80044222p==,=p",
"g=pp=$Oo$=pjp=cc====OOcdgcc==zggg===OO==OO=pc......200442=ap=-ag",
"=O=pp===$==up=&=ccaOOOO>===&cggt=O=-O==p=OO=.......<204441=u==gs",
"===-pp&========pcggc===&ppp======OOOO==pp=O.......=p220042==&pha",
">y==--==#O=&===O$@OOoO=py========p======p=>.....==&=p220412p=pc=",
"=p=ppp&=OOO>OOOOO=&@O$=>=p=======pu==pc===....O==p====22222p=p==",
"a==kc===ppp=O=OOOO=$O==u=yu=====p>pp==pcp=X...O@=pp-=p22222p==&=",
"=======pp=-+=-===OOOO&pp,=p===a==&===>=gc....&=O==pp-pdc222=OOOO",
"ggc===&====oppp===O===acOOp=&ap=gp=&pp==c...ccpOO==p=pfg222==&==",
"gccc=cxdgc=OO=pp,=Op=,c&==-=cup&dgpp=ccp-pppp===O=>=&=pg=pcfcup=",
"pccp=pycO==OO>=pp=$pp=Oo>,==cc==ckp==&gcpp=a===OO===pppcpcgcp=-=",
"OpzOOpc$O>==OO=:===pc===cchc>>=&cp======pp=>=OOO=ppcggcppapp==O$",
"--rpu>OOccp=&O=====-cc=cghp=-====p->OO===p=====O=====pupOo==OOO=",
"=cgc===cpp=aOO&c=====&&cg-Ocxpp==c==OOO===-O====OO&===OOOO====p=",
"rcr>===>====>O-cc>&pcggp==cfggc=pc=#O=OO&=OOO=p=&OO==OO=pOO===y=",
"===rrr===rr=O@=ck=yggxcc==cpcc&O===O=p&%OOO===up==O$OO=pp=OO===O",
"*=wr-====reOoo=c==>acgccp=ayc==O===O=a===Op===,u===OO=ppa&-O===@",
"=&p==-uy>=pOO====&======OO====O@===O=pp=&=p=====u=====p====O==OO",
",&-=O=>p====O&p==--cc==-==&=-=O-==-O@p=p==apO=p====ck=====-&==O=",
":=O@O==p===cO&pu==upc===p==pp$OO*=O@O==p===cO=pp==puc&==p>>ppOOO"
};
