/* XPM */
static char *_0632_ce0bcfe6cd472cba841335b05a12b0119ab474a1fa20b176f2b074780739870c[] = {
/* columns rows colors chars-per-pixel */
"64 64 193 2 ",
"   c #020101",
".  c #010A00",
"X  c #160202",
"o  c #081103",
"O  c #10100E",
"+  c #090A14",
"@  c #121C17",
"#  c #270000",
"$  c #330100",
"%  c #281010",
"&  c #0E2901",
"*  c #132A03",
"=  c #152A0A",
"-  c #163503",
";  c #1A3205",
":  c #1F3804",
">  c #1B320B",
",  c #17380D",
"<  c #1F3113",
"1  c #372505",
"2  c #36260B",
"3  c #392E0C",
"4  c #233502",
"5  c #233C03",
"6  c #27310C",
"7  c #223A0B",
"8  c #353403",
"9  c #222413",
"0  c #22251F",
"q  c #382913",
"w  c #253114",
"e  c #223C13",
"r  c #2C3816",
"t  c #29391B",
"y  c #333410",
"u  c #241527",
"i  c #341C27",
"p  c #312222",
"a  c #302F27",
"s  c #353733",
"d  c #450303",
"f  c #431508",
"g  c #521F04",
"h  c #561314",
"j  c #76151C",
"k  c #462807",
"l  c #40300D",
"z  c #4E2314",
"x  c #53201F",
"c  c #443414",
"v  c #673319",
"b  c #691922",
"n  c #4A3920",
"m  c #533925",
"M  c #4D2B32",
"N  c #4A3335",
"B  c #692521",
"V  c #7A2322",
"C  c #7E2A2E",
"Z  c #673424",
"A  c #783121",
"S  c #7B382C",
"D  c #18410E",
"F  c #254005",
"G  c #2E4704",
"H  c #27400C",
"J  c #2E4A0C",
"K  c #35500E",
"L  c #2A4114",
"P  c #294A15",
"I  c #2D431C",
"U  c #284B1C",
"Y  c #334712",
"T  c #314A15",
"R  c #36431E",
"E  c #354C1F",
"W  c #375114",
"Q  c #34501E",
"!  c #304424",
"~  c #364B24",
"^  c #395224",
"/  c #3D542D",
"(  c #384432",
")  c #444314",
"_  c #434520",
"`  c #534021",
"'  c #445E22",
"]  c #455D2A",
"[  c #55522A",
"{  c #444238",
"}  c #6E4128",
"|  c #436422",
" . c #4A6321",
".. c #4A6428",
"X. c #4D692B",
"o. c #516826",
"O. c #4B6332",
"+. c #436930",
"@. c #536B32",
"#. c #506638",
"$. c #546A3C",
"%. c #4D783A",
"&. c #557330",
"*. c #5A7331",
"=. c #5B7539",
"-. c #676E38",
";. c #627835",
":. c #3D3A40",
">. c #454546",
",. c #574445",
"<. c #585244",
"1. c #4D4F50",
"2. c #565555",
"3. c #6F4C48",
"4. c #7A4841",
"5. c #665554",
"6. c #5C7540",
"7. c #637B43",
"8. c #7C6857",
"9. c #5D5C61",
"0. c #695E63",
"q. c #6C6668",
"w. c #767070",
"e. c #881B19",
"r. c #9D1522",
"t. c #AB1720",
"y. c #A41E25",
"u. c #AA1A26",
"i. c #B31729",
"p. c #B31C28",
"a. c #B41F30",
"s. c #892724",
"d. c #8C2925",
"f. c #88252E",
"g. c #992223",
"h. c #9B2129",
"j. c #96282D",
"k. c #873024",
"l. c #9C332A",
"z. c #992532",
"x. c #883331",
"c. c #983436",
"v. c #A82224",
"b. c #AC2A2D",
"n. c #A52130",
"m. c #B52730",
"M. c #BB2435",
"N. c #A83337",
"B. c #A53F38",
"V. c #B53235",
"C. c #BE353B",
"Z. c #C52435",
"A. c #CA3336",
"S. c #C43539",
"D. c #CE3039",
"F. c #D1383D",
"G. c #914C37",
"H. c #993544",
"J. c #AB2D42",
"K. c #B93541",
"L. c #C73541",
"P. c #935249",
"I. c #9A5B5D",
"U. c #B5494B",
"Y. c #886858",
"T. c #9A645C",
"R. c #A7635B",
"E. c #AD7757",
"W. c #A55D61",
"Q. c #996667",
"!. c #95696B",
"~. c #8E7B74",
"^. c #A4666A",
"/. c #A9777C",
"(. c #B77577",
"). c #C94547",
"_. c #D74C55",
"`. c #E35D61",
"'. c #D4696E",
"]. c #E66568",
"[. c #7F8778",
"{. c #88857C",
"}. c #918579",
"|. c #9D7E83",
" X c #8A8684",
".X c #958D89",
"XX c #9B9A9B",
"oX c #B99E9A",
"OX c #B2A39A",
"+X c #AE9FA3",
"@X c #B2A3A5",
"#X c #D69E9F",
"$X c #DDB7B9",
/* pixels */
"> ; w 7 & e w 6 7 W | %.+.4  .) 4 T @.' 5 5 : T Q 7 > e ! t 2 2 1 g k % g h k k : +.+.%.+.: o.G F  .| | 4 5 5 ^ I L 7 , P , > : ",
"e H 7 w , , e 6 6 4 5 +.&.W F - ^ P H Q T r - ^ I 6 c a < e 9 8.Y.Y.8.8.Y.Y.Y.Y.~ e D #.@.) 8 5  .o.&.;.@.4 4 I I 6 > > H - ; D ",
"; 7 T e D , > > 6 7 7 7 7 > : L , < e e - , H ; t q f 8.8.[.[.{.|.|.[. X X{.~.{.{.w.}.}.!.Y.3.P.g k F 5 7 6 e e e < = 6 r w e e ",
"Q T ^ e U D , , 7 * e > > e L , , L ; 7 P E D r q h W.^.}.OX.XXXXXXXXXXX.X X X{. X.X|.|././.'./.P.G.` ` n 3 6 > > 7 6 r w e e Y ",
"+.I 7 4 L ^ 7 H e > , , , * = = < = , e - Q T 3 ~.Q.I.^.oXOXOXOX+X+X@X@X+X@X+X@X@X@X+XoX$X$X$X#X(.U.H.f.f.h 3 6 ; : 7 R > > L E ",
"T 7 7 6 J P 7 Y c ` 1 q q c q p 1 1 3 3 3 c Z R.R.P.C x.I.I.T.Q.!.!.!.!.!.!.!.!.Q.!.Q.Q./.!.^.^.d.j.n.u.y.s.A g y 6 y ) E 7 : E ",
"7 e Y T P 5 ) v j N.N.N.c.G.c.c.c.B.U.U.B.U.B.S.v.g.r.g.s.f.z.z.f.x.x.f.c.j.z.c.c.l.z.z.N.N.n.K.N.J.m.L.a.b.b.l.A z k ) ^ 7 4 : ",
"7 6 6 5 ) 1 G.B.V.S.L.L.U.'.'.`.]._.S.S.A.A.A.D.Z.S.m.V.N.V.L.S.V.B.N.V.C.m.).].].]._.`._.K.K.'.K.K.L.L.K.M.L.M.V.l.k.k Y 5 7 P ",
"~ ; 8 k g G.V.L.F.V.j.C S x.c.).L._.D.D.Z.A.A.A.A.C.S.C.S.S.D.D.S.S.C.C.S.S.S.).).).B.L.L.K.K.U.j.V V k.r.K.L.S.A.V.g.x.k F Q P ",
"^ _ k P.B.V.S.a.r.s.d X # # B x.J.M.Z.Z.Z.A.F.A.S.S.C.C.S.S.D.D.S.M.m.u.i.i.i.y.g.v.v.v.p.K.'.H.h $ X X B d.J.C.A.).).d.k Q P D ",
"! c Z h.D.D.K.H.b f z N i   3.x j z.a.Z.u.u.t.t.t.g.y.y.h.v.y.t.u.t.y.u.v.u.u.u.v.r.t.p.u.z.V b z + { % m $ j K.D.Z.J.x.k R : D ",
"e c B e.a.M.n.j $ >.  :.:.@   N $ C r.J.p.u.t.v.v.v.y.y.y.y.y.v.t.u.u.n.p.u.t.t.r.v.u.y.z.H.# { X O <.p 9 5.d H.K.K.n.x.q 7 H , ",
"7 3 k h j.j.j.h i :.@ 1.:.1.u N % B j.M.a.i.u.t.r.v.p.i.i.t.t.u.u.p.m.a.a.p.p.p.m.p.p.m.b.B % p X p 2.2.% 5.x b J.J.c.} 3 5 y W ",
"~ y m $ j z.C h ,.a >.2.w.w.2.N { $ j.u.a.m.M.b.b.b.m.M.Z.M.m.m.m.m.m.m.a.a.M.m.t.m.b.b.z.# 5.0 s q.0.q.2.0 3.h f.j.A g 8 F 8 -.",
"> > 9 f j z.f.h ,.>.1.q.5.0.{ ,.m $ V r.n.n.b.m.b.b.m.m.p.m.b.b.b.b.v.u.u.u.y.y.v.v.e.g.x.X 2.>.1.q.9.q.3.N 5.2 B Z ` 8 K &.;.;.",
", 4 6 1 A b C $ a s O ,.,.5.0 p 9 m B V A V k.f.k.d.d.d.d.d.k.k.A k.d.d.d.d.k.A k.k.k.A g 8.0 0 + a 2.2.q { p [ m 3 8 )  . .;.G ",
"7 ^ 7 6 3 l l p 9 { o s s   . {   w 2 2 n ` 2 1 1 l 2 1 2 2 l z c c 1 c 1 m c l 3 c ) [ ) 6   (   @ >.@ 9 <.  6.9 6 4 X.X.X.X.: ",
"H L 4 7 7 ^ ~ ) t @ 9 ( s   1.s w = e e > e Q > e > w < e w 7 7 7 R 7 7 J Y P : 4 4 4 @.O.e ! ( s O >.@ { . $.I ~ P H T T H 4 H ",
"H H H T 7 7 t ( ! a o w 9 @ w 0 , e e ; : 7 6 H ; > > e > L 7 7 ~ 5 H T Q 5 P 5 F 5 H e I ~ ~ < o 0 0 0 t R ~ T : H 5 ; 5 7 7 7 ",
"H 7 5 E E e 7 e > > L w I < < < t I ~ 7 H : T : 4 7 Y E P e e 7 5 : 7 7 7 4 @.=.@...7 7 e > 7 e t w w e > 7 > 5 : & - D 7 7 7 7 ",
"P 7 7 e R H e ; > > ; > ~ > P L e 7 E T T 4 X.5 4 T P 7 7 ; ^ 4 =.K 4 - : $.H 6.@.T 4 > L > 7 ~ R ! r M M M M M M M M 7 7 > L 7 ",
"E E H 7 7 - : 7 , 5 7 5 O.Y 7 ; 7 7 > : W : ..*.- Q 4 H 5 7 ^ 4 =.X.W F ] W @...Y 5 7 5 7 = e ; M M M M M M M M M M M M M E ~ < ",
"E E > 7 P Q P 7 P O.^ & ^ T ; $.I e E.E.E.E.E.E.E.E.E.E.~ L ; 7 ..o.| W F ] #.5 L - W P E.E.E.E.M M M M M M M M M M M M M M e 7 ",
"; U 7 Q T ^ : 7 ; E ] Q - - T L 7 E.E.E.4.4.4.E.E.P.} E.E.E.t > O.J X.J 5 : H E.E.E.E.E.E.E.E.M M M M M M M 4.4.4.M M M M M M M ",
"7 7 5 7 7 H 4 7 5 7 7 E E - ; E.P.E.4.4.E.4.E.i M E.E.E.E.E.E.E.T W J E.E.E.E.E.E.E.4.E.E.M E.M M M M M M 4.4.4.M M M M M M M M ",
"H ] 7 7 7 4 7 7 > 7 ; ; > 7 E.E.E.} 4.4.4.4.E.i M E.E.E.E.E.E.E.E.E.E.E.E.E.4.4.4.E.4.4.M M M M M M M 4.4.4.M M 4.4.4.4.M M M M ",
"r O.7 Y E ; L 7 Q P > ; E.E.4.4.4.4.4.4.4.4.i M E.E.E.E.E.E.E.E.E.E.E.E.E.E.E.E.4.4.4.4.M M M M M 4.4.4.4.4.P.3.4.4.M M M M M M ",
"7 H 6 e ~ T 7 7 6 E M i i M M 4.4.u u u 4.4.M E.E.E.4.E.E.E.E.E.E.E.E.4.4.4.4.E.E.4.M M M M M M M 4.4.4.M M } 4.4.4.M M M M M M ",
"5 4 7 7 7 ~ 7 > > + + + i M M M 4.4.4.4.4.4.4.4.4.E.E.4.E.E.E.E.4.4.E.E.4.4.4.4.4.M M M M M M M M M 4.4.4.M M 4.4.M M M M 4.M M ",
"7 7 e L ; 7 D 7 ; i + i i i M M 4.N M 4.4.4.4.4.4.E.E.4.4.4.4.E.E.4.4.E.4.4.4.4.4.M 4.4.M M 4.4.4.4.4.4.4.4.4.4.4.4.4.4.4.M M M ",
"e e > , , > 7 L 7 i u i i i i M M M 4.4.4.4.4.4.E.E.4.4.4.4.E.E.E.4.4.4.4.4.4.4.4.4.4.M M M 4.4.4.4.4.4.4.4.4.4.4.4.4.4.4.4.M M ",
"> e , - - e , e 5 i u i i i i M M M 4.4.4.4.4.4.4.4.4.4.4.4.4.E.4.4.4.4.4.4.4.4.4.4.4.M M M M M 4.4.4.M M 4.4.4.M M M 4.4.4.4.M ",
"; e 7 = : > 7 7 F i u i i i i M M 4.4.M 4.4.4.4.4.4.4.4.4.4.4.E.} 4.4.4.4.4.4.4.4.4.4.4.M M 4.M 4.4.4.4.M M 4.4.4.4.M M M M M M ",
"I I e 7 < > e E : i u u u i i i M M M M 4.4.4.4.4.4.4.4.4.4.4.4.4.4.4.4.4.4.4.4.4.4.M 4.M M 4.4.4.4.4.4.4.4.4.4.4.4.4.M M M M M ",
"I U 7 > - - 7 T T H i i i i i i i i M M M 4.M M 4.4.4.4.4.4.4.4.4.4.P.4.4.4.4.4.4.4.M M M M M 4.4.4.4.4.4.4.4.4.4.4.4.4.M M M M ",
"I ~ e > 7 e e H 5 : : i i i i i i i i i i M M 4.4.4.4.4.4.4.4.4.4.4.3.4.4.4.4.4.4.4.4.4.M 4.4.4.4.4.4.4.M 4.4.4.4.M 4.4.4.M M M ",
"Q T > > < L L 7 7 , 6.6.#.- E ; * , - i i i i M M 4.M 4.4.4.4.4.4.4.4.4.4.4.4.4.4.4.M M M M 4.M M 4.4.4.M M 4.4.4.4.M 4.4.M M M ",
"Y 7 : L ~ R D 7 H #.#.t e e = L L L ! ! ~ e i i M M M 4.4.4.4.4.4.4.4.4.4.4.4.4.4.4.4.M M M M M 4.4.4.4.4.M M 4.4.4.M M M M M M ",
"H 4 D T ^ U 7 7 ; 7 H , > H > 7 D P T 5 e ; 4 i M M 4.4.M 4.4.4.4.4.4.4.4.4.4.4.4.4.4.M M M 4.4.4.4.4.4.4.4.4.4.4.4.M M M M M M ",
"5 > 7 5 7 7 > ; H T I W F > H : J W H - F H L E M M M M 4.4.M 4.4.4.4.4.4.4.4.4.4.M 4.4.4.M M 4.4.4.4.4.4.4.4.4.4.4.4.M M M i i ",
": 7 I 7 e > 7 ; 7 5 : Q L F 7 7 5 - > H > ~ E E I M M M 4.M M 4.4.M 4.4.4.4.4.4.4.M M M 4.M i M 4.4.M M 4.M M 4.M 4.4.4.M M M i ",
"@.Y ^ 7 - ^ E ; > H F : K : 5 *.=.=...H 7 H < ~ ^ e M M M M 4.4.M M 4.4.4.4.M 4.4.4.M M M M i M M 4.M M 4.4.M M M M 4.4.4.4.M i ",
"+.^ * L ~ ~ 7 ; : 6.J : : : X.| &.| W 7 ; ; , - L E 7 5 M M 4.4.M 4.4.4.4.4.M M M 4.M M i M i i M M M M 4.M 4.M M M M M M M M i ",
"; #.7 ; 7 , - 7 7 =.=.T D o.J o.+.W : 5 ^ E 7 > H 4 7 5 ..M M M M M 4.M M 4.4.M M M M M i i i i i M M i M M 4.M M M M M M M M i ",
"5 > H e > > ; = H ] X.O.5 5 P X.: H > 7 T : - H ..@...: 5 5 M M M M 4.M M M M M M i M i i i i p i i i i i M M M i M M i M M i i ",
"6.L H ^ e ; 7 > ; 5 ~ O.7 7 @.O.D 7 F : ; ; @.7.=. . .5 5 o.7.@.M M M M M i i i i i i i i i O.> > i i i i i i i i M M i i M i i ",
": : > T E > H 7 ; 7 7 ~ ^ 4 ; 5 | X.Y : 4 ; - > 7 - H : o.*.*.u M M M i i i + + e > - ; ~ E : H 7 = 7 P E 7 P > u u M M i i u + ",
"H - : H E E > e 7 e > - 7 L 7 T +.=.=...> 7 D : E T T 5 7 H u M M i i i u u + ! E 7 ; : 7 : e ; 4 5 4 ~ E > w t i u i i i i u + ",
"F P 5 7 - e 7 H - > , H < t < , = , ; ; 7 = H E P 7 7 7 e u u M i i u + + + + : T : F @.: e < > 7 7 7 e R e e w w u i i i u + + ",
": ^ 5 T E ^ > > > 7 < e , , > ; , < L 7 & ; L > 7 T : > D u u u u u + + + + + : F : ..&.: ; , e 7 E 7 ; 7 e ^ e e u i i u u + + ",
"K : 5 O.O.: 7 e I I E < e > > 7 = > t = > L - ~ > ~ ^ 7 u u u u Y H + + + + ^ O.K F &.Q F 7 = > 7 ^ Y L 7 H O.4 u i i u u 7 + + ",
"D F : H 5 7 5 P ~ H 7 - 7 7 e , e e > > > : Q T > L u u u u u > : : : + + + + 6.| K X.F H H 7 > 7 e Y T 5 W 7.u u i u u 4 * - + ",
"*.*.X.: : : H : H 7 > > I E E : e > < e L 7 P X.H u u u u u ~ F &.W D + + + + : ..K J L ..] ~ 7 > 6 L T 4 K u u u u u 5 > e 7 e ",
"=. .' X.F ..O.6.=.] Y - ; 7 T ~ e 7 - ~ ; > O.5 5 u u u u Q P : &.7.H T + + + Y H L J K T 7 D > > 7 7 4 F u u u u u X.=.X.E R + ",
"K ..o.J F T W ] ; ; ; 5 : H D ! E e > E E H > - F : : H ] O.H : X.' W J + + + #.T Q H P H ; 7 > = e 7 7 J u u u u o.o.@.Y > e + ",
"- K  .: - T ..4 : 5 7 7 - > > 7 > 7 5 T ] H ; H ..X.@.O.7 : : F ..J F 5 7 : 7 6 Q Y 7 5 7 > 7 > > E E #.=.=...J G W W T 7 e & < ",
": 5 H T T 5 - > #.O.T D 7 ; H 7 ; P : : @.X.: X.=.&.J : H 5 : F 5 Y 5 7 5 & , 7 e E e ; 7 e 7 ; e 7 e 7 4 P Q T 5 4 7 7 7 * > e ",
"5 O.=...H > H X.I ~ > R = ; 7 O.L ; : 5 5 : 4 X.=.: - X...P W : 7 ..7 ; > ; 7 7 D L w - e 7 e > = 4 7 7 e e 6 ; > ; e : 7 7 R e ",
"Y ] T 7 : P ; > > L e I 7 * > O.] > H T ' =.@.W F : @.=.$.=. .: I +.7 ; > e 6 > > > > > > e ~ e 7 4 = ; e ; = e ! = < 7 e e I > ",
"; , 7 7 7 L > L H D L = > , L #.X.F P 6.7.X.| X.: : ..T @...7 ; H L 7 > , E > > > 6 7 e > L L ~ > 7 7 > 7 > t ! / w = < e e e > ",
"H 7 e L e 7 > > e L e 7 - : 7 X.H H : ~ ] &.@.| W H H P O.: , > , , 7 > e Q e 7 H ; L D 7 7 7 E 5 7 7 ; ; > ^ R ! e w 7 r > > 6 ",
"7 7 I I > 7 ~ ~ 7 e I 7 > > 7 7 : 4 ; T : : F H - : 7 H H - 7 ; e e L > > Q L 7 7 7 ^ > 7 7 7 7 R 5 7 7 e 7 E e 6 e : > e 7 ; w ",
"H 7 > > - 7 L t 7 > e 7 - F E : 7 : D ..O.; : : F : : : e < * e w e 7 - ; T T Y : , E I ; 7 Q 5 L 6 7 ] O.7 7 : 7 7 > , L > > w ",
"> 7 ; 7 > 7 7 ^ 7 7 7 ..- > Y E 7 L L T #.: 7 7 T 5 7 E ( > > , e t w > ; 7 4 Q H : : $.; 4 E T : e Y Q O.5 7 : E 4 : E E > : > "
};
