/* XPM */
static char *_4a1a5bf93984957f41165f699495593H6tjRxqek5660Qs1[] = {
/* columns rows colors chars-per-pixel */
"64 64 49 1 ",
"  c #090A14",
". c #090B14",
"X c #1E3616",
"o c #1F3616",
"O c #1E3716",
"+ c #1E3617",
"@ c #1F3717",
"# c #263A16",
"$ c #273A16",
"% c #263B16",
"& c #273B16",
"* c #263A17",
"= c #263B17",
"- c #273B17",
"; c #241526",
": c #241427",
"> c #241527",
", c #251527",
"< c #341C26",
"1 c #341C27",
"2 c #351C27",
"3 c #4C2B32",
"4 c #4D2B32",
"5 c #4D2B33",
"6 c #2C4317",
"7 c #2D4317",
"8 c #344C1A",
"9 c #344C1B",
"0 c #354C1B",
"q c #344D1B",
"w c #5F761E",
"e c #5E761F",
"r c #5F761F",
"t c #5F771F",
"y c #476820",
"u c #476920",
"i c #466821",
"p c #466921",
"a c #476921",
"s c #7A4840",
"d c #7A4940",
"f c #7A4841",
"g c #7B4841",
"h c #7B4941",
"j c #AD7756",
"k c #AC7657",
"l c #AD7657",
"z c #AC7757",
"x c #AD7757",
/* pixels */
"o%%%****%8pep%p8*8pp==%8q%%%9#XXX%%oo%%%-ppwp%p9%paa%%%88=##8%Oo",
"%%%%X#**%*#pe8%%88888==8q=%%#OX#%9%%oo%89%%pw9%%uawwp%%88=OO%oo%",
"%%9%%OOOO##%%%%%%%%%==%%%%OOOO%-99ooo%%%%%%%%%%9%%%%%%===oo%%%%%",
"999%9%%%OO#%oo%%O%%%=8%%%%%%O#9p99o%%%%%%%%%9%%9-%qq8%=*oo=%%%%8",
"i9%%99%%%%oooooooo=%%qq%%%*%Opee99oo%q99-%%%t%qq%qq%%%ooO%%q%%%8",
"9%%%%9%9q8ooo%oooo==%qq%%%8%#O%p9%%oo%%99%%ptqq%%q%-%Oo*%%%q8%%q",
"%%999%99%ooo%%%oX*%%q%qq%%p%#O#%%%%oOoo%%9%ati%%%%%%*ooo%%%qq%%%",
"%%%%9%%%oo%%%8%%**#%a%%%%wp%%%%%%%oo-ooo%%%qp9%%%%%%oooo%8%%q%%q",
"9%%%%%%%o%%%q9%%===Opt%%utq%--qq9%%oO%%9eewp88%qieeoooo%%q%%%%q8",
"9q%%%%ooo%%%99%%888qptqquq%%%%%qi9**%%%%#9ppp8ppq%%oo%%%%qq%%qq%",
"qq8%ooo%%q%%q%%%==9qqpt8q--=%%%%p8==%%%%%%%9p8==%-o+%-%%%%qq%q%%",
"%%%%%%%%%ii%%%qq8**qqqt8qiuuq%%%=p==%q%%%%%%%=ooooo%%%q9q%%q%%%%",
"%%%%999%%itq%qqq%%%=%999iuq=%%%q%%==8q%%%%%-%%o=**Xo9iietq%%%%%q",
"9%%%%%99%%tt%9q%%%ooo%%%=%%%%=qq8%=8q=%%peww%%o*99*oo%%itt%%%%qt",
"=o%oo%%%%%qiqq%%%%%%ooo%%%%%%qqq=O%8q%%%9pwuu%%*8e==-o%-qiu%qtte",
"===o=%%8ttqqqieei9%%9%oooo--=%%%%%%8%%q%99uuqa%qee%=%-uuq%%qiieq",
"=8%%%%%%%iiqieei*oOO99OOo%ooo%=%%q%%%qq%%%qi9%%ipp%%9iei%%%iiip%",
"=8%=%qqq%%q%ui9*oo%%O99#o%%%%%%%%q%%qqq%%%%ii%qi8%%%eei999%8qq%%",
"8=%q%%qqq%%%9%#oo*%%%%##o%%%%%%%q-%qq%%%%%%%q99%%%%%%999%%%%%%%=",
"==%88%%=o%%%%%o**88=%%8#o%%qq%q%%%%%%%twti%%%%%%%%%%###XooO%%%%%",
"xllj8*=%=oo%9%%%%-qq8%i%%qq=%%9%tq==%aqwiq%%%%%988%%i%#X%%q%%%%%",
"5lljzzzzx%ooiq%%%-%%zjzzjzxxll9%tt9%aqaa8%%%%ooo8iq%it%%quq%%qq%",
"5x3jjdzzzzlzzq%i9%jjzggzzggglzj%iiu9%ap%%%qq9%%o%%q%uti%iq%%qq%%",
"5533ddzdggxzzzqqjjjzzzz51zgzggzgj9i9%%%%%iq%%%oo%%%%-qu=i%%%--%=",
"5555ggdgzjjjzxxxzxxxxxx51zggfffzjjqq%%%%%%=o%%o%=%%p%%qq=itui%%%",
"554535gzzdgfgxxxxxxxxlxz51ggffffggjj%%%%%%ooooooO%pttiq8itu%%%q%",
"4445333gffffllllxxxxlgllz5gd;;;fg55115%iiq%oooo%%%%qiti8ii%%%9q%",
"d444gg3gffffzgggxxxxgllfgfddffff3351...%qq%%oooq%%%%%pi8i%%q99%=",
"d5444sggfffffffjzhdddzzfdffff53f55111.1%%qq%%oo90%%%%%%%%%%%%%%#",
"45444sggffffffffxzdgdgzzffffff5551111;1%%%%%%%%%09%%%%%%%%%=%%Xo",
"d333sgggffffffffxhhgfffffffdff5551111>18%%%%O%9%%%%ip%%%%%****X%",
"d33ss4ggffffffffhhggffdfffff5ff551111>1q%%%io%99%%9qp%%%8%*99ooo",
"353353fdffffsfffffffffffffff5533111:::<%%iiwi%p8=ppp%%%qq%%%9%X*",
"ff33fdgggffffffffffffffd33s553111111<<%q9%%iw9%%ppttu%%qq%oo%XX#",
"f35355ggdsffffgffffff3ddf351112211111%%%oooo%**%%%%%%%%%%%%%**##",
"33555fggssgffffffffsf3d532111%9i00o%Ooooo9%o#o**%%%%%%q%%-%%***9",
"g3443gggsfffffffff3gdd55129y%%ew9qooo%%q%qq%%o%%%%9%%uq%#OO**%%9",
"333ggg3gssfffgff3fg3d5551099i%%i9%o-%%%q=%00%OO%%%u%%t%%%#Oo%%%9",
"414g333ffgffg3fg43f3555o%%%yi-%%%9%%q%qq%%%%oo%%&9uwqqq%%%%%O%%%",
"114333gff3ffg33gg5335%899o%%o-%%%9%iq%q%%%%%o%qpwu9uqqqiep9%O%%9",
"113154g344gggs4gg333&000q%q%%qt%%%%t8%%%%%%q%%%%qtuqqque8%%%o=88",
"111144443gg3g344433&&%%9q%%%qet-ii9e%%%88%%p%qq%=quuq=uq%%%o**8=",
"111114143333f344  0&%%ooqq%%ti=%iti98etp%%%pqq%%==qqq=%%%%Oo%%*=",
"&y111111233333,3  &&qq%o%%%%uq%%%9t9%%%%%%%%qq%qq%%%%%%%%8%%%%==",
"%%%%&X::;11353  ..%%qXX9iuu%%%=%%%88=OOO*=8p=%p8%%%%%=Oo%q8%%%%8",
"e%89&#X:1155; . .  %-Xietiu=%ittt%=*oO==oo=8u8p%%-%%q%=+O%q8%%8t",
"%o%99%:1115;>.  .   ooo%%%%%ittq%*%*o==8=oo=88%%XX%0q%%%O=%8%%te",
"%%%%99:155::%%       %%%qqq%%%%%%Oooo==88=o===%O*%%9q%%%oO%%%8t8",
"%8%%%>>15>:%%**o.....O%99###%%%%%q%%%%%%8%%i##OO##**q%%%%%%q%qi%",
"%8%8q>>>>>%%#oooO#.. .%%#9##%%%%%qq%%qa%%%it##O*#9**%%q%%%q9%q%%",
"9%%ii>>>>:9%O%ooOO..  #9%99%%%%%q%qq%-qa8%e8%%Oo*89*%qp=%qq9%%%%",
"%%%%%>>>q%%O%%**=oo.  .9-%9%%%q%%%%%%-%wiqp8%%**%*99%qti%8%%oOOo",
"tti%%>;>%%%o888%%%o=   i#O8=%8q%wq%%99%%iqq%pp8OO%%8=8tt%%%%%%%%",
"wpii%pitei%oo%88==o8**p*%%%%p88%wtqq%ipq%qqq8===O%%%%=8t%8itiqq%",
"qii8%8qio%%oO=%q8=o88*=#%**%pi%%apq%%%tiqq%q*=*oO=%=888pqieiq%%%",
"*8p%O8iOo=%=OO%%===8p=%=yiep%%%%aq%%%%%%qq%%*ooo%88pttp8qqqq%%oo",
"%%699-o-iiq%%o%%%%%%pp=uew9%%%%%%q%%#X##%q%%%%%o%%%%%q9q=O**OOO#",
"%iei%%%iqq%q%o%i%%%%%%=ue*#pp99%-u%%XXX%%%%-%%%%oo%%%%oo#O**%%9#",
"6i6-%%%%%%%%=o%ip%%8pttq%%peeep%qa%OX#XX%%oOo%9%-oo%%oo%9Xo*%%9#",
"%%%666%%%66%oO%ip%8twauu%%p9pp%o%%%%#9#*ooo%%%99%%oooo%09*oo%%#O",
"%%66%%%%%66ooo%i%%%8yepi8*99y%%o%%#O*9**%Oq%%%%9%%%o=%qq8%%o%%%O",
"%%q&%%qq%%qoo%%%%%%%#%%%*o%%%%oo%%#O*99%%%q%%%%%q%-%%%q%%%%O%%oo",
"##-%o%%9%%%%o%q%%%%pp#%%%%%%%%%#%%=OO8%8=%88o*9%%%%ii%%%%%%%%%o%",
"###-o%%q%%%io%qq%%88p%%%9%%98ooO%%OOO=*8%%%iO=99%%9qi%%=8%%88Ooo"
};
