/* XPM */
static char *_2261_a11d941919268bcde47cdf39a377764e2cb3b7465150185dceafba5035475250[] = {
/* columns rows colors chars-per-pixel */
"64 64 190 2 ",
"   c #020101",
".  c #010A00",
"X  c #160203",
"o  c #081103",
"O  c #10100E",
"+  c #090A14",
"@  c #131C17",
"#  c #270000",
"$  c #330100",
"%  c #281010",
"&  c #0E2901",
"*  c #132A03",
"=  c #152A0A",
"-  c #163403",
";  c #1A3205",
":  c #1F3804",
">  c #1B330B",
",  c #17380D",
"<  c #1F3113",
"1  c #372505",
"2  c #36260B",
"3  c #392E0C",
"4  c #233502",
"5  c #233C03",
"6  c #27310C",
"7  c #223A0B",
"8  c #353403",
"9  c #222413",
"0  c #22251F",
"q  c #382913",
"w  c #253114",
"e  c #223C13",
"r  c #2D3816",
"t  c #29391B",
"y  c #333410",
"u  c #241527",
"i  c #341C27",
"p  c #312222",
"a  c #302F27",
"s  c #353733",
"d  c #450303",
"f  c #431508",
"g  c #521F04",
"h  c #561314",
"j  c #76151C",
"k  c #462807",
"l  c #40300D",
"z  c #4E2314",
"x  c #443414",
"c  c #663319",
"v  c #691823",
"b  c #4A3820",
"n  c #533925",
"m  c #4D2B32",
"M  c #4A3335",
"N  c #692521",
"B  c #7A2322",
"V  c #7E2A2E",
"C  c #673424",
"Z  c #783121",
"A  c #7A382C",
"S  c #18410E",
"D  c #254005",
"F  c #2E4604",
"G  c #27400C",
"H  c #2E4A0C",
"J  c #35500E",
"K  c #2A4214",
"L  c #294A15",
"P  c #2D431C",
"I  c #284B1C",
"U  c #334712",
"Y  c #314A15",
"T  c #36431E",
"R  c #354C1F",
"E  c #375114",
"W  c #35511E",
"Q  c #314424",
"!  c #364B24",
"~  c #3A5326",
"^  c #384432",
"/  c #444314",
"(  c #534021",
")  c #445D22",
"_  c #455E2B",
"`  c #55532A",
"'  c #444238",
"]  c #6E4128",
"[  c #436422",
"{  c #4A6321",
"}  c #4A6428",
"|  c #4D692B",
" . c #526825",
".. c #4B6331",
"X. c #436930",
"o. c #546B32",
"O. c #506638",
"+. c #536A3B",
"@. c #4D783A",
"#. c #557330",
"$. c #5A7331",
"%. c #5B7539",
"&. c #676E38",
"*. c #627835",
"=. c #3D3A40",
"-. c #454546",
";. c #574445",
":. c #595244",
">. c #4D4F50",
",. c #565555",
"<. c #6F4C48",
"1. c #7A4841",
"2. c #665554",
"3. c #5C7540",
"4. c #637B43",
"5. c #7C6857",
"6. c #5D5C61",
"7. c #695E63",
"8. c #6C6668",
"9. c #767070",
"0. c #881B19",
"q. c #9D1522",
"w. c #AB1720",
"e. c #A41E25",
"r. c #AA1A26",
"t. c #B31729",
"y. c #B31C28",
"u. c #B41F30",
"i. c #892724",
"p. c #8C2925",
"a. c #88252E",
"s. c #992223",
"d. c #9B2128",
"f. c #96282D",
"g. c #873024",
"h. c #9C332A",
"j. c #992532",
"k. c #883331",
"l. c #983436",
"z. c #A82224",
"x. c #AC2A2D",
"c. c #A52130",
"v. c #B52730",
"b. c #BB2435",
"n. c #A83337",
"m. c #A53F38",
"M. c #B53235",
"N. c #BE353B",
"B. c #C52435",
"V. c #CA3336",
"C. c #C43539",
"Z. c #CE3039",
"A. c #D1383D",
"S. c #914C37",
"D. c #993544",
"F. c #AB2D42",
"G. c #B93541",
"H. c #C73541",
"J. c #935249",
"K. c #9A5B5D",
"L. c #B5494B",
"P. c #886858",
"I. c #9A645C",
"U. c #A7635B",
"Y. c #AD7757",
"T. c #A55D61",
"R. c #996667",
"E. c #95696B",
"W. c #8E7A74",
"Q. c #A4666A",
"!. c #A9777C",
"~. c #B77576",
"^. c #C94547",
"/. c #D74C55",
"(. c #E35D60",
"). c #D4696E",
"_. c #E66568",
"`. c #7F8778",
"'. c #88857C",
"]. c #918579",
"[. c #9D7E83",
"{. c #8A8684",
"}. c #958D89",
"|. c #9B9A9B",
" X c #B99E9A",
".X c #B2A39A",
"XX c #AE9FA3",
"oX c #B2A3A5",
"OX c #D69E9F",
"+X c #DDB7B9",
/* pixels */
"> ; w 7 * e w 6 7 E [ @.X.: { / 5 Y o.{ 5 5 5 L R 7 > e Q t 2 2 f g k f g h f k 4 X.X.@.X.:  .F D { [ [ 4 4 : W P K 7 , L , > : ",
"e G 7 w > , e 6 6 5 D X.#.E D - ~ L G ! Y 7 - ~ P 6 x a < e 9 5.P.P.5.5.P.P.P.5.! e S O.o./ 8 5 {  .#.*.o.5 : P R 6 > > e - - G ",
"; 7 L e S , > > 6 7 7 7 G , : G , < K e - , S ; e q f P.5.`.`.'.{.}.'.{.{.'.'.].'.9.'.].E.P.<.J.g k D 5 7 6 e K e < = 6 r w < e ",
"W U ~ e I S , , 7 * w > > < P , > e - > L R e r q h T.Q.]..X}.|.|.|.|.|.}.{.{.'.{.}.[.[.!.!.).!.J.S.( ( b 3 6 > ; 7 6 r w e K K ",
"X.P 7 4 K W G S e > , , , * = = < = S e - ~ U 1 W.R.K.Q..X.X.X.XXXXXoXXXXXXXXXoXXXoX.X X+X+X+XOX~.L.D.a.a.h 3 6 ; 7 e T > : e R ",
"Y 7 7 6 H L 7 U x ( 1 2 q x q p 1 1 3 3 3 x C U.U.J.V V K.T.I.R.E.E.E.E.E.E.E.E.R.E.R.R.[.E.Q.Q.a.f.c.r.q.i.Z g 3 6 y / W S : R ",
"7 K U Y L : / c j n.n.n.l.S.l.l.l.m.L.L.m.L.m.C.z.s.q.s.i.a.j.j.a.k.k.a.l.f.f.l.l.x.j.j.n.n.c.G.n.F.v.H.v.x.x.h.Z g k / W G 4 7 ",
"7 6 6 5 / 1 S.m.M.C.H.H.L.).).(._./.C.V.V.C.V.Z.B.C.v.M.n.M.H.C.M.m.n.M.N.v.^._._._./.(./.G.G.).N.G.H.H.G.b.H.b.M.h.Z k U 4 7 Y ",
"! > 8 l g S.v.H.A.M.f.V A k.l.^.H./.V.V.B.V.V.V.V.C.C.G.N.C.Z.Z.C.C.N.N.C.C.C.^.^.^.m.A.H.G.G.L.j.B B g.s.G.H.C.V.M.d.k.k 5 W L ",
"! / k J.m.M.C.G.q.i.d X X # N k.F.b.B.B.B.V.A.V.C.C.C.N.C.C.Z.Z.C.b.v.r.t.t.t.z.s.z.z.z.v.G.).D.h # X X N p.F.N.V.^.^.p.k W L S ",
"T b A s.C.Z.G.j.v f z M p X <.h j j.u.B.r.r.r.w.r.s.e.e.d.e.e.w.t.e.z.r.z.r.r.r.z.q.w.r.r.j.i.h z O ' % n $ j G.H.B.F.k.k T : S ",
"7 x N 0.u.b.c.j $ -.  =.=.@   M $ a.q.F.y.r.r.z.z.z.e.e.e.e.e.z.w.r.r.c.r.r.w.w.q.z.r.e.j.D.# ' X O :.p 9 2.$ l.G.G.c.k.2 7 G , ",
"> 3 k h j.f.f.h p =.@ >.=.>.u M % N j.b.u.t.r.w.q.z.y.t.t.w.w.r.r.t.v.u.u.y.y.y.v.y.y.v.x.N % p X p ,.,.u 2.h N F.F.l.] y 5 y E ",
"! y n $ j j.V h ;.0 -.,.9.9.,.M ^ $ f.r.u.v.b.x.x.x.v.b.B.b.v.v.v.v.v.v.u.u.b.v.w.v.x.x.j.# 2.0 s 8.7.8.,.p <.h a.f.Z g 8 D 8 &.",
"> : 9 f j j.a.h ;.-.>.8.2.7.;.;.n $ B q.c.c.x.b.x.x.v.v.y.v.x.x.x.x.z.r.r.r.z.z.z.z.0.s.V # ,.-.>.8.6.8.<.m 2.2 N C ( 8 J #.*.*.",
", 7 6 1 Z v V $ s s O ;.;.2.0 0 9 n N B Z B g.p.g.p.p.p.p.p.g.p.Z g.i.p.i.p.g.Z g.g.g.Z z 5.0 0 + a ,.,.q ' p ` n l 8 / { { *.F ",
"> W 7 6 3 l l p = ' o s s   . '   w 2 2 b ( 2 1 1 l 2 1 2 2 l k x x 1 x 3 ( x l 1 x / ` / 6 . ^   @ -.@ 9 :.  3.9 6 5 | | ..| 5 ",
"G K 4 7 G ! ! / r @ 9 ^ s   >.s w = e K > e W > e > w < e w 7 7 , T G 7 H Y K : 4 5 4 o...e Q ^ s O -.@ ' . +.P ! L G U Y 7 5 G ",
"G G G Y 7 7 e ^ Q a o w 9 @ w 0 > < K > 7 , , G ; 7 > e > K 7 7 ! 5 7 U R 5 K D D 5 G 7 P ! ! w o 0 0 0 t R R U 4 G D ; 5 7 7 7 ",
"G 7 5 ! Y e e e > > K w P w < < t P ! , 5 4 Y 5 4 7 K ! K e e 7 5 5 5 G > 5 o.%.o.| 7 e e > 7 e t w w e > > > : : & - S 7 7 7 7 ",
"L G 7 , T G e ; ; > ; > ! > K K e 7 T Y U 4 | 5 5 Y K 5 7 ; ~ 5 %.J 4 ; > +.G 3.o.Y : : K > 7 ! t ! r e O.7 - : 7 G G 7 5 > K 7 ",
"R R G 7 7 - S 7 S 5 7 7 ..Y 7 ; 7 7 > : E 5 } $.: E 5 G 5 7 ! 4 %.| E D ..E | } U 4 S : 7 ; e * ! ..U 4 _ *.D 5 H _ W 7 7 R ! < ",
"R R > G Y W L 7 L ..~ & ~ Y ; +.R e : 5 D 4 E +.5 5 U +.R K > 7 } | [ J 5 _ O.: K ; E L L G - e ; F U 7 +.$.} ; | Y 7 5 R P e 7 ",
"- I 7 W Y ! 4 7 : W ~ W - - Y K 7 7 U O.%.%.H J 5 U 3.Y 7 : e 4 | H | H 5 5 7 7 : O.U G : ; e - r ; 5 D ; Y } 5 | - 5 7 : 7 e e ",
"> e : 7 7 7 4 7 4 7 7 W ! - - 7 e T K G F %.%.U 4 ..} P 7 ; 7 7 U E H H : : 7 e > , > : ; K > < ; 5 : [ 5 S H E - | 3.} O.5 7 > ",
"G } 7 7 7 5 7 7 > 7 ; ; > < > - * 7 K 7 7 E _ Y 5 G > 7 e e e > 5 K ~ D : G 7 e t > : ; ; , > > ; : X.%.$.| J D | %.} D : > ! G ",
"r ..7 U R : K 7 R K 7 ; > m m m m m m m m : G 5 7 ; : e e > e 7 ) H ; ! e : > ....R 7 < > < * > G 5 D L X.o.O.H o.W G D 5 Y R : ",
"7 G 6 e ! Y , 7 6 R ! m m m m m m m m m m m m m 7 e e e > w > > - E 7 ~ P Q , 7 R R e 7 > e > R 5 , : D K ..| E ..H : W Y R 7 ; ",
"5 4 e 7 7 ! , > > 7 m m m m m m m m m m m m m m Y.Y.Y.Y.w w - ; G 7 > T ! > 7 7 4 P R e Y.Y.Y.Y.Y.Y.Y.Y.Y.Y.; G 5 4 4 : 7 K 7 > ",
"7 7 7 K ; 7 K G m m m m m m m 1.1.1.m m m m m m m Y.Y.Y.Y.Y.Y.Y.Y.> e e Q R 7 7 7 F Y.Y.Y.1.1.Y.Y.1.1.1.Y.Y.Y.4 7 7 e 7 7 7 > > ",
"e , < S , > 7 m m m m m m M m m 1.1.1.m m m m m m Y.m Y.Y.1.Y.Y.Y.Y.Y.Y.Y.! 7 K Y.Y.Y.Y.Y.Y.Y.m i Y.1.Y.1.1.Y.1.Y.; > e e > > e ",
"> e , ; ; , m m m m m m ] 1.J.1.m m 1.1.1.m m m m m m m 1.1.Y.1.1.1.Y.Y.Y.Y.Y.Y.Y.Y.Y.Y.Y.Y.Y.m i Y.1.1.1.1.1.Y.Y.Y.e ! K < w = ",
"> S 7 > , m m m m m m m m m 1.1.1.1.1.1.1.1.1.m m m m m 1.1.1.1.Y.Y.Y.Y.Y.Y.Y.Y.Y.Y.Y.Y.Y.Y.Y.Y.m i 1.1.1.1.1.1.1.1.Y.Y.Q e = < ",
"P P < > < m m m m m m m m m 1.1.1.1.m m 1.1.1.m m m m m m m 1.Y.Y.1.1.] 1.Y.Y.Y.Y.Y.Y.Y.Y.1.Y.Y.Y.m 1.1.u u u 1.1.m m i i m < e ",
"P I 7 > m m m m m m 1.m m m m 1.1.m m 1.1.1.m m m m m m m m m 1.1.1.1.1.Y.Y.1.1.Y.Y.Y.Y.1.Y.Y.1.1.1.1.1.1.1.1.1.m m m i + + + 7 ",
"R ! K = m m m m m m m 1.1.1.1.1.1.1.1.1.1.1.1.1.1.1.m m 1.1.m 1.1.1.1.1.Y.1.1.Y.Y.1.1.1.1.Y.Y.1.1.1.1.1.1.m m 1.m m i i i + i R ",
"R Y > m m m m m m m 1.1.1.1.1.1.1.1.1.1.1.1.1.1.1.1.m m m 1.1.1.1.1.1.1.J.1.1.Y.Y.Y.1.1.1.1.Y.Y.1.1.1.1.1.1.m m m i i i i u i L ",
"U > : m m m m m m 1.1.1.1.m m m 1.1.1.m m 1.1.1.m m m m m 1.1.1.1.1.1.1.<.1.1.1.Y.1.1.1.1.1.1.1.1.1.1.1.1.1.m m m i i i i u i ! ",
"G 5 m m m m m m m m m m m m 1.1.1.1.m m 1.1.1.1.m 1.m m 1.1.1.1.1.1.1.1.1.1.1.1.Y.1.1.1.1.1.1.1.1.1.1.1.m 1.1.m m i i i i u i 7 ",
": : m m m m m m m m m m m 1.1.1.1.1.1.1.1.1.1.1.1.1.m m 1.m 1.1.1.1.1.1.1.1.1.1.1.1.1.1.1.1.1.1.1.1.1.1.m m m m i i i u u u i ! ",
": m m m i i m m m m m m 1.1.1.1.1.1.1.1.1.1.1.1.1.m m m m m 1.1.1.1.1.1.1.1.1.1.1.1.1.1.1.1.1.1.m m 1.m m m i i i i i i i i Q ! ",
"O.i m i i m m m m m m 1.1.1.m 1.1.1.1.m 1.1.1.1.1.1.1.m 1.1.1.1.1.1.1.1.1.1.1.1.1.1.1.1.1.1.1.1.1.m m i i i i i i i i i i e P e ",
"X.i i i m m m m m m m 1.1.m 1.1.1.1.m m 1.1.1.m m 1.m m m m 1.1.1.1.1.1.1.1.1.1.1.1.1.1.1.m 1.m m i i i i 5 G 7 7 e > = K 7 6 7 ",
"; p i i m i i m m m m m m m 1.1.1.m m 1.1.1.1.1.m m m m m 1.1.1.1.1.1.1.1.1.1.1.1.1.1.1.1.m m m i i ; 7 e 7 * e e R e 7 7 7 4 7 ",
": 7 i i i i i m m m m m m m 1.1.1.1.1.1.1.1.1.1.1.1.m m m 1.1.1.1.1.1.1.1.1.1.1.1.1.1.m 1.1.m m i w e e 7 e > w > R ! e 5 7 : Y ",
"3.K 7 i i i i m i i m m m 1.1.1.1.1.1.1.1.1.1.1.1.m m 1.1.1.m 1.1.1.1.1.1.1.1.1.1.m 1.1.m m m m > 7 e < ! e w > > e R R 7 : J %.",
": : 7 Y i i m i i m m m 1.1.1.m 1.m m 1.m m 1.1.m i m 1.m m m 1.1.1.1.1.1.1.m 1.1.m m 1.m m m e 7 ; 7 K R 7 U > > > 7 Y 4 F o.*.",
"7 - 7 G ! i i i i m 1.1.1.1.m m m m 1.1.m m 1.m m i m m m m 1.J.1.m 1.1.1.1.m m 1.1.m m m m 7 - 4 5 5 ! R ; w e * e G 7 : H *.F ",
"D K D 7 - i i i i m m m m m m m m J.m 1.m m m m i i m i m m ] m m m 1.1.1.1.1.m 1.] m m 7 , < > > 7 7 e T e e w < > e W 7 U } 5 ",
"5 ~ : Y R ~ i i i m m m m m m m M ] m m u m m i i i i i m m M m m 1.1.m m 1.m m M m m #.5 ; > e 7 ! 7 ; 7 e ! K e 7 P R 5 U 7 7 ",
"J : D | | : i i i i m m i m m i m m m i i i i i i i i i i m i m m m m m m 1.m m m m #.~ D 7 > - 7 ! U K 7 7 | 4 5 ~ Y R 4 7 7 e ",
"D D : 7 D : + + i i m i i m m i i i i i i i i P > P i i i i i i i i i m m m m m } E | D G G , > 7 e U Y 5 E 4.{ 4 H : 7 4 * ; ; ",
"%.$.o.- : 5 + + + u i i m m u u < > < e K > L | G ; R ; G U R G + + i i i m m m u Y H Y } _ ! > > 7 e U 5 J $.$.5 5 5 5 4 , 7 e ",
"%.[ ) } D + + + + u i i i i u i e 7 - ~ > : ..D 5 ; : D [ W L : $.+ u u i i i m m u H J Y 7 K > > 7 7 4 D 4 F $.: F | 3...! ! e ",
"J } | H D + + + + + u i i i u P R e > R R G > - 5 : 5 G _ ..7 : o.+ + + + u i i m u u L G : 7 > = e 7 7 H E H  .J  . .o.U ; e e ",
"; J { : - + + + + + u u i i u 7 > 7 5 Y _ G ; 7 } | O...7 7 5 5 } + + + + + u u u u u 4 , > 7 > > ! R O.%.%.} H F J E Y 7 e * w ",
": 4 G Y + + + + + + ! u u i i u ; L : : o.| : | %.#.H : G D : : : Y + + + + G 7 u u u u 7 S 7 ; e 7 e 7 : P ! Y 5 4 7 G 7 * > e ",
"D ..%.| + + + + + R > P u u i u u ; 5 : D : 5 | %.: - o.} Y E : G + + + + ; 7 > K u u u u u e > = ; 7 7 e G > ; > ; e > > G P e ",
"U _ Y 7 + + + + > K , P > u u u u u G Y ) %.o.J S 5 o.%.o.%.[ : K + + + + < > > 7 > u u u u u e 7 5 ; ; e : = e Q = < > e e R > ",
"; , , 7 + + + + + G K > > > u u u u u %.4...} | : : } L o.} G ; G + + + S R > 7 > > G u u u u ! ; 7 7 > > > t ! ~ w > < e e e > ",
"K 7 G K K + + + + K e 7 - ; G u u u u ! _ #.o.[ J G G U ..> 7 > S + + + 7 R e 7 G ; K , 7 7 7 ! 5 7 7 > ; 6 ! P T e < > e > > > ",
", 7 P P > 7 Q ! 7 G P 7 > ; , : 4 5 ; Y > 4 D D ; : 7 G G - > ; e < K > : ~ K 7 7 , ~ > 7 7 7 7 P 4 7 7 e 7 R e > e > : e 6 : w ",
"G 7 > > ; 7 e P 7 > e , - G W 5 G ; S } ..: 7 5 5 5 ; ; e e - e e e 7 : - Y U K : G R P : 7 R 5 K 7 7 _ ..7 7 4 7 7 > 7 e > > w ",
"> 7 ; 7 > 7 7 ! G > 7 } - : U ! 7 e K Y O.: , 7 Y D 7 W ^ = > , < t < > > : 5 W : : 5 +.; ; W U ; r U W ..5 7 5 W 4 7 R R > : > "
};
