/* XPM */
static char *_d4b0c322e104324d467f422e5b5d495rvfLDRFzu0EcGc9g[] = {
/* columns rows colors chars-per-pixel */
"64 64 32 1 ",
"  c #090A14",
". c #1E3616",
"X c #1F3616",
"o c #1E3716",
"O c #1E3617",
"+ c #1E3717",
"@ c #263A16",
"# c #273A16",
"$ c #263B16",
"% c #263A17",
"& c #263B17",
"* c #273B17",
"= c #241427",
"- c #241527",
"; c #341C26",
": c #341C27",
"> c #341D27",
", c #4D2B32",
"< c #2C4317",
"1 c #2D4317",
"2 c #344D1A",
"3 c #344C1B",
"4 c #344D1B",
"5 c #354D1B",
"6 c #5F761F",
"7 c #5F771F",
"8 c #476920",
"9 c #466821",
"0 c #466921",
"q c #476921",
"w c #7A4841",
"e c #AD7757",
/* pixels */
"X$$$X&&$$2979@92@299@@$34$$$2@XXX$$&O@@@&8879@02$000$$$22$$$3@O@",
"$$$$XX&&$$@972$@22233$$34$$$XXX@$2$&OX@22$@872&&09779$$23$+X$%X@",
"$$3$$Xooo@@@$&$$$$$$$$$$$$++XX$@23XX+$@@$$$$$$$3$$$$$$$$$XX$@@@@",
"333$2&&&o@@@oX&$X$$@$3$$$$$+XX2822X&$$$$$$$&2$$2$$322$$$+X$$$@@3",
"93$$33&&$$XXooo@XX@@&22&$$$$$97733XX$233$$$&7$43$32&&@XX+$$4$$$3",
"3$$$$3&222XXo@..XX@@&22&$$4$&o&83$$XX$@32&$8744$#3#$@oX$$$$33$$3",
"$$333$32@.XX$$@.%@&&2&52$$9$&o&$$$$XXX+$&2&079$$&&&$oXXX$$$33$$$",
"$$$$3$&&.X$$$2@@$$$o8&&&$70$&&&$$$XXXXX+&&&494$$&&&$oXXX$3$$3$$3",
"3$$$$$$$.@$$33$$&&&o07#&073$$$323$$+o&$2777933@3076XX++$$4$$&$44",
"33$$$$XX.$$$33$$2222073303$$$$$293$$o&$$&29993992&&XX$$$$44$$44$",
"332$XXX$$3$$2$$$&&2220733$*$$$$$92$$&&&&$$$293@@$XXX$$$$$$34$4$$",
"&&$$$$$$$99$$$233&$2337330003*#$$9$$&2&&$$$$@@X&XXX$$$334$$4$$$$",
"&&&&222$&073$333$$$$@222003&$$$2$$$$33$$$$$#$$X@$&oX300673$$$$$4",
"2&$&$@22&&77$32&$$++O@@@$$&&$$332$$33$$$9766$$X$22&Xo$$077$$$$37",
"$X$oo@$&&&3022&&@$$$+XX@@@&&$333$$@33$$$297qq$$%27&&+$$$399$3777",
"$$$o@$$27733307792$@2$XXX%$#$$$$$$$3$$3$229030$377&&$$993$$39973",
"$2$$$&&&$9939669$XXX33++o@$XX$$$&2$&#22&$$283$@999$$3969$$$9000$",
"$2$$$322$$3$093$XX$$X33$o&$$$$$$$2$&222&$$&80@392$$$669333$222$$",
"2$$2$$233$$$3$+XX$$$$$$$X&&&@$$$2&&23#&&$$&&233@$$$$$332$$$$$$$$",
"$$$22$$%X$$$$+$$$33$$$3$X&&33$3$$$&&&&7678&&&&@@$$$$$@%.+++$$$$$",
"2&&&3$$$$XX$2$@@&&323$0$$23$$&2$72$$$02692$$$$$322$$9$+%&#3$$$$$",
"22$&$$$$$$XX02@@&&&$3$07$2$$$&2$773$020q2$$$$%XX292$06$$2q3$$22$",
"22&&333$203X22@92&$$&&26$$272&$$8993$00$$$222$$X$$3$q70$q3$%23$$",
"X2&333$$$303XX22$&207733$272$$$$8393$$$$$02$$$X+$$$$*39$0#$$##$$",
"e&&&@$$$$$$32XXX$22$2773$90&$$$$2232*&&&$$+X$$+$&$&8&&33+07q9$$$",
"ee$&&$$$XXXXXX@Xo&$$@293$$&&$$$$$22&&#&&$$+%XXXXo&877033q7q$$$3$",
"wwee2@@@44XX%X&3XX$$$$$$$$&&$$@@33&3$$&802$+XXX$@@&20793q0$$$33#",
"w,,;>,@@$333&&&22$oX$$$@$$$$$$$X$3&22$$&33$$XXX3@@&&&093q$$232$%",
",,,>   @oo&&&&$22@$$$+@$ooOOOOXX$$$22&&&$33$$XX32$$$$$$$$$$$$$$X",
",,>>> :%o&&&$$$$3@$$$+@+X$X$2OXX$$$$22&&$$$$$$$$23$$$$$$%$$$$$X+",
",;;>:=>3&222o$2$@$$32$$$$$$22@X@$$$$o5$2$$$$X$3$$$$89$$$$$$$$$+$",
",;;;:=:$&&202$22$$339@$$2$$22XXX$$XX@&#2$$$9X$32$$229$$$3$$33XX$",
",:>>:-:@$0079%92%999$$$33$$$3$$XX$&XX&&$&0079$93$999&$$22&$$2$XX",
":::---:2$$2972%%09669$$33$$$$XX$&2&&XX&22&$072$$99668$$22&+O$XX$",
"::>>::@22$OO@9%2276$++$3$$$$$$$$23XXX$$$XXoo$$$$$$$$&&&&&@@$$$$$",
"::>::$@@$$O2222200$XXXX$$$$$$$2022X&XoooX2&oX%$$$$$$&#2&&@$$$$$2",
"23@@%%2@$$660$3%$XXXX$X$3330@@7733XXX$$2$33$$+$$$$2$#q2&@oX&$$$2",
"2@$@22%@$903$$$$$$323$XX$3339@@03$XX$$$2$$33$oo$$$q$$7&&&&XX$$$2",
"$$$322$$&&$$$$$$$33$$%++&&&09@$$&2$%3$22$$$$XX$$$207333&$$&&X&$$",
"$$$$@%%$&332$$$$33$$$$222X$$X%$$&3$03$3$$$$@X$406020333q782$X&&2",
"$$2&&$&o&&$22$$$$$$$$2223#3&&26$&&&73$$&&&&2$$$$270322862$$$X@23",
"932&&22X&&$$2$$7660$$$$33#&&276$0027$$$32&$0$34$&3002$82$$$XX@2&",
"92$&22$X&72X$$00693$$$+$22$$60$$97023769$$$022$$&&333$&$$$XX&&&&",
"$9&&$$XX&762$92003$$33$X$$$$02$$$262$%$$$$#$22$32&$$$%&&$2$$$&&&",
"$$$$$XXX@889$$2q$$$$3XX30qq$$$*$$$33$XXXX&39@@93&&&&&&oX&33$$$$2",
"6$33$XXX@&293$99$$$$XX0660q$$9777$$$XX$$%$@2939$&o$$2&&XX$32$$27",
"&o$32$$$o&&23&$$992XoX+&&&$$9773$O$$X$$3@XX@33$$%$$22&&&X&$2$$77",
"&&$$32$$&&&#&&$29770&&&&333$$$*$$%..X$$32@X@$$$+o$$22&&&XX$$$272",
"&2$$$&$$o$@@@$$XO+XXXX&22&&&$$$$&2&#&&$$2$$9&&XX@$@$2&&&&o&2&20&",
"&2$222$$X%O@XXXXX$$XXX&&&2&&$$$$&22&#28&$$97$&X&@2@$&&2&$&22&2&&",
"2$$98&&&222@X$XXXX@X+$$3$22$$$$$2&22&$282$72$$XX@22$&20&$222$@&$",
"$$$$$$&22@%O@$$$@XXXX$23$$2$$$2$&&$$&#&79382$$&X@@22&360$2&&.oo@",
"669$$$&&$$$X222@&#%@$$29XO2&$22$72&$22&&933$882XX@$2$276$$$$$$$$",
"6090$00779$XO$33%$X2$$9$$$&&822$7722&882$2332$$$O@$$$$37$297923$",
"3003$330X$$X+$$33$+33$$X$&&&88$$002$&&7032&2$$&oO@$$223039793$$$",
"+30$+30+X$$$++$$$$$39$$$9070&&$$q2$$&&&&32&&&XXo@33977032322$$XX",
"*$<33%X%902&&X$$$$$$88$0662$$$$$$2@@XX@$$3$$$$&o$$$$$333%.@@XOX@",
"$979$%$022&2$X$9&&&$&&$06@%q933$$q@@XXX$$$$X$$&&XX$$$$XX..%%@$2@",
"<q<%$$$$$&&&$X$80&&28772@$q6669$2q$%X$XX@$XXX$3&$X+$$+X$2O.%$$2$",
"$$$<<<$$$<<&XX$90&277880$$q299$X$$#$$2$XXXX@$$33$$XXXX$33$.%$$$X",
"$*<<$%$$$<<XXX$9&&&297992@339$$X&&&X$3$$$%2@$$$3$$$X$$222$$X$$$+",
"$$2#$$23$$2+X$$$$$&&$$$$&X@@$$XX$&&X$33$$$3@$$$$3%%$$$2$%$$+$$XX",
"%%#$X$$3$$$$+$2$$$$99$$$$$@@$$o$$$&Xo4$3%$22+$3$$$$90$&&$$$$$$X$",
"@%%%X$$2$$$9X$22$$239$$$3$$32ooo$$o+o$$4$$$0X$33$$338&&&3$$33XXX"
};
