/* XPM */
static char *result[] = {
/* columns rows colors chars-per-pixel */
"64 64 139 2 ",
"   c #000000",
".  c #02030C",
"X  c #131419",
"o  c #0E2801",
"O  c #0C2208",
"+  c #132A05",
"@  c #142A0A",
"#  c #173103",
"$  c #1A3504",
"%  c #1F3804",
"&  c #1A320D",
"*  c #122815",
"=  c #152C1E",
"-  c #1A3313",
";  c #1E331C",
":  c #233C05",
">  c #23340C",
",  c #21390D",
"<  c #203614",
"1  c #233B13",
"2  c #21371C",
"3  c #25391C",
"4  c #293F1C",
"5  c #1F0D22",
"6  c #311522",
"7  c #192D23",
"8  c #1F3325",
"9  c gray13",
"0  c #2B2B28",
"q  c #223624",
"w  c #273A24",
"e  c #323232",
"r  c #4C272E",
"t  c #40393E",
"y  c #254004",
"u  c #2C4506",
"i  c #2C4A05",
"p  c #27400C",
"a  c #2C450D",
"s  c #2E4A0C",
"d  c #334F04",
"f  c #354D0D",
"g  c #375303",
"h  c #36520D",
"j  c #3D5A0D",
"k  c #294114",
"l  c #2E441C",
"z  c #324C15",
"x  c #344C1E",
"c  c #345014",
"v  c #3E5413",
"b  c #37511C",
"n  c #2A4025",
"m  c #2A402C",
"M  c #314427",
"N  c #344B25",
"B  c #3B5225",
"V  c #425F0B",
"C  c #415E15",
"Z  c #415D1F",
"A  c #456A07",
"S  c #4A6B06",
"D  c #46640D",
"F  c #4B6A0D",
"G  c #577804",
"H  c #55760C",
"J  c #557A0D",
"K  c #446315",
"L  c #486515",
"P  c #4B6915",
"I  c #44621F",
"U  c #48651F",
"Y  c #45691B",
"T  c #4C6A1F",
"R  c #516D17",
"E  c #506C1F",
"W  c #537417",
"Q  c #5A7715",
"!  c #5C7B15",
"~  c #55731F",
"^  c #5D771B",
"/  c #5C7B1F",
"(  c #617C17",
")  c #617D1C",
"_  c #455F29",
"`  c #7B463F",
"'  c #446227",
"]  c #4B6426",
"[  c #4C6927",
"{  c #4B642E",
"}  c #516B27",
"|  c #526C2E",
" . c #557225",
".. c #5B7627",
"X. c #5D7B27",
"o. c #4A6437",
"O. c #4D6930",
"+. c #536B37",
"@. c #5C7630",
"#. c #627D27",
"$. c #617C32",
"%. c #505051",
"&. c #5D5C5D",
"*. c #5F5865",
"=. c #6B6C6C",
"-. c #70706B",
";. c #AE7856",
":. c #648320",
">. c #658228",
",. c #7F877A",
"<. c #787D80",
"1. c #7C8484",
"2. c #828686",
"3. c #878B83",
"4. c #878B8A",
"5. c #8E9988",
"6. c #92958C",
"7. c #959B8E",
"8. c #9A9D8A",
"9. c #8E8F90",
"0. c #8F9495",
"q. c #959693",
"w. c #969A93",
"e. c #9B959B",
"r. c #9F9F9E",
"t. c #A7AAA7",
"y. c #AFA8AF",
"u. c #B0AEB6",
"i. c #B5B7B6",
"p. c #BCBCBB",
"a. c #B8C0AE",
"s. c #BEC3BE",
"d. c #C0C4B5",
"f. c #C2C3BC",
"g. c #BDBFC4",
"h. c #BFC3C5",
"j. c #C3C2C4",
"k. c #C4CAC0",
"l. c #C4C4CC",
/* pixels */
"& < , & & , , , , z Y ) Y , Y z , f U [ - , , c h $ 1 $ z k & $ & % p $ - % & l p [ ' ! S : [ l , [ [ U : ; & b c > 1 1 l 2 @ > ",
", , , , & & < , , , , Y ^ z , , z z c b k k % z k 1 3 k & - * - k N - - # & 1 N k p : U $.1 p y U F J ^ ] a y i x < & & : < < > ",
", , z , , - & & - - , , , , , , , 1 , - % 1 - p , 1 - @ & - l : z N & 1 & & p % p & < 1 : 1 < p n & : : < 7 w < : & & > $ 1 > 1 ",
"z z z , z , - , & & , , & & < , - % , % p l k & % , < & & # a K c z $ - - k , % > < < : z > > B , % s z b 1 , % $ - - l > 1 : a ",
"Y z , , z z , , - & - & & & & - & & , k & x x % , > 1 > % [ X.^ b k y - 1 N k z < p 3 y  .k z k < B b % & & @ $ > - < z p > p c ",
"z , , , , z , z c c & & - & & & - % & k : s z : - z z & < $ $ U b % 1 - - p & b M u < D / s s k < l , k 1 % @ k > < - b k 1 > a ",
"& , z z z , z z , & & & : - , & & > < - c : z x < : Z < 2 & k 1 p % & - & - # k & b < K X.[ y & < k < & - & & - , 1 > a c 1 , p ",
"< , , , z , , < & - , < , z , < , < < & { : : > , ..R : < < , 1 ; < @ - & - & & , & k c I f k - % - : , & - - & & z , : z , k l ",
"z , , - , 1 , , & % , , z z % 1 , : - & F #., p H [ h > & k z s s : 1 - & > , x ^ ! ! P z N 1 c S @.X.$ # % - - 1 f : 3 > > b z ",
"z c , , , , & & - - < , z z , - s _ x a T ..c a ' z % 1 1 , , z [ z & - & 1 , , 1 a ] L U i Y K z & $ ; ; % - y $ b u > 3 z z 1 ",
"z z z , & & & , p z - , z < , , < 1 1 d z D ^ f x 1 % > 1 > < 1 I _ , , > k & , p 1 : f ' c k - 1 ; & - & - k p > 1 b u , x $ > ",
", , , , , < , - 1 Y Y : , , z c z 3 k c l h ..z i U | ' z , , > y b k , 1 k a k < + < 4 < & - < $ $ % : k , k s f > 1 N 1 w k > ",
", < , - z z c , , Y ^ f , z z z , < & < 1 z c c T U h % , : z k : p p & c N & , 3 k : > 1 3 + : - < 2 # z ' P ../ d < < > < & h ",
"z , , , , , z z , , ^ ^ , z z , < : - 2 # p & p $ p - ; < & f f k % p k b p % ; _ ^ ! ~ : 3 2 < z z & & p ; y [ ! ..k > u $ v W ",
", & , & & - , > , , z Y z z , , , % & < $ & ; & - k 1 - 4 x z l k % < N p : , p h P ) F C : % , g ^ l < & * % : d E ' > u R #.#.",
", , , & & , , z ^ ) z z z Y ^ ^ Y v : , b & & - & - $ % y , , < ; 1 % B % : x > f s O.' c { : k Q X.: & p 1 ] U l & : z _ R Q f ",
"< z , - , , , , , Y Y c Y ^ ^ Y , - - @ N k $ , $ > < & > > 1 1 k z % 1 - c s p p p z ' c < , T ] P 2 ; c U / P % : , ] [ U U : ",
", z , , , z z z , , z , Y Y c , & o k : $ z b - > - < - , > > 1 - x 1 p z b a & - - 1 I U i k ] x % % %  .Q T s x N 1 z f i % 1 ",
"z , , z , , z z c - , , z , & & & : - $ > 1 & 1 % < < , , k , , f & p k l % n 1 % l , : h s z : % 1 : : k h i l - 4 1 # > l & k ",
", , , z z < , & & , , - , & - - , N z p 1 1 l : & 1 p x k 1 k : , 1 q k y ,  .:...' > 1 : - > > - , 3 , 1 o s 8 - + $ 1 - 1 < ; ",
";.;.;.;.;.;., , & & & p z , , , 1 1 z a z 1 { % 1 l a % , % B 1 ^ x $ & &  .y G P i & 4 < , 1 M N c ; 1 ] p % * < p p p 1 - 1 : ",
";.` ` ` ;.;.;., , - & - Y z , , , , - 1 N : K / > z : u : 1 b & :.S b : ' b [ Y z : a & % $ , & c ] u k [ W , : s ' c $ u x z : ",
"6 ;.` ;.` ` ;.` ;.Y z & z z - Y z : , 1 : % g #.> y f | x 1 & : F [ K x % Z O.$ q : f k x : & < & k g # W / ] - [ c 1 < x z , > ",
"6 ;.` ` ` ` ` ;.;.;.Y c & & c c , > b K Q #.s M , z @.h % > k & O.i [ z y y p q , ' d p 2 < $ - % - < l & z P $ T $ 2 < > : , 3 ",
"r 6 ` ` ` ` ` ` ` ` ;.;.z & & & , z b : f #...d : ] { , : , , , s z b z % , , 1 > 1 $ & 1 - > & # 1 , [ p < z h - T J A +.% k < ",
";.r ` ` 5 5 5 ` ` r r 6 6 r - & - 1 + < , i ] x % k k > & > < < y k l > k $ 1 < < 3 < @ < 1 < & - > [ ~ ! P z k ' >.K % - - b p ",
"` ` ` ` ` ` ` ` r r r 6 . . . z & + k 3 - k % - % : & , : < : $ N 5.w.0.0.0.q.9.7.3.6.w.3.6.6.6.1 , y i D ~ } s P j - n ; u f % ",
"` ` ` ` ` r r ` r r 6 6 6 . 6 z z $ & - < & - 4 1 , k , , 3 1 & &                               & k < k a K ] N U s p N c v - & ",
"` ` ` ` ` ` r r r 6 6 6 6 5 6 z z & 1 > : & > > - = - - * - - - 3                               b $ 2 8 < % $ l 1 & - % : k - 2 ",
"` ` ` ` ` ` r r r 6 6 6 6 5 6 , z & k , % % & > - - $ : l > # > -             =.j.j.q.          c c < < < p : & , k k & & < - $ ",
"` ` ` ` r ` ` r r 6 6 6 6 5 6 , , 1 & c s > < < > , > s b 1 & - 3           f.0 0 e 9 j.        & k $ T U $ - 3 , & & k p - - 1 ",
"` ` ` ` r r r r 6 6 6 5 5 5 6 z 1 1 N a O.k.g.f.h.h.j.f.s.s.j.l.s.        <.j.j.j.j.j.9 r.      1 1 s h [ 1 k : z , < c a & & $ ",
"r r ` r r r 6 6 6 6 6 6 6 6 Y z , K T U , f.h.l.8.y.u.u.e.e.j.f.f.        l.j.f.j.j.j.&.f.      % ] F I 1 - w k x > > 1 z 1 $ & ",
"` r r 6 6 6 6 6 6 6 6 6 6 z , , Y U W W  .a.j.s.s.u.i.d.i.s.h.t.7.        g.j.p.r.w.r.y.p.      O.] W :.P $ % c x , : + & & > 1 ",
"r 6 6 6 6 & , z z % & & , Y , z z >.W s # & k l 1 l > : s < 1 : a         =.s.p.j.j.j.X t.      - # k # k 8 k % , , y , 1 , > < ",
"6 6 , & , - < , 1 - & z z z z z Y ' , # 2 2 O p % & 1 > - 2 a D x           i.*.%.&.%.u.        : x - 1 < & x & , > 1 & 1 < > z ",
"6 z - , % < z , , , ^ ) U & z & & % $ - * ; 1 - c s s [ y : $.H d             t f.f.-.          > y s : % L s l 2 > < 1 1 1 , x ",
"c , , , z z , , , Y Y z , , - , , - z c c & - # > M k j _ , % +.x                               ; % } 1 , $.% & < - @ > - > : c ",
", , , z z z , , , , , , , , & , , c z # p $ % - : k p U [ : , > 3 1.3.3.<.2.4.2.3.4.2.2.4.1.3.,.: b K  .g i x 4 : > > 1 1 , $ , ",
"< , , , < , & & , z z z , < , , z x < < < - x a f - - , > & < 1 : N > ] B > z > , > 1 > $ > x O.! K z } s n h A ..E h , + < 1 b ",
", , z , , & , & , , , z z , < , , $ 1 q > h z N s - f : - h ) < u & k / z : 2 1 < > , x % p 1 % s $.D i b b ] ! b - 1 > > 1 x z ",
"Y z z < , z z & , , , , z < > ( ^ ^ D y , 1 $ z z 4 - 1 d ^ .., ' U i  .- k & f c 1 : ] k k b < k p [ Y a , O.z , < - & > , k 1 ",
"Y z , , z c - & , ^ z - , , Y Y ( C B 1 & - < $ i z 1 - X.L > $ U / U h f ! / T < % : O.s b $ 1 % , b z b & < % : 1 < - : > 1 1 ",
", Y , , - , & & , ^ ^ z , Y z Y Y c , $ c x 2 < n $ y > P b < k % g ..s 1 $ % ; 1 : % % c z # z s k - - k % % : , z < < , 1 & p ",
", , - , , & & & , U Y Y < , z Y , p , y x & & , K W K 2 , k $ : 2 & b z > - > & & - k | % % } z p , < 2 , , & < & s b 1 > < & g ",
") , z z , - & & & , s Y z , Y Y , - < < $ : U :.^ F T q > ] :.| ( : # 1 > 1 & < & & k l { z ' % & & , : c p , - < : f b , 1 z X.",
", & : c z , - p - , , z z , , , Y [ N - 7 & & - 3 - i $ E Q J C - < 1 < + 7 p d - : , & z c < p ; & , f c - k - - - > z 1 , } #.",
"< , - , z c ; % , , , , , , , z Y :.J K : > : > b k f < < 3 > > < 2 # & : - : x l , $ : 1 & 1 & & : - b N & & p + ; 1 : > f #.d ",
", z , , , , < , & & , , , < , & - & # & 2 - - N z 1 2 k 1 % p - 1 l > , > - 1 % N % 1 [ - : $ - - , < k z 1 w > > & 3 N , z { % ",
", z , z z z , , & - & , & & & & & < k - O & k : p a $ & k > 3 % y h z , , z +.& % % ] ..< ; & 1 1 b - % , : N 1 , > z f : u p & ",
"z , , Y Y , , , z z z - & , & - & # - & - 1 $ c > f b , , 1 - y m p h z < % h P c i  .v , 1 % * > B z 1 : u L % , x i c % % 1 2 ",
", , , < , , , z z - : - , - 1 % , 1 & & & > b s & 4 z y - ; b % < % & : & 3 i / ' z P p y k > - , , f c , c #.V , b & 1 - & & & ",
"^ ^ Y , , , , , , , - & c c c - , - & 1 k : s [ < - N > k a f , ! c 1 > B z $ , K b z l L ' b & % & p f 1 N ^ ^ k % : , & k 1 , ",
"( Y Y Y & U Y ^ ( Y , & & - z c < 1 % N # % o.% & > 2 1 I c x > Q #.p M $ T } k k u i l z < 1 : & 2 1 > 3 q u Q , s } ..U c z : ",
"z Y Y z , z z Y - , , & & , , z b % & N b p - & 1 : : : I { k & } C h k 1 %  .E N c k l : $ 3 $ * 1 > , f x z } z O.} ~ i $ 1 , ",
"& z Y & & z Y - & < , < & & , , - % % z ' p # l U [ T P p > : - P x 1 & 1 k - % c f < ; > # 2 & < f f } H G U z a h g k < w - - ",
", , k z z , & & Y Y z , , - - : , : > : R ' , P ! ! h & k p & ; $ b , k , o k 1 : z 1 > > < < & 1 , , , : k x x - & 3 1 & & & - ",
", Y ^ Y , , < Y z c , z & & , Y , # , , 2 < , P ..$ $ [ D c b y k ' 1 & - & & & 1 < > & < , k > - , > < k p - $ # & < % , p l 1 ",
"p Y k , , < < , - , , , < & < Y Y ; w h D Q W z 1 % O.X.W X.j & a ' p # < 2 - & - - > & & , z , < < & - < & # , z $ - < & k x & ",
", , , a k p , , : k k , & & , Y Y p i G #.} F [ ; % ' g Y K y - : p > & < z & 1 < < < < > a a N % < & - - & < B N - & & : , 1 : ",
", , k p , , , , , a k & & & - Y , w q x U ~ E C c 1 k f I < < - , & & - 1 N , : < % l , 1 < > N & < , $ $ & b k k k < & 1 & & & ",
"< > z 1 , , z z , - c & & , , , , > - k : : w 1 + < 1 k 1 & - % < < k % & b s : 1 : z : , < 1 % l y % , p % x 1 , 1 < & 1 1 - 1 ",
"< , , , & - , z , , < , & , c , , & p K P $ 1 % 3 : & & - k $ 1 p - 1 & & l k k < , z a & 1 x % k % p b ' y : & : , % - p - - - ",
", , & & & , , z < , , Y & - c z , p z s O.- 1 , z , : z x - - - , , & $ - 1 , b < % % +.$ , b z ; k z j ] , p < N % p z z $ & 2 "
};
