/* XPM */
static char *_6610_ee87764df2bd4275c87337ce79173e23c3082e1a30b451525550d16f803aec23[] = {
/* columns rows colors chars-per-pixel */
"64 64 50 1 ",
"  c #090A14",
". c #1E3616",
"X c #1F3616",
"o c #1E3716",
"O c #1F3716",
"+ c #1F3617",
"@ c #1F3717",
"# c #263A16",
"$ c #273A16",
"% c #263B16",
"& c #273B16",
"* c #263A17",
"= c #273A17",
"- c #263B17",
"; c #273B17",
": c #241527",
"> c #341C26",
", c #341C27",
"< c #351C27",
"1 c #341D27",
"2 c #4D2A32",
"3 c #4C2B32",
"4 c #4D2B32",
"5 c #4D2B33",
"6 c #2D4217",
"7 c #2D4317",
"8 c #344D1A",
"9 c #354D1A",
"0 c #344C1B",
"q c #354C1B",
"w c #344D1B",
"e c #354D1B",
"r c #5F761E",
"t c #5E761F",
"y c #5F761F",
"u c #5F771F",
"i c #476820",
"p c #466920",
"a c #476920",
"s c #476821",
"d c #466921",
"f c #476921",
"g c #7A4840",
"h c #7A4841",
"j c #7B4841",
"k c #7A4941",
"l c #AD7756",
"z c #AD7657",
"x c #AC7757",
"c c #AD7757",
/* pixels */
"O&$.O%&%#0iyf%fe-wsf&-%ww-%%w%XX+%%XO--%%ssyd%fw#ffs%-%ew%%%e-XX",
"-&%#OX%%%&%syw%%ww0ww-%ww%%&XXX%%e&#.X%ww%&fyw%%fsyyf%%ww%XO#XX#",
"%-w%%+.X+%%%%%%%%%-%%%-%%#XXXX%%ewX+X%%%%#%%#%%e%%%-%%%#%X+%&%%%",
"wwe%w%%%.X-%XX-%X%%%%w%%%%%XXXwfwwX%%%%%%%#%e%%w&%www%%&XX%%%%%w",
"fw%%ww%%-XXX.XXXXX%%%ww%%%%%+fyy8wXX#wew%%%%y#ww%w0%%XXXX%%w%%%w",
"w#%%%w%0wwXOX%XXXX%%%ew%%%w%%X%aw%%XX%#00%%stw8#%w%%%XX%%##ww%%w",
"%%w08&ww%O.X&%%XX%%%w%ww%%f&%X%%#%%XXXX%%w%dyf%%%&%%X+XX%%%ww&%%",
"%%%%w#%%.X%%%w&%%%XXf%%%%ya&%%%%%#XXXXXX%%%wfw%%#-%%XXXX%w%%w%%8",
"w#%-$%%%X%%-0w%%#%%Xfy%%fyw%%%ww8%%XX%%wyyyfww%wfurXXXX%%8%%%%00",
"0w-%%%OX+%%-ww%%wwwefywwfe#&%%%wfw%%O%%%%wfffwfdw%%XX%%%%ww%%ww#",
"w0w%XXX%%w%%8-%&%%ww8fyww-%-%%%%fw%%%-%%%%&qfw%#%XXX%%%%%%ww%e%*",
"%%%%%%&%%ff%#%8w8-%ewerwwfffw*-%%f%%%w%%%#%%%%XXXXO%%-www%%w%-%%",
"%-%%www%%frw%www%%%%%wwwdfw&%%%w%%%%w0%%%#%%-%X%%%@Xwafyyw&%#%#w",
"w%%%%%ww%%yy%ww%%%XXo%&%%%%%%%wew%%ww%&%fyyr%%.%ww%XX%#fyy%&%%wy",
"%X%XX%%%%%wfww%#%%%%X.X%%%%%%eew%X%ww%%%wayff%%Xwy%-XO&%wff-wyyy",
"%%%XX%%wyywewfyyfw%%w%XXXXO%%--%-%%0%%w%wwffwf%wyy%%%%ffq%%wffr8",
"#w&%%%#%#sfwfyys%XXXww.XO&XXX&%%%e%%#ww%%%wfw%%faf%-wfyf%%%fdff%",
"%w%%%wwe%%w%ffw%XX%%Xww-X%%#%%%%%w*%eww#%%%ff%wdw%%#yyf8ww%w0w%%",
"w%%w&%www%%%w%XXX%%#%%#%X#%%%%%%w%%ww%&%%%%%www%%%%%%8w0%%%%%%%%",
"%%%ww%%XX%%%%XX%%ww%%%w%X%%ew%w%%%%%%%yyyf%%%%-%%%%%%%%XXXX%%%%&",
"w%%%w%#%XXX%w%%%%%www%f%%we%%&e%ywX%%fwysw%%%%%www%#f%XX&%w%%%%%",
"8w%%%%%%%%XXfw%%#%%%w#dt%w%%%-w%yyw%fwffw%%%%XXXwfw%fy%%wf8%%w8-",
"we%&www%wfwXwe%fe%%%%&wy-&wyw%%%sdf0%ff$%%8ww%%X%%w%frf%fw%*w0%%",
"Xw%www%%%wfwXXww%%0fyuww%0yw%%%%f0fw#%%%%fw%%%XX%%&%%waXd%%#&%%&",
"-&%%&%%%%%%w8OXX%ww%wuyw%ff%%%%%wwww%%%%#%XX%%X%X#%f%%wwOfuff%%-",
"&f#%%%%%X.OXXX%XX%%-%wfw%-%-%%%%%ww%&-%-%%XOXXXXX%syrfwwfyf%#%w%",
"6f%ww%%%wwXXXX%wXX%%%%%%%&%%%%%%ww-w%%%fdw%XXXX%%%%wfyswdf%%%w0%",
"%%%%wq%%%www%%%wwXXX%%%-%%%%%&%X%w&ww%%%ww&*XXXe%%%%-sfwd%%www%X",
"#%%%%w%%XX%%%%%ww%%%%X#%XXXXXXX+%%%8w&%%%ww%%XXww%%%%%%%%%%%%%%X",
"%%%#%%&XX%%%%%%#w%%#%X.X+XX-wXXX%%%#ww--%%#%-&%%ww%%%%%-%%%#%%X@",
"&%%%X+Xw%wwwX%w&%&%e8%%#%%%ww%X%%%%%@w%w%%%%X#w#%%%ff%%#%%%#&%X%",
"%%XXX%%%%%wdw%ww&%wwf%%-w%%8wXXX%%XXX%%w&%%f.%0w=#wwf%&%w%%weXXX",
"+%%X.$%%%ffyf#f8&fss%%-ww%%%w%+XX%#XX%%%%ffyf%fw%ffd%%%ww%-%w%XX",
"%w%&XX%w%$wfyw%#fsyyf%%0w%%#%XX%%w%%XX#ww%%fy0%%ffyyf%%ww#XX%XX%",
"ww%XXX%ww%+X%f&w0yy%+X%w%%%%%%%%wwX.X-%%XX.X%%%-%%%%-#%%%%%%%%%%",
"ww%X&%%%%%Xwwwwwff%XXXX%#%%%%%wfww+%XXX.Xw%XXX%-%%&%%%w%%.%%%%-8",
"w0*%%%w%%#yufXwXOXXXX%X%wewf%%yyweXXX%&e%ew%#XX%%%w-%fe%%XX&%%%w",
"w%%%ww%&%ffw%%%%%%www-XX%ww0f%%fw%XX%%-w%&ew%XX%&%f%%y%%%%XX%%%e",
"-%%www%%%%%%%&%%&w8%%XXX%#%ff%%%%w%%e%ww%%%&XX%#%8fyw0w%%%%%X%%%",
"%%%%#%X.%wew%%%&ww&%%%wwwX%%.O%%%w%fw%w%%-%%X%wdyfwfw0wfyfw%+%%0",
"%-w%-X%.%%%e0%-%%%%%%w0ww%w%%wr%%%%yw%%%%%%w%%%%wyf08wfuw%%;+%ww",
"fww%%wwX&%%%w%%yytf%%%%ww%#%wyy&ffwy%%-ww%%f%ww%%8ffw%fw%%%+X%w%",
"a8&%ww%X%ywX%34444444%XXww#%yd%%pyfwwyyf-&#fww&%%%ww8%%%%%..%%%&",
"%d#%%%X.%yy4444444444444%%&%fw%%%0yw%%%%%%-%9w%we%%%%%%%%w%%&%*#",
"%%-%%X+X%f44444444444444cccx-%--%#ww%XXXX%8a%%fw%%%%%-OX%ww-%-%w",
"r%ww%XX.444444ghh44444444cccccccc%%%XX%*XX%qcccccccccl-+X-9w%%wy",
"&X%ww%%44444444hhh3444444c4cchccccccc%%e%Xccckhcchhgccc%X-%w%%yr",
"%%%%ww44444hhhh44hhh45444444hhchhhcccx%wccccccc4,chchhlhcX%%%wu0",
"%w%%%44434444hhhhhhhhh444444hhhhccccccccccccccc4,chhhhhccc%0%wf%",
"%w%ww44444444hhhh44hhh44444444hcchhhhcccccccccxc4,hhhhhhhhcc#w%*",
"e%%a44444h4454hh44hhh4444444444hhhhhcclccczcchccc3hh:::hh43,,4%%",
"#%%%444444hhhkkhhhhhhhhhh444hh4hhhhhchhhzccchclhhhhhhhgh444,   X",
"ryf444444hhhhhhhhhhhhhhhh4444hhhhhhhhhhcchhhhcchhhhhh44h441,, ,%",
"ydf44444hhhh444hhh44hkh444434hhhhhhhhghhcchhhhcchhhhhh544,,,,:,&",
"wf44444444454hhgh44hhhh4g444hhhhhghhhhhhchhhhkghhhhhhh444,,,>:,%",
"Xw4444444444hhhhhhhhhhhhh44hh5hhhhhhghhhhhhhhjhhhhhh4hh44,,,,:,+",
";444<,44444hhhhhhhhhhhhh444444hhhhhhhhhhhhhhhhhhhhhh4444,,,:::,&",
"%,4,,24444hhh4hhhh4hhhhhkh44hhhhhhhhhhhhhhghhhhh44h444,1,,,,,,w%",
"7,,,444344hh4hhhh44hhh44h44444hjhhhhhhghhhhhh4hhh44,,,,>,,,,,%w%",
"%,,,4,,344444hhh44hhhhh444444hhhghhhhhhhhghhh4k44,,,,X-ww%XX%%%.",
"$%,,,,,444444hhhhghhhhhhh4444hhhhhghhhhhhh4hhh44,,%XX%www&%X%%%O",
"%#w,,,,4,,44hhhhhhhhhhhh444hhg4jkhhhhhhh4hh2h443,-%%%%w%#%%X%%XX",
"-#&%,,4>,44hhh4h44h44hh44,4h444hhhhhg4hh44h4442%%%%ff%%-%%&%%%X%",
"$%X+X,,,,4hhh4444hj44h44<,4444hhg4khh44hh5444%ww&%w0a%%%w-%weX+o"
};
