/* XPM */
static char *_6880_87ce540282931b68ce092ebafea9c04dc4b5514c7f5ee396be00c6f41480aab8[] = {
/* columns rows colors chars-per-pixel */
"64 64 168 2 ",
"   c #020101",
".  c #010A00",
"X  c #100100",
"o  c #1F0000",
"O  c #081103",
"+  c #10100E",
"@  c #090A14",
"#  c #151F12",
"$  c #10191C",
"%  c #270100",
"&  c #330100",
"*  c #2C1008",
"=  c #0E2901",
"-  c #132A03",
";  c #152A0A",
":  c #163403",
">  c #1A3205",
",  c #1F3804",
"<  c #1B320B",
"1  c #17380D",
"2  c #1F3113",
"3  c #332206",
"4  c #3A2805",
"5  c #37270B",
"6  c #392F0C",
"7  c #233502",
"8  c #233C03",
"9  c #27310C",
"0  c #223A0B",
"q  c #353403",
"w  c #222413",
"e  c #22251F",
"r  c #382913",
"t  c #253114",
"y  c #2B3617",
"u  c #223C13",
"i  c #29391B",
"p  c #333410",
"a  c #241527",
"s  c #341C27",
"d  c #27282C",
"f  c #312222",
"g  c #363423",
"h  c #353733",
"j  c #450303",
"k  c #431508",
"l  c #531F04",
"z  c #561310",
"x  c #57121B",
"c  c #751514",
"v  c #76151E",
"b  c #442407",
"n  c #492E06",
"m  c #55240D",
"M  c #40300D",
"N  c #44221F",
"B  c #53201F",
"V  c #443414",
"C  c #663319",
"Z  c #691823",
"A  c #4A3820",
"S  c #533925",
"D  c #4D2B32",
"F  c #4B3235",
"G  c #692521",
"H  c #7A2322",
"J  c #7E2A2E",
"K  c #783121",
"L  c #7A382C",
"P  c #18410E",
"I  c #254005",
"U  c #2C4206",
"Y  c #2F4903",
"T  c #27400C",
"R  c #2E4A0C",
"E  c #35500E",
"W  c #2A4214",
"Q  c #294A15",
"!  c #2D431C",
"~  c #284B1C",
"^  c #334712",
"/  c #314A15",
"(  c #36431E",
")  c #344C1F",
"_  c #375114",
"`  c #35511E",
"'  c #304424",
"]  c #364B24",
"[  c #395224",
"{  c #3D542D",
"}  c #384432",
"|  c #444314",
" . c #434520",
".. c #534021",
"X. c #445D22",
"o. c #455E2B",
"O. c #55522B",
"+. c #444238",
"@. c #6E4128",
"#. c #436422",
"$. c #4A6321",
"%. c #4A6428",
"&. c #4D692B",
"*. c #536623",
"=. c #506A28",
"-. c #4B6331",
";. c #436930",
":. c #546B32",
">. c #506638",
",. c #536A3B",
"<. c #557330",
"1. c #5A7331",
"2. c #5B7439",
"3. c #676E38",
"4. c #627835",
"5. c #3D3A40",
"6. c #454546",
"7. c #574445",
"8. c #595244",
"9. c #4D4F50",
"0. c #565555",
"q. c #7A4841",
"w. c #724F4B",
"e. c #665554",
"r. c #5C7540",
"t. c #5E7B40",
"y. c #637B43",
"u. c #695E62",
"i. c #6C6668",
"p. c #767070",
"a. c #881B19",
"s. c #9D1522",
"d. c #AB1720",
"f. c #A41E25",
"g. c #AB1B26",
"h. c #B31C28",
"j. c #B41F30",
"k. c #8C2925",
"l. c #892629",
"z. c #992223",
"x. c #96282D",
"c. c #873024",
"v. c #992532",
"b. c #883331",
"n. c #983436",
"m. c #A82224",
"M. c #AC2B2C",
"N. c #A52130",
"B. c #B52730",
"V. c #BB2435",
"C. c #A83337",
"Z. c #A53F38",
"A. c #B53235",
"S. c #BF373C",
"D. c #C52435",
"F. c #C53538",
"G. c #CE3039",
"H. c #914C37",
"J. c #AB2D42",
"K. c #B93541",
"L. c #C73541",
"P. c #935248",
"I. c #B54C4E",
"U. c #C94547",
"Y. c #D74C55",
"T. c #E35C60",
"R. c #D4696E",
"E. c #E66568",
/* pixels */
"< s a a a s s s D D D D q.q.q.q.q.q.q.q.q.q.q.q.q.q.q.q.q.q.q.q.q.q.D D D D D D q.q.q.q.q.q.q.q.q.q.q.q.q.D D D D D D D D D < : ",
"u T s s s s s s s s D D D q.D D q.q.q.q.q.q.q.q.q.q.q.q.q.q.q.q.q.q.q.q.D D D D D q.q.q.q.q.q.q.q.q.q.q.q.q.D D D D s s D D D 0 ",
": 0 W s s s s s s s s s s D D q.q.q.q.q.q.q.q.q.q.q.q.q.q.q.q.q.q.q.D D D D D q.q.q.q.q.q.q.D q.q.q.q.D q.q.q.D D D D s s D s u ",
"` / [ u ~ P 1 1 , - u s s s s D D q.D q.q.q.q.q.q.q.q.q.q.q.q.q.q.q.q.D D D D D q.D D q.q.q.D D q.q.q.q.D q.q.D D D D D s s s ! ",
";.! 0 7 W ` 1 W u < 1 1 1 - s s D D D q.D q.q.q.q.q.q.q.q.q.q.q.q.q.q.D D D D D D D q.q.q.q.q.D D q.q.q.D D D D D s s D s s s ` ",
"/ 0 0 9 R Q 0 ^ V ..3 5 r V r s D D D D q.q.D q.q.q.q.q.q.q.q.q.q.D q.q.q.D D D q.q.q.q.q.q.q.q.q.q.q.q.D D D D D s s s s s , ) ",
"0 W ^ / Q , | C c C.C.C.n.H.n.n.n.D D D q.D D q.q.D q.q.q.q.q.q.q.D D D q.D D D D q.q.q.q.q.q.q.q.q.q.q.q.D s s D s s s s 0 7 0 ",
"0 9 9 8 | 4 H.Z.A.F.L.L.I.R.R.T.E.Y.D D D D q.q.D D q.q.q.q.D q.q.q.D D D D s D D D q.q.D D q.D D q.D q.q.q.D s s D s s ^ 8 0 / ",
"] > q n l H.A.S.L.S.x.J L b.n.U.L.Y.G.G.D D q.q.D q.q.q.q.q.D D D q.D D s s s s D D D q.D D q.q.D D D D @.q.q.s s s s b.n 8 ` Q ",
"]  .4 P.Z.A.F.V.s.k.j o o % G b.J.V.D.D.D.D D D D D q.D D P.@.D D D D s s s s s D D D D D D q.q.D D D D F D D s s s s k.n ] Q P ",
"( A L z.F.G.K.v.Z k N F f X w.B v v.j.D.g.g.D D D D q.D D D D D s s s s s s s s s D D s D D D q.D D D D D D D s s s J.b.b ( : P ",
"0 V G a.j.V.N.v & 6.  5.h $   F & J s.J.h.g.@ @ D D D D D D s s s s s s s g.d.d.s.s s s s D D F s D D s D D s s s K.N.b.5 0 T 1 ",
"< 6 b z x.x.x.x f 5.$ 9.5.9.a F * G v.V.B.@ @ @ @ a D D D s s s g.h.B.B.j.h.h.h.B.h.s s s s s s s D D s s D s s s a n.@.6 8 p _ ",
"] p ..& v v.J x 7.d 6.0.p.p.0.F +.& x.g.@ @ @ @ @ @ a a D s s a B.V.B.B.j.j.V.B.d.B.M.M.x.% e.f s s D D s s s s s s a l q I q 3.",
"< 0 w k v v.l.x 7.6.9.i.e.u.7.7.S & H @ @ @ @ @ @ M.B.a D D s a M.M.m.g.g.g.f.f.m.m.a.z.J % 0.6.0.@ @ a a s s s s s a a E 1.4.4.",
"1 0 9 4 K Z J & g h + 7.7.e.e e w S G @ @ @ @ @ @ l.l.a D D s a K c.k.k.l.k.c.K k.c.c.K m w.e e + @ @ @ @ +.a a a s s a $.%.4.Y ",
"< ) 0 9 5 M M f # +.O h h   . +.  t @ @ @ @ @ @ 3 M 5 3 a D a a V A 4 V 4 ..V 6 4 V | O.| 9 . }   @ @ @ @ 8.  r.a a s a a :.&., ",
"0 ^ 7 0 T ] ]  .i # w } h   9.h t @ @ @ @ @ @ 1 u < t 2 a a a a a ) 0 0 E / W , 7 8 8 :.-.u ' } h @ @ @ @ . ,.i ) a a a a 0 8 T ",
"T T T / 0 0 u } ' g O t w # t e ; @ @ @ @ @ 0 0 - 0 < u 2 a a a a 8 0 ^ ) 8 W I 0 8 T 0 ! ] [ t @ @ @ @ i ( ) / > a a a a T , 0 ",
"T 0 8 ] / W 0 u < < ! 2 ! 2 2 2 @ @ @ @ 8 0 / 8 7 0 ^ ] Q u a a a , 8 T < , :.2.:.=.0 0 u < 1 @ @ @ @ @ < 0 < , , = a a a < 0 0 ",
"Q 1 1 W ( T u > : < - 0 ` < W i @ @ @ @ / 7 &.8 8 / W 8 0 > a a a _ 7 > < ,.T r.:./ , , W < 2 @ @ @ @ u ,.0 : 8 I T T T 8 < W 0 ",
") ) T , 0 : 0 0 W < 0 , >./ 0 > 0 0 0 , _ , %.1., _ 8 0 8 0 ] 7 2.%._ I -._ :.%.^ 7 0 , T > 2 : ] -.^ 7 o.2.8 8 R o.` < 0 ] ] 2 ",
") ) < T / ` Q 0 / %.[ = [ / : ,.! u , 8 8 , _ :.7 I W r.] W , 0 %.=.#.E , #.,., W > _ Q W T : u > U ^ 0 :.1.%.: &.Q 0 8 ) ( u 0 ",
", ~ 0 ) / ` , 0 : ` o.` : : / W 0 0 ^ >.2.2.^ E 7 ^ r.E 0 , u , &.R &.R I , T , < >./ T , > u > y > 8 I > _ %., &.: 8 , , 0 u u ",
"< 0 0 0 0 0 7 0 8 0 0 ) ) : > 0 u ( ^ 0 Y 2.2.^ 8 -.%.! 0 > 0 0 / _ R R , , 0 u < u < , > u < 1 : I , #.P 8 R _ : &.r.o.,., 0 < ",
"T %.0 0 0 8 0 0 > 0 > > 0 0 < > - 0 ^ 0 0 / o._ 7 0 0 0 u u u < 8 W ` U , T 1 u ! < > : > 0 < < , , -.2.1.&.E I &.t.%.I 7 0 ) T ",
"p -.0 ^ [ > W 0 ] ^ 0 - < - 0 ] < > 0 < 8 8 T 8 0 > > u u < W 2 X.R > ) u > 0 -.o.] 0 t < 2 : < 0 8 I Q ;.:.>.R &.[ 0 I 8 / ) , ",
"T T 9 u ] / < 0 0 ) ] ! W u u ) ' < > > 0 9 0 0 0 u u u < 2 < , : / 0 { ! ! u 0 ` ~ W 0 < t < ) 8 1 : I ! %.&._ -.R , ` ^ ) 0 , ",
", < 0 0 0 ] , 1 < 0 t < , 0 1 ' ] 0 < 0 0 > 0 u - y < < 2 2 > > 0 0 < ! ] < 0 , 7 W ) u t < > ) [ > 1 8 , , > T 8 7 8 < 0 u 0 0 ",
"0 0 u P > 0 W 1 > < 0 u 0 0 0 0 ) i 0 0 0 > - < < 9 < 1 ] , : < 0 0 u u ] ' 0 0 0 U u < W < 0 0 ` ) 0 > 0 0 T , 7 0 W 0 0 0 < < ",
"u 1 1 u 1 < 0 W 0 ) ` Q < 0 / T 0 > 0 ^ ] 0 0 < u t u } ] u - u < 0 0 0 7 ] 0 W 0 0 > 0 7 0 ! u , T , :.-.7 7 0 0 > < u u < < u ",
"< W 1 > > u > W 8 1 / &.[ , / / 8 8 ` ) -.0 i 0 ' u t ' ' < t < i t 0 > < 0 0 ] , T 8 =.: 0 ] ) 0 U T _ -.8 T , ] W 0 ' ! 2 t ; ",
"< 1 0 < : 0 0 0 8 &.&.2.$.P =.R I X.&.:., I I Q W u 0 < ] i t < < 0 < < < < 0 < I %.o.r.:.: -._ I $.$.$., 8 8 ^ ! , u u ] t < : ",
"! ! u < 2 < u ) , I / %.1.R , I =.&.:.<.&., , [ ] ; ^ u 2 < < u u / W W : < W ) / T 8 %.2./ T : &.$.1.2.*., , ) ] u t ; 2 2 2 u ",
"! ~ 0 < > : 0 / / T = 8 8 &.T W Y <.<.T - > u ] u u > 0 1 7 8 T ] ) = 1 < < , 2 > : : : , 7 , W , 7 T , T , I 2 t 2 W u W 0 < 0 ",
") ] W < , u u 0 , , , / / ) / W &.#.T : 0 < ; i u 0 T , , T W X.) ` < < < 8 , 1 > ` T : > 1 u 0 < ) < u T > ] t , 2 1 < 0 0 0 ! ",
") / 0 , u W u 0 0 1 t.r.-.: ) 1 : 1 > 2 ; u : W ) / W $.I , 4.2.^ ( u > < , 0 ' < ] W W 1 ; 2 < u u ( u 0 -.^ W 0 < 0 0 u u 0 / ",
"^ < > u [ ! W 1 T >.>.i i u < W P W ] ] ] u 2 : > _ ^ _ *.7 , *./ 0 > > u u W ] u W ( ! u 1 < ! 0 < ,.0 , y., , 0 , - < < 0 0 ] ",
"0 8 T Q ] ~ 0 0 > 0 0 0 < T < 0 P Q / , 0 > 7 : 8 0 T o.-.0 0 0 T Q > / ^ 1 ~ ] 0 < u u < t ; u , / o.:._ R E U 8 0 0 0 0 0 7 u ",
"8 , 0 0 I 2 < > T / ! _ 8 , T , R E 0 : I 0 W ` ) : 0 , 0 > u 0 , E 7 ;.` 0 ! 0 T 0 < P > , ] >.r.$.Y =.R Y E X.:.>.] 0 - u u ] ",
"7 T ( , ! 1 0 - 2 , , ` W I T , 8 : , I 1 ] ] ) ( 0 / 0 , Q 2.8 I , P 1.Q , < T T 0 , ` > T u , E 4.$.Y E E X.4._ 8 0 0 0 t ' ' ",
">./ ` 0 : ] ) : 0 T I , E , , <.4.2.o.T 0 1 t ] [ u < 8 _ 2.1.8 =.$.E 1., I : / / 0 , &.W T [ , 8 8 =.*.Y , =./ 8 9 0 < 0 u ( u ",
";.[ - W ] ] 0 > , r.R 8 , , =.%.<.#._ W > , 1 : W ) 0 8 2.%.0 8 %.<.%.R / r.r.:.0 , 0 -.R [ > 0 0 8 ) / _ 8 0 0 0 u < ; W 0 9 0 ",
"> >.0 > 0 1 : 0 0 2.2.Q P *.R &.;._ , 7 [ ) < 0 T 7 0 , %./ 7 0 8 E 2.E I , , > 8 , , 8 ` ` > / ! u > 0 u 0 : u u ' u 0 0 0 : T ",
", 0 T u < < > - W o.&.-., I W :.1 I 2 0 / , : T o.=.%.8 I 8 : 8 , , ` ^ : 0 > 8 , : ( :., , >.) W 2 u u 0 u < t < ) ] u 8 0 , _ ",
"r.W T ` W > 0 < : , ] -.T 1 :.%.T , I , > > :.y.2.$.%.I 8 $.y.:.2.I , 1 W > < 1 > < P _ -./ &.1 < 0 u t ] u t < < u ] ) , 7 E 2.",
", , < / ! 0 W 0 > , 0 ) [ 7 : , #.&.! , 7 > : < T : 0 8 =.1.1.[ 0 : ! > < < u [ 0 < : > ] ) 0 W < > 0 W ) 0 ^ < < < 0 / 8 I :.4.",
"T : 0 T ) [ < 1 0 W < : 0 W T / ;.2.2.%.7 0 P , ) / / 8 0 0 7 , , < > < 2 u < ' ) 0 > , T : 0 > 7 7 8 ] ( > t u > u 0 0 , R 4.Y ",
"8 W 8 I : u 0 P < < < u u ! 2 < 1 1 - , 0 > 0 ) / 0 0 0 W < T 8 0 ! 0 0 0 > W , / , T =.0 1 2 < 0 0 < W ( W 1 u 2 < u ) 0 ^ %.8 ",
"8 [ 0 Q ] [ : 2 < 0 u u ; < < < < t W 1 - - W 0 0 / > , 1 1 u 0 0 ] ~ , t ] ;., I , %.<.8 , ; u 0 ) 0 , 0 u ] W u 0 ! ) , / 0 0 ",
"E , 8 -.-., , W ( ! ) 1 t 1 < < < < i < < W : ] < ] [ 0 , W < u / T [ ) , : ` -.E I <.` T 0 1 : 0 ] / W 9 T %.8 0 ] ^ ] 8 0 0 0 ",
"I I , T I , , / ) T 0 : 0 0 u 1 u 1 ; < < 1 ` / < W W W , , [ < , , I 0 > T 0 r.#.E &.I T T , < 0 u ^ / 7 _ y.X.7 R 8 T 7 - > > ",
"2.1.&., , , 0 , T 0 : 1 Q ) ) P 1 < t u i < Q &.T > ] : I / ) T <._ I , [ / , , %.E R W %.o.] < < < i / 8 E 1.1.8 , I 7 9 W 0 u ",
"2.$.X.%.I %.-.r.2.o.^ : < 0 ^ ) t 0 : [ : , >.8 , > , I #.[ / , <.y.T Q : -.>.^ T W R E / 0 W < 0 0 0 7 8 8 Y 1., Y =.r.%.' ! u ",
"E %.&.R I / _ o.> > , , > T W ! ) u < ) ) T < : I , , T o.&.0 , =.X._ R T 8 r.>./ ) U Q T : 1 < ; u 0 0 R _ R *.E *.*.,.^ > u u ",
": E $., : / &., , 8 2 T : > < 0 < T 8 / o.T : T %.&.:.-.0 < 8 8 %.^ I , < 0 0 0 ) / 0 8 0 < 0 < < ] ) >.2.2.%.R Y _ _ / 0 u - u ",
", , T / / 0 : > >.-.) 0 < > u 0 > Q , , =.-., &.2.<.R , T 8 , 8 , Q 8 0 8 = u 0 0 ] W > 0 u , 1 u 0 W 0 8 W ] / , 7 u 0 0 - < u ",
"8 &.2.%.T > T -.~ ] < ! > : 0 -.W > , 8 I , 7 &.2., : :.%.Q _ , T -.0 > < > , 0 1 W 2 : u , W < ; < , 0 u u < , < : u , 0 0 ! u ",
"^ o./ 0 , Q < 0 < W u ! T > < -.o., T / X.2.:.E P 8 :.2.:.2.%., ^ ;.0 ; < u < < 0 < < < < u ) t 0 8 > > u , ; u ' ; 2 < u u ) < ",
"> 1 0 0 0 W < u 0 W u > < ; W >.-.I Q r.y.:.#.&., , %./ :.%.0 > T W 0 > u ! < 0 < < 0 u < ! ! ) > 0 9 < < < i ' { t > 2 u u u < ",
"W I W W u 0 0 < 1 W W 1 : > T -.0 T 8 ) o.<.:.#._ 0 T / -.8 0 < 1 < 0 < 0 ` u 0 0 : W u 0 0 0 ] 8 0 0 > > < ] ( ( u 2 < u < < < ",
"0 2 ! W 1 0 ] ] 0 W ^ 2 < > 0 1 , , < / , , I T : , 0 T T 1 < > u u W < < ` W 0 I 2 [ 1 0 0 0 0 ( 8 0 0 u 0 ) u < u 0 > u 9 , t ",
"u 0 1 < > , W ! 0 < u 0 > 0 ` 8 T , 0 %.-., , , 8 8 , > u 1 > u u u 0 : > Q / W : T ' ! , 0 ) 8 W 0 0 o.-.0 0 8 0 0 0 0 u < 0 t ",
"< 0 > 0 < 0 0 ] 0 0 0 %.: , / ) < W W Q >., 0 0 / I 0 ) } ; < ; u i t < > T 8 ) T , 8 :., > ] ^ > u ^ ) -.8 0 7 ) 7 0 ) ] < > < "
};
