/* XPM */
static char *_2017_c9d6a33d8c4e456ae3fb3bc59fe6d8307b2f04d7c98defef7504cc43d6e1f5fa[] = {
/* columns rows colors chars-per-pixel */
"64 64 192 2 ",
"   c #020101",
".  c #010A00",
"X  c #160203",
"o  c #081103",
"O  c #10100E",
"+  c #090A14",
"@  c #131C17",
"#  c #270000",
"$  c #330100",
"%  c #281010",
"&  c #0E2901",
"*  c #132A03",
"=  c #152A0A",
"-  c #163403",
";  c #1A3205",
":  c #1F3804",
">  c #1B330B",
",  c #17380D",
"<  c #1F3113",
"1  c #372505",
"2  c #36260B",
"3  c #392E0C",
"4  c #233502",
"5  c #233C04",
"6  c #27310C",
"7  c #223A0B",
"8  c #353403",
"9  c #222413",
"0  c #22251F",
"q  c #382913",
"w  c #253114",
"e  c #223C13",
"r  c #2D3816",
"t  c #29391B",
"y  c #333410",
"u  c #241527",
"i  c #341C27",
"p  c #312222",
"a  c #302F27",
"s  c #353733",
"d  c #450303",
"f  c #431508",
"g  c #521F04",
"h  c #561314",
"j  c #76151C",
"k  c #462807",
"l  c #40300D",
"z  c #4E2314",
"x  c #53201F",
"c  c #443414",
"v  c #663319",
"b  c #691823",
"n  c #4A3820",
"m  c #533925",
"M  c #4D2B32",
"N  c #4A3335",
"B  c #692521",
"V  c #7A2322",
"C  c #7E2A2E",
"Z  c #673424",
"A  c #783121",
"S  c #7A382C",
"D  c #18410E",
"F  c #254005",
"G  c #2D4605",
"H  c #27400C",
"J  c #2D4A0B",
"K  c #35500E",
"L  c #2A4214",
"P  c #294A15",
"I  c #2D431C",
"U  c #284B1C",
"Y  c #334712",
"T  c #314A15",
"R  c #36431E",
"E  c #344C1F",
"W  c #375114",
"Q  c #35511E",
"!  c #304424",
"~  c #354B24",
"^  c #3A5226",
"/  c #384432",
"(  c #444314",
")  c #434520",
"_  c #534021",
"`  c #435D21",
"'  c #455E2B",
"]  c #55522A",
"[  c #444238",
"{  c #6E4128",
"}  c #436422",
"|  c #4A6321",
" . c #4A6428",
".. c #4D692C",
"X. c #516826",
"o. c #4B6331",
"O. c #436930",
"+. c #546B32",
"@. c #506638",
"#. c #546A3C",
"$. c #4D783A",
"%. c #587331",
"&. c #5B7539",
"*. c #676E38",
"=. c #627835",
"-. c #3D3A40",
";. c #454546",
":. c #574445",
">. c #595244",
",. c #4D4F50",
"<. c #565555",
"1. c #6F4C48",
"2. c #7A4841",
"3. c #665554",
"4. c #5C7540",
"5. c #5F7B40",
"6. c #637B43",
"7. c #7C6857",
"8. c #5D5C61",
"9. c #695E62",
"0. c #6C6668",
"q. c #767070",
"w. c #881B19",
"e. c #9D1522",
"r. c #AB1720",
"t. c #A41E25",
"y. c #AA1A26",
"u. c #B31729",
"i. c #B31C28",
"p. c #B41F30",
"a. c #892724",
"s. c #8C2925",
"d. c #88252E",
"f. c #992223",
"g. c #9B2128",
"h. c #96282D",
"j. c #873024",
"k. c #9C332A",
"l. c #992532",
"z. c #883331",
"x. c #983436",
"c. c #A82224",
"v. c #AC2A2D",
"b. c #A52130",
"n. c #B52730",
"m. c #BB2435",
"M. c #A83337",
"N. c #A53F38",
"B. c #B53235",
"V. c #BE353B",
"C. c #C52435",
"Z. c #CA3336",
"A. c #C43539",
"S. c #CE3039",
"D. c #D1383D",
"F. c #914C37",
"G. c #993544",
"H. c #AB2D42",
"J. c #B93541",
"K. c #C73541",
"L. c #935249",
"P. c #9A5B5D",
"I. c #B5494B",
"U. c #886858",
"Y. c #9A645C",
"T. c #A7635B",
"R. c #AD7757",
"E. c #A55D61",
"W. c #996667",
"Q. c #95696B",
"!. c #8E7A74",
"~. c #A4666A",
"^. c #A9777C",
"/. c #B77577",
"(. c #C94547",
"). c #D74C55",
"_. c #E35D60",
"`. c #D4696E",
"'. c #E66568",
"]. c #7F8778",
"[. c #88857C",
"{. c #918579",
"}. c #9D7E83",
"|. c #8A8684",
" X c #958D89",
".X c #9B9A9B",
"XX c #B99E9A",
"oX c #B2A39A",
"OX c #AE9FA3",
"+X c #B2A3A5",
"@X c #D69E9F",
"#X c #DDB7B9",
/* pixels */
"> ; w 7 * e w 6 7 W } $.O.: | ( 4 T +.| 5 F : T ~ 7 > e ! t 2 2 f z k 1 g h f k 5 O.O.$.O.: X.G F | } } 4 5 4 ~ E L 7 > P D > ; ",
"e H 7 w > , e 6 6 5 5 O.%.W F ; ^ T 7 ~ T 7 ; E T 6 c a < 7 9 7.U.U.7.7.U.U.U.7.~ e e o.+.( 8 F | X.%.=.+.5 4 I I 6 > > e ; ; H ",
"; 7 P e D , > > 6 7 7 7 e : : L , e e e - , e ; t q f 7.7.].].[.|.}.[.[.|.[.!.{.[.q.[.{.Q.U.1.L.g k F : 7 6 e e e < = 7 r w < L ",
"Q Y ^ e U D , , 7 * e > > < L , > D > > P E L e q h E.~.{.oX X.X.X.X.X.X X|.|.|.|. X}.}.^.^.`.^.L.F._ _ n 3 6 > ; : 6 r w e e P ",
"O.I 7 4 L Q 7 D e > , , , * = = < = D e - Q T 3 !.W.P.~.XXoXoXoXOXOX+XOXOXOX+X+XOX+XOXXX#X#X#X@X/.I.G.d.d.h 3 w - 7 e R > > L E ",
"T 7 7 6 J P 7 Y c _ 1 2 q c q p 1 1 3 3 3 c Z T.T.L.C d.P.P.Y.W.Q.Q.Q.Q.Q.Q.Q.Q.W.Q.W.W.^.W.~.~.d.k.b.t.t.a.A g 3 6 y ( Q : - E ",
"7 L Y T P 5 ( v j M.M.M.x.F.x.x.x.N.I.I.N.I.N.A.c.f.g.f.a.d.h.l.d.z.z.d.x.h.h.x.x.k.l.l.M.M.b.J.M.H.n.K.i.v.v.k.A g k ( Q H 4 , ",
"7 6 6 5 ( 1 F.N.B.A.K.K.I.`.`._.'.).A.Z.Z.Z.Z.S.C.V.n.B.M.B.K.A.B.N.M.B.V.n.(.'.'.'.)._.).J.J.`.J.V.K.K.J.m.K.m.B.k.j.k Y 5 7 T ",
"~ ; 8 k g F.m.J.D.B.h.C S z.x.(.K.).S.S.C.Z.Z.Z.Z.A.A.V.J.A.S.S.A.A.V.V.A.A.A.(.(.(.N.D.K.J.J.I.l.V V j.e.J.K.A.Z.B.f.z.k 5 Q P ",
"~ ) k L.N.B.A.J.e.a.d X X # B z.H.m.C.C.C.Z.D.Z.A.A.J.A.A.Z.S.S.A.m.n.c.u.u.u.c.g.c.c.c.n.V.`.G.h # X X B s.H.B.Z.(.(.s.k ^ P D ",
"R c { g.Z.S.J.l.b f z N p X 1.h j l.p.C.y.y.r.r.y.f.t.t.g.t.t.r.u.y.t.y.c.y.y.y.c.e.r.y.y.l.V x z O [ % m $ j J.K.C.H.z.k R - D ",
"e c B w.p.m.b.j $ ;.  -.-.@   N $ C e.H.i.y.r.c.c.c.t.t.t.t.t.t.r.y.y.b.y.y.r.r.e.c.y.t.l.G.# :.X O >.p 9 3.d G.J.J.b.z.2 7 H , ",
"7 3 k h l.h.h.h p -.@ ,.-.,.u N % B h.m.p.u.y.r.t.c.u.u.u.y.r.y.y.u.n.n.p.u.i.i.n.i.i.n.v.B % p X p <.<.% <.x B H.H.x.{ 3 5 y W ",
"~ y m $ j l.C h :.0 ;.<.q.q.<.N [ $ h.y.p.n.m.v.v.v.p.m.C.m.n.n.n.n.n.n.p.n.m.n.r.n.v.v.h.# 3.0 s 0.9.0.<.p 1.h d.h.A g 8 F 8 *.",
"> : 9 f j l.d.h :.;.,.0.3.9.:.:.m $ V e.b.b.v.n.v.v.n.n.i.n.v.v.v.v.c.y.y.y.t.t.c.c.w.f.z.# <.;.,.0.8.0.1.N 3.1 B Z _ 8 K %.=.=.",
", 7 6 1 A b C $ s s O :.:.3.0 0 9 m B V A V j.s.j.s.s.s.s.s.j.j.A j.s.s.a.a.j.A j.j.j.A z 1.0 0 + a <.<.q [ p ] m l 8 ( | | =.J ",
": ~ 7 6 3 l l p = [ o s s   . [   w 2 2 n _ 2 1 1 l 2 1 2 2 l k c n 1 c 1 _ c 3 1 c ( ] ( 6 . /   @ ;.@ 9 >.  4.w 6 5  .......5 ",
"H L 4 7 7 ^ ~ ( r @ 9 / s   ,.s w = e L > e ~ > e > < < w w 7 7 > E 7 7 J T Y 4 4 5 4 +.' e ! / s O ;.@ [ . #.t ~ L H T T H 5 7 ",
"H H H T 7 7 e / ! a o w 9 @ w 0 > < e ; 7 , : H ; 7 : e : L 7 7 ~ 5 7 Y E 5 L 5 H 5 H 7 ! ~ ~ w o 0 0 0 r R E P 5 H 5 ; 4 7 7 7 ",
"H 7 5 ~ W e e e > > I w I < w < t I ~ e F : T : 4 7 L ~ I e e 7 5 4 5 7 7 5 &.&.+.X.7 7 e > 7 e t w w e > 7 > : : & - D H 7 7 7 ",
"P H , e R 7 e ; ; > ; , ~ > Y e e > ~ Y T 4 ..5 5 T L 5 7 ; ^ 5 &.K 4 - 7 #.H 4.+.T : : L > , ~ r ~ r e #.7 - : 7 H H 7 7 > e 7 ",
"E E H : 7 - 7 7 e : : : o.T 7 ; 7 7 : : W 5  .%.: W 5 7 5 7 ~ 4 &...W F ' W .. .Y : 7 : H ; e ; ~ o.Y 4 ' &.F F J ' Q : H E ~ < ",
"E E > H T Q P 7 T o.^ & ^ T - #.! e : 5 5 4 T &.4 F T #.E L ; H  .X.} K D ` @.: L ; W P P H - e ; G Y 7 +.%. .; ..T H 5 E E e 7 ",
"; U 7 Q T ~ : 7 : U ' Q - - T L H 7 Y @.&.&.J K 5 Y 4.W 7 ; e ;  .J ..K F : H 7 ; @.T H : ; w ; r ; 5 F ; W  .4 ..- 4 7 ; 7 e e ",
": 7 : , 7 7 4 7 5 7 7 Q E ; * 7 e R Y 7 G &.&.Y 5 o. .I 7 ; 7 7 T W J J : : H e > < > : ; L > , - F 5 } : F J W - ..4.' @.5 7 7 ",
"L ' H 7 7 5 7 7 ; 7 ; ; > 7 7 ; * 7 L 7 7 W ' T 5 7 7 7 t e L > : L Q H : H 7 , L > > - ; , > > ; : o.&.&...K 5 ..5. .F 4 , ~ 7 ",
"y o.7 W ~ ; L 7 Q L > ; 7 * 7 ~ > ; 7 : 5 : H 4 7 4 ; e e > e : ` J ; ~ e ; > @.' E 7 w : < - > H : F P O.+.@.K ..Q H F 5 T E 5 ",
"7 7 6 e ~ T : 7 7 ~ ~ I e e e ~ ! > ; ; 7 6 7 7 7 e e e > < > : ; W 7 ^ I I e 7 Q E e 7 > < > ~ : 7 ; F L O...W o.J : Q T E 7 ; ",
"7 : 7 7 7 ~ , > 4 7 e > 7 7 , E ~ 7 > 7 7 ; 7 e * w > > < < - = 7 7 > E ~ > : , 4 I E e w > ; E Q - H 4 : : - 7 : 4 4 : 7 e 7 7 ",
"7 7 7 L > 7 L , = > 7 e 7 7 7 7 ~ e 7 7 7 ; * > > > = < ~ : ; > 7 7 e e ~ ~ 7 7 7 G e > L > : 7 Q ~ H - 7 H 7 5 : 7 L 7 7 7 > > ",
"e e > , , > 7 L 7 E U P > 7 T H 7 ; 7 Y ~ 7 r : e w w / ~ < - L > 7 7 7 : ~ 7 Y 7 5 - 7 : 7 I e : H - +.o.4 5 7 7 ; > e e > > e ",
"> e , - ; D ; L 5 H T o.Q 4 T T 5 5 Q ^ ' 7 e 7 ~ e e ~ ! > < > e w > ; ; 7 7 ~ ; H 5 ..; e E ~ H F H W o.5 H ; ~ L 7 ~ t w w = ",
"> D 7 > ; , > : 7  ...&.| D X.K D ` ..+.: H H P L L 7 > ~ t < : > 7 > > > , 7 : F o.' &...7 o.W F | | | : 5 5 Y I 7 w e ~ , > > ",
"t I < 6 < > L E 5 F T  .&.J : F X...+.%. .4 5 ~ ~ = L e < > > e w E L t - > , ~ T 7 F  .&.T 7 - X. .%.&.X.: 4 E E e w = < < w e ",
"I U 7 7 - ; 7 T T H & 5 :  .H L G %.%.: ; ; , ~ e e ; 7 , 4 : H E E & , > > 7 7 : - ; M M M M M M M M 5 H : 7 > w w e e L 7 ; 7 ",
"E ~ e > 7 D e 7 : : 5 Y T Q T P ..} H - 7 > > t 7 7 H : : H L | E E : > > 7 ; 7 M M M M M M M M M M M M M : ~ w : , e > 7 7 7 I ",
"E T : ; e e L 7 7 e R.R.R.R.R.R.R.{.R.R.> 7 > e ~ T L | F : &.&.Y I e ; R.R.R.R.M M M M M M M M M M M M M M Y L 7 > 7 7 e e 7 T ",
"T 7 - L ^ I L 7 H R.R.R.2.2.2.R.R.{ F.R.R.R.> ; - E J W X.: : R.R.R.R.R.R.R.R.M M M M M M M M 2.2.2.M M M M M M 7 ; * 7 > 7 7 ~ ",
"7 5 7 T ~ U 7 R.2.R.2.2.R.2.R.i M R.R.R.R.R.R.R.F 7 H R.R.R.R.R.R.R.2.R.R.M R.M M M M M M M 2.2.2.M M M M M M M M 7 7 7 7 7 : 7 ",
"5 5 7 , 7 7 R.R.R.2.2.2.2.2.R.i M R.R.R.R.R.R.R.R.R.R.R.R.R.2.2.2.R.2.2.M M M M M M M M 2.2.2.M M 2.2.2.2.M M M M M ~ 7 * e e ~ ",
": 7 E 7 R.R.2.2.2.2.2.2.2.2.i M R.R.R.R.R.R.R.R.R.R.R.R.R.R.R.R.2.2.2.2.M M M M M M 2.2.2.2.2.2.2.2.2.M M M M M M M M e 7 w ! ~ ",
"#.Y M i i M M 2.2.u u u 2.2.M R.R.R.2.R.R.R.R.R.R.R.R.2.2.2.2.R.R.2.M M M M M M M M 2.2.2.M M 2.2.2.2.M M M M M M M M 4 > e I e ",
"O.+ + + i M M M 2.2.2.2.2.2.2.2.F.R.R.2.R.R.R.R.2.2.R.R.2.2.2.2.2.M M M M M M M M M M 2.2.2.M M 2.2.M M M M 2.M M M M M e 7 6 7 ",
"; i + i i i M M 2.M M 2.2.2.2.2.2.R.R.2.2.2.2.R.R.2.2.R.2.2.2.2.2.M 2.2.M M M 2.2.2.2.2.2.2.2.2.2.2.2.2.2.2.M M M M M M r 7 ; 7 ",
": i u i i i i M M M 2.2.2.2.2.2.R.R.2.2.2.2.R.R.R.2.2.2.2.2.2.2.2.2.2.M M M M 2.2.2.2.2.2.2.2.2.2.2.2.2.1.2.2.M M M M M M 7 5 W ",
"4.i u i i i i M M M 2.2.2.2.2.2.2.2.2.2.2.2.2.R.2.2.2.2.2.2.2.2.2.2.2.M M M M M M 2.2.2.M M 2.2.2.M M M L.{ 2.2.M M M M M 5 K &.",
": i u i i i i M M 2.2.M 2.2.2.2.2.2.2.2.2.2.2.R.2.2.2.2.2.2.2.2.2.2.2.2.M M M 2.M 2.2.2.2.M M 2.2.2.2.M M M M M M M M M M M +.=.",
"7 i u u u i i i M M M M 2.2.2.2.2.2.2.2.2.2.2.2.2.2.2.2.2.2.2.2.2.2.M 2.2.M M 2.2.2.2.2.2.2.2.2.2.2.2.2.M M M M M M M M M M =.G ",
"5 L i i i i i i i i M M M 2.M M 2.2.2.2.2.2.2.2.2.2.2.2.2.2.2.2.2.2.M M M M M M 2.2.2.2.2.2.2.2.2.2.2.2.2.M M M M M i i M M M 5 ",
"5 ~ 5 i i i i i i i i i i M M 2.2.2.2.2.2.2.2.2.2.2.2.2.2.2.2.2.2.2.2.2.M M 2.2.2.2.2.2.2.M 2.2.2.2.M 2.2.2.M M M M M i i M i > ",
"K : F  .o.: e e I I E i i p i M M 2.M 2.2.2.2.2.2.2.2.2.2.2.2.2.2.2.M M M M M 2.M M 2.2.2.M M 2.2.2.2.M 2.2.M M M M M M i i i 7 ",
": F : H F : : T E H 7 - e 7 i i M M M 2.2.2.2.2.2.2.2.2.2.2.2.2.2.2.2.M M M M M M 2.2.2.2.2.M M 2.2.2.M M M M M M i i M i i i ; ",
"&.&.%.: : : 7 5 H > > : E ~ E i M M 2.2.M 2.2.2.2.2.2.2.2.2.2.2.2.2.2.M M M M 2.2.2.2.2.2.2.2.2.2.2.2.M M M M M M i i i i i 7 e ",
"&.| Q X.F  .o.&.4.' Y - ; : T E M M M M 2.2.M 2.2.2.2.2.2.2.2.2.2.M 2.2.2.M M M 2.2.2.2.2.2.2.2.2.2.2.2.M M i i M i i i i E E e ",
"K  .X.J F T W ' - ; : : > H , E ~ M M M 2.M M 2.2.M 2.2.2.2.2.2.2.M M M 2.M i M M 2.2.M M 2.M M 2.M 2.2.2.M M i i M i i T ; e e ",
"- K } : - T ..: : 7 7 7 ; ; > 7 > H M M M M 2.2.M M 2.2.2.2.M 2.2.2.M M M M i i M M 2.M M 2.2.M M M M 2.2.2.M i i i i Y 7 e * w ",
": : H T T 7 ; : o.o.~ D > ; e 7 ; P 5 : M M 2.2.M 2.2.2.2.2.M M M 2.M M i M i i M M M M M 2.2.M M M M M M M M i i i i 7 7 * > w ",
"5 ..&. .7 ; H o.E ~ > I ; ; 7 o.e - 4 5 F M M M M M 2.M M 2.2.M M M M M i i i i i M M i M M 2.M M M M M M M M i i i e > 7 7 I e ",
"Y ' T 7 5 P ; , > L , L 7 ; > o.' 5 H T ` &.M M M M 2.M M M M M M i M i i i i i i i i i i M M M i M M i M M i i i i < : e e ~ > ",
"; , 7 7 7 L > L 7 L L ; > > L o.o.F P &.6...} M M M M M M M i i i i i i i i > : > i i i i i i i i M M i i M i i + < > < e e e > ",
"L 7 L L e 7 7 > e L L 7 - ; H o.7 H 7 E  .%.+.} u u M M M i i i e > 7 > 7 E e 7 7 ; L L 7 7 7 ~ u i M M i i i + + e < > e > > > ",
"7 , I L 7 7 ! ~ 7 e L , > ; , 7 : 5 ; T > - F + + + u M M i i u e e e > > Q L H 7 , ^ > 7 7 7 7 E u i i i u u + + e > > e 7 ; w ",
"e 7 > : ; , e L 7 : L > ; 7 Q 5 H ; ,  .o.- : + + u M M i i u u < e e - ; T P L : H E E - 7 E 4 u i i i u u + + + + : 7 e > 7 w ",
"> 7 ; 7 > 7 7 ~ L > 7  .- : Y ~ 7 L L T @.5 H u u u u i i u u , < t < : ; 7 5 E : 5 - #.- 4 ~ Y u i i u u + + + + + 7 E E > > : "
};
