/* XPM */
static char *_32e0352a1894910a745a4b2649a59eeFaDYnh3qSFo80Ca7[] = {
/* columns rows colors chars-per-pixel */
"64 64 44 1 ",
"  c #080A14",
". c #090A14",
"X c #090A15",
"o c #1F3616",
"O c #1E3716",
"+ c #1E3617",
"@ c #263B16",
"# c #273B16",
"$ c #263A17",
"% c #263B17",
"& c #273B17",
"* c #241526",
"= c #241427",
"- c #241527",
"; c #251527",
": c #341C27",
"> c #351C27",
", c #341D27",
"< c #4D2A32",
"1 c #4C2B32",
"2 c #4D2B32",
"3 c #4D2B33",
"4 c #2D4217",
"5 c #2C4317",
"6 c #344D1A",
"7 c #354D1A",
"8 c #344C1B",
"9 c #344D1B",
"0 c #354D1B",
"q c #5F771E",
"w c #5E761F",
"e c #5F761F",
"r c #5F771F",
"t c #476920",
"y c #476821",
"u c #466921",
"i c #476921",
"p c #7A4940",
"a c #7A4841",
"s c #7B4841",
"d c #AD7756",
"f c #AD7657",
"g c #AC7757",
"h c #AD7757",
/* pixels */
"o##oo@@@@8uwu#u8@8uu@%#00@%@8@oo+@#$o$$@@uuru@u8@uut#@@88@@@8@oo",
"####+o@@@##uw8@@88888@@08@@@oo+@%0@@oo@89@@ur9@@uurru@@88@oo@Oo@",
"##8#@@OO+@@@##@@@@@@@@%@@@OOoo##08O+o@@@@@@@###8###@@@@@@oo@@@@@",
"888#8@#@oo@@oo%@o@@@@9@@@@@ooo8u00o%%@@@@@@@9##8##988@@@OO@@@@@8",
"u8@@88@@@ooooooooo@@@99@@@@%ourr00oo@888@@@@r@88#99@@@ooO@@8@@@8",
"8#@@@8@988ooo#oooo@@@99@@@8@@o@u8@@oo@@89@@ur88@@9@#@oo@@@@88@@9",
"@@889@99@++o@@@oo@@@9@99@@u@@o@@@@@oooO@@8@uru@@@@@@oooo@@@88@@@",
"@@@@9@@@oo@@@8@@@@o@u@@@@ru@@@@@@@+oooOO@@@8u8@@@@@@+ooo@8@@8@@8",
"8@@@@@@@o@@@08@@@%@Ouw@@ur0@@@990@@OO@@8rrru88@8urwoooo#@8@@@@98",
"88@@@@++o@@%08@@8888uw99u0@@@@@9u8@@O@@@@8uuu8uu8@$oo##@@89@@99@",
"888@ooo@@8@@0%@@@@888ur98@@@@@@@u0@@@@@@%@@8u8@@@ooo#@@@@@99@9@@",
"@@@@@@@@@uu@@@808@@899r89uuu8%@@%u@@@8@@@@@@@@ooooo@@@888@@9@@@@",
"@@@@888@@ur8@889@@@@@888uu0@@@@8@###88@@@@##@#$#@@OO8uuwr8@@@@@9",
"8@@@@@88@@rr@89@@@oo+@@@@@@@@@880@#88#@@urrr##+@88@Oo##urr#@@#8r",
"@@@Oo#@@@@8u88@@@@@@o+o@@@@@%888@+@88@@@8urtu@#o8r@@@o#@8ut@8rrr",
"@@@O@#@8rr888urru8@@8@oooo@#@@@@%@@0@@8@99uu0u#0rw@@##uu8#@8uur8",
"@8@@@@@@@uu8uwwu@ooo88oo@@ooo@@@@0@@#99#@@8u8@#uuu@@8uwu##@uuuu@",
"@8@@@888@@8@uu8@oo@@o88@O@@@@@@@@0@@999#@@@uu#8u8@@@wwu888@888@@",
"8@@8@@998@@@8@ooo@@@@@@@O@@@@@@@0@@89###@@@@888#@%@@@888@@@@@@@%",
"@@@88@@Oo@@@@#o@@88@@@8@O@@88@8@@@@@@@rrru@@@@@@@@@@@@@oooo@@@@%",
"9@@@9@@@+oo@8@@@@@888@u@@88@@#8@r8o#@t9ru8@@@@@888@@u@O@@@0#@@@@",
"99@@@@@@@@oou8@#@@@@8@ur@8@@@$8@rr8@u9tt8@@@@ooo0u8@ur@@8u0#@88@",
"99@@998@8u8o88#y8@@@@@8r@@8w8@@@uuu8@uu@@@888@@o@@8@uru@u8##88@@",
"O9@999@@@8u8o@88@@8urr88@8w8@@@@u8u8@@@@@u8%@@oo@@@@@0t%u@#@%@@@",
"@@@@#@@@@@@88ooo@88@0rr8#tt###@@8899%@@@##oo@@o@o##u@@00Ourtt###",
"@u@@#@@@$oooo$#oO@@@&0t8######@@@99@@%@@##ooooooo#yrru80urt@##0#",
"5u@98#@@88oo#12<11112&&&@@######99%8@@@uu8##ooo####8uru0uu@#@80@",
"@@@@88@#@881222<11112212@###%##o@9@00@@@88##ooo8#####uu0u#@888@o",
"@@@@@8@#+o11111111111122hhhh@ooo@@%00@%@&00#ggggggffgg%#@%@@@@@o",
"@@@@@@@o1111111ssp1122221hhhghggh@%%99%@##hhgssggsssggf%@#@@@@oO",
"@@@@OOo111111111ssp122221h1hgsfghhhhg0@0fdfgggg1:gsgppgph@@@@@o@",
"@@O@O@111111ssss11pps1221111psfpppggggggfffgggg1:gaappphgh@88ooo",
"o##o&2221133<<aaaaaaasa<1133aapahhggggggggggggff<>ssppaaaagg0%+o",
"#8##$222111333aaap<3aap<111333ahhpassgffggggfsggf<pp===pa<<:,<o#",
"88#o112211a<33<aa33aaa<<11<3<<<apsssggssggggsggsppssaasp313:  X#",
"88#o<<1<211appaaaaaaaaaass<3ap<appssgppfgssasggssspsa<1p33,,: ,8",
"88@1233321ssppaaaaaaaaaass1<<aaaaaaapssgggssaaggssaaaa<<1::,:=:8",
"8#@122332sssp1<<aap<<paa1121<aaaaaaassssgassaaaassssaa111::,:=,0",
"@@1122222231<<ssap<<ppss1s22aassaaaaaasagaaaaaaassss1ss11:,,,=,#",
"@@1122222111<sspaappppssss22p<spaaaaaaaaaaapaaaassss1111::,===,8",
"@111::111221ssspsapaaaaas31111ppaaaaaaaaaaaasssa11p111::::::::88",
"u:1::111112sss1paap<aaaasss1sspsaaaaaaaaaaaassaas11::::::::,:#8#",
"u:::311111<ps<ssaa3<aaa31s1311ssaaaaaaaaaaaas1s<1::::@@@##oo@@##",
"#:::3>>113<311psa33aaapa113<1sssaaspaaaaaaaas11<::@@@@@@#0##@@@@",
"##:::::133333<ppaaasaaaasp3<<pppaaaaaassaas1sa1<:@@@@@OO@88@@@@8",
"r#0::::1::31<aapaaaaaaaas11ppp1saaaaaapps1ss1111&$@@8@@%O@88@@8w",
"#$#0::<::<<<pap<a33p3<aa1:<p<<1sasaaaa1sa11s11<%oo@88@@@O@@8@@ww",
"####0::::3paaa33<<pp3<a33:33<<ssa1aaaa11sa1111%%o@@88@@@OO@@@8r8",
"#8###::::11111111a1s1111>>1:11p111sssss1ps<<@@o$#@@@8@@@@O#9@9u@",
"#8@888:::11111111a11:11::>::11111ss11s11111w@$o#@8@@@@9@@@99@9@@",
"8@@uu#::::11>22>111:>>>::>:::1:1<<111s11<1w8@@OO@88@@8u@@999@@@@",
"@@@@##..::1:>11>::::>>:8@@:::::,>>>11111t8t6@@@O@@88@8ru@8#@ooo@",
"wwu###..X-::11*=@@o@#@8uoo8#@88@XX>>>111=66#uu8O+@@8@8rr@###@@@@",
"wuuu# XX.-::>>;:@@o8@#u@#@##u88@r.**>>>11*888@@@+@@@@@8r@8uru88@",
"8uu8#   ..-::>;98@o88@@$#%##uu@@t.XX *::1-=8@@@O+@@@889t8uru0@@#",
"@8uoo   ..--:>;#@@@8u@@%uuru%@@@t...XX=***-#@OO+@88urrt98880@@oo",
"##58    ..8**>>*@@@@uu@uww8@@@@@&0...X@@===-@@@+@@@@@888++@@o+o@",
"#tquX   .9@8**:=-@@@@@@uw@$ut88@@X...@$@@===--@@oo@@@@O@o@@@@@8@",
"4t5#X.  @###%====-@8uww8@@uwwwt@0X.. @oo@@----=@@oo@@OO@8oo@@@8@",
"###5..  .55#OO=====wwuuu@@u6uu@o%X..#8@o$OO----8@@oooo@88@oo@@@+",
"##44#    55oO%@*===8uwtt6@66t@@o@.  @8@@@@8@@@@8@@@oO@888@@o@@@O",
"##0@@#88#@8@O@@@@@@@##@@oo##@@oo@@@O@88@@@8@@@@@8@@@@@8@@@@o@@oo",
"@@##o@@8#$@@O@0@@@#uu#@@####$$O@@@@O+8@8@@88O@8@@@@uu@@@@@@@@@o@",
"@@ooo@@8@@@uO@98@#88u#@@8##88o$O@@O++@@8@@%uO@88@@88u@@@8@@88ooo"
};
