/* XPM */
static char *result[] = {
/* columns rows colors chars-per-pixel */
"64 64 144 2 ",
"   c #000000",
".  c #02030D",
"X  c #131419",
"o  c #0E2406",
"O  c #0E2801",
"+  c #0C2208",
"@  c #132A05",
"#  c #142A0A",
"$  c #173103",
"%  c #1A3504",
"&  c #1F3804",
"*  c #1A320C",
"=  c #122815",
"-  c #152C1E",
";  c #1A3313",
":  c #1E331C",
">  c #233C05",
",  c #23340B",
"<  c #21390D",
"1  c #203614",
"2  c #233A13",
"3  c #21371C",
"4  c #25391C",
"5  c #293F1C",
"6  c #1F0D22",
"7  c #311622",
"8  c #192D23",
"9  c #1F3325",
"0  c gray13",
"q  c #2B2B28",
"w  c #223624",
"e  c #273A24",
"r  c #25392C",
"t  c #323232",
"y  c #4C272E",
"u  c #40393E",
"i  c #254004",
"p  c #2C4506",
"a  c #2D4B05",
"s  c #27400C",
"d  c #2C450D",
"f  c #2E4B0C",
"g  c #334F04",
"h  c #354D0D",
"j  c #375303",
"k  c #36520D",
"l  c #3D5A0D",
"z  c #294114",
"x  c #2E441C",
"c  c #324B15",
"v  c #344C1E",
"b  c #345014",
"n  c #3E5413",
"m  c #37511C",
"M  c #2A4025",
"N  c #2A412C",
"B  c #314427",
"V  c #334C25",
"C  c #3B5225",
"Z  c #425F0B",
"A  c #415E15",
"S  c #415D1F",
"D  c #456A07",
"F  c #4A6B06",
"G  c #46640D",
"H  c #4B6A0D",
"J  c #577804",
"K  c #56760C",
"L  c #557A0D",
"P  c #5C7D0B",
"I  c #446315",
"U  c #486515",
"Y  c #4B6915",
"T  c #44621F",
"R  c #48651F",
"E  c #44691B",
"W  c #4C6A1F",
"Q  c #516D17",
"!  c #506C1F",
"~  c #537417",
"^  c #5A7715",
"/  c #5C7B15",
"(  c #55731F",
")  c #5B761D",
"_  c #5C7B1F",
"`  c #617C17",
"'  c #617D1C",
"]  c #455F29",
"[  c #7B463F",
"{  c #446227",
"}  c #4B6426",
"|  c #4C6927",
" . c #4B642E",
".. c #516B27",
"X. c #526C2E",
"o. c #557225",
"O. c #5B7627",
"+. c #5D7B27",
"@. c #4A6437",
"#. c #4D6930",
"$. c #536B37",
"%. c #5C7630",
"&. c #627D27",
"*. c #617C32",
"=. c #505051",
"-. c #5D5C5D",
";. c #5F5865",
":. c #6B6C6C",
">. c #70706B",
",. c #AE7856",
"<. c #648320",
"1. c #658228",
"2. c #7E877A",
"3. c #787D80",
"4. c #7D8484",
"5. c #828686",
"6. c #878B83",
"7. c #878B8A",
"8. c #8E9988",
"9. c #92958C",
"0. c #959B8E",
"q. c #9A9D8A",
"w. c #8E8F90",
"e. c #8F9495",
"r. c #959693",
"t. c #969A93",
"y. c #9B959B",
"u. c #9F9F9E",
"i. c #A0A19C",
"p. c #A7AAA7",
"a. c #AFA8AF",
"s. c #B0AEB6",
"d. c #ADB1B2",
"f. c #B5B7B6",
"g. c #BCBCBB",
"h. c #B8C1AE",
"j. c #BEC3BE",
"k. c #C0C4B5",
"l. c #C2C3BC",
"z. c #BDBFC4",
"x. c #BFC3C5",
"c. c #C3C2C4",
"v. c #C4CAC0",
"b. c #C4C4CC",
/* pixels */
"* < < < * 1 1 ; * m I O.Y & #.d i f { | & * ; b k % 2 $ c z # % ; & & % ; * * x > } } ^ F > ..x > | | R < 1 * v c , 1 2 v 3 # , ",
"1 < < 1 * * < 2 2 d % { 1.v > s x b b m z z & c c 2 4 z * ; ; ; z V ; ; % ; z v x d > } *.2 2 > } H L ) } f i j v 1 * * > 1 ; < ",
"< * c < < * * , ; < < < 2 < * < ; z < < < 2 * s < 2 ; # * ; x > z V & 2 * * 2 & > * 2 2 > 2 2 d M * > < ; - e ; > * * , , 1 , 2 ",
"c c c < c 1 2 ; ; % 2 2 O 1 5 1 ; * , < d x z * * < 2 * * $ d I b c & ; ; z s & , 1 1 > c * > V < % h b m z < * & ; ; x > 2 > d ",
"E c < < c c < < < * # ; * * * * * < < z * v v % < , 2 , & | +._ b z > ; ; V z b 1 s 4 > o.z c z 1 C m % * * * % * ; ; c > , 2 b ",
"c < < 1 * c < x c V 2 * # < * * ; * * 2 > f b s ; c c * 1 % $ W b < 2 ; ; z * m V i 1 G _ f f z 1 x < z z * @ z , 2 ; n x > , d ",
"1 < c c c < c v z * * ; z z * ; ; < 2 < b > c v 1 > ] 1 1 * 2 2 s * ; ; * ; % z * m 1 I +.| i ; ; z 2 * * * * ; < 2 , z n 2 , s ",
"< < < < c < 1 > % * ; 4 & z 2 2 * 2 ; # #.> > , > o.Q > 1 2 2 2 2 2 * ; * ; * # < * z b { h 2 & * > < < * ; ; * < c < * c < z x ",
"c < 1 < 1 < 1 4 % : * ; v b * & 1 > * * H &.< < K ..k < * 2 c f f > 2 ; * , , V _ / / Y c C 1 b K %.O.% % > ; ; 2 h > 4 , 1 m c ",
"c c < < < < * % ; % 2 x a h x * z ] v d W O.b d ] c < 2 2 < < c | c * ; < 2 & * 2 d } Y { a E I z * * 2 1 % ; i * m d , 2 c h 2 ",
"c c c < * * * 2 ; j z : c % * x & 2 2 g b G ) h v & % , z , 1 2 { { < < , 2 * > s 2 > h { b z ; 2 ; * ; * ; x & < 2 v p < c $ , ",
"1 * < < 1 < < * x G { 3 2 < b x b 4 z b x k ) b a { X.{ c < & , i m 2 < 2 x s z 1 @ 1 5 ; * ; 2 % % % < z < x f k , 2 v 2 e 5 < ",
"< < 1 < c c c < * ! P a 2 f k c 2 2 * 2 ; b b b ! R k & < < c x > s s * m v * < 4 z > , 1 4 @ i ; 2 w % c { Y O._ g 1 3 , 2 * k ",
"c 2 < 1 < 1 f v 4 ; K O.z x c ; , < ; : % d * < % s 2 ; 2 * h k z < 2 z m s < 1 ] ) ^ ) > 4 1 ; c c * * 2 ; > | / O.2 , p % n ~ ",
"; * < * * < < > 2 , h W v z s 2 < & * 1 % * : * ; 2 : ; 5 v b z z < & V s > < 2 k Y ' Y A > * < j ) x 1 * ; % > g ! } & p Q &.&.",
"< 2 & ; 1 , < v K / c h g } ` ^ { n > > C * % ; ; ; & & > < < 2 1 2 < m > > v , h a #.{ n  .i z ^ O.> * s 2 | R x * < c ] Q ^ h ",
"< b < < 2 1 < , < | | b G +.( W , ; ; # V z % & % , 1 * * , 2 2 z c & 2 & b f z > s c { b ; < W } Y 4 : b R _ U & > & { | R R & ",
"* c < * < c c m & i z z W G b % z o z s $ c C ; , ; 1 1 < , , 1 ; v 2 s c m s * ; : & T R a x R v , & & o./ W c v v < c h a % z ",
"b < 1 c < 1 c v x z ; * h < ; 5 @ > * % < 2 * z * 1 1 < > z < s h * s z x & M 2 & M < i k f c s % 2 > > z k a x ; 5 2 % , v * z ",
"< < < c c < < < * 2 1 1 s ; = * 5 v c s 2 ; x > * 2 s v x 2 2 < < 2 e z i ; o.<.+.{ , 2 < * < , 1 < 5 * 2 O f 9 ; @ * z ; ; : 2 ",
"c 1 < 1 c < < * 1 @ < & m 4 z i 1 2 c d c z  .& 2 x a & < & C s _ v % * * o.i J Q j * z 1 , 2 B V b ; 2 | s > = 1 s s s 2 ; 2 > ",
"c c < < < < < * < s * % { b * i * > 1 2 V & I _ , c & p > < v * <.F m > { v | E z > d ; & % < * b R p z ..~ * & f { b * d v c > ",
"h c < 1 c c c 2 v | x ; c f * | b > < 2 < & g &., s h X.v z * < H | I v i S #.% w s f x V > ; 1 # z j $ Q +.} 1 W b 2 2 V c < , ",
"* c 1 c c c < , ; g W v * $ v k 3 , m I / &.f B < c %.k % , z * #.a | c & i s w > T a s 1 1 % ; s * : x * c Y % W % 1 1 , i , 4 ",
",.& ; 2 < < < 2 1 2 * C V * ; ; 1 c m > k &.O.g > } ] s s < & 2 f c m v % < & 2 , 2 % * 1 ; , * $ 2 < | s ; v k ; W L D $.; z 2 ",
",.,.& 2 2 < < * $ < % $ < * * % # 2 * 1 < a } m * z z , * , 1 1 i z x , z & 2 1 1 4 1 # 1 2 1 * ; & } ) / U b z { 1.G & ; * b s ",
"[ [ ,.,.b * < * v z < $ * # , c * @ 2 4 ; 2 < ; < > , < , 2 > % V 8.t.e.e.e.r.w.0.6.9.t.6.9.9.9.z * i a G ) W h U l ; M 1 f h > ",
"[ y y 7 7 y 1 z z v V x 5 z < c m $ * 1 1 * ; 4 2 * z < , 2 2 * *                               * z ; z d I } V R f z V c b * * ",
"y y y 7 . . . * $ * z * * 1 s c v * 1 < < * , > ; ; ; ; * ; ; ; 4                               m % 3 9 ; > $ x 2 * ; > < z 1 : ",
"y y 7 7 7 . 7 * * % , s 2 * * < h , z < > % * , ; ; % < x , % * ;             :.c.c.r.          b b 2 2 1 s s * < z z * * 2 ; % ",
"y 7 7 7 7 6 7 z z v c f > < v < > 2 * n f , 1 1 , * , d V 2 * ; 4           v.q q t 0 c.        * z % | R % 1 4 < * * z z ; ; 2 ",
"y 7 7 7 7 6 7 z * s c { b > c c > 1 V d #.v.z.l.x.x.c.v.j.j.c.b.l.        3.c.z.c.c.c.0 i.      2 2 z k } 2 z & c < ; b d * * % ",
"y 7 7 7 7 6 7 > > Y F _ T > | g > I W R < j.x.b.q.d.s.a.y.y.c.l.l.        b.l.l.c.c.c.-.l.      & } H T 2 ; e x v , , 2 V 2 % * ",
"7 7 7 6 6 6 7 c ; : m Y _ a * w { R ~ ~ ..j.c.h.l.s.f.k.h.j.z.p.0.        z.c.g.u.t.i.a.g.      #.} ~ <.Y % % b v < & $ * * * 2 ",
"7 7 7 7 7 7 < c V s + r * | > c b 1.~ f % * z x 2 x * < x , 2 i d         :.j.g.c.x.c.X p.      * % z $ z 9 z & < , s & 2 < , 2 ",
"7 7 7 7 7 1 2 < & s > d m V m p T { & $ 4 : + s * * z , ; 3 d G V           f.;.=.-.=.s.        & v ; 2 2 * b ; < , 2 * 2 1 , c ",
"c c < , < < c < : a ( ~ R & v * ; & % ; = : z ; n a f | > & *.K h             u l.l.>.          < i h > & G f z 3 1 ; 2 2 2 < c ",
"c < 1 < c c < 2 z { Y x 2 < % 4 ; ; c b b * ; $ < B 2 l ] < < X.c                               2 * ..2 < *.> * 2 ; # , ; , < n ",
"< 1 < c c c > 1 % ; z & % 5 1 2 2 b c $ > * % ; < 2 s | } < 2 , 4 4.7.7.>.5.7.5.6.7.5.5.7.4.6.2.< m I o.j g V 4 > > , 2 1 2 % > ",
", < < < , 1 1 * < c c V , > < < c b ; 2 1 2 v f h 1 ; & > * 1 2 > V > X.C , c , < , 2 , & , b $.^ I c ..f M h D o...k > @ 1 2 V ",
"* 1 c < < < < ; i ; < n c 3 < < 2 & 2 w , k c B c ; f < ; k ' 1 p ; z _ k > 4 < 2 , < v & s 2 * f 1.G a m m R ` v 1 2 > , 2 c c ",
"E c c 1 1 c c % < 4 1 > c , & ( ' ^ G i < 2 % c c z < 2 g ) O.> { R a o.; 2 , d m 1 > } z z m ; z s W W d < #.f , 1 ; * 1 , z 2 ",
"E c < < c b < $ ; O.a ; 1 > } D ^ I C z * ; 1 % a c 2 1 _ } , % R _ R k h / _ R * > > #.f m % 2 ; < m c v & 2 < > 2 1 ; < < 2 2 ",
"< E < 1 < ; * : & J <.V 3  .g } Y b < $ n v 4 ; M % > < Y b 1 z & j O.f 2 % < : 2 > & < b c $ c f z ; ; z * % 2 2 c 1 1 < 2 * < ",
"1 < < < < * ; ; s E H Y i z f E & z * i v ; # s I ~ I 3 > z % < 3 % m c , ; < * * ; z X.& & ..b s < 2 3 , < ; ; ; h b 2 , 2 , g ",
"` * c c < * * * ; ; b H i ; #.E : < ; 2 % & } <.^ G W w , R <.X.' > $ 2 > 1 * 2 * * z V  .c T & * * < > b s > ; ; > h m 2 2 b _ ",
"1 * 1 c c < * < ; : i v V i % i U | V ; 8 * * ; e ; p % ../ K n ; 1 5 1 # 8 > g 1 & * * c b 1 s 3 * < f b ; z ; ; ; < c 2 , ..&.",
"1 < < < c c < 1 % z ; ; % z : b I <.L I & & s , c c h 1 1 4 , , 1 3 $ # > ; > V x < % > 1 * 2 * * < < v V * ; > @ 4 2 < , h &.g ",
"< c < < & ; 2 4 * * & % s < 2 ; ; * % ; 3 ; 2 V c 2 4 2 2 * s 1 2 x , < < ; 2 & m * z | ; i % ; * < 2 z c 2 e , , * 3 V * c  .i ",
"1 c & c c b < < - : : : * * * * = 2 2 2 + * 2 > < a * 1 2 < 5 > i k c < < c $.* * > R O.1 : * 2 2 v 2 * > > V 2 2 , c h i d s * ",
"c 1 1 E E 2 ; s f b s z * ; * 2 * % ; * ; 2 % b , h m < * 2 ; i N s k c 1 & k Y k a O.b < 2 % = 1 V c 2 < p I & , m f c & * 2 : ",
"< < < < < * z g c z 2 * 1 2 * % * 2 * * * , m f * 5 c i 2 ; m & 2 * * > * 4 a ) { c Y < p 2 , 1 < < h h < b &.Z < c * z * * * * ",
"/ ` E 1 < < * & s & < 1 V V c > s ; * 2 z i f | 1 ; V % z d h 2 ^ n 1 , ] c % , I m c x U ] b ; > * < h 2 V ) ` z & i < < z 2 * ",
"/ T I E 1 E E +.( W s % % < z c z < * m % * @.& # < 4 2 T b v , ^ &.s V % W | z z s p v c 1 2 > * 3 2 > 4 w p ^ & h | O.W b c > ",
"c E E c < c c G ; 4 ; ; * 2 z v v * * V b < ; * < > > s T  .z * ..A k 2 2 & o.W v b z x > % 4 % = 2 , < h c c ..v #.| ( a $ z < ",
"; c E < ; c E * % < s ; * * * < < * > b { s $ x } ..W Y s , > ; Y c z * 2 2 1 & b f 4 1 , $ 3 * 1 h k } K P } c d k g c ; e ; ; ",
"< 1 s c c 1 * : R R f < 1 ; 1 > = s , > Q } * Y / / k ; z < % 9 % m < 2 < O z z > c 2 , , 1 1 * z < < < > z v v ; * z 2 ; $ * ; ",
"< E ` E < 1 * I h c & v * * < | x $ < < 4 ; s Y O.% % | D b C i 2 { 2 * ; * * * 1 1 , * 2 < 5 , ; * , 2 z s ; $ % # : & < z x 2 ",
"z E s 1 < < < > & s < x 2 % > S I : e k G ^ ~ c 2 % X.+.~ +.l & d { s % ; 4 ; * ; 1 , , ; < c < 1 ; # ; 2 * % 2 c * ; ; * z V * ",
"< < < z s z < M ; 4 c @ ; ; > } W s a J &.! H | 2 & E a | I i ; s s , * 1 v * 1 ; 1 1 1 * d d m * 2 ; ; 2 # 2 c V & * * < < 2 & ",
"< 1 s z < 2 < % ; z s < * ; & { > e w v R ) ! A b 2 z f { 1 1 ; & * * ; z V & < 1 * z < 2 1 , v < 2 < $ % * m x z z ; * 2 * * * ",
"1 < c , < * c b & s c < # 4 s * < , * z > > M 2 @ 1 2 z 2 * * % 4 2 z * * b f s 2 > b > < 1 2 < x i & < < > v 2 * z 2 * z 2 ; 2 ",
"2 < < < * 2 * x : i s * * 2 V & w * s I Y % 4 % 4 > * * ; z $ z 2 & 2 ; * x z z 2 < c f * 2 V & z & s m { i < * s * & ; s * ; ; ",
"< 1 1 , * < 2 m 1 * < @.% < x b > < v a #.; 2 < c < < c v ; ; ; < ; * % * z * b 2 , % $.% < m c ; z c l { > d ; C > < c b % * 3 "
};
