/* XPM */
static char *_7357_d998b54537fe83bc94d97c813d039cf59ab9f84d864f1ee388c65fde56a12f10[] = {
/* columns rows colors chars-per-pixel */
"64 64 190 2 ",
"   c #020101",
".  c #010A00",
"X  c #160202",
"o  c #081103",
"O  c #10110E",
"+  c #090A14",
"@  c #131C17",
"#  c #270000",
"$  c #330100",
"%  c #281010",
"&  c #0E2901",
"*  c #132A03",
"=  c #152A0A",
"-  c #163403",
";  c #1A3205",
":  c #1F3804",
">  c #1B320B",
",  c #17380D",
"<  c #1F3113",
"1  c #36260B",
"2  c #382908",
"3  c #233502",
"4  c #233D03",
"5  c #27310C",
"6  c #223A0B",
"7  c #353403",
"8  c #222413",
"9  c #22251F",
"0  c #382913",
"q  c #253114",
"w  c #223C13",
"e  c #2D3816",
"r  c #29391B",
"t  c #333410",
"y  c #241527",
"u  c #341C27",
"i  c #312222",
"p  c #302F27",
"a  c #353733",
"s  c #450303",
"d  c #431508",
"f  c #521F04",
"g  c #561314",
"h  c #76151C",
"j  c #462807",
"k  c #40300D",
"l  c #4E2314",
"z  c #53201F",
"x  c #443414",
"c  c #663319",
"v  c #691822",
"b  c #4A3820",
"n  c #533925",
"m  c #4D2B32",
"M  c #4A3335",
"N  c #692521",
"B  c #7A2322",
"V  c #7E2A2E",
"C  c #673424",
"Z  c #783121",
"A  c #7B382C",
"S  c #18410E",
"D  c #254005",
"F  c #2C4206",
"G  c #2F4903",
"H  c #27400C",
"J  c #2E4A0C",
"K  c #35500E",
"L  c #2A4114",
"P  c #294A15",
"I  c #2D431C",
"U  c #284B1C",
"Y  c #334712",
"T  c #314A15",
"R  c #36431E",
"E  c #354C1F",
"W  c #375114",
"Q  c #34511E",
"!  c #304424",
"~  c #364B24",
"^  c #395224",
"/  c #3D542D",
"(  c #384432",
")  c #444314",
"_  c #4A4A24",
"`  c #534021",
"'  c #445D22",
"]  c #455D2A",
"[  c #444238",
"{  c #6E4128",
"}  c #436422",
"|  c #4A6321",
" . c #4A6428",
".. c #4D692B",
"X. c #526825",
"o. c #4B6331",
"O. c #436930",
"+. c #536B32",
"@. c #506638",
"#. c #546A3C",
"$. c #4D783A",
"%. c #557330",
"&. c #5A7331",
"*. c #5B7439",
"=. c #676E38",
"-. c #627835",
";. c #3D3A40",
":. c #454546",
">. c #574445",
",. c #595244",
"<. c #4D4F50",
"1. c #565555",
"2. c #6F4C48",
"3. c #7A4841",
"4. c #665554",
"5. c #5C7540",
"6. c #637B43",
"7. c #7C6857",
"8. c #5D5C61",
"9. c #695E63",
"0. c #6C6668",
"q. c #767070",
"w. c #881B19",
"e. c #9D1522",
"r. c #AB1720",
"t. c #A41E25",
"y. c #AA1A26",
"u. c #B31729",
"i. c #B31C28",
"p. c #B41F30",
"a. c #892724",
"s. c #8C2925",
"d. c #88252E",
"f. c #992223",
"g. c #9B2129",
"h. c #96282D",
"j. c #873024",
"k. c #9C332A",
"l. c #992532",
"z. c #883331",
"x. c #983436",
"c. c #A82224",
"v. c #AC2A2D",
"b. c #A52130",
"n. c #B52730",
"m. c #BB2435",
"M. c #A83337",
"N. c #A53F38",
"B. c #B53235",
"V. c #BE353B",
"C. c #C52435",
"Z. c #CA3336",
"A. c #C43539",
"S. c #CE3039",
"D. c #D1383D",
"F. c #914C37",
"G. c #993544",
"H. c #AB2D42",
"J. c #B93541",
"K. c #C73541",
"L. c #935249",
"P. c #9A5B5D",
"I. c #B5494B",
"U. c #886858",
"Y. c #9A645C",
"T. c #A7635B",
"R. c #AD7757",
"E. c #A55D61",
"W. c #996667",
"Q. c #95696B",
"!. c #8E7B74",
"~. c #A86F73",
"^. c #C94547",
"/. c #D74C55",
"(. c #E35D60",
"). c #D4696E",
"_. c #E66568",
"`. c #7F8778",
"'. c #88857C",
"]. c #918579",
"[. c #9D7E83",
"{. c #8A8684",
"}. c #958D89",
"|. c #9B9A9B",
" X c #B99E9A",
".X c #B2A39A",
"XX c #AE9FA3",
"oX c #B3A3A5",
"OX c #D69E9F",
"+X c #DDB7B9",
/* pixels */
"> ; q 6 * w q 5 6 W } $.O.: | ) 3 T *.' 4 D : T Q H > w ! r 1 1 d l j d f g j j : O.O.$.O.; X.G D | } } 4 4 : ~ I L 6 , P , > , ",
"w H 6 q > , w 5 5 4 4 O.%.W D ; ^ P H E Y 6 - ^ I 5 x p < w 8 7.U.U.7.7.U.U.U.7.^ w w @.+.) 7 J | X.%.-.+.4 : I I 5 > > H ; - H ",
": 6 T w S , > > 5 6 6 6 H > : L , < , L - , L ; r 0 d 7.7.`.`.'.{.[.'.'.{.'.!.'.'.q.].].Q.U.2.L.f j 4 4 > 5 w L L < = 5 e q < H ",
"^ T E w U S , , 6 * w > > < L , > L , > P E , e 0 z E.E.]..X}.|.|.|.|.|.}.{.{.'.{.}.[.[.~.[.).~.L.F.` ` n 2 5 > ; 6 5 e q w w P ",
"O.I 6 3 e Q H S w > , , , * = = > > w w - ^ Y 2 !.W.P.W. X.X.X.XXXXXoXoXXXoXoXoXXXoXXX X+X+X+XOX~.I.G.d.d.g k 5 ; 6 w R > : w ~ ",
"T : 6 5 J P 6 Y x ` 1 1 0 x 0 i 1 2 2 2 2 x C T.T.L.V V P.E.Y.W.Q.Q.Q.Q.Q.Q.Q.Q.W.Q.W.W.~.W.~.W.d.k.t.y.t.a.Z f 2 5 t ) Q 6 : E ",
"> L T T P : ) c h M.M.M.x.F.x.x.x.N.I.I.N.I.N.A.c.f.e.f.s.d.l.l.d.z.z.d.x.h.h.x.x.k.l.l.M.M.b.J.M.H.m.K.p.v.v.k.Z l j ) Q w 3 : ",
"H 5 5 4 ) 2 F.N.B.A.K.K.I.).).(._./.A.A.Z.A.Z.S.C.A.n.B.M.B.A.A.B.N.M.B.V.n.^._._._./.(./.J.J.).J.J.K.K.J.m.K.m.B.k.Z j Y 4 6 T ",
"~ ; 7 j f F.B.K.D.B.h.V A z.x.^.K./.S.S.C.Z.Z.Z.Z.A.A.V.A.A.S.S.V.A.V.V.A.A.A.^.^.^.N.D.K.J.J.I.h.B B j.e.J.K.A.Z.B.f.z.j 4 Q P ",
"~ _ j L.N.B.K.p.e.a.s X # # N z.H.m.C.C.C.Z.D.Z.A.A.J.V.A.A.S.S.A.m.n.y.u.i.u.t.f.c.c.c.n.J.).G.g $ X X N s.H.V.Z.^.^.s.j Q P S ",
"R x C g.A.S.J.l.v d l M i   2.z h l.p.C.y.y.r.r.y.f.t.t.g.c.t.r.y.y.t.y.c.y.y.y.t.t.r.y.y.l.a.g l + [ % n $ h J.D.C.H.z.j ! - S ",
"L x N w.p.m.b.h $ :.  ;.;.@   M $ V e.H.i.y.r.c.c.c.t.t.t.t.t.c.r.y.y.b.y.y.r.r.e.c.y.t.l.G.# [ X O ,.i 8 4.$ G.V.J.b.z.1 H H , ",
"> 2 j g h.h.h.z i ;.@ <.;.<.y m % N l.m.p.u.y.y.t.c.u.u.u.r.r.y.y.i.n.p.p.i.i.i.n.u.i.n.v.N % i X i 1.1.y 4.g N H.H.x.{ 2 4 t W ",
"^ t n $ h l.V g >.9 :.1.q.q.1.M [ $ h.t.p.n.m.v.v.v.i.m.C.m.n.n.n.n.n.n.p.p.m.n.r.n.v.v.l.# 4.9 a 0.9.0.1.0 2.g d.h.Z f 7 H 7 =.",
"> > 8 d h l.d.g >.:.<.0.4.9.>.>.n $ B e.b.b.v.n.v.v.n.n.i.n.v.v.v.v.t.y.y.y.t.c.c.c.w.f.V # 1.:.<.0.8.0.2.M 4.0 N C ` 7 K &.-.-.",
", 4 5 2 Z v d.$ a a O >.>.4.9 9 8 n N B Z B j.s.j.s.s.s.s.s.j.j.Z j.s.s.s.s.s.Z j.j.j.Z l 7.9 9 + p 1.1.0 [ i _ n k 7 ) | | -.G ",
": ~ 6 5 2 k k i = [ o a a   . [   q 1 1 b ` 1 1 1 k 1 1 1 1 k j x b 2 x 2 ` x 0 j x ) _ ) 5 . (   @ :.@ 8 ,.  5.< 5 4 o.......: ",
"H L 3 6 H ^ ! _ e @ 8 ( a   <.a q = w r > w Q > w > q > q q 6 6 > I 6 6 J T T 3 3 4 5 &.] w ! ( a O :.@ [ . #.I ~ L H T T H 4 H ",
"H H H T 6 6 w ( ! p o q 8 @ q 9 = w w ; 6 6 6 6 ; 6 > w 4 r 6 6 E 4 H Y E 4 T 4 D : 6 w ! ~ ~ q o 9 9 9 r R ~ T 3 H : m m m m m ",
"H 6 4 ~ T w 6 w > > I < I q < < r I ^ 6 4 : T 4 3 6 L E L w w 6 4 4 : H 6 3 +.*.+...6 6 w > 6 w r q q w > 6 > 4 m m m m m m m m ",
"P H 6 w R H w ; ; > ; 6 Q > L r w 6 E T T 3 ..4 4 T R.R.R.R.R.R.R.R.R.R.6 #.H *.+.Y : : L > 6 ~ ! ! t w R.R.R.R.m m m m m m m m ",
"E E 6 6 6 ; S 6 w 4 > : o.T 6 : 6 6 6 4 T 4  .&.4 R.R.R.3.3.3.R.R.3.3.R.R.R.+. .Y 4 S : S ; w R.R.R.R.R.R.R.R.m m m m m m m m 3.",
"E E > H T Q P 6 P o.^ & ^ T - #.I w ; 3 4 : W R.3.R.3.3.R.3.R.u m R.R.R.R.R.R.R.L ; W R.R.R.R.R.R.R.3.R.R.m R.m m m m m m m 3.3.",
"- U 6 E T Q 3 6 ; Q ] Q - - T L 6 6 Y @.*.*.R.R.R.3.3.3.3.3.R.u m R.R.R.R.R.R.R.R.R.R.R.R.R.3.3.3.R.3.3.m m m m m m m m 3.3.3.m ",
"> 6 4 > 6 6 3 6 4 6 6 ~ ~ - - 6 r R L H R.R.3.3.3.3.3.3.3.3.u m R.R.R.R.R.R.R.R.R.R.R.R.R.R.R.R.3.3.3.3.m m m m m m 3.3.3.3.3.3.",
"H  .H 6 6 4 6 6 ; 6 ; ; > 6 > ; * 6 m u u m m 3.3.y y y 3.3.m R.R.R.3.R.R.R.R.R.R.R.R.3.3.3.3.R.R.3.m m m m m m m m 3.3.3.m m 3.",
"e ..6 Y E : L 6 E L 6 ; > & 6 ~ 6 + + + u m m m 3.3.3.3.3.3.3.3.3.R.R.3.R.R.R.R.3.3.R.R.3.3.3.3.3.m m m m m m m m m m 3.3.3.m m ",
"6 H 5 r ~ T , w 6 E ~ I L L < E ! u + u u u m m 3.m m 3.3.3.3.3.3.R.R.3.3.3.3.R.R.3.3.R.3.3.3.3.3.m 3.3.m m m 3.3.3.3.3.3.3.3.3.",
"4 > 6 6 6 ~ : > > 6 q > > H L I ~ u y u u u u m m m 3.3.3.3.3.3.R.R.3.3.3.3.R.R.R.3.3.3.3.3.3.3.3.3.3.m m m m 3.3.3.3.3.3.3.3.3.",
"6 6 w S ; 6 L , ; > 6 w 6 6 6 6 E u y u u u u m m m 3.3.3.3.3.3.3.3.3.3.3.3.3.R.3.3.3.3.3.3.3.3.3.3.3.m m m m m m 3.3.3.m m 3.3.",
"w , > L , > 6 L 6 E Q P > 6 T 6 6 u y u u u u m m 3.3.m 3.3.3.3.3.3.3.3.3.3.3.R.3.3.3.3.3.3.3.3.3.3.3.3.m m m 3.m 3.3.3.3.m m 3.",
"> w , ; ; w - L 3 6 P ..Q 4 T T 3 u y y y u u u m m m m 3.3.3.3.3.3.3.3.3.3.3.3.3.3.3.3.3.3.3.3.3.3.m 3.3.m m 3.3.3.3.3.3.3.3.3.",
"> H 6 > , > 6 6 6  ...*. .: ..J D ' u u u u u u u u m m m L.m m 3.3.3.3.3.3.3.3.3.3.3.3.3.3.3.3.3.3.m m m m m m 3.3.3.3.3.3.3.3.",
"L r w > q > w E 4 D T  .*.J 4 D ..X.+.u u u u u u u u u u m m { 3.3.3.3.3.3.3.3.3.3.3.3.3.3.3.3.3.3.3.3.m m 3.3.3.3.3.3.3.m 3.3.",
"I U 6 6 - ; 6 Y T H & 4 : ..H L G %.&.S ; ; > ~ w q : u u u u m m 3.m 3.3.3.3.3.3.3.3.3.3.3.3.3.3.3.m m m m m 3.m m 3.3.3.m m 3.",
"E E L > 6 , w H : : 4 Y P Q T P ..} H - 6 > > r w , 6 4 , : u u m m m 3.3.3.3.3.3.3.3.3.3.3.3.3.3.3.3.m m m m m m 3.3.3.3.3.m m ",
"~ T 6 ; w w L 6 6 , 6.5.o.- E > ; , ; q > < , L ~ T Y | 4 : -.u m m 3.3.m 3.3.3.3.3.3.3.3.3.3.3.3.3.3.m m m m 3.3.3.3.3.3.3.3.3.",
"L : , L ~ T w 6 H @.@.r L w = L S L ~ ~ ~ w > - ; Q J W X.: : X.m m m m 3.3.m 3.3.3.3.3.3.3.3.3.3.m 3.3.3.m m m 3.3.3.3.3.3.3.3.",
"6 4 : T ~ U 6 6 ; 6 6 , > H > 6 S P P 3 6 ; 3 - 4 6 H ] o.6 6 6 6 m m m 3.m m 3.3.m 3.3.3.3.3.3.3.m m m 3.m u m m 3.3.m m 3.m m ",
"6 4 6 , 6 6 > ; 6 T E W D ; H : J K H - H H w Q E - 6 : 6 : w 6 3 K m m m m 3.3.m m 3.3.3.3.m 3.3.3.m m m m u u m m 3.m m 3.3.m ",
"4 6 R 6 L > 6 - : : : Q L D H : 4 - : H > ^ ~ E T 6 Y 6 : T *.: 4 : D *.m m 3.3.m 3.3.3.3.3.m m M { m m u m u u m m m m m 3.3.m ",
"@.Y Q 6 - ~ E ; 6 H 6 : K : : &.*.*.] H 6 , < ~ ~ w > 6 W *.&.D ..| K &.: m m m m m 3.m m 3.3.m m m m m u u u u u m m u m m 3.m ",
"O.^ ; w ~ ~ 6 ; : 5.J : : : +.} %.} W H ; ; , - L E 6 4 *.o.4 :  .%. .J Y 5.m m m m 3.m m m m m m u m u u u u u u u u u u m m m ",
"; @.6 ; 6 , - 6 6 *.5.T D ..J ..O.W 4 3 ^ E > 6 H 3 H :  .T 3 6 : K *.K H : : m m m m m m m u u u u u u u u * w w u u u u u u u ",
": 6 H w > > - ; 6 ] ....: : L ..: 6 6 : Y 3 - H ] +. .: 4 D - D : : Q Y - 6 - : y y m m m u u u I q w w 6 w 5 q > E ~ w : 6 : W ",
"5.L H E r ; 6 > - : ~ o.H H +.o.S : H 6 , : ..6.*.| | D 4 | 6.+.*.D > : L ; = + + + y m m u u y q 6 w < ^ w < > > w E ~ : 4 K *.",
": : 6 T I 6 , 6 - 6 4 E ^ 4 : : } ..L : : ; ; > H - H : X.&.&.^ 6 , L ; , > L + + y m m u u y y 6 ; 6 L ~ 6 Y > > > 6 Y 4 D +.-.",
"6 - 6 6 E E 6 w H r > , > L 6 T O.*.*. .: : L > E T T : 6 H 3 : : > ; > < w > y y y y u u y y ; 3 3 4 ~ I ; q w ; w 6 6 : J -.G ",
"D Y 6 H - w 6 H - > > L < L < > > , ; ; : > 6 E Y 6 : H 6 > H : 6 I 6 6 6 ; y y y y y y y S < > 6 6 6 w T w w q < > w E 6 Y o.y ",
"4 Q 4 P ~ ^ > > > 6 , w , , = > - < L < & ; L 6 6 T ; ; L > L , 6 E U 6 w y y y y y y %.4 ; > w 6 ! 6 ; 6 r ^ r w 6 I E : y y y ",
"K : 4 o.o.: 6 w I I E < w > > 6 , > r > > w ; ~ > E ^ H : w > w Y H E E 6 y y y y + %.Q 6 6 > , 6 ^ T L 6 6  .3 4 ^ Y E y y y y ",
"D D : 6 H : : T ~ H 6 - 6 6 w , < w = > > S Q T > I I S : 4 ^ > 4 : D 6 ; H + + + + ..F H H > > 6 w Y Y 3 W 6.' 3 J : H y y y y ",
"*.*...: : : 6 4 H 6 ; > I ~ E S w > < w L 6 P ..H ; E ; H Y E H %.T H : ^ T + + + K J Y  .] ~ > > > w Y 4 K &.&.4 4 4 4 ; H 6 w ",
"*.| '  .D  .o.*.5.] T - ; 6 Y E w > - ~ ; > o.D : : : D } Q P : %.6.H T - o.@.Y H L J K P H H > 6 6 6 3 D 3 G -.: G ..5...! I w ",
"K  ...J D T W ] - ; ; 4 : H H I E w > E E H > ; 4 : : H ] o.H : +.' W J L : 5.@.Y ~ H P H ; 6 > = w 6 6 J W J X.K X.X.+.T > w w ",
"- K | : - T ..: > 4 6 6 - > > 6 > H 4 Y ] H ; 6 ....@.o.6 6 : 4  .J D - > 6 : 6 E T 6 4 6 > 6 > > ~ E @.*.*. .J G W W T 6 w * q ",
": 4 6 T T 6 ; > o.o.E , > ; S w ; P 3 : +. .4 ..*.%.J - H D - D : T 4 6 4 & w 6 w E r ; 6 H 6 ; w > w H : Y E T : 3 6 w 6 * > w ",
"4 o.*. .H ; H ..E ~ > I ; ; 6 @.w - 4 4 D > 3 ..*.: ; +. .T W : 6 ..H ; > ; > 6 w S < - w > w > = : 6 6 w w 6 ; > ; w 6 6 6 I w ",
"Y ' T 6 : P ; > > L w I 6 * > o.] 4 H P ' *.+.K D : +.-.#.*.' : L O.6 * > w > > 6 > > > > w ~ w 6 4 ; ; w ; = w ! * q : r w R > ",
"> S 6 6 H L > L 6 H L ; > > L @.o.D P 5.6.+.} ..: :  .P +. .H ; H L 6 : L I > 6 > 5 6 w > L I E > 6 > > 5 > r ~ / < = < 6 w w > ",
"w 6 w L w 6 > > w L L 6 - ; H ..H H : ^ ] %.+.} W H H P o.4 : > , > 6 > 6 E w 6 w ; L S 6 6 6 ~ 4 6 6 3 ; ; ~ I R w q > L > > > ",
"6 6 I L 6 6 ~ ~ 6 S I 6 > : > 6 : : ; T : : D D - : 6 H H > > > w 6 L > > Q L 6 6 : ^ > H 6 > 6 I 4 6 6 r 6 E w > w > ; w > : q ",
"w 6 > 6 ; 6 w I 6 6 w > - H E : H > H  .o.: 6 : 4 4 : : w , ; w q w 6 , ; T T L , D E I ; 6 E 4 Y 6 6 ] o.6 6 3 6 6 6 6 w > 6 q ",
"> 6 ; 6 > 6 6 ~ 6 > 6  .- : Y ~ > H L I @.: 6 6 T D > E ( > = , w r < > ; 6 4 Q H : : #.- 3 ~ Y ; w Y ~ o.4 6 4 ~ 3 6 E Q > ; > "
};
