/* XPM */
static char *_481_546a111c0c582634ad4c67470128656fd5b8e69dfbc996f0101751d06e890666[] = {
/* columns rows colors chars-per-pixel */
"64 64 191 2 ",
"   c #020101",
".  c #010A00",
"X  c #160203",
"o  c #081103",
"O  c #10100E",
"+  c #090A14",
"@  c #131C17",
"#  c #270000",
"$  c #330100",
"%  c #281010",
"&  c #0E2901",
"*  c #132A03",
"=  c #152A0A",
"-  c #163403",
";  c #1A3205",
":  c #1F3804",
">  c #1B320B",
",  c #17380D",
"<  c #1F3113",
"1  c #36260B",
"2  c #382908",
"3  c #233502",
"4  c #233C03",
"5  c #27310C",
"6  c #223A0B",
"7  c #353403",
"8  c #222413",
"9  c #22251F",
"0  c #382913",
"q  c #253114",
"w  c #223C13",
"e  c #2D3816",
"r  c #29391B",
"t  c #333410",
"y  c #241527",
"u  c #341C27",
"i  c #312222",
"p  c #302F27",
"a  c #353733",
"s  c #450303",
"d  c #431508",
"f  c #521F04",
"g  c #561314",
"h  c #76151D",
"j  c #462807",
"k  c #40300D",
"l  c #4E2314",
"z  c #53201F",
"x  c #443414",
"c  c #663319",
"v  c #691822",
"b  c #4A3820",
"n  c #533925",
"m  c #4D2B32",
"M  c #4A3335",
"N  c #692521",
"B  c #7A2322",
"V  c #7E2A2E",
"C  c #673424",
"Z  c #783121",
"A  c #7B382C",
"S  c #18410E",
"D  c #254005",
"F  c #2C4206",
"G  c #2F4903",
"H  c #27400C",
"J  c #2E4A0C",
"K  c #35500E",
"L  c #2A4214",
"P  c #294A15",
"I  c #2D431C",
"U  c #284B1C",
"Y  c #334712",
"T  c #314A15",
"R  c #36431E",
"E  c #354C1F",
"W  c #375114",
"Q  c #35511E",
"!  c #304424",
"~  c #364B24",
"^  c #395224",
"/  c #3D542D",
"(  c #384432",
")  c #444314",
"_  c #4A4A24",
"`  c #534021",
"'  c #445E22",
"]  c #455E2A",
"[  c #444238",
"{  c #6E4128",
"}  c #436422",
"|  c #4A6321",
" . c #4A6428",
".. c #4D692B",
"X. c #526825",
"o. c #4B6331",
"O. c #436930",
"+. c #536B32",
"@. c #506638",
"#. c #546A3C",
"$. c #4D783A",
"%. c #557330",
"&. c #5A7331",
"*. c #5B7439",
"=. c #676E38",
"-. c #627835",
";. c #3D3A40",
":. c #454546",
">. c #574445",
",. c #585344",
"<. c #4D4F50",
"1. c #565555",
"2. c #6F4C48",
"3. c #7A4841",
"4. c #665554",
"5. c #5C7540",
"6. c #5E7B40",
"7. c #637B43",
"8. c #7C6857",
"9. c #5D5C61",
"0. c #695E63",
"q. c #6C6668",
"w. c #767070",
"e. c #881B19",
"r. c #9D1522",
"t. c #AB1720",
"y. c #A41E25",
"u. c #AA1A26",
"i. c #B31729",
"p. c #B31C28",
"a. c #B41F30",
"s. c #892724",
"d. c #8C2925",
"f. c #88252E",
"g. c #992223",
"h. c #9B2129",
"j. c #96282D",
"k. c #873024",
"l. c #9C332A",
"z. c #992532",
"x. c #883331",
"c. c #983436",
"v. c #A82224",
"b. c #AC2A2D",
"n. c #A52130",
"m. c #B52730",
"M. c #BB2435",
"N. c #A83337",
"B. c #A53F38",
"V. c #B53235",
"C. c #BE353B",
"Z. c #C52435",
"A. c #CA3336",
"S. c #C43539",
"D. c #CE3039",
"F. c #D1383D",
"G. c #914C37",
"H. c #993544",
"J. c #AB2D42",
"K. c #B93541",
"L. c #C73541",
"P. c #935249",
"I. c #9A5B5D",
"U. c #B5494B",
"Y. c #886858",
"T. c #9A645C",
"R. c #A7635B",
"E. c #AD7757",
"W. c #A55D61",
"Q. c #996667",
"!. c #95696B",
"~. c #8E7B74",
"^. c #A86F73",
"/. c #C94547",
"(. c #D74C55",
"). c #E35D61",
"_. c #D4696E",
"`. c #E66568",
"'. c #7F8778",
"]. c #88857C",
"[. c #918579",
"{. c #9D7E83",
"}. c #8A8684",
"|. c #958D89",
" X c #9B9A9B",
".X c #B99E9A",
"XX c #B2A39A",
"oX c #AE9FA3",
"OX c #B2A3A5",
"+X c #D69E9F",
"@X c #DDB7B9",
/* pixels */
"> ; q 6 * w q 5 6 W } $.O.: | ) 3 T +.' 4 4 : T Q 6 > w ! r 1 1 d f j d f g d j 4 O.O.$.O.: X.G D } } } 3 4 4 ~ I P 6 , P w ; - ",
"w H 6 q > , w 5 5 3 4 O.&.W D - ^ P 6 ^ Y e - ^ I 5 x p < w 8 8.Y.Y.8.8.Y.Y.Y.8.~ w w @.+.) 7 F | X.%.-.+.4 : I I 5 > > w - - H ",
"; 6 T w S , > > 5 6 6 6 6 6 : w , w H w - , L ; r 0 d 8.8.'.'.].}.|.].}.}.].].[.].w.[.[.!.Y.2.P.f j 4 4 w 5 L L w q = 5 e q < H ",
"Q Y ^ w U S , , 6 * w > ; w I , < S - 5 P T S e 0 z W.W.[.XX|. X X X X X|.}.}.].}.|.{.{.^.{._.^.P.G.` ` x 2 5 > ; 6 5 e q w w P ",
"O.I 6 3 L Q H S w > , , , * = = < - S w : Q Y 2 ~.Q.I.^..XXXXXXXoXoXOXoXoXoXoXOXoXOXoX.X@X@X@X+X^./.H.f.f.g 0 5 ; 6 6 R > ; w E ",
"T : 6 5 J P 6 Y x ` 1 1 0 x 0 u 1 1 0 t t x C R.R.P.V V I.I.T.Q.!.!.!.!.!.!.!.!.Q.!.Q.Q.^.Q.^.Q.f.c.n.u.y.s.Z f 2 5 t ) ^ 6 : E ",
"w L Y T P : ) c h N.N.N.c.G.c.c.c.B.U.K.B.U.B.S.v.g.r.g.s.f.z.z.f.x.x.f.c.j.j.c.c.l.z.z.N.N.n.K.N.J.m.L.p.b.b.l.Z l j ) Q H 3 6 ",
"6 5 5 4 ) 2 G.B.V.S.L.L.U._._.).`.(.S.S.A.A.A.D.Z.A.m.V.N.V.S.S.V.B.N.V.S.m./.`.`.`.(.).(.K.K._.K.K.L.L.K.M.L.M.V.l.Z j Y 6 6 T ",
"^ > 7 j f G.V.L.F.V.j.V A x.c./.L.(.D.D.Z.A.A.A.S.S.S.K.S.S.D.D.S.S.C.C.S.S.S./././.B.L.L.K.K.U.z.B B k.g.K.L.S.A.V.g.x.j 4 Q P ",
"~ ) j P.B.V.S.J.r.s.s X # # N x.J.M.Z.Z.Z.A.F.A.S.S.S.C.S.S.D.D.S.M.m.u.i.i.i.u.g.v.v.v.a.K._.H.g $ X X N d.J.V.A././.d.j Q P S ",
"~ x C h.D.D.K.z.v d l M u   2.z h z.p.Z.u.u.u.t.u.g.y.y.h.y.y.t.u.u.v.u.v.u.u.u.v.r.t.p.u.z.B z l + [ % n $ h C.F.Z.J.x.j R : S ",
"w x N e.a.M.n.h $ :.  ;.;.@   M $ V r.J.p.u.t.v.v.v.y.y.y.y.y.v.t.u.u.n.u.u.t.t.r.v.u.v.z.H.# >.X O ,.i 8 4.s H.K.K.n.x.1 6 H , ",
"6 2 j g j.j.j.g u ;.@ <.;.<.% M % N z.M.a.i.u.u.y.v.i.i.i.t.t.u.u.p.m.a.a.p.p.p.m.p.p.m.b.N % 0 X i 1.1.y 4.g N J.N.c.{ t 6 t W ",
"~ t n $ h z.V g >.p :.1.w.w.1.M [ $ j.y.a.m.M.b.b.b.p.M.Z.M.m.m.m.m.m.m.a.a.M.m.t.m.b.b.z.# 4.9 a q.0.q.1.i 2.g f.j.Z f 7 D 7 =.",
"; > 8 d h z.f.g >.:.<.q.4.0.>.>.n $ B r.n.n.b.m.b.b.m.m.p.m.b.b.b.b.v.u.u.u.y.y.v.v.e.g.V X 1.:.<.q.9.q.2.m 4.0 N C ` 7 K &.-.-.",
", 6 5 2 A v V $ p a + >.>.4.9 9 8 n N B Z B k.d.k.d.d.d.d.d.k.k.Z k.d.d.d.d.k.Z k.k.k.Z f 8.9 9 + p 1.1.0 [ i _ n k 7 ) | | -.G ",
"6 E H 5 1 k k i = [ o a a   . [   q 1 1 b ` 1 1 1 k 1 1 1 1 k j x x 2 x 2 ` x k 2 x ) _ ) 5 . (   @ :.@ 8 ,.. 5.8 > 3 o.......3 ",
"6 Y 3 6 H ~ ! _ e @ 8 ( a   <.a q = w L > w Q > w > q < w 5 6 6 > E 6 6 J T L : 3 D 7 +.] w ! ( a O :.@ M . 5.r ~ T H P T H 4 H ",
"H H H Y H 6 w ( ! p o q 8 @ q 9 > < w > 6 6 6 6 ; > > w > e H 6 ^ 4 H Y Q 3 I D D : H w I ~ ~ < o 9 9 9 e ~ Q T ; 6 D - : L 6 6 ",
"H 6 4 ~ T w 6 w > > I q I < < < r I ~ 6 D ; T 4 3 6 Y Q P w w 6 6 > : H 6 3 +.*.+...6 6 w < 6 w r q q w > 6 > 3 4 & - H H 6 : 6 ",
"P S : H I H w ; ; > ; 6 ~ > P L w 6 ! T T 3 ..6 3 T L 3 6 : ^ 3 &.K 3 : 6 #.H *.+.T 4 ; L 5 > ^ r ~ e w @.6 ; 6 , H H H E.E.E.E.",
"E ! L 6 6 ; 6 6 S : 6 ; o.T 6 ; 6 6 6 4 W : | &.: W 4 H 3 6 Q 3 *.X.E.E.E.E.E.E.E.E.E.E.S ; w - E o.Y 3 ] *.L E.E.E.E.E.E.E.E.m ",
"E E > H T Q P 6 Y o.^ & ^ T ; #.I w ; 4 D 3 W +.3 D Y #.E P > 6  .E.E.E.3.3.3.E.E.3.3.E.E.E.- w > F Y E.E.E.E.E.E.E.3.E.E.m E.m ",
"; U 6 E T Q : 6 - Q ] ~ - - T L 6 6 Y @.*.*.J K 6 Y 5.W 6 > w E.3.E.3.3.E.3.E.u m E.E.E.E.E.E.E.e ; E.E.E.E.3.{ 3.E.3.3.m m m m ",
"6 6 4 6 6 H 3 6 4 6 6 E E - ; : e R L H F *.*.Y 4 ..] I 6 ; E.E.E.3.3.3.3.3.E.u m E.E.E.E.E.E.E.E.E.E.E.E.E.E.E.3.3.3.3.m m m m ",
"6  .6 6 6 3 6 6 ; 6 ; ; > 6 6 ; - 6 L 6 6 W ] W 3 H 6 > E.E.3.3.3.3.3.3.3.3.u m E.E.E.E.E.E.E.E.E.E.E.3.3.3.3.E.E.3.m m m m m m ",
"e ..6 Y ~ ; L 6 E L 6 * > * 6 ^ > ; 6 : 4 : H 3 6 ; m u u m m 3.3.y y y 3.3.m E.E.E.3.E.E.E.E.E.E.E.E.E.3.3.3.3.3.m m m m m m m ",
"6 H 5 r ~ T 6 6 6 ^ ~ I r w w ! ! > ; > H 5 > 6 6 + + + u m m m 3.3.3.3.3.3.3.3.3.E.E.3.E.E.E.E.3.3.3.E.3.3.3.3.3.m 3.3.m m m 3.",
"4 > 6 6 6 ~ 6 > > 6 q > 6 6 H I ^ 6 > 6 6 > 6 w * i + u u u m m 3.m m 3.3.3.3.3.3.E.E.3.3.3.3.E.E.3.3.3.3.3.3.3.3.3.3.m m m m 3.",
"6 6 6 L ; 6 S 6 ; > 6 w 6 6 6 6 R w 6 6 6 > * 6 > u y u u u u m m m 3.3.3.3.3.3.E.E.3.3.3.3.E.E.3.3.3.3.3.3.3.3.3.3.3.m m m m m ",
"w w > , , , w L 6 E Q P > > T H 6 ; 6 Y ^ 6 6 > r u y u u u u m m m 3.3.3.3.3.3.3.3.3.3.3.3.3.E.3.3.3.3.3.3.3.3.3.3.3.3.m m m 3.",
"> w , - ; , ; L 4 6 P  .^ 4 T T 4 3 Q Q ] 6 e 6 ~ u y u u u u m m 3.3.m 3.3.3.3.3.3.3.3.3.3.3.3.3.3.3.3.3.3.3.3.3.3.m 3.3.m m 3.",
"; w w > - 6 6 6 D o...*.| : ..J D ^ ..+.: D H P P u y y y u u u m m m m 3.3.3.3.3.3.3.3.3.3.3.3.3.3.3.3.3.3.3.3.3.3.m m m m m m ",
"I I w > < > w E : D P  .*.J 3 D X.X.+.&. .: : E ~ * u u u u u u u u m m m 3.m m 3.3.3.3.3.3.3.3.3.3.3.3.3.3.3.3.3.3.3.3.m m 3.3.",
"I U 6 > ; ; 6 T T H & D : ..H P G %.&.H - ; < ~ w q ; u u u u u u u u u u m m 3.3.3.m 3.3.3.3.3.3.3.3.3.3.3.3.3.3.3.m m m m m 3.",
"I E L > 6 , w 6 4 : : Y T Q T P %.} 6 - 6 , ; r w 6 H 4 3 D L } ^ E > u u u u m m 3.m 3.3.3.3.3.3.3.3.3.3.3.3.3.3.3.3.m m m m m ",
"E T > ; w r L 6 6 w 5.5.o.- E > - , ; < > w > L E Y L | 4 3 -.*.Y I w ; > 6 u u m m 3.3.{ m 3.3.3.3.3.3.3.3.3.3.3.3.3.m m m m 3.",
"Y 6 : L E I H 6 6 @.o.r L w = L S L ~ ~ ! w > - ; E J W X.: : X.T H ; ; w , L u m m m 3.m 3.3.m 3.3.3.3.3.3.3.3.3.m 3.3.3.m m m ",
"H 4 S T ^ U 6 6 ; 6 H S > H > 6 6 P P 4 6 ; 3 - 4 6 H } o.6 6 6 H P - T L H ~ E 6 m m m m 3.m m 3.P.m 3.3.3.3.3.3.m m m 3.m u m ",
"4 ; 6 6 6 6 > > 6 T I W D ; H : J K 6 - H H w Q ~ ; 6 4 6 ; w 6 4 K 3 O.Q 6 I > w 6 w m m m m 3.3.m m { 3.3.m 3.3.3.m m m m u u ",
"3 H I 6 L ; 6 ; 6 4 : Q P 4 H : S - : H > Q E E I 6 T H : T *.: 4 : 4 *.P ; 4 6 H H : Q m m m 3.3.m 3.3.3.2.m m m 3.m m u m u u ",
"@.Y ^ 6 - ~ E ; > H D - K 3 : &.-.&.] H > L < ! ~ L 6 ; W *.&.D ..| K &.4 D ; T T 6 : o.L m m m m m m 3.m P.{ m m m m m u u u u ",
"O.^ ; L ~ ~ 6 ; > 6.J 3 : : +.} *.} W H ; ; , - L T 6 6 *.o.4 :  .%.| J T 6.6...: : H o.J ^ + + m m m 3.m m m m m u m u u u u u ",
"; @.> ; < , - : H *.*.I D ..J ..O.W : 3 ^ Q 6 > H 3 H :  .T 3 6 : K *.K D > : > H : : : Q E + + m y m m m m m u u u u u u u > w ",
"; 6 H w , , ; ; 6 ] .. .4 D P ..6 6 > 6 T > : H } +. .3 D D - D : : Q Y - 6 ; 4 : - I +.6 4 + + + + m m m u u y y y ~ w > 6 3 W ",
"*.L H E L ; 6 > - : ^ o.6 , +.o.: 4 D 6 : ; ..7.5.| | 4 4 | 7.#.*.D > S H ; - < ; ; S W o.+ + + + + + y m m u u y w ~ E 4 ; K *.",
"6 : 6 T I > w 6 ; 6 6 ~ ^ 3 ; : } ..L : 3 ; - , H - H : X.&.&.^ : : I * > > L ~ 6 > - ; + + + + + + + y y m u u u y 6 T 4 D +.-.",
"H ; 6 H Q E > w 6 L > - 6 L H T O.*.*. .4 6 , 6 T T T : 6 H 3 ; > 6 - > < w > ! E 6 ; + + + + + + + 6 ~ y y m m u y H 6 3 J -.G ",
"D P 4 6 - w 6 S ; 6 = w w r < > > , ; ; : - 6 E T 6 6 H 6 > H 4 6 I 6 6 6 ; S : T : D + + + + + 6 6 > w R y y m u y y E 6 Y ..6 ",
": Q 4 T ~ ^ > > > 6 w w > > > - = w L < & > L > 6 T ; ; w , w 6 6 E I 6 w ~ o.- D - + + + + > w 6 E 6 3 6 w y y y y y E 3 Y 6 6 ",
"K : D o.o.4 w S I I E w < > > : - , r > > H > ^ > ^ ^ H : L > w Y H Q ^ 6 - ^ o.K D + + + + > - 6 ~ T L 6 6 y y y y y E 4 6 6 6 ",
"D D 3 6 6 3 4 T E 6 6 ; 6 w w , < < > > > , Q T > r P S : 4 ^ > : 3 D 6 ; 6 H 5.} + + + + L 6 > 6 w Y T 3 W 7.' y y y H 3 * > ; ",
"*.*.%.: : 4 H : H 6 ; , I ^ ! S H , < w r 6 P o.6 > ~ - H Y E 6 %.W S 4 ^ T : :  .+ + + ..] ~ > > > w T 4 K &.&.y y y ; 3 H w w ",
"*.| Q ..D | o.*.5.] Y - : : T E w > - ~ ; 4 o.4 3 : : D } Q T : %.7.H T >  .@.Y H L J K T , H > 6 6 6 3 4 3 G &.3 G X.7. .! I w ",
"K | ..J D T W ] - ; > : ; H H I E < > E E H > - D : : H ]  .6 : ..' W J 6 6 *.@.P E H P L ; : > = w 6 6 J W J X.K X.X.+.T ; w w ",
"- K | : - T o.: > : : H : > > 6 > H 3 E } H - H  ...+.o.6 6 6 4 ..J D : 6 6 6 6 E Y 6 4 : , 6 > > ~ E @.-.*. .J G W W T 6 w * q ",
": 4 6 T T 6 ; - @...E , > ; H 6 > P 3 - %...: ..*.%.J : H D : D : Y 3 H : & H w > E L ; 6 H > : L > r 6 3 Y E Y : 3 6 6 6 * > w ",
"4 o.*. .H - H o.E ~ > I ; ; 6 @.w - 3 D D ; 3 ..*.: - +.| T W ; 6  .6 : > ; 6 > w w < ; w : L > = : 6 6 w w 6 > > - 6 6 6 6 I w ",
"Y ] T 6 3 P - 6 > L , I 6 - , o.] : H T ' *.+.W S 3 +.*.#.*.} 4 I O.6 * > w > > 6 > > > < w ~ w 6 4 ; ; w ; = w ! = < > r w E > ",
"; S 6 6 H L > r 6 H I ; > > r o.o.D P 5.7...| ..: :  .P +. .H ; H L 6 > H I > 6 > 6 w w , L r E ; 6 6 > > > r ~ / q > < w w w > ",
"w 6 w L S 6 6 > w r w 6 - ; H o.6 H 4 E ] %.+.} W H H T o.: > > H > 6 > w ~ w 6 6 ; L , 6 6 6 Q 3 6 6 ; ; > ~ I R w q > w > 5 ; ",
"6 6 I P > H ~ ~ 6 w P 6 > ; 6 6 4 4 > T > : D D - : 6 H H - > ; < 6 r > ; Q L H H : ^ , 6 6 6 6 I 4 6 H w 6 E w > L > ; w 6 ; q ",
", 6 5 > ; > L e 6 6 w 6 ; , Q : 6 ; H  . .> > 4 4 4 : - w w > w , w 6 ; - P P L 3 H E I > 6 E 3 Y 6 6 ] o.6 6 : 6 6 6 6 L > 6 < ",
"6 6 ; 6 > 6 6 ^ H > 6 ..- : Y E , L L T @.4 6 6 T D 6 E ( = > , w r w > ; H 3 E S : : #.; 3 ~ T ; w Y E o.4 6 4 E 3 > E E > ; > "
};
