/* XPM */
static char *_9946_274c7974c7c5070cc783f9a2e84a927224bc55c87b38ae32940c2498b90f49b6[] = {
/* columns rows colors chars-per-pixel */
"64 64 118 2 ",
"   c #081103",
".  c #090A14",
"X  c #0E2901",
"o  c #132A03",
"O  c #152A0A",
"+  c #163403",
"@  c #1A3205",
"#  c #1F3804",
"$  c #1B320B",
"%  c #17380D",
"&  c #1F3113",
"*  c #3A2805",
"=  c #36260B",
"-  c #392E0C",
";  c #233502",
":  c #233D03",
">  c #27310C",
",  c #223A0B",
"<  c #353403",
"1  c #222513",
"2  c #382913",
"3  c #253114",
"4  c #223C13",
"5  c #2E3915",
"6  c #29391B",
"7  c #333410",
"8  c #241527",
"9  c #341C27",
"0  c #363423",
"q  c #431508",
"w  c #521E04",
"e  c #561310",
"r  c #432205",
"t  c #492E06",
"y  c #45270B",
"u  c #55240D",
"i  c #40300D",
"p  c #443414",
"a  c #4D2B32",
"s  c #7E2A2E",
"d  c #663424",
"f  c #783121",
"g  c #18410E",
"h  c #254005",
"j  c #2C4206",
"k  c #2F4903",
"l  c #27400C",
"z  c #2E4A0C",
"x  c #35500E",
"c  c #2A4114",
"v  c #294A15",
"b  c #2D431C",
"n  c #284B1C",
"m  c #334712",
"M  c #314A15",
"N  c #36431E",
"B  c #344C1F",
"V  c #375114",
"C  c #35511E",
"Z  c #304424",
"A  c #364B24",
"S  c #395224",
"D  c #3D542D",
"F  c #384432",
"G  c #444314",
"H  c #434520",
"J  c #445E22",
"K  c #455D2A",
"L  c #436422",
"P  c #4A6321",
"I  c #4A6428",
"U  c #4D692B",
"Y  c #536623",
"T  c #506A28",
"R  c #4B6331",
"E  c #436930",
"W  c #536B32",
"Q  c #506638",
"!  c #536A3A",
"~  c #4D783A",
"^  c #557330",
"/  c #5A7331",
"(  c #5B7439",
")  c #676E38",
"_  c #627835",
"`  c #7A4841",
"'  c #7A5750",
"]  c #5C7540",
"[  c #5E7B40",
"{  c #637B43",
"}  c #7C6857",
"|  c #767070",
" . c #8C2925",
".. c #992222",
"X. c #9B2128",
"o. c #883331",
"O. c #A82224",
"+. c #935249",
"@. c #9A5B5D",
"#. c #886858",
"$. c #9A645C",
"%. c #A7635B",
"&. c #AD7757",
"*. c #996767",
"=. c #95766C",
"-. c #877E7C",
";. c #A4666B",
":. c #7F8778",
">. c #88857C",
",. c #918579",
"<. c #9D7E83",
"1. c #8A8684",
"2. c #958D89",
"3. c #9B9A9B",
"4. c #BF9E99",
"5. c #B2A39A",
"6. c #AE9FA3",
"7. c #B0A2A5",
/* pixels */
"$ @ 3 , X & 3 > % V L ~ E : P G ; v W J ; j # M S , $ 4 Z 6 = = q u y q w e r y # E E ~ E # Y k h L L L ; : # B b c , % v g $ + ",
"4 l , 3 $ % c > > : h E ^ V h + S B , S m , + S b > p 0 & 4 1 } #.#.} } #.#.#.} A 4 g Q W G < j P Y ^ _ W : # b N > $ $ l $ @ l ",
"@ , M 4 g % $ $ > , , , , $ # 4 % 4 % c + % c + 6 2 q ' } :.:.:.1.<.:.1.1.>.-.,.>.| >.a a a a a a a a : , > 4 c 4 & O > 5 3 & l ",
"C M S 4 n g % % , o 4 $ $ , b % $ g # $ v B % 5 2 e ;.;.,.5.2.3.3.3.3.3.2.1.1.>.a a a a a a a a a a a a a - > $ @ # 3 5 3 c % b ",
"E b , ; 5 C h c 4 $ &.&.&.&.&.&.&.&.&.&.# C m * =.*.*.;.4.5.5.5.6.6.7.6.&.&.&.&.a a a a a a a a a a a a a a i > @ , 4 N % @ 4 A ",
"M , , > z v , v p &.&.&.` ` ` &.&.` ` &.&.&.d %.%.+.s s @.@.$.&.&.&.&.&.&.&.&.a a a a a a a a ` ` ` a a a a a a - > 7 G A h # B ",
", c m M v # G &.` &.` ` &.` &.9 a &.&.&.&.&.&.&.O...X.&.&.&.&.&.&.&.` &.&.a &.a a a a a a a ` ` ` a a a a a a a a u r G V c ; # ",
", > > : G * &.&.&.` ` ` ` ` &.9 a &.&.&.&.&.&.&.&.&.&.&.&.&.` ` ` &.` ` a a a a a a a a ` ` ` a a ` ` ` ` a a a a a f t m , , v ",
"A # < t &.&.` ` ` ` ` ` ` ` 9 a &.&.&.&.&.&.&.&.&.&.&.&.&.&.&.&.` ` ` ` a a a a a a ` ` ` ` ` ` ` ` ` a a a a a a a a o.t : A v ",
"A H a 9 9 a a ` ` 8 8 8 ` ` a &.&.&.` &.&.&.&.&.&.&.&.` ` ` ` &.&.` a a a a a a a a ` ` ` a a ` ` ` ` a a a a a a a a  .t B v g ",
"N . . . 9 a a a ` ` ` ` ` ` ` ` ` &.&.` &.&.&.&.` ` &.&.` ` ` ` ` a a a a a a a a a a ` ` ` a a ` ` a a a a ` a a a a a y N + g ",
", 9 . 9 9 9 a a ` a a ` ` ` ` ` ` &.&.` ` ` ` &.&.` ` &.` ` ` ` ` a ` ` a a a ` ` ` ` ` ` ` ` ` ` ` ` ` ` ` a a a a a a = , l % ",
"$ 9 8 9 9 9 9 a a a ` ` ` ` ` ` &.&.` ` ` ` &.&.&.` ` ` ` ` ` ` ` ` ` a a a a ` ` ` ` ` ` ` ` ` ` ` ` ` ` ` ` a a a a a a : 7 V ",
"A 9 8 9 9 9 9 a a a ` ` ` ` ` ` ` ` ` ` ` ` ` &.` ` ` ` ` ` ` ` ` ` ` a a a a a a ` ` ` a a ` ` ` a a a ` ` ` ` a a a a a h < ) ",
"$ 9 8 9 9 9 9 a a ` ` a ` ` ` ` ` ` ` ` ` ` ` &.` ` ` ` ` ` ` ` ` ` ` ` a a a ` a ` ` ` ` a a ` ` ` ` a a a a a a a a a a a _ _ ",
"% 9 8 8 8 9 9 9 a a a a ` ` ` ` ` ` ` ` ` ` ` ` ` ` ` ` ` ` ` ` ` ` a ` ` a a ` ` ` ` ` ` ` ` ` ` ` ` ` a a a a a a a a a a _ k ",
", S 9 9 9 9 9 9 9 9 a a a ` a a ` ` ` ` ` ` ` ` ` ` ` ` ` ` ` ` ` ` a a a a a a ` ` ` ` ` ` ` ` ` ` ` ` ` a a a a a 9 9 a a a : ",
", c ; 9 9 9 9 9 9 9 9 9 9 a a ` ` ` ` ` ` ` ` ` ` ` ` ` ` ` ` ` ` ` ` ` a a ` ` ` ` ` ` ` a ` ` ` ` a ` ` ` a a a a a 9 9 a 9 l ",
"j c j M , , 4 F Z 0   9 9 9 9 a a ` a ` ` ` ` ` ` ` ` ` ` ` ` ` ` ` a a a a a ` a a ` ` ` a a ` ` ` ` a ` ` a a a a a a 9 9 9 , ",
", , : A V 4 , 4 $ % b 3 6 & 9 9 a a a ` ` ` ` ` ` ` ` ` ` ` ` ` ` ` ` a a a a a a ` ` ` ` ` a a ` ` ` a a a a a a 9 9 a 9 9 9 , ",
"v g # l N l 4 @ @ $ @ $ C $ c 9 a a ` ` a ` ` ` ` ` ` ` ` ` ` ` ` ` ` a a a a ` ` ` ` ` ` ` ` ` ` ` ` a a a a a a 9 9 9 9 9 4 , ",
"B Z c , , + l $ 4 # $ : R M , $ a a a a ` ` a ` ` ` ` ` ` ` ` ` ` a ` ` ` a a a ` ` ` ` ` ` ` ` ` ` ` ` a a 9 9 a 9 9 9 9 B A 3 ",
"B B $ , v S v , v U S X S M @ ! b a a a ` a a ` ` a ` ` ` ` ` ` ` a a a ` a 9 a a ` ` a a ` a a ` a ` ` ` a a 9 9 a 9 9 B N 4 , ",
"# v , B M S # # + C K S @ + M c l , a a a a ` ` a a ` ` ` ` a ` ` ` a a a a 9 9 a a ` a a ` ` a a a a ` ` ` a 9 9 9 9 # # , 4 4 ",
"$ 4 ; # , , ; , : , > C B + @ , 4 N c l a a ` ` a ` ` ` ` ` a a a ` a a 9 a 9 9 a a a a a ` ` a a a a a a a a 9 9 9 9 K Q # l $ ",
"l I l 4 , ; , , @ , @ + $ , , o o , c , , a a a a a ` a a ` ` a a a a a 9 9 9 9 9 a a 9 a a ` a a a a a a a a 9 9 9 I h # $ A l ",
"5 R , m B # g , B c # $ % o , S $ @ , # : # a a a a ` a a a a a a 9 a 9 9 9 9 9 9 9 9 9 9 a a a 9 a a 9 a a 9 9 9 9 l h : m B # ",
", l > 4 A B , , , A A b 5 4 4 b Z $ # @ l > , a a a a a a a 9 9 9 9 9 9 9 9 % , S 9 9 9 9 9 9 9 9 a a 9 9 a 9 9 . z # S M B , @ ",
": @ , , , A # & $ , & % , , c b A , , , , @ , 4 8 8 a a a 9 9 9 4 # $ b A $ , , ; c B 4 3 $ @ B 8 9 a a 9 9 9 . . ; ; # , c $ , ",
", , 4 c + , c , @ $ > 4 , , , , A 4 , , , @ o . . . 8 a a 9 9 8 , > 4 4 A A , , , j l % 5 $ , , C 8 9 9 9 8 8 . . , c , , , $ $ ",
"4 4 $ % % $ , b , B C v $ , M , , @ , c A , 5 . . 8 a a 9 9 8 8 $ l , , ; A , c , # + , # , b 4 8 9 9 9 8 8 . . . . $ c 4 $ $ 4 ",
"$ 4 % @ @ 4 + g : , v U C : M M : ; S B K , c 8 8 8 8 9 9 8 8 @ 4 3 , @ @ , , A # , : W + l B B 8 9 9 8 8 . . . . . , Z b & 3 O ",
"$ % , $ @ , # , h R U ( P g U z h J T T # : 8 8 8 8 8 8 8 6 & $ $ , $ $ $ $ , $ h R K ( U # Q 8 9 9 8 8 # . . . . . & 4 Z 4 O $ ",
"b b 3 $ & % 4 B # : M I / z # h U T W / I 8 8 8 8 8 8 4 & $ $ 4 4 B c c + $ l B m l h I ( 8 8 8 8 8 8 ( Y # . . . . 3 O 4 & 3 4 ",
"b n , , @ + , B M l X : : U l c k ^ / g @ 8 8 8 8 . # > % : : l B B X % $ , # & @ + + + 8 8 8 8 8 8 4 # , : . . . . 4 4 c , @ , ",
"B Z c $ , % 4 , # # : m M B M M U L l + , $ . . . . , : : , c J B A $ $ $ , # % @ C l + 8 8 8 8 8 B % 4 , . . . . . 4 $ , , , b ",
"C m # $ 4 5 c , , g ] ] Q + n $ @ % + & $ 4 . . . M c P h # _ ( m N 4 @ $ , , Z $ B c c & $ % $ 4 4 N 4 , . . . . $ , , 4 4 , m ",
"m , + c C N g , l Q Q 6 5 4 $ 4 l c Z A A 4 $ + + C z V T # # Y M , @ @ 4 % c A 4 c N b & $ $ b , $ ! , # { , # , @ o > $ , , S ",
", : g m A n , , @ , , l $ l $ , # v v , , @ ; + : , l K R # , , l v @ M m g B B , $ c c % & $ & ; M K W V z z j : , , , , , @ , ",
": # , , , , $ @ , v b V : # l # z x l + l l 4 C B @ , : > # 4 , # x ; E B , b $ l $ % g @ # A Q ] P k T z k x P W Q C , o 4 4 A ",
", , b # c $ , @ # # # S c h l # g @ # l $ S B B N # M % : M ( # h # g / v # $ l l l % C @ l 4 # z _ P k x x J _ V ; 4 , , 3 A A ",
"Q m S , + A A @ # l , # x # # ^ ( ( K l , % & A A 4 , # V ( / : T P x / : h @ m M # ; U c l S # h h T Y k # T M : > , $ $ 4 b 4 ",
"E S @ c A A , + # ] z # # # T I / L V l @ # % @ c B , : ] R : : I ^ I z v ] [ U # # l R z S @ c , : B m V # l , , c $ O c , > , ",
"# R > + 4 % + # l ( ( v g Y z U E V # : S B , $ l ; l # I M ; , : x ( x h # > @ l # # # C B + v N 4 @ , 4 , o 4 4 Z 4 # , , @ , ",
"# # l 4 $ $ @ o l K W R # h c U , , # , M # + l I T I # : h + h # # C m @ , # # # + M W , ; Q A c & 4 4 , 4 $ 3 $ B A 4 : , # V ",
"] c l B c @ , $ % # A R l , W R g # l , @ @ U { ( P P : h P { W ( h @ g l @ O 4 @ @ g V R M R # $ # 4 3 S 4 3 $ $ 4 B B $ : x ( ",
"# # , M b , g , @ # # B S ; @ : L T c # ; @ @ % l @ l # T / / S , # b + % $ 4 A , $ + $ A B , l $ @ , c A , M $ $ $ l M ; l T _ ",
"l @ , l B Z , 4 , 5 % % # c , M E ( ( I # # 4 , B v m : , , ; # # $ @ O & 4 $ A Z l + # , + , @ ; : : A N @ 3 4 o 4 , , : z _ k ",
"h c h , + 4 , 4 @ $ % 4 4 b & $ $ % @ @ , @ , B M , , , 4 % , # , b , , > # g # M # l T , g & O , , $ c N 4 4 3 & $ 4 B , m U : ",
"# S # M B S $ $ $ , & 4 $ o $ $ + & c % o o c , , m @ # 4 # 5 , , A n # & A R # h # I ^ ; @ $ 4 , A , # , 4 S 4 4 , N B # m , $ ",
"x # h R R : 4 g b b B 4 & $ $ # $ $ 6 $ % % $ S % A S , # 4 $ 4 m l B C # % C R x h ^ C l , $ % , A M 5 , l R ; : S M B : , , , ",
"g h # l , ; : M B l , + , 4 4 % 4 & $ O $ , C M $ b c c # : S $ # # h l @ l , ] L x U h l l # $ , 4 m v : V { J ; z # , ; o $ # ",
"/ / ^ # # : l # l # $ # b S b h 4 $ & 4 c , v U , @ A + l m S , ^ V l # S M # # I x z c U K A $ > $ c M : x / / : : : : @ 4 , 4 ",
"( P C U h I R ] ] R c + + , v S 4 , + A @ $ R h : @ : h J C v # ^ { l v + R Q m l c z x v # c $ % l , ; : ; k / # k T ] R B N 4 ",
"x I T z h v V K + $ @ : @ l c b B 4 $ B B l $ @ : # # , K U , # T J V z l : ] Q M C l v c @ # $ O 4 , , z V z Y x Y Y W M # 4 4 ",
"@ x P # + m U ; # # , , @ # $ % $ , : M K l @ , I U ! U , , : : I z h # $ , , , B m , : # $ 4 $ $ B B Q ( ( I z k V V M $ 4 o 3 ",
"# # , B v > + % R R Z g $ @ 4 , @ v ; # W I : U ( ^ z # l h # # # M # l # X % 4 # A c @ , g # % 4 $ 4 , ; c S v # ; 4 , , X % 4 ",
"h R ( U l # , R B A $ b @ @ , R 4 + : : h $ ; U ( # + U I M V # l R l # $ @ , , c % & @ 4 4 c & O # , , 4 4 , @ $ + 4 # > l b 4 ",
"m K M # # v + # $ c 4 b , @ $ R K : , M J ( ! x h # W [ ! ( I # c E , o $ 4 $ > > % $ $ $ 4 A # , : $ @ 4 @ O 4 Z O & # 5 4 B $ ",
"@ g , , l c $ c , l c @ $ % c R R j v ] { T L U # # I M U I # @ l c , @ 4 b % # % $ , 4 $ 5 b B $ , # $ > $ 6 A D & O 3 4 4 4 $ ",
"4 , 4 c c # & $ 4 c c , + @ l R , l , B K ^ W L V l l v R # # % % $ , $ , B 4 , , @ c c , , , A : , , @ $ $ A b N 4 3 $ 4 $ $ , ",
", , N c $ , A S , g c , $ @ , , # : @ M # # h l + # , l l # & @ 4 4 c $ $ S c , , # S $ , , , , N ; , , c # B 4 $ 4 $ @ 4 $ @ 3 ",
"c # $ $ @ # 4 b 4 > % , @ l B # , # g I R @ # # : : # @ & g + & 4 4 , + + M M c : , B b @ , B : c , , I R > , : , , , , 4 $ > & ",
"% , @ h $ , , A l $ , R + # m B , c c M Q # , , M : , B F $ % $ 3 6 3 $ @ , : C g # # ! @ ; B M # 4 m A R : , ; B ; , B B % $ # "
};
