/* XPM */
static char *_418_a0a2f91fa70d8a21f149943d41da77aa10afd4b049b09283030a91876ae9cb84[] = {
/* columns rows colors chars-per-pixel */
"64 64 192 2 ",
"   c #020101",
".  c #010A00",
"X  c #090D0D",
"o  c #160202",
"O  c #10100E",
"+  c #131C17",
"@  c #270000",
"#  c #330100",
"$  c #28100F",
"%  c #0E2901",
"&  c #132A03",
"*  c #152A0A",
"=  c #163403",
"-  c #1A3205",
";  c #1F3804",
":  c #1B320B",
">  c #17380D",
",  c #1F3113",
"<  c #372505",
"1  c #36260B",
"2  c #392E0C",
"3  c #233502",
"4  c #233C03",
"5  c #27310C",
"6  c #223A0B",
"7  c #353403",
"8  c #222413",
"9  c #22251F",
"0  c #382913",
"q  c #253114",
"w  c #223C13",
"e  c #2D3816",
"r  c #29391B",
"t  c #333410",
"y  c #241527",
"u  c #341C27",
"i  c #312222",
"p  c #302F27",
"a  c #353733",
"s  c #450303",
"d  c #431508",
"f  c #521F04",
"g  c #561314",
"h  c #76151C",
"j  c #462807",
"k  c #40300D",
"l  c #4E2314",
"z  c #53201F",
"x  c #443414",
"c  c #663319",
"v  c #691923",
"b  c #4A3820",
"n  c #533925",
"m  c #4D2B32",
"M  c #4A3335",
"N  c #692521",
"B  c #7A2322",
"V  c #7E2A2E",
"C  c #673424",
"Z  c #783121",
"A  c #7A382C",
"S  c #18410E",
"D  c #254005",
"F  c #2C4206",
"G  c #2F4903",
"H  c #27400C",
"J  c #2D4A0C",
"K  c #35500E",
"L  c #2A4214",
"P  c #294A15",
"I  c #2D431C",
"U  c #284B1C",
"Y  c #334712",
"T  c #314A15",
"R  c #36431E",
"E  c #344C1F",
"W  c #375114",
"Q  c #35511E",
"!  c #304424",
"~  c #354B24",
"^  c #3A5226",
"/  c #384432",
"(  c #444314",
")  c #434520",
"_  c #534021",
"`  c #445D22",
"'  c #455E2B",
"]  c #55522A",
"[  c #444238",
"{  c #6E4128",
"}  c #436422",
"|  c #4A6321",
" . c #4A6428",
".. c #4D692C",
"X. c #536623",
"o. c #506A28",
"O. c #4B6332",
"+. c #436930",
"@. c #546B33",
"#. c #506638",
"$. c #546A3C",
"%. c #4D783A",
"&. c #557330",
"*. c #5A7331",
"=. c #5B7539",
"-. c #676E38",
";. c #627835",
":. c #3D3A40",
">. c #454546",
",. c #574445",
"<. c #595244",
"1. c #4D4F50",
"2. c #565555",
"3. c #6F4C48",
"4. c #7A4841",
"5. c #665554",
"6. c #5C7540",
"7. c #5E7B40",
"8. c #637B43",
"9. c #7C6857",
"0. c #5D5C61",
"q. c #695E63",
"w. c #6C6668",
"e. c #767070",
"r. c #881B19",
"t. c #9D1522",
"y. c #AB1720",
"u. c #A41E25",
"i. c #AA1A26",
"p. c #B31729",
"a. c #B31C28",
"s. c #B41F30",
"d. c #892724",
"f. c #8C2925",
"g. c #88252E",
"h. c #992223",
"j. c #9B2128",
"k. c #96282D",
"l. c #873024",
"z. c #9C332A",
"x. c #992532",
"c. c #883331",
"v. c #983436",
"b. c #A82224",
"n. c #AC2A2D",
"m. c #A52130",
"M. c #B52730",
"N. c #BB2435",
"B. c #A83337",
"V. c #A53F38",
"C. c #B53235",
"Z. c #BE353B",
"A. c #C52435",
"S. c #CA3336",
"D. c #C43539",
"F. c #CE3039",
"G. c #D1383D",
"H. c #914C37",
"J. c #993544",
"K. c #AB2D42",
"L. c #B93541",
"P. c #C73541",
"I. c #935249",
"U. c #9A5B5D",
"Y. c #B5494B",
"T. c #896858",
"R. c #A7635B",
"E. c #AD7757",
"W. c #A55D61",
"Q. c #996667",
"!. c #95696B",
"~. c #8E7B74",
"^. c #A8696D",
"/. c #A9777C",
"(. c #C94547",
"). c #D74C55",
"_. c #E35D60",
"`. c #D4696E",
"'. c #E66568",
"]. c #7F8778",
"[. c #88857C",
"{. c #918579",
"}. c #9D7E83",
"|. c #8A8684",
" X c #958D89",
".X c #9B9A9B",
"XX c #B99E9A",
"oX c #B2A39A",
"OX c #AE9FA3",
"+X c #B2A3A5",
"@X c #D69E9F",
"#X c #DDB7B9",
/* pixels */
": - q 6 % , q 5 6 W } %.+.; | ( 3 T @.| 4 D 4 T E 6 > w ! r 1 1 d l k d f g j j ; +.+.%.+.- X.G D } } } 3 4 ; ~ I L : > P w - ; ",
"w H 6 q : > L 5 5 4 D ..&.W D = ^ T 6 ~ T 6 = ^ I 5 x p , 6 8 9.T.T.9.9.T.T.T.9.~ w H #.@.( 7 D | X.&.;.@.4 ; I I 6 : : w = = S ",
"; 6 T w S > 6 : 5 > 6 w H > ; H > w H w = > w - r 0 d 9.9.].].[.|./.].|.|.[.~.[.[.e.[.{.!.T.3.I.f j D ; 6 5 w e w q * 5 e q q w ",
"Q T ~ w U S , > ; & w : : , I > : S : : P E S e 0 g W.W.{.oX X.X.X.X.X.X X|.|.[.|. X}.}././.`./.I.H._ _ b 2 5 : ; 6 5 e q w w L ",
"+.I w 3 L Q D S w > > > > & * * , * S w = Q T < ~.Q.U.^.XXoXoXoXOXOXOX+XOXOXOX+XOX+XoXXX#X#X#X@X/.Y.J.g.g.g k 5 - 6 w R 6 = w E ",
"T ; 6 5 J P 6 Y x _ < 1 0 x 0 i < 1 2 2 2 x C R.R.I.V V U.U.Q.Q.!.!.!.!.!.!.!.!.Q.!.Q.Q.}.Q.Q.^.g.z.u.i.u.d.Z f 2 5 t ( Q 6 4 E ",
"> L Y Y P 4 ( c h B.B.B.v.H.v.v.v.V.Y.Y.V.Y.V.D.b.h.j.h.d.g.x.x.g.c.c.g.v.k.k.v.v.n.x.x.B.B.m.L.B.K.M.P.s.n.n.z.Z f j ( Q H 3 : ",
"w 5 5 4 ( < H.V.C.D.P.P.Y.`.`._.'.).S.D.S.S.S.F.A.D.M.C.B.C.D.S.C.V.B.C.Z.M.(.'.'.'.)._.).L.L.`.Z.L.P.P.L.N.P.N.Z.z.Z j Y 4 6 T ",
"^ - 7 j f H.C.P.G.C.x.V A c.v.(.P.).F.F.A.D.S.S.S.D.D.Z.Z.D.F.F.D.D.Z.Z.D.D.D.(.(.(.V.P.P.L.L.Y.k.B B l.t.L.P.D.S.C.h.c.j 4 Q P ",
"~ ) j I.V.C.P.s.t.d.s o o @ N c.K.N.A.A.A.S.G.S.D.D.L.Z.D.D.F.F.D.N.M.a.p.i.p.i.h.b.b.b.N.L.`.J.g # o o N d.K.Z.S.(.(.f.j Q P S ",
"R b C j.S.F.L.x.v d l M i o 3.g h x.a.A.a.i.i.i.i.h.u.u.j.u.b.y.i.i.b.u.b.i.a.i.b.t.y.a.i.x.d.g l X [ $ n # h Z.P.A.K.c.j ! ; S ",
"6 x N r.s.N.m.h # >.  :.:.+   M # V t.K.a.i.y.b.b.b.u.u.u.u.u.u.y.i.y.m.i.i.y.y.t.b.i.u.x.J.@ [ o X <.i 8 5.s J.L.L.m.c.1 6 H > ",
": 2 j g k.k.k.z p :.+ 1.:.1.+ m $ N k.N.s.p.i.y.u.b.p.p.p.y.y.a.i.p.M.s.s.a.a.a.M.a.a.M.n.N $ i O u 2.2.+ 5.z v K.K.v.{ 2 4 t W ",
"^ t n # h x.V g ,.y >.2.e.e.2.M [ # k.i.s.M.N.n.n.n.s.N.A.N.M.M.M.M.M.M.s.s.N.M.y.M.n.n.k.@ 5.9 M w.q.w.2.i 3.g g.k.Z f 7 D 7 -.",
": : 8 d h x.g.g ,.>.2.w.5.q.,.,.n # B t.m.m.n.M.n.n.M.M.a.M.n.n.n.n.b.i.i.i.u.u.b.b.r.h.V @ 2.>.1.w.0.w.3.m 5.1 N C _ 7 K &.;.;.",
"> 4 5 < A v g.# p a O ,.,.5.9 9 8 n N B Z B l.f.l.f.f.f.f.f.l.l.Z l.f.f.f.f.l.Z l.l.l.Z l 9.9 9 O 9 2.2.0 [ i ] n k 7 ( | | ;.G ",
"; ~ H 5 1 k k i + [ . a a . . [   q 1 1 b _ 1 < < 2 1 < 1 1 k j x b < x < _ x 2 < x ( ] ( 5 . /   + >.+ 8 <.  6.q 5 3 ..o.o.o.; ",
"H L 3 6 H ~ ~ ( r 8 8 / a   1.a q * w L * L Q : w : q , w q 6 6 : I 6 6 J T Y ; 3 4 3 @.O.q ! / a O >.+ [ . $.r E L w T E 6 4 H ",
"H H H T 6 w w / ! p X q 8 + q 9 : , L = 6 6 > H = 6 5 w : L 6 6 ^ 4 H Y ~ 4 L D F ; H 6 I ~ ^ , X 9 9 9 r R E T ; H D = 4 6 6 6 ",
"H 6 4 ~ T w w w > : L , I q , , r I ~ 6 4 ; T ; 3 6 L E L w w 6 3 ; 4 H : 4 @.=.@...6 6 w > 6 w r q q w : 6 : ; ; % = S 6 6 6 6 ",
"P 6 6 > E H w - - : - 6 E : L e w 6 E T T 3 ..4 4 T L 4 6 ; ^ 3 =.K 3 = : $.H 7.o.T 6 ; L : ; ~ R ! e w $.6 = 4 H 6 H H 4 : L 6 ",
"E E H 6 6 = 6 6 w 4 : ; O.T 6 ; w 6 : 4 W ;  .*.; W 4 w 3 6 ~ 3 =.o.W D O.W .. .T 4 > 3 6 ; w * E ' Y 3 ' =.D 4 J ` ^ ; 6 ~ ~ , ",
"E E : H T Q P 6 P O.^ % ^ T = $.T w = 3 D 4 T @.3 D T $.~ L ; 6  .o.} W D ` #.; Y - W P P H = w - F Y 6 @.*. .= ..P 6 4 ! T w 6 ",
"- U 6 E T Q ; 6 = Q } ~ = = T L w 6 Y #.=.=.Y K 4 Y 6.W : ; w ; ..J ..J 4 6 6 6 - #.T H ; - w = e = D D = W  .3 ..= 3 6 4 6 w w ",
"; 6 ; > 6 6 3 6 4 6 : ^ E = = 6 w R Y 6 F =.=.Y 3 O.' L 6 ; 6 6 T W J J ; ; 6 w : , > ; - > : , = D 4 } 4 S J W = ..6.' #.; 6 : ",
"H O.F w 6 3 6 6 ; 6 = = : 6 6 - & 6 Y 6 6 W ' W 4 H 6 6 w w w : 4 L Q F ; H S q L : ; - : 6 : * - ; O.=.*.o.K D ..7. .D 3 6 ~ H ",
"e O.6 Y E ; L 6 E L 6 - : & 6 ~ : - 6 ; 4 ; H 4 6 ; - w w : w : ` J ; ~ w - : O.O.E 6 , : q - : H ; D P +.@.#.Y ..Q H D 4 T E ; ",
"6 H 5 w ~ T > H 6 E ~ I L w w ~ ! : - - 6 5 6 6 6 w w w : q : 6 = T 6 ^ L I L 6 Q U L : : w : E ; H = D L O.o.W O.J ; Q T E 6 ; ",
"4 ; 6 6 6 ~ 6 , 5 : q : ; w w I ~ 6 6 6 6 - 6 w * q : - , , - - 6 6 : I ~ * 6 > 3 L ~ w q : - E Q = S 3 4 ; = 6 4 3 3 : 6 e ; > ",
"6 6 w S ; 6 > 6 = : 6 w 6 6 6 6 ~ w 6 6 6 ; & : : : * , ~ > = : 6 6 w w ~ E H w 6 F L : e : 6 6 Q ~ H - 6 6 w 4 3 6 L 6 6 6 : : ",
"q > > w > : 6 L 6 E Q P : 6 T 6 6 ; 6 L ~ 6 6 : w q q / ^ q = w : 6 6 6 3 ~ 6 L 6 4 = 6 ; D I w - H ; @.O.3 4 6 6 - > w w : 6 w ",
": L > - - w = w 4 6 P ..Q 4 T T 3 4 E ~ ' 6 e 6 ~ w w ~ ! : , - w q 6 - - 6 6 ~ - H 4 @.= 6 E E H D H W O.4 H - ~ L 6 ~ r , q * ",
"- w 6 : = 6 6 6 D  ...=.| S o.J D ` ..@.; D H P L w 6 5 ~ r q : 6 6 : : : > 6 6 D  .' 6...; #.W D | | | ; 4 3 T I 6 q w ~ , - > ",
"I L w : , : w E ; D T  .*.J ; D o.o.@.*. .; ; ~ ^ & L w , : : w q E H L = : w ! T H 4  .=.T H = o.| *.=.X.; 4 E E w q * , , , w ",
"I U w : = - 6 T T H % 4 4  .w Y G &.*.> - - w ~ w w - 6 > 4 4 6 E E % > : 6 6 6 - = = = ; ; ; H 6 3 H ; H ; 6 6 q q w w L 6 - 6 ",
"E E L : ; w w 6 ; ; 3 Y P ^ T T ..} D = 6 : * r 6 6 w 4 4 6 L ` E E : : : 6 = 6 = ^ H = : : > w : E : w 6 ; ~ q ; > w : : 6 6 E ",
"~ T 6 - w w L 6 6 w 6.6.#.= T : = > - q : w : L E T Y | 4 ; ;.=.Y I w - : 6 6 E : ~ L e , : , : q , T w 6 O.Y L 6 : 6 6 w w 6 T ",
"L ; = L ~ I w 6 L O.O.I w w : w S L ~ ~ ~ w : = & Q J W X.; ; X.T 6 - - q > w ~ w L T I , > - L 6 > $.6 ; 8.: 4 6 ; & : : 6 6 ~ ",
"6 4 S T ^ U 6 6 - 6 w > : H : 6 S P P 4 6 - 3 = 4 6 w '  .6 H 6 H P ; T L 6 E E w : w S - > : q 4 W ' @.W J J F 4 6 6 6 6 6 3 6 ",
"6 3 6 6 6 6 : - 6 T T W D - H ; J K 6 = 6 F w Q E = 6 4 6 ; w : 4 K 3 +.Q 6 I > H 6 : H - w ~ O.=.| G o.Y G K ` @.#.Q 6 * w w ~ ",
"3 H I 6 L : 6 = 6 3 ; ^ L S 6 4 4 = ; H : ^ ~ E I 6 T 6 ; T 6.; 4 ; 4 =.P ; ; H H 6 4 ^ - H w 6 J ;.| G K K ` ;.W 3 6 6 6 q ~ ~ ",
"#.T Q 6 = ~ E - 6 6 D ; K ; 4 *.=.=. .H 6 > , ~ ~ H > 4 W =.*.4 ..| K *.; D - T T > ;  .L 6 ^ 4 D D o.X.G ; o.T 4 6 ; : : w I w ",
"+.^ - e ~ ~ 6 - 4 6.J ; ; m m m m m m m m : - - L ~ 6 4 6.' 4 4  .&. .J T =.7...; 4 6 O.J ^ = 6 6 4 ~ T W ; H 6 6 w 5 * w 6 q 6 ",
"- O.> ; w > = 6 S =.=.m m m m m m m m m m m m m H 3 H :  .T 3 H ; K =.K H 4 > - D : ; 4 Q Q = T I w - ; w 6 = q w ! w 6 w 6 - H ",
"; 6 H w : : = - H ' m m m m m m m m m m m m m m E.E.E.E.D 4 = S ; ; Q Y = > ; ; 4 = T $.3 4 #.~ L q w w 6 w : q : E ~ w 3 6 ; W ",
"=.L H Q w - 6 : m m m m m m 4.4.4.m m m m m m m m E.E.E.E.E.E.E.E.D : S w ; - , * - S W E.E.E.E.E.E.E.E.E.E.q : : w E E 4 4 K =.",
": 4 6 T I 6 w m m m m m m m m 4.4.4.m m m m m m m E.m E.E.{ E.E.E.E.E.E.E.: L ~ 6 : E.E.E.4.4.E.E.4.{ I.E.E.E.: : 6 6 T 4 D o.;.",
"6 = 6 6 E Q m m m m m 4.4.4.4.m m 4.4.4.m m m m m m m m 4.I.E.4.{ I.E.E.E.E.* ~ E.E.E.E.E.E.E.m u E.3.E.4.4.E.4.E.w 6 6 ; Y ;.G ",
"F L D H = m m m m m m m m 4.4.4.4.4.4.4.4.4.m m m m m m 4.4.4.4.E.E.E.E.E.E.E.E.E.E.E.E.E.E.E.m u E.4.4.4.4.4.E.E.E.w ~ 6 Y O.4 ",
"; Q 4 P E m m m m m m m m 4.4.4.4.m m 4.4.4.m m m m m m m m 4.E.E.4.4.4.4.E.E.E.E.E.E.E.E.E.E.E.m u 4.4.4.4.4.4.4.4.E.E.; Y 6 : ",
"K ; 4 O.m m m m m { M m m m 4.4.m m 4.4.4.m m m m m m m m m m 4.4.4.4.4.E.E.E.E.E.E.E.E.E.4.E.E.E.m 4.4.y y y 4.4.m m u u m 6 w ",
"4 D ; H m m m m m m I.4.4.4.4.4.4.4.4.4.4.4.4.4.4.m m m 4.4.m 4.4.4.4.4.E.4.4.4.E.E.E.E.4.E.E.4.4.4.4.4.4.4.4.4.m m m u O X X - ",
"=.=...m m m m m m 4.4.4.4.4.4.4.4.4.4.4.4.4.4.4.4.m m m m 4.4.4.4.4.4.4.4.4.4.E.E.4.4.4.4.E.E.4.4.4.4.4.4.m m 4.m m u u u X u r ",
"=.| ` m m m m m 4.4.4.4.m m m 4.4.4.m m 4.4.4.m m m m m m 4.4.4.4.4.4.4.4.4.4.4.E.E.4.4.4.4.E.E.4.4.4.4.4.4.m m m u u u u y u r ",
"K  .m m m m m m m m m m m 4.4.4.4.m m 4.4.4.4.m 4.m m m 4.4.4.4.4.4.4.4.4.4.4.4.E.4.4.4.4.4.4.4.4.4.4.4.4.4.m m m u u u u y u w ",
"= K m m m m m m m m m m 4.4.4.4.4.4.4.4.4.4.4.4.4.m m 4.4.m 4.4.4.4.4.4.4.4.4.4.4.4.4.4.4.4.4.4.4.4.4.4.m 4.4.m m u u u u y u , ",
"; m m m u u m m m m m 4.4.4.4.4.4.4.4.4.4.4.4.4.m m m m m m 4.4.4.4.4.4.4.4.4.4.4.4.4.4.4.4.4.4.4.4.4.4.m m m m u u u y y y u w ",
"; u m u u m m m m m 4.4.4.m 4.4.4.4.m 4.4.4.4.4.4.4.m m 4.4.4.4.4.4.4.4.4.4.4.4.4.4.4.4.4.4.4.4.m m 4.m m m u u u u u u u u ! w ",
"T u u u m m m m m m 4.4.m 4.4.4.4.m m 4.4.4.m m 4.m m m m m 4.4.4.4.4.4.4.4.4.4.4.4.4.4.4.m 4.4.4.m m u u u u u u u u u u w ~ : ",
"- u u u m u u m m m m m m 4.4.4.m m 4.4.4.4.4.m m m m m m 4.4.4.4.4.4.4.4.4.4.4.4.4.4.4.4.m 4.m m u u u u : r ~ ^ , * , w w w : ",
"S 6 u u u u u m m m m m m 4.4.4.4.4.4.4.4.4.4.4.4.m m m m 4.4.4.4.4.4.4.4.4.4.4.4.4.m 4.4.4.m m u u 6 - = : ~ I R w , : w 6 : : ",
"w 6 I u u u u m u u m m 4.4.4.4.4.4.4.4.4.4.4.4.m m m 4.4.4.m 4.4.4.4.4.4.4.4.4.m 4.4.m 4.m m m u 4 6 6 e 6 E w : w 6 - w : ; q ",
"w 6 : : u u m u u m m 4.4.4.m 4.m m 4.m m 4.4.m m u m 4.m m m 4.4.4.4.4.4.m 4.4.m m 4.m m m m 3 L 6 6 ' O.6 6 ; 6 6 ; 6 w : 5 , ",
": 6 - w * u u u u m 4.4.4.m m m m 4.4.m m 4.m m u u m m m m 4.4.4.m 4.4.4.m m 4.4.m m m m - E T ; w Y E O.4 6 4 E 3 6 E ~ : - : "
};
