/* XPM */
static char *exitcarrdown21680168882[] = {
/* columns rows colors chars-per-pixel */
"64 64 194 2 ",
"   c #020101",
".  c #010A00",
"X  c #160202",
"o  c #081103",
"O  c #10100E",
"+  c #090A14",
"@  c #131C17",
"#  c #270000",
"$  c #330100",
"%  c #281010",
"&  c #0E2901",
"*  c #132A03",
"=  c #152A0A",
"-  c #163403",
";  c #1A3205",
":  c #1F3804",
">  c #1B330B",
",  c #17380D",
"<  c #1F3113",
"1  c #372505",
"2  c #36260B",
"3  c #392E0C",
"4  c #233502",
"5  c #233C04",
"6  c #27310C",
"7  c #223A0B",
"8  c #353403",
"9  c #222413",
"0  c #22251F",
"q  c #382913",
"w  c #253114",
"e  c #223C13",
"r  c #2D3816",
"t  c #29391B",
"y  c #333410",
"u  c #241527",
"i  c #341C27",
"p  c #312222",
"a  c #302F27",
"s  c #353733",
"d  c #450303",
"f  c #431508",
"g  c #521F04",
"h  c #561314",
"j  c #76151C",
"k  c #462807",
"l  c #40300D",
"z  c #4E2314",
"x  c #53201F",
"c  c #443414",
"v  c #663319",
"b  c #691823",
"n  c #4A3820",
"m  c #533925",
"M  c #4D2B32",
"N  c #4A3335",
"B  c #692521",
"V  c #7A2322",
"C  c #7E2A2E",
"Z  c #673424",
"A  c #783121",
"S  c #7A382C",
"D  c #18410E",
"F  c #254005",
"G  c #2C4206",
"H  c #2F4903",
"J  c #27400C",
"K  c #2D4A0C",
"L  c #35500E",
"P  c #2A4214",
"I  c #294A15",
"U  c #2D431C",
"Y  c #284B1C",
"T  c #334712",
"R  c #314A15",
"E  c #36431E",
"W  c #344C1F",
"Q  c #375114",
"!  c #35511E",
"~  c #304424",
"^  c #354B24",
"/  c #3A5226",
"(  c #384432",
")  c #444314",
"_  c #434520",
"`  c #534021",
"'  c #445D22",
"]  c #465E2B",
"[  c #55522A",
"{  c #444238",
"}  c #6E4128",
"|  c #436422",
" . c #4A6321",
".. c #4A6428",
"X. c #4D692B",
"o. c #536623",
"O. c #506A28",
"+. c #4B6331",
"@. c #436930",
"#. c #546B33",
"$. c #506638",
"%. c #536A3C",
"&. c #4D783A",
"*. c #557330",
"=. c #5A7331",
"-. c #5B7439",
";. c #666E38",
":. c #627835",
">. c #3D3A40",
",. c #454546",
"<. c #574445",
"1. c #595244",
"2. c #4D4F50",
"3. c #565555",
"4. c #6F4C48",
"5. c #7A4841",
"6. c #665554",
"7. c #5C7540",
"8. c #5F7B40",
"9. c #637B43",
"0. c #7C6857",
"q. c #5D5C61",
"w. c #695E63",
"e. c #6C6668",
"r. c #767070",
"t. c #881B19",
"y. c #9D1522",
"u. c #AB1720",
"i. c #A41E25",
"p. c #AA1A26",
"a. c #B31729",
"s. c #B31C28",
"d. c #B41F30",
"f. c #892724",
"g. c #8C2925",
"h. c #88252E",
"j. c #992223",
"k. c #9B2128",
"l. c #96282D",
"z. c #873024",
"x. c #9C332A",
"c. c #992532",
"v. c #883331",
"b. c #983436",
"n. c #A82224",
"m. c #AC2A2D",
"M. c #A52130",
"N. c #B52730",
"B. c #BB2435",
"V. c #A83337",
"C. c #A53F38",
"Z. c #B53235",
"A. c #BE353B",
"S. c #C52435",
"D. c #CA3336",
"F. c #C43539",
"G. c #CE3039",
"H. c #D1383D",
"J. c #914C37",
"K. c #993544",
"L. c #AB2D42",
"P. c #B93541",
"I. c #C73541",
"U. c #935249",
"Y. c #9A5B5D",
"T. c #B5494B",
"R. c #886858",
"E. c #9A645C",
"W. c #A7635B",
"Q. c #AD7757",
"!. c #A55D61",
"~. c #996667",
"^. c #95696B",
"/. c #8E7B74",
"(. c #A8696D",
"). c #A9777C",
"_. c #C94547",
"`. c #D74C55",
"'. c #E35D60",
"]. c #D4696E",
"[. c #E66568",
"{. c #7F8778",
"}. c #88857C",
"|. c #918579",
" X c #9D7E83",
".X c #8A8684",
"XX c #958D89",
"oX c #9B9A9B",
"OX c #B99E9A",
"+X c #B2A39A",
"@X c #AE9FA3",
"#X c #B2A3A5",
"$X c #D69E9F",
"%X c #DDB7B9",
/* pixels */
"> ; w 7 * e w 6 7 Q | &.@.:  .) 5 T #.| 5 5 : I ! 7 > P ~ t 2 2 f z k f k h g k 4 @.@.&.@.: o.H F | | | 4 5 : ^ U I 7 > I e : - ",
"e J 7 w > , e 6 6 5 F @.*.Q F - / I J W R 7 - / U 6 c a w e 9 0.R.R.0.0.R.R.R.0.^ e , $.#.) 8 G  .o.*.:.#.5 4 U U 6 > > D ; : , ",
"; 7 I e D , > > 6 7 7 7 J , : J , < e e - , P ; t q f 0.0.{.{.{..X X}.}..X}./.}.}.r.}.|.^.R.4.U.g k 5 D 7 6 e P e < = 6 r w e e ",
"! T / e Y D , , 7 * w > > < U , > P : > I W , r q x !.!.|.+XXXoXoXoXoXoXXX.X.X}..XXX X X).).].).U.J.` ` n 3 6 > > 7 6 r w e e P ",
"@.U 7 4 P ! J D e > , , , * = = < = D e - ! T 3 /.~.Y.(.OX+X+X+X@X@X@X@X@X@X#X#X@X#X@XOX%X%X%X$X)._.K.h.h.h 3 6 ; 7 e E 6 ; e W ",
"R 7 7 6 K I 7 T c ` 1 2 q c q p 1 2 3 3 3 c Z W.W.U.C C Y.Y.E.~.^.^.^.^.^.^.^.^.~.^.~.~.).^.(.(.g.l.i.p.i.f.A g 3 6 y ) ! D 5 W ",
"7 P T R I : ) v j V.V.V.b.J.b.b.b.C.T.T.C.T.C.F.n.j.y.j.f.h.c.c.h.v.v.h.b.l.l.b.b.x.c.c.V.V.M.P.V.L.N.I.d.m.m.x.A g k ) ! 7 4 7 ",
"7 6 6 5 ) 1 J.C.Z.A.I.I.T.].].'.[.`.F.D.D.F.D.G.S.F.N.Z.V.Z.F.D.Z.C.V.Z.A.N._.[.[.[.`.'.`.P.P.].P.P.I.I.P.B.I.B.Z.x.A k T 5 7 T ",
"^ : 8 k g J.Z.P.H.Z.l.C S v.b._.I.`.G.G.S.D.D.D.D.F.F.P.F.F.G.G.F.F.A.P.F.F.F._._._.C.I.I.P.P.T.l.V V z.y.P.I.D.D.Z.j.v.k 5 ! I ",
"^ _ k U.C.Z.I.B.y.f.d X # # B v.L.B.S.S.S.D.H.D.F.F.A.A.F.F.G.G.F.B.N.s.a.a.a.n.y.n.n.n.N.P.].K.h $ X X B f.L.A.D._._.l.k ! I D ",
"E n Z k.D.G.P.c.b f z N p   4.x j c.d.S.p.p.u.u.p.j.i.i.k.n.i.u.a.i.n.p.n.p.p.p.i.i.u.n.p.c.f.h z + { % m $ j P.I.S.L.v.k E - D ",
"7 c B t.N.B.M.j $ ,.  >.>.@   N $ C y.L.s.p.u.n.n.n.i.i.i.i.i.i.u.i.p.M.p.p.u.u.y.n.p.n.c.K.# { X O 1.p 9 6.d K.P.P.M.v.2 J J , ",
"> 3 k h l.l.l.h p >.@ 2.>.2.u M % B c.B.d.a.p.u.y.n.s.s.s.u.u.p.p.a.N.s.B.s.s.s.N.a.s.N.m.B % p X p 3.3.% 6.x B L.L.b.} y 5 y Q ",
"/ y m $ j c.C h <.0 ,.3.r.r.3.N { $ l.u.d.B.d.m.m.m.d.B.S.B.N.N.N.N.N.N.d.d.B.N.u.N.m.m.l.# 6.0 s e.w.e.3.p <.h h.l.A g 8 F 8 ;.",
"> : 9 f j c.h.h <.,.2.e.6.w.<.<.m $ V k.M.M.m.N.m.m.N.N.s.N.N.m.m.m.n.p.i.p.p.i.n.n.t.k.C # 3.,.2.e.q.e.4.N 6.2 B Z ` 8 L *.:.:.",
", 7 6 1 C b v.$ a s O <.<.6.0 0 9 m B V A V z.g.z.g.g.g.g.g.z.z.A z.g.g.g.g.z.A z.z.z.A z 0.0 0 + a 3.3.q { p [ m l 8 )  . .:.H ",
"> W 7 6 2 l l p = N o s s . . {   w 2 2 n m 2 1 1 l 2 1 2 2 l k c n 1 c 1 ` c 3 k c ) [ _ 6 . (   @ ,.@ 9 1.  7.w 6 5 +.X.#.X.: ",
"J P 5 7 G ^ ^ _ t @ 9 ( s   2.s w = e P , e ! > e > w < e w 7 7 > E J 7 L T I : 4 5 4 #.] e ~ ( s + ,.@ { . %.t ^ P G I I J 5 J ",
"J J J R 7 e e ( ~ a o w 9 @ w 0 , w e ; 7 , 7 J * 7 > e > P 7 7 ! : 7 T W 5 U F 5 : J e U ^ ^ w o 0 0 9 t ^ W T : J : - 5 J : 7 ",
"J 7 5 ^ Q e 7 e > > U w U < < < t U ^ 7 5 : R : 4 7 T W P e e 7 5 : 5 7 7 : #.-.#.O.7 7 e > 7 e t w w e > : > : 5 & - J J > 7 7 ",
"I , , P E J e ; > > ; 7 ^ > P P e 7 W R R 4 X.5 5 R P 5 7 > / 5 -.L 4 ; > #.J 7.O.R : : J > , ^ ~ ^ r e #.7 - : J 7 J J : > e 7 ",
"W W J : 7 - J > , : , 5 +.R 7 : 7 7 > : Q 5 ..=.5 Q 5 e 4 7 W 4 -.O.Q F +.Q X...R 5 J > J ; e ; W +.T 4 ] 7.F 5 K ' / : J ^ ^ < ",
"W W > J R ! I 7 R +./ & / R - %.E e : 5 5 : Q #.: 5 R %.W T > 7 ..O.| L 5 ] $.: P ; Q I R 7 - e > G T 7 #.=...- X.R J : W E e 7 ",
": Y 7 ! R ^ : : - ! ' ! - - R U 7 7 T $.-.-.L T 5 T 7.Q 7 ; e : ..L X.K 5 5 7 7 : $.I J : ; e * r ; 5 F ; T ..5 @.- 5 : : 7 e e ",
"7 7 7 7 7 7 4 7 4 7 7 ! ^ - ; > e E P G G -.-.T 5 +...P 7 ; 7 7 R Q K K : : 7 e > < > 5 ; D > e - F : | F 5 K Q - X.7.] $.: 7 > ",
"7 ..e 7 7 5 7 7 > 7 ; ; > 7 : ; * 7 P 7 7 Q ] Q : 7 7 7 e e e > : U ! F : J D < U > ; - > 7 > > ; : +.-.-.X.L F X.8...F 4 7 ^ J ",
"r +.7 T ^ : D 7 W I 7 * > * 7 ^ > ; 7 : : : 7 5 7 > ; e e > e 7 ' K ; / e - > $.] W 7 w > < ; > J : F I @.#.$.K X.! J F 5 R W : ",
"7 G 6 e ^ R 7 e 7 W ^ E J e e ^ ~ > ; > G 6 7 7 e e e e > w > 7 - T J / U U e 7 / Y P , > e = W 5 , - 5 I +.O.Q +.K : ! R W 7 ; ",
"5 : 7 7 7 ^ : > > 7 w > , 7 e U ^ 7 > 7 7 > 7 e * 6 - , < < ; * 7 > > E ^ ; 7 7 4 P W e w > ; W ! ; J 4 5 : - e : 4 4 : 7 e 7 7 ",
"7 7 , P ; 7 P 7 ; > 7 e 7 7 7 7 W e 7 7 7 ; * > > 6 > < ^ > ; > 7 7 e e ^ W 7 7 e G J > P > 7 7 ! W J ; 7 7 7 5 : 7 P 7 7 7 > > ",
"e , > e , , 7 U 7 Y ! I 7 7 R J 7 > 7 T ^ 7 e 6 e w e ( ^ e ; e > G 7 7 > ^ 7 P 7 4 - 7 : 7 U e ; J - #.+.4 : 7 7 > > e e > > e ",
"> e , ; ; P - , 4 J R ..! 4 R R 5 5 ! W ..7 e 7 ~ e < ^ ~ > < ; e w 7 ; ; 7 7 ^ : J 5 O.; 7 ! ^ J F J Q +.5 J : W P 7 ~ U w w = ",
"- P 7 , - 7 7 7 J ..X.-. .D ..K F ' O.O.: F J I T e 7 > ^ t w 7 > 7 > > > > 7 > F ..] 7.#.: +.Q 5  . . .: 5 5 T U 7 < e ^ e > > ",
"t t e 6 w > e W : F R ..=.K : F X.O.#.=...: : ^ ^ * P e < > = e e W P e - > J W R J 5 ..-.I J ; O. .=.-.o.: : ^ W e w = < < < e ",
"U Y 7 > - - 7 R I J & 5 5 X.e P H *.=.D - ; < ^ e e : 7 D 4 5 e W W & , = 7 , 7 ; - - - 4 : : J > 4 J 5 J : 7 : w w e e P 7 ; 7 ",
"Y W P > 7 , e e : 5 : T R M M M M M M M M M M t w 7 7 : : G P | W W > > > 7 > 7 ; ! J ; ; > D e > ^ > e J ; ^ w : , e > 7 7 7 U ",
"^ R : > e J P 7 7 , 7.M M M M M M M M M M M M M Q.Q.Q.Q.P : :.-.T U e ; > 7 : ^ > ^ P P Q.Q.Q.Q.Q.Q.Q.Q.Q.Q.T P 7 > 7 7 e e 7 R ",
"T 7 - P ! E , e J $.M M M M M M M M M M M M M M M Q.Q.Q.Q.Q.Q.Q.Q.G ; - e e e ^ e e Q.Q.Q.5.5.Q.Q.5.5.5.Q.Q.Q.5 7 ; * 6 > 7 7 ^ ",
"7 5 D R ^ Y 7 e M M M M M M 5.5.U.N M M M M M M M Q.M Q.Q.} Q.Q.Q.Q.Q.Q.Q., W W Q.Q.Q.Q.Q.Q.Q.M i Q.5.Q.5.5.Q.5.Q.7 7 7 7 7 : 7 ",
"5 4 7 7 7 7 > M M M M M M M M 5.5.} M M M M M M M M M M 5.5.Q.5.5.5.Q.Q.Q.Q.Q.Q.Q.Q.Q.Q.Q.Q.Q.M i Q.5.5.5.5.5.Q.Q.Q.W 7 * e e ^ ",
": J E 7 e > M M M M M 5.5.5.5.M M 5.5.5.M M M M M M M M 5.5.5.5.Q.Q.Q.Q.Q.Q.Q.Q.Q.Q.Q.Q.Q.Q.Q.Q.M i 5.5.5.5.5.5.5.5.Q.Q.7 < ^ ^ ",
"$.T ! 7 - M M M M M M M M 5.5.5.5.5.5.5.5.5.M M M M M M M M 5.Q.Q.5.5.5.5.Q.Q.Q.Q.Q.Q.Q.Q.5.Q.Q.Q.M 5.5.u u u 5.5.M M i i M U e ",
"@./ ; P ^ M M M M M M M M 5.5.5.5.M M 5.5.5.M M M M M M M M M 5.5.5.5.5.Q.Q.5.5.Q.Q.Q.Q.5.Q.Q.5.5.5.5.5.5.5.5.5.M M M i + + + 7 ",
"; +., > M M M M M 5.M M M M 5.5.M M 5.5.5.M M M M M M M 5.5.M 5.5.5.5.5.Q.5.5.Q.Q.5.5.5.5.Q.Q.5.5.5.5.5.5.M M 5.M M i i i + i J ",
": 7 J 7 M M M M M M 5.5.5.5.5.5.5.5.5.5.5.5.5.5.5.M M M M 5.5.5.5.5.5.5.5.5.5.Q.Q.Q.5.5.5.5.Q.Q.5.5.5.5.5.5.M M M i i i i u i Q ",
"7.P J M M M M M M 5.5.5.5.5.5.5.5.5.5.5.5.5.5.5.5.M M M M 5.5.5.5.5.5.5.5.5.5.5.Q.5.5.5.5.5.5.5.5.5.5.5.5.5.M M M i i i i u i -.",
": : 7 M M M M M 5.5.5.5.M M M 5.5.5.M M 5.5.5.M M M M M 5.5.5.5.5.5.5.5.5.5.5.5.Q.5.5.5.5.5.5.5.5.5.5.5.M 5.5.M M i i i i u i :.",
"7 - M M M M M M M M M M M 5.5.5.5.M M 5.5.5.5.M 5.M M 5.5.M 5.5.5.5.5.5.5.5.5.5.5.5.5.5.5.5.5.5.5.5.5.5.M M M M i i i u u u i H ",
"F P M M M M M M M M M M 5.5.5.5.5.5.5.5.5.5.5.5.5.M M M M M 5.5.5.5.5.5.5.5.5.5.5.5.5.5.5.5.5.5.M M 5.M M M i i i i i i i i X.5 ",
"5 M M M i i M M M M M 5.5.5.5.5.5.5.5.5.5.5.5.5.M M M M 5.5.5.5.5.5.5.5.5.5.5.5.5.5.5.5.5.5.5.5.5.M M i i i i i i i i i i T 7 7 ",
"Q i M i i M M M M M } 5.5.M 5.5.5.5.M 5.5.5.5.5.5.5.M M M M 5.5.5.5.5.5.5.5.5.5.5.5.5.5.5.M 5.M M i i i i J ..5 7 / T W 5 7 7 7 ",
"5 i i i M M M M M M U.5.M 4.5.5.5.M M 5.5.5.M M 5.M M M M 5.5.5.5.5.5.5.5.5.5.5.5.5.5.5.5.M M M i i T R 4 Q 9.' 4 K 5 7 4 * > > ",
"-.i i i M i i M M M M M M 5.5.5.M M 5.5.5.5.5.M M M M M M 5.5.5.5.5.5.5.5.5.5.5.5.5.5.M 5.5.M M i > e R 5 Q =.=.F : 5 5 ; e 7 e ",
"-. .i i i i i M M M M M M 5.5.5.5.5.5.5.5.5.5.5.5.M M 5.5.5.M 5.5.5.5.5.5.5.5.5.5.M 5.5.M M M M > 7 7 4 5 5 H =.: H X.7.+.W E e ",
"L ....i i i i M i i M M 5.5.5.5.5.5.5.5.5.5.5.5.M M M 5.M M M 5.5.5.5.5.5.5.M 5.5.M M 5.M M M > = e 7 7 K Q K o.L o.o.%.R : 7 e ",
"- L  .: i i M i i M M 5.5.5.M 5.M M 5.M M 5.5.M M i M M M M 5.5.5.M 5.5.5.5.M M 5.5.M M M M 7 > > ^ ^ #.-.-...K H Q Q R : e * w ",
": 7 e R R i i i i M 5.5.5.M M M M 5.5.M M 5.M M i i M i M M 5.M M M 5.5.5.5.5.M 5.5.M M 7 J , - e 4 e 7 4 P W T : 4 7 7 7 * > e ",
"5 ..:.X.7 i i i i M M M M M M M M 5.5.M M M M M i i i i M i M M M 5.5.M M 5.M M M M M ; e 7 P : = > 7 7 e e 7 > > - e 7 : e U e ",
"T ' R , : I i i i M M M M M M M M 5.M M i M M i i i i i i i i M M M M M M 5.M M M M > > > < ! < 7 5 ; > e : = e ~ = < > e e W > ",
"> , 7 7 J P i i i i M M i M M i M M M i i i i X.: 4 ..R i i i i i i i i M M M M M > 7 e > U U W > 7 7 > > > t ^ / w > < r e e > ",
"P 7 e P e 7 7 u i i M i i M M i i i i i i *.O.| Q 7 J R +.5 7 > + + i i i M M u e ; P 7 7 7 7 W 5 7 7 ; ; > ^ U E e w > e > > > ",
"7 , U T > 7 ^ u i i i i M M i 7 : : > R > 5 J F - : 7 J J , > ; + + + u i i M u u , / > e 7 7 7 U 5 7 7 e 7 W e > e : > e > : w ",
"P 7 > > * 7 u u i i i u u + + + G ; , ....> 7 5 5 5 : > e , ; e + + + + u i i M u 7 Y E ; 7 W 5 T 7 7 ] +.7 7 : 7 7 7 > e > 7 < ",
"> 7 ; 7 > 7 u u i i u u + + + + 7 P P R $.5 , 7 R 5 7 W ( = > , e + + + u u i i u : 5 #.- 4 W T > e T W +.5 7 5 W 4 7 W W > ; 7 "
};
