/* XPM */
static char *exitcarrdown31680168883[] = {
/* columns rows colors chars-per-pixel */
"64 64 193 2 ",
"   c #020101",
".  c #010A00",
"X  c #090D0D",
"o  c #160203",
"O  c #10100E",
"+  c #121C17",
"@  c #270000",
"#  c #330100",
"$  c #281010",
"%  c #0E2901",
"&  c #132A03",
"*  c #152A0A",
"=  c #163403",
"-  c #1A3205",
";  c #1F3804",
":  c #1B330B",
">  c #17380D",
",  c #1F3113",
"<  c #372505",
"1  c #36260B",
"2  c #392E0C",
"3  c #233502",
"4  c #233C03",
"5  c #27310C",
"6  c #223A0B",
"7  c #353403",
"8  c #222413",
"9  c #22251F",
"0  c #382913",
"q  c #253114",
"w  c #223C13",
"e  c #2D3816",
"r  c #29391B",
"t  c #333410",
"y  c #241527",
"u  c #341C27",
"i  c #312222",
"p  c #302F27",
"a  c #353733",
"s  c #450303",
"d  c #431508",
"f  c #521F04",
"g  c #561314",
"h  c #76151C",
"j  c #462807",
"k  c #40300D",
"l  c #4E2314",
"z  c #53201F",
"x  c #443414",
"c  c #663319",
"v  c #691823",
"b  c #4A3820",
"n  c #533925",
"m  c #4D2B32",
"M  c #4A3335",
"N  c #692521",
"B  c #7A2322",
"V  c #7E2A2E",
"C  c #673424",
"Z  c #783121",
"A  c #7A382C",
"S  c #18410E",
"D  c #254005",
"F  c #2C4206",
"G  c #2F4903",
"H  c #27400C",
"J  c #2E4A0C",
"K  c #35500E",
"L  c #2A4214",
"P  c #294A15",
"I  c #2D431C",
"U  c #284B1C",
"Y  c #334712",
"T  c #314A15",
"R  c #36431E",
"E  c #344C1F",
"W  c #375114",
"Q  c #35511E",
"!  c #304424",
"~  c #354B24",
"^  c #3A5226",
"/  c #384432",
"(  c #444314",
")  c #434520",
"_  c #534021",
"`  c #445D22",
"'  c #455E2B",
"]  c #55522A",
"[  c #444238",
"{  c #6E4128",
"}  c #436422",
"|  c #4A6321",
" . c #4A6428",
".. c #4D692C",
"X. c #536623",
"o. c #506A28",
"O. c #4B6332",
"+. c #436930",
"@. c #546B33",
"#. c #506638",
"$. c #546A3C",
"%. c #4D783A",
"&. c #557330",
"*. c #5A7331",
"=. c #5B7439",
"-. c #676E38",
";. c #627835",
":. c #3D3A40",
">. c #454546",
",. c #574445",
"<. c #595244",
"1. c #4D4F50",
"2. c #565555",
"3. c #6F4C48",
"4. c #7A4841",
"5. c #665554",
"6. c #5C7540",
"7. c #5E7B40",
"8. c #637B43",
"9. c #7C6857",
"0. c #5D5C61",
"q. c #695E63",
"w. c #6C6668",
"e. c #767070",
"r. c #881B19",
"t. c #9D1522",
"y. c #AB1720",
"u. c #A41E25",
"i. c #AA1A26",
"p. c #B31729",
"a. c #B31C28",
"s. c #B41F30",
"d. c #892724",
"f. c #8C2925",
"g. c #88252E",
"h. c #992223",
"j. c #9B2128",
"k. c #96282D",
"l. c #873024",
"z. c #9C332A",
"x. c #992532",
"c. c #883331",
"v. c #983436",
"b. c #A82224",
"n. c #AC2A2D",
"m. c #A52130",
"M. c #B52730",
"N. c #BB2435",
"B. c #A83337",
"V. c #A53F38",
"C. c #B53235",
"Z. c #BE353B",
"A. c #C52435",
"S. c #CA3336",
"D. c #C43539",
"F. c #CE3039",
"G. c #D1383D",
"H. c #914C37",
"J. c #993544",
"K. c #AB2D42",
"L. c #B93541",
"P. c #C73541",
"I. c #935249",
"U. c #9A5B5D",
"Y. c #B5494B",
"T. c #886858",
"R. c #9A645C",
"E. c #A7635B",
"W. c #AD7757",
"Q. c #A55D61",
"!. c #996667",
"~. c #95696B",
"^. c #8E7A74",
"/. c #A8696D",
"(. c #A9777C",
"). c #C94547",
"_. c #D74C55",
"`. c #E35D60",
"'. c #D4696E",
"]. c #E66568",
"[. c #7F8778",
"{. c #88857C",
"}. c #918579",
"|. c #9D7E83",
" X c #8A8684",
".X c #958D89",
"XX c #9B9A9B",
"oX c #B99E9A",
"OX c #B2A39A",
"+X c #AE9FA3",
"@X c #B3A3A5",
"#X c #D69E9F",
"$X c #DDB7B9",
/* pixels */
": - q 6 & w q 5 6 W } %.+.; | ( 3 T @.| 4 D ; P Q 6 : w ! r 1 1 d l j d f g j j 4 +.+.%.+.; X.G S } } } 3 4 3 ~ I P 6 > P w - = ",
"w H 6 q : > w 5 5 4 D +.&.W D = ^ T 6 ~ T 6 = ^ I 5 x p q w 8 9.T.T.9.9.T.T.T.9.~ w w O.@.( 7 F | X.&.;.@.4 ; I I 5 : : w = - H ",
"- 6 P w S > : : 5 6 6 6 H ; ; L > w w w = > > - r 0 d 9.9.[.[.[. X|.[. X X{.^.{.{.e.{.}.~.T.3.I.f j 4 D w 5 w L w q * 5 r q , H ",
"Q Y ^ w U S > > 6 & q : > , L > , S ; : P E L e 0 z Q.Q.}.OX.XXXXXXXXXXX.X X X{. X.X|.|.(.(.'.(.I.H._ _ x 2 5 : - 6 5 e q w w P ",
"+.I 6 3 L Q H S w : > > > & * * , * S w = ^ Y 2 ^.!.U./.oXOXOXOX+X+X+X+X+X+X@X@X+X@X+XoX$X$X$X#X(.Y.J.g.g.g k 5 - 6 6 R : - w Q ",
"T 6 6 5 J P 6 Y x n 1 1 0 x 0 i < 1 2 2 2 x C E.E.I.V V U.U.R.!.~.~.~.~.~.~.~.~.~.~.U.!.(.~././.g.b.m.i.u.d.Z f 2 5 t ( Q 6 4 E ",
"6 L Y T P ; ( c h B.B.B.v.H.v.v.z.V.Y.Y.V.Y.V.D.b.h.h.h.d.g.x.x.g.c.c.g.v.k.k.v.v.z.x.x.B.B.m.L.V.K.a.P.s.n.n.z.Z f j ( ^ H 3 : ",
"6 5 5 4 ( < H.V.C.D.P.P.Y.'.'.`.]._.D.D.S.D.S.F.A.S.M.C.B.C.F.D.C.V.B.C.Z.M.).].].]._.`._.L.L.'.L.L.P.P.L.N.P.N.C.z.Z j Y 4 6 T ",
"~ : 7 k f H.C.P.G.C.k.V A c.v.).P._.F.F.A.S.S.S.D.D.D.D.Z.D.F.F.D.D.D.Z.D.S.D.).).).V.P.P.L.L.Y.x.B B l.h.L.P.A.S.C.h.c.j 4 Q P ",
"~ ( j I.V.C.D.s.t.d.s o o @ N c.K.N.A.A.A.S.G.S.D.D.Z.L.D.D.F.F.D.N.M.i.p.p.p.b.h.b.b.b.M.L.'.J.g @ o o N f.K.Z.S.).).f.j ^ P S ",
"R b A h.D.F.L.x.v d l M i o 3.g h x.M.A.i.i.y.y.i.h.u.u.j.b.u.y.p.i.b.i.b.i.i.i.b.t.y.p.i.x.d.g l X [ $ n # h L.P.A.K.c.j R = S ",
"6 x N r.s.N.m.h # >.  :.:.+   M # V t.K.p.i.y.b.u.b.u.u.u.u.u.b.y.i.i.m.i.i.i.y.t.b.i.b.x.J.@ [ o O <.i 8 5.s J.L.L.m.c.1 6 H > ",
": 2 j g k.k.k.z i :.+ 1.:.1.y M $ N k.N.s.p.i.y.u.b.p.p.p.y.y.i.i.i.M.s.s.a.a.a.M.a.a.M.n.N $ i o i 2.2.$ 5.z N K.K.v.{ 2 4 t W ",
"~ t n # h x.V g ,.9 >.2.e.e.2.M [ # k.i.s.M.N.n.n.n.s.N.A.N.M.M.M.M.M.M.s.s.N.M.y.M.n.n.k.@ 5.9 M w.w.w.2.9 3.g g.k.Z f 7 H 7 -.",
": ; 8 d h x.g.g ,.>.1.w.5.q.,.,.n # B t.m.m.n.M.n.n.M.M.a.M.n.n.n.n.b.i.i.i.u.u.b.b.r.h.V @ 2.>.1.w.0.w.3.M 5.1 N C _ 7 K &.;.;.",
"> 6 5 < V v c.# p a O ,.,.5.9 9 8 n N B Z B l.f.l.f.f.f.f.f.l.f.Z l.f.f.f.f.l.Z l.l.l.Z l 9.9 9 X p 2.1.0 [ i ] n k 7 ( | | ;.G ",
": E 6 5 2 k k i + [ X a a   . [   q 0 1 b _ 1 1 < 2 1 < 1 1 k j x x < x < _ x k < x ( ] ( 5 . /   + >.+ 8 <.  6.8 5 4  .......; ",
"H P 3 6 H ~ ~ ) r * 8 / a   1.a q * > L * L Q : L : q , w q 6 6 6 E 6 6 J T L ; 3 4 3 @.O.w ! / a O >.+ [ . $.I ~ P H Y T H 4 H ",
"H H H Y 6 6 w / ! p X q 8 * 9 9 : , H - 6 6 : H - : 6 w : L 6 6 ~ 4 w Y Q 3 P 4 F ; H 6 I ~ ~ q X 9 9 9 r R E Y ; H D - 4 H 6 6 ",
"H 6 4 ~ W w 6 w : : L q I q q , r I ~ H D ; T ; 3 5 L ~ P w w 6 6 3 4 6 6 4 @.=.@.o.6 w w : > L r q q w : 6 : ; ; % = S 6 : 6 6 ",
"P H 6 > R H w - - : - > ~ : P L w 6 E T T 3 ..4 4 T L 4 6 - ^ 4 =.K 3 = > $.F 6.@.T ; ; L , ; ~ R ! e w @.6 = ; H 6 H H 4 : L 6 ",
"E E H 6 6 = ; 6 S ; 6 3 O.T 6 - 6 6 : ; W ;  .*.; W 4 6 4 6 ~ 3 =.o.W D ' W @. .Y ; S ; ; - > : E O.Y 3 ' 6.D D J ` ^ ; 6 ~ ~ , ",
"E E : H T Q U 6 T O.^ % ^ T = $.I w ; 3 4 ; W @.3 4 P 6.E Y 3 6  .o.} K 4 ' #.; Y - W P T H = w = F Y 6 @.*. .= ..P H ; E I w 6 ",
"- U 6 Q T ~ ; 6 = ~ ` Q = = Y L 6 H Y #.=.=.J W 3 Y 6.T 6 - w - ..J ..J 4 4 6 6 : @.T 6 ; - w = e = 4 D - T  .3 ..= 3 6 4 6 w w ",
": 6 ; : 6 6 3 6 6 6 6 Q ~ = - 6 w R Y H F =.=.Y 4 O. .I 6 ; 6 6 Y W J J 4 4 6 w : w : ; - L : , = D ; } D S J W = ..=.' #.: H : ",
"H O.H H 6 4 6 6 - 6 - - : 6 : - & 6 L 6 6 W ' W 4 6 6 > w w w : ; I Q D 4 6 S q w > - - - > : : ; ; O.=.*. .W F ..7. .D 3 6 Q H ",
"e O.6 Y Q 3 L 6 E Y 6 - : & 6 ~ : - 6 ; 4 3 H 4 6 3 - w w : w : ` J ; ~ w ; : O.O.E 6 , : , & : 6 4 D P +.@.#.J ..^ 6 D 4 T E ; ",
"6 H 5 w ~ T > 6 6 Q ~ r L w w E ! : - - 6 5 6 6 6 w w w : q : 6 = T 6 ^ I I w 6 ~ E H 6 : w : E : ; = D L O.o.W O.J ; Q T E 6 - ",
"4 ; 6 6 6 ~ > : : 6 w : : 6 L I ~ 6 : 6 6 - 6 w * q : : , , - - 6 6 : R ~ : 6 > 3 I E w q : - E ^ = H 3 ; ; = 6 ; 3 3 ; 6 w 6 6 ",
"6 : w L - 6 L > - : 6 w 6 6 6 6 ~ w 6 6 6 - & : : 5 : > ~ : - : 6 6 w w ! E 6 6 6 F w : L : : 6 Q Q H - 6 H 6 4 : 6 L 6 6 6 : : ",
"w S , > > : 6 L 6 ~ ~ P : 6 T 6 6 - 6 Y ^ 6 6 : w q , / ~ w = w : 6 6 6 - ~ 6 Y 6 4 = 6 4 6 I w - H = @.O.3 ; 6 H - : w w : : w ",
": H > - - S : H 3 ; P ..Q 4 T T 4 4 Q ~ ' 6 e 6 ~ w , ~ ! : , - w q 6 - - 6 6 ~ - F 4 @.= 6 Q ~ H D H W O.4 H ; E L 6 ~ r q q * ",
": S 6 : - 6 6 : H  ...=. .4 ..J D ` ..@.; D H P P w 6 : ~ r , : 6 6 : : : 6 6 : D ..' 6...3 O.W ; | | | ; 3 3 Y I 6 , L ~ , > : ",
"I r w 6 q : S ~ ; 4 T  .=.J ; D o.o.o.*. .; ; E ~ & I w , : > H w I w L = : H E T 6 4  .=.T H = ..| *.=.X.; 4 E E w , * , , , w ",
"I U 6 : = - 6 T P H % D ;  .H P G &.&.S - = , ~ w w - 6 > 5 3 H ~ E % : : : > 6 ; = = = : 4 ; L : ; H ; H 4 6 6 q , H L L 6 - 6 ",
"E ~ L : 6 > w 6 ; 4 ; Y T Q Y P ..} H = 6 : : r w 5 H ; 4 D L } Q E : : : 6 - 6 = ~ H = - : L ; : ~ : H 6 - ~ q : 6 , > 6 6 6 I ",
"E T 6 - w L e H 6 L 6.6.O.= ~ : - > - q : , > L E Y L | D ; ;.=.Y I w - : 6 6 ~ : ~ L L , : , : w w I w 6 ..Y P 6 : 6 6 w w 6 T ",
"Y : = L Q I H 6 H O.O.r w w : L > I ~ ~ ~ w : = - Q J W X.3 ; X.T H - = q S w ~ w L I I > - > r 6 : $.6 3 8.6 3 6 - & 6 : 6 6 ~ ",
"6 4 H P ~ U 6 6 - 6 w S : H : 6 S P P 4 H - 3 = 4 6 F ' O.: 6 6 H P - T L H E E 6 : w L : w : w 4 T ' @.W J J F 3 6 6 6 6 6 ; 6 ",
"4 4 : 6 6 6 : - 6 T I W 4 ; H ; J K 6 = ; H L Q ~ = 6 ; 6 ; w 6 ; W 3 +.Q 6 I : H 6 - > - 6 ~ O.6.| G o.J G W ` @.#.~ 6 & w w ~ ",
"4 6 I 6 L - 6 - 6 4 3 Q L D H ; D = 4 H : ~ Q E I 6 T ; ; T =.; 4 ; ; =.P ; ; H H 6 4 Q - H w 6 J ;.| G K K ` ;.W 4 6 6 6 q ~ ~ ",
"#.Y ^ 6 = ~ E - > H D ; K ; ; *.=.=.' H 6 > q ~ ~ w 6 4 W =.*.D o.| K *.; D - T T > 4 O.L 6 ^ ; D 4 o.X.G ; o.T 4 6 6 : : w I w ",
"+.^ - w ~ ~ 6 - ; 6.J ; ; ; o.' &.} W H - ; > - L E 6 4 6.O.4 ;  .&.o.J Y 6.7...; ; 6 O.J ^ = H 6 3 Q T W ; 6 6 6 w 5 * L 6 5 6 ",
": O.6 - w > = 6 6 =.6.T ; m M m m m m m m m m : H 3 H ;  .T 3 6 ; K =.K D ; 6 - H ; ; 4 Q Q = Y I L - 6 w 6 - w w ! w : 6 6 - F ",
"; : H w : : = - H ' ..m m m m m m m m m m m m m W.W.W.W.D 4 = 4 ; ; Q Y = > = 3 ; = T $.4 ; #.~ L , w w 6 w : q : E ~ w ; H ; W ",
"=.L H Q L - 6 : = ; m m m m m m m m m m m m m m m W.W.W.W.W.W.W.W.D > L w ; > , - - > W W.W.W.W.W.W.W.W.W.W., : : w Q E ; : K =.",
"; ; 6 T E ; , 6 m m m m m 4.4.4.m m m m m m m m m W.m W.W.4.W.W.W.W.W.W.W.: L ~ 6 : W.W.W.4.4.W.W.4.4.4.W.W.W.: 5 : 6 T 4 H o.;.",
"H = : H ~ Q : m m m m m m m 4.4.4.m m m m m m m m m m m 4.4.W.4.{ 4.W.W.W.W.W.W.W.W.W.W.W.W.W.m u W.4.W.4.4.W.4.W.w 6 6 ; J ;.G ",
"D P F ; = w m m m m 4.4.4.4.m m 4.4.4.m m m m m m m m m 4.4.4.4.W.W.W.W.W.W.W.W.W.W.W.W.W.W.W.m u W.4.4.4.4.4.W.W.W.w ~ 6 Y O.4 ",
"6 Q : T ~ m m m m m m m 4.4.4.4.4.4.4.4.4.m m m m m m m m m 4.W.W.4.4.4.4.W.W.W.W.W.W.W.W.W.W.W.m u 4.4.4.4.4.{ 3.I.W.W.3 Y 6 6 ",
"K ; D ..#.m m m m m m m 4.4.4.4.m m 4.4.4.m m m m m m m m m m 4.4.4.4.4.W.W.4.4.W.W.W.W.W.4.W.W.W.m 4.4.y y y 4.4.m m u u m 6 6 ",
"S D ; H m m m m 4.m m m m 4.4.m m 4.4.4.m m m m m m m m 4.4.m 4.4.4.4.4.W.4.4.W.W.4.W.W.4.W.W.4.4.4.4.4.4.4.4.4.m m m u X X X - ",
"*.=.o.; m m m m m 4.4.4.4.4.4.4.4.4.4.4.4.4.4.4.m m m m m 4.4.4.4.4.4.4.4.4.4.W.W.W.4.4.4.W.W.4.4.4.4.4.4.m m 4.m m u u u X u r ",
"=.| ` m m m m M 4.4.4.4.4.4.4.4.4.4.4.4.4.4.4.4.m m m m m 4.4.4.4.4.4.4.4.4.4.4.W.4.4.4.4.4.W.W.4.4.4.4.4.4.m m m u u u u y u r ",
"K  .o.m m m m { 4.4.4.m m m 4.4.4.m m 4.4.4.m m m m m m 4.4.4.4.4.4.4.4.4.4.4.4.W.4.4.4.4.4.4.4.4.4.4.4.4.4.m m m u u u u y u r ",
"- K m m m m m m m m m m 4.4.4.4.m m 4.4.4.4.m 4.m m m 4.4.m 4.4.4.4.4.4.4.4.4.4.4.4.4.4.4.4.4.4.4.4.4.4.m 4.4.m m u u u u y u , ",
"3 4 m m m m m m m m m 4.4.4.4.4.4.4.4.4.4.4.4.4.m m m m m m 4.4.4.4.4.4.4.4.4.4.4.4.4.4.4.4.4.4.4.4.4.4.m m m m u u u y y y u , ",
"4 m m m u u m m m m 4.4.4.4.4.4.4.4.4.4.4.4.4.m m m m m 4.4.4.4.4.4.4.4.4.4.4.4.4.4.4.4.4.4.4.4.m m 4.m m m u u u u u u u u ! L ",
"T u m u u m m m m 4.4.4.m 4.4.4.4.m 4.4.4.4.4.4.4.m m m m m 4.4.4.4.4.4.4.4.4.4.4.4.4.4.4.m 4.4.4.m m u u u u u u u u u u w U : ",
"- u u u m m m m m 4.4.m 4.4.4.4.m m 4.4.4.m m 4.m m m m m 4.4.4.4.4.4.4.4.4.4.4.4.4.4.4.4.m m m m u u u u : r ~ ^ , * , w w w : ",
"> u u u m u u m m m m m 4.4.4.m m 4.4.4.4.4.m m m m m m m 4.4.4.4.4.4.4.4.4.4.4.4.4.4.m 4.4.m m u u 6 - - : ~ I R w , : w : > 6 ",
"L 6 u u u u u m m m m m 4.4.4.4.4.4.4.4.4.4.4.4.m m m 4.4.4.m 4.4.4.4.4.4.4.4.4.4.m 4.4.m m m m R 3 6 6 w 6 ~ w : w : ; r : - q ",
"w 6 : u u u u m u m m 4.4.4.4.4.4.4.4.4.4.4.4.m m m m 4.m m m 4.4.4.4.4.4.4.m 4.4.m m 4.m m m 4 L 6 6  .O.6 6 3 6 6 : 6 w : 6 q ",
": 6 - 6 u u m u u m 4.4.4.m 4.m m 4.m m 4.4.m m m u m m m m 4.4.4.m 4.4.4.4.m m 4.4.m m m m E T - w Y E O.4 6 4 Q 3 6 R Q : ; : "
};
