/* XPM */
static char *_3246_8411da443f57350c8c0a07c454f50fa35e895f6313d3907eaa7f9afa3da76fa2[] = {
/* columns rows colors chars-per-pixel */
"64 64 46 1 ",
"  c #1E3616",
". c #1F3616",
"X c #1E3716",
"o c #1F3716",
"O c #1E3617",
"+ c #1F3617",
"@ c #1E3717",
"# c #1F3717",
"$ c #263A16",
"% c #273A16",
"& c #263B16",
"* c #273B16",
"= c #263A17",
"- c #273A17",
"; c #263B17",
": c #273B17",
"> c #341C27",
", c #4D2A32",
"< c #4C2B32",
"1 c #4D2B32",
"2 c #4D2B33",
"3 c #2D4217",
"4 c #2C4317",
"5 c #2D4317",
"6 c #344C1A",
"7 c #344D1A",
"8 c #354D1A",
"9 c #344C1B",
"0 c #354C1B",
"q c #344D1B",
"w c #354D1B",
"e c #5F761E",
"r c #5E761F",
"t c #5F761F",
"y c #5E771F",
"u c #5F771F",
"i c #476820",
"p c #466920",
"a c #476920",
"s c #476821",
"d c #466921",
"f c #476921",
"g c #7A4841",
"h c #AD7657",
"j c #AC7757",
"k c #AD7757",
/* pixels */
".&&..&$&&9fts&fq&qsf$;&qw&&&q&+.+&&o.;&&&dftd&fq&iff&;&wq&&&q&..",
"&*&$..&$&&&stq&&qq7qq&&qq&&&...&&w*$ .&qq&&ftq&&ffttf&&qq$o.$..&",
"&&q&&+ ..&&&*&&&&&&&&&;&&&....&&wq.+.$&&&&;&$&$q&&&;&&&&&..&&&&&",
"qqw&q&;&X.&&o.;$.&&&&q&&&&&o..qfqq.&&&&&&&$&q*&q&&9qq;&&..&&&&&q",
"sq&&qq&&;.......o+&&&qq$&&&&.dttqq. &qqq&&&&t$qq&qq&&..o.&$q&&&q",
"q$&&&q&qqq.o.&....&&&wq&&&q&&.&fq**..&$qq&&feqq&&q$&&..&&&&qq&&q",
"&&qq7*qq&. .*;*..&&&q&qq:&f&&.;&$&&....&&q&ftf&&&&&&....&&&qq&&&",
"&&&&q&&&..&&&q&&&&..f&&&&ta&&&&;&$...+..&&*qfq%&$$&&....&q&&q&&q",
"q&&;*&&&.&&&9q&&$&&.ft&&ftq&&&qq7&&..&*qtutdqq;qftt@...&&q&&&&79",
"qq&&&&...&&&qq&&qqqqftqqfq$*&&&qaq;&.&&&&qfffwfdq&*..&*&&qq&&qq&",
"qqw&..+&&q&&q;;*&&qqqftq7&&&;&&&fq&*&=&&**&0fq&&& ..&;&&&&qq&q&$",
"&&&*&&&&&ff&$&qqq;&qqwtqqaffq;&&&f&&&q&*$&&&&&.....&&&qqq&&7&&&&",
"$;&&qq7&&feq&qqq&$&*;qqqdfq$&*&w&;&&qq*&&&&&;&.&$$+.qsftt9&&$=&q",
"q&&&&&qq&&tt&wq&&&.. *&&;&&&&&qqq&&qq;*&fttt&&.*9q&..&$fut&&&*qt",
"&.&.o&&&&&qfqq&&&&&&. .*&&&&*qwq&.;qq&&&qftff&&.qt&&..*&qff&qttt",
"&&&..&&qttq0qfttsq*&q&.....&&*&&;&&q&&7$q9ffqf&qtt&&&&ff9&&qfftq",
"&q&&&&$&$ffqftts&...qq..o*...*&&&w&&&qq&&&7fq&&faf&;qfuf&&&ffff&",
"$q&&&qqq&&q&fdq&..&;.qw&.&&&&&&&&q&&qq7$&&&ff&qfq&&&ttd7qq&qqq&&",
"q&&q&&qqq&;&q&...&&&&&&&.&&&&&&&q&&q9;&*&&*&qqq&&&;&&7q9;&&&&&&&",
"&&&qw&& .&&&* .&&7q&&&q&.&&wq&w&&&&&&&tuti&&&*&&&$&&&&&....&&&&&",
"q&$&q&$&...&q$$&&&qqq&f&&qw&&$w&tq.&&f8tfq&&$&$qqq&*f&..&;q&&&&&",
"8q&&&&&&&&++fq&&*&&*q&dr&q*&&;w&ttq&fqffq&&%&...qfq&ft&&qf7&&q7&",
"qw&&qqw&qfq.7q&fq&&&&&qt;*qt9&&&fff0&ff*&&7qq*&.;&7&ftf&fq&=qq&&",
".q&q7q&&&qfq..q9&*qftuwq&qtq&&;&fqsq&&&&&sq&&&..&&&&&qf.d&&$*&&*",
"&*&&*&&*&&&qw...&qq&qutq&ff&&&&&7q9q&&*&&&..&&.&.$&f&&q8.ftdf&&&",
"&f&$&&&&..... $..&&&$qfq&;&;&&&&;qq;%;&&&&.+.....&sttfqqfta&&*q&",
"5f*qq&&&q7....&q..&&*&&&&&&&&&&&qq;q&&$fd7;....&&&&qatfqfs&&&qq&",
";&&&qw&&&q8q&&&qq...&;&&&&&&&&&o&q:qq&&&qq&&...w&&;&&ffqf&&qqq;.",
"$&&&&q&&+.&&&&&qq&&&&.&&........&&&qq*;&$qq&&..qq&&&&&&&&$*&&&&o",
"&&&&&$*..&&&&&&&q&&&&......&q...&&&&qq=&&&&&&*&&qq&&&&&&$&&&&&.o",
":&&&.+.q&qq9.&q&&&&qq&&$&&&qq&.&&&&&.q&q;;&&.&q&&&&ff*&&&&&-&&.&",
"&&..o&&&&&qfw&qq*&qqf;&&q&*qq...&&...&&q&&&f.&0q:&qqf;&&q&$qq.+.",
".&&. &&&&fftd$f6*aff&&;qq&&&q&+..&$..&&&&fftf&fq&fdp&&&qq&;&w&..",
"&q&*..&q&&qftq&$fsttf*&qq&&&&..&&q$&..$qq&&ftq&;fftta&&qq&..&..&",
"7w&.. &q7&..&f&qqtt&..&q&&&&&%&&qq. .;$&o. .&&&&$&&&&$$&&&&&&&&&",
"qq&.&&&*&&.qwqqqff&....&&&&&&&qfq9.&.....q&...&*&&*&&&q&&.&;&&&q",
"q9&&&&q&&&rtf.q......&.&q8qf&&ttqq.+.&&q&qq&&..&$&q&$fw&&..&&&&q",
"q;&&qq&&&fdq&&*&&*qq7&..&qqqf&&fq&..*&;q&&wq&..&*;f$&t&;*&..&&&w",
"&&&9qq&&&*&&$&&$*qq*&...&$&ff&&&&q&&q&qq&&**o.&&&7stqqq&&&&&+&&&",
"&&&$;&..&qw9&&$$qw&&&&qqq.&&..&&&q&aw&q&;&&&.&qftfqfqqqstsq&+&&q",
"&&q&=.& $&&q9&&&&&&&&qqqq&q;&qt&&&&tq&&&&&&q&&&&qtf97qftq&&&+&qq",
"fqq&&wq.&&&&q$&tttf$&&&qq*&&qtt*afqu&&*qq&$f&qq&;qfsw&sq&*&+.&q&",
"f7&&q9&.&tq.&&fftfq$&&.+qw;$td$&dtfqqrrf&&&aq7*&;&qq7*&&&&  &&&*",
"&f&&&&..&ttq&f9ffq&$qq*.$&&&fq&&&qtq&&$&&&;*7q&9q&&&*&&&&q&&*;;&",
"&&;&&...&faf&&qf;&&&q..qfaf&&&&&&&9q&..+.&7f&&fq&&&&&;o.&qq&&*&q",
"t&qq&.. .&7fq&ff&&&;.ofttff**ateu&&& .&&..&qfqf&& &&q&;+.&qq&&qt",
"&.&qq&*&.;&7q&&&ffwo...&&&&&fttw&.;*.&&q&..&9q&&..&6q&&&.;&q&&te",
"&&&&w7&&&&&&&&&qftta&&&&qq9&&&;&&....&&qq&.&&&&..&&q7&&* .$&&6uq",
"&q&&&*&&O.&$&&&o+o....&q7;&&&&&&&q&&&&&&q&;f&&..&&&$q&&&&.&q&qf&",
"$q&qqq&&...&+.Oo.*$..+&;&q&;&&&&&q9&&qf&&&ft&&o$&q&&&&q$&&qq;q&&",
"w&&af&&&qqq&.&....&..&&q;qq&&&&&q&qq&&qfq*uq&&..&qq&&9f;*7qq&&&&",
"&&&&$;$qq&&X&&&&&....&qq;$q&&&q&&&&&&&&tsqfq&&&.&&qq&wtf&q&*....",
"ttf&&&$*&&&.qqq&&& &&&qf..q&&qq&tq*&qq&&f9q&ffq..&&q&qtu&&:;&$&&",
"tfaa&ffttf&..&qq:&.q&$f$&&*&fqq$ttqw&ff7&7qq7&&&.&&;&*qt&qftfq9*",
"qafq&qqf.&&..;&qq&.7q$..;;&&ff&&ffq&&&tfqq&q&;&..&&&q9qf9ftfq&&*",
".qf .qf..&&&..&&&&&qf&*&fftf;&*&a7&&&$&&qq&&&#+.&qqftufqqqqq&$.+",
"**5q9;..ffq&$.&&&&&&ff&frtq&&&&&&q$&..&&&q&&&$&.&&&&&q9q..&&...&",
"&ftf&&&fqq&w.o&f;&&&&$&ft&.fpqq&&f$&...&&&*.&&&&..&;&&....*&&*q&",
"5f5=&&&&&&$&;.&ff;$qdutq&&fteyf&qf&..&..$&.11111111$&..&q..&&&q&",
"&&&555&&&55&.o&ff&qtrfsa&&fqff&.&&&.;q&.1111111<1<111.;qq&..&&& ",
"&&35*&&&&54...*f&$&qftffq&q7f&$.&&&.kkkk111,1111111111qqq&&.&;&o",
"&=q&&&qq&&kkkkhkkkjk&&&&.o&&&&.jkkkkkkk12111111ggg111111&&&.&&..",
"&$*&.&&q&kkkgggkkggkkk&&&&$kkkkkkkgkk1k1111111ggg11111111;*&&$.&",
"*&...&&kgkggkgk>1kkkkkkkq&kkkkgggkgg11111111ggg21gggg11111&7qo.."
};
