/* XPM */
static char *exitcarupl11680168884[] = {
/* columns rows colors chars-per-pixel */
"64 64 177 2 ",
"   c #090A0B",
".  c #160100",
"X  c #090A14",
"o  c #2A0804",
"O  c #330100",
"+  c #0E2901",
"@  c #132A03",
"#  c #152A0A",
"$  c #163503",
"%  c #1A3205",
"&  c #1F3804",
"*  c #1B320B",
"=  c #17380D",
"-  c #1F3113",
";  c #372605",
":  c #36260B",
">  c #392E0C",
",  c #233502",
"<  c #233D03",
"1  c #27310C",
"2  c #223A0B",
"3  c #353403",
"4  c #222413",
"5  c #382913",
"6  c #253114",
"7  c #223C13",
"8  c #2E3915",
"9  c #29391B",
"0  c #333410",
"q  c #241527",
"w  c #341C27",
"e  c #312222",
"r  c #363423",
"t  c #450303",
"y  c #431508",
"u  c #521F04",
"i  c #561314",
"p  c #751514",
"a  c #76151E",
"s  c #442407",
"d  c #492E06",
"f  c #4C2712",
"g  c #53201F",
"h  c #443414",
"j  c #663319",
"k  c #691823",
"l  c #4C3629",
"z  c #4D2B32",
"x  c #692521",
"c  c #7A2322",
"v  c #7E2A2E",
"b  c #673524",
"n  c #783121",
"m  c #7A382C",
"M  c #18410E",
"N  c #254005",
"B  c #2C4206",
"V  c #2F4903",
"C  c #27400C",
"Z  c #2E4A0C",
"A  c #35500E",
"S  c #294114",
"D  c #294A15",
"F  c #2D431C",
"G  c #284B1C",
"H  c #334712",
"J  c #314A15",
"K  c #36431E",
"L  c #344C1F",
"P  c #375114",
"I  c #35511E",
"U  c #304424",
"Y  c #364B24",
"T  c #395224",
"R  c #3D542D",
"E  c #384432",
"W  c #444314",
"Q  c #434520",
"!  c #534021",
"~  c #445D22",
"^  c #455D2A",
"/  c #6E4128",
"(  c #436422",
")  c #4A6321",
"_  c #4A6428",
"`  c #4D692B",
"'  c #536623",
"]  c #506A28",
"[  c #4B6331",
"{  c #436930",
"}  c #536B32",
"|  c #506638",
" . c #536B3A",
".. c #4D783A",
"X. c #557330",
"o. c #5A7331",
"O. c #5B7439",
"+. c #676E38",
"@. c #627835",
"#. c #3D3A40",
"$. c #4E4546",
"%. c #6D4F4B",
"&. c #7A4841",
"*. c #5C7540",
"=. c #5E7B40",
"-. c #637B43",
";. c #7C6857",
":. c #767070",
">. c #881A19",
",. c #9D1522",
"<. c #AB1720",
"1. c #A41E25",
"2. c #AA1A26",
"3. c #B31729",
"4. c #B31C28",
"5. c #B41F30",
"6. c #8A2825",
"7. c #88252E",
"8. c #992223",
"9. c #9B2128",
"0. c #96282D",
"q. c #873024",
"w. c #9C332A",
"e. c #992532",
"r. c #883331",
"t. c #983436",
"y. c #A82224",
"u. c #AC2A2D",
"i. c #A52130",
"p. c #B52730",
"a. c #BB2435",
"s. c #A83337",
"d. c #A53F38",
"f. c #B53235",
"g. c #BE353B",
"h. c #C52435",
"j. c #CA3336",
"k. c #C43539",
"l. c #CE3039",
"z. c #D1383D",
"x. c #914C37",
"c. c #993544",
"v. c #AB2D42",
"b. c #B93541",
"n. c #C73541",
"m. c #935249",
"M. c #9A5B5D",
"N. c #B5494B",
"B. c #886858",
"V. c #9A645C",
"C. c #A7635B",
"Z. c #AD7757",
"A. c #A55D61",
"S. c #996667",
"D. c #95696B",
"F. c #8E7A74",
"G. c #A4666A",
"H. c #A9777C",
"J. c #B77577",
"K. c #C94547",
"L. c #D74C55",
"P. c #E35D60",
"I. c #D4696E",
"U. c #E66568",
"Y. c #7F8778",
"T. c #88857C",
"R. c #918579",
"E. c #9D7E83",
"W. c #8A8684",
"Q. c #958D89",
"!. c #9B9A9B",
"~. c #AC9E9C",
"^. c #B2A39A",
"/. c #AE9FA3",
"(. c #B2A3A5",
"). c #D69E9F",
"_. c #DDB7B9",
/* pixels */
"* % 6 2 # 7 6 1 2 P ( ..{ , ) W , J  .~ < < & J I 2 * 7 U 9 : : y f s y u i s s < { { ..{ < ' V N ( ( ( < < 2 I F S & = D = * & ",
"7 C 2 6 * = 7 1 1 < < { X.P N $ T J 2 T P 2 & I F 1 h r - 7 4 ;.B.B.;.;.B.B.B.;.Y = = |  .W 3 < ) ' X.@.] < , F F 1 * * S $ % M ",
"% 2 J 7 M = * * 1 2 2 2 2 2 & 7 = 7 7 S % = 7 * 9 5 y ;.;.Y.Y.T.W.E.T.T.W.T.T.R.T.:.T.T.D.B.%.m.u d N < & 1 7 8 7 6 # 1 8 6 7 7 ",
"I J T 7 G M = = 2 @ 7 * % 7 F = * M $ * D L = 8 5 i A.G.R.^.Q.!.!.!.!.!.Q.W.W.T.W.Q.E.E.H.H.I.H.m.x.! ! l > 1 * * 2 1 8 6 7 7 S ",
"{ F 2 , 8 T N M 7 * = = = @ # # - # M 7 $ T H ; F.S.M.G.^.^.^.^././.(.(./././.(./.(.~.)._._._.).J.N.c.7.7.i > 1 % 2 7 K 1 * S Y ",
"J 2 2 1 Z D 2 J h ! ; : 5 h 5 w ; ; > > > h b C.C.m.v v M.M.V.S.D.D.D.D.D.D.D.D.S.D.S.S.H.D.G.G.7.0.i.2.,.6.n u > 1 0 W I & < G ",
"& S J J D & W j p s.s.s.t.x.t.t.t.d.N.N.d.N.d.g.y.,.9.8.6.7.e.e.7.r.r.7.t.0.0.t.t.w.e.e.s.s.i.b.s.v.p.n.p.u.u.w.n u s W I C , * ",
"2 1 1 < W ; x.d.f.k.n.n.N.I.I.P.U.L.k.j.j.k.j.l.h.g.p.f.s.f.n.j.f.d.s.f.g.p.K.U.U.U.L.P.L.b.b.I.g.b.n.n.b.a.n.a.f.w.n d H < 2 J ",
"Y % 3 d s x.f.n.z.f.0.v m r.t.K.n.L.l.l.h.j.j.j.k.k.k.b.g.k.l.l.k.k.g.g.k.k.k.K.K.K.d.z.n.b.b.N.e.c c q.8.b.n.g.l.f.9.r.d < I D ",
"Y Q s m.d.f.n.a.,.6.t . . O x r.v.a.h.h.h.j.z.j.k.k.k.g.k.k.l.l.k.a.p.2.3.3.3.y.8.y.y.y.5.b.I.c.i O .   x 6.v.g.l.K.K.6.d I D M ",
"K l / 8.j.l.b.e.k ; w z e   %.i a e.5.h.2.2.<.<.2.8.1.1.9.1.1.<.3.1.y.2.y.2.2.2.y.,.<.z z z z z z z z o l O a b.n.h.v.r.s K $ M ",
"< h x >.5.a.i.a O $.. #.r X   z O v ,.v.4.2.<.y.y.y.1.1.1.1.1.y.<.2.2.i.2.2.<.<.z z z z z z z z z z z z z %.t c.b.b.i.r.> 2 C = ",
"2 > y i 0.0.0.i e #.Z.Z.R.Z.Z.Z.Z.Z.Z.Z.5.3.2.<.1.y.3.3.3.<.<.2.2.3.p.5.Z.Z.Z.Z.z z z z z z z z z z z z z z g v v.v.t./ > < 0 J ",
"Y 0 ! O a e.v i $.Z.Z.Z.x.m./ Z.Z.&.&.Z.Z.Z.a.u.u.u.5.a.h.a.a.Z.Z.Z.Z.Z.Z.Z.Z.z z z z z z z z &.&.&.z z z z z z 7.0.n u 3 N 3 +.",
"* & 4 y a e.7.Z.&.Z.&.&.Z.&.Z.w z Z.Z.Z.Z.Z.Z.Z.u.u.p.Z.Z.Z.Z.Z.Z.Z.&.Z.Z.z Z.z z z z z z z &.&.&.z z z z z z z z b ! 3 P o.@.@.",
"= 2 1 ; v k Z.Z.Z.&.&.&.&.&.Z.w z Z.Z.Z.Z.Z.Z.Z.Z.Z.Z.Z.Z.Z.&.&.&.Z.&.&.z z z z z z z z &.&.&.z z &.&.&./ z z z z z 3 W ) ) @.V ",
"2 L 2 1 Z.Z.&.&.&.&.&.&.&.&.w z Z.Z.Z.Z.Z.Z.Z.Z.Z.Z.Z.Z.Z.Z.Z.Z.&.&.&.&.z z z z z z &.&.&.&.&.&.&.&.&.z z z z z z z z [ ` ` ` & ",
"C S z w w z z &.&.q q q &.&.z Z.Z.Z.&.Z.Z.Z.Z.Z.Z.Z.Z.&.&.&.&.Z.Z.&.z z z z z z z z &.&.&.z z &.&.&.&.z z z z z z z z J J C < C ",
"C X X X w z z z &.&.&.&.&.&.&.&.&.Z.Z.&.Z.Z.Z.Z.&.&.Z.Z.&.&.&.&.&.z z z z z z z z z z &.&.&.z z &.&.z z z z &.z z z z z < 2 2 2 ",
"C w X w w w z z &.z z &.&.&.&.&.&.Z.Z.&.&.&.&.Z.Z.&.&.Z.&.&.&.&.&.z &.&.z z z &.&.&.&.&.&.&.&.&.&.&.&.&.&.&.z z z z z z 2 2 2 2 ",
"J w q w e w w z z z &.&.&.&.&.&.Z.Z.&.&.&.&.Z.Z.Z.&.&.&.&.&.&.&.&.&.&.z z z z &.&.&.&.&.&.&.&.&.&.&.&.&.&.&.&.z z z z z z * S 2 ",
"Y w q w w w w z z z &.&.&.&.&.&.&.&.&.&.&.&.&.Z.&.&.&.&.&.&.&.&.&.&.&.z z z z z z &.&.&.z z &.&.&.z z z &.&.&.&.z z z z z L Y - ",
"L w q w w w w z z &.&.z &.&.&.&.&.&.&.&.&.&.&.Z.&.&.&.&.&.&.&.&.&.&.&.&.z z z &.z &.&.&.&.z z &.&.&.&.z z z z z z z z z z z 7 2 ",
"% w q q q w w w z z z z &.&.&.&.&.&.&.&.&.&.&.&.&.&.&.&.&.&.&.&.&.&.z &.&.z z &.&.&.&.&.&.&.&.&.&.&.&.&.z z z z z z z z z z 7 7 ",
"& 2 w w w w w w w w z z z &.z z &.&.&.&.&.&.&.&.&.&.&.&.&.&.&.&.&.&.z z z z z z &.&.&.&.&.&.&.&.&.&.&.&.&.z z z z z w w z z z * ",
"C [ 2 w w w w w w w w w w z z &.&.&.&.&.&.&.&.&.&.&.&.&.&.&.&.&.&.&.&.&.z z &.&.&.&.&.&.&.z &.&.&.&.z &.&.&.z z z z z w w z w 2 ",
"8 [ 2 J T % S 2 Y H = w w w w z z &.z &.&.&.&.&.&.&.&.&.&.&.&.&.&.&.z z z z z &.z z &.&.&.z z &.&.&.&.z &.&.z z z z z z w w w < ",
"2 C 1 7 Y J & 2 2 L T F S 7 w w z z z &.&.&.&.&.&.&.&.&.&.&.&.&.&.&.&.z z z z z z &.&.&.&.&.z z &.&.&.z z z z z z w w z w w w % ",
"< % 2 2 2 Y = * * 2 7 * 2 2 7 w z z &.&.z &.&.&.&.&.&.&.&.&.&.&.&.&.z z z z z &.&.&.&.&.&.&.&.&.&.&.&.z z z z z z w w w w w 2 2 ",
"2 2 7 S % 2 S 2 % * 2 7 2 2 2 2 z z z z &.&.z &.&.&.&.&.&.&.&.&.z &.&.&.z z z z &.&.&.&.&.&.&.&.&.&.&.&.z z w w z w w w w 2 * * ",
"6 M * = = # 2 F 2 Y I D * 2 J 2 2 z z z &.z z &.&.z &.&.&.&.&.&.z z z &.z z w z z &.&.z z &.z z &.z &.&.&.z z w w z w w 7 * * 7 ",
"* S = % % S $ M , & D [ I < J J < , z z z z &.&.z z &.&.&.z &.&.&.z z z z w w w z z &.z z &.&.z z z z &.&.&.z w w w w Y 9 6 6 # ",
"% 7 2 * % 2 & 2 < ` ` O.( N ` Z N ~ ` ] z z &.&.z &.&.&.&.z z z &.z z w w e w w z z z z z &.&.z z z z z z z z w w w w 7 Y 7 # * ",
"S F 7 * - - M Y & N J ) O.Z & N ] ` } O._ z z z z z &.z &.&.z z z w w w w w w w w z z w z z &.z z z z z z z z w w w 6 # - - 6 7 ",
"F G 2 * % % 2 J D C @ N , ` C S V X.o.N @ % z z z z &.z z z w w w w + = # 2 w w w w w w w z z z w z z w z z w w w w 7 7 S 2 % 2 ",
"L Y 9 * 2 M 7 2 * < * J J I J D ` ( C $ 2 * z z z z z z z w w X X L * * * 2 * 2 $ w w w w w w w w z z w w z w w q 2 7 * 2 2 2 F ",
"L J = % 7 8 S 2 2 S *.*.[ $ L * $ = % 6 * 7 z z w w w w w w X X X F 7 $ * 2 2 L * T 8 S - * - * 7 w z z w w w q X * 2 2 7 7 2 J ",
"J & % S L F S & C [ | 9 S 7 # S = S Y Y Y q z w w w w X X X X X X C % % 7 7 S U 7 S F F = * * 9 2 * w w w w w q X X @ * * 2 2 Y ",
"2 < C J T G 2 2 % 2 2 M * C * 2 & D D < q z z w w q q X X X X X X X % J S & L L 2 * 7 S = 7 * 7 & P ^  .w w w q X X 2 2 2 2 , 2 ",
", < 2 = 2 2 * % 2 J F P N * C & Z P C q q w w q q q 7 & X X X X X X , { T 2 F * C 2 % = % 2 Y | O.) V ] q w w q X X Y 2 @ 8 7 Y ",
"2 2 J = S * 2 % 2 * , P S N C & M $ < q w q q q F & J 2 & X X X X X X O.D , & C C 2 < T % C 7 * Z @.) V q w q q X X 2 2 2 6 U U ",
" .H T 2 $ Y L % 2 C N & A & & o.@.O.q q q q q Y Y S = < P O.X X X X X o.< < % J J = * [ C C T < N < ] ' q q q X X 2 2 * 2 7 F 7 ",
"{ T % 8 Y Y 2 % & *.Z & & & ] ) X.( q q q q = * S Y N , *.^ X X X X X Z J *.=.` & & C ` Z T % C 2 < L q q q q X X 7 * # 8 2 1 2 ",
"% [ 2 % 7 = $ 2 2 O.*.D M ] Z ` { q q q q Y & * C , C & _ J , C X X X A N < = % N < , * I L $ J F 7 q q q q X X 7 L 7 2 C 2 % B ",
"& 2 C 7 * * % % C ^ ` ` , < F ` 2 q q q J & = C ) } _ & N C % N X X X J $ 2 % & & $ F  .< < | L S 6 q q q q * 6 * L Y 7 & 7 & P ",
"O.S C I 7 % 2 * * & Y [ C M } [ & & N 2 $ % ` -.*.) ) < N ) @. .=.N * N = % * - % % M P [ J [ 2 * 2 7 - T 7 6 * 2 7 L L & & A O.",
"* , 2 J F 2 7 2 % & 2 L T , $ & ( ` S & , % $ * C $ C & ] o.o.T 2 $ F @ 2 * 7 Y 2 * $ % Y L 2 7 2 % 2 S L 2 8 2 * * 2 J < C ] @.",
"C $ 2 2 L I * 7 2 S * = 2 C C J { O.O._ & & 7 2 J J J & 2 2 , * * 2 % % 6 7 * Y L 2 % & 2 $ 2 % , , < Y L % 6 7 @ 7 2 2 & Z @.V ",
"N S B N $ 7 2 S $ * # S * F - * * = $ % 2 % 2 L J 2 2 2 2 * C < 2 F 2 2 2 % S & D & C ] 2 M - * * 2 2 8 F S 7 - - * 7 L 2 H ` , ",
"& I < D Y T * * * 2 7 7 * * # * * - 7 7 @ @ 7 2 2 J % , S = 7 2 2 L G < 7 Y { & < < ) X., % * 7 2 L 2 % 2 8 Y S 7 2 F L & J 2 2 ",
"A & < [ [ & 2 7 F F G 7 - * * & * * 9 * * M * T * Y T 2 & 7 * 7 H 2 L I * $ I [ A N X.I C 2 * $ 1 T J S 2 2 ` < < T J Y < 2 2 2 ",
"N N & 2 N & & J L C 2 % C 7 7 = 7 * * # * & T J * F S S & < T * , < N 2 * C C O.( A ` N C C * * 2 7 J D , P -.~ , Z & C , # % % ",
"O.O.X., & & 2 < 2 2 % & G T L & 7 * - 7 7 2 D _ C $ Y $ C J L N X.P C & T J , * _ A Z J _ ^ Y * * * S J < A o.o.< & < 2 % S 2 7 ",
"O.) I ` N ` [ *.*.^ J $ % & D Y 7 2 $ Y * * | < & % & N ~ I J * X.-.C J $ [ | J C S Z A J N S = * 2 2 , < , V o., V ] O.` K F 7 ",
"A ) ` Z N J P ^ % * % 2 * C S F Y 7 2 L I C * $ N & & C ^ ` 2 & X.T P Z 2 , *.| H T 2 D C * & * # 7 2 2 Z P Z ' A ' '  .J % 7 7 ",
"$ A ) & $ D ` , & < = N & % * 2 * 2 , J ~ C $ C _ ` } [ 2 2 < < _ Z N & 2 2 2 2 L J 2 < * = 2 * 2 L L | O.O._ Z V P P J 2 7 @ 6 ",
"& < C J H 2 $ * [ [ U M * % 7 2 % D , & ` [ & ` O.X.Z & C < & N & J & C < + = 7 2 Y 7 % 2 7 & = 7 2 7 2 < S Y J & , 2 2 2 @ * 7 ",
"< [ O._ 2 & C [ L Y * F % % 2 [ S $ & N N & , ` O., $ ` ) J P * 2 ` C & * % 2 2 M S 6 $ 7 & 8 * # % 1 2 7 7 2 % * $ 7 = 1 2 F 7 ",
"J ^ J * < D $ = * C 7 F 2 % * [ ^ & C J ~ O. .A M , } =. .O.( < S { 2 @ * 7 * * 2 * * * * 7 Y 7 2 < % % 7 % # 7 U # - & 8 7 L * ",
"* = 2 2 C S * 8 2 S S % * * S [ [ N D *.-.} ( ] & & _ D } ) 2 & C S 2 * S F * 1 * * 2 7 * S F L % 2 2 * 2 * 9 Y R - * - 7 7 7 2 ",
"S 2 S S 7 2 2 * 7 S S 2 $ * C ` C C & L ^ X.} ( P C C J [ & = * = * 2 * 2 L 7 2 2 % S 7 2 2 2 I < 2 2 % % * Y F K 7 6 * 7 * * 2 ",
"2 & F S 2 2 U T 2 S S * * % = 2 < , % J & & N C $ & 2 C C & * * 7 2 S * $ I S 2 2 2 T * 2 2 2 2 F < 1 2 8 2 L 7 * 7 * % 7 * % 6 ",
"S 2 * * $ = S 9 2 * 7 2 % 2 I < 2 * M _ [ % 2 & N , & $ - M $ - 7 7 2 $ % J J S < 2 L F , 2 L , S 2 2 _ [ 2 2 , 2 2 2 2 7 * 2 6 ",
"* 2 % 2 * 7 & T C * 2 _ $ & H Y 2 S S J | & & 2 J N 2 L E * * = 6 9 6 * * 2 < I M & &  .& * I H * 7 H Y [ < 2 < L , 2 L L * % * "
};
