/* XPM */
static char *_0995_8f826e660c7949b4a955344a3601f4012da8567058e1d9cc06ff630da5f3131b[] = {
/* columns rows colors chars-per-pixel */
"64 64 58 1 ",
"  c #080A14",
". c #090A14",
"X c #090B14",
"o c #090A15",
"O c #1E3616",
"+ c #1F3616",
"@ c #1E3716",
"# c #1F3716",
"$ c #1E3617",
"% c #1F3617",
"& c #1F3717",
"* c #263A16",
"= c #273A16",
"- c #263B16",
"; c #273B16",
": c #263A17",
"> c #263B17",
", c #273B17",
"< c #241526",
"1 c #241427",
"2 c #241527",
"3 c #341C26",
"4 c #341C27",
"5 c #351C27",
"6 c #341D27",
"7 c #4C2A32",
"8 c #4D2A32",
"9 c #4C2B32",
"0 c #4D2B32",
"q c #4D2B33",
"w c #2D4217",
"e c #2C4317",
"r c #2D4317",
"t c #344C1A",
"y c #344D1A",
"u c #354D1A",
"i c #344C1B",
"p c #354C1B",
"a c #344D1B",
"s c #354D1B",
"d c #5F761E",
"f c #5E761F",
"g c #5F761F",
"h c #5F771F",
"j c #476820",
"k c #466920",
"l c #476920",
"z c #476821",
"x c #466921",
"c c #476921",
"v c #7A4840",
"b c #7A4841",
"n c #7B4841",
"m c #7A4941",
"M c #AD7756",
"N c #AD7657",
"B c #AC7757",
"V c #AD7757",
/* pixels */
"+--++-VVVbnmbbV40VVVVBBVVVVVVVVMbbbb000000090bbb00bbbb0q00--s-++",
"-;>*VVbbbbbbbb60VVVVVVVNNNVbbbbVVb0q0000000bbbmvbbbb9000000+*++-",
"*-04400bb222bb0VVMbVVVVVbbVVbbbbm0000000000bbb09bnbn0000000---->",
"i...4000bbbbbbbbbVVbVVbVVnbVbbmbb0bb00000000bbb00bb0000b9900---a",
"l4.444q0b00vbbbbmVVbbbVVVbbbbbbbbbb00000bbbbbbbbbbbbbbb00008--;s",
"y424444000bbbbbbVVbbbbbVbbbbbbbbbbb0000qbbbbbbbbbbbbbnbb00000-*a",
">424444000bbmbbbbbbbbbbVbbbbbbbbbbbb008000bbb00bbbq00bbbb0000>--",
"-42444400bb0bbbbbbbbbbbbbbbbbmbbbb0bb000b0bbbb00bbbb0000000000-y",
"a32224440000nbbbbbbbbbmbbbbbbbbbbb000000bbbbbbbbbbbbb000000000ai",
"aa44444544000b00bbbbbbbbbbbbbbbbbbvb00900bbbbbbbbbbbbb000044000*",
"paa444444444400bbb0bbbbbbbbbbbbbbb00000bbbbbbb0bbbb0bbb00004403*",
"-;----;--cc43440000bbbnbbbbbbbbbbbb00000b00nbb00bbbb0bb00000444-",
"=---aaa--cda-a5470bb0bbbnnbbbmbbbbb0000000bbbbb00bbb00008440444a",
"a--*--aa--gg-ya-0008bb0bbbbbbbbbb0bbb000bbbbbbbbbbbb0900045444yg",
"-+-O+-----alaa---000b00bb0bbbbnbb000m0000bbbbbbbbbbbb00404444ggg",
"-;-++--aggasacggxa0000bb00bbbb0bbm00904000bb00b00b0bbb044044ccha",
"-a----*>*ccacgfz-+++00vbqbbbbb000b804044000b00bb0000bbb4444cczx-",
"-a>;-aas--a-lca-++;-+00000b00bb000004444000000bb00000006644aaa--",
"a--a--aaa---a-O++-----000qb00800740444444003000bq000080444------",
">--ap>:++->--%O--aa---a00000004444444-gh4444400q4004004442%-----",
"a*-*i-*-+++-a-;*--aaa-c..2000442ga+--cagz44444445004404442a-----",
"ya--*-;---O+la------a-...200442-gga-cacca----++444004444422--ay-",
"au>-aaa-yca+aa>ca----...X220442>ccci-cc;-*yaa;-+-...2244442:aa--",
"+a-aia---aca++aa--acg.....20422-caca-----ca---++-....<22442-;--;",
"-;--;------ya+++-aa-o...-c2242--ssaa----*-++--#- .. .-222442c---",
"-c------++++++-++*.....a->-2222->ay>;>--*-+++++.. ..gca22242->a-",
"rc-aa---aa++++-a+.....-----1222-aa>a-->cxa>+++.....achca2222-ai-",
"----as---iya---aa....-------222+-a;aa---aa--+.....-->cc22222aa;+",
"*----a-*++-----aa----+*-++++222+---aa;---aa--....------2222--;-+",
"------;++;------a-*--O+++++-a+++----aa:---;>----aa----->--->--+&",
"-->-+%+a*aaa+-a----aa-;*---aa-+-;---+a-a----+-a----cc-----=---+-",
"-*+#+-----aca-aa;-sij---a--aa+%+--+++--a-->c+-ia,-aac---a--aa%++",
"+--+O*---ccfl*cs;ccc-->aa---a;%++;*+#-->-xcgx-cy*ccx---aa->-a-%+",
"-a>;#+-a--acga-*czggc--aa----++-*a--++*aa*-cha--ccggc--aa-+%-$+-",
"aa-&O#;sa-++-c-aagg-++-a*>-----*aa+O+>--++O+---------*----------",
"aa-#----;-+auaaacc-++++-------yxaa+-+++++a-+++----;->-a--+-----a",
"ai----a-;-ggc+a%#++++-+-aaac--ggaa+++--a-aa--++---a;-ca--++----a",
"a---ia---ccs-----*asa-++,aaac--ci-+O-->a--sa-++-;-c--g----++---s",
"---aay--;-;-*->-;aa--+++*--cl----y--a-aa->-;++---ycgaaa-----#--*",
"-----*++-asa----aa----aaa+--++**-a-ca;a-----+-ycgcacaaaxgca-%--a",
"--a,>%-O---ii--------aaaa-a->ag----ga-;*---a----agcayacga---+-aa",
"caa--aa+----y->gfgc->;-aa---agg;czih---aa--c-aa*-acxa-ca---%+-a-",
"cy--aa-+-fa#--ccgca;->++ia--hx--xgzaaggc;--caa,->-aay---;-OO---;",
"-c--:-++-gga-cacca-*aa-+----ca---aha------>-ya-aa--------a*-;->-",
"-->*;+++-clc--ac----a++aclc*------aa-++++-al--ca-;--->#+-aa---*a",
"g-aa-++O+-aca-cc----O#cgfcl--cggg---++--++-acac--+--a->%+-aa--ag",
"-+-aa---+--aa---ccs++++-----cgga-+-;+*-a-++-ia>-++-ta*--+>-a--gd",
">--;aa---------acgfc----aaa------++++--aa>O----++*;aa---O+-;-sha",
"-a*--;;-$+-*---+%##%#+-yy------*-a------i->c--++----a----+-s-ac-",
"-t-pya;-+++-++++%-*++%->-a-------ai--ak---cg--+*-a--->a---aa-a--",
"s--lc---aaa-+-++++-++--a-sa-----a-aa--aca-ga--++-aa--ac>;aaa----",
"------*aa--@---->++++-aa>-a---a--->-->-gcaca---O--aa;agc-a-*++++",
"ggc-->*----+aaa*--+---ac++a--aa-ga--aa;-caa-lxa++*-y-agg-----*--",
"fzcc-cchgc-++-aa,-+y;-c---;-caa*ggay-cca-aaaa---+-----ag-acgcya-",
"acca-aac+--++>-aa-+aa*++>>--cc--cca---hcaa-a;--++---aaacacgca---",
"+ac++ac++>--++-----ax---ccgc>->-xa------ay---+##-aacggcaaaaa-;O%",
"-;raa>++cca-*+-,----cc-cfga------s--++---a-----+-----aia++--+%+-",
"-cgc---csa-s++-c-----*-cg-+xxaa--c--+++---;+----++-*--++++----a-",
"rcw>-------->+-cc-*sxdga;*cgggc-sc-O+:%+**+++-a->++--++-a#+---a-",
"---rrr---rr-+#-cc-adgxlc--cacc-+---+-a-+#++;--at>-++++-sa-O+>--#",
"--wr;-->-re+++>c-;-acgcca-ayc--+---+-a---+i--;>a---++>aaa>-+---#",
"-*a---aa--y++-----------++----++---+-aa---a*----i----;a;;--+->OO",
"-*;>+--y----+*a>---zc-----*---+;---++s>a;-aa+-a----cx-----;---+;",
";-+++--y->-c+*ai--aac---a->aa%++*-+#%->a---c+;as--aac->*a--ia+++"
};
