/* XPM */
static char *_82_8958c8ea909599104b325ac65f70db07d2ddd6bbbfc8b4fad576740e38ddb9d5[] = {
/* columns rows colors chars-per-pixel */
"64 64 59 1 ",
"  c #090A14",
". c #090B14",
"X c #1E3616",
"o c #1F3616",
"O c #1E3716",
"+ c #1F3716",
"@ c #1E3617",
"# c #1F3617",
"$ c #1F3717",
"% c #263A16",
"& c #273A16",
"* c #263B16",
"= c #273B16",
"- c #263A17",
"; c #263B17",
": c #273B17",
"> c #241526",
", c #241427",
"< c #241527",
"1 c #251527",
"2 c #341C26",
"3 c #341C27",
"4 c #351C27",
"5 c #341D27",
"6 c #4D2A32",
"7 c #4C2B32",
"8 c #4D2B32",
"9 c #4D2A33",
"0 c #4D2B33",
"q c #2D4217",
"w c #2C4317",
"e c #2D4317",
"r c #344C1A",
"t c #344D1A",
"y c #344C1B",
"u c #354C1B",
"i c #344D1B",
"p c #354D1B",
"a c #5E761E",
"s c #5F761E",
"d c #5F771E",
"f c #5E761F",
"g c #5F761F",
"h c #5F771F",
"j c #476820",
"k c #476920",
"l c #466821",
"z c #476821",
"x c #466921",
"c c #476921",
"v c #7A4840",
"b c #7A4841",
"n c #7B4841",
"m c #7A4941",
"M c #AD7656",
"N c #AD7756",
"B c #AD7657",
"V c #AC7757",
"C c #AD7757",
/* pixels */
"o**oo****yjgc*ci*icc=;*ii***i*oo#**o+****zcgx*ci*ccc*;*ii***p;oo",
"==*%+o***==zgi**iiyii**ii***ooo**p=%Xo*ii**cgi*%czggc**ii*o+&oo*",
"**i**#Xo#**=*****%;**=;***oooo**pio#o****%**%**i;**;*****oo*=***",
"itp*i***Xo;;oo;*o***;i*****oooixiio*******%*i**i=*iii**=oo*****i",
"ci**ii**-ooXoooooo***ii*****ocggty+o%ipi***=g%ii*ii**oooo;*i***i",
"i%*=*i*yiio+o*oooo***pi***i**o=ci;*oo*%iy**zaii**i=**oo**%%ii%*i",
"**iit=ii*OXo&**oo*%*i*yi**c**o**%**oooo**i*cgc******oooo***ii*;*",
"****i%**Xo***i***;ooc****gc=*****%oooooo***ici**%;**oooo*i**i**i",
"i**;&*%*o***yi**-*;ocg**cgi***iii**oo%*igfgcii*icgsoooo**i****yy",
"yi;***+o#**;ii**iiticgiicp%=***pci**o****ycccicci**oo***;ii**ii%",
"iii*ooo%*i**t88888878cgii**:****ci***;*****uci***ooo***%**ii*i*%",
"*******=*cc8888888688888ikcct;***c***i********oooo+**;iii**t****",
"%;**ipi**c88888888088888CCCC*=*i****it***%**CCCCCCCCCCcggi**%**i",
"i*****ii887888bbb88886888BCCCCCCC**pi*:*cgCCCbbCCbbbCCCcgg;%*%pg",
"*o*oo**88868888bbb8888888C8CCbCCCCVCC***CCCCCCC83CbCbmCbCcc*iggg",
"***oo*88888bbbb88bbb88888888bbCbbbCCBCNCCCCCCCC83CbbbbbCCC*iccsi",
"*i=**88888888bbbbbbbbb888888bbbbCNCCVCCCCCCVCCCC83bbbbbbbbCCccc*",
"*i***88888688bbbb88nbb80888888bBCbbbbCCCCCCCCbCCC8bb<<<bb88338**",
"i**i88888n6888bb88bbb8888888888bbmbbMCbbCCCCbCCbnbbbbbbb8883   *",
"***i888888bbbbbbbbbbbbbbm888bb8mbbbbCbbVCbbbbCCbbvbbb88b88333 3=",
"i**888888bnbbbbbbbbbbbbbb8888bbbbbvbbbnCCBbbbbCVbbbbbb7883333<3*",
"ti*88888bbbb888bbb88bbb888888bbbbbbbbbbbCbbbbbvbbbbbbb8883243<3=",
"ip08889888888bbbb88bbbb8b888bbbbbbbbbbbbCbbbbbbbbbbm8bb863533<3*",
"oi8888888888bbbbbbbbbbbbb68bb8bbbbbbbbbbbbbvbbnbvbbb8880333<<<2=",
"*8883388888nbbbbbbbbbbbb876888bbbbbbbbbbbbbbbbbb80b88843333433**",
"=383380888bmb8bbbb7bbbbbbb86bbbbbbbbbbbbbbbbbbbbb885233333333*i*",
"q333888887bb8bbbb88bvb88b88888bbbbbbbnbbbbbvb8b603333gcicc***iy*",
"*333833888888bbb88bbbbb888888bbbbvbbbbbbbbbbb88833**:ccix**pti*o",
"%*33333888887bbbbbbbbbbbb88888bbbbbbbbbbbbb8bb883*************=o",
"***334383307bbbbbbbbbbbb8888bbb8bbbbbbbbb8mb8788ii*********%**o$",
"****3383308bvb8m88b88bb88388b888bbbbbb8bb88b888****cc=**%*;%=%o*",
"**ooo33537bbb8888bb88b883238886bmb8bbb88bb8888yi:%iic***i**ipooo",
"o**oX333388888888bb888883333388b788bbbb8bb88k*ci*ccx***ii*;*i*oo",
"*i==oo33388888888b8838833334333808bb8b88888cgi**ccggz**ii*oo*oo*",
"ii*ooo33338838837883333332**;*3334888b7888Xo********;%********;*",
"ii*o=*=1338338833333333**;****p. 338888888*ooo*;**=***i**X****;i",
"iy-***i <333883oooo@+*o*ppic**g   33333288i*%oo***i**cp%*oo=***i",
"i***ii  ,42233****iii*oo*iiyc**  .   33338<i*oX*=*c**g****oo***p",
"***iii  <333*=**=ii**ooo***cc*       ><3380<Xo***tcgiyi*****o;*=",
"***%**  <33<***&ii****iiio**Xo      i*<<<33<<*ixgciziiicgci*#**y",
"*;i*;o  <<3<y*;******iyit*i**.     gi***<<<2<**=igcyticgi**:#;ii",
"zii**yi  ,<<i=*ggfl****ii***i     ig***ii<<<><i**tcci*ci***#o*i*",
"ct**ii*  <<<<*ccgci*=*ooii**g     ciiggc**<<<<=***iit*****XX***&",
"*c%***oX  1<<<icci*%ii*o****c.  *igi******;<1<<ii******=*i**=*;%",
"**;*=o#o*c<<,,ic****iooiccc=*   *%ii*oooo*ik<<<i******+#*ti****i",
"s*ii*ooXo*ici*cc;***o+cfhcc**cgsg***oo;-oo*ycic**o**y*;#o*pi**ig",
"=o*it***o**ii***ccpoooo*****cggi*o*=+**i*oo*yi**oo%ri***o;*i**gs",
"****ii*=*==****icggc***;iip*;=;**+oo+**ii*o**%%oo**ii***Xo*==ihi",
"*i***=*;@o*%***o@+oooo=it********t******i*;c**oo****i****o*i*ic*",
"*i*iii**#oo*oooo#*%oo#*;*i=******iy&=ic***cg;*o**i****i*%*ii-i*%",
"p**kc;**iii*X*ooo+*oo**i*ii*****i*iy*=tci*gi*;oo*ii**ic:=iii****",
"*****=*ii**O*****oooo=ti;*i***i**;***;*gcici***o**ii;igz*t;*oooo",
"sgc***%****#yii***o=*%izooi**ii*gi**ii**cti*ccioo*;i*igg*****%**",
"gxcc*ccfgc*oo*ii:*oi**c;**=*cii%ghii*kci;iiii***o*****ig*ichcii*",
"iccy*iico**oo;*ii;+ii%oo;;**kc**ccy***hcii*y;**#o***piicicdci***",
"oixooicXo-**oo****%ic=%*ccgc;***ci*%****yi***+Xo=iicggciyiii**o#",
"*=ety;oocci*%o******cc*cggi******i**oo**;i***;*o**;**iyyoX**#+X=",
"*cgc***cpi*uoo*c*;*%*%*cg*ocxii**c**ooo***=o****oo****oooo**;*i*",
"ece;**%**%;*;o;cc*-icggi**cgggc*ic*oo*oo%*ooo*i**#o**oo*ioo**;i*",
"***eee***ee*o+=cc*iggcxc*;cicc%o=**+=i*oooo***ii*;+ooo-ip*oo***X",
"*=qe=**%*ewooo*c***icgccy=itz=*+***o*i*%*oi***;i***oo*iii=*o***+",
"*%i***iy*=ioo***********oo%***+o*%*o*ii=**p=***;y;;***i*-**#**oo",
"%%=*+**i****o%y=***xc*******%*o=***ooi*i**iio*i****cc**;*==*%*o*",
":*ooo*%t***co%yy;*iic***i**ii#oo%*o$o**i***co*ii*%iyc***i;*iiooo"
};
