/* XPM */
static char *_200_08a1650a07348cd4d55bdc55b6838e07ab1fe9db5eeb8d059b83c1741dbd59ef[] = {
/* columns rows colors chars-per-pixel */
"64 64 62 1 ",
"  c #080A14",
". c #090A14",
"X c #090B14",
"o c #090A15",
"O c #1E3616",
"+ c #1F3616",
"@ c #1E3716",
"# c #1F3716",
"$ c #1E3617",
"% c #1F3617",
"& c #1F3717",
"* c #263A16",
"= c #273A16",
"- c #263B16",
"; c #273B16",
": c #263A17",
"> c #273A17",
", c #263B17",
"< c #273B17",
"1 c #241526",
"2 c #241427",
"3 c #241527",
"4 c #341C26",
"5 c #341C27",
"6 c #351C27",
"7 c #341D27",
"8 c #4C2A32",
"9 c #4D2A32",
"0 c #4C2B32",
"q c #4D2B32",
"w c #4D2A33",
"e c #4D2B33",
"r c #2D4316",
"t c #2D4217",
"y c #2C4317",
"u c #2D4317",
"i c #344C1A",
"p c #354C1A",
"a c #344D1A",
"s c #344C1B",
"d c #354C1B",
"f c #344D1B",
"g c #354D1B",
"h c #5F761E",
"j c #5E761F",
"k c #5F761F",
"l c #5E771F",
"z c #5F771F",
"x c #476820",
"c c #476920",
"v c #476821",
"b c #466921",
"n c #476921",
"m c #7A4840",
"M c #7A4841",
"N c #7B4841",
"B c #7A4941",
"V c #7B4941",
"C c #AD7756",
"Z c #AD7657",
"A c #AC7757",
"S c #AD7757",
/* pixels */
"+--++----svkn-nf-fvn-,-ff---f-++%--++,---nnkb-nf-cnn-,-gf---g-++",
"-;-*#+-----vkf--ffgff--ff-,-+++--g;-O+-ff--nkf--nnkkn--ff-++*++-",
"--f--%O+%---------,-;-,---O+++--gf+%+----*--*--f---,-----++-----",
"ffg-f,-;O+;-++,-+----f-----+O+anff+------**-f--f;-fff-;-+%-----f",
"nf--fa--,++#++++++-;-ff-----+nkkff++;fff-*--k*fa-ff*-O+++-*f-;-f",
"f*---f-sgf+#+-++++---gf---a--+-nf--#%-*ff--nkff--f---++----fg--f",
"--ffa;ff-+O+;-;++---a-ff--c--+--*--O+++--f-nkn,;----++%+---ff---",
"----f---+%---f*---++n-*--kn--,---*+++++#---fng--*---++++-f--f--f",
"f--,----+-;-sf--*--+nk,-nkf---fff--++-;skjknaf-fnkkO+++--f----fs",
"ff--*-+++--;ff--ffsfnkffnf:;---snf;-+----gnnnfcnf--++----fs;-ff-",
"fff-+++;-f--f,-;-:fffnkff-----;-nf---,-----dnf---+++;;----ff-s-*",
"-------=-cn-*-fgf,-ffgkffnbnf,---n---g--------++#+#---ffg--f----",
"*,--fff--nhf-ffg----,fgfbnf--=-f----ff------,-+---&+gnnkka--*--f",
"f-----gf--kk-ff,--+%@-------*-fsf,-ff-;-nkkk;-+-ff-%+-*nkk----fk",
"-+-+@--*--fnff----;-+$#------ggf-+-ff-*-fnknn*-+fk--++-<fnn-fkkk",
"--,++--fjkfgfnhkns--f-+++++-*<--,--f--f-ffcnfn-fkk----nns--fnnkf",
"-f----*-*nnfnkkv-+++ff++#;+++;---g---fs---fnf--nxn-,fnkn---nnnb-",
"-f---ffg--f-cnf-++--+ff-%------*-f--fsf**--cn-fnf---kknfff-fff--",
"f--f--fff---f*+++*--;-;-+-----<-f--qqqqwqqq-fff-----;afs----*---",
"---ff;-#+----+O--ff;--f-+--fg-f-qqqqqqqqqeqqq*----,--,-@+++-----",
"f-SSSSSSSSSSf--*--fff-n--fg-SSSSqqq9qqq0qqqqqq-fff--n-++--f-*=--",
"aSSSMMMSSMBSSS------f-bSSSSSSSSqqqqqqqqMNMqqqqqqfnf-nk--sns--ga-",
"MSMMSMS5qSSSSSASf-;SSSSSSSMSSqSqqqqqqqMMMqqqqqqqq-f-nkn-nf-:ff--",
"SMMMMMS5qSSSSSSSSSSSSSMMMSMMqqqqeqqqMMMqqMMMMqqqeq---fn+b---;--;",
"MMMMMM5qSSSSSSSSSSSSSSSSMMMMqqqqqqMMMMMMMMMqqqqqqqqn--ff+vknn---",
"M333MMqSSSMSSSSSSSSMMMMASMqeqqqqqqMMMqqMMBmqqqqqqqqkknffnkc*--f-",
"MMMMMMMMMZSMSSSSMMSSMMMmMqqqqqqqqqqMMMqqMNqqqqMqqqqqnknfnb*,-fa-",
"MqqMMMBMMSSMMMMSSMMSMBMMMqMMqqqMMMMMMMMMMMMMMMqqqqqq*nnfn--ggf-+",
"qqMMMMMMSZMMMMCSSMMMMNMMMMMqqqqMMMMMMMMMMMMMMMMqqqqqq;--,------+",
"qqMMMBMMMmMMMmMSMMMMMMMMMMBqqqqqqMMMqqMMBqqqMMMMq9qqe---------+&",
"qMMqMMMMMMMMMMMSMMMMMmMMMMMNqqqMqMMMMqqMMMMqqqq9qq9qqq-----*--+-",
"qqqqMMMmMMMMMMMMMMMmMMMMMMqMMqqMNMMMMMMMMMMMqqqqqqqqqq--f--ff+++",
"55qqqMqqMMMMmMMMMMMMMMMMmMqqqqqqMMMMMNMMMMMMMqqqqq55qqqff-,-f-++",
"55555qqMMNMMMMMMMMMMMMMMMmMMqqMMMNMMMqMMMMqMMMqqqqq55q5ff-+O,++-",
"ff-5555qqMqMMMMMMMMMMMMMmMqqqqqMqqMMMqqMMMMqMNqqq0qq555---------",
"ff-+--55qqqMMMMMMMMMMMMMMMMqeqqqqNMMMMqqMMMeqqqq955q555--+-----f",
"fs----f5qqMBqMMMMMMNMMMMMMqeqqqMMMBMMMMMMBMqqqqqq55555f--O+-,--f",
"f--*ff--eqqqMMeMMMMMMMMMqMMMqqeqMMMMMMMMMMMMqq55q5555z--,;++;--g",
"---fff---qq0MqqMMqMMMMMMqqqMqq5qqMMqqMqqMqBMMqq54955fff-;---+---",
"--:---++-fqqqqNMqqVMMqMMM90eq555qqMqqBMqqqqMMM05555nfffnknf-%--f",
"--f-,+-O---gqqMMqMMMMqqqmqq55555qqqqqMBqqqqqqqq5555sasnkf---&-ff",
"nff--fs+----fqq8qqM0MMqqq55555755qq5qqMqqqqqqqq555nna-nf--,#+-f-",
"na--ff-+-kf+-;qqqqMq9q5555--kb5555555qqq5qq5qq5555ffa-----OO---;",
"-n----++-kzf-nqqqqeqq55..---nf---55555555qq55q553;------*f,,;-,-",
"--,--+++-ncn;-qq555555...nn-;;----ff,++++5q95753.----,#+-ff--<-f",
"k-fa;%+O+-fxf3q4555....o.nn--vkkk---++*-++555553..--f-,%+-ff-;ak",
"-+-ff---%--s3qq5533.... ..--nkkp-+,;+--f-++-5553..-if--;O,-f--kh",
"---;ff*----3365321kn......f------++%+--ff*+-3553 .-ff---O+---fzf",
"-f---;--$+-37333$#+++......------f------f-,n3533..*-f--*-+-a-fn-",
"-f-aff--++33333++-*#+% ....------fs--fn---nj333..f----f---ff-f--",
"g--cn,--gf3333++++-++-.....-----f,ff--fnf-k3333X.ff;-fn,;aff--*-",
"-------ff3333----++%O-ff...---f--=---,-knf3333..--ff;fhn;f--++++",
"kkn--;*--333fff---+,--fn...-*ff-kf--ff--nf3333f%+--f-fjz----**--",
"knnn-nbhkn-++-sf<-+f--n---;-nff*kkff-vnf;ffff---+-,-*-sk,fnknsf-",
"fncf-fan+--++--ff-+ff-%O,,--nn--nca,--knff-a---++--,fffnfnknf,;-",
"+fv++an%+,--+%->-;-fn---nnkn<---nf------ff--;+++-ffnkknfgfff--+%",
"-;ufs,++nnf-*+----*;nn-nkkf--*---s;-++---f-;---+-----fsf+O--+++-",
"-nkn---nff-g++*n-----**nk;+nbff--n--+++---;+,---++--;-++++----f-",
"unu,-------<,+-nn-=gnkkf--nlkhn-fn-$+-++*-+++-f--++--++-f++---g-",
"---uuu---uu-+#-nc-fkknnn--nfnn-O--*+-f-&+++---af--+%++-ff-++---O",
"--tr;----uy++O;n;-,gnknnf-gav--+-*-+-g---+f---<s---++-gfg-;+---#",
"-*f---sa--f++----*------++----+O---+-ff-=-f-----s-----f*---+--++",
"--;-+--g----+*s--;;nn--;--*---+;---++f-f--ff+-f----nc-----;---+-",
"--+++--f---n+*fs--ffn---f--ff%++*-+#+--f---n+-ff--fsn---f,-ff+++"
};
