/* XPM */
static char *_8607_07ba5c458bfb296bab07ed0b52b4bd59d7bdb8deea66ad96c53c8b1e50573ffa[] = {
/* columns rows colors chars-per-pixel */
"64 64 56 1 ",
"  c #090A14",
". c #1E3616",
"X c #1F3616",
"o c #1E3716",
"O c #1F3716",
"+ c #1E3617",
"@ c #1F3617",
"# c #1E3717",
"$ c #1F3717",
"% c #263A16",
"& c #273A16",
"* c #263B16",
"= c #273B16",
"- c #263A17",
"; c #273A17",
": c #263B17",
"> c #273B17",
", c #241527",
"< c #251527",
"1 c #341C26",
"2 c #341C27",
"3 c #351C27",
"4 c #341D27",
"5 c #4D2A32",
"6 c #4C2B32",
"7 c #4D2B32",
"8 c #4C2B33",
"9 c #4D2B33",
"0 c #2D4316",
"q c #2D4217",
"w c #2C4317",
"e c #2D4317",
"r c #344C1A",
"t c #354C1A",
"y c #344D1A",
"u c #354D1A",
"i c #344C1B",
"p c #354C1B",
"a c #344D1B",
"s c #354D1B",
"d c #5F761E",
"f c #5E761F",
"g c #5F761F",
"h c #5F771F",
"j c #476820",
"k c #466920",
"l c #476920",
"z c #476821",
"x c #466921",
"c c #476921",
"v c #7A4840",
"b c #7A4841",
"n c #7B4841",
"m c #7A4941",
"M c #7B4941",
"N c #AD7757",
/* pixels */
"X**XX****izgc*ca*azc*:*aa***a*XX@**XX:***ccgx*ca*ccc*:*sa***s*XX",
"*=*%OX*****zga**aaaaa**aa***XXX**s=%.X*ya**zga**ccggc**aa*XX%XX*",
"**a**@.X@*************:***oXXX**saX@X****&**%**a***:*****XX*****",
"aas*a:**.X=*XX-*X=***a*****X.XacaaX***:***%*a**a=*aaa***X@*****a",
"ca**aa**:XXOXXXXXX***aa***%*XcggaaXX*aaa****g%ay*aa**.XXX**a*=*a",
"a%***a*isaXoX*XXXX***sa***a**X*ca*=X@*%aa**cgia**a*:*XX****aa**a",
"**aay=aa*X.X=**XX***y*aa**c**X**%**.XXX**a*cfc*>****XXXX***as***",
"****a***X@**=i****XXc****gc******%XXXXXO***aca**%**=XXXX*a**a**a",
"a**:****X***pa**%**Xlg:*cga***aaa**XX**agfgcya%acghXX@X**a****ai",
"aa****XXX**=aa**aaaaxgaaca-=**%ica**X%**%sxccalca**XX****aa=*aa*",
"aaa*XXX=*a**a:*=*%aaacgaa****%=*ca***-*****pca*::XXX*=*:**aa*a*%",
"*********lc*%*asa:*aasgaacccs:***c***s%%******OXOXO*:*aas**a****",
"%:**aia**cda*aaa****:aaaxca**%%a****aa*****%:*X:**$Xaccggs**%**a",
"a*****sa**gg*aa***XX.*****=*%*aia:*aa*=*cggg**X*aa*XX=%cgh***=ag",
"*X*XO*****acaa****=*O@O******asa*X*aa*=%acgcc**@ag:*XX*=acc*aggg",
"***XX**aggasacdgci**a*XXXXX*-:**:**a**a*aalcac*agg****cxi**accga",
"*a****%*%ccacggz*XXXaaXXO&XXX=***s***ar**:aca**clc*:acgc***cccx*",
"*a%**aas**a*cca*XX**Xaa*X***%****a**iia%%**lc*aca***ggcaaa*aaa%*",
"a**a**aaa***a*XXX****==*X*******a**aa*******iaa*****=yai********",
"***aa**OX7777777977=**i*X**aa*a=*****%gggx*:%:*********OXXX*****",
"a***NNNN7777777777777*c**as*:*s*gaX:*cihca*****aaa**c*XX**i**&**",
"NNNNNNN797777777777777xf*a***:a:gga*cacza****XX@ala*cg**ica**yy*",
"NNbNN7N777777777bbb77777:=aga***ccci*cc=**yaa*:X**a*cgc:xa*-aa%*",
"bNbb77777777777bbb7777777aga****caly*****la***XX*%**=acXx***=**=",
"bbbb777777777bbb77bbbb7777c****:aaaa****%*XX*=X*X%*c**aaXcgcc:**",
"Nv777777777bbbbbbbbb7787777::*%*:aa*=:****XXXXXXX*jggcaacgl%**a*",
"b7779777777bbb77bbbb7777777*****ay:a&**cxa*XXXO****acfcazx%**au*",
"b7bb77777777bbb77bb7777b7777***@*a=aa***aa*=XXXs**%**ccac*:saa*X",
"bbb77777bbbbbbbbbvbbbbb77797@OXX**:aa**:*sy-%XXya*:************X",
"bbb77777bbbbbnvbbbbbbbbb77777XOX****aa-*********aa*=**********X$",
"bbbb677777bbv77bbb777bbmb7777*X***::Xa*a****X*a***%cc******%**X%",
"bb7bv777b7bbbb77bbbb7777675777XX**XXO**a***c.*pa>*aac***a**aaXXX",
"bb777777bbbbbbbbbbbbb777777777@XX*%XX****ccgc*ca*cck*:*aa*:*a*XX",
"bbbb77777bbbbmbbbbbbbb777722777**a**XX%ai**cga:%ccghc**aa*XX:XX*",
"bb77777bbbbbbm7bbbb7bbb77772272*aaX..:*%XX.X***=*:=**%*%*%******",
"bnb77777v77bbb77bbbb7bv97777222caaX*.XXXXa=XXX****=***a**X***:*a",
"bbb7777777bbbbb77bbb77777227222gaaXXX**a*ay**XX:**a*-ca**.X****a",
"b7bbb777bbbbbbvbbbmb7779722222*ca*XX**:i*%sa*X@*>*c**h**:*XX=**p",
"b777b7777bbbbbbvbbbbb92272222****a**a*ai%**=X@**:ycgaaa*=*=*X***",
"bb77772777Mb77b77b7nbb712722XX***a*ca*a*****.*acgcicaaacgca*@**a",
"7b772222777b77bb7777bbb2222*:ag**%*ga******a****agxiyicga***$*aa",
"77722212777777bb77777772222*agg=ccag***aa**c:aa**acci*za%*:XX*a*",
"222222232773777b7777777222**gx**xgcaaggc***caa=*:*aay*****..**%=",
"22322*XX*2222777277277222***ca***ags*=****:*ya*aa=*****=:a:-=*:*",
"**:**X@X*c122222277227222,c*******aa:XXXX*ax**xa*****:OX*aa**>*a",
"g*aa*@X.X*aza*c22297222222,**zggg***XX**XX*acac**O**a*:@X*aa*>ag",
"*@*aa***@**ia*%*c  ,,22222,<cggt*X*=X**a*XX*ia**XX*ra***X:*a**gd",
"***=aa%********ac    *,,,22,***=*XXXX**as*X*=**OX**aa*:*XX***aha",
"*a***=**#X*%***X@    X%a,,4,,****a****%*a*:c**XX**%*a**&*X*a*az*",
",a*aaa:*XXX:XXXXX    @*:*,,,,****ai**ac***cg**X**a****a***ai*a**",
",**lc***aaa*X*XX    X**r*<,,,***a:aa**aca*ga::XO*aa=*ac:=yay**%*",
",******ya**o***     X*aa:*,,,*a**%***%*gcsca***X**sa=adc=a**XXXX",
",gc***%**:*.aaa    ***acXXa*%aa:ga**aa**caa*ccaXX**a*afg**:**%**",
"gccz*xxdgc*XX*aa>*Xa**c***=*caa%ghaa*cca=ayaa***X*:*%*ag*acgcia*",
"acca*arcX**XX:*aa*Xaa*X.::**cc**cla***gcas*a**=XX***aaacacgca*=*",
"@azXOac$X:**XX*;***ac**%ccgc:***ca******aa***XXX*aacgglaaaai**X@",
"*=eai:XXcca*%X*****>cc*cgga******a=*X.***a*****X:****aiaX+%*XXX*",
"*cgc***cai*sXX%c***=*%%cg=Xcxaa**c**XXX***=X*=%*XX%*%*XXXX****a*",
"ece:****=***:X*lc*%acgga**cfggx*ac*+X*XX%*XXX*a**XX**XX*aOX**:a*",
"***0ee***ew*XO*cl*aggccx**cacc*X%**.*a=$XXX***aa**X@XX*aa*XX=**.",
"**qe=****qwXX.*c**:scgcca*syc**X***X*s***Xa***=i***XX*aas%=X***O",
"*%a*=*iy**aXX*=**-******XX****XX*%*X*aa*%*a*****i*****a****X**@X",
"*%=*X**a*:**X%a**=>cc**=**%***X=***XXa*a**aaX*a***%cl:**%*=***X*",
"=*XXX**a*=*cX%ai**aac***a**ay@XX%*XOX**a***cX*aa**aic***a:*aaXXX"
};
