/* XPM */
static char *exitcarr11680168880[] = {
/* columns rows colors chars-per-pixel */
"64 64 192 2 ",
"   c #020101",
".  c #010A00",
"X  c #160202",
"o  c #081103",
"O  c #10110E",
"+  c #090A14",
"@  c #131C17",
"#  c #270000",
"$  c #330100",
"%  c #281010",
"&  c #0E2901",
"*  c #132A03",
"=  c #152A0A",
"-  c #163503",
";  c #1A3205",
":  c #1F3804",
">  c #1B320B",
",  c #17380D",
"<  c #1F3113",
"1  c #372505",
"2  c #36260B",
"3  c #392E0C",
"4  c #233502",
"5  c #233D03",
"6  c #27310C",
"7  c #223A0B",
"8  c #353403",
"9  c #222413",
"0  c #22251F",
"q  c #382913",
"w  c #253114",
"e  c #223C13",
"r  c #2C3816",
"t  c #29391B",
"y  c #333410",
"u  c #241527",
"i  c #341C27",
"p  c #312222",
"a  c #302F27",
"s  c #353733",
"d  c #450303",
"f  c #431508",
"g  c #521F04",
"h  c #561314",
"j  c #76151C",
"k  c #462807",
"l  c #40300D",
"z  c #4E2314",
"x  c #53201F",
"c  c #443414",
"v  c #663319",
"b  c #691822",
"n  c #4A3920",
"m  c #533925",
"M  c #4D2B32",
"N  c #4A3335",
"B  c #692521",
"V  c #7A2322",
"C  c #7E2A2E",
"Z  c #673424",
"A  c #783121",
"S  c #7B382C",
"D  c #18410E",
"F  c #254005",
"G  c #2C4206",
"H  c #2F4903",
"J  c #27400C",
"K  c #2E4A0C",
"L  c #35500E",
"P  c #2A4114",
"I  c #294A15",
"U  c #2D431C",
"Y  c #284B1C",
"T  c #334712",
"R  c #314A15",
"E  c #36431E",
"W  c #354C1F",
"Q  c #375114",
"!  c #35511E",
"~  c #304424",
"^  c #364B24",
"/  c #395224",
"(  c #3D542D",
")  c #384432",
"_  c #444314",
"`  c #4A4A24",
"'  c #534021",
"]  c #445E22",
"[  c #455E2B",
"{  c #444238",
"}  c #6E4129",
"|  c #436422",
" . c #4A6321",
".. c #4A6428",
"X. c #4D692B",
"o. c #526724",
"O. c #4B6331",
"+. c #436930",
"@. c #546B32",
"#. c #506638",
"$. c #536A3A",
"%. c #4D783A",
"&. c #557330",
"*. c #5A7331",
"=. c #5B7439",
"-. c #676E38",
";. c #627835",
":. c #3D3A40",
">. c #454546",
",. c #574445",
"<. c #595244",
"1. c #4D4F50",
"2. c #565555",
"3. c #6F4C48",
"4. c #7A4841",
"5. c #665554",
"6. c #5C7540",
"7. c #5E7B40",
"8. c #637B43",
"9. c #7C6857",
"0. c #5D5C61",
"q. c #695E63",
"w. c #6C6668",
"e. c #767070",
"r. c #881B19",
"t. c #9D1522",
"y. c #AB1720",
"u. c #A41E25",
"i. c #AA1A26",
"p. c #B31729",
"a. c #B31C28",
"s. c #B41F30",
"d. c #892724",
"f. c #8C2925",
"g. c #88252E",
"h. c #992223",
"j. c #9B2129",
"k. c #96282D",
"l. c #873024",
"z. c #9C332A",
"x. c #992532",
"c. c #883331",
"v. c #983436",
"b. c #A82224",
"n. c #AC2A2D",
"m. c #A52130",
"M. c #B52730",
"N. c #BB2435",
"B. c #A83337",
"V. c #A53F38",
"C. c #B53235",
"Z. c #BE353B",
"A. c #C52435",
"S. c #CA3336",
"D. c #C43539",
"F. c #CE3039",
"G. c #D1383D",
"H. c #914C37",
"J. c #993544",
"K. c #AB2D42",
"L. c #B93541",
"P. c #C73541",
"I. c #935249",
"U. c #9A5B5D",
"Y. c #B5494B",
"T. c #886858",
"R. c #9A645C",
"E. c #A7635B",
"W. c #AD7757",
"Q. c #A55D61",
"!. c #996667",
"~. c #95696B",
"^. c #8E7B74",
"/. c #A86F73",
"(. c #C94547",
"). c #D74C55",
"_. c #E35D61",
"`. c #D4696E",
"'. c #E66568",
"]. c #7F8778",
"[. c #88857C",
"{. c #918579",
"}. c #9D7E83",
"|. c #8A8684",
" X c #958D89",
".X c #9B9A9B",
"XX c #B89E9A",
"oX c #B2A39A",
"OX c #AE9FA3",
"+X c #B2A3A5",
"@X c #D69E9F",
"#X c #DDB7B9",
/* pixels */
"> ; w 7 * < w 6 7 Q | %.+.:  ._ 4 R $. .5 F : R ! 7 > P ~ t 2 2 f z k f g h k k ; +.+.%.+.: o.H F | | | 4 5 ; ^ U I 7 , I e ; - ",
"e J 7 w > , J w 6 5 F +.&.Q F - / R 7 W R 7 : / U 6 c a < e 9 9.T.T.9.9.T.T.T.9.^ e P O.$._ 8 G  .o.&.;.@.5 5 U U 6 > > e - - J ",
": 7 R e D , > > 6 > 7 7 7 > : P > e e J - , e ; t q f 9.9.].].].|.}.[.[.|.[.^.[.[.e.{.{.~.T.3.I.g k F F 7 6 e P e w = 6 r w < e ",
"! R ^ e Y D , , 7 * e > > e P , > D , > I W , r q h Q.Q.{.oX X.X.X.X.X.X X|.|.[.|. X}.}./.}.`./.I.H.' ' n 3 6 > ; 7 6 r w e J P ",
"+.U 7 4 P ^ D J e > , , , * = = < = e e - ! T 3 ^.~.U.Q.XXoXoXoXOXOXOXOXOXOX+X+XOX+XoXXX#X#X#X@X/.Y.J.g.g.h l 6 - 7 e E > : e W ",
"R : 7 6 K I J T c ' 2 2 q c q p 1 1 3 3 3 c Z E.E.I.C C U.!.R.~.~.~.~.~.~.~.~.~.!.~.!.!./.!./.!.g.z.m.i.u.d.A g 3 6 y _ ^ D 5 W ",
"7 P T R I : _ v j B.B.B.v.H.v.v.v.V.Y.Y.V.Y.V.D.b.h.j.h.f.g.x.x.g.c.c.g.v.k.x.v.v.v.x.x.B.B.m.L.B.K.N.P.s.M.n.z.A g k _ ! J 4 6 ",
"7 6 6 5 _ 1 H.V.C.D.P.P.Y.`.`._.'.).D.D.S.D.S.F.A.Z.M.C.B.C.F.S.C.V.B.C.Z.M.(.'.'.'.)._.).L.L.`.L.L.D.P.L.N.D.N.Z.z.A k T 5 7 I ",
"^ - 8 k g H.C.L.G.C.k.g.S c.v.(.P.).F.F.A.S.S.S.D.D.D.Z.D.D.F.F.D.D.Z.Z.D.D.D.(.(.(.V.G.P.L.L.Y.k.V V l.t.L.P.D.S.C.h.c.k 5 ! I ",
"^ ` k I.V.C.P.N.t.d.d X X # B c.K.N.A.A.A.S.F.S.D.D.Z.Z.D.D.F.F.D.N.M.b.p.p.p.u.j.b.b.b.M.L.`.J.h $ X X B d.K.Z.S.(.(.f.k ! I D ",
"E n Z k.S.F.L.x.b f z N p X 3.x j x.a.A.i.i.i.y.y.h.u.u.j.m.u.y.a.i.u.i.u.i.i.p.b.t.y.i.i.x.d.h z + { % m $ j L.P.A.K.c.k E ; D ",
"7 c B r.M.N.m.j $ >.  :.:.@   N $ c.t.K.a.i.y.b.b.b.u.u.u.u.u.u.y.i.i.m.b.i.y.y.t.b.a.u.x.J.# { X O <.p 9 5.$ J.L.L.m.c.2 7 J , ",
"6 3 k h k.k.k.h p :.@ 1.:.1.u M % B x.N.s.p.i.y.u.b.p.p.p.y.y.i.i.a.M.M.s.a.a.a.M.a.a.M.n.B % p X p 2.2.u 5.h B K.K.v.} 3 5 y Q ",
"^ y m $ j x.C h ,.0 >.2.e.e.2.N ) $ k.i.s.M.N.n.n.n.s.N.A.N.M.M.M.M.M.M.s.s.N.M.y.M.n.n.k.# 5.0 s w.q.w.2.q 3.h g.k.A g 8 F 8 -.",
"> > 9 f j x.g.h ,.>.1.w.5.0.,.,.m $ V t.m.m.n.M.n.n.M.M.a.M.n.n.n.n.u.p.i.i.u.u.b.b.r.h.C # 2.>.1.w.0.w.3.N 5.q B Z ' 8 Q &.;.;.",
", 7 4 1 C b c.$ a s O ,.,.5.0 0 9 m B V A V l.f.l.f.f.f.f.f.l.l.A l.f.f.d.d.l.A l.l.l.A z 9.0 0 + a 2.2.q { p ` m l 8 _  . .;.H ",
": ^ 7 y 2 l l p @ { o s s . . {   w 2 2 n ' 2 2 1 3 2 1 2 2 l k c c 1 c 1 ' c l k c _ ` ` 6 . )   @ >.@ 9 <.  $.w 6 5 O.X.@.X.: ",
"7 I 4 7 J ^ ^ _ r @ 9 ) s   1.s w = e P = P ! > e > w < e w 7 7 e U J 7 L R P : 4 5 4 *.[ e ~ ) s O >.@ { . 6.t ^ R J I R 7 5 J ",
"J J J R 7 7 e ) ~ a o w 9 @ w 0 > < J - > M M M M M M M M P 7 7 ^ 5 J T W 4 I F J 4 7 7 P ^ ^ < o 0 0 0 e ~ W R ; 7 F - 5 J 6 7 ",
"J 7 5 ^ R e e e > > U < U w < < t U ^ M M M M M M M M M M M M M 5 ; : J 7 : $.=.@.X.7 e e > 7 e t w w e > 6 > 5 5 & - J J > 7 : ",
"I 7 7 e W J e ; * > ; 7 ^ > P P e 7 M M M M M M M M M M M M M M W.W.W.W.> $.J =.@.R : : P 6 : / E ~ r e W.W.W.W.W.W.W.W.W.W.P > ",
"W W 7 7 7 - : 7 e 5 7 : O.R 7 ; M M M M M M 4.4.4.M M M M M M M M W.W.W.W.W.W.W.W.: J : D ; < - W O.W.W.W.4.4.W.W.4.4.4.W.W.W.w ",
"W W > J I ! Y 7 I O./ & / R - M M M M M M M M 4.4.4.M M M M M M M W.M W.W.4.W.W.W.W.W.W.W.J , < W.W.W.W.W.W.W.M p W.4.W.4.4.W.4.",
"; Y 7 W R ^ 5 7 - ! [ ! - - M M M M M 4.4.4.4.M M 4.4.4.M M M M M M M M 4.4.W.4.4.4.W.W.W.W.W.W.W.W.W.W.W.W.W.M i W.4.4.4.4.4.W.",
": 7 : > > J 5 7 ; 7 7 / ^ M M M M M M M M 4.4.4.4.4.4.4.4.4.M M M M M M 4.4.4.4.W.W.W.W.W.W.W.W.W.W.W.W.W.W.W.W.M i 4.4.4.4.4.4.",
"J O.J 7 J 5 7 7 ; 7 - - > M M M M M M M M 4.4.4.4.M M 4.4.4.M M M M M M M M 4.W.W.4.4.4.4.W.W.W.W.W.W.W.W.4.W.W.W.M 4.4.u u u 4.",
"r O.J T ^ ; P 7 W I 6 - M M M M M 4.M M M M 4.4.M M 4.4.4.M M M M M M M M M M 4.4.4.4.4.W.W.4.4.W.W.W.W.4.W.W.4.4.4.4.4.4.4.4.4.",
"7 J 6 e ^ R : e 6 W ^ U M M M M M M 4.4.4.4.4.4.4.4.4.4.4.4.4.4.4.M M M 4.4.M 4.4.4.4.4.W.4.4.W.W.4.4.4.4.W.W.4.4.4.4.4.4.M M 4.",
"5 ; 7 > J ^ > > > 7 e M M M M M M 4.4.4.4.4.4.4.4.4.4.4.4.4.4.4.4.M M M M 4.4.4.4.4.4.4.4.4.4.W.W.W.4.4.4.4.W.W.4.4.4.4.4.4.M M ",
"7 7 7 P - e P J - > : M M M M M 4.4.4.4.M M M 4.4.4.M M 4.4.4.M M M M M M 4.4.4.4.4.4.4.4.4.4.4.W.4.4.4.4.4.4.4.4.4.4.4.4.4.M M ",
"e P > , , > 7 P 7 W M M M M M M M M M M M 4.4.4.4.M M 4.4.4.4.M 4.M M M 4.4.4.4.4.4.4.4.4.4.4.4.W.4.4.4.4.4.4.4.4.4.4.4.M 4.4.M ",
"> e , - - e - , 4 7 M M M M M M M M M M 4.4.4.4.4.4.4.4.4.4.4.4.4.M M 4.4.M 4.4.4.4.4.4.4.4.4.4.4.4.4.4.4.4.4.4.4.4.4.4.M M M M ",
"> , 7 > ; 7 6 7 F M M M i i M M M M M 4.4.4.4.4.4.4.4.4.4.4.4.4.M M M M M M 4.4.4.4.4.4.4.4.4.4.4.4.4.4.4.4.4.4.M M 4.M M M i i ",
"U U e > < > D W : i M i i M M M M M 4.4.4.M 4.4.4.4.M 4.4.4.4.4.4.4.M M 4.4.4.4.4.4.4.4.4.4.4.4.4.4.4.4.4.4.4.4.4.M M i i i i i ",
"U Y J > ; - 7 R R i i i M M M M M M 4.4.M 4.4.4.4.M M 4.4.4.M M 4.M M M M M 4.4.4.4.4.4.4.4.4.4.4.4.4.4.4.M 4.M M i i i i 7 ; 7 ",
"W ^ P > > e e J : i i i M i i M M M M M M 4.4.4.M M 4.4.4.4.4.M M M M M M 4.4.4.4.4.4.4.4.4.4.4.4.4.4.4.4.M M M i i e > 7 7 7 E ",
"W R > > < P P 7 7 P i i i i i M M M M M M 4.4.4.4.4.4.4.4.4.4.4.4.M M M M M 4.4.4.4.4.4.4.4.4.4.4.4.4.M 4.4.M M i > 7 7 e e 7 R ",
"T : - P / E D 7 J O.O.i i i i M i i M M 4.4.4.4.4.4.4.4.4.4.4.4.M M M M 4.4.4.M 4.4.4.4.4.4.4.4.4.M 4.4.M M M M 7 ; * 6 > 7 7 ^ ",
"J 4 D R ^ Y 7 7 ; 7 J D i i M i i M M 4.4.4.M 4.M M 4.M M 4.4.M M i M M 4.M M M 4.4.4.4.4.4.M 4.4.M M 4.M M M G 5 7 7 7 7 7 ; 7 ",
": 4 7 7 7 7 > ; 7 R U Q F i i i i M 4.4.4.M M M M 4.4.M M 4.M M i i i M M M M 4.4.4.M 4.4.4.M M 4.4.M M M M L ] @.#.! 7 = e e ^ ",
": J W : P > > ; 7 : : ! P p i i i M M M M M M M M 4.4.M M M M M i i i i i M M 4.M M M 4.4.4.4.M I.} M M L L ] ;.Q 5 7 7 7 w ~ ^ ",
"$.T ! 7 - ^ / ; > J F : Q 5 i i i M M M M M M M N } M M i M M i i i i i i i i M M M 4.4.M 4.M M M M M o.H : X.T 5 6 7 > > e U e ",
"+./ ; P ^ ^ 7 - : 6.K : : : i i i i M M i M M i M M M i i i i i i i ..K T =.i i i i M M M 4.M M M M W R Q : J 7 7 e > = e 7 6 7 ",
"; O.> > 7 , - 7 J =.=.I : X.K u i i M i i M M i i i i i i i i P 4 L =.L F : 6 + + p i M M M M M M M ; 7 e 7 - e e W e 7 7 7 ; J ",
": : J e > > ; ; J [ X.O.4 F I + u i i i M M i P ] @...: F 5 - F : : / I ; 7 - + + + i i i i i i M M < P 7 e 6 w > W ^ e 7 7 4 Q ",
"6.P J ^ e ; 7 > : > ^ O.J 7 + + u i i i i i X.8.6. . .5 5  .8.@.=.F > : e - > + + + + + + i i i i M u < ^ e < > > e ^ W 5 4 L =.",
": : : R U : , e ; 7 : W / 4 + + u i i i 4 - - > J - J : o.*.*./ 7 : U - > > + + + + + + + u u i i M N u W 7 P 6 > > 7 R 5 F @.;.",
"J - 7 J ^ ! 6 e 7 P > , : P + + u i i u > 4 e 7 W R R : 7 J 4 : : > - > < e + + + + + + e - u u u i i u u : w e * e 7 7 : K ;.H ",
"J I 5 7 - e 7 D ; > , J < P + + u u i u > - 7 W R 7 7 7 7 > J : 7 U 7 7 6 + + + + + + X.: P < > u u u i u e e w < > e W 7 T O.5 ",
": ! 5 R ^ / > > > 7 < e , , > + + u u u & ; e 7 7 R ; 4 P e e 7 7 ^ R 7 < + + + + + X.&.: ; = e e u u u u u ^ r J 7 U W 5 T 7 6 ",
"L : 5 O.X.; 7 P E U W < < > > + + u u u u D > ^ > ^ / J : , > e T J ! W : + + + + + &.! F 7 > - > ^ u u u u ..5 : / T ! 5 7 7 7 ",
": F : J J : : I W J 7 - 7 7 e , + + u u u u / R > t R D : 5 / > : : D 7 : + + + | L X.J J J 7 > 7 e T u u u u ] 4 I : J 4 * ; ; ",
"=.=.&.: : : J : J > : > U / W : D > u u u u I X.J ; W ; J T W J &.Q J : / + + + ..L K I ..O.^ > > > P T u u u *.F : 5 5 ; J 7 e ",
"=. .Q X.F ..O.=.7.[ R - - 7 I / < 6 : / ; ; O.F 5 ; 5 J ..! I : &.8.J I , ..#.T J P K L I J , 7 7 7 7 4 5 : H *.: H X.6.O.W U e ",
"L ..X.K F R Q [ ; ; ; : ; J e U W e > W ^ J > - F : : 7 ] O.J : X.] Q K J 7 =.#.R W J I J ; J = = e 7 7 K Q K o.L o.o.@.R > e e ",
"- L  .: ; R X.: : : 7 7 : ; > 7 > J 4 I ..J - J ..X.$...7 > : F ..K F : > 7 7 7 ! R 6 5 > , : > > ^ W #.=.=...K H Q Q R 7 e * w ",
": : J R T 7 ; ; #.O.W : < ; e 7 > I 5 : @.O.: X.=.&.K : J 5 : 5 : R 5 J 5 & , e e ^ P ; 7 e : , e 7 e 7 ; T ^ I : 4 7 J : * > < ",
"F O.=...J ; J O.W ^ > U - - 7 #.e - 4 5 F : 5 X.=.: - @...I Q 5 7 X.7 > > ; 7 7 , J < - e : P > = 4 7 7 e e 7 ; > - w 7 > J Y P ",
"T ] R 7 : I > 7 > P e U 7 - > O.] 5 J I / &.o.L D 4 @.=.$.=.| ; I +.7 * > e 6 > 7 > > > > e ^ w 7 5 ; ; e 4 = e ~ * < > e e ^ > ",
"> D : 7 J P > e 7 D P ; > > P O.O.F I 6.].| | o.: : ..R @...J ; 7 P 7 4 e U > : > > 7 e > P U W > 7 7 > > > t ^ ( w > < e e e > ",
", 7 e P e 7 7 > e P P 7 - ; J O.J J : / [ &.@.| Q J J R O.: 7 > D > > > e ^ e 7 e - P e 7 7 7 ^ 4 7 7 ; ; 6 ^ U ^ e w > e > > > ",
"e 7 E T > 7 ^ ^ 7 J P 7 > ; > 7 : : ; R > : F F - : 7 J J ; > ; e e P > ; ! P 7 7 : / > 7 7 7 7 U 5 7 7 e 7 W e > e : ; e 6 ; w ",
"D 7 > > ; 7 D U 7 > e 6 - D ! : J > : ..X.: : : F : : ; < D - < w e 7 : ; R R P 4 J ^ U ; 7 W 4 T 7 7 [ O.7 7 : 7 6 7 > e > 7 w ",
"6 7 ; 7 > 7 7 ^ J > 7 O.- : T ^ > P U R #.: 7 7 R F 7 W ) > > , e t < > ; 7 5 ! D : : $.: 4 W R ; e T ^ O.5 7 5 W 4 7 W W > > : "
};
