/* XPM */
static char *_815698b53fd4e76dcaae8aaf172320bTk8LLm3WIZo3is90[] = {
/* columns rows colors chars-per-pixel */
"64 64 38 1 ",
"  c #1E3616",
". c #1F3616",
"X c #1E3716",
"o c #1E3617",
"O c #263A16",
"+ c #273A16",
"@ c #263B16",
"# c #273B16",
"$ c #263A17",
"% c #263B17",
"& c #341C27",
"* c #4D2A32",
"= c #4C2B32",
"- c #4D2B32",
"; c #4D2B33",
": c #2D4217",
"> c #2D4317",
", c #344C1A",
"< c #344D1A",
"1 c #354D1A",
"2 c #344C1B",
"3 c #354C1B",
"4 c #344D1B",
"5 c #5E761E",
"6 c #5F771E",
"7 c #5E761F",
"8 c #5F761F",
"9 c #5F771F",
"0 c #466920",
"q c #476920",
"w c #476821",
"e c #466921",
"r c #7A4841",
"t c #7B4841",
"y c #AD7756",
"u c #AC7657",
"i c #AC7757",
"p c #AD7757",
/* pixels */
".@@@.OO@@2e7e@e2@200@@@44@@@4@...@@..$@@@ee8e@q4@www@@@22@@@4@..",
"@@@@..@@@@@e72@@22244@@44@@@...@@2@@..@44@@q84++qw66w@@42@..@..@",
"@@2@@OXX.@@@@@@@O@@@%@@@%%XX..@@24...@@@@@#%#@@4$@@$@@@@@..@@@@@",
"222@4@@@..@@..@@X@@O@4@@%%%...4e44.$@@@@@@@%4#@4@@442@@@..@@@@@4",
"w2@@22@@$........oOO@24@@%@@@q6642..@444@@$@7@44%44@@@..O@@4@@@4",
"2@@@@2@444...@...OOO@44@@@2@@.@w4@@..@@44@%e744@@4@@@..@O@@44@@4",
"@@224@44$...@$@.OO@@4@24@@e@@.@@@@$....@@4@e7e@@@@@@....OO@44@@@",
"@@@@4@@@..@@@4@@@@XX0@@@@7e@@@@@@@......@@@2e2@$@@@@....O2@@4@@4",
"4@@@@@@@.%@@44@@@@@Xq9@@q84%@@444@@O.@%4777e,2@4e66....@O2@@@@44",
"44@@@@...%@%44@@4424e922q4@#$@@4e4OO.@@@@4qew,ee,@@..@@@@24@@44@",
"444%.XoO%2@@4@@@@@222q924@@@%#@@e4OO@@@@@@@20,OO@...@@@@@@24@4@@",
"@@%%@OOO%ee@@@444@@222924qqe4%@@$eOO@4@%@@@@@Ooo...@@@222@@2@@@@",
"@@@@,,2O@e82@444@@@@@222eq4$@@@4$$O@44@@@@@@@@oO@@o.4ee662%%@@@2",
"4@@@OO44@@86@44@@@X.X@@O@@%$@@442%O44@%@e986@@O@,2@..@@q77%%@@29",
"@.@.OO@@@@4e22@@@@OO.XOO@$%#@242@OO44@@@2e9eq@@@27@$@.$@4ee$4695",
"@@@.@@@488424w6602@@2Oooo.O#@@@@%%O4@@4@22ee4q@477@@%%qq4@$2ee92",
"@4@@@@@@@ee4e66eOO..44...@...@@@@4#%@44%@@4q2@@ewe$$2w6e@@@eeee@",
"@4@@@444@@4@we2$..@O.44@X@@@@@@@@4#@444@@@@ee@2e2@%%76e222@222@@",
"4@@4@@422@@@2O...OOO@@@@X@@@@@@@4@$44@@#@@@%422@##%%@,,,@@@@@@@@",
"@@@42@@..@@@@O.$O44O%@4@@%%22@2@##@@@@886q%%%@@@###@OOOo...@@@@@",
"4@@@2@@@...@2@@@@@444@e%%22%@@2@94.@@e48q4@%@@@244@#e@Oo@@4@@@@@",
"44@@@@@@@@..02@@@@@@4@e7@2@@@@2@994@q4qq4%%%@X..4e4@e6@@4e4@@24@",
"44@@422@4q4X44@e4@@@@@29$%474@@@w0e4#eq#@@442@@.@#4@e6e@e4@@42@@",
"X4@442@@@4q4XX22@@4e9922$274@@@@w4q4$@@@@q4@@@..@##@@4e@e@@@@@@@",
"@@@@@@@@@@@42X..@24@4774@ee@@@@@2242+%%%@@..@@.@@@%q$#22O09ee$@@",
"@e@@@@@@XX.O.X@.X@@@O4e4@@@@@@@@#44#$$#%@@......O%q68q4206e%@@4@",
">e@42@$$44..XX@4o.@@OOOO@@@@@@@O42#4###ee4@....@OO%4e6w4ww$$#44@",
"@@@@22$$O44,@@@44XX@OOOO@@@@@@@.@4@24##%44@@...2OO%%$qq4w$$244#X",
"@@@@@,$$..@@@@@44@@@@.OO..X.....@@O44#@@@44@@..42OOO@@@@@@@@#@@X",
"@@@@@@O .O@@@@@@4@@@@..@..X@2...@@@O44@@@@@@@@@@24@@@@@@@@@@@@.X",
"@@@@ooO,O442.@2@@@@44@@@@@@22@XO@@OOO4@4@@@@.@4@O@@ee@@@@@@@@@.@",
"@@@.o@OO@@4e2@24@@24e@@@2@@22XO.%%...@@4@@@e.@44%@44e@@@4@@44...",
".@@.O@@@@ee70O02@eee##@44@@@2OO@.%@.o@@@@ee9e@e2@eee@@@44#$$2@.O",
"@2@@.X@4@@4e72OOeq97e@%44@@@O..%@4@@oo@22O@e92@@ee66e@@44@..@oo@",
"22@...@24@..OeO2267OO.@4@@@@O$@@44...@@@..XX@@@@@@@$@@@%#OO$@@@@",
"42@.OO@@@@.4442,eeO....@@@@OOO4q44o@.....2@@X.@@@$@$@@4$@O$$@@@2",
"44@@@@2@@@77w@2O@...X@X@444e@$7844XX.@@2%22@O.X@@@4@@w4@@..@@OO2",
"4@@@22@@@ee4@@@@@@,,2@..@422e@#e4@.X@@@<%%22OOX@@@w@@8$@@@..@O@2",
"@@@422@@@@@@@@@@$24@@XXX@@@ee@##@4@@4@22@%@@..@@@4q8444@%@@@X@@@",
"@@@@@@..@424@@@@42@@@@222X@@..#$%4@02@2@O@@@.O4e9q4q224q9e2@X@@2",
"@@4%@.%.@@@44@@@$$@@@4442@2@@49$@@@94@@@@@@4@@@@49e222e64@@@.@22",
"e44@@44.@@@@4@@877e@@@@44@#@269#ee49@@@44@@e@44@@4ee2$e2@@@..@2@",
"e2@@44%.@94X@@qw7e4@@@..44@@6w@$q8e4477e@@@e44@@@@242@@@@@..@@@@",
"@e@@%%..@992@q40e4@@44@.@@@@w2$$@484%%$$@@@@22@24@%%@@@@@4@@@@@@",
"@@@@%...@eeq%@2e@@@@4..4eqe@@@@@@@22@...@@2e@@e2@@%%@@X.@44@@@@4",
"9@24%....#4q2@ee@@@@..e96eq@@e996@@@..@@..@2e2e@@X##2@@oX@44@@29",
"@X@22@%@X@@42@$$ww2@...@@@@@e694@.@@.@@,@..@22@@..#42@@OX@@2@@99",
"@@@@22@@##@@%@$2w66q@@@@444@@@@@@@...@@,2@.@@@@..@@42@@O.O@@@292",
"@4@@@@O@.@OOO@@.O     O,2@@@@@@@@4@@%@$$2@@e@@..@@@@4@%@%O@4#4e@",
"@4@422@@...O..X.o@O  oOOO2@O@@@@@44#%4q@@@e9@@.@@2@@%%4@@$44@4#@",
"4@@ee@OO224O.@o.  Oo OO,%44@####4@44%#4e4@74@@..@42@$4q@@224@@#@",
"#@@@@OO24@@.@@@O+  oOO,,%$4@##4@@@####@8e2e4@@@.@@42+49e@4@@....",
"69e@@@OO%%O.444@@@OO@@4e..2@@24@94@@22#@w22#0w2.X@%4@488@@@@@@@@",
"6eee@e067e@..@44@@o,@@q@%%@@e24@9944@we4@4442@@@X@@@##28@4e9e44@",
"4eq2@440.@@o.%@42@@44#..%%%@ee%%qe4@@@6e44#4@@@oX@@@444q4e9e4@@@",
".4q.@2eO.@@@..@@@@@4q@#@ee7e@@%%q4@@@@@@44@@@ooo@44q86q44444@@..",
"@@>24@  ee2@@.@%####qq@e662@@@@@@4@OooOO@4@@@@Oo@@@@@222..OO OoO",
"@e6q+@@q44@2X.@e####@@@e7@@ee22@@e@@oOoO@@@.@@O@..@@@@X...O++@2O",
">e>@@@@+@@@@%=;;----=664@@e666q@4w@.oO  @@..@@2@@..@@X.@4Oo+@O2O",
"@@@>>>@@@>>====;----*=*=@@e2ee@.@@@@+,O ...@@@22@@...X@22@  @OOX",
"@@>>@@@+#>;;=;;;==;-====iuuuq@@@@@@.@,@@%$4@%$@4@@@@O@224@@.@@@X",
"@@2@@@44---;==ttt=;-====*uuuuyuuu@@@@,2@%#4$iuuuiiiiii2@@@@.@@  ",
"@@@@+@#---=====ttt;;;;;=*i*iitiiiiiiu4@4##pyitruurrriip%@@@@@+ @",
"@@.. #----=tttt=;ttt;;;;****ttirrripuu@4pppyiuu*&irirrirp@@44   "
};
