/* XPM */
static char *exitcarl21680168877[] = {
/* columns rows colors chars-per-pixel */
"64 64 193 2 ",
"   c #020101",
".  c #010A00",
"X  c #160202",
"o  c #081103",
"O  c #10100E",
"+  c #090A14",
"@  c #131C17",
"#  c #270000",
"$  c #330100",
"%  c #281010",
"&  c #0E2901",
"*  c #132A03",
"=  c #152A0A",
"-  c #163403",
";  c #1A3205",
":  c #1F3804",
">  c #1B320B",
",  c #17380D",
"<  c #1F3113",
"1  c #372505",
"2  c #36260B",
"3  c #392E0C",
"4  c #233502",
"5  c #233C03",
"6  c #27310C",
"7  c #223A0B",
"8  c #353403",
"9  c #222413",
"0  c #22251F",
"q  c #382913",
"w  c #253114",
"e  c #223C13",
"r  c #2C3816",
"t  c #29391B",
"y  c #333410",
"u  c #241527",
"i  c #341C27",
"p  c #312222",
"a  c #302F27",
"s  c #353733",
"d  c #450303",
"f  c #431508",
"g  c #521F04",
"h  c #561314",
"j  c #76151D",
"k  c #462807",
"l  c #40300D",
"z  c #4E2314",
"x  c #53201F",
"c  c #443414",
"v  c #663319",
"b  c #691822",
"n  c #4A3820",
"m  c #533925",
"M  c #4D2B32",
"N  c #4A3335",
"B  c #692521",
"V  c #7A2322",
"C  c #7E2A2E",
"Z  c #673424",
"A  c #783121",
"S  c #7B382C",
"D  c #18410E",
"F  c #254005",
"G  c #2C4206",
"H  c #2F4903",
"J  c #27400C",
"K  c #2E4A0C",
"L  c #35500E",
"P  c #2A4114",
"I  c #294A15",
"U  c #2D431C",
"Y  c #284B1C",
"T  c #334712",
"R  c #314A15",
"E  c #36431E",
"W  c #354C1F",
"Q  c #375114",
"!  c #35511E",
"~  c #304424",
"^  c #364B24",
"/  c #395224",
"(  c #3D542D",
")  c #384432",
"_  c #444314",
"`  c #4A4A24",
"'  c #534021",
"]  c #445E22",
"[  c #455D2A",
"{  c #444238",
"}  c #6E4128",
"|  c #436422",
" . c #4A6321",
".. c #4A6428",
"X. c #4D692B",
"o. c #526825",
"O. c #4B6331",
"+. c #436930",
"@. c #546B32",
"#. c #506638",
"$. c #536A3A",
"%. c #4D783A",
"&. c #557330",
"*. c #5A7331",
"=. c #5B7539",
"-. c #676E38",
";. c #627835",
":. c #3D3A40",
">. c #454546",
",. c #574445",
"<. c #585244",
"1. c #4D4F50",
"2. c #565555",
"3. c #6F4C48",
"4. c #7A4841",
"5. c #665554",
"6. c #5C7540",
"7. c #5E7B40",
"8. c #637B43",
"9. c #7C6857",
"0. c #5D5C61",
"q. c #695E63",
"w. c #6C6668",
"e. c #767070",
"r. c #881B19",
"t. c #9D1522",
"y. c #AB1720",
"u. c #A41E25",
"i. c #AA1A26",
"p. c #B31729",
"a. c #B31C28",
"s. c #B41F30",
"d. c #892724",
"f. c #8C2925",
"g. c #88252E",
"h. c #992223",
"j. c #9B2129",
"k. c #96282D",
"l. c #873024",
"z. c #9C332A",
"x. c #992532",
"c. c #883331",
"v. c #983436",
"b. c #A82224",
"n. c #AC2A2D",
"m. c #A52130",
"M. c #B52730",
"N. c #BB2435",
"B. c #A83337",
"V. c #A53F38",
"C. c #B53235",
"Z. c #BE353B",
"A. c #C52435",
"S. c #CA3336",
"D. c #C43539",
"F. c #CE3039",
"G. c #D1383D",
"H. c #914C37",
"J. c #993544",
"K. c #AB2D42",
"L. c #B93541",
"P. c #C73541",
"I. c #935249",
"U. c #9A5B5D",
"Y. c #B5494B",
"T. c #886858",
"R. c #9A645C",
"E. c #A7635B",
"W. c #AD7757",
"Q. c #A55D61",
"!. c #996667",
"~. c #95696B",
"^. c #8E7B74",
"/. c #A8696D",
"(. c #A9777C",
"). c #C94547",
"_. c #D74C55",
"`. c #E35D61",
"'. c #D4696E",
"]. c #E66568",
"[. c #7F8778",
"{. c #88857C",
"}. c #918579",
"|. c #9D7E83",
" X c #8A8684",
".X c #958D89",
"XX c #9B9A9B",
"oX c #B99E9A",
"OX c #B2A39A",
"+X c #AE9FA3",
"@X c #B2A3A5",
"#X c #D69E9F",
"$X c #DDB7B9",
/* pixels */
"> ; w 7 * < w 6 7 Q | %.+.:  ._ 4 R $. .5 5 : R ! 7 > e ~ t 2 2 f z 3 f g h k k : +.+.%.+.- o.H F | | | 4 5 4 W U P 7 , I P ; - ",
"e J 7 w , , e 6 6 5 5 +.&.Q F - / R J W R 7 - / U 6 c a < e 9 9.T.T.9.9.T.T.T.9.^ e J O.$._ 8 F  .o.&.;.@.5 : U U 6 > > , ; ; D ",
"; 7 R e D , 7 > 6 7 7 7 e : : J , , e P - , , - t q f 9.9.[.[.{. X(.[. X X{.^.{.{.e.}.}.~.T.3.I.g k F F 7 6 e e e < = 6 r w e e ",
"! R / e Y D < , 7 * e > > < U , > P - > I ^ P r q x Q.Q.}.OX.XXXXXXXXXXX.X X X{. X.X|.|.(.(.'.(.I.H.' ' m 3 6 > : 7 6 r w e e T ",
"+.U 7 4 P ^ F D e > , , , * = = < > , e - ! R 3 ^.!.U.!.oXOXOXOX+X+X+X@X+X+X@X@X+X@X+XOX$X$X$X#X(.Y.J.g.g.h l 6 - 7 e E > ; e ^ ",
"R : 7 6 K I 7 T c ' 2 2 q c q p 1 2 3 3 3 c Z E.E.I.C c.U.U.R.!.~.~.~.~.~.~.~.~.!.~.!.!.(.!././.g.z.m.i.u.d.A g 3 6 y _ ^ F : W ",
"7 P R R I : _ v j B.B.B.v.H.v.v.v.V.Y.Y.V.Y.V.Z.b.h.t.h.f.g.x.x.g.c.c.g.v.k.k.v.v.k.x.x.B.B.m.L.B.K.a.P.s.n.n.z.A g k _ / J 4 : ",
"7 6 6 5 _ 1 H.V.C.D.P.P.Y.'.'.`.`._.D.D.S.S.S.F.A.D.M.C.B.C.F.D.C.V.B.C.Z.M.).].].]._.`._.L.L.'.Z.L.P.P.L.N.P.N.C.z.A k T 5 7 R ",
"^ * 8 k g H.M.P.G.C.k.C S c.v.).P._.F.F.A.F.S.S.S.D.D.Z.Z.D.F.F.D.D.Z.Z.D.D.D.).).).V.G.P.L.L.Y.k.V V l.t.L.P.D.F.C.h.c.k 5 ! I ",
"^ ` k I.V.C.Z.L.t.d.d X X # B c.K.N.A.A.A.S.G.S.D.D.L.Z.D.D.F.F.D.N.M.i.p.p.p.b.h.b.b.b.M.L.'.J.h $ X X B g.K.C.S.).).f.k / I D ",
"~ c } h.F.F.L.x.b f z N p X 3.h j x.s.A.i.i.y.y.i.h.u.u.j.u.u.y.i.i.b.i.b.i.i.i.b.t.y.a.i.x.d.h z + { % m $ j L.P.A.K.c.k ~ - D ",
"e c B r.s.N.m.j $ >.  :.:.@   N $ C t.K.a.i.y.b.u.b.u.u.u.u.u.u.y.i.i.m.i.i.y.y.t.b.i.u.x.J.# { X O <.p 9 5.d J.L.L.m.c.2 F J , ",
"7 3 k h x.k.k.h p :.@ 1.:.1.u N % B j.N.s.p.i.y.u.b.p.p.p.y.y.a.i.p.M.s.s.a.a.a.M.p.a.M.n.B % p X p 2.2.% 5.x B K.B.v.} 3 5 y Q ",
"^ y m $ j x.C h ,.0 >.2.e.e.2.N { $ k.i.s.M.N.n.n.n.s.N.A.N.M.M.M.M.M.M.s.N.N.M.y.M.n.n.k.# 5.0 s w.q.w.2.p 3.h g.k.A g 8 F 8 -.",
"> > 9 f j x.g.h ,.>.1.w.5.q.,.,.m $ V h.m.m.n.M.n.n.M.M.a.M.n.n.n.n.b.i.i.i.u.u.b.b.r.h.C # 2.>.1.w.0.w.3.N 5.q B Z m 8 Q &.;.;.",
", 5 6 1 A b C $ s s O ,.,.5.0 0 9 m B V A V l.f.l.f.f.f.f.f.l.l.A l.f.f.d.d.l.A l.l.l.A z 9.0 0 + a 2.2.q { p ` m l 8 _  . .;.H ",
"7 W 7 6 2 l l i = { o s s   . {   w 2 2 c ' 2 1 1 l 2 1 2 2 l k c n 1 c 3 ' c l k c _ ` ` 6 . )   @ >.@ 9 <.  6.< 6 5 X.O.@...: ",
"J P 4 7 J / ^ _ t @ 9 ) s   1.s w = e P > t ! > e > < < e w 7 7 > R 7 7 K R P : 4 5 5 @.+.< ~ ) s O >.@ { . $.U W U J I R J 5 J ",
"J J J R 7 e e ) ~ a o w 9 @ t 0 , w e - 7 , , J , > = t 7 e 7 7 / 4 J R ! 4 P F F 4 J 7 U ^ ^ w o 0 0 0 t E W R : 7 5 - 4 J 7 7 ",
"J 7 5 / R e 7 e > > U < t w < < t U ^ 7 F 4 R 5 4 M M M M M M M M M M J 7 4 @.=.@.X.7 7 7 > 6 e t w w e > 7 > : : & - J J > 7 7 ",
"W.W.W.W.E J e ; ; > ; 7 / > U e e 7 ^ R W.W.W.W.M M M M M M M M M M M M M $.J 6.@.R : : P > , ^ E ^ r P #.7 - 4 F J J J : > P : ",
"W.I.} W.W.W.D 7 e 5 > : O.R , W.W.W.W.W.W.W.W.M M M M M M M M M M M M M M M @...R 5 7 : F - e ; ^ [ T 4 [ =.F 5 K [ ! : J W ^ < ",
"M W.W.W.W.W.W.W.R O./ W.W.W.W.W.W.W.4.W.W.M W.M M M M M M M M 4.4.4.M M M M M M P ; Q I R J - < ; G T 7 $.*...- X.R 7 7 ^ E e 7 ",
"M W.W.W.W.W.W.W.W.W.W.W.W.W.4.4.} W.4.4.M M M M M M M M M M 4.4.4.M M M M M M M M #.R J : - e - r - F 5 ; Q ..4 X.- 5 : : 7 e e ",
"W.W.W.W.W.W.W.W.W.W.W.W.W.W.W.W.I.4.4.4.M M M M M M M M 4.4.4.M M 4.4.4.4.M M M M M > 5 ; e > w - F 5 | D 5 K Q - X.6.[ #.: J > ",
"W.W.4.W.W.W.W.W.W.W.W.4.4.4.4.W.W.4.M M M M M M M M 4.4.4.4.4.4.4.4.4.M M M M M M M M - ; 7 , > ; : O.=.*.X.L F X.7...F 4 7 ^ J ",
"4.W.W.4.W.W.W.W.4.4.W.W.4.4.4.4.4.M M M M M M M M M 4.4.4.M M 4.4.4.4.M M M M M M M M w > < - > 7 5 F I +.@.#.K X.! 7 F 5 I W : ",
"4.W.W.4.4.4.4.W.W.4.4.W.4.4.4.4.4.M 4.4.M M M M M M M 4.4.4.M M 4.4.M M M M 4.M M M M M > < > W : 7 - J P ..@.Q O.I : ! R W 7 ; ",
"W.W.4.4.4.4.W.W.W.4.4.4.4.4.4.4.4.4.4.M M M M 4.4.4.4.4.4.4.4.4.4.4.4.4.4.4.M M M M M M w > - W ! - F 4 5 : - 7 5 4 4 ; 7 e 7 6 ",
"4.4.4.4.4.4.4.W.4.4.4.4.4.4.4.4.4.4.4.M M M M 4.4.4.4.4.4.4.4.4.4.4.4.4.4.4.4.M M M M M M > 7 7 ! ^ J ; 7 7 7 5 : 7 P 7 7 7 > > ",
"4.4.4.4.4.4.4.W.4.4.4.4.4.4.4.4.4.4.4.4.M M M M M 4.4.4.M M 4.4.4.M M M 4.4.4.4.M M M M M 7 U e : J - $.O.4 5 7 7 > > e e > > J ",
"4.4.4.4.4.4.4.4.4.4.4.4.4.4.4.4.4.4.M 4.4.M M 4.M 4.4.4.4.M M 4.4.4.4.M M M M M M M M M M M ^ W 7 F J Q O.5 J ; W P e ^ U < w = ",
"4.4.4.4.4.4.4.4.4.4.4.4.4.4.4.4.4.4.M M M M M 4.4.4.4.4.} 4.4.4.4.4.4.4.M M M M M M M M M M O.Q 5  . . .: 5 5 T U 7 e e ~ e , > ",
"4.4.4.4.4.4.4.4.4.4.4.4.4.4.4.4.4.4.4.4.M M M M 4.4.4.4.4.4.4.4.4.4.4.4.4.M M M M M i i M M M - o. .*.=.o.4 4 W W e < = w < < w ",
"M 4.M 4.4.4.4.4.4.4.4.4.4.4.4.4.4.4.M M M M 4.4.4.4.4.4.4.N 4.4.4.4.M 4.4.4.M M M M M i i M i J 7 4 J 7 7 5 7 7 w < e e P 7 - 7 ",
"M M M 4.4.4.4.4.4.4.4.4.4.4.4.4.4.4.4.M M M M 4.M M 4.4.I.M M 4.4.4.4.M 4.4.M M M M M M i i i 7 > W > e 7 ; / < > 7 e > 7 7 7 U ",
"M M 4.4.M 4.4.4.4.4.4.4.4.4.4.4.4.4.4.M M M M M M 4.4.4.4.4.M M 4.4.4.M M M M M M i i M i i i , w < U J 7 O.R P 7 > 7 7 e e 7 R ",
"M M M M 4.4.M 4.4.4.4.4.4.4.4.4.4.M 4.4.4.M M 4.4.4.4.4.4.4.4.4.4.4.4.M M M M M M i i i i i = U 7 , $.e : 8.7 4 7 - * 6 > 7 7 / ",
"7 M M M 4.M M 4.4.M 4.4.4.4.4.4.4.M M M 4.M M M 4.4.4.4.4.4.4.4.4.4.4.4.M M i i M i i i i e > w 5 Q [ @.Q K K G 5 7 7 7 7 7 4 7 ",
": > M M M M 4.4.M M 4.4.4.4.M 4.4.4.M M M M i M M 4.4.M M 4.M M 4.M 4.4.4.M M i i M i i - > ^ O.=. .H o.K H Q ] $.#.^ 7 * e e ^ ",
": J E : M M 4.4.M I.4.4.4.4.M M M 4.M M i M i i M M 4.M M 4.4.M M M M 4.4.4.M i i i i ! - 7 e 7 K ;. .H L L ] ;.Q 5 7 7 7 < ~ ^ ",
"#.R / 7 - M M M M M 4.M M 4.4.M M M i M i i i i M M M M M 4.4.M M M M M M M M i i i i O.P J / 5 F F o.o.H 4 o.R 4 7 7 > > r U e ",
"+./ * e ^ ^ M M M M } M M M M M M i i i i i i i i M M i M M 4.M M M M M M M M i i i J O.K / ; J 7 5 W R Q : 7 7 7 e > = e 7 6 7 ",
"; #.7 : < , - M M M N M i i i i i i i i / ^ > < J i i i i M M M i M M i M M i i i i : : ! ! - R E e : , e J - e e W e 7 7 7 - J ",
": : J e , > ; ; u M M i i i + + , 7 : F I : - J ] @...i i i i i i M M i i M i i u - U @.: : #.W P < e e 7 e > w 6 W ^ e 5 e 4 Q ",
"6.P J ! J ; , u u M i i u + + + J : J > - ; X.8.=. . .F 5  .8.@.6.i M M i i i i u ; J Q O.I O.7 > : e w ^ e w > > e W W 5 4 L =.",
": : 7 R U : P u M i i u + + + + | X.U : 4 ; ; > J - J : o.=.*./ + + + u u i i i u u - ; ^ ! 7 e 7 ; , U W 7 P > > > 7 R 5 F @.;.",
"J ; , J ^ ! > u i i u u + + + R +.=.=...5 7 D 7 W R R 5 7 7 5 : + + + + u u i i u u ; 7 7 - 7 ; 4 5 4 / W : w e * e 7 7 : K ;.H ",
"J P F F - e + u u u u + + t < , ; , * ; 7 * 7 ^ R 7 7 7 7 > J + + + + + 7 u u i i u F @.7 D < > > 7 7 e U e e w < > e / 7 T ..5 ",
": ! : R W + + u u u + e , ; > > , < P e & ; e 7 7 R : 4 J + + + + + + 7 e ^ u u u u ..*.5 ; > e 7 W 7 ; 7 r / r e J U R : T e 7 ",
"L : F O.O.+ u u u u W < w , > 7 , > t = > D : ^ > ^ / 7 + + + + + + ! W > ; u u u u &.! 5 7 = - 7 ^ R U 7 7 O.5 : / R W 5 7 7 7 ",
": F : J F : u u u u 7 - 7 7 e > 7 < > , > 7 ! R > P U J + + + + + : F 7 ; u u u u u X.F J J 7 > 7 e T R 5 Q 8.] 4 K : J 4 * ; ; ",
"=.=.&.: : : u u u 7 : , U ! W : D > w e e 7 I O.J ; / - J R W 7 &.Q 7 : / u u u u L K P ..+.^ > 6 > P R 5 L *.*.F : F 7 4 e 7 e ",
"=. .Q X.F ..O.6.6.[ T - - 7 I / e : > ^ > : O.5 : - : F ..R I : &.8.J R - O.#.T J P L L R 7 e > > 7 7 4 5 : H *.: H o.=.O.~ E e ",
"L ..X.K F R Q [ ; ; : : ; J J U W < 7 W / 7 > - F : : J [ ..7 : X.] Q K J 7 =.#.R W J I J ; 7 , = e 7 7 K Q K o.L o.o.@.R - e e ",
"- L  .: - R X.: : > 7 7 - > > 7 > J 4 R [ J - J X...#.O.7 7 7 F ..K F : > 7 7 7 W R 7 5 : > 7 > > W W #.*.=...K H L Q R 7 e * w ",
"4 5 J R R 7 - ; O.O.Y 7 > ; D 7 ; I 4 - @.O.4 X.=.&.K : J F 4 D : R 5 7 7 & e 7 < ! P - 7 P 7 - r 7 e 7 4 U ^ T : 4 7 7 7 * > w ",
": O.=...7 : 7 O.W ^ > U > ; 7 #.P - : F F : 5 X.=.: - X...R Q : 7 X.J ; > ; : 7 P , < ; e , P > * ; 7 7 e e 7 ; > - e : 7 7 U J ",
"R ] R 7 5 I - 7 > P e U 7 * > O.] : J R ] =.$.L F : @.7.@.=...: P +.7 * > e > > 7 > > > > w ! < 7 5 ; - e : = e ~ = < 7 e e ^ > ",
"; P 7 7 J e > P 7 J P ; > > P #.O.F I 6.8.X.| o.: : ..R X...: > J P 7 : e U > 7 > > 7 e > P U W ; 7 7 > > > t ^ ( w = < e e e > ",
", 7 e P e > 7 > e U r 7 - ; J O.J J : ^ [ &.@.| Q J J I O.: : > e , 7 > e / w 7 7 : e J 7 7 7 ! 5 7 7 ; - > ^ U ~ e w > e > > > ",
"7 7 U U 7 7 ^ ^ 7 , P 7 > : 7 : : 4 ; R : : F J - : 7 J J - > ; < e P > ; ! P D 7 , ( > 7 7 7 7 U 5 7 7 P 7 W e 6 e : ; e 7 ; w ",
"J 7 > > ; , J t 7 7 e 7 - D ^ : 7 : D ..O.; : : 5 5 : ; e e ; 7 e e 7 - ; R T I : F ^ U : 7 W 4 P 7 7 [ O.7 7 : 7 7 > 7 e > 7 w ",
"> 7 ; J > 7 7 / J > 7 X.- : R ^ 7 P P R #.: 7 7 R 5 7 W ) = , , < t < > > F 4 W 7 : : $.- : W R ; r T / O.5 7 : W 4 7 W / > ; > "
};
