/* XPM */
static char *_7a9574468454ce1a346ac3b4520b7891MIXv4TNmWAep0Ja[] = {
/* columns rows colors chars-per-pixel */
"64 64 45 1 ",
"  c #090A14",
". c #090B14",
"X c #1E3616",
"o c #1F3616",
"O c #1E3716",
"+ c #1E3617",
"@ c #1F3717",
"# c #263A16",
"$ c #263B16",
"% c #273B16",
"& c #263A17",
"* c #263B17",
"= c #273B17",
"- c #241526",
"; c #241527",
": c #341C26",
"> c #341D26",
", c #341C27",
"< c #351C27",
"1 c #341D27",
"2 c #4C2A32",
"3 c #4C2B32",
"4 c #4D2B32",
"5 c #4D2B33",
"6 c #2D4316",
"7 c #2D4217",
"8 c #2C4317",
"9 c #344C1A",
"0 c #344C1B",
"q c #344D1B",
"w c #354D1B",
"e c #5F771E",
"r c #5F761F",
"t c #5F771F",
"y c #476920",
"u c #466821",
"i c #466921",
"p c #476921",
"a c #7A4840",
"s c #7A4841",
"d c #7B4841",
"f c #7A4941",
"g c #AD7756",
"h c #AC7757",
"j c #AD7757",
/* pixels */
"o$$$o**$$qyeu$u0*9yi$$$0q$$$0*Oo+*$*o###*yyry&y9*yyi$$$9q$*$q$oo",
"$$$$Oo**$$$ye9$$99999$$0q$$$ooo**9$#+o#00$&yt0**yyeey$$qq$oX$$o$",
"$$0$*oOoo*$$$$$$$$$$$$*$$$OOoo$*qq#+O$$$$$$$***9**$*#$##$OO$$$$$",
"000$q**$oo$$oo$$X$$$$0$$$$$$oo0yqqo#$$$$$$$$0**9**q0q###oo**$$$9",
"u0$$00$$$oooooo+#X#$*q9*$$$$Oirt00oo$000$$$&e$qq*qq$$OXXO$*q$$$9",
"0$$$$0$q00ooo$o&XO##*q9*$$0$$O$y0$$oo$$00%$yeqq$*q$$$OX#$$*99$*9",
"$$000$0q$o+o$$$oO$$$q*q9$$i$$O$$$$$oooO$$0&yru$$*$$$*#XX$$$99***",
"$$$$0$**oo$$$0$$$$O*y***$ri#$$$$$$oooooO$$$0y0$$$$$$OOXX$q**9**9",
"9***$$$$o$$$00*****Oye**ueq$$$qq0$$OO$$9eeeyqq$qieeoooo*#q$$$$qq",
"99**$$ooo$$$00**qqqqyeqqyq$$$##qi0$$O$$$*9iiyquy9$#oo****qq$#qq$",
"qq9*ooO$$0$$9*****009ye0q%$$$$$$i0$$$$$$**#9yq**#Ooo****$#qq$q$$",
"**$$$$$$$uu$**990**000t0qyuyq$##$y$$*9$$****$$Xoooo$$*00q$$q$$$$",
"**$$999$*ytq$qqq$$$&$009yyq$$$$q$$$$00$$$$****o*$*OO0yurr0$$$$$q",
"q$$$##99**te$9q*$$o++$$$$$$$$$qq0$$09*$*yett**o*99$$o$&yrr$$$$qe",
"$O$OX#****qyqq$$$$$$ooX$##$$$q99*$$90***9ytyy**O0r$$o$*&0yu$9eee",
"$$*O#$*qeeqqqyeey0$$0$XXX#$%$$$$**$9**9*99iy9y*9rr$$$$yy0$$0uueq",
"$q$$$$$$$uu0uery$ooo00ooo$ooo#*$%q**=00$$$0uq$$uyi##0yry&&*yyyy*",
"$q$$$qqq$$9$uu0$oo$$o00$$$$$$#**#q$*q00$$$%uy%qu0#$$rry000*999**",
"q$$q##qq9$$$0$o$o$$$$$$$o$$$$***q%*qq=&$$$$$q9q%$$$$$009****$$**",
"$$$q9###o$$$$oO*$00$$$0$o$$q93334444444eeu$$$%$%$$$$$$$oOOO*$$**",
"q$$*9**$o$o$q$$$$$000*y$*qq4555544444444jjjj$$$900$$y$O$==q=gggg",
"9q$$**$$$$oouq$$$$$$0*ie*0444555444444444jjjhhhhhiq$yr**qpjjgafg",
"9q*$q99*quqOq9*y0*$$$$0e445444ssa44444444j4jhahhhhhhjry&ggjjhhg5",
"Oq*qq9$$$qyqooqq**0ite034444445saa4444444444aahdsshhjjjjjhhhhhh4",
"**$$$$$$$$$09Ooo*9q*qt44444dsss54aff44554444ffddjjjjjjjjjjhjjhjj",
"*y$$$$$$++oooO*oO*$**44444442fssaafffd55444454dhjssssjjjjjhgjdjj",
"6y$q0$$$w0ooOO*qXO$$*44444445faaa44add554445422fssssjjssjghgdjjd",
"*$$$99$$*000***qqOOO44444a4422ad44faa4554445dd4fssssjssjjddddhhd",
"$$$$$9$$O#$$$$$qq$$$444444aaaaddsssfddaaf2552ssssssssssjhhssdfgh",
"$$$$$$$oo#$$$$$$q$*444444fadaaffssssddaas5552ssssssssssshssafffd",
"$$$$ooo9$900O*0$$$$44444ffad444ass25dda25555ssssadsdssssjsaaddff",
"$$$oo$$$$$0i0$qq$$44444444444ddaf22saff2s55ss5sssddfssssssaddddd",
"X*#XO$$*#iiru#u0$y4444445552ssssssaaasssf45444aaasssssssssssssss",
"$9##OO$q$$0ie0##y444,,44555sssasssadaass2254dfaaasssssssssssssds",
"99$#OO*90$O##u#0q:4,,45444sss2assf5ddfssda4424ddsssssssassssd5d5",
"99$X$$***$O00000y,,,444444sf2faas55daf52d4444fdasssssssdssssd555",
"99****9*$$trp&0#o,,,4,,444442ffa52ssass224442aaassssssddddf4df24",
"q***00**$ii0%%$$$$,,,:,444442addssssasssd44ffd4assssssffd4af2244",
"$$*900$$$$$$$$$$$00:,:,4,,44ddaaffssssss442d442fsfssss2sa24f444*",
"$$$*$$OO$000$$$%00$$,,41,45fdf2d52s55ss2415555dfs2ssss25af4444*0",
"$$q$$O$O$$$qq%$$**&$$<<1,4ddd2445dd25d44,,4,55d522ddadf5aa42o*99",
"yqq$$q9#$$$$q$$rety$$1,,,42442445ff25544,,,,4,255da42f55424oo*9*",
"yq*$99#o*eqO$$upey0$$$,,,45444444f44,54:,,,,,,1434444f5554oo$***",
"*y*$$$oo*etq$y0yy0$$00,,,,4414415551,,,$$$$$,11111,,542550$$$***",
"$$**$ooo$yyy**0y$$$$0#o;,,4,,42,,,,,:oooo$0y$$y0  ,,,22;$99$$$$q",
"e*99$OooO$qy0&yy$$$##+u;,,,,44,re$$$oo$$oo$0u0y$   -,12;;$9q$$qe",
"*O$99***O$*90*$$ii0o+o-;,,,--   $o$$o$$q$oo$00$$    ;112;$$q$$ee",
"$$**99$*******$0yrru*#;;,1--   .$oooo$$q9$o$$$$oo   ;;1,;&$$$qeq",
"$q*$$***OO$#$$$#o$oooo;11;;#.....9$***$$0#*i###o$$$ .--;;.*9*9y*",
"$9$q99**O*O*XXXXX#$ooo;;;;$#*... ..$$9y*$#ue$#o*$q$$*.-;;..9*9**",
"9$*yy$**999*o*XXXX$Oo#--;;0$**..  ..$$qy0$e9##oo$9q$*q;;;;.9****",
"*$$****09**O*####X#Xo#--;;;$**9.  ..$**ei0i9$$*o$$q9*q;;;;**ooOO",
"eei#$$*$$*$X999***O*$&0-;;;$$00*eq$$qq$*i00$yy9o##$0$0t;--$$**$$",
"eyiy#iitey$Xo*99**Oq$&y$$$$$i00$ee99*yy9$0qq9$**o#$#$$0t$queyqq$",
"9yy0$00yo*$OO**99*o00*&+*#$#ii$$yy0***ei0q$q#$##o###000iqueyq$$$",
"Oqy*O0iOX*$*OO*****0y***iiri*$*$y9******qq$$#XXX#99ieei0qqqq$*oo",
"**899$o+yyq$$o##$$$$yy*yrt0&$$$$*0$$oo$$*9*$$$$O$$***000#X&$XXX$",
"*yey*$$yqq$q#o#u$$$$$$&ir*Oyu99$*y$$ooo$**$X$$$*XX***$ooXX$$$$9&",
"6y8$**$$$$$$$o#iy$$qyrr0**yeeeu$0y*oo*oo**oOX$9*$Xo**oo$9+o$$$9$",
"**$888$*$66$o$$yy$qeryyy**u0uu$o***$*9$oooo$$$q9$$oooo$90$+&$$$+",
"*$66$$$*$88ooo$u*$$qyeyuq#99u$$o$$$$*9**$o9$$$#q$$$X$$990$$o$$$o",
"$$q***99$$0oo$$$**$$&$$$#o$$$$oo$$$O*99*$$9$$$$$q$*$$$9$*$$o$$oo",
"##=*o**0$$$$o$9$***yy&$$$$$$$$o$$$$OOq*9$$99X$q$$$$yy$****$$$$o$",
"###$o**0$$$uo$09**00y*$$9$$99ooo$$OOO**q$##u#$qq$*qqy$**q*$00ooo"
};
