/* XPM */
static char *exitcarl51680168878[] = {
/* columns rows colors chars-per-pixel */
"64 64 192 2 ",
"   c #020101",
".  c #010A00",
"X  c #160202",
"o  c #081103",
"O  c #10100E",
"+  c #090A14",
"@  c #131C17",
"#  c #270000",
"$  c #330100",
"%  c #281010",
"&  c #0E2901",
"*  c #132A03",
"=  c #152A0A",
"-  c #173403",
";  c #1A3205",
":  c #1F3804",
">  c #1B320B",
",  c #17380D",
"<  c #1F3113",
"1  c #36260B",
"2  c #382908",
"3  c #233502",
"4  c #233C03",
"5  c #27310C",
"6  c #223A0B",
"7  c #353403",
"8  c #222413",
"9  c #22251F",
"0  c #382913",
"q  c #253114",
"w  c #223C13",
"e  c #2D3816",
"r  c #29391B",
"t  c #333410",
"y  c #241527",
"u  c #341C27",
"i  c #2F2E28",
"p  c #312222",
"a  c #353733",
"s  c #450303",
"d  c #431508",
"f  c #521F04",
"g  c #561314",
"h  c #76151C",
"j  c #462807",
"k  c #40300D",
"l  c #4E2314",
"z  c #53201F",
"x  c #443414",
"c  c #663319",
"v  c #691822",
"b  c #4A3820",
"n  c #533925",
"m  c #4D2B32",
"M  c #4A3335",
"N  c #692521",
"B  c #7A2322",
"V  c #7E2A2E",
"C  c #673424",
"Z  c #783121",
"A  c #7B382C",
"S  c #18410E",
"D  c #254005",
"F  c #2C4206",
"G  c #2F4903",
"H  c #27400C",
"J  c #2E4A0C",
"K  c #35500E",
"L  c #2A4214",
"P  c #294A15",
"I  c #2D431C",
"U  c #284B1C",
"Y  c #334712",
"T  c #314A15",
"R  c #36431E",
"E  c #354C1F",
"W  c #375114",
"Q  c #35511E",
"!  c #304424",
"~  c #354B24",
"^  c #395224",
"/  c #3D542D",
"(  c #384432",
")  c #444314",
"_  c #4A4A24",
"`  c #534021",
"'  c #445E22",
"]  c #455E2B",
"[  c #444238",
"{  c #6E4128",
"}  c #436422",
"|  c #4A6321",
" . c #4A6428",
".. c #4D692C",
"X. c #536623",
"o. c #506A28",
"O. c #4B6331",
"+. c #436930",
"@. c #546B32",
"#. c #506638",
"$. c #536A3A",
"%. c #4D783A",
"&. c #557330",
"*. c #5A7331",
"=. c #5B7439",
"-. c #676E38",
";. c #627835",
":. c #3D3A40",
">. c #454546",
",. c #574445",
"<. c #595244",
"1. c #4D4F50",
"2. c #565555",
"3. c #6F4C48",
"4. c #7A4841",
"5. c #665554",
"6. c #5C7540",
"7. c #5E7B40",
"8. c #637B43",
"9. c #7C6857",
"0. c #5D5C61",
"q. c #695E63",
"w. c #6C6668",
"e. c #767070",
"r. c #881B19",
"t. c #9D1522",
"y. c #AB1720",
"u. c #A41E25",
"i. c #AA1A26",
"p. c #B31729",
"a. c #B31C28",
"s. c #B41F30",
"d. c #892624",
"f. c #8C2925",
"g. c #88252E",
"h. c #992223",
"j. c #9B2129",
"k. c #96282D",
"l. c #873024",
"z. c #9C332A",
"x. c #992532",
"c. c #883331",
"v. c #983436",
"b. c #A82224",
"n. c #AC2A2D",
"m. c #A52130",
"M. c #B52730",
"N. c #BB2435",
"B. c #A83337",
"V. c #A53F38",
"C. c #B53235",
"Z. c #BE353B",
"A. c #C52435",
"S. c #CA3336",
"D. c #C43539",
"F. c #CE3039",
"G. c #D1383D",
"H. c #914C37",
"J. c #993544",
"K. c #AB2D42",
"L. c #B93541",
"P. c #C73541",
"I. c #935249",
"U. c #9A5B5D",
"Y. c #B5494B",
"T. c #886858",
"R. c #9A645C",
"E. c #A7635B",
"W. c #A55D61",
"Q. c #996667",
"!. c #95696B",
"~. c #8E7B74",
"^. c #A8696D",
"/. c #A9777C",
"(. c #C94547",
"). c #D74C55",
"_. c #E35D61",
"`. c #D4696E",
"'. c #E66568",
"]. c #7F8778",
"[. c #88857C",
"{. c #918579",
"}. c #9D7E83",
"|. c #8A8684",
" X c #958D89",
".X c #9B9A9B",
"XX c #B99E9A",
"oX c #B2A39A",
"OX c #AE9FA3",
"+X c #B2A3A5",
"@X c #D69E9F",
"#X c #DDB7B9",
/* pixels */
"> ; q 6 * w q 5 6 W } %.+.: | ) 3 Y @.' 4 D : P ^ 6 > w ! r 1 1 d l j d f g j j 4 +.+.%.+.: X.G D } } } 3 3 4 Q I I 6 , P w ; - ",
"w H 6 q > , w 5 5 4 D +.&.W D - ^ I H Q T 6 - Q I 5 x i q w 8 9.T.T.9.9.T.T.T.9.~ 6 , #.@.) 7 7 | X.&.;.@.3 4 I I 5 > ; w - ; S ",
"; 6 T w S , > > 5 6 6 6 L : : L , w w L - , w - e 0 d 9.9.].].].|.}.].|.|.[.~.[.[.e.[.{.!.T.3.I.f j D S 6 5 w w w q = 5 e q w w ",
"Q T ^ w U S , , 6 * q > > < L , > S : > P E L e 0 z W.W.{.oX X.X.X.X.X.X X|.|.[.|. X X/./.}.`./.I.H.` ` b t 5 5 ; 6 5 e q w w Y ",
"+.I 6 3 L ~ D S 6 > , , , * = = = > , e ; Q Y 2 ~.Q.U.^.XXoXoXoXOXOX+XOXOXOX+X+XOX+XOXXX#X#X#X@X/.(.J.g.g.g t 5 ; 6 w R > > w ~ ",
"T : 6 5 J P 6 Y x n 2 0 0 t 0 p 1 1 2 t t x C E.E.I.V V U.U.R.Q.!.!.!.!.!.!.!.!.Q.!.Q.Q./.Q.^.^.f.k.m.i.u.d.Z f 2 5 t ) E D : E ",
"6 L T T P : ) c h B.B.B.v.H.v.v.v.V.Y.Y.V.Y.V.Z.b.h.t.h.f.g.x.x.g.c.c.g.v.k.x.v.v.k.x.x.B.B.m.L.B.K.M.P.a.n.n.z.Z l j ) ^ H 3 : ",
"6 5 5 4 ) 2 H.V.C.D.P.P.Y.`.`._.'.).D.S.S.S.S.F.A.D.M.C.B.C.D.S.C.V.B.C.Z.M.(.'.'.'.)._.).L.L.`.L.L.P.P.L.N.P.N.C.z.Z j Y 4 6 T ",
"^ - 7 j f H.C.P.G.C.k.g.A c.v.(.P.).F.F.A.S.S.S.D.D.D.Z.D.D.F.F.D.D.Z.Z.D.D.D.(.(.(.V.G.P.L.L.Y.x.B B l.t.L.P.D.S.C.h.c.j 4 T P ",
"~ _ j I.V.C.D.N.t.d.s X X # N c.K.N.A.A.A.S.G.S.D.D.Z.Z.D.D.F.F.D.N.M.i.p.p.p.u.j.b.b.b.M.L.`.J.g $ X X N d.K.D.S.(.(.f.k Q P S ",
"R b C j.D.F.L.x.v d l M p X 3.z h x.s.A.i.i.i.y.i.h.u.u.j.b.u.y.p.u.b.i.b.i.i.i.b.t.y.i.i.x.B z 0 X [ % n $ h L.G.A.K.c.j ! : S ",
"6 x N r.s.N.m.h $ >.  :.:.@   M $ V t.K.a.i.y.b.u.b.u.u.u.u.u.u.y.i.y.m.i.i.y.y.t.b.i.u.x.J.# ,.X O <.p 8 5.$ J.Z.L.m.c.0 6 H , ",
"> 2 j g k.k.k.g y :.@ 1.:.1.y m % N x.N.s.p.i.y.u.b.a.p.p.y.y.i.i.a.M.s.s.a.a.a.M.a.a.M.n.N % 0 + p 2.2.y 5.g N K.K.v.{ 2 4 t W ",
"~ t ` $ h x.V z ,.i >.2.e.e.2.M [ $ k.y.s.M.N.n.n.n.s.N.A.N.M.M.M.M.M.M.s.s.N.M.y.M.n.n.k.# 5.9 M w.q.w.2.0 3.g g.k.Z f 7 D 7 -.",
"; > 8 d h x.g.g ,.>.1.w.5.5.,.,.n $ B h.m.m.n.M.n.n.M.M.a.M.n.n.n.n.b.i.i.i.u.u.b.b.r.j.c.# 2.>.1.w.0.w.3.M 5.0 N C ` 7 K &.;.;.",
", 6 5 2 Z v V $ a a O ,.,.5.9 9 8 n N B Z B l.f.f.f.f.d.f.f.l.l.Z l.f.f.f.f.l.Z l.l.l.Z l 3.9 9 + i 2.2.0 [ p _ n k 7 ) | | ;.G ",
"6 E 6 5 0 k k p @ [ o a a   . [   q 1 1 x n 1 1 1 k 1 1 1 1 k j x x 2 x 2 ` x k 2 x x O._ 5 . (   @ >.@ 8 <.  6.8 5 4 O.......- ",
"6 Y 3 6 F ~ ! _ r @ 8 ( a   1.a q = w L > L Q > w > < < q 5 6 6 q I 6 6 J Y L 4 3 4 7 o.] w ! ( a O >.@ [ . $.I ~ P F Y T L 4 F ",
"w F H m m m m m m m m q 8 @ q 9 , w w ; > 6 : L ; 6 > w > L 6 6 Q 4 L Y Q 4 L S D 4 H w I ~ ~ q o 9 9 8 r R E T : H 4 ; 4 6 > 6 ",
"m m m m m m m m m m m m m q < < r I ~ 6 D : T : 3 6 L E L w L 6 4 : : H : 3 @.=.@.o.6 6 w = 6 w r q q w > 6 > : : & - S H 6 6 6 ",
"m m m m m m m m m m m m m m L L w 6 E T T 3 ..4 4 Y L 4 6 ; ^ 4 =.W 3 - > @.H 6.o.T > 4 L > > ~ ! ~ t w $.6 - : D 6 H F : > L : ",
"m m m m m m m 4.4.4.m m m m m m 6 6 6 4 W :  .*.4 W 4 H 4 6 E 3 =.o.W D O.W @. .Y 6 6 : D - w - ^ ] Y 3 ] =.D 4 J ] ^ > H ~ ~ < ",
"m m m m m m 4.4.4.m m m m m m m m w - 4 D : W @.> D T $.E L > F  .o.} K D ] O.3 I - W P T H - < ; 4 Y w @.*. .- ..P H 4 ~ I w 6 ",
"m m m m 4.4.4.m m 4.4.4.4.m m m m m Y #.=.=.Y K 3 Y 8.W 6 ; 6 > O.J ..J D : H 6 - #.T H : ; w - e ; D D ; W  .3 ..- 4 > 4 6 w w ",
"m m 4.4.4.4.4.4.4.4.4.m m m m m m m m 6 F =.=.Y 4 O.O.L 6 ; 6 6 T W J J 4 4 6 q > w > > > H > < - D : } D D J W - ..6.] #.4 H , ",
"m m 4.4.4.m m 4.4.4.4.m m m m m m m m 6 6 W ] W > F > : w e w > : I Q D 4 6 S < L > ; - > > > > ; > +.=.=...K D ..7. .D 3 > ^ H ",
"m m m 4.4.4.m m 4.4.m m m m 4.m m m m m 4 3 6 4 6 ; > w w > w > ' G > Q w - : O. .~ 6 q > < - > F : D P +.@.#.J ..^ 6 D 4 T I 4 ",
"4.4.4.4.4.4.4.4.4.4.4.4.4.4.m m m m m m H 5 6 6 6 w w L , q > 6 - T 6 / I I L 6 ^ ~ , 6 > w > E : 6 - D L O.o.W O.J : Q T E 6 ; ",
"4.4.4.4.4.4.4.4.4.4.4.4.4.4.4.m m m m m m ; 6 w * q > > < < - ; 6 6 > I ~ = 6 : 3 I E w q > ; E Q - D 3 4 3 ; 6 4 4 3 ; 6 w 6 6 ",
"m 4.4.4.m m 4.4.4.m m m 4.4.4.4.m m m m m ; * > > > = q ~ > - > 6 6 w w ~ ~ 6 w 6 F , 6 L > 6 6 Q ~ H ; 6 6 w 4 > 6 e 6 6 6 > > ",
"m 4.4.4.4.m m 4.4.4.4.m m m m m m m m m m m 6 > w q w ( ~ < - w 3 6 6 6 ; ~ 6 I 6 4 ; 6 4 6 I w ; H - $.O.3 4 6 6 > > w w > > w ",
"4.4.4.4.4.4.4.4.4.4.4.4.m m m m m m m m m m e 6 ~ w w ~ ! > < : w q 6 ; ; 6 6 ^ ; H 4 o.; 6 E E H D H W ..4 6 ; Q L 6 ~ I < q = ",
"4.4.4.4.4.4.4.4.4.4.4.4.4.m m m m m u u m m m P L w 6 > ~ r q > > 6 > > > > 6 > D O.] 7...6 O.W 4 | | | : 4 4 Y I 6 w w ~ < > > ",
"4.4.4.4.4.m 4.4.4.4.m 4.4.4.m m m m m u u m u ~ ~ * Y w < > > w w ! L w - > H E T 6 D | =.T H - ..| *.=.X.: > Q Q w < = < < < w ",
"m m 4.4.4.m m 4.4.4.4.m 4.4.m m m m m m u u u ~ w w ; 6 , 4 4 6 E E & , ; 6 > 6 ; - - - > 4 ; H 6 3 H : F : 6 > q < q L L w - 6 ",
"m 4.4.4.4.4.m m 4.4.4.m m m m m m u u m u u u r q 6 6 6 4 D L | Q E > 5 > 6 > , - E H : ; > H 6 > ~ > w 6 > ^ q 6 6 > > 4 6 6 I ",
"4.4.4.4.4.4.4.4.4.4.4.m m m m m m u u u u u , L ^ Y L | D 4 ;.=.Y I w ; > : 6 ~ > ~ L L < = < > w q I w 6 ..T L 6 > 6 6 w w 6 T ",
"4.4.4.4.4.4.4.4.4.4.4.4.m m u u m u u u u w > - - Q Y W X.; ; X.T H ; ; w w w ~ w L I I , , > I 6 > $.6 ; 8.: 3 6 ; * 5 > 6 w ~ ",
"m 4.4.m m 4.m m 4.m 4.4.4.m m u u m u u 6 ; 3 - D 6 H ' ..6 6 6 F P ; P L D E E 6 > w L > w = w : W ] @.W J J F 4 6 6 6 6 6 3 6 ",
"m m 4.m m 4.4.m m m m 4.4.4.m u u u u - 6 F w Q E - 6 : 6 > w 6 : T 3 +.^ 6 I > H 6 ; , ; 6 ~ #.7.| G o.Y G K } @.#.Q 6 * w w ~ ",
"m m m m m 4.4.m m m m m m m m u u u u 6 > Q ^ R I 6 Y H : P =.: D : S *.P : : 6 H 6 4 ^ ; H w : J ;.| G K K } ;.W 4 6 6 6 < ! ~ ",
"u m m u m m 4.m m m m m m m m u u u ] H 6 S < ~ ~ w : : W =.*.D o.| K *.4 D - T T 6 : O.L H ^ : D D o.X.G 3 o.T 3 6 6 > > e I w ",
"u u u u u m m m u m m u m m u u u u W H ; ; , - L E 6 4 6.O.4 :  .*.| J Y =.7...: : H O.J ^ - H 6 4 E T W : 6 6 6 w > = w 6 5 6 ",
"; u u u u u u u u m m u u m u u u W : 3 ^ E 6 > H 3 H :  .T 3 6 : K =.K D > 6 ; D : : : Q Q - Y I w > 6 w 6 - w w E w 6 w 6 ; H ",
": 6 H w > > ; ; u p m m u u u u y 6 : 6 T 4 - H ' @. .: D D - D : : Q K ; 6 - 4 : , I @.4 : #.~ L q 6 w 6 w > q > E ~ w 4 6 4 W ",
"6.L H E L ; 6 > - 6 y y y u u u y y D 6 ; > ..8.=.| | D 4 | 8.$.=.D > , H ; , < ; - w W  .T O., > 6 w < ~ w q > > w E E 4 ; K =.",
": : 6 T I 6 , w ; > : ^ y y u u u y L : 3 ; - > H - H : o.*.*.^ 6 - I ; > > L ~ 6 > ; - ~ ~ : L 6 * 6 I E 6 I 5 > > 6 T 4 D o.;.",
"6 - 6 6 E E 6 w 6 L > ; + y y y u y =. .4 6 , 6 E T T 4 6 6 3 : : 6 - = < w = ~ I 6 > 4 6 : 6 - 3 4 4 ~ E ; 5 w * w 6 6 4 Y ;.G ",
"D I D 6 - w 6 S > > > , + + + y y y - : > - 6 E T 6 6 6 , > H 4 6 I w 6 > ; H : Y : H o.: L < = 6 6 6 w I w w q q > w E 6 Y  .4 ",
"4 Q 4 T E ^ > > > 6 w < + + y y y > L < & ; w 6 6 T > ; L > L > 6 E U : w ~ O.4 D :  .&.: ; > w 6 E 6 ; 6 e ^ w w 6 I E : Y w 6 ",
"K ; 4 +...> 6 w I I E + + y y y y > r > , H , ~ > ~ ^ D : H > w Y H Q E 6 - ^ O.K D &.Q S 6 > - 6 ~ Y L 6 6  .4 4 ^ T E 4 6 6 6 ",
"D D 4 6 H : : T E F + + + y y y q w , = > 6 Q T > I L H : 6 ^ > > 4 D 6 > H , 6.} K ..D H F 6 > 6 w Y T 4 W 8.' 3 J : H 3 * ; ; ",
"=.=.o.: : : H 4 6 6 + + + + ~ S S > q w L 6 P ..H - ~ - H Y E D &.W D : ^ T : :  .K J L  .] ~ > 6 > e Y 4 K *.*.D : D 6 3 w 6 w ",
"=.| '  .D  .O.6.6.] P - : > T Q q 6 - ~ ; > O.4 : ; 4 D } Q P : &.8.H P - ..#.Y H L J K P H L , > 6 6 3 D : G *.: G o.=.O.~ I w ",
"K | ..J D P W ' : > : : ; F L I E w > ~ ~ H > - D : : 6 ] O.6 : o.' W J H 6 =.#.T E H P H : H = = w 6 6 J W J X.K X.X.@.Y > w w ",
"- K | 4 - Y ..> : : > H - ; > 6 > 6 4 T ' H - H  ...$...6 6 4 4  .J D : > 6 6 6 E T 6 4 , = H > > ~ Q #.=.=. .J G W W T 6 w * q ",
": : F T T 6 - ; #.O.E : , ; w 6 ; P > : o.O.: ..=.&.J : H D : D 4 T 4 H : & H 6 6 ~ w - 6 w : - w 6 w 6 4 L Q T : 3 6 6 6 * > q ",
": O.=. .H ; H O.E E > I ; ; 6 #.L - 4 4 D : 3 ..=.: - @. .P W : 6 O.H ; > ; 6 > S w q ; w 6 L > = 3 6 6 w e 6 ; > - w : 6 6 I H ",
"Y } T 6 : P ; 6 > L w I 6 = , O.] : H T ' =.@.K S 4 o.7.#.=.} : I +.6 * > w > > 6 > > > > w E q 6 4 ; ; w ; = w ! = < > w w ~ > ",
"> , 6 6 6 L > L 6 , L > > > L O.O.D P =.8.@.} ..4 ;  .T @. .H ; F L > > S ! > 6 > > 6 w > L I E ; 6 6 > > > r ~ / < > < w w w > ",
"L w w L L > , > w L w 6 - ; H ..H H : ^ ] &.@.} W F H P O.: > > , > 6 > 6 Q w 6 w - L w 6 6 6 ~ 3 6 w ; ; > ~ I e w < > w > > > ",
"6 : I I > 6 ~ ^ 6 w I 6 > > 6 6 : : > T : : D H - ; w H H : > ; w w w , > Q L 6 H > ^ , 6 6 6 6 I 4 6 6 w 6 ~ w 6 w 6 ; w 6 ; q ",
"H 6 > > - > H I 6 > w 6 ; S E : H ; 6  .O.: 6 : 4 4 ; 3 < S - q w q 6 : ; T T Y : H U I ; 6 E 4 L 6 6 ' O.6 6 4 6 6 6 6 w > 6 q ",
"> 6 - 6 > 6 w ~ F > 6  .; : Y E > L L P #.: : 6 T 4 6 E ( > > , w r < > > : 4 ~ 6 : 4 $.: 3 E Y ; e Y ^ O.4 6 3 ~ 3 6 E Q > > > "
};
