/* XPM */
static char *exitcarupl31680168884[] = {
/* columns rows colors chars-per-pixel */
"64 64 119 2 ",
"   c #030201",
".  c #010A00",
"X  c #081103",
"o  c #10100E",
"O  c #090A14",
"+  c #151F12",
"@  c #10191C",
"#  c #330100",
"$  c #0E2901",
"%  c #132A03",
"&  c #152A0A",
"*  c #163403",
"=  c #1A3205",
"-  c #1F3804",
";  c #1B320B",
":  c #17380D",
">  c #1F3113",
",  c #3A2905",
"<  c #34250C",
"1  c #392E0C",
"2  c #233502",
"3  c #233D03",
"4  c #27310C",
"5  c #223A0B",
"6  c #353403",
"7  c #222413",
"8  c #22251F",
"9  c #253114",
"0  c #223C13",
"q  c #2E3915",
"w  c #24311C",
"e  c #29391B",
"r  c #333410",
"t  c #241527",
"y  c #341C27",
"u  c #27282C",
"i  c #312222",
"p  c #363423",
"a  c #353733",
"s  c #431508",
"d  c #561310",
"f  c #57121B",
"g  c #76151E",
"h  c #432205",
"j  c #40300D",
"k  c #443414",
"l  c #691823",
"z  c #4A3820",
"x  c #533925",
"c  c #4D2B32",
"v  c #4B3235",
"b  c #692521",
"n  c #7E2A2E",
"m  c #783121",
"M  c #18410E",
"N  c #254005",
"B  c #2C4206",
"V  c #2F4903",
"C  c #27400C",
"Z  c #2E4A0C",
"A  c #35500E",
"S  c #2A4114",
"D  c #294A15",
"F  c #2D431C",
"G  c #284B1C",
"H  c #334712",
"J  c #314A15",
"K  c #36431E",
"L  c #344C1F",
"P  c #375114",
"I  c #35511E",
"U  c #304424",
"Y  c #354B24",
"T  c #395224",
"R  c #3D542D",
"E  c #384432",
"W  c #434520",
"Q  c #524021",
"!  c #445D22",
"~  c #455E2A",
"^  c #444238",
"/  c #6E4128",
"(  c #436422",
")  c #4A6321",
"_  c #4A6428",
"`  c #4D692B",
"'  c #536623",
"]  c #506A28",
"[  c #4B6331",
"{  c #436930",
"}  c #536B32",
"|  c #506638",
" . c #536B3A",
".. c #557330",
"X. c #5A7331",
"o. c #5B7439",
"O. c #676E38",
"+. c #627835",
"@. c #3D3A40",
"#. c #454546",
"$. c #574445",
"%. c #4D4F50",
"&. c #565555",
"*. c #7A4841",
"=. c #665554",
"-. c #5C7540",
";. c #5E7B40",
":. c #637B43",
">. c #695E62",
",. c #6C6668",
"<. c #767070",
"1. c #881B19",
"2. c #B41F30",
"3. c #88252E",
"4. c #96282D",
"5. c #992532",
"6. c #A52130",
"7. c #BB2435",
"8. c #AD7757",
/* pixels */
"; = 9 5 % 0 8.8.8.*.*.*.*.*.8.y c 8.8.8.8.8.8.8.8.8.8.8.8.8.8.8.*.*.*.*.c c c c c c c c c *.*.*.c c *.*.*.*.c c c c 5 ; D M ; - ",
"0 C 5 9 8.8.*.*.*.*.*.*.*.*.y c 8.8.8.8.8.8.8.8.8.8.8.*.*.*.*.8.8.*.c c c c c c c c c *.*.*.*.*.*.*.*.*.c c c c c c c ; > * = M ",
"- 0 c i y c #.3.*.t t t *.*.c 8.8.8.*.8.8.8.8.8.*.*.8.8.*.*.*.*.*.c c c c c c c c c c *.*.*.c c *.*.*.*.c c c c c c c 4 q 9 0 0 ",
"I O O O y c v c *.*.*.*.*.*.*.*.*.8.8.*.8.8.*.8.8.*.*.8.*.*.*.*.*.c *.*.c c c c c c c c *.*.*.c c *.*.c c c c *.c c c c 9 0 0 S ",
"{ y O y y y c c *.c c *.*.*.*.*.*.8.8.*.*.*.8.8.8.*.*.*.*.*.*.*.*.*.*.c c c c c *.*.*.*.*.*.*.*.*.*.*.*.*.*.*.c c c c c 4 = 0 L ",
"J y t y y y y c c c *.*.*.*.*.*.8.8.*.*.*.*.*.8.*.*.*.*.*.*.*.*.*.*.*.c c c c c *.*.*.*.*.*.*.*.*.*.*.*.*.*.*.*.c c c c c C - L ",
"; y t y y y y c c c *.*.*.*.*.*.*.*.*.*.*.*.*.8.*.*.*.*.*.*.*.*.*.*.*.*.c c c c c c *.*.*.c c *.*.*.c c c *.*.*.*.c c c c C 2 - ",
"5 i t y y y y c c *.*.c *.*.*.*.*.*.*.*.*.*.*.*.*.*.*.*.*.*.*.*.*.*.c *.*.c c c *.c *.*.*.*.c c *.*.*.*.c c c c c c c c c c 5 J ",
"Y y t t t y y y c c c c *.*.*.*.*.*.*.*.*.*.*.*.*.*.*.*.*.*.*.*.*.*.c c c c c c *.*.*.*.*.*.*.*.*.*.*.*.*.c c c c c c c c c T D ",
"Y Y y y y y y y y y c c c *.c c *.*.*.*.*.*.*.*.*.*.*.*.*.*.*.*.*.*.*.*.c c c c c *.*.*.*.*.*.*.*.*.*.*.*.*.c c c c y y c c c M ",
"Y z m i y y y y y y y y y c c *.*.*.c *.*.*.*.*.*.*.*.*.*.*.*.*.*.*.c c c c c *.*.*.*.*.*.*.c *.*.*.*.c *.*.*.c c c c y y c y M ",
"5 k b 1.2.7.6.g # #.  y y y y c c c c *.*.*.*.*.*.*.*.*.*.*.*.*.*.*.*.c c c c c *.c c *.*.*.c c *.*.*.*.c *.*.c c c c c y y y : ",
"4 1 h d 4.4.4.f i @.@ %.@.&.y y c c *.*.c *.*.*.*.*.*.*.*.*.*.*.*.*.*.c c c c c c c *.*.*.*.*.c c *.*.*.c c c c c y y c y y y P ",
"Y r Q # g 5.n f $.u #.&.<.<.&.v c c c c *.*.c *.*.*.*.*.*.*.*.*.*.c *.*.*.c c c *.*.*.*.*.*.*.*.*.*.*.*.c c c c c y y y y y 6 O.",
"; ; 7 s g 5.3.f $.#.%.,.=.>.$.$.x c c c *.c c *.*.c *.*.*.*.*.*.*.c c c *.c c c c *.*.*.*.*.*.*.*.*.*.*.*.c c y c y y y y ..+.+.",
": 5 4 , m l n # p a o $.$.=.8 8 7 x c c c c *.*.c c *.*.*.*.c *.*.*.c c c c y c c c *.*.c c *.c c *.c *.*.*.c y y c y y ) ) +.V ",
"; L 5 4 1 j j i + ^ X a a   . v . 9 < < c c *.*.c / 3.3.*.*.c c c *.c c y c y y c c c *.c c *.*.c c c c *.*.*.y y y y _ ` ` ` - ",
"C S 2 5 5 T Y W e + 7 E a   %.a 9 & 0 S ; c c c c c >.v ^ *.*.c c c c c y y y y c c c c c c *.*.c c c c c c c y y y y H J C 5 C ",
"C C C H 5 5 0 E U p . 9 7 + w u ; > C * ; 5 c c c c *.c v c c c c y c y y y y y y c c y c c c *.c c c c c c c y y y M = 5 5 - 5 ",
"C 5 3 T J 0 5 q ; ; F > F > > > e F Y 5 N - G c c c c c v c c y y y y y y -  .o.y y y y y c c c y c c y c c y y y t * N C 5 5 5 ",
"G - - 0 K C 0 = * ; = 5 L ; S S S ; Y J J 2 ` O O t c c c y y t o.A 2 * ;  .C o.} y y y y y y y y c c y y c y y y t C C - ; S ; ",
"L Y C 5 - : - 5 0 5 ; 3 [ J 5 ; 5 5 - 3 P 2 O O O t c c y y t 2 o.] P N ~ P } ` H - : - 5 * 0 y y y c c y y y y y t t - C L Y 9 ",
"L L ; C D I D 5 D _ T $ T J *  .F 0 = 2 N O O O O t t c y y t 5 _ ] ( P N ~ | 3 S = P D J C * 0 = O O O t t y y y y t 3 L Y 0 - ",
"= G 5 L J T - 5 * I ~ T = * J F C 5 J | o.O O O O O t c y t t = _ Z ` Z 3 3 5 ; -  .J C - = 0 * q O O O O t t t y y t ; - 5 0 0 ",
"- 5 - ; 5 5 2 5 5 5 5 L L * % - 0 U H 5 O O O O 3 [ t t y t 5 5 J P Z Z 3 5 5 0 ; 0 ; - = 0 ; > O O O O O 3 t t t y y t | 3 C ; ",
"C [ C C 5 2 5 5 - 5 = = ; 5 5 = % 5 O O O O O P 5 C 5 t t t t ; 3 F I 3 - 5 5 0 F ; = = - ; ; O O O O O o.` P t t t y t 2 ; Y C ",
"q [ 5 J T = M C L S 5 = : % 5 Y 5 O O O O O C 2 5 = = t t t t 5 ! Z * L 0 = ; [ ~ L 5 9 ; > O O O O O D { } | Z t t t t 3 J L - ",
"5 C 4 0 Y J 5 C 5 L Y F S S > L U O O O O 4 ; 5 5 0 0 0 t t t 5 * J 5 ~ F F 0 5 T G S 5 ; O O O O O * N S [ ` t t t t t J L 5 = ",
"3 - 5 5 5 Y ; ; 4 - 9 ; ; C C F Y 5 ; 5 5 = 5 0 = 9 ; ; t t t = 5 5 ; F Y & 5 - 2 H Y 0 9 O O O O * C 2 - - * t t t t 2 5 0 5 5 ",
"5 5 0 M - 5 S 5 * ; 5 0 5 5 5 5 L 0 5 5 5 = % ; ; ; & 0 Y ; = ; 5 5 0 0 Y Y C 5 5 B M ; S ; 5 5 I Y C = 5 C C - 3 0 S 5 5 5 ; ; ",
"9 S ; > : ; 5 S 5 Y I D ; 5 J C 5 ; 5 H T 5 5 ; 0 9 9 E Y 0 = 0 ; 5 5 5 - Y 5 S 5 2 = 0 3 5 F 0 = C * } [ 2 3 5 5 = ; 0 0 ; ; 0 ",
"; M : * = 0 : : 3 : J _ T - J J 3 2 I L [ 5 q 5 Y 0 0 U U ; > = e 9 5 = = 5 5 Y = C 3 ] * 5 L Y C N C P [ 2 C = Y S 5 U F > 9 & ",
"= M C ; - ; 5 5 N _ ` o.) M ` Z N ! ] ] - N C D H 0 5 ; U e 0 ; ; 5 ; ; ; ; 5 ; N ` ~ -.` - | P M ) ) ) - 3 3 H F 5 0 0 Y 9 : ; ",
"F F > ; > ; 0 L - N J _ X.Z - N ] ] } X._ - - L Y % S 0 9 ; ; e 0 L S S * ; C L H 5 3 _ o.J C * ] ) X.o.' - 2 L L 0 9 & > > > 0 ",
"F G 5 ; * * 5 J D C $ N 2 _ 5 H V ..X.M = * 9 Y 0 0 ; 5 : 3 3 5 L L $ : ; 5 ; 5 - = * * 5 2 - C 5 2 N 2 C - 5 5 9 > 0 0 S 5 = 5 ",
"L Y S ; 5 > 0 C ; 3 - H J T J D ` ( C * 5 ; ; e 9 5 C 2 3 3 S ! L L ; ; ; ; = 5 * L C * * ; > C ; L ; 0 5 - Y > - ; 0 ; 5 5 5 F ",
"L G 5 = > S S 5 5 0 o.-.[ * L ; = > * > ; 0 ; 0 Y H S ) 3 - +.o.H K 0 % ; ; : Y ; T e S > ; > ; 0 0 K 0 5 ` H S 5 ; 5 5 0 0 5 J ",
"H - = S T K M 5 C | [ F 0 0 ; S M S Y Y Y 0 ; * * I Z P ' - - ' D C = * 0 C S Y 0 S F F ; ; : F 5 ;  .5 = :.5 2 5 = % 4 ; 5 5 Y ",
"C 2 C D Y G 5 5 * 5 0 5 ; C ; 5 : D J - 3 = 2 * 3 5 C _ _ 5 5 5 C D = J D C L L 5 ; 0 M : 0 ; > - P ~ } P Z Z B 2 C 5 5 5 5 2 5 ",
"- - 5 5 5 5 ; = 5 J F P N - C - Z A C * M C e I L * 5 - 5 - 0 5 3 A 2 { T ; F - C 5 ; C = ; Y | -.) V ] Z V P ! }  .L 0 % 0 0 Y ",
"- C K - S ; : = 5 - 3 I S N C - N * - C ; T T K F 5 H - - J o.- 3 - 3 o.D - - C C 5 - T = C 0 - Z +.) V A A ! +.P - 5 5 5 > Y U ",
"| H I 5 * Y Y - ; C 3 - A - - X.o.o.~ C 5 : > Y T 0 5 - P o.X.N ` ) A X.- C * J J 5 - _ C C T 5 N N ] ' V - ` J 3 5 5 ; 4 0 F 0 ",
"{ T ; S Y Y 5 = - ;.Z 2 - - ] ~ ..( P C - = : * S L 5 2 -.~ 5 - _ .._ Z H o.;.` - - C [ Z T = C 5 3 L H P - C 5 ; 0 ; & S 5 4 5 ",
"= [ - ; 0 : * - 5 o.-.J M ' Z ` { P - 3 T L 5 ; C 3 C - _ J 2 C - A o.A 5 - 5 = C - - - I I * J J 0 = 5 0 5 = 0 0 Y 0 5 5 5 = C ",
"- - C 0 ; ; = = 5 ~ ` [ 2 M S ` 5 5 - C J - * C ~ ] _ - 3 N * 3 - - I H * 5 = 3 - * J  .3 ; [ Y e > 0 0 5 0 ; 9 ; L Y 0 3 0 - P ",
"-.S C I 0 = 5 ; : - T ~ N C } [ M - N ; * = ` :.-.) ) N N ) :...o.N = 5 S = & 0 = * M P [ J [ 5 ; 5 0 9 Y 0 9 ; ; 0 L L 2 - A o.",
"- - 5 H F : : 5 * 5 - T T 2 = - ) ` D - 2 : = ; C * C - ] X.X.T - : S * : ; 0 L 5 ; * = L L 5 0 ; = 5 S L 5 S 4 5 ; 5 J 3 C ] +.",
"0 * 5 C L T 4 0 5 S ; * 5 S 5 H { o.o.` 2 - > 5 L J H 3 5 5 2 - - 5 ; & > 0 ; Y Y 5 = - 5 - 5 = 2 3 3 Y L = 9 0 % 0 5 5 - Z +.V ",
"N S N C * 0 5 M = ; ; M 0 F > ; ; : * = 5 = 5 L J 5 5 C 5 ; C 5 5 F 5 5 - ; > 2 H - N } 5 : > ; 5 5 5 0 K 0 0 > > ; 0 I 5 H [ 2 ",
"3 L 3 D L T ; ; ; 5 0 > & ; ; ; : > 0 0 $ = 0 5 5 J = = S ; 0 ; 5 L G 5 0 Y ` - M - _ ..3 = ; 0 5 L 5 = 5 0 Y S 0 5 F L 2 H C - ",
"A - 3 [ [ - 0 M K F L 0 0 ; ; ; : * e ; ; > - T ; Y T 5 - 0 ; 0 H C L I ; : T ` A N ..I N 5 ; = 5 T J S 5 C _ 2 3 T J Y 3 C 0 5 ",
"3 N - C C 2 3 J L C 5 * 5 5 0 : > > ; ; ; - T D ; F D C - 3 T ; - 3 N 5 - C : -.( A ` N C C 5 ; 5 e H J 3 P :.! 2 Z - C 2 % = = ",
"o.o...- - - C - C 5 - ; F T L - > ; > 5 e 5 D _ C = I * C H L C ..J C - T J - 3 ) A Z S _ [ Y ; ; ; q J 3 A X.X.3 - 3 3 = : C 0 ",
"o.) P ` N _ [ -.-.~ J * - ; D T 0 - : T = - | 3 - = - C ( I D - ..:.C J = [ | H C H Z A D C M ; ; 5 5 2 N 2 V X.- V ] -.[ L K 0 ",
"A _ ` Z N J P ~ * ; = - = C S F Y 0 ; L L C ; * 3 - 2 C ~ [ 5 - ` ! P Z 5 3 o.| J I C D C = 5 ; & 0 5 5 Z P Z ' A ' ] } J = 0 0 ",
"* A ) - * H _ - - - 5 5 * = ; 5 ; C - H ~ C * C _ `  ._ 5 5 3 3 _ Z N - 5 ; 5 5 T J 5 2 ; ; 5 ; ; L L  .o.o._ Z V P P J 5 0 % 9 ",
"- 3 C J J 5 = - [ [ L : ; ; C 0 * D 3 - ] [ - ` o...Z - C N - 3 - J - C - $ > C 5 Y 0 = 5 C 3 * 0 5 e 5 2 S L J - 2 5 5 5 % ; 0 ",
"3 [ o._ C = C [ L Y ; F = * 5 [ e * - 3 N - 2 ` o.- * } _ J P - C [ C - ; = 5 : M S 9 * 0 ; e ; & = 5 5 0 0 5 = ; = 0 5 5 5 F 0 ",
"H ~ J 5 - D * : ; S 0 S 5 * ; [ ( - C J ! o.} P M 2 } o. .o.( 2 S { 5 % ; 0 ; ; 5 ; > ; ; 9 Y 0 5 3 = = 0 - & 0 U % 9 ; q 0 L ; ",
"= : 5 5 5 S ; S 5 C S ; ; ; S | [ N D -.:.} ( ` - - _ D } _ 5 = C S 5 = 0 L ; 5 ; ; 5 0 ; D D Y = 5 5 ; ; ; e Y R > ; > 0 0 0 ; ",
"S C S S S ; 5 ; 0 S S 5 * = 5 [ C C - Y ~ ..} ( P C C J [ 3 5 ; 0 ; 5 ; 5 L 0 5 5 = S M 5 5 5 L 3 5 5 = = ; Y F K 0 9 ; 0 ; ; 5 ",
"5 ; F S ; 5 Y Y 5 C S ; ; * 5 5 - - - J - - C N * - 5 C C = ; * 0 0 0 ; = I S C 5 - T ; 5 5 5 5 K 2 5 5 e 5 L 0 ; 5 5 = 0 ; = 9 ",
"S 5 ; ; * ; S S 5 ; 0 5 = M L - C = 5 _ [ - ; - N - - = > M * 0 0 > 5 = = D H S 2 C L F = 5 L 3 H 5 5 ~ _ 5 5 3 5 5 5 ; 0 ; 5 > ",
"; 5 * 5 ; 5 5 Y S ; 5 ` = - H Y ; S S D | - C - H N 5 L E ; ; : > e 0 ; = C - L M - -  .; 2 Y J = 0 H L [ 5 5 2 L 2 5 L Y ; = 5 "
};
