/* XPM */
static char *exitcarupr51680168875[] = {
/* columns rows colors chars-per-pixel */
"64 64 185 2 ",
"   c #020101",
".  c #010A00",
"X  c #100100",
"o  c #1A0306",
"O  c #081103",
"+  c #10100E",
"@  c #090A14",
"#  c #131D15",
"$  c #270000",
"%  c #330100",
"&  c #271012",
"*  c #0E2901",
"=  c #132A03",
"-  c #152A0A",
";  c #163403",
":  c #1A3205",
">  c #1F3804",
",  c #1B320B",
"<  c #17380D",
"1  c #1F3113",
"2  c #332206",
"3  c #3A2805",
"4  c #36260B",
"5  c #392E0C",
"6  c #233502",
"7  c #233C03",
"8  c #27310C",
"9  c #223A0B",
"0  c #353403",
"q  c #222413",
"w  c #22251F",
"e  c #382913",
"r  c #253114",
"t  c #223C13",
"y  c #2E3915",
"u  c #24311C",
"i  c #29391B",
"p  c #333410",
"a  c #241527",
"s  c #341C27",
"d  c #2F2E28",
"f  c #312222",
"g  c #353733",
"h  c #440C06",
"j  c #521F04",
"k  c #561315",
"l  c #76151E",
"z  c #442407",
"x  c #492E06",
"c  c #40300D",
"v  c #4F2313",
"b  c #53201F",
"n  c #443414",
"m  c #691822",
"M  c #4A3820",
"N  c #533925",
"B  c #4D2B32",
"V  c #4A3335",
"C  c #692521",
"Z  c #7A2322",
"A  c #7E2A2E",
"S  c #673424",
"D  c #783121",
"F  c #7A382C",
"G  c #18410E",
"H  c #254005",
"J  c #2C4206",
"K  c #2F4903",
"L  c #27400C",
"P  c #2E4A0C",
"I  c #35500E",
"U  c #2A4214",
"Y  c #294A15",
"T  c #2D431C",
"R  c #284B1C",
"E  c #334712",
"W  c #314A15",
"Q  c #36431E",
"!  c #344C1F",
"~  c #375114",
"^  c #35511E",
"/  c #304424",
"(  c #364B24",
")  c #395224",
"_  c #3D542D",
"`  c #384432",
"'  c #444314",
"]  c #434520",
"[  c #534021",
"{  c #445D22",
"}  c #455E2B",
"|  c #55522A",
" . c #444238",
".. c #6E4128",
"X. c #436422",
"o. c #4A6321",
"O. c #4A6428",
"+. c #4D692B",
"@. c #536623",
"#. c #506A28",
"$. c #4B6331",
"%. c #436930",
"&. c #546B32",
"*. c #506638",
"=. c #536A3B",
"-. c #557330",
";. c #5A7331",
":. c #5B7439",
">. c #676E38",
",. c #627835",
"<. c #3D3A40",
"1. c #454546",
"2. c #574445",
"3. c #585244",
"4. c #4D4F50",
"5. c #565555",
"6. c #694744",
"7. c #7A4841",
"8. c #665554",
"9. c #7A5751",
"0. c #5C7540",
"q. c #5E7B40",
"w. c #637B43",
"e. c #5D5C61",
"r. c #695E63",
"t. c #6C6668",
"y. c #767070",
"u. c #881B19",
"i. c #9D1522",
"p. c #AB1720",
"a. c #A41E25",
"s. c #AA1A26",
"d. c #B31729",
"f. c #B31C28",
"g. c #B41F30",
"h. c #892724",
"j. c #8C2925",
"k. c #88252E",
"l. c #992223",
"z. c #9B2128",
"x. c #96282D",
"c. c #873024",
"v. c #9C332A",
"b. c #992432",
"n. c #883331",
"m. c #983436",
"M. c #A82224",
"N. c #AC2A2D",
"B. c #A52130",
"V. c #B52730",
"C. c #BB2435",
"Z. c #A73938",
"A. c #B53235",
"S. c #BE353B",
"D. c #C52435",
"F. c #CA3336",
"G. c #C43539",
"H. c #CE3039",
"J. c #D1383D",
"K. c #914C37",
"L. c #993544",
"P. c #AB2D42",
"I. c #B93541",
"U. c #C73541",
"Y. c #935249",
"T. c #9A5B5D",
"R. c #B5494B",
"E. c #91665A",
"W. c #A7635B",
"Q. c #986768",
"!. c #95766C",
"~. c #A4666A",
"^. c #A9777C",
"/. c #B77577",
"(. c #C94547",
"). c #D74C55",
"_. c #E35C60",
"`. c #D4696E",
"'. c #E66568",
"]. c #8D857B",
"[. c #9D7E83",
"{. c #B99E9A",
"}. c #B2A39A",
"|. c #D69E9F",
" X c #DDB7B9",
/* pixels */
", : r 9 = s s s s B B B B B B B B 7.7.B B B B B s s B s B B ..B B B 7.7.7.7.B 7.7.B B B %.6 @.K H X.X.X.6 7 9 ! T T 9 < Y < , > ",
"t L 9 r , < s s s B B B B B B B B 7.B B s B B s s s s s B B V B B Y.7.B 7.B B B B B B $.=.' 0 H o.@.-.,.&.7 6 T T 8 , , t : ; L ",
"> 9 Y t G < s s s s B B s B B s B B B s s s s s s s s s s B s B B B B B 7.B B B @ @ ].].Q.E.6.Y.j x H G 9 8 t U 9 r - 9 y t 1 t ",
"^ E ) t R G < s s s B s s B B s s s s s s s s y e b s s s s s s s B B B B B a B @ @ [.[.^.^.`.^.Y.K.[ [ M 5 8 , > , 8 y r t t T ",
"%.T t 6 U ^ G a s s s s B B s s 1 < < t > ^ E 5 !.Q.T.~.{.}.a a a s s B B B @ @ @ @ }.{. X X X|./.R.L.k.k.k 5 8 : 9 t Q , > t ! ",
"W 9 9 8 P Y a a s s s a a a e f 2 3 5 5 5 n S W.W.Y.A A T.T.T.a s s B B a @ @ @ @ @ @ Q.^.Q.~.~.j.x.B.s.a.h.D j 5 8 p ' ! 9 > ! ",
", U E E Y > a s s s a a m.K.m.m.m.Z.R.R.Z.R.Z.S.M.l.z.l.h.k.a s s s B a a @ @ @ @ @ @ @ Z.Z.B.I.Z.P.g.U.f.N.N.v.D j z ' ^ L 6 9 ",
"9 8 8 7 ' 3 a s a a a @ R.`.`._.'.).G.G.F.G.F.H.D.S.V.A.Z.A.a s B B a a S.V.@ @ @ @ @ @ @ I.I.`.I.I.U.U.I.C.U.C.A.v.D x E 6 9 W ",
"( : 0 x j K.a a a @ @ @ F n.m.(.U.).H.H.D.F.F.F.F.G.G.S.G.a a s B a a S.G.G.G.(.@ @ @ @ @ I.I.R.b.Z Z c.i.I.U.H.F.A.l.n.x 7 ^ Y ",
"( ] z Y.Z.A.G.a a a @ @ $ $ C n.P.C.D.D.D.F.J.F.G.G.I.S.G.a a a a a V.s.d.d.d.M.i.M.@ @ @ @ `.L.k % X X C h.P.A.F.(.(.j.x ( Y G ",
"Q M ..z.H.H.I.a a a a @ @ X 6.b l b.g.D.s.s.p.p.s.l.a.a.z.a a a a a a.s.M.s.s.s.M.i.@ @ @ @ Z b v +  .& N % l I.U.D.P.n.z / ; G ",
"9 n C u.g.C.B.l a a a @ @ @   V % A i.P.f.s.p.M.M.M.a.a.M.a a a p.s.s.B.f.s.p.p.i.M.M.@ @ @ @ 2.X @ 3.f q 8.h L.I.I.B.n.3 9 L < ",
", 5 z k x.x.x.k s <.@ @ @ @ & V & C b.C.g.d.s.s.a.M.d.d.f.a a a s.d.V.V.g.d.f.f.V.f.s.V.@ @ @ f o d 5.5.& 8.b C P.P.m...5 7 p ~ ",
"( p [ % l b.A b 2.d 1.5.y.y.5.V  .% x.p.g.C.g.N.N.N.f.C.D.C.V.V.V.V.V.V.g.g.C.V.p.V.N.N.b.$ 8.w V t.r.t.5.f 6.k k.x.D j 0 L 0 >.",
", , q h l b.k.k 2.1.4.t.8.r.2.2.N % Z l.B.B.N.V.N.N.V.V.f.V.N.N.N.B.M.s.s.s.a.a.M.M.u.l.A $ 5.1.4.t.e.t.6.V 8.4 C S [ 0 I -.,.,.",
"< 9 8 0 D m A % d g + 2.2.8.w w q N C Z D Z c.j.c.j.j.j.j.j.c.c.D c.j.j.h.j.c.D c.c.c.D v 9.w w + w 5.5.e  .f | N c 0 ' o.o.,.K ",
"9 ! 9 8 3 c c f #  .O g g   .  .  r 4 4 M [ 4 2 2 c 3 2 4 4 c z n M 3 n 3 [ n 5 3 n ' | ] 8 . `   # 1.# q 3.  0.q 8 6 +.+.+.+.6 ",
"L U 6 9 L ( ( ] i - q ` g   4.g r - t U - U ^ , t , r 1 t r 9 9 , Q 9 9 P W E > 6 7 6 &.} t / ` g + 1.#  .. =.T ( Y L W W L 7 L ",
"L L L W 9 9 t ` / d O r q # u w - t t : 9 , 9 L : , , t 9 U 9 9 ) 6 9 E ! 7 T H 9 6 P 9 T ( ( r O w w w i Q ! W > L 7 : 7 L 9 9 ",
"L 9 7 ( ~ t 9 t , , T r T r 1 1 i T ( 9 H > W 7 6 7 T ^ T t t 9 7 > 7 L < > &.:.&.#.9 9 t , 9 t i r u 1 , 9 , > > * ; G L , 9 9 ",
"Y L 9 < / L t : , , : , ( , E t t 9 ! W W 6 +.7 6 W T 6 9 > ( 7 :.I 6 ; , =.L 0.&.W > > U , 9 ( / ( y t =.9 : > 9 L L L > , U , ",
"R ( L 9 9 : 9 9 < > 9 7 $.W 9 > 9 9 , 7 ~ > O.;.6 ~ 7 L 9 9 ( 6 :.+.~ H O.~ +.O.E 7 9 > 9 : t = ! $.E 6 } :.H H P X.^ 6 L ( ( 1 ",
"! ! , L W ^ Y 9 W $.) * ) W ; =.! t : 6 H 6 ~ =.9 7 W =.! U > 9 O.#.X.I 7 } *.> T : ~ Y Y L ; 1 : J P 9 =.;.O.; +.Y 9 6 ( W t 9 ",
": R 9 ! W ^ > 9 ; ^ } ^ ; ; W U 9 9 E *.:.:.P I 7 E :.~ 9 : t : +.P +.P H > L 9 ; *.W L 7 > < : y : 7 H : W O.6 +.; 9 9 > 9 t t ",
"9 9 9 9 9 9 6 9 9 9 9 ! ! : : 9 t Q E 9 J :.:.W 6 +.} T 9 : 9 9 W ~ P P > > L 1 , 1 < , > L , t ; H > X.G H P ~ ; +.0.} *.> 9 9 ",
"9 O.L 9 9 7 9 9 : 9 : : , 9 9 = = 9 T 9 9 ~ } ~ 6 L , 9 t t t 8 6 T ^ H 6 L L < T , : ; , < - , : > $.:.;.+.I H +.q.O.H 9 , ! 9 ",
"y $.9 E ! > U 9 ! U 9 = , = 9 ( , : 9 > > > L 6 9 > > t t , t 9 { P : ! t , < $.} ! 9 r , 1 : , L > H Y %.&.*.P +.) L H 7 W ! 6 ",
"9 L 8 t ( W 9 9 9 ( ( W U t t ! / , : : L 8 9 9 9 t t t , r , , ; ~ 9 _ T T U 9 ^ ! L 9 , t , ! > L ; H T O.+.~ $.P > ^ W ! 9 : ",
"7 : 9 9 9 ( < , , 9 t , 9 9 t T ( 9 , 9 9 : 9 t = r , , 1 1 : : 9 9 , Q ( , 9 9 6 U ! t r , : ! ^ ; < 6 7 9 = L 7 6 6 > 9 U 9 9 ",
"9 9 t U ; 9 U 9 : , 9 t 9 9 9 9 ! t 9 9 9 : = , , , - t / , : , 9 9 t t ( R 9 9 9 J t , U , , L ^ ! L > 9 L L 6 > 9 U 9 9 9 , , ",
"t U , < < , 9 U 9 ! ^ R , 9 E L 9 : 9 E ( y 9 , t r t ` ( t : t , 9 9 9 : ( 9 U 9 9 ; t 7 9 T t > L : &.$.6 7 9 9 , , t t , , t ",
"8 < < ; : t < < 6 L Y O.! 9 Y E 7 7 ) ! } 9 U 9 ( t t / / 9 1 : t r 9 : : 9 9 ( 6 L 7 #.; 9 ! ( 9 H L ~ $.7 9 : ! U 9 ( i 1 r - ",
": < 9 , , 9 9 , 7 +.#.:.o.G +.P H { #.&.> 7 9 Y E t 9 , ( i t , 9 9 , 9 , , 9 , H O.} 0.+.7 $.~ 7 o.o.o.> 6 7 E T 9 t t / 1 < : ",
"T T t , 1 < L ! > 7 W O.;.P > H #.#.&.;.O.7 > ! ( = T t 1 , - t t Q t U : , G ! Y L H O.:.W L ; #.o.;.:.@.> 7 ! ! t r - r 1 r t ",
"T R 9 , ; = 9 W Y L * 7 6 +.9 E K -.;.< : ; t ( t t : 9 t 6 6 L ! ! * < , 9 9 9 ; : ; : > , 7 U 9 6 L 7 L 7 9 9 r 1 t t U L : 9 ",
"! ( U , < U t 9 , 7 9 W W ^ W W +.X.L ; 9 , , i t 9 L > > H T { ! ! , , , 9 : 9 : ! L ; : , < 9 , ! , t 9 , ( 1 , 9 t , 9 9 9 T ",
"! W 9 > t t U 9 9 U 0.0.*.; ! , ; < : r , t - U ! W U o.7 > ,.:.W T t : , 9 9 ! , ( U U t , 1 , t t Q t 9 O.E E 9 , , 9 t t 9 W ",
"E , : t ! Q L t L $.$.i t t , t G U ( ( ( t , ; = ^ P ~ @.> > @.W L : : r < U / t Y Q T 1 ; < i 9 , =.9 , w.9 6 9 > = 8 , 9 9 ( ",
"L 6 L Y ( R 9 9 , 9 U > , L , 9 9 Y Y 9 9 ; 6 ; H , L } O.9 9 9 L Y : W T > ! ! 9 , i G , 1 , t 9 ~ } &.~ P P J 7 9 9 9 9 9 > 9 ",
"> > 9 9 9 9 , ; L Y T ~ H : L > P I 9 ; 9 L U ^ ^ : L 6 9 ; U 9 > I 6 %.^ 9 T , L 9 : L ; , ( $.:.{ K #.P K I { &.=.( 9 = t t ( ",
"> L W 9 t , 9 : 9 9 6 ^ U H 9 9 G ; > L , ) ( R T , W L ; W :.> H > 7 :.Y > > 9 L L > ) : L t 9 P ,.o.K I I { ,.~ 9 9 9 9 r / ( ",
"=.W ) 9 ; ( ( : < L 7 > I > 7 ;.,.;.} L , L r ( ( U 9 > ~ :.-.H #.o.I -.7 H : Y E 9 , O.U L ) > H 7 #.@.K > #.~ 6 9 9 , , t T t ",
"%.) : t ( ( 9 : > 0.P > > > #.X.-.X.~ L : : < : U ! 9 6 :.$.6 > O.-.O.P E 0.q.+.> > L $.P ) : 9 9 7 ! W ~ 6 9 9 9 t , - U 9 8 9 ",
": $., > 9 < : 9 9 :.:.W G @.P +.%.~ 9 6 ) ! 9 , L 6 L > +.W 6 L > I :.I L 7 < : H 7 > > ^ ^ : W Q t : 9 t 9 = t t ! t 9 9 9 : 9 ",
"> 9 L t , , ; = 9 } &.$.> > U +.9 9 9 > W > ; L X.&.O.> H L : 7 > > ^ E : 9 : > > ; E =.7 > =.! U 1 t t 9 t 9 r , ! ( t 6 9 > ~ ",
":.U L ^ U : 9 , ; > ( +.L L &.$.G > H 9 > : +.w.:.o.o.7 7 X.,.=.:.H : G t > ; 1 ; , G ~ $.E $.9 , 9 t r ( t 1 , , U ( ! 7 7 I :.",
", 7 , W ! > U 9 : 9 9 ^ ) 6 : 7 X.#.y > 9 ; ; < L : L 6 #.-.;.) 9 ; T : , , U ( 9 , ; , ( ( 9 G 9 ; , T ! 9 U , , , 9 W 7 7 &.,.",
"L ; < L ( ^ , 1 9 Y , ; , U 9 W %.:.:.O.> > t 9 ! W W 7 9 9 6 7 > 9 ; - 1 t , ( ! 9 : > 9 ; 9 : 6 6 6 ) ! > r t = t 9 9 6 P ,.K ",
"H T H L ; t 9 G > , , U 1 U 1 , , < : ; 9 ; 9 ! W 9 , L 9 , L 9 9 T 9 9 9 : < 9 W > H +.> U 1 , , , 9 U Q t t r 1 , t ! 9 E $.6 ",
"7 ! > Y ^ ) , , , 9 < t < , , , , 1 t 1 * : U 9 9 W : > t 9 t 9 9 ! R 9 t ( +.> H > O.-.> : - t L ! 9 ; 9 t ( U t 9 T ! 7 E 9 9 ",
"I > H O.$.6 9 < T Q ! 1 t , , < - , i , , < , ) < ( ) 9 > G , t E L ( ! 8 ; ) +.I H -.^ L > , ; 9 ( W U 9 9 +.6 7 ) W ! 7 9 9 9 ",
"> H > L 9 7 7 ! ( 9 9 ; 9 9 t < t t ; - , L ^ W , T U L > > ) , > 7 H 9 : L < :.X.I +.L L L 9 < 9 t E W 7 ~ w.{ 6 P > L 6 = > : ",
":.:.+.> > > 9 7 9 9 : , T ( ! G L , 1 t U , Y $.9 : ( ; L E ! L -.~ < 7 ) W > > X.I P U O.} ( , 9 , y W 7 I ;.;.7 > 7 9 : t 9 t ",
":.o.{ #.H O.$.:.0.} E ; : 9 W ~ t , < ( : > $.H > > > H X.^ W > -.w.L W , O.=.E L T P I W 9 G 8 , 9 9 6 H > K ;.> K #.w.$.! Q t ",
"I O.#.P H W ~ } < > : 7 > L t T ! t , ! ^ L , : 7 > > L } $.L > #.{ ~ P 9 9 :.*.E ! L Y 9 > 9 , - t 9 9 P ~ P @.I @.@.&.W > t t ",
"; I o.; ; W +.> > > 9 9 ; , , 9 , L > W } L : L O.+.&.$.9 9 > 7 O.P H > 9 9 9 9 ^ W 9 7 9 , 9 , , ! ! =.:.:.O.P K ~ ~ E < t = 1 ",
"> 7 L W W 9 : : $.$.! > < > t 9 : Y > > #.$.> +.:.-.P > L H ; H > W > L > * t 9 t ( U : 9 L 9 : t 9 t 9 > E ! Y > 6 9 9 9 = , t ",
"7 $.:.O.9 : L $.! ( , T : = 9 *.U ; > 7 H > 6 +.:.> ; +.O.W ~ > L $.L : , : 9 9 < L 1 : t < t , - > 9 9 t t 9 : , : t 9 9 9 Q t ",
"E } W 9 7 Y : 9 , U t T 9 ; , $.} 6 L W { :.&.I H > #.w.&.:.} 6 T %.9 = , t , , < , , , , t ( t 9 7 : : t : - t / = 1 , t t ! , ",
": < 9 9 9 U , U 9 t U : , , U $.$.H Y 0.w.&.X.+.> > O.Y &.O.L : L U 7 : t T , 9 , , 9 t 9 t T ! , 9 , 8 , , i ( _ 1 , 1 t t t , ",
"L 9 U U t 9 < , t U t 9 ; : 9 $.L L > ! } -.&.X.~ L L Y $.7 < , t , 9 , 9 ! t 9 9 : U U 9 9 9 ( 6 9 9 : : , ( Q Q t 1 , t , , , ",
"t < T T , 9 ( ( 9 t E 9 , , 9 9 > > , W , > H 7 ; > 9 L L : , : t t t < : ) U 9 9 9 ) , 9 9 9 9 Q 7 9 9 t 9 ! t , t 9 > t 8 : r ",
"t 9 > , : 9 L T 9 , t < < > ^ > L > 9 O.O.> 9 > H 7 > : 1 G : t 1 t 9 > : W W U 7 9 ! E : 9 ^ 7 U 9 9 } $.9 9 9 9 9 9 , t , 9 1 ",
", 9 : 9 < 9 9 ( U , 9 O.: > E ! , U U Y =.> 9 9 W 7 9 ! ` , ; < 1 i 1 , , > 7 ^ < > > =.; 9 ( E : t E ! +.6 9 6 ! 6 9 ! ( , : 9 "
};
