/* XPM */
static char *exitcarldown51680168880[] = {
/* columns rows colors chars-per-pixel */
"64 64 192 2 ",
"   c #020101",
".  c #010A00",
"X  c #160202",
"o  c #081103",
"O  c #10100E",
"+  c #131C17",
"@  c #270000",
"#  c #330100",
"$  c #281010",
"%  c #0E2901",
"&  c #132A03",
"*  c #152A0A",
"=  c #163403",
"-  c #1A3205",
";  c #1F3804",
":  c #1B320B",
">  c #17380D",
",  c #1F3113",
"<  c #372605",
"1  c #36260B",
"2  c #392E0C",
"3  c #233502",
"4  c #233C03",
"5  c #27310C",
"6  c #223A0B",
"7  c #353403",
"8  c #222413",
"9  c #22251F",
"0  c #382913",
"q  c #253114",
"w  c #223C13",
"e  c #2D3816",
"r  c #29391B",
"t  c #333410",
"y  c #341C27",
"u  c #312222",
"i  c #302F27",
"p  c #353733",
"a  c #450303",
"s  c #431508",
"d  c #521F04",
"f  c #561314",
"g  c #76151D",
"h  c #462807",
"j  c #40300D",
"k  c #4E2314",
"l  c #53201F",
"z  c #443414",
"x  c #663319",
"c  c #691823",
"v  c #4A3820",
"b  c #533925",
"n  c #4D2B32",
"m  c #4A3335",
"M  c #692521",
"N  c #7A2322",
"B  c #7E2A2E",
"V  c #673424",
"C  c #783121",
"Z  c #7A382C",
"A  c #18410E",
"S  c #254005",
"D  c #2C4206",
"F  c #2F4903",
"G  c #27400C",
"H  c #2E4A0C",
"J  c #35500E",
"K  c #2A4214",
"L  c #294A15",
"P  c #2D431C",
"I  c #284B1C",
"U  c #334712",
"Y  c #314A15",
"T  c #36431E",
"R  c #344C1F",
"E  c #375114",
"W  c #35511E",
"Q  c #304424",
"!  c #354B24",
"~  c #395224",
"^  c #3D552D",
"/  c #384432",
"(  c #444314",
")  c #534021",
"_  c #445D22",
"`  c #455E2B",
"'  c #55522B",
"]  c #444238",
"[  c #6E4128",
"{  c #436422",
"}  c #4A6321",
"|  c #4A6428",
" . c #4D692B",
".. c #536623",
"X. c #506A28",
"o. c #4B6331",
"O. c #436930",
"+. c #546B32",
"@. c #506638",
"#. c #536A3C",
"$. c #4D783A",
"%. c #557330",
"&. c #5A7331",
"*. c #5B7539",
"=. c #666E38",
"-. c #627835",
";. c #3D3A40",
":. c #454546",
">. c #574445",
",. c #595244",
"<. c #4D4F50",
"1. c #565555",
"2. c #6F4C48",
"3. c #7A4841",
"4. c #665554",
"5. c #5C7540",
"6. c #5E7B40",
"7. c #637B43",
"8. c #7C6857",
"9. c #5C5C61",
"0. c #695E63",
"q. c #6C6668",
"w. c #767070",
"e. c #881B19",
"r. c #9D1522",
"t. c #AB1720",
"y. c #A41E25",
"u. c #AA1A26",
"i. c #B31729",
"p. c #B31C28",
"a. c #B41F30",
"s. c #892724",
"d. c #8C2925",
"f. c #88252E",
"g. c #992223",
"h. c #9B2128",
"j. c #96282D",
"k. c #873024",
"l. c #9C332A",
"z. c #992532",
"x. c #883331",
"c. c #983436",
"v. c #A82224",
"b. c #AC2A2D",
"n. c #A52130",
"m. c #B52730",
"M. c #BB2435",
"N. c #A83337",
"B. c #A53F38",
"V. c #B53235",
"C. c #BE353B",
"Z. c #C52435",
"A. c #CA3336",
"S. c #C43539",
"D. c #CE3039",
"F. c #D1383D",
"G. c #914C37",
"H. c #993544",
"J. c #AB2D42",
"K. c #B93541",
"L. c #C73541",
"P. c #935249",
"I. c #9A5B5D",
"U. c #B5494B",
"Y. c #886858",
"T. c #9A645C",
"R. c #A7635B",
"E. c #AD7757",
"W. c #A55D61",
"Q. c #996667",
"!. c #95696B",
"~. c #8E7A74",
"^. c #A8696D",
"/. c #A9777C",
"(. c #C94547",
"). c #D74C55",
"_. c #E35C61",
"`. c #D4696E",
"'. c #E66568",
"]. c #7F8778",
"[. c #88857C",
"{. c #918579",
"}. c #9D7E83",
"|. c #8A8684",
" X c #958D89",
".X c #9B9A9B",
"XX c #B99E9A",
"oX c #B2A39A",
"OX c #AE9FA3",
"+X c #B2A3A5",
"@X c #D69E9F",
"#X c #DDB7B9",
/* pixels */
": - q 6 & , q 5 6 E { $.O.; } ( ; Y +.{ 4 4 4 Y W 6 : w Q r 1 1 < f h s h f s h 3 O.O.$.O.; ..F S { { { 3 3 4 W P K 6 > L > ; > ",
"w G 6 q > > w 5 5 4 4 O.%.E S = ~ Y G ! Y 6 > W K 5 z i , w 8 8.Y.Y.8.8.Y.Y.Y.8.~ w w @.#.( 7 4 } ..%.-.+.6 ; P P 5 : : K = = 6 ",
"; 6 L w A > 6 : 5 6 6 6 K ; ; K > , A K = > K - r 0 s 8.8.].].[.|.}.[.|.|.[.[.{.[.w.[.~.!.Y.2.P.d h S S 6 5 w K K q * 5 t q w w ",
"! U ~ w I A , > 6 & w : > , K > = K : : L ! > e 0 l W.W.{.oX X.X.X.X.X.X X|.[.[.|. X}.}././.`./.P.G.) ) v 2 5 : - > 5 e q w w K ",
"O.P 6 3 K W 6 A w : > > > % * * , * K : - W U 2 ~.Q.I.Q.XXoXoXoXOXOX+XOXOX+X+X+XOX+XOXXX#X#X#X@X/.U.H.f.f.f 2 5 - 6 w T : : K R ",
"Y ; 6 5 H L 6 U z b < 1 0 z 0 u < < 2 2 2 z V R.R.P.B x.I.I.T.Q.!.!.!.!.!.!.!.!.Q.!.Q.Q.}.Q.Q.^.f.l.n.i.y.s.C d 2 5 t ( ~ ; > R ",
"6 K Y Y L 4 ( x g N.N.N.c.G.c.c.c.B.U.U.B.U.B.C.v.g.r.g.d.f.z.z.f.x.x.f.c.j.j.c.c.l.z.z.V.N.n.K.N.J.p.L.p.b.b.l.C d h ( W 6 3 4 ",
"6 5 5 4 ( < G.B.V.S.L.L.U.`.`._.'.).S.S.A.S.A.D.Z.S.m.V.N.V.D.S.V.B.N.V.S.m.(.'.'.'.)._.).K.K.`.C.K.L.L.K.M.L.M.C.l.C h U 4 6 Y ",
"! : 7 h d G.V.K.F.V.j.B Z x.c.(.L.).A.D.Z.A.A.A.A.S.S.C.S.S.D.D.S.S.C.C.S.S.S.(.(.(.B.F.L.K.K.U.z.N N k.r.K.L.S.A.V.h.x.h 4 W L ",
"! ( h P.B.V.S.M.r.s.a X @ @ M x.J.M.Z.Z.Z.A.F.D.S.S.C.K.S.S.D.D.S.M.m.u.i.i.i.v.h.v.v.v.m.K.`.H.f # X X M d.J.C.A.(.(.d.h W L A ",
"! z [ h.D.D.K.z.c s k m u   2.l g z.a.Z.u.v.t.t.u.g.y.y.h.v.y.t.u.u.y.u.v.u.u.u.v.r.t.u.u.z.s.f k O ] $ b # g K.L.Z.J.x.h T = A ",
"w z M e.a.M.n.g # :.  ;.;.+   m # f.r.J.p.u.t.v.v.v.y.y.y.y.y.y.t.u.u.n.u.u.t.t.r.v.u.y.z.H.@ ]   O ,.u 8 4.a H.K.K.n.x.1 6 G > ",
"5 2 h f z.z.j.f i ;.+ <.;.<.$ m $ M j.M.a.i.u.u.y.v.i.i.p.t.t.u.u.p.m.m.a.p.p.p.m.p.p.m.b.M $ u X u 1.1.$ 4.l M J.J.c.[ 2 4 t E ",
"! t b # c z.B f >.y :.1.w.w.1.m ] # j.u.a.m.M.b.b.b.a.M.Z.M.m.m.m.m.m.m.a.a.M.m.t.m.b.b.z.@ 4.9 m q.0.q.1.u >.f f.j.C d 7 S 7 =.",
": : 8 s g z.f.f >.:.<.q.4.0.>.>.b # N r.n.n.b.m.b.b.m.m.p.m.b.b.b.b.v.u.u.u.y.y.v.v.e.g.B @ 1.:.<.q.9.q.2.m 4.1 M V ) 7 J %.-.-.",
"> ; 5 < Z c B # i p O >.>.4.9 9 8 b M N C N k.d.k.s.s.s.d.d.k.d.C d.d.s.d.d.k.C k.k.k.C k 8.9 9 O i 1.1.0 ] u ' b j 7 ( } } -.F ",
"; ~ 6 5 2 j j u + ] o p p   . ]   q 1 1 v b 2 < < 2 1 < 1 1 j h z z < z < b z j < z ( ' ( 5 . /   + :.+ 8 ,.  5.q 5 3  . . . .; ",
"G K 3 6 G ! ! ( r * 8 / p   <.p q * w w : w W : w : q , w q 6 6 6 T 6 6 F Y K 4 3 4 3 +.o.w Q / p O :.+ ] . #.r ! K G L Y K 4 6 ",
"G G G Y 6 6 w / Q i o q 8 + q 9 > w w - 6 6 6 6 - 6 : e 6 K 6 6 ! 4 w U W 4 K 4 D ; G 6 P ! ! q o 9 9 9 r T R Y ; 6 S = 4 G 6 6 ",
"G 6 4 ! Y w w w : : P , P q , , r P ! 6 4 ; U 4 3 6 K W K w w 6 4 ; 4 6 6 4 #.*.#.X.6 w w : 6 w r q q , : 6 : ; 4 % = G 6 : 6 6 ",
"L G 6 A T G w - - : - , ! : K K w 6 R Y Y 3  .4 4 Y K 6 6 - ~ 4 *.E 3 = 6 #.G 7.X.Y ; ; K : ; ! Q ! e w +.6 = ; G 6 G G 4 : w 6 ",
"R R 6 6 6 > ; 6 w 4 ; ; o.Y 6 - 6 6 : 4 Y 4 | &.3 E 4 6 4 6 ! 3 *.X.E S ` E X.| Y 4 6 ; G - w * ! ` U 3 ` 5.S 4 H ` ~ 3 G R ! q ",
"R R : G Y W L 6 L o.~ % ~ Y - #.R w - 3 S 3 E #.; 4 K 5.W U - 6 | X.{ J A _ @.; K - E L L G - 6 - D Y 6 #.&.| =  .L 6 4 R R w 6 ",
"- I 6 ! Y W ; 6 = W ` W = = Y K 6 6 U @.*.*.H J 4 U 5.U 6 - w - o.H  .H 4 ; G 6 - @.Y G ; - , - e = S S - J | 3  .= 4 : ; 6 w w ",
"; 6 4 : 6 6 3 6 3 6 6 W R - & 6 w T U 6 D *.*.U 3 | o.K 6 - 6 6 Y E H H 4 4 6 w : w : ; - K : w = S ; { ; S H E =  .*.o.@.; 6 : ",
"K ` G 6 6 4 6 6 : 6 - - 6 6 6 - & 6 K 6 6 E ` E 4 G : 6 w w w 5 4 K W S ; 6 > w r : - - - > * : ; ; o.*.*. .E 4  .6.| S - 6 W G ",
"e o.6 U ! ; A G R U : - : & 6 ! : - 6 3 6 ; 6 3 6 : ; w w : w 6 _ H ; R w - 5 o.| R 6 q : , - : G ; S L O.+.#.H  .W G S 3 Y R 3 ",
"6 G 5 w ! Y 6 6 6 W ! P w w w R Q : : - G 5 6 6 6 w w w : q : 6 = Y 6 ^ P P K : W ! A 6 : w > R 4 A = S K o.X.E o.H ; W Y ! 6 - ",
"4 : 6 6 6 ! : : : 6 w : 6 6 K P ! 6 : 6 5 - 6 w & q > - , , - & 6 : : R ! = w : 3 K ! w q : - R R - ; 4 3 6 = 6 4 3 3 - 6 K ; 6 ",
"6 6 6 A - 6 K > - : 6 w 6 6 6 6 R w 6 6 6 - & : : 5 * , ! ; - : 6 6 w w ! R 6 6 6 D w : K : 6 6 W R G - 6 6 6 4 ; 6 K 6 6 6 : : ",
"w K > w > : 6 K 6 R W L : 6 Y 6 6 - 6 U ! 6 6 6 w q , / ! w > w 5 6 6 6 ; ! 6 K 6 4 - 6 4 6 P w ; G = +. .3 6 6 6 : : w w : : w ",
": w > & - K = K 3 > Y o.W 3 Y Y 4 4 ~ W | w w 6 ! w w ! Q : , - w q 6 - - 6 6 ! - G 4 X.- 6 R ! 6 S K E o.4 6 3 W w w ! P , q * ",
"= K 6 : = 6 6 6 S o. .*.} A  .H S _ X.X.; 4 6 L U w 6 : Q r , 5 : 6 : : 6 6 6 : S o.` *.+.; o.E S } } } ; 3 3 U P 6 w w Q , > : ",
"P r w : , : w ! ; 4 Y | *.H ; S X.X.+.&. .; 4 ! ! & K w , : > w w R w K = * > R Y 6 S | *.Y G - X.} %.*...; ; W W w w * q , q w ",
"P I 6 6 - - 6 U Y G % S 4 | 6 U F %.&.A * - w ! w w - 6 K ; 4 6 R R % > : 6 6 6 - = = ; ; ; ; G 6 3 6 4 G 4 6 6 q q w w K 6 - 6 ",
"Q R K : 6 > w G ; ; 3 U Y W Y U  .{ G = 6 : : w w 6 G ; ; 4 K _ R R : : : 6 : 6 = R G - - : > K : R : w 6 - ! , : 6 , : 6 6 6 P ",
"R Y 6 - w w w 6 6 A 5.5.@.= R - = > = , > , : K R U U } 4 ; -.*.U R w - : 6 ; ! : ! K w w > w > w w P w 6 o.U K 6 : 6 6 w w 6 Y ",
"L 6 ; w R R w 6 G @.@.r w w > w K w ! ! Q K : = & W H E ..; ; ..U 6 - - w , K ! w K R P q - * P 5 : +.6 ; 7.6 ; 6 ; & 5 : 6 6 ! ",
"6 4 ; Y ! I 6 6 - > 6 G : G : 6 A L L 3 6 - 3 = 4 6 G ` o.6 6 6 6 L ; Y K A R R 6 : > K * > : , ; E ` #.E H H D 4 6 6 6 6 6 - 6 ",
"4 4 6 > 6 6 : - G Y P E S : G ; H J G = ; G K W ! - 6 ; 6 ; w 6 ; E 3 O.W ; P : 6 6 ; w - 6 ! o.5.} F X.H F J | +.@.W 6 & w w ! ",
"6 6 T 6 K : 6 = 6 ; ; W K S G ; 4 = ; G : W ! R P ; Y G ; L *.; S ; ; *.L ; ; 6 G 6 4 W - G w 6 H -.} F J J _ -.E 3 6 6 6 q ! ! ",
"@.U W 6 = ! R - 6 G 4 ; J ; ; %.*.*.` G > w q ! ! K 6 : E *.&.4 X.} J &.4 6 = Y Y 6 ; o.K G ~ ; S 4 X...F 4  .Y 4 6 6 : : w P w ",
"O.~ - w ! ! 6 - 4 5.H ; ; ; X.| %.{ E G ; - > = K R 6 3 *.o.4 4 | %.| H U 5.6. .; 4 G o.H ~ - G 6 4 W U E ; 6 6 6 w : * K 6 5 6 ",
"- @.6 - w > = 6 > *.5.Y S | H  .O.E 4 3 ~ R 6 : G 3 G ; | Y 3 6 ; J *.J 4 ; 6 - 6 ; ; ; W R = Y R w - 6 w 6 - 6 w ! q 6 6 6 - 6 ",
"; ; G w : : - - 6 o. .| 4 A K  .6 6 6 A Y 4 - 6 ` X.| 4 S 4 = S ; ; W U > 4 - ; ; = K +.; ; @.R w , w w 6 w : q : R ! w 4 6 ; Y ",
"5.K G W w - 6 : = ; ! o.G G +.o.6 4 4 ; = -  .7.*.} } S 4 } 7.#.*.S - > w - : w - - K E o.L o.6 : 5 w q ! w q : : w W R 4 ; J *.",
"; ; 6 Y P ; w 6 - 6 ; R ~ 3 - ; {  .P ; 3 - = : G = 6 4 X.&.&.~ ; > K - : : K R 6 : = : ! E 6 w : - 6 K ! 6 K : 5 : 6 Y 4 D +.-.",
"G - 6 G ! ! : 6 6 K : = 6 K 6 Y O.*.*.| ; ; w 6 R Y Y 4 6 6 3 ; ; 6 - : , w > Q R 6 - ; 6 > 6 - 3 4 4 ! R ; q w & w 6 6 ; H -.F ",
"S K S ; = w 6 > ; : : w 6 K , * : > = ; ; - 6 R U 6 6 G K : G ; 6 R 6 6 6 : > ; Y ; S X.6 A , : 6 6 6 w T w w q , : w R 6 U  .3 ",
"; ~ ; Y R ~ > : : 6 w w * : : : * w K , % > w 6 6 Y - - > ; w 6 : R I 6 w ! o.; S ; | %.3 - : w 6 R 6 - 6 w ! K w 6 P R ; Y 6 6 ",
"J ; S o.o.; 6 w P P R 6 w : : 6 * : r : : A ; ! : ! ~ 6 : K : w U G R R 6 - W  .J S %.W S 6 * - 6 ! U K 6 6  .3 4 ~ Y ! 4 6 6 6 ",
"A S ; G G 3 4 L ! 6 6 > 6 6 w > 6 w * > * 6 ~ Y : K K K ; 4 ~ : ; 4 S 6 - G G 5.{ J  .G G G 6 : 6 w U Y 4 E 7._ 3 H 3 G 3 & ; - ",
"&.*.X.; ; ; 6 4 6 6 - : Q R R ; , : , w K 6 L o.G = ! ; G U R 4 %.E 6 ; ~ Y ; : | J H K | ` ! 6 : 6 K Y 4 J &.&.4 ; 4 ; : w 6 w ",
"*.} _ | S | o.5.5.` U = = 6 L ~ w 6 = ! : 3 o.4 4 - ; S _ W Y ; %.7.G Y = o.@.U G K J J Y 6 A : : 6 6 3 S ; F &.; F X.7.o.R P w ",
"J {  .H S Y E ` > ; - ; ; G w P R w : R R G : = S ; ; 6 ` o.G 4 X._ E H 6 4 5.o.Y R G L G ; 6 : * w 6 5 H E H ..J ....+.U - w w ",
"; J } ; = Y  .; ; 3 6 6 > ; : 6 : G ; Y ` G = G |  .#. .6 ; ; A | H S ; 6 6 6 6 R Y 6 4 : : 6 > : ! W @.*.*.| H F E E Y 6 w & q ",
"; 4 G Y Y 6 - - o.o.R ; : - w 6 ; L 3 ; +. .;  .*.%.H ; D A ; ; ; L 4 6 6 % w 6 6 ! K - 6 > 6 : w 6 w 6 ; U ! U ; 3 6 6 6 & : w ",
"4 o.*.| G - G o.R R : Q = > 6 o.w = ; 4 S - 3  .*.; -  .| Y E 3 G o.G - : - 6 6 w A , - w 6 K : * - 6 6 w w 6 - : - w 6 6 6 P w ",
"U ` U 6 ; L - 6 : w w K 6 & : o.` ; G Y _ *.+.J A 4 X.6.+.*.{ 6 K O.6 & : w : : > 5 5 n n n n n n n n - w ; * w Q & q : w w T : ",
"- > > 6 G K : K 6 K K - : > K @.o.S L 5.7.+.{  .; ; | Y +.| 6 - G K 6 ; w P : 6 n n n n n n n n n n n n n : r Q ^ , > , w w w : ",
"K w K K K ; > : w K K 6 = ; 6 o.G G ; ! ` %.+.{ Y 6 G Y  .; 6 : w : 6 * E.E.E.E.n n n n n n n n n n n n n n ! P T w , : w : : 6 ",
"6 ; P K : 6 ! ! 6 w E.E.E.E.E.E.E.E.E.E.; ; S 4 ; ; 6 G 6 > : E.E.E.E.E.E.E.E.n n n n n n n n 3.3.3.n n n n n n 6 w : = w 5 - q ",
"A 6 : : > : K P 6 E.E.E.3.3.3.E.E.3.3.E.E.E.6 ; 4 4 ; E.E.E.E.E.E.E.2.E.E.n E.n n n n n n n 3.3.3.n n n n n n n n 6 6 5 w : 6 , ",
": 6 - 6 : 6 ; E.3.E.3.3.E.3.E.y n E.E.E.E.E.E.E.Y S E.E.E.E.3.3.3.E.P.[ n n n n n n n n 3.3.3.n n 3.3.3.3.n n n n n 6 R R : - 6 "
};
