/* XPM */
static char *ZXhpdGRvd25sMw__[] = {
/* columns rows colors chars-per-pixel */
"64 64 49 1 ",
"  c #090A14",
". c #080A15",
"X c #1E3616",
"o c #1F3616",
"O c #1E3716",
"+ c #1F3716",
"@ c #1E3617",
"# c #263A16",
"$ c #263B16",
"% c #273B16",
"& c #263A17",
"* c #273A17",
"= c #263B17",
"- c #241527",
"; c #341C26",
": c #341C27",
"> c #351C27",
", c #4D2A32",
"< c #4C2B32",
"1 c #4D2B32",
"2 c #4D2B33",
"3 c #2C4317",
"4 c #2D4317",
"5 c #344C1A",
"6 c #344D1A",
"7 c #354D1A",
"8 c #344C1B",
"9 c #354C1B",
"0 c #344D1B",
"q c #354D1B",
"w c #5F761E",
"e c #5E761F",
"r c #5F761F",
"t c #5E771F",
"y c #5F771F",
"u c #476820",
"i c #466920",
"p c #476920",
"a c #476821",
"s c #466921",
"d c #476921",
"f c #7A4840",
"g c #7A4841",
"h c #7B4841",
"j c #7A4941",
"k c #AD7756",
"l c #AD7657",
"z c #AC7757",
"x c #AD7757",
/* pixels */
"o$$$o$$$$0srs$s9$8ii$$$qq$$$8$X*X*$oo$$$$siti$s8$uuu&&&88$$$8$oo",
"$$$$oo$$$$$sr0**88888$$8q$%$XXX$$8$$oo$8q$$stq$$ssyyi&$88$oo$Oo$",
"$$8$$OOO@$$$$$==$$$$$$$$$$&oXX$$8qooo$$$%$**$$$8$$$$#&**$oo$$$$$",
"888$q$$$oo$$oo$$O$$$$8==$$$oX#8s8qo$$$$$%%$$8$$8$$qq8##*Oo$$$$$8",
"a8$$88$$*oooooooOO$$$qq$$$$$Osttq8oo$888$$$$r$00$88$$$XXO$$0$$$8",
"8$$$$8$088ooo$ooOo$$$88$$$8$$o$s8$$oo$$88$$st00$$8$$##X#$$$08$$0",
"$$888$00*ooo$$$$&$$$8$qq$$s$$O$$$$$oooo$$8$sts=$$$$$XXX#$$$00$$$",
"$$$$0$$$oo$$$8$$$$OOs$$*$rs$$$$$$$oooooo$$$qiq$$$$$$XXXX$q$$0$$0",
"8$$$$$$$o*$$80$$$$$Ost**st0%$$qqq$$oO$$8rtrs88$8ittoooo&$8$$$$08",
"8q$$$$OOo=$$88$$8888st88s0%%$$$qs8$$o$$$$8sss8ss8$&oo$$&$00$$00$",
"8qq$OOO$=8$$8$$$$$88qst8q$$$$$$$s8$$$$$$$$$8a8$$$ooo$$&&$$00$8$$",
"$$$$$$$$=ss$$$008$$88qt8qsss0=$$$s*$$q$$$$$$$*Xoooo$$$880$$0$$$$",
"$$=$888$$stq$800$$$$$88qisq$$$=8*=$$00$$$$**==o$$$Oo8aaew8$$$$$8",
"8$%$$$88$$tt$80$$$ooo$$$$$$$$$888$=80$$$ityy==o$88$oX#&aww$$$$8t",
"&o%&o$$$*=8i88$$$$$$oo$$$$$$$888$$$80$$$qitus$$$8t==$#$$9si$qttt",
"$$$X#*$8tt8qqitta9$$8$OOOOO*$$$$==$8$$q$q8uuqs$qtr$=$$us9$$qiit8",
"$8$$$$$$$ss8stta$ooo88ooo$oOO$$$$q$*$8q$$$8s5#&isi$$8iti&&$iiis$",
"$8$$$008*$8$ssq$oo$$o88$o$$$$$$$$q$$q88$$$$si#8u8$$=tti855$888$$",
"8$$0$$008$$$8$o$o$$$$=$$#&*$$$$$0$$88$$$$$$*888$$%$%&888&##$$$$$",
"$$$88$$Oo$$$$oo$$88$$=8=O$%08$8$**$$$$ttts$$$$##$%%%&&##X#O$$$$$",
"0$$$0$$$ooo$8$$$$$888$s$$0q$$$0$tqo$$sqts8$$$$$800$$s$XX$$0$$$$$",
"00$$$$$$$$ooi8$$$$$=8$st$8$$$=0$ttq$iqiiq$$$$O#Xqsq$st$$8sq$$88$",
"08$$008$8i8O88$i0%$$$$8t*$0r0$$$sssq%ii*$$8q8$$O$$q$its$s8$=88$=",
"O8$008$$$8i8O$88%%qstt88$qr0$$=$s8iq%*$*$iq$$$OO$$$$$qi$i$=$$==$",
"$$$$$$$$$$$q8OOo%88$8tt8$ss$$$$$q8q8$$**$$O#&&O$$$$u**88Oswsu=%%",
"$i$$$$$$OOOOOO$o&&$$$8s8$$$$$$$$$8q$$$==$$OOooOO&$uttu88sts=$=0%",
"3i$88$$&88#Xoo$qOO$$$$$$$$$$$$==8q$q$$$si0$Oooo&&&$qsysquu==$80%",
"$$$$88$$$888$$$q8OOO$$$$$$$$$$=o$q$q0$$$88$$ooo8&&$$$usqu$=q88$&",
"$$$$$8$$OO$$$*$q8$$$$O$$oooooooo$$$00%=$$88$$OO08##$$$$$$$$$$$$O",
"$$$$$$$oX$$$$$$$0$$$$OO$ooo$qooo$$$$00$$$$$$$$$$88&$$$$$$$$$$$OO",
"$$$$ooo8$888o$0*$$$88$$$$$$88$o$$$$$O8*q$$$$O$0$$$$is$$$$$$$$$O$",
"$$$oo$$$$$8u0$00$$88i$$$8$$q8ooo$$ooO$$q$$$so$08$$88s$$$8$$8qOOO",
"o$*oO$$$$sata$a8$uii$$$88$$$8$O$o$$oo$*$$iits$u8$sss$%%00$$$8$oo",
"$8$*OO$0$$8st8$$autti$$88$$$#OO$$0$$oo$88$$st8$$sstts$%00$OO$Oo$",
"88$ooo$08$oo$s$88tt&OO$8$$$$#$$$00ooo$$$ooOO$$$$$$$$$$==$&&$$$$$",
"08$o$$$$$$o88888ss&o#Oo$$$$$$$qi00o$ooooO8$O$o$$$$$$=$8*$&&$$$$8",
"00$$$$0$*$rra$8oo$ooo$o$8qqi$$tt88OOo$$8$88$$X&*$$8$$uq$&&O$$$$8",
"0$$$88$$*ss8$$$$$$88q$oo$q88i&$i8$oO$$$8$$88$oo$$$u$$w=*&$OO$$$8",
"$$$088$$$$$*$$$$$88$$Ooo$$$ii&**$8$$0$80$$$$OO$$$8atq88*&$$$O$$$",
"$$$$$$o$$888$$$$88$$$$888o$$X&*$$q$i8$0$$$$&&$qsta8a888utiq$O$$8",
"$$0$$O$O$$$88$$$$$$$$888q$q**8t$$$*tq$$$$*%q$$$$8tsq89ar8$$$O$88",
"i00$$80O$$$$8$$ttta$$$$8q=$$qtt$ssqt*$*qq$$i$qq$$qss8$s9$$$OO$8$",
"i0$$00$o$t8o$$astu8$$$o#0q==ti$*itsqqtws$$$iqq$$$*888$$$$$OO$$$$",
"$i$$$$oo$tt8$u8sa8$$88$X====sq$$$qtq%$$$%111111122<$$$$$$5$$$$$$",
"$$=$$ooo$aaa$$8a$$$$8&o8uud=&*&&$$qqxxzx11111111,<<,,$$o$q8$$$$8",
"r$00$oooo$xzxxzzxzzzoXityud=&srzllxxxxz2<1111111<<1,<<$oo$q8$$8t",
"$O%00$==$zzzhhhzxhhzzzo&$%$zzzzzlzjxx,z2<<11111,jjj2<<<<o$$8$$tw",
"$$%%00=zhzhhxjx:,zzzzzzzzzlzzzggjzjj,,22<<11111jhj,,<<<,,$$$$8w8",
"$0$$%%zxxfhhhhx:2llllzxxxxxxzzzzjhjj1111<<22<ghh,,jjhh<<<<$q*qs$",
"$0$0zzjjjjhhhh:,lzllzzxxxxzhgggzxj,21111<<2gggfhjjhj<<<<2220*q$$",
"q$1::1,jj---fh,xzzgzzzxxhhzzggggj,2211,1<<<ggg<<hhhh2<<<,,,0*$*=",
"$...:111jjjffjffgzzgzzhxzhhzgggfj,jj11,,<2<<ghh2,hj,<<<h,,,1ooo$",
"t: ;;:11g<<gfjhhgzzgggzzzhjjjjffjhh,<<<,gghhhgggjhfhhhh<,,<<*$$$",
"t:-;:::1<<ggffhhzzgggggzhhhhjjfhhhj,<<,,gghhgggghhfjhhhh1,<<<88$",
"8:-:;::,<2fgffhhgggggggzhhhhhhhhhhjh<<22<<hhg2<gff,,<ffhj<<<<$$$",
"o:-::::,<gf<fffhgggggggfghhhhhhhfj,hh<<<h2hhgg<<ffjf<<<<,,<<<<oO",
"$:---;::2<<<ggghhhhhhhggggggffhhff<<<<<<gggggggghhhhj2,,112221$$",
"$i::::::::<<<g22hhhhhhgfggggfhhhhhhh<<<<<ggggggfhhhjhj,<11::21,$",
"3s3::::::::::<2jjh,hffffggggffffhf<<,,<hffhhgh<hhfh,jjh,111::<:$",
"$$$333$$*33::::2<<<hhhffgggggfffjhh<,,<<h<<hgh<<hfhj,jj,1111:::o",
"$$33==$$$33o*o::<<jj2jgggggghhhfjjj,,22222ghggh<<hhf<<<,,::<:;:O",
"$$q%==88$$8oo$$$<<,<jg2ggggghhffh,jjh,22ggghgfhhfhff<<<<<::;::OO",
"$$$$o=*8$$$$o$8$$<22h,2gg<gghhjjh,11j<2<<gggggggggffh,,:<:;;;$##",
"$$o$o**8$*$ao$88$$<2<<gg<<gghj,jfj,,,<:2<<gg<<g<<f<fhj,::,;;8XXO"
};
