/* XPM */
static char *exitcarupl51680168885[] = {
/* columns rows colors chars-per-pixel */
"64 64 178 2 ",
"   c #020101",
".  c #010A00",
"X  c #100100",
"o  c #1B0204",
"O  c #081103",
"+  c #10100E",
"@  c #090A14",
"#  c #131C17",
"$  c #270000",
"%  c #330100",
"&  c #29100E",
"*  c #0E2901",
"=  c #132A03",
"-  c #152A0A",
";  c #163403",
":  c #1A3205",
">  c #1F3804",
",  c #1B320B",
"<  c #17380D",
"1  c #1F3113",
"2  c #332206",
"3  c #3A2805",
"4  c #36260B",
"5  c #392E0C",
"6  c #233502",
"7  c #233C03",
"8  c #27310C",
"9  c #223A0B",
"0  c #353403",
"q  c #222413",
"w  c #22251F",
"e  c #382913",
"r  c #253114",
"t  c #223C13",
"y  c #2E3915",
"u  c #29391B",
"i  c #333410",
"p  c #241527",
"a  c #341C27",
"s  c #2F2E28",
"d  c #312222",
"f  c #353733",
"g  c #491505",
"h  c #571316",
"j  c #76151C",
"k  c #462907",
"l  c #40300D",
"z  c #4A2319",
"x  c #53201F",
"c  c #443414",
"v  c #663319",
"b  c #691823",
"n  c #4A3820",
"m  c #533925",
"M  c #4D2B32",
"N  c #4A3335",
"B  c #692521",
"V  c #7A2322",
"C  c #7E2A2E",
"Z  c #673424",
"A  c #783121",
"S  c #7A382C",
"D  c #18410E",
"F  c #254005",
"G  c #2C4206",
"H  c #2F4903",
"J  c #27400C",
"K  c #2E4A0C",
"L  c #35500E",
"P  c #2A4214",
"I  c #294A15",
"U  c #2D431C",
"Y  c #284B1C",
"T  c #334712",
"R  c #314A15",
"E  c #36431E",
"W  c #344C1F",
"Q  c #375114",
"!  c #35511E",
"~  c #304424",
"^  c #364B24",
"/  c #395224",
"(  c #3D542D",
")  c #384432",
"_  c #444314",
"`  c #434520",
"'  c #534021",
"]  c #445D22",
"[  c #455E2B",
"{  c #55522A",
"}  c #444238",
"|  c #6E4128",
" . c #436422",
".. c #4A6321",
"X. c #4A6428",
"o. c #4D692B",
"O. c #536623",
"+. c #506A28",
"@. c #4B6331",
"#. c #436930",
"$. c #546B32",
"%. c #506638",
"&. c #536A3B",
"*. c #4D783A",
"=. c #557330",
"-. c #5A7331",
";. c #5B7539",
":. c #676E38",
">. c #627835",
",. c #3D3A40",
"<. c #454546",
"1. c #574445",
"2. c #595244",
"3. c #4D4F50",
"4. c #565555",
"5. c #694744",
"6. c #7A4841",
"7. c #665554",
"8. c #7A5751",
"9. c #5C7540",
"0. c #5E7B40",
"q. c #637B43",
"w. c #5D5C61",
"e. c #695E63",
"r. c #6C6668",
"t. c #767070",
"y. c #881B19",
"u. c #9D1522",
"i. c #AB1720",
"p. c #A41E25",
"a. c #AB1B26",
"s. c #B31729",
"d. c #B31C28",
"f. c #B41F30",
"g. c #8C2925",
"h. c #88252C",
"j. c #992223",
"k. c #9B2128",
"l. c #96282D",
"z. c #873024",
"x. c #9C332A",
"c. c #992532",
"v. c #883331",
"b. c #983436",
"n. c #A82224",
"m. c #AC2A2D",
"M. c #A52130",
"N. c #B52730",
"B. c #BB2435",
"V. c #A83337",
"C. c #A53F38",
"Z. c #B53235",
"A. c #BF363C",
"S. c #C52435",
"D. c #CC3237",
"F. c #C33539",
"G. c #D1383D",
"H. c #914C37",
"J. c #993544",
"K. c #AB2D42",
"L. c #B93541",
"P. c #C73541",
"I. c #935248",
"U. c #B64A4C",
"Y. c #996667",
"T. c #95696B",
"R. c #A66C70",
"E. c #C94547",
"W. c #D74C55",
"Q. c #E35D60",
"!. c #D4696F",
"~. c #E66568",
"^. c #88857C",
"/. c #8A8685",
"(. c #AE9FA3",
"). c #B2A3A5",
"_. c #D69E9F",
"`. c #DDB7B9",
/* pixels */
", : r 9 = t r 8 9 Q  .*.#.> .._ 7 R &.] M M M 6.6.M 6.6.6.6.M M M 6.M M a M a a M M M M M | 6.M M M M M M M M a a a a < I t : ; ",
"t J 9 r , < t 8 8 7 7 #.=.Q F : / R J W R M M M M M M 6.M 6.6.M M M M M a a a a a M M a M N 6.M M M M M M M M a a a < , t : : J ",
"> 9 I t D < , , 8 9 9 9 9 , > t < 1 P P ; < @ @ M M M 6.M M M M M a M a a a a a a a a a a M M M a M M a M M a a a a - 8 y r 1 J ",
"! T / t Y D < < 9 = t , , 9 U < , D ; , I W @ @ M p M M M M M a a a a a a a /.^./.a a a a a a a a M M a a M a a a 1 8 y r P < U ",
"#.U 9 6 P / J D P , < < < = - - r : < t ; ^ @ @ @ @ M M M a a p p p ).(.(.).).).(.).(._.`.`.`._.a a M M a a a a p 9 t E < ; t ^ ",
"R 9 9 8 K I 9 T c m 2 5 e c e d 2 4 5 5 5 @ @ @ @ @ @ p M M a a p T.T.T.T.T.T.T.T.T.Y.Y.R.Y.R.R.h.c.p p p a a a p p i _ W J > W ",
", P T R I > _ v j V.V.V.b.H.b.b.b.C.U.U.@ @ @ @ @ @ @ p p M a a a p v.h.b.l.l.b.b.x.c.c.V.V.M.L.V.K.N.P.p p a a a p k _ ! J 6 , ",
"9 8 8 7 _ 3 H.C.Z.F.P.P.U.!.!.Q.~.W.F.@ @ @ @ @ @ @ N.Z.p p M M a p V.Z.A.N.E.~.~.~.W.Q.W.L.L.!.L.L.P.P.@ p p p a p A k T 7 J R ",
"^ : 0 k g H.Z.P.G.Z.u.C S v.b.E.P.W.D.@ @ @ @ @ D.F.F.A.A.p p M a p p A.F.F.F.E.E.E.C.G.P.L.L.U.c.V V z.@ @ @ p p p j.v.k > ! I ",
"^ ` 3 I.C.Z.F.B.u.g.g $ o $ B v.K.B.@ @ @ @ G.D.F.F.A.A.F.F.p p p p p a.s.s.s.p.j.n.n.n.d.L.!.J.h % X X @ @ p p p E.E.g.k / I D ",
"E c S j.G.D.L.c.b 2 z M d X 5.x j c.@ @ @ @ i.i.a.j.p.p.k.p.p p p p p a.n.a.a.a.n.u.i.d.a.c.V x z X } @ @ p p p p S.K.v.k E ; D ",
"P c B y.N.B.M.b % <.  ,.,.#   N % @ @ @ @ a.i.n.p.n.p.p.p.p.p.p.p p p M.a.a.i.i.u.n.a.p.c.J.$ 1.X + @ @ @ p p p A.L.M.v.4 9 J < ",
", 5 k h c.c.l.h d ,.# 3.,.3.p N & @ @ @ f.s.a.a.p.n.s.s.d.i.i.a.p p p f.f.d.d.d.N.d.d.N.m.B & d + d @ @ @ @ x B K.K.b.| 5 7 i Q ",
"^ i ' % j c.C h 1.w <.4.t.t.4.N } % l.a.f.B.f.m.m.m.d.B.S.B.N.N.N.N.N.N.f.f.B.N.i.N.m.m.c.$ 7.w N r.e.r.4.d 5.h h.x.A g 0 F 0 :.",
", , q g j c.h.h 1.<.3.r.7.e.1.1.m % V j.M.M.m.N.m.m.N.N.d.N.m.m.m.m.n.a.a.a.p.p.n.n.y.j.C $ 4.<.3.r.w.r.5.N 7.4 B Z ' 0 Q =.>.>.",
"< , 8 3 A b v.% s f @ 1.1.7.w w q m B V A V z.g.z.g.g.g.g.g.z.g.A z.g.g.g.g.z.A z.z.z.A k 8.w w @ s 4.4.e } d { m l 0 _ ....>.H ",
"9 W 9 9 4 l l d # } O f f   . }   t 4 4 n ' 4 2 2 l 4 2 4 4 l k c n 3 c 3 ' c 5 3 c _ { _ 8 . )   # <.# q 2.  9.1 8 7 @.o.+.o.7 ",
"J P 6 9 9 / ^ ` u q q ) f   3.f r - t P , t / , t , r 1 t r 9 9 , E 9 9 K R R 6 6 7 6 $.@.t ~ ) f @ <.# } . &.U ^ P J T R 9 7 9 ",
"J J J T 9 y t ) ~ s O r q # r w , 1 t : 9 , 9 J : 9 9 t 9 t 9 7 ^ > J R ! 6 P F F 6 J 9 U ^ ^ 1 O w w q u E W T 6 J F ; 7 9 9 9 ",
"J J 7 ^ R t 9 t , , u 1 U 1 1 1 u U ^ 9 F > R > 6 9 P ^ P t t y 7 > 7 9 9 > &.;.$.o.9 t t , 9 t u r r t , 9 , > > * ; D 9 9 9 9 ",
"I J < J E J < > : , : 9 ^ , R t t 9 ^ R R 6 o.7 7 R P 7 9 > / 7 ;.L 6 ; < %.J ;.$.R > > P , 9 ^ ~ ^ y t $.9 ; > J J J J 9 , P 9 ",
"Y ^ J 9 , > J 9 t > < 7 @.R 9 > 9 9 , > Q > X.-.> Q 7 9 7 9 ^ 6 ;.+.Q F X.Q $.X.T 7 J > J : r ; ^ [ T 6 [ 9.F > K [ ! > J W ^ 1 ",
"W W , J R ! I 9 I X./ * / T ; &.E t > 7 F 6 Q $.6 7 P 9.^ P : 9 X.+. .L F [ %.9 P : Q I I 9 ; t : G T 9 $.-.X.: o.I J 7 W E t 9 ",
": Y , / R ! > , : ! [ / ; ; R I 9 9 T %.;.;.K L 7 T 9.L 9 : t : o.K o.K 7 > J , > %.I J > : t ; y : F F : Q X.6 o.; 6 , > 9 t t ",
"9 9 7 9 9 9 6 9 7 9 9 ! ^ : : , t E P J G ;.;.T 7 @.@.P 9 : 9 9 R Q K K 7 7 9 t , t , > : J , 1 ; F >  .D > K Q : o.9.[ %.> 9 , ",
"9 X.9 t 9 6 9 9 : 9 : : , 9 , : = 9 P 9 9 Q [ L 7 9 9 9 t t t 8 7 P ! F > 9 9 t u , > : , < , , : > @.;.-.o.Q F o.0.X.F 6 9 ^ J ",
"y @.9 T / > P 9 ^ P 9 : < = 9 ^ , : J > 9 6 9 6 9 6 : t t , t 9 ] K : ! t : , %.@.Y 9 1 , r = , J > F I #.$.&.K o.W J F 7 R W 7 ",
"9 J 8 t ^ R < 9 9 W ^ U P J 1 W ~ , : : J 8 9 9 9 t t t , r , 9 : R 9 ( U U t , ! ^ t 9 , t , W > J > F P X.o.Q #.K > ! R W 9 : ",
"7 6 9 9 9 ^ < , , 9 r , , J P U ^ 9 , 8 9 : 9 t = r , , 1 1 = : 9 9 , U ^ , 9 , 6 P ^ t r , : W ! ; < 6 6 7 : J 7 6 6 > 9 t 9 9 ",
"9 9 t D : 9 J < : , 9 t 9 9 9 9 W t 9 9 9 : = , , , - r ^ < : , 9 9 t t ^ ^ 9 J 9 G J < P , 9 9 / W J > 9 J 9 > , 9 P 9 9 9 , , ",
"t 1 < J < , 9 P 9 W ! I , , R J 9 , 9 T ^ 9 9 9 t r t ) ^ t : t , 9 9 9 > ^ 9 P 9 > : 9 > 9 U t : J ; $.@.6 7 9 9 > , t t , , t ",
", t < : , t ; P 6 9 I o.! 7 R R 7 7 ! ! @.9 t 9 ^ t t ~ ~ , r : t r 9 : : 9 9 ^ > J 7 +.: 9 W ^ J F J Q @.7 9 : W P 9 ~ U r r - ",
"; P 9 , ; 9 9 9 7 o.o.;...D +.K F  .+.+.> F J I R t 9 , ^ u r , 9 9 , , 9 9 9 , F @.] 9.o.9 @.Q F ......> 6 7 T U 9 1 J ^ 1 < , ",
"u u t 9 1 , t W > F R X.-.K > F +.+.$.-.X.7 ; / ^ = P t 1 , , t t E t P ; - t W I J F X.;.R J : o...-.;.O.> 6 ^ W t r - 1 1 1 t ",
"U Y 9 , : : 9 R R 9 * F 6 o.J P H =.=.< : : 1 ^ t t > 9 D 6 7 9 W W * < , 9 , 9 : ; ; ; > > > J , 6 J > J 7 9 9 r 1 t t P 9 : 9 ",
"W W P , 9 < t 9 > 9 > T R ! R I o. .J ; 9 , , u t 9 J , 6 F P ] W W , , , 9 : 9 : W J ; : , t 9 , W , t 9 : ^ 1 , 9 t , 9 9 J U ",
"^ T , : t P t 9 9 P 9.9.@.; W , : < : 1 , 1 ; P ^ T P ..F > >.;.T E t : , < 9 W 9 ^ t P 1 - < , t t R t 9 @.T T 9 , 9 9 t t 9 R ",
"I 9 ; P W E P < J @.@.u P t , t t P ^ ^ ^ t , ; : W K L O.> > O.T 9 : ; 1 J t ^ t t E E t , , U 9 , &.9 : q.9 6 9 : = 9 , 9 9 ^ ",
"J 7 J I ^ Y 9 9 : 9 J < , J , 9 < I I > 9 ; 6 : 7 9 J [ X.9 J 9 J I > R P 9 ^ W 9 9 t J < t , r 7 Q [ &.Q K K G 6 9 9 9 9 9 > 9 ",
"> > 9 9 9 9 < : J R U Q F : J > K L J ; J 9 P ! ^ ; 9 7 9 : t 9 > L 6 #.! 9 Y , J < : t ; , ^ %.9...H +.K H L ] $.&.^ 9 = t t ^ ",
"> J E 9 t , 9 ; 9 7 > ! P 7 J > F ; 7 9 , ^ W Y E , R J ; R ;.> F ; F ;.I > > 9 J J > ! : J t < K >...H L L ] >.Q 6 9 9 9 r ~ ~ ",
"%.R / 9 ; ^ ! : < J 7 > L > > -.;.;.[ J 9 P r ^ ^ t 9 > Q ;.=.F o...L -.7 F : R R 9 > @.J J / > F F +.O.H > +.R 7 9 9 , , t E t ",
"#./ : t ^ ^ 9 : > 9.K > > > o.[ =. .Q 9 : : < : P W 9 7 ;.@.6 > X.=.X.K T 9.0.o.> > J @.K / : J 9 7 W T Q > 9 9 9 t , - P 9 8 9 ",
": @.9 : 9 < : 9 J ;.;.R F o.K +.#.Q 7 7 / ! 9 , J 6 J > o.R 6 J > L ;.L F 7 < : F > > > ! ! : R E t : 9 t 9 : t t ^ t 9 9 9 : J ",
"> 9 J t , , : : J [ o.@.> F P o.9 9 < J R > ; J  .$.X.6 F 7 ; F > > ! T : 9 : 6 > ; U $.9 7 %.W P 1 P t 9 t , r , W ^ t 7 9 6 Q ",
";.P J ! t : 9 , ; > ^ @.J D $.@.J > G , > : o.q.;.....7 7 ..q.$.;.F > D t ; < 1 : : D Q @.R @.9 , , t 1 ^ t r , , t ! W > > L ;.",
"> > , R U 9 t 9 : 9 9 ! / 6 : >  .o.P > 6 : ; < J ; J 7 +.-.-.^ 9 > Y = , , P W 9 , ; : W ! 9 t 9 : , I ^ 9 P 8 , , 9 R 7 F $.>.",
"J : 9 J ^ ! , t 9 P , ; , P J R #.=.;.o.> > 1 9 W R R 6 9 9 6 9 > , : , r t , ~ ^ 9 : > 9 : 9 : 6 6 7 ^ W > r t = t 9 9 > K >.H ",
"F P F J ; t 9 D , , , D t U 1 , , < = : 9 : 9 W T 9 9 J 9 , J 7 9 U 9 9 9 , < > R > F $.9 < r < 9 9 , P U t t r r , t W 9 T X.9 ",
"> ! 7 I ! / , , , 9 t t , - , , , t P t = = P 9 9 R : : P 9 t < 9 W Y 9 t ^ @.> F 6 X.=.7 : , t 9 W 9 : 9 y ^ P t 9 U W 7 T 9 9 ",
"L > 7 @.@.> 9 t E U W 1 t , , , < , u , , J : ^ , W / J > D , t T J W W 9 : / X.L F =.! 7 9 - ; 9 ^ R P 9 9 @.7 > / R ! 7 9 9 9 ",
"7 F > J F 7 , R W J 9 ; 9 9 t < < 1 - , , < / I , U U D > > / , > 7 F 9 : J 9 9. .L o.F J J 9 , 9 t T R 7 Q q.] 6 K > J 6 = : : ",
";.;.=.6 > > J > 9 9 > < U ^ W D J , 1 t P , I @.J ; W : J T W J =.Q 9 > / R 7 >  .L K I o.[ ^ , 9 , y T 7 L -.-.F > 7 9 6 t 9 t ",
";...! o.F o.@.;.9.[ R ; ; 9 T ! t , ; ^ : > @.F 6 : > F  .! R > =.q.J R ; @.%.R J P K L I J J < , 9 9 6 F > H -.> H +.9.@.~ E t ",
"L  .o.K F T Q [ : : : 6 > J t U W t , W ! J , : F > 7 J [ @.9 > $. .Q K 9 7 ;.%.T ^ J I J : 9 , - t 9 9 K L K O.L O.O.$.R : J t ",
": L ..> : I o.> , 7 9 9 ; > , 9 , J > R [ J : J X.o.%.@.9 9 7 7 X.K F ; 9 9 9 9 ^ T 9 7 , , 9 , , ! ^ %.;.;.X.K H Q Q R 9 t = 1 ",
"> 7 9 R R 9 ; : @.@.W < , : D 9 : I > ; +.@.> o.;.=.K > J F > 7 > T 7 9 7 * 1 J t ^ P : 9 t 9 : t 9 t 9 6 P ! R > 6 9 9 9 = 8 1 ",
"7 @.;.X.9 : J @.W ^ , U : : 9 %.P ; > F F 7 6 o.;.> : o.X.I Q > J X.J : , : 9 < D J 1 ; t 9 t , - : 9 9 t t 9 ; , : t 9 9 9 U t ",
"T [ R 9 7 I : 9 , P t U 9 = , @.[ 6 J R ] ;.&.L F ; $.0.&.;. .6 U #.9 = , < , , , , , < , r ! t 9 6 : : t : - t ~ - 1 < P t W , ",
"> < 9 9 J P , P 9 J P : , , P %.@.F I 9.q.$. .+.> 6 X.R +.X.9 : J P , > P E , 9 , , 9 P , P U W : 9 9 , < 8 u ^ / 1 , 1 t t t , ",
"t 9 P P D 9 9 , t t t 9 ; : J @.9 P > W  .=.+. .Q J J R o.> < , J - 9 , 9 ! t 9 J : J 1 9 9 9 W 7 9 9 : : , ^ E E t r , t , 9 , ",
"9 9 U P 8 9 ~ ^ 9 t R 9 , > , 9 7 > : R 9 9 F F ; > J J J < 9 : 1 t P , : / P 9 J , / < 9 9 9 9 E 7 9 9 t 9 W t , 9 9 ; t , : r ",
"t 9 < , : 9 D U J 8 t < > D ! > J : 9 X.[ 9 9 6 F 7 : : < 1 , t 1 P 9 ; : T I R 6 J W U : 9 W 7 I , 9 [ @.9 9 > 9 9 9 9 t , 9 r ",
", 9 : 9 , t 9 ^ J , 9 X.: 6 T ^ 9 t P R %.> < 9 R F , ! ) , , < < u r , > < 7 W D > > &., 6 W T > y T ^ @.7 9 6 ^ 6 9 W ^ , : , "
};
