/* XPM */
static char *exitcarupl41680168885[] = {
/* columns rows colors chars-per-pixel */
"64 64 169 2 ",
"   c #020101",
".  c #010A00",
"X  c #100100",
"o  c #1F0000",
"O  c #081103",
"+  c #10100F",
"@  c #090A14",
"#  c #151F12",
"$  c #10191C",
"%  c #270100",
"&  c #330100",
"*  c #2C1008",
"=  c #22101B",
"-  c #0E2901",
";  c #132A03",
":  c #152A0A",
">  c #163403",
",  c #1A3205",
"<  c #1F3804",
"1  c #1B320B",
"2  c #17380D",
"3  c #1F3113",
"4  c #332206",
"5  c #3A2805",
"6  c #37270B",
"7  c #392F0C",
"8  c #233502",
"9  c #233C03",
"0  c #27310C",
"q  c #223A0B",
"w  c #353403",
"e  c #222413",
"r  c #22251F",
"t  c #392913",
"y  c #253114",
"u  c #2B3617",
"i  c #223C13",
"p  c #29391B",
"a  c #333411",
"s  c #241527",
"d  c #341C27",
"f  c #27282C",
"g  c #312222",
"h  c #373423",
"j  c #353733",
"k  c #450303",
"l  c #431508",
"z  c #521F04",
"x  c #561310",
"c  c #57121B",
"v  c #751514",
"b  c #76151E",
"n  c #442407",
"m  c #492E06",
"M  c #55240D",
"N  c #40300D",
"B  c #44221F",
"V  c #53201F",
"C  c #443414",
"Z  c #663319",
"A  c #691823",
"S  c #4A3821",
"D  c #533925",
"F  c #4D2B32",
"G  c #4B3235",
"H  c #692521",
"J  c #7A2322",
"K  c #7E2A2E",
"L  c #783121",
"P  c #7A382C",
"I  c #18410E",
"U  c #254005",
"Y  c #2C4206",
"T  c #2F4903",
"R  c #27400C",
"E  c #2E4A0C",
"W  c #35500E",
"Q  c #2A4214",
"!  c #294A15",
"~  c #2D431C",
"^  c #284B1C",
"/  c #334712",
"(  c #314A15",
")  c #36431E",
"_  c #344C1F",
"`  c #375114",
"'  c #35511E",
"]  c #304424",
"[  c #364B24",
"{  c #395224",
"}  c #3D542D",
"|  c #384432",
" . c #444314",
".. c #534021",
"X. c #445D22",
"o. c #455E2B",
"O. c #55522A",
"+. c #444238",
"@. c #6E4128",
"#. c #436422",
"$. c #4A6321",
"%. c #4A6428",
"&. c #4D692B",
"*. c #536623",
"=. c #506A28",
"-. c #4B6331",
";. c #436930",
":. c #546B32",
">. c #506638",
",. c #536A3B",
"<. c #557330",
"1. c #5A7331",
"2. c #5B7439",
"3. c #676E38",
"4. c #627835",
"5. c #3D3A40",
"6. c #454546",
"7. c #574445",
"8. c #595244",
"9. c #4D4F50",
"0. c #565555",
"q. c #7A4841",
"w. c #724F4B",
"e. c #665554",
"r. c #5C7540",
"t. c #5E7B40",
"y. c #637B43",
"u. c #695E62",
"i. c #6C6668",
"p. c #777070",
"a. c #881B19",
"s. c #9D1522",
"d. c #AB1720",
"f. c #A41E25",
"g. c #AB1B27",
"h. c #B31C28",
"j. c #B41F30",
"k. c #8C2925",
"l. c #892629",
"z. c #992223",
"x. c #96282D",
"c. c #873024",
"v. c #992532",
"b. c #883331",
"n. c #983436",
"m. c #A82224",
"M. c #AC2B2C",
"N. c #A52130",
"B. c #B52730",
"V. c #BB2435",
"C. c #A83337",
"Z. c #A53F38",
"A. c #B53235",
"S. c #BF373C",
"D. c #C52435",
"F. c #C53538",
"G. c #CE3039",
"H. c #D1383C",
"J. c #914C37",
"K. c #AB2D42",
"L. c #B93541",
"P. c #C73541",
"I. c #935249",
"U. c #B54C4E",
"Y. c #C94547",
"T. c #D74C55",
"R. c #E35C60",
"E. c #D4696E",
"W. c #E66568",
/* pixels */
"1 d s s s d d d F F F F q.q.q.q.q.q.q.q.q.q.q.q.q.q.q.q.q.q.q.q.q.q.F F F F F F q.q.q.q.q.q.q.q.q.q.q.q.q.F F F F F F F F F 1 1 ",
"i R d d d d d d d d F F F q.F F q.q.q.q.q.q.q.q.q.q.q.q.q.q.q.q.q.q.q.q.F F F F F q.q.q.q.q.q.q.q.q.q.q.q.q.F F F F d d F F F 2 ",
"> q Q d d d d d d d d d d F F q.q.q.q.q.q.q.q.q.q.q.q.q.q.q.q.q.q.q.F F F F F q.q.q.q.q.q.q.F q.q.q.q.F q.q.q.F F F F d d F g i ",
"' ( { i ^ I 2 2 q ; i d d d d F F q.F q.q.q.q.q.q.q.q.q.q.q.q.q.q.q.q.F F F F F q.F F q.q.q.F F q.q.q.q.F q.q.F F F F F d d d ( ",
";.~ q 8 Q ' q I i 1 2 2 2 ; d d F F F q.F q.q.q.q.q.q.q.q.q.q.q.q.q.q.F F F F F F F q.q.q.q.q.F F q.q.q.F F F F F d d F d d d [ ",
"( q q 0 E ! q / C ..4 6 t C t d F F F F q.q.F q.q.q.q.q.q.q.q.q.q.F q.q.q.F F F q.q.q.q.q.q.q.q.q.q.q.q.F F F F F d d d d d 8 [ ",
"q Q / ( ! <  .Z v C.C.C.n.J.n.n.n.F F F q.F F q.q.F q.q.q.q.q.q.q.F F F q.F F F F q.q.q.q.q.q.q.q.q.q.q.q.F d d F d d d d R 8 q ",
"q 0 0 9  .5 J.Z.A.F.P.P.U.E.E.R.W.T.F F F F q.q.F F q.q.q.q.F q.q.q.F F F F d F F F q.q.F F q.F F q.F q.q.q.F d d F d d / 8 q ( ",
"[ 1 w m z J.A.S.H.A.x.K P b.n.Y.P.T.G.G.F F q.q.F q.q.q.q.q.F F F q.F F d d d d F F F q.F F q.q.F F F F q.q.q.d d d d b.m 9 [ ! ",
"[  .5 I.Z.A.S.V.s.k.k % o % H b.K.V.D.D.D.F F F F F q.F G I.@.F F F F d d d d d F F F F F F q.q.F F F F F F F d d d d k.m ' ! I ",
") S P z.F.G.L.v.A l B G g X w.V b v.j.D.g.g.F F F F q.F F F F F d d d d d d d d d F F d F F F q.F F F F F F F d d d K.b.N ) > I ",
"q C H a.j.V.N.b & 6.  5.5.$   G & K s.K.h.g.@ @ F F F F F F d d d d d d d g.d.d.s.d d d d F F G d F F d F F d d d L.N.b.6 q R 2 ",
"1 7 n x x.x.x.c g 5.$ 9.5.9.= G * H v.V.j.@ @ @ @ s F F F d d d g.h.B.j.j.h.h.h.B.h.d d d d d d d F F d d F d d d s n.@.7 8 a ` ",
"[ a ..& b v.K c 7.f 6.0.p.p.0.G +.& v.g.@ @ @ @ @ @ s s F d d s B.B.B.B.j.j.V.B.d.B.M.M.v.% e.g d d F F d d d d d d s z w 9 w 3.",
"1 1 e l b v.l.c 7.6.9.i.e.u.7.7.D & J @ @ @ @ @ @ M.B.s F F d s M.M.m.g.g.g.f.f.m.m.a.z.K % 0.6.0.@ @ s s d d d d d s s W 1.4.4.",
"2 q 0 5 L A K & h j + 7.7.e.r r e D H @ @ @ @ @ @ k.l.s F F d s L c.k.k.k.k.c.L c.c.c.L M w.r r + @ @ @ @ +.s s s d g s $.$.4.T ",
"< [ q 0 7 N N g # +.O j j   . G . y @ @ @ @ @ @ 4 N 6 4 s F s s C S 5 C 5 ..C 7 n C  .O. .0 . |   @ @ @ @ 8.  r.s s d s s &.&.< ",
"R Q 8 q R [ [  .p # e | j   9.j y @ @ @ @ @ @ 1 i 1 y 3 s s s s s _ q q W ( Q < 9 9 8 :.-.i ] | j @ @ @ @ . ,.p [ s s s s q 9 R ",
"R R R ( R q p | ] h O y e # p r 1 @ @ @ @ @ 2 R , q 1 i 1 s s s s 8 q / _ 9 ~ U 9 9 q q ~ [ [ y @ @ @ @ p ) _ ( < s s s s q 1 q ",
"R q 9 [ ( i q i 1 1 p 3 ~ 3 3 3 @ @ @ @ R < ( < 8 q Q [ Q i s s s < 9 q q < :.2.:.&.q i i 1 q @ @ @ @ @ 1 q 1 < < - s s s q q q ",
"! I < i ) R i < , 1 , q [ 1 Q Q @ @ @ @ ( 8 &.9 8 ( Q 9 q , s s s W 8 , , ,.R r.:.( < < Q 1 2 @ @ @ @ i >.q > < R q R R 9 1 i q ",
"_ _ R q 2 > 2 q I < q < -.( q , q q q < ` < %.1.9 ` 9 R 8 q { 8 2.&.` U -.` =.%./ < q < q , i , [ o./ 8 o.2.9 9 E o.{ < R _ [ y ",
"_ _ 1 R ( ' ! q ( -.{ - { ( > ,.~ i < 9 9 < ` :.8 U ( ,.[ / , q %.=.#.W 9 o.>.9 Q > ` ! / q > i , Y / q :.1.%.> &.! R < _ ) i q ",
", ^ q [ ( _ 9 q > ' o.' , > ( Q q q / >.2.2.E ` 9 ( r.( q , i , &.E &.E 9 q q q , >.( R < , i > u , U U , ` %.9 &.> 9 < < q i i ",
"q q q q q q 8 q 9 q q ' _ , , q i ) / q Y 4.2./ 9 -.%.Q q , q q ( ` E / < < q i 1 i 1 9 , 2 1 i > R 9 #.I U E ` > &.r.o.>.9 q 1 ",
"q %.q q q 8 q q 1 q , , 1 q 1 , ; q / q q ( o.` q q q q i i i q 9 Q ' U < R q i ~ 1 , > 1 q 1 1 , < -.2.1.=.( U &.t.%.U 8 2 [ R ",
"a -.q / [ < Q R ' Q 1 , q ; q [ 1 , i , 9 < q 9 q < , i i 1 i q X.E , ' i , 1 -.-.~ q y 1 y > 1 R < U ! ;.:.,.E &.' R U 9 ( _ 9 ",
"R R 0 i [ ( 2 q q ' [ ~ i i i _ ] 1 , , R 0 q q q i u i 1 3 0 2 > ( q } ~ ) I q ' [ i q 1 i : _ 9 I , U Q %.=.` -.E < ' ( _ q , ",
"9 1 i q q [ q 1 0 1 y 1 2 q Q ~ [ q 1 q q 1 q i ; y 1 2 3 3 , , q q 1 ~ [ 2 q 1 8 / _ i y 1 > _ _ , R 8 9 < ; q 9 8 8 1 q i q q ",
"q q R 2 , q 2 i , 1 q i q q q q _ i q q q , ; 1 1 1 : 3 [ < , 1 q q i i [ [ q q q R I 1 Q 1 q q ' _ R , q R R 9 < q Q q q q 1 1 ",
"i 2 1 Q 2 1 i R q _ ' ! 1 q ( q q 1 q / [ q q 0 i y y | [ 3 > i 0 q q q , [ q / i 8 < q < q ~ i , R > :.-.8 < q q , 1 i i 1 1 u ",
"1 i 2 , , I , Q 9 q ! &.' 9 ( ( 9 8 ' ' o.q Q q [ i i [ ] 1 3 , i y q , , q q [ 8 q 9 =.> q [ _ R U R ` -.9 q < [ Q q [ Q 3 y : ",
"1 2 q 1 > q q < 9 &.&.2.%.U =./ U X.=.:.< U R ! Q i q 1 [ u y 1 1 q 1 1 1 1 q 1 U &.o.r.&.< -.` U $.$.$.< 8 8 ( ~ q i i [ 3 2 1 ",
"~ ~ i 1 3 i 2 _ < 9 ( %.2.E > U =.=.:.1.%.< < ' [ ; ~ i 3 1 2 i 3 _ Q Q > 2 Q _ ( R 9 %.2.( R > &.$.1.2.*.< 9 _ ' i 3 : 3 3 y i ",
"~ ^ q 1 , : q ( ( R - 9 < &.q / T <.1.2 > > 3 [ i i , q 2 8 8 R ' _ - 2 1 q 1 q , > > > < 1 9 R q 8 R < R 9 q q y y i R Q q , q ",
"_ [ R 1 q i i R < < 9 / ! ' ! / &.#.R > q 1 1 p i q R < 9 R Q X._ _ 1 1 1 1 , 9 , _ R > , 1 i q 1 _ 1 i q , [ 3 1 q 3 1 q q q ~ ",
"_ ( 1 < i i Q q q i r.r.>.> _ 1 > 2 , y 1 3 1 R _ / Q $.9 9 4.2./ ( i , 1 q q [ 1 [ Q Q i : 3 1 i i ( u q -./ Q q 1 q q i i q ( ",
"( q , i { ) i q Q -.-.~ i i 2 i I Q [ [ [ i 1 2 , ' E ` *.< < *.( q , , i 2 i [ i Q ~ ~ i 2 1 Q q 1 ,.q < y.q < q , ; 0 1 q q [ ",
"R 8 R ! [ ^ q q , 2 i < 1 R 1 i I ! ! 8 q , 8 , 9 q R o.-.q q q q ! , ( ( 2 _ _ i 1 Q 2 : i 2 3 < ( o.:.` E / Y 8 q q q q q < q ",
"9 < q q q q 1 , R ( ~ ` 9 < R < E ` R > q R R _ ' , q 9 q , i q 8 ` 8 ;.{ q ~ < R < , Q , 1 [ >.r.$.T =.E T W #.:.,.[ q ; i i [ ",
"< R ~ q i 1 q , q 9 8 ' Q U R < 9 > 9 R 1 [ ' _ ~ q ( 2 9 ( 2.9 9 < U 2.! 9 < q R q < { , R i q E 4.$.T W W X.4.` 9 q q q y [ [ ",
">./ ' q > [ _ < 2 R 9 < W < 8 1.2.2.o.R q 2 y [ [ R q < ` 2.1.9 &.$.W 1.9 q > / ( q < -.R R { < 9 9 =.*.T 9 =.( 9 q 1 1 1 i ~ i ",
";.{ 1 Q [ [ q , < r.E 8 < < =.#.<.#.` q , < 2 > Q _ q 8 r.o.9 9 %.<.%.E / r.t.&.< < R -.E { , R q 9 ' ( ` < q q q i 1 : Q q 0 q ",
", -.< 1 3 1 > q q 2.r.! I *.E &.;.` < 9 { [ 1 q R 8 R < &.( 8 q < W 2.W 9 < q , U < < < ' _ > ( ( i , q i q ; i i ) i q q q , R ",
"< q R i < 1 > 2 R ;.&.-.9 9 ~ &.q q 2 R ( 9 > q o.=.&.< 9 U > 9 < < ' / , q , < < 2 Q >.< < >.[ p y i i q i q y 1 _ [ i 9 q 9 ` ",
"r.Q R ' Q > 1 1 1 < [ %.R I :.-.< < Y 1 > , :.y.2.$.$.9 U $.y.:.2.U , I i < 2 i , > Q ` -.( -.q 1 q i y [ i y 1 1 i _ _ 9 1 W 2.",
"< < 1 ( ~ q i q 1 < 2 [ { 8 > < #.&.Q < 8 , > 1 R > R < =.1.1.{ < < ~ 1 1 1 R [ q 1 > , ' [ q R q , < Q _ q / q 1 1 q ( 9 U =.4.",
"q > q R _ ' 1 i q R 0 > q R R ( ;.2.2.&.8 9 2 q _ ( ( 9 q q 8 < < 2 > : 3 i 1 ] _ q , < q > q > 8 q 9 [ ] , y i ; i q q < / 4.T ",
"Y Q U R > i q 2 < 1 2 2 i p 3 1 1 2 > , q , q _ ( q q q q 1 R < q ( q q q , I < ( < U =.q I 3 1 1 q q i ) i i y 3 1 i _ q / -.9 ",
"< ' 9 ! [ { 1 1 1 q i q 1 1 2 1 1 3 R 3 - > i q q ( , 8 Q 2 i q q _ ^ q i [ -.< 9 < &.1.9 , 1 2 q _ q < q i [ Q i q ~ _ 9 / q q ",
"W < 9 -.-.9 q 2 ) ~ ~ 3 i 1 1 q : 1 u 2 1 i < [ 1 _ { q < i 1 i / q [ ' q > ' -.W U <.' q q 1 1 q { ( i q q &.8 9 { ( _ 9 q q q ",
"9 U 9 q U 9 q ( _ R R 2 q q i 2 i i : , 1 I { ! 1 ~ Q Q < 9 { 1 8 q U q , q R r.#.W &.U R R < 1 q i / ( 9 ` y.X.8 E < R 8 ; , , ",
"2.2.<.< < 9 R < q q > 1 ~ ' _ q 3 1 3 i i q ! -.R > [ > R ( _ q <.` q 9 { ( < < %.W E Q %.o.[ 1 0 1 u ( 9 W 1.1.9 9 9 9 , i q i ",
"2.$.' =.U %.-.r.y.o./ > , 1 ( _ i q 2 _ 1 9 -.U 9 , 9 U #._ ( < <.y.R ( , -.>.( R Q W W ! R Q 1 1 q q 8 U 9 T 1.< T =.r.-._ ) i ",
"W %.%.E U ( ` o., , > 9 , R Q ~ _ i 0 ' ' q 1 , 9 < < q o.%.q 9 &.X.` E q 8 2.>.( _ R ! R , q : : i q q E ` E *.W *.*.:.( < i i ",
"> W $.< > ( %.< < < q q 2 , 1 q 1 q 9 ( o.R > q %.&.,.&.q q q 9 %.E U < q q q q ' ( 1 9 q , q 2 1 [ ' >.2.2.%.E T ` ` ( 1 i ; y ",
"< 8 q ( ( q > , -.-.[ < 1 , i q < ! < < =.-.< &.2.<.E < R U < 9 < ( 9 q 9 - i q < [ i , q Q < 2 i q i q 9 Q [ ( < 8 q q q ; 1 i ",
"< &.2.%.q , R -._ [ 1 ~ > 2 q -.i > < 9 U < 8 &.2.< > &.%.( ( < R -.R , 1 , 2 q i i y > i < Q 1 : , q q i i q 1 1 > i q q q ~ i ",
"( o.( q 9 ! , q 1 R i ~ q , 1 -.o.< q ( X.2.:.W U > :.t.,.2.#.q Q ;.q ; 1 i 0 1 q 1 1 2 1 3 { 3 q 9 > , i , : i ] : 3 < i i ) 1 ",
"> Q q q R Q 1 ~ q Q Q > 1 1 i >.-.Y ! r.y.:.#.&.< 9 %.( =.$.q , R Q q , i ~ q 2 1 1 q i 1 Q ~ _ , q q 1 1 0 p ] } y : 3 i i i 1 ",
"2 q Q Q Q < 2 1 i Q i q > , q -.q R q _ o.<.:.#.` R R ( &.< q 1 Q : q 1 q ' i q q , Q Q q q q [ 8 q q , , 1 [ ( ) i 3 1 i 0 1 1 ",
"q q ~ Q 1 q [ [ q Q Q q 1 < q q < < < ( < < U R > < q R U 2 1 , 3 i Q 1 , ' i q q q { 1 q q q q ) 9 q q i q _ i 1 i q < i q , y ",
"Q q 1 1 > 1 Q ~ q 1 Q 2 > < ' < q < 2 &.o.< < < U < < , q 3 : i 2 i q > > ( ( / < I [ ( < q _ 8 / q q o.-.q q 8 q q q 1 i 1 q 3 ",
"1 q , q 1 q q [ R 1 q -.> < / [ q Q Q ( >.< q q ( 9 q _ | 2 1 2 i p y 1 , q 9 [ q < < ,., , ' ( , i / [ -.9 i 8 _ 8 q _ [ 1 < 1 "
};
