/* XPM */
static char *exitcarldown21680168879[] = {
/* columns rows colors chars-per-pixel */
"64 64 192 2 ",
"   c #020101",
".  c #010A00",
"X  c #160203",
"o  c #081103",
"O  c #10100E",
"+  c #090A14",
"@  c #131C17",
"#  c #270000",
"$  c #330100",
"%  c #281010",
"&  c #0E2901",
"*  c #132A03",
"=  c #152A0A",
"-  c #163403",
";  c #1A3205",
":  c #1F3804",
">  c #1B330B",
",  c #17380D",
"<  c #1F3113",
"1  c #372505",
"2  c #36260B",
"3  c #392E0C",
"4  c #233502",
"5  c #233C04",
"6  c #27310C",
"7  c #223A0B",
"8  c #353403",
"9  c #222413",
"0  c #22251F",
"q  c #382913",
"w  c #253114",
"e  c #223C13",
"r  c #2D3816",
"t  c #29391B",
"y  c #333410",
"u  c #241527",
"i  c #341C27",
"p  c #312222",
"a  c #302F27",
"s  c #353733",
"d  c #450303",
"f  c #431508",
"g  c #521F04",
"h  c #561314",
"j  c #76151C",
"k  c #462807",
"l  c #40300D",
"z  c #4E2314",
"x  c #53201F",
"c  c #443414",
"v  c #663319",
"b  c #691823",
"n  c #4A3820",
"m  c #533925",
"M  c #4D2B32",
"N  c #4A3335",
"B  c #692521",
"V  c #7A2322",
"C  c #7E2A2E",
"Z  c #673424",
"A  c #783121",
"S  c #7A382C",
"D  c #18410E",
"F  c #254005",
"G  c #2E4605",
"H  c #27400C",
"J  c #2D4A0B",
"K  c #35500E",
"L  c #2A4214",
"P  c #294A15",
"I  c #2D431C",
"U  c #284B1C",
"Y  c #334712",
"T  c #314A15",
"R  c #36431E",
"E  c #344C1F",
"W  c #375114",
"Q  c #35511E",
"!  c #304424",
"~  c #354B24",
"^  c #3A5226",
"/  c #384432",
"(  c #444314",
")  c #434520",
"_  c #534021",
"`  c #445D21",
"'  c #455E2B",
"]  c #55532A",
"[  c #444238",
"{  c #6E4128",
"}  c #436422",
"|  c #4A6321",
" . c #4A6428",
".. c #4D692B",
"X. c #516826",
"o. c #4B6331",
"O. c #436930",
"+. c #546B32",
"@. c #506638",
"#. c #536A3C",
"$. c #4D783A",
"%. c #587331",
"&. c #5B7539",
"*. c #676E38",
"=. c #627835",
"-. c #3D3A40",
";. c #454546",
":. c #574445",
">. c #595244",
",. c #4D4F50",
"<. c #565555",
"1. c #6F4C48",
"2. c #7A4841",
"3. c #665554",
"4. c #5C7540",
"5. c #5F7B40",
"6. c #637B43",
"7. c #7C6857",
"8. c #5D5C61",
"9. c #695E63",
"0. c #6C6668",
"q. c #767070",
"w. c #881B19",
"e. c #9D1522",
"r. c #AB1720",
"t. c #A41E25",
"y. c #AA1A26",
"u. c #B31729",
"i. c #B31C28",
"p. c #B41F30",
"a. c #892724",
"s. c #8C2925",
"d. c #88252E",
"f. c #992223",
"g. c #9B2128",
"h. c #96282D",
"j. c #873024",
"k. c #9C332A",
"l. c #992532",
"z. c #883331",
"x. c #983436",
"c. c #A82224",
"v. c #AC2A2D",
"b. c #A52130",
"n. c #B52730",
"m. c #BB2435",
"M. c #A83337",
"N. c #A53F38",
"B. c #B53235",
"V. c #BE353B",
"C. c #C52435",
"Z. c #CA3336",
"A. c #C43539",
"S. c #CE3039",
"D. c #D1383D",
"F. c #914C37",
"G. c #993544",
"H. c #AB2D42",
"J. c #B93541",
"K. c #C73541",
"L. c #935249",
"P. c #9A5B5D",
"I. c #B5494B",
"U. c #886858",
"Y. c #9A645C",
"T. c #A7635B",
"R. c #AD7757",
"E. c #A55D61",
"W. c #996667",
"Q. c #95696B",
"!. c #8E7A74",
"~. c #A4666A",
"^. c #A9777C",
"/. c #B77577",
"(. c #C94547",
"). c #D74C55",
"_. c #E35D60",
"`. c #D4696E",
"'. c #E66568",
"]. c #7F8778",
"[. c #88857C",
"{. c #918579",
"}. c #9D7E83",
"|. c #8A8684",
" X c #958D89",
".X c #9B9A9B",
"XX c #B99E9A",
"oX c #B2A39A",
"OX c #AE9FA3",
"+X c #B2A3A5",
"@X c #D69E9F",
"#X c #DDB7B9",
/* pixels */
"> ; w 7 * e w 6 7 W } $.O.5 | ( 5 T +.| 5 5 5 T Q 7 > e ! t 2 2 f z k f k h f k 5 O.O.$.O.: X.G F | } } 4 5 : E I L 7 , P , > - ",
"e H 7 w > , e 6 6 5 5 O.%.T F - ^ T H ~ T 7 ; Q I 6 c a w e 9 7.U.U.7.7.U.U.U.7.~ e e o.+.( 8 5 | X.%.=.+.5 : I I 6 > > e ; - H ",
"; 7 P e D , > > 6 7 7 7 e : : L , , e e - , e ; t q f 7.7.].].].|.}.[.[.|.[.[.{.[.q.[.{.Q.U.1.L.g k F F 7 6 e e e < = 6 r w e e ",
"Q Y ^ e U D , , 7 * e > > < L , = L : > P ~ D r q h E.~.{.oX X.X.X.X.X.X X|.|.[.|. X}.}.^.^.`.^.L.F._ _ m 3 6 > : 7 6 r w e e L ",
"O.I 7 4 L Q H D e > , , , * = = < = D e - Q Y 3 !.W.P.~.oXoXoXoXOXOXOXOXOX+X+X+XOX+XOXXX#X#X#X@X/.I.G.d.d.h 3 6 ; 7 e R 7 ; e ~ ",
"T 7 7 6 J P 7 Y c _ 1 2 q c q p 1 2 3 3 3 c Z T.T.L.C d.P.P.Y.W.Q.Q.Q.Q.W.W.Q.Q.W.Q.W.W.^.Q.~.~.d.h.b.t.t.a.A g 3 6 y ( E 7 : E ",
"7 L Y T P : ( v j M.M.M.x.F.x.x.x.N.I.I.N.I.N.V.c.f.g.f.a.d.l.l.d.z.z.d.x.h.h.x.x.k.l.l.M.M.b.J.M.H.n.K.i.v.v.k.A g k ( Q H 5 7 ",
"7 6 6 5 ( 1 F.N.B.V.K.K.I.`.`._.'.).A.A.Z.Z.Z.S.C.A.n.B.M.B.S.A.B.N.M.B.V.n.(.'.'.'.)._.).J.J.`.V.J.K.K.J.m.K.m.B.k.A k Y 5 7 Y ",
"~ ; 8 k g F.B.J.D.B.h.C S z.x.(.K.).S.S.C.Z.Z.Z.Z.A.A.J.V.A.S.S.A.A.V.V.A.A.A.(.(.(.N.D.K.J.J.I.l.V V j.g.J.K.S.Z.B.f.z.k 5 ^ P ",
"~ ) k L.N.B.A.m.e.a.d X # # B z.H.m.C.C.C.Z.D.Z.A.A.V.V.A.A.S.S.A.m.n.c.u.u.u.c.f.c.c.t.n.J.`.G.h $ X X B s.H.J.Z.(.(.s.k Q P D ",
"R n S s.S.S.J.l.b f z N i   1.x j l.p.C.y.y.r.r.y.f.t.t.g.c.t.r.y.y.b.y.c.y.y.y.t.t.r.y.y.l.a.h q X [ % m $ j J.K.C.H.z.k R - D ",
"7 c B w.n.m.b.j $ ;.  -.-.@   N $ C e.H.i.y.r.c.c.c.t.t.t.t.t.c.r.y.r.b.y.i.r.r.e.c.y.t.l.G.# [ X + >.p 9 3.$ G.J.J.b.z.2 H H , ",
"> 3 k h l.l.h.h p -.@ ,.-.,.u M % B l.m.p.u.y.r.e.c.u.u.u.r.r.y.y.i.n.p.p.i.i.i.n.i.i.n.v.B % p O i <.<.u 3.x B H.M.x.S 3 5 y W ",
"~ y m $ j l.C h :.a ;.<.q.q.<.N [ $ h.y.p.n.m.v.v.v.n.m.C.m.n.n.n.n.n.n.p.p.m.n.r.n.v.v.h.# 3.0 N 0.9.0.<.p { h d.h.A k 8 F 8 *.",
"> > 9 f j l.d.x :.;.,.0.3.3.:.:.m $ V e.b.b.v.n.v.v.n.n.i.n.v.v.v.v.c.y.y.y.t.t.c.c.w.f.C # <.;.,.0.8.0.1.M 3.2 B Z _ 8 W %.=.=.",
", 5 6 1 A b C $ a s O :.:.3.0 0 9 m B V A V j.s.j.s.s.s.s.s.j.s.A j.s.s.s.s.j.A s.j.j.A z 7.0 0 O 0 <.<.q [ p ] m 3 8 ( | | =.G ",
"7 E 7 6 3 l l p = [ o s s   . [   w 2 2 n n 2 2 1 l 2 1 2 2 l k c c 1 c 1 _ c l 1 c ( ] ( 6 . /   @ ;.@ 9 >.  4.9 6 5 o.......5 ",
"H L 4 7 H ~ ~ ( t @ 9 / s   ,.s w = < L , L Q > e > < < e w 7 7 : R 7 7 K T L : 4 5 4 +.o.< ! / s O ;.@ [ . #.I E P H T T H 5 7 ",
"H H H T 7 7 e / ! a o w 9 @ w 0 > < L ; : 7 : H ; 7 > e 7 L 7 7 ^ : H Y T 5 I F G : H 7 I ~ ~ w o 0 0 0 t R E T 4 H 5 ; 5 7 7 7 ",
"H 7 5 ~ W e e e > > I < I w < < t I ~ 7 H : T : 4 7 L E r e e 7 7 : 7 H > 5 +.&.+...7 e e > 7 e t w w e > 7 > : : & - D 7 7 7 7 ",
"P , : e R H e ; - > > 7 ~ > L e e 7 ~ T T 4 ..5 5 T L 5 7 ; ^ 5 &.K 4 ; > @.H &.+.Y : : L > 7 ~ ! ~ r e @.7 - : H 7 H H 5 > L 7 ",
"E E H 7 7 - H > < 4 : : o.T 7 ; 7 7 : 4 W :  .%.: W 5 H 4 7 ~ 4 &...W F O.W +. .Y : D : D ; 7 ; ~ ' Y 4 ' &.F 5 J ' Q : 7 ~ ~ < ",
"E E > H P ^ P 7 P ..^ & ^ T - 4.I e ; 5 5 5 W #.: 5 L 4.E L : 7  .X.} K F ' @.: Y ; W P T H - e ; G Y 7 +.%. .- ..T 7 5 E I e 7 ",
": U 7 Q T ~ : : - Q ' Q - - T L 7 7 Y @.&.&.J K 4 Y 4.W 7 : e ;  .K ..J 5 5 7 7 ; @.T H : ; < - r ; F F ; W  .4 ..- 4 7 5 7 e e ",
": 7 : 7 7 7 4 7 5 7 7 Q E - ; 7 e ~ Y 7 G &.&.Y 5 o.o.L 7 > 7 7 T W J J : : 7 e > e > : > e > e - F 5 } D 5 J W - ..4.' @.: L > ",
"L ' H 7 7 5 7 7 ; 7 ; ; > 7 > ; * 7 L 7 7 W ' W 4 7 7 7 e e e 6 : L ^ F : H 7 e L > ; ; > : > = ; : o.&.%...K H ..5. .F 4 : ~ 7 ",
"r o.7 Y ~ : D H E L 7 * > * 7 ~ > ; 7 4 5 : H 5 7 ; ; e e > e 7 ` J ; ~ e ; > o.' ~ 7 < > w ; > H 5 F P O.+.@.J ..Q H F 5 T E : ",
"7 H 6 e ~ Y 7 7 7 E ~ R L e e ~ ! > > ; 7 6 7 7 7 e e e > < > : - W 7 ^ I ! D 7 Q U L 7 > , > ~ : : > F L  ...W o.J : Q T E 7 ; ",
"5 ; 7 7 7 ~ , > > 7 e > 7 7 e I ~ 7 > 7 7 ; 7 e = w > ; 9 < ; - 7 7 7 I ~ > 7 7 4 L E e w > ; E ~ - H : 7 4 - H : 4 4 : 7 L > 7 ",
"7 7 e e ; 7 L , ; > 7 e 7 6 : 7 E e 7 7 7 ; * > > 7 = e ~ : ; > 7 7 e e ~ E 7 7 7 G e > L > 7 7 Q Q H ; 7 7 7 5 : 7 L e 7 7 > > ",
"e L = D , = 7 L 7 E Q P > : T L 7 ; 7 Y ~ 7 7 > e w e / ~ e * e > 7 7 7 ; ~ 7 L 7 5 - 7 : 7 I e ; H - +. .4 5 7 7 ; > e e > > e ",
"> e , - ; L - L 5 , T ..Q : T T 5 5 ^ Q ' 7 r 7 ! e e ! ! > w > e w 7 ; ; 7 7 ~ ; H 5 +.; 7 E ~ H F H W o.5 H ; ~ L 7 ~ L < w = ",
"; < 7 > , 7 7 7 F  ...&.| D ..J F ` ..+.7 5 H P Y e 7 > ~ t w > > 7 > 7 > 7 7 > F o.' &...: o.W F | | | : 4 4 Y I 7 e e ! < = : ",
"U L e > < 7 , ~ : F T  .%.J 5 F X...+.%.| : 5 ~ ~ * L e < > = e e R e L - = , E P H F  .&.T 7 - ..| %.&.X.: 5 E E e < = w < < e ",
"I U 7 > ; * 7 T T H & 7 5 ..e L G %.%.H ; ; , ~ e e ; 7 D 4 : H E R & , > 7 7 7 ; ; - = : : : L 7 4 H 5 H : 7 7 e w e e L e ; 7 ",
"E ~ L > 7 e , H : : 4 Y Y Q T T ..} 7 - 7 > > t e 7 H : 7 F L | E Q > > > 7 ; 7 ; M M M M M M M M M M e 7 : ~ w 7 > e > 7 : 7 E ",
"E T : > e r L 7 e L R.R.R.R.R.R.R.{.R.R.> , > L ~ Y L | 5 4 =.&.T R e * R.R.R.R.M M M M M M M M M M M M M o.Y L 7 > 7 7 e e 7 T ",
"Y : - L Q I L : H R.R.R.2.2.2.R.R.{ F.R.R.R.> ; * Q K W X.5 : R.R.R.R.R.R.R.R.M M M M M M M M M M M M M M M > : 7 ; * 7 > 7 7 ~ ",
"7 5 , T ~ U , R.2.R.2.2.R.2.R.i M R.R.R.R.R.R.R.5 7 H R.R.R.R.R.R.R.2.R.R.M R.M M M M M M M M 2.2.2.M M M M M M 4 7 7 7 7 7 ; 7 ",
"7 5 7 7 7 7 R.R.R.2.2.2.2.2.R.i M R.R.R.R.R.R.R.R.R.R.R.R.R.2.2.2.R.2.2.M M M M M M M M M M 2.2.2.M M M M M M M M @.^ 7 * e e ~ ",
": H R : R.R.2.2.2.2.2.2.2.2.i M R.R.R.R.R.R.R.R.R.R.R.R.R.R.R.R.2.2.2.2.M M M M M M M M 2.2.2.N M 2.2.2.2.M M M M M 7 7 7 9 ~ ~ ",
"@.Y M i i M M 2.2.u u u 2.2.M R.R.R.2.R.R.R.R.R.R.R.R.2.2.2.2.R.R.2.M M M M M M M M 2.2.2.2.{ L.2.2.2.M M M M M M M M 7 > e I e ",
"O.+ + + i M M M 2.2.2.2.2.2.2.2.2.R.R.2.R.R.R.R.2.2.R.R.2.2.2.2.2.M M M M M M M M M 2.2.2.M M 2.2.2.2.M M M M M M M M = e 7 6 7 ",
"; i + i i i M M 2.M M 2.2.2.2.2.2.R.R.2.2.2.2.R.R.2.2.R.2.2.2.2.2.M 2.2.M M M M M M M 2.2.2.M M 2.2.M M M M 2.M M M M M 7 7 ; H ",
": i u i i i i M M M 2.2.2.2.2.2.R.R.2.2.2.2.R.R.R.2.2.2.2.2.2.2.2.2.2.M M M M 2.2.2.2.2.2.2.2.2.2.2.2.2.2.2.M M M M M M 5 7 4 W ",
"4.i u i i i i M M M 2.2.2.2.2.2.2.2.2.2.2.2.2.R.2.2.2.2.2.2.2.2.2.2.2.M M M M 2.2.2.2.2.2.2.2.2.2.2.2.2.2.2.2.M M M M M M 5 W &.",
": i u i i i i M M 2.2.M 2.2.2.2.2.2.2.2.2.2.2.R.2.2.2.2.2.2.2.2.2.2.2.2.M M M M M 2.2.2.M M 2.2.2.M M M 2.2.L.{ M M M M M F +.=.",
"L i u u u i i i M M M M 2.2.2.2.2.2.2.2.2.L.{ 2.2.2.2.2.2.2.2.2.2.2.M 2.2.M M 2.M 2.2.2.2.M M 2.2.2.2.M M M N M M M M M M M =.G ",
"F L i i i i i i i i M M M 2.M M 2.2.2.2.2.2.2.2.2.2.2.2.2.2.2.2.2.2.M M M M M 2.2.2.2.2.2.2.2.2.2.2.2.2.M M M M M M M M M M o.4 ",
": Q : i i i i i i i i i i M M 2.2.2.2.2.2.2.2.2.2.2.2.2.2.2.2.2.2.2.2.2.M M M M 2.2.2.2.2.2.2.2.2.2.2.2.2.M M M M M i i M M M > ",
"K : F o. .> e D I I E i i p i M M 2.M 2.2.2.2.2.2.2.2.2.2.2.2.2.2.2.M M M M 1.2.2.2.2.2.2.M 2.2.2.2.M 2.2.2.M M M M M i i M i e ",
"D F : H H 4 5 T E H 7 - e 7 i i M M M 2.2.2.2.2.2.2.2.2.2.2.2.2.2.2.2.M M M M L.M M 2.2.2.M M 2.2.2.2.M 2.2.M M M M M M i i i ; ",
"%.&...: : : H : 7 7 > : R ~ E i M M 2.2.M 2.2.2.2.2.2.2.2.2.2.2.2.2.2.M M M M N M 2.2.2.2.2.M M 2.2.2.M M M M M M i i M i i i e ",
"&.| ` X.F  .o.4.4.' T - - 7 T E M M M M 2.2.M 2.2.2.2.2.2.2.2.2.2.M 2.2.2.M M { 2.2.2.2.2.2.2.2.2.2.2.M M N M M M i i i i i I e ",
"K | ..J F T W ' ; ; ; : ; H D R U M M M 2.M M 2.2.M 2.2.2.2.2.2.2.M M M 2.M M M 2.2.2.2.2.2.2.2.2.2.2.2.M M i i M i i i i ; e e ",
"; K | : - Y  .: 5 : 7 7 - : > 7 > H M M M M 2.2.M M 2.2.2.2.M 2.2.2.M M M M i M M 2.2.M M 2.M M 2.M 2.2.2.M M i i M i i 7 e * w ",
": : H E T 7 ; ; @.o.~ 7 > ; D 7 : P 4 : M M 2.2.M 2.2.2.2.2.M M M 2.M M i M i i M M 2.M M 2.2.M M M M 2.2.2.M i i i i 7 7 * > e ",
": o.&. .H ; H o.U ~ > I ; ; 7 @.e - : 5 F M M M M M 2.M M 2.2.M M M i M i i i i M M M M M 2.2.M M M M M M M M i i i i : 7 7 I e ",
"Y } T : : P - 7 > e e L 7 * > o.' : H T ` &.M M M M 2.M M M M M M i i i i i i i i M M i M M 2.M M M M M M M M i i i w 7 e e ~ > ",
"; e : 7 H L > t 7 L L ; > > I o. .H P &.6.+.} M M M M M i i i i i i i i L t > > > i i i i M M M i M M i M M i i i i = < e e e > ",
"D 7 e L e : , > , L L > - ; H o.H H : ~ ' %.+.} u M M i i i + + e > 7 > 7 Q e 7 7 ; L i i i i i i M M i i M i i u e w > e > > > ",
"e 7 R L > e ~ ^ 7 L L 7 > : 7 7 : 5 ; T : : G u u M i i u + + + e , L > ; ~ L H 7 7 ^ > 7 7 7 7 I i M M i i i i u e : ; e 7 ; w ",
"L 7 > > ; : L I 7 7 e 7 ; D E : H ; D  .' : , u M i i u + + + + e e 7 - - T P L 5 7 E I ; 7 E 5 + + + u u i i i u u > 7 e > 6 w ",
"= 7 ; 7 > 7 7 ~ 7 > 7  .; : Y E 7 t L T @.: : u i i u u + + + , < t w > ; 7 5 E D : : #.; : ~ T + + + + u u i i u u 7 E E > : > "
};
