/* XPM */
static char *_39e916ac8e24db4c37c4b173a97dd540mKpJwU7qjM9H37C[] = {
/* columns rows colors chars-per-pixel */
"64 64 51 1 ",
"  c #080A14",
". c #090A14",
"X c #090B14",
"o c #090A15",
"O c #1E3616",
"+ c #1F3616",
"@ c #1E3716",
"# c #1E3617",
"$ c #263A16",
"% c #263B16",
"& c #273B16",
"* c #263A17",
"= c #273A17",
"- c #263B17",
"; c #273B17",
": c #241526",
"> c #241427",
", c #241527",
"< c #251527",
"1 c #341C26",
"2 c #341C27",
"3 c #351C27",
"4 c #341D27",
"5 c #4D2A32",
"6 c #4C2B32",
"7 c #4D2B32",
"8 c #4D2B33",
"9 c #2D4316",
"0 c #2C4317",
"q c #2D4317",
"w c #344C1B",
"e c #354C1B",
"r c #344D1B",
"t c #354D1B",
"y c #5F761E",
"u c #5E761F",
"i c #5F761F",
"p c #5F771F",
"a c #476820",
"s c #476920",
"d c #466821",
"f c #476821",
"g c #466921",
"h c #476921",
"j c #7A4840",
"k c #7A4841",
"l c #7B4841",
"z c #7A4941",
"x c #AD7657",
"c c #AC7757",
"v c #AD7757",
/* pixels */
"+%%%%%%%%wdud%dw%raa$$%rr%%%r%+++%%$+$$$&ddpd%dr&dhh%%%ww%%%w%++",
"%%%%@+%%%%%duw%%wwrrr$%rr%%%+++%%r%$@+%rr%%hpr%&ddppd%%wr%#+%++%",
"%%w%%+@++%%%%%%%&$%%%%%%%%O+++--rr++@%%%%%%%&%%r%&%%%%$$%++%%%%%",
"www%r--%++%%++%%O%%%%r%%%%%+++rhrr+%%%%%%%%%w%%w%&rrw%%$%+%%%%%w",
"dw%%ww%%$+O+++++OO&&&rr&%%%%@huurr@+%rrr&%%%u%rr%rr&%$OO+%%r%%%r",
"w%%%%w%rwr+O+%%+@@&&&rr-%%r%-@$gw%%++%$rr%%dprr%&w%%%OO$%%%rr%%r",
"%%www%wr$O++%%%+%%&&r&rr%%g$%$$$$$$++++$%r%hpa%%%%%%OOOO%%%rr%%%",
"%%%%w%--++%%%w%%&&@@g&--%ug$%%$%%%++++++%%%rhw%&%%%%OO$O%r%%r%%r",
"w%%%%%%%+%%%rw%%%%%+gu--hpr%%%rwr$$@@&&ruuugwr%rduuOOOO%%r%%%%rw",
"ww%%%%%O+%%%rr%%rrrrhurrhr%%%%%wgw%%@%%%&rggdwddw$$OO%%%-rr%%rr%",
"www%@@@&%r$%r%%%%-wrrhurr%%%%%%%hr%%&%&&&&&rdw%%%OOO%%%%%%rr%w-%",
"%%%%&&&&%gg$%%rwr$$rrwurrhaar%%&$g%%&r--%&&&%%OO*#$%%%wwr%%r%%%%",
"%%%%rrw&-hpw%rrr%%%-%wwwhhr%%%%w%%%%rr--%%%&%%O%$$+Owdduiw%%%%%w",
"w%%%&&ww--pp%rr%%%+++%%%%%%%%%wwr%%rr%--aypu%%O$ww%OO$%dpi%%%%wu",
"%@%O@&&--&whww%%%%%%++O%$$&%%www%@%rr%%-rguga%%$wu%%-$%%rhh%wiuu",
"%$$O@&&rppwwwhuudr%%r-OOO$%&%%&&%%%r%%r-rrggrh%wuu%%%%dar%%whhuw",
"%r%%%%%%$aawauug$O++rw++$%OOO%&&&r%%%rr%%%wdw%%ddd%%rapa%%%dddd%",
"%r%%%rrr%%w%aar$++%%+rr$&&$$%%&%%r%%rww%%%%dd%wdw%%%ppgrrr%wrr%%",
"r%%r$$rrw&&&r$@$+$%$%66688666%%%r&%rr%%%%%%%www%%%%%-rrr&%%%%%%%",
"%%%rr$$$O%&$$O@%%rr6666688866656%%%%%%puud%%%%%%%%%%---@$++%%%%%",
"r%%%r%$$@@&&r&&&&&68665556668855vvvv%dwudr%%**$www--vvvvccccvv%%",
"rr%%$$%$&&@@gr&&666566zzz56688555vvvccvvv%%%*-OOwdvvvzlvclllvvv%",
"rw%%rrr%wgw@ww&76666655zzl6588656v5vclvcvvvvc--%xvvvvvv61vjvllvl",
"Ow%rrr%%&egw@@77665lzlz55lzz66666666llvlllvvccccxvvvvvv51vjjlllv",
"$$%%%%%%%%%rr55586886lljjzzzkk666888llllcccccccccvxxcccc54lllzzz",
"%g%%%%%%++++&85588786lljj66zkl66888868lvcjkklcccvvvcclccc6zz>>>l",
"0g%rr%%%rr++88667l7766jl55zzk6668668777lkkllccllvvcclcclzlljlzjj",
"-%%%ww%%%rrr888677lljjjlzlllkllkl666jl7lkkklcllcczlllxclzllll66j",
"-&%%%r%%++%666667lljjjllzlkkkkkkl6667jljkklllklcxxzzlkcckkkkkk66",
"%&%%%%%++%%65668lljj666lll66kkl666666jllkkllkkkkvzllkklkkkkkkk66",
"%%%%@OOw%r66555677776llll66kkkk6l666llllkkkkkkkkclllkkkkkkkk6lk6",
"%%@%@&%%%%6655557777llllkkkkkkkkl66jj6llkkkkkkkkllllkkkkkkll6666",
"+$%+@$%%-6664456666klzjjkkkklllz668886llkkkkkkkkkkkkklll66l66633",
"$r%%$+%r-363355666kkk6jjkk6klllzll88llllkkkkkkkkkkkklzlll6614423",
"rr%+++%rw333656666kk6llkk66lkk55l66877ljkkkkkkkkkkkkz5z863212%-%",
"rw$+$$%%%334543666666kll66kkkkz566667lllkkkkkkkkkkkkz56833-%%%%r",
"rr$$%%w%%%33222665556llllkkkllzll86667jljjzkllllkkk6kk884++%%%%r",
"r$%%ww%%%dd122262385llllllkkllzz6886jjl6jjzzllllk6kk6588%%++%%-r",
"%%%rrw----%%4264458zll6l66k66ll68366l666jjjlll5lk66k655;%%%%+%%%",
"%%%%$$$@-www%44445kzl5666ll66l663316666ljl6lll56kk6666rgudr%#%%w",
"%%r%%@%@---rr144356658886ll666663311166z655zlll6zz66wrgur%%%#%ww",
"grr%%rr@---&r&11456688886l6615633311111666zz6l66666hr$gr%%%#-%w%",
"ar$%rr%$%uw+&$11435548846661133433arru1134555l6666rrr$$$%%++%%%%",
"$g%%$$++%uuw&ar,336446511111443&&rpr--- o446666666%%%$$$%r%-%%%%",
"%%%$$+++$ddd%%r >222554wggg&----&%rr$$+ o 33331166--%%@-%rw-%%%w",
"u%rr%++@O%wdr-  >22243hpuga--hupp%$$++% oo...31116>-r%-#+-ww%%wu",
"-@%rr$$%-%%rr%  >211O$&%&&&&apur%$$$+$     ..<<3465>r$$$$$%w%%uu",
"--$$rr%%%%%%-%  >21>$%%%rrr&--%%%++++%     .&&<<<44>,%%$++%%%wiw",
"&r%%%%%%O%&%%$  ,,4,++%rrr$$%%%%%w%%&...   h%%++<<<1,&&&%O%r%ra%",
"%r%rrr%%@@@%O++ o,>,+;$-$r%%%%%%%wr&&...  hu%%+%&<,,,,r&%%rr%r%%",
"r%%gg%%%wwr%O$+  ,>>,$$r%rr$%%%%w%rr& ..o ur%%++%r,,<>g-%rrw%%%%",
"%%%%%%%rw&&O%$$$  ,,,>rr%$r%%%r%%%-&& ..hrdr%%%+%%r,<<<g%r%%++%+",
"uua&&&&%%$%+rrr$%-,,>>wd@@r--rr%pw%%r  Xhrr&ddr++-%r,,<u%%%%%%%%",
"uggg&ggyug%+$$ww-%+r$$d$%%;%grr%ppww%dhr&rwwr%%%+-%&&&ru%rhudww%",
"rggt&wwg+-%+@%$rr%Orw$-$-$$%gg%%aar%%%phrr&w%%%++-&&rrrgwgudw%%%",
"@rg@&wg@+-%%+@$$%%$rg$%%gguh%%%%ar%%%%%%rw%%%+++-rrguugrrrww%%++",
"%$0ww%@%hgr&&@&&%%%%hh-huur%%$%%-r&&@+%%$r$%%%%+%%%%$rrr++%%+++%",
"%aua%%&grr&r@@%a%%%%%%%hu%-hgrr%-a&&@++%%%%+%%%%+@%%%$O++%$$%%r$",
"0h0%%%&&$---$+%ad%%rhppw%%huuug$ra&&+%++$%O$+%r%%++%%@+$r++$%%r%",
"%%%000--%00-+$$ad%rppaaa%%hrhh%+--&@%r%+OOO%%%rw%%++++$wr%++%%%@",
"%%09%-%-%00+++%g%%%rduddw%wwg$%+%%%+%r%%%+r%---r%%%+-$rwr%%+%%%+",
"%%r%%%rr%$r@+$%$%%%%%%%%++%%%%++%%%+%rr%%%r%---%r%-%%%w$%%%+%%++",
"$%%%@%$r%%%%+$r$%%%gh%%%%%%%$%$%%%$++r%r%%rr@&r%%%%gh$%%%%%%%%+%",
"%%+%@%$r%%$g+$rr%%rrh%%%w%%wrOOO%%+++%%r%$$a@&rr%$rrg%%-r-%rr+++"
};
