/* XPM */
static char *exitcarl71680168879[] = {
/* columns rows colors chars-per-pixel */
"64 64 191 2 ",
"   c #020101",
".  c #010A00",
"X  c #160202",
"o  c #081103",
"O  c #10100E",
"+  c #090A14",
"@  c #131C17",
"#  c #270000",
"$  c #330100",
"%  c #281010",
"&  c #0E2901",
"*  c #132A03",
"=  c #152A0A",
"-  c #163403",
";  c #1A3205",
":  c #1F3804",
">  c #1B320B",
",  c #17380D",
"<  c #1F3113",
"1  c #372505",
"2  c #36260B",
"3  c #392E0C",
"4  c #233502",
"5  c #233C03",
"6  c #27310C",
"7  c #223A0B",
"8  c #353403",
"9  c #222413",
"0  c #22251F",
"q  c #382913",
"w  c #253114",
"e  c #223C13",
"r  c #2C3816",
"t  c #29391B",
"y  c #333410",
"u  c #341C27",
"i  c #312222",
"p  c #302F26",
"a  c #353733",
"s  c #450303",
"d  c #431508",
"f  c #521F04",
"g  c #561314",
"h  c #76151C",
"j  c #462807",
"k  c #40300D",
"l  c #4E2314",
"z  c #53201F",
"x  c #443414",
"c  c #663319",
"v  c #691822",
"b  c #4A3820",
"n  c #533925",
"m  c #4D2B32",
"M  c #4A3335",
"N  c #692521",
"B  c #7A2322",
"V  c #7E2A2E",
"C  c #673424",
"Z  c #783121",
"A  c #7A382C",
"S  c #18410E",
"D  c #254005",
"F  c #2C4206",
"G  c #2F4903",
"H  c #27400C",
"J  c #2E4A0C",
"K  c #35500E",
"L  c #2A4214",
"P  c #294A15",
"I  c #2D431C",
"U  c #284A1C",
"Y  c #334712",
"T  c #314A15",
"R  c #36431E",
"E  c #354C1F",
"W  c #375114",
"Q  c #35511E",
"!  c #304424",
"~  c #364B24",
"^  c #395224",
"/  c #3D542D",
"(  c #384432",
")  c #444314",
"_  c #434520",
"`  c #534021",
"'  c #445E22",
"]  c #455E2B",
"[  c #55522B",
"{  c #444238",
"}  c #6E4128",
"|  c #436422",
" . c #4A6321",
".. c #4A6428",
"X. c #4D692B",
"o. c #536623",
"O. c #506A28",
"+. c #4B6331",
"@. c #436930",
"#. c #546B32",
"$. c #506638",
"%. c #536A3B",
"&. c #4D793A",
"*. c #557330",
"=. c #5A7331",
"-. c #5B7439",
";. c #676E38",
":. c #627835",
">. c #3D3A40",
",. c #454546",
"<. c #574445",
"1. c #585244",
"2. c #4D4F50",
"3. c #565555",
"4. c #6F4C48",
"5. c #665554",
"6. c #5C7540",
"7. c #5E7B40",
"8. c #637B43",
"9. c #7C6857",
"0. c #5D5C61",
"q. c #695E63",
"w. c #6C6668",
"e. c #767070",
"r. c #881B19",
"t. c #9D1522",
"y. c #AB1720",
"u. c #A41E25",
"i. c #AA1A26",
"p. c #B31729",
"a. c #B31C28",
"s. c #B41F30",
"d. c #892724",
"f. c #8C2925",
"g. c #88252E",
"h. c #992223",
"j. c #9B2129",
"k. c #96282D",
"l. c #873024",
"z. c #9C332A",
"x. c #992532",
"c. c #883331",
"v. c #983436",
"b. c #A82224",
"n. c #AC2A2D",
"m. c #A52130",
"M. c #B52730",
"N. c #BB2435",
"B. c #A83337",
"V. c #A53F38",
"C. c #B53235",
"Z. c #BE353B",
"A. c #C52435",
"S. c #CA3336",
"D. c #C43539",
"F. c #CE3039",
"G. c #D1383D",
"H. c #914C37",
"J. c #993544",
"K. c #AB2D42",
"L. c #B93541",
"P. c #C73541",
"I. c #935249",
"U. c #9A5B5D",
"Y. c #B5494B",
"T. c #886858",
"R. c #9A645C",
"E. c #A7635B",
"W. c #A55D61",
"Q. c #996667",
"!. c #95696B",
"~. c #8E7B74",
"^. c #A86F74",
"/. c #C94547",
"(. c #D74C55",
"). c #E35D61",
"_. c #D4696E",
"`. c #E66568",
"'. c #7F8778",
"]. c #88857C",
"[. c #918579",
"{. c #9D7E83",
"}. c #8A8684",
"|. c #958D89",
" X c #9B9A9B",
".X c #B99E9A",
"XX c #B2A39A",
"oX c #AE9FA3",
"OX c #B2A3A5",
"+X c #D69E9F",
"@X c #DDB7B9",
/* pixels */
"> ; w 7 & < w 6 7 W | &.@.:  .) 5 T %. .5 5 : P Q 7 > L ! t 2 2 1 g k d f g j j : @.@.&.@.: o.G D | | | 4 5 4 Q I L 7 , P H > - ",
"e H H w > , L 6 6 5 5 @.*.W D - ^ T D ~ T 7 - ^ I 6 x p < e 9 9.T.T.9.9.T.T.T.9.^ e e +.%.) 8 F  .o.*.:.#.5 : I I 6 > > e ; ; S ",
": 7 L e S , > > 6 7 7 7 7 > : L , < H L - , , ; t q d 9.9.'.'.].}.^.'.}.}.].~.].[.e.[.~.!.T.4.I.f j D D 7 6 e L e w = 6 r w e e ",
"Q T ^ e U S , , , * e > > e L , > S > > P E L r q g W.W.[.XX|. X X X X X|.}.}.}.}.|.{.|.^.^._.{.I.H.` ` b 3 6 > : , 6 r w e e L ",
"@.I 7 4 L E H H e > , , , * = = < = , e - ^ Y 3 ~.Q.U.^..XXXXXXXoXoXOXoXoXoXOXOXoXOXoX.X@X@X@X+X^.Y.J.g.g.g 3 6 ; 7 e R 7 ; e E ",
"T : e 6 J P 7 Y x ` 2 2 q x q i 1 2 3 3 3 k C E.E.I.V V U.U.R.Q.!.!.!.!.!.!.!.!.Q.!.Q.Q.^.!.W.^.g.z.m.i.u.d.Z f 3 6 y ) E 7 : E ",
", L Y T P 5 ) c h B.B.B.v.H.v.v.v.V.Y.Y.V.Y.V.D.b.h.j.h.d.g.j.x.g.c.c.g.v.k.k.v.v.z.x.x.B.B.m.L.B.K.N.P.s.n.n.z.Z f j ) Q H 4 7 ",
"7 6 6 5 ) 1 H.V.C.D.P.P.Y._._.).`.(.D.S.S.D.S.F.A.D.M.C.B.C.P.D.C.V.B.C.Z.M./.`.`.`.(.`.(.L.L._.L.L.P.P.Z.N.P.N.Z.z.Z j Y 5 7 P ",
"~ ; 8 k f H.C.L.G.C.k.g.A c.v./.P.(.F.F.A.S.S.S.S.D.Z.Z.Z.D.F.F.D.D.Z.Z.D.D.D./././.V.G.P.L.L.Y.x.B B l.t.L.P.D.S.C.h.c.j 5 Q P ",
"~ ) j I.V.C.P.N.t.d.s X X # N c.K.N.A.A.A.S.G.S.D.D.Z.Z.D.S.F.F.D.N.M.i.p.p.p.b.h.b.b.b.a.L._.J.g $ X X N d.K.Z.S././.f.j Q P S ",
"! b A h.S.F.L.x.v d l M i X 4.g h x.s.A.i.i.y.y.y.h.u.u.j.b.u.y.p.i.b.u.u.i.i.i.y.u.y.i.i.x.B v l + { % n $ h L.P.A.K.c.j R : S ",
"7 x N r.s.N.m.h $ ,.  >.>.@ . M $ V u.K.a.i.y.b.b.b.u.u.u.u.u.u.y.i.i.m.i.i.i.y.t.b.i.u.x.J.# { X O 1.i 9 5.$ J.L.L.m.c.2 7 H , ",
"> 3 j g x.k.k.g i >.@ 2.>.2.@ m % N x.N.s.p.i.i.t.b.a.p.p.i.i.i.i.a.M.s.s.a.a.a.M.a.a.M.n.N % i X i 3.3.% 5.z N K.B.v.} 3 5 y W ",
"^ y n $ h x.V g <.u ,.3.e.e.0.M ( $ k.i.s.M.N.n.n.n.M.N.A.N.M.M.M.M.M.M.s.s.N.M.i.M.n.n.x.# 5.0 a w.q.w.3.i 4.g g.k.Z f 8 D 8 ;.",
"> > 9 d h x.g.z <.,.2.w.5.q.<.<.n $ B t.m.m.n.N.n.n.M.M.a.N.n.n.n.n.b.i.i.i.u.u.b.b.r.h.V X 3.,.2.w.0.w.4.m 5.q N C n 8 W *.:.:.",
", 5 6 1 Z v V $ p a + <.<.5.0 0 9 n N B Z B l.f.l.f.d.d.f.f.l.l.Z l.d.f.f.f.l.Z l.l.l.Z f 9.0 0 + p 3.3.q { i [ n 3 8 )  . .:.G ",
"7 E 7 6 3 k k i @ { o a a   . {   w 2 2 b ` 2 1 2 k 2 1 2 2 k j x b j x 1 n x 3 1 x ) [ _ 6 . (   @ ,.@ 9 1.  6.9 6 5 +.O.O.X.: ",
"H L 4 7 H ~ ~ ) t 9 9 ( a   2.a w = e L = L Q > e > w < e w 7 7 > I 7 7 J T Y 5 4 5 4 #.+., ! ( a O ,.@ { . %.I ~ P 7 P T H 5 H ",
"H H H T 7 7 e ( ! p o w 9 @ w 0 > , L ; 7 > , H ; > > e : L 7 7 E 5 7 T Q 5 I 5 D 5 H 7 I ~ ~ w o 0 0 0 t R E T : D 5 : 4 7 7 7 ",
"H 7 5 ~ W e e e > > t < I < < < t I ~ 7 D 4 T 5 4 7 Y ~ L e e 7 5 5 5 H , 4 #.-.#.X.7 7 e 6 7 e t w w e > 7 > : : & > S 7 7 7 7 ",
"P H 7 e R 7 e ; - > ; 7 E > I e e 7 E T T 4 X.5 5 T L 4 7 : ^ 5 -.K 4 - , %.H 6.O.T 4 : L > , ~ R ! r e $.7 - 4 : H H H 5 > L > ",
"E E 7 7 7 - 7 7 e 7 > 5 +.T 7 : 7 7 7 4 W : ..=.: W 5 H 5 6 E 4 -.X.W 5 ] W O.X.Y 7 , : H ; e ; E +.Y 4 ] -.5 5 J ] ^ : H ~ ~ < ",
"U E > H P Q P 7 P ..^ & ^ T ; %.I e ; 5 5 5 W %.4 5 L 6.E Y ; e ..O.| W D ] $.: L ; W P T H - < ; F Y 7 #.=...- X.T H : E R e 7 ",
"; U 7 E T ^ : 7 - Q ] ^ ; - T L 7 e Y $.-.-.J K 5 Y 6.T 7 ; e ; +.J X.J 5 5 7 7 : %.T H : ; e - r - D D ; W ..5 X.- 5 : : 7 e e ",
"m 7 5 7 7 7 4 7 5 7 7 E E - ; 7 e R Y 7 F -.-.Y 5 X.] I 7 ; 7 7 T W J J : : 7 e > e > : ; e , < - D 5 | 5 S J W - @.6.] $.5 H > ",
"m m 7 7 7 5 7 7 > 7 ; - > 7 > - * 7 Y 7 7 T ] W 5 7 7 7 e e e 7 5 L Q 5 : H S w t > : - : , > ; ; : +.-.=.X.W D X.8...D 4 , ~ H ",
"m m m Y E : L 7 ~ Y 7 ; > * 7 ~ > ; 7 ; 5 : 7 5 7 4 ; e e > e 7 ' J - R e : > $.+.E 7 < > < ; > H : D P @.#.$.J X.Q H D 5 T E 5 ",
"m m m e ~ T 7 7 7 E ~ t L e e E ! > ; ; H 6 7 7 7 e e e > w > , - W 7 ] t I e 7 Q U L 7 > w ; ~ : H - D L +.X.W +.J : Q Y E 7 ; ",
"m m m m 7 ^ , > > 7 e > 7 7 L I ~ 7 6 > 7 : 7 e * w , > < < ; ; 7 7 > I ~ ; 7 , 4 L E e w > - E Q - : 5 4 5 ; H 5 4 4 > > L 7 > ",
"m m m m ; e L 7 - > 7 e 7 7 7 7 ~ e 7 7 7 ; * > ; 6 = < ~ > - > 7 7 e e ~ E 7 7 7 F e > L > 7 7 Q ~ H ; 7 H 7 : : 7 L 7 7 7 > > ",
"m m m m m > 7 L 7 E Q P > 7 Y 7 7 ; e Y ^ e 7 6 e w < ( ~ < ; e > e 7 7 > ^ 7 Y 7 7 ; 7 4 7 I e > H - #.+.4 5 7 7 ; > e e > > e ",
"m m m m m e : , 4 7 P +.E 5 T T 5 5 Q E ] 7 e 7 ~ e e ~ ! > < : e 6 7 ; ; 7 7 ~ : 7 5 O.: 7 ~ E H D H W +.5 7 : ~ e 7 ~ I < w > ",
"m m m m m m 7 7 7 ..X.-. .S O.J G Q X.#.: D H P L e 7 > ~ t w 7 6 > > 7 > 7 7 > D +.] -.X.: +.W D  . . .: 5 4 Y I 7 < e ~ e ; > ",
"m m m m m m e ~ : D T ..-.J 5 D O.O.#.*...: : ^ ~ = Y e < > = e e E e L - = e E T H D ..-.T H ; X. .=.-.o.: 5 ~ E e w = < < < e ",
"m m u u m m m W T H & 5 5 ..7 L G *.=.H ; ; < ~ H e : > H : 5 7 E E & , > 7 : 7 ; - - - : : : H : 4 H : H 5 7 7 w < e e L 7 ; 7 ",
"m m m u u m u 7 : : 5 Y T E T T X.| H - , ; ; t w 7 H > : D L ' E E > > > , ; 7 - E H > > > e 7 > ~ > e 7 ; ~ < > 7 e > 7 7 7 I ",
"m m m m u u u 7 7 L 6.6.$.- E > - , - < > , > L ~ T L  .5 : :.-.Y I e ; > , 7 ~ 7 E e H < ; , ; e w I e 7 +.Y L 7 > 7 7 e e 7 T ",
"m u u m u u u 7 H +.+.t e e > e L L ! ~ ~ e > > - Q J W o.: : o.T 7 ; - w H e ~ e e R R < > > I 7 > #.7 4 8.7 : 7 ; * 6 > 7 7 ^ ",
"m u u u u u 7 7 ; : H S > H > 7 S P P : 7 ; 4 - D > H | +.7 7 7 7 T : P L H E E 7 7 e H , e > w : W | %.W J J F 5 7 7 7 7 7 ; e ",
"m u u u u , > ; H T ! W D ; H 7 J K H - 7 D L Q ~ : 7 4 7 ; e 7 5 K 4 @.Q 7 I > H , > e ; , ~ $.6. .J X.J G K  .#.$.E 7 * e e ~ ",
"u m u u L > 7 - 7 4 7 Q L D 7 5 D - : 7 > ~ E E I 7 T 7 : P -.5 5 5 5 -.P 5 : 7 H 7 : ^ ; H e , J :. .G K K ' :.W 5 7 7 7 w ~ ~ ",
"u u u 7 - ~ E ; , H 5 : K : : =.7.=.] H 7 L < ! ~ L 7 : W -.=.D X. .K =.7 D - Y T 7 : X.L H ^ : D D O.o.G : X.T 4 7 7 > > e I e ",
"u u u e ~ ~ 7 ; 5 6.J : : : O.| *.| W H ; : , - L E 7 5 -.+.5 4 ..*...J Y -.7.X.: > H +.J ^ ; D 7 5 E T W 4 D 7 7 e 6 = e 7 6 7 ",
"u u 7 ; e , - 7 7 -.-.T S o.J X.@.W : 4 ^ ~ , : H 4 7 5 ..T 4 7 : K -.K 7 5 > > D : : : Q Q - T R e ; 7 e 7 - w e ~ e > 7 7 ; H ",
"u u D e > > ; - H ] @.+.5 S L X.7 7 7 , T : - H ] O...: 5 D - D : : E T : > ; 5 : - L #.: : %.~ H < e e 7 e 7 w > E ~ e 5 7 : W ",
"+ + H ~ e ; > 6 > : ~ X.D H #.+.7 5 D : : ; X.8.6. . .D 5  .8.#.-.D : S , : > , ; ; L W +.T +.7 > 7 e w ~ e < > > e ~ E 5 : T -.",
"+ + 7 T I 7 H 7 ; : : E ^ 4 ; : | X.L : 4 ; ; > H - 7 : O.=.-.^ 7 : I = > > L ~ 7 > - ; ^ ^ : , > ; , Y E 7 L > 6 > 7 T 5 D O.:.",
"+ + + D ^ Q , < e L > : > L 7 T @.-.-...: : L , E T T 5 7 D 4 : : > ; ; w e ; ~ ~ 7 ; : 7 - 7 ; 4 7 5 ~ E : w e * e 7 7 : K :.G ",
"+ + + H - e 7 S : > ; L , U < = ; , ; > > ; 7 E P 7 7 7 7 > H : 7 I 7 7 7 ; , 5 T : D O.7 , < > 7 7 > L R e e < < > e E 7 Y ..5 ",
"+ + + P ~ ^ > > > 7 w e > = > > , w e e & ; L 7 7 T ; : L 7 e 7 7 E U 7 w ^ +.5 D : X.=.: > ; e 7 E 7 ; 7 r ~ L H 7 I E 4 T 7 7 ",
"+ + + + +.: 7 e R I U e e > > , > , t ; > L - ~ > ~ ^ 7 : , > e T H ~ E 7 - Q +.K D *.Q D 7 > - 7 ^ T L 7 7 ..4 : ^ T E 5 e 7 e ",
"+ + + + D : : T E H 7 ; 7 7 e , , < > , > : ^ P > L I H : 5 ^ > : 5 D 7 ; H , 6.| K X.D H H 7 > 7 e Y T 5 W 8.' 4 P 5 H 4 * ; ; ",
"+ + + + : : H : 7 7 ; > R ~ E H L > < < L , P +.H ; ~ - H T E 7 *.W 7 : ^ T : 5 ..W J L ..+.~ 7 > > e T 5 K =.=.5 : 5 5 4 e 7 e ",
"+ + + + D  .+.6.6.] T - : , P E e : - ~ ; : +.5 : ; : D | Q T 5 *.8.H T - +.$.T D L J K T 7 , > 6 7 7 4 5 5 G =.: G O.-.] ~ I e ",
"+ + + J D T W ] ; : : 5 > 7 H I E < 7 E ~ H > - D : : H ] ..7 : X.' W J 7 4 6.$.T E H P H ; 7 , = e 7 7 J W J o.K o.o.%.T : e e ",
"- K  .: - P +.4 : : , 7 : : > 7 > H 4 T ] H ; D ..X.#.+.7 7 7 5 ..J D : 7 7 7 7 E T 7 5 , ; 7 > > ~ E $.-.-...J G W W T 7 e * w ",
": 5 7 T T , - ; $.+.~ : > > L , ; P : : O.+.: X.-.*.J : H D : 5 : T 5 H 5 & , e , ~ L ; 7 L 7 > e 7 e 7 5 L ~ T : 4 7 7 7 * > w ",
"5 +.-...H ; H +.E E > I ; - 7 +.L - : 5 D : 4 X.-.: ; X...P W : 7 X.7 ; > ; 7 7 , L < ; e , H > = : 7 7 e e 7 ; > - e 7 7 7 I e ",
"T ] T 7 5 P > : > L e I 7 ; > +.] : H T ' -.%.K D : O.7.%.-.| 4 L @.7 * > w > > 7 > > ; > e E w 7 5 ; ; e ; = e ! * < > e e E > ",
"- e 7 7 H L > L 7 , L ; > > L $.+.D P -.8.#.| O.: : ..T #...7 ; H L 7 : S R > 7 > > 7 e > L I E > 7 : > > 6 t ~ / w > < e e e > ",
"e 7 e L L > : > e L e 7 - ; H +.H H : ~ ] *.#.| W H H P +.: , > H = 7 > e E e 7 7 ; L L 7 7 7 ~ 4 7 7 ; ; > ~ R R e w > e > > > ",
"7 7 I L > e ~ ~ e e Y 7 > ; : 7 5 : > T > 5 D 5 - : 7 D H - 7 ; < e L > : Q L 7 7 , ^ > 7 7 7 7 R 5 7 7 e 7 E e > e > ; L 7 ; w ",
"e 7 > > ; : e I 7 > e , ; 7 ^ ; H ; 7 ....> , 5 5 5 : > e e > e , e 7 - ; P T L : H E I : 7 E 4 L 7 7 ] X.7 7 4 7 7 7 7 e > 7 w ",
"> 7 : 7 > 7 7 ^ H > 7 ..- : T Q > L L T $.5 7 7 T 5 7 E ( > = , e t w > ; H 5 E 7 : : %.- : E T : e Y E +.7 7 5 E 4 7 E E > ; > "
};
