/* XPM */
static char *exitcarl61680168878[] = {
/* columns rows colors chars-per-pixel */
"64 64 192 2 ",
"   c #020101",
".  c #010A00",
"X  c #160202",
"o  c #081103",
"O  c #10100E",
"+  c #090A14",
"@  c #131C17",
"#  c #270000",
"$  c #330100",
"%  c #281010",
"&  c #0E2901",
"*  c #132A03",
"=  c #152A0A",
"-  c #163403",
";  c #1A3205",
":  c #1F3804",
">  c #1B320B",
",  c #17380D",
"<  c #1F3113",
"1  c #372505",
"2  c #36260B",
"3  c #392E0C",
"4  c #233502",
"5  c #233C03",
"6  c #27310C",
"7  c #223A0B",
"8  c #353403",
"9  c #222413",
"0  c #22251F",
"q  c #382913",
"w  c #253114",
"e  c #2C3716",
"r  c #223C13",
"t  c #29391B",
"y  c #333410",
"u  c #241527",
"i  c #341C27",
"p  c #312222",
"a  c #302F27",
"s  c #353733",
"d  c #450303",
"f  c #431508",
"g  c #521F04",
"h  c #561314",
"j  c #76151C",
"k  c #462807",
"l  c #40300D",
"z  c #4E2314",
"x  c #53201F",
"c  c #443414",
"v  c #663319",
"b  c #691822",
"n  c #4A3820",
"m  c #533925",
"M  c #4D2B32",
"N  c #4A3335",
"B  c #692521",
"V  c #7A2322",
"C  c #7E2A2E",
"Z  c #673424",
"A  c #783121",
"S  c #7B382C",
"D  c #18410E",
"F  c #254005",
"G  c #2C4206",
"H  c #2F4903",
"J  c #27400C",
"K  c #2E4A0C",
"L  c #35500E",
"P  c #2A4214",
"I  c #294A15",
"U  c #2D431C",
"Y  c #284B1C",
"T  c #334712",
"R  c #314A15",
"E  c #36431E",
"W  c #354C1F",
"Q  c #375114",
"!  c #35511E",
"~  c #304424",
"^  c #354B24",
"/  c #395224",
"(  c #3D552D",
")  c #384432",
"_  c #444314",
"`  c #4A4A24",
"'  c #534021",
"]  c #445D22",
"[  c #455E2A",
"{  c #444238",
"}  c #6E4128",
"|  c #436422",
" . c #4A6321",
".. c #4A6428",
"X. c #4D692B",
"o. c #536623",
"O. c #506A28",
"+. c #4B6331",
"@. c #436930",
"#. c #546B32",
"$. c #506638",
"%. c #536A3B",
"&. c #4D783A",
"*. c #557330",
"=. c #5A7331",
"-. c #5B7439",
";. c #676E38",
":. c #627835",
">. c #3D3A40",
",. c #454546",
"<. c #574445",
"1. c #585244",
"2. c #4D4F50",
"3. c #565555",
"4. c #6F4C48",
"5. c #7A4841",
"6. c #665554",
"7. c #5C7540",
"8. c #5E7B40",
"9. c #637B43",
"0. c #7C6857",
"q. c #5D5C61",
"w. c #695E63",
"e. c #6C6668",
"r. c #767070",
"t. c #881B19",
"y. c #9D1522",
"u. c #AB1720",
"i. c #A41E25",
"p. c #AA1A26",
"a. c #B31729",
"s. c #B31C28",
"d. c #B41F30",
"f. c #892724",
"g. c #8C2925",
"h. c #88252E",
"j. c #992223",
"k. c #9B2129",
"l. c #96282D",
"z. c #873024",
"x. c #9C332A",
"c. c #992532",
"v. c #883331",
"b. c #983436",
"n. c #A82224",
"m. c #AC2B2D",
"M. c #A52130",
"N. c #B52730",
"B. c #BB2435",
"V. c #A83337",
"C. c #A53F38",
"Z. c #B53235",
"A. c #BE353B",
"S. c #C52435",
"D. c #CA3336",
"F. c #C43539",
"G. c #CE3039",
"H. c #D1383D",
"J. c #914C37",
"K. c #993544",
"L. c #AB2D42",
"P. c #B93541",
"I. c #C73541",
"U. c #935249",
"Y. c #9A5B5D",
"T. c #B5494B",
"R. c #886858",
"E. c #9A645C",
"W. c #A7635B",
"Q. c #A55D61",
"!. c #996667",
"~. c #95696B",
"^. c #8E7B74",
"/. c #A86F73",
"(. c #C94547",
"). c #D74C55",
"_. c #E35D61",
"`. c #D4696E",
"'. c #E66568",
"]. c #7F8778",
"[. c #88857C",
"{. c #918579",
"}. c #9D7E83",
"|. c #8A8684",
" X c #958D89",
".X c #9B9A9B",
"XX c #B99E9A",
"oX c #B2A39A",
"OX c #AE9FA3",
"+X c #B2A3A5",
"@X c #D69E9F",
"#X c #DDB7B9",
/* pixels */
"> ; w 7 * r w 6 7 Q | &.@.:  ._ 7 R #.] 5 F 7 R ! 7 > r ~ t 2 2 f z k f g h k k : @.@.&.@.- o.H F | | | 4 5 7 ! U P 7 , I r ; , ",
"r J J w > , r 6 6 5 F @.*.Q F - / R J W R 7 - / U 6 c a < r 9 0.R.R.0.0.R.R.R.0.^ r P +.%._ 8 K  .o.*.:.#.5 4 U U 6 > > , : - J ",
": 7 P r D , > > 6 7 , 7 J , : J , r D P - , r ; t 2 f R.0.].].[.|.{.[.|.|.[.^.{.[.r.{.{.~.R.4.U.g k F F 7 6 r P r < = 6 e w < r ",
"/ R ! r Y D , , 6 * r 6 > < U , = J , > I W D e q x Q.Q.{.oX X.X.X.X.X.X X|.|.|.|. X}.}./.}.`./.U.J.' ' n 3 6 > : 7 6 e w J r P ",
"@.U 7 4 P / J D r > , , , * = = < = J < - ! T 1 ^.!.Y.!.XXoXoXoXOXOX+XOXOXOXOX+X+X+XOXXX#X#X#X@X/.T.K.h.h.h 3 6 - 7 r E > ; r W ",
"R : 7 6 K I 7 T c ' 1 2 q c q p 1 2 3 3 3 c Z W.W.U.C C Y.Q.E.!.~.~.~.~.~.~.~.~.!.~.!.!./.!.!./.h.x.M.p.i.f.A g 3 6 y _ / D 5 W ",
", P T R I : _ v j V.V.V.b.J.b.b.b.C.T.T.C.T.C.A.n.j.y.j.g.h.c.c.h.v.v.h.b.l.l.b.b.x.c.c.V.V.M.P.V.L.B.I.s.N.m.x.A g k _ ! J 4 7 ",
"7 6 6 5 _ 1 J.C.Z.F.I.I.T.`.`._.'.).F.D.D.F.D.G.S.F.N.Z.V.Z.F.F.Z.C.V.Z.A.N.(.'.'.'.)._.).P.P.`.P.P.F.I.P.B.I.B.Z.x.A k T 5 7 T ",
"^ ; 8 l g J.Z.I.H.Z.l.C S v.b.(.I.).G.G.S.D.D.D.D.F.F.A.A.F.G.G.F.F.A.A.F.F.F.(.(.(.C.H.I.P.P.T.l.V V z.y.P.I.F.G.Z.j.v.k 5 ! I ",
"^ _ k U.C.Z.F.L.y.f.d X X # B v.L.B.S.S.S.D.H.D.F.F.P.A.F.F.G.G.F.B.N.s.a.a.a.i.j.n.n.n.N.A.`.K.h $ X X B f.L.F.D.(.(.g.k / I D ",
"~ c S j.G.G.P.c.b f z N p X 4.h j c.d.S.p.s.i.u.p.j.i.i.k.n.i.u.a.p.i.i.n.p.p.s.n.y.u.p.p.c.V x z + { % m $ j P.I.S.L.v.k E - D ",
"r c B t.d.B.M.j $ ,.  >.>.@   N $ C y.L.a.p.u.n.n.n.i.i.i.i.i.i.u.p.p.M.p.p.u.u.y.n.s.i.c.K.# <.X O 1.p 9 6.$ K.P.P.M.v.3 7 J , ",
"7 3 k h c.l.l.h p >.@ 2.>.2.u N % B c.B.d.a.p.u.y.n.s.a.a.u.u.s.i.a.N.d.d.s.s.s.N.s.s.N.m.B % p X p 3.3.% 6.x B L.L.b.} 3 5 y Q ",
"^ y m $ j c.C h <.0 ,.3.r.r.3.N { $ l.u.d.N.B.m.m.m.N.B.S.B.N.N.N.N.N.N.d.d.B.N.u.N.m.m.l.# 6.0 s e.w.e.3.i 4.h h.l.A g 8 F 8 ;.",
"> > 9 f j c.h.h <.,.2.e.6.w.<.<.m $ V j.M.M.m.N.m.m.N.N.s.N.m.m.m.m.n.p.p.p.i.i.n.n.t.j.C # 3.,.2.e.q.e.4.N 6.3 B Z m 8 L *.:.:.",
", 5 6 1 A b C $ s s O <.<.6.0 0 9 m B V A V g.g.z.g.g.f.g.g.z.z.A z.f.g.g.g.z.A z.z.z.A z 4.0 0 + a 3.3.q { p ` m l 8 _  ...:.H ",
"7 W 7 6 3 l l p @ N o s s . . {   w 2 2 n ' 2 2 1 l 2 1 2 2 l k c c 1 c 1 ' c l 3 c _ ` _ 6 . )   @ ,.@ 9 1.  7.9 6 5 +.O.#.X.: ",
"J P 4 7 7 / ~ ` t = 9 ) s   2.s w = r P = P ! > r 7 < < r w 7 7 > W J 7 L R P : 4 F 8 #.[ r ~ ) s O ,.@ { . %.U ^ I J T R J 5 7 ",
"M M M R 7 7 r ) ~ a o w 9 @ w 0 > < J ; > 7 , J ; , 6 r 7 P 7 7 ^ 7 J T W : U 5 F : 7 7 ~ ^ ^ w o 0 0 0 t E W R : J 5 - 5 J 7 7 ",
"M M M M M r 7 r > > U < U < < < t U ^ 7 F : R 7 4 : P W e r r 7 5 5 : J > 5 #.-.#.O.r 7 r > 7 r t w w r > 7 > : : & - D 7 > 7 7 ",
"M M M M M M r 4 ; > ; 7 / > P r r 7 W R R 4 X.5 5 R P 7 7 ; / 5 -.L 4 - > %.J 7.O.R : : P > 7 ^ E ~ e r %.7 - 4 7 J J J 7 ; P 7 ",
"5.5.M M M M M M , : 7 7 +.R 7 * 7 7 7 4 Q 5 ..=.: Q 5 J 4 7 ^ 4 -.O.Q 5 +.Q O.X.T 7 D 4 D ; r ; W +.T 4 [ -.5 5 K ] ! 4 J W ^ < ",
"5.M M M M M M M M +./ & / R - 7.U r - 5 5 5 R #.: 5 P 7.W T 4 7 ..O.| L 5 ] $.: P ; Q I R J - < ; G T 7 #.=...- X.R 7 5 W U r 7 ",
"M 5.5.5.5.M M M M M [ W - - T P 7 7 T $.-.-.L L 4 T 7.Q 7 ; r ; +.K X.K 5 7 7 7 : $.R J : ; r ; e - 5 F ; Q ..5 @.- 7 7 4 7 r r ",
"5.5.5.M M M M M M M M / W - - 7 e E P J G -.-.T 5 +...U 7 ; 7 7 R Q K K : : 7 r > < , : ; P ; r - F : | F 5 K Q - X.-.[ $.7 J > ",
"5.5.5.M M M M M M M M ; > 7 7 ; * 7 P 7 7 Q ] Q : 7 7 7 r r r > 7 P ! F : J , r U > : - ; , > = ; : X.-.*.X.Q F X.9...F 4 , W J ",
"5.5.M M M M 5.M M M M M > * 7 ^ > ; 7 : 7 : J 7 7 ; ; r r > r 7 ] K - E r > 6 +...~ 7 < > < - > 7 7 J I @.%.$.K X.! J F 5 R W 7 ",
"5.5.5.5.5.5.M M M M M M P r r W ~ > : ; J 6 7 7 7 r r r > w > 7 - Q 7 [ U ~ D : ! ~ J 7 > r > W 5 D - F P ..O.Q +.K : ! T W 7 ; ",
"5.5.5.5.5.5.5.M M M M M M 7 r E ^ 7 7 7 7 ; 7 r * e > = < < ; ; 7 7 6 U / > 7 7 4 T ^ r w > - W W - 7 4 7 : - 7 7 4 4 ; 7 r 7 7 ",
"5.M M M 5.5.5.5.M M M M M 7 7 7 ^ r 7 7 7 ; * > > > = r ^ 7 - > 7 7 r r ~ W 7 7 7 G r > r 6 7 7 ! W 7 : 6 7 7 5 4 7 P 7 7 7 > > ",
"5.5.5.M M M M M M M M M M M R 7 7 ; 7 P ^ 7 7 > r w w ) ^ r * r > 7 7 7 ; ^ 7 P 7 5 : 7 7 7 U r : J - #.X.4 7 7 7 : > r r > > r ",
"5.5.5.5.M M M M M M M M M M R R 5 4 / W ..7 e 7 ~ r r ^ ~ > w - r w 7 ; ; 7 7 ^ ; 7 5 O.- 7 W ^ J F J Q X.5 7 : W r 7 ^ U < w = ",
"5.5.5.5.5.M M M M M i i M M M L F ] O.O.: F J I P r 7 > ~ t w > 7 7 > ; > , 7 > F +.[ -.#.: +.Q 5  . . .: 5 5 T U 7 < r ^ r > > ",
"5.5.M 5.5.5.M M M M M i i M i F O.O.#.=...: : / ^ * T r < > > r < E P P - > J W T 7 F ..-.R J - O. .=.-.o.: 4 W W r w = < < < r ",
"5.5.5.M 5.5.M M M M M M i i i P H *.*.D ; ; < ^ e r ; , P : 4 J ! W & , > 7 , 7 : - - - : : : J 7 4 J : J 7 7 > w w r r P 7 ; 7 ",
"5.5.5.M M M M M M i i M i i i I X.| J - 7 > > t r 7 J : : F P ] W W > > > 7 ; 7 - ^ J - ; > , P > ^ > r 7 4 ^ < : , r > 7 7 7 U ",
"5.5.5.M M M M M M i i i i i ^ > ; , ; < > r = P W R P  .5 : :.-.T U r ; > 7 : ^ > ^ P P , > < > r r U r 7 #.T T 7 > 7 7 r r 7 R ",
"5.5.5.5.M M i i M i i i i r > r , P ^ ^ ^ r ; - - ! K Q o.: : o.R 7 ; ; r < P ~ r P U U r > > t 7 > %.7 ; 9.7 4 7 : * > > 7 7 ^ ",
"5.M 5.5.5.M M i i M i i ; J ; 7 , I W : 7 - 4 - 5 7 J [ ..7 7 7 J I : R P 7 W Y 7 > r P = r > r : R [ #.Q K K G 5 7 7 7 6 7 : 7 ",
"M M M 5.5.} M i i i i Q J : J : K L J - 7 J P W W - 7 5 7 : r 7 7 Q 4 @.! 7 U 7 J r ; , ; : ^ +.7. .H O.K H L ] #.$./ 7 * r r ^ ",
"M M M M M M M i i i i ! P F J : F - : J > / W W U 7 T 7 : R -.7 5 : : -.I 5 : 7 J 7 : ! - J r 7 K :. .H L L ] :.Q 4 7 7 7 w ^ ^ ",
"M M M M M M M i i i : : L : : =.-.-.[ J 7 , w ~ / r 7 : Q -.=.5 O. .L =.7 7 - R R 7 : X.P J / 5 F F O.o.H : O.R 5 7 : > > r ~ r ",
"i M M i M M i i i i K : : : X.[ *.| Q J ; ; , ; P W 7 5 7.[ 5 5 ..*...K T :.8.X.: : 7 +.K / ; 7 7 5 W R Q : J 7 7 r 6 = r 7 6 7 ",
"i M M i i M i i + -.7.R F O.K X.@.Q : 5 / / , : J 4 7 5 ..R 4 7 : L -.L 5 7 , ; 5 : 5 7 ! W - R U r - 7 r 7 * r r ~ r 7 7 7 ; J ",
"u i M M i i i + + [ #...5 F T @.7 7 7 , R : - J ..O...: 5 F - 5 : : ! T - 7 ; : 7 - U #.7 4 $./ P < r r 7 r > w 6 W ^ r 7 7 5 Q ",
"9.u i i i u u + + : W +.7 , #...7 7 F : ; : #.9.7. ...5 5  .9.#.-.F ; D r : > r ; - D Q +.R +., 6 : r w / r w > ; r W W : : L -.",
"u i i i u u + + + + 7 W / 4 - : | O.P : 4 ; - > J - 7 : O.=.=./ 7 , U * > > r ! 7 > - ; ^ ! 7 J 7 * , T ^ 7 P > > > 7 R 5 5 O.:.",
"u i i u u + + + + + > ; 7 P J R @.-.-.X.: : r > R R R 5 J 7 4 : : : ; > w r > ~ W 7 ; 4 7 - 7 ; 4 7 5 ^ W ; e r * r 7 7 7 K :.H ",
"i i u u - + + + + + = r r P < = > , ; - , ; 7 W R 7 , J 7 > P 7 7 U 7 7 7 : D : I : J O.: J < > 7 7 > P U r r r w > r W 7 T +.5 ",
"u u u W W / + + + + r r > > = > - < P < * - P 7 7 R ; : r 7 r 7 7 W Y 7 r ^ +.: 5 : X.*.: - = r 7 W 7 ; 7 e ^ P r 7 U W : T 7 7 ",
"u u 5 +.+.: + + + + Y r r > , 7 > > t = > J ; ^ ; W / 7 : D ; r T 7 W / > - / +.L F *.! J 7 > , 7 ^ R P 7 7 +.4 4 / R W 4 7 7 7 ",
"u F : J 5 + + + + + 7 ; 7 7 r , r < > > > , ! R > U U J : : ( ; 4 5 F 7 ; J 7 7.| L X.F J J 7 > 7 r T R 5 Q 9.] 4 K : J 4 * ; ; ",
"-.-.O.5 : + + + + 7 : , U / W , r > < r P , P X.J ; ^ - J R W J *.Q 7 : / R : : ..L K P X.[ ^ 7 > 7 r R 4 L =.=.F : F 7 7 r 7 r ",
"-. .! O.F ..+.7.7.[ T - - 7 R W r > - ^ ; : $.5 : ; : F | ! R : *.9.J R - ..$.T J P L L R 7 , > > 7 7 4 5 5 H =.: H O.-.X.~ U r ",
"L ..X.K F R Q [ - > ; : : J J U W r > W W J > - J : : J [ X.7 : O.] Q K J 7 7.$.R W J I J : 7 > = r 7 7 K Q K o.L o.o.#.W : r r ",
"- L  .: - R X.: : : 7 7 ; > > 7 7 7 5 R [ J - J ..X.#.+.7 > 7 5 X.K F : 7 > 7 7 W T 7 5 , > 7 ; > / W $.:.-...K H Q Q R > J * w ",
": 7 7 R R 7 - ; +.+.W D > ; D r ; I : 5 O.+.: X.-.*.K : J F : 5 - R 7 J 5 & r 7 7 ^ r ; 7 J , : r 7 r 7 : T / R : 4 7 7 7 * > r ",
"5 +.:...7 : 7 +.W ^ ; U ; ; 7 $.e - : D F 4 4 X.-.- - #.X.I Q : J +.7 ; > - 7 7 D P < ; r , e > = 4 7 r r r , ; > - r : 7 7 U r ",
"K [ R 7 7 I - 7 > P r t 7 - > +.[ : J R ] -.#.L F : #.-.$.-.| : P @.7 * > r > > 7 > ; < > r / r 7 5 ; ; r ; = J ~ = < > r e W > ",
"- r 7 7 G r > P 7 J P > 6 > r $.X.F I 7.9.#.| X.: : X.R O...J ; J P 7 : r U > 7 > > r , > P t W ; 7 7 > > > t ~ ( < > < r r r > ",
"r 7 r P P , 7 > , P e 7 - ; J X.J J : ^ [ *.#.| Q J J I +.- 7 > r > 7 > 7 W r 7 7 ; P P 7 7 4 ! 4 7 7 - ; ; ^ U E r w > r > > > ",
"7 7 E P > 7 ^ ^ J P P 7 > - > 7 : 7 ; R : : F F - : 7 J J - > ; r r r > ; ! P 7 r : / ; 7 7 7 7 E 7 7 7 e 7 ^ r > r : ; r 7 ; w ",
"P 7 ; > ; > J U 7 > J , - : ^ : J ; , X.+.; : : 5 7 : ; > P * r r < 7 - - R R P 7 5 W E : 7 W 7 T 7 7 [ +.7 7 : 7 7 > 7 r > 7 w ",
", 7 ; 7 , 7 7 ^ P > 7 +.- 7 T W : P P R $.: J 7 T 5 7 W ) > > , r t w > - J 7 W D : : %.; ; W R ; r T W +.5 7 4 / 4 7 W ^ > : > "
};
