/* XPM */
static char *exitcarupr61680168875[] = {
/* columns rows colors chars-per-pixel */
"64 64 191 2 ",
"   c #020101",
".  c #010A00",
"X  c #160202",
"o  c #081103",
"O  c #10100E",
"+  c #090A14",
"@  c #131C17",
"#  c #270000",
"$  c #330100",
"%  c #281010",
"&  c #0E2901",
"*  c #132A03",
"=  c #152A0A",
"-  c #163403",
";  c #1A3205",
":  c #1F3804",
">  c #1B320B",
",  c #17380D",
"<  c #1F3113",
"1  c #372505",
"2  c #36260B",
"3  c #392E0C",
"4  c #233502",
"5  c #233C03",
"6  c #27310C",
"7  c #223A0B",
"8  c #353403",
"9  c #222413",
"0  c #22251F",
"q  c #382913",
"w  c #253114",
"e  c #223C13",
"r  c #2D3816",
"t  c #29391B",
"y  c #333410",
"u  c #241527",
"i  c #341C27",
"p  c #312222",
"a  c #302F27",
"s  c #353733",
"d  c #450303",
"f  c #431508",
"g  c #521F04",
"h  c #561315",
"j  c #76151C",
"k  c #462907",
"l  c #40300D",
"z  c #4E2314",
"x  c #53201F",
"c  c #443414",
"v  c #663319",
"b  c #691823",
"n  c #4A3820",
"m  c #533925",
"M  c #4A3335",
"N  c #692521",
"B  c #7A2322",
"V  c #7E2A2E",
"C  c #673424",
"Z  c #783121",
"A  c #7A382C",
"S  c #18410E",
"D  c #254005",
"F  c #2C4206",
"G  c #2F4903",
"H  c #27400C",
"J  c #2E4A0C",
"K  c #35500E",
"L  c #2A4214",
"P  c #294A15",
"I  c #2D431C",
"U  c #284B1C",
"Y  c #334712",
"T  c #314A15",
"R  c #36431E",
"E  c #344C1F",
"W  c #375114",
"Q  c #35511E",
"!  c #304424",
"~  c #364B24",
"^  c #395224",
"/  c #3D542D",
"(  c #384432",
")  c #444314",
"_  c #434520",
"`  c #534021",
"'  c #445D22",
"]  c #455E2B",
"[  c #55522A",
"{  c #444238",
"}  c #6E4128",
"|  c #436422",
" . c #4A6321",
".. c #4A6428",
"X. c #4D692B",
"o. c #536623",
"O. c #506A28",
"+. c #4B6331",
"@. c #436930",
"#. c #546B32",
"$. c #506638",
"%. c #536A3B",
"&. c #4D783A",
"*. c #557330",
"=. c #5A7331",
"-. c #5B7539",
";. c #676E38",
":. c #627835",
">. c #3D3A41",
",. c #454546",
"<. c #574445",
"1. c #595244",
"2. c #4D4F50",
"3. c #565555",
"4. c #6F4C48",
"5. c #665554",
"6. c #5C7540",
"7. c #5E7B40",
"8. c #637B43",
"9. c #7C6857",
"0. c #5D5C61",
"q. c #695E63",
"w. c #6C6668",
"e. c #767070",
"r. c #881B19",
"t. c #9D1522",
"y. c #AB1720",
"u. c #A41E25",
"i. c #AA1A26",
"p. c #B31729",
"a. c #B31C28",
"s. c #B41F30",
"d. c #892724",
"f. c #8C2925",
"g. c #88252E",
"h. c #992223",
"j. c #9B2128",
"k. c #96282D",
"l. c #873024",
"z. c #9C332A",
"x. c #992532",
"c. c #883331",
"v. c #983436",
"b. c #A82224",
"n. c #AC2A2D",
"m. c #A52130",
"M. c #B52730",
"N. c #BB2435",
"B. c #A83337",
"V. c #A53F38",
"C. c #B53235",
"Z. c #BE353B",
"A. c #C52435",
"S. c #CA3336",
"D. c #C43539",
"F. c #CE3039",
"G. c #D1383D",
"H. c #914C37",
"J. c #993544",
"K. c #AB2D42",
"L. c #B93541",
"P. c #C73541",
"I. c #935249",
"U. c #9A5B5D",
"Y. c #B5494B",
"T. c #8C6759",
"R. c #A7635B",
"E. c #A55D61",
"W. c #996667",
"Q. c #95696B",
"!. c #94766C",
"~. c #A4666A",
"^. c #A9777C",
"/. c #B77577",
"(. c #C94547",
"). c #D74C55",
"_. c #E35D60",
"`. c #D4696E",
"'. c #E66568",
"]. c #7F8778",
"[. c #8E857A",
"{. c #9D7E83",
"}. c #8A8684",
"|. c #958D89",
" X c #9B9A9B",
".X c #B99E9A",
"XX c #B2A39A",
"oX c #AE9FA3",
"OX c #B0A2A5",
"+X c #D69E9F",
"@X c #DCB7B9",
/* pixels */
"> ; w 7 & e + + + + + &.u u i i u T %.| 5 5 5 T ^ 7 > e ! t 2 2 f g k u u u u u u u X.&.@.4 o.G D | | | 4 5 : E I L 7 , P < - , ",
"e H 7 w > , + + + + D @.*.u u u u u u Q T 7 - Q I 6 c a < < 9 9.T.T.9.9.T.u u u u u u +.%.) 8 D  .o.*.:.#.5 : I I 6 > > e ; - D ",
": 7 P e S , + + + + : 7 7 , u u u u u u - , e ; t q f 9.9.].].[.}.|.].}.}.[.+ u u u u [.Q.T.4.I.g k D S 7 6 e e e < = 6 r w e e ",
"Q Y ^ e U S + + + + + > > < I u u u u u P ~ S r q h E.~.[.XX|. X X X X X|.}.+ + + + {.{.^.^.`.^.I.H.` m m 3 6 > : 7 6 r r e e L ",
"@.I 7 4 L ^ H + + + + , , * = = < * H < - ^ Y 1 !.W.U.~..XXXXXXXoXOXOXOXoXoXoX+ + + oX.X@X@X@X+X/.Y.J.g.g.h 3 6 ; 7 e R > - e ~ ",
"T 7 7 6 J P 7 Y c m 1 3 q c q p 1 2 3 3 3 c C R.R.I.V V U.U.W.W.Q.Q.Q.Q.Q.Q.Q.Q.W.Q.W.W.^.Q.~.W.g.z.u.i.u.d.Z g 2 6 y ) E H : E ",
"> L Y T P : ) v j B.B.B.v.H.v.v.v.V.Y.Y.V.Y.V.D.b.h.j.h.f.g.x.x.g.c.c.g.v.k.k.v.v.z.x.x.B.B.m.L.B.K.M.P.s.n.n.z.Z g k ) ^ H 4 : ",
"7 6 6 5 ) 1 H.V.C.D.P.P.Y.`.`._.'.).D.S.S.D.S.F.A.Z.M.C.B.C.S.D.C.V.B.C.C.M.(.'.'.'.)._.).L.L.`.Z.L.P.P.L.N.P.N.C.z.Z k Y 5 7 T ",
"~ ; 8 k g H.C.P.G.C.k.V A c.v.(.P.).F.F.A.D.S.S.D.D.D.D.D.D.F.F.D.D.Z.L.D.D.D.(.(.(.V.P.P.L.L.Y.x.B B l.t.L.D.D.S.C.h.c.k 5 Q P ",
"~ _ k I.V.C.D.s.t.d.d X # # N c.K.N.A.A.A.S.G.S.D.D.Z.L.D.D.F.F.D.N.M.i.p.p.p.b.t.b.b.n.s.Z.`.J.h $ X X N d.K.Z.S.(.(.f.k ^ P S ",
"R n } j.S.F.L.x.b f z M p   4.x j x.a.A.i.i.i.y.y.h.u.b.j.u.u.y.p.i.b.i.b.i.i.i.u.u.y.i.i.x.B b z + { % m $ j L.P.A.K.c.k ! - S ",
"7 c N r.s.N.m.j $ ,.  >.>.@   M $ V t.K.a.i.y.b.b.b.u.u.u.u.u.u.y.i.i.m.i.i.y.y.t.b.i.b.x.J.$ { X O 1.p 9 5.d J.L.L.m.c.2 H H , ",
"> 3 k h x.x.k.x i >.@ 2.>.2.u M % N x.N.s.p.i.y.u.b.p.p.p.i.y.i.i.a.M.N.a.a.a.a.M.a.a.M.n.N % p X p 3.3.@ 5.h N K.K.v.} 3 5 y W ",
"^ y m $ j x.V h <.a ,.3.e.e.3.M { $ k.i.s.M.N.n.n.n.s.N.A.N.M.M.M.M.M.M.s.M.N.M.y.M.n.n.x.# 5.0 s w.q.w.3.i 4.h g.k.Z g 8 D 8 ;.",
"> : 9 f j x.g.h <.,.2.w.5.5.<.<.m $ B h.m.m.n.N.n.n.M.M.a.M.n.n.n.n.b.i.i.i.u.u.b.b.r.h.V X 3.,.2.w.0.w.4.M 5.2 N C ` 8 K *.:.:.",
", 7 6 1 Z b V $ a s O <.<.5.0 0 9 m N B Z B l.f.l.f.f.d.f.f.l.l.Z l.d.d.d.d.l.Z l.l.l.Z g 9.0 0 + a 3.3.q { p [ m l 8 )  . .:.G ",
"> E 7 6 2 l l p @ { o s s   . {   w 2 2 n ` 2 1 1 3 2 1 2 2 3 k c n 3 c 1 m c 3 1 c ) [ ) 6 . (   @ ,.@ 9 1.  6.w 6 5 +.X.X.X.: ",
"H L 5 7 F ^ ~ _ t = 9 ( s   2.s w = e L = L Q > e > w < e w 7 7 7 I 7 7 J T Y 5 4 5 4 #.] e ! ( s + ,.@ { . %.t ~ L H Y T H 5 H ",
"H H H T 7 7 e ( ! a o w 9 @ w 0 > < H - > 7 , H ; 7 > e 7 r 7 : E 4 7 Y ^ 5 L 5 D 5 L 7 ! ~ ~ w o 0 0 9 r R E P 5 H 5 ; 5 H 7 7 ",
"H 7 5 ~ T e 7 e > > I w I w w < t I ~ e 5 : T 5 4 7 L ~ L e L 7 5 4 5 H > : #.-.#...7 7 e > 7 e t w w e > 7 > : : & - S 7 > 7 7 ",
"P 7 7 , R H e ; - > ; , ^ > L L e 7 E T T 4 X.5 5 Y L 5 7 ; ^ 5 -.W 4 - , %.H 8.#.T 4 : L > 7 ^ ! ~ r r #.: - : : H H H 5 > L 7 ",
"E E H 7 7 ; 7 , < 5 7 : +.T 7 ; 7 7 7 4 W 5 ..=.: W 5 H 5 7 ~ 4 -.O.W D ] W O...Y 5 , : H ; e * ~ ] Y 4 ] 6.D D J ] ^ 4 7 ~ ~ < ",
"E E > H T Q P 7 P +.^ & ^ T ; %.I e ; 5 5 : T %.4 H Y %.E L ; 7 ..O.| K D ] $.: L ; W P P 7 - e : F Y 7 %.=...; X.T 7 5 E I e 7 ",
"; U 7 ~ T Q 5 7 - Q ] Q - - T L 7 7 Y $.-.-.K K 5 Y 6.W 7 ; r ; ..J X.J 5 5 7 7 : %.T H : ; e - r ; 5 D - W ..: @.- 4 7 5 7 e e ",
"7 7 7 7 7 7 4 7 5 7 7 ^ ~ - ; 7 r R L H F -.-.Y 5 +.+.L 7 ; 7 7 T W J J 5 5 7 e > e > : ; H > < - D 5 | D S J W - X.6.] $.: H > ",
"H ] H 7 7 5 7 7 ; 7 ; ; > 7 > ; * 7 L 7 7 W ' W : H 7 : e e e 7 7 L Q D : 7 : e I > ; - : , > > ; : +.-.=.X.K D X.7...D 4 7 ~ H ",
"r +.7 Y ~ ; L 7 E L > ; , * 7 ~ > ; H ; : : H : 7 : > e e > e > ' J ; E e - > $.+.I 7 < > < - > 7 5 D P @.%.$.Y X.Q H D 5 T E : ",
"7 H 6 e ~ T 7 7 7 E ~ I L H < E ! > ; : H 6 7 7 7 e e e > w > 7 - W 7 / I I L > Q E e 7 > < > ~ : 7 - D L ..O.W +.J : Q T E 7 ; ",
"5 ; 7 7 7 ~ , > 7 7 e > 7 7 L I ~ 7 > 7 7 ; 7 r * w > > < < ; - 7 7 > I ~ > 7 : 4 Y ~ e w > ; E ^ - S 4 : : - 7 4 5 4 ; 7 e 7 7 ",
"7 7 L S ; 7 H , ; > 7 e 7 7 7 7 E e 7 7 7 ; * > > 6 = e ! > ; > 7 7 e e ~ ! e 7 7 F e > e > 7 7 Q E H ; 7 H 7 5 : 7 L 7 7 7 > > ",
"e H > < , > e L 7 ~ Q P > 7 T 7 7 ; 7 Y ^ r 7 > e w e ( ^ e ; e 6 7 7 7 ; ~ 7 L 7 5 : 7 5 7 I e : H ; #.+.4 5 7 7 ; > L e > > r ",
"> e , - ; S ; L 4 : P +.Q 4 T T 5 5 Q ~ ] 7 e 7 ! e e ! ! > < ; e w 7 ; ; 7 7 ^ ; 7 5 #.; 7 E E H D H W +.5 H ; ~ L 7 ! I < < = ",
"; e 7 > > 7 7 7 D +.X.-. .S O.J G Q X.#.: D H P I e 7 > ~ t w 7 > 7 7 > > 7 7 > D +.] -.X.: +.W S  . . .: 5 5 Y I > e e ! < ; > ",
"I t e > < 7 , E : 5 T ..=.J : D O.O.#.=...: : E ~ * L e < , = e e E L e - = e E Y H D ..-.T H - O. .=.-.o.: 4 ~ E e < = w < < e ",
"I U 7 7 - * 7 T T H & 5 5 X.H L G *.=.7 - - < ~ L e ; 7 e 4 5 7 E E & , > > 7 : ; - - - : : : H 7 4 H 5 H 5 7 > e < e e L 7 ; H ",
"E ~ e , 7 e e 7 : : 5 Y T E Y P X.| H - 7 > > t e 7 H : : D L ' E E > > > 7 ; 7 ; ~ H - > > < H > E > e 7 ; ^ w 7 7 w > 7 7 7 I ",
"E P 7 ; e L e e 7 L 6.6.$.- ~ > - , ; < > < , L E Y L  .D : :.-.Y I e ; > 7 , E > ^ L L < - < > e e I r 7 X.Y L 7 > 7 7 e e 7 T ",
"Y : : e ~ I H 7 H +.+.t e e > e S L ~ ~ ~ e ; - * Q J W o.4 : o.T 7 ; ; e e e ~ e L I I e > , t 7 = %.7 ; 8.7 : 7 ; * 7 > 7 7 ^ ",
"7 5 7 T ^ I 7 7 ; , H S > H > 7 : P T : 7 ; 4 - D : H  ...7 7 7 H P ; T L 7 E E 7 > t S > < > e 5 W ] #.W J J F 4 7 7 7 7 7 ; 7 ",
"5 5 , 7 7 7 > ; H T I W 5 : H : J W H - H H e Q ~ ; 7 7 7 ; e 7 5 K 4 @.Q 7 I 7 H 7 ; e - : ~ +.6. .G O.J G K  .#.%.~ 7 * e e ~ ",
"7 7 R 7 L > 7 ; 7 : : Q L S 7 5 S - : H > ~ E E I 7 T 7 : P 6.: 5 5 5 -.P : 5 7 H 7 : ^ ; 7 e 7 J :. .G K K ' :.W 4 7 7 7 w ~ ~ ",
"%.Y Q 7 - ~ E ; : H H : K 5 : =.-.-.] H 7 S w ~ ^ e 7 : W -.=.5 X. .K =.: D - T T 7 : ..L H ^ 5 D D O.o.G : X.T 5 7 7 > > e I e ",
"@.^ ; e ~ ~ 7 ; : 6.J : : : O.] *.| W H : ; , - L E 7 5 -.+.5 5 ..*...J Y 6.7.X.: : L ..J ^ ; H 7 5 E Y W : H 7 7 r > = e 7 6 7 ",
"; +.7 ; 7 , - 7 7 -.6.T 5 O.J X.@.W 5 4 ^ E 7 > H 4 H : ..Y 4 7 : K -.K D : 7 ; 7 5 : > Q Q - T I e ; 7 e 7 ; e e ! e 7 7 7 ; H ",
": : H e > > ; ; H ] X.+.4 S L X.7 7 , : T : - H ' #...: 5 5 - 5 : : Q Y - 7 ; : : - P %.5 5 +.~ L w e e 5 e > w > E ~ e 5 7 : W ",
"6.L H ~ L - > > , : ~ ..H H #.+.H : F 7 ; ; X.8.-. . .5 D  .8.#.-.D ; 7 L ; , < ; ; < W +.P +.7 > 7 e < ~ r < > > e E ~ 5 : K -.",
": : 7 Y I 7 e 7 ; : 7 ~ ^ 4 - : | X.L : 4 > - > H - H : O.=.=.^ : , t - > , L Q 7 , ; : E E 7 e 7 ; 7 L ~ 7 L 7 > > 7 Y 5 5 #.:.",
"H - 7 H E Q > e 7 L > - : L H P @.-.-...: : e 7 E T Y 5 7 7 4 5 : 7 - > < < > ! E 7 ; : 7 : 7 ; 4 5 5 ~ E ; w e * e 7 7 5 J :.G ",
"D L D H - e 7 S ; > = H < L < > > , - ; 7 ; 7 E T 7 7 7 7 > H 7 H I 7 7 , ; H : T : H O.7 , < > > 7 7 r I e e w < > e E 7 Y ..5 ",
"> Q 5 P E ^ > > > 7 e e , > > > > e e e * * L 7 7 T ; : e 7 e 7 : ~ P 7 e ~ +.: D : ..=.: - > e 7 E 7 ; 7 e ~ L e 7 I E 5 Y e 7 ",
"J : D +...7 7 e I I E e e > > , > > t > > S > ~ > ~ ^ 7 : S > e T H E ~ 7 ; Q +.K D *.Q D 7 > , 7 ~ T L 7 r ..5 5 ^ T E 4 7 7 7 ",
"D D : H 7 5 : T ~ H 7 ; 7 7 e , , < = > > : ^ T > L I H : : ^ > : : D 7 ; H 7 6.| K X.D H H : > 7 e Y T 5 W 8.' 4 J : H 4 * ; ; ",
"-.-.*.: : : 7 5 7 7 : , I ~ E : < > < e e 7 P ..H - ~ - H Y E H *.W H : ^ T > 5 | K J Y ..@.~ > > > L T 5 K =.=.D : 5 5 : e 7 e ",
"-. .Q O.D ..+.6.6.] Y - ; 7 P ^ e 7 - ^ : 7 +.D : ; : D | Q T : *.8.H P - +.$.Y H L J K Y 7 , 6 > 7 7 4 5 4 G =.: G O.-.+.~ I e ",
"K ..O.J D Y W ] > ; ; 5 ; H e I E e > ~ ~ H > ; D : : H ] +.7 : O.' W J H 5 -.$.T ~ H P 7 : 7 > = e 7 7 J W J o.K o.o.%.P ; e r ",
"- K  .: - P X.: : : 7 7 ; : > 7 > 7 5 T ' H ; 7 ..X.%...7 7 5 5 ..J D : > 7 7 7 E T 7 5 7 , 7 > 7 E E $.-.-...J G W W Y 7 L * < ",
": 4 H T T 7 ; ; +.+.! S > ; e 7 : P : : #.+.: X.-.*.J : H D : : : T 5 7 7 * , 7 , ~ r ; 7 H 7 - e 7 e 7 4 L E T : 4 7 7 7 * > e ",
"D +.-...7 : 7 X.E ~ > I ; ; 7 +.e - 4 : D : 5 O.-.: - #.| T W : H +.H ; > ; 7 7 e e < - e , r > = ; 7 7 e e 7 ; > - 7 7 7 7 I e ",
"Y ] T 7 5 P , > > L e I 7 - > +.] 5 H T ' -.%.K S : #.-.%.-...: L @.7 * > e > 7 7 > > > 7 e ~ e 7 4 ; ; e ; = e ! = < > e r E > ",
"; , 7 7 7 L 6 e 7 H L - > > L $.+.D P -.8.X.| X.: 5 ..T #...: : H L 7 ; e I > 7 > 7 7 e > e I E ; 7 7 > , 6 t ~ / < > < e e e > ",
"L 7 L L e 7 , > e L L 7 - ; H +.H H : ~ ] *.O.| W H H T +.: 7 > , > 7 > 7 ~ e 7 7 ; L S 7 7 7 E 4 7 7 : - > ~ I R e w > e 7 > > ",
", 7 I L > 7 ~ ^ 7 , I : > ; 7 7 : : ; T : : H H - : 7 H H - , ; e e L > ; Q L 7 e : ^ > 7 7 7 7 ! 5 7 7 r 7 E e > e : ; e > ; w ",
"L 7 > > - 7 H I L > L > ; S E : H ; , ..] : , 5 D : ; : e < * e e e 7 - - T Y L - H E I ; 7 E 5 L 7 7 ] +.7 7 : 7 7 7 7 e > 7 w ",
"> 7 ; 7 > 7 7 ~ H > 7 ..; : Y E 7 L I T $.: H : Y 5 7 E ( > > , < t w > ; 7 5 Q H : : %.; : E T : r Y E +.5 7 5 E 4 7 E ~ > ; > "
};
