/* XPM */
static char *exitcarl41680168878[] = {
/* columns rows colors chars-per-pixel */
"64 64 192 2 ",
"   c #020101",
".  c #010A00",
"X  c #160202",
"o  c #081103",
"O  c #10100E",
"+  c #090A14",
"@  c #131C17",
"#  c #270000",
"$  c #330100",
"%  c #281010",
"&  c #0E2901",
"*  c #132A03",
"=  c #152A0A",
"-  c #163403",
";  c #1A3205",
":  c #1F3804",
">  c #1B320B",
",  c #17380D",
"<  c #1F3113",
"1  c #36260B",
"2  c #382908",
"3  c #233502",
"4  c #233C03",
"5  c #27310C",
"6  c #223A0B",
"7  c #353403",
"8  c #222413",
"9  c #22251F",
"0  c #382913",
"q  c #253114",
"w  c #223C13",
"e  c #2C3816",
"r  c #29391B",
"t  c #333410",
"y  c #241527",
"u  c #341C27",
"i  c #312222",
"p  c #302F27",
"a  c #353733",
"s  c #450303",
"d  c #431508",
"f  c #521F04",
"g  c #561314",
"h  c #76151C",
"j  c #462807",
"k  c #40300D",
"l  c #4E2314",
"z  c #53201F",
"x  c #443414",
"c  c #663319",
"v  c #691822",
"b  c #4A3820",
"n  c #533925",
"m  c #4D2B32",
"M  c #4A3335",
"N  c #692521",
"B  c #7A2322",
"V  c #7E2A2E",
"C  c #673424",
"Z  c #783121",
"A  c #7B382C",
"S  c #18410E",
"D  c #254005",
"F  c #2C4206",
"G  c #2F4903",
"H  c #27400C",
"J  c #2E4A0C",
"K  c #35500E",
"L  c #2A4214",
"P  c #294A15",
"I  c #2D431C",
"U  c #284B1C",
"Y  c #334712",
"T  c #314A15",
"R  c #36431E",
"E  c #354C1F",
"W  c #375114",
"Q  c #35511E",
"!  c #304424",
"~  c #364B24",
"^  c #395224",
"/  c #3D542D",
"(  c #384432",
")  c #444314",
"_  c #4A4A24",
"`  c #534021",
"'  c #445D22",
"]  c #455E2B",
"[  c #444238",
"{  c #6E4128",
"}  c #436422",
"|  c #4A6321",
" . c #4A6428",
".. c #4D692B",
"X. c #536623",
"o. c #506A28",
"O. c #4B6331",
"+. c #436930",
"@. c #546B32",
"#. c #506638",
"$. c #536A3A",
"%. c #4D793A",
"&. c #557330",
"*. c #5A7331",
"=. c #5B7439",
"-. c #676E38",
";. c #627835",
":. c #3D3A40",
">. c #454546",
",. c #574445",
"<. c #585244",
"1. c #4D4F50",
"2. c #565555",
"3. c #6F4C48",
"4. c #7A4841",
"5. c #665554",
"6. c #5C7540",
"7. c #5E7B40",
"8. c #637B43",
"9. c #7C6857",
"0. c #5D5C61",
"q. c #695E63",
"w. c #6C6668",
"e. c #767070",
"r. c #881B19",
"t. c #9D1522",
"y. c #AB1720",
"u. c #A41E25",
"i. c #AA1A26",
"p. c #B31729",
"a. c #B31C28",
"s. c #B41F30",
"d. c #892724",
"f. c #8C2925",
"g. c #88252E",
"h. c #992223",
"j. c #9B2129",
"k. c #96282D",
"l. c #873024",
"z. c #9C332A",
"x. c #992532",
"c. c #883331",
"v. c #983436",
"b. c #A82224",
"n. c #AC2A2D",
"m. c #A52130",
"M. c #B52730",
"N. c #BB2435",
"B. c #A83337",
"V. c #A53F38",
"C. c #B53235",
"Z. c #BE353B",
"A. c #C52435",
"S. c #CA3336",
"D. c #C43539",
"F. c #CE3039",
"G. c #D1383D",
"H. c #914C37",
"J. c #993544",
"K. c #AB2D42",
"L. c #B93541",
"P. c #C73541",
"I. c #935249",
"U. c #9A5B5D",
"Y. c #B5494B",
"T. c #886858",
"R. c #9A645C",
"E. c #A7635B",
"W. c #AD7757",
"Q. c #A55D61",
"!. c #996667",
"~. c #95696B",
"^. c #8E7B74",
"/. c #A86F73",
"(. c #C94547",
"). c #D74C55",
"_. c #E35D61",
"`. c #D4696E",
"'. c #E66568",
"]. c #7F8778",
"[. c #88857C",
"{. c #918579",
"}. c #9D7E83",
"|. c #8A8684",
" X c #958D89",
".X c #9B9A9B",
"XX c #B99E9A",
"oX c #B2A39A",
"OX c #AE9FA3",
"+X c #B2A3A5",
"@X c #D69E9F",
"#X c #DDB7B9",
/* pixels */
"> ; q 6 * w q 5 6 W } %.+.3 | ) 3 T $.' 4 F : T ^ , > w ! r 1 1 d l j d f g j j : +.+.%.+.: X.G D } } } 3 4 3 ^ I L 6 , P , > - ",
"w H 6 q > , w 5 5 4 4 +.&.W D - ^ T H E T 6 - Q I 5 x p < w 8 9.T.T.9.9.T.T.T.9.~ w w O.$.) 7 J | X.&.;.@.4 : I I 5 > > L - - H ",
"; 6 T w S , > > 5 6 6 6 6 6 : L , w H e - , , ; r 0 d T.9.].].[.|.}.[.[.|.[.^.[.[.e.{.{.~.T.3.I.f j D 4 6 5 w L w < = 5 e q < L ",
"Q Y ^ w U S , , 6 * w > > , I , > S - > P E L e 0 z Q.Q.{.oX X.X.X.X.X.X X|.|.[.|. X}.}./.}.`./.I.H.` ` b 2 5 > ; 6 5 e q , L L ",
"+.I 6 3 L Q H , w > , , , * = = > = w w - Q Y 2 ^.!.U.!.XXoXoXoXOXOX+X+XOXOXOX+XOX+XOXXX#X#X#X@X/.Y.J.g.g.g k 5 ; 6 w R > - w ~ ",
"T , 6 5 J P 6 Y x n 1 1 0 x 0 i 1 1 2 t t x C E.E.I.V V U.E.R.!.~.~.~.~.~.~.~.~.~.~.!.!./.!.Q./.g.z.m.i.u.d.Z f 2 5 t ) ^ H : E ",
"6 L Y T P 4 ) c h B.B.B.v.H.v.v.v.V.Y.Y.V.Y.V.Z.b.h.t.h.d.g.x.x.g.c.c.g.v.k.k.v.v.z.x.x.V.B.m.L.B.K.N.P.s.n.n.z.Z f j ) ^ H 3 : ",
"6 5 5 4 ) 2 H.V.C.D.P.P.Y.`.`._.'.).D.S.S.S.S.F.A.Z.M.C.B.C.D.S.C.V.B.C.Z.M.(.'.'.'.)._.).L.L.`.L.L.D.P.L.N.P.N.C.z.Z j Y 4 6 T ",
"~ ; 7 j f H.C.P.G.C.k.c.A c.v.(.P.).F.F.A.S.S.S.D.D.D.Z.D.D.F.F.D.D.Z.Z.D.D.D.(.(.(.V.G.P.L.L.Y.x.B B l.h.L.P.D.D.C.h.c.j D Q P ",
"^ _ j I.V.C.P.s.t.d.s X X # N c.K.N.A.A.A.S.G.S.D.D.Z.Z.D.D.F.F.D.N.M.i.p.p.p.u.h.b.b.b.N.L.`.J.g $ X X N f.K.C.S.(.(.f.j ^ P S ",
"R x C j.D.F.L.x.v d l M i X 3.g h x.a.A.i.i.i.y.i.h.u.u.j.u.u.y.p.i.b.i.m.i.a.i.b.t.y.i.i.x.B g 0 X [ % n $ h Z.P.A.K.c.j R - S ",
"w x N r.s.N.m.h $ >.  :.:.@   M $ V t.K.a.a.y.b.b.b.u.u.u.u.u.b.y.u.i.m.i.i.y.y.t.b.i.u.x.J.# ,.X O <.i 8 5.s J.L.L.m.c.1 H H , ",
"6 2 j g k.k.k.z i :.@ 1.:.1.y M % N x.N.s.p.i.y.u.b.p.p.p.y.y.i.i.a.M.s.s.a.a.a.M.a.a.M.n.N % 9 + i 2.2.y 5.g N K.K.v.{ t 4 t W ",
"~ t n $ h x.V g ,.9 >.2.e.e.2.M [ $ k.y.s.M.N.n.n.n.s.N.A.N.M.M.M.M.M.M.s.s.N.M.y.M.n.n.x.# 5.9 M w.q.w.2.i 3.g g.k.Z f 7 4 7 -.",
"> > 8 d h x.g.g ,.>.1.w.5.0.,.,.n $ B j.m.m.n.M.n.n.M.M.a.M.n.n.n.n.b.i.i.i.u.u.b.b.r.h.V # 2.>.1.w.0.w.3.M 5.2 N C n 7 K *.;.;.",
", 3 5 2 Z v g.$ a a O ,.,.5.9 9 8 n N B Z B l.f.l.f.d.d.f.f.l.l.Z l.d.f.f.f.l.Z l.l.l.Z f 9.9 9 O 9 2.2.0 [ i _ n k 7 ) | | ;.G ",
", Q 6 5 1 k k i = [ o a a   . [   q 1 1 x n 1 1 2 k 1 1 2 2 k j x x 2 x 2 ` x 2 j x ) _ _ 5 . (   @ >.@ 8 <.  6.q 5 4 ..O.....: ",
"H Y 3 6 H ^ ! _ r @ 8 ( a   1.a q = w r > L Q > w > < < w q 6 6 6 I 6 6 Y T Y 4 3 4 4 @.] w ! ( a O >.@ [ . $.r E I H P T H 4 H ",
"H H H T 6 6 w ( ! p o q 8 @ q 9 > w w ; > 6 : H ; > > r > e H 6 ^ 3 H Y Q : P 4 D : H 6 I ~ ~ < o 9 9 9 r R E P : H : - 3 6 6 6 ",
"H 6 3 ^ T w 6 w < m m m m m m m m m m 6 H : T : 3 6 Y E L w w 6 4 : : H 6 : $.=.@...6 6 w > 6 w r q q r : 6 > : : & - H H 6 6 6 ",
"P 6 6 L W.W.W.W.m m m m m m m m m m m m m 4 ..4 4 T L 4 6 ; ^ 4 =.T 3 - : #.H 6.@.T : : L 5 > ~ ! ~ e w @.6 ; : : H H H : > L > ",
"W.W.W.W.W.W.W.m m m m m m m m m m m m m m m  .*.: W 4 6 3 6 ~ 3 =.o.W F ] W @. .Y 3 S : S - w ; ~ ] Y 3 ] 6.D 4 J ] ^ : H E ~ q ",
"W.W.4.W.W.m W.m m m m m m m m m 4.4.4.m m m m m 3 D T $.^ L : 6  .o.} K D ] #.: Y ; W P T H ; , ; F Y 6 @.*. .; ..T H : E I w : ",
"4.W.4.4.m m m m m m m m m m m 4.4.4.m m m m m m m Y 6.W 6 ; w : O.J ..J 4 6 6 6 ; #.T H 3 ; w - e ; D D ; T  .4 ..- 4 6 3 w w w ",
"4.4.4.4.m m m m m m m m m 4.4.4.m m 4.4.4.4.m m m m ] L 6 > 6 6 T W J J : : 6 w > < > : > H > < ; D : } D S J W - +.6.O.O.4 H > ",
"W.4.m m m m m m m m m 4.4.4.4.4.4.4.4.4.m m m m m m m 6 w w w > : I Q D : H 6 w L > ; - > , > > ; :  .=.*...K H ..7. .D 3 > ~ H ",
"4.m m m m m m m m m m 4.4.4.m m 4.4.4.4.m m m m m m m w w > w : ' J ; Q w : > O.O.E 6 q > < ; > H : D P +.$.#.J ..Q H D 4 T E : ",
"4.m 4.4.m m m m m m m m 4.4.4.m m 4.4.m m m m 4.m m m m > q > > ; K 6 / I ! , 6 Q E w 6 > w > E 3 S - D I  ...W O.J : Q T E 6 ; ",
"{ 4.4.m m m m m 4.4.4.4.4.4.4.4.4.4.4.4.4.4.4.m m m m m q < ; ; 6 6 > I ~ = 6 6 3 I E w q > ; E Q ; H : 3 : - H : 3 3 : 6 L > 6 ",
"4.4.4.m m m m m 4.4.4.4.4.4.4.4.4.4.4.4.4.4.4.4.m m m m m 6 ; > 6 6 w w ~ E 6 6 6 F S > L > : 6 Q E 6 ; 6 6 H : : 6 L 6 6 6 > > ",
"4.4.4.4.m m m m m m 4.4.4.m m 4.4.4.m m m 4.4.4.4.m m m m w * w > 6 6 6 ; ~ 6 I H : - 6 3 H I w ; H - @.O.4 3 6 6 > > w w > > w ",
"I.3.m 4.4.m m m 4.m 4.4.4.4.m m 4.4.4.4.m m m m m m m m m m q ; w q 6 ; ; 6 6 ^ ; H 3 @.- 6 ~ E H F H W O.4 H ; E L 6 ~ I < q = ",
"4.4.m m m m m m 4.4.4.4.4.4.4.4.4.4.4.4.4.m m m m m m m m m < > 5 6 > > > 6 6 > D  .] 6...: O.W 4 | | | : 4 4 Y I 6 w w ! < > > ",
"4.4.4.4.m m m m m 4.4.4.4.4.4.4.4.4.4.4.4.4.m m m m u u m m m w w T L w - > , E T H D  .=.T H : o.| *.=.X.: 3 ~ E w w = < q < w ",
"4.4.m m m m m 4.4.4.4.4.4.4.m 4.4.4.4.m 4.4.4.m m m m u u m u H ~ E & , = 6 6 6 ; ; - - : : : H 6 3 H : H 3 6 6 w q w w L 6 ; 6 ",
"4.4.4.m m m m m 4.m m 4.4.4.m m 4.4.4.4.m 4.4.m m m m m u u u  .E E > > > 6 ; 6 ; Q H - > > , w > ~ > w 6 ; ~ < > 6 < > 6 6 6 I ",
"4.4.4.m m m m m m m 4.4.4.4.4.m m 4.4.4.m m m m m u u m u u u =.Y I w ; > 6 : ~ > ~ L L < > w > w < I 6 6 O.Y L 6 5 6 6 w w 6 T ",
"4.m 4.4.4.m m m 4.4.4.4.4.4.4.4.4.4.4.4.m m m m m u u u u i 3 X.P H ; ; w w w ~ w L I I w > = I 6 > $.6 : 8.6 : 6 ; * 6 > 6 6 ^ ",
"4.m m m 4.m m m m 4.4.4.4.4.4.4.4.4.4.4.4.m u u m u u u u > H H H P ; T L H E E 6 > w L > < > , 3 W  .$.W J J F 4 6 6 6 6 6 ; 6 ",
"4.4.m m m m u m m m 4.4.m m 4.m m 4.m 4.4.4.m u u m u u 6 ; w > 3 K 3 +.Q 6 I > H 6 ; , , : ~ O.6.| G ..J G K | @.#.E 6 * w w ~ ",
"m 4.m m u u u u m m m 4.m m 4.4.m m m m 4.4.4.u u u u S 4 Y =.3 D : D =.P : : H H 6 : Q - H w 6 J ;.| G K K ' ;.T 3 6 6 6 q ~ ! ",
"m m m u u u u u m m m m m m 4.4.m m m m m m m u u u u 3 W =.*.4 ..| K &.: H ; P T 6 : ..L H ^ : D D o.X.G 4 ..T 4 6 6 > > w I w ",
"u u u u u u u u u m m u m m m 4.m m m m m m m u u u 6 3 6.] 4 :  .&. .J Y =.7...: : 6 O.J ^ ; H 6 4 E Y W : H 6 6 w > = w 6 5 6 ",
"u u u u u , - 6 6 u u u u m m m u m m u m m u u u 3 H 4  .T 3 H : K =.K H : 6 ; D : 6 3 Q E ; T I w ; 6 w 6 * w w ~ w 6 6 6 ; H ",
": 6 H w > , * ; H ] u u u u u u u m m u u m u u u y  .4 D D ; D : : Q Y ; 6 ; : : - L $.: : #.E L q w w 6 w 5 q > E ~ w 4 6 3 W ",
"6.L H Q L ; 6 > - : ~  .H : @.u u u m m u u u u u u y 4 4 | 7.$.=.D ; S H ; > , - ; L W O.T O., > 6 w < ^ w < > > w E E 4 3 W =.",
": : > T I 6 , w ; 6 6 Q ^ 3 > : } + + y y u u u u u y y o.*.*.^ 6 , r ; > > L ~ 6 > - ; Q ^ : L > ; 6 L E 6 L 6 > > 6 T 4 D @.;.",
"H ; 6 H E E 6 w 6 L > , > L 6 T +.+ + + + : y y y u i y 6 6 3 3 : : ; > < w > ! ~ 6 ; : 6 - 6 ; 3 3 3 ^ E ; q w * w 6 6 : J ;.G ",
"D I D D - , 6 L - > > w w I < > > + + + + ; 6 E y y u y y > H 6 6 I 6 6 6 > S : Y : D &.3 S < > 6 : > L I w w w < > w E 6 Y O.3 ",
"y Q 3 P ^ ^ > > > 6 w , = > > > > + + + + * w 6 6 y y y y 6 w 6 6 ~ U : w ~ O.: S :  .&.: > = w 6 ~ 6 : 6 e ^ r w 6 I E 3 Y H > ",
"y : D O.O.3 6 w I I E w w , > > + + + + > H ; ^ > y y y y S > w Y H ~ E 6 ; ^  .K D &.Q H 6 > - 6 ^ T I 6 6  .4 3 ^ T E 4 6 H 6 ",
"y D : H D : : T ~ H 6 - 6 6 w + + + + + ; S ^ P > I y y y 3 ^ > : 3 D 6 : 6 6 6.} K ..D H H 6 > 6 w Y P 4 W 8.' 3 J : H 3 * ; ; ",
"y &.&.4 : : 6 6 6 6 ; > I E E + + + + w I > P  .6 ; ~ - H Y E 6 &.W S 3 ^ T : : | K J I  .] ^ > > > L T 3 K *.*.D : D 3 : , 6 L ",
"=.| Q o.D  .O.=.6.] T - ; 6 T E w > ; ~ ; : O.D 3 3 : D } Q Y : &.8.H T - O.#.T H Y J K T S w > 5 6 6 3 D : G *.: G o.=.O.~ I w ",
"K  ...J D Y W ] - : : : ; H , I E w ; E ~ H > ; H : : H ] O.H 4 o.} W J H : 6.@.T ~ H P H ; 6 > = w 6 6 J W J X.K X.X.$.T : w w ",
"- K | : ; P ..: : 6 6 6 ; > 6 6 , H 3 T ] H ; H  ...$. .6 : : S  .J D : 6 6 > 6 E T 3 4 : > 6 > > E E #.=.=. .J G W T T 6 w * q ",
": : H T T : ; > O.O.I H > - , H ; P : : ..O.4 ..=.&.J : H D : D : T 4 6 3 & H w w ~ L ; 6 H 6 - w > r 6 3 L E T : 4 6 6 6 * > w ",
"D O.=...H ; H O.E ~ > I ; ; 6 #.w ; : D D : 3 ..=.: - .. .P W > H O.6 ; > ; 6 > , L < ; w > r 6 = : 6 6 w w 6 > ; ; w 6 6 6 I w ",
"Y ] T > : P - : > L w I 6 * > O.O.: H T ' =.$.K D : @.7.$.=.} : I +.6 * > w > > 6 > > > > w ~ , 6 4 ; ; w : = w ! = < > w w R > ",
"; , 6 6 H L > L 6 w L ; > > L #. .D P 6.8.o.} ..: :  .T o.| H ; H L 6 : H I > 6 > > 6 w > L I E : 6 6 > > > r ~ / < > < w w w > ",
"H H L L L , 6 > w L L > - ; H O.H H : ~  .&.@.} W H H P O.- 6 > w > 6 > w ^ , 6 H ; L , 6 6 6 ~ 4 6 6 ; ; > ^ I ! w q > w 5 > > ",
"6 > I L > 6 ~ ~ 6 w I 6 > ; 6 : : : ; T > : D H ; : 6 H H - > ; w , L > ; Q L H H > ^ , 6 6 6 6 I 4 5 6 r 6 T w 5 w : ; w 6 ; q ",
"L > > > ; : w I 6 > w 6 ; S ^ - H ; 6  .+.: > : 4 4 : ; < L * w w w 6 - ; P T I 3 H E I : 6 E 3 L 6 6  .O.6 6 : 6 6 6 > w > 6 < ",
", H ; 6 > 6 6 ^ H > 6  .; : Y ^ : L L I #.: H : T 4 6 E ( > > , w q q > ; H : E S 3 : #.- : E T : w Y ~ O.4 6 : E 3 6 E E > : > "
};
