/* XPM */
static char *ZXhpdGRvd25sMg__[] = {
/* columns rows colors chars-per-pixel */
"64 64 47 1 ",
"  c #090A14",
". c #090B14",
"X c #1E3616",
"o c #1F3616",
"O c #1E3716",
"+ c #1F3617",
"@ c #1F3717",
"# c #263A16",
"$ c #263B16",
"% c #273B16",
"& c #263A17",
"* c #263B17",
"= c #273B17",
"- c #241527",
"; c #251527",
": c #341C26",
"> c #341C27",
", c #351C27",
"< c #341D27",
"1 c #4D2A32",
"2 c #4C2B32",
"3 c #4D2B32",
"4 c #4C2B33",
"5 c #4D2B33",
"6 c #2D4217",
"7 c #2C4317",
"8 c #2D4317",
"9 c #344C1A",
"0 c #344D1A",
"q c #344C1B",
"w c #354C1B",
"e c #344D1B",
"r c #354D1B",
"t c #5E761F",
"y c #5F771F",
"u c #476920",
"i c #476821",
"p c #466921",
"a c #476921",
"s c #7B4840",
"d c #7A4841",
"f c #7B4841",
"g c #7A4941",
"h c #7B4941",
"j c #AD7657",
"k c #AC7757",
"l c #AD7757",
/* pixels */
"o$$$o##$$qptp$pq$epp$$$qq$$$e$ooo$$XX&$$$payp$pq$aaa$$$qq$$$q$oo",
"$$$$o##$$$$ptq$$errer$$rq$$$ooo$$e$$XX$qq$$ayq$$aayyi$$qq$oo$oo$",
"$$q$$OOOo##$$$$$$$$$$$&$$*OOoo$$eq$Oo$$$$$$$$&$q$$$$$$##$OO$$$$$",
"qqq$r$$$oo$$oo$$o$$$$e$$$&&Oooepqqo$$$$$$$$$q=$r=$qqq$##oO&$$$$q",
"iq$$qq$$*ooooooooo$$$ee$$$$$$pttqqXX$qqq$$$$t$qq$qq$$$XXo$$e$$$e",
"q$$$$q$eeeooo$oooo$$$re$$$r$##$pq##Xo$$qq$$ptqq$$q$$##X#$$$er$$e",
"$$qqe$ee#oOo#*$#o$$$e$re$$p$#o#$$$$&XXO&$q$ptp$$$$$$XXX&$$$ee$$$",
"$$$$e$$$oo$$#e##$$oop$$$$ta$##$$$$XXXXX&$$$rpr$$$$$$XXXX$e$$e$$e",
"r$$$$$$*o#$$ee##$$$Opt*$pte$$$eeq$$oO$$rtttpee$qpttoooo$$e$$$$ee",
"er$$$*OOo#$$eq$$eeeqptrrpe$$$$$eie$$o$$$$raaiqppq$$oo$$$$ee$$ee$",
"eer$ooO$$e#*e**$$$qqrptrr$$$&$$$pe$$$$$$$$$riq$$$$oo$$$$$$re$e$$",
"$$$$$$*#$pp$$$eee&$errtrrpppe&$$$p$$$q$$$$$$$$ooooo$$$qqe$$e$$$$",
"$$$$eeq#$ate$eee$$$$$eeeppr$$$$q$$$$qq$$$$$$$$o$$$ooqiityq$$$$$q",
"e$$$##qe$$tt$ee#&$ooo$$#$$$$$$qqe$$qe$$$atyy$$o$qq$oo$$iyy$=$$rt",
"$o$oo#$$$$epee$$$$$$ooo###$$$eee$o&qe$$$rptaa$$$qt$$$o$$qaa$qttt",
"$$$o#$$ryyeeepttpq$$e$oooo#$$$$$$$$q$$e$rrparp$rtt$$=$aaq$$qpptr",
"$e$$$$$$$ppqpytp##ooeeooO&ooo$$$$q$$$rq$$$rpe$$pip$$qitp$$$pppp$",
"$e$$$eer$$q$apq#oo$$Oee$o$$$$$$$$q$$rqq$$$$pp$rpq$$$ttpqqq$qrr$$",
"e$$e$$eeq$$$q#ooo###$$$$o$$$$$$$q$$qq=$=$$$$ree$$$$$$qqq$$$$$$$$",
"$$$er$$oo$$$$#o##qq#$$e$$$$rr$e$$$$$$$yytp$$$$$&$$$$###Xooo$$$$$",
"e$$$e$$$ooo$e$$$$$eee$p$$qe$$$e$tq$$$prypr$$$$$qqq$$p$#X$$r$$$$$",
"ee$$$$$$$$oopr$$$$$$e$pt$r$&$$e$tyq$prpar$$$$oOOqpr$pt$$rpr$$rr$",
"er$$eeq$epeorq$pe$$$$$et&$ete$$$puiq$pp$$$rrq$$o$$r$pta$pr$$rr$$",
"oe$eee$$$rpeooeq$$epttee$ete$$$$pqiq$$$$$ir$$$oo$$$$$ra$p$$$$$$$",
"$$$$$$$$$$$qeooo$ee$rttr$pp$$$$$qqee$$$$$$oo$$o$$$$a$$rroptap$$$",
"$p$$$$$$oooooo$oo$$$$rpr$$$*$$$$$qe&$&$$$$oO&Oooo$attprrptp$$$r$",
"6p$qq$$$eeoooo$eoo$$$$$$$$$$$$##qq$e$$$ppq$oooo$$$$rptprpp$$$qr$",
"$$$$qq$$$eeq$$$eeooo$$$$$$$$###o$q$er$$$qq$$oooq$$$$$ppqp$$rqq$$",
"$$#$$q$$oo$$$$$ee$$$$o*$oooooooo$$$qr$&$$qq$$ooqq$$$$$$$$$$$$$$o",
"$$$$$$$oo$$$$$$$e$$$$oOoooo$qooo$$$$ee&$$$$$$$$$qq$$$$$$$$$$$$oo",
"$$$$oooq$eeeo$r$$$$ee$$$$$$qq&O*$$$$$e$r$$$$o$q$$$$ip$$$$$$$$$o$",
"$$$oo$$$$$epr$ee$$eep$$$r$$eqO&O$$ooo$$e$$$po$qq$$rqp$$$q$$qqooo",
"X$$XO$$$$pptp$pe$ppi$$$qq$$$e&o$o$$oo$$$#uutu$ur%uup$$$rr$$$q$oo",
"$q$$OO$e$$rpte$$ppttp$$qq$$$$oo$$e$$oo$eq##utr##uuyyu$$rq$oo$oo$",
"qq$X&X$er$oo$p$qrtt$$o$q$$$$$$&$eeooo&$$XX#%$##%$$$$$$%%$$$$$$$$",
"rq$X$$$$$$Orerqqpp$oooo$$$$$$$raeeo$ooooX2234444444$%$r%$o$$$$$q",
"eq$$$$e$$$jjkkkkjkkk#$o$qqqp$=ytqqo#kkkk4413554214333ur%$oo$$$$q",
"e$$$er$$$jllfffkjfsklloo$qqqp$$jkkkjkkk444115452443333$$$$oO$$$q",
"$$$qrr$kskffkfj>3lkjlljk==$kkkkkkksjj4k44422552dss113333$$$$O$$$",
"$$$$*%kkkssfddj>5lljljjkkkkkkkffskss1444222225dds44133334pr$O$$q",
"$$r$jjffdddddd:4lllllkkkkkkkkkkkssss11133333ddd23sssf35544$$o$qq",
"pq4>>54sd;;;dd2kllslkkllkkkdddfkks55441333ssddddsss43553142oo$q$",
"p   >333ssssddddsllskkllddkkdssds455144433sss22dsss34433333$$$$$",
"$> >>>55s44sddddsllsffflkddksssss4ff1444333ssd22ss4444f33333$$$$",
"$>->>::355dsffddkkddffkkkdddddddssd2244sfsggggddsgfgss333311$$$r",
"t>->:<>355dsfdddddddfffkddddddddffd2554sssfgggfsfgggsss333313$rt",
"$>->>>>45dd4gdddddgggffkddddddddffgg52243ssf22dss244ssss33444$tt",
"$>--->>:4224ddddddgggfffgdddddddff2gd24s3sffd22ssgg43333334444tr",
"$e>>,,:>>>444s44sssfffddddddddddss33444sddddddggsddd1114143333u$",
"$e$>,:>>>>>><44sssgfffddddddddddfsss4114dddddgggsgdds41431::443$",
"r$&pi$$$qqq,:<,43s4sfgggdddddddgff3311ssddddd2sggg2sss14333:,4<$",
"$$$$$$$qq$$O#=<<114sggggdddddddfffs3311s22sss24sdds2ss143333:,<$",
"ttp$$$$$$$$oqqq:44ss4sssddddddfffgg444412sddff44ddd222442>>2:::$",
"yppp$ppttp$o##qq4444ss4sddddddfdf4ggs44sddddssffddd255444>>>:,q$",
"rppq$eepo$$oo$$qr445s51sd2dddddds222s444ddddssssdddd44,,4,>>,$$$",
"#ep$oepoo$$$oo$$$$4555ss22dddd2dss2244,44dd23s14d2ddd44,,4::$$oo",
"$&8er$Ooppq$$o$$$$$$44ss4sssdd442d44<4,,44s11ss4441sss4:::>$ooo$",
"$ptp$$$pqq$roo$p$$$$$41114s44dd422>5<<:,44444ss14444444,>>>$$$q$",
"8a7$$$$$$$$$$o$pp$$ruy4414s411444>>>>::::44:41s14115444,>>o$$$q$",
"$$$788$$$76$oo$pu$qttui41444,,::,:>>&q$oo:,:<114:14,14>>>>oo$$$o",
"$$88$$$$$66ooo$p$$$rutuu;41<::  $$&X$q$$$oq::::::13<>4>>-$$o$&$O",
"$$q$$$rq$$roO$$$$$$$$$$;;4<<-   $$$X&rq$$$q$%%%=r:44>>>>-$$o$$oo",
"##=$o$$q$$$$o$r$$$$pp$#;1,<;    $$*OOr$q$$rr##9=...;->:>--$$$$o$",
"###$O$$r$$$po$rr$$rrp$#;<,;;   o$$&OO$$q$$$uX%99....-->>--$rrooo"
};
