/* XPM */
static char *exitcarr71680168882[] = {
/* columns rows colors chars-per-pixel */
"64 64 191 2 ",
"   c #020101",
".  c #010A00",
"X  c #160202",
"o  c #081103",
"O  c #10110E",
"+  c #090A14",
"@  c #131C17",
"#  c #270000",
"$  c #330100",
"%  c #291010",
"&  c #0E2901",
"*  c #132A03",
"=  c #152A0A",
"-  c #163403",
";  c #1A3205",
":  c #1F3804",
">  c #1B320B",
",  c #17380D",
"<  c #1F3113",
"1  c #372505",
"2  c #36260B",
"3  c #392E0C",
"4  c #233502",
"5  c #233C03",
"6  c #27310C",
"7  c #223A0B",
"8  c #353403",
"9  c #222413",
"0  c #22251F",
"q  c #382913",
"w  c #253114",
"e  c #223C13",
"r  c #2D3816",
"t  c #29391B",
"y  c #333410",
"u  c #341C27",
"i  c #312222",
"p  c #302F26",
"a  c #353733",
"s  c #450303",
"d  c #431508",
"f  c #521F04",
"g  c #561314",
"h  c #76151C",
"j  c #462807",
"k  c #40300D",
"l  c #4E2314",
"z  c #53201F",
"x  c #443414",
"c  c #663219",
"v  c #691822",
"b  c #4A3820",
"n  c #533925",
"m  c #4D2B32",
"M  c #4A3335",
"N  c #692521",
"B  c #7A2322",
"V  c #7E2A2E",
"C  c #673424",
"Z  c #783121",
"A  c #7B382C",
"S  c #18410E",
"D  c #254005",
"F  c #2C4206",
"G  c #2F4903",
"H  c #27400C",
"J  c #2E4A0C",
"K  c #35500E",
"L  c #2A4214",
"P  c #294A15",
"I  c #2D431C",
"U  c #284B1C",
"Y  c #334712",
"T  c #314A15",
"R  c #36431E",
"E  c #354C1F",
"W  c #375114",
"Q  c #35511E",
"!  c #304424",
"~  c #364B24",
"^  c #395224",
"/  c #3D542D",
"(  c #384432",
")  c #444314",
"_  c #434520",
"`  c #534021",
"'  c #445D22",
"]  c #455E2B",
"[  c #55522A",
"{  c #444238",
"}  c #6E4128",
"|  c #436422",
" . c #4A6321",
".. c #4A6428",
"X. c #4D692B",
"o. c #536623",
"O. c #506A28",
"+. c #4B6331",
"@. c #436930",
"#. c #546B32",
"$. c #506638",
"%. c #536A3B",
"&. c #4D783A",
"*. c #557330",
"=. c #5A7331",
"-. c #5B7539",
";. c #676E38",
":. c #627835",
">. c #3D3A40",
",. c #454546",
"<. c #574445",
"1. c #585244",
"2. c #4D4F50",
"3. c #565555",
"4. c #6F4C48",
"5. c #665554",
"6. c #5C7540",
"7. c #5E7B40",
"8. c #637B43",
"9. c #7C6857",
"0. c #5D5C61",
"q. c #695E63",
"w. c #6C6668",
"e. c #767070",
"r. c #881B19",
"t. c #9D1522",
"y. c #AB1720",
"u. c #A41E25",
"i. c #AA1A26",
"p. c #B31729",
"a. c #B31C28",
"s. c #B41F30",
"d. c #892724",
"f. c #8C2925",
"g. c #88252E",
"h. c #992223",
"j. c #9B2129",
"k. c #96282D",
"l. c #873024",
"z. c #9C332A",
"x. c #992532",
"c. c #883331",
"v. c #983436",
"b. c #A82224",
"n. c #AC2A2D",
"m. c #A52130",
"M. c #B52730",
"N. c #BB2435",
"B. c #A83337",
"V. c #A53F38",
"C. c #B53235",
"Z. c #BE353B",
"A. c #C52435",
"S. c #CA3336",
"D. c #C43539",
"F. c #CE3039",
"G. c #D1383D",
"H. c #914C37",
"J. c #993544",
"K. c #AB2D42",
"L. c #B93541",
"P. c #C73541",
"I. c #935249",
"U. c #9A5B5D",
"Y. c #B5494B",
"T. c #886858",
"R. c #9A645C",
"E. c #A7635B",
"W. c #A55D61",
"Q. c #996667",
"!. c #95696B",
"~. c #8E7B74",
"^. c #A86F73",
"/. c #C94547",
"(. c #D74C55",
"). c #E35D61",
"_. c #D4696E",
"`. c #E66568",
"'. c #7F8778",
"]. c #88857C",
"[. c #918579",
"{. c #9D7E83",
"}. c #8A8684",
"|. c #958D89",
" X c #9B9A9B",
".X c #B99E9A",
"XX c #B2A39A",
"oX c #AE9FA3",
"OX c #B3A3A5",
"+X c #D69E9F",
"@X c #DDB7B9",
/* pixels */
"> ; w 7 * e w 6 7 W | &.@.:  .) 5 T %.' 5 F 5 T ^ 7 > H ! t 2 2 1 g j d f g d j 5 @.@.&.@.5 o.G D | | | 4 5 ; ~ I I > , P , ; - ",
"e H 7 w > , e 6 6 5 5 @.*.W D ; ^ T 7 Q Y 7 - ~ I 6 x p < e 9 9.T.T.9.9.T.T.T.9.~ e , $.%.) 8 F  .o.*.:.#.5 5 I I 6 > > P - ; H ",
"; 7 T e S , > > 6 7 7 7 7 7 : e , < L L - , , - t q d 9.9.'.'.].}.|.].].}.].].[.].e.[.[.!.T.4.I.f j D D 7 6 e L 7 w = 6 r w e e ",
"Q Y ^ e U S , , 7 = e > > e L , > S - , P E L r q z W.W.[.XX|. X X X X X|.}.}.].}.|.{.{.^.^._.{.I.H.` ` b 3 6 > ; 7 6 r 6 e e I ",
"@.I 7 4 L Q H S e > , , , * = = < = H < - Q Y 1 ~.Q.U.Q..XXXXXXXoXoXOXOXoXoXOXOXoXOXoX.X@X@X@X+X^.Y.J.g.g.g k 6 - 7 e R > - H ~ ",
"T : 7 6 J P 7 Y x ` 1 2 q x q u 1 2 3 3 3 x C E.E.I.V V U.W.R.Q.!.!.!.!.Q.!.!.!.Q.!.Q.Q.^.Q.^.Q.g.z.m.i.u.d.Z f 3 6 y ) ~ H : E ",
"e L Y T P : ) c h B.B.B.v.H.v.v.v.V.Y.Y.V.Y.V.Z.b.t.j.h.d.g.x.x.g.c.c.g.v.k.k.v.v.z.x.x.B.B.m.L.B.K.N.P.s.M.n.z.Z l j ) Q H 4 : ",
"7 6 6 5 ) 1 H.V.C.D.P.P.Y._._.).`.(.D.S.S.D.S.F.A.Z.M.C.B.C.D.S.C.V.B.C.Z.M./.`.`.`.(.).(.L.L._.L.L.P.D.L.N.D.N.C.z.Z j Y 5 e T ",
"~ ; 8 j f H.C.P.G.C.k.V A c.v./.P.(.F.F.A.S.S.S.D.D.D.D.D.D.F.F.D.D.Z.Z.D.D.D./././.V.F.P.L.L.Y.x.B B l.j.L.P.F.S.C.h.c.j 5 Q P ",
"~ _ j I.V.C.D.s.t.d.s X X # N c.K.N.A.A.A.S.G.S.D.D.Z.L.D.D.F.F.D.N.M.i.p.p.p.b.j.b.b.b.N.L._.J.g # X X N d.K.C.S././.f.j Q P S ",
"! x } j.D.F.L.x.v d l M i X 4.g h x.a.A.i.i.y.y.i.h.u.u.j.u.u.y.i.y.u.i.b.i.i.i.b.t.i.i.i.x.B z l + { % n $ h L.D.A.K.c.j R : S ",
"r x N r.s.N.m.h $ ,.  >.>.@   M $ V t.K.a.i.y.n.b.b.u.u.u.u.u.b.y.i.i.m.i.a.y.y.t.b.i.b.x.J.# <.X O 1.i 9 5.s J.L.L.m.c.2 7 H , ",
": 3 j g x.k.k.z i >.@ 2.>.2.0 m % N x.N.s.p.i.y.u.b.p.p.p.y.y.i.i.a.M.s.s.a.a.a.M.a.a.M.n.N % q X i 3.3.% 3.z N K.K.v.} 3 5 y W ",
"~ y n $ h x.V g 2.u ,.3.e.e.3.M { $ k.y.s.M.N.n.n.n.s.N.A.N.M.M.M.M.M.M.s.s.N.M.i.M.n.n.k.# 5.0 M w.w.w.3.i 4.g g.k.Z f 8 H 8 ;.",
"> : 9 d h x.g.g <.,.2.w.5.q.<.<.n $ B j.m.m.n.M.n.n.M.M.a.M.n.n.n.n.b.i.i.i.u.u.b.b.r.h.V # 3.,.2.w.0.w.4.m 5.2 N C ` 8 K =.:.:.",
", 7 6 1 Z v g.$ p a + <.<.5.0 0 9 n N B Z B l.f.l.f.d.d.f.f.l.l.Z l.f.f.d.f.l.Z l.l.l.Z l 4.0 0 + p 3.2.q { i [ n k 8 )  . .:.G ",
"> Q 7 6 3 k k i 9 { o a a   . {   w 2 2 b ` 2 1 1 3 2 1 2 2 k j x b 1 x 1 ` x 3 1 x ) [ x 6 . (   @ ,.@ 9 1.  6.w 6 5 X.X.#.X.: ",
"H I 4 7 7 ^ ~ ) t @ 9 ( a   2.a w = e L = L Q > e > w < e w 7 7 > E 7 7 K Y P : 4 5 5 #.+.e ! ( a O ,.@ { . %.t E I H P T 7 5 H ",
"H H H T 7 7 t ( ! p o w 9 @ w 0 > < e - : 7 : e - 7 6 e 7 L 7 7 Q 4 7 Y T 5 I D 5 5 H 7 I ~ ~ w o 0 0 9 t R E T : H : - 4 7 7 7 ",
"H 7 5 E T e 7 e > > I < I < < < t I ~ H H : T : 4 7 L Q r e e 7 5 5 5 7 7 7 %.-.#.X.e 7 e > 7 e t w w e > 7 > : : & - H L 7 : 7 ",
"P : 7 e R H e ; ; > ; 7 ~ > Y e w 7 E T P 4 X.5 5 T I 5 7 - ^ 5 -.Y 5 - > %.H -.O.T 5 : L > 7 ~ ! ~ r e $.7 - 5 H H H 7 : > e 7 ",
"~ E H 7 7 - H 7 , 7 7 4 +.Y 7 = 7 7 7 5 W 5 ..=.: W 5 7 5 6 ^ 4 -.O.W D ..W #...Y 6 S : S ; e ; ~ ] Y 4 ] 6.D 5 J ] Q 7 H E ~ < ",
"U Q > H P Q P 7 P ..~ & ^ P - 6.I e ; 5 5 5 W #.4 D Y %.~ L ; 7 ..O...K 5 ] $.; I ; W P T H - < ; F Y 7 #.=...- X.P 7 5 E I e 7 ",
"; U 7 Q T ^ > : ; ^ | ^ - - Y L 7 7 Y $.-.-.J Y 5 Y 6.W 7 ; e 4 ..J X.J 5 5 H 7 : $.Y H 5 - e - r - 5 F - W ..4 X.- 4 7 5 7 e m ",
"7 e 4 7 7 7 5 7 5 7 7 E ~ * - 7 L R I H F -.-.Y 5 +.] I 7 ; 7 7 T W J J : 5 7 e > e > 7 ; e > < - D : | : D J W - X.6.] $.: m m ",
"7 ..H 7 7 5 7 7 > 7 ; ; : 7 7 - * 7 L 7 7 W ] W 4 H > 7 e e e > > L ^ 5 ; H 7 e I > ; - ; > > > ; : +.-.-.O.K 5 X.7...D 4 m m m ",
"r +.7 Y ~ ; L , ~ Y 7 * > * 7 ~ > - 7 : 5 : H 4 7 ; ; L e > e 7 ' J - E e ; > +.] U 7 w : < = > H : D P @.*.$.P X.Q H D 5 m m m ",
"7 7 7 r ~ T : H 7 Q ~ I L e e ~ ! > ; ; 7 6 7 7 7 e e e > w > 7 - W 7 ] I I e 7 ^ E L 7 > e > E : H - D I ] X.W +.J : Q m m m m ",
"5 4 7 : e ~ : < > 7 e > 7 7 e I ~ 7 > 7 7 ; 7 e ; w = > < < - ; 7 7 : I ~ = 7 7 4 Y ~ e w > ; E Q - S 4 5 4 - H : 5 4 ; m m m m ",
"7 7 e L ; 7 H , ; > 7 e 7 7 7 7 E e 7 7 7 ; * > > > = e ! 7 * 6 7 7 e e ~ E 7 7 7 F , > e > 7 7 Q ~ H ; 7 7 7 5 : 7 r m m m m m ",
"e e > , , > 7 L 7 E Q P > > T H 7 4 7 I ^ 7 7 7 e w e ( ~ e ; e > 7 7 7 ; ^ 7 I 7 5 ; 7 5 7 I e ; H - #.+.4 5 7 7 ; > m m m m m ",
"> e , ; ; S > L ; H P ..^ 4 T T 5 4 ^ E ] 7 r 7 ~ e e ! ! > < - r w 6 ; - 7 7 ~ 4 7 5 #.- 7 E E H F H W +.5 H ; ~ L m m m m m m ",
"; e e > , : 6 7 5 X.X.-. .S X.J D ' X.O.: D H P Y e 7 > ! t w : > 7 > > > : 7 > D X.] 6.X.4 #.W 5  . . .: 5 5 Y I > m m m m m m ",
"I I e > < > H Q 5 D P ..=.J : D O.O.#.*.X.: - Q ~ * I e < > > 7 < E L L - > , ~ T H 5 ..-.T 7 - O. .=.-.o.4 4 ~ Q m m m u u m m ",
"I U 7 > ; > 7 T I H * D 5 X.H P G *.*.H ; ; < ~ e e > 7 S 6 5 7 ~ E & , > 7 7 7 ; - - - > 5 : H > 4 7 7 H 5 7 7 w u m u u m m m ",
"E U L > 7 , e 7 ; 5 ; Y T Q T T X.| H - 7 > > t e 7 H : 5 D I ' Q Q > > > 7 ; > - ~ H - ; > S e : E 6 e 7 ; ~ > > i u u m m m m ",
"E T 7 ; e e L 7 7 L 6.6.+.- E = - , ; < > < > L E Y I  .5 : :.-.Y R e ; > 7 7 ~ > E L L , = < > e < I e 7 +.Y L 7 u u u m u u m ",
"Y 7 - r ^ I e 7 H +.+.t L e = L S r ~ ~ ~ e > - * Q K K o.5 : o.T 7 - - e , e ~ e L I I e > > I 7 > $.7 4 8.7 : 7 ; u u u u u m ",
"7 5 S Y ~ U 7 7 ; 7 H S > H > 7 , P P 5 7 - 4 - F 7 H ' +.7 7 7 H P ; T I 7 E E 7 > L , > e > e 5 W ] #.W J J F 5 7 7 u u u u m ",
"5 : 7 7 7 7 > ; 7 T I W F ; H : J K H - H H e Q E - 7 ; 7 ; e 7 5 K 4 @.Q 7 L 7 L : > L ; > ~ +.6...G O.J G K ..#.$.^ 7 u u m u ",
": H I 7 e > 7 ; : : : Q P 5 H : D - : H > ~ ~ U I 7 T , 5 T -.: 5 : 5 -.P : : H H 7 : Q ; H e > J :. .G K K ' :.W 7 e 7 7 u u u ",
"$.Y Q 7 - ^ E - 7 H 7 : K 5 : =.-.-.] H : L < ~ ~ L 7 4 W -.=.5 X. .K =.: D - T T 7 : +.L H ^ 5 D D O.o.G : X.T 5 6 : : > u u u ",
"@.^ = L ~ ~ 7 ; : 6.J : : : O.] *.| W H ; ; , ; L E 7 5 -.+.5 5 ..*...J Y 6.7.X.> 5 H +.J ^ ; H 7 5 E T W : H 7 7 e > = e 7 u u ",
"; $.7 - e , - 6 7 -.6.P 5 ..J X.@.W 5 4 ^ E 7 > H 4 7 : ..T 4 7 : K -.K D : 7 ; D : : : Q E - P I e : > L 7 = e e E e 6 7 7 u u ",
"5 7 H e > > - ; H +.X.X.: D L X., 7 : H T 5 , H | #...: 5 D - D : : Q Y - 7 ; : 5 - I #.5 4 %.~ L < e e 6 e : w > E ~ e 7 7 + + ",
"6.L 7 Q L - 7 > - > ~ +.H 7 #...H : D > - ; X.8.-. . .5 D  .8.#.-.D ; , L ; , < ; ; S W +.T +.: > 7 e w ~ e w > > e E ~ 5 5 + + ",
"; 5 7 T I : e 7 ; : > ~ ^ 4 - : | X.I : 4 - - > H - H : O.=.=.^ > - I - > > L E 7 > - ; ~ ~ 7 H : ; 7 L Q 7 Y 7 > > 7 T 5 + + + ",
"7 - 7 7 ~ E > e 7 L : , : L H T @.-.-...4 : e 7 E T Y 5 7 7 4 7 5 7 ; > < e > ! ~ 7 ; : 7 - 7 - 4 4 5 ~ ! ; w e * e 7 7 4 + + + ",
"F I D D - e 7 , ; > > S e t < > ; , = > : > 7 E P 7 7 7 7 : H > 7 I 7 7 7 > e 5 T : D #.: e < > > 7 7 r I r e < < > e Q 6 + + + ",
": Q 5 P ~ ^ > > > H < e > > > > , < L : & ; L 7 7 T 4 ; e , e : 7 E U 7 e ~ ..5 D : ..*.: ; = e e E 7 ; 7 e ^ L e 7 I E + + + + ",
"K : 5 +.+.5 7 S I I E e e > > > ; > t = > S > ~ > E ^ H : L 6 e Y H E E : > Q +.K D *.Q D 7 > , 7 ^ T L 7 7 ..4 5 ^ T Q + + + + ",
"5 D 5 7 D 4 7 T ~ H 7 - 7 7 e , < e > > > : ^ T > I I S : : ^ ; : 5 D 7 ; 7 S 6.| K X.D H H 7 > 7 e Y P 5 W 8.' 4 J : 7 + + + + ",
"-.-.X.: : : H : L : - 7 I ~ E H e > < e L 7 P +.H ; E - H Y ~ S *.W 7 : ^ T : : ..K J P ....~ > > > e Y 5 K =.=.D : D 7 + + + + ",
"-. .' O.D ..+.6.6...Y - - 7 P E e 7 - ~ ; > +.5 5 ; 5 D | Q T : *.8.H T - +.$.Y H P J K Y S , 7 7 7 7 4 5 5 G =.: G O.6.X.+ + + ",
"K ..O.J D T W ] - ; ; > ; H H I ~ e > E E H : ; 5 : : H ] +.7 : #.' W J 7 : 6.$.T E 7 Y H : 7 > = e 7 7 J W Y o.K o.o.#.T ; e e ",
"- K  .- - Y X.; 5 > 7 H - ; > 7 > 7 5 P ..H - 7 ..X.$.+.7 7 5 5 ..J D : 6 7 7 7 Q T 7 5 > > 7 > > E ~ $.-.:...J G W T T 7 e * w ",
"5 ; H T T 7 - > +.+.~ : > ; S e ; P 5 : O.+.: X.-.*.J : H D : : : P 5 7 5 * e 7 e ~ e ; 7 e 7 - e 7 e 7 ; Y ^ Y : 4 7 7 7 * > e ",
"5 +.-...H ; H +.E ~ > I - ; 7 $.L - ; D 5 5 4 O.-.: - X...T W 5 7 X.7 - > ; > 7 S L w - e 7 L , = ; 7 7 e e 7 ; > - e 7 7 7 I e ",
"Y ] T 7 : P ; : > L , I 7 - > +.] ; H T ' -.%.K D : O.8.$.-.| 4 I @.7 * > e : > 7 > > > > e E < 7 5 ; ; e ; = e ! * < > e e R : ",
"- S 7 7 H L > L 7 H I ; > > r +.+.D P 6.8.#.| O.: : ..P #...7 ; H L 7 : e I > 7 > > 7 , > r I E ; 7 7 > > 6 t ~ / w > < r e e > ",
"e 7 e L e 7 > > , L r 7 - ; H +.7 H 5 E ] *.$.| W H H P @.: 7 > e , > : e Q e 7 7 ; L L 7 7 7 ~ 5 7 7 4 - > ~ I R e w > e > > > ",
"7 7 I Y 7 7 ~ ~ 7 L L 7 > ; 7 7 5 : > T > : D H - : 7 H H , > - e < I > ; Q L 7 e : ^ > 7 7 7 7 I 4 6 e L 7 E e > e 7 ; e > > r ",
"e 7 > > ; 7 , I e : e 7 - S Q : H ; H ..@.5 : : D 4 : : < L ; < : e 7 ; - T T I 5 H E T : 7 E 5 I 7 7 ..+.7 7 ; 7 7 7 > e > 7 < ",
"> 7 ; 7 > 7 7 ~ L > 7 ..- : Y ~ 7 e L T $.; H : T 5 7 E ( = > , e t < > : 7 4 Q , 5 ; %.; ; E Y - e Y E +.5 7 4 ~ 4 7 E Q > > : "
};
