/* XPM */
static char *exitcarrdown11680168883[] = {
/* columns rows colors chars-per-pixel */
"64 64 192 2 ",
"   c #020101",
".  c #010A00",
"X  c #160202",
"o  c #081103",
"O  c #10100E",
"+  c #090A14",
"@  c #131C17",
"#  c #270000",
"$  c #330100",
"%  c #281010",
"&  c #0E2901",
"*  c #132A03",
"=  c #152A0A",
"-  c #173403",
";  c #1A3205",
":  c #1F3804",
">  c #1B330B",
",  c #17380D",
"<  c #1F3113",
"1  c #372505",
"2  c #36260B",
"3  c #392E0C",
"4  c #233502",
"5  c #233C04",
"6  c #27310C",
"7  c #223A0B",
"8  c #353403",
"9  c #222413",
"0  c #22251F",
"q  c #382913",
"w  c #253114",
"e  c #223C13",
"r  c #2D3816",
"t  c #29391B",
"y  c #333410",
"u  c #241527",
"i  c #341C27",
"p  c #312222",
"a  c #302F27",
"s  c #353733",
"d  c #450303",
"f  c #421508",
"g  c #521F04",
"h  c #561314",
"j  c #76151C",
"k  c #462807",
"l  c #40300D",
"z  c #4E2314",
"x  c #53201F",
"c  c #443414",
"v  c #663319",
"b  c #691823",
"n  c #4A3820",
"m  c #533925",
"M  c #4D2B32",
"N  c #4A3335",
"B  c #692521",
"V  c #7A2322",
"C  c #7E2A2E",
"Z  c #673424",
"A  c #783121",
"S  c #7A382C",
"D  c #18410E",
"F  c #254005",
"G  c #2E4604",
"H  c #27400C",
"J  c #2E4A0C",
"K  c #35500E",
"L  c #2A4214",
"P  c #294A15",
"I  c #2D431C",
"U  c #284B1C",
"Y  c #334712",
"T  c #314A15",
"R  c #36431E",
"E  c #354C1F",
"W  c #375114",
"Q  c #35511E",
"!  c #304424",
"~  c #364B24",
"^  c #395224",
"/  c #3D542D",
"(  c #384432",
")  c #444314",
"_  c #434520",
"`  c #534021",
"'  c #445D21",
"]  c #455E2B",
"[  c #55522A",
"{  c #444238",
"}  c #6E4128",
"|  c #466422",
" . c #4A6428",
".. c #4D692B",
"X. c #526825",
"o. c #4B6331",
"O. c #436930",
"+. c #546B32",
"@. c #506638",
"#. c #536A3B",
"$. c #4D783A",
"%. c #557330",
"&. c #5A7331",
"*. c #5B7539",
"=. c #676E38",
"-. c #627835",
";. c #3D3A40",
":. c #454546",
">. c #574445",
",. c #595244",
"<. c #4D4F50",
"1. c #565555",
"2. c #6F4C48",
"3. c #7A4841",
"4. c #665554",
"5. c #5C7540",
"6. c #5F7B40",
"7. c #637B43",
"8. c #7C6857",
"9. c #5D5C61",
"0. c #695E63",
"q. c #6C6668",
"w. c #767070",
"e. c #881B19",
"r. c #9D1522",
"t. c #AB1720",
"y. c #A41E25",
"u. c #AA1A26",
"i. c #B31729",
"p. c #B31C28",
"a. c #B41F30",
"s. c #892724",
"d. c #8C2925",
"f. c #88252E",
"g. c #992223",
"h. c #9B2128",
"j. c #96282D",
"k. c #873024",
"l. c #9C332A",
"z. c #992532",
"x. c #883331",
"c. c #983436",
"v. c #A82224",
"b. c #AC2A2D",
"n. c #A52130",
"m. c #B52730",
"M. c #BB2435",
"N. c #A83337",
"B. c #A53F38",
"V. c #B53235",
"C. c #BE353B",
"Z. c #C52435",
"A. c #CA3336",
"S. c #C43539",
"D. c #CE3039",
"F. c #D1383D",
"G. c #914C37",
"H. c #993544",
"J. c #AB2D42",
"K. c #B93541",
"L. c #C73541",
"P. c #935249",
"I. c #9A5B5D",
"U. c #B5494B",
"Y. c #886858",
"T. c #9A645C",
"R. c #A7635B",
"E. c #AD7757",
"W. c #A55D61",
"Q. c #996667",
"!. c #95696B",
"~. c #8E7A74",
"^. c #A8696D",
"/. c #A9777C",
"(. c #C94547",
"). c #D74C55",
"_. c #E35D60",
"`. c #D4696E",
"'. c #E66569",
"]. c #7F8778",
"[. c #88857C",
"{. c #918579",
"}. c #9D7E83",
"|. c #8A8684",
" X c #958D89",
".X c #9B9A9B",
"XX c #B99E9A",
"oX c #B2A39A",
"OX c #AE9FA3",
"+X c #B2A3A5",
"@X c #D69E9F",
"#X c #DDB7B9",
/* pixels */
"> ; w 7 * < w 6 7 W | $.O.: | ) 4 T #.| 5 5 : T Q 7 > e ! t 2 2 1 h 3 f g h k k : O.O.$.O.: X.G F | | | 4 4 4 ~ U L 7 , P e ; - ",
"e H H w , , e 6 6 5 F O.%.W F - ^ T 7 ~ T 7 - ^ I 6 c a < e 9 8.Y.Y.8.8.Y.Y.Y.8.~ e e o.+.) 8 F | X.%.-.+.5 : I I 6 > > e - ; D ",
"; 7 L e D , > 7 6 7 : 7 e : : L , e H L ; , H > r q f 8.8.].].[.|./.].|.|.[.~.[.[.w.[.[.!.Y.2.P.g k F D 7 6 e L e < = 6 r w e e ",
"Q T ^ e U D < , 7 * e > > < L , > D - > P E D r q x W.W.{.oX X.X.X.X.X.X X|.|.[.|. X}./././.`./.P.G.` ` n 3 6 > : 7 6 r w e w Y ",
"O.I 7 4 L ~ F D e > , , , * = = < , , w - Q T 1 ~.Q.I.^.oXoXoXoXOXOX+XOXOXOX+X+XOX+XOXXX#X#X#X@X/.(.H.f.f.h 3 6 ; 7 7 R > ; e Q ",
"T : 7 6 J P 7 T c ` 1 2 q c q p 1 2 3 3 3 c Z R.R.P.C C I.I.T.Q.!.!.!.!.!.!.!.!.Q.!.Q.Q./.Q.^.^.f.l.n.y.y.s.A g 3 6 y ) ^ D 4 E ",
"7 L T T P : ) v j N.N.N.c.G.c.c.c.B.U.U.B.U.B.S.v.g.r.g.d.f.z.z.f.x.x.f.c.j.j.c.c.l.z.z.N.N.n.K.N.J.a.L.p.b.b.l.A g k ) Q H 4 6 ",
"7 6 6 5 ) 1 G.B.V.S.L.L.U.`.`._.'.).S.A.A.S.A.D.Z.S.m.V.N.V.L.A.V.B.N.V.C.m.(.'.'.'.)._.).K.K.`.C.K.L.L.K.M.L.M.C.l.A k T 5 7 P ",
"~ > 8 l g G.V.L.F.V.j.C S x.c.(.L.).D.D.Z.A.A.A.S.S.S.K.S.S.D.D.S.S.C.S.S.S.S.(.(.(.B.F.L.K.K.U.z.V V k.r.K.S.S.A.V.g.x.k 5 Q P ",
"~ ) k P.B.V.S.M.r.s.d X X # B x.J.M.Z.Z.Z.A.F.D.S.S.S.C.S.S.D.D.S.M.m.u.i.i.i.v.h.v.v.v.a.K.`.H.h # X X B d.J.C.A.(.(.d.k Q P D ",
"R n S g.S.D.K.z.b 1 x M p X 2.h j z.a.Z.u.u.u.t.u.g.y.y.h.v.y.t.u.u.y.u.v.u.u.u.v.r.t.u.u.z.V x z O { % m $ j K.L.Z.J.x.k ~ - D ",
"7 c B e.a.M.n.b $ :.  ;.;.@   N $ C r.N.p.u.t.v.y.v.y.y.y.y.y.y.t.u.u.n.u.u.t.t.r.v.u.y.z.H.# >.X O ,.p 9 4.$ H.K.K.n.x.2 7 H , ",
"> 3 k h z.z.j.h p ;.@ <.;.<.u N % B z.M.a.i.u.t.y.v.i.i.p.t.t.u.u.i.m.m.a.i.p.p.m.p.p.m.b.B % q X p 1.1.% 4.x B J.N.c.} 3 5 y W ",
"~ y ` $ j z.C h >.0 :.1.w.w.1.N { $ j.u.a.m.M.b.b.b.a.M.Z.M.m.m.m.m.m.m.a.a.M.m.t.m.b.b.z.# 4.0 s q.0.q.1.i 2.h f.j.A g 8 F 8 =.",
"> > 9 f j z.f.h >.:.<.q.4.0.>.>.m $ V r.n.n.b.m.b.b.m.m.p.m.m.b.b.b.v.u.u.u.y.y.v.v.e.h.C X 1.:.<.q.9.q.2.N 4.2 B Z m 8 K %.-.-.",
", 7 6 1 A b x.$ a s O >.>.4.0 0 9 m B V A V k.d.k.d.d.d.d.d.k.k.A k.d.d.d.d.k.A k.k.k.A g 8.0 0 + a 1.1.q { i [ m l 8 ) | X.-.G ",
": ~ 7 6 3 l l p @ { o s s   . {   w 2 2 n ` 2 1 1 l 2 1 2 2 l k c n 1 c 1 ` c l 1 c ) [ ) 6 . (   @ :.@ 9 ,.  5.w 6 5  ...+...: ",
"H L 4 7 H ~ ~ _ t 9 9 ( s   <.s w = e e > e Q > e > < < e w 7 7 > I 7 7 K T L : 4 5 4 +.o.e ! ( s + :.@ { . #.t ~ L H T T 7 5 H ",
"H H H T 7 7 e ( ! a o w 9 @ w 0 , e e ; > 7 7 7 ; 7 > e 7 e 7 7 Q 5 H T E 5 T D F 5 H 7 I ~ ~ w o 0 0 9 t R E P : H D - 5 H 7 7 ",
"H 7 5 E T e 7 e > > t < I < < < t I ~ 7 5 5 T 5 4 7 L ~ L e e 7 5 5 : F 6 : +.*.+...7 e e > 7 e t w w t 6 7 > 5 : & ; F 7 7 > 7 ",
"P : , L R H e ; ; > ; 7 ~ > L L e 7 ~ T T 4 ..5 5 T P 5 7 ; ^ 5 *.K 4 ; > #.H 5.+.P 4 4 L > > ~ R ~ r e @.7 - : D H H H 5 > L 7 ",
"~ ~ H : 7 - 7 7 D > 7 : o.T 7 : 7 7 7 5 W 5  .&.: W 4 H 5 7 ~ 4 *...W F ] W +. .Y 5 D : 7 ; e ; ~ ] T 4 ] *.5 5 J ] Q : 7 E ~ < ",
"U E > H T Q P 7 T o.^ & ^ T - #.I e ; 4 5 5 E +.: F T ,.Q Y ; 7  ...| K :  .@.4 L ; W P L H - e ; G Y 7 +.&. .- ..T H : E I e 7 ",
": U 7 E T Q : 7 - Q | ~ - - P L 7 7 Y @.*.*.J K 5 T *.W 7 ; e : ..J ..J 5 5 H 7 ; @.T H : ; e ; r - 5 F ; W  .5 ..- 5 6 : 7 e e ",
"7 e 4 > 7 7 5 7 5 7 7 Q E - * 6 e R Y H G *.*.Y 5 ..] L 7 > 7 7 T T J J 5 5 7 e > e > : ; e > 7 - F : | 5 F J W - ..5.] @.: H > ",
"7  .H 7 7 4 7 7 ; 7 ; ; 6 7 7 - * 7 L 7 7 W ] W : 7 7 7 e e e > : Y Q F : 7 D w I > ; ; ; 7 = , ; : o.*.*...W F ..*. .F 4 7 ~ H ",
"r o.H T ~ ; D H Q L 6 - > M M M M M M M M : L 4 7 > ; e e > e : ' J ; E e ; > @.] E 7 w > w ; > H : F P O.+.@.J ..^ H F 4 P E : ",
"7 H 6 e ~ T e 7 7 E ~ M M M M M M M M M M M M M 7 e e e > < > 6 - W 7 / L I e 7 Q ~ D 7 > , > ~ 5 D ; 5 L O...W o.J : Q T E 7 ; ",
"5 ; e 7 7 ~ > > > 7 M M M M M M M M M M M M M M E.E.E.E.w w ; - 7 7 > I ~ , 7 6 4 L E e E.E.E.E.E.E.E.E.E.E.- 7 5 4 4 > 7 L 7 7 ",
"7 7 7 L ; 7 L H M M M M M M 3.3.3.M M M M M M M M E.E.E.E.E.E.E.E.7 e e ~ ~ 7 7 r 5 E.E.E.3.3.E.E.} 2.P.E.E.E.: : H L 7 7 7 > > ",
"e e > , , > 7 M M M M M M M M 3.3.3.M M M M M M M E.M E.E.3.E.E.E.E.E.E.E.^ : L E.E.E.E.E.E.E.M i E.3.E.3.3.E.3.E.; > e e > > e ",
"> e , - ; , M M M M M 3.3.3.3.M M 3.3.3.M M M M M M M M 3.3.E.3.3.3.E.E.E.E.E.E.E.E.E.E.E.E.E.M i E.3.3.3.3.3.E.E.E.7 ! L < w = ",
"> , 7 > > M M M M M M M M 3.3.3.3.3.3.3.3.3.M M M M M M 3.3.3.3.E.E.E.E.E.E.E.E.E.E.E.E.E.E.E.E.M i 3.3.3.3.3.3.3.3.E.E.! < , > ",
"L I e > < M M M M M M M M 3.3.3.3.M M 3.3.3.M M M M M M M M 3.E.E.3.3.3.3.E.E.E.E.E.E.E.E.3.E.E.E.M 3.3.u u u 3.3.M M i i M < e ",
"I U 7 > M M M M M 3.M M M M 3.3.M M 3.3.3.M M M M M M M M M M 3.3.3.3.3.E.E.3.3.E.E.E.E.3.E.E.3.3.3.3.3.3.3.3.3.M M M i + + + 7 ",
"E ~ L > M M M M M M 3.3.3.3.3.3.3.3.3.3.3.3.3.3.3.M M M 3.3.M 3.3.3.3.3.E.3.3.E.E.3.3.3.3.E.E.3.3.3.3.3.3.M M 3.M M i i i + i I ",
"~ T > M M M M M M 3.3.3.3.3.3.3.3.3.3.3.3.3.3.3.3.M M M M 3.3.3.3.3.3.3.3.3.3.E.E.E.3.3.3.3.E.E.3.3.3.3.3.3.M M M i i i i u p T ",
"Y : - M M M M M 3.3.3.3.M M M 3.3.3.M M 3.3.3.M M M M M M 3.3.3.3.3.3.3.3.3.3.3.E.3.3.3.3.3.3.3.3.3.3.3.3.3.M M M i i i i u i ~ ",
"H 5 M M M M M M M M M M M 3.3.3.3.M M 3.3.3.3.M 3.M M M 3.3.3.3.3.3.3.3.3.3.3.3.E.3.3.3.3.3.3.3.3.3.3.3.M 3.3.M M i i i i u i 7 ",
": 5 M M M M M M M M M M 3.3.3.3.3.3.3.3.3.3.3.3.3.M M 3.3.M 3.3.3.3.3.3.3.3.3.3.3.3.3.3.3.3.3.3.3.3.3.3.M M M M i i i u u u i ~ ",
": M M M i i M M M M M 3.3.3.3.3.3.3.3.3.3.3.3.3.M M M M M M 3.3.3.3.3.3.3.3.3.3.3.3.3.3.3.3.3.3.M M 3.M M M i i i i i i i i ~ ~ ",
"#.i M i i M M M M M 3.3.3.M 3.3.3.3.M 3.3.3.3.3.3.3.M M 3.3.3.3.3.3.3.3.3.3.3.3.3.3.3.3.3.3.3.3.3.M M i i i i i i i i i i e I e ",
"O.i i i M M M M M M 3.3.M 3.3.3.3.M M 3.3.3.M M 3.M M M M M 3.3.3.3.3.3.3.3.3.3.3.3.3.3.3.M 3.M M i i i i 5 H 7 7 e > = L 7 6 7 ",
"> i i i M i i M M M M M M 3.3.3.M M 3.3.3.3.3.M M M M M M 3.3.3.3.3.3.3.3.3.3.3.3.3.3.3.3.M M M i i ; 7 e 7 * e t E e 7 7 7 ; 7 ",
": 7 i i i i i M M M M M M 3.3.3.3.3.3.3.3.3.3.3.3.M M M M M 3.3.3.3.3.3.3.3.3.3.3.3.3.M 3.3.M M i w e e 7 e > w > E ~ e 5 7 : W ",
"5.L H i i i i M i i M M 3.3.3.3.3.3.3.3.3.3.3.3.M M M M 3.3.3.M 3.3.3.3.3.3.3.3.3.M 3.3.M M M M > 7 e < ~ e w > > e Q E 4 : K *.",
": : > T i i M i i M M 3.3.3.M 3.M M 3.M M 3.3.M M i M M 3.M M M 3.3.3.3.3.3.M 3.3.M M 3.M M M L > - 6 L E 7 L > > > 7 T 5 F +.-.",
"7 - : H E i i i i M 3.3.3.M M M M 3.3.M M 3.M M i i i M M M M 3.3.3.M 3.3.3.M M 3.3.M M M M 7 ; 4 : 5 ^ E : w r * e 7 7 5 J -.G ",
"H L F H - i i i i M M M M M M M M P.3.M M M M M i i i i i M M 3.M M M 3.3.3.3.M 3.3.M M 7 D < > 7 6 : L I t L > < > e Q 6 Y o.5 ",
"5 Q 5 P E ^ i i i M M M M M M M N } M M i M M i i i i i i i i M M M 3.3.M 3.M M M M M &.5 ; > e 7 E 7 , 7 e ~ L e 7 I E 5 Y 7 > ",
"K : 5 o...: i i i i M M i M M i M M M i i i i i i i ^ , : D i i i i M M M 3.M M M M %.Q 5 7 > - 7 ~ T L 7 H ..4 5 ^ T Q 5 7 7 H ",
": F : H F : : u i i M i i M M i i i i i i i i I > I L L : 4 ^ + + i i M M M M M M M ..F H H , > 7 e Y P 4 W 7.' 4 J : 7 4 * : ; ",
"*.*...: : : H + u i i i M M i : e > < e L > P  .H - ~ - H T ~ + + + i i i i i i M M J L  .] ~ > > 6 L T 5 K &.&.5 5 5 5 ; e 7 e ",
"*.| ' ..F  .+ + u i i i i i P ^ e > - ~ ; : @.F : ; : F | Q T + + + + + + i i i i M u K T 7 H > > 7 7 4 5 : G &.: G ..*.o.E I e ",
"K | ..J F T + + u i i i ; H H I E e > E ~ H > - 5 : : 7 ]  .+ + + + + + + u u i i M M u H ; 7 = = e 7 7 J W J X.K X.X.+.T ; e t ",
"; K | 5 ; T + + u i i u - ; > e > H : T ] H - F  ...#...7 7 + + + + + + 7 7 u u u i i u u > 7 , > E E @.*.*. .J G K W T 7 e * w ",
": 4 H P T > + + u u i u > ; L , ; P 4 : +. .: ..*.%.J : H + + + + + + H 5 & e 7 u u u i u , : , e > e 7 : L E T 5 4 7 7 7 * > e ",
": ..*...H ; H + + u u u ; - 7 o.e - : F F : 5 ..*.: ; .. .+ + + + + 7 ; > ; 7 7 L u u u u u L > = : 7 7 H e 6 : > - e 7 7 7 I e ",
"T ] T 7 : P - + + u u u u ; 7 o.] : H T ^ %.X.K F : +.6.+.+ + + + + 7 * > e > > 7 > u u u u ^ e 7 5 ; : e > = e ! = < > r e E > ",
"- H > H H L > I + + u u u u e @...H P *.].| | ..: :  .T +.+ + + 7 L 7 : L I > > > > e u u u u ~ > 7 > > > > t ! / < > < 7 e e > ",
", 7 e L H > 7 > e L u u u u H o.7 H 5 ~  .%.+.| W 7 H T o.+ + + e = 7 > 7 ~ e 7 H - L , u u u ~ 5 7 7 ; ; > ~ I R e < > e > > > ",
"e 7 I L > 7 ~ ~ 7 L L > > ; 7 7 : : ; T : - F H - : 7 H H , > ; , e L > ; Q L 7 H > ^ > 7 7 7 7 I 5 7 7 L 7 E e > e : - e > : w ",
"e 7 7 > ; 7 L I 7 > e 7 - 7 E : L ; 7  .o.- > 5 F : : ; e , - e e e 7 - - T P Y : H E I ; 7 Q 4 L 7 7 ] o.7 7 : 7 7 7 6 e > 7 w ",
"> 7 ; 7 > 7 , ~ H > 7  .- : T ~ : L L P #.: 7 : T F 7 E ( = > , w t < > > F : E : : : #.; : E T : r Y Q o.5 7 5 ~ 4 7 E ~ > ; > "
};
