/* XPM */
static char *_b0a9c6e44b14c9cb5999b6922958a9el4S9fT1CiGbiUHF0[] = {
/* columns rows colors chars-per-pixel */
"64 64 44 1 ",
"  c #090A14",
". c #1E3616",
"X c #1F3616",
"o c #1E3716",
"O c #1E3617",
"+ c #263A16",
"@ c #263B16",
"# c #273B16",
"$ c #263A17",
"% c #273A17",
"& c #263B17",
"* c #273B17",
"= c #241527",
"- c #341C26",
"; c #341C27",
": c #341D27",
"> c #4D2A32",
", c #4C2B32",
"< c #4D2B32",
"1 c #4D2B33",
"2 c #2D4217",
"3 c #2D4317",
"4 c #354D1A",
"5 c #344C1B",
"6 c #354C1B",
"7 c #344D1B",
"8 c #354D1B",
"9 c #5E761F",
"0 c #5F761F",
"q c #5E771F",
"w c #5F771F",
"e c #466920",
"r c #476920",
"t c #476821",
"y c #466921",
"u c #476921",
"i c #7A4840",
"p c #7A4841",
"a c #7B4841",
"s c #7A4941",
"d c #7B4941",
"f c #AD7657",
"g c #AC7757",
"h c #AD7757",
/* pixels */
"X@@@X++@@5yqy+y5+5yy@&@55@@@5@oXX@@O@@$@@yyqy@y8@tyt@@@55@@@8@XX",
"@@@@X++@@@@yq5@@55555@&55@&@XXX@@5@@OO@55@@y07@%yy00y@@57@XX@XX@",
"@@5@@oooX@@@@@@@++@@@@&@@@ooXX++57ooX@@@@@@@@@@6@@@@@@++@oX@@@@@",
"555@8@@@XX@@XX@@+@@@@5@@@@@oXX5y57o@@@@@@@@@7@@7@@885@@+oo@@@@@8",
"t5@@55@@@XXXXXXXXX@@@77@@@@@Xu9075OX@555@@@@q@75%88@@+XXo@@7@@@5",
"5@@@@5@755XXX@XXXX@@@77@@@7@@@+y5@@XX@@57@@yq77@@8@@+XX+@@@78@@5",
"@@557@77@XOX@$@@X+++7@77&@u@@+++@@@XXXo@@5@yqy@@@@@@XXXX@@@75@@@",
"@@@@7@@@XX@@$5@@++X+y@@@@qu@@@++@@OXXOXX@@@7y5@@@@@@XXXX@8@@7@@5",
"7$@@@@@@X@@@57@@@@@+y9@@yq7@@@775@@oo@@70q0y55&5y00XXXX@@8@@@@75",
"77@@@@ooX@@@55@@7777y077y7@&@@@7y5@@o@&@@7tuy5yy5@@XX@@@@57@@77@",
"778@XXo@@5@@5&&@@@775yq77@@@&@@@y7@@@@@@@@@6y5++@XXX@@@@@@77@7@@",
"@@@@@@@@@yy@@@757&$755q57yyy7&@@@y@@@7@@@@@@++XXXXX@@@557@@7@@@@",
"@@@@555@@y07@777@@@@&555yy7@@@@5@@@@55@@@@*@@@++@@XX5ty008@@@@@8",
"7@@@++55@@00@77@@@ooX@@@@@@@@@777@@55@@@u000@@@@55@XX@@y00@@@@8q",
"@X@XX+@*@@7y77@@@@@@XXX@@$@@@555%+$55@@@6u0uu@@X8q@@@X@@8yy@80qq",
"@@@X+@@700777yqqy5@@5$XXXX+@@&@@%@+5@@5@77yu7u@70q@@@@tt5@@8yyq8",
"@7@@@@@@+yy5yqqy@ooX55ooo@@+X+@@@8@@@88@@@8y5@@yey@@5y0y++@yyyy@",
"@7@@$777++5@yy5@XX@@o57@o@@@++@@@8@@588@@@@yy@5y8@@@00y555@555@@",
"7@@7++775+@@5@XXX@@@@@@@o@@@++@@5@@55@@*@@@@855@@@@@+555@@@@@@@@",
"@@@75++++@@+@XX@@55@@@7@o@@75+5@@@@@@@w0qy@@@@@@@@@@+++XoXX@@@@@",
"5@@@5@@@oo++5@@@@@777@y@@75@@@5@q7+@@y80u8@@@@@558@@y@+X@@5@@@@@",
"77@@@@@@@@XOy5@@@@%@7@yw&5&@@&5@qw5@t8uu8@@@@XXX8y5@y0@@7y7@@77@",
"77@@755@5y5o77@y8@@@@@7w&@5q5@@@yyy5@ty@@@885@@X@@8@y0y@y7@@77@@",
"o7@775@@@7y5oo55@@7yw077@5q5@@&@y5y5@@@@@y8@@@OX@@@@@8u@y@@@@@@@",
"@@@@@@@@@@@55XXX@55@7007%yy@@@@@5577@@@@@@oX++X@@@@y@@88+y0yy@@@",
"@y@@@@@@@XXXX++X++@@@7y7@@@@@@@@@57@@&@@@@o+XXXOX@uwqy88yqy@@@8@",
"3y@78@@@55XXoo@7XX@@@@@@@@@@@@@@77@7@@@yy5@XXXX@@@@8ywu8yt@@@58@",
"@@@@55@@@555@@@75XXX@@@@@@@@@@@X@7@57@@@55@@XXX5@@@@@yy8y@@555@X",
"@@@@%5@@XX@@@@@55@@@@o@@@+XXXXXX@@@57@&@@58@@XX55@@@@@@@@@@@@@@o",
"@@@@@@@XX@@@@@@@5@@@@XXXXXX+5XXX@@@+77%@@@@@@@@@55@@@@@*@@@@@@Xo",
"@@@@XXX5@555O@5@@@@55@@@+++55@X@@@+++7@7@@@@X@5@@@@ty@@@@@@@@@X@",
"@@@OX@@@@@5y5@55@@55y@@@5++55oXX@@XXX@@7@@@yX@55@@55y@@@8@@55XXX",
"X@@Xo@@@@yyqy+t5@tyy@@@55@@@5@XXX@@XX@@@@yyqy@t7@yyy@@@85@@@8@XX",
"@5@@+o@5@@5yq5++ty00y@@55@++@X@@@5@@XX@55@@y07@@yy00y@@55@XX@XX@",
"55@XXX@85@XX@y+5800@oo+5@@++@@@@57ooX$@@oXXX@@@@@@@@@@@@@@@@@@@@",
"55@X++@@@@X55555ty@XXXX+@@+++%5y57o@XXXoo5@oo@@@@@$@@@5@@X@@@@@5",
"55@@@@5@@@qqy@5+@XXXo@o+557y+@0055XOX@@7@55@+X+@@@7%@y8@+X+@@@@5",
"7@@@55@@@yy5@@@@@@555@+X@577y+@y5+X+@@$7@@55@XX@$@t@@0@@++Xo@@@8",
"@@@788@@@@@@@@@@@55@@ooo@@@yy+@@@5@@7@77@@@@XX@@@7y0888@@@@@o@@@",
"@@@@@@Xo@555@@@@55@@@@575o@@X+@@@5@y7@7@@@@@X@7y0u7u885y0y7@o@@5",
"@@7@@++X@@@88@@@@@@@@5558@8@@5w@@@&q5@@@@@@5@@@@7qy755yq5@@@O@55",
"y77@@75X@@@@8@@0qqy@@@@58@@@50q@yy5q@@&55@@y@77@@7yy5@y5@@@OX@5@",
"y8@@55@X@08X@@yywy8@@@oo88@@qy@@ywy7500y@@@y77@@@@777@++@@XX@@@@",
"@y@@@@XX@q08@y8yy8@@55++@@@@y8@@@7q7@@@@@@@&77@75@@@@@++@5@@@&&@",
"@@@@@oXX@yyt@@5y@@@@5XX5yru@@@@@@@55@XoO&@5y@@y7@@@@@@o@@77@@@@5",
"q@77@oXXo@8y8@yy@@@@oXyqqyu@@r00w@@@XX@@XX@5y5y@@o@@5@&o+@77@&7q",
"@o@75@@@o@@58@@@yy5oXX++@@@@r008@X++X@@5@XX@55@@X+@75@++X+@7@@qq",
"@@@@55@@@@@@@@@5y0qy++++888@@@@@@+XXX@@55@X@@@@oX@@75@@+XX@@@7q7",
"@7@@@%@@+X@@@@@XXXX+OO+55++@@@@@@5@@@@@@5@@y++XX+@@@6@@@@X@8@5y@",
"@5@755@@XXX@XXXX.#@X.O+##5@@@@@@@88@@8y@@@yq+%X%+5@@@@7@@@88@5@@",
"5@@yy@@@555@X@XX#.##.#+5@55@@@@@5@88@@8y5@q5++XX@55@@6t@@778@@@@",
"@@@@@@@85++X@,,,,>><,,,5@@5@@@8*@@@@@@@qy5y5++@+@@55@70u@7%@XX@o",
"qqy@@@@%%@@1,,,,,<<<,>11gghh@88%q8@@77*@y57@tt6%o@@7@700@@@@@@@@",
"wyyy@yy00r111,,,>1<<,>>,,ghhghgghq88*yu8@577hhhhggffgf70@5y0y55@",
"8yy5@55e>>,11iss<<<<,,,,,h,hgdhgggggg@0y88hhhadhgsssgfft5y0y5@@@",
"o8u@X5y1>>,111ppd<<<,,,,,,,,iihsssgggh@@gggghhh<:gsfssgsg555@@XX",
"##388@>>,,ddda>1spp111,,1111piiaggggggggffhhhhf<-gppiiaggg@@++X+",
"#rwe@>>1,,<<idiiiippi111111111iggaiaagggffhhhhfg1-ppiiiissgg++5+",
"3e3#@1,,<,<<aada11iii111,,11111iaaaagggggggghdhgf1pp===ps11:-,5+",
"@@#3>>,,d><<>ai11iii1,11,,11ii1idaaagaaaggggdhgdasppppap111:   O",
"@@33111,1piidiiiiiiiaadd,>>>1ppippiiaaaggaappggpapppp11p,,;;- -X",
"@@8111,,ippiaiiidiiiaidd,,>>1psappiaaaaaggapppggappppa,1,;;;-=-X",
"@@@1111ippi111iii,>aaa>,,,>,pppppppsiaaagppppppppppppp,,,-;;:=:+",
"@@11,1111111iiii>>daaa,d,1<ip1pppppppaaaappppppppppp,ps,,;;--=:X"
};
