/* XPM */
static char *exitcarupl21680168884[] = {
/* columns rows colors chars-per-pixel */
"64 64 119 2 ",
"   c #081103",
".  c #090A14",
"X  c #0E2901",
"o  c #132A03",
"O  c #152A0A",
"+  c #163403",
"@  c #1A3205",
"#  c #1F3804",
"$  c #1B320B",
"%  c #17380D",
"&  c #1F3113",
"*  c #3A2805",
"=  c #35260B",
"-  c #392E0C",
";  c #233502",
":  c #233D03",
">  c #27310C",
",  c #223A0B",
"<  c #353403",
"1  c #222413",
"2  c #382913",
"3  c #253114",
"4  c #223C13",
"5  c #2E3915",
"6  c #29391B",
"7  c #333410",
"8  c #241527",
"9  c #341C27",
"0  c #363423",
"q  c #431508",
"w  c #521F04",
"e  c #561310",
"r  c #432205",
"t  c #492E06",
"y  c #45270B",
"u  c #55240D",
"i  c #40300D",
"p  c #443414",
"a  c #4D2B32",
"s  c #7E2A2E",
"d  c #673424",
"f  c #783121",
"g  c #18410E",
"h  c #254005",
"j  c #2C4206",
"k  c #2F4903",
"l  c #27400C",
"z  c #2E4A0C",
"x  c #35500E",
"c  c #2A4114",
"v  c #294A15",
"b  c #2D431C",
"n  c #284B1C",
"m  c #334712",
"M  c #314A15",
"N  c #36431E",
"B  c #344C1F",
"V  c #375114",
"C  c #35511E",
"Z  c #304424",
"A  c #364B24",
"S  c #395224",
"D  c #3D542D",
"F  c #384432",
"G  c #444314",
"H  c #534021",
"J  c #445E22",
"K  c #455D2A",
"L  c #436422",
"P  c #4A6321",
"I  c #4A6428",
"U  c #4D692B",
"Y  c #536623",
"T  c #506A28",
"R  c #4B6331",
"E  c #436930",
"W  c #536B32",
"Q  c #506638",
"!  c #536A3A",
"~  c #4D783A",
"^  c #557330",
"/  c #5A7331",
"(  c #5B7439",
")  c #676E38",
"_  c #627835",
"`  c #694744",
"'  c #7A4841",
"]  c #7A5750",
"[  c #5C7540",
"{  c #5E7B40",
"}  c #637B43",
"|  c #7C6857",
" . c #767070",
".. c #8C2925",
"X. c #992223",
"o. c #9C332A",
"O. c #883331",
"+. c #A82224",
"@. c #935249",
"#. c #9A5B5D",
"$. c #886858",
"%. c #9A645C",
"&. c #A7635B",
"*. c #AD7757",
"=. c #A55D61",
"-. c #95696B",
";. c #95766C",
":. c #877E7C",
">. c #A4666A",
",. c #7F8778",
"<. c #88857C",
"1. c #918579",
"2. c #9D7E83",
"3. c #8A8684",
"4. c #958D89",
"5. c #9B9A9B",
"6. c #B2A39A",
"7. c #AE9FA3",
"8. c #B0A2A5",
/* pixels */
"$ @ 3 , o 4 3 > , V L ~ E # P G ; M W J : : # M C , $ 4 b 6 = = q u y q u e r y # E E ~ E # Y k h L L L ; : ; S b v $ % v % $ # ",
"4 l , 3 $ % 4 > > : : R ^ V h + S v l C V , @ A b , p 0 3 4 1 | $.$.| | $.$.$.| A 4 g Q W G < j P Y ^ _ W ; # b b > $ $ c + @ g ",
"# , v 4 g % $ $ > , , , c # # c % & g c + % % + 6 2 q ] | ,.,.<.3.2.,.3.3.<.:.1.<. .<.1.-.$.` @.w t : h 4 > 4 c 4 3 O > 5 3 4 4 ",
"C m S 4 n g % % , o 4 $ $ & c % % c $ $ v A c 5 2 e =.>.1.6.4.5.5.5.5.5.4.3.3.<.3.a a a a a a a a a a H p - > $ @ , > 5 3 4 4 c ",
"E b , ; c S , g 4 % *.*.*.*.*.*.*.*.*.*.+ C m * ;.-.#.>.6.6.6.6.7.7.8.7.*.*.*.*.a a a a a a a a a a a a a e i > @ , 4 N > $ c B ",
"M , , > z v , m p *.*.*.' ' ' *.*.' ' *.*.*.d &.>.@.s s #.#.%.*.*.*.*.*.*.*.*.a a a a a a a a a a a a a a a f w - > 7 G C # ; n ",
"$ c m M v # G *.' *.' ' *.' *.9 a *.*.*.*.*.*.*.+.X.+.*.*.*.*.*.*.*.' *.*.a *.a a a a a a a a ' ' ' a a a a a a f u r G S l ; , ",
", > > : G * *.*.*.' ' ' ' ' *.9 a *.*.*.*.*.*.*.*.*.*.*.*.*.' ' ' *.' ' a a a a a a a a a a ' ' ' a a a a a a a a o.f t m : , M ",
"A $ < t *.*.' ' ' ' ' ' ' ' 9 a *.*.*.*.*.*.*.*.*.*.*.*.*.*.*.*.' ' ' ' a a a a a a a a ' ' ' a a ' ' ' ' a a a a a X.O.t # B v ",
"A G a 9 9 a a ' ' 8 8 8 ' ' a *.*.*.' *.*.*.*.*.*.*.*.' ' ' ' *.*.' a a a a a a a a ' ' ' ' ' ' ' ' ' a a a a a a a a ..t B v g ",
"N . . . 9 a a a ' ' ' ' ' ' ' ' ' *.*.' *.*.*.*.' ' *.*.' ' ' ' ' a a a a a a a a a ' ' ' a a ' ' ' ' a a a a a a a a O.y N + g ",
", 9 . 9 9 9 a a ' a a ' ' ' ' ' ' *.*.' ' ' ' *.*.' ' *.' ' ' ' ' a ' ' a a a a a a a ' ' ' a a ' ' a a a a ' a a a a a = , l % ",
"$ 9 8 9 9 9 9 a a a ' ' ' ' ' ' *.*.' ' ' ' *.*.*.' ' ' ' ' ' ' ' ' ' a a a a ' ' ' ' ' ' ' ' ' ' ' ' ' ' ' a a a a a a - : 7 V ",
"S 9 8 9 9 9 9 a a a ' ' ' ' ' ' ' ' ' ' ' ' ' *.' ' ' ' ' ' ' ' ' ' ' a a a a ' ' ' ' ' ' ' ' ' ' ' ' ' ' ' ' a a a a a a h < ) ",
"$ 9 8 9 9 9 9 a a ' ' a ' ' ' ' ' ' ' ' ' ' ' *.' ' ' ' ' ' ' ' ' ' ' ' a a a a a ' ' ' a a ' ' ' a a a ' ' ' ' a a a a a ^ _ _ ",
"% 9 8 8 8 9 9 9 a a a a ' ' ' ' ' ' ' ' ' ' ' ' ' ' ' ' ' ' ' ' ' ' a ' ' a a ' a ' ' ' ' a a ' ' ' ' a a a a a a a a a a a _ k ",
"$ A 9 9 9 9 9 9 9 9 a a a ' a a ' ' ' ' ' ' ' ' ' ' ' ' ' ' ' ' ' ' a a a a a ' ' ' ' ' ' ' ' ' ' ' ' ' a a a a a a a a a a U : ",
"l v ; 9 9 9 9 9 9 9 9 9 9 a a ' ' ' ' ' ' ' ' ' ' ' ' ' ' ' ' ' ' ' ' ' a a a a ' ' ' ' ' ' ' ' ' ' ' ' ' a a a a a 9 9 a a a l ",
"l l l m l , 4 F Z 0   9 9 9 9 a a ' a ' ' ' ' ' ' ' ' ' ' ' ' ' ' ' a a a a ' ' ' ' ' ' ' a ' ' ' ' a ' ' ' a a a a a 9 9 a 9 , ",
"l , ; C B 4 , 4 & $ c & c & 9 9 a a a ' ' ' ' ' ' ' ' ' ' ' ' ' ' ' ' a a a a ' a a ' ' ' a a ' ' ' ' a ' ' a a a a a a 9 9 9 , ",
"v # # 4 N l 4 @ @ $ @ , C $ c 9 a a ' ' a ' ' ' ' ' ' ' ' ' ' ' ' ' ' a a a a a a ' ' ' ' ' a a ' ' ' a a a a a a 9 9 a 9 9 9 , ",
"A A l , # + % , 4 , $ ; R M , $ a a a a ' ' a ' ' ' ' ' ' ' ' ' ' a ' ' ' a a ' ' ' ' ' ' ' ' ' ' ' ' a a a a a a 9 9 9 9 9 A & ",
"n S $ l v C v l v I S X S M @ ! b a a a ' a a ' ' a ' ' ' ' ' ' ' a a a ' a a a ' ' ' ' ' ' ' ' ' ' ' ' a a 9 9 a 9 9 9 9 N 4 , ",
"@ n , B M S ; , + C K S + + M c , 4 a a a a ' ' a a ' ' ' ' a ' ' ' a a a a 9 a a ' ' a a ' a a ' a ' ' ' a a 9 9 a 9 9 # , 4 4 ",
", , ; , , , ; , ; , , C B + @ , c Z c l a a ' ' a ' ' ' ' ' a a a ' a a 9 a 9 9 a a ' a a ' ' a a a a ' ' ' a 9 9 9 9 K Q # , $ ",
", I l 4 , : l , $ , + @ $ , , o o # c , l a a a a a ' a a ' ' a a a 9 a 9 9 9 9 a a a a a ' ' a a a a a a a a 9 9 9 9 h ; , S l ",
"5 R , m A @ c , B c , o $ o , S $ @ , ; ; ; a a a a ' a a a a a a 9 9 9 9 9 9 9 9 a a 9 a a ' a a a a a a a a 9 9 9 l h ; m B # ",
", l > 4 A M # , , C A N c 4 4 b Z $ @ $ l > , a a a a a 9 9 9 9 9 9 9 9 b b c $ S 9 9 9 9 a a a 9 a a 9 a a 9 9 9 9 # C M B , @ ",
"; # 4 , , A , $ $ , 4 $ , , c b S , $ , , # , 4 8 a a 9 9 9 . . , , $ b A $ # # : c B 9 9 9 9 9 9 a a 9 9 a 9 9 8 ; ; # , c # # ",
", , , g @ , 4 4 @ $ , 4 , , , , B 4 , l , @ o 8 8 a 9 9 8 . . . , , 4 4 Z B , 4 l j % , 4 $ , , S 9 a a 9 9 9 9 8 , c , , , $ & ",
"4 % $ c % $ , c , B C v $ , M , , $ l c A , , 8 a 9 9 8 . . . . > , , , # A , b , ; @ , ; , b 4 . . . 8 8 9 9 9 8 8 $ 4 4 $ $ 4 ",
"$ 4 % $ @ 4 + g ; g M R C ; M M ; ; C B R , 4 8 9 9 8 8 . . . $ 4 3 , @ + , , A @ l : W @ l B B . . . . 8 8 9 9 8 8 4 A b & & O ",
"+ c , $ + , , , h I U ( P g T z h J T T # h . 8 8 8 8 . . 6 & $ $ , $ $ $ # , $ h I K [ U # Q . . . . . # 8 8 9 9 8 4 4 A 4 O $ ",
"b 6 4 $ & $ 4 B # h M I / z # h T T W / I . . 8 8 8 . 4 & $ $ c & B c c + $ % A M l h I ( . . . . . . ( Y # 8 8 8 8 & O & & 3 4 ",
"b n 4 $ @ + , M v l X : : I l c k ^ / g + . 8 8 8 8 # , g ; ; l B B X % O , , , @ + + + . . . . . . 4 ; l ; 8 8 8 8 4 4 c , @ , ",
"A b c $ # 4 4 , # ; # m M S m v U L l + , $ 8 8 8 8 , # , h c J C B $ $ $ , @ , @ B l + . . . . . A $ 4 4 8 8 8 8 8 4 $ , , , b ",
"B m , @ 4 4 c , 4 c [ [ Q + B $ @ % @ 3 $ & 8 8 8 M c P : # _ ( m N 4 + $ , # A $ S 4 c & $ 4 % 4 & b 4 , 8 8 8 8 $ $ , 4 4 , m ",
"v , + c B N 4 , l R R b 4 4 O c g c A A A 4 $ + + B z V Y : # Y v , @ @ 4 4 4 A 4 c N b & $ O c , $ ! , # } # ; , # o > $ , , S ",
", : g m A n , , @ , 4 % $ l $ 4 g v v ; , @ ; + h , l K R $ , 4 l v $ M M % A B , $ c % % 4 $ & : V K W V z z j ; , , , , , @ , ",
"; # , , , , $ + l M b V h # l # z V l + l , c C B @ , ; , # 4 # ; x ; E S # b # l , $ 4 + # A Q ( I k T z k x P ! Q S , o 4 4 A ",
"; l N # c % , + # # # C c h l # : + # l $ S C B N $ M g : m ( # h # h ( v # # , l , ; S @ l 4 # z _ P k x x J _ V ; , , , 3 Z A ",
"Q M C , + A A @ , l l # x # # / ( ( K l , % 3 Z S 4 , ; V ( / h U P x ^ # h + M M , # R c l S # h : T Y k # U m : , , $ $ 4 N 4 ",
"E S $ c A A , @ # [ z # # # U L ^ L V l @ # % @ c B , : ( R ; # I ^ I z m [ { U # # l R z S @ l , ; B M V : , , , 4 $ O 4 , > , ",
"# R $ @ , % + , , ( [ M # T z U E V # : S B , $ l ; , # I M ; l # x ( x l # # @ h # # # C B + M N 4 @ , 4 , @ 4 4 B 4 , , , + l ",
"# $ l 4 $ $ @ @ l K U R ; h b U , , $ , M , + l K T I : h : + h # # C m @ , @ # # % v W # $ Q A v & 4 4 , 4 > 3 $ B A 4 ; , : V ",
"[ c l S 4 @ , $ % ; A I l % W I , : h , + @ U } ( P P h h P } ! ( h # g 4 @ % & @ + c V R M I % $ , 4 3 A 4 & $ $ 4 A B , # x ( ",
"# # # M b # 4 , @ , , B S : @ : L T b # ; + + $ l @ l # T / / S , + b @ $ $ c B , $ + @ B B # c , @ $ c C , c , $ $ , m : h W _ ",
"l + , l A B $ 4 , 4 $ + , c , v E ( ( I # # 4 , B v m : , , ; # # , + O & 4 $ A B , @ # , # 4 @ ; ; ; S B @ 3 4 o 4 , , # z _ k ",
"l c h l + 4 , g # $ $ c & b & + % % o $ # $ , B m , , , , $ c # , b , 4 , $ 4 # M # h W ; g & O # # # c N 4 4 3 & $ 4 B , m R : ",
"# C ; v S S $ $ $ , % 4 % $ $ $ $ & c # X + 4 , , M @ $ 4 # 4 , , B n # 4 A I # h # I ^ # @ $ 4 4 A , $ , 4 S 4 4 , b B # m , , ",
"x # h R R # % c b N B & 4 $ $ $ $ $ 6 + $ g $ S $ B S l # 4 , 4 m l B B $ @ C W x h ^ C l , $ $ , A M c , l I : , S m B : , , , ",
"g h # l h # ; M A , , + , , 4 % 4 & $ $ O l C M $ 6 v c # ; S $ # ; h l @ l % { L x U h l l , $ , 4 M M ; V } J ; z : l ; o @ @ ",
"/ / ^ # # # , # , , @ $ b A B g & $ & 4 b , v R l @ A + l m C g ^ V g ; S M # # I x z v I K S $ $ $ c M ; x / / h ; : , ; % , 4 ",
"( P C T h I R [ [ K M + + , m C 4 , + A + ; R : # @ # h L C M # ^ } l M + R Q m l c z x v l 4 $ > , , ; h # k / # k T [ R A N 4 ",
"x I T z h M V I # @ # # @ l 4 b B 4 $ B A , $ + h # # l K R , # W L V z l ; [ Q m B l v l @ , O O 4 , , z V z Y x Y T W M @ c 4 ",
"@ x P # + M I # # # , , @ # $ , $ l : M K l + l I U W R , , ; h I z h # $ , , , B m , : , $ , % $ A B Q ( ( I z k V V M # 4 o 3 ",
"# , , M M , + # Q R B # $ @ c % @ v # # T R # U ( ^ z # j g # : # m # l # X c % , B c @ , 4 # + 4 , 4 , ; v A M # ; , , , o $ 4 ",
": R _ I , # , R B A $ N $ + , R c + # h h # ; U ( # + U I m V # l I l @ $ @ , , % c & + 4 # c $ O @ , , 4 4 , @ $ + 4 , , , N 4 ",
"m K n , ; v + % $ c 4 b , + $ R K ; l v J ( W x h # W ( W ( P , b E , o $ 4 $ $ , $ $ $ & 4 A 4 , : + @ 4 @ O 4 Z O & $ 4 4 N $ ",
"@ % # l l c $ c , g 4 @ $ $ c Q R h v [ } W L U # # I M W I % # l c # $ 4 b $ , $ $ , 4 $ c c A @ , , $ $ > 6 Z D & @ & 4 4 4 $ ",
"c , c c c # & $ 4 4 c $ + @ l R l l # S K ^ W L V l l v R ; % $ g $ , $ , B 4 , , @ c 4 , , , A ; , , # @ $ S N Z 4 & $ 4 $ $ $ ",
", # b b $ , A A , 4 v , $ @ , , ; # @ M # # h l + # , l l @ # $ 4 & c $ # B c l , , S $ , , , , N ; , , 4 , B 4 > 4 , @ 4 , @ 3 ",
"c , $ $ @ , 4 c , , c % $ # B # l @ l I R % # # : ; # @ & g + & 4 4 , @ @ M v c # g B b @ , B ; c , , K R , , # , $ # 4 4 $ , 3 ",
"$ , + , $ , , A l > 4 I + # m B $ c c v Q ; , , M : , C F $ $ % 3 6 4 $ @ , ; C l # # ! @ # S m @ 4 m S R : , ; C ; # N S $ # $ "
};
