/* XPM */
static char *exitcarr41680168881[] = {
/* columns rows colors chars-per-pixel */
"64 64 192 2 ",
"   c #020101",
".  c #010A00",
"X  c #160202",
"o  c #081103",
"O  c #10100E",
"+  c #090A14",
"@  c #121C17",
"#  c #270000",
"$  c #330100",
"%  c #281010",
"&  c #0E2901",
"*  c #132A03",
"=  c #152A0A",
"-  c #163403",
";  c #1A3205",
":  c #1F3804",
">  c #1B320B",
",  c #17380D",
"<  c #1F3113",
"1  c #36260B",
"2  c #382908",
"3  c #233502",
"4  c #233C03",
"5  c #27310C",
"6  c #223A0B",
"7  c #353403",
"8  c #222413",
"9  c #22251F",
"0  c #382913",
"q  c #253114",
"w  c #2C3716",
"e  c #223C13",
"r  c #29391B",
"t  c #333410",
"y  c #241527",
"u  c #341C27",
"i  c #312222",
"p  c #302F27",
"a  c #353733",
"s  c #450303",
"d  c #431508",
"f  c #521F04",
"g  c #561314",
"h  c #76151C",
"j  c #462807",
"k  c #40300D",
"l  c #4E2314",
"z  c #53201F",
"x  c #443414",
"c  c #663319",
"v  c #691822",
"b  c #4A3820",
"n  c #533925",
"m  c #4D2B32",
"M  c #4A3335",
"N  c #692521",
"B  c #7A2322",
"V  c #7E2A2E",
"C  c #673524",
"Z  c #783121",
"A  c #7B382C",
"S  c #18410E",
"D  c #254005",
"F  c #2C4206",
"G  c #2F4903",
"H  c #27400C",
"J  c #2E4A0C",
"K  c #35500E",
"L  c #2A4214",
"P  c #294A15",
"I  c #2D431C",
"U  c #284B1C",
"Y  c #334712",
"T  c #314A15",
"R  c #36431E",
"E  c #354C1F",
"W  c #375114",
"Q  c #35511E",
"!  c #304424",
"~  c #364B24",
"^  c #395224",
"/  c #3D542D",
"(  c #384432",
")  c #444314",
"_  c #4A4A24",
"`  c #534021",
"'  c #445D22",
"]  c #455E2A",
"[  c #444238",
"{  c #6E4128",
"}  c #436422",
"|  c #4A6321",
" . c #4A6428",
".. c #4D692B",
"X. c #536623",
"o. c #506A28",
"O. c #4B6331",
"+. c #436930",
"@. c #536B32",
"#. c #506638",
"$. c #546A3C",
"%. c #4D783A",
"&. c #557330",
"*. c #5A7331",
"=. c #5B7439",
"-. c #676E38",
";. c #627835",
":. c #3D3A40",
">. c #454546",
",. c #574445",
"<. c #585244",
"1. c #4D4F50",
"2. c #565555",
"3. c #6F4C48",
"4. c #7A4841",
"5. c #665554",
"6. c #5C7540",
"7. c #5E7B40",
"8. c #637B43",
"9. c #7C6857",
"0. c #5D5C61",
"q. c #695E63",
"w. c #6C6668",
"e. c #767070",
"r. c #881B19",
"t. c #9D1522",
"y. c #AB1720",
"u. c #A41E25",
"i. c #AA1A26",
"p. c #B31729",
"a. c #B31C28",
"s. c #B41F30",
"d. c #892724",
"f. c #8C2925",
"g. c #88252E",
"h. c #992223",
"j. c #9B2129",
"k. c #96282D",
"l. c #873024",
"z. c #9C332A",
"x. c #992532",
"c. c #883331",
"v. c #983436",
"b. c #A82224",
"n. c #AC2A2D",
"m. c #A52130",
"M. c #B52730",
"N. c #BB2435",
"B. c #A83337",
"V. c #A53F38",
"C. c #B53235",
"Z. c #BE353B",
"A. c #C52435",
"S. c #CA3336",
"D. c #C43539",
"F. c #CE3039",
"G. c #D1383D",
"H. c #914C37",
"J. c #993544",
"K. c #AB2D42",
"L. c #B93541",
"P. c #C73541",
"I. c #935249",
"U. c #9A5B5D",
"Y. c #B5494B",
"T. c #886858",
"R. c #9A645C",
"E. c #A7635B",
"W. c #AD7757",
"Q. c #A55C61",
"!. c #996667",
"~. c #95696B",
"^. c #8E7B74",
"/. c #A86F73",
"(. c #C94547",
"). c #D74C55",
"_. c #E35D61",
"`. c #D4696E",
"'. c #E66568",
"]. c #7F8778",
"[. c #88857C",
"{. c #918479",
"}. c #9D7E83",
"|. c #8A8684",
" X c #958D89",
".X c #9B9A9B",
"XX c #B99E9A",
"oX c #B2A39A",
"OX c #AE9FA3",
"+X c #B3A3A5",
"@X c #D69E9F",
"#X c #DDB7B9",
/* pixels */
"> ; q 6 & < q 5 , W } %.+.3 | ) 3 T @.' 4 4 : T Q 6 , e ! r 1 1 d f j d f g d j 4 +.+.%.+.: X.G D } } } 3 4 4 ^ I L 6 , P S ; ; ",
"e H 6 q > , L 5 5 4 4 +.&.W D - ^ T 6 ^ W 6 : ^ I 5 x p < e 8 9.T.T.9.9.T.T.T.9.~ e e O.@.) 7 J | X.&.;.@.6 3 I I 5 > > e ; - H ",
": 6 T e S , 6 > 5 6 6 6 6 6 : L , e L L ; , e ; r 0 d T.9.].].[.|. X[.|.|.[.[.{.[.e.{.{.~.T.3.I.f j 4 D 6 5 e L e < = 5 w q < e ",
"^ T E e U S < , 6 * e > > , I , , , - > P E , w 0 g Q.Q.{.oX X.X.X.X.X.X X|.|.[.|. X}.}./.}.`./.I.H.` ` b 2 5 > ; 6 5 w q e e P ",
"+.I e 3 L E D S e > , , , * = = < ; < e ; Q T 2 ^.!.U.!.XXoXoXoXOXOX+X+XOXOXOX+XOX+XOXXX#X#X#X@X/.Y.J.g.g.g k 5 ; 6 e R 6 ; e Q ",
"T : 6 5 J P 6 Y x ` 1 1 0 x 0 i 2 1 t 2 2 x C E.E.I.V V U.Q.R.!.~.~.~.~.~.~.~.~.!.!.!.!./.!.!./.g.z.m.i.u.d.Z f 2 5 t ) E 6 4 E ",
", L Y T P 3 ) c h B.B.B.v.H.v.v.v.V.Y.Y.V.Y.V.D.b.h.h.h.f.g.x.x.g.c.c.g.v.k.k.v.v.v.x.x.B.B.m.L.B.K.N.P.a.n.n.z.Z l j ) ^ H 3 > ",
"6 5 5 4 ) 2 H.V.C.D.P.P.Y.`.`._.'.).D.D.S.D.S.F.A.Z.M.C.B.C.P.D.C.V.B.C.Z.M.(.'.'.'.)._.).L.L.`.L.L.P.P.L.N.P.N.C.z.Z j Y 4 6 T ",
"^ > 7 k f H.C.L.G.C.k.V A c.v.(.P.).F.F.A.S.S.S.S.D.Z.Z.D.D.F.F.D.D.Z.Z.D.D.D.(.(.(.V.G.P.L.L.Y.k.B B l.t.L.P.D.S.C.h.c.j D Q P ",
"~ ) j I.V.C.D.N.t.d.s X # # N c.K.N.A.A.A.S.G.S.D.D.Z.Z.D.D.F.F.D.N.M.i.p.p.p.b.h.b.b.b.M.L.`.J.g $ X X N f.K.C.S.(.(.f.j Q P S ",
"! b C j.F.F.L.x.v d l M u   3.z h x.s.A.i.i.i.y.i.h.u.u.j.b.u.y.p.i.u.i.b.i.i.i.b.t.y.i.i.x.d.g l + [ % n $ h L.F.A.K.c.j R : S ",
"6 x N r.M.N.m.h $ >.  :.:.@   M $ V t.K.a.i.y.b.u.b.u.u.u.u.u.b.y.i.y.m.i.i.i.i.t.b.i.u.x.J.# [ X O <.i 8 5.s J.L.L.m.c.1 6 H , ",
"5 2 j g x.x.k.g i :.@ 1.:.1.y m % N x.N.s.p.i.y.u.b.p.p.p.y.y.i.i.a.M.M.s.a.a.a.M.a.a.M.n.N % i X i 2.2.% 5.z N K.K.v.{ t 4 t W ",
"~ t ` $ h x.V g ,.p >.2.e.e.2.M [ $ k.y.s.M.N.n.n.n.s.N.A.N.M.M.M.M.M.M.s.s.N.M.y.M.n.n.k.# 5.9 a w.q.w.2.i 3.g g.k.Z f 7 D 7 -.",
"; > 8 d h x.g.z ,.>.1.w.5.5.,.,.n $ B h.m.m.n.M.n.n.n.M.a.N.n.n.n.n.b.i.i.p.b.t.b.b.r.h.V # 2.>.1.w.0.w.3.M 5.1 N C n 7 K *.;.;.",
", 6 5 2 Z v V $ p a O ,.,.5.9 9 8 n N B Z B l.f.f.f.f.f.f.f.l.l.Z l.f.f.d.d.l.Z l.l.l.Z l 9.9 9 + p 2.2.0 [ i _ n k 7 ) | | ;.G ",
"6 E 6 5 2 k k u @ [ o a a . . [   q 1 1 x ` 0 1 1 k 1 1 1 1 k j x x 2 x 2 ` x k j x ) _ _ 5   (   @ >.@ 8 <.  $.q 5 4  .@.@...: ",
"H L 3 6 H ^ ~ ) w @ 8 ( a   1.a q = e L > e Q > e > q < e 5 6 6 e R 6 6 J T L 3 3 4 4 @.] e ! ( a O >.@ [ . $.I ~ T H Y P 6 4 H ",
"H H H T 6 6 e ( ! p o q 8 @ q 9 > < L - > 6 > H ; 6 > e > L 6 6 ~ 3 H Y E 3 I 4 H 3 6 6 I ~ ^ < o 9 9 9 r R ~ T : H S ; 3 H 6 6 ",
"H 6 4 ~ T e e e > > I < I q < < r I ~ 6 D : T 4 3 6 L E L e e 6 4 : 4 H , 4 @.=.@.o.6 6 e m m m m m m m m m m ; : & - D H > 6 6 ",
"P 6 e S R H e ; > > > 6 E > T L e 6 E T T 3 ..4 3 T L 4 6 ; ^ 4 =.K 3 : 6 $.H 6.@.T : m m m m m m m m m m m m m W.W.W.W.: > L 6 ",
"E E 6 6 6 - 6 6 , : 6 : O.T 6 ; 6 6 > 4 W 3  .*.: W 4 H 3 6 ~ 3 =...W D ] W o...Y : m m m m m m m m m m m m m m m W.W.W.W.W.W.W.",
"E E > H T Q P 6 T  .^ & ^ T - $.R e - 4 D 3 W $.3 4 T $.~ L 3 6  .o.} K S ' #.: m m m m m 4.4.4.m m m m m m m m m W.m W.W.4.W.W.",
"; U : ~ T Q : 6 - Q ] ~ - - T L H 6 Y #.=.=.J K 4 Y 8.W 6 ; e ; O.J ..J D : H m m m m m m m 4.4.4.m m m m m m m m m m m 4.4.W.4.",
"6 6 6 6 6 6 3 6 3 6 6 Q E - ; > e R L H F =.=.Y 4 O.] I 6 ; 6 6 P W J J 4 4 m m m m 4.4.4.4.m m 4.4.4.m m m m m m m m m 4.4.4.4.",
"H ] H 6 6 4 6 6 > 6 ; ; > 6 6 ; * 6 L 6 6 W ] W 3 H 6 6 e e e 6 ; T E 4 ; m m m m m m m 4.4.4.4.4.4.4.4.4.m m m m m m m m m 4.W.",
"w O.6 Y E ; L 6 ~ Y 6 ; > * 6 ~ > ; 6 3 4 3 6 4 6 ; ; e e > e , ' J - E e m m m m m m m 4.4.4.4.m m 4.4.4.m m m m m m m m m m 4.",
"6 H 5 e ^ T , 6 6 E ~ I L e e ! ! > ; ; H 5 6 6 6 e e e > q > : ; W 6 ] m m m m 4.m m m m 4.4.m m 4.4.4.m m m m m m m m 4.4.m 4.",
"4 3 6 , 6 ~ , > > 6 q > 6 6 L I ^ 6 > 6 6 ; 6 e ; q > = < < ; ; 6 : > R m m m m m 4.4.4.4.4.4.4.4.4.4.4.4.4.4.4.m m m m m 4.4.4.",
"6 6 e L ; 6 L H ; > 6 e 6 6 6 6 ~ e 6 6 6 ; * > > > = e ! 6 ; 5 6 6 e m m m m m 4.4.4.4.4.4.4.4.4.4.4.4.4.4.4.4.m m m m m 4.4.4.",
"e e > , , > 6 L 6 E E P > 6 T 6 6 ; 6 T ^ 6 e > e q e ( ~ e ; e > 6 6 m m m m 4.4.4.4.m m m 4.4.4.m m 4.4.4.m m m m m m 4.4.4.4.",
"> e , - ; L - , : 6 P  .Q 4 T T 4 3 ^ E ] 6 w 6 ~ e q ! ! > < - e w m m m m m m m m m m 4.4.4.4.m m 4.4.4.4.m 4.m m m 4.4.m 4.4.",
"- e 6 > : 6 6 6 4 ....=. .4 ..J S ' ..@.: D H P L e e > ~ r q > > 6 m m m m m m m m m 4.4.4.4.4.4.4.4.4.4.4.4.4.m m m m m m 4.4.",
"I r e 6 < > , E : D T  .*.J : D X...@.*. .: : Q ^ = L e < > > e e m m m u u m m m m 4.4.4.4.4.4.4.4.4.4.4.4.4.m m m m m 4.4.4.4.",
"I U e > - - 6 Y T H & 4 : ..6 T G &.*.D - - < ~ e e ; : , 4 : H ~ u m u u m m m m 4.4.4.m 4.4.4.4.m 4.4.4.4.4.4.4.m m m m m 4.4.",
"E E e > 6 e e 6 : : 4 Y P ~ T P ..} 6 - e > > r q 6 L : 3 D L  .E u u u m m m m m 4.4.m 4.4.4.4.m m 4.4.4.m m 4.m m m m m 4.4.4.",
"! Y : > e L e 6 e e 6.6.O.- E > - , ; < > < > L E Y L | D : ;.*.Y u u u m u u m m m m m 4.4.4.m m 4.4.4.4.4.m m m m m m m 4.4.4.",
"Y 6 - L ~ I L 6 H O.#.r L e > e L L ! ~ ~ e > - ; Q J W X.3 : X.T 6 u u u u u m m m m m 4.4.4.4.4.4.4.4.4.4.4.4.m m m 4.4.4.m 4.",
"H 4 S T ~ U 6 6 - : 6 S > H > 6 S P P 4 6 ; : ; D : H  .O.6 6 6 H P ; u u u u m u u m 4.4.4.4.4.4.4.4.4.4.4.4.m m m m 4.m m m 4.",
"4 ; 6 6 e 6 > ; H T R W D > H : G K H - D H e Q ~ ; 6 : , ; L 6 4 K 3 +.u u m u u m 4.4.4.m 4.m m 4.m m 4.4.m m m u m m m m 4.4.",
"3 H R : L > 6 - 6 4 ; Q L D H 4 D ; : e > ~ Q E I 6 T 6 : T =.3 4 3 D *.P u u u u 4.4.4.m m m m 4.4.m m 4.m m m u u u u m m 4.m ",
"#.T ^ 6 - ~ ~ ; , H D : K : ; *.=.=.} H 6 e < ~ ^ e 6 ; W =.*.D o.| W *.: u u u u m m m m m m m 4.4.m m m m m m u u u u u m m m ",
"+.^ ; e ~ ~ 6 ; : 6.J : : - o. .&.} W H ; ; , ; L E 6 4 =.] 4 3  .&. .J Y 6.u u u m m m m m m m 4.m m m u m m u u u u u u u u u ",
"; O.6 ; e , - : H =.=.P D o.J ..+.W : 3 ^ ~ : > H 3 H : ..T 3 e - K =.K H : : u u u m m u m m u m m m u u u u e e ~ e u u u u u ",
": : H L > > ; ; H ] ..O.3 S I ..6 6 > 6 T : - L  ... .: 4 4 ; 4 3 : Q Y : 6 y u u u m u u m m u u u u u u u > q > E ~ e 4 6 3 W ",
"6.L H ~ e ; 6 > > : ~ O.H H o.O.D 3 D 6 : ; ..8.=.| | 4 4 | 8.@.=.D ; , e y u u u u u u m m u u u 6 e < ^ e q > > e E E ; 4 K =.",
": : , T ! : , e ; : 6 ~ ^ 3 ; 4 } ..L : 3 ; - > H - H : o.*.*.^ , ; I - y y u u u u u y y + + S > ; 6 L E 6 L 5 > > 6 T 4 D @.;.",
"H - : H E Q 5 e 6 L > - : L 6 P +.=.=. .6 6 S : E T T 3 6 H 3 6 4 6 - > y u u y y y ; + + + + ; 3 3 4 ~ E ; q e * e 6 6 : J ;.G ",
"4 P D H - e 6 , > 6 > S e e q > > , * ; 6 = 6 E T 6 6 6 L , 6 4 6 T 6 y y u y y Y : D + + + + > 6 6 > L I L e < < > e E 6 Y ..4 ",
": ~ 4 P ~ ^ > , > 6 < e > > > > > e L e & ; e 6 6 T ; 3 , : e 6 6 ! T y y y y : 4 : ..+ + + + e 6 ~ 6 : 6 e ~ L e 6 I E 3 Y 6 y ",
"K : 4 O.O.: : L I R E e q > > , , > r > > S > ^ > E ^ 6 ; L > e T 6 W y y y y O.K D &.Q + + + + 6 ^ T e : L ..3 : ^ T E 4 6 6 y ",
"4 D : H D : : T E 6 6 - 6 6 e , , < > , ; 6 Q T , I L L 4 6 ^ > > 4 S y y y 6 6.} K ..D + + + + + e Y T 3 W 8.' 3 J : H 3 * ; y ",
"*.=.&.3 : : H : 6 6 - 6 I ^ E : , < q < L > P O.6 ; ~ ; H Y E D &.W D : ^ T : :  .K J L  .+ + + + > e T 4 K *.*.4 : 4 4 > e 6 y ",
"=.| Q o.D o.O.6.8.] Y - : , T ~ e : - ^ ; 4 O.D 4 ; 4 D  .Q P : &.8.L T ; O.#.Y H L J K E : S > 5 6 6 3 D 3 G *.: G o.7.O.E R e ",
"W  .o.J D Y W ] - ; ; 6 ; H L I E e > E ~ H > - 4 : : 6 ' O.H : o.' W J 6 4 6.#.T E H P H : 6 = = e 6 6 J K Y X.K X.X.@.T ; e e ",
"- K | - ; P ..; ; 4 , 6 : ; , : > H 3 T ] H - H ....#...6 > : D ..J D - 6 6 6 6 E T 6 4 6 > 6 > > E E #.=.=. .Y G W W T 6 e * < ",
": 4 H P Y 6 ; ; O.O.~ S > ; e 6 ; P 4 : o.O.3 ..=.&.J : H D : 4 : T 4 6 4 * e 6 6 ~ L ; 6 , 6 : e 6 e 6 3 L ~ T : 3 6 6 6 * > e ",
"4 O.=. .H ; H O.E ~ > I : ; 6 O.e ; ; D 4 6 3 ..=.- ; .. .P W : 6  .H ; > ; , 6 , L < ; e 6 e > = ; 6 6 e e 6 ; > ; e 6 6 6 I e ",
"Y ] E : : P ; 6 > L e e 6 ; > O.] 4 H T ' =.$.K D : @.7.@.=. .: I +.6 * > e 5 > 6 > > > 6 e ~ e 6 4 ; ; e ; = e ! * < > e e E > ",
"; , : 6 H L > L 6 L L ; > > L O.O.D P =.8.o.} ..: :  .T @. .6 ; H L 6 ; , ! > : > > 6 e > e I E ; 6 6 > > 6 w ~ / < > < e e e > ",
"L 6 e L e , 6 > e L L > - ; H O.H H 4 ~ ] &.@.} W H H P +.; 6 > e > 6 > H E e 6 e ; L e 6 6 6 ~ 3 6 6 ; ; > ^ I R e q > e > > > ",
"6 , I T > 6 ~ ~ 6 e L 6 > ; > 6 > 4 ; T 6 : D 4 - : 6 H H - > ; e e e , > Q L H 6 6 ^ > 6 6 6 6 R 4 6 6 e 6 ~ e > e > : w 5 ; q ",
"e 6 > > ; 6 e I 6 > S 6 - H ~ : H ; 6  .] : 6 4 D 3 : : > L ; < < e 6 : ; T T L : S E I : 6 E 4 Y 6 6 ] O.6 6 3 6 6 6 > e > 6 < ",
"> 6 ; 6 > 6 6 ^ 6 6 6 O.; : Y Q , L L T #.: 6 , T 4 6 E ( > > , e r < > ; 6 4 E D : 3 $.; ; E T ; e Y ~ O.4 6 4 E 3 6 E E > ; 6 "
};
