/* XPM */
static char *exitcarupr41680168874[] = {
/* columns rows colors chars-per-pixel */
"64 64 161 2 ",
"   c #000100",
".  c #010A00",
"X  c #100100",
"o  c #180408",
"O  c #081103",
"+  c #10100E",
"@  c #090A14",
"#  c #151F12",
"$  c #10191C",
"%  c #270000",
"&  c #330100",
"*  c #2C1008",
"=  c #22101B",
"-  c #0E2901",
";  c #132A03",
":  c #152A0A",
">  c #163403",
",  c #1A3205",
"<  c #1F3804",
"1  c #1B320B",
"2  c #17380D",
"3  c #1F3113",
"4  c #332206",
"5  c #3A2905",
"6  c #36260B",
"7  c #392E0C",
"8  c #233502",
"9  c #233C03",
"0  c #27310C",
"q  c #223A0B",
"w  c #353403",
"e  c #222413",
"r  c #22251F",
"t  c #382913",
"y  c #253114",
"u  c #223C13",
"i  c #2E3915",
"p  c #29391B",
"a  c #333410",
"s  c #241527",
"d  c #341C27",
"f  c #2F2E28",
"g  c #312222",
"h  c #353633",
"j  c #450303",
"k  c #431508",
"l  c #521F04",
"z  c #561310",
"x  c #76151E",
"c  c #432205",
"v  c #492E06",
"b  c #45270B",
"n  c #55240D",
"m  c #40300D",
"M  c #44221F",
"N  c #53211F",
"B  c #443414",
"V  c #4A3820",
"C  c #533925",
"Z  c #4D2B32",
"A  c #483536",
"S  c #692521",
"D  c #7A2322",
"F  c #673424",
"G  c #783121",
"H  c #18410E",
"J  c #254005",
"K  c #2C4206",
"L  c #2F4903",
"P  c #27400C",
"I  c #2E4A0C",
"U  c #35500E",
"Y  c #2A4214",
"T  c #294A15",
"R  c #2D431C",
"E  c #284B1C",
"W  c #334712",
"Q  c #314A15",
"!  c #36431E",
"~  c #344C1F",
"^  c #375114",
"/  c #35511E",
"(  c #304424",
")  c #354B24",
"_  c #395224",
"`  c #3D542D",
"'  c #384432",
"]  c #444314",
"[  c #434520",
"{  c #534021",
"}  c #445D22",
"|  c #455E2B",
" . c #55522A",
".. c #444238",
"X. c #6E4128",
"o. c #436422",
"O. c #4A6321",
"+. c #4A6428",
"@. c #4D692B",
"#. c #536623",
"$. c #506A28",
"%. c #4B6331",
"&. c #436930",
"*. c #546B32",
"=. c #506638",
"-. c #536A3B",
";. c #557330",
":. c #5A7331",
">. c #5B7439",
",. c #676E38",
"<. c #627835",
"1. c #454546",
"2. c #574445",
"3. c #595244",
"4. c #4D4F50",
"5. c #565555",
"6. c #694744",
"7. c #7A4841",
"8. c #665554",
"9. c #7A5751",
"0. c #5C7540",
"q. c #5E7B40",
"w. c #637B43",
"e. c #5D5C61",
"r. c #695E63",
"t. c #6C6668",
"y. c #881B19",
"u. c #AB1720",
"i. c #A41E25",
"p. c #AA1A26",
"a. c #B31729",
"s. c #B31C28",
"d. c #B41F30",
"f. c #892724",
"g. c #8C2925",
"h. c #88252E",
"j. c #992223",
"k. c #96282D",
"l. c #873024",
"z. c #9C332A",
"x. c #992532",
"c. c #883331",
"v. c #983436",
"b. c #A82224",
"n. c #AC2A2D",
"m. c #A52130",
"M. c #B52730",
"N. c #BB2435",
"B. c #A73938",
"V. c #B73236",
"C. c #C52435",
"Z. c #CA3336",
"A. c #C93139",
"S. c #993544",
"D. c #AB2D42",
"F. c #B93541",
"G. c #C73541",
"H. c #935249",
"J. c #B54C4E",
"K. c #C94547",
"L. c #D4696E",
/* pixels */
"1 , Z Z Z Z Z Z Z Z Z 7.7.7.7.7.7.7.7.7.7.7.7.7.Z Z Z Z Z Z 7.7.7.7.7.7.7.7.7.7.7.7.7.7.7.7.7.7.7.7.7.7.Z Z Z Z d d d s s s d , ",
"u Z Z Z d d Z Z Z Z 7.7.7.7.7.7.7.7.7.7.7.7.7.Z Z Z Z Z 7.7.7.7.7.7.7.7.7.7.7.7.7.7.7.7.7.7.7.7.Z Z 7.Z Z Z d d d d d d d d > P ",
"> d Z d d Z Z Z Z 7.7.7.Z 7.7.7.7.Z 7.7.7.7.7.7.7.Z Z Z Z Z 7.7.7.7.7.7.7.7.7.7.7.7.7.7.7.7.7.7.7.Z Z d d d d d d d d d d y 3 Y ",
"_ d d d Z Z Z Z Z 7.7.Z 7.7.7.7.Z Z 7.7.7.Z Z 7.Z Z Z Z Z 7.7.7.7.7.7.7.7.7.H.X.7.7.7.7.7.Z 7.Z Z d d d d 7 0 1 1 q 0 i y u u Y ",
"&.d d d Z d d Z Z Z Z Z 7.7.7.Z Z 7.7.7.7.7.Z Z Z Z Z Z Z 7.7.7.7.7.7.7.7.7.7.7.7.7.7.Z 7.Z Z Z d d S.h.h.z 7 0 , q u ! 1 , u / ",
"T < d d d d d Z Z Z Z Z 7.7.7.7.7.7.7.7.7.7.7.7.Z Z Z 7.7.7.Z 7.7.7.7.7.7.7.7.7.7.Z 7.7.Z Z Z Z d k.m.u.i.f.G l 7 0 a ] / H 8 ~ ",
"q Y W d d d d Z d d Z 7.7.7.7.7.7.7.7.7.7.7.7.Z Z Z Z 7.Z Z Z 7.7.7.7.7.7.7.Z 7.7.Z Z 7.Z Z Z F.B.D.d.G.d.M.n.z.G n c ] _ q 8 q ",
"q 0 0 9 d d Z d d Z 7.7.7.Z 7.Z Z 7.Z Z 7.7.Z Z Z d Z Z Z Z 7.7.7.Z 7.7.7.7.Z Z 7.7.Z Z Z Z F.L.F.F.G.G.F.d.G.N.V.z.G v W 9 q Q ",
") , w v l d d d d 7.7.7.Z Z Z Z 7.7.Z Z 7.Z Z Z d d d d Z Z X.Z Z Z 7.7.7.7.7.Z 7.7.Z Z G.F.F.J.x.D D l.j.F.G.A.Z.V.j.c.v < / T ",
") [ c H.B.d d d d Z Z Z Z Z Z Z 7.7.Z Z Z Z Z Z d d d d d Z Z Z Z 7.7.Z Z 7.Z Z Z Z Z m.M.F.L.S.z & X X S g.D.V.Z.K.K.g.v ) T H ",
"! V X.j.Z.A.d d d Z Z Z Z Z Z Z 7.Z Z Z d Z Z d d d d d d d d d Z Z Z Z Z 7.Z Z Z Z u.p.u.x.D N M o ..* C & x F.A.C.D.c.b ! > H ",
"q B S y.N.N.m.d d d Z Z d Z Z d Z Z Z d d d d i.p.b.m.d d d d d d d Z Z Z Z Z Z @ @ p.b.x.S.% 2.X + 3.g e 8.j S.F.F.m.c.6 q P 2 ",
"q 7 c z k.k.s d d d Z d d Z Z d d d d d d d p.u.m.b.a.a.a.u.u.s.d d d Z Z Z s @ @ @ @ M.n.S * g + g 5.5.= 8.N S D.B.v.X.7 9 a ^ ",
") a { & x s d d d d d d Z Z d d d & k.p.d.M.N.n.n.n.d.N.C.N.M.M.s d d Z s s @ @ @ @ @ @ x.% 8.r A t.r.t.5.g 6.z h.k.G n w J w ,.",
"1 1 e k s s d d d d d s s @ @ 2.C & D j.m.m.n.M.n.n.M.M.s.M.n.n.s d Z Z s p.i.@ @ @ @ @ @ o 5.1.4.t.e.t.6.A 8.6 S F { w U ;.<.<.",
"2 q 0 5 s d d s s s + @ @ @ @ r e C S D G D l.g.l.g.g.g.g.g.l.l.s d Z Z s h.l.@ @ @ @ @ @ 9.r r @ f 5.5.t A d  .C m w ] O.O.<.L ",
"q ~ q s s d s s # ..O @ @ @ @ ..  y 6 6 V { 6 4 4 m 6 4 6 6 m b s s Z s 5 { B m @ @ @ @ @ @ . '   $ 1.$ e 3.  0.e 0 9 +.@.@.@., ",
"q Y 8 s s s s [ p # e @ @ @ @ h y : u Y 1 u _ 1 u 1 y 3 u y q s s s s s I Q Y < 8 @ @ @ @ @ @ ' h + 1.# ... -.R ) T P Q Q P 9 P ",
"P P P s s s s ' ( f O y @ @ @ @ 1 3 Y > q 1 < P , q 1 u q Y q s s s s Q / 8 Y J J 8 @ @ @ @ @ 3 O r r e p ! ~ Q 8 P J , 9 q q q ",
"P q 9 s s s q u 1 1 R y @ + @ @ @ R ) q J < Q < 8 q Y ) Y u u s s s < P < 9 -.>.*.@.q q @ @ @ @ p y y u 1 q 1 < < - > H q q q q ",
"T q q u ! P u , 1 1 , 1 ) @ @ @ @ q ~ Q Q 9 @.9 9 Q Y 9 q , _ s s s 8 , u =.P 0.*.Q < < @ @ @ @ ! ) i u =.q > < P q P P q 1 u q ",
"~ ~ P q q > q q H 8 q 8 %.Q q , q q 1 8 ^ < +.:.8 ^ 9 P 9 q ) 8 >.$.^ J | ^ *.+.Q 8 H < q , u , ) | W 8 | >.J 9 I +./ < P ~ ) y ",
"~ ~ 1 q T / T q T @._ - _ Q > 0.~ u , 9 J 8 ^ -.9 q W -.) Y 8 q +.$.o.^ < o.=.9 Y , ^ T T P > u , K W q -.:.+., @.T P < ~ ! u q ",
", E q / Q _ < q > / ` _ > > Q Y q q W =.>.>.I U 9 W 0.^ q , u , +.I @.I 9 9 P q , =.W P < , u > i > J J , ^ +.< @.> 8 q < q u u ",
"< q < 1 q q 8 q 9 q q ~ ~ , , 1 u ! Q q K >.>.W 9 %.| R q , q q Q ^ I I < < q u 1 3 1 < , Y 1 3 > P 9 o.H 9 I ^ > @.0.| =.q P 1 ",
"P %.P q q 9 q q 1 q , , 1 q < , ; q W q q ^ | ^ 8 P < q u u u q 9 Y / J < P q u R 1 , > 1 < 1 1 , < %.>.:.@.U P @.q.+.J 8 1 / P ",
"i %.P Q _ , Y q / Y 1 , 1 ; q ) 1 , q 1 9 8 q 9 q , 1 u u 1 u 1 } I , _ u , 1 %.+.~ q y 1 3 > 1 P < J T &.*.=.I @./ P J 9 Q ~ < ",
"q P 0 u ) Q < q q / ) R Y u u ~ ( 1 , , P 0 q q q u u u 1 y 1 q > Q q ` R R u q _ ) 2 q 2 3 1 ~ 8 H , J Y +.@.^ %.I < / Q ~ q , ",
"9 , q q q ) 2 1 0 1 u 1 1 q u ! ) q 1 q q , q u , y : 1 3 3 , > q q 1 Q ) 1 < 1 9 Q ! u 0 1 > ~ / , P 8 8 < > P 9 8 8 , q u q q ",
"q q u Y , q Y q , 1 q u q q q q ~ u q q q , ; 1 1 1 : u ) < > 1 q q u u ) ) q P q K 2 q R 1 1 q / ~ P , q P P < , q Y q q q 1 1 ",
"u u 1 2 2 : q R q E / T 1 q Q q q , q W ) q q 1 u y y ' ) u ; u 1 q q q , ) q R q q , q < q R u , P > *.%.8 9 q q , 1 u u 1 1 u ",
"1 u 2 > , Y > H 9 P Q %./ 9 Q Q 9 9 _ ~ %.q i q ) u u ) ( 1 y 1 u y q , , q q ) , P 9 $., q _ ~ P J P ^ %.9 P , ) Y q ) R y y : ",
"1 H q 1 > 2 1 < P +.@.>.@.< $.I J } @.$.< J P T Q u q 1 ) p y 1 0 1 1 1 1 1 q 1 J +.| 0.@.< =.^ < O.O.O.< 9 9 Q R q u u ) 3 1 1 ",
"R R 3 0 y 1 Y ) < J Q +.:.I < J $.@.*.:.+.< < ) ) ; Q u 3 1 1 u u ) Y Y > 1 Y ~ Q P 9 +.>.Q P > @.O.:.>.#.< 8 ) ~ u y : 3 3 3 u ",
"R E q q > , q Q T P - 9 < +.q Q L ;.:.P > > 2 ) u u , q H 8 8 P ~ ~ - 2 1 1 2 < , , > > < < < P q 9 P < P 9 q 1 y 3 u u Y Y , q ",
"E ~ u 1 u H u q , 9 < Q Q / Q T @.o.q > u 1 1 p y q P , 9 P Y } / ~ 1 1 1 q , q > / P , 1 1 u q 1 ~ 1 u P , ) y 1 q q 1 2 < q ! ",
") Q q , u Y u q q Y >.0.%.> ) 1 > 1 > 3 1 3 1 Y ~ Q Y O.9 < <.>.W Q u , 1 q < ) 1 ) Y Y 3 1 3 1 u q ! u q %.Q Y q 1 q q u u q Q ",
"W q , u _ ! Y < P =.%.p Y u 1 u H Y ) ) ) u 1 > > ~ I ^ #.< < #.Q q , > u u u ) u Y R R 3 > 2 R q 1 -.q , w.< < q , ; 0 1 q q ) ",
"q 9 P Q ) E q q > < u H 1 P 1 q < T Q < P > 8 > J q P | @.q q q q T , Q Y P ) ~ q 1 Y 2 2 u 1 3 8 Q | *.^ I I K 9 q q q q q , q ",
"q < < q q q 1 , q Q ! ^ J , P < I ^ P > < P Y / ~ , q 8 q , u q 9 ^ < &._ 1 R < P q 1 u > < ) =.0.O.L $.U L U O.*.=./ q , u u ) ",
"9 q ! < Y 1 q > q < < / Y J q q H > < P 1 _ ) ~ R q Q q < Q >.< 9 < 9 >.T < < P P q < / , P u < I <.O.L U U } <.^ 8 q q q y ) ) ",
"=.W / q > ) ) , 1 P J < U < 9 :.>.>.| P q 2 3 ) ) Y q < ^ >.;.J @.O.U :.< P > Q Q q < %.Y P _ < J 9 $.#.L < @.W 9 q q 1 1 u R u ",
"&._ , Y ) ) q , < 0.I < < < $.o.;.o.^ P , , 2 > Y ~ q 9 >.%.8 < +.;.+.I Q >.q.@.< < P %.I _ , P q 9 ~ Q ^ < q q q u 1 : u q 0 q ",
", %.q 1 q 2 > q P >.>.Q H #.I @.&.^ 9 8 _ / 1 q q 9 P < +.Q 8 P < U >.U P < < , J < < < / ~ > Q ! u < q u q , u p ! u < q q > Y ",
"< < P u 1 1 ; , P | @.%.8 J R @.q q 1 q W 9 > Y o.*.+.8 J 9 > J < < / Q > q > < < > Y -.< < =.) Y 3 u u q u 1 y 1 ~ ) u 9 u < ^ ",
"0.Y P _ Y > q 1 , , ) %.P H *.+.q 9 J q , , @.w.0.O.O.9 9 O.w.-.>.J , q Y , 2 3 , 1 Y ^ %.T +.q 1 < u y ) u y 1 1 u ) ~ 8 < U >.",
"< < 1 Q R < u q > q < _ _ 8 , < o.@.Y < 8 , > 1 P > J < $.:.:._ q 2 R , 1 1 Y ~ q 1 > , / _ q u q , 1 T ~ q W 1 1 1 q Q 9 P $.<.",
"Y > < P ) _ 1 u u Y 1 > < Y q Q &.>.>.+.9 q 2 q ~ Q Q 8 q q 8 < < < > : 3 u : ) ~ q , < q > q , 8 9 9 ) ~ , y u , u q q 8 I <.L ",
"J Y J P > u q H , 1 1 H u R 3 1 1 2 > , < 2 q ) Q q q P q 1 P < q ! q q q 1 H < Q < J *.9 H 3 1 q q q u R u u y 3 1 u ~ q W %.9 ",
"< / 9 T ) _ 1 1 1 q u u 1 : : 1 > 3 Y 3 ; ; u q q Q 8 , u q Y q q ~ E q u ) %.8 J 8 +.;.1 , 1 u q ( q , q i ) Y u q ! ~ < W q q ",
"U < 9 %.%.9 q u ! R ~ 3 u 1 1 q 1 1 p : 1 Y , ) 1 ) _ q < H 1 u W P / / q , _ @.U J ;./ J q 1 , q ) W Y q q +.9 9 _ Q / 9 q q q ",
"< J < P J 1 9 Q ~ P q > q q u 2 u 3 1 1 1 H ^ T 1 p Q H < < _ 1 9 , J q , q 2 0.o.U $.J P P q 1 q u W W 9 ^ w.} 8 I < q 8 ; , , ",
">.>.;.< < < P 9 P < , 1 R ) ~ H u 1 3 u Y q T +.P , ~ > P W ) P ;.^ q < _ Q < 8 +.U I Y +.| ) 1 q 1 Y Q 9 ^ :.:.9 < 9 9 , u q u ",
">.O./ $.J @.%.>.0.%.W > > q W / u q > ) , , =.9 9 , < J o./ Q < ;.w.P Q > %.=.Q P Y I U Q H u 1 1 q q 8 9 < L :.< L $.>.%.~ ! u ",
"U +.$.I J Q ^ | 2 , , 9 , P u R ~ u 1 ~ ) P 1 > J < 9 P | %.q < $.} ^ I q 9 >.=.Q ~ P T Y , q 1 : u q 8 I ^ I #.U #.#.-.Q , Y u ",
"> U O.< > T @., < < q q < , 1 q 1 q 9 Q | P > P +.@.=.%.q q 9 9 +.I J < q q q q ~ Q q 9 < 1 q 2 1 ) ) -.>.>.+.I L ^ ^ Q q u ; 3 ",
"< 9 P Q Q q , > %.%.~ < 1 , 2 u , T 9 < @.%.< @.>.;.I < P 9 < 9 < Q 9 P < - 2 Y 1 ) Y , q Y < > u q i q 9 Y ~ Q < 8 q q q : 1 q ",
"J %.>.+.P > P %.~ ) 1 R > 1 q =.u > 8 J J < 8 @.>.< > @.+.T ^ 9 P %.P , 1 , q q H Y 3 > u < Y 1 : , q q u u q , 1 , u 1 q q ! u ",
"W | Q 1 9 T > 1 1 u u R q > 1 %.| < P Q } >.-.U 9 < *.q.*.>.o.1 Y &.q ; 1 u 1 1 q 1 1 1 1 3 _ 3 q 9 , , u , : u ( : 3 q u u ~ 1 ",
", 2 q q P Y 1 Y q Y Y > 1 1 Y =.%.K T >.w.*.o.$.< < +.Q *.+.P , P Y q , u R 1 q 1 1 q u 1 Y R ) , q q 1 1 1 p ) ` 3 > 3 u u u 1 ",
"Y q Y Y Y < 1 3 u p u q > , P +.P P < ) | ;.*.o.^ P P T %.> q 1 u 1 q 1 q ) u q q , Y u q q q ) 9 q q , , 1 ) ! ! u 3 1 u 1 1 1 ",
"2 q R Y 1 q ) _ q u W q 1 , q q < < , T q < J J > < q P P > 1 > u u u 1 , / Y q q q _ 1 q q q q ! 8 q q u q ~ u 1 u q < u 0 , y ",
"Y q 1 1 > 1 Y R P 1 2 u > P ) , Y , q +.| , q 8 J 8 < , 1 Y > u 3 u q , , T Q Y 9 q ) Q < q / 8 Y q q | %.q q 9 q q q 1 u 1 q 3 ",
"1 q , q 1 q q ) P 1 q +.> 9 W ~ < Y Y Q =.9 H q Q 9 q ~ ' 1 1 2 3 p u 1 , P 8 / H < 8 -.> , ~ Q < u W ) %.9 q 8 ~ 8 q ~ ) 1 , q "
};
