/* XPM */
static char *_196549b701841d5c600dff248a99961HrsG16ZQcvijvw7O[] = {
/* columns rows colors chars-per-pixel */
"64 64 43 1 ",
"  c #090A14",
". c #1E3616",
"X c #1F3616",
"o c #1F3716",
"O c #1E3617",
"+ c #1F3717",
"@ c #263A16",
"# c #273A16",
"$ c #263B16",
"% c #273B16",
"& c #263A17",
"* c #263B17",
"= c #273B17",
"- c #241527",
"; c #251527",
": c #341C26",
"> c #341C27",
", c #351C27",
"< c #4C2B32",
"1 c #4D2B32",
"2 c #4D2B33",
"3 c #2D4217",
"4 c #2D4317",
"5 c #344C1A",
"6 c #344D1A",
"7 c #344C1B",
"8 c #354C1B",
"9 c #344D1B",
"0 c #5E761F",
"q c #5F761F",
"w c #5F771F",
"e c #476920",
"r c #466821",
"t c #476821",
"y c #466921",
"u c #476921",
"i c #7A4840",
"p c #7B4840",
"a c #7A4841",
"s c #7B4841",
"d c #AD7657",
"f c #AC7757",
"g c #AD7757",
/* pixels */
"X$$$X$$$$7y0y$y9$9yy$$$99$$$9$XXO$@@O@@$$utwy$u9$tuu$$$99$$$9$XX",
"$$$$oo$$$$$y09$$99999$$99@$$XXX$$9@@.O@99$$uw7$$uuwwy$$99$XX$$X$",
"@$7$$$ooX$$$$$$$$$$@$$$$$$XXXX$$99&.O$$$$$$$%$$7$$$$$$$$$XX$$$$@",
"777$7$$$OX$$X$$$X$$@$9$$$$$XXX9r99X@@$@$$$$$7%$7$$779$$$XX$$$@@7",
"r7$$77$$&XXXXXXXXX@@$99$$$$$$y0099XX$997$$$$w$77$77%$@X.X$$9$$$7",
"7$$$$7$797XXX&XXXX@@$99$$$9$$X$r7$$XO$@79$$uw77$$9$$@XX$$$$97$$7",
"$$777$77$XXX&&$XX@$$9$99$$y$$X$$@@$XXXX@$9$uwt$$$$$$XXXX$$$79$$$",
"$$$$7$$$XO$$$7$$&&&$t$$$$0y$$$$$$$XXXXXX$$$9t7$$%$$$XXXX$9$$9$$9",
"9$$$$$@@X$$$77$$@@$Xy0$$tw9$$$999@@XX$$9000y77$7y00XXX&$$9$$$$99",
"99$$$@XXX$$$77$$9999yw99t9$$$$$9y9$$X$$$$9yyt7yy9$$XX@@$$99$$97$",
"999$XXX@$7$$9&$$@$799yw99$$$&$$$y9$$$$$$$$$9y7$$$$XX@@#$$$99$9$$",
"$$$$$$@@$yy$$$999@@999099tyy9$$$$y$$$7$$$$$$$$OOXXX$@@779$$9$$$$",
"$$$$555&$tw9$999$$$$$977yt9$$$$9$$$$77$$$$$$*$O$$$XX7rr0w7$$$$$9",
"9$$$&&57$$ww$99$$$XX&##$$$$$$$999$$99$$$y0ww$$O$57$XO$$rww$$$$90",
"$X$X&&$$$$9y99$$@@@@XXO$$$$$$999$$&99$$$9twtt$$$70$$$O$$7ry$7w0w",
"$$$X$$$9ww999yw0r9@@5@OOOO$$$&$$$$$9$$7$99tt9y$900$$$$tt7$$9yrw7",
"$9$$$$$$$yy9y00y@XXX99XXO$XXX$$$#9$$$99$$$9y9$$yrr$$9y0y@@$yyyy$",
"$9@@$999$@9$yy9$XX$$X99$X$$$$$$$$9$#999$$$$yy$9y5$$$00y999@999$$",
"9$$9@@999$$$9$@OX@$$$$$$$$$$&$$$9$$99$$%$$$$999$$$$$@955@$$$$$$$",
"@$$99@@@@$$$@OO@@99@$$9$X$$97&9$$$$$$$ww0y$$$$@@$$$$@@@XXoo$$$$$",
"9$$$9$$$ooX$9$$$$$999$y$$99$$$9$w9$$$t9wy9$$@@@977$$y$&X$$9$$$$$",
"99$$@@$$@@XOy9$$$&$$9$y0$9$$$*9$ww7$t9tt9$$$@@XX9y9$y0$$9y9$$99$",
"99@$799@9y7X99$y9$$$$$90$$9w9$$$yyr7$ty$$$999$$X$$9$twt$y9$$99$$",
"o9@779$$@7y5XX99$$9y0099$909$$*$y7r7$$$$$y9$$$XX$$$$$7t$y$$$$$$$",
"$$$$$$$$$$$99XXX$77$90w9$yy$$$$$9999$$$$$$XX$$X$$$$t$$99$ywyt$$$",
"$y$$$@$$oXXXXX$X$$$$$9y9$&$&$$$$$99&#&$$$$XXXXXXO$twwt99r0y$$$7$",
"4y$95@$$99XX.X$9XX$$$$$$$$$$$$$$99&9$$$ty9$oXX.$$$$9twy9ry$$@79$",
"$$$$99$$@599$$$97XXX$$$$$$$$$$$X$9=99$$$99$$XXX9$$$$$ty9y$$995@&",
"$$@@$9$$Xo$$$$$97$$$$X$$&XXXXXXX$$$99#*$$99$@X&77$$$$$$$$$$$@$$X",
"$$@@@@$Xo$$$$$@@9$$$$XXXXXX$9XXX$$$$99**$$$$@@@$77$$$$$$$$$$@$XX",
"$$$@XX.9$999@@9@$$$99$$$@@@99$X$$$$$$9$9$$$$X@7$$$$ry$$$$$$$$$X$",
"$$@XX$$$$$9y9@99$$79y&$$5@$99XXX$$OOX$$9$$$yX@97$$77y$$$9$$99XXX",
"o@$X.@$$@yr0t%e7$yyr%%=99$$$7$o$O$@XX@@$$yy0y$y7$yyy$$$77$&@5@XX",
"$9$@X&$7$@5yw7##tr00t%%99$$$$XX%$7@@XX@97$$y07$$yyq0t$$77$X&@XX@",
"99@XXX$79@@X%t#7700$$&%9$$$$$$$%77&XX$$$oXXX$$$$$$$$$$$$$$$$$$@@",
"55@X@@$$$$%77<2222<<<<<%$$$$$$9y77X@XXXXX7$$$X$$$$$$$$7$$$$$$@@9",
"99@@$$7$$$0<<<<222<<1111fddf$$ww77XOX$$9#77$gggggggffg7$$XX$$$$9",
"9@$$77$$$y2<<<2222<<11112fffggggf$X$$$@9$$gggssggaaaggg$$$Xo$$@9",
"$$$977%$<<2<<<aap2<<1111<f<dgaggfffff$99ggggggg<:gagaagaf$$$o$@$",
"$$$@$$$<<<<<<22app<<1111<<<<aagsaaffffffggggggg<:faaapagff9$o$$9",
"$$9$$@<<222ppps22paa222<1111ssssddffdffffggggffg<>aassssaadf$$99",
"y99$$<<<<<22<pssppaapa<<1111<<sgdaaaadffgggggsggf2aa---pa<2>><9$",
"y9$$9<<<<<<<<pppp<<app<<11111<<saaaaffaaffggaggaaaaasspp<<<>   $",
"$y$$222<2p<<<<pp2<ppp2<<1111ss1saaaadaaffsssafgaaaaaa2<a<<>>> >$",
"%%#%<<<<22aaaaaaaaaapssss<<1<aaaaaaaaaafggaaaaggaaaaps2<<>>>>->7",
"q%71<<<<2paaaaaaaaaasssss<11<aaaaaaaaaaafsaaaaaaaaaapp22<>>>>->0",
"%$#<22<<pppa<<<aaa<<aas2<<<<ssaaaaaaaaaagsssaaaaaaaa<pa<<:>>>->0",
"$$222<<<<<2<2paaa<<aaaa2s<<as<aaaaaaaaaassssaaaaaaaa<<<<>:>--->7",
"$7<<<<<<1111saaaaaaaaaaaa<<<<<ssaaaaaaaaaaaappaa<<a<<<>>>>,,,>y$",
"$<<<>,<<11<sssaaaaaaaaaa<<1<ssssaaaaaaaaappappppa<<:>>>>>>,,>9$$",
"7:<,,<<<11sss2aass<aaaasss11<<aaaaaaaaaaaaaap2a<<>:>>9y*$999$$$$",
"@::,<<<<11ss<aass<<aaa<<s111<aasaaaaaaaaaapaa2<<>>99$90y$9$$XXXX",
"0,>><,><<<<<2sps<<saaas<<<<11sssaaaaaaaaaaa<aa<<>#@9$90w$$$$$$$$",
"qe>>>>>2<<<<2saaaasaassss<<sss<saaaaaaaaa<aa<<<<$#@@$$90$7y0y99$",
"7ee>>>><,,<2aaaassssaass<<<p<11saaaapa2ap<<a222X&@@@999y7y0r7$$$",
"$7yX>><,,<<aaa<a<<a<<as<1,11<1ssa<aapa<2pp<<22XX&57r0wy99977$$O$",
"$$499>>>,<ssp2<<<ss<<s<<>><,2<a2<<aaaaa<aa<<$$$X$$$$$999XX$$$XX$",
"$e0e$>>>,<<1111<<as<<<<<>:,,2,2<2aa22p22<<<$$$$$XX$&$$XXXX$$$$7@",
"4e4$$$>>,<<11111<a<<,<<,>>::,,:<22222p2<<<XXX$9$$XX$$XX$9XX$$$7$",
"$$$444>,,,<1,1<,<<<>,,,t$$y9:::,>>>><<<<<XX@$$77&$XOXX$99$XX$$$X",
"$$44$$$;,,<:,11,,,,,,0yy7$77y$$X  ::,<<-#&5@$$$7$$$XX$997$$X$$$X",
"$$5$$$7;,,,:<<,#$$$$$$$$XX$$$$XX   -,:2--$7@$$$$9$$$$$9$$$$X$$OX",
"@@$$.$--,>,;;   $$$ty$$$$$$$$$X$    ;,,<-$99X$7$$$$yy$$$$$$$$$X$",
"$$X$.$--,>;;    $$77t$$$9$$99XXX$   -;,,-$$yX$79$$99y$$$9$$77XXX"
};
