/* XPM */
static char *exitcarr21680168881[] = {
/* columns rows colors chars-per-pixel */
"64 64 191 2 ",
"   c #020101",
".  c #010A00",
"X  c #160202",
"o  c #081103",
"O  c #10100E",
"+  c #090A14",
"@  c #131C17",
"#  c #270000",
"$  c #330100",
"%  c #281010",
"&  c #0E2901",
"*  c #132A03",
"=  c #152A0A",
"-  c #163503",
";  c #1A3205",
":  c #1F3804",
">  c #1B320B",
",  c #17380D",
"<  c #1F3113",
"1  c #36260B",
"2  c #382908",
"3  c #233502",
"4  c #233C03",
"5  c #27310C",
"6  c #223A0B",
"7  c #353403",
"8  c #222413",
"9  c #22251F",
"0  c #382913",
"q  c #253114",
"w  c #223C13",
"e  c #2C3816",
"r  c #29391B",
"t  c #333410",
"y  c #241527",
"u  c #341C27",
"i  c #312222",
"p  c #302F27",
"a  c #353733",
"s  c #450303",
"d  c #431508",
"f  c #521F04",
"g  c #561314",
"h  c #76151C",
"j  c #462807",
"k  c #40300D",
"l  c #4E2314",
"z  c #53201F",
"x  c #443414",
"c  c #663319",
"v  c #691822",
"b  c #4A3820",
"n  c #533925",
"m  c #4D2B32",
"M  c #4A3335",
"N  c #692521",
"B  c #7A2322",
"V  c #7E2A2E",
"C  c #673424",
"Z  c #783121",
"A  c #7B382C",
"S  c #18410E",
"D  c #254005",
"F  c #2C4206",
"G  c #2F4903",
"H  c #27400C",
"J  c #2E4A0C",
"K  c #35500E",
"L  c #2A4114",
"P  c #294A15",
"I  c #2D431C",
"U  c #284B1C",
"Y  c #334712",
"T  c #314A15",
"R  c #36431E",
"E  c #354C1F",
"W  c #375114",
"Q  c #35501E",
"!  c #304424",
"~  c #364B24",
"^  c #395224",
"/  c #3D542D",
"(  c #384432",
")  c #444314",
"_  c #434520",
"`  c #534021",
"'  c #445D22",
"]  c #455D2A",
"[  c #55522A",
"{  c #444238",
"}  c #6E4128",
"|  c #436422",
" . c #4A6321",
".. c #4A6428",
"X. c #4D692B",
"o. c #526724",
"O. c #4B6331",
"+. c #436930",
"@. c #546B32",
"#. c #506638",
"$. c #546A3C",
"%. c #4D783A",
"&. c #557330",
"*. c #5A7331",
"=. c #5B7439",
"-. c #676E38",
";. c #627835",
":. c #3D3A40",
">. c #454546",
",. c #574445",
"<. c #585244",
"1. c #4D4F50",
"2. c #565555",
"3. c #6F4C48",
"4. c #7A4841",
"5. c #665554",
"6. c #5C7540",
"7. c #637B43",
"8. c #7C6857",
"9. c #5D5C61",
"0. c #6C6668",
"q. c #767070",
"w. c #881B19",
"e. c #9D1522",
"r. c #AB1720",
"t. c #A41E25",
"y. c #AA1A26",
"u. c #B31729",
"i. c #B31C28",
"p. c #B41F30",
"a. c #892724",
"s. c #8C2925",
"d. c #88252E",
"f. c #992223",
"g. c #9B2129",
"h. c #96282D",
"j. c #873024",
"k. c #9C332A",
"l. c #992532",
"z. c #883331",
"x. c #983436",
"c. c #A82224",
"v. c #AC2A2D",
"b. c #A52130",
"n. c #B52730",
"m. c #BB2435",
"M. c #A83337",
"N. c #A53F38",
"B. c #B53235",
"V. c #BE353B",
"C. c #C52435",
"Z. c #CA3336",
"A. c #C43539",
"S. c #CE3039",
"D. c #D1383D",
"F. c #914C37",
"G. c #993544",
"H. c #AB2D42",
"J. c #B93541",
"K. c #C73541",
"L. c #935249",
"P. c #9A5B5D",
"I. c #B5494B",
"U. c #886858",
"Y. c #9A645C",
"T. c #A7635B",
"R. c #AD7757",
"E. c #A55D60",
"W. c #996667",
"Q. c #95696B",
"!. c #8E7B74",
"~. c #A8696D",
"^. c #A9777C",
"/. c #C94547",
"(. c #D74C55",
"). c #E35D61",
"_. c #D4696E",
"`. c #E66568",
"'. c #7F8778",
"]. c #88857C",
"[. c #918579",
"{. c #9D7E83",
"}. c #8A8684",
"|. c #958D89",
" X c #9B9A9B",
".X c #B99E9A",
"XX c #B2A39A",
"oX c #AE9FA3",
"OX c #B2A3A5",
"+X c #D69E9F",
"@X c #DDB7B9",
/* pixels */
"> ; q 6 * w q 5 6 W | %.+.4  .) 3 T @.' 4 4 : P Q 6 > w ! r 1 1 d l j d f g j j 4 +.+.%.+.4 o.G D | | | 3 4 4 Q I L 6 , P w > : ",
"w H 6 q > , w 5 5 4 D +.&.W D - ^ P H ^ T 6 : Q I 5 x p q w 8 8.U.U.8.8.U.U.U.8.~ w , #.@.) 7 4  .o.&.;.@.4 : I R 5 > > S ; ; S ",
"; 6 T w S , > > 5 6 > 6 6 > : L , < , L - , w ; r 0 d U.8.'.'.'.}.{.'.}.}.].!.].].q.].[.Q.U.3.L.f j 4 4 6 5 w L w < = 5 e q w w ",
"Q Y ^ w U S , , 5 * w > > w L , , L : 5 P E w e 0 z E.E.[.XX|. X X X X X|.}.}.].}.|.{.{.^.^._.^.L.F.` ` b 2 5 > ; 6 5 e q w w L ",
"+.I 6 3 L Q H S w > , , , * = = = > , w : Q Y 2 !.W.P.~..XXXXXXXoXoXoXOXoXoXOXOXoXOXXX.X@X@X@X+X^.I.G.d.d.g 0 5 ; 6 w R 5 ; L ~ ",
"T 6 6 5 J P 6 Y x ` 1 1 0 x 0 i 1 1 0 7 t x C T.T.L.V V P.P.Y.W.Q.Q.Q.Q.Q.Q.Q.Q.W.Q.W.W.^.Q.~.~.a.v.b.y.t.a.Z f 2 5 t ) Q : 4 U ",
": L Y T P : ) c h M.M.M.x.F.x.x.x.N.I.I.N.I.N.V.c.f.e.f.a.d.l.l.d.z.z.d.x.h.h.x.x.h.l.l.M.M.b.J.M.H.n.K.i.v.v.k.Z l j ) Q 6 3 6 ",
"w 5 5 4 ) 2 F.N.B.A.K.K.I._._.).`.(.A.Z.Z.Z.Z.S.C.V.n.B.M.B.A.Z.B.N.M.B.V.n./.`.`.`.(.).(.J.J._.J.J.K.K.J.m.K.m.B.k.Z j Y 4 6 T ",
"^ > 7 k f F.B.K.D.B.h.d.A z.x./.K.(.S.S.C.Z.Z.Z.A.A.A.V.A.A.S.S.A.A.A.J.A.A.A./././.N.D.K.J.J.I.l.B B j.e.J.K.A.Z.B.f.z.j 4 Q P ",
"~ ) j L.N.B.K.p.e.a.s X X # N z.H.m.C.C.C.Z.D.Z.A.A.V.V.A.A.S.S.A.m.n.y.u.u.u.t.f.c.c.c.n.J._.G.g # X X N a.H.V.Z././.s.j Q P S ",
"! b C g.Z.S.J.l.v d l M i X 3.z h l.p.C.y.y.r.r.y.f.t.t.g.t.t.r.y.y.c.y.c.y.y.y.t.t.r.y.y.l.a.g l + { % n $ h J.D.C.H.z.j R : S ",
"6 x N w.p.m.b.h $ >.  :.:.@   M $ V e.H.i.y.r.c.c.c.t.t.t.t.t.t.r.y.y.b.y.i.r.r.e.c.y.t.l.G.# { X O <.i 8 5.s G.J.J.b.z.1 6 H , ",
"5 2 j g l.h.h.z y :.@ 1.:.1.y m % N l.m.p.u.y.r.t.c.u.u.u.r.r.y.y.u.n.m.p.i.i.i.n.i.i.n.v.N % i X i 2.2.% 5.z N H.H.x.} t 4 t W ",
"^ t n $ h l.V g ,.p >.2.q.q.2.M { $ g.y.p.n.m.v.v.v.p.m.C.m.n.n.n.n.n.n.p.p.m.n.r.n.v.v.h.# 5.9 M 0.0.0.2.9 3.g d.h.Z f 7 F 7 -.",
"> > 8 d h l.z.g ,.>.1.0.5.5.,.,.n $ B g.b.b.v.n.v.v.n.n.i.n.v.v.v.v.c.y.y.y.t.t.c.c.w.f.V # 2.>.1.0.9.0.3.m 5.1 N C n 7 K &.;.;.",
", 4 5 2 Z v V $ p a O ,.,.5.9 9 8 n N B Z B j.s.j.s.a.a.s.s.j.j.Z j.s.s.a.a.j.Z s.j.j.Z l 8.9 9 + p 2.1.0 { i [ n k 7 )  . .;.G ",
": ~ 6 5 2 k k i @ { o a a   . {   q 1 1 b ` 1 1 1 k 1 1 1 1 k j x x 2 x 2 ` x k j x ) [ _ 5 . (   @ >.@ 8 <.  6.q 5 4 X.X.X.X.: ",
"H L 3 6 H ^ ~ _ e @ 8 ( a   1.a q = w L > w Q > w > q q w 5 6 6 6 R 6 6 J T L : 3 4 3 @.O.w ! ( a O >.@ { . $.r ~ L H Y E 6 3 H ",
"H H H T 6 6 w ( ! p o q 8 @ q 9 > < w ; : : 6 6 * 6 6 w > L 6 6 ^ : H Y E 4 L D D : w 6 I ~ ~ < o 9 9 9 r R E T : H D ; : H 6 6 ",
"H 6 4 ~ T e 6 w > > I < I w < q r I ~ 6 H : Y 4 3 6 L Q L m m m m m m m m m m =.@.X.6 6 w > 6 w r q q w > 6 > : : & - S 6 : 6 6 ",
"P H 6 w E H w > - > ; 6 ~ > L L w 6 E T T 3 X.4 3 T L m m m m m m m m m m m m m R.R.R.R.L > : ~ R ! e w @.6 - : H 6 H H R.R.R.R.",
"E E 6 6 : - H > w 4 > 4 O.T 6 ; 6 6 > 4 Q : ..*.3 E m m m m m m m m m m m m m m m R.R.R.R.R.R.R.R.O.R 6 ] 6.D 4 J ..R.R.R.4.4.R.",
"T ~ > 6 P Q P 6 P O.^ & ^ T - $.R w ; 4 4 4 W @.m m m m m m 4.4.L.m m m m m m m m R.m R.R.4.R.R.R.R.R.R.R.*...; R.R.R.R.R.R.R.m ",
"; U 6 ^ T ^ : : ; Q ] Q - - Y L 6 6 Y #.=.=.J m m m m m m m m 4.3.} m m m m m m m m m m 4.4.R.4.} 4.R.R.R.R.R.R.R.R.R.R.R.R.R.m ",
": 6 : : 6 6 3 6 4 6 6 Q E ; * 6 w R Y 6 F =.m m m m m } 4.4.4.m m 4.4.4.m m m m m m m m 4.4.4.4.R.R.R.R.R.R.R.R.R.R.R.R.R.R.R.R.",
"H O.H w 6 3 6 6 > 6 ; ; 6 6 6 ; * 6 I 6 6 m m m m m m m m 4.4.4.4.4.4.4.4.4.m m m m m m m m 4.R.R.4.4.4.4.R.R.R.R.R.R.R.R.4.R.R.",
"e O.6 Y E > w w E L 3 ; > * 6 ~ > ; 6 ; 4 m m m m m m m m 4.4.4.4.m m 4.4.4.m m m m m m m m m 4.4.4.4.4.R.R.4.4.R.R.R.R.4.R.R.4.",
"6 H 5 w ^ T 6 6 6 ^ ~ I w w w E ! > ; 3 m m m m m L.m m m m 4.4.m m 4.4.4.m m m m m m m 4.4.m 4.4.4.4.4.R.4.4.R.R.4.4.4.4.R.R.4.",
"4 > 6 6 6 ~ 6 > > 6 w > 6 6 L I ^ 6 > 6 m m m m m m 4.4.4.4.4.4.4.4.4.4.4.4.4.4.4.m m m m 4.4.4.4.4.4.4.4.4.4.R.R.R.4.4.4.4.R.R.",
"6 6 6 L ; 6 S w ; > 6 w 6 6 6 6 ~ w 6 m m m m m m 3.4.4.4.4.4.4.4.4.4.4.4.4.4.4.4.m m m m 4.4.4.4.4.4.4.4.4.4.4.R.4.4.4.4.4.4.4.",
"w w > , , = H L 6 E Q P > 6 T 6 6 > 6 m m m m m 4.4.4.4.m m m 4.4.4.m m 4.4.4.m m m m m 4.4.4.4.4.4.4.4.4.4.4.4.R.4.4.4.4.4.4.4.",
"> w , ; ; L - S 3 6 P O.E 3 T T 3 4 m m m m m m m m m m m 4.4.4.4.m m 4.4.4.4.m 4.m m 4.4.m 4.4.4.4.4.4.4.4.4.4.4.4.4.4.4.4.4.4.",
"> , 6 > - 6 6 6 D O.X.=. .S X.J D ' m m m m m m m m m m 4.4.4.4.4.4.4.4.4.4.4.4.4.m m m m m 4.4.4.4.4.4.4.4.4.4.4.4.4.4.4.4.4.4.",
"I I w > < > w ~ : 4 T ..=.J : D o.m m m u u m m m m m 4.4.4.4.4.4.4.4.4.4.4.4.4.m m m m 4.4.4.4.4.4.4.4.4.4.4.4.4.4.4.4.4.4.4.4.",
"I U 6 > * ; 6 W T H & 4 4 ..H L G i m u u m m m m m 4.4.4.m 4.4.4.4.m 4.4.4.4.4.4.4.m m m m 4.4.4.4.4.4.4.4.4.4.4.4.4.4.4.m 4.m ",
"E E L > 6 w w 6 : : 4 Y T Q T T X.u u u m m m m m m 4.4.m 4.4.4.4.m m 4.4.4.m m 4.m m m m 4.4.4.4.4.4.4.4.4.4.4.4.4.4.4.4.m m m ",
"E T > ; w w L 6 6 L 6.6.#.- E > > u u u m u u m m m m m m 4.4.4.m m 4.4.4.4.4.m m m m m m 4.4.4.4.4.4.4.4.4.4.4.4.4.4.m 4.4.m m ",
"Y 6 ; L E I w 6 H O.O.r w w * L L w u u u u u m m m m m m 4.4.4.4.4.4.4.4.4.4.4.4.m m 4.4.4.m 4.4.4.4.4.4.4.4.4.4.m 4.4.m m m m ",
"H 4 H P ^ U 6 6 , 6 H , > H > 6 H P P u u u u m u u m m 4.4.4.4.4.4.4.4.4.4.4.4.m m m 4.m m m 4.4.4.4.4.4.4.m 4.4.m m 4.m m m 6 ",
"6 : : 6 6 6 > ; 6 T I W D ; H 4 J K H - u u m u u m m 4.4.4.m 4.m m 4.m m 4.4.m m u m m m m 4.4.4.m 4.4.4.4.m m 4.4.m m m m w ~ ",
"; H I 6 w ; 6 ; : : : Q L D H : : - : H > u u u u m 4.4.4.m m m m 4.4.m m 4.m m u u m u m m 4.m m m 4.4.4.3.} m 4.4.m m 6 q ! ! ",
"#.Y Q 6 ; ^ E ; 6 H 6 : K : : &.=.=.] H : u u u u m m m m m m m m 4.4.m m m m m u u u u m u m m m 4.4.m m L.m m m m m > > w R w ",
"+.^ ; L ~ ~ 6 ; : 6.J 3 : : &.] &.| W H ; ; u u u m m m m m m m m 4.m m u m m u u u u u u u u m m m m m m 4.m m m m > = w 6 5 6 ",
"> O.6 > w , - 6 6 =.6.P D X.J ..+.W : 4 ^ ~ u u u u m m u m m u m m m u u u u ; D : : 4 u u u u u u u u m m m m m E w 6 6 6 ; H ",
": : H w ; > ; ; H ] X.X.4 4 L X.6 6 6 : T : - y u u m u u m m i u u u u u : > 3 ; : L @.6 : #.E + + u u u m m y > E ~ w 4 6 ; W ",
"6.L H E w > 6 > - 3 ~ O.H S @.O.S : D 6 : > X.y u u u u m m u $.6.6 ; H S > , , > - L W O.T O.w + + + y u u m y y w E E 4 4 W =.",
": : 6 T I 6 w 6 > 6 6 E ^ 3 : 3 | X.L : 3 , y y u u u y y + + + 6 ; I * < > L E 6 > - ; E ~ : S + + + + y u u m y 6 6 T 3 D @.;.",
"6 - 6 H ~ T > w 6 w > - 6 L 6 T +.=.=...: : y y u u y y + + + + 3 > - > q w > ! E 6 ; ; 6 : 6 - 3 + + + y y u u y w 6 6 4 J ;.G ",
"H L F 6 - w 6 w ; > > S w r < > > , - > 6 ; y u u y y L + + + + + I H 6 : > H 4 P : D &.: H < > 5 : : + O y y y y + w E 6 Y O.3 ",
"4 Q : T ^ ^ > > > 6 < w > > > > > > w w & ; y y y y ; ; , + + + + + + 6 < ~ O.3 4 : ..*.: > = w 6 ! 6 > 6 + y y y + + E : Y 6 6 ",
"K : D X.X.; 6 , I I E w < > > : = > r = > , y y y y ^ H : L + + + + + + , : Q O.K D &.Q H , > - 6 ~ T I 6 6 y y y y + ~ 4 6 6 H ",
": D : 6 6 4 4 E E H 6 - H 6 w , w w > > > : y y y y y S : : ^ + + + + + > H , 6.| K X.D H H 6 > 6 w Y T 3 W y y y y 3 H 3 * ; ; ",
"=.=.&.: : 4 H : L : > : I ~ E S w > < w w 6 P y y y y ; H Y Q H &.W S 4 ^ T : 4 o.K J L ..] ~ > > > w T 4 K *.y y y 4 : ; w 6 w ",
"=. .W X.D ..O.6.6.] Y - , : Y E w 6 - ~ > 6 O.4 4 ; : D ..Q P : &.7.6 T - O.#.T H L J K P H H , > 6 6 3 4 3 G *.: G o.6.O.E R w ",
"K ..X.J D P W ] - > , ; ; H H I E w > ^ E H > - H : : H ] O.L : @.' W J 6 3 6.#.T E H P H ; 6 > > w 6 6 J W J o.K o.o.@.Y > w w ",
"- K  .: - Y X.3 : : : H : > > 6 > 6 3 T ' H - H ..X.@.O.: : : :  .J D 4 6 6 6 6 E T 6 4 > > 6 > > ~ E #.=.=.o.J G W W Y 6 w * w ",
": 4 6 T Y 6 - ; O.O.! H > ; w 6 > P 4 : &...3 X.=.&.J : H 4 : D : T 4 H 4 * S w : ~ L ; 6 w 6 - w 6 w 6 4 L ~ T : 4 6 6 6 * > w ",
"4 O.;...H > 6 ..E ~ , I - - 6 O.w - 3 4 D ; 3 X.=.: - X...P W 6 6 ..H ; > * 6 6 w w < - r : L > = > 6 6 w w 6 ; > - w > 6 6 R w ",
"Y ] T 6 4 P ; 6 > L w r 6 - > O.] : H T ' =.@.K 4 : &.=.@.=.| ; I +.6 * > , 5 > 6 > , > , w ~ w 6 4 - ; w > = w ! = < 6 w w E > ",
"; , 6 6 H w 6 w 6 H L - > > L #.O.D P 6.7.@.| X.: : ..T @...H ; H L 6 ; L R > > > > 6 w > L r E ; 6 6 ; 5 > r ~ / q * < w w w > ",
"L w w L w 6 6 > w L L > - ; H O.H H 4 ~ ] &.@.| W H H P O.: : > L > 6 > 6 E w 6 6 ; L H 6 6 6 E 3 6 H ; - > ~ I R w q ; e 6 > > ",
"6 : I L > 6 ! ^ 6 L L 6 > ; 6 6 ; 4 ; T : : D 4 - : 6 H H : < - , , L > ; ^ L H 6 6 ^ > 6 6 6 6 R 3 6 6 L 5 E w > w 6 > w > > 5 ",
"L 6 > > > 6 , I 6 > w 6 ; S E : H ; : ..O.; 6 4 4 4 : ; w , - < w w 6 - ; T P L : S ! T > 6 E 4 L 6 6 ' O.6 6 3 6 6 6 > w > 5 < ",
"> 6 ; 6 > 6 w ^ H > 6 ..; : Y E , L L E #.4 6 6 T 4 6 E ( = > < w r q > ; 6 4 E H : : $.; 3 E Y > w Y ^ O.4 6 4 E 3 6 E E , > : "
};
