/* XPM */
static char *exitcarldown31680168880[] = {
/* columns rows colors chars-per-pixel */
"64 64 193 2 ",
"   c #020101",
".  c #010A00",
"X  c #080D0D",
"o  c #160202",
"O  c #10100E",
"+  c #131C17",
"@  c #270000",
"#  c #330100",
"$  c #281010",
"%  c #0E2901",
"&  c #132A03",
"*  c #152A0A",
"=  c #163403",
"-  c #1A3205",
";  c #1F3804",
":  c #1B330B",
">  c #17380D",
",  c #1F3113",
"<  c #372505",
"1  c #36260B",
"2  c #392E0C",
"3  c #233502",
"4  c #233C03",
"5  c #27310C",
"6  c #223A0B",
"7  c #353403",
"8  c #222413",
"9  c #22251F",
"0  c #382913",
"q  c #253114",
"w  c #223C13",
"e  c #2D3816",
"r  c #29391B",
"t  c #333410",
"y  c #241527",
"u  c #341C27",
"i  c #312222",
"p  c #302F27",
"a  c #353733",
"s  c #450303",
"d  c #431508",
"f  c #521F04",
"g  c #571314",
"h  c #76151C",
"j  c #462807",
"k  c #40300D",
"l  c #4E2314",
"z  c #53201F",
"x  c #443414",
"c  c #663319",
"v  c #691823",
"b  c #4A3820",
"n  c #533925",
"m  c #4D2B32",
"M  c #4A3335",
"N  c #692521",
"B  c #7A2322",
"V  c #7E2A2E",
"C  c #673424",
"Z  c #783121",
"A  c #7A382C",
"S  c #18410E",
"D  c #254005",
"F  c #2C4206",
"G  c #2F4903",
"H  c #27400C",
"J  c #2E4A0C",
"K  c #35500E",
"L  c #2A4214",
"P  c #294A15",
"I  c #2D431C",
"U  c #284B1C",
"Y  c #334712",
"T  c #314A15",
"R  c #36431E",
"E  c #344C1F",
"W  c #375114",
"Q  c #35511E",
"!  c #304424",
"~  c #354B24",
"^  c #395224",
"/  c #3D542D",
"(  c #384432",
")  c #444314",
"_  c #4A4A24",
"`  c #534021",
"'  c #445E22",
"]  c #455E2B",
"[  c #444238",
"{  c #6E4128",
"}  c #436422",
"|  c #4A6321",
" . c #4A6428",
".. c #4D692C",
"X. c #536623",
"o. c #506A28",
"O. c #4B6332",
"+. c #436930",
"@. c #546B32",
"#. c #506638",
"$. c #546A3C",
"%. c #4D783A",
"&. c #557330",
"*. c #5A7331",
"=. c #5B7439",
"-. c #676E38",
";. c #627835",
":. c #3D3A40",
">. c #454546",
",. c #574445",
"<. c #595244",
"1. c #4D4F50",
"2. c #565555",
"3. c #6F4C48",
"4. c #7A4841",
"5. c #665554",
"6. c #5C7540",
"7. c #5E7B40",
"8. c #637B43",
"9. c #7C6857",
"0. c #5D5C61",
"q. c #695E63",
"w. c #6C6668",
"e. c #767070",
"r. c #881B19",
"t. c #9D1522",
"y. c #AB1720",
"u. c #A41E25",
"i. c #AA1A26",
"p. c #B31729",
"a. c #B31C28",
"s. c #B41F30",
"d. c #892724",
"f. c #8C2925",
"g. c #88252E",
"h. c #992223",
"j. c #9B2128",
"k. c #96282D",
"l. c #873024",
"z. c #9C332A",
"x. c #992532",
"c. c #883331",
"v. c #983436",
"b. c #A82224",
"n. c #AC2A2D",
"m. c #A52130",
"M. c #B52730",
"N. c #BB2435",
"B. c #A83337",
"V. c #A53F38",
"C. c #B53235",
"Z. c #BE353B",
"A. c #C52435",
"S. c #CA3336",
"D. c #C43539",
"F. c #CE3039",
"G. c #D1383D",
"H. c #914C37",
"J. c #993544",
"K. c #AB2D42",
"L. c #B93541",
"P. c #C73541",
"I. c #935249",
"U. c #9A5B5D",
"Y. c #B5494B",
"T. c #886858",
"R. c #9A645C",
"E. c #A7635B",
"W. c #AD7757",
"Q. c #A55D61",
"!. c #996667",
"~. c #95696B",
"^. c #8E7A74",
"/. c #A8696D",
"(. c #A9777C",
"). c #C94547",
"_. c #D74C55",
"`. c #E35D60",
"'. c #D4696E",
"]. c #E66568",
"[. c #7F8778",
"{. c #88857C",
"}. c #918579",
"|. c #9D7E83",
" X c #8A8684",
".X c #958D89",
"XX c #9B9A9B",
"oX c #B99E9A",
"OX c #B2A39A",
"+X c #AE9FA3",
"@X c #B2A3A5",
"#X c #D69E9F",
"$X c #DDB7B9",
/* pixels */
": - q 6 * w q 5 6 W } %.+.; | ) 3 Y @.' 4 D ; P Q 6 : w ! r 1 1 d l j d f g j j 4 +.+.%.+.; X.G D } } } 3 3 4 ^ I L 6 > P w - = ",
"w H 6 q : > w 5 5 4 4 +.&.W D = ^ P H ^ T 6 = ^ I 5 x p , w 8 9.T.T.9.9.T.T.T.9.~ w w O.@.) 7 4 | X.&.;.@.4 - I I 5 : : S - = H ",
"- 6 P w S > : : 5 6 6 6 6 6 ; w > , L w = > > = r 0 d T.9.[.[.[. X|.{.{. X{.^.{.{.e.{.}.~.T.3.I.f j D 4 6 5 w L w q * 5 e q w w ",
"Q Y ^ w U S > > 6 & w : : 6 I > > L - : P E L e 0 z Q.Q.}.OX.XXXXXXXXXXX.X X X{. X.X|.|.(.(.'.(.I.H.` ` b 2 5 : - 6 5 e q w w L ",
"+.I 6 3 L Q 6 S w : > > > & * * , : > w = ^ Y < ^.!.U./.oXOXOXOX+X+X@X+X+X+X@X@X+X@X+XoX$X$X$X#X(.Y.J.g.g.g k 5 - 6 w R 6 - L ~ ",
"T 6 6 5 J P 6 Y x n < 1 0 x 0 i < < 2 2 2 x C E.E.I.V V U.U.R.!.~.~.~.~.~.~.~.~.!.~.!.!.(.!./.!.g.z.m.y.u.d.Z f 2 5 t ) ~ ; ; E ",
"6 L Y T P 4 ) c h B.B.B.v.H.v.v.v.V.Y.Y.V.Y.V.D.b.h.u.h.d.g.x.x.g.c.c.g.v.k.k.v.v.z.x.x.B.B.m.L.B.K.s.P.s.n.n.z.Z f j ) Q H ; : ",
"6 5 5 4 ) < H.V.C.D.P.P.Y.'.'.`.]._.D.D.S.D.S.F.A.C.M.C.B.C.F.D.C.V.B.C.Z.M.).].].]._.`._.L.L.'.Z.L.P.P.L.N.P.N.C.z.Z j Y 4 6 T ",
"~ = 7 j f H.C.L.G.C.k.V A c.v.).P._.F.F.A.S.S.S.D.D.D.Z.D.D.F.F.D.D.Z.L.D.D.D.).).).V.P.P.L.L.Y.x.B B l.h.L.P.D.S.C.h.c.j 4 Q P ",
"~ _ j I.V.C.P.N.t.d.s o @ @ N c.K.N.A.A.A.S.G.S.D.D.Z.Z.D.D.F.F.D.N.M.i.p.p.p.b.t.b.b.b.s.L.'.J.g # o o N f.K.C.S.).).f.j ^ P S ",
"R x C j.S.F.L.x.v d l M i   3.z h x.s.A.i.i.i.y.y.h.u.u.j.b.u.y.p.i.b.i.b.i.i.b.b.t.y.a.i.x.B z 0 o [ $ n # h Z.P.A.K.c.j R = S ",
"L x N r.M.N.m.h # >.  :.:.+   M # V t.K.a.i.y.b.b.b.u.u.u.u.u.u.y.i.y.m.i.i.i.y.t.b.i.b.x.J.@ ,.o O <.i 8 5.s J.L.L.m.c.1 H H > ",
": 2 j g k.k.k.g i :.+ 1.:.1.y m $ N x.N.s.p.i.y.t.b.p.p.p.y.i.i.i.a.M.M.s.a.a.a.M.a.a.M.n.N $ 0 O u 2.2.y 5.g N K.K.v.{ 2 4 t W ",
"~ t n # h x.V g ,.9 >.2.e.e.2.M [ # k.y.s.M.N.n.B.n.a.N.A.N.M.M.M.M.M.M.s.s.N.M.y.M.n.n.k.@ 5.9 M w.0.w.2.i 3.g g.k.Z f 7 D 7 -.",
": : 8 d h x.g.g ,.>.1.w.5.q.,.,.n # B h.m.m.n.N.n.n.M.M.a.N.n.n.n.n.b.i.i.p.b.t.b.b.r.h.V @ 2.>.1.w.0.w.3.M 5.1 N C ` 7 W &.;.;.",
"> 4 5 < V v c.# p a O ,.,.5.9 9 8 n N B Z B l.f.l.f.f.f.f.f.l.l.Z l.f.f.d.d.l.Z l.l.l.Z l 9.9 9 X p 2.2.0 [ i _ n k 7 ) | | ;.G ",
"6 E 6 5 2 k k i + [ O a a   . [   q 1 1 b ` 1 1 < k 1 < 1 1 2 j x x 2 x < ` x 2 j x ) _ _ 6 . (   + >.+ 8 <.  6.q 8 4 O.o.@...; ",
"H L 3 6 H ~ ~ ) e + 5 ( a   1.a q * w L * L Q : w : q , q q 6 6 6 R 6 6 K T L ; 3 4 4 @.] q ! ( a O >.+ [ . $.I E P 6 P Y H 4 H ",
"H H H T 6 6 w ( ! p . q 8 + q 9 : , L = 6 6 > H = 6 : w : L 4 6 ~ 4 6 Y E 4 L D H 4 H 6 L ~ ~ q X 9 9 9 r R E T 4 6 D = 4 H 6 6 ",
"H 6 4 ~ T w w w : : I q L , , , r I ~ 6 4 - T 4 3 6 L ~ L L w 6 6 3 4 H > 3 @.=.@...6 6 w : 6 w r q q w : 6 : ; ; % = H 6 6 : 6 ",
"P H 6 > R H w - = : - 6 ~ : L L w 6 E T T 3 ..4 4 T L 4 6 - / 4 =.K 3 = 6 $.H 6.o.Y - 4 L : : ~ R ! e w $.6 = 3 H 6 H H 4 : L 6 ",
"E E H 6 6 = H 6 w 4 > 4 O.T 6 - 6 6 : ; W ;  .*.3 W 4 H 3 6 E 3 =...W D ] W @. .Y 6 S 3 H - w = E ] Y 3 ] =.D 4 J ] ^ ; 6 E ~ , ",
"E E : H T Q P 6 P O.^ % ^ T - $.I L ; 3 4 ; W @.; 4 T $.~ Y - 6  .o.} K ; } $.- L - W P P H = q - F Y 6 @.*. .= ..P 6 4 E I w 6 ",
"- U 6 ~ T E 4 > - ~ } Q = = Y L 6 6 Y #.=.=.K T 4 Y 6.W 6 - w - ..J ..J 4 4 H 6 - $.Y H ; - w = e = D D = W  .3 ..= 4 6 3 6 w w ",
": 4 ; > 6 6 3 6 4 6 6 Q E = = 6 w R Y H F =.=.Y 4 O.] Y 6 - 6 6 T W J J 4 4 6 w : , : ; : S : w = D ; } S D J W = ..6.] #.4 6 6 ",
"H O.H 6 6 4 6 6 - 6 - - : 6 6 - & 6 L 6 6 W ] W 4 6 : 6 w w w 6 3 L Q D - H 6 w L : - = : 6 * : - ; ..=.*...K D ..=...D 3 > ~ 6 ",
"e O.6 Y Q - L w E L 6 - : * 6 ~ : - 6 - 4 ; 6 4 6 3 : w q : w 6 ' J - E w = : #.O.E 4 q : , = : 6 4 H P +.@.#.Y ..Q H D 3 T E 4 ",
"6 H t w ~ T : 6 6 E ~ I w w w E ~ : - - 6 5 6 6 6 w w w : , : 6 = W 6 / I I L : Q ~ w 6 : w : E ; 6 - D L  .o.W O.J ; Q Y E 6 - ",
"4 - w 6 6 ~ 6 : 5 : q : : H L I ~ 6 : 6 6 - 6 w * q : = , , - = 6 6 : I ~ : 4 > 3 I E w q : - E ^ = ; 4 4 - = 6 4 3 3 : 6 L 6 : ",
"6 6 6 w - 6 w 6 - : 6 w H : 6 6 ~ w 6 6 6 - & : : : * w ~ : - : 6 6 w w ! ~ 6 6 6 F w : L : 6 6 Q E H : 6 H H 4 4 6 L 6 6 6 : : ",
"w S : S > : 6 L 6 E E P : > Y H 6 - 6 Y ~ 6 6 5 w q w ( ~ w - w 5 6 6 6 - ~ 6 Y 6 4 = w ; 6 I w - H = @.O.3 4 6 6 - : w w : : w ",
": w , = - L = S 4 S T ..Q 4 T T 3 4 Q ^  .w w 6 ~ w q ~ ! : , - w q 6 - - 6 6 ~ 3 6 4 o.= 6 E E H H H W O.4 6 - ~ L 6 ~ r q w * ",
": S 4 : = : 6 : 4 ....=. .; o.K D } ..@.; D H P L w 6 : ! r q 6 : 6 : : : : 4 : D O.] =...4 O.W 4 | | | ; 4 4 Y I 6 q w E , > : ",
"I r w : , : L E ; D Y  .=.J ; D o...o.=. .; ; Q ~ & Y w q : * w , ~ L L = : S ~ T 6 F  .=.T H = ..| *.=.X.3 ; E E w q * , , , w ",
"I U 6 : - = 6 T P H % 4 ; ..H L G &.*.; = = , ~ w w : 6 S 4 4 6 Q E % > * 6 6 6 - = - = : 4 - H 6 3 H ; H 4 6 6 q , w w L w - 6 ",
"E ~ L : > L w H : 4 4 Y P Q P P ..} H = 6 : : r q 6 H - 4 D L ' Q E : : : 6 - 6 = Q H = - : L 6 : E : w 6 - ~ , : 6 w : 6 4 6 I ",
"E T 6 - w w L 6 6 L 6.6.O.= E : = > = , > w * L ~ T Y | 4 ; ;.=.Y I w - : : 6 E : ~ L L > * q : w q I w 6 ..Y L 6 : 6 6 w w 6 T ",
"Y : = L E R w 6 H O.O.r L w * L w L ! ~ ! L : - = Q J W X.; ; X.T H - - w w L ! w L I I w > : I 4 : $.6 - 8.6 4 6 - & 5 : 6 6 ~ ",
"H 3 H P ~ U 6 6 = 6 L > : H : 4 ; P T 4 6 - 3 = 4 6 H ] ..6 6 6 H P - T I 4 E E 6 : w S : q : w : W ] @.W J J F 3 6 6 6 6 6 - 6 ",
"4 - 6 6 6 6 : = H T I W D : H ; P K H = ; H L E E = 6 4 6 - w 6 ; K 3 +.Q 6 I > H 6 - L = : ~ O.7.| G o.Y G K } @.$.^ 6 & w w ~ ",
"4 6 I 6 L : 4 - 6 ; ; Q L D H ; S = 4 6 : E E E I : T H ; P 6.; 4 ; D =.P ; ; H H H ; Q - 6 w - J ;.| G K K ' ;.W 4 6 6 6 q ! ! ",
"$.Y ^ 6 = ~ E : 6 6 4 ; K ; ; *.;.=.] H 6 L , ! ~ L 4 : W =.*.4 ..| K *.; D = T T > 4 O.L H / 4 D D o.X.G ; ..T 3 6 6 : : w I L ",
"+.^ - w ~ ~ 6 - ; 7.J ; ; ; o.] &.} W 6 - 3 > = L E 6 3 =. .4 4  .&. .J Y 6.7.@.; ; H O.J ^ - 6 6 4 E Y W ; H 6 6 w : * L 6 5 6 ",
"- O.6 - w > = 6 6 =.=.P S X.K  .+.W ; 4 ^ E > 6 H 3 H 3 ..T 3 6 ; K =.K H ; ; - D m m m m m m m m m m 6 w 6 = , w E w 6 6 6 - H ",
"; : H w : : & = H O...O.4 D L ..6 6 w S T : ; H ] o...4 4 D = 4 ; ; / Y W.W.W.W.m m m m m m m m m m m m m w 6 q : E ! w ; 6 ; W ",
"7.L H E L = 6 : - - W.W.W.W.W.W.W.W.W.W.- - } [.=.| | 4 D | 8.W.W.W.W.W.W.W.W.m m m m m m m m m m m m m m m q : : w Q ~ ; 4 K =.",
"- 4 6 T I 6 w 6 - W.W.W.4.4.4.W.W.4.{ W.W.W.= = H = H W.W.W.W.W.W.W.4.W.W.m W.m m m m m m m m m 4.4.4.m m m m m : : 4 T 3 D @.;.",
"6 = 6 H E Q : W.4.W.4.4.W.4.W.u m W.W.W.W.W.W.W.W.W.W.W.W.W.4.4.{ W.4.4.m m m m m m m m m m m 4.4.4.m m m m m m m w H 6 ; J ;.G ",
"D L D 4 = w W.W.W.4.4.4.4.4.W.u m W.W.W.W.W.W.W.W.W.W.W.W.W.W.W.4.4.4.4.m m m m m m m m m 4.4.4.m m 4.4.4.4.m m m m w E 6 Y O.4 ",
"4 ^ : T W.W.4.4.4.4.4.4.4.4.u m W.W.W.W.W.W.W.W.W.W.W.4.4.4.4.W.W.4.m m m m m m m m m 4.4.4.4.4.4.4.4.4.m m m m m m m E 4 Y 6 6 ",
"T : m i u m m 4.4.y y y 4.4.m W.W.W.4.W.W.W.W.W.4.4.W.W.4.4.4.4.4.m m m m m m m m m m 4.4.4.m m 4.4.4.4.m m m m m m m E 4 6 6 6 ",
"H X X O u m m m 4.4.4.4.4.4.4.4.4.W.W.4.W.W.4.W.W.4.4.W.4.4.4.4.4.m 4.4.m m m m m m m m 4.4.4.m m 4.4.m m m m 4.m m m m 3 & - - ",
"=.u X u u u m m 4.m m 4.4.4.4.4.4.W.W.4.4.4.W.W.W.4.4.4.4.4.4.4.4.4.4.m m m m m 4.4.4.4.4.4.4.4.4.4.4.4.4.4.4.m m m m m - w 6 w ",
"=.u y u u u u m m m 4.4.4.4.4.4.W.W.4.4.4.4.4.W.4.4.4.4.4.4.4.4.4.4.4.m m m m m 4.4.4.4.4.4.4.4.4.4.4.4.4.4.4.4.m m m m m ~ I w ",
"K u y u u u u m m m 4.4.4.4.4.4.4.4.4.4.4.4.4.W.4.4.4.4.4.4.4.4.4.4.4.4.m m m m m m 4.4.4.m m 4.4.4.m m m 4.4.4.4.m m m m - w w ",
"= u y u u u u m m 4.4.m 4.4.4.4.4.4.4.4.4.4.4.4.4.4.4.4.4.4.4.4.4.4.m 4.4.m m m 4.m 4.4.4.4.m m 4.4.4.4.m m m m m m m m m m & q ",
"; u y y y u u u m m m m 4.4.4.4.4.4.4.4.4.4.4.4.4.4.4.4.4.4.4.4.4.4.m m m m m m 4.4.4.4.4.4.4.4.4.4.4.4.4.m m m m m m m m m 6 q ",
"D O.u u u u u u u u m m m 4.m m 4.4.4.4.4.4.4.4.4.4.4.4.4.4.4.4.4.4.4.4.m m m m m 4.4.4.4.4.4.4.4.4.4.4.4.4.m m m m u u m m m w ",
"Y ] T u u u u u u u u u u m m 4.4.4.m 4.4.4.4.4.4.4.4.4.4.4.4.4.4.4.m m m m m 4.4.4.4.4.4.4.m 4.4.4.4.m 4.4.4.m m m m u u m u : ",
"- > 6 6 H L : L 6 w L u u u u m m m m 4.4.4.4.4.4.4.4.4.4.4.4.4.4.4.4.m m m m m 4.m m 4.4.4.m m 4.4.4.4.m 4.4.m m m m m u u u : ",
"L 6 w L L : > : w w w 6 = - u u m m 4.4.m 4.4.4.4.4.4.4.4.4.4.4.4.4.4.m m m m m m m 4.4.4.4.4.m m 4.4.4.m m m m m u u m u u u : ",
"4 > I L : 6 ~ ~ 6 w Y 6 : : 4 : m m m m 4.4.m 4.4.4.4.4.4.4.4.4.4.m 4.4.4.m m m 4.4.4.4.4.4.4.4.4.4.4.4.m m m m m u u u u u ; q ",
"w 6 6 : - 6 > L 6 6 w 6 = S ^ = H m m m 4.m m 4.4.m 4.4.4.4.4.4.4.m m m 4.m m m m 4.4.4.4.4.4.4.4.4.4.4.4.m m u m u u u u : 6 , ",
": 6 - 6 : 6 L ~ H 5 6 O.= 4 Y ~ 6 L m m m m 4.4.m m 4.4.4.4.m 4.4.4.m m m m i m m m 4.4.m m 4.m m 4.m 4.4.4.m u u m u u E : - : "
};
