/* XPM */
static char *exitcarr51680168882[] = {
/* columns rows colors chars-per-pixel */
"64 64 191 2 ",
"   c #020101",
".  c #010A00",
"X  c #160202",
"o  c #081103",
"O  c #10100E",
"+  c #090A14",
"@  c #131C17",
"#  c #270000",
"$  c #330100",
"%  c #281010",
"&  c #0E2901",
"*  c #132A03",
"=  c #152A0A",
"-  c #163403",
";  c #1A3205",
":  c #1F3804",
">  c #1B320B",
",  c #17380D",
"<  c #1F3113",
"1  c #36260B",
"2  c #382908",
"3  c #233502",
"4  c #233D03",
"5  c #27310C",
"6  c #223A0B",
"7  c #353403",
"8  c #222413",
"9  c #22251F",
"0  c #382913",
"q  c #253114",
"w  c #2C3716",
"e  c #223C13",
"r  c #29391B",
"t  c #333410",
"y  c #241527",
"u  c #341C27",
"i  c #312222",
"p  c #302F27",
"a  c #353733",
"s  c #450303",
"d  c #431508",
"f  c #521F04",
"g  c #561314",
"h  c #76151C",
"j  c #462807",
"k  c #40300D",
"l  c #4E2314",
"z  c #53201F",
"x  c #443414",
"c  c #663319",
"v  c #691822",
"b  c #4A3920",
"n  c #533925",
"m  c #4D2B32",
"M  c #4A3335",
"N  c #692521",
"B  c #7A2322",
"V  c #7E2A2E",
"C  c #673424",
"Z  c #783121",
"A  c #7B382C",
"S  c #18410E",
"D  c #254005",
"F  c #2C4206",
"G  c #2F4903",
"H  c #27400C",
"J  c #2E4A0C",
"K  c #35500E",
"L  c #2A4214",
"P  c #294A15",
"I  c #2D431C",
"U  c #284B1C",
"Y  c #334712",
"T  c #314A15",
"R  c #36431E",
"E  c #354C1F",
"W  c #375114",
"Q  c #35511E",
"!  c #304424",
"~  c #364B24",
"^  c #395224",
"/  c #3D542D",
"(  c #384432",
")  c #444314",
"_  c #434520",
"`  c #534021",
"'  c #445D22",
"]  c #455E2B",
"[  c #55532A",
"{  c #444238",
"}  c #6E4128",
"|  c #436422",
" . c #4A6321",
".. c #4A6428",
"X. c #4D692B",
"o. c #536623",
"O. c #506A28",
"+. c #4B6331",
"@. c #436930",
"#. c #536B32",
"$. c #506638",
"%. c #546A3C",
"&. c #4D783A",
"*. c #557330",
"=. c #5A7331",
"-. c #5B7439",
";. c #676E38",
":. c #627835",
">. c #3D3A40",
",. c #454546",
"<. c #574445",
"1. c #585244",
"2. c #4D4F50",
"3. c #565555",
"4. c #6F4C48",
"5. c #7A4841",
"6. c #665554",
"7. c #5C7540",
"8. c #5E7B40",
"9. c #637B43",
"0. c #7C6857",
"q. c #5D5C61",
"w. c #695E63",
"e. c #6C6668",
"r. c #767070",
"t. c #881B19",
"y. c #9D1522",
"u. c #AB1720",
"i. c #A41E25",
"p. c #AA1A26",
"a. c #B31729",
"s. c #B31C28",
"d. c #B41F30",
"f. c #892724",
"g. c #8C2925",
"h. c #88252E",
"j. c #992223",
"k. c #9B2129",
"l. c #96282D",
"z. c #873024",
"x. c #9C332A",
"c. c #992532",
"v. c #883331",
"b. c #983436",
"n. c #A82224",
"m. c #AC2A2D",
"M. c #A52130",
"N. c #B52730",
"B. c #BB2435",
"V. c #A83337",
"C. c #A53F38",
"Z. c #B53235",
"A. c #BE353B",
"S. c #C52435",
"D. c #CA3336",
"F. c #C43539",
"G. c #CE3039",
"H. c #D1383D",
"J. c #914C37",
"K. c #993544",
"L. c #AB2D42",
"P. c #B93541",
"I. c #C73541",
"U. c #935249",
"Y. c #9A5B5D",
"T. c #B5494B",
"R. c #886858",
"E. c #A7635B",
"W. c #A55D61",
"Q. c #996667",
"!. c #95696B",
"~. c #8E7B74",
"^. c #A86F74",
"/. c #C94547",
"(. c #D74C55",
"). c #E35D61",
"_. c #D4696E",
"`. c #E66568",
"'. c #7F8778",
"]. c #88857C",
"[. c #918479",
"{. c #9D7E83",
"}. c #8A8684",
"|. c #958D89",
" X c #9B9A9B",
".X c #B99E9A",
"XX c #B2A39A",
"oX c #AE9FA3",
"OX c #B2A3A5",
"+X c #D69E9F",
"@X c #DDB7B9",
/* pixels */
"> ; q 6 & < q 5 6 W | &.@.:  .) 3 T #. .4 D 4 T ~ 6 > e ! r 1 1 d l j d f g j j 4 @.@.&.@.: o.G D | | | 3 4 4 ^ I L 6 , P L - - ",
"e H 6 q > , L 5 5 4 D @.*.W D - ^ T 6 ~ Y 6 - Q U 5 x p < 6 8 0.R.R.0.R.R.R.R.0.~ e e +.%.) 7 J  .o.*.:.#.4 3 I I 5 > > < ; ; S ",
": 6 P e S , > 6 5 6 6 6 H : : L , e L e - , L ; r 0 d R.0.'.'.].}.~.].}.}.].~.}.].r.[.[.!.R.4.U.f j D 4 e 5 e L e < = 5 w q e e ",
"Q Y ^ e U S < , > * e > , < L , > , : > P ~ , w 0 z W.W.[.XX|. X X X X X|.}.}.].}.|.{.{.^.^._.{.U.J.` ` x 0 5 > : 6 5 w q e e L ",
"@.I L 3 L Q : S e > , , , * = = > = e e : Q Y 2 ~.Q.Y.Q..XXXXXXXoXoXOXoXoXoXoXOXoXOXoX.X@X@X@X+X^.T.K.h.h.g k 5 ; 6 e R 6 : e E ",
"T 6 6 5 J P 6 Y x n 1 1 0 x 0 i 2 1 2 t 2 x C E.E.U.V V Y.E.Q.Q.!.!.!.!.!.!.!.!.Q.!.Q.Q.^.Q.^.Q.h.x.M.p.i.g.Z f 2 5 t ) E 6 : E ",
"> L Y Y P : ) c h V.V.V.b.J.b.b.b.C.T.T.C.T.C.F.n.j.y.j.f.h.c.c.h.v.v.h.b.l.l.b.b.x.c.c.V.V.M.P.V.L.B.I.s.m.m.x.Z l j ) Q H 3 > ",
"6 5 5 4 ) 2 J.C.Z.F.I.I.T._._.).`.(.F.D.D.F.D.H.S.A.N.Z.V.Z.F.D.Z.C.V.Z.A.N./.`.`.`.(.).(.P.P._.P.P.F.I.P.B.I.B.Z.x.Z j Y 4 6 T ",
"~ > 7 j f J.Z.P.H.Z.l.V A v.b./.I.(.G.G.S.D.G.D.D.F.F.P.A.F.G.G.F.F.A.A.F.F.F./././.C.H.I.P.P.T.c.B B z.j.P.I.S.D.Z.k.v.j 4 Q P ",
"~ ) j U.C.Z.F.B.y.f.s X X # N v.L.B.S.S.S.D.I.D.F.F.F.A.F.F.G.G.F.B.N.n.a.a.a.n.k.n.n.n.N.P._.K.g # X X N f.L.A.D././.g.j Q P S ",
"~ x } k.G.G.P.c.v d l M i X 4.g h c.s.S.p.p.p.u.p.j.i.i.k.i.i.u.a.p.i.p.i.p.p.p.n.y.u.p.a.c.B g l O { % n $ h P.H.S.L.v.j R - S ",
"e x N t.d.B.M.h $ ,.  >.>.@   M $ V y.L.s.p.u.n.n.n.i.i.i.i.i.n.u.p.p.M.s.n.u.u.y.n.p.i.c.K.# <.X O 1.i 8 6.s K.A.P.M.v.1 H H , ",
"5 t j g l.l.l.g u >.@ 2.>.2.y M % N c.B.d.a.p.u.y.n.s.s.s.u.u.p.p.s.N.B.d.s.a.p.N.s.s.N.m.N % 9 X i 3.3.% 6.z N L.L.b.} t 4 t W ",
"~ t n $ h c.V z <.p ,.3.r.r.3.M { $ l.i.d.N.B.m.m.m.N.B.S.B.N.N.N.N.N.N.d.d.B.N.u.N.m.m.c.# 6.9 a e.w.e.3.9 4.g h.l.Z f 7 4 7 ;.",
"; > 8 d h c.h.g <.,.2.e.6.w.<.<.n $ B y.M.M.m.B.m.m.N.N.s.N.N.m.m.m.n.p.i.a.i.i.n.n.t.j.V # 3.,.2.e.q.e.4.M 6.1 N C n 7 K =.:.:.",
", 4 5 2 Z v V $ p a + <.<.6.9 9 8 n N B Z B z.g.z.g.g.f.g.g.z.z.Z z.f.f.g.g.z.Z z.z.z.Z f 0.9 9 + p 3.3.0 { i [ n k 7 )  . .:.G ",
"6 E 6 5 2 k k i 8 { o a a   . {   q 1 1 b b 1 1 1 k 1 1 1 1 k j x b 2 x 2 ` k k 2 x ) [ ) 5 . (   @ ,.@ 8 1.  7.8 q 3 X.X.X.X.: ",
"H L 3 6 H ~ ~ _ r @ 8 ( a   2.a q = e L > L Q > e > q < 6 q 6 6 > T 6 6 K T L 4 3 3 3 #.] e ! ( a O ,.@ { . 7.r E P H Y T H 4 H ",
"H H H T w 6 e ( ! p o q 8 @ q 9 , q e ; > 6 6 H ; 6 5 e > L 6 6 ~ 4 H Y E 3 I S D 4 H e ! ~ ~ q o 9 9 9 w m m m m m m m m 6 6 6 ",
"H 6 4 ~ T e 6 e > > L q L < < < r I ~ 6 D : T : 3 > L Q L e e 6 4 3 : H > 4 #.-.#.O.6 6 e > 6 e r q q m m m m m m m m m m m m m ",
"P : 6 e T H e ; : > ; 6 ~ > Y e e 6 ! T T 3 X.4 4 T L 4 6 ; ^ 4 -.W 3 - > #.H 7.#.Y : : L > 6 ~ ! ! m m m m m m m m m m m m m m ",
"~ E H 6 6 ; 6 6 , 4 6 > +.T 6 ; 6 6 6 3 W 4 ..=.: W 4 6 3 6 Q 3 -.O.W D +.W #...Y 4 H > , ; e ; m m m m m m 5.5.5.m m m m m m m ",
"E E > H P Q P 6 P +.^ & ^ T - %.I e : 4 4 4 T #.: D W 1.Q Y ; 6 ..O.| K 4 ] $.: L ; W P T H ; m m m m m m m m 5.5.5.m m m m m m ",
"; U 6 Q T ~ : 6 ; ~ | ~ - - T L 6 6 Y $.-.-.J K 4 T -.W 6 ; e : +.J X.J 4 4 6 6 : $.P H 4 ; m m m m m 5.5.5.5.m m 5.5.5.m m m m ",
": 6 : > 6 6 3 6 4 6 6 Q I ; ; 6 e R Y 6 F -.-.Y 4 +.+.L 6 ; 6 6 T W J J 4 4 6 e > e > : ; m m m m m m m m 5.5.5.5.5.5.5.5.5.m m ",
"H +.H H 6 4 6 6 > 6 ; ; 6 6 6 ; ; 6 L 6 6 W ] W 4 6 6 6 e e w > 4 L Q 4 : 6 H q I > ; ; ; m m m m m m m m 5.5.5.5.m m 5.5.5.m m ",
"w +.6 T ~ ; L 6 ~ Y 6 ; > * 6 ~ > ; 6 ; 4 3 6 4 6 ; ; e e > e 6 ' J : E e ; > +.] ~ 6 < m m m m m 5.m m m m 5.5.m m 5.5.5.m m m ",
"6 H 5 e ~ T : e 6 Q ~ r L e e E ! > 6 ; 6 5 6 6 6 w e e > < > 6 - T 6 / I U L > Q U L 6 m m m m m m 5.5.5.5.5.5.5.5.5.5.5.5.5.5.",
"4 ; 6 > H ~ 6 > > 6 e ; 6 6 e I ~ 6 > 6 6 ; 6 e * q > > < < * ; 6 6 > I ~ > 6 : 3 L E m m m m m m 5.5.5.5.5.5.5.5.5.5.5.5.5.5.5.",
"6 6 6 L ; e S : ; > 6 e 6 6 6 6 E e 6 6 6 ; * > > > = e ~ > ; > 6 6 e e ! ~ 6 6 6 F e m m m m m 5.5.5.5.m m m 5.5.5.m m 5.5.5.m ",
"e L > , , > 6 L 6 ~ Q P > 6 T 6 6 ; 6 Y ~ 6 6 > e q e ( ~ e ; e 5 6 e 6 : ~ 6 I 6 6 m m m m m m m m m m m 5.5.5.5.m m 5.5.5.5.m ",
"> e , - ; , , L 3 : P +.~ 4 T T 3 4 ^ Q +.6 w 6 ~ e e ! ! > q ; e q : ; ; 6 6 ~ : H m m m m m m m m m m 5.5.5.5.5.5.5.5.5.5.5.5.",
"- L 6 > - 6 6 6 D +.X.-. .S O.J D ' ..#.4 D H P Y e e > ~ r q > > 6 ; > > 6 6 > D m m m u u m m m m m 5.5.5.5.5.5.5.5.5.5.5.5.5.",
"r I e > < ; e ~ : 4 T ..-.J : D O.O.#.*...- : Q ~ * L e < ; > e < E L L - , L I T u m u u m m m m m 5.5.5.m 5.5.5.5.m 5.5.5.5.5.",
"U U 6 > ; ; 6 T T H & 4 4 ..6 Y G *.*.H ; ; < ~ e e - : < 4 3 H Q E & , > > > 6 : u u u m m m m m m 5.5.m 5.5.5.5.m m 5.5.5.m m ",
"E E L , 6 < e 6 : : 4 Y T E P P X.| H - 6 > > r q 6 L : : D L ' E E > > > 6 > : ; u u u m u u m m m m m m 5.5.5.m m 5.5.5.5.5.m ",
"E T 6 ; e L L H 6 L 7.7.+.- ~ > - , ; < > < > L ~ T L  .4 : :.-.Y I e ; > > : ~ > E u u u u u m m m m m m 5.5.5.5.5.5.5.5.5.5.5.",
"Y > - e E I , 6 H +.+.r e e > L S L ! ~ ~ e > - - Q J W o.: : o.T H ; ; e L L ! e L I u u u u m u u m m 5.5.5.5.5.5.5.5.5.5.5.5.",
"H 4 H P ~ U 6 6 - : L , > H > 6 : P T 4 6 - 3 - D 6 H | +.6 6 6 H P ; Y Y S E E 6 > e L u u m u u m m 5.5.5.m 5.m m 5.m m 5.5.m ",
": 3 6 6 L > ; ; L T I W D : H : J W H - H 6 L Q ~ ; 6 3 6 : e 6 : K 3 @.E 6 I , H 6 ; , ; u u u u m 5.5.5.m m m m 5.5.m m 5.m m ",
": L I 6 L > 6 - 6 4 : Q L D H : S : ; H > ~ Q E I 6 T : : T -.: D : : -.P : : 6 H H : Q ; u u u u m m m m m m m m 5.5.m m m m m ",
"$.Y Q 6 - ~ E ; > H D : K : : =.8.=.] H 6 S q ~ ~ e 6 4 W -.=.D O. .K =.: H - T T 6 : +.L H u u u m m m m m m m m 5.m m u m m u ",
"@.^ * L ~ ~ 6 ; : 7.J : : : O.] *.| W H ; ; , * L E 6 4 7.] 6 : ..*...J Y 7.8.X.: : H ..J ^ u u u u m m u m m u m m m u u u u u ",
"; +.6 > e - - 6 6 -.7.T S o.J X.@.W : 3 ^ E 6 6 H 3 H : ..T 3 H : K -.K 4 : 6 ; H : : : Q Q ; u u u m u u m m u u u u u u u u 6 ",
": : H e > > ; ; H ] X.+.4 S L X.6 6 : 6 T : - H ' #...: 4 D - D : : ^ Y - : : : : - L #.: : %.y u u u u m m u u > E ~ e 4 e : W ",
"7.L H Q e ; 6 > ; 4 ~ ..6 H #.+.H : D 6 ; ; #.9.-. . .4 4  .9.%.-.D ; H S ; = e ; ; L W +.P y y u u u y y y q > > e ~ E 3 : K -.",
": : 6 T I : e 6 ; 6 6 E ^ 3 ; : | ..L : 3 : - > H : H : O.=.=.^ : , L * < ; L ~ 6 > - > ~ Q y u u u y y ~ 6 Y > > > 6 T 4 D O.:.",
"H ; > H ^ ~ > e 6 e > - 6 L H P @.-.-...: S < : E P Y : H 6 3 : : 6 ; , q e , ! ! 6 : : 6 - y u y y y + I ; q e ; e 6 6 : Y :.G ",
"D L D H - e 6 L ; , = L < r < , = , ; ; : ; 6 E Y 6 6 H 6 > H : 6 I 6 6 6 : S : T : D #.> L y y y + + + R e e e < > e Q 6 Y +.4 ",
": ^ : P E ^ ; > = 6 e e - , > ; > e L < & - L > 6 T ; ; L > L , 6 U E 6 e ~ +.: D : ..*.: ; > y y y + + 6 e ^ w e 6 I E 3 Y 6 6 ",
"K : D +.+.: 6 e I I E e e > > > - , r > > e : ~ > ~ ^ H : e > e Y H ~ Q > - Q +.K D *.Q D 6 ; y y y y + + 6 X.3 3 ^ T E 3 6 6 6 ",
": D : H H : 4 P E H 6 - 6 6 e , < < > > > S ^ T > I L S 3 4 ^ > 3 4 4 6 : 6 H 7.| K X.D H H 6 > y y y + + + 9.' 3 J : H 3 * ; ; ",
"-.-.X.: : : H : H 6 ; > ! E E : < > < e e 6 P +.H ; ~ ; H Y Q 6 *.W , 4 ^ T : > ..K J L ..] ~ > > > + + + + =.=.4 : 4 6 > L 6 e ",
"-. .' O.D ..+.7.7.] T - ; 6 P ^ e 6 - ~ ; 6 +.4 : : 4 D | Q P : *.9.H T - +.%.Y H P J K P H e > > H 6 3 4 3 G =.: G O.-.+.E I e ",
"K ..O.J D T W ] - ; : : ; H L I E e > ~ Q w > - 4 4 : 6 ] +.6 : O.' W J 6 3 -.$.T Q H P 6 > e ; = e 6 6 J W J o.K o.o.%.T : e e ",
"- K | : - Y ..: : 6 6 6 - ; > 6 > H 4 Y | D - H ..X.$.X.6 6 4 4 ..J D : 6 6 6 6 Q T 6 3 6 ; 6 , > Q Q $.-.-...J G W W T : e * q ",
": 6 6 T Y 6 - : +.+.I H > ; < H ; P 4 : X.+.: X.-.*.J : H 4 : D : T 4 6 6 & e 6 6 ~ L ; 6 S : - e 6 e 6 : Y ~ T : 4 6 6 6 * > e ",
"D +.-...6 : 6 +.E ~ > U ; ; S $.L * : 4 D : 3 X.-.: : X...P W : H +.H ; > ; 6 6 < e < - e 6 L , = : 6 6 e e 6 ; ; ; e 6 6 6 I e ",
"Y ] T : 4 U - 6 ; L < I e ; > +.] 4 H T ' -.#.K : : #.8.%.-.| 3 L @.6 * > e > > 6 > ; , > < ^ < 6 4 ; ; e ; > e ! = < > e e R > ",
": , 6 6 H L > L 6 L L - > ; L +.+.D P 7.9.#.| X.: : ..T O...6 ; H L 6 ; e I > 6 > > 6 e 5 L I E > 6 > 5 > > w ! / < > < e e e > ",
"e 6 e L L , > > , L L > - ; H +.6 H 4 ~ ] *.#.| W H H P X.6 6 > < , 6 > 6 E e 6 6 ; L L 6 6 6 E 3 6 6 ; ; > ~ I ! e q > w > > > ",
"6 6 I L > H ~ ~ e L L 6 ; ; 6 6 4 3 ; T : : D H - : 6 H H - > ; e e L > : E L 6 6 : ^ > 6 6 6 6 I 4 6 6 e 6 E e 5 e : ; L > : q ",
"e 6 > > ; > L I 6 6 e 6 ; S ~ : L ; S ..] : 6 : D : : : < S - < e < 6 - - T T L 4 6 E I ; 6 Q 4 L 6 6 ] +.6 6 : 6 6 > 6 e > 6 q ",
"> 6 : 6 ; 6 6 ~ 6 > 6 ..; : Y E 6 e L T $.: : 6 T 4 6 E ( > > , e r q > ; 6 4 E S : : %.> 3 E Y ; w Y ^ +.4 6 4 E 3 6 E ~ ; : > "
};
