/* XPM */
static char *exitcarldown11680168879[] = {
/* columns rows colors chars-per-pixel */
"64 64 193 2 ",
"   c #020101",
".  c #010A00",
"X  c #160202",
"o  c #081103",
"O  c #10100E",
"+  c #090A14",
"@  c #131C17",
"#  c #270000",
"$  c #330100",
"%  c #281010",
"&  c #0E2901",
"*  c #132A03",
"=  c #152A0A",
"-  c #163403",
";  c #1A3205",
":  c #1F3804",
">  c #1B320B",
",  c #17380D",
"<  c #1F3113",
"1  c #372505",
"2  c #36260B",
"3  c #392E0C",
"4  c #233502",
"5  c #233C04",
"6  c #27310C",
"7  c #223A0B",
"8  c #353403",
"9  c #222413",
"0  c #22251F",
"q  c #382913",
"w  c #253114",
"e  c #223C13",
"r  c #2D3816",
"t  c #29391B",
"y  c #333410",
"u  c #241527",
"i  c #341C27",
"p  c #312222",
"a  c #302F27",
"s  c #353733",
"d  c #450303",
"f  c #431508",
"g  c #521F04",
"h  c #561314",
"j  c #76151C",
"k  c #462807",
"l  c #40300D",
"z  c #4E2314",
"x  c #53201F",
"c  c #443414",
"v  c #663319",
"b  c #691823",
"n  c #4A3820",
"m  c #533925",
"M  c #4D2B32",
"N  c #4A3335",
"B  c #692521",
"V  c #7A2322",
"C  c #7E2A2E",
"Z  c #673424",
"A  c #783121",
"S  c #7A382C",
"D  c #18410E",
"F  c #254005",
"G  c #2E4605",
"H  c #27400C",
"J  c #2D4A0C",
"K  c #35500E",
"L  c #2A4214",
"P  c #294A15",
"I  c #2D431C",
"U  c #284B1C",
"Y  c #334712",
"T  c #314A15",
"R  c #36431E",
"E  c #354C1F",
"W  c #375114",
"Q  c #35511E",
"!  c #304424",
"~  c #364B24",
"^  c #395224",
"/  c #3D542D",
"(  c #384432",
")  c #444314",
"_  c #434520",
"`  c #534021",
"'  c #435D21",
"]  c #455E2B",
"[  c #55522A",
"{  c #444238",
"}  c #6F4128",
"|  c #436422",
" . c #4A6321",
".. c #4A6428",
"X. c #4D692C",
"o. c #526826",
"O. c #4B6331",
"+. c #436930",
"@. c #546B32",
"#. c #506638",
"$. c #536A3B",
"%. c #4D783A",
"&. c #567330",
"*. c #5B7539",
"=. c #676E38",
"-. c #627835",
";. c #3D3A40",
":. c #454546",
">. c #574445",
",. c #595244",
"<. c #4D4F50",
"1. c #565555",
"2. c #6F4C48",
"3. c #7A4841",
"4. c #665554",
"5. c #5C7540",
"6. c #5F7B40",
"7. c #637B43",
"8. c #7C6857",
"9. c #5D5C61",
"0. c #695E63",
"q. c #6C6668",
"w. c #767070",
"e. c #881B19",
"r. c #9D1522",
"t. c #AB1720",
"y. c #A41E25",
"u. c #AA1A26",
"i. c #B31729",
"p. c #B31C28",
"a. c #B41F30",
"s. c #892724",
"d. c #8C2925",
"f. c #88252E",
"g. c #992223",
"h. c #9B2128",
"j. c #96282D",
"k. c #873024",
"l. c #9C332A",
"z. c #992532",
"x. c #883331",
"c. c #983436",
"v. c #A82224",
"b. c #AC2A2D",
"n. c #A52130",
"m. c #B52730",
"M. c #BB2435",
"N. c #A83337",
"B. c #A53F38",
"V. c #B53235",
"C. c #BE353B",
"Z. c #C52435",
"A. c #CA3336",
"S. c #C43539",
"D. c #CE3039",
"F. c #D1383D",
"G. c #914C37",
"H. c #993544",
"J. c #AB2D42",
"K. c #B93541",
"L. c #C73541",
"P. c #935249",
"I. c #9A5B5D",
"U. c #B5494B",
"Y. c #886858",
"T. c #9A645C",
"R. c #A7635B",
"E. c #AD7757",
"W. c #A55D61",
"Q. c #996667",
"!. c #95696B",
"~. c #8E7A74",
"^. c #A4666A",
"/. c #A9777C",
"(. c #B77577",
"). c #C94547",
"_. c #D74C55",
"`. c #E35D60",
"'. c #D4696E",
"]. c #E66568",
"[. c #7F8778",
"{. c #88857C",
"}. c #918579",
"|. c #9D7E83",
" X c #8A8684",
".X c #958D89",
"XX c #9B9A9B",
"oX c #B99E9A",
"OX c #B2A39A",
"+X c #AE9FA3",
"@X c #B2A3A5",
"#X c #D69E9F",
"$X c #DDB7B9",
/* pixels */
"> ; w 7 * e w 6 7 W | %.+.5  .) 4 T @. .5 5 5 T ~ 7 > e ! t 2 2 f z k f g h k k 4 +.+.%.+.- o.G 5 | | | 4 5 7 E I L 7 > P e ; : ",
"e H 7 w > , e 6 6 5 5 +.&.W 5 - ^ E H Q T 7 ; Q I 7 c a < e 9 8.Y.Y.8.8.Y.Y.Y.8.^ e e #.@.) 8 G  .o.&.-.@.5 4 I I 6 > > D > ; D ",
": 7 P e D , > > 6 7 7 7 7 > : L , , L L - , e ; t q f Y.8.[.[.[. X|.{.{. X{.~.{.{.w.{.}.!.Y.2.P.g k 5 F 7 6 e e e < = 6 r w e e ",
"Q Y ^ e U D , , 7 * e > > e L , , < - > P ~ D r q h W.^.}.OX.XXXXXXXXXXX.X X X{. X.X|.|././.'./.P.G.` ` n 3 6 : : 7 6 r w e e L ",
"+.I 7 4 L ^ 7 D e > , , , * = = < = , e : Q T 1 ~.Q.I.^.OXOXOXOX+X+X+X+X+X+X@X@X@X@XOXoX$X$X$X#X(.U.H.f.f.h 3 6 * 7 e R 7 - e E ",
"T 7 7 6 J P 7 Y c ` 1 2 q c q p 1 1 3 3 3 c Z R.R.P.C C I.I.T.Q.!.!.!.!.!.!.!.!.Q.!.Q.Q./.Q.^.^.f.j.n.u.r.s.A g 3 6 y ) E 7 5 E ",
"> L Y T P 5 ) v j N.N.N.c.G.c.c.c.B.U.U.B.U.B.S.v.g.r.g.d.d.z.z.f.x.x.f.c.j.j.c.c.l.z.z.N.N.n.K.N.J.m.L.m.b.b.l.A g k ) ^ 7 4 7 ",
"7 6 6 5 ) 1 G.B.V.S.L.L.U.'.'.`.]._.S.S.A.S.A.D.Z.C.m.V.N.V.L.D.V.B.N.V.C.m.).].].]._.`._.K.K.'.C.K.L.L.K.M.L.M.C.l.A k Y 5 7 Y ",
"^ : 8 k g G.V.K.F.V.z.C S x.c.).L._.D.D.Z.A.A.A.A.S.S.C.S.S.D.D.S.S.C.C.S.S.S.).).).B.F.L.K.K.U.z.V V k.h.K.S.S.A.V.g.x.k 5 Q P ",
"~ ) k P.B.V.L.a.r.s.d X X # B x.J.M.Z.Z.Z.A.F.A.S.S.C.C.S.S.D.D.S.M.m.u.i.i.i.v.g.v.v.v.a.K.'.H.h # X X B s.J.C.A.).).d.k Q P D ",
"! n Z h.D.D.K.z.b f z N p X 2.h j z.a.Z.u.u.t.t.t.g.y.y.h.n.y.t.u.u.n.u.v.u.u.u.y.y.t.u.u.z.V b z + { % m $ j K.L.Z.J.x.k I : D ",
"7 c B e.a.M.n.j $ :.  ;.;.@   N $ C y.J.p.u.t.v.v.v.y.y.y.y.y.y.t.t.u.n.u.u.t.u.r.v.u.y.z.H.# { X O ,.p 9 4.d H.K.K.n.x.2 H H , ",
"> 3 k h z.z.j.x p ;.@ <.;.<.u N % B j.M.a.i.u.t.r.v.i.i.i.t.t.u.u.p.m.m.a.p.p.p.m.i.p.m.b.B % p X p 1.1.% 4.x b J.J.c.} 3 5 y W ",
"^ y m $ j z.C h >.0 :.1.w.w.1.N { $ j.u.a.m.M.b.b.N.a.M.Z.M.m.m.m.m.m.m.a.a.M.m.t.m.b.b.z.# 4.0 N q.q.q.1.0 2.h f.j.A g 8 H 8 =.",
"> : 9 f j z.f.h >.:.<.q.4.0.>.>.m $ V r.n.n.b.m.b.b.m.m.p.m.b.b.b.b.v.u.u.u.y.y.v.v.e.g.C X 1.:.<.q.9.q.2.N 4.2 B Z ` 8 K &.-.-.",
", 7 6 1 A b x.$ a s O >.>.4.0 0 9 m B V A V k.d.k.d.d.d.d.d.k.k.A k.d.d.d.d.d.A k.k.k.A g 8.0 0 + a 1.<.q { p [ m l 8 )  . .-.G ",
": ~ 7 6 2 l l p @ { o s s   . {   w 2 2 n ` 2 1 1 3 2 1 2 2 l k c n 1 c 1 ` c l 1 c ) [ ) 6   (   @ :.@ 9 ,.  5.9 6 4 X.X.X.X.: ",
"H L 4 7 H ^ ~ _ t 9 9 ( s   <.s w = e e > e ^ > e > w < e w 7 7 : I 7 7 K Y L : 4 5 4 @.] e ! ( s + :.@ { . 5.t ~ P H P T H 5 H ",
"H H H T 7 7 e ( ! a o w 9 @ w 0 , e e ; 7 > 7 7 ; 7 > e 7 e 7 5 ~ 5 L Y E 5 P F G : L 7 ! ~ ^ < o 0 0 9 t r E P 5 7 F - 4 e 7 7 ",
"H 7 5 ~ W e 7 e > > t < I < < < t I ~ 7 F 4 T 5 4 7 L ~ L e e r 5 : : H : : $.*.@.X.7 7 e > 7 e t w w e > 7 7 : : & ; H H : 7 7 ",
"P 7 7 , R 7 e ; - > ; 7 ~ > Y e e 7 E T T 4 X.5 5 T L 5 7 ; ^ 5 *.K 4 ; > $.H *.@.T 4 : L > 7 ~ R ~ r e $.7 - : : H H H : > L : ",
"E E H 7 7 - 7 7 e : > 5 O.T 7 : 7 7 7 4 W : ..&.: W 5 H 4 7 ~ 4 *.X.W F ] W @...J 5 , : D - e ; ~ ] Y 4 ] *.F F J ] ^ : H ~ ~ < ",
"E E > H T Q P 7 P X.^ & ^ T - $.R e ; 5 5 5 W @.: 5 Y 5.E Y > 7 ..o.| K F ] #.: L ; W P T H - < ; G Y 7 @.&...; X.P 7 4 E ! e 7 ",
"; U 7 ~ T Q : 7 - Q ] ~ - - T L 7 7 Y #.*.*.J W 4 Y 5.T 7 ; e 4 O.J X.J 5 5 7 7 : $.T H : : < - r - 5 F ; W ..4 X.- 5 7 : 7 e e ",
": 7 : > 7 7 4 7 5 7 7 ~ ~ - ; 7 e R L H G *.*.Y 4 O.O.L 7 ; 7 7 T W J K : 5 7 e > < > : ; L > < ; 5 5 | D 5 J W - X.*.] #.7 H : ",
"H O.H e 7 5 7 7 : 7 - ; > 7 7 * * 7 L 7 7 W ] W 4 H : 7 e e e > 5 L Q F : 7 : e I > ; - : > > , ; : O.*.&.X.W F X.6...F 4 > E L ",
"r X.7 Y ~ ; L e E Y 7 * 6 * 7 ^ > ; 7 : 5 5 7 7 7 : > e e > e 7 ' J ; E e - > #...~ 7 M M M M M M M M P +.@.#.J X.Q H F 5 T E ; ",
"7 H 6 L ~ T : 7 7 E ~ I e e e I ! > ; ; 7 6 7 7 7 e e e > w > 7 - W 7 / I I L > M M M M M M M M M M M M M ..X.W O.J : ^ T E 7 ; ",
"5 ; 7 7 7 ^ 7 > > 7 E.E.E.E.E.E.E.E.E.E.7 : 7 e * w > > < < * ; 7 > > I E.E.E.E.M M M M M M M M M M M M M M ; H : 4 5 > 7 L : > ",
"7 7 e D ; 7 e 7 ; E.E.E.3.3.3.E.E.3.3.E.E.E.* > > > = e ! 7 ; E.E.E.E.E.E.E.E.M M M M M M M M 3.3.3.M M M M M M : 7 L 7 7 7 > > ",
"w L > < < > 7 E.3.E.3.3.E.3.E.i M E.E.E.E.E.E.E.e w e E.E.E.E.E.E.E.3.E.E.M E.M M M M M M M 3.3.3.M M M M M M M M ; > e e > > e ",
"> D , - - D E.E.E.3.3.3.3.3.E.i M E.E.E.E.E.E.E.E.E.E.E.E.E.3.3.3.E.3.3.M M M M M M M M 3.3.3.M M 3.3.3.3.M M M M M 7 ~ I w w = ",
"> D 7 > E.E.3.3.3.3.3.3.3.3.i M E.E.E.E.E.E.E.E.E.E.E.E.E.E.E.E.3.3.3.3.M M M M M M 3.P.3.3.3.3.3.3.3.M M M M M M M M e ! < > > ",
"I I M i i M M 3.3.u u u 3.3.M E.E.E.3.E.E.E.E.E.E.E.E.3.3.3.3.E.E.3.M M M M M M M M 3.3.3.M M 3.3.3.3.M M M M M M M M & < < < e ",
"I + + + i M M M 3.3.3.3.3.3.3.3.3.E.E.3.E.E.E.E.3.3.E.E.3.3.3.3.3.M M M M M M M M M M 3.3.3.M M 3.3.M M M M 3.M M M M M L 7 > 7 ",
"I i + i i i M M 3.M M 3.3.3.3.3.3.E.E.3.3.3.3.E.E.3.3.E.3.3.3.3.3.M 3.3.M M M 3.3.3.3.3.3.3.3.3.3.3.3.3.3.3.M M M M M M 7 7 7 I ",
"~ i u i i i i M M M 3.3.3.3.3.3.E.E.3.3.3.3.E.E.E.3.3.3.3.3.3.3.3.3.3.M M M M 3.3.3.3.3.3.3.3.3.3.3.3.3.3.3.3.M M M M M M e 7 T ",
"T i u i i i i M M M 3.3.3.3.3.3.3.3.3.3.3.3.3.E.3.3.3.3.3.3.3.3.3.3.3.M M M M M M 3.3.3.M M 3.3.3.M M M 3.3.3.3.M M M M M 7 7 ^ ",
"H i u i i i i M M 3.3.M 3.3.3.3.3.3.3.3.3.3.3.E.3.3.3.3.3.3.3.3.3.3.3.3.M M M 3.M 3.3.3.3.M M 3.3.3.3.M M M M M M M M M M M ; 7 ",
"5 i u u u i i i M M M M 3.3.3.3.3.3.3.3.3.3.3.3.3.3.3.3.3.3.3.3.3.3.M 3.3.M M 3.3.3.3.3.3.3.3.3.3.3.3.3.M M M M M M M M M M e ~ ",
": 7 i i i i i i i i M M M 3.M M 3.3.3.3.3.3.3.3.3.3.3.3.3.3.3.3.3.3.M M M M M M 3.3.3.3.3.3.3.3.3.3.3.3.3.M M M M M i i M M M ~ ",
"#.Y ^ i i i i i i i i i i M M 3.3.3.3.3.3.3.3.3.3.3.3.3.3.3.3.3.3.3.3.3.M M 3.3.3.3.3.3.3.M 3.3.3.3.M 3.3.3.M M M M M i i M i e ",
"+.^ ; e ~ ~ 7 ; : 5.J i i i i M M 3.M 3.3.3.3.3.3.3.3.3.3.3.3.3.3.3.M M M M M 3.M M 3.3.3.M M 3.3.3.3.M 3.3.M M M M M M i i i 7 ",
": O.> : 7 , - 7 7 *.5.T F X.i i M M M 3.3.3.3.3.3.3.3.3.3.3.3.3.3.3.3.M M M M M M 3.3.3.3.3.M M 3.3.3.M M M M M M i i M i i i L ",
": : H e > > ; ; H ] X...: : L i M M 3.3.M 3.3.3.3.3.3.3.3.3.3.3.3.3.M M M M M 3.3.3.3.3.3.3.3.3.3.3.3.M M M M M M i i i i i : W ",
"5.L H ~ e ; 7 > > 5 ~ O.H H @.O.M M M M 3.3.M 3.3.3.3.3.3.3.3.3.M 3.3.3.M M M M 3.3.3.3.3.3.3.3.3.3.3.3.M M i i M i i i i 4 K *.",
": : 7 Y I 7 e 7 ; 7 : E ^ 5 : : | M M M 3.M M 3.3.M 3.3.3.3.3.3.M M M 3.M M i M M 3.3.M M 3.M M 3.M 3.3.2.M M i i M i i 5 F @.-.",
"7 - 7 H E Q > e 7 e > , : L 7 P +.*.M M M M 3.3.M M 3.3.3.M 3.3.3.M M M M p i i M M 3.M M 3.3.M M M M 3.P.} M i i i i 7 5 J -.G ",
"F L F H - e 7 < , : > e e I < > > , ; ; M M 3.3.M 3.3.3.3.M M M 3.M M i i i i i M M M M M 3.3.M M M M M M M M i i i i E 7 Y ..5 ",
": ^ 5 P E ^ > : > 7 e e = > > > = e L , * M M M M M 3.M 3.3.M M M i i i i i i i i M M i M M 3.M M M M M M M M i i i I E : T 7 7 ",
"K : 5 O.O.: 7 e I I E , e > > > > > t > > L M M M M 3.M M M i i i i E E > , i i i i i i i M M M i M M i M M i i i i T E 5 7 7 7 ",
"D F : H 7 : 5 T ~ H 7 - 7 7 e , , < > , > , M M M M M M M i i + + : F 7 : H 7 5.| i i i i i i i i M M i i M i i u J : H 4 * > ; ",
"&.*.@.: : : 7 5 H : ; > I ~ E D D < < < e 7 M M i i i i i i + + + W H : ^ T : : ..W J L ..] ~ > = i M M i i i u + 5 5 7 4 e 7 e ",
"*. .' ..F | O.*.5.O.Y - - 7 Y E w : - ^ : u M i i i i + + + + + + 7.H P - O.#.Y H L J K P H H > 6 e i i i i i u + + o.5.O.E I e ",
"K  .X.J F T W ] - > ; : > H H I E e > E u M M i i u u + + + + + + + W J 7 5 5.O.Y E H P H ; 7 = = e 7 7 i i i u + + o.@.Y ; e e ",
"; K  .5 - T ..7 : : 7 7 - : > 7 > H 4 u u i i u u u $...+ + + + + + F : 7 7 7 7 ^ T 7 5 7 > 7 > > E E #.u i i u + + W T 7 e * w ",
"4 7 H T T 7 - ; O.O.~ : > ; , 7 : P 4 u i u u u *.&.J : H + + + + + + H 5 & e 7 , E L ; 7 < : , e 7 e 7 u i u u + + 7 7 7 * > w ",
"5 O.*...7 : 7 O.E ~ > I , - 7 #.e - u u u u u X.*.: - X...T + + + + + ; > ; : 7 P < < - L 7 L > = 4 7 7 u u u + + - e > 7 7 I e ",
"T ] T 7 5 P , : > L < I 7 ; 7 O.] : u u u u @.K F : @.-.$.*.+ + + + + * > e > > 7 > > > > , ~ e 7 5 ; u u u u + + = < : e e ~ : ",
": , 7 7 H e > L 7 H P - > > e #.O.u u u u @.| X.: : ..P @...7 > + + + - e I > 7 > : 7 e > L I E ; 7 u u u u + + / < > < e e e > ",
"e 7 e L L > > > < L L 7 - ; H O.H u u u | &.@.| W 7 H T O.5 7 > + + + > 7 ~ e 7 7 ; L e 7 7 7 ~ 4 7 u u u u ~ I r e < > e 6 > > ",
"7 7 I L > 7 ~ ^ H L L > > ; : 7 4 5 > T > : F F - : 7 H H ; > - , e L > > Q L H 7 7 ^ > 7 7 7 7 R 5 7 7 e 7 ~ e 7 e 7 > e 7 ; w ",
"e 7 : > ; : e L H , e 7 - 7 ~ : H ; D ..O.: > 7 F : : ; e , * e w e 7 - - T P L : D E I ; 7 Q 5 L 7 7 ] O.7 7 5 e 7 7 : e > 7 < ",
": 7 ; e > 7 e ^ 7 > 7 ..- : T ~ 7 e L T #.: 7 : T F 7 E ( > > , e t w > ; H 4 Q H : : $.; 4 ~ Y ; e Y E O.5 7 4 E 4 7 E ~ > : > "
};
