/* XPM */
static char *exitcarrdown51680168884[] = {
/* columns rows colors chars-per-pixel */
"64 64 193 2 ",
"   c #020101",
".  c #010A00",
"X  c #160202",
"o  c #081103",
"O  c #10100E",
"+  c #131C17",
"@  c #270000",
"#  c #330100",
"$  c #281010",
"%  c #0E2901",
"&  c #132A03",
"*  c #152A0A",
"=  c #163403",
"-  c #1A3205",
";  c #1F3804",
":  c #1B320B",
">  c #17380D",
",  c #1F3113",
"<  c #372505",
"1  c #36260B",
"2  c #392E0C",
"3  c #233502",
"4  c #233C03",
"5  c #27310C",
"6  c #223A0B",
"7  c #353403",
"8  c #222413",
"9  c #22251F",
"0  c #382913",
"q  c #253114",
"w  c #223C13",
"e  c #2D3816",
"r  c #29391B",
"t  c #333410",
"y  c #341C27",
"u  c #312222",
"i  c #302F27",
"p  c #353733",
"a  c #450303",
"s  c #431508",
"d  c #521F04",
"f  c #561314",
"g  c #76151C",
"h  c #462807",
"j  c #40300D",
"k  c #4E2314",
"l  c #53201F",
"z  c #443414",
"x  c #663319",
"c  c #691823",
"v  c #4A3820",
"b  c #533925",
"n  c #4D2B32",
"m  c #4A3335",
"M  c #692521",
"N  c #7A2322",
"B  c #7E2A2E",
"V  c #673524",
"C  c #783121",
"Z  c #7A382C",
"A  c #19410E",
"S  c #254005",
"D  c #2C4206",
"F  c #2F4903",
"G  c #27400C",
"H  c #2E4A0C",
"J  c #35500E",
"K  c #2A4214",
"L  c #294A15",
"P  c #2D431C",
"I  c #284B1C",
"U  c #334712",
"Y  c #314A15",
"T  c #36431E",
"R  c #344C1F",
"E  c #375114",
"W  c #35511E",
"Q  c #304424",
"!  c #364B24",
"~  c #395224",
"^  c #3D542D",
"/  c #384432",
"(  c #444314",
")  c #434520",
"_  c #534021",
"`  c #445D22",
"'  c #455E2B",
"]  c #55522A",
"[  c #444238",
"{  c #6E4128",
"}  c #436422",
"|  c #4A6321",
" . c #4A6428",
".. c #4D692B",
"X. c #536623",
"o. c #506A28",
"O. c #4B6331",
"+. c #436930",
"@. c #546B32",
"#. c #506638",
"$. c #536A3C",
"%. c #4D783A",
"&. c #557330",
"*. c #5A7331",
"=. c #5B7539",
"-. c #676E38",
";. c #627835",
":. c #3D3A40",
">. c #454546",
",. c #574445",
"<. c #595244",
"1. c #4D4F50",
"2. c #565555",
"3. c #6F4C48",
"4. c #7A4841",
"5. c #665554",
"6. c #5C7540",
"7. c #5E7B40",
"8. c #637B43",
"9. c #7C6857",
"0. c #5D5C61",
"q. c #695E63",
"w. c #6C6668",
"e. c #767070",
"r. c #881B19",
"t. c #9D1522",
"y. c #AB1720",
"u. c #A41E25",
"i. c #AA1A26",
"p. c #B31729",
"a. c #B31C28",
"s. c #B41F30",
"d. c #892724",
"f. c #8C2925",
"g. c #88252E",
"h. c #992223",
"j. c #9B2128",
"k. c #96282D",
"l. c #873024",
"z. c #9C332A",
"x. c #992532",
"c. c #883331",
"v. c #983436",
"b. c #A82224",
"n. c #AC2A2D",
"m. c #A52130",
"M. c #B52730",
"N. c #BB2435",
"B. c #A83337",
"V. c #A53F38",
"C. c #B53235",
"Z. c #BE353B",
"A. c #C52435",
"S. c #CA3336",
"D. c #C43539",
"F. c #CE3039",
"G. c #D1383D",
"H. c #914C37",
"J. c #993544",
"K. c #AB2D42",
"L. c #B93541",
"P. c #C73541",
"I. c #935249",
"U. c #9A5B5D",
"Y. c #B5494B",
"T. c #886858",
"R. c #9A645C",
"E. c #A7635B",
"W. c #AD7757",
"Q. c #A55D61",
"!. c #996667",
"~. c #95696B",
"^. c #8E7A74",
"/. c #A8696D",
"(. c #A9777C",
"). c #C94547",
"_. c #D74C55",
"`. c #E35D60",
"'. c #D4696E",
"]. c #E76568",
"[. c #7F8778",
"{. c #88857C",
"}. c #918579",
"|. c #9D7E83",
" X c #8A8684",
".X c #958D89",
"XX c #9B9A9B",
"oX c #B99E9A",
"OX c #B2A39A",
"+X c #AE9FA3",
"@X c #B2A3A5",
"#X c #D69E9F",
"$X c #DDB7B9",
/* pixels */
": - q 6 & w q 5 6 E } %.+.; | ( 6 L @.| 4 4 ; R R 6 : w Q r 1 1 s k h s d f h h 3 +.+.%.+.; X.F S } } } 3 3 6 R P K 6 : L w - = ",
"w G 6 q : > w 5 5 4 4 +.&.E S = ~ Y G R U 6 = W P 5 z i , w 8 9.T.T.9.9.T.T.T.9.! w > #.@.( 7 D | X.&.*.@.4 ; P P 5 : : A : = G ",
"- 6 L w A > : : 5 6 6 6 6 6 ; w > , A K = > G : r 2 s 9.9.[.[.{. X|.[. X X{.^.{.{.e.{.}.~.T.3.I.d h S S 6 5 w K w , * 5 e q , K ",
"W U ~ w I A > > 6 & w : : 6 P > : G > : I R A e 0 l Q.Q.}.OX.XXXXXXXXXXX.X X X{. X.X|.|.(.(.'.(.I.H._ _ v 2 5 : ; 6 5 e q w w K ",
"+.P 6 3 K ~ A G w : > > > & * * , * G , = W U 2 ~.!.U./.oXOXOXOX+X+X@X@X+X+X+X@X+X@X+XoX$X$X$X#X(.Y.J.g.g.f j 5 - 6 w T : ; w R ",
"Y 6 6 5 H L 6 U z b 1 1 0 z 0 u < < 2 2 2 z V E.E.I.B B U.U.R.!.~.~.~.~.~.~.~.~.!.~.!.!.(.~././.g.z.u.i.u.d.C d 2 5 t ( W A 6 R ",
"6 K U Y L ; ( x g B.B.B.v.H.v.v.v.V.Y.Y.V.Y.V.D.b.h.j.h.d.g.x.x.g.c.c.g.v.k.k.v.v.z.x.x.B.B.m.L.B.K.s.P.s.n.n.z.C d h ( W 6 3 6 ",
"6 5 5 4 ( < H.V.C.D.P.P.Y.'.'.`.]._.D.D.S.D.S.F.A.Z.M.C.B.C.D.S.C.V.B.C.Z.M.).].].]._.`._.L.L.'.Z.L.P.P.L.N.P.N.C.z.C h U 4 6 U ",
"! - 7 h d H.C.P.G.C.k.B Z c.v.).P._.F.F.A.S.S.S.S.D.D.Z.P.D.F.F.D.D.Z.Z.D.D.D.).).).V.P.P.L.L.Y.x.N N l.t.L.P.D.S.C.j.c.h 4 W L ",
"! ) h I.V.C.D.s.t.d.a X @ @ M c.K.N.A.A.A.S.G.S.D.D.Z.Z.Z.D.F.F.D.N.M.b.p.p.p.b.h.b.b.b.M.L.'.J.f # X X M d.K.Z.S.).).f.h W L A ",
"T v { j.S.F.L.x.c s k m u   3.l g x.s.A.i.i.y.y.i.h.u.u.j.u.u.y.p.i.u.i.b.i.i.i.b.t.y.i.i.x.N l k O [ $ b # g L.P.A.K.c.h T = A ",
"6 z M r.s.N.m.g # >.  :.:.+   m # B t.K.a.i.y.b.b.b.u.u.u.u.u.b.y.i.i.m.i.i.y.y.t.b.i.i.x.J.@ ,.  O <.u 8 5.# J.L.L.m.c.2 G G > ",
": 2 h f k.k.k.l u :.+ 1.:.1.$ m $ M k.N.s.p.i.i.t.b.a.p.p.y.y.i.i.p.M.M.s.p.a.a.M.a.a.M.n.M $ 0 X u 2.2.$ 5.l M K.K.v.{ 2 4 t E ",
"~ t b # g x.B f 1.y >.2.e.e.2.m [ # k.i.s.M.N.n.n.n.M.N.A.N.M.M.M.M.M.M.s.M.N.M.y.M.n.n.k.@ 5.9 m w.q.w.2.u 3.f g.k.C d 7 4 7 -.",
": ; 8 s g x.g.f ,.>.1.w.5.q.,.,.b # N t.m.m.n.M.n.n.M.M.a.M.n.n.n.n.b.i.i.i.u.b.b.b.r.h.c.@ 2.>.1.w.0.w.3.m 5.1 M V _ 7 Y *.;.;.",
"> 6 5 < B c B # i p O ,.,.5.9 9 8 b M N C N l.f.f.f.f.d.f.f.l.f.C l.d.f.d.f.f.C l.l.l.C k 3.9 9 O i 2.2.0 [ u ] b j 7 ( | | ;.F ",
": R 6 5 2 j j u * [ o p p   . [   q 1 1 v v 1 < < j 1 < 1 1 j h z v < z < _ z j < z ( ] ( 5 . /   + >.+ 8 <.  6.8 5 4 ....@...; ",
"G K 3 6 G ! ! ) e + 8 / p   1.p q * w K : K W : w : q , w q 6 6 : P G 6 J Y K ; 3 4 4 @.O.q Q / p O >.+ [ . $.P ! L G U Y 6 3 G ",
"G G G U 6 6 w / Q i o q 8 + q 9 : , w : 6 > : G - 6 : 6 : K 6 6 R 6 G U R 3 K 4 D ; G 6 P ! ~ , o 9 9 9 r T R U ; G S - 4 G : G ",
"G 6 4 ~ Y w 6 w : : K , P q , , r P ! 6 D ; Y 4 4 6 K R K w w 6 4 3 ; G 6 ; $.=.@.o.6 w w : 6 w r q q , : 6 : ; ; % = A G : 6 6 ",
"L G : w T G w - ; : : 6 ! : K K w 6 R U Y 3 ..6 3 Y K 6 6 - ~ 4 =.J 3 = 6 $.G 7.o.R ; ; K : : ! Q ! e w $.6 - ; 6 G G G ; : K : ",
"R R G 6 6 = 6 6 > ; : 6 O.Y 6 ; 6 6 : 6 E ;  .*.; E 4 G 3 6 ! 4 =.o.E S ' E o. .Y 3 ; ; G - w = ! ' U 3 ' =.4 4 H ' W 3 G R ~ , ",
"I ! : G L W L 6 Y O.~ % ~ Y = $.R 6 - 4 S 3 E @.3 G U $.R Y - 6  .o.} J ; } #.; P = E L L G = q - D U 6 @.*. .= ..L 6 6 R P w 6 ",
"- I 6 W U ~ ; 6 = W ' W = = Y K 6 6 U #.=.=.H J 4 U 7.Y 6 - w - ..H ..H S 6 6 6 - #.Y G 4 = , = e = S S - E  .; ..= 4 6 ; 6 w w ",
"6 6 ; 6 6 6 3 6 3 6 6 W R = - 6 w T Y 6 F =.=.U 4 O. .K 6 ; 6 6 Y E H H 3 ; G , : w : ; - K : w = S ; } A S H E = ..6.' #.; G : ",
"G  .G 6 6 4 6 6 - 6 - - : 6 6 & & 6 Y 6 6 E ' E ; 6 6 6 w w w 5 6 K W S 3 G G > P : - - - > : : ; ; O.=.*. .J D o.8. .S 3 : ~ G ",
"e O.6 U ! - w 6 R K 6 - : & 6 ~ : = 6 - 6 3 G 4 6 - - w w : w : ` H - W K : : #. .Q 6 , : , & : 6 6 S L +.@.#.H ..W G S 4 L R ; ",
"6 G 5 w ~ Y 6 6 6 R ! P K w q ! Q 5 - - 6 5 6 6 6 w e w : q : 6 = Y 6 ^ P P G > W I K 6 : w : R ; 6 = G K  ...E O.H ; W U R 6 - ",
"6 - 6 6 6 ! w : 5 : w : 6 6 A P ! 6 : 6 6 - 6 w & q : : , , - = 6 6 : P ! : > 6 3 K R w q : - R W = 6 3 3 ; = G 6 3 3 : 6 w 6 6 ",
"6 6 6 A - 6 A 6 - : : w 6 6 6 6 ! w 6 6 6 - & : : 6 * w ! : - : 6 6 w w Q R 6 6 6 D G : K : : 6 W W G - 6 G 6 6 ; 6 K 6 6 6 : : ",
"w w : w > : 6 K G R R L : 6 U G 6 - 6 U ~ 6 6 : w q w / ! q - w 5 6 6 6 - ~ 6 K 6 6 - w 3 G P w ; G = @.O.3 6 6 6 ; : w w : 5 w ",
": w > = - w = K ; A U ..W 6 Y U 4 6 W R ' 6 e 6 Q w w Q Q : , - w q 6 - - 6 6 ~ - G 4 o.= 6 ! R G S G E O.4 4 ; R w 6 ! P , , * ",
"= w 6 : = 6 6 6 G  ...=.| A o.H S ` ..@.; S G L Y w 6 : Q r q : : 6 : : : : 6 : S O.' =.@.; #.E ; | | | ; 4 4 U P : 6 w ! w : : ",
"P P w : , : w R ; S Y  .*.H ; S o.o.o.*. .; ; W ! & L w , : : w q R K G = : A ! Y 6 S  .=.L G = ..| *.=.X.; 3 ! ~ G q * , , , w ",
"P I 6 : - = 6 Y L G % S 3 ..G K F &.*.A = - , ! w q - 6 G 6 6 G R R % > * 6 6 6 ; = = - 3 ; : G : 3 G 4 G ; 6 6 , q w w K 6 - 6 ",
"R Q K : : w w 6 ; 6 ; U Y W Y L ..} G = 6 : : r w 6 G 3 = S K ` W R : : : 6 - 6 - W G = - : G 6 : R : w 6 ; ! q : 6 , > 6 6 6 P ",
"R Y 6 - w K K 6 6 w 7.6.#.= R : - , = , : , > K R U K | 4 ; ;.*.U P w - : : 6 R : R K K , : , : w w P w 6 @.U K 6 : 6 6 w w 6 U ",
"U : = K R P w 6 4 #.O.r w w * K A K ! ! ! w : = - W J E X.; ; X.U G - - w w K ! w K P P w = > P 6 : $.6 - 8.6 3 6 - & 5 : 6 6 ~ ",
"G 4 G L ~ I 6 6 = 6 w 6 : G : 6 ; L L 6 6 - 3 = 4 6 6 ` O.6 6 6 G L - U K : I ! 6 : K G : , : , 6 E ' @.E H H D 4 6 6 6 6 6 : 6 ",
"; ; 6 6 6 : : - G Y P E S ; G 4 H J G = ; G K W R = 6 6 6 ; w 6 6 J 4 +.W 6 P 6 G : > A - : ! O.=.| F o.H F J ` @.#.! 6 & w w ! ",
"; G T 6 K : 6 = : 6 ; W K S G : A - ; G : ! ~ R P 6 U 4 ; L =.; S ; ; =.L ; ; 6 G G ; W - G w 6 H ;.| F J J ` ;.E 6 6 6 6 , ! ! ",
"#.Y W 6 = ! R - 6 G S ; J ; 3 *.=.*.} G 6 > , ! ! w 6 6 E =.*.S o.| J *.6 S = Y Y 6 :  .G G ~ 6 S S o.X.F ; o.Y 4 6 6 : : e P w ",
"+.~ - w ! ! 6 - 6 =.H ; ; ; o.} *.} E G ; - > - K R 6 4 =.O.4 3  .&. .H U =.7...; ; G O.H ~ - G 6 4 R Y E 3 6 6 6 w : & w 6 5 6 ",
"- O.6 : 6 > = 6 6 =.=.L A X.H ..+.E ; 6 ~ R 6 : G 3 G ;  .Y 3 6 ; J =.J S 6 : : S ; ; 3 W R = L P w - 6 w 6 - w w T w 6 6 6 - G ",
"; 6 G w : : - - G ' @.O.; A K ..6 6 : 6 Y ; - G } @. .; 4 S = 4 ; ; R U - 6 - ; ; > K @.: 4 #.~ K q w w 6 w : q : R ! w 6 G ; E ",
"=.K G W w - 6 : = ; R O.S G @.O.G 4 S 6 - - ..8.=.| | 4 S | 8.@.=.S ; A G - : > = - G E O.Y O.: : 6 w q ~ w q : : w R ! 3 ; J =.",
": 4 : Y R : w 6 - 6 6 R ~ 3 - ; }  .K ; 3 - = : G = G ; o.*.*.~ ; > P - : : K ~ 6 : = - W ~ : G : - : K R 6 U : : 6 6 Y 4 S o.;.",
"G = 6 G R R : w 6 K : = 6 K G L +.=.=. .3 6 A 6 R Y Y 3 6 6 3 6 ; 6 = * , w * ! R 6 - 6 6 = G - 4 3 4 ~ Q - q w & w 6 6 ; H ;.F ",
"S K S G = w 6 A - : : A w P , : : > = - 6 * 6 ! U 6 6 G 6 : G 6 6 P 6 6 6 : > ; U ; S o.6 > , : 6 6 6 w P w w q q : w W 6 U  .4 ",
"; ~ 6 L ! ~ : : : 6 q w * : : : > , w w % - w 6 6 Y - ; w 6 w 6 6 R I 6 q ~ O.; S ;  .&.6 - : w 6 R 6 - 6 w ~ e w 6 P R ; U 6 6 ",
"J ; 4 ..O.; w G P P R w w : : : : = r * : A - ~ : R ~ 6 ; A : w U G R W : = ~ ..J S &.W S 6 : : 6 ~ U K 6 6  .4 6 ~ Y R 4 6 w 6 ",
"4 S ; 6 S ; ; Y R G 6 = 6 6 w > q w = : : 6 W U : P P A ; ; ~ : ; 6 S 6 ; G 6 =.} J o.S G G 6 : 6 w U Y 4 E 8.` 3 H ; G 3 & - - ",
"=.=...; ; ; 6 ; 6 6 ; : P ! R A G : , w w 6 L  .G - ! = G U R G &.E 6 ; ~ R ; 6  .J H K  . .! : : : K Y 3 J *.*.4 ; 4 ; 3 w 6 w ",
"=.| ` o.S  .O.6.7.' Y = = 6 U R w : > ! : ; #.4 6 - ; S } W Y ; &.8.G Y =  .O.U G K J J L G A : 5 6 6 3 S ; F *.; F o.7.O.Q R w ",
"J  .o.H S Y E ' = - - ; - G G P R w : ! R G : = 4 3 ; G ' O.G ; ..` E H 6 6 =.#.L W G L G - 6 : * w 6 6 H E H X.J X.X.@.U - w w ",
"= J | = = U ..; ; 6 6 G = : : 6 : G 3 U ' G = G  ...@.O.6 6 ; 4  .H S ; 6 6 6 6 R R ; 3 : : G : : ! R #.=.=. .H F E E Y 6 w & q ",
"; ; G Y Y 6 = ; O.O.R ; : : w 6 : L ; ; o.O.3 ..=.&.H ; G 4 ; S ; Y ; G 6 % > 6 w ! K - 6 w : > w 6 w 6 6 K ! Y ; 3 6 6 6 & : w ",
"4 ..=...6 ; 6 O.R ! : P = = w O.w = ; ; S ; 4 ..=.; = @. .L E ; 6 ..G - : - 6 6 > w , = w 6 G : * 3 6 4 6 w 6 - : = w : 6 6 P w ",
"U ' U : 6 L = : : K w P 6 n n n n n n n n =.$.J A ; @.=.@.=.` ; K +.6 & : q : 6 6 : > : : w R q 6 6 * - w ; * w Q & , 6 w w R : ",
"- > 6 6 G K : P 6 w K n n n n n n n n n n n n n ; 3  .Y @. .G - G K 6 ; A P : 6 : : 6 w : K P R - 6 6 : : : r ! ^ q * , w w w : ",
"K G K K G 6 : : w K n n n n n n n n n n n n n n W.W.W.W.O.6 6 : > : 6 : 6 R w 6 6 = K G 6 6 , ! 4 6 6 - - : ! P T w , : e : : : ",
"6 : P K : 6 ! ~ n n n n n n 4.4.4.n n n n n n n n W.W.W.W.W.W.W.W.6 K : : W K G G : ~ : W.W.W.W.W.W.W.W.W.W.R w : w 6 ; G : : q ",
"w 6 : : = : G n n n n n n n n 4.4.4.n m n n n n n W.n W.W.4.W.W.W.W.W.W.W.U Y K 6 G W.W.W.4.4.W.W.4.I.{ W.W.W.3 6 6 6 : w : 6 q ",
": 6 = 6 : w n n n n n 4.4.4.4.n n 4.I.{ n n n n n n n n 4.4.W.4.4.4.W.W.W.W.6 R W.W.W.W.W.W.W.n y W.4.W.4.4.W.4.W.3 6 R R : - 6 "
};
