/* XPM */
static char *exitdownl11680168875[] = {
/* columns rows colors chars-per-pixel */
"64 64 53 1 ",
"  c #090A14",
". c #090B14",
"X c #090A15",
"o c #1E3616",
"O c #1F3616",
"+ c #1E3716",
"@ c #1F3716",
"# c #1E3617",
"$ c #263A16",
"% c #273A16",
"& c #263B16",
"* c #273B16",
"= c #263A17",
"- c #263B17",
"; c #273B17",
": c #241526",
"> c #241427",
", c #241527",
"< c #251527",
"1 c #341C26",
"2 c #341C27",
"3 c #351C27",
"4 c #341D27",
"5 c #4C2A32",
"6 c #4C2B32",
"7 c #4D2B32",
"8 c #4D2B33",
"9 c #2D4316",
"0 c #2D4217",
"q c #2C4317",
"w c #344C1A",
"e c #344D1A",
"r c #354D1A",
"t c #344C1B",
"y c #354C1B",
"u c #344D1B",
"i c #5E761E",
"p c #5F761E",
"a c #5F761F",
"s c #5E771F",
"d c #5F771F",
"f c #476820",
"g c #466920",
"h c #476920",
"j c #476821",
"k c #466921",
"l c #7A4840",
"z c #7A4841",
"x c #7B4841",
"c c #7A4941",
"v c #AD7756",
"b c #AC7757",
"n c #AD7757",
/* pixels */
"O&&&O$---ugig-gt&tgg&&&ut&&&t&OOO$-OO---&hhdk&ht-hhh&&&uu&$$t$oo",
"&&&&OO---$&git--ttttu&&uu&&&OOO&-t-&OO-ut&-hdt&&hhddk&&ut&oo$$$$",
"&&t&&$++O---&&---&--&&&&&&++OO&&tt+O+&&&&&&&-&&t----&&&&&##$$$&&",
"ttt&u&&&OO--o&&-O--$&t&&&&&+OOtktt+&&&&&&&&&t*&t*-ttt&&&=#$$$$$w",
"jt&&tt&&$$++oooo++$$%uu&&&&&$gssttOO&uuu-&&-s&tt-tt&&&OO+&&u$-&t",
"t&&&&t&utt++o$$o+=$$&uu&&&u&$$$gt-$O+&&tt-&hptt&&t&&&OO&-&&tt$&t",
"&&ttu&uu$O++$$&oO&&&u&uu&&g&$O$$--$OOOO&=t&hsf&&&&&&OOOO--&tt&&&",
"&&&&u&&&OO$$$w$$&&&+k&&&&ig&$$$$--OOOOO&==&tgt&&&&&&++OO-u&&t&&t",
"t&&&--$$O$--tt-&&&&+gs%%hsu-&*uut&&+O&&tssskuu&tgsiOOO=&-u&&&&uu",
"tt&&-$O$O$--tt&&uuuugitthu**&**ugt&&&&&&&ugkkukkt--OO$$&-uu&&uu&",
"uut-OO+&$t$-u&&&&&tttgsuu&&&-&&&gt&&&&&&&&&tku&&&OOO$$&&&&uu&u&&",
"&&----&&$gg-&&uuu&&tttsuuhgku-&&&g&&&u&&&&&&&&++OOO$$$uuu&&u&&&&",
"&&&&ttt&&gst&uuu&&&&-ttthhu%&*&u&&&&uu&&&&;=;=O&&&OOukksdt-&&&&t",
"u&&&&&tt&&ss&uu&&&+oO---&%--&&ttt&&tu=&&hpaa--O&tt$OO&&gdd-&&&ti",
"&+&+O&&&&&tgtt&&&&-$OO+-$$--&ttt&+&tu&&&thphk--&ti--&O--uhg&uiii",
"&&&+&&&usstttgiigt-$t$+$+O$&==&&&&&t&=t&tthhtk-tii--&-hht&&uggit",
"&t&&&&&&&kkykssk&&##tw##+&+++&&&*u&&&ut-&&tgt--ggg--wgsj$$-gggg-",
"&t&&&utt&&y&kku-OO&&=ww&O&&&&&&&*u&*utt-&&&gg-tgt---ssgwtt$utt--",
"t&&u&&uuy&&&y=OOO&&&&&&&O&&-&&&&u&&uu%-*&&&&ttu$&&--&www-$$$----",
"&&&ut&&+O&&&=OO=&tt&&&w&&&&tu&t&&&&&--ddsg----$$&&--&&&o+$O$&---",
"t&&&t&&&OOO&t&&&--tuw&k&=yy=&&w&dt&&-htdhu&&&&$ttt&&g&=#--t&&&&&",
"tt&&&&&&&&OOkt&&-$$-t&js=y==&$w&ddt&hthhu&&&&&OOtgt&gs&&tgt&&te&",
"tu&&tte&ukuOuu&jt-----ti$%tpt&&&kgku&hh%&&uuu&=O-&e&gsh&gt&&ut&&",
"+e&tte&&&ukuOOtt--ugistt&tat&&&&kuku&-=&&ht&&&OO&-&&&uh&g&&&&&&&",
"&&&&&&&&&$$tyOOO&tt&wsst&jj&&&&&ttuu&-&&--&O$$O=&&&h&%ut&gsgg&&&",
"&g&*-$&&&+OOOO&O&&&&$tjt&$&=&&&&&tu&&-&&--=OOOOO=&hpphutgsk&&&u&",
"9h&uw$--ttOO&O=y++&&&&&&&&&&$&$$ty=u&&&kht*76665657uhdhugk&&&uu&",
"&&&&ee&--ttt&&&ye+++&&&&&&&&$$$#&y=ut&&&7777666655777hhug&&ttu&O",
"&&&&&t$-+obbbbbbvvbb&&&$&###$###&&&unnnn77777755566666&*---$-&&+",
"&&&&&&$OOvbbcczbvllbbbO&###&y#$bnnnnnnn77777755zzz666655-$$$--+$",
"&&&&=OOblvllbzb26vbbbbbv&&&vbbbbnnlnn7n7777777ccz55566666-$$$$+$",
"&&&+O$bbvlllczb26vbbbbbvbvvvbbzzcnll77777777xxx55zczl66666$uw+$+",
"O&&&nnxxzcccxx45nnnbnnnbbbbbbbbvccxx757777xxccxcczz57757775&u$OO",
"&t63355xc>>>cz5bnbxbnnnbnbbxxxxvnc75777555xxx55xzzx57777775&&=O$",
"wX..3788zzxxzzzcxbbxnnbbxxbbxzzzc5557777555zcz55ll5555x77777&-$$",
"w1.33188x55zxzzzxnbxxxxbnxxbzzzzc5cc777xzcxzccczcxxxcc777777&-$t",
"w4>4322557xxzzzzbbxxzzvbvxcczzzzccx7777cxczzcxzzccxxxcx577776&&t",
"t1>2332555cczzzzxxxxzzzbxxzzzzzzzcc577755cxz55zcx555ccxx77776&&t",
"&4>444457xc5zzzcczxczzxbzzzzzczzzzxc777x5xzzx55xczz55777777775&&",
"&1>>>4447755zzzcczzzzzzzczzzzzzzzz5cx75czzzccxzzczzz5577777776&t",
"&&11144414666z85zzccczxzzzzzzzzzzz557775ccczxcczccccx7777711777t",
"ktu111441224265czzcxzzzzzzzzzzzzzzxx57cccczzx5cccx5xxx777771171&",
"ku=-ty&O-iu121255x5xzzzzzzzzczzzcc55777x55zzc55cczx7xx777776111&",
"=k--&&OO-iiu&j22557xzzzzzzzzzzzzcxx777755zzzxx55zzx755557337134&",
"--==&OOO$ggg--t477xx5czccczzzzzzcz75577cxxcccccczzz55578624144&u",
"s-ut&OOO=&wgt-hh8577xx5zcxzzzzzz5zxx7777ccxxzcxxzzcx554462434&ud",
"&O&tu&&&&&&ut---h777x55xx5zzzzzz557x75375xx55x57x5zzc5522633&&ss",
"-=&&uu&&&&&&--;tha7755cx55zcx5xzx577733357c55xx5555zcc52424&&tpt",
"&u&&===-OO&&&&&&#O#O66zz5zzzz555c771113375666cc577775574444t;tk-",
"&u&uyy-&OO+&++OO&&&O&66656z5zz5571111133455456c67777567424tt-t--",
"t&&kk&&&uut-O&+O+O&+O$6655z5551111uu&&44441435663874681324tt&&-&",
"&&&&&=&yu==O-&&&&++++$565555511 .-==&&-dj411331138834643>t**O+&+",
"ssg$$$=&&&&ottt-&&+&--77333331  .u&&tt&*htt=kkuO=165232>X$$$&&&&",
"phgg$gksig&o+-tt--&t-,74333...  .stt&hhu%tttu&==O&12134>XXgihtt&",
"tkjw$uug$&&o+&-tt-+u,7713<<.... .Xt&&&skuu-t=&&OO&=&114>X.igw$&&",
"&ug=Oug#o&&&o+-----,,13<<<sgX.  .X==-&&*ut&-&OOO&wuk>14>..ut$$O=",
"=&quw$O&ggt&&O&&--&:4><<pst&&. ... =#o$&&t&&&&&O&&&&:1::..$$+$+$",
"=gig$&&kww&tOO&g--<<>><ka&#gjw ... =##O&&&&&&&&&++&->::..O--$&u$",
"qk0$$&&&&&&&==&jg&::><su&&jspp..   #O$O&&&OO#$w&&O+>:::. OO-$$u$",
"&&-000&&&qq&#&&hg::>>ggh&&jwjj&O   $$w&O++O&$$ww=&,:::..w$OO$$$+",
"&&qq&&&&&qqO##$g&>>>ksjjy=wwg&&O...$$t$-&&u&---u&&>>>>tuw&&&---+",
"&&y=&&tt&&wO#$&&&-&&&$$&=#&&&&OO&&&o$wt-&&t&&--=u&&&--t&$&&+--OO",
"&&&=O&&u&&&&O&w&--=kk&&&&&&&&&o&&&&o+t-t&&tt+&t=&&&kg-$$$$&&&-O-",
"&&O&O&&w&&&jO&ww==tyk&&&t&&wwooo&&o++&&t&&&k+&tu&&uug&-$t$&tt+++"
};
