/* XPM */
static char *exitcarr31680168881[] = {
/* columns rows colors chars-per-pixel */
"64 64 191 2 ",
"   c #020101",
".  c #010A00",
"X  c #160202",
"o  c #081103",
"O  c #10100E",
"+  c #090A14",
"@  c #131C17",
"#  c #270000",
"$  c #330100",
"%  c #281010",
"&  c #0E2901",
"*  c #132A03",
"=  c #152A0A",
"-  c #163403",
";  c #1A3205",
":  c #1F3804",
">  c #1B320B",
",  c #17380D",
"<  c #1F3113",
"1  c #372505",
"2  c #36260B",
"3  c #392E0C",
"4  c #233502",
"5  c #233C03",
"6  c #27310C",
"7  c #223A0B",
"8  c #353403",
"9  c #222413",
"0  c #22251F",
"q  c #382913",
"w  c #253114",
"e  c #2C3716",
"r  c #223C13",
"t  c #29391B",
"y  c #333410",
"u  c #241527",
"i  c #341C27",
"p  c #312222",
"a  c #302F27",
"s  c #353733",
"d  c #450303",
"f  c #431508",
"g  c #521F04",
"h  c #561314",
"j  c #76151C",
"k  c #462807",
"l  c #40300D",
"z  c #4E2314",
"x  c #53201F",
"c  c #443414",
"v  c #663319",
"b  c #691822",
"n  c #4A3820",
"m  c #533925",
"M  c #4D2B32",
"N  c #4A3335",
"B  c #692521",
"V  c #7A2322",
"C  c #7E2A2E",
"Z  c #673524",
"A  c #783121",
"S  c #7B382C",
"D  c #18410E",
"F  c #254005",
"G  c #2E4704",
"H  c #27400C",
"J  c #2E4A0C",
"K  c #35500E",
"L  c #2A4214",
"P  c #294A15",
"I  c #2D431C",
"U  c #284B1C",
"Y  c #334712",
"T  c #314A15",
"R  c #36431E",
"E  c #354C1F",
"W  c #375114",
"Q  c #35501E",
"!  c #304424",
"~  c #364B24",
"^  c #395224",
"/  c #3D542D",
"(  c #384432",
")  c #444314",
"_  c #434520",
"`  c #534021",
"'  c #445D22",
"]  c #455E2A",
"[  c #55522A",
"{  c #444238",
"}  c #6E4128",
"|  c #436422",
" . c #4A6321",
".. c #4A6428",
"X. c #4D692B",
"o. c #516826",
"O. c #4B6331",
"+. c #436930",
"@. c #536B31",
"#. c #506638",
"$. c #546A3C",
"%. c #4D783A",
"&. c #557330",
"*. c #5A7331",
"=. c #5B7539",
"-. c #676E38",
";. c #627835",
":. c #3D3A40",
">. c #454546",
",. c #574445",
"<. c #585244",
"1. c #4D4F50",
"2. c #565555",
"3. c #6F4C48",
"4. c #7A4841",
"5. c #665554",
"6. c #5C7540",
"7. c #5E7B41",
"8. c #637B43",
"9. c #7C6857",
"0. c #5D5C61",
"q. c #695E63",
"w. c #6C6668",
"e. c #767070",
"r. c #881B19",
"t. c #9D1522",
"y. c #AB1720",
"u. c #A41E25",
"i. c #AA1A26",
"p. c #B31729",
"a. c #B31C28",
"s. c #B41F30",
"d. c #892724",
"f. c #8C2925",
"g. c #88252E",
"h. c #992223",
"j. c #9B2129",
"k. c #96282D",
"l. c #873024",
"z. c #9C332A",
"x. c #992532",
"c. c #883331",
"v. c #983436",
"b. c #A82224",
"n. c #AC2A2D",
"m. c #A52130",
"M. c #B52730",
"N. c #BB2435",
"B. c #A83337",
"V. c #A53F38",
"C. c #B53235",
"Z. c #BE353B",
"A. c #C52435",
"S. c #CA3336",
"D. c #C43539",
"F. c #CE3039",
"G. c #D1383D",
"H. c #914C37",
"J. c #993544",
"K. c #AB2D42",
"L. c #B93541",
"P. c #C73541",
"I. c #935249",
"U. c #9A5B5D",
"Y. c #B5494B",
"T. c #886858",
"R. c #A7635B",
"E. c #AD7757",
"W. c #A55D60",
"Q. c #996667",
"!. c #95696B",
"~. c #8E7B74",
"^. c #A86F73",
"/. c #C94547",
"(. c #D74C55",
"). c #E35D61",
"_. c #D4696E",
"`. c #E66568",
"'. c #7F8778",
"]. c #88857C",
"[. c #918579",
"{. c #9D7E83",
"}. c #8A8684",
"|. c #958D89",
" X c #9B9A9B",
".X c #B99E9A",
"XX c #B2A39A",
"oX c #AE9FA3",
"OX c #B2A3A5",
"+X c #D69E9F",
"@X c #DDB7B9",
/* pixels */
"> ; w 7 * r w 6 7 W | %.+.:  .) 4 T $. .4 F : T Q 7 > r ! t 2 2 f g k f g h f k 4 +.+.%.+.; o.G F  .| | 4 5 7 ~ U L > , P r > - ",
"r H 7 w > , r 6 6 7 5 O.&.W F - ^ T H Q T 7 - ^ U 6 c a < r 9 9.T.T.9.9.T.T.T.9.^ r r #.@.) 8 J  .o.&.;.@.4 4 I I 6 > > H - ; D ",
"; 7 T r D , > > 6 7 7 7 H : : L , , L L - , L ; t q f T.9.'.'.].}.|.].}.}.].].[.].e.].[.!.T.3.I.g k 5 F 7 6 r L r w = 6 y w r r ",
"Q Y ^ r U D , , 7 * r > , < L , < , - > P E , e q x W.W.[.XX|. X X X X X|.}.}.].}.|.{.{.^.{._.^.I.H.` ` n 3 6 > : 7 6 e e r r L ",
"+.I 7 4 L Q H D r > , , , * = = < > , r - Q Y 1 ~.Q.U.Q..XXXXXXXoXoXoXOXoXoXoXOXoXOXXX.X@X@X@X+X^.Y.J.g.g.h l 6 ; 7 r R > > L E ",
"T : 7 6 J P 7 Y c m 2 2 q c q p 1 1 3 3 3 c Z R.R.I.C C U.W.Q.Q.!.!.!.!.!.!.!.!.Q.!.Q.Q.^.!.W.^.g.z.m.i.u.d.A g 3 6 y ) Q : 5 U ",
"7 L Y T P : ) v j B.B.B.v.H.v.v.v.V.Y.Y.V.Y.V.Z.b.h.t.h.d.g.x.x.g.c.c.g.v.k.k.v.v.v.x.x.B.B.m.L.B.K.N.P.a.n.n.z.A g k ) Q L 4 7 ",
"r 6 6 5 ) 1 H.V.C.D.P.P.Y._._.).`.(.D.S.S.D.S.F.A.D.M.C.B.C.D.S.C.V.B.C.Z.M./.`.`.`.(.).(.L.L._.L.L.D.P.L.N.P.N.C.z.A k Y 4 7 T ",
"~ : 8 k g H.C.L.G.C.k.C S c.v./.P.(.F.F.A.S.S.S.D.D.D.Z.Z.D.F.F.D.D.Z.D.D.D.D./././.V.G.P.L.L.Y.x.V V l.t.L.P.D.S.C.h.c.k 5 Q P ",
"~ _ k I.V.C.P.N.t.d.d X # # B c.K.N.A.A.A.S.G.D.D.D.Z.Z.D.D.F.F.D.N.M.i.p.p.p.b.h.b.b.b.M.L._.J.h # X X B d.K.Z.S././.f.k ^ P D ",
"! c Z j.S.F.L.x.b f z N p   3.x j x.s.A.i.a.y.y.i.h.u.u.j.b.u.y.p.y.b.u.u.i.i.i.i.u.y.i.i.x.V x z O { % m $ j L.P.A.K.c.k R - D ",
"r c B r.M.N.m.j $ >.  :.:.@   N $ C t.K.a.i.y.b.u.b.u.u.u.u.u.u.y.i.u.m.i.a.y.y.t.b.i.u.x.J.# ,.  O <.p 9 5.d J.L.L.m.c.2 H H , ",
"7 3 k h k.k.k.h p :.@ 1.:.1.u M % B k.N.s.p.i.y.u.b.p.p.p.y.y.a.i.p.M.M.s.p.a.a.M.a.a.M.n.B % q X p 2.2.@ 5.h B K.K.v.} 3 5 y W ",
"~ y m $ j x.C h ,.0 >.2.e.e.2.N { $ k.i.s.M.N.n.n.n.s.N.A.N.M.M.M.M.M.M.s.M.N.M.y.M.n.n.k.# 5.0 N w.w.w.2.i 3.h g.k.A g 8 F 8 -.",
"> 4 9 f j x.g.h ,.>.1.w.5.q.,.,.m $ V t.m.m.n.M.n.n.M.M.a.M.n.n.n.n.b.i.i.i.u.u.b.b.r.h.C # 2.>.1.w.0.w.3.N 5.2 B Z ` 8 K &.;.;.",
", 7 6 1 C b c.$ a s O ,.,.5.0 0 9 m B V A V l.f.l.f.f.f.f.f.l.l.A l.f.f.g.d.l.A l.l.l.A z 3.0 0 O 0 2.2.q { p [ m l 8 )  . .;.G ",
"7 E 7 6 3 l l p @ { o s s   . {   w 2 2 n ` 2 1 1 3 2 2 2 2 l k c c 1 c 1 m c l 1 c ) [ _ 7 . (   @ >.@ 9 <.  $.w 6 5 O.X.X.X.5 ",
"H L 4 7 7 ^ ~ _ t = 9 ( s   1.s w = r L = L Q > r > < < r w 7 7 < E 7 7 K T L : 4 5 4 @.O.< ! ( s O >.@ { . $.I ^ P H Y T H 4 7 ",
"H H H T 7 7 r ( ! a o w 9 @ w 0 > < r - > 7 > H ; 6 > r 7 r 7 5 ~ 5 H Y E 5 Y 5 F 5 7 7 I ~ ~ w o 0 0 0 t R ~ T 4 7 F ; 5 7 7 7 ",
"H 7 5 ~ T e 7 r > > t < I w w < t I ~ H F : T 5 4 7 T Q L r r e 5 : 5 H > M M M M M M M M M M r t w w t > 7 > : : & - D H 7 7 7 ",
"P 7 7 r I H r : ; > ; 7 ~ > L L r 7 E T T 4 X.5 5 T L 5 7 ; ^ 4 =.K 4 M M M M M M M M M M M M M E.E.E.E.#.: - > 7 H H 7 5 > L > ",
"E E H 7 7 - 7 7 , 5 7 7 O.T 7 : 7 7 > 4 W 5 ..*.: W 4 H 4 7 ^ 4 =.o.M M M M M M M M M M M M M M M E.E.E.E.E.E.E.E.] ^ 4 7 ~ ~ r ",
"E E > 7 P Q P 7 P O.^ & ^ T - $.I e : 5 5 5 W @.5 F T $.E L ; 7 M M M M M 4.4.4.M M M M M M M M M E.M E.E.4.E.E.E.E.E.E.E.I r 7 ",
"; U 7 Q T ~ : 7 ; Q ] Q - - T L 7 H Y #.=.=.J T 4 Y 6.T 7 : r M M M M M M M 4.4.4.M M M M M M M M M M M 4.4.E.4.I.} E.E.E.E.E.E.",
"7 7 5 > 7 7 4 7 4 7 7 Q E ; - 7 r R L H G =.=.Y 5 O...I 7 ; M M M M 4.4.4.4.M M 4.4.4.M M M M M M M M M 4.4.4.4.E.E.E.E.E.E.E.E.",
"H ] H 7 7 5 7 7 > 7 ; ; > 7 7 * * 7 L 7 7 W ] W : 7 7 > r M M M M M M M 4.4.4.4.4.4.4.4.4.M M M M M M M M M 4.E.E.3.4.4.4.E.E.E.",
"e O.7 Y Q : L 7 Q L 7 * > * 7 ^ > ; 7 : 5 : H : 7 ; : r r M M M M M M M 4.4.4.4.M M 4.4.4.M M M M M M M M M M 4.4.4.4.4.E.E.4.4.",
"7 H 6 L ~ T > r 7 ~ ^ I e r r E ! > ; : H 6 > 7 7 r r r M M M M 4.M M M M 4.4.M M 4.4.4.M M M M M M M M 4.4.M 4.4.4.4.4.E.4.4.E.",
"5 : 7 7 7 ~ 7 > > 7 r > 7 7 r I ~ 7 > 7 7 ; 7 e ; w > > M M M M M 4.4.4.4.4.4.4.4.4.4.4.4.4.4.4.M M M M M 4.4.4.4.4.4.4.4.4.4.E.",
"7 > , L ; 7 D H ; > 7 r 7 7 7 7 ~ r 7 7 7 ; * > > > = M M M M M 4.4.4.4.4.4.4.4.4.4.4.4.4.4.4.4.M M M M M 4.4.4.4.4.4.4.4.4.4.4.",
"r L > , , , 7 L 7 E Q P > 7 T 7 7 ; 7 Y ~ 7 7 > r w w M M M M 4.4.4.4.M M M 4.4.4.M M 4.4.4.M M M M M M 4.4.4.4.4.4.4.4.4.4.4.4.",
"> r , - ; L - < 4 7 P O.Q 4 T T 5 5 Q Q O.7 e 7 ~ r M M M M M M M M M M 4.4.4.4.M M 4.4.4.4.M 4.M M M 4.4.M 4.4.4.4.4.4.4.4.4.4.",
"; D 7 > - 7 7 7 5 ..X.=. .D X.K F ' o.@.: F H P L r M M M M M M M M M 4.4.4.4.4.4.4.4.4.4.4.4.4.M M M M M M 4.4.4.4.4.4.4.4.4.4.",
"I I r > < > r ^ > F T ..=.J : F o.o.@.*...: : ~ ~ M M M i i M M M M 4.4.4.4.4.4.4.4.4.4.4.4.4.M M M M M 4.4.4.4.4.4.4.4.4.4.4.4.",
"I U 7 > ; ; 7 T T H & F : X.H L G &.*.D - ; < ~ r i M i i M M M M 4.4.4.M 4.4.4.4.M 4.4.4.4.4.4.4.M M M M M 4.4.4.4.4.4.4.4.4.4.",
"E E L > 7 < r 7 : 5 : Y Y Q T P X.| H - 7 > > t r i i i M M M M M 4.4.M 4.4.4.4.M M 4.4.4.M M 4.M M M M M 4.4.4.4.4.4.4.4.4.4.4.",
"~ Y 7 ; r e L 7 7 D 6.6.O.- ~ = - , - < > < - L E i i i M i i M M M M M 4.4.4.M M 4.4.4.4.4.M M M M M M M 4.4.4.4.4.4.4.4.4.4.4.",
"Y > - L E I D 7 H #.#.t L r > H D I ~ ~ ~ r > - ; Q i i i i i M M M M M 4.4.4.4.4.4.4.4.4.4.4.4.M M M 4.4.4.M 4.4.4.4.4.4.4.4.4.",
"H 4 , T ~ U 7 r > : 7 H > H > 7 D P T : 7 ; 4 - F 7 7 i i i i M i M M 4.4.4.4.4.4.4.4.4.4.4.4.M M M M 4.M M M 4.4.4.4.4.4.4.M 4.",
": 5 7 7 7 7 > - H T I W F ; H : J K 7 - H H r Q E ; 7 5 i i M i i M 4.4.4.M 4.M M 4.M M 4.4.M M M i M M M M 4.4.4.M 4.4.4.4.M M ",
"5 H I 7 L > 7 ; 7 : : Q L F H : F - : 7 > ~ E E I 7 Y 7 : i i i i 4.4.4.M M M M 4.4.M M 4.M M M i i M i M M 4.M M M 4.4.4.4.4.M ",
"#.T Q 7 - ~ E ; 7 H 5 : K : : *.=.=.] H 7 L < ~ ^ r > 5 W i i i i M M M M M M M 4.4.M M M M M M i i i i M M M M M 4.4.M M 4.M M ",
"+.^ ; L ~ ~ 7 ; 5 6.J : : : @.' &.| W H ; : , - L E 7 5 =.O.i i i M M M M M M M 4.M M M i M M i i i i i i M i M M M M M M 4.M M ",
"; O.7 = < , - 7 , =.=.E 5 X.J X.+.W 5 4 ^ Q > > H 4 H : ..T u i i i M M i M M i M M M i i i i i I r ; i i i i i i i M M M M M M ",
"5 > H r > > ; ; H ] X.O.5 D L X.7 7 > 7 T : - L ] @...: 5 F u i i i M i i M M i i i i i i i i ~ e < r r 7 r > w u i i M M M u + ",
"6.L H Q P - 7 = ; 5 ~ ..7 H @.O.D 5 F 7 ; ; X.8.=. . .F 5 u u i i i i i M M i i i - L W O.P O.: > 7 r w ^ r w > , u i i M M u + ",
": : 7 Y I 7 r 7 ; 7 7 E ^ 4 ; 5  .o.L : 4 ; - > H - H : o.u i i i i u u + + + E 7 > - ; ~ E 7 H 7 ; 7 L E 7 I > > u i i M u u + ",
"7 - 7 7 E Q > r 7 r > - 7 L 7 P +.=.=...7 5 , 7 E T T 5 7 u i i u u u + + + + ~ E 7 ; : 7 - 7 ; 4 : 5 ^ E ; w r * u u i M u + + ",
"F L F 7 - r 7 D : > = r r t < , > , - ; 7 ; 7 E P 7 7 7 u i i u u u 7 + + + + + Y : F @.7 , < , > 7 7 r E r r w w > u i u u O.4 ",
"5 ^ 5 T ~ ^ > > > 7 r r > > > > = r r r & ; L 7 7 T ; : u i u u u E U 7 + + + + + : ..&.5 - > L 7 E 7 ; 7 r ^ r 7 u u u u T 7 7 ",
"K : 5 O.O.: r H I I E r r > > > , ; t > > , : ~ > E ^ 7 u u u u Y H ~ E 7 + + + + + &.^ 5 7 > - 7 ^ T L 7 e O.4 5 u u u u 7 7 7 ",
"5 F : H F : : P E 7 7 ; 7 7 r , < r = > = H ^ Y > I I H u u u u u : F 7 ; H + + + + + F H H > < 7 r Y T 5 W ;.' 4 u u u 4 * : ; ",
"=.=.&.: : : H : H > > : I Q E H r > < r L > P O.H - ~ - 7 u u u u W : : ^ T : + + + + L ....~ : > 6 r T 5 K *.*.F u u u ; r 7 r ",
"=. .W X.F ..O.6.6.] T - : > P E r > - ~ : 5 O.5 : ; 5 F | Q T : &.8.H T - O.#.Y H P J K P H < , > 7 7 4 5 5 G *.5 G o.6.O.E I r ",
"K ..X.J F T W ..- > ; : : H H I E r > E ~ 7 > - F : : H ] O.7 : @.' W J H 5 6.#.T E H P H ; 7 > = r 7 7 J W J o.K o.o.@.P ; e L ",
"- K  .: - Y ..> : 5 7 7 - > > 7 > H 5 T ] H - H ..X.#.X.7 7 5 5 ..J F : > 7 7 7 E Y 7 5 > > 7 > > ~ E #.=.=...J G W W T 7 r * < ",
": 5 H T T 7 - ; #.O.~ D > ; r 7 ; P 5 : @...4 X.=.&.J : H 5 : 5 : P 4 H 7 & H r 7 ~ L ; 7 r 7 ; r > e 7 4 L ~ T 4 4 7 7 7 * > r ",
"F O.=...7 : 7 O.E E > I ; ; 7 O.r - 4 5 F > 4 X.=.: ; X...P W : 7 X.7 ; > ; 7 > , L < - r 7 L = = ; 7 7 r r 7 ; > - r 7 7 7 I r ",
"Y ' T 7 5 P - 7 > L r I 7 - 7 O.] 5 7 T | =.@.K F : @.7.@.=.| 7 T +.7 * > r > > 7 > ; > > r E r 7 5 ; ; r ; = r ! = < > r r R > ",
": , , 7 H e > L 7 , L ; > > e O.O.F P 6.8.@.| X.: : ..T @...7 ; 7 L 7 : H I > 7 > > 7 r > L I E : 7 7 > > 7 t ~ / < > < r r r > ",
"r 7 r L H : < , , L L 7 - ; H O.H H : ~ ] &.@.| W H H P O.5 7 > , > 7 > r ~ r 7 7 ; L r 7 7 7 ~ 5 7 7 ; - > ~ I R r < > e > > > ",
"r 7 I L > 7 ~ ~ 7 L L > > ; 7 7 : : : T > : F F - : 7 H H ; > ; r r L > ; Q L H 7 7 ^ > 7 7 7 7 I 5 7 7 L 7 E r > r 7 ; L : ; w ",
"r 7 > > ; 7 r I 7 7 r 7 ; D Q : H ; H ....> > 5 5 5 : ; r , * r r w 7 - ; P P L : D E I ; 7 E 5 L 7 7 ] O.7 7 : 7 7 7 7 L > 7 w ",
"> 7 : 7 > r 7 ~ H > 7 ..; : Y ~ , L L T #.5 7 7 T 5 7 E ( > > , r t w > ; H 4 Q H : : $.; : E Y : e Y E O.4 7 4 ^ 4 > E E > ; > "
};
