/* XPM */
static char *exitcarupl61680168885[] = {
/* columns rows colors chars-per-pixel */
"64 64 191 2 ",
"   c #020101",
".  c #010A00",
"X  c #160202",
"o  c #081102",
"O  c #10100E",
"+  c #090A14",
"@  c #131C17",
"#  c #270000",
"$  c #330100",
"%  c #2C1008",
"&  c #22101B",
"*  c #0E2901",
"=  c #132A03",
"-  c #152A0A",
";  c #163403",
":  c #1A3205",
">  c #1F3804",
",  c #1B320B",
"<  c #17380D",
"1  c #1F3113",
"2  c #36260B",
"3  c #372908",
"4  c #233502",
"5  c #233C03",
"6  c #27310C",
"7  c #223A0B",
"8  c #353403",
"9  c #222413",
"0  c #22251F",
"q  c #382913",
"w  c #253114",
"e  c #223C13",
"r  c #2C3816",
"t  c #29391B",
"y  c #333410",
"u  c #241527",
"i  c #341C27",
"p  c #312222",
"a  c #302F27",
"s  c #353733",
"d  c #450303",
"f  c #431508",
"g  c #521F04",
"h  c #561315",
"j  c #76151C",
"k  c #462807",
"l  c #40300D",
"z  c #4E2314",
"x  c #53201F",
"c  c #443414",
"v  c #663319",
"b  c #691823",
"n  c #4A3820",
"m  c #533925",
"M  c #4A3335",
"N  c #692521",
"B  c #7A2322",
"V  c #7E2A2E",
"C  c #673424",
"Z  c #783121",
"A  c #7A382C",
"S  c #18410E",
"D  c #254005",
"F  c #2C4206",
"G  c #2F4903",
"H  c #27400C",
"J  c #2E4A0C",
"K  c #35500E",
"L  c #2A4214",
"P  c #294A15",
"I  c #2D431C",
"U  c #284B1C",
"Y  c #334712",
"T  c #314A15",
"R  c #36431E",
"E  c #344C1F",
"W  c #375114",
"Q  c #35511E",
"!  c #304424",
"~  c #364B24",
"^  c #395224",
"/  c #3D542D",
"(  c #384432",
")  c #444314",
"_  c #434520",
"`  c #534021",
"'  c #445D22",
"]  c #455E2B",
"[  c #55522A",
"{  c #444238",
"}  c #6E4128",
"|  c #436422",
" . c #4A6321",
".. c #4A6428",
"X. c #4D692B",
"o. c #536623",
"O. c #506A28",
"+. c #4B6331",
"@. c #436930",
"#. c #546B32",
"$. c #506638",
"%. c #536A3B",
"&. c #4D783A",
"*. c #557330",
"=. c #5A7331",
"-. c #5B7439",
";. c #676E38",
":. c #627835",
">. c #3D3A40",
",. c #454546",
"<. c #574445",
"1. c #595244",
"2. c #4D4F50",
"3. c #565555",
"4. c #704D49",
"5. c #665554",
"6. c #5C7540",
"7. c #5E7B40",
"8. c #637B43",
"9. c #7C6857",
"0. c #5D5C61",
"q. c #695E63",
"w. c #6C6668",
"e. c #767070",
"r. c #881B19",
"t. c #9D1522",
"y. c #AB1720",
"u. c #A41E25",
"i. c #AA1A26",
"p. c #B31729",
"a. c #B31C28",
"s. c #B41F30",
"d. c #892724",
"f. c #8C2925",
"g. c #88252E",
"h. c #992223",
"j. c #9B2128",
"k. c #96282D",
"l. c #873024",
"z. c #9C332A",
"x. c #992532",
"c. c #883331",
"v. c #983436",
"b. c #A82224",
"n. c #AC2A2D",
"m. c #A52130",
"M. c #B52730",
"N. c #BB2435",
"B. c #A83337",
"V. c #A53F38",
"C. c #B53235",
"Z. c #BE353B",
"A. c #C52435",
"S. c #CA3336",
"D. c #C43539",
"F. c #CE3039",
"G. c #D1383D",
"H. c #914C37",
"J. c #993544",
"K. c #AB2D42",
"L. c #B93541",
"P. c #C73541",
"I. c #975755",
"U. c #B5494B",
"Y. c #886858",
"T. c #9A645C",
"R. c #A7635B",
"E. c #A55D61",
"W. c #996667",
"Q. c #95696B",
"!. c #877E7C",
"~. c #A4666A",
"^. c #B0767A",
"/. c #C94547",
"(. c #D74C55",
"). c #E35D60",
"_. c #D4696E",
"`. c #E76568",
"'. c #7F8778",
"]. c #88857C",
"[. c #918579",
"{. c #9D7E83",
"}. c #8A8684",
"|. c #958D89",
" X c #9B9A9B",
".X c #B99E9A",
"XX c #B2A39A",
"oX c #AE9FA3",
"OX c #B2A3A5",
"+X c #D69E9F",
"@X c #DDB7B9",
/* pixels */
", : w 7 - e w 6 7 W | &.@.4  .) 4 T #. .5 D u u u u u u u t 2 2 f g k f g h k k 5 @.@.&.@.> o.u i i u u 4 + + + + + 7 < P e : ; ",
"e H 7 w , < e 6 6 5 5 @.*.W D ; ^ P H ~ T u u u u u u a 1 e 9 9.Y.Y.9.9.Y.Y.Y.9.~ 7 e +.%.u u u u u u :.#.5 + + + + , , e : ; H ",
"> 7 P e S < , , 6 7 7 7 e > > L < 1 L e ; u u u u + f 4.9.'.'.].}.{.'.}.}.].!.[.!.e.].].u u u u u u 5 D < 6 + + + + - 6 r w 1 L ",
"Q Y ^ e U S < < 7 = e , , 1 L < ; L : , P E + + + + ~.~.[.XX|. X X X X X|.}.}.].}.|.|.^.u u u u u H.` ` n + + + + + 6 r w e e P ",
"@.I 7 4 L ^ D S e , < < < = - - 1 = e e ; ^ + + + W.I.~..XXXXXXXoXoXOXoXoXoXOXOXoXOXoX.X@X@X@X+X^.U.J.g.g.+ + + + 7 e R , > e ~ ",
"T 7 7 6 J P 7 Y c ` 2 2 q c q p 2 3 3 y y c C R.R.I.V V I.E.T.W.Q.Q.Q.Q.Q.Q.Q.Q.W.Q.W.W.{.W.~.~.g.k.m.i.i.d.Z g 3 6 y ) Q < 5 E ",
", L Y T P > ) v j B.B.B.v.H.v.v.v.V.U.U.V.U.V.D.b.h.h.h.d.g.x.x.g.c.c.g.v.k.k.v.v.z.x.x.B.B.m.L.B.K.M.P.a.n.n.z.Z z k ) Q 7 4 7 ",
"7 6 6 5 ) 3 H.V.C.D.P.P.U._._.).`.(.D.S.S.D.S.F.A.D.M.C.B.C.P.D.C.V.B.C.Z.M./.`.`.`.(.).(.P.L._.Z.L.P.P.L.N.P.N.Z.z.Z k Y 5 7 Y ",
"~ : 8 k g H.C.L.G.C.k.V A c.v./.P.(.F.F.A.D.S.S.S.D.D.Z.Z.D.F.F.D.D.Z.L.D.D.D./././.V.F.P.L.L.U.x.B B l.h.L.P.S.S.C.h.c.k 5 Q P ",
"^ ) k I.V.C.P.N.t.d.d X # # N c.K.N.A.A.A.D.G.S.D.D.L.Z.D.D.F.F.D.N.M.i.p.p.p.b.h.b.b.b.M.L._.J.h $   X N f.K.Z.S././.f.k Q P S ",
"! c C j.S.F.L.x.b f z M p   4.x j x.s.A.p.i.y.y.i.h.u.u.j.b.u.y.i.i.b.i.b.i.i.i.b.t.y.b.i.k.B x z + { % m $ j L.S.A.K.c.k I > S ",
"e c N r.M.N.m.j $ ,.  >.>.@   M $ V t.K.a.i.y.b.u.b.u.u.u.u.u.b.y.i.i.m.i.i.y.y.t.b.a.u.x.J.# <.X O 1.p 9 5.$ J.L.L.m.c.2 H H < ",
"7 q k h k.k.k.h p >.@ 2.>.2.& M % N k.N.s.p.i.y.u.b.p.p.p.y.y.i.i.p.M.M.s.p.a.a.M.a.a.M.n.N % p X p 3.3.& 5.h N K.K.v.} y 5 y W ",
"~ y m $ j x.V h <.i ,.3.e.e.3.M { $ k.i.s.M.N.n.n.n.s.N.A.N.M.M.M.M.M.M.s.s.N.M.i.M.n.n.x.# 5.0 M w.w.w.3.p 4.h g.k.Z g 8 5 8 ;.",
": 7 9 f j x.g.h <.,.2.w.5.q.<.<.m $ B t.m.m.n.M.n.n.M.M.a.M.M.n.n.n.b.i.i.i.u.b.b.b.r.h.V # 3.,.2.w.0.w.4.M 5.2 N C m 8 K *.:.:.",
"< 5 6 3 A b V $ a s O <.<.5.0 0 9 m N B Z B l.f.l.f.f.f.f.f.l.l.Z l.f.f.f.f.f.Z l.l.l.Z z 4.0 0 + a 3.2.q { p [ m l 8 )  .o.:.G ",
"7 E 7 6 3 l l p 9 { o s s   . {   w 2 2 n n 2 2 2 l 2 2 2 2 l k c c 3 c 3 ` c l k c ) [ _ 6 . (   @ ,.@ 9 1.  6.9 6 5 ..X.O.X.5 ",
"7 L 4 7 H ^ ~ _ t @ 9 ( s   2.s w - e L , L Q , e , w 1 7 w 7 7 7 I 7 7 J T L > 4 5 4 #.@.w ! ( s + ,.@ { . %.I E P H Y T e 5 7 ",
"H H H Y 7 7 e ( ! a o w 9 @ t 0 , 1 e : < 7 > H = 7 , e , L 7 7 ~ 5 L Y Q 5 Y 5 D > H 7 I ~ ~ w o 0 0 9 t R E T 4 H 5 : 5 7 7 7 ",
"H 7 5 ~ T r e e , , L w L 1 1 1 t I ~ 7 F > T > 4 7 Y ~ L e e 7 5 > 5 7 7 4 %.-.#...7 7 e , 7 e t w w e , 7 , > > * < S 7 7 7 7 ",
"P D 7 e I H e : : < : , ~ , L L e 7 E T T 4 X.5 5 T L 5 7 : ^ 5 -.T 4 ; < %.H -.O.T 5 > L , < ~ ! ~ r e %.5 ; > D 7 H H 5 , L 7 ",
"~ E 7 7 7 > < > e > 7 > +.T 7 > 7 7 , 4 W > ..=.> W 5 H 5 7 ~ 4 -.O.W F ] W #...Y 7 7 > D : e : ~ ] Y 4 ] 6.5 5 J ] ^ > 7 ~ ~ w ",
"U ~ , H Y Q P H P +.^ * ^ T : %.I e > 5 5 5 T =.4 5 L 6.Q Y , 7 ..O.| K 5 ] $.> P : W P P H ; 1 > F Y 7 #.=. .: X.P H > ~ I e > ",
": U 7 Q P ~ 5 7 : Q | ~ ; ; T L 7 7 Y $.-.-.J T 5 Y 6.Y 7 : e 4 X.J X.J 5 5 7 7 : $.T H > > e ; r : 5 D : W ..> X.; 4 7 5 7 e e ",
"7 7 5 7 7 7 4 7 5 7 7 Q E ; ; 7 e R L 7 F -.-.Y 5 +.] L 7 > 7 7 T T J J 5 5 7 e , e 1 4 : S , 1 ; D > | D S J W ; X.6.] $.> H , ",
"H ] 7 7 7 5 7 7 , 7 : : , 7 7 = : 7 Y 7 7 W ] W 4 H 7 7 e e e , 5 L Q D > 7 7 e L , : ; : e , , : > +.-.=.X.K H X.7...D 4 7 ~ H ",
"r #.7 Y ^ : L 7 ~ Y 7 = , * 7 ~ , : 7 , 5 > 7 4 7 : : e e , e , ' J : E e : , $.] E 7 w , 1 : , H 5 D P @.#.$.J X.^ 7 D 5 T E > ",
"7 H 6 e ~ T > 7 7 Q ~ I L L 1 E ! , : > H 6 7 7 7 e e e , w , 7 ; W 7 / I I L , ^ U L 7 , w , E 5 < ; D I ..X.W +.J > Q T E 7 : ",
"5 : 7 7 7 ~ < , , 7 e , 7 7 L I ~ 7 , 7 7 : 7 e : w , , 1 1 : ; 7 7 , R ~ , 7 7 4 Y ~ e w , : E Q : 7 5 5 4 : H 5 4 4 , 7 e 7 7 ",
"7 7 e S : 7 L 7 : , 7 e 7 7 7 7 E e 7 7 7 : = , , , - 1 ~ > = < 7 7 e e ~ U 7 7 7 F < , L , 7 7 Q ~ 7 : 7 H 7 > > 7 L 7 7 7 , , ",
"w < < e < , 7 I 7 ~ Q P , 7 T 7 e : e Y ^ 7 7 7 e w w ( ~ 1 , L , 7 7 7 : ~ 7 L 7 5 ; 7 > 7 I e : H > #.+.4 5 7 7 : , e e , , e ",
", L < : : e > < 4 > P +.Q 4 T T 5 4 W ~ ] e r 7 ~ e e ~ ! , 1 : e w 7 : : 7 7 ~ : H 5 #.: 7 E E H D H W +.5 7 : ~ L 7 ~ L w w - ",
", S 7 , ; 7 7 7 5 X.X.-. .S O.J D ' X.O.> D H P L e 7 , ~ t w 7 7 7 , , , , 7 , D ..] 6.X.7 +.W D  . . .> 5 5 Y I 7 e e ~ w , , ",
"L I w , 1 , e ~ > D T ..=.J > D O.O.#.-...> > E ~ - Y e 1 , - e e I L e ; , L E T 7 5 ..-.T H : O. .=.-.o.> 4 ~ E e 1 = 1 1 1 e ",
"! U 7 7 : : 7 Y P H * 5 5 ..H L G *.=.> : ; 1 ~ e e , 7 S 4 5 7 ~ E * < - 7 > < > ; ; ; 5 7 5 H 7 4 H 5 H 5 7 7 1 1 e e L e : 7 ",
"E E e , 7 S e 7 4 5 > Y T ^ T P X.| H ; 7 , , t w 7 7 > > F L ' Q E , 6 , 7 : 7 ; ~ H ; = , < e , E , e 7 : ~ 1 7 7 w , > > H I ",
"E T 7 : e L e 7 e L 6.6.$.; E , ; < : 1 , e - L Q Y L  .5 > :.-.Y I e : , 7 > ~ 6 E L L 1 - < , w 1 I e 7 +.Y L e , 7 7 e e 7 T ",
"Y , ; L Q I L 7 7 +.$.t e e - L S L ~ ~ ~ e , < ; Q J W o.> > o.T H : : e e e ~ e e I I e , , I D , #.H > 8.7 > 4 : * 6 , e 7 ~ ",
"H 7 7 T ~ U 7 7 : 7 7 S , H , 7 S P T , 7 : 4 ; D > H ..+.7 H 7 H P : Y I 7 E E 7 7 e S < e , 1 > W ] #.W J J F 5 e 7 7 7 e > 7 ",
"> > 7 > 7 7 , : 7 T I W 5 > H > J K H ; D H e Q ~ : 7 > 7 > e < 5 K 5 @.Q < I > H 7 , e : , ~ $.6...G ..J G W  .#.$.Q 7 = e e ~ ",
"> H I 7 e , 7 : < 5 4 Q L D 7 5 D ; > 7 , E E U I 7 T S 5 Y -.> 5 > 5 -.P > > H H 7 > ^ : H e > J :. .G K K ' :.W 5 7 7 7 w ~ ~ ",
"$.Y Q 7 ; ~ ~ : 7 H 5 > K > > =.-.-.] H 7 L w ~ ~ e 7 4 W -.=.5 X. .K =.> F : P T 7 > ..L H ^ > D 5 O.o.G > X.T 4 7 4 1 , e I e ",
"@.~ : L ~ ~ 7 ; > 6.J 4 > > O...*.| W H : : < : L ~ 7 5 -.+.4 > ..*...J Y 6.7.X.> > H +.J ^ : H 7 5 E T W > 7 7 7 e , - L 7 6 7 ",
"> $.> , 7 < ; 7 7 -.6.P S o.J X.@.W 5 4 ^ E 7 , H 4 H > ..T 4 H > K -.K 5 5 < : H > > > Q Q : Y I e > 7 e 7 : 7 e E e 7 7 7 : 7 ",
"> > H e , , : : H ] X.+.5 S L X.7 7 < D T > < H ..O...> 5 5 ; 5 > > Q Y ; > : 5 > ; I =., 5 $.Q L w e e 7 e , w , E ~ e 5 7 > W ",
"6.L H ^ L : , , : 5 ~ X.7 H #.+.7 5 D 7 ; > X.8.-. . .5 D  .8.%.-.D < H e , < 1 : : S W +.T +.7 , 7 e w ~ r w , , e ~ E 7 > K -.",
"> > < Y I > L 7 : 7 7 E ^ 4 : > | X.L > 4 : ; , H ; 7 5 O.=.=.^ 7 < L = , , L E 7 , ; : E ^ 7 < , : > L Q 7 L 7 , , 7 T 5 H O.:.",
"7 : > H ^ Q < 1 7 e , ; 7 L 7 T @.-.-...4 7 < 7 E T Y 5 7 7 4 7 > > : , 1 e , ! ~ 7 : > 7 : 7 : 4 5 5 ~ E : w e = e 7 7 4 J :.G ",
"H L F S ; 1 D < , 7 , < e I 1 , , < ; : 7 : 7 E Y 7 7 H 7 , H 5 7 I 7 7 7 , e 5 P > D X.> L 1 , 7 7 , L R e e w 1 , e Q 7 Y ..5 ",
"> Q 5 T ~ ^ , < , 7 e e , , - , < 1 e e * : L 7 7 T > : e < e 7 7 ~ U > w ~ ..5 D > ..*.> : - e 7 ~ 7 > e e ^ r e 7 I E > Y 7 7 ",
"K > 5 X.X.> 7 < I I E 1 w , < 7 ; < t , , < , ~ , ~ ^ > > e , e Y H E Q > < Q +.K D *.^ D > , < 7 ~ T e 7 7 ..5 5 ^ Y E 5 7 7 e ",
"D 5 5 7 H > 5 E E 7 7 > 7 7 e < 1 1 , , , > ^ T , I I S 5 5 ^ , > > D 7 : H < 6.| K X.D H H > , 7 e Y Y 5 W 8.' 4 J > H 4 = : : ",
"-.-.O.> > > H > 7 7 > < I ^ U 7 S , w e L , P X.H : E ; H Y Q 7 *.W H > ^ T > > ..K J Y ..] ~ , 7 , e Y 5 W =.=.5 4 5 > 4 L 7 e ",
"-. .' ..D ..+.-.6.] Y ; ; 7 T E w 7 ; ~ : > +.D > > 5 D ' Q P > *.8.H P ; +.$.Y H L J K T 7 L < , 7 7 4 5 4 G =.> G O.6.+.I I e ",
"K | X.J D T W ..: > : > > H L I ~ e , Q ~ H , : 5 5 > H ] +.H > O.' W J H 5 6.$.T E H P H > 7 , - e 7 7 J W J o.K o.o.=.T > e e ",
"; K  .> ; Y +.> > > 7 7 ; : , 7 , 7 5 Y ] H ; H ..X.$.+.7 7 > 5 ..J D > 7 , 7 7 E T 7 5 < , 7 , 7 ~ E $.-.-...J G W W T , e - w ",
"> 5 H T T 7 ; : $.+.~ 7 , : S 7 : P > > O.+.> X.-.*.J > F S > > > T 5 H > * e 7 < E e > 7 e , ; e 7 e 7 5 L ~ T > 4 7 7 7 - , w ",
"5 +.-...7 > 7 +.U ~ , I : : 7 $.L ; > 5 D > 4 O.-.> : X...Y W 5 H +.7 > , : < 7 S L w : e 7 L , - : 7 7 e e 7 : , : e < 7 7 I L ",
"Y ] Y 7 5 U : 7 , L e L 7 = , +.] > L Y ' -.%.K D > O.7.#.-. .7 L @.7 = , e 7 , 7 , , < , w Q e e 5 : : e : - e I - 1 > e e E , ",
": < 7 7 H e , L 7 e L : , , L $.+.D P -.8.#.| ..> > ..T #...< > H L 7 : e I , 7 , , 7 1 , L L ~ 4 7 7 , , , t ~ / w , 1 e e e , ",
"L 7 L L L > < , e L L , ; : H +.H H > ~ ] *.#.| W H H Y +.5 , , < , 7 , 7 E w 7 H : L L 7 7 7 Q 4 7 7 : : 6 ~ I r e 1 , e 7 , , ",
"7 < I L , 7 ~ ~ 7 L L 7 , > > 7 > > : P 7 > D 5 ; ; 7 H H < , : e e L < : ^ L D 7 < ^ , e 7 7 7 R 5 7 7 e 7 E e 7 e 7 : e , : w ",
"e 7 , , : 7 L I 7 , e 7 : S ~ > L : 7 ..] , 7 5 D > > : 1 S : w w e 7 ; : T P L > H E I : 7 Q 5 L 7 7 ] +.7 7 4 e 7 7 7 e , 7 w ",
"< 7 > 7 , 7 < ~ H , 7 ..: > Y Q > L L T $.5 S > Y D 7 ~ ( ; , < e t w , : 7 5 Q > > 4 %.; 4 ~ Y : e Y E +.5 7 4 E 4 7 E Q , : , "
};
