/* XPM */
static char *exitcarr61680168882[] = {
/* columns rows colors chars-per-pixel */
"64 64 191 2 ",
"   c #020101",
".  c #010A00",
"X  c #160202",
"o  c #081103",
"O  c #10100E",
"+  c #090A14",
"@  c #131C17",
"#  c #270000",
"$  c #330100",
"%  c #28100F",
"&  c #0E2901",
"*  c #132A03",
"=  c #152A0A",
"-  c #163403",
";  c #1A3205",
":  c #1F3804",
">  c #1B320B",
",  c #17380D",
"<  c #1F3113",
"1  c #372505",
"2  c #36260B",
"3  c #392E0C",
"4  c #233502",
"5  c #233D03",
"6  c #27310C",
"7  c #223A0B",
"8  c #353403",
"9  c #222413",
"0  c #22251F",
"q  c #382913",
"w  c #253114",
"e  c #223C13",
"r  c #2D3816",
"t  c #29391B",
"y  c #333410",
"u  c #241527",
"i  c #341C27",
"p  c #312222",
"a  c #302F27",
"s  c #353733",
"d  c #450303",
"f  c #431508",
"g  c #521F04",
"h  c #561314",
"j  c #76151C",
"k  c #462807",
"l  c #40300D",
"z  c #4E2314",
"x  c #53201F",
"c  c #443414",
"v  c #663319",
"b  c #691822",
"n  c #4A3820",
"m  c #533925",
"M  c #4D2B32",
"N  c #4A3335",
"B  c #692521",
"V  c #7A2322",
"C  c #7E2A2E",
"Z  c #673424",
"A  c #783121",
"S  c #7B382C",
"D  c #18410E",
"F  c #254005",
"G  c #2C4206",
"H  c #2F4903",
"J  c #27400C",
"K  c #2E4A0C",
"L  c #35500E",
"P  c #2A4214",
"I  c #294A15",
"U  c #2D431C",
"Y  c #284B1C",
"T  c #334712",
"R  c #314A15",
"E  c #36431E",
"W  c #354C1F",
"Q  c #375114",
"!  c #35511E",
"~  c #304424",
"^  c #364B24",
"/  c #395224",
"(  c #3D542D",
")  c #384432",
"_  c #444314",
"`  c #4A4A24",
"'  c #534021",
"]  c #445E22",
"[  c #455E2B",
"{  c #444238",
"}  c #6E4128",
"|  c #436422",
" . c #4A6321",
".. c #4A6428",
"X. c #4D692B",
"o. c #536623",
"O. c #506A28",
"+. c #4B6331",
"@. c #436930",
"#. c #546B32",
"$. c #506638",
"%. c #546A3C",
"&. c #4D783A",
"*. c #557330",
"=. c #5A7331",
"-. c #5B7539",
";. c #666E38",
":. c #627835",
">. c #3D3A40",
",. c #454546",
"<. c #574445",
"1. c #585244",
"2. c #4D4F50",
"3. c #565555",
"4. c #6F4C48",
"5. c #7A4841",
"6. c #665554",
"7. c #5C7540",
"8. c #5E7B40",
"9. c #637B43",
"0. c #7C6857",
"q. c #5D5C61",
"w. c #695E63",
"e. c #6C6668",
"r. c #767070",
"t. c #881B19",
"y. c #9D1522",
"u. c #AB1720",
"i. c #A41E25",
"p. c #AA1A26",
"a. c #B31729",
"s. c #B31C28",
"d. c #B41F30",
"f. c #892724",
"g. c #8C2925",
"h. c #88252E",
"j. c #992223",
"k. c #9B2129",
"l. c #96282D",
"z. c #873024",
"x. c #9C332A",
"c. c #992532",
"v. c #883331",
"b. c #983436",
"n. c #A82224",
"m. c #AC2A2D",
"M. c #A52130",
"N. c #B52730",
"B. c #BB2435",
"V. c #A83337",
"C. c #A53F38",
"Z. c #B53235",
"A. c #BE353B",
"S. c #C52435",
"D. c #CA3336",
"F. c #C43539",
"G. c #CE3039",
"H. c #D1383D",
"J. c #914C37",
"K. c #993544",
"L. c #AB2D42",
"P. c #B93541",
"I. c #C73541",
"U. c #935249",
"Y. c #9A5B5D",
"T. c #B5494B",
"R. c #886858",
"E. c #A7635B",
"W. c #A55D61",
"Q. c #996667",
"!. c #95696B",
"~. c #8E7B74",
"^. c #A86F73",
"/. c #C94547",
"(. c #D74C55",
"). c #E35D61",
"_. c #D4696E",
"`. c #E66568",
"'. c #7F8778",
"]. c #88857C",
"[. c #918579",
"{. c #9D7E83",
"}. c #8A8684",
"|. c #958D89",
" X c #9B9A9B",
".X c #B99E9A",
"XX c #B2A39A",
"oX c #AE9FA3",
"OX c #B2A3A5",
"+X c #D69E9F",
"@X c #DDB7B9",
/* pixels */
"> ; w 7 * e w 6 7 Q | &.@.:  ._ 4 T #...5 5 : R ! 7 > e ~ t 2 2 f z k f k h f k 4 @.@.7.@.- o.K F | | | 4 5 4 ^ U P 7 , I e ; : ",
"e J 7 w > , e 6 6 7 5 +.*.Q F - / I J ! R 7 - / U 6 c a < 7 9 0.R.R.0.R.R.R.R.0.^ e , $.*._ 8 K  .o.*.:.#.5 5 U U 6 > > e - - D ",
"; 7 R e D , > > 6 7 7 7 e : : J , < e U - , e : t q f 0.0.'.'.].}.~.].}.}.].].[.].r.[.[.!.R.4.U.g k 5 F 7 6 e e e < = 6 r w e e ",
"! T / e Y D , , 7 * e > > < U , , P - > I W , r q x W.W.[.XX|. X X X X X|.}.}.].}.|.{.{.{.^._.^.U.J.' ' n 3 6 > : 7 6 r w e r P ",
"@.U 7 4 P ! J D P > , , , * = = < * , e : ! T 1 ~.Q.Y.^..XXXXXXXoXoXoXOXoXOXOXOXoXOXXX.X@X@X@X+X^.T.K.h.h.h l 6 ; 7 e E > ; e ! ",
"R : 7 6 K I 7 T c n 1 3 q c q p 1 2 3 3 3 c Z E.E.U.C C Y.Y.Q.Q.!.!.!.Q.!.!.!.!.Q.!.Q.Q.^.Q.Q.^.h.x.M.p.i.f.A g 3 6 y _ ! 7 5 W ",
"7 P T R I : _ v j V.V.V.b.J.b.b.b.C.T.T.C.T.C.F.n.j.y.j.f.h.l.c.h.v.v.h.b.l.l.b.b.x.c.c.V.V.M.P.V.L.B.I.d.m.m.x.A g k _ ! J 4 > ",
"e 6 6 5 _ 1 J.C.Z.A.I.I.T._._.).`.(.F.F.D.F.D.G.S.D.N.Z.V.Z.F.D.Z.C.V.Z.A.N./.`.`.`.(.`.(.P.P._.P.P.F.I.P.B.I.B.A.x.A k T 5 7 R ",
"^ - 8 k g J.Z.I.H.Z.l.C S v.b./.I.(.G.G.S.D.D.D.F.F.F.F.P.F.G.G.F.F.A.A.F.F.F./././.C.H.I.P.P.T.l.V V z.y.P.I.F.D.Z.j.v.k 5 ! I ",
"^ ` k U.C.Z.I.d.y.f.d X # # B v.L.B.S.S.S.D.H.D.F.F.A.F.F.F.G.G.F.B.N.p.a.a.a.n.j.n.n.n.s.P._.K.h $ X X B g.L.Z.D././.g.k ! I D ",
"E n Z k.D.G.P.c.b f z N i   4.x j c.d.S.p.p.p.u.p.j.i.i.k.i.i.u.p.p.n.p.n.p.p.p.i.i.u.p.p.c.V b z + { % m $ j P.I.S.L.v.k E - D ",
"7 c B t.d.B.M.j $ ,.  >.>.@   N $ C y.L.s.p.u.n.n.n.i.i.i.i.i.n.u.p.p.M.p.p.u.p.y.n.p.i.c.K.# { X O 1.p 9 6.d K.P.P.M.v.3 7 J , ",
"> 3 k h c.l.l.x p >.@ 2.>.2.u M % B c.B.d.a.p.u.i.n.a.a.s.u.u.p.p.a.N.d.d.s.a.s.N.a.s.m.m.B % p X p 3.3.% 6.x B L.L.b.} 3 5 y Q ",
"^ y m $ j c.C h <.0 ,.3.r.r.3.N { $ l.u.d.N.B.m.m.m.N.B.S.B.N.N.N.N.N.N.d.d.B.N.u.N.m.m.c.# 6.0 s e.w.e.3.p 4.h h.l.A g 8 5 8 ;.",
"> > 9 f j c.h.h <.,.2.e.6.w.<.<.m $ V j.M.M.m.N.m.m.N.N.s.N.N.m.m.m.n.p.p.p.i.i.n.n.t.j.v.X 3.,.2.e.q.e.4.N 6.q B Z ' 8 Q =.:.:.",
", 5 6 1 A b v.$ a s O <.<.6.0 0 9 m B V A V z.g.g.g.f.f.g.g.z.z.A z.g.g.g.g.z.A z.g.z.A g 0.0 0 + a 3.3.q { p ` m 3 8 _  . .:.H ",
"7 W 7 6 2 l l p @ { o s s   . {   w 2 2 n ' 2 2 2 l 2 1 2 2 l k c c 1 c 1 ' c l k c _ ` _ 6 . )   @ ,.@ 9 1.  7.9 6 5 +.X.X.X.: ",
"J P 4 7 J / ^ _ t 9 9 ) s   2.s w = e P > e ! > e > w < e w 7 7 < W 7 7 L T P : 4 5 5 #.+.< ~ ) s O ,.@ { . %.U ^ I J R R J 5 J ",
"J J J R 7 7 t ) ~ a o w 9 @ w 0 > < P - 7 , > J - > > e > P 7 7 / : J T W : R 5 F 4 J 7 U ^ ^ w o 0 0 0 t E W R 5 J : - 5 M M M ",
"J 7 5 / R e 7 e > > t < P < < < t U ^ 7 5 : R 5 4 6 T / P e e 7 5 : : J 7 : %.-.#.X.7 e e > 7 e t w w e > 7 > : : & - M M M M M ",
"I J 7 J E J e - - > - 7 ^ > P P e 7 ^ R R 4 X.5 5 R P 5 7 ; / 5 -.L 4 - , %.J -.#.R : : P > 7 ^ E ~ r e %.7 ; 4 J 7 M M M M M M ",
"W ^ 7 7 , : 7 7 e 5 7 : +.R 7 ; 7 7 7 4 Q 4 ..=.: Q 5 7 5 7 W 4 -.O.Q F [ Q #...T 5 , : 7 - e ; W +.T 4 [ -.F 5 M M M M M M 5.5.",
"W W > 7 I ! I 7 I +./ & / R ; %.U e ; 5 F 5 Q %.4 5 P 7.W T ; 7 ..O.| L F ] $.4 R - Q I R 7 - e - G T 7 #.=...M M M M M M M M 5.",
"- Y 7 W R ^ 5 7 - ! [ ! - - R P 7 7 T $.-.=.K L 4 T 7.Q 7 ; e : +.K X.K 5 7 7 7 ; %.R J 5 - e - r ; 5 F ; Q M M M M M 5.5.5.5.M ",
"> 7 : 7 7 7 4 7 5 7 6 / W ; * 7 e r E J G -.-.T 5 +...U 7 ; 7 7 R Q K K 5 5 7 e > e > : ; e > < - F : | F M M M M M M M M 5.5.5.",
"J +.J 7 7 5 7 7 ; 7 - ; 7 7 7 ; ; 7 P 7 7 Q [ Q : 7 7 7 e e e 6 5 P ! F : 7 7 e P > > ; ; 7 > > ; : +.-.-.M M M M M M M M 5.5.5.",
"r +.7 T W : P 7 W P 7 * > * 7 ^ > ; 7 : 5 4 J 5 7 - - e e > e > ] K : W e > > +.[ W 7 < > < * > J : F I M M M M M 5.M M M M 5.5.",
"7 J 6 e ^ R , 7 7 W / U e e e W ~ > - : J 6 , 6 7 e r e > w > 7 - R 7 ( P U e 7 / ^ D : > e > ^ 4 D - F M M M M M M 5.5.5.5.5.5.",
"5 ; 7 7 7 ^ 7 > > 7 e > 7 7 e U ^ 7 > 7 6 ; 7 e * w , > < < ; ; 7 7 > U ^ = 7 7 4 P ^ e w > - W ! ; J M M M M M M 5.5.5.5.5.5.5.",
"7 7 7 e ; e e e ; > 7 e 7 7 7 e ^ r 7 7 7 ; * > > 6 = < ^ > ; > 7 7 e e ^ ^ 7 7 7 G P > e > 7 7 ! W J M M M M M 5.5.5.5.M M M 5.",
"e P > , , > 7 P 7 W ! I 6 : R J 7 - 7 T ^ e 7 7 e w e ) ^ e - e 7 7 e 7 4 ^ 7 P 7 5 ; 7 5 7 U e - J M M M M M M M M M M M 5.5.5.",
"> e , - - e : D 4 7 I +.! : R R 5 : ! / ..7 e 7 ^ e < ^ ~ > < ; e w : ; > 7 7 ^ 4 7 5 #.; 7 W W J F M M M M M M M M M M 5.5.5.5.",
"> D 7 > - 7 7 : J ..X.-. .D O.L H ! X.#.: F J I R e 7 > ^ t e > > 6 > > > > 7 > F X.[ -.X.: +.Q F M M M i i M M M M M 5.5.5.5.5.",
"U U e > < e , W : F R ..=.K ; F O.O.#.=...: : ^ ^ * P e w > = e e W P P - > D W R J 5 ..-.R J ; O.i M i i M M M M M 5.5.5.M 5.5.",
"U Y 7 > ; ; 7 R I J & F 4 X.J P H *.*.7 - - < ^ r e : 7 , 5 4 J W W & , = 7 7 7 ; ; - - : : : P 7 i i i M M M M M M 5.5.M } 5.5.",
"W ^ P > 7 < e J : 5 : T R ! R I X.| J - 7 > > t e > 7 : 5 J P ] W W > > > 7 ; 7 - ^ J - > > , e > i i i M i i M M M M M N 5.5.5.",
"W T : > e e P 7 7 e 7.7.+.- W > - , > < = e > P W T P  .5 : :.-.T E e - > 7 7 E > W P P e = < > e e i i i i i M M M M M M 5.5.5.",
"T > - P W U e 7 7 $.+.t P e > e D P ^ ^ ^ e > - ; ! L Q o.: : o.R 7 - ; e e e ^ e P E U 7 > , Y 7 > %.i i i i M i i M M U.5.5.5.",
"7 5 D R ^ W 7 7 ; , J D > J > 7 : I R : 7 - 4 - F 7 7 ] +.7 7 7 J I ; R P J W W 7 > e e > < > < 4 Q [ #.i i M i i M M 5.5.5.M 5.",
"5 4 7 7 7 7 > ; J R E Q F > J : K L J - J J J ! ^ ; 7 : 7 : e 7 : L 4 @./ , U : J 7 > D > : ^ $.7. .H O.K i i i i M 5.5.5.M M M ",
"> J E 7 P - 7 ; < : : ! I F J : D ; : J > ^ ^ W U : R J : I -.: F : : -.I : : 7 J 7 : ! ; J e : K :. .H L i i i i M M M M M M M ",
"%.T / 7 - ^ ^ - : J F - L 4 : =.-.-.| J 7 e < ^ ^ P 7 > Q =.=.F O. .L =.7 5 ; R R 7 : X.P J / 4 F F O.o.H : i i i M M M M M M M ",
"@./ - e ^ ^ 7 ; : 7.K : : - O...*.| Q J ; ; , - P W 7 5 7.+.5 4 ..*...K T 7.9.X.: : J +.K / - J 7 5 W R R 4 i i i i M M i M M i ",
"; +.7 ; e , - 7 J -.-.R F O.K X.@.Q 5 4 / W 7 > J 4 J : ..R 4 7 : L =.L 5 : 7 - J : : : ! W ; R E e > : e J - + i i M i i M M i ",
"5 > J e > > ; ; 7 [ #.+.: 5 I X., : : J R : - J | #...4 5 F - F : : / T - , - : : - U #.5 : $.W J w e e 7 e > + + i i i M M i u ",
"7.P J ! e ; 7 > - 5 W +.J J +.+.J : J 7 : ; X.9.-. . .5 5  .9.#.-.F - J e : > e - - e Q +.R +.7 > , e w ^ e w + + u u i i i u %.",
": : 7 T U 7 e 7 ; 7 7 W / 4 - : | X.P 4 4 - - > J ; J : O.=.=./ 7 - U * > > P W 7 = : - ^ W 7 e > > 7 P W 7 + + + + u u i i i u ",
"J - 7 7 W W > e 7 e > , : P J R @.-.-...> : P , W I T 5 7 7 4 4 : 7 - > < e > ~ ^ 7 ; 5 7 - 7 - 4 5 5 ^ ^ > + + + + + u u i i u ",
"5 P 5 J - e 7 D ; > > P < P < > > , * : , ; 7 W R 7 7 7 , > J 7 7 E 7 7 : ; e 5 T : F #.7 D < > 7 7 7 e U e + + + + + W u u i i ",
"5 / 5 I ^ / > > > 7 , e , > > > > e P < & - P 7 7 R ; ; P : e 7 : W Y 7 e ^ +.4 D : ..=.: ; > e 7 W 7 ; 7 r + + + + U W 4 u u u ",
"L : 5 +.X.4 e , E U W < e > > , > > t > > P - ^ > W / J : e > e R J W W > , ! +.L F *.! F 7 > ; 7 ^ R P 7 7 + + + + R ! 5 7 u u ",
"F F : 7 7 5 5 R ^ J 7 - 7 7 e , , < > , > 7 ! I > U P e : 5 / > : : 5 7 : J D 7.| L X.F J J , > 7 e T R 5 Q + + + + + J 4 * : u ",
"-.-.X.: : : J : J > > : U ^ W D P , < < e 7 I X.J ; ^ - J T W J *.Q J : / R : :  .L K P ..[ ^ > 6 > P R 5 L =.+ + + + 5 ; e 7 e ",
"-. .] O.F ..+.7.-.@.T - ; 7 T W e : - ^ 4 > +.F 5 ; : F | ! I : *.9.J I > ..$.T J T L L I J P > > 7 7 4 5 4 H =.: H X.7.+.W E e ",
"L ..O.K F I Q [ ; > > : ; J P U W < > W ^ J > - F : : J [ +.7 : O.] Q K 7 7 -.$.R W 7 I J ; 7 > = e 7 7 K Q K o.L o.o.%.R : e e ",
"- L  .- - T X.4 : : : 7 : ; > 7 > J 4 R [ J ; 7 ..X.#.+.7 7 5 5 ..K F : 7 7 7 7 W R 7 5 7 > 7 > > / W $.-.-...K H Q Q R : e * < ",
": 5 J R R 7 - - +.+.W , > ; e 7 : I 4 : #.X.5 X.-.*.K : J 5 : F : R 5 7 7 * e 7 7 ^ e - 7 e , ; e 7 e r 5 P W R : 4 7 7 7 * 6 e ",
"5 +.-...7 ; 7 X.W / 6 U : - e +.e ; : 5 5 : 4 X.-.: - X...I Q : J +.7 : > - 7 7 D P w - e 7 J 6 = ; 7 7 e e 7 - > ; e , 7 7 U e ",
"T ] R 7 5 R > 7 > P e U 7 - > +.[ 5 7 R ] -.%.L F : #.8.%.=.] : P @.7 * > e > > 7 > > > > e / e 7 5 - - e ; = e ~ = < : e e W > ",
"> , 7 7 e P > e 7 D e ; > > P +.+.F I 7.9.X.| X.- : ..R #...J > J P 7 ; e U > 7 > > 7 t > e t W ; 7 7 > > 6 t ^ ( < = w e e e > ",
"e 7 e P e 7 7 > e P P > - : 7 +.7 J 5 W [ *.#.| Q J J R +.- : > P = , > 7 W e 7 7 - P D 7 7 7 ^ 5 7 7 ; - 6 ^ U E e w > e > > > ",
"7 7 U R > 7 ^ ^ 7 P P 7 > ; 7 7 : 5 > R , : F 5 ; : J J J - > - < e P > ; ! P 7 7 : / > 7 7 7 7 U 4 7 7 e 7 ^ e > e 7 - r : > w ",
"e 7 > > - 7 P U 7 > e 7 , : ^ : 7 : 7 ..[ 5 , 5 F : ; ; e P ; , e < 7 : - R R P 4 J W W ; 7 ! 5 P 7 7 [ +.7 7 : 7 6 7 7 e > 7 w ",
"> 7 ; 7 > 7 , ^ J > 7 ..- 5 T W 7 P e R $.7 J : T F 7 ! ) > > , e t w > ; 7 5 ! D : ; %.; 4 W T : r T W +.5 7 5 W 4 > W / > ; : "
};
