/* XPM */
static char *exitcarldown41680168880[] = {
/* columns rows colors chars-per-pixel */
"64 64 192 2 ",
"   c #020101",
".  c #010A00",
"X  c #080D0D",
"o  c #160202",
"O  c #10100E",
"+  c #131C17",
"@  c #270000",
"#  c #330100",
"$  c #281010",
"%  c #0E2901",
"&  c #132A03",
"*  c #152A0A",
"=  c #163403",
"-  c #1A3205",
";  c #1F3804",
":  c #1B320B",
">  c #17380D",
",  c #1F3113",
"<  c #372505",
"1  c #36260B",
"2  c #392E0C",
"3  c #233502",
"4  c #233C03",
"5  c #27310C",
"6  c #223A0B",
"7  c #353403",
"8  c #222413",
"9  c #22251F",
"0  c #382913",
"q  c #253114",
"w  c #223C13",
"e  c #2D3816",
"r  c #29391B",
"t  c #333410",
"y  c #241527",
"u  c #341C27",
"i  c #312222",
"p  c #302F27",
"a  c #353733",
"s  c #450303",
"d  c #431508",
"f  c #521F04",
"g  c #561314",
"h  c #76151C",
"j  c #462807",
"k  c #40300D",
"l  c #4E2314",
"z  c #53201F",
"x  c #443414",
"c  c #663319",
"v  c #691823",
"b  c #4A3820",
"n  c #533925",
"m  c #4D2B32",
"M  c #4A3335",
"N  c #692521",
"B  c #7A2322",
"V  c #7E2A2E",
"C  c #673424",
"Z  c #783121",
"A  c #7A382C",
"S  c #19410E",
"D  c #254005",
"F  c #2C4206",
"G  c #2F4903",
"H  c #27400C",
"J  c #2D4A0C",
"K  c #35500E",
"L  c #2A4214",
"P  c #294A15",
"I  c #2D431C",
"U  c #284B1C",
"Y  c #334712",
"T  c #314A15",
"R  c #36431E",
"E  c #344C1F",
"W  c #375114",
"Q  c #35511E",
"!  c #304424",
"~  c #354B24",
"^  c #395224",
"/  c #3D542D",
"(  c #384432",
")  c #444314",
"_  c #4A4A24",
"`  c #534021",
"'  c #445E22",
"]  c #455E2B",
"[  c #444238",
"{  c #6E4128",
"}  c #436422",
"|  c #4A6321",
" . c #4A6428",
".. c #4D692B",
"X. c #536623",
"o. c #506A28",
"O. c #4B6331",
"+. c #436930",
"@. c #546B32",
"#. c #506638",
"$. c #546A3C",
"%. c #4D783A",
"&. c #557330",
"*. c #5A7331",
"=. c #5B7539",
"-. c #676E38",
";. c #627835",
":. c #3D3A40",
">. c #454546",
",. c #574445",
"<. c #595244",
"1. c #4D4F50",
"2. c #565555",
"3. c #6F4C48",
"4. c #7A4841",
"5. c #665554",
"6. c #5C7540",
"7. c #5E7B40",
"8. c #637B43",
"9. c #7C6857",
"0. c #5D5C61",
"q. c #695E63",
"w. c #6C6668",
"e. c #767070",
"r. c #881B19",
"t. c #9D1522",
"y. c #AB1720",
"u. c #A41E25",
"i. c #AA1A26",
"p. c #B31729",
"a. c #B31C28",
"s. c #B41F30",
"d. c #892724",
"f. c #8C2925",
"g. c #88252E",
"h. c #992223",
"j. c #9B2128",
"k. c #96282D",
"l. c #873024",
"z. c #9C332A",
"x. c #992532",
"c. c #883331",
"v. c #983436",
"b. c #A82224",
"n. c #AC2A2D",
"m. c #A52130",
"M. c #B52730",
"N. c #BB2435",
"B. c #A83337",
"V. c #A53F38",
"C. c #B53235",
"Z. c #BE353B",
"A. c #C52435",
"S. c #CA3336",
"D. c #C43539",
"F. c #CE3039",
"G. c #D1383D",
"H. c #914C37",
"J. c #993544",
"K. c #AB2D42",
"L. c #B93541",
"P. c #C73541",
"I. c #935249",
"U. c #9A5B5D",
"Y. c #B5494B",
"T. c #886858",
"R. c #9B645C",
"E. c #A7635B",
"W. c #AD7757",
"Q. c #A55D61",
"!. c #996667",
"~. c #95696B",
"^. c #8E7A74",
"/. c #A86F73",
"(. c #C94547",
"). c #D74C55",
"_. c #E35D60",
"`. c #D4696E",
"'. c #E66568",
"]. c #7F8778",
"[. c #88857C",
"{. c #918579",
"}. c #9D7E83",
"|. c #8A8684",
" X c #958D89",
".X c #9B9A9B",
"XX c #B99E9A",
"oX c #B2A39A",
"OX c #AE9FA3",
"+X c #B2A3A5",
"@X c #D69E9F",
"#X c #DDB7B9",
/* pixels */
": - q 6 & w q 5 6 W } %.+.; | ) 3 T @.' 4 4 ; T ^ 6 : w ! r 1 1 d l j d f g j j 3 +.+.%.+.; X.G D } } } 3 4 6 E I L 6 > L L - = ",
"w H H q > > w 5 5 4 D O.&.W D = ^ P H ^ T 6 - E P 5 x p q w 8 9.T.T.9.9.T.T.T.9.^ w > #.@.) 7 Y | X.&.;.o.4 3 I I 5 6 : > : - S ",
"- 6 L w S > : , 5 6 6 6 H ; ; H > , w L = > w = r 0 d 9.9.].].].|.}.].|.|.[.^.[.[.e.{.{.~.T.3.I.f j 4 D 6 5 w w w q * 5 e q w w ",
"Q T ^ w U S > > 6 & w : > , I > > L = : P E H r 0 z Q.Q.{.oX X.X.X.X.X.X X|.|.[.|. X}.}./.}.`./.I.H.` ` n 2 5 : - 6 5 w q w w L ",
"+.I 6 3 L ^ D > w > > > > & * * , : > w = ^ Y 2 ~.!.U./.XXoXoXoXOXOX+X+XOXOXOX+XOX+XOXXX#X#X#X@X/.Y.J.g.g.g k 5 - 6 w R 6 - w Q ",
"T 6 6 5 J P 6 Y x n 1 1 0 x 0 i < 1 2 2 2 x C E.E.I.V V U.U.R.!.~.~.~.~.~.~.~.~.!.~.!.!./.!./.!.g.z.m.i.u.d.Z f 2 5 t ) E 6 4 E ",
"; L T T P ; ) c h B.B.B.v.H.v.v.v.V.Y.Y.V.Y.V.D.b.h.j.h.d.g.x.x.g.c.c.g.v.k.x.v.v.v.x.x.B.B.m.L.B.K.N.P.s.n.n.z.Z f j ) ^ H 3 : ",
"6 5 5 4 ) < H.V.C.D.P.P.Y.`.`._._.).D.D.S.D.S.F.A.D.M.C.B.C.D.S.C.V.B.C.Z.M.(.'.'.'.)._.).L.L.`.L.L.D.P.L.N.P.N.C.z.Z j Y 4 6 T ",
"^ : 7 k f H.C.P.S.C.x.V A c.v.(.P.).F.F.A.S.S.S.S.D.D.Z.Z.D.F.F.D.D.Z.Z.S.D.D.(.(.(.V.F.P.L.L.Y.x.d.B l.t.L.P.D.S.C.h.c.j 4 ^ P ",
"~ ) j I.V.C.P.s.t.f.s o @ @ N c.K.N.A.A.A.S.G.S.D.D.L.Z.D.D.F.F.D.N.M.i.p.p.p.b.h.b.b.b.M.L.`.J.g #   o N f.K.Z.S.(.(.f.j Q P S ",
"R b C j.S.F.L.x.v d l M i   3.z h x.s.A.i.i.y.y.i.h.u.u.j.u.u.y.y.i.b.i.u.i.i.i.b.t.i.i.i.x.d.g l X [ $ n # h L.P.A.K.c.j R - S ",
"6 x N r.s.N.m.h # >.  :.:.+   M # V t.K.a.i.y.b.b.b.u.u.u.u.u.u.y.i.i.m.i.i.i.y.t.b.i.b.x.J.@ [   O <.i 8 5.# J.L.L.m.c.2 6 H > ",
": 2 d g k.k.k.z p :.+ 1.:.1.$ M $ N k.N.s.p.i.i.u.b.p.p.p.y.y.a.i.a.M.s.s.i.a.a.M.a.a.M.n.N $ i o i 2.2.$ 5.z N K.K.v.{ 2 4 t W ",
"^ t ` # h x.V g ,.y >.2.e.e.2.M [ # k.i.s.M.N.n.n.n.a.N.A.N.M.M.M.M.M.M.s.s.N.M.y.M.n.n.k.@ 5.9 M w.q.w.2.i 3.g g.k.Z f 7 D 7 -.",
": : 8 d h x.g.g ,.>.1.w.5.q.,.,.n # B t.m.m.n.M.n.n.M.M.a.M.n.n.n.n.b.a.i.a.u.u.b.b.r.h.V @ 2.>.1.w.0.w.3.M 5.2 N C n 7 K &.;.;.",
"> 4 5 2 Z v g.# a a O ,.,.5.9 9 8 n N B Z B l.f.l.f.f.f.f.f.l.l.Z l.d.f.f.f.l.Z l.l.l.Z l 9.9 9 O p 2.2.0 [ i _ n k 7 ) | | ;.G ",
"6 E 6 5 1 k k i + [ . a a   . [   q 1 1 b n 1 < 1 2 1 < 1 1 k j x b < x < n x 2 j x ) _ _ 5 . (   + >.+ 8 <.  $.q 5 4  .O.O...4 ",
"H L 3 6 H ^ ! _ r 8 8 ( a   1.a q * w L * L Q : L : q , w q 6 6 : E 6 6 J T Y 4 3 4 4 @.] w ! ( a O >.+ [ . $.I ~ T H T T H 4 H ",
"H H H T 6 6 w ( ! p X q 8 + q 9 : , H = 6 6 > H - : 5 w : L 6 6 E 4 H T Q 4 I D 6 4 H 6 I ~ ~ , X 9 9 9 r R E T - 6 D = 4 H 6 6 ",
"H 6 4 E W w 6 w : > P q I q , , r I ^ w D ; T ; 3 ; L ~ L w w H 4 - 4 H : 3 @.=.@.o.6 6 w : 6 w r q q w : 6 : 4 4 % = H H : 6 6 ",
"P 6 6 w R 6 w - - : - : E : L L w 6 E T T 3 ..4 4 T L 4 6 - ' 4 =.K 3 - 6 $.H 6.@.T ; 4 L > 6 ~ r ~ e w #.6 = - 6 H H H ; : H 6 ",
"E E H 6 6 = 6 6 S 4 6 3 O.T 6 - 6 6 : 4 W ;  .*.4 W 4 6 3 6 ! 3 =.o.W D ] W o. .Y ; 6 - ; - q = ~  .Y 3 ] =.4 4 J ] Q ; H E ~ , ",
"E E > 6 T Q P 6 T O.^ % ^ T ; $.E w - 4 4 ; T @.3 4 T $.^ L - 6  .o.} K S ' #.4 L - W P T H = w - F Y 6 @.*. .= ..P 6 6 ~ R w 6 ",
"= U 6 ~ T E 4 6 - U ] ^ = = T L 6 6 Y #.=.=.K K 4 Y 6.W 6 - w :  .J ..K 4 ; H 6 - #.T H ; - w = e - D D - W  .4 ..= 4 ; ; 6 w w ",
"6 6 4 ; 6 6 3 6 4 6 6 Q E = - : w R Y 6 G =.=.Y 4 O. .I ; - 6 6 E T J J 4 4 6 w : w * 4 - S : , = D ; } S 4 J W = ..=.] $.- H : ",
"H ] H w 6 4 6 6 - 6 - - : 6 6 - & 6 L 6 6 T ] W 3 6 6 6 e w H > 4 L Q D - H 6 w I : - - : 6 : : - ; O.=.*...W D ..7. .D 3 6 ^ H ",
"e O.6 Y Q - H 6 E L 6 - : & 6 ^ : - 6 - 4 4 6 4 6 - - w w : w 6 ' J - E w - : O.] ~ 6 , : q & : H 4 D P +.@.#.J ..Q H D 4 T E - ",
"6 H 5 w ~ Q : 6 6 E ~ I e w w E ! : 3 - 6 5 6 6 6 w w w : q : : = W 6 / I ! > 6 Q E w 6 : w : E = H - D L  ...W O.J ; Q T E 6 - ",
"4 - 6 6 6 ~ > : 5 : w : 6 6 > ! ^ 6 : 6 6 - 6 w & q * : , , - - 6 6 : R ^ * 6 6 3 L ~ w q : - E ^ = 6 4 4 - - H 6 3 4 3 6 e 6 ; ",
"6 6 6 L - 6 L > - : 6 w 6 6 6 6 ! w 6 6 6 - & : : 5 * w ~ 6 - > 6 6 w w ~ E 6 6 6 F H > L : 6 6 Q E 6 - 6 F H ; ; 6 L 6 6 6 : : ",
"w w : > > > : L 6 E U P : 6 T H 6 - 6 Y ~ e 6 : w q w ( ~ w & w : 6 6 6 - ~ 6 L w 4 - 6 - 6 I w - H = @.O.3 4 6 6 - : w w > : w ",
": w > - - L = L 4 H T O.Q 3 T T 4 4 ^ E ] 6 L 6 ~ w w ! ! : q - w q 6 - - 6 6 ^ 3 H 4 o.= 6 Q ~ H F H W O.6 6 3 E w 6 ~ r , q * ",
": H 6 : = 6 6 6 D O...=.o.; o.J D ' ..@.; D 6 P L w 6 : ~ r q : 5 ; : : : : 6 : D O.' 6.O.4 #.W 4 | | | ; 3 4 Y I 6 w w ~ , > : ",
"L r w : q : w ! ; 4 T  .=.J 4 D o...o.&. .; ; ~ ~ & T w , : : w , ~ L L = : H E T H D  .=.T H = ..| *.=.X.; 3 E E w q * , , q w ",
"I U w : = & 6 W T H % 4 ;  .6 L G &.*.H - = w ~ w w - 6 > 4 4 H Q E % > : 6 : > - = = = ; ; ; H 6 3 H ; H 4 6 : q q L w L 6 - 6 ",
"E ~ P : : H w 6 ; ; 4 Y P Q T T ..} H = 6 : : r w 6 H ; 6 4 L ' E Q : : : 6 - 6 - E H = - : w 6 : E : w 6 - ^ q ; : > : 6 6 6 I ",
"~ T : - w e H 6 6 L 6.6.O.= E > = > - , : w * L E Y L | 4 ; ;.=.Y I w - : 6 : ~ : ~ L L , > , : , w I w 6 O.Y L 6 : 6 6 w w 6 E ",
"P 3 = L E I S w H O.O.r L w : w > I ~ ~ ~ w : = - E J W X.4 ; X.T 6 - - w w H ~ w L I I , = : I 6 > $.6 - 8.6 4 6 ; & : : 6 6 ~ ",
"H 4 H P ^ U 6 6 > ; H > : H : 6 S P T ; 6 - 3 - 4 6 H ] O.6 6 6 H P - P P H ~ E 6 : w S : > : , 4 W ] @.W J J F 4 6 6 6 6 6 - 6 ",
"4 ; 6 6 6 6 : - H T ! W D : H ; J K H = D H w Q E - 6 4 6 - w 6 4 K 3 +.^ : I ; H 6 : L - 6 ~ #.=. .G X.K G K ' @.#.Q 6 & e w ~ ",
": H I 6 e : ; = 6 - 4 Q L D H ; 4 = ; H > ^ E E I 6 T 6 ; Y =.; 4 4 4 =.P ; ; 6 H H 4 E - H w 6 J ;.| G K K ' ;.W 3 6 6 6 , ~ ! ",
"#.Y ^ 6 = ~ ^ - 6 H 4 ; K ; ; *.=.=.] H 6 > q ~ ^ L 6 - W =.*.D ..| K *.; H = P T 6 ; O.H H ^ ; D D o.X.G 4 o.T 4 6 6 : 5 w I w ",
"+.^ - L ~ ~ 6 = 4 6.J ; ; ; ..' &.} W H - - > & L E 6 4 =.O.4 ;  .&. .J Y =.7...- 4 H O.J ^ - H 6 4 E T W 3 6 6 6 w : * L 6 5 6 ",
"- O.6 - w > = 6 > =.=.E D o.J ..+.W 4 3 ^ E 6 6 H 3 6 ;  .T 3 6 ; K =.K H 4 : - D ; ; ; Q E = Y E w - 6 w 6 & w w ! w 6 6 6 - H ",
"; ; H w : : - - H ] O.O.4 D L ..6 6 : H T ; = H } @. .; D D - D ; ; Q Y = 6 - ; 4 : L @.4 ; #.^ e , w w 6 w : q : E ~ w 4 6 4 W ",
"6.L H Q w - 6 : = ; ^  .6 S @.O.H ; D ; - - O.8.=.| | 4 4 | 8.@.=.D - > L - : w = = w W  .E O.w > 6 6 q ^ w q : : w ^ E - 4 T =.",
"; ; : Y I 6 > 6 - ; 6 ~ ^ 3 - 4 } ..I ; 3 - ; > H = H ; o.*.*.^ 6 - I = : : L E 6 : = - ~ ^ ; > 6 - : L E 6 L 5 : : 6 T 4 4 o.;.",
"H = 6 H ~ E 6 w 6 L : = 6 L 6 P +.=.=. .3 4 > 6 E T Y 4 6 6 3 - - 6 = : , w : ! E 6 : ; 6 = 6 - 3 3 4 ^ E - q w & w 6 6 ; K ;.G ",
"H L D H = w 6 S - 5 : w q I , : = > = : 6 & 6 E T 6 5 H e > H 4 6 I 6 6 6 - > ; Y ; D @.6 > , : : 6 6 w E w w q q : w Q 6 Y O.4 ",
"; Q 4 P ~ ^ : : : 6 w w > * : : : , w w % - w 6 6 T - - S : w 6 6 E U 6 w ^ O.4 D ;  .&.4 - : w 6 ~ 6 - 6 r ~ w w 6 I E 4 Y 5 6 ",
"K ; 4 O.O.4 L > I I E > w > : ; : : r : : S : ^ : ~ ^ H - L : w Y 6 ^ E 6 = Q O.K D &.Q D 6 : - 6 ^ T L 6 6  .3 4 ^ T E 4 6 6 6 ",
"S D ; H D - 4 T E H 6 = 6 w w > w > : : : 6 Q T : I P H 4 4 ^ : 4 4 D 6 - 6 S =.} m m m m m m m m m m T 4 W 8.' 3 J ; 6 3 & - - ",
"*.=.&.4 ; ; 6 4 H 6 - : I E E 6 L : , , w 6 P O.H = ~ = H Y E 6 &.W 6 3 W.W.W.W.m m m m m m m m m m m m m K *.*.D ; D ; - L 6 w ",
"=.| Q o.D  .O.6.6.] W.W.W.W.W.W.W.W.W.W.- 6 O.D - - 4 D } Q T W.W.W.W.W.W.W.W.m m m m m m m m m m m m m m m G *.; G o.6.O.E I w ",
"K | ..J D T W ] = W.W.W.4.4.4.W.W.4.4.W.W.W.: = D 4 - W.W.W.W.W.W.W.4.W.W.m W.m m m m m m m m m 4.4.4.m m m m m K X.X.@.T - w w ",
"- K | ; = Y  .W.4.W.4.4.W.4.W.u m W.W.W.W.W.W.W. ...W.W.W.W.4.4.4.W.4.4.m m m m m m m m m m m 4.4.4.m m m m m m m W W T 6 w & q ",
"; 4 H I T 6 W.W.W.4.4.4.4.4.W.u m W.W.W.W.W.W.W.W.W.W.W.W.W.W.W.4.4.4.4.m m m m m m m m m 4.4.4.m m 4.4.4.4.m m m m 6 w 6 & : w ",
"4 O.=.O.W.W.4.4.4.4.4.4.4.4.u m W.W.W.W.W.W.W.W.W.W.W.4.4.4.4.W.W.4.m m m m m m m m m 4.4.4.4.4.4.4.4.4.m m m m m m m ; 6 6 R w ",
"Y ] m u u m m 4.4.y y y 4.4.m W.W.W.4.W.W.W.W.W.W.W.W.W.4.4.4.4.4.m m m m m m m m m m 4.4.4.m m 4.4.4.4.m m m m m m m ; w w E : ",
"& X X X u m m m 4.4.4.4.4.4.4.4.4.W.W.4.W.W.W.W.4.4.4.W.4.4.4.4.4.m 4.4.m m m m m m m m 4.4.4.m m 4.4.m m m m 4.m m m m w w w : ",
"L u X u u u m m 4.m m 4.4.4.4.4.4.W.W.4.4.4.4.W.W.4.4.4.4.4.4.4.4.4.4.m m m m m 4.4.4.4.4.4.4.4.4.4.4.4.4.4.4.m m m m m w : 6 : ",
"6 u y u u u u m m m 4.4.4.4.4.4.W.W.4.4.4.4.W.W.4.4.4.4.4.4.4.4.4.4.4.m m m m m 4.4.4.4.4.4.4.4.4.4.4.4.4.4.4.4.m m m m m : - q ",
", u y u u u u m m m 4.4.4.4.4.4.4.4.4.4.4.4.4.W.4.4.4.4.4.4.4.4.4.4.4.4.m m m m m m 4.4.4.m m 4.4.4.m m m 4.4.4.4.m m m m : 6 q ",
"> u y u u u u m m 4.4.m 4.4.4.4.4.4.4.4.4.4.4.4.4.4.4.4.4.4.4.4.4.4.m 4.4.m m m 4.m 4.4.4.4.m m 4.4.4.4.m m m m m m m m m m - : "
};
