/* XPM */
static char *_852_7937fdde438557dd6588ee3761a74b024366eff7d99e4cc91847daba403080f0[] = {
/* columns rows colors chars-per-pixel */
"64 64 47 1 ",
"  c #080A14",
". c #090A14",
"X c #090B14",
"o c #1E3616",
"O c #1F3616",
"+ c #1E3716",
"@ c #1F3716",
"# c #1E3617",
"$ c #1F3617",
"% c #1F3717",
"& c #263A16",
"* c #273A16",
"= c #263B16",
"- c #273B16",
"; c #263A17",
": c #273A17",
"> c #263B17",
", c #273B17",
"< c #341C26",
"1 c #341C27",
"2 c #351C27",
"3 c #351D27",
"4 c #4C2B32",
"5 c #4D2B32",
"6 c #4D2B33",
"7 c #2D4217",
"8 c #2C4317",
"9 c #2D4317",
"0 c #344C1A",
"q c #354C1A",
"w c #344D1A",
"e c #354D1A",
"r c #344C1B",
"t c #354C1B",
"y c #344D1B",
"u c #354D1B",
"i c #5E761E",
"p c #5F761E",
"a c #5E761F",
"s c #5F761F",
"d c #5F771F",
"f c #476820",
"g c #476920",
"h c #466821",
"j c #476821",
"k c #466921",
"l c #476921",
/* pixels */
"o&=oO>=&=rjdl=gy=yjl=>>yy===y=OO$==OO>===llsk=ly=lll=>=uy===u=OO",
"=-=&@O===&-jsy==yyyyy==yw===OOO==u-&oO=yy==lsr=>llssl==yy=OO&OO=",
"==y==$#O$=========;===>===oOOO==uyO$O====&==&==y&==>==&==OO-====",
"yyu=y>==oO-=OO>=O====y=====$oOulyyO=======&=y==y-=yyy===O$=&===y",
"ly==yy==>OO@oO$OOO===yy=====OlssyyOO=0yy=>==s&yw=yy==oOO@==y=-=y",
"y&===y=ruyO@O>OOOO===uy===y==O=ly==@$=&yy==ldyy==y===OO&===yy==y",
"==yyw-yy=ooO-==OO===w=yy==l==O==&==oOOO==y=lsl=-====OOO$===yy===",
"====y=&=@$==-y====OOl====sj======&OOOOO@===yly==&===OOOo=y==y==y",
"u==>====O===ry==&==Ols>=ksy===yyy=;OO==ysasley=ylssOOOO==y====yr",
"yy====OOO=*-yy==yyyrlsyyly;-===rly==O====ulllygly==OO====yy-=yy=",
"yyy=OOO-=y==y>=-=&yyylsyy=&===,=lw===>=====tly===OOO=-====yy=y=&",
"&======-=gl=&=yuy>=yyusy0llly>===l===u========Oo@O@===yyu==y====",
"*>==yyy>=lpy=yyy===->yyykly==&=y====yy======>=O===%Oyllssy==&==y",
"y=====uy==ss=yy===OOo=====>=&=yry>=yy=-=lsss==O&yu=OO=&lss====ys",
"=O=O@=====ylry====-=O#@======yuy=O=yw===ylsll==Oys==OO=-yll=ysss",
"&==OO==yssyuygpslr==y=OOOOO=&>==;==y==y=yyglyl=rss====llr==yllsy",
"=y====&=&llylssj=OOOyyOO@-O$O-===e===yr===yly==lgj=>ylsj===lllk=",
"=y===yyu==y=lly=OO==Oyy=O========y==yry&&==gl=yly===ssgywy=yyy==",
"y==y==yyy===y=OOO====>-=O=======y==yy=======yyy====&-wyr====&===",
"===yy==@O===-OO==yy-=&y=O==yy=y======&sssg===,=========@@OO=====",
"u===y=&=@@O&y==&==yyy=l==yu=>=u=syO>=lydly=====yyy==l=OO==y==*==",
"wy*=======OOly======y>ka=y===>y=ssy=lylly====OOOyly=ls==rly==yw=",
"5y==yyy=ylyOyy-ly=->==ys>-ysy==>lllr=ll-==wyr=>O=>y=lsl=ly=;yy==",
"55=ryw==&ylwOOyy==yksdyy=ysy===&lygw=====ly===OO=&===ylOk===-===",
"455======&=yyOO$=yy=ydsy=jl=====yyyy==--&=OO==O=O&=l==yyOgsll===",
"555=====O$OOO$&O%====yly=>=>>===>yy=->&===OOOOOOO=jsslyylsg&==y>",
"5555y--=yyoO$O=yO@==============yy>y&==lly-OOOO====ylslylk&==yw=",
"5455yu=-=yyy===yyOOO===========o=y:yy===yy-=OOOu====-llyl==uuy&O",
"55555y==OO=--==yy====O&-$OOOOOOO===yy==>=yy;&OOwy==============O",
"55555=-OO>======y-===OOOOOO=yOOO====yy;=>=====>=yy============O%",
"555555oy,yyyO=y====yy==*==-yu=O=====Oy=y====O=y&==&ll======&==O=",
"545555==&=yly=yy-=yyl===y=-yyO$O==OOO==y===lO=ry,>yyl===y==yyOOO",
"6511555==llsl&lw-lll==>yy===y=$OO=&OO====llsj=ly=llk===yy=>=y=@O",
"5553151y==ylsy=&ljssl==yy&=-=oO==y&=OO&yy==lsy>=llssl==yy=OO>OO=",
"4555111yt=O+=l=yyss=OO=w&=======yyOoo>&&OOoO===-==-==&==========",
"5115111==>Oyyyyylk=OOOO;======ylyyO=oO$OOy-OOO==&=->==y==O=====y",
"511111y===sslOyOOOOO@=O=yyul=>ssyyOOO==y=yy=>OO===y=&ly==oO====y",
"51111y===lly=&=&>=yyy=OO=yyyl==ly=OO===r=&uy=O$=,=l==d==>=OO-==u",
"151<yy==========-yy==OOO===ll====y==u=yr===-OO==>wlsyyy=-===O===",
"112===OO=yuw====yy====yyyO=*OO===y=ly=y=====o=ylplrlyyylsly=$>=y",
"111=>O>o===yr&=======yyry=y==ys====sy======y====yskrwrlsy===%=yy",
"11y==yr$====y==sssl====yy===yss-llys===yy->l>yy==ylly=hy==;O$=y=",
"21==ww=O=syO=-lgsly-==OOyy==sk==kdlyyssk=>&lyy-=>=yyw=====oo===-",
"..====OO=ssy=lylly=&yy&O====ly===ysy======>=wy=yy-=======y=>-=>&",
"..===OOO=lgl-=yl====yOOylll===>===yy>O@$O=yl==ky=====>@O=yy==,=y",
"...y=$OoO=yjy=kl====O@lssll==jssd==&OO==OO=ylyl==O==y=>$O=yy=-ws",
"...yy===$==ry=&=lluOOOO>====lssq=O=-O==y=OO=ry==OO=0y===O>=y==si",
"...-ry&========ylssl====yyy======OOOO==yy=O====@O==yy===#O===ydy",
"....=-==#O=&===O$@@OOO&yw======>=y======y=>l==OO==&=y==&=O=y=yl=",
"....yy==OOO>$OoOO=&@O$=>=y=======yt==yl===ls==O==y====y===yy=y==",
"....l===uyy=O=OOOO=OO==r=yr==>==y>yy==yly=sy=>O@=yy-=yl>-wyy==&=",
" X..===yy==+&=>==OOOO=yy>=y===y==&===>=slyky===O==yy-ypl-y==OO@O",
"...===;====oyyy===O===ylOOy=&yr=sy==yu==lyy=llyOO==y=yas=====&==",
"slll=lkpsl=OO=yy>=Oy==l===-=lyy&ssyy-lly-wywy===O=>=&=rs=ylslry=",
"ylgy=ywlO==OO>=yy=Oyy=Oo>>==ll==lgy===slyy>y===OO===yyylylsly=-&",
"OyjOOrl$O>==OO=:===yl-==llsl>===ly======yy=,=OOO=yylsslyyyyy==O$",
">-9yr>OOlly=&O=====-ll-lssy======y==OO===y=====O=====yryO#==OOO=",
"=lsl===lyy=uOO&l=====&&ls-Olkyy=-l==OOO===-o====OO====OOOO====y=",
"9l9;========>O=gl=*ylssy==lassl=rl=#O=OO*=OOO=y==OO=>OO=yOO>==y=",
"===999===99=O@=lf=ysskll==lyll=O===O=y=%OOO===yy=&O$OO=yy=OO===o",
"&=79-====98OOo=l==>ulsllw=uwl==O===O=u===Oy===,r===OO-yyu=-O===@",
"=&y===rw==yOO====&======OO-===OO===O=yy=&=u=====r=====y=-==O==OO",
"=&-=O==y====O&u==--ll==-==&===O-=&=OOy=y==yyO=y====lg=====-=-=O=",
"-=OOO==y===lO&yr==yyl===y=&yy$OO&=O@O==y-==lO=yy==yrl===y>=yyoo@"
};
