/* XPM */
static char *exitcarl11680168877[] = {
/* columns rows colors chars-per-pixel */
"64 64 193 2 ",
"   c #020101",
".  c #010A00",
"X  c #160202",
"o  c #081103",
"O  c #10100E",
"+  c #090A14",
"@  c #131C17",
"#  c #270000",
"$  c #330100",
"%  c #281010",
"&  c #0E2901",
"*  c #132A03",
"=  c #152A0A",
"-  c #163403",
";  c #1A3205",
":  c #1F3804",
">  c #1B330B",
",  c #17380D",
"<  c #1F3113",
"1  c #372505",
"2  c #36260B",
"3  c #392E0C",
"4  c #233502",
"5  c #233C03",
"6  c #27310C",
"7  c #223A0B",
"8  c #353403",
"9  c #222413",
"0  c #22251F",
"q  c #382913",
"w  c #253114",
"e  c #2C3716",
"r  c #233C13",
"t  c #29391B",
"y  c #333410",
"u  c #241527",
"i  c #341C27",
"p  c #312222",
"a  c #302F27",
"s  c #353733",
"d  c #450303",
"f  c #431508",
"g  c #521F04",
"h  c #561314",
"j  c #76151C",
"k  c #462807",
"l  c #40300D",
"z  c #4E2314",
"x  c #53201F",
"c  c #443414",
"v  c #663319",
"b  c #691822",
"n  c #4A3820",
"m  c #533925",
"M  c #4D2B32",
"N  c #4A3335",
"B  c #692521",
"V  c #7A2322",
"C  c #7E2A2E",
"Z  c #673424",
"A  c #783121",
"S  c #7B382C",
"D  c #18410E",
"F  c #254005",
"G  c #2D4206",
"H  c #2F4903",
"J  c #27400C",
"K  c #2E4A0C",
"L  c #35500E",
"P  c #294114",
"I  c #294A15",
"U  c #2D431C",
"Y  c #284B1C",
"T  c #334712",
"R  c #314A15",
"E  c #36431E",
"W  c #354C1F",
"Q  c #375114",
"!  c #35511E",
"~  c #304424",
"^  c #364B24",
"/  c #395224",
"(  c #3D542D",
")  c #384432",
"_  c #444314",
"`  c #434520",
"'  c #534021",
"]  c #445D22",
"[  c #455E2B",
"{  c #55522A",
"}  c #444238",
"|  c #6E4129",
" . c #436422",
".. c #4A6321",
"X. c #4A6428",
"o. c #4D692C",
"O. c #526825",
"+. c #4B6331",
"@. c #436930",
"#. c #546B32",
"$. c #506638",
"%. c #536A3A",
"&. c #4D783A",
"*. c #557330",
"=. c #5A7331",
"-. c #5B7539",
";. c #676E38",
":. c #627835",
">. c #3D3A40",
",. c #454546",
"<. c #574445",
"1. c #585244",
"2. c #4D4F50",
"3. c #565555",
"4. c #6F4C48",
"5. c #7A4841",
"6. c #665554",
"7. c #5C7540",
"8. c #5E7B40",
"9. c #637B43",
"0. c #7C6857",
"q. c #5D5C61",
"w. c #695E63",
"e. c #6C6668",
"r. c #767070",
"t. c #881B19",
"y. c #9D1522",
"u. c #AB1720",
"i. c #A41E25",
"p. c #AA1A26",
"a. c #B31729",
"s. c #B31C28",
"d. c #B41F30",
"f. c #892724",
"g. c #8C2925",
"h. c #88252E",
"j. c #992223",
"k. c #9B2129",
"l. c #96282D",
"z. c #873024",
"x. c #9C332A",
"c. c #992532",
"v. c #883331",
"b. c #983436",
"n. c #A82224",
"m. c #AC2A2D",
"M. c #A52130",
"N. c #B52730",
"B. c #BB2435",
"V. c #A83337",
"C. c #A53F38",
"Z. c #B53235",
"A. c #BE353B",
"S. c #C52435",
"D. c #CA3336",
"F. c #C43539",
"G. c #CE3039",
"H. c #D1383D",
"J. c #914C37",
"K. c #993544",
"L. c #AB2D42",
"P. c #B93541",
"I. c #C73541",
"U. c #935249",
"Y. c #9A5B5D",
"T. c #B5494B",
"R. c #886858",
"E. c #9A645C",
"W. c #A7635B",
"Q. c #AD7757",
"!. c #A45D61",
"~. c #996667",
"^. c #95696B",
"/. c #8E7B74",
"(. c #A86F73",
"). c #C94547",
"_. c #D74C55",
"`. c #E35D61",
"'. c #D4696E",
"]. c #E66568",
"[. c #7F8778",
"{. c #88857C",
"}. c #918579",
"|. c #9D7E83",
" X c #8A8684",
".X c #958D89",
"XX c #9B9A9B",
"oX c #B99E9A",
"OX c #B2A39A",
"+X c #AE9FA3",
"@X c #B2A3A5",
"#X c #D69E9F",
"$X c #DDB7B9",
/* pixels */
"> ; w 7 * r w 6 7 Q  .&.@.: .._ 4 R #.] 5 F : R / 7 , r ~ t 2 2 f z k 1 g h f k 7 @.@.&.@.: O.H F .. . .4 5 7 W U P : , I , > , ",
"r J 7 w > , r 6 6 5 5 @.*.Q F - / R J / R 7 - ! U 6 c a < r 9 0.R.R.0.0.R.R.R.0.^ r r +.#._ 8 G ..O.*.:.#.5 7 U U 6 > > P - - J ",
": 7 R r D , > > 6 7 6 7 J , : P , < r r - , , ; t q f 0.0.[.[.[. X|.{. X X{./.}.{.r.}.}.^.R.4.U.g k F 5 7 6 r P 7 w = 6 y w < r ",
"! R ^ r Y D , , 7 * r > > < P , > J , > I W P e q h !.!.}.OX.XXXXXXXXXXX.X X X{. X.X|.|.(.|.'.(.U.J.' ' n 3 6 > : 7 6 e w r r I ",
"@.U 7 5 P W J D r > , , , * = = < = D r ; ! T 3 /.~.Y.~.oXOXOXOX+X+X@X+X+X@X@X@X@X@X+XoX$X$X$X#X(.T.K.h.h.h 3 6 , : J E > : r W ",
"R : r 6 K I 7 T c ' 1 2 q c q p 1 1 3 3 3 c Z W.W.U.C h.Y.!.E.~.^.^.^.^.^.^.^.^.~.^.~.~.(.~.~.~.h.x.M.p.i.f.A g 3 6 y _ / D 4 W ",
", P T T I 5 _ v j V.V.V.b.J.b.b.b.C.T.T.C.T.C.A.n.j.k.j.g.g.c.c.h.v.v.h.b.l.l.b.b.x.c.c.V.V.M.P.V.L.B.I.s.m.m.x.A z k _ ! e 4 : ",
"7 6 6 5 _ 1 J.C.Z.F.I.I.T.'.'.`.]._.F.D.D.F.D.G.S.F.N.Z.V.Z.I.F.Z.C.V.Z.A.N.).].].]._.]._.P.P.'.P.P.I.I.P.B.I.B.Z.x.A k T 5 7 R ",
"^ > 8 l g J.Z.I.H.Z.l.C S v.b.).I._.G.G.S.G.D.D.F.F.F.A.A.F.G.G.F.F.A.A.F.F.F.).).).C.H.I.P.P.T.c.V V z.j.P.I.F.D.Z.j.v.k 5 ! I ",
"^ _ k U.C.Z.I.d.y.f.d X # # B v.L.B.S.S.S.D.H.D.F.F.A.A.F.F.G.G.F.B.N.p.a.a.a.n.k.n.n.n.d.P.'.K.h $ X X B g.L.B.D.).).g.k ! I D ",
"^ c Z k.D.G.P.c.b f z N p   4.x j c.N.S.p.p.u.u.u.j.i.i.k.i.i.u.p.p.n.p.i.p.p.p.n.y.u.a.p.c.V x z + } % m $ j P.F.S.L.v.k E : D ",
"e c B t.d.B.M.j $ ,.  >.>.@   N $ C y.L.s.p.u.n.n.n.i.i.i.i.i.n.u.p.p.M.n.p.u.u.y.n.p.i.c.K.# <.X O 1.p 9 6.d K.P.P.M.v.2 7 J , ",
"> 3 k h l.l.l.x p >.@ 2.>.2.u M % B c.B.d.a.p.u.i.n.a.a.a.u.u.p.p.a.N.d.d.s.a.s.N.s.s.N.m.B % q X p 3.3.% 6.x B L.L.b.| 3 5 y Q ",
"^ y ' $ j c.C h <.0 ,.3.r.r.3.N ) $ l.p.d.N.B.m.m.m.N.B.S.B.N.N.N.N.N.N.d.d.B.N.u.N.m.m.c.# 6.0 s e.w.e.3.0 4.h h.l.A g 8 F 8 ;.",
"> > 9 f j c.h.h <.,.2.e.6.w.<.<.m $ V y.M.M.m.B.m.m.N.N.s.N.N.m.m.m.n.p.p.p.i.i.n.n.t.j.C # 3.,.2.e.q.e.4.N 6.2 B Z m 8 Q =.:.:.",
", 7 6 1 A b h.$ s s O <.<.6.0 0 9 m B V A V z.g.z.g.f.f.g.g.z.z.A z.g.g.g.g.z.A z.z.z.A z 0.0 0 + a 3.3.q } p { m l 8 _ ....:.H ",
"7 W 7 6 2 l l i @ } o s s   . }   w 2 2 n ' 2 1 1 3 2 1 2 2 l k c n 1 c 1 m c l 1 c _ { ` 6 . )   @ ,.@ 9 1.  7.w 6 5 X.o.o.o.: ",
"J P 5 7 J / ^ _ t = 9 ) s   2.s w = 7 e , r ! > r > w w r w 7 7 > R J 7 L R I 4 4 5 4 #.+.r ~ ) s O ,.@ } . %.t ^ I J I R e 5 J ",
"J J J T J 7 r ) ~ a o w 9 @ w 0 , r r ; 7 > : P ; 7 > r > P 7 7 ^ 5 7 M M M M M M M M 7 U ^ ^ < o 0 0 0 e E W I 7 7 5 - 5 7 7 7 ",
"J 7 5 W R e r r > > U w t w w < t U ^ 7 F : R : 4 7 P W P r r 7 M M M M M M M M M M M M M > 7 , w w w r > 7 > : 4 & - J J 7 : 7 ",
"I , Q.Q.Q.Q.Q.Q.Q.Q.Q.Q.W > U r r 7 ~ R R 4 o.5 5 T R 7 Q.Q.Q.Q.M M M M M M M M M M M M M M < ^ ~ ^ e e #.7 - : J 7 J J : > P 7 ",
"^ Q.Q.Q.5.5.5.Q.Q.5.5.Q.Q.Q.7 = 7 7 7 5 Q : X.Q.Q.Q.Q.Q.Q.Q.Q.M M M M M M M M 5.5.5.M M M M M M ^ [ T 4 [ 7.F F K [ ! 4 J ~ ^ < ",
"5.Q.U.4.Q.5.Q.i M Q.Q.Q.Q.Q.Q.Q.U r ; Q.Q.Q.Q.Q.Q.Q.5.Q.Q.M Q.M M M M M M M 5.5.5.M M M M M M M M G T 7 #.=.X.; o.I 7 7 W U r 7 ",
"Q.5.5.5.5.| Q.i M Q.Q.Q.Q.Q.Q.Q.Q.Q.Q.Q.Q.Q.5.5.5.Q.5.5.M M M M M M M M 5.5.5.M M 5.5.5.5.M M M M M F F - Q X.: o.- 5 7 5 7 r r ",
"5.5.5.5.5.5.i M Q.Q.Q.Q.Q.Q.Q.Q.Q.Q.Q.Q.Q.Q.Q.Q.5.5.5.5.M M M M M M 5.5.5.5.5.5.5.5.5.M M M M M M M M ..: F K Q - o.-.+.$.5 7 > ",
"5.u u u 5.5.M Q.Q.Q.5.Q.Q.Q.Q.Q.Q.Q.Q.5.5.5.5.Q.Q.5.M M M M M M M M 5.5.5.M M 5.5.5.5.M M M M M M M M -.-.o.L F o.-.X.F : > ^ J ",
"5.5.5.5.5.5.5.5.5.Q.Q.5.Q.Q.Q.Q.5.5.Q.Q.5.5.5.5.5.M M M M M M M M M M 5.5.5.M M 5.5.M M M M 5.M M M M M @.#.$.K o./ J F 5 I W : ",
"| M M 5.5.5.5.5.5.Q.Q.5.5.5.5.Q.Q.5.5.Q.5.5.5.5.5.M 5.5.M M M 5.5.5.5.5.5.5.5.5.5.5.5.5.5.5.M M M M M M P @.#.Q +.K : ! T W 7 : ",
"N M 5.5.5.5.5.5.Q.Q.5.5.5.5.Q.Q.Q.5.5.5.5.5.5.5.5.5.5.M M M M 5.5.5.5.5.5.5.5.5.5.5.5.5.5.5.U.N M M M M M 5 - 7 5 4 4 : 7 r 7 7 ",
"M M 5.5.5.5.5.5.5.5.5.5.5.5.5.Q.5.5.5.5.5.5.5.5.5.5.5.M M M M M M 5.5.5.M M 5.5.5.M M M 5.5.5.| M M M M M J 7 5 > 7 P 7 7 7 > > ",
"M U.5.M 5.5.5.5.5.5.5.5.5.5.5.Q.5.5.5.5.5.5.5.5.5.5.5.5.M M M 5.M 5.5.5.5.M M 5.5.5.5.M M M M M M M M M M M 5 7 7 : > r r > > r ",
"M M M M 5.5.5.5.5.5.5.5.5.5.5.5.5.5.5.5.5.5.5.5.5.5.M 5.5.M M 5.5.5.5.5.5.5.5.5.5.5.5.5.M M M M M M M M M M 7 ; ^ P 7 ~ U w w = ",
"i i M M M 5.M M 5.5.5.5.5.5.5.5.5.5.5.5.5.5.5.5.5.5.M M M M M M 5.5.5.5.5.5.5.5.5.5.5.5.5.M M M M M i i M M M T U 7 < r ~ , > > ",
"i i i i i M M 5.5.5.5.5.5.5.5.5.5.5.5.5.5.5.5.5.5.5.5.5.M M 5.5.5.5.5.5.5.M 5.5.5.5.M 5.5.5.M M M M M i i M i W W r w = w < < P ",
"W Y 7 i i i i M M 5.M 5.5.5.5.5.5.5.5.5.5.5.5.5.5.5.M M M M M 5.M M 5.5.5.M M 5.5.5.5.M 5.5.M M M M M M i i i 7 w < r r P 7 ; 7 ",
"W W P > r D i i M M M 5.5.5.5.5.5.5.5.5.5.5.5.5.5.5.5.M M M M M M 5.5.5.5.5.M M 5.5.5.M M M M M M i i M i i i < > 7 r > 7 7 7 U ",
"W R 7 ; 7 e P i M M 5.5.M 5.4.5.5.5.5.5.5.5.5.5.5.5.M M M M M 5.5.5.5.5.5.5.5.5.5.5.5.M M M M M M i i i i i T P 7 > 7 7 r r 7 R ",
"T > ; r W U J 7 M M M M 5.5.M 5.5.5.5.5.5.5.5.5.M 5.5.5.M M M M 5.5.5.5.5.5.5.5.5.5.5.5.M M i i M i i i i 9.7 5 7 ; * 6 > 7 7 ^ ",
"7 5 J I ^ Y 7 7 = M M M 5.M M 5.5.M 5.5.5.5.5.5.M M M 5.M M i M M 5.5.M M 5.M M 5.M 5.5.5.M M i i M i i Q K K G 5 7 7 7 7 7 7 7 ",
"5 : 7 7 7 7 , ; J R M M M M 5.5.M M 5.5.5.M 5.5.5.M M M M i i i M M 5.M M 5.5.M M M M 5.5.5.M i i i i o.K H L ] #.$.W 7 * r r ^ ",
"7 7 W 7 r = 7 ; 7 : : ! M M | U.M 5.5.5.5.M M M | N M i i i i i M M M M M 5.5.M M M M M M M M i i i i H L L ] :.Q 5 7 7 7 w ~ ^ ",
"$.T / 7 - ^ W : 7 J 5 : L M M M M M 5.M 5.5.M M M i i i i i i i i M M i M M 5.M M M M M M M M i i i O.O.H : o.R 4 7 7 > > r U r ",
"@./ ; r ^ ^ 7 ; : 7.K 5 : : M M M M 5.M M M i i i i 7 5 9.[ i i i i i i i M M M i M M i M M i i p i W T Q : J 7 7 r 7 = e 7 6 7 ",
"; +.7 ; 7 , - 7 7 -.-.R D O.M M M M M M M i i + + 4 J 5 +.E 4 J : i i i i i i i i M M i i M i i u r - 7 r 7 ; r r ~ r 7 J 7 ; 7 ",
"5 , J < > > ; ; 7 [ o.+.5 F M M i i i i i i + + + #.X.: 5 J ; 5 : : ! T ; 7 ; : : i M M i i i u + w r r 7 r > w > W ^ r : J : Q ",
"7.P J / r ; 7 > - 7 W +.7 u M i i i i + + + + + + ....F 5 ..8.#.-.5 : , r - > 7 = ; i i i i i u + + r w ^ r w > > r W W : : L -.",
": : 7 R ~ : r 7 ; 7 7 W u M M i i u u + + + + + + + J : O.=.=./ 7 - U - > > P W 7 > - : i i i u + + 7 P W 7 P : > > 7 R 5 F #.:.",
"J - : J W W > r 7 P > u u i i u u u -.X.+ + + + + + I : 7 J 4 5 : 7 = > w r , ~ W 7 ; : u i i u + + 5 ^ W ; w e * r 7 7 : K :.H ",
"F P F 7 - r 7 , : > , u i u u u , , * - 7 + + + + + + J r > J : 7 U 7 7 7 ; r 5 I : J #.u i u u + + 7 e W r r w < > r W 7 T +.5 ",
"5 ! 5 R ^ / , > > 7 u u u u u = ; w P < & ; + + + + + : J 7 r 7 7 W Y 7 w ^ +.5 F :  .*.u u u + + ^ 7 - 7 r ^ P r 7 U W 5 T 7 7 ",
"L : : +.+.: r J U E u u u u > 7 , , t > > 7 + + + + + J : , > r T J W W : - ! +.L F *.u u u u + + ^ R P 6 J X.5 5 / R W 5 7 7 7 ",
"F F : J F : : R W u u u u 7 r , < < > > > D ! R + + + , 4 7 / , 5 : F 7 , J , 7. .L u u u u + + 7 r T R 4 Q 9.] 4 K : 7 4 * ; ; ",
"-.-.o.: : : 7 : J u u u U W W J r > < r P > I X.+ + + - J R W J *.Q , 5 / R 5 5 X.L u u u u ^ > > 7 P R 5 R =.=.5 4 5 5 4 r 7 r ",
"-...] o.F X.+.7.7.[ T - ; 7 I W 7 > - ^ ; : $.5 5 > : F [ ! I : *.9.J R , +.+.T J P L L R 7 J > > 7 7 4 5 5 H =.: H o.7.+.~ U r ",
"L  .o.K F R Q [ - ; ; : : J J U W r > W ^ J > - F : : J [ X.J : #.] Q K J : 7.$.R ! J I 7 : 7 , = e , 7 K Q K O.L O.O.=.R ; e J ",
"- L ..: - T o.: : : 7 7 - > > 7 > J 5 R [ J - J X.o.#.+.7 7 : 5 X.K F : > 7 7 7 W T > 5 7 > 7 ; > W ! #.-.-.X.K H Q Q R , r * < ",
": : J R R 7 ; ; $.+.W 7 > ; , P - I : : o.+.: o.-.*.K : J F : 5 : I 5 7 5 & , 7 : ~ P ; 7 P 7 - r 7 r 7 7 P ^ R : 4 7 7 7 = , 7 ",
": +.-.X.J ; J +.W ^ > U ; ; 7 +.e ; 5 F F : 4 o.-.: - o.X.I Q : 7 X.7 ; 6 ; 7 7 r r < - r , e , = ; 7 7 7 r 7 ; , ; w 7 : 7 W r ",
"T  .R 7 5 P - , , P r U 7 ; > +.[ 5 7 R ] -.#.L 5 : #.8.#.-...: R @.7 * , w > > 7 > > , > r W w 7 5 * : r ; = r ~ = < > r e W = ",
"; r 7 7 J P > P 7 , P ; > > P $.+.F I 7.9.#. .o.: : X.R #.X.7 ; 7 P 7 7 , W > 7 > > 7 r > P U W ; 7 7 > > 6 t ^ ( < ; w r r r > ",
", 7 r P r 7 : > r I U 7 - ; J +.7 J 5 W [ *.#. .Q J J I +.: 7 , , , 7 > e ! r 7 7 ; P J 7 7 7 W 5 7 7 ; ; > ^ U E r w > r 7 > > ",
"P 7 U I > 7 ^ ^ r , P > > ; , : : 5 > R , : F 5 - : 7 J J ; > ; r w P > - ! P J 7 7 / > 7 7 7 7 E 5 6 7 r 7 W r 6 r > ; r > ; w ",
"r 7 > > ; 7 r U 7 6 J 7 ; , / : J ; 7 X.X.7 7 : 5 5 : ; w D - < r w 7 - ; R T I 5 7 W U ; 7 ^ 5 I : 7 X.o.7 7 : 7 : 7 7 r > 7 w ",
"> 7 ; 7 , 7 7 ^ J > 7 X.; 7 T W 7 r P R $.: 7 7 R 5 7 W ) > , , r t < > ; 5 7 W , 7 : #.- 7 ^ T ; r T ^ +.5 7 4 W 7 7 W W > - > "
};
