/* XPM */
static char *_7046_a6ceb00e6f73260fbfb9140e797e6045345a77cc5712e6d24a34b14bc036fa5b[] = {
/* columns rows colors chars-per-pixel */
"64 64 58 1 ",
"  c #080A14",
". c #090A14",
"X c #090B14",
"o c #1E3616",
"O c #1F3616",
"+ c #1E3716",
"@ c #1F3716",
"# c #1E3617",
"$ c #1F3617",
"% c #1F3717",
"& c #263A16",
"* c #273A16",
"= c #263B16",
"- c #273B16",
"; c #263A17",
": c #263B17",
"> c #273B17",
", c #241526",
"< c #241427",
"1 c #241527",
"2 c #251527",
"3 c #341C26",
"4 c #341C27",
"5 c #351C27",
"6 c #351D27",
"7 c #4C2A32",
"8 c #4D2A32",
"9 c #4C2B32",
"0 c #4D2B32",
"q c #4D2B33",
"w c #2D4316",
"e c #2D4217",
"r c #2C4317",
"t c #2D4317",
"y c #344C1A",
"u c #344D1A",
"i c #344C1B",
"p c #354C1B",
"a c #344D1B",
"s c #354D1B",
"d c #5F761E",
"f c #5F771E",
"g c #5E761F",
"h c #5F761F",
"j c #5F771F",
"k c #466820",
"l c #476920",
"z c #476821",
"x c #466921",
"c c #476921",
"v c #7A4840",
"b c #7A4841",
"n c #7B4841",
"m c #7A4941",
"M c #AD7756",
"N c #AC7757",
"B c #AD7757",
"V c None",
/* pixels */
"O:=OO====ikhc=ci-azc->=aa===a=Oo$=:O@:===zchx=ca&ccc=:=sa===s:O@",
"=*=&@O===-=zha==aaiis==aa===OOO==a-&oO=aa==cha==czhhc-=aa=O@&O$=",
"==i==$oO$=========:===:===OOOO==saO$O===-&==&==s&==:=====OO=-===",
"aas-a===oO:=O0090000000====OOOacaaO=======&=a==a-=aaa==-OO=====a",
"ca==aa==:OO00000000000q0BBBB@chhuaOO&apa====BBBBBBBBBBOOO==i===a",
"i&==-a=iaa000000q00000000BBBBBBBB==OO:&ai=BBBbbBBbbbMBB==&&aa==a",
"==aau-ap000000bbb00000000B0BBbBBBBBBBO$=BBBBBBB04BbBbbBbB==aa===",
"====a&=00000000bbb8000000000bbBbbbBBBBBBBBBBBBB04BbbbbbBBB==a==a",
"s==:*=00009bbbb00bbv00000000bbbbBBBBBBBBMBBBNBBB05bbbbmbbnBB==ii",
"ia:==00000000bbbbbbbbb00000000bBBbbmbBBBBBBBBbBBB0bb111bb00440a&",
"aaa=O00000000bbmb00bbb08000000qbbbmbBBbbBBBBbBBbbmbbbbbm0004...&",
"====0q000b9000bb00bbb0000000bb8bbmbbBbbBBbnbbBBbbbbbb00b00444 4=",
"&:==000000bbbbbmbbbbbbbbb0000bbbbnbbbvnBBBbbbbBBbbbbvb000434414a",
"a==000000bbbbbbbbbbbbbbbb0000bbbbbbbbbbbBbmbbbbbbbbbbb000444414h",
"=O=00090bbbb000bbb80bmb00000vnbbbbbmbbbvBbbbbbbbbbbb0bb00445414h",
"-=00000q00000bbbb70bbbb0b00bb0mbbbbbbbbbbbbbbbbbnbbv00004441114a",
"=a0090000000bbbbbbbbbbbbb00000bbbbbbbbbbbbbbbbbb00b00044444444c=",
"-000440q000bbbbbmbbbbbbb9800bbmbbvbbbbbnbbbbbbbbb006444444444a==",
"a404400000bbb0bbbb0bbbbbbb0000bbbbvbbbbbbbbbn0b004444uai========",
"=44400q000bb0bbbb00bbb00b0000bbbbbbbnbbbvbbbb00044==:==OOOO=-==-",
"a544044000000bbb08mbbbv000000bbbbbbbbbbbbbb8bb094a==c=OO=:i=====",
"ua44444000000bvbbbbbbbbbb00bbb0bbbbbbbbbb0bb0009aca=lh==acu==au=",
"as=444404400bbbbbbbbbbbb000b000bbbbbbb0bb00b000O==a=cdc=ca=;aa:=",
"Oa=a4404400bbb0bq9b00nb0040000bbb0bbbb00bm0000OO=====alOx=:=-==-",
"=-==-44440bbb0000bb00b00440400v000bbbbb0bv00==O=O&&c==aa@chcc===",
"-c&==444409000000bb80000444404000bb00b00000OOOOOO=zhgcaachc===a=",
"ec=aa=44400000000b0040044444444900000b0000=OOOO====achcacc===ai=",
"====as44440040040004444:====4444444400000a-:OOOs===-:ccax==uaa=O",
"&====a=14404300444444O&=OOOOOOO$..444001=aa==OOaa=====-========@",
"=-====-14444004:a====@oO$OO&aOoO...144011=&=:-==aa=========;==O%",
"====O$1144411.X.===su==&=-=aa=O=....13401===O&a====cc======&*=O=",
"==OOO=114411....-=sac===a==uaOOO-...11431&=cO=ia>&aac===a==asOOO",
"$=&@o*15411h.....czc==:aa===a=$OO=&..1111.chc=ca=ccx===aa=:=a=OO",
"=a=-OO1111ach.X....hc==ia==&=OO==a==O.111..cha==cchhc==aa=OO=OO=",
"sa=OOO1111VO=cX.....OO=a========aaOoO:1211.O=====&&=:&==========",
"aa=O-&11,11aaas....XOOO=======acaa$=OO1111=OOO=:==-===a:=o====:a",
"ai;===a1111jcOaOOOOOo=O=asac==hhasOOO=-1<1a=&OO==:a==cs==OO-===a",
"a===aa=-=ccs======asa=OO-aapc==ca=OO==:a==sa=OO:-=c==h====OO==-s",
"===aaa======--==-ai==OOO===cc====a==a=aa===-OO===uchaaa=====O===",
"===-==Oo=asa==--au=:==aiaO==oO===a=ca=a=&:==O=axhcacaaachca=$==i",
"::u=:O=o=&=ai=:======aiaa=a==ah=-==hs===:==a====ahcauacha==>$=aa",
"caa==aaO-===a==hhgx====aa===ahh*ccah==&aa==c=aa==ulza=ca==-$O=a=",
"cu==aa=O=ha@==cchca===Ooaa==hx==xhcaahhc===caa*===aau=====Oo===-",
"=x&===@o=hha=cacca=&aa=O====ca=&=aha====&=:=ua=aa========a==-=:=",
"==:==O$O-clc==ac====a$Oaccx=:====&aa=OOOO:al==ca===&=:@O=aa====a",
"d=aa=OOoO=aca=cc:===O@chhcc==chdh===OO=;OO&icac==O==a=:$O=sa==ah",
"-O=aa===O==aa===ccsOOOO=====chhs&O=-O==a=O$=ia==Oo=ya===O:=a==hd",
"====aa===--:===achjc====aaa======@OO@==aa:O==&=$O==as===oO===aja",
"=a=&=-=:#O=&&==O$@OOOO=au========a&=====a=:c==OO====a====O=a-sc=",
"=a=aaa==$OO=OOOOO=&@O$=:=a-======ai==ac==:ch==O-=a====s===aa&a=&",
"s==lx:==aaa=O=OOOO=O$-=a=aa=====a=ai==uca-ha=:OO&aa==ac:-aaa====",
"=======aa&=+=====OOOO=aa:=u===a======:=hcics===O-=aa:ahz=a==OOO@",
"dhc=-=&====$aaa===$===acO$a=:aa=ha==sa==caa=ccaOO=:a=ahh=-===&==",
"hxcc=ccghc&OO=aa>=Oa==c:==-=caa&hjaa=cca:aaaa===O=====ah=alhcaa&",
"acci=aacO==OO:=aa=Oaa&OO::==cc==cca===jcaa=a===$O===saacacfca===",
"OucOOacoO:==OO===-=ac-&=cchc:===ca======ia===@OO-aachhcuaaaa&=O$",
"=-tui:OOcca=&O======cc=chha======a==OO===a===:=O=====aiaOo=&O@O-",
"=chc=-=caa-sOO=c=:=&&&=cd=Ocxaa=&c==OOO===-O=-==OO====OOOO====a-",
"tcw:=====-&=:O>cc=&alhdi==chjhz=ac=OO=OO&=O$O=a==$O==OO=aOO===a=",
"===ttt===tt=O@=cc=ahhccc=:cacc&O-==@=a=OOOO===aa==@OOO:ua=OO===o",
"==et-====trOOO=c===achcca=suz>=@===o=a=&=Oa===:a:==OO=aau--O===@",
"=&a===ai=-aOO===========OO&===OO===O=aa===s====:i:====a=&&=O==OO",
"==-=@==a====O&i====xc&====&==:O-===OOs=u==aaO=a====cc==:==-===@=",
"==OOO==u===cO&ia==auc===a==aa$OO&=O@O==u===cO=aa==aic===a:=aaOOO"
};
