/* XPM */
static char *exitcarl31680168878[] = {
/* columns rows colors chars-per-pixel */
"64 64 191 2 ",
"   c #020101",
".  c #010A00",
"X  c #160202",
"o  c #081103",
"O  c #10100E",
"+  c #090A14",
"@  c #131C17",
"#  c #270000",
"$  c #330100",
"%  c #281010",
"&  c #0E2901",
"*  c #132A03",
"=  c #152A0A",
"-  c #173403",
";  c #1A3205",
":  c #1F3804",
">  c #1B320B",
",  c #17380D",
"<  c #1F3113",
"1  c #36260B",
"2  c #382908",
"3  c #233502",
"4  c #233C03",
"5  c #27310C",
"6  c #223A0B",
"7  c #353403",
"8  c #222413",
"9  c #22251F",
"0  c #382913",
"q  c #253114",
"w  c #223C13",
"e  c #2C3816",
"r  c #29391B",
"t  c #333410",
"y  c #241527",
"u  c #341C27",
"i  c #312222",
"p  c #302F27",
"a  c #353733",
"s  c #450303",
"d  c #431508",
"f  c #521F04",
"g  c #561314",
"h  c #76151C",
"j  c #462807",
"k  c #40300D",
"l  c #4E2314",
"z  c #53201F",
"x  c #443414",
"c  c #663319",
"v  c #691823",
"b  c #4A3820",
"n  c #533925",
"m  c #4D2B32",
"M  c #4A3335",
"N  c #692521",
"B  c #7A2322",
"V  c #7E2A2E",
"C  c #673424",
"Z  c #783121",
"A  c #7B382C",
"S  c #18410E",
"D  c #254005",
"F  c #2C4206",
"G  c #2F4903",
"H  c #27400C",
"J  c #2E4A0C",
"K  c #35500E",
"L  c #2A4114",
"P  c #294A15",
"I  c #2D431C",
"U  c #284B1C",
"Y  c #334712",
"T  c #314A15",
"R  c #36431E",
"E  c #344C1F",
"W  c #375114",
"Q  c #35511E",
"!  c #304424",
"~  c #364B24",
"^  c #395224",
"/  c #3D542D",
"(  c #384432",
")  c #444314",
"_  c #4A4A24",
"`  c #534021",
"'  c #445D22",
"]  c #455D2A",
"[  c #444238",
"{  c #6E4128",
"}  c #436422",
"|  c #4A6321",
" . c #4A6428",
".. c #4D692B",
"X. c #526825",
"o. c #4B6331",
"O. c #436930",
"+. c #546B32",
"@. c #506638",
"#. c #536B3A",
"$. c #4D783A",
"%. c #557330",
"&. c #5A7331",
"*. c #5B7539",
"=. c #676E38",
"-. c #627835",
";. c #3D3A40",
":. c #454546",
">. c #574445",
",. c #595244",
"<. c #4D4F50",
"1. c #565555",
"2. c #6F4C48",
"3. c #7A4841",
"4. c #665554",
"5. c #5C7540",
"6. c #5E7B40",
"7. c #637B43",
"8. c #7C6857",
"9. c #5D5C61",
"0. c #695E63",
"q. c #6C6668",
"w. c #767070",
"e. c #881B19",
"r. c #9D1522",
"t. c #AB1720",
"y. c #A41E25",
"u. c #AA1A26",
"i. c #B31729",
"p. c #B31C28",
"a. c #B41F30",
"s. c #892724",
"d. c #8C2925",
"f. c #88252E",
"g. c #992223",
"h. c #9B2129",
"j. c #96282D",
"k. c #873024",
"l. c #9C332A",
"z. c #992532",
"x. c #883331",
"c. c #983436",
"v. c #A82224",
"b. c #AC2A2D",
"n. c #A52130",
"m. c #B52730",
"M. c #BB2435",
"N. c #A83337",
"B. c #A53F38",
"V. c #B53235",
"C. c #BE353B",
"Z. c #C52435",
"A. c #CA3336",
"S. c #C43539",
"D. c #CE3039",
"F. c #D1383D",
"G. c #914C37",
"H. c #993544",
"J. c #AB2D42",
"K. c #B93541",
"L. c #C73541",
"P. c #935249",
"I. c #9A5B5D",
"U. c #B5494B",
"Y. c #886858",
"T. c #9A645C",
"R. c #A7635B",
"E. c #AD7757",
"W. c #A55D61",
"Q. c #996667",
"!. c #95696B",
"~. c #8E7B74",
"^. c #A86F73",
"/. c #C94547",
"(. c #D74C55",
"). c #E35D61",
"_. c #D4696E",
"`. c #E66568",
"'. c #7F8778",
"]. c #88857C",
"[. c #918579",
"{. c #9D7E83",
"}. c #8A8684",
"|. c #958D89",
" X c #9B9A9B",
".X c #B99E9A",
"XX c #B2A39A",
"oX c #AE9FA3",
"OX c #B2A3A5",
"+X c #D69E9F",
"@X c #DDB7B9",
/* pixels */
"> ; q 6 * w q 5 6 W } $.O.4 | ) 3 T +.' 4 4 : T ^ 6 ; w ! r 1 1 d l j d f g j j : O.O.$.O.: X.G D } } } 3 4 4 Q I L 6 , P L ; - ",
"w H 6 q > , w 5 5 4 4 O.%.T D - ^ P H Q W 6 - Q I 5 x p < w 8 8.Y.Y.8.8.Y.Y.Y.8.^ w w @.+.) 7 F | X.%.-.+.4 > I I 5 ; > , > ; S ",
"; 6 T w S , 6 > 5 6 6 6 6 6 : w , < S L ; , , ; r 0 d 8.8.'.'.'.}.{.].}.}.].~.].].w.[.[.!.Y.2.P.f j 4 D 6 5 w L w q = 5 e q w w ",
"Q Y ^ w U , , , 6 * w > > 6 I , , L ; 5 P ~ L e 0 z W.W.[.XX|. X X X X X|.}.}.].}.|.{.{.^.{._.^.P.G.` ` b 2 5 > : 6 5 e q w w L ",
"O.I 6 3 L ^ 6 S w > , , , * = = < ; , 6 ; Q Y 2 ~.Q.I.Q..XXXXXXXoXoXoXOXoXoXoXOXOXOXoX.X@X@X@X+X^.U.H.f.f.g k 5 - 6 w R 6 ; w Q ",
"T : 6 5 J P 6 Y x ` 1 1 0 x 0 u 1 1 t 0 t x C R.R.P.V V I.R.T.Q.!.!.!.!.!.!.!.!.Q.!.Q.Q.^.Q.Q.^.f.l.n.u.y.s.Z f 2 5 t ) E 6 4 E ",
": L T T P : ) c h N.N.N.c.G.c.c.c.B.U.U.B.U.B.C.v.r.h.g.s.f.z.z.f.x.x.f.c.j.j.c.c.l.z.z.N.N.n.K.N.J.M.L.p.b.b.l.Z f j ) ^ H 3 > ",
"w 5 5 4 ) 2 G.B.V.S.L.L.U._._.).).(.S.A.A.A.A.D.Z.S.m.V.N.V.L.A.V.B.N.V.C.m./.`.`.`.(.).(.K.K._.K.K.L.L.K.M.L.M.C.l.Z j Y 4 6 T ",
"~ * 7 j f G.V.K.A.V.j.x.A x.c./.L.(.D.D.Z.A.A.A.A.S.S.C.S.S.D.D.S.S.S.C.A.S.S./././.B.F.L.K.K.U.z.B B k.g.K.L.S.A.V.g.x.j 4 Q P ",
"^ _ j P.B.V.L.M.r.s.s X X # N x.J.M.Z.Z.Z.A.F.A.S.S.C.K.S.A.D.D.S.M.m.u.i.i.i.v.g.v.v.v.a.K._.H.g $ X X N d.J.V.A././.d.j Q P S ",
"R b { g.A.D.K.z.v d l M i X 2.g h z.a.Z.u.u.u.t.u.g.y.y.h.v.y.t.i.u.v.y.v.u.u.u.v.r.t.y.u.z.B z 0 X [ % n $ h C.L.Z.J.x.j ~ - S ",
"6 x N e.a.M.n.h $ :.  ;.;.@   M $ V r.J.p.u.t.v.v.v.y.y.y.y.y.y.t.u.u.n.u.u.t.u.r.v.p.y.z.H.# >.X O ,.i 8 4.s H.K.K.n.x.1 6 H , ",
"> 2 j g z.j.j.g u ;.@ <.;.<.y M % N z.M.a.i.u.t.r.v.p.i.i.t.t.u.u.p.m.M.a.i.i.p.m.i.p.m.b.N % 0 + i 1.1.y 4.g N J.N.c.{ 0 4 t W ",
"^ t n $ h z.V g >.9 :.1.w.w.1.M [ $ j.t.a.m.M.b.b.b.m.M.Z.M.m.m.m.m.m.m.a.m.M.m.u.m.b.b.j.# 4.9 M q.0.q.1.i 2.g f.j.Z f 7 D 7 =.",
"> > 8 d h z.f.z >.:.<.q.4.0.>.>.n $ B g.n.n.b.M.b.b.m.m.p.m.b.b.b.b.v.u.u.u.y.y.v.v.e.g.V # 1.:.<.q.9.q.2.m 4.0 N C ` 7 K &.-.-.",
", 4 5 2 Z v V $ p a O >.>.4.9 9 8 n N B Z B k.d.k.d.d.s.d.d.k.k.Z k.s.s.s.s.k.Z k.k.k.Z l 2.9 9 + p 1.1.0 [ i _ n k 7 ) | | -.G ",
"> Q 6 5 2 k k i 8 [ o a a   . [   q 1 1 b ` 1 1 1 0 2 1 2 1 k j x b 2 x 2 ` x k j x ) _ _ q . (   @ :.@ 8 ,.  5.8 5 4  .o.....: ",
"H L 3 6 6 ^ ! _ r @ 8 ( a   <.a q = w L , w E > w > q < w q 6 6 6 I H 6 J T L : 3 4 5 &.] w ! ( a O :.@ [ . #.I ~ P H Y T H 4 H ",
"H H H T 6 6 w ( ! p o q 8 @ q 9 > < m m m m m m m m m m > L 6 6 ~ 3 6 Y Q 4 L D D : 6 6 I ~ ~ < o 9 9 8 r R E Y : H 4 : 4 H 6 6 ",
"H 6 4 ^ W w 6 w > > L < L E.E.E.E.m m m m m m m m m m m m m w 6 4 : 4 6 6 3 #.*.+...6 6 w > : w r q q w > 6 > : : & - S 6 > 6 6 ",
"P H 6 w R 6 w ; E.E.E.E.E.E.E.E.m m m m m m m m m m m m m m m > *.K 3 : : #.L 5.+.Y : : L > 6 ~ ! ! t w #.6 - : : H H H 4 > L 6 ",
"E E 6 6 E.E.E.E.E.E.E.3.E.E.m E.m m m m m m m m m 3.3.3.m m m m m ..W 4 ] W .. .Y 4 S : : ; w ; ~ o.Y 3 ] 5.D 4 J ] ^ 3 6 ~ ~ < ",
"E.E.E.E.E.E.E.3.3.3.E.3.3.m m m m m m m m m m m 3.3.3.m m m m m m m } K :  .@.4 L ; W P T H - < ; F Y 6 +.&. .- ..T 6 4 E I w 6 ",
"E.E.E.E.E.E.E.E.E.3.3.3.3.m m m m m m m m m 3.3.3.m m 3.3.3.3.m m m m J 4 4 6 6 : @.T H : ; w - e - 4 D - W  .3 O.- 4 6 3 6 w w ",
"E.E.E.E.3.3.3.3.E.E.3.m m m m m m m m m 3.3.3.3.3.3.3.3.3.m m m m m m m : : 6 w ; w > > : S > w - D : } : D J W - ..5.] @.> H : ",
"E.3.3.E.E.3.3.3.3.3.m m m m m m m m m m 3.3.3.m m 3.3.3.3.m m m m m m m : H , w r > ; ; > 6 > > ; : ..*.*...K H ..6. .D 3 : ~ L ",
"E.E.3.3.E.3.3.3.3.3.m 3.3.m m m m M m m m 3.3.3.m m 3.3.m m m m 3.m m m m ; 6 o. .~ H < > q - > H : H P O.%.@.J ..Q H D 4 P E : ",
"E.E.3.3.3.3.3.3.3.3.3.3.m m m m m { 3.3.3.3.3.3.3.3.3.3.3.3.3.3.m m m m m I w 6 Q ~ S > > w = E 4 , - D L ] ..W o.J : Q T E 6 ; ",
"E.3.3.3.3.3.3.3.3.3.3.3.m m m m m P.3.3.3.3.3.3.3.3.3.3.3.3.3.3.3.m m m m m 6 6 3 L E w q > - E Q - H 3 : : - 6 4 3 3 > 6 w 6 6 ",
"E.3.3.3.3.3.3.3.3.3.3.3.3.m m m m m m 3.3.3.m m 3.3.3.m m m 3.3.3.3.m m m m 6 6 6 F L > w > 6 6 Q ~ H ; 6 H 6 4 3 6 L 6 6 6 5 > ",
"3.3.3.3.3.3.3.3.3.3.3.m 3.3.m m m 3.m 3.3.3.3.m m 3.3.3.3.m m m m m m m m m m I 6 3 : 6 4 6 I w ; H - +.o.3 4 6 6 ; > w w ; > w ",
"3.3.3.3.3.3.3.3.3.3.3.m m m m m m 3.3.3.3.3.3.3.3.3.3.3.3.3.m m m m m m m m m ^ : H 3 +.; 6 E ~ H D H W o.4 H ; ~ L 6 ~ I < < = ",
"3.3.3.3.3.3.3.3.3.3.3.3.3.m m m m m 3.3.3.3.3.3.3.3.3.3.3.3.3.m m m m u u m m m D ..] 7...: o.W D | | | : 3 4 Y I 6 , w ~ w = > ",
"3.3.3.3.3.3.3.3.3.3.3.m m m m m 3.3.3.3.3.3.3.m 3.3.3.3.m 3.3.3.m m m m u u m u T 6 4  .*.Y 6 - ..| &.*.X.: 4 E E w q = q < q w ",
"3.3.3.3.3.3.3.3.3.3.3.3.m m m m m 3.m m 3.3.3.m m 3.3.3.3.m 3.3.m m m m m u u u ; - ; - : : > H > 3 H 4 F 3 6 6 q < w w L 6 ; 6 ",
"3.3.3.3.3.3.3.3.3.3.3.3.m m m m m m m 3.3.3.3.3.m m 3.3.3.m m m m m u u m u u u - ~ H : ; > L 6 > E > w 6 ; ~ < > 6 w > 6 6 H I ",
"3.3.3.3.3.3.3.3.3.3.m 3.3.3.m m m 3.3.3.3.3.3.3.3.3.3.3.3.m m m m m u u u u u E 6 E w L < > w > w w I w H ..Y L 6 > 6 6 w w 6 T ",
"3.3.m 3.3.3.3.3.3.3.m m m 3.m m m m 3.3.3.3.3.3.3.3.3.3.3.3.m m u m u u u u w ~ w L I I , > = r 6 > #.6 ; 7.6 4 6 ; * 5 > 6 6 ^ ",
"3.m m 3.3.3.3.m 3.3.3.m m m m u m m m 3.3.m m 3.m m 3.m 3.3.3.m u u m u u > E E 6 > w w > w > w 4 T ] #.W J Y F 4 6 6 6 6 6 ; 6 ",
"3.m 3.3.3.3.3.m m m 3.m m u m u u m m m 3.m m 3.3.m m m m 3.3.3.u u u u Q 6 I 6 H 6 > , ; 6 ~ o.5.| G X.J G K ' +.@.Q 6 = w w ! ",
"m m m 3.m m 3.3.m m m m m u u u u m m m m m m 3.3.m m m m m m m u u u u P : : H 6 H : Q ; H w 6 J *.| G K K ' -.W 4 6 6 6 q ~ ~ ",
"m m m 3.m m m m m m u m u u u u u u m m u m m m 3.m m m m m m m u u u &.6 4 - T T 6 : ..L H ^ 4 D D X.X.G : X.T 3 6 6 > > w I w ",
"m m m m m m m u u u u u u u +.' %.u u u u u m m m u m m u m m u u u y J Y 5.6...: 4 6 o.J ^ - H H 4 E T W : H 6 6 w 5 = w 6 5 6 ",
"+ + y m m m u u y *.5.T D ..J ..O.W u u u u u u u u m m u u m u u u y K 4 : 6 ; 4 > : 4 Q E - T I w : > w H * w w ~ w > 6 6 ; H ",
"+ + y m m u u y H ] ..o.4 S L ..6 6 6 , T 4 - H u u u m m u u u u u y y - 6 ; : 4 - I #.4 3 @.E L q w w 6 w > q > E ~ w 4 6 : W ",
"+ + y y m u u y - 3 ~ o.D H +.o.6 : F 6 ; ; ..7.5.| + + + y y u u u u y , : > w ; ; S W o.T o.6 > 6 6 < ~ w q > > w ^ E 4 : K *.",
"+ + + y m u y y ; 6 6 E ^ 3 ; : } X.L : 3 ; - , 6 - + + + + y y y u u y 6 > w ~ w = - ; ~ Q 6 w 6 * 6 L E 6 L 5 > > 6 T 4 4 +.-.",
"+ - 6 y y u y w 6 w > - 6 L 6 P O.*.*. .: : w 6 E + + + + + 3 y y y u u y w > ~ E 6 ; 4 6 - 6 - 3 3 4 ^ E : q w * w 6 6 3 J -.G ",
"4 L F 6 y y y y ; > = w w L < > = , - ; 6 ; 6 ~ + + + + + > H : y y y u y ; S ; T : D +.6 S < > 6 > 6 L I w w q q ; w E 6 Y  .4 ",
": Q : T y y y y , 6 w w = ; > > > < L , & ; L + + + + + S > L 6 6 y y y y ^ o.: D :  .%.: ; = w 6 ~ 6 ; 6 w ^ e w 6 I E : Y 6 6 ",
"K : D ..o.y y y I I ^ w w > > : > > r > ; w + + + + + S > L , w y y y y y - ^ ..K D %.Q D 6 , > 6 ^ T L 6 6  .3 6 ^ T Q 4 6 6 w ",
": D : 6 D y y y E 6 6 ; 6 w w , w < > > > S + + + + L w : 3 ^ ; y y y y : 6 6 5.} K ..D H H : ; 6 w Y T 4 W 7.' 3 J : H 3 * ; ; ",
"*.*...: : : 6 : L : ; > I ~ ~ S L > < , L > L ..H : ~ - H Y E H %.W 6 > ^ T : :  .K J L ..] ~ > > > w T 4 K &.&.4 : 4 4 3 w 6 w ",
"*.| ' ..D  .o.*.5. .Y - > : Y E w > - ~ : 6 o.4 3 - : D } Q T : %.7.H T - o.@.T H L J K P H L > > 6 6 3 4 3 G &.: G X.5.o.~ I w ",
"K  ...J D T W ] - ; ; 4 ; H L I E w > ~ ~ H > - D : : H ]  .6 : +.' W J H 4 5.@.T E F P H ; 6 > = w 6 6 J W Y X.K X.X.+.T ; w w ",
"- K | : - T ..: 6 - 6 6 , ; ; 6 > H : T ' H - H  ...+.o.6 6 6 4  .J D : 6 > 6 6 E T 6 4 > > 6 > > ^ E @.-.*. .J G W W T 6 w * q ",
": 3 H T T : - ; o.o.~ S > ; w 6 - P 3 : +...: ..*.%.J : H 4 : 4 : T 4 H 4 * , L 6 ~ w ; 6 w 6 - w 6 w 6 4 L Q T : 3 6 6 6 * > w ",
"D o.*. .L : 6 o.E ~ > I - ; 6 @.L - : : D : 3 ..*.4 - .. .P W : 6 ..6 ; > * 6 6 S L q - w 6 L > = : 6 6 w e 6 ; > - w 6 6 6 I w ",
"Y ' T 6 : P ; 6 ; L , L 6 ; > o.] : H T ' *.+.W S 4 +.*.#.*.| : L O.6 * > w > > 6 > , < > w E w 6 4 > > w ; = w ! = < > w w E > ",
"; , 6 6 H w , L 6 L L > > > L o.o.D P 5.7...} ..: 3  .T +. .6 : H L 6 : w I > 6 > > 6 , > L r E ; 6 : > ; 5 r ! / q ; < w w w > ",
"L H w L L > 6 ; w L L > - ; H o.H H > E ] %.+.} W H H P O.: > > w > 6 > 6 ^ w 6 6 ; L L 6 6 6 ^ 3 6 w ; ; > ^ I R w q > w > > > ",
"w > I L > 6 ~ ~ 6 L L 5 > ; 6 6 : : : T > : D 4 - : 6 H H - > - w w w > ; Q w 6 w 6 ^ ; 6 6 6 6 I 4 6 6 w 6 E w > L > ; e 6 ; q ",
"S 6 > > - > L r 6 , w 6 - S E : L ; 6  . .: 6 : 4 4 ; : < L * w w < 6 - ; T T Y : : E I ; 6 E 3 Y 6 6 ] o.6 6 : 6 6 5 > w > 6 q ",
"> 6 ; H > 6 6 ^ H > 6 ..- : Y E : L L T o.6 6 6 T 4 6 E ( > > , w r q > : , 4 E 6 : : #.: ; ~ Y ; w Y Q o.4 6 4 E 3 6 E E > - 6 "
};
