/* XPM */
static char *exitcarupr21680168874[] = {
/* columns rows colors chars-per-pixel */
"64 64 124 2 ",
"   c #090A14",
".  c #0E2901",
"X  c #132A03",
"o  c #152A0A",
"O  c #163403",
"+  c #1A3205",
"@  c #1F3804",
"#  c #1B320B",
"$  c #17380D",
"%  c #1F3113",
"&  c #3A2805",
"*  c #35260C",
"=  c #392E0C",
"-  c #233502",
";  c #233D03",
":  c #27310C",
">  c #223A0B",
",  c #353403",
"<  c #222413",
"1  c #382913",
"2  c #253114",
"3  c #223C13",
"4  c #2E3915",
"5  c #29391B",
"6  c #333410",
"7  c #241527",
"8  c #341C27",
"9  c #363423",
"0  c #431508",
"q  c #521F04",
"w  c #561310",
"e  c #432205",
"r  c #492E06",
"t  c #45270B",
"y  c #55240D",
"u  c #40300D",
"i  c #52201F",
"p  c #443414",
"a  c #663319",
"s  c #4A3920",
"d  c #4D2B32",
"f  c #692521",
"g  c #783121",
"h  c #18410E",
"j  c #254005",
"k  c #2C4206",
"l  c #2F4903",
"z  c #27400C",
"x  c #2E4A0C",
"c  c #35500E",
"v  c #2A4114",
"b  c #294A15",
"n  c #2D431C",
"m  c #284B1C",
"M  c #334712",
"N  c #314A15",
"B  c #36431E",
"V  c #344C1F",
"C  c #375114",
"Z  c #35511E",
"A  c #304424",
"S  c #354B24",
"D  c #395224",
"F  c #3D542D",
"G  c #384532",
"H  c #444314",
"J  c #534021",
"K  c #445E22",
"L  c #455D2A",
"P  c #6E4128",
"I  c #436422",
"U  c #4A6321",
"Y  c #4A6428",
"T  c #4D692B",
"R  c #536623",
"E  c #506A28",
"W  c #4B6331",
"Q  c #436930",
"!  c #546B32",
"~  c #506638",
"^  c #536B39",
"/  c #4D783A",
"(  c #557330",
")  c #5A7331",
"_  c #5B7539",
"`  c #676E38",
"'  c #627835",
"]  c #694744",
"[  c #7A4841",
"{  c #7A5750",
"}  c #5C7540",
"|  c #5E7B40",
" . c #637B43",
".. c #7C6857",
"X. c #767070",
"o. c #881B19",
"O. c #992223",
"+. c #96292D",
"@. c #983436",
"#. c #A53F38",
"$. c #CA3336",
"%. c #914C37",
"&. c #935249",
"*. c #886858",
"=. c #AD7757",
"-. c #A55D61",
";. c #996667",
":. c #95696B",
">. c #877E7C",
",. c #A4666A",
"<. c #A9777C",
"1. c #D4696E",
"2. c #7F8778",
"3. c #88857C",
"4. c #918579",
"5. c #9D7E83",
"6. c #8A8684",
"7. c #958D89",
"8. c #9B9A9B",
"9. c #AC9E9C",
"0. c #BF9F99",
"q. c #B2A39A",
"w. c #AE9FA3",
"e. c #B2A3A5",
/* pixels */
"# + 2 > o 3 2 : > C I / Q ; U H - N ^ K ; ; @ b D > @ 3 A 5 * * 0 y t 0 q w e t @ Q Q / Q @ R l j I I I - ; @ Z n b > $ b 3 # O ",
"3 z > 2 # $ 3 : : ; ; Q ( C j O D N z D M > O Z n : p 9 % 3 < ..*.*.....*.*.*...S 3 3 ~ ^ H , k U R ( ) ! ; @ n B : # # $ @ + z ",
"@ > b 3 h $ # # : > > > > @ @ v $ $ v v O $ v + 5 1 0 { ..2.2.2.6.5.2.6.6.3.>.4.3.X.3.4.:.*.] &.y r j j > : 3 5 3 2 o : 4 2 $ 3 ",
"S M D 3 m h $ $ > X 3 # # d d d d d d d d d d 4 1 i -.,.4.q.7.8.8.8.8.8.7.6.6.3.6.7.5.5.<.<.1.<.&.%.J J s = : @ + # : 4 2 3 3 n ",
"Q n > - v Z z $ 3 # $ d d d d d d d d d d d d d =.=.=.=.0.q.q.q.w.w.e.e.w.e.e.e.w.e.9.0.=.=.=.=.=.=.=.=.=.=.u : + > 3 B @ O 3 S ",
"N > > : x b > M p s d d d d d d d d d d d d d d d =.=.=.=.=.=.=.=.:.:.:.:.:.:.:.;.:.=.=.=.[ [ =.=.P [ [ =.=.=.y = : 6 H S z @ V ",
"@ v N N b @ H a d d d d d d [ [ [ d d d d d d d d =.d =.=.[ =.=.=.=.=.=.=.+.+.@.=.=.=.=.=.=.=.d 8 =.[ =.[ [ =.[ =.y e H D z - @ ",
"> : : ; H & %.d d d d d d d d [ [ [ d d d d d d d d d d [ [ =.[ [ [ =.=.=.=.=.=.=.=.=.=.=.=.=.d 8 =.[ [ [ [ [ =.=.=.g r M ; > N ",
"S @ , r y %.d d d d d [ [ [ [ d d [ [ [ d d d d d d d d [ [ [ [ =.=.=.=.=.=.=.=.=.=.=.=.=.=.=.=.d 8 [ [ [ [ [ [ [ [ =.=.r @ V b ",
"S H e &.#.d d d d d d d d [ [ [ [ [ [ [ [ [ d d d d d d d d [ =.=.[ [ [ [ =.=.=.=.=.=.=.=.[ =.=.=.d [ [ 7 7 7 [ [ d d 8 8 d b h ",
"S s P O.$.d d d d d d d d [ [ [ [ d d [ [ [ d d d d d d d d d [ [ [ [ [ =.=.[ [ =.=.=.=.[ =.=.[ [ [ [ [ [ [ [ [ d d d 8       h ",
"> p f o.d d d d d [ d d d d [ [ d d [ [ [ d d d d d d d [ [ d [ [ [ [ [ =.[ [ =.=.[ [ [ [ =.=.[ [ [ [ [ [ d d [ d d 8 8 8   8 $ ",
": = e w d d d d d d [ [ [ [ [ [ [ [ [ [ [ [ [ [ [ d d d d [ [ [ [ [ [ [ [ [ [ =.=.=.[ [ [ [ =.=.[ [ [ [ [ [ d d d 8 8 8 8 7 8 C ",
"S 6 J d d d d d d [ [ [ [ [ [ [ [ [ [ [ [ [ [ [ [ d d d d [ [ [ [ [ [ [ [ [ [ [ =.[ [ [ [ [ [ [ [ [ [ [ [ [ d d d 8 8 8 8 7 8 ` ",
"# # < d d d d d [ [ [ [ d d d [ [ [ d d [ [ [ d d d d d [ [ [ [ [ [ [ [ [ [ [ [ =.[ [ [ [ [ [ [ [ [ [ [ d [ [ d d 8 8 8 8 7 8 ' ",
"$ @ d d d d d d d d d d d [ [ [ [ d d [ [ [ [ d [ d d [ [ d [ [ [ [ [ [ [ [ [ [ [ [ [ [ [ [ [ [ [ [ [ [ d d d d 8 8 8 7 7 7 8 l ",
"# D d d d d d d d d d d [ [ [ [ [ [ [ [ [ [ [ [ [ d d d d d [ [ [ [ [ [ [ [ [ [ [ [ [ [ [ [ [ [ d d [ d d d 8 8 8 8 8 8 8 8 E @ ",
"z d d d 8 8 d d d d d [ [ [ [ [ [ [ [ [ [ [ [ [ d d d d [ [ [ [ [ [ [ [ [ [ [ [ [ [ [ [ [ [ [ [ [ d d 8 8 8 8 8 8 8 8 8 8 z ; z ",
"z 8 d 8 8 d d d d d [ [ [ d [ [ [ [ d [ [ [ [ [ [ [ d d d d [ [ [ [ [ [ [ [ [ [ [ [ [ [ [ d [ d d 8 8 8 8 B V M @ z j + - > > > ",
"z 8 8 8 d d d d d d [ [ d [ [ [ [ d d [ [ [ d d [ d d d d [ [ [ [ [ [ [ [ [ [ [ [ [ [ [ [ d d d 8 8 2 3 # > # @ @ . O h z > @ > ",
"b 8 8 8 d 8 8 d d d d d d [ [ [ d d [ [ [ [ [ d d d d d d [ [ [ [ [ [ [ [ [ [ [ [ [ [ d [ [ d d 8 S 6 3 ~ > + @ z z z z @ # v @ ",
"V A 8 8 8 8 8 d d d d d d [ [ [ [ [ [ [ [ [ [ [ [ d d [ [ [ d [ [ [ [ [ [ [ [ [ [ d [ [ d d d d V W M ; L } ; ; x L Z @ z S S % ",
"V V @ 8 8 8 8 d 8 8 d d [ [ [ [ [ [ [ [ [ [ [ [ d d d [ d d d [ [ [ [ [ [ [ d [ [ d d [ d d d 3 + k v > ! ) Y O T b z @ S n 3 # ",
"+ m > S 8 8 d 8 8 d d [ [ [ d [ d d [ d d [ [ d d 8 d d d d [ [ [ d [ [ [ [ d d [ [ d d d d 3 + 4 O j j O C Y @ T O ; > @ > 3 v ",
"@ > @ # > 8 8 8 8 d P &.[ d d d d [ [ d d [ d d 8 8 d 8 d d [ d d d [ [ [ [ [ d [ [ d d + $ # $ O j - I ; h x C O T } L ~ @ z # ",
"z W z > > 8 8 8 8 d d d d d d d d [ [ d d d d d 8 8 8 8 d 8 d d d [ [ d d [ d d d d d + @ > # # + @ W _ ( T c z T | Y j - > S z ",
"4 W > M S + 8 8 8 d d d d d d d d [ d d 8 d d 8 8 8 8 8 8 8 8 d d d d d d [ d d d d 3 % # % O # z - z b Q ^ ~ x T Z > j ; N V @ ",
"> z : 3 S N 8 8 8 8 d d 8 d d 8 d d d 8 8 8 8 > > 3 3 3 8 8 8 8 8 8 8 8 d d d d d V 3 > # % # S - h + ; b Y T C W x @ Z N V > + ",
"; @ > > > S 3 7 8 8 d 8 8 d d 8 8 8 8 8 8 - > 3 X 2 # o % % X +     8 8 8 d d 7 - N A 3 2 # + V Z + z @ - @ + z - - - @ > 3 > > ",
"> > 3 v + > 3 7 8 8 8 8 d d 8 $ S 5 > > > + X # # > o 3 S > + #       7 8 8 d 7 7 k 3 @ 3 # @ > Z Z z + > > z @ @ > v > > > # # ",
"3 3 # $ $ # 7 7 8 8 8 7 7       > + > b S > > : 3 2 2 G S 3 O 3         7 8 8 d 7 ; + > > > n 3 @ z O ^ W - @ > 3 @ # 3 3 # # 3 ",
"# 3 $ + + h 7 7 8 8 7 7         ; @ Z V W > 3 > S 3 3 A A # % + 3       7 7 8 8 7 > ; E @ > V V z j z C T ; z + S v > A n 2 2 o ",
"+ $ > # O > 7 8 8 7 7 _           K T ! @ j z b N 3 > # S 5 % # # > #     7 7 7 7   L _ E > W C j U U U @ ; - M n > 3 3 S 3 o # ",
"n n 3 # 2 > 7 7 7 7 b T _             ) T @ @ S S X b 3 % # # v 2 A v 3 O   7 7 7     Y _ N z O T U ( _ R @ ; V V 3 % o % % 2 3 ",
"n m > # + + 7 7 7 7 . j ; W             X + $ S 4 $ # > $ - - z V V . $ # > 7 7 7 7   O @ @ @ z > ; z - z ; > > 2 2 3 3 v > + > ",
"V A n # > $ 7 7 7 7 7 M N V N           > @ # 5 2 > z @ @ j v K V Z # @ # # 7 7 7 7 > $ + # 3 > # S # 3 > + S % @ # 3 # > > > n ",
"V N @ + 3 3 4 7 7 7 7 ^ W O m # O $ + 2 # % # v D M b U ; @ ' _ M B 3 + # # > 7 7 7 v v % # $ # 2 3 B 3 > T M v > # > > 3 3 > M ",
"M > O v D n h > > ~ W B v 3 # 3 3 3 S S S 3 # O O Z x C R @ @ R N > + + 3 3 v S 3 v n n $ # # n > # ^ > +  .> ; > + X : # > > S ",
"3 ; z b D m > > + > z > # z # z h b b - > O - + ; > > L W > > z z b + M b > S m z # v $ # 3 # % @ C L ^ C x x z ; > > > > > > > ",
"- @ > > > # # + z N n C j # z @ x c z O z z v V V + > ; > @ 3 # @ c - Q Z > n > z # + v o > S ~ _ U l E x l c U ^ ~ V > X 3 3 S ",
"- z B @ b # > + > @ > Z b ; z - j O @ z # Z S V B # N h ; N _ @ j @ h ) b @ @ > z z @ D + z 3 @ x ' U l c c K ' C - : > > % S S ",
"~ N Z > O S S + # z j @ x @ - ( _ _ L z # v % A S v > @ C _ ) j T U c ) @ j O N N > @ W v z D @ j j E R l @ E N ; > > # @ 3 A 3 ",
"Q D + v S S > O @ } x @ ; @ T L ( I C z + + $ O v m z - _ W - @ Y ) Y x M } | T @ @ z W x D + z > ; V M C @ > > > 3 # o 3 > : > ",
"+ ~ # + 3 $ O @ > _ _ N ; E x T Q C @ - D S > @ z - z @ Y N - z @ c _ c z @ > + j @ @ @ Z V O N B 3 + > 3 > O 2 3 V 3 > > > + > ",
"@ @ z v # # + o z L T W @ j b T # z # > N @ O z U ^ U @ j ; O ; @ @ V M + > + - @ O n ! - > ~ S v % 3 3 > 3 # 2 # V S 3 > > ; C ",
"} v z Z v + @ # $ @ S T z $ ! W z - j @ @ O T  ._ U U ; ; U  .! _ j @ h h + # $ + + h C W N W > # @ 3 2 D 3 2 # # 3 V V ; - c _ ",
"@ $ > N n @ v $ + @ > S D - O @ I T n @ - + O # z O > ; E ) _ D > O n X # # v S > # O @ V S @ h > + # b V > N # # # z N - j ! ' ",
"z + # z S S @ 3 > v # O > v z N Q _ _ U > > h > V N M ; > > - @ @ > + # 2 3 # S V # # @ > @ z + - ; ; S S + 2 3 X 3 > > @ x ' l ",
"j b ; > O 3 > v + # $ 3 # n % # # $ o + > X > V N > > > > # z @ > n > > > @ $ @ N @ j ! > $ % # > > : 3 B 3 4 % % # 3 V > M T - ",
"@ Z - N Z D # # # > % 3 # # # # o 3 v 3 . + v > > N + @ v 3 3 > > V m > 3 S W @ j @ Y ( - O # 3 > S > + > 3 S v v > n V @ M z # ",
"c @ j W W @ 3 h b n V 3 3 # # $ # # 5 # @ h # S # V D > @ h # 3 M z S V > # Z T c j ( Z j > # $ > S N v > > T ; @ D N V ; > > > ",
"h j @ z j > - N A z > + > > 3 $ 3 $ # o o z Z N # n b 3 @ - D # @ ; ; > @ > > } I c T j z z @ # > 3 M N ; N  .K - x @ z - X @ + ",
") _ ( ; @ @ > - z # $ # n V V @ $ > 2 3 v # b Y > + D O z M Z z ( C @ @ D N @ @ Y c x v Y L S # @ # 4 M ; c ) ) j @ j - # 3 > 3 ",
"_ U Z E j Y W } } Y M O + > b D 3 > O S + @ ~ j - @ - j I Z b @ (  .z V $ W ~ M z b x c b z v # # 3 > - j @ l ) @ l T } W V B 3 ",
"c U T x j N C L O @ + - @ > v b A 3 @ V S z # + z @ @ > L W z @ ( Z C x > - _ ~ N V z b z # > # o 3 > > x C x R c R R ^ N @ 3 3 ",
"+ c U @ O M T @ @ @ > > + # # > # z @ M L z O > Y T ^ Y > # - j E x j @ > > > > V M > ; # # > # # V D ~ _ _ Y x l C C N @ 3 X % ",
"@ > > b N > + + ~ W m > # + 3 > + b @ @ E W @ T _ ( x @ z ; @ j @ b - b @ . 3 > > S v + > h > O 3 > 3 > - v D N @ - > > > X # 3 ",
"; W ' T z + z W V A # n + + > W v O @ j j @ @ E _ @ + T T b C @ > T > - # + > > h v % + 3 > v # o + > > 3 3 > + # O 3 > > > n 3 ",
"M L N @ @ b O # # v 3 n > + # W L - z N K _ ^ c ; @ ! | ^ _ U @ N Q > X # 2 # # # # # # # % D $ > ; # + 3 + o 3 A X % # 4 3 V # ",
"+ $ > > z v # n > v v O # # v ~ W j b }  .! I E @ @ Y b ! U > + > v > + v n # > # # > 3 : v n V + > @ : # # 5 S F 2 # % 3 3 3 # ",
"v 3 v v v # $ @ 3 v v > O O z W z z @ V L ( E I C > z N W ; > # $ # > # @ Z $ > > + v v > > > V ; > > + + # S n 4 3 % # 3 # # # ",
"> @ n v # > D S > v v > # + > # @ @ + N @ @ z z O @ > z z $ # + 3 3 v # + D v z > @ D # > > > > B - > > v > V 3 > 3 > # 3 # @ 2 ",
"v > # # + # v n > # $ 3 O z Z @ z + @ T W + @ @ j @ @ + % $ X 3 3 3 > O O N N b ; > S n + > V ; v > > L W > > @ 3 : @ > 3 # > 2 ",
"$ > + > # > > S z # > Y O @ M S $ v n N ~ @ > > N j > V G # # $ 3 5 2 # + > - S h @ @ ^ + - D M + 3 M D W ; > @ V - > V D # + # "
};
