/* XPM */
static char *_612_99bd380dcc09401b90edd66d993ffaf85a569d45fab254c5f98c1e4c17c31d35[] = {
/* columns rows colors chars-per-pixel */
"64 64 58 1 ",
"  c #090A14",
". c #090B14",
"X c #090A15",
"o c #090B15",
"O c #1E3616",
"+ c #1F3616",
"@ c #1E3716",
"# c #1F3716",
"$ c #1E3617",
"% c #1F3617",
"& c #1F3717",
"* c #263A16",
"= c #273A16",
"- c #263B16",
"; c #273B16",
": c #263A17",
"> c #263B17",
", c #273B17",
"< c #241526",
"1 c #241427",
"2 c #241527",
"3 c #251527",
"4 c #341C26",
"5 c #341C27",
"6 c #351C27",
"7 c #341D27",
"8 c #4C2A32",
"9 c #4D2A32",
"0 c #4C2B32",
"q c #4D2B32",
"w c #4D2B33",
"e c #2D4316",
"r c #2D4217",
"t c #2C4317",
"y c #2D4317",
"u c #344C1A",
"i c #344D1A",
"p c #354D1A",
"a c #344C1B",
"s c #354C1B",
"d c #344D1B",
"f c #354D1B",
"g c #5F761E",
"h c #5E761F",
"j c #5F761F",
"k c #5F771F",
"l c #476820",
"z c #476920",
"x c #476821",
"c c #466921",
"v c #476921",
"b c #7A4840",
"n c #7A4841",
"m c #7B4841",
"M c #7A4941",
"N c #AD7756",
"B c #AD7657",
"V c #AD7757",
/* pixels */
"+--++;;--aljv-vf-dxv;>-da---d-O+%--++>---xvjc-vd-vvv->-fd---f;+#",
">;-*#+-----xjd--idiid--dd---+++-*f,*O+-dd--vjd--vvjjv--dd-%+*++-",
"--d-=%O+%-;----------->---++++--fi+%+-->-*--*--d--->-----++---->",
"dff-d*--O+--++>-+----d-----+++dzad+---------d--f;>ddf-->++-;--;d",
"vd-*dd--;#++%+++++-*-dd-----+vjjdd++-ddd->--j*dd-dd--++++--d--;f",
"d*---d-add#@+-++++---fd---d--+-vd--++-*dd--vjdd--d---+O----df-*d",
"--udi;df-+O+;--++---d-di--v--+;-*--++++--i-vjv------++++---dd---",
"----d---++---d---*++z>---jv------*O+++++-*-dvd--*---+O++-d--d--d",
"d-->---;+---ad---*-+vj--xjd---ddd--++-;fjgjvid-dzjj++++--d>---da",
"dd>---+O+---dd--ddddvjddvd*;*--dvd:-+;---dvvvdvvd--++----dd--dd*",
"ddd-++%;-d--d>-;--dddzhdd---->--vd-;->;--*-qqqqqqqq+----*-dd-d-*",
"---*--;--vv-*-idd>*ddfjddvvvd>---v---d;-qq0qqqqqqqqqq-ddd->d->*-",
"*>--add--vVVVVVVVVVN-daacvd*---d----VVVVqqqqqqqqqqqqqqvhjd-;:--d",
"a--*--dd-VVVnnnVVnnBVV--------dVVVVVVVVqqqqqqqqnnnqqqqqqgj----dj",
"-+-O+;-VnVnnVnV5qVBVVVVV---VVVVNVVMBVqVqq9qqqqnnnqqqqqqqqvv-ijjj",
"---++-VVVnnnnnV5qVVNVVVVVVVVNVnnnVnnqqqqqqqqnnnqqnnnnqqqqq>dvvji",
"-d-;VVnmnnnnnn5qVVVVVVVVVVVVVVVVnnnnqqqqqqnnnnnnnnnqqqqqqqqvvxc-",
"-dq55qqnn222nnqVVVnVVVVVVVVnnnnVVnqqqq9qqqnnnqqnnnnq0qqqqqqddd--",
"d   5qqqnnnnnnmnnVVnVVVVnnVVnnnnnwqqqqqqqqqnnnqqnnqqqqmqq0qq----",
">5 565qqnqqnnnnnnVVnnnnVVnnVnnnnnqnn0qqmnnbnnnnnnnnnnnqqqq0q--->",
"d525555qqqnnnnnnVVnnnnVVVnnnnnnnnnnqqqqnnnnnnmnnnnnnnnnqq80qq---",
"i525555qqqnnnnnnnnnnnnbVnMMnnnnnnnnqqq9q0nnM0qnnbqqqnnnnqqqqqdi-",
"d525555qqnnqnnnnnnnnnnnVbnnnnMnnnnnMqqqnqnnnnqqnnnmwqqqqqqqqqq--",
"&5222555qqqqnmnnnnnnbnnnnnnnnnnnnnqnnqqnnnnnnnnnnnnnq9qqqqqqqq-;",
"-;55555555qqqnqqnnnnnnnMnnnnnnnnnnqqqqqwnnnnMnbnnnnnnqqqqq55qqq-",
"-v-5555555555q0nnnnnnnnnnnnnnnnMnnmnqqnnnnnnbqnnnnqnMnqqqqq75q5-",
"ev-dd---dd+5655qqnqnnnnnnnnnnnnnnnqqqqwnqqnnnqqnnnnqnnqqqqqq555-",
"----df---iid--54qqqnnnnnnnnnnMnnnnnqq0qqqnnnnnqqnnnqqqqqq55q555+",
"*--*-d-*++-----5qqnnqnnnnnnnnnnnnnqq9qqnnnMbnnnnnnnqqqqqq55555*+",
"------;++-------qq0wnnqnnnMnnnnnqnnnqqqqnnnnnnnnnnnnqq7594555-+&",
"----+%+d*dda+-d--wqqnqqnnqnnnnnnqqqnqq5wqnnqqnqqnqnnnqq55w55--+-",
"-*+#+--->-avd-dd;-0qqqnnqqmnn0nnnqqqq555qqnqqnnqqqqMmmq5555dd++%",
"+;-+O*-*-vvjz*vi;vvvqqnnqnnnnqq0nqq55555qqqqqnnqqqqqqqq5555-d-%+",
"-d>;#+-d--dvjd-*vxjjvqqq9qnqnnqqq55555755qq5qqnqqqqqqqq557+%-$+-",
"dd-+O+;fd-++-v-ddjj-++qqqqnqqq5454+O+>5555455qqq4qq5qq5555*---;-",
"dd-#----;-+ifdddvv-+++qqqqqqq55  i+-+++++55555555qq55q552+-----d",
"aa----d-;-jjv+d%+++++-qq555556   d+#+--d-dd--++--5qq5552 %+----d",
"d---ad---vvf-----*dfd2w5555      -+O-->f--fd-++-;-555552  ++---f",
"---ddd---*;-*---;dd-2qq5522     X --d-dd---;++---ivj5551  -;#---",
"------++-afd---:dd-2355222--      *vd;d-----+-ivjvdv<553  d-%--i",
"--d->%-O---da------25222d-a->      jd--*---d----djzi2522. --%-dd",
"vdd--dd+--->d--jgj22222da->-dj     j---di--v-dd--dzz232  --%+>d-",
"vi--dd-+-jd#--vvjv2222++ad--kc     ddjjx---vda,->-d<2<2  -OO---;",
"-v--:-++-jjd-vdvv2222d-+----vd--o  d------>-id-dd-2222  -d--;->-",
"-->--+++-vzv;-dv-222d++dvzv-----   d-++++-dz--vf--2222#+-fd----d",
"j-dd-++O+-dvd-vv----+#vjjvv--vjjj---%+->++-dvdv--+--d>>%+-dd--dj",
"-+-dd->-+--dd---vvf++++----;vjjd-+-;+*-d-++-aa>-++-ud*--+>-d>-jg",
"---;dd-->--;---dvjjv----ddd------++++*-dd>+----++-;dd---O+;--fkd",
"-d---;;-$+-*---+%#+O#+-ii------*-d------d->v--++----d----+-d;dv-",
"-d-sid;-+++-++++%-*++$->-d-------da--dz---vj--+--d----d---dd-d--",
"p-;zv---ddd-+-+++%-++--d-dd->---d-dd--dvd-ja--O+-dd*-dv>;ddd-->-",
"-----;*dd--@---->++++-dd>-d;-;d------>-jzdvd---O-*dd-djc-d--++++",
"kjv---*----+ddd*--+---dv+#d--dd-jd--da--vdd-vvd++*-i-djj-----**-",
"hxvv-vvjjv-++*ad,-+f--v---;-vdd*jjdd-vvd-dddd---%-----dj-dvjvid-",
"dvvd-ddv+--++>-dd-+dd*+#>>--vv--vvd---jvdd-d---++---dddvdvkvd---",
"+dv++dv++>>-++-----dv->-vvjx>-,-vd------dd---+#+-divgjvddddd--O%",
"-;yda>+Ovvd-*+-,----vv-vhjd--->--f--++---d;----+-----dad++--+++-",
"*vjv-;-vfd-f++-v-----**cj>+ccdd--v--+++---;+-;--++-*--++O+----d-",
"yvy>------;->+-vv-*dzghd;*vjjjv>fv-++*%+*;+++-d--++-*++-d#+---d-",
"---yyy---yy-+#-vv-djhvvv--vdzv-+---+-f-++++;--ia--#+++-dd-++>--+",
"--ry;-->-yt+++>v-;-dvgvcd-div--+---+-d---+a--;>d---++-ddd>-+---#",
"-*d---dd--dO+-->--------++----++---+-dd---i-----a----;d;---+->O+",
"-*;>+--d----+*d----xv>----*---+;---++p>d;-ad+-d----vv;----;---+;",
";-+++--d->-v+*da--adv*--d--dd%%+*-+#%--d---v+-df--dav--*d>-dd%++"
};
