/* XPM */
static char *exitcarupr31680168874[] = {
/* columns rows colors chars-per-pixel */
"64 64 117 2 ",
"   c #000100",
".  c #010A00",
"X  c #081103",
"o  c #10100E",
"O  c #090A14",
"+  c #151E12",
"@  c #11191C",
"#  c #22101B",
"$  c #0E2901",
"%  c #132A03",
"&  c #152A0A",
"*  c #163403",
"=  c #1A3205",
"-  c #1F3804",
";  c #1B320B",
":  c #17380D",
">  c #1F3113",
",  c #3A2905",
"<  c #36260B",
"1  c #392F0C",
"2  c #233502",
"3  c #233C03",
"4  c #27310C",
"5  c #223A0B",
"6  c #353403",
"7  c #222413",
"8  c #22251F",
"9  c #382913",
"0  c #253114",
"q  c #223C13",
"w  c #2E3915",
"e  c #29391B",
"r  c #333410",
"t  c #241527",
"y  c #341C27",
"u  c #27282C",
"i  c #312222",
"p  c #353632",
"a  c #450303",
"s  c #521F04",
"d  c #561310",
"f  c #40300D",
"g  c #53201F",
"h  c #533925",
"j  c #4D2B32",
"k  c #443737",
"l  c #4B3235",
"z  c #692521",
"x  c #673424",
"c  c #783121",
"v  c #18410E",
"b  c #254005",
"n  c #2C4206",
"m  c #2F4903",
"M  c #27400C",
"N  c #2E4A0C",
"B  c #35500E",
"V  c #2A4214",
"C  c #294A15",
"Z  c #2D431C",
"A  c #284B1C",
"S  c #334712",
"D  c #314A15",
"F  c #36431E",
"G  c #344C1F",
"H  c #375114",
"J  c #35511E",
"K  c #304424",
"L  c #354B24",
"P  c #395224",
"I  c #3D542D",
"U  c #384432",
"Y  c #444314",
"T  c #534021",
"R  c #445D22",
"E  c #455E2B",
"W  c #55522A",
"Q  c #444238",
"!  c #6E4128",
"~  c #436422",
"^  c #4A6321",
"/  c #4A6428",
"(  c #4D692B",
")  c #536623",
"_  c #506A28",
"`  c #4B6331",
"'  c #436930",
"]  c #536B32",
"[  c #506638",
"{  c #546A3C",
"}  c #557330",
"|  c #5A7331",
" . c #5B7439",
".. c #676E38",
"X. c #627835",
"o. c #454546",
"O. c #595244",
"+. c #4D4F50",
"@. c #565555",
"#. c #694744",
"$. c #7A4841",
"%. c #665554",
"&. c #5C7540",
"*. c #5E7B40",
"=. c #637B43",
"-. c #5D5C61",
";. c #695E63",
":. c #6C6668",
">. c #88252E",
",. c #96282D",
"<. c #883331",
"1. c #983437",
"2. c #A52130",
"3. c #993544",
"4. c #AB2D42",
"5. c #B93541",
"6. c #AD7757",
/* pixels */
"; = 0 5 % q j j j j $.$.$.$.j j $.$.$.j j j j j j j j j $.$.$.$.6.6.6.6.6.6.6.6.6.6.6.6.6.6.6.j y 6.$.$.$.$.$.6.6.6.- : A V = : ",
"q M 5 0 ; j j j j j j j $.$.$.$.$.$.$.$.$.j j j j j j j j j $.6.6.$.$.$.$.6.6.6.6.6.6.6.6.6.6.6.j y $.$.$.$.$.$.$.$.6.6.: = = v ",
"- 5 C q v j j j j j j j $.$.$.$.j j $.$.$.j j j j j j j j j j $.$.$.$.$.6.6.$.$.6.6.6.6.6.$.6.6.6.j $.$.t t t $.$.j j y y j q q ",
"L S P q j j j j $.j j j j $.$.j j $.$.$.j j j j j j j j $.$.j $.$.$.$.$.6.$.$.6.6.$.6.6.$.6.6.$.$.$.$.$.$.$.$.$.j j j y O O O V ",
"' Z 5 2 j j j j j $.$.$.$.$.$.$.$.$.$.$.$.$.$.$.j j j j j $.$.$.$.$.$.$.$.$.$.6.6.6.$.$.$.6.6.$.$.$.$.$.$.j j $.j j y y y O y G ",
"D 5 5 j j j j j $.$.$.$.$.$.$.$.$.$.$.$.$.$.$.$.j j j j j $.$.$.$.$.$.$.$.$.$.$.6.$.$.$.$.$.6.6.$.$.$.$.$.$.j j j y y y y t y G ",
"- V D j j j j $.$.$.$.j j j $.$.$.j j $.$.$.j j j j j j $.$.$.$.$.$.$.$.$.$.$.$.6.$.$.$.$.$.$.$.$.$.$.$.$.$.j j j y y y y t y 5 ",
"5 4 j j j j j j j j j j $.$.$.$.j j $.$.$.$.j $.j j j $.$.j $.$.$.$.$.$.$.$.$.$.$.$.$.$.$.$.$.$.$.$.$.$.j $.$.j j y y y y t y S ",
"L = j j j j j j j j j $.$.$.$.$.$.$.$.$.$.$.$.$.j j j j j j $.$.$.$.$.$.$.$.$.$.$.$.$.$.$.$.$.$.$.$.$.$.j j j j y y y t t t y C ",
"L j j j y y j j j j $.$.$.$.$.$.$.$.$.$.$.$.$.j j j j j $.$.$.$.$.$.$.$.$.$.$.$.$.$.$.$.$.$.$.$.j j $.j j j y y y y y y y y C v ",
"F y j y y j j j j $.$.$.j $.$.$.$.j $.$.$.$.$.$.$.j j j j j $.$.$.$.$.$.$.$.$.$.$.$.$.$.$.j $.$.$.j j y y y y y y j y y y F : v ",
"5 y y y j j j j j $.$.j $.$.$.$.j j $.$.$.j j $.j j j j j $.$.$.$.$.$.$.$.$.$.$.$.$.$.$.$.j j j j y y y y %.a 3.2.5.2.<., 5 M : ",
"5 y y y j y y j j j j j $.$.$.j j $.$.$.$.$.j j j j j j j $.$.$.$.$.$.$.$.$.$.$.$.$.$.j $.$.j j y y @.@.# %.g z 4.4.1.! 1 3 r H ",
"L r y y y y y j j j j j $.$.$.$.$.$.$.$.$.$.$.$.j j j $.$.$.j $.$.$.$.$.$.$.$.$.$.j $.$.j j j j k :.;.:.@.i #.d >.,.c s 6 b 6 ..",
"; ; 7 y y y y j y j j $.$.$.$.$.$.$.$.$.$.$.$.j j j j $.j j j $.$.$.$.$.$.$.j $.$.j j $.j j j o.+.:.-.:.#.l %.< z x T 6 B } X.X.",
": 5 4 , y y j y y j $.$.$.j $.j j $.j j $.$.j j j y j j j j $.$.$.j $.$.$.$.j j $.$.j j j j u 7 O u @.@.9 Q i W h f 6 Y ^ ^ X.m ",
"5 G 5 4 1 y y y y $.$.$.j j j j $.$.j j $.j j j y y j y j j $.j j j $.$.$.$.$.j $.$.j j Y 4 . U   @ o.@ 7 O.  &.7 4 3 ( ( ] ( - ",
"5 V 2 5 5 y y y y j j j j j j j $.$.j j j j j j y y y y j j j j j $.$.j j $.j j j j j ] ` q K U p o o.+ Q . { Z L D M S D 5 3 M ",
"n M M S M 5 y y y j j j j j j j $.j j j y j j y y y y y y j y j j j j j j $.j j j j 5 5 Z L L 0 X 8 8 7 e F G C - M 3 = 3 5 ; 5 ",
"M 5 5 G H q t y y y j j y j j y j j j y y y y y 2 5 V y y y y y y y j j j j j j j _ 5 q q ; 5 q e 0 0 q ; 5 ; - - $ * v M 5 5 5 ",
"C - 5 q F M t y y y j y y j j y y y y y y y y 2 3 S V - 5 = P 3 t y y j j j t O O D 3 3 V ; 5 L F L w q [ 5 = - M M M M 3 ; V 5 ",
"L G M 5 ; t t y y y y y j j y y y M ; 3 D = / | - H 3 M 3 4 P 2  .t y y j j t O O O M ; : = q = L / S 2 E  .b 3 N E J - 5 G L > ",
"A G ; M D t y y y y t t O O O &.Z q = 2 b 2 H ] 3 M S { G V = 5 / t y y j t t O O O O C D M = q = n S 5 { | / = ( C M 3 G F q 5 ",
"- A 5 L D t y y t t t O O O O S 5 5 S [  . .N H 2 S &.D 5 - q = ` t t y j t O O O O O M - = q = w = 3 b * H / 3 ( * 2 ; - 5 q q ",
"5 5 5 5 t y y t t t 5 O O O O O V F V M n  . .S 2 ` ` V 5 = 5 5 C H t y t t 5 q O O O O = q ; : = M 3 ~ v - N H * ( &.E [ - M ; ",
"5 / 5 5 t y t t t 5 = = O O O O O 5 V 5 5 H E H 3 M ; - q q q 5 - t t t t M 5 : Z O O O O O ; ; = - /  .| ( H b ( *./ b 2 5 L M ",
"w ` 5 S t t t t G V 5 % ; O O O O O 5 - - - M - 5 - ; V q ; q 5 R t t t t = ; ` / K O O O O O ; M - b C ' ] [ N ( J 5 b 3 D G - ",
"M M 4 q t t t t t J L F V q O O O O O ; M 4 5 5 5 q q q ; 0 ; ; = t t t Z Z V 5 J L v O O O O G - - : b V / ( H ` N - J D G 5 = ",
"3 = q 5 5 t t t t 5 0 ; ; M v O O O O 5 5 = 5 q % 0 ; ; > > = = 5 t t t L : 5 5 2 V G q 0 ; = G P = - - 3 - = M 5 2 2 2 5 q 5 5 ",
"5 5 5 V = 5 q 5 = ; 5 q M ; 5 5 G q 5 5 5 = % ; ; ; & q K ; = ; 5 5 q q L Z 5 5 q n V ; V ; 5 5 J J M = 5 M M - - 5 V 5 5 5 ; ; ",
"q q ; : : ; - V 5 G G C ; 5 D M 5 = 5 S L 5 5 4 q 0 q U L q = q 4 5 5 5 - L 5 V 5 - = 5 3 5 Z q = M : ] ` 2 3 5 5 - ; q q ; ; q ",
"; q : * = V : v 3 v D ( P - D D 2 3 P G ` 5 q 5 L q q K K ; 0 = q 0 5 = = 5 5 L - M 2 _ = 5 G G M b M H ` 2 5 - L q 5 K Z > 0 & ",
"* V 5 : * 5 5 5 3 ( (  .~ b ( N b R ( _ - M M C S q 5 ; K e 0 ; ; 5 ; ; ; ; 5 ; b ( E &.( 3 [ H 3 ^ ^ ^ - 3 3 S Z 5 q q K q ; ; ",
"Z e q ; > ; q L - b S /  .N - b _ ( ] | / - - L L % V q > ; ; q q K V V * ; V G C M 3 /  .D M * _ ^ |  .) - - G G q 0 & > > > q ",
"Z A 5 ; = = 5 S C M $ b 3 / 5 S m } | M * = : L q q - 5 v 2 3 M G G % : ; 5 - - = = * * ; 3 - M 5 2 M 3 M 3 5 5 0 > q q q 5 = 5 ",
"F G V ; 5 : q M ; 3 - S D L C C ( ~ 5 * 5 ; ; e 0 5 M ; 3 b V R G G ; ; ; : ; ; * G M * = ; : q ; G ; q 5 - L 0 ; 5 q ; 5 5 5 Z ",
"G D 5 = q q V 5 5 V &.&.[ * Z ; * : = 0 ; 5 ; V L S V ^ b - X. .S Z q = ; ; - L 5 L q V q & : ; q 0 F q 5 ( S V 5 ; 5 5 w q 5 D ",
"C 5 = q L D q 5 M ` [ e V q ; V v V L L K q ; * * J B H ) - - ) D M = = q V V L q q F F q : ; Z 5 ; { 5 = =.; 3 4 = % 5 ; 5 5 L ",
"5 3 M C L A 5 5 = 5 5 v ; M ; 5 - C C 2 5 = - = b ; M R ` 5 M 5 M C = C C M Z G 5 : q V & q ; > - H E ] H N N n 3 5 5 5 5 5 - 5 ",
"3 2 5 5 5 5 ; = 5 D Z H b = M - N H M * M M q J P = 5 - 5 = q 5 3 B 2 ' P ; Z - M - = q % 5 L [  .^ m ( N m H R { [ L 5 % q q L ",
"- M D 5 q ; 5 = ; 5 - J V b M - v * - M : G G G Z 5 D M - C  .- 3 - 3  .C - - 5 M M - J = M q - N X.^ m B B R X.H 3 5 5 5 0 K L ",
"[ S P 5 * L L = 5 M 3 - B - - |  . .E M 5 q > L L V - - H  .| b ( ^ B | - b = C D 5 3 ` V M P - b b _ ) m - _ D 2 2 5 ; ; q D q ",
"' P * V L L 5 = 5  .N - - - _ R } ~ H M = = : * V G 5 2 &.E 2 - / } / N S *.*.( - - 5 ` N P = 5 5 2 G D D 3 M 5 5 q ; & q 5 4 5 ",
"= [ ; = q * * 5 5  . .C v ) B ( ' H 3 2 P L 5 ; M 2 M - / D 2 M - B  .B b 5 ; = 5 - - 3 J J = D Z V = 5 q 5 = q q L q 5 5 5 = M ",
"- 5 M q ; ; = % 5 E ] ` 3 v V ( 5 5 5 : S - * M ~ ] / - b 3 = 3 - - J S - 5 * - 3 * V ] 3 - [ G V > q q 5 q ; 0 5 G L q 5 5 - H ",
"&.V M J V * 5 ; * 3 L ( 3 M ] ` 5 3 b 5 : - ( =. .^ ^ 3 b ^ =.]  .b = v q = ; > * = q H ` D ` 5 ; - q 0 L q 0 ; ; q G G 3 2 H  .",
"- - ; D Z - q 5 = 5 5 G P 2 = - ~ ( V 3 2 * = ; M = 5 - _ | | P - - Z & ; ; V G 5 ; : = G J 3 q 5 ; ; C G 5 V 4 ; ; 5 D 3 M _ X.",
"M = 5 M L P ; q 5 V ; = 5 q 5 D '  . ./ - - q - G D D 3 5 5 2 - - ; * : > q ; L K 5 - - 5 : 5 = 2 2 3 L G = 0 q % q 5 5 - N X.m ",
"b V b M * q 5 v - ; ; : q Z > & & : * = 5 = 5 G C 5 5 M q ; M 5 5 F 5 5 5 = V - D - M _ 5 : 0 & 5 5 ; V F q V > > ; q L 5 S ` 3 ",
"- J 3 C L P ; ; ; 5 q q ; ; ; ; : 0 q q $ = V 5 5 S = - v - q 5 5 G A 5 q L ' - b - / } 3 * ; q 5 G 5 = 5 q L V q 5 D G 3 S 5 5 ",
"B - 3 ` ` - 5 q Z F G ; q ; ; - * : e : ; q ; L ; L P 5 - V ; q S M G G ; * J ` B b } J M 5 ; * 5 L D V 5 5 ( 2 3 P D G 2 5 5 5 ",
"- b - M b - 3 D G 5 5 : 5 q q : 0 q & * ; - J D ; Z D : - - P ; - - b 5 = M 5 &.~ B ( b M M 5 : 5 q S D 2 H =.R 2 N - 5 2 % = = ",
" . .} - - - 5 5 5 5 = ; Z L G v : q 0 0 q 5 C ( M = L * M S G M } H M : P D - - ~ B B V / E L 4 4 ; q D 3 H | | 3 - b 2 ; q 5 q ",
" .^ H ( b ( `  .=.E D * = 5 S G q - * L - ; ` b 5 = - b ~ J D - } =.M S * ` [ S M V N B D 5 v ; ; 5 5 2 3 3 m | - m _ &.` G F q ",
"B / ( N b S H E * = = 3 - M V Z G q ; G L M ; = b - - M E / 5 - _ R H N 5 3 &.[ D G M C M - 5 ; & q 5 5 N H N ) B ) ) ] D * V q ",
"* B ^ - = C ( - 3 - 5 5 * * ; 5 ; M - S E M * M / ( ] ` 5 5 5 3 / N b - 5 5 5 5 G D 5 2 ; ; 5 ; ; P G [  . ./ N m H H D 5 q % > ",
"- 5 M D D - = = [ ` G - : = : q = C - - _ ` - (  .} N - M b - 3 - C 3 5 5 % q 5 5 G q = 5 q 5 * q 5 q 5 3 Z G D - 2 5 5 5 % 5 q ",
"b `  ./ M * M ] G K ; Z = = 5 [ V = - 3 b - 2 (  .- * ] / D H ; M ( M = ; = 5 5 v V 0 * q 5 q ; & ; 5 5 q q - = ; = q : 5 5 Z q ",
"S R D ; - C = ; ; V : Z 5 = 5 ` E - M D R  .] B v 3 ]  .]  .~ 3 V ' 5 % ; q ; ; 5 ; ; ; ; q L q 5 3 = = q = & q Z & > ; q q F ; ",
"; : 5 5 M V ; V 5 V V = ; ; e ` ` b C  .=.] ~ ( - - / C ] / 5 - M V 5 = q Z ; 5 ; ; 5 q ; V Z G - 4 5 ; ; ; e L I 0 ; > q q q ; ",
"V M V V V ; 5 : q V q 5 * = M ( M M - L E } ] ~ H M M S ` 2 5 ; q ; 5 - 5 G q 5 5 = V q 5 5 5 L 2 5 5 - = ; L F w q > ; q 4 ; ; ",
"5 ; Z V ; 5 L L 5 V V 5 ; = 5 ; - 2 = D - - b b = - 5 M 5 ; ; = q q q ; * J V 5 5 5 P ; 5 5 5 5 Z 3 5 5 q 5 G q 5 q 5 = q 5 = 0 ",
"V 5 ; ; * ; V Z 5 ; q 5 = v J - 5 - v / ` - ; 3 b - * - q : = q q > 5 : = D S V - v G Z = 5 G 3 V 5 5 E ` 5 5 - 5 5 5 5 q ; 5 > ",
": 5 * 5 ; 5 5 L M ; 5 / = - S L 5 V V D [ ; 5 5 D 3 5 G U ; ; : : e > ; = 5 3 J M - - { = 2 G D - q S L ` 3 5 2 G 4 5 G G ; = 5 "
};
