/* XPM */
static char *_328_6defc16370c74dad580b8e577db4486e3b6441da6fa9cd3f0bd1cc8cba539a51[] = {
/* columns rows colors chars-per-pixel */
"64 64 57 1 ",
"  c #080A14",
". c #090A14",
"X c #090B14",
"o c #090A15",
"O c #1E3616",
"+ c #1F3616",
"@ c #1E3716",
"# c #1F3716",
"$ c #1E3617",
"% c #1F3617",
"& c #1F3717",
"* c #263A16",
"= c #273A16",
"- c #263B16",
"; c #273B16",
": c #263A17",
"> c #263B17",
", c #273B17",
"< c #241526",
"1 c #241427",
"2 c #241527",
"3 c #251527",
"4 c #341C26",
"5 c #341C27",
"6 c #351C27",
"7 c #341D27",
"8 c #351D27",
"9 c #4C2A32",
"0 c #4D2A32",
"q c #4C2B32",
"w c #4D2B32",
"e c #4D2B33",
"r c #2D4316",
"t c #2D4217",
"y c #2C4317",
"u c #2D4317",
"i c #344C1A",
"p c #344D1A",
"a c #354D1A",
"s c #344C1B",
"d c #354C1B",
"f c #344D1B",
"g c #354D1B",
"h c #5F761E",
"j c #5E761F",
"k c #5F761F",
"l c #5F771F",
"z c #476820",
"x c #466920",
"c c #476920",
"v c #466821",
"b c #476821",
"n c #466921",
"m c #476921",
"M c #7A4840",
"N c #7A4841",
"B c #7A4941",
/* pixels */
"+--++----sbkm-mf;fbmwqwNMwNNNNwwwBww5w559wewwNNw0wwwwww5555-g-+O",
"-;-*#+-----bkf--pfpff0qwwwwNwNNweqwq55555ww5wwNwwwwwwww558++*++-",
"->f-=%@+%-;-----------..wwwNwwwwq706555555555qww5ww5ww5555+---->",
"sag-f-;-O+--++>-+----f..w2wwwww5555555---55555555we45w545+-;-->f",
"mf--ff--;#++%+++++-*,f....www55222++-fff->--k*ff55ww55552--f--;g",
"g-;*-f=spf&@+-++++---..o..o2ww552--++-*ff--mkff--f22255522-ff-*g",
"--pfa;fg-+O+;--++---.... ..22w655<-++++--f-mkm----->225552-ff---",
"----f---++---f----+.......m-22ww72O++++%---fmf->*---.23252--f--f",
"f-->-;;-+---sf-;-*-.....bkf--22w522++;;gkhkmff>fckk+...222----fs",
"ff>---+++---ff--ff....ffmf*;--22222-+;---fmmmfmmf--+..222ff--ff*",
"gff-#O+;-f;-p;-;--...Xjff-----22222;->;-;*-dmf---#+..1222-ff-f-*",
"-->---;--mm-*-fff....gkffcmmf>--222--f-------;++++...222f--f->**",
"*:--fff--bhf-fff-...;fffncf*---f222-ff------>-+-;*....mkkp-;*--f",
"f--*--ff--kk-ff---++$---------fff--ff-;-mkkk--+-ff-++-*mhk----pk",
"-+-O+-----fmff------+O+---->-fgf-+-ff---fcjmm--+fk--++--fmm-fkkk",
"---++-*fkkfafmjkmf--f-++O++--:--,>-f--f-ffbmfm-pkk----mms--fmmkf",
"-f----*--mnfmkkb-+++ff++#;+#+;-*-g---pf-;-fmf--mcm->fmkm---mmmn-",
"-f---ffg--p-mmf-%@=-+ff-+--------f--ffp=--*mm-fmf---kkmfff-fff--",
"f--f--ffs>--f-+++-------+-------f--ff;-->---gff------pfs--------",
">--fs>*++->--%+;-ff---f-+--ff-f-------kkkm-------------+++%-----",
"f-*-s-*-%++-f-;*--fgp-m--ff---g-hf+--mfkmf,-*;-fpf--m-++--f-----",
"pf;-;;;---O+cf--;---f-nj-f--;-f-kkf-mfmmf----+++fbf-mk--fmf--fp-",
"fg--fff-pmf+ff-mf-----fk>;fkf---mmms-mm;--pff--+--g-mkm-mf-:ff--",
"Of-fsf---fmf++ff--fmklff-fkf----mfmf-----mf---++---->fm+n---;->;",
"-;->-------pf+++;ff>flkf-mm--;--fgff----=-++--+-+*-b--ff+mkmm---",
"-m------++++++-++*---fmf->->---->ff>;>--*-+++++++-vkkmfsbkm;--f-",
"um-ff--;ff++++-f++--------------ff>f---mvf-++++----fmkmfmm---fs-",
"----fg---fpf->-ff+++-----------+-f;ff---ff--+++g-----mmfm--fff-+",
"*----f-*++-----ff----+--++++++++*--ff;---ff--++ff--------------+",
"------=++-------f----O+++++-f#++----ff:---->----ff--------->--+&",
"*---+%+f*fff+-f----ff-;*---ff-+-----+f-f----+-f----mm-----=---+-",
"-*+#O-----fmf-ff;-fsb---f--ff++%--+++--p-->m+-df,-ffm---g--ff+++",
"+--+O:--;mmkz*mp,mmm,->fs---f-%++;*++---;xmkm-mp-mmn---ff->-s-++",
"-f>;#O-f--fmlf-*mbkkm--ff----++-*f--++*ff--mkf--mmkkm--ff-++-$+-",
"ff-+O+;gf-++-m-ffhk-++-f->-----*ff#++>--++O+---------*---------*",
"ff-#----;-+fffggcm-++++-------pmff+-+++++f-+++---*;---f--+-----f",
"fs-;--f*;-kkm+f%+++++-+-fffm--kkff+++--f-ff--++---f--mf--++----f",
"f---sf---mmg-----:pgg-++,fffm--mf-+O-->f--gf-++-;-m--k----++---a",
";--pff----;-*---;ff--+++---mm-;--p--f-ff---;++---pmkfff-----#---",
"------++*fgf----ff----fff+--++-*-f-mf=f;----+-pmkmfmfffmkmf-%--f",
"-*f->+-O---fs---->---ffff-f->fh----kf--*-*-f----fhmsfsmkf---%-ff",
"bff--ff+----f--kkkm->;-fs---fkk;mmsk---ff--m-ff--fmmf-mf---%+-f-",
"mi--ff-+-lp#--mmkmf-->#+sf--kn--nhmffkkm---mff,->-ffp---;-+O---;",
"-m--:-++-kkf-mfmmf-*fp-+----mf---flf------>=pf-ff--------f--;->-",
"-->--%++-mcm--fm----f++fmcm-------ff-++++-fc--mf----->#O-ff----f",
"k-ff-++O+-fmf-mm----+#mkkmm--mkkk---++--++-fmfm--+--f->%+-ff--fk",
"-+-ff---+--ff---mmg++++-----mkkf-+-,+*-f-++-ss>-++-if*--+>-f--kh",
"---;ff---------fmkkm----fff------++++--ff>+----++-;ff--;OO---glf",
"-f---;=-$+-*---+%#++#+-pp----->*-f----*-f->m--++----f----+-f-fm-",
"-f-dpp;-+++-++++%-*++%->-f-------fs--fc;--mk--+--f----f-;-ff-f--",
"g--cm---fff-+-++++-++--f-ff-----f-ff--fmf-hf--++-ff--fm>;fff--->",
";*----*ff--@---->++++-ff>>f---f-*---->-kmfmf---O-;ff-fkb-f--++++",
"kkm---*----+fff---+---fm++f--ff-kf--ff--mff-mmf++*-p-fkk-----*--",
"jbmm-mmkkm-++-ff;;+f--m---;-mff*kkff-mmf-gfff---+---->fk-fmkmpf-",
"fmbf-ffm+--++>-ff-+ff*++>>--mm--mmf---kmff-f---++---fffmfmkmf---",
"+fm++fm++>--++---*-fm---mmkm>->-mf------ff---+#+-gfmhkmffsfs--O%",
"-;rgs-++mmf-*+-;----mm-mjkf------g*-++---f-----+-----fsf++--+++-",
"-nkm---mgf-g++-m-----=-mk-+nnff>-m--+++---;+>---%+-*--+++O-*--f-",
"umu>-------->+-mm-*fmhkf;*mkkkm-gm-++*%+*-+++-f--++--++-f#+---f-",
"---uuu---uu-+#-mm-fkkmmm--mfmm-+---+-f-+O++;--fs--++++-ff-++>>*%",
"--tu;----uy+++>m-=-fmkmmf;fpm-;+---+-f---+d--;>f---++-gfs>-+*,-#",
"-*f---ff--f++-----------++----++---+-ff---f-----s----;f;---+>>@%",
"-*;-+--f----+*f----bm-----*---+;---++f>f;-ff+-f----mm-----;---+;",
";*+++--g->-m+=fi--ffm---f--ff$++*-++%--f---m+-fg--fsm--*f>-ff+++"
};
