/* XPM */
static char *exitdownl41680169051[] = {
/* columns rows colors chars-per-pixel */
"64 64 44 1 ",
"  c #090A14",
". c #090B14",
"X c #1E3616",
"o c #1F3616",
"O c #1E3716",
"+ c #1E3617",
"@ c #263A16",
"# c #273A16",
"$ c #263B16",
"% c #273B16",
"& c #263A17",
"* c #263B17",
"= c #273B17",
"- c #241527",
"; c #341C26",
": c #341C27",
"> c #341D27",
", c #4D2A32",
"< c #4C2B32",
"1 c #4D2B32",
"2 c #4D2B33",
"3 c #2D4317",
"4 c #344C1A",
"5 c #344D1A",
"6 c #344C1B",
"7 c #354C1B",
"8 c #344D1B",
"9 c #354D1B",
"0 c #5F761E",
"q c #5E761F",
"w c #5F771F",
"e c #466920",
"r c #476920",
"t c #476821",
"y c #466921",
"u c #476921",
"i c #7A4840",
"p c #7A4841",
"a c #7B4841",
"s c #7A4941",
"d c #AD7756",
"f c #AD7657",
"g c #AC7757",
"h c #AD7757",
/* pixels */
"o$$$X@@@@5eqe$e6$5rr==$55$$$6*ooo*$XX***$rrqe%r5*ree%**55%**5$oO",
"$$$$@O@@$$$eq6&&55445=$55=$$ooo**5&$XO*55$*eq5**ee00e**55$oo$o$$",
"$$6$*OOOX$$$****#$$$=$$$*%oooo&$56O@O$**$$$$***5$$=$**$$$oo*$@$$",
"666$5##*oo$$oo**O$$$=5$$***Ooo6e76O=#$$*$$$$5**5=$457$$&oO**$$$6",
"t6**55**$$OOooooOO*#*87=***$@eqq55oo$555****w*55=46$$oooo$$6$$$6",
"6$***5*565OXo*ooOO*$*67*$*5$$o$e5$*oO#*55**ew77*=6$$$oo$*$$66$$6",
"$$655*55$XoX$$*@O***8*75%*r$$o$$$$*oooo**5*eqe**===$oooo**$55$$$",
"$$**5***XX$$$6$$*%OOr*==*0r$$$$$$$oooooo*==6e5**$==$oooo*5$$5$$5",
"5$$$$$*$X$$$66$$$$$oeq**t05***565$$o@@$5qqqe55%7tqqoooo$*5$$$$55",
"55$$$$OOX$$$66$$5566eq76r5$****7e6$$O$$$$5eee5ee6$$oo$$$*55*$56$",
"666$oOO*$6$$6$$$**666eq75%%%**$$t6$$$$$$$$$5e5**$$oo$$$$**55$6$$",
"**$$$$**$ye$$$665**755w75trr5%$&$t$$*5$$$$$$**ooooo$$$555**5$$$$",
"$$$$666**ew5$677$$$$$444er5$$$$5$$**55$$$$====o*$$oo5eeqq7$=$$$6",
"5$$$$$66**qw$67&$$ooo$$$****$$766$*65***eqww==o*66$oo$$eww$=$$6q",
"$$$oX$%***8y55**&$$$ooX$@@**$666$o&67***5eqtt$$o6q@@$o**7ee=5qqq",
"$$$O@%%50q667eqqe6$$5$OOOO@*$$$$$$&7**5*76ee7e$7qq$$**re7*&5eeq6",
"$6$$$$$$$ee5eqqt$&oo66ooo$o$o$$$*5$$*75*$*5r5*&ete&&6eqe*=*eree%",
"$6$$$656$$5*ee6$oo$$o66&o$$$$$$$$5$*575*$**re*6e6&**qqe677*555*%",
"6$$6$$665***5$ooo$$$****O$=&$$$$5**56*==$$**666$****$656****$$**",
"$$$66$$oO$**$oo$$66$**5*O*=76$6$%*****qwwr****$$$***$$$oOoo*$***",
"5***6*$*ooo*5*##**555*e*$55$**6$q5@$%r5qe5**$$$655*$r%oo**5$$*$$",
"55$***$$**ooe5$#****5*eq$5$$**6$qq6$e5ee5*$*$ooo5e5$rq$$5r5$$55$",
"55**555$5e5o55#e5*%***5q*$5q5*$$eee5$rr%**555$$o*$5$rqr$r5$$55*$",
"o5*655$$*6e5oo66*%5rqw55*5q5**$$e5e5$$*$$r5*$$oo***$%5r@e**$*$*%",
"$$$$$$$$$**56OXO*55$5qq5$re=$$$$6688*=**$$oo$$o$@**e$$66@eqee=$$",
"$e$$=$$$oo$oXO@X@@$$*5e5$$==$$$$&67**=**$$ooooooo*tw0e66yqe$&=7$",
"3t$56$$$66ooO@*5oo$$$$$$$$$$$$$$66*7$$*re5@@ooo$$$=7t0t6yt$$*67*",
"=$$$65$$*665$**55ooo$$$$$$$$$$$o&6*75$$*55@$ooo6$$===ee6y$$655$O",
"$$$$$5&$Oo****$55$$$$X*$@Xoooooo$$$55%%*$55$*OO55$$$$$$$$$$$***O",
"$$$$$$$oo$**$$**5$$$$XooXXo$5ooo$$$$55**$$******55$$$$$$$$$$**$O",
"$$$$ooo6$567O$5*$$$66***$$$66$o$$$$$$5*5$$$$o*6*$&$ee$$$$$$$$$o$",
"$$ooo$$$$$6e5*55$$66e***6$$66ooo$$ooo**5$$$eO$66&$65e$$$6$$56ooo",
"o&$oo$$$*eeqt$t6$tee$$$56$$$6$o@o$$oo$$$&eeqt%r5=eee*$$55$$$6$oo",
"$6$&oo$6**6eq5$$ttqqe$$55$$$$oo=$5$$oo$65$=tq5**rr00e$$55$Xo$oo$",
"66$Xoo$65*oo$e$64qq$oo$6$$$$$$==56oXo&$$OOoo=$**$$==$$**=$&$$$$$",
"66$X$$$$**o66666tt$oooo$$$$$$$5r66o$oooXO6&oOO**$===$$5*=@$$$$$6",
"68**$$5$*%qqt@6X$@XXo$o$666e$$q065OOo$$6$55$$oO*$$5=$t5*#OO#$$$6",
"6***55$$*er5$$$$$$665$$o$666r$$r6*oO$$*6$$56$$O*$=r$$q**##OO$$*6",
"$$*555$$****$$$$&66$*OOO***ee$$**6**6$56$$$$XX**$5rq576*$$*$o***",
"$$**$$o@*555$$$$66$$$*555O*=OO$**6*e6$5*$$$$X$5tqr5t576eqe5*o**5",
"$$5**O*O$$$66$=*$$***5555*5%*5q***%w5*$$$$$5&&*=6qe765eq5$$$X$65",
"e55$$55O$$$$6$*qqqe****55***5qw*yy7w***55$$e$67**7ee6$e5$$$o$$6$",
"e5*$66*@$q5@$&eeqe6***oo55**qt**ewy55qwe$$$e56***=566$@@$#OO$$$$",
"*e$$@#OO$qq5$e7ee6**55*o***%r5%%*6w8****$$=$55*67=$$$$@@$6#@$$$$",
"$$$$@OOO$rrr=&7e$$$$5oo5rrr%%%****55$XOo@$6e$$e6*****$O@*55*$$$6",
"q$55@OOOO*5r7&et$$$$ooeqqre%%eqqw*$$Xo**XX$6e5e$*O**5*#OO*55$$6q",
"&o$55$##O**57*$&ee5$ooo*****rqw5*@$$X$$6$oo$66$$OO$55***O**5&&qq",
"&$$$55##******$6t0qe****555**%*$*Oooo$$66$o$$$$oO$*55$**oo***5q6",
"$6*****$O@$$$$$oXXXXXX$66$$$$$$$$7$$====6$$e&&++$$*#7****$*5*6e*",
"$6*555$$OOo$oooo&$@XX&$@$6$$$$$$*75$=5t=$$eq@&@@#5$$==5*$$66*5**",
"5**er***555$o$ooXX@XX@@6$56$****5*55==5t6$q6@@=&$55*=7t=$556$***",
"*******55$$o$$$$$XX@X@66&$5$**5***$$$=%0y,,,,,11<<<5=7wt$5$$Oooo",
"qqt$$$*%$$$@556$====$$6too7**76*q5*%hhhh,,<<<<<1<<111500*=*&$$$$",
"qete&etwqyggggggffgg$$e$$$=&e76hddddhhh1,<<<<<11<<111140%5tqe55$",
"5er6&66eXgggaapggapggg&+&&&gghhhhhidh1h<<<<<<<<<iii111117eqe5$$$",
"o5e@o6ehpgpagpg:<ggggghheegghhiiihii111<<<<<<<2aii<11111<755$$oo",
"==344=gggpppppg:2ggggghhggggggggiiii2<<<<<<<<aaa<<aaaa<<<<%**OO$",
"=t0tgfaaaapppp:<gggggghhgggaaaaggi<22<<<<<<aaaaaaaaa<<<<<<<%*$5$",
"3t<::<<aa---pa<gggagghhhggggaappi22211<<<<<aaa<<aaaa<<22<<<%$$5$",
"=   :<<<pppppaaaaggpffhhaaagppaai2ii1<<<<<<<aaa<<aa11<<a<<<<$$$o",
"=: :::<<a<<pppppaggaaaaggaaaaaaaaaa<1111ppppppppaiiiiii<<<,,$$$o",
"$:-::::<<<apppppggaapaggaaaasssaaaa<1111aappppppaasiiiia<<<,<$oo",
"*;-;:::<<<pppppppppppppgppaassiaaaaa1111<<ppp<2pss221iiai<,,,$$$",
"%;-;:::<<aa<ppppppppppppppppiiiaaa<aa111a<pppa22siai<<<<<<,,,,oo"
};
