/* XPM */
static char *_1368_bc431c0d41ffcad6906e97aab4b64eacf1f908c3f09bc8f4b42df769fe137d28[] = {
/* columns rows colors chars-per-pixel */
"64 64 43 1 ",
"  c #090A14",
". c #090A15",
"X c #1E3616",
"o c #1F3616",
"O c #1E3716",
"+ c #1F3716",
"@ c #1E3617",
"# c #1F3617",
"$ c #1F3717",
"% c #263A16",
"& c #273A16",
"* c #263B16",
"= c #273B16",
"- c #263A17",
"; c #263B17",
": c #273B17",
"> c #241427",
", c #241527",
"< c #251527",
"1 c #341C27",
"2 c #351C27",
"3 c #341D27",
"4 c #4D2B32",
"5 c #4D2B33",
"6 c #2D4217",
"7 c #2C4317",
"8 c #2D4317",
"9 c #344C1A",
"0 c #344D1A",
"q c #344C1B",
"w c #354C1B",
"e c #344D1B",
"r c #354D1B",
"t c #5F761E",
"y c #5F771E",
"u c #5E761F",
"i c #5F761F",
"p c #5F771F",
"a c #476920",
"s c #476821",
"d c #466921",
"f c #476921",
"g c #7A4841",
/* pixels */
"o**oo311144444444gg44444114144g444gggg4gg444d*fe*fff***re***r;oo",
"*=*%+o11144444444g441441111145444gg4g444444sie**fsiif**ee*o+%oo*",
"**e**#111144144144411111111314144454g444  **%*=r***;*****oo*=***",
"eer*e**1114114411111111***111111144444,4  %*e;*e=*eee**=oo*****e",
"fe**ee*,11114411oo***ee*****of,,,11444    *=i%ee*ee**oooo**e***e",
"e%***e,,111,,,oooo***re***e**o*<1144,      suee**e**;oX%*%%ee**e",
"**ee0=,211,,=**oo***e*ee**f**o,1114<,     . if******oooo***ee***",
"****e%,1,,, *e****oof****ia&**,144,,oo       e**%;**+ooo*e**e**e",
"e**;&*,,,   qe**%*=oai**fie**>,14,,oo**e     e*efptoooo**e****qq",
"qe;**%+,,,  ee**eeeefirefr%=*,,<,,**o****e    fde**oo****ee**ee%",
"eee*ooo,,,,  ;*=**ee0diee**;*,,,,,***;****    ***ooo******0r*r*%",
"***:****,,,   ee0;*eqrteefffe,<,*f***e*****    ooo+**;0ee**e***%",
"-;**eee**f    ee*****eeedfe=*,,,****e0***%**   ***$oeffiie*;%**e",
"e*****eq;*ii*qe***ooX%*****=;*eee**ee*=*fiut**X*ee*oo*%fii****ei",
"*o*oo*****efee*-****oXo***;**ere*o*ee***efiff**oei**o+=*eff*eiii",
"***oo**eiierefiife**e*ooooo**;;*;**q**e;erffef*eii****ffq**effte",
"*e=***%*%sfefiis*oooeeoo+=ooo=***r*;%eq***efe**faf*;efif***afff*",
"*e***eer**e*ffe*oo**oee*o********e-*ree%***ff*efe**=iif0ee*eqe**",
"e**e;*eee*%*e*oo+**%**%*o*******e**ee*****%*err******0eq*;***;**",
"***ee**oo****oo**ee***0*o*%re*e*******iiif****;********oooo****=",
"e***e*%*ooo*e*****qee*f**er=*=r*i0o**feise;****eee**f*oo**e*****",
"0e****=***oofe******e*du*e***;e*iie*feffe****oooefe*fp**ef0*;e0*",
"er*=eeq*efeoee*fr*****ei;=eie***sdfq*ff=**0ee**o**e*ftf*f0*-ee;*",
"oe*eee=*=efeoore**efipee%eie****fefe%****fe*=*oo**=**eaod***=*;=",
"*=**=******e0+oo*eq*epie*fd*****eeee**%*%*oo**o*o%*f**ee+fiff*;*",
"=f%*****oXo+oo*oo**;*efe*;*;****;re*=;****ooooooo*siifeefif***e*",
"6f*ee***eeoooo*r+o****=;*=******ee;e***fde*oooo****efifeff***eq*",
"****er%**eee***reo#o;**;*****=*o*e=ee***ee=;ooXr****;ffed%*eee*o",
"%****e**oo*****ee****o%*ooooooo#*%*0e=***qe**ooee********;*****o",
"*****%=oo*******e****oXo#oo*eooo***=ee-***%*;=**ee*********%%*o$",
"****o#oe*eeeo%e=***r0**%***ee*o*****$e*e*=**o%e****ff******%=*o*",
"**ooo*****efe*ee=*0ef***0**0eooo**ooo**e=**fo*qe:%eef***e**ero#o",
"o**oX&***ffif%f0=fsf**;ee***e*#oo*%oo****ffif*fe*ffd***ee*;*e*oo",
"*e*=oo*e%&rfie*%fsiif**we**%*Xo**e**oo%rq**fie**ffiif*%ee*oo*oo*",
"ee*ooo*ee*oo*f*eqii%oo*e********eeoXo;**ooXo********;%**********",
"ee*o=*****oeeeeefs*oooX**=****efee#*ooXooe*ooo*;**=***e*;O%***;e",
"eq-***e**%iifo0oooooo;o*eref**iieeooo*=r*ee*%oo***e**fr**oo=***e",
"e***ee*=;fde******eee;oo*eewf=*fe*oo**;e**re*oo==*f**i****oo***r",
"***ere*******=**=ee**ooo;**ff****e**q*0e***=oo*;*0fiq9e*****o***",
"******oX*ere=**=ee****eeeo**Xo***e*se*e**;**o*edufefeeefife*#**q",
"*;e*;o*X***eq*;******eqee*e**ei****ie;*****e**%*eifq0efie**:#*ee",
"fer=*eeo=***e**iiuf**%*ee***eii=ffei***ee**s*ee**9ffe*fe***#o*e*",
"f0**ee*o*ieo*=ffife***ooee**id**difeeiif***fee=***ee0**=**XX***=",
"*d%***oX*iie*feffe*%ee*o****fe*%*eie******;*0e*ee********0**=*;*",
"**;**o#o*faf*;ef***;eooeffd*;****%ee*oooo*ea**fe*****;+o*ee****e",
"t*ee*ooXo*efe*ff;*=*o+fiiff**fiti**;oo*-oo*qfef**o=*e*;@o*re=*ei",
"=o*ee***o**e0***ffroooo*****aiie*o*=o**e*oo*qe*;oX*9e***o;*e**it",
"****ee***==****efiif%***eee******+oo+*%ee*o**%*oo**ee***Xo***qpq",
"*r***=*;@o*%***o#+oooo*e0********e***;**e*;f**oo****e****o*e*ef*",
"*e*eee**##o*o#ooo*%oo#*;*e=******eq*%ef*%*di**o=*e****r***ee*e*%",
"r**af;**eee*o*oooo*oo**r*ee*****e*eq**0fe*ie*;oo*ee**ef-=eee*;**",
"**;****ee%*O%****o++o*ee;*e***e******;*ifefe***o*;ee;eis=e**oooo",
"tif***%****#eee***o***eaooe**ee%ie**we**fee*ffeoo*;e*eii*****%**",
"idff*ffupf*oo*ee:*oe**s***=*fee%ipee*ffe;eeee***o*****ei*efifee*",
"effq*qqfo%*oo**re*oee%o#;:**ff**ffe**%pfee*e***#o***reefefyfe***",
"oefooefXo;**o+*****ef=%*ffif;***fe******qe%*;+oo=eeaiifeeeee**o#",
"*=89q;oofae*%o******ff*fiie******e**oo***e***;*o;****eqeoX**o+o=",
"*fpf***fee*roo*f*;*%*%*fu*oddee**f**oo+**%=o****oo****oooo****e*",
"8f8;********;o;ff*%efiie**fiiif*ef*oo*o+%*ooo*e**#o**oo*eoo**;e*",
"**;778;%*88*o+*ff*eiifff=;feff%o=**+*e*oooo***e0**+ooo;ee*oo***O",
"**68=****87ooo*f***efiffe*e0s=*+***o*e*%*oe*==;e***o#*eee=*o%**+",
"*%e***eq*=eoo******=****oo%***oo***o*eq***r****;q;****e*%**o**oo",
"*%=*+;*e*;**X%q****df*****%*%*o=***oXe*e**eeo*e*%**ff**;**=***o*",
"=*ooo**0***so%qq**eef***e**ee#oo%*o+o**e***f+*ee**eqf***e;*eeooo"
};
