/* XPM */
static char *_143_664afbfdb3ed010d0e83de22e7dac6cd5a829f204f3b7bbe7c0b9983bd6d511d[] = {
/* columns rows colors chars-per-pixel */
"64 64 60 1 ",
"  c #090A14",
". c #090A15",
"X c #1E3616",
"o c #1F3616",
"O c #1E3716",
"+ c #1F3716",
"@ c #1E3617",
"# c #1F3617",
"$ c #1F3717",
"% c #263A16",
"& c #273A16",
"* c #263B16",
"= c #273B16",
"- c #263A17",
"; c #273A17",
": c #263B17",
"> c #273B17",
", c #241526",
"< c #241427",
"1 c #241527",
"2 c #251527",
"3 c #341C26",
"4 c #341C27",
"5 c #341D27",
"6 c #4D2A32",
"7 c #4C2B32",
"8 c #4D2B32",
"9 c #4C2B33",
"0 c #4D2B33",
"q c #2D4316",
"w c #2D4217",
"e c #2C4317",
"r c #2D4317",
"t c #344C1A",
"y c #344D1A",
"u c #354D1A",
"i c #344C1B",
"p c #354C1B",
"a c #344D1B",
"s c #354D1B",
"d c #5E761E",
"f c #5F761E",
"g c #5E761F",
"h c #5F761F",
"j c #5F771F",
"k c #476920",
"l c #476821",
"z c #466921",
"x c #476921",
"c c #7A4840",
"v c #7B4840",
"b c #7A4940",
"n c #7A4841",
"m c #7B4841",
"M c #7A4941",
"N c #AD7656",
"B c #AD7756",
"V c #AD7657",
"C c #AC7757",
"Z c #AD7757",
/* pixels */
"o**oX****ilhz*xa*ilx*-=aa%**a*oo$**#o:*:*xxfz*xa*xxx*:*sa***s*+o",
"*=*%+o%****lha**aaaaa**yi***o+X**s=%Xo*aa**xha**xkhhx**aa*oo%oo*",
"*:a**#Xo#****:*****:**:***Xo+o**sao#o****%**%*%a***:*****oo*****",
"ays*a:**Xo=%oo:*o****a*****oXoaxaaX***:*:*%*a**a=*aaa***o@****=a",
"xa*%aa**:oo+oooooo***aa*****oxhhaa#o*aia***%h%ay*aa**Xoo#**a*=*a",
"a%*%*a*isao+o*oooo***sa***a**o*xa**o#*%aa**xhaa**a***o+*%**aa**a",
"**say=aa*oXo=**oo***y*aa**x**o**%**Xooo**a*xhx*=****o#oo***aa***",
"%***i***o#**%a****oox****hx******%ooooo+***axa**%**=oooo*a**y**a",
"a**:**::o***ia**%**oxh:*xha***aaa**oo*%ahghxya*axhhooo#**a****ai",
"sa****ooo:*=aa**aaaaxfyaxa-=***ixa**o****sxxxikla**oo****aa=*aa*",
"aaa*oXo=*a**a:*=*%aaaxhaa*****=*xi***:*****pxa***oo#*=****aa*a*%",
"*********kx*%*asa:*aashaaxxxa****x***s*******:oo+o+***aas**a****",
"*:**aai**xfa*aaa****:aaazxa**%*a****aa******:*o***$oaxxhha**%**a",
"a*****sa*%hj*aa***ooX*******%*aia:*aa*=*xhhh*:o*aa*oo*%xhh****ah",
":o*o+****=axaa****=*o@+*==*:*asa*X*aa***axhxx**oah**oo*=axx*ahhh",
"***o+**ahhasaxfhxi**a*ooooo*%:**:**a**s*aakxax*ahh****xxa**axxha",
"*a****%*%xxaxjhl*oooaaoo+=oo+=***s***ai***axa**zkx*:axhx***xxxz*",
":a***aas**a*xka*oo**oaa*o********a**aia%%**kx%axa***hhxaaa*aaa**",
"a%*a**aaa***a*ooX****==*o*******a**aa*****=*aaa*****=yat****%***",
"***aa**+o****oo**aa=8888888088a******%hhhx***:*********+ooo*****",
"a***a*%:o+X*a*=ZZZZ8888888888888hao:*xajxa*****aaa**x*oo**a**&**",
"ti********ZZZZZZCZ887888888888888ha*xalxa****oooaxa*xh:*ixa**ay*",
"Vs**aaZZZZZZZnZZ8Z888888088nnn88888i*xx=**yaa*:o**a*xhx=xa*:ay**",
"ZZZZZZZZZnnnZnn88888888878nnn7888888*****xa***oo*%***axoz***=**=",
"NZZZZZZZZZZvnnn888888888nnn88nnnn8888***%*oo**o*o%*x**ya#xhxx***",
"ZZZZZZnnnnZZn888888888nnnnncnnn8688888****oo+oooo*lhhxaaxhk%**a*",
"ZBZnnZZnnnnn8888886088cnn88nnnn8888888*xza*oooo****axhxaxz%**ay*",
"ZnZZnnZnnnnn8nn88808880nnn78nn0888n8888*aa**ooos*****xxax*>sia*o",
"nBZZnnnnnnnnnn88887nnnnnnnnnnnnnnn88888:*aa-%ooya**************o",
"nnZmnnnnnnnnnn88888nnnnnnnnnnnnnnnn88888********aa*****%******o$",
"nnZnnnnnnnnnnnc888888nnn88nnn888Mnnn8888****o*a***%xx*%****%**o*",
"nnnnnnnnnnnnn8nn886n8nnnn88nnnn8888688888**xo*ia>*iax***a**aao#o",
"nnvnnncnnncnn888088nnnnnnnMnnnnn888808888xxhx*la%xxz***ay*:*a*oo",
"nnnnnnnnnMnnnnn80888nnnnnnnnnnnnn888844888*xha:*xxhfx**aa*oo:oo=",
"ncnnnnnnnnnnn88888nnnbnnn8nMnn8nnn88884484Xo***=**=**%**********",
"nnnnnnnnnnnnnn88888n88nnn88nnnn8cn68888444=ooo***%=***a**o*****a",
"nnncnnnnnnnnnn8888888nnnnn88nnn88888448444y**oo***a*%xa:*Xo****a",
"n8mnnnnnnnnn8nnn788nnmnnnMnnnnn8888844444%sa*o#*>*x**j**:*oo=**s",
"00nn8nnnnnnn888n8888nnnnnnnnnnnn88484344***=oo**:yxhaai*=***o*%*",
"8nn88nnnn8nnn88884888nn88n88n8nnn844844*****X*axhxixaaaxhxa*#**a",
"8nn8nnnnn888n884844808n88nn8888nnn4444*****a****ahziyixha***$*aa",
"88888n88nn788084444888888nn08888884444*aa**x:aa**axxa*la**:oo*a*",
"x8808c88888848444444884888n8888898444hhx=**xaa=*:*aay*****XX***=",
":x86888084445444xa*444448885884884441*****:*ua*aa=*******a*:=*:*",
":*  1688441x=*al****44444444684484441oooo*ax**za*****:+o*aa**>*a",
"h   18844<ala*xx****o+xhjx434884444411**oo*axax**o**a**#o*ia*=ih",
"    118441*ia*%*xxsoooo:****   1144441*a*oo*ia**oo*ta=*:o:*a**hd",
"     18411*****akhhx****aaa:    111441*aa%o****+o**aa***Xo***aji",
" . **2141o*%***o#+Xooo*ay**     *111441*a*:x**oo**%*a**%*o*a*ax%",
"  *aaa111,#:ooooo*%+o#*:*a     **a11141***xh*%o*%a*%**a***aa*a**",
" **kx*1111a*o*oooo*oo**i*     **a:a1111xa*ha*:o+*aa=*ax*=yaa**%*",
"%******111*O*****o+oo*aa.    *a**%11111hxaxa***o**aa=afx=a**oooo",
"fhx***%111*Xaaa*:*o***ax    %aa*ha1111%*xaa*xxaoo**a*agh*****%**",
"hxxx*xzfhx*oo*aa>*oa**x***=*xaa%hfaa*xxa=aaaa:**o*:*%*ah*axhxia*",
"axza*ayxo**oo:=aa*oaa*oX::**xx**xka***hxaa*a*%*oo:**aaaxaxhxa%=:",
"oalooax#o:**oo*;***ax***xxhx:**%xa******ta***ooo*aaxggxaaaaa**o#",
"*=qai:ooxxa*%o****:=xx*xhha******a=*o+***a*****o*****aiaXX**Xoo*",
"*xhx***xaa*soo%x*****%%xh=oxzaa*=x**ooo***=o***:oo****oooo****a*",
"rxr:****%***:o*xx*-axhha**xghhx*ax*@o*oo%*ooo*a**oo**oo*aoo***a*",
"***rrr%**rr*oo*xk*ahhxxx**xaxx*#***o*a*$ooo***as**o#oo*aa*oo***X",
"*=wr=****eeooX*x**:sxhxxa:syz*:o***o*s***oa***>i***oX*aas*=o***+",
"*%a***iy*=aoo****%******oo****oo***o*aa*%*a*****i*****a****o**oo",
"%%=*o**a****o%a%*==xk**=**-***o=***o+a*a**aao*a****xk*****=***o*",
"=*ooo**a**=xo%ai**aax***a**aa#oo**o+o:*a***xo*aa**aix***s:*aaooo"
};
