/* XPM */
static char *_0f810b5b4fc455298a8ff71b185ad1aCWDHCNoz64EeZb0Q[] = {
/* columns rows colors chars-per-pixel */
"64 64 44 1 ",
"  c #090A14",
". c #1E3616",
"X c #1F3616",
"o c #1E3716",
"O c #1F3717",
"+ c #263A16",
"@ c #273A16",
"# c #263B16",
"$ c #273B16",
"% c #263A17",
"& c #263B17",
"* c #241527",
"= c #251527",
"- c #341C27",
"; c #351C27",
": c #341D27",
"> c #4D2A32",
", c #4C2B32",
"< c #4D2B32",
"1 c #4D2B33",
"2 c #2D4317",
"3 c #344C1A",
"4 c #344C1B",
"5 c #354C1B",
"6 c #344D1B",
"7 c #354D1B",
"8 c #5E761F",
"9 c #5F761F",
"0 c #5F771F",
"q c #476820",
"w c #476920",
"e c #466821",
"r c #476821",
"t c #466921",
"y c #476921",
"u c #7A4840",
"i c #7A4841",
"p c #7B4841",
"a c #7A4941",
"s c #AD7756",
"d c #AC7657",
"f c #AD7657",
"g c #AC7757",
"h c #AD7757",
/* pixels */
"X###X####4t8t#t4#4ty###74###4#XXX##XX####yy0t#t4$yyy#&#46&##4#XX",
"####XO#####t84##44444##77###XXX##4##XX#37##y04##ty00t#&66#XX#XX#",
"##4##OOOO$$#++#######$####o%XX##44OOO##########4###&#####XX#####",
"444#4###oo$$X+##X####4####&oXX4e44O#########4##4#$446###XX#####6",
"e4##44##&XXXXXXXXX###74#####Ot8844XX#444####0#44&44#&+XXX##6###6",
"4####4#663XXX+XXXX###44###4####e4##XX##47##y044#$4###XX####66##6",
"##446#66#XXX#+++O###7#44##t##X#####XooO##7#y0y######XXX.###66###",
"####6###Xo##+3++##OOy####8t#######XX#oOO###4t4@%#&##XXXX#4##6##6",
"4##&###+X+##66####&Xt8$$t84###664##XO##4000t44%4t88XXXX##4####76",
"66####XXX+#&66##6666t844y4#####6q3##O####4tyq4yt6##XX####44##76#",
"666#XXX##6##6&&###664t944$######t3#########4e4###XXX######44#6##",
"#########tt###666&#644944ytt6####t###7########..XXX###664##4####",
"####666##t84#666####&666yt4$###4####44########.###XX3ee804#####4",
"6###++66##88#66#&#XXX#########663##44###y000##.#66#XX++e00####40",
"#X#OX+####6t66##+###XXX#++###666#X&44###4y0yq##+68###+##4tt#4000",
"###X+##498666t88t6##6#XXXX+########6##4#44qy4q#488####yy4##4tt04",
"#6#######ee6t88t#+XX44X.o&#XX####7##$74###4y3##ttt#&4e8e###tttt#",
"#6###664##4#tt4#..##X44%X########7##744####tt#3e4###88t663#644##",
"6##6##666###4#XX.#######o&######6##74##@####443######444########",
"&##64##X#####XX##44##&4#%##44#6#######009t#############.XXX#####",
"6###4###XXX#4#####446#t##44###4#03###y70y4$####344##t#+.##7#####",
"67########XXt6######6#t8$4$##&4#004#y4yy4$###...4t4#y9##4y4##44#",
"67##444#4t6X66#t4#####68&#494###tte4#yy###443#+.@#4#y0y#y4##74##",
"O6#774###4t6XX66##4t9846#484##&#t6e6#####t7#$+..#####4y#y#######",
"###########46XXX#44#6886#tt#####6646######Oo$$++###y##44Ot0ty###",
"#t#######XXXXX#X#####6t6#&#&#####66&#&####OOoo.oX#y00t44t0t###4#",
"2t#34###44XXXX#6XX##############66#6###tt4#O+..$###4y9t4yy###64$",
"####44###444###64XX+#########&#X#6#44###44##...4#####yt4y##464#+",
"#####3##XX&####66+###X##XXXXXXXX###64#&##44##OO44##############O",
"#######XX#######6+###XXXXXX#6XXX###&44&#########44############XO",
"####...4#666X#6#+##66#####&66#X###+++4#4####X#4####et#########X#",
"###O.+#&##6t6#66##66t&##6##66XXX##XXX##4###tX#44##44t###6##66XXX",
"X##XX####yt8e#e6#ttt###63###3#OOX##.X####tt8t#e6#ttt###77###6#XX",
"#6##XX#6##4t83##yt88t##63####XX##6##XX#66##t04##tt88t##47#XX+XX#",
"66#XXX#64#XX#t#6498#XX#6########66XX.&##oXXX####################",
"66#X######X63444yt#XXXX#######3e66X#.XXXX3#+#X########4##+#####6",
"66####6###09q+4X#+..X#X#646t++8866XX%++6#44$#XO###4$#t4$#XX####6",
"6&##66###tt4##++##446#OX#666e+#e6#XX++%6##44#OO###y##9####XX###6",
"#&#636##$$#######44##XXX###te+###6##6+66####OX###4t9447#####X###",
"######X+#444####44#+##666###+####6#t6+6+####X#7y8q4y447t8t6%.##6",
"##4#&X#X###33########4444$4##40####84######6####48t366t84###X#64",
"t66##66X####3##888t####44$$$400#tt60###46##t$77#&4te6#t6##&XX&6#",
"t6##66#X#83+##eq8t4#+++X44$$0w##t8t6688e###t47$$&#666#####XX####",
"#t&###XX#884#,,1,,11,11X$$$$t4###686######&#44$44########4###&&#",
"#####XXX#qq,<<<<111>,,,,dghh$$$$##44#%#X##4t##y4#@@####X#74####4",
"8#66#XXX##,,<<<<111>,,,,,gshggghg###OX##XX#4hdhhddhhgg#Xo#74##48",
"#X#66#%+<<<<<upp1<,,,,,1<g<ggpggggdgg++6#.ddhaaddaaaggg#+##4#$98",
"####66#,<<<<<<ppp<,,,,11<<<<ppdpaaggggggddddggd1;dadaagagX###494",
"#4##$$1<<<pppu<<uii,,1,,,>>>ppppggddgggddhhhhhg<;haaiuiddg#4#4y#",
"#4#471<<<<<<uuuuipiip,,,,>1>,,udgppaagddhhhhhhgg1;aappiiaadd#4##",
"4##tw1>><<<<ppaa11iip,,,<<11,,,appaadgaphhhhhpdgg1pp***up11--,##",
"####11>>p<<<,aa<,iii,,,,<111pp,pupppgpadgphgpgdappppiipi,,,-   +",
"00t#,1,>,iupppapiiiiiiup<<<<<paaapppiiidhgppiddappiii1,i11--- -#",
"8te1,1,,piipppipppiiiiip<<<<,puuapppiiiuhpapiidgiiiiii,11----*-#",
"4tt1,,,piip,,,iip,,iii,1<<<<pppuiipiiippdpaapiiuiiiiii11,----*-#",
"+611,,,,,,1,puii,,piii,i<<<pp,uuiuiiiippapppiiiiiiii1ii1,----*-X",
"$$>,>,>,1,,ppiiiipiipiii,,,,,,iiaiiiiiiiiuiiiiiipppa,,1,---***-#",
"$1>,;;>,,,upapiippiiiip,,,,,piiiiiiiiiiiiiiiiiup,,u,,1;:------6#",
"2:,;;,,,,ppp,ipip,ipipiip,,,,1iiiiiiiiiiiippi,ppp,,-;-::-----#6#",
"@:;;>,>,,pp,piii,,ipi,,p>,,,,piiiiiiiiiippppi,,1,----##46#XX###X",
"@:::,;-,,,1,ipi,,ppppp<<>>11,puiiiiiiiiippp,pp,1--#.X#446##X###O",
"$$;;---,,,,,iiipppppuppp>><ppp,piiiiiiiip,up,,,13#####4####X##XX",
"###:--;,-,,pipuipaauuup<,,<p1,,iiiiiup,up,,p,,,####et#########X#",
"##X#;;,-;,iii,p,,p,<aa1>>:<<,,pip,iipp,,pp,,,,44##44e###6##66XXX"
};
