/* XPM */
static char *_1128_dc9037763810013eabaa1d6c42ff81c9154d2dfdc5102006c1655df8dba9474c[] = {
/* columns rows colors chars-per-pixel */
"64 64 58 1 ",
"  c #090A14",
". c #090B14",
"X c #090A15",
"o c #1E3616",
"O c #1F3616",
"+ c #1E3716",
"@ c #1F3716",
"# c #1E3617",
"$ c #1F3617",
"% c #1F3717",
"& c #263A16",
"* c #273A16",
"= c #263B16",
"- c #273B16",
"; c #263A17",
": c #273A17",
"> c #263B17",
", c #273B17",
"< c #241526",
"1 c #241427",
"2 c #241527",
"3 c #251527",
"4 c #341C26",
"5 c #341C27",
"6 c #351C27",
"7 c #341D27",
"8 c #351D27",
"9 c #4D2A32",
"0 c #4C2B32",
"q c #4D2B32",
"w c #4D2B33",
"e c #2D4217",
"r c #2C4317",
"t c #2D4317",
"y c #344C1A",
"u c #344D1A",
"i c #354D1A",
"p c #344C1B",
"a c #354C1B",
"s c #344D1B",
"d c #354D1B",
"f c #5F761E",
"g c #5F771E",
"h c #5E761F",
"j c #5F761F",
"k c #5F771F",
"l c #476920",
"z c #476821",
"x c #466921",
"c c #476921",
"v c #7A4840",
"b c #7A4841",
"n c #7B4841",
"m c #7A4941",
"M c #AD7756",
"N c #AD7657",
"B c #AC7757",
"V c #AD7757",
/* pixels */
"O==OO====pzjc=cs=szc=>=sp===s=OO$==OO>=-=ccjx=cd=ccc=>=ds===d=OO",
"=-==@O=====zjd==ususs==ss===OOo=&d-&oO=ss==cjs==cljjc==ss=OO&OO=",
"==s>*$oO#=-===========>===OOOO==duO$O====&==&==s>==>=====$O====>",
"sdd=d===oO==OO>=@&===s&====$OOscpsO=====-qqqqqqqqqqss==>OO=-===s",
"cs==ss&=-@VVVVVVVVVV=ss=====OcjjssOOVMVVqqqqqqqqqqqqqOoOO-=s==-d",
"s&=&=s=psVVVbbbVVbbVVVd===s==O=VVVNVVVVqqqqwqqqqq00qqqo====ss=&s",
"==upu=sVbNbbVbV5qVVVVVVV==cVVVVVVVbMVqVqqqqqqqqbbbqqwqqq===ss==>",
"====s=MVVvbnbbV5qVVVVVVVVVVVVVbbbVbbqqqqqqqqqqbbbqqqqqqqqs==s==s",
"s==>VVbbbbbbbb5qVVVVVVVVVVVVVVVVbbbbqqqqqqqqbbbq9bbbbqqqqq====sp",
"ssq55qqbb221bbqVVVbVVVVVVVVbbbbVVbqqqqqqqqbbbnbbbbbqqqqqqq9==ss&",
"s   5qqqbbbbbbmbbVVbVVVVbbBVbbbbbqqqqqqqqqbbbqqbbbbqqqqqqqqs=s=&",
"=5 555qqbqqbbbbbbVVbbbbVVbbVnbbbbqbbwqqqqqqbbbqqbbqqqqbqqqqq=>==",
"&525554qqqbnbbbbVVbvbbVVVbbvbbbbmbbqqqqbbbbbbbbbbbnbbbqqqqqq;==s",
"s5<5555wqqbnbbbbbbbbbbbVbbbbbbbbbbbqqqqbmbbbbvbbbbbbbbbqqqqqq=pj",
"=525555qqbbqbbbbbbnbbbnVbbbbbbbbbbbvqqqqqvbbqqbbbqqqbbmbqqqqqjjj",
"=5222555qqqqvbbbbbbbbbbbbbbbbbbbbbqbbqqbqbbbbqqbbbbqqqqqqqwqqqjs",
"=s55556555qqqbqqbbbbbbbbbbvmbbbbnbqqqqqbbbbbbbbbbnbbqqqqqqqqqqx=",
"=s=5555555555qqbbbbbbnbbbbbbbbbbvbbbqqqqbbbbbbbbbbnbbqwqqq55qqq=",
"s==s==sss==5555qqbqbbbbbbbbbbbbbbbqwqqbbbbbbbqbbbbqbbbqwqqq55q5=",
">==sp>;OO=>==$55qqqbbbbbbbbnbbbbbbbqq9qbqqbbbqqnbbbqbbqqqqqq555=",
"s===p=&=OOO=u=-5qqbbqbbbbbbbbbbbbbbqqqqqqbbbbnqqbbbqqqqqq55q555=",
"us=-==-===oOls==qqqqbbqvbbbbbbbbmqbbbqqbbbbbbbbbbbbq0qqqq55555u=",
"sd==sss=ucsOss=csqqqbqqbbqbbbbbbbqqqbqqqbbbbbbbbbbbbqq6405557s==",
"Os=sps===scsOOss==qwqqbbqqbbbbqbbbq9qq5qqbbqqnqqbqbbbqq55q55-==-",
"=-==--==&==usOOO=ss=qqbbqbbbbbqqqbqq5q54qqbqqnbqqqqbbb95555cc===",
"=c=====-OOOOOO=OO&===qqqqqbqqbbqqq5q5855qwqqqbbqqqqqqqq5555-==s-",
"tc=dd===ssOOOO=uOO====q9qqbqq0qqq55555554qq5qqnqqqqqqqq555===sp=",
"====sd===sus&>=ssOOO=&=qq9q955545755s===s5557qqw5qq5qq5555=sps&O",
"&====s=&OO=====ss====O==1qq555  ===ss====sd555555qq55q552======O",
"======*OO=======s=-==oO22q552   ====ps;====>====s5qq55552==>==O%",
"====O$Os&sssO=s====us=-2q552    ====Os=s====O=d=   2255522*===O=",
"=&O@O=====scs=ss-=spz==25522 X O>=OOO==p==>cO=ps    325522=sdOOO",
"O==O+&===ccjl&cu-ccz== 2222  =$OO,&OO====xcjc=c     *22552>=s=$O",
"=s>-+O=s==scjs=&czjjc  222 =>OO=&s>=OO&ss==cj      jc=2222O$=#O=",
"ss=OoO-ds=OO=c=ssjj=O 2222==&==&ssOoO>&=OOoO      ====2222======",
"ss=@====-=Osissscc=OOO2222-===ucssO=OOOOOs=O .   =--=22222=====s",
"sp====s=-=jjcOs$OOOOO>222ssc>=jjssOOO==s-ss==@O===s==2222OO====s",
"s===ps===ccd=====&sds&OO,sssc==cs=Oo==>d==ds=OO=-=c==j====OO===d",
"===sss====-=&&==-ss==OOO===cc====u==s=ss===-OO===ucjsss=====@===",
"======OO=sds====ss==>=sssO==OO-&=s=cs-s=====O=ucjcscssscjcs=$-=s",
"==s=>$=o===sp-==-====ssds=s=>sj====js==&===s====sjcsuscjs==&%=ss",
"css==ssO====s==jjjc=>-=sp==-sjj*ccpj===ss==c=ss==sccs=cs===$O=s=",
"cu==ss-O=js@==ccjcs==>OOps==jx==xhcssjjc===css,===ssu===-=oo&==-",
"=c==;=OO=jjs=csccs=&ss=O===>cs===sks=====&>=us>ss>=======s==-=>=",
"==,==OOO=clc==sc====sOosclc=======sp=OOOO=sl==cs&===>>@O=ss====p",
"j-ss=OOoO=scs=cc====@@cjjcc&=cjjj===OO&=Oo>sxac=-O==s=>OO=ss==sf",
"=O=ss>==O==ss===cxdOOOO=====cjjs=O=-O&&s=OO=ps>=O$=ys&==O>=s==jj",
"===-ss=-=======scjjc====ssu-=====OOOO==ss>O====OO=-ds===#O===dgs",
"=s===--=#O=*===OO@OO@O=uu=&====&=s>=====s=>c==oO====s====O=s=sc=",
"=s=aus-=OOO=OOOO$=&$O$=>=s>======sp==sl===cj==O==s-===s===ss=s==",
"a==lc===ssp=O=OOOO=OO==s=ss&====s&ss==scs=fs==OO=ss&=sc>-sss====",
"======&sp==+====>OOOO=ss>=s===s======>=jcsxs===o==ss=sjc=s==OOOO",
"jjc===&====Osss&==O===scOOs==sp=js==ss==css=ccsoO;=u=sjj===-=&==",
"hzcc=ccjjc=oO=ss:=Os==c===-=cds&jjss=ccs=ssss&==O=====sj=scjcus=",
"sccs=sscO==oO>=ss>Oss&OO=>==cc==zcs===jcss=s===O$==>ssscscjls==>",
"OszOOscOO>==OO=====sc===lzjc>=>=cs======ss===o@O=sscfjcssdss&=o$",
"=*tsp>OOccs=&O=,====cc=chjs======d==oO===p=====O=====spsO$==OOO=",
"=cjc===cds=dOO=c=====&=cj>Oxxss==c==$OO===-O====OO=&=>OOOO====s=",
"tct>========>O=cc=&scfjs,&cjjjc=dc=OO*$O&=OOO=s==OO==OO=s@O===s=",
"===ttt===tt=O@=cc=sjjlcc&=cpcc=O-==O=s=OOOO-==sp==OOOO=ss=OO>==O",
"==et--=>=trOOO>c=-=sxjccs=suc==O===O=s===Op==->s==-OO=sss>=O===@",
"==s===ss==sOO===========OO====OO===O=ss===p=====p====-u-===O=>oO",
"=&->O==s=->=O&s====zc=====&==&O-===OOs>s-=ssO=s====cc=====-&==O-",
"->OOO-=s=>=cO&up==ssc===s==ss$OO&=@@$==s===cO=sd=&spc==&d>=ssOOO"
};
