/* XPM */
static char *_4602c37bd534cd7b6bab87dde5ccb62LUj2TqrFP7bH7yKW[] = {
/* columns rows colors chars-per-pixel */
"64 64 52 1 ",
"  c #090A14",
". c #090A15",
"X c #1E3616",
"o c #1F3616",
"O c #1E3716",
"+ c #1F3716",
"@ c #1F3617",
"# c #263A16",
"$ c #273A16",
"% c #263B16",
"& c #273B16",
"* c #263A17",
"= c #273A17",
"- c #263B17",
"; c #241527",
": c #251527",
"> c #341C26",
", c #341C27",
"< c #351C27",
"1 c #341D27",
"2 c #4D2A32",
"3 c #4C2B32",
"4 c #4D2B32",
"5 c #4D2A33",
"6 c #4D2B33",
"7 c #2D4217",
"8 c #2D4317",
"9 c #344C1A",
"0 c #344D1A",
"q c #354D1A",
"w c #344C1B",
"e c #344D1B",
"r c #354D1B",
"t c #5F761E",
"y c #5E761F",
"u c #5F761F",
"i c #5F771F",
"p c #476820",
"a c #466920",
"s c #476920",
"d c #476821",
"f c #466921",
"g c #476921",
"h c #7A4840",
"j c #7B4840",
"k c #7A4841",
"l c #7B4841",
"z c #7A4941",
"x c #7B4941",
"c c #AD7756",
"v c #AD7657",
"b c #AD7757",
/* pixels */
"o%%%o**--waya%aw%waa%%-ew%-%9*ooo*%%o*--%aaia%ar%ggg%%%wr%%%r%oo",
"%%%%o#*---%ayw--wwwww%-ww%%%Ooo**w%%oo-ww%-gir%%aaiia%%wr%oo%oo%",
"%%w%%OOOo*-%%%--%%*%%%%-%%OOoo%%wwOoO%-%%%%%%%-w-%--%%%%%oo%%%%%",
"www%r%%%oo-%X%%%X%%%%e%%%%%%o%rawwO%%%%%%%%%r%-r%%wrw%%%oo%%%%%w",
"dw%%ww%%%XXXXXXXoo-%%0w%%%%%Oaiiwwoo%999%%%-y-ww-ww%%%oOO%%e%%%w",
"w%%%%w%errXXX##Xoo-%%0w%%%w%%o%aw%-oO%*ww%%ayww-%w%%%oO%%%%ww%%r",
"%%wwe%ee%oXX**%Xo-%%0%rw%%a%%o%%%%-oooo-%w%aia--%%%%oOoo%%%ww%%%",
"%%%%e%%%oo***9##-**Oa%%%%ya-%%%%%%oooooo--%waw--%%%%oOoo%r%%w%%w",
"w%%-%%%%o%%%w0%%%%%Oai%%air-%%www%%OO%%ryyyaww*wayyoooo%%w%%%%rw",
"ww%%%%oOO%%%ww%%ewweaiwraw%%-%%waw%%%%%%%waad9ffr%%oo%%%%we%%ew%",
"eew%ooO%%w%%r%%%%%wwwairr%%--%%%ar%%%%%%%%-wd9**-ooo%%%%%%00%w%%",
"%%%-%%%%%aa%%%wrw%%rw0irwaaaw-%%%a%%%w%%%%%%%*XXooo%%%rwe%%0%%%%",
"%%%%www%-air%rrw%%%%%wwwpgr%%%%w%%%%ww%%%%----X#%%@owddyyr%%%%%w",
"e%%%%%ww-%ii-ww%%%XXX%--%%-%%%wwr%%ww%%%aiii%=#%rw%oo%%dii%%%%wi",
"%O%Oo%%%-%waww%%%%%%XXO***--%www%o%we%%%raygg-%%ry%%%o%-raa-ryii",
"%%%O%%%wiirrwaiiaw%%w%O*Oo#-%%%%%%%w%%e%rragra=wyy%%%%gaw--raayr",
"%w%%%%%%%aaraiia-ooowwOOO%OO%%%%%w%%%wr%%-raw%%aaa-%9dia**-aaaf-",
"%w%%%www%%r%aaw%oo%%owr%O%%%%%%%%w%-rwr%%--aa%war-%%yya999*www--",
"w%%w%%w0w%%%r%ooo%%%%%%%O%-%%%*%r%-wr%%&%%%%www%%%%%*99w****%%--",
"%%%wr%%Oo%%%-@o%%rr%%%r%%%-ww%9%%%--%%iiia%%%%%%%%%%***XO*o*%%%-",
"e%%%r-%%ooo%w%-*%%www%a--ww%-%w%iwO%%priaw%-%%%wwr%%a-*X--0%%%%%",
"ew%%%%%%%%ooaw-*%%%%w%ai%w%%--w%iiw%pwppw%--%oooraw%ai*%0a0%%w0%",
"e0%%rrr%rawOww*fw%-%%-wi%%wyw-%%aaaw%gg=%%rww%%o%%r%aia%aw%%ee-%",
"O0%wrw%%%wawXOw9%%raiirw%wiw--%%graw%%%%-aw%%%oo%%%%-rg-a%%%%%%%",
"%%%%%-%%%%%wwooo%rr-rttr%aa%%%%%rree------oo--o%---a--ww%aiaa%%%",
"%a%-%%%-%oOOo#*oO%--%qar%%-%%%%%%re%--%---ooOoooo-aiiaewfia%%%9%",
"8a%rw%%%wwoo%22263334%%%-%--%%-%rw-w%%%aaw-oOoo%%%-waiawfa-%%w9%",
"-%%%ww%%%ww3333363334444%=--%%%o%r-wr%%-ww--%oow%%---fawf*-ww9%%",
"%%%%%r%%%o33222266433344bbcc%#oo--%rw%%%%ww%bbbbbbbbcb-%%%--%%%o",
"%%%%%%%o333322xxx62223442bccvvvvc---ww%%-%bbbhkbbkkkbcb%%%%--%oo",
"%%%%ooo33333233xxx4244443c3cvkvvccbbcr-rbbbbbbb3>bkbhhchc%----o-",
"%%%Oo%33333hhhh33xxx44443322kkvkhhbbccccbbbbbbb2>bkkhhhccc-wwooo",
"o-%o#44433662kkkhhkkhh223366xhhhbcbbbbbbbbbbbbbb31xxhxxkkkvvw-@@",
"-w%%X44433262kkkh62kxh26336356hbbzhhhbbbbbbbbkbbb3hx;;;xh53113o%",
"ww%o33443x6326kk66kkh6263355556hzhxhbbhhvvvvkbbkkkxkhhhh5531...%",
"ww%o224433hhhhllhhkkxhkxx333hh6hzhxxbxxbvkkkkbbkkkkkx33h35111.1w",
"we%344443xllkhllxkkkkkkhx3336hhxkkkkkkkvvvxkkkbbkkkkkk333,,,1;>w",
"e%%34444xxkk666hkk26kkk233332hhhkkkkxxkxvkkkkxkkxhkkkk353,,,1;1r",
"%%33446633226hkkh66hlkx2x322hhkhkkkxkkkkvxkkkkkkkkkk5zz53,,>,;>%",
"%%3366663226kkkkxhhhllxxx23xh2kjkkkkkkkkkkkkkkkxkkkk5355,,,;;;1w",
"%356>>66222hxxkkkkhhxkkk244224jjkkkkkkkkkkxkxhhx33h23311,>,,,>ww",
"g15,>66623hhh6kkkk6hkkkkxx44xhjjkkkkkkkkkkkkhhhxh33,>>>1,,>>,*w*",
"g11,666433zz6llkk66hhh65x36633xjkkkkkkkkkkkkh6h361>>>%%%%%#o%---",
"&>1,4>>433336hlk56hhxhh366663xxjkkkkkkkxkkkkh333,1%%%%%%%r**%*--",
"%%11>>>655333hhhxxhhkkkkx33333xxkkkkkkhxkkh3hh22,***%%OX%w0*%%%w",
"y%r>>>>61133xhhzkxxhkkkk3222xhx6kkkkkkhhk5hz3335=#**w%%Oo%00%%wi",
"%o%r116>,55kxk3z55x33hk52133x333kkkkkk5hh55z666-XX-ww%%*O%-0-*iy",
"%%==r<>>15zkz5555zh55h55<113333hkk5hkk35xk5566-@X%%ww%%-o%---0i0",
"%w%%%,,,,33332223hh332231,,,,22h222xxxx6hh36%%oo%%%%r%%%%o%w%wa%",
"%w%ww9,,,33322333h33>22,1,,,,,1232xx2x36633y%%o%%w%%%%r%%%wr%w%%",
"r%-ad%>>,,33<3313331>1,,,,r-%->>>>333x3323yr%%oo%ew%%ra%%www**%%",
"%%%%%%%;,,3,<221>111>>,r--r-%%r .>>3322223aw%%%o%%ew%ria%r%%o*OO",
"yia---% ;,,,66>&--X%##9doow%-wr . >>1,,,22r%aaroO%%w%wii%%%%---%",
"tgaa-a  ;,,,<<rr--Xw##a#%%=%gww .....1,,12;rw%-%O%%%%%wi%waiaww%",
"raaw%w. ;,1>o*%rw-oww#%#%%%%gg.   . .;;,123;%-%oO%%%w0rawaiaw%%%",
"%rao%w..;,1;o#%%***wa*-%agia%%.   . ==;;;11;;@oo%rraitarwrww%-oo",
"-%7rw% .;;>;*o**-%%%gg%gyy9%#      *oo*%;;;1;%%o%***%wwwOO%%X%O%",
"-aya%%%..;;;oo-a-%%%%%%gy**aa    .**ooX%%;;;;;%%OO-*%%Ooo#%-%%9%",
"7g8%%%%..;;;;o-ag%%wgttw%%aii     %oX%XX%%;;;;w%%OO*%Oo%woo-%%9*",
"--%888%%..;;;;%aa%wiiagg%%a9a   &&%#%w%Xooo;;;;r%%o%OO%ww*oo%%*O",
"-%77%%%%%8;;;;%a%%%wayaa9%99a   %-*o%r%%%ow%;;;9%%%O%%www%%o%*%O",
"-%r-%%rw%%roo%%%--%%%%-%oo%%%%XX%--o%qw%%%w%%%%%9*%%--w%%%%o%%XX",
"%%%-o%%w%%%%o%r%---aa-%%%%%%*%%%%%*oOw%w%%w9o%9%%%%aa--%%%%%%%X%",
"%%o%o%%r%%%ao%wr--wwa%%%w%%w9OXO%%o*O%%w%%%do%99%%99a--%w%%w9ooo"
};
