/* XPM */
static char *exitcarrdown41680168883[] = {
/* columns rows colors chars-per-pixel */
"64 64 191 2 ",
"   c #020101",
".  c #010A00",
"X  c #090D0D",
"o  c #160202",
"O  c #10100E",
"+  c #121C17",
"@  c #270000",
"#  c #330100",
"$  c #281010",
"%  c #0E2901",
"&  c #132A03",
"*  c #152A0A",
"=  c #163403",
"-  c #1A3205",
";  c #1F3804",
":  c #1B320B",
">  c #17380D",
",  c #1F3113",
"<  c #372506",
"1  c #36260B",
"2  c #392E0C",
"3  c #233502",
"4  c #233C03",
"5  c #27310C",
"6  c #223A0B",
"7  c #353403",
"8  c #222413",
"9  c #22251F",
"0  c #382913",
"q  c #253114",
"w  c #223C13",
"e  c #2D3816",
"r  c #29391B",
"t  c #333410",
"y  c #241527",
"u  c #341C27",
"i  c #312222",
"p  c #302F27",
"a  c #353733",
"s  c #450303",
"d  c #431508",
"f  c #521F04",
"g  c #561314",
"h  c #76151D",
"j  c #462807",
"k  c #40300D",
"l  c #4E2314",
"z  c #53201F",
"x  c #443414",
"c  c #663319",
"v  c #691823",
"b  c #4A3820",
"n  c #533925",
"m  c #4D2B32",
"M  c #4A3335",
"N  c #692521",
"B  c #7A2322",
"V  c #7E2A2E",
"C  c #673424",
"Z  c #783121",
"A  c #7B382C",
"S  c #18410E",
"D  c #254005",
"F  c #2C4206",
"G  c #2F4903",
"H  c #27400C",
"J  c #2E4A0C",
"K  c #35500E",
"L  c #2A4214",
"P  c #294A15",
"I  c #2D431C",
"U  c #284B1C",
"Y  c #334712",
"T  c #314A15",
"R  c #36431E",
"E  c #344C1F",
"W  c #375114",
"Q  c #35511E",
"!  c #304424",
"~  c #364B24",
"^  c #395224",
"/  c #3D542D",
"(  c #384432",
")  c #444314",
"_  c #4A4A24",
"`  c #534021",
"'  c #445D22",
"]  c #455E2B",
"[  c #444238",
"{  c #6E4128",
"}  c #436422",
"|  c #4A6321",
" . c #4A6428",
".. c #4D692B",
"X. c #536623",
"o. c #506A28",
"O. c #4B6331",
"+. c #436930",
"@. c #546B32",
"#. c #506638",
"$. c #546A3C",
"%. c #4D783A",
"&. c #557330",
"*. c #5A7331",
"=. c #5B7539",
"-. c #676E38",
";. c #627835",
":. c #3D3A40",
">. c #454546",
",. c #574445",
"<. c #595244",
"1. c #4D4F50",
"2. c #565555",
"3. c #6F4C48",
"4. c #7A4841",
"5. c #665554",
"6. c #5C7540",
"7. c #5E7B40",
"8. c #637B43",
"9. c #7C6857",
"0. c #5D5C61",
"q. c #6C6668",
"w. c #767070",
"e. c #881B19",
"r. c #9D1522",
"t. c #AB1720",
"y. c #A41E25",
"u. c #AA1A26",
"i. c #B31729",
"p. c #B31C28",
"a. c #B41F30",
"s. c #892724",
"d. c #8C2925",
"f. c #88252E",
"g. c #992223",
"h. c #9B2128",
"j. c #96282D",
"k. c #873024",
"l. c #9C332A",
"z. c #992532",
"x. c #883331",
"c. c #983436",
"v. c #A82224",
"b. c #AC2A2D",
"n. c #A52130",
"m. c #B52730",
"M. c #BB2435",
"N. c #A83337",
"B. c #A53F38",
"V. c #B53235",
"C. c #BE353B",
"Z. c #C52435",
"A. c #CA3336",
"S. c #C43539",
"D. c #CE3039",
"F. c #D1383D",
"G. c #914C37",
"H. c #993544",
"J. c #AB2D42",
"K. c #B93541",
"L. c #C73541",
"P. c #935249",
"I. c #9A5B5D",
"U. c #B5494B",
"Y. c #886858",
"T. c #9A645C",
"R. c #A7635B",
"E. c #AD7757",
"W. c #A55D61",
"Q. c #996667",
"!. c #95696B",
"~. c #8E7A74",
"^. c #A86F73",
"/. c #C94547",
"(. c #D74C55",
"). c #E35D60",
"_. c #D4696E",
"`. c #E66568",
"'. c #7F8778",
"]. c #88857C",
"[. c #918579",
"{. c #9D7E83",
"}. c #8A8684",
"|. c #958D89",
" X c #9B9A9B",
".X c #B99E9A",
"XX c #B2A39A",
"oX c #AE9FA3",
"OX c #B2A3A5",
"+X c #D69E9F",
"@X c #DDB7B9",
/* pixels */
": - q 6 * w q 5 6 W } %.+.3 | ) 3 T @.| 4 4 4 T ~ 6 : e ! r 1 1 d l j d f g j j ; +.+.%.+.4 X.G D } } } 3 4 ; ~ I L 6 : P > : = ",
"w H 6 q : > w 5 5 4 4 +.&.W D = ^ P H E T 6 = Q I 6 x p , w 8 9.Y.Y.9.9.Y.Y.Y.9.~ w > #.@.) 7 F | X.*.;.@.4 ; I I 5 : : L = = H ",
"; 6 P w S > : : 5 6 6 6 w ; ; H > , S L = > S - r 0 d 9.9.'.'.].}.[.].}.}.].~.].].w.[.[.!.Y.3.P.f j D D 6 5 w L w , * 5 e q , L ",
"Q Y ^ w U S > > 6 * w : : , I > > L = : P ~ w e 0 z W.W.[.XX|. X X X X X|.}.}.].}.|.{.{.^.{._.^.P.G.` ` b 2 5 : ; ; q e q w w P ",
"+.I 6 3 L ^ D S w : > > > & * * , * L , = ^ Y < ~.Q.I.Q..XXXXXXXoXoXoXOXoXOXoXOXOXOXoX.X@X@X@X+X^.U.H.f.f.g k 5 - 6 6 R : : L E ",
"T 6 6 5 J P 6 Y x ` 1 1 0 x 0 i < < 2 2 2 x C R.R.P.V V I.W.T.Q.!.!.!.!.!.!.!.!.Q.Q.Q.Q.^.Q.^.Q.f.l.n.u.y.s.Z f 2 5 t ) Q ; = E ",
": L Y T P ; ) c h N.N.N.c.G.c.c.c.B.U.U.B.U.B.S.v.g.r.g.s.f.z.z.f.x.x.f.c.j.z.c.c.c.z.z.N.N.n.K.N.J.M.L.p.b.b.l.Z f j ) ^ H 3 6 ",
"6 5 5 4 ) < G.B.V.S.L.L.U._._.).`.(.S.S.A.S.A.D.Z.S.m.V.N.V.S.A.V.B.N.V.C.m./.`.`.`.(.).(.K.K._.K.K.L.L.K.M.L.M.V.l.Z j Y 4 6 T ",
"~ - 7 j f G.V.K.F.V.j.V A x.c./.L.(.A.D.Z.A.A.A.A.S.S.C.C.S.D.D.S.S.C.C.S.S.S./././.B.L.L.K.K.U.z.B B k.g.K.L.S.D.V.g.x.k 4 Q P ",
"~ _ j P.B.V.L.M.r.s.s o @ @ N x.J.M.Z.Z.Z.A.F.A.S.S.C.C.S.S.D.D.S.M.m.u.i.i.i.v.g.v.v.v.m.K._.H.g @ o o N s.J.C.A././.d.j Q P S ",
"R x { g.A.D.K.z.v d l M i   3.z h z.a.Z.u.u.u.t.u.g.y.y.h.y.v.t.u.u.v.u.v.u.u.u.v.r.t.p.u.z.s.g l X [ $ n # h V.L.Z.J.x.j R - S ",
"w x N e.a.M.n.h # >.  :.:.+   M # V r.J.p.u.t.v.v.v.y.y.y.y.y.y.t.u.u.n.u.u.t.t.r.v.u.y.z.H.@ [ o O <.i 8 5.s H.K.K.n.x.2 6 H > ",
": 2 j g z.j.j.g u :.+ 1.:.1.y m $ N z.M.a.i.u.t.y.v.i.i.i.t.t.u.u.p.m.a.a.i.p.p.m.p.p.m.b.N $ i o i 2.2.y 5.g N J.J.c.{ 2 4 t W ",
"~ t n # h z.V g ,.p >.2.w.w.2.M [ # j.t.a.m.M.b.b.b.a.M.Z.M.m.m.m.m.m.m.a.m.M.m.t.m.b.b.z.@ 5.9 M q.q.q.2.i 3.g f.j.Z f 7 D 7 -.",
": : 8 d h z.f.z ,.>.1.q.5.5.,.,.n # B g.n.n.b.M.b.b.m.m.p.m.b.b.b.b.v.u.u.u.y.v.v.v.e.g.V @ 2.>.1.q.0.q.3.m 5.2 N C ` 7 T *.;.;.",
"> 4 5 < Z v V # p a O ,.,.5.9 9 8 n N B Z B k.d.k.d.s.s.d.d.k.k.Z k.d.d.d.s.d.Z k.k.k.Z l 9.9 9 X p 2.1.0 [ i _ n k 7 ) | | ;.G ",
"6 E 6 5 2 k k i + [ X a a   . [   q 1 1 b ` 1 1 < k 1 < 1 1 k j x b 2 x < n x 2 j x ) _ _ 5 . (   + >.+ 8 <.  $.q 5 4 ..O.....; ",
"H L 3 6 H ~ ~ ) e + 5 ( a   1.a q * w L * L ~ : w : q , w q 6 6 : T 6 6 J Y Y 4 3 4 4 @.] w ! ( a O >.+ [ . $.I ~ P H Y T H 3 H ",
"H H H T H 6 r ( ! p X q 8 + q 9 : , L = 6 6 > H - 6 : w ; w 6 6 E 3 6 Y Q 4 I S H ; H 6 I ~ ~ q X 9 9 9 r R E Y 3 H D - 6 6 6 6 ",
"H 6 4 ~ T w 6 w ; : P , I , , , r I ~ 4 D ; T ; 3 6 L ~ L w w e 4 4 4 6 6 ; @.=.@.o.6 6 w : : w r q q , : 6 : ; ; % = S H 6 6 4 ",
"P D w S I H w : - : - , ~ : L L w 6 E T Y 3 ..4 4 T L 4 6 : ^ 4 =.T 3 - ; #.H 6.o.T ; ; L : ; ~ R ~ e e #.6 = ; D H H 6 ; : L ; ",
"~ ~ 6 ; 6 = 4 6 w 4 ; ; O.T 6 - 6 6 : 4 W ;  .*.; W 4 H 4 6 ~ 3 =.o.W D O.W @. .Y 6 6 ; D - w : E +.Y 3 } =.D 4 J ] Q 6 H E ~ , ",
"E E , H T Q P 6 P O.^ % ^ T = $.I w - 4 D ; W @.3 D Y $.E Y : 6  .o.} K D ' #.; L = W P P H - w - F Y 6 $.*. .= ..T 6 4 E I w 6 ",
"- U ; Q T ~ ; 6 = Q ] Q = = T I 6 6 Y O.=.=.J W 4 Y 6.T 6 - w ; O.J o.J 4 6 6 6 ; #.T H ; - , = e = 4 D - W  .; ..= 3 6 ; w w w ",
"; 6 ; ; 6 6 3 6 4 6 6 E E & - ; w ! Y 6 F =.=.Y 3  .O.L 6 ; 6 6 T W J J 4 4 6 w : w : ; - w - , = D ; } D ; J W = ..=.O.#.; w : ",
"H O.H w 6 4 6 6 : 6 - - ; 6 6 - - 6 Y 6 6 W ] W 4 H 6 : w w w : 6 L Q D ; H ; w I : - - : ; > : - ; O.=.=...K H ..7. .D ; ; ~ H ",
"e O.6 Y ~ ; w 6 E L 6 - : * 6 ~ : - 6 : 4 ; H 3 6 ; - w w : r ; ' J - E w - : #.] E w , : , - : H 6 D P +.@.#.J ..~ H D 6 Y E ; ",
"6 H 5 w ~ T 6 6 6 E ~ I L w w E ! 3 - : 6 5 6 6 6 w w w : , : : = W 6 / I I w : Q ~ S ; : w : ~ 4 S - 4 L +...W O.J ; Q T E 6 - ",
"4 : 6 6 6 ~ 6 : 5 ; w : 6 6 w I ~ 6 : 6 6 : 6 w * q : : , , - = 6 6 : I ~ : 4 ; 3 L E w q : - E E ; 6 3 4 3 - H ; 3 3 ; 4 L ; : ",
"6 6 6 L - H S w - : 6 w 6 6 6 6 E w 6 6 6 : & : : 5 : > ~ ; = : 6 6 w w ~ ~ 6 w 6 F L : I : ; 6 Q T H - 6 6 6 4 ; 6 L 6 6 6 : : ",
"w w : > > , H L 6 E Q P : 6 T 6 6 : 6 T ~ 6 6 6 w q , ( ~ , = L : 6 w 6 ; ~ ; I 6 6 - 6 ; 6 I w ; H = @.O.3 4 6 6 : : w w : : w ",
": w > - - > = S ; 6 P O.E 4 T T 4 3 Q E ] 6 e 6 ~ w , ~ ! , , - e q ; - : 6 6 ~ ; D 3 @.= 6 E ~ H D H W ..4 6 : E L w ! I , q : ",
"= L 6 : : ; 6 6 D  ...=.| S o.J G Q ..@.; D H P P L 6 : ~ r q : ; : : : : ; 6 : D ..] 6...3 O.W D | | | ; 4 4 Y I 6 w w ~ q : : ",
"r r w : , : w E ; D Y  .*.J ; D o.o.@.&. .6 = E ~ & L r , : : w w ~ I w = : > ~ P H 4  .=.T H = ..| *.=.X.; ; E E w , * , , , w ",
"I U 6 : = - 6 T T H % 4 4  .H L G &.*.H = - , ~ w w - ; > 3 ; H E E % > : 6 6 6 - = = = ; ; ; H ; 3 H ; H 4 6 ; q , w w L 6 - 6 ",
"E E I : 6 S w 6 ; ; ; Y T ^ T T ..} 6 = 6 ; > r w 6 H 4 ; H L | E E ; : : 6 - 6 - ~ H = : : > e : ~ ; w 6 : ~ q ; 6 q : 6 6 6 I ",
"E T ; - w L L 6 w S 6.6.#.= ~ : = > - , : , : L R T L | D ; ;.=.T T w - : 6 6 ~ : ~ L L , > , : w , I w 6 O.Y L 6 : 6 6 w w 6 T ",
"P 6 : w E I w 6 H O.#.r w w : w S L ~ ~ ~ w : = = E J W X.; ; X.T 6 - = q S L ! w L I I , : > I 6 : @.6 ; 8.6 ; 6 : & 6 : 6 6 ~ ",
"H 4 D E ~ U 6 6 - 6 w 6 ; 6 : 6 ; P T ; H - 3 = 4 ; H ] O.: 6 4 6 P - T P H E E w ; w L : , : , 6 W ] @.W J J F 3 6 6 6 6 6 ; 6 ",
"; ; ; ; 6 6 : - H T I W D - L ; J W H = ; H L Q ~ - 6 4 6 ; w 6 3 W 3 +.~ : I ; H ; : S = ; ~ #.=. .G o.J G W | @.#.E 6 * w w ~ ",
"; H I 6 e = 6 - w ; ; Q L D H ; S = 4 6 ; ~ ^ E I 4 P > 4 T 6.; 4 4 4 =.P ; ; H H 6 ; ^ - H w ; J ;.| G K K ' ;.W 4 6 6 6 q ! ~ ",
"#.T ^ 6 = ~ ~ - ; H 6 ; K ; 3 *.=.=.] H 6 > , ~ ~ e 6 4 W =.*.4 ..| K *.4 D - T P 6 ;  .H H ^ ; D D o.X.G ; ..T 3 6 6 : : w I w ",
"+.^ & L ~ ~ 4 - = 7.J ; ; ; o.} &.} W 6 - - : = L E 6 4 =.O.3 ;  .&. .J Y =.7...; ; H O.J ^ = H 4 6 ~ T W ; H H 6 w : * e 6 5 6 ",
": #.6 - w > = ; H =.=.T S X.J ..+.W 6 4 ^ ~ 6 ; H 3 6 4  .T 3 H ; K =.K D 6 > - H ; ; ; Q Q = E T w : ; w 4 = , w E w 6 H 6 : H ",
"; > H L : : - - H ] ..O.4 4 L ..6 6 6 > T ; = H } @. .; D D = 6 ; ; E Y - 6 - ; ; = T $.4 ; #.~ w q w w ; w : q ; E ~ w ; 6 4 W ",
"6.L H ~ L : ; : - ; ~ O.6 S @.O.6 4 4 6 - - @.8.=.| | 4 4 | 8.@.=.D ; S L = : , - - > W O.T O.; : 6 w q ^ e q : : w E E ; ; K =.",
"; ; ; T I ; > w - 6 6 E ^ 3 - 4 } ..L 4 3 - = : H - 6 4 o.*.*.^ ; > I & : : w E 6 : > - E ^ ; w ; - ; I ~ 6 L : : : 6 E 4 D o.;.",
"6 = 6 H ~ ^ : w w w ; - 6 L 6 T +.=.=. .; 6 S ; E T T 4 6 6 4 ; ; ; : : , w : ~ ~ 4 - ; 6 - 6 - 3 6 4 ~ T : q w * w 6 6 3 J ;.G ",
"D L D 4 = w 4 S ; , : L , U , : : > = : 6 & 6 E T 6 ; 6 w 6 6 ; 6 I 6 6 6 ; > 4 P ; D @.4 S , : : 6 6 w I w e , , ; w E 6 Y O.4 ",
"4 ^ ; T ~ ^ : : : 6 > w : : > : : , L > % - L 6 6 T : ; S , e ; 6 E U 6 q ~ O.= D ;  .&.; : * w 6 ~ 6 ; 6 w ~ L w 6 I E ; J 6 6 ",
"K 3 S ..O.; 6 w I I E , , : * ; : : r > : L - ~ : ~ ^ 6 ; w ; w Y H ~ Q ; > ^ O.K D &.Q H 6 , = 6 ^ T w 6 H O.3 ; ^ E E 4 6 6 6 ",
"D 4 4 6 4 ; 4 T ~ 6 4 : 6 m m m m m m m m m m P : L L L ; ; ^ ; ; 4 D 6 - H 4 6.} K ..D H H ; : 6 w Y T 4 W 8.' 3 J ; H 3 & - : ",
"=.=.&.; ; 4 6 4 6 6 - m m m m m m m m m m m m m E.E.E.E.H Y ~ S *.W ; ; ^ T 6 6  .K J L  .O.~ : 5 : w T 4 W *.*.4 ; 4 ; 3 w 6 w ",
"=.| Q o.D  .O.6.8.+.m m m m m m m m m m m m m m m E.E.E.E.E.E.E.E.8.H T = O.O.Y H L J K E.E.E.E.E.E.E.E.E.E.G *.; G o.8.O.E I w ",
"K  . .J D P W ] m m m m m 4.4.4.m m m m m m m m m E.m E.E.4.E.E.E.E.E.E.E.4 =.#.Y Q E.E.E.4.4.E.E.4.4.4.E.E.E.X.K X.X.@.T - e w ",
"= K | ; = Y ..m m m m m m m 4.4.4.m m m m m m m m m m m 4.4.E.4.4.4.E.E.E.E.6 6 E.E.E.E.E.E.E.m u E.4.E.4.4.E.4.E.W T T 6 w & w ",
"; ; H T T : m m m m 4.4.4.4.m m 4.4.4.m m m m m m m m m 4.4.4.4.E.E.E.E.E.E.E.E.E.E.E.E.E.E.E.m u E.4.4.4.4.4.E.E.E., H > & : w ",
"; O.=. .e m m m m m m m 4.4.4.4.4.4.4.4.4.m m m m m m m m m 4.E.E.4.4.4.4.E.E.E.E.E.E.E.E.E.E.E.m u 4.4.4.4.4.4.P.{ E.E.6 6 I w ",
"Y } T 6 ; m m m m m m m 4.4.4.{ m m 4.4.4.m m m m m m m m m m 4.4.4.4.4.E.E.E.E.E.E.E.E.E.4.E.E.E.m 4.4.y y y 4.4.m m u u m E : ",
"- w 6 6 m m m m 4.m m m m 3.P.m m 4.4.4.m m m m m m m m 4.4.m 4.4.4.4.4.E.4.4.4.E.E.E.E.4.E.E.4.4.4.4.4.4.4.4.4.m m m u X X X : ",
"> w w L m m m m m 4.4.4.4.4.4.4.4.4.4.4.4.4.4.4.m m m m m 4.4.4.4.4.4.4.4.4.4.E.E.4.4.4.4.E.E.4.4.4.4.4.4.m m 4.m m u u u X u , ",
"H 6 I m m m m m 4.4.4.4.4.4.4.4.4.4.4.4.4.4.4.4.m m m m m 4.4.4.4.4.4.4.4.4.4.4.E.E.4.4.4.4.E.E.4.4.4.4.4.4.m m m u u u u y u 9 ",
"w 6 ; m m m m 4.4.4.4.m m m 4.4.4.m m 4.4.4.m m m m m m 4.4.4.4.4.4.4.4.4.4.4.4.E.4.4.4.4.4.4.4.4.4.4.4.4.4.m m m u u u u y u q ",
": w m m m m m m m m m m 4.4.4.4.m m 4.4.4.4.m 4.m m m 4.4.m 4.4.4.4.4.4.4.4.4.4.4.4.4.4.4.4.4.4.4.4.4.4.m 4.4.m m u u u u y i , "
};
