/* XPM */
static char *exitcarupr11680168873[] = {
/* columns rows colors chars-per-pixel */
"64 64 178 2 ",
"   c #0B0908",
".  c #160202",
"X  c #090A14",
"o  c #270000",
"O  c #330100",
"+  c #2C1008",
"@  c #0E2901",
"#  c #132A03",
"$  c #152A0A",
"%  c #163503",
"&  c #1A3205",
"*  c #1F3804",
"=  c #1B320B",
"-  c #17380D",
";  c #1F3113",
":  c #372605",
">  c #36270B",
",  c #392E0C",
"<  c #233502",
"1  c #233C03",
"2  c #27310C",
"3  c #223A0B",
"4  c #353403",
"5  c #222413",
"6  c #382913",
"7  c #253114",
"8  c #223C13",
"9  c #2E3915",
"0  c #29391B",
"q  c #333410",
"w  c #241527",
"e  c #341C27",
"r  c #312222",
"t  c #363423",
"y  c #450303",
"u  c #431508",
"i  c #521F04",
"p  c #561310",
"a  c #57121B",
"s  c #76151C",
"d  c #442407",
"f  c #492E06",
"g  c #4E280D",
"h  c #44221F",
"j  c #53201F",
"k  c #443414",
"l  c #663319",
"z  c #691823",
"x  c #4D3727",
"c  c #4D2B32",
"v  c #692521",
"b  c #7C2729",
"n  c #673425",
"m  c #783121",
"M  c #7A382D",
"N  c #18410E",
"B  c #254005",
"V  c #2C4206",
"C  c #2F4903",
"Z  c #27400C",
"A  c #2E4A0C",
"S  c #35500E",
"D  c #2A4114",
"F  c #294A15",
"G  c #2D431C",
"H  c #284B1C",
"J  c #334712",
"K  c #314A15",
"L  c #36431E",
"P  c #354C1F",
"I  c #375114",
"U  c #35511E",
"Y  c #304424",
"T  c #364B24",
"R  c #395224",
"E  c #3D542D",
"W  c #384432",
"Q  c #444314",
"!  c #44442C",
"~  c #534021",
"^  c #445E22",
"/  c #445D2A",
"(  c #6E4128",
")  c #436422",
"_  c #4A6321",
"`  c #4A6428",
"'  c #4D692C",
"]  c #536623",
"[  c #506A28",
"{  c #4B6331",
"}  c #436930",
"|  c #546B32",
" . c #506638",
".. c #536B38",
"X. c #4D783A",
"o. c #557330",
"O. c #5A7331",
"+. c #5B7439",
"@. c #676E38",
"#. c #627835",
"$. c #3D3A40",
"%. c #514945",
"&. c #7A4841",
"*. c #6E514D",
"=. c #5C7540",
"-. c #5E7B40",
";. c #637B43",
":. c #7C6857",
">. c #767070",
",. c #881B19",
"<. c #9D1522",
"1. c #AB1720",
"2. c #A41E25",
"3. c #AB1B26",
"4. c #B31729",
"5. c #B31C28",
"6. c #B41F30",
"7. c #8A2824",
"8. c #88252E",
"9. c #992223",
"0. c #9B2128",
"q. c #96282D",
"w. c #873024",
"e. c #9C332A",
"r. c #992532",
"t. c #883331",
"y. c #983436",
"u. c #A82224",
"i. c #AC2B2D",
"p. c #A52130",
"a. c #B52730",
"s. c #BB2435",
"d. c #A83337",
"f. c #A53F38",
"g. c #B53235",
"h. c #BE353B",
"j. c #C52435",
"k. c #CA3336",
"l. c #C43539",
"z. c #CE3039",
"x. c #D1383D",
"c. c #914C37",
"v. c #993544",
"b. c #AB2D42",
"n. c #B93541",
"m. c #C73541",
"M. c #935249",
"N. c #9B5B5D",
"B. c #B5494B",
"V. c #886858",
"C. c #9A645C",
"Z. c #A7635B",
"A. c #AD7757",
"S. c #A55D61",
"D. c #996667",
"F. c #95696B",
"G. c #8E7A74",
"H. c #A4666A",
"J. c #A9777C",
"K. c #B77577",
"L. c #C94547",
"P. c #D74C55",
"I. c #E35D60",
"U. c #D4696E",
"Y. c #E66568",
"T. c #7F8778",
"R. c #88857C",
"E. c #918579",
"W. c #9D7E83",
"Q. c #8A8684",
"!. c #958D89",
"~. c #9B9A9B",
"^. c #AC9E9C",
"/. c #B2A39A",
"(. c #AE9FA3",
"). c #B2A3A5",
"_. c #D69E9F",
"`. c #DDB7B9",
/* pixels */
"= & 7 3 @ ; 7 2 3 I ) X.} * _ Q 1 K | ^ 1 V * F U 3 = 8 Y 0 > > u g d u i p d d 1 } } X.} % ] C B ) ) ) < 1 * U G D - - F N = & ",
"8 Z 3 7 = - D 2 2 1 1 } o.I B % R F Z P K 3 % R G 2 k t ; 8 5 :.V.V.:.:.V.V.V.:.T - 8  .| Q 4 1 _ ] o.#.| 1 * G G 2 = = D & % Z ",
"& 3 K 8 N - = = 2 - 3 3 3 3 * 8 - ; - D % - - & 0 6 u :.:.T.T.R.Q.W.R.Q.Q.R.G.R.R.>.R.R.F.V.*.M.i f 1 B * 2 8 9 8 7 $ 2 9 7 ; D ",
"U K R 8 H N - - * # 8 3 & 8 G - = D - = F P D 9 6 j S.S.E./.!.~.~.~.~.~.!.Q.Q.R.Q.!.W.W.J.J.U.J.M.c.~ ~ x , 2 = * = 2 9 7 8 8 D ",
"} G 3 < D U 3 D 8 = - - - # $ $ ; = - 8 % R J : F.F.D.H._.^././.(.(.(.(.(.).).).(.).^._.`.`.`._.K.B.v.8.8.p , 2 & 3 8 L = * 8 P ",
"F 3 3 2 A F 3 J k ~ : > 6 k 6 e : : , , , k n Z.Z.M.b b N.N.C.D.F.F.F.F.F.F.F.F.D.F.D.D.J.F.H.H.8.q.p.3.2.7.m i , 2 q Q U N < P ",
"3 D J K F 1 Q l s d.d.d.y.c.y.y.y.f.B.B.f.B.f.h.u.9.0.9.7.8.r.r.8.t.t.8.y.q.q.y.y.e.r.r.d.d.p.n.d.b.a.m.6.i.i.e.m i d Q U 3 < * ",
"3 2 2 1 Q : c.f.g.h.m.m.B.U.U.I.Y.P.l.k.k.l.k.z.j.l.a.g.d.d.l.l.g.f.d.g.h.a.L.Y.Y.Y.P.I.P.n.n.U.h.n.m.m.n.s.m.s.h.e.m f J 1 8 K ",
"T % 4 f i c.g.m.x.g.q.8.M t.y.L.m.P.z.z.j.z.k.k.k.l.l.l.l.l.z.z.l.l.h.h.l.l.l.L.L.L.f.x.m.n.n.B.0.b b w.9.n.m.h.k.g.9.t.f * P F ",
"R ! d M.f.g.l.s.<.7.y . . o v t.b.n.j.j.j.z.x.z.l.l.n.n.l.l.z.z.l.s.a.u.4.4.4.u.0.u.u.u.6.n.U.v.p O .   v 7.b.h.k.L.L.7.f R F N ",
"L k ( 9.k.z.n.r.z + h c r c c c c c c c c 3.1.1.3.9.2.2.0.u.2.1.4.3.u.3.2.3.3.3.3.2.1.3.3.r.8.j h   ! + x O s n.m.j.b.t.d L % N ",
"3 k v ,.a.s.p.z O %.  c c c c c c c c c c c c c 2.u.2.2.2.2.2.2.1.3.3.p.3.3.3.1.<.u.3.2.r.v.o %.. X %.r 5 *.y v.n.n.p.t., 3 Z - ",
"2 , d p r.q.q.a r $.c c c c c c c c c c c c c c A.A.A.A.4.3.1.3.3.3.a.6.6.5.5.5.a.5.5.a.A.A.A.A.A.A.A.A.A.A.j v b.b.y.( , 1 q I ",
"T q ~ O s r.b a c c c c c c &.&.&.c c c c c c c c A.A.A.A.A.A.A.A.a.a.a.6.6.s.a.1.a.A.A.A.( &.A.A.&.&.&.A.A.A.a 8.q.m i 4 B 4 @.",
"= = 5 u s r.8.c c c c c c c c &.&.&.c c c c c c c A.c A.A.&.A.A.A.A.A.A.A.3.2.2.A.A.A.A.A.A.A.c e A.&.A.&.&.A.( A.n ~ 4 K o.#.#.",
"- 3 2 : m z c c c c c M.( &.&.c c &.&.( c c c c c c c c &.&.A.&.&.&.A.A.A.A.A.A.A.A.A.A.A.A.A.c e A.&.&.&.&.M.A.A.A.4 Q _ _ #.C ",
"- P 3 2 > c c c c c c c c &.&.&.&.&.&.&.&.&.c c c c c c &.&.&.&.A.A.A.A.A.A.A.A.A.A.A.A.A.A.A.A.c e &.&.&.&.&.&.&.&.A.A.[ ' ' < ",
"Z J < 3 Z c c c c c c c c &.&.&.&.c c &.&.&.c c c c c c c c &.A.A.&.&.&.&.A.A.A.A.A.A.A.A.&.A.A.A.c &.&.w w w &.&.c c e e c 1 Z ",
"Z Z Z K c c c c c &.c c c c &.&.c c &.&.&.c c c c c c c c c c &.&.&.&.&.A.A.&.&.A.A.A.A.&.A.A.&.&.&.&.&.&.&.&.&.c c c e X X X 3 ",
"Z 3 1 T c c c c c c &.&.&.&.&.&.&.&.&.&.&.&.&.&.&.c c c &.&.c &.&.&.&.&.A.&.&.A.A.&.&.&.&.A.A.&.&.&.&.&.&.c c &.c c e e e X e 3 ",
"F 3 3 c c c c c c &.&.&.&.&.&.&.&.&.&.&.&.&.&.&.&.c c c c &.&.&.&.&.&.&.&.&.&.A.A.A.&.&.&.&.A.A.&.&.&.&.&.&.c c c e e e e w e 3 ",
"P P Z c c c c c &.&.&.&.c c c &.&.&.c c &.&.&.c c c c c c &.&.&.&.&.&.&.&.&.&.&.A.&.&.&.&.&.&.&.&.&.&.&.&.&.c c c e e e e w e ; ",
"P P c c c c c c c c c c c &.&.&.&.c c &.&.&.&.c &.c c c &.&.&.&.&.&.&.&.&.&.&.&.A.&.&.&.&.&.&.&.&.&.&.&.c &.&.c c e e e e w e = ",
"& H c c c c c c c c c c &.&.&.&.&.&.&.&.&.&.&.&.&.c c &.&.c &.&.&.&.&.&.&.&.&.&.&.&.&.&.&.&.&.&.&.&.&.&.c c c c e e e w w w e 8 ",
"* c c c e e c c c c c &.&.&.&.&.&.&.&.&.&.&.&.&.c c c c c c &.&.&.&.&.&.&.&.&.&.&.&.&.&.&.&.&.&.c c &.c c c e e e e e e e e 3 = ",
"Z e c e e c c c c c &.&.&.c &.&.&.&.c &.&.&.&.&.&.&.c c &.&.&.&.&.&.&.&.&.&.&.&.&.&.&.&.&.&.&.&.&.c c e e e e e e e e e e 3 P Z ",
"9 e e e c c c c c c &.&.c &.&.&.&.c c &.&.&.c c &.c c c c c &.&.&.&.&.&.&.&.&.&.&.&.&.&.&.c &.c c e e e e .. .A | U Z B 1 K P 1 ",
"8 e e e c e e c c c c c c &.&.&.c c &.&.&.&.&.c c c c c c &.&.&.&.&.&.&.&.&.&.&.&.&.&.&.&.c c c e e & 1 D { ' I { A * U K P 3 & ",
"1 & e e e e e c c c c c c &.&.&.&.&.&.&.&.&.&.&.&.c c c c c &.&.&.&.&.&.&.&.&.&.&.&.&.c M.( c c e % Z * * * % Z 1 < 1 = 3 9 * - ",
"3 = * e e e e c e e c c &.&.&.&.&.&.&.&.&.&.&.&.c c c c &.&.&.c &.&.&.&.&.&.&.&.&.c &.&.c c c c R P 3 % 3 Z Z * < 3 D 3 3 3 = = ",
"8 - = D e e c e e c c &.&.&.c &.c c &.c c &.&.c c e c c &.c c c &.&.&.&.&.&.c &.&.c c &.c c c 8 & Z % O.{ < * 3 3 * = 8 8 = 3 8 ",
"= D - = % e e e e c &.&.&.c c c c &.&.c c &.c c e e e c c c c &.&.&.c &.&.&.c c &.&.c c c c T P Z V 3 I { 1 Z % T 9 3 T 0 ; 7 $ ",
"& 8 3 = % e e e e c c c c c c c c &.&.c c c c c e e e e e c c ( c c c &.&.&.&.c &.&.c c ' 1 { I 1 _ _ _ * < 1 J G 3 8 8 Y ; - = ",
"G G 8 = 8 = e e e c c c c c c c c &.c c e c c r e e e e e e e c c c &.&.c &.c c c c c ` +.K Z % [ ` O.+.] * * P P 8 ; $ 7 ; 7 8 ",
"G H 3 = & # r e e e c c e c c e c c c e e e e e e e & 3 G 3 e e e e c c c &.c c c c % % * * * Z = < Z 1 Z * 3 3 8 ; 8 8 D 3 % 3 ",
"G P D = - D ; w e e c e e c c e e e e e e e e 0 8 3 Z * 1 B D X X e e c c c c c c c Z & & = - D = P = 8 3 * T 7 3 3 7 = 3 3 3 G ",
"T K * & 8 9 D X w e e e c c e = = - & ; = 8 $ Z T J D _ B * #.X X X e e e e e e c c D D ; = ; = 8 8 G 8 3 | J D 3 2 3 3 8 8 3 J ",
"J 3 % D R G X X w e e e e e = D 8 D T T T 8 = & # U A I ] < * X X X X X X e e e e c w G ; = - 0 3 = ..3 & ;.3 < 3 & # = = 3 3 T ",
"3 1 Z F T H X X w e e e = Z = 3 Z F F 3 3 % < % 1 3 Z ` { - X X X X X X X w w e e c c w % 8 = 8 < I / ..I A A V 1 3 3 3 3 3 < 3 ",
"3 1 - 3 3 = X X w e e w 1 * 3 1 A S 3 % Z 3 D U P % 3 * 3 & X X X X X X R ; w w w e e w w - T { =._ C [ A C S ^ .. .R 3 # 8 8 T ",
"< Z G 3 9 - X X w w e w D B 3 3 N % * 3 = T P H G 3 J * * X X X X X X +.F * * Z w w w e w Z 8 3 A +._ C S S ^ #.I 1 3 3 3 7 Y T ",
" .J U 3 % T P X X w w w S * 1 O.+.O.) Z 3 D ; T R D 3 * I X X X X X S o.* B & K K w w w w w R * B B [ ] C < ' J < 3 3 = = 8 G 8 ",
"} R & D T T 3 X X w w w w * [ ) o.` I Z % * - & D P 3 1 =.X X X X X ` A J =.-.' * * w w w w & Z 3 1 T K I * 3 3 3 8 = $ 9 3 2 3 ",
"&  .* = - - % 3 X X w w w w F [ } I * < R T 3 = Z < 3 * ` X X X % S +.S 1 * 3 & Z * * w w w w K G 3 & 3 Z 3 & 8 8 P 8 3 3 3 & Z ",
"* * Z 8 = = % & Z / w w w w D ' 3 3 * Z K * % Z ) | ` * B X X X * * U J % 3 % * * % G O.w w w T D 7 8 8 3 8 = 7 = P T 8 1 8 * I ",
"=.D Z P D & 3 = % * T { Z 3 | { Z % Z 3 & & ' ;.+._ _ 1 1 _ ;.| +.B & - N * = 8 & & N I { J ` 3 3 3 8 ; T 8 7 = 3 8 P P * * S +.",
"* * 3 J G 3 8 3 & 3 * T R < % 1 ) ' D * < & % = Z % Z < [ O.O.T 3 - G & = = 9 T 3 = % = T T 3 8 = & 3 D P 3 J = = = 3 K 1 Z [ #.",
"Z & 3 Z P P = 8 3 D = % 3 D 3 F } +.+.` * * 8 3 P K K 1 3 3 < 3 * * & = 7 8 - Y P 3 & * 3 % 3 % < < 1 T T & 7 8 # 8 3 3 * A #.C ",
"Z D B Z % 8 3 D % = = D ; D ; = = - & & 3 & 3 P K 3 3 3 3 = Z 1 3 G 3 3 * % D * K * B [ 3 - ; = 3 3 3 8 G Z 8 ; 7 = 8 P 3 J { < ",
"% U * K P R = = = 3 - 8 - - $ = $ 8 8 8 @ & D 3 3 K & * 8 3 8 3 3 P H - 8 T { * B * ` o.1 & = 8 3 T 3 * 3 9 T D 8 3 G P 1 J 3 3 ",
"S * B } { * 3 8 G G T ; 8 = = 3 $ = 0 $ = - = R = P R 3 * N = 8 J Z P P = & U { S B o.U B 3 = & 3 T K 9 3 8 ` 1 * R K P 1 3 3 3 ",
"B B < 3 B * 3 K G Z Z % 3 3 8 - 8 8 = & $ Z U K = G D 8 * * R = 1 1 B Z & Z 3 =.) S ' Z Z Z 3 = 3 8 J F < I ;.^ 1 F < Z < # * & ",
"+.+.o.< * * Z * Z = & = G P P N 8 = ; 8 D = F ` Z & P % Z J T Z o.I 3 * R K < * ` S A D ` / T = 3 = 8 K 1 S O.O.1 * 1 < & - 3 D ",
"+._ U [ B [ { =.+.{ J % & 3 K P 8 = % T & *  .1 1 & * Z ) U K * o.;.Z K % {  .K Z D A S K Z N ; = 3 3 < 1 < C O.* C [ =.{ T G 8 ",
"S ` [ A B J I / % = * * & Z 8 G P 8 = P T Z 3 & B * * Z / { 3 * ' ^ I A 3 1 =. .K P Z F Z & * = $ 8 3 3 A I A ] S ] ] O.K * 9 8 ",
"% S ) * % F ` * * 1 3 3 & & 3 3 3 3 1 K / Z % 3 ` ' ..` 3 3 1 1 ` A B * 3 3 3 3 P K 3 1 - = 3 = = R P  .#.+.` A C I I K - 8 # ; ",
"* 1 3 K J 3 % &  .{ P 3 = & 8 3 & F 1 * [ { * ' +.o.A * Z B < N * K * Z * @ 8 3 8 T D & 3 8 3 & 8 3 9 3 1 D R J * < 3 3 3 # = 8 ",
"1 { +.` 3 * 3 { P P = G % & 3 { 8 % * 1 Z * < ' +.* % | ` J I * Z { Z & = & - 3 - D ; % 8 3 0 & $ * - 3 8 7 3 & = % 8 3 3 3 G 8 ",
"J / K 3 3 F % 3 = G 8 G 3 & = { / 1 Z K ^ +...S N * | +...+.^ * D } 3 # = 8 3 = 3 = = = = 8 P 8 3 1 & & 8 & $ 8 Y # ; = 8 9 P = ",
"& - 3 3 Z D = D 3 - D % = = D  .{ B F =.;.[ ) ' * 1 ` K ' ` Z = Z D 3 * 8 G = 3 = = 3 D = D D R & 3 3 = = = 0 T E 7 = ; 8 8 8 = ",
"D 3 D D D - 3 = 8 D 8 3 % & Z { Z Z * P / o.| ) I Z Z J { 1 3 = D - 3 = 3 P 8 3 3 % D - 3 3 3 T 1 3 3 < & = T G L 8 ; = 8 2 = = ",
"3 - G D = 3 T T 3 D D 3 = & - * * < = K * * B Z % * 3 Z Z % = & ; ; D = & P D 3 8 * R = 3 3 3 3 G < 3 8 8 3 P 8 = 8 3 * 8 = & 7 ",
"8 3 = = & * D G 3 = - 3 & Z R * 3 * N ` { & * * B * % * 8 - & 8 - 8 3 % & K K D * Z P G & 3 P 1 J 3 3 / { 3 3 1 3 3 = 3 8 = 3 ; ",
"= 3 & Z = 3 3 T Z = 3 { % * J P 3 D D K  .* 3 3 K 1 3 P W = $ - 8 0 7 = & 3 1 U 3 * * ..& * T J & 8 J P { 1 3 < P < 3 L R = * - "
};
