/* XPM */
static char *_92883b5a3c448a2e045ee422d34decamRjMzaM0CIoc1wRY[] = {
/* columns rows colors chars-per-pixel */
"64 64 44 1 ",
"  c #090A14",
". c #1E3616",
"X c #1F3616",
"o c #1E3716",
"O c #1F3716",
"+ c #1E3617",
"@ c #1F3717",
"# c #263A16",
"$ c #273A16",
"% c #263B16",
"& c #273B16",
"* c #263A17",
"= c #263B17",
"- c #241526",
"; c #241527",
": c #341C26",
"> c #341C27",
", c #351C27",
"< c #341D27",
"1 c #4C2A32",
"2 c #4C2B32",
"3 c #4D2B32",
"4 c #4D2A33",
"5 c #4D2B33",
"6 c #2C4317",
"7 c #2D4317",
"8 c #354D1A",
"9 c #344C1B",
"0 c #354C1B",
"q c #344D1B",
"w c #354D1B",
"e c #5E761F",
"r c #5F761F",
"t c #5F771F",
"y c #476920",
"u c #466821",
"i c #476821",
"p c #466921",
"a c #476921",
"s c #7A4840",
"d c #7A4841",
"f c #7A4941",
"g c #AD7657",
"h c #AD7757",
/* pixels */
"X%%%%%%%%9uru%u9%9yy%%%qq%%%q%XXo%%%X%%%&upeu%uq&pyy%%%9q%%%9#..",
"%%%%oX%%%%%ur9%%9999q%%qq%%%XXX%%q%%+X%9q%%yeq%&ppeeu%%9q%..%#.#",
"%%9%=XoX.%%%%%%%%%%%%%%%%%XXXX==qqXXX%%%%%%%=&%q&&=&%%%#%..%%%##",
"999%q==%..%%XX%%X%%%%q%%%%%oXXquqqX%%%%%%%%%q&%q%&qq9%%#X#%%%%%9",
"u9%%99%%%XXXXXXXXX%%%qq&%%%%Xurr99XX%999%%%%r%qq%qq%%o..X%%q%%%9",
"9%%%%9%q99X%X%XXXX%%%qq&%%q%%%%u9%%XX%%9q&%ueqq%&q%%&o.#%%%q9%%q",
"%%999%9q%XXX%%%XX%%%q%qq%%u%%X%%%%%XXXX%&q=uru%%%%%%ooo.%%%9q%%%",
"%%%%9%==X+%%%9%%%%%Xy%==%ru%%%%%%%XXXXXo&==quq%%%%%%ooo#%q%%q%%q",
"q%%%%%%%X%==qq%%%%%Xyr&=ur9%%%qq9%%o%%%9ereu99%queeXXXX%%q====qq",
"qq%%%%XXX%==qq%%qqqqurqquq=%%%%qu9%%o%%%%9uuy9uuq%%XX%%%%qq==qq&",
"qqq%XXX%%9%=q%%%%%qqqueqq=%%%%%%u9%%%%%%%%%qu9%%%XXX%%%%%%99%q&&",
"%%%%%%%%%uu=%%qqq%%qqqeqquuuq%%%=u%%&q%%%%&=%%XXXXX%%%9q9%%9%%&&",
"%%%%q99%%urq%qqq%%%%#999yu8=%%%q==&%qq%%%%==&&o%%%XX9uuerq%%%%%q",
"q%%%%%9q%%rr%qq%%%oo.###====%%qqq=&qq#%%uerr%&%%q9%XX%%urr%&%%qe",
"%.%#X%%%%%qyqq%%%%%%oX.#%&=&%999=O%q9%%%qyeuy%%Xqr%%%o%%qyy=qeee",
"%%%.X%%qrrqqqueru9%%9%#ooO=&%%%%=&%q##q%qqyuqy%qrr%%%%uyq%=qyurq",
"%9%%%%%%%uu9urru%XXX99oXo%%XX%%%$q%%&qq&&&quq=&yuu==9ury%%%uuyu%",
"%9%%%qqq%%9%uu9%XX%%X99%o%%%#%%%%9%%qqq=&==yy&9yq=&=rruqqq%99q%%",
"9%%q%%qq9%%%q=oXX%%%%%%%o%==#%%%q$%qq%==&&==qq9&==&&%9qq%%%%%%%%",
"%%%q9%%XX%%%=o%%%q9%%%9%o&=q9%9%&&%%%%ttey==&2222222333&#..%%%%%",
"q&==q%%%X%X%9%%%%%qq9%u%%99=%%9%rqo%=yqeyq=2555522333333hhhh%%%%",
"qq&=%%%%%%XXuq%%%%&&9%ur%9==%%q%rrq%yqyyq=225355223333335hhhgggg",
"qq==999%9u9Xqq%uq%====qe%%qrq%%%yyyq=yy&33225ddd233333335h2hhsgg",
"#q=999%%%qu9XX9q%%qyeeqq%qeq%%%%y9y9=&&3332233dds23333335522sshs",
"#%%%%%%%%%%qqXXX%qq&qrr9%yy%%%%%q9qq%%3355ddds33ssd335553333ddss",
"#u%%%%%%XXXXXX%Xo%%%%qyq%%%%%%%%%qq%%3335535ssdsssssd555333333sg",
"6u%qq%%%9qXXXX%qX%%%%%%%%%%%%%%%qq%q%3332353sssd33ssd3553333333d",
"&%%&99%%%qqq%%%qqooo%%%%%%%%%%%X%q%q3333d5533ds33ddd33223333dd3s",
"%%%%#9%%XX%%%%%q9%%%%o%%%XXXXXXX%%%933333dsdddddddddsssd55553dss",
"%%%%%#%XX%%%%%%%9%%%%oXoXXX%qXXX%%%33333dsdddddfdsddsssd35555dss",
"%%%%...9%qqq#%9%%%%99%%%%%%qq%X%%%%3333dddd333ddd33dss333325dddd",
"%%%o.%%%%%qu9%9q%%99y%%%9%%9qXXX%%3333335533dddd33dddd3d333dd3dd",
"o##.o%%&%yueu%u9%uuu%%%9q%%%q=ooX=133333553sssdddddddsdd333333ds",
"%9##oo%q%=que9%%uurru%%9q%%%=Xo&=233>>3353ddssddddddddd35533ddss",
"99%#oo%qq=XX%u%qqte%XX#9%%%%&&==q,2<>3333ddd3ssdd3dddssdd55533ss",
"q9%o%%%%%&Xqqqqquy%XXX#%%%%&&&qyq,<<33313ss5dssd33ddd33d35555sss",
"qq%%%%q%%%eey%qX%#..o%o%qqqu%%eeq>>>3>>35555dss35ddddd3355225sss",
"q%%%qq%%%yyq%&%%%%99q%oo%qqqu%&yq%>>>>,35555dssssddddddd255ddd3d",
"%%%qqq&&&===%%%%%99#%ooO%%&uu%&&%9%>>>,3>>3ddddsddddddd5225d523d",
"%%%%%&OO&qqq%%%&99##&&qqqO%%OO%&%q%y>>3,:3ddd3d33d33dd332,5552dd",
"%%q%%#%.&%%qq===%%%%%qqqq%q%%qe&%%%r9>>>>dds3333dd22d211,,::22s2",
"u9q%%q9.&&%%q&=erru%%%%qq%%%qre&yyqr%>>>>1213333sd222211,,:>,222",
"yq%%99%.&eqX%%yyruq%%%ooqq%%ru=&uruq9e>>>2553311s322>51:,,,>>>,,",
"%u%%%%..=erq%uqyu9%%qq%o%%%%uq===qrq%%%>>>55>31>332>>>:%=q&>>,,,",
"%%%%%XXX%yyu==qu%%%%qXXqyyy%%%%%==99%X;>>>2<<31>,:>>>>o%&qq&&&%q",
"r%q9%XXXo%qyq=uy%%%%XXyreuu%%yerr&%%X->>>><<33>>,#%%q%%oo&qq&&qe",
"%X%99%%%o%%qq&==uu9XXX%%&&%&ureq&X%%-;>>>>>;;  %XX%9q%%%o%%q&&ee",
"%%%%99%%%%%&&&=queeu%%%%qqq===%%&%XX-::;;;o    #X%%9q%%%XX%%&qeq",
"%q%%%%%%XX%%%%%XXoX...%99%%%%%%%%9%;;:;;q==    X%%%%q&&&&O#q#qu#",
"%q%qqq%%XXo%%XXXX%%...%*=q%%%%%%%99;;;;%==u    %%9%%&=q&%%qq%q%-",
"q%%uu%%%q99%X%XXXX%*X%%9%qq%%%%%9%q;;;;yq&rq    =q9%=qy=%qqq%%%-",
"%%%%%%%qq%%X%%%%%XXXX%99%%9%%%q&%%%;;;%ryquq     =99=qey%q&&Xoo-",
"rru===%%%%%X999%%%o%%%9uXXq&=qq&rq%%qq%%yqq=u    =%q%qee%%==%%%;",
"tuuu=yyreu%XX%99%%o9%%u#==&=yqq&rrqq%yyq=qqqq%%%X=%%%%qe%qyryqq%",
"quuq=99uX%%Xo%%q9%o99%%#====yy=&uuq%&%ryqq=q%%%XX=&%qqqyqyruq%%%",
"Xqy%%9uoX%%%oo%%%%%9u%%%uuey====uq%%%&=&qq&&%XXX=qqueeyqqqqq%%XX",
"%%699##%uuq&%o%%%%%%yi%ittq=%%%#=q%%o.#%%9%%%%%X%%%%%q99XX%%XXX%",
"%ueu%##uqq&qoo%y%%%%%%%it=ouu99%=y%%#..%%%%X%%%%XX%%%%XXXX%%%%q%",
"6u6%%%%%===&%X%yu%&qitt9%%ueeeu%qy=o.#..%%XXX%q%%XX%%XX%qXX%%%q%",
"%%%666%%=66&X%%uu&qttiii%%u9uu%X==&%%9%.XXX%%%99%%XXXX%9q%XX%%%X",
"%%66%%%%%66XX.#u%%%qyruuq%99u%%X%%%X%9%%%Xq%%%%q%%%X%%q9q%%X%%%X",
"%%9%%%qq%%9XX%#%%%%%%%%%#.%%%%%X%%%X%99%%%q%%%%%q%%%==9%%%%X%%XX",
"##%%X%%9%%%%.#9%%%%uu%%%%%%%%%X%%%%XXq%q%%qqX%q%%%%uu===%%%%%%X%",
"###%X%%9%%%u.%99%%qqu%%%9%%9qXXX%%XXX%%q%%%uX%qq%%qqy===9%%qqXXX"
};
