/* XPM */
static char *_626_e0ba3e719c9eb0626246f4fc13c7aecd804654450253250396489d5cba9b6768[] = {
/* columns rows colors chars-per-pixel */
"64 64 57 1 ",
"  c #090A14",
". c #1E3616",
"X c #1F3616",
"o c #1E3716",
"O c #1F3716",
"+ c #1E3617",
"@ c #1F3617",
"# c #1E3717",
"$ c #1F3717",
"% c #263A16",
"& c #273A16",
"* c #263B16",
"= c #273B16",
"- c #263A17",
"; c #273A17",
": c #263B17",
"> c #273B17",
", c #241526",
"< c #241527",
"1 c #251527",
"2 c #341C26",
"3 c #341C27",
"4 c #351C27",
"5 c #341D27",
"6 c #4C2A32",
"7 c #4D2A32",
"8 c #4C2B32",
"9 c #4D2B32",
"0 c #4D2B33",
"q c #2D4316",
"w c #2D4217",
"e c #2C4317",
"r c #2D4317",
"t c #344C1A",
"y c #354C1A",
"u c #344D1A",
"i c #354D1A",
"p c #344C1B",
"a c #354C1B",
"s c #344D1B",
"d c #354D1B",
"f c #5F761E",
"g c #5E761F",
"h c #5F761F",
"j c #5F771F",
"k c #476920",
"l c #476821",
"z c #466921",
"x c #476921",
"c c #7A4840",
"v c #7A4841",
"b c #7B4841",
"n c #7A4941",
"m c #AD7756",
"M c #AD7657",
"N c #AC7757",
"B c #AD7757",
/* pixels */
"X**XX=***plhx*xu*slx=:*ss***s*OX@**XX:***xxhz*xs*xxx*:*ds***d:XX",
"*=*%OX*****lhs**sssss**ss***XXX**d=%.X*ss*=xhs**lxhhx**ss*XX%XX*",
"**s**@.X@*****************.XXX**dsX@X:***%**%**s***:*****XX***%*",
"ssd*s:**.X=*XX:*X***:s*****X.XsxssX*******%*s**s==sss***X@*****s",
"xs**ss**:XXOXXXXXX***ss*****XxhhssXX*sss****h*su*ss**.XXX*%s*=*s",
"s%*=*s*pdsXOX*XXXX***ds***s**X*xs**X+*%ss**xhss**s***XX****sp**s",
"**ssu=ss*X.X=**XX%**u*ss**x**X**%**.XXX*%s*xhx*=****XXXX=**us%**",
"**:=s***X@***d****XXx****hx******%XXXXXO**%sxs**%***@XXX*s**s**s",
"s**:****X***ps**%**Xxh:*xhs*%*sss*%XX**shghxus*sxhhXXXX*:s:***sp",
"ss**=*XXX**=ss**ssssxhssxp-=***pxs**X****ixxxskxs**XX:*:*ss=*ss*",
"sss*XX.=*s**s:*=*%sssxhss*****=*xs***:*****axs***XXX*=****ss*s*%",
"******%**kx:**sds:*ssshssxxxs:***x***d********XXOXO***ssd**s****",
"%:**sss:*xfs*sss****:ssszxs**%*s***:sp******:*X***$Xsxxhhs**%**s",
"s*****ds**hh*ss***XX.*******%*sps:*ss*=*xhhh**X*ss*XX*%xhh****sh",
"*X*XO%****sxss****=*X+$****=*sds*X*ss***sxhxx%*Xsh**XX*=sxx*shhf",
"***XX%*shjsdsxfhxp*%s*XXXXO*-:**:**u**s*pskxsx*shh****kxp**sxxhs",
"*s*:**%*%xxsxhhl*XXXpsXXO=XXX=***d**:sp***sxs**xkx*:sxhl***xxxz*",
"*s**%ssd**s%xxu*XX**Xss*X*=******s**sps%%**kx*slp***hhxsss*sss**",
"s**s**ssd***s*..X*****=*X*******s**ss*******uss*****=usp**:*%***",
"***ss%*OX=***XX**ss&**s*X9999999999**%hhhx***:********:OXXX*****",
"NBBBs*%*X@X*s**%**ssBBBB9999999999999xsjxs****=sss**x*XX**s*:&**",
"BvvBBB****XXxs*BBBBBBBB999999999999909xxs****XOXsxs*zh**pxs**su*",
"9BBBBBBBsxsBBBBBBBnBB9B09999999vcv999999**uss*:X**u*xhx*xs*-ss**",
"9BBBBBBBBBBBBBvvvMnv9999999999vvv99999999xs***XX*%*=*sxXz***=**=",
"mBBBBBBBBBBBBBMBvvvv99999999vvv99vvvv99999XX**X*X%:x**ssXxhxx***",
"BBvBBBBBBBBcvvvmBv99999999vvvvvvvvv99999999XXXXXX*lhhxssxgk%**s*",
"vBBvBBBBvvBBvvvvv999999989vvv99vvvv99999997XXXX***:slhxsxz***su*",
"vBBvvvvBBnvBnvvvv9vv9999999vvv99vv9099v99988XXXi*****xxsx**dss*X",
"BBvvvvBBBvncvvvvvvv8999vvvvvvvvvvvvvvv999999&XXus**************X",
"vvvvvvvBvvbvvvvvvvv9990vvvvcbvvvvvvvvvv999999***ss*******=****O$",
"vvvvvvvBvnvvvvvvvvvv99999vvv99vnv999vvcv98999*s***%xx***::*%**X*",
"vvvvvvnvvvvvvvvvvb9vv99v9vvvv99vvvv99999799999ps>*ssx***s**ssXXX",
"vvvvvvvcvvvvvvvvvv99999vvvvvvvvvvvvv9999999999xs*xxz***su*:*s*XX",
"vvvvvvvvvvvnvvvvvvvv9999vvvvvvvcvvvvv9999933999*xxhgx**sp*XX:XX*",
"9v9vvvvvvvvvvvvvvv9999vvvvvvv9vvvv9vvv999993393=**=**%**********",
"999vvvvvbvvvvvvvvvv9999v99vvv70vvbv9vv999999333***=*:%s**X*****s",
"99vv9vvvvvvvvvnvvnv999999vvvnv80vvv999999339333***s*%xs**.X****s",
"9999vv9vvvvvvvvvv9vvv99vvvvvvvvvvvv09779934333@*>*x**j**:*XX=**d",
":990v99vv9nvvvvvv909v999vvvvvvvvvvvv992393333X**:uxhsss*=*%*X***",
"**9999vv99vnvv9vvv9999299vv99v97v9vbb9933933.*sxhlpxsssxhxs*@**s",
"**s*99vv9vvvvn999v69393399v99vv9999vvv93333s*:**shzpupxhs***$*ss",
"xss**99999v99vv99939333399999vv989999993333x:ss**sxxs*ls%*:OX*s*",
"zu**us9999v9999993333333399399v98999999333*xss**:*ssu**:**..***=",
"*x****X9809933335333ss*X*43330993993993343>*us*ss=*******s*:=*:*",
"**:**XXX<99333  ****sXXsxzx3333337922932<*sx**zu%**=*:OX*ss**>*s",
"h:ss*@X<<933<   ****XXxhhzl**lhhh3993333<X*sxsx**X**s*:@X*ss*=sh",
"*X*ss%*<933<    xxdXXXX:****xhhy   <<333<<@*ps**XX*ts***X:*s**hh",
"***=ss%<33<<   sxhhx****sss*****    <<35<<X****OX**ss***.X***sju",
"*u***= <<<<  **X@OXXXX*su***%**     *<,331:x**XX**%*s**%*X*s:sx*",
"*s*ss  <<< :XX@XX*%OX@*:*s***      *=s<<<<xh=*@**s****s***ss*s**",
"d**kx <,<<s*X*XXX.*XX**p*sa*      ss**<<<<hs*:XO*ps=*sx:=uss**%*",
"******<<<<*o*=***XX@X*ss:*s*     %***<<<<<xs***X**ss=sfx=s**XXXX",
"hhx***<<<**.sss***X***sxXXs*%ss*hs**s<<<<ss=xxsX.*%s*sgh*****-**",
"hxxx*lzfhx*XX*ss>*Xs*:x***=*xss%hhss*xxs=ssss***X%:*%:sh*sxhxps*",
"sxxs*suxX**XX:*ss%Xus*X.::**xx**xks***hxss*s%%*XX***sssxsxhxs*=*",
"XslXXsxXX:**XX=;***sx=*%xxhx:***xs*****%ss***XXX*ssxhhxsssds**XX",
"*=rsp:XXxxs*%X*****=xx*xhhs******s=*XX*%*s*****X*****spsX.**X@X*",
"*xhx***xss*dX@%x*****%%xh=Xxzss**x**XXX***=X****XX%***X@XX****s*",
"rxq:********:X*xx*%sxhhs**xghhx*sx*+X*XO%*XXX%s**XX**XO*dXX***s*",
"***rrr***rr*XO*xk*shhxxx**xsxx*X*=*X*s*#XXX***ss**X+XX*ss*XX*:*+",
"**wr=****reXX.*x**:dxhxxs*dyx**X***X*d%**Xs***>p***XX*ssd%=X***O",
"*&s*=*pu**sXX****%******XX*:**XX***X*ss*%*s*****s**%**s****X**XX",
"*%=*X**s****X%s**==xx**=**%*=%X=***XXs*s**ssX*s****kk*****=***X*",
"=*XXX**s***xX%sp**ssx***s%*ss@XX%*XOX**p***xX*ss**sax***s>*spXXX"
};
