/* XPM */
static char *_515_98838f98a3575c78d255e9b81bebf4d1376962c4c1559c3ae541ebf0ad2025fe[] = {
/* columns rows colors chars-per-pixel */
"64 64 55 1 ",
"  c #080A14",
". c #090A14",
"X c #090B14",
"o c #090A15",
"O c #1E3616",
"+ c #1F3616",
"@ c #1E3716",
"# c #1F3716",
"$ c #1E3617",
"% c #1F3617",
"& c #1F3717",
"* c #263A16",
"= c #273A16",
"- c #263B16",
"; c #273B16",
": c #263A17",
"> c #263B17",
", c #273B17",
"< c #241427",
"1 c #241527",
"2 c #251527",
"3 c #341C27",
"4 c #351C27",
"5 c #341D27",
"6 c #4D2A32",
"7 c #4C2B32",
"8 c #4D2B32",
"9 c #4C2B33",
"0 c #4D2B33",
"q c #2D4217",
"w c #2C4317",
"e c #2D4317",
"r c #344C1A",
"t c #354C1A",
"y c #344D1A",
"u c #354D1A",
"i c #344C1B",
"p c #354C1B",
"a c #344D1B",
"s c #354D1B",
"d c #5F761E",
"f c #5E761F",
"g c #5F761F",
"h c #5F771F",
"j c #466820",
"k c #476820",
"l c #476920",
"z c #466821",
"x c #476821",
"c c #466921",
"v c #476921",
"b c #7A4840",
"n c #7A4841",
"m c #7B4841",
"M c #7A4941",
/* pixels */
"#--%+>*--izgx-vy-axv->-aa;--a-+%%--++>---cvfc-va-clv->-sa---s-#+",
"-;*-#+-----xga--aaaaa--aa--;+++--s;:@#-aa--vga--vvggv--ia*%+-++-",
"--a-*+OO%---------->-->;>-++++>-sa+%#----*--=--a--->-----++-----",
"ias-a---$+--++>-+----a----*+++avaa+-------*-a--a;-aaa>;-%O>----a",
"ca--aa---+++++++++---aa-----+vggaa++-aay----g*ss*aa--+#++--a---a",
"a=---a-ias+##-++++---sa-;-a-;+-va--++-*ay--vfsa--a---++----aa--a",
"-;aay;aa-#O+;>-++---a-ay--v--+--*--O+++;-a*vgv------++++->-aa---",
"----a>--+O;--a----++v----gv------*++++++--*ava>-----+%++>a-*a--a",
"a*->----+--;ia-*---+vg--vga-;-usa--++--agggvya-avgg++++--a----ai",
"aa----+++---aa--aaasvgaava*;-;-ils--+----avvvavva--++--->ai--aa-",
"saa-++#--a-;a>-;--aasvgay->-----xa--->->---tva---+++->---*aa-a-*",
"---------vv-*-aay>-aasgaavvva>>--v-;-a-**-----+++++---aaa--a--;-",
"*,--yaa--vda-aaa;-->-aaacva----a*---aa--->-;>-#---&+avvgga--*--a",
"a---*-ai--gg-aa--*++O------*--aaa--aa-;-vgff--+-aa-++-*vgg>---ag",
"-+-++-----axaa------+O+--->--asi-+;aa---avgvv--+yg--O+;-avv-agdg",
"-->++--adgssavggva--a>+++++;->-----a-*a-aavxav-igg----vci--avvga",
";a----*-*vvajggx;+%+aa++#;+++;;--s---ai---ava--vkx->avgv---vvvc-",
"-a---aas--a-vva-++--+aa-+-->-;---a--yaa**--vv-ava---ggvaaa-saa--",
"a-*a--aaa---a-+++-------+---*---s*-aa---*---aaa;-----yai-->-8887",
"-->ay--++-;--++--aa---a-+--ay-a-------ghgv---;------->-+++888888",
"s--*a-**+++-i-----aaa-l--as---s-ga+--xagca-----iay;-c-++-9888888",
"aa--->----++va------a-cf-a--->a>gda-vavva-;--+++avi-vg-888888nnn",
"as--aaa-ava+aa-vi---*-ag>;aga---vcvi-vv;--yaa*-+;-a-vg88888878Mn",
"+a-aaa;-*aviO+ya--avghaa-aga----vava-----va---+#---->88888bnnn88",
"-;--;*-----aa+++-ai*shga-vc*-;--asaa-;--*-++--+-+*-v88888888nnnn",
"-l>-----++++++-++--*-aca->->*-;->ay-;-----+++++++-xg68688888nnnn",
"ev-aa--*aa+#+%-a++--;-----------aa>a---vcs-++++----88888m8888nn8",
"----as---aas---aa+O+>--*-------+-a;aa---aa--+++s--*888888nnnnnnn",
"*----a--++-----aa----+-;++++++++---aa;---ay--++aa-888688nMbmnnnn",
"-----*;++---->--a-*--++++++-a+++---*aa:-;-------ai88888nnnn888nn",
"----+%+a-aaa+-a----aa;-*---aa-+-----+a-a->-*O-a--78888888888nnnn",
"->+++;*---ava-aa;-aav->-a--aa+++*-+++--a---v+-ia,8888888888nnnnn",
"+*-+O*---vvgv*vy;vvv*->ai*--a-%%+-*++----xvgv-va8883388888nnnnnn",
"-a--+O-a--axha--vxhgv--aa----++->a*-++*aa--vga--385388788nMn8nnn",
"sa-+++-ia-++;v-aagg-++-a--------ia+O+>--++O+----333888008nn8nnnn",
"aa-+---->-+aaaaavc-#+++-------avaa+-#++++a-+++--333833888888Mnn6",
"ai---;a--*ggv+a++++++-+-aaav--ggsa+++--a-sa--%+-*33333888888nnnn",
"s---aa---vla;-----aaa-++*aaav-=va-++-->a--sa-++*;-434383388nnnnn",
"*-;asa----------;aa--+++---vv----a*>a-aa---;+%---yv3373308nnn8n8",
"------++-asa-;--aa----aai+>-O+---s-va-a-----+-avgvav33338nnn8888",
";-a->+-O---ai--------aaau-a--ag----ha->----a-*--agvp333388888888",
"vaa--aa+--->a--gggv->--ia---agg;xvsg->-as--v-as--avza34388888888",
"va--aa>+-ga#->vvgva---++ia--hc--cgvaaggv---vaa;->-aay33338038838",
"-v=---++-gha-vavva-*as>+----va>--aga------>-ya-aa----; 338338833",
"-->--+++-vvv--sv----a++avvc--->--;aa-++++-av--va-;--->..3338831a",
"g-as-++O+-yva-vv----+#vggvv--vggg*--+O--+O-aval--+*-a-..1<3331ag",
"-#-aa---+--aa---lvs+%++>-*--vfga-+>;+--a-++-ii--++-ra....113331d",
"----ay---------avgdv----aaa--->--+O++--aa-+----++--aa.....11331a",
"-i---;--$+**---+%#++++-ay--------a->->--a*>v--++----a.o...-21331",
"-a-aaa--+#+-+++++-*++%->-a-------ar--av---lg--+--a*--..X.-aa11<1",
"s->lv--;aaa;%-++++-+#--a-aa-----a-aa-;uca*ga>-++-aa--....yaa-111",
"-------aa-;@-----++++-ia>-a---a------>-dlava---+--aa-.....-*++11",
"ggv---*----+aay-->+*->yv++s--aa-ga--aa--caa-vva++--a-a. ..---*--",
"hvvv-vvggv-++*aa,-+s--v---;-vaa*ggaa-xva-aaaa--=+*----ag-acgvaa-",
"avva>aav+->%+>-aa-+aa-++:>--vv--vva--;gvia-a---++-;-aaavavgva---",
"@yv+#av++>;>++-----av---lvgv>->-va--*---aa-*-+++-yavgfvaaaaa--+%",
";;eai>+%vvy-*+---*--vv-vgga------a--++--*i-----#---->aia++-;+++*",
"-vgv---vaa-s++-v---*---vg-+vcya--v--+%+---;%----++->-*O+++----a*",
"eve>----->--:+-cv-*avdga--vgggv-yv-++-++*-+++-a*-#%--++-a&+---a-",
"--;eeq-;-ee-+#-vv-aggvvv->vavx-+---+-a-++++---aa;*++++-as-++--;O",
"--qe;;---ew+++-v---algvva-ayv--+>--+;a---+a--->y---++-aaa--+---#",
"-*a---ii--p++---*-------++--,-++-->+-aa---a-----p->---a-;--+->++",
"-*;-+--a----+*a----vv-->--*--;+;---++a-a>-aa+-a----vv-----;---+*",
";-+++--a---v+*ai--aav*--a--aa%++*-+#+--s--*v+-aa--aiv-->a>-aa#++"
};
