/* XPM */
static char *_571_5c80ac5e8ddc28fe5c7e7a4ec36771f0c8233df36100bddefa86318ff4dcefc7[] = {
/* columns rows colors chars-per-pixel */
"64 64 56 1 ",
"  c #080A14",
". c #090A14",
"X c #1E3616",
"o c #1F3616",
"O c #1E3716",
"+ c #1F3716",
"@ c #1E3617",
"# c #1F3617",
"$ c #1F3717",
"% c #263A16",
"& c #273A16",
"* c #263B16",
"= c #273B16",
"- c #263A17",
"; c #273A17",
": c #263B17",
"> c #273B17",
", c #241427",
"< c #241527",
"1 c #251527",
"2 c #341C27",
"3 c #351C27",
"4 c #341D27",
"5 c #4D2A32",
"6 c #4C2B32",
"7 c #4D2B32",
"8 c #4D2B33",
"9 c #2D4217",
"0 c #2C4317",
"q c #2D4317",
"w c #344C1A",
"e c #344D1A",
"r c #354D1A",
"t c #344C1B",
"y c #354C1B",
"u c #344D1B",
"i c #354D1B",
"p c #5F761E",
"a c #5E761F",
"s c #5F761F",
"d c #5E771F",
"f c #5F771F",
"g c #476820",
"h c #476920",
"j c #466821",
"k c #476821",
"l c #466921",
"z c #476921",
"x c #7A4840",
"c c #7A4841",
"v c #7B4841",
"b c #7A4941",
"n c #7B4941",
"m c #AD7657",
"M c #AC7757",
"N c #AD7757",
/* pixels */
"o**#o:%**tjsk*ze*ukz*:*uu=**u*o##**oo::**lzal*zu*lhz*:*iu***i*+o",
"*=%%+o****=ksu**uuuuu**ut***oo#**i>-X+*uu**zsu**zzssk**uu*#o*oo*",
"**u*%oXo#*************:**:+ooo**ieo#+:***%**%**u***:*****oo*=***",
"tui*u***Xo**oo:*o****u*=***ooouluuo******=%*u**u=*uuu*=:#X*****t",
"lu**uu***ooooooooo***uu*:***ozssuuoo*uue**:*s%uu*uu**oooo*%u***u",
"u&***u*tuio+o*oooo***iu***u*=o*ze**oo*%ue**zsuu**u***oo*=**uu**u",
"*=uue=uu*+Xo=-*o+***u*ue**l**o**%**oooo**u%ksz******oooo***uu:=*",
"****u:**oX***u****oXz****sz******%oooooo*%%uzu::****oooo*u*%u*:u",
"u%*:****o***tu*****Xzs**zsu***iuu**oo**ussszuu*uzpsoooo**u****ut",
"uu****ooo***eu*:uuuilsiuzu%=***uhu**o=***uzzzezzu**oo:**:uu**uu*",
"ieu*oo+**u**u:*=**uuizpuu*:*****zu***:*****yzu***ooo*:***%uu*u*%",
"*:*%*%***zz*%*uuu:*uuisuuzzzu::**z*=*u*%%*****ooXoo***uuu**u:*=*",
"%>**uiu**zpu*uuu=**:*uuulzu****u%***uu*****=:*+***$oezzssu**%**u",
"u***%*uu**ss*uu*:*ooX**=******uuu**uu*=*zsfs**o*uu*oo*%zss*%*=es",
"*o*oo***%*ukuu******oXo******uit*o*uu*=*uzszz%*ous**oo**uzz:usss",
"**:oo**ussiiuzsszu**u:ooooo=*:*****u*%u*uuzzuz*tss****zlt=*uzzsu",
"=u****%*%zzuhfsk=ooouuoo+=ooo==**i***uu***uzu**zgz*:uzsz***zzkz*",
"*u***uui**u*zzu*oo**oiu*o********u*%euu%***zz*uzu***sszuuu*iuu**",
"7778**uuu***u*ooo*******o***%***y%*uu****%**uuu******eit*******%",
"7777777oo*:=*Xo**tu*:*u*o*:uu*u*******sfsz*%***********oooo*****",
"7777777NNNN*t*****uuu*h**uiNNNNNNNNNNkusje**=**tuu=*z*oo**u*****",
"77777777NNMNNNNN****u*la*NNmvcNNcccNNNzzu*=**ooorzt*zs**uzu:*ue*",
"c7757777N5NNcNNNMNNN**uNNNNNNN72NcNccNcN**euu%*o**u*zsh%zu*-uu*;",
"cnc77777777ccNcccNNNNNNNNNNNNN72NcccccNNNzu***o+*=**:uzoj***==*=",
"cvccc777777ccccmNNNNNNNNNNNNNNN72bccbccccNNo%*o*o%*z**erozszl***",
"77ccc77777777cNNccccNNNNNNNNcNNN7cc<<<cb77227Xo+o*ksszuuzsz***u*",
"7ccc7777777777cccccNNccNNNNcNNcccxccccc7772...X%***uzskuzz***uu*",
"cccccccc777cc7ccccvNccNNccvxNmcccccc77c77222.2oi*****hzuz**utu*O",
"ccccvccc7777cccccvccccNNNccccNNcccccc7772222<2ouu********%****%o",
"c77ccc777776cccccccccccNccbcccccxcccc7772222<2**ut%*:*********o$",
"77cvbc7c777ccccccccccccNccccccccccc7cc772222<2u****lz:%*=*=%*:o*",
"ccccvccc77cc7ccccccccccccccccbccccc7777222<<<2tu>*utz***u**euXo+",
"ccccccc778777cccccccccvcccccccc77c77722224222*zt*kzl***uu*-*u*oo",
"c7ccccccc77cxccccccccccccccccccc772222222222su*%zkssz**uu*oX*oo*",
"77ccc77c77777cccccccccccxccc7c772222o:**ooXX*********%**********",
"7ccccc777777ccvccccccxcccccc77722uo*+oooou*ooo****&***u**o*****u",
"cccccccc7777ccbccccccccccc7cc772uuooo**u*iu**#o***i**zu**Xo****u",
"xcccccc777ccc7cccccxcccc7cc7777zu*oo**:u**iu%oo%=*z=*s****o+***u",
"7c77cc7727c777ccccccc7cb77c767***u%*u=uu***=oo***ezsutu*****o***",
"cc77c77227777ccx7cccc78cc7777o***i*zu*u*****o*uzszuzuuulszu*#**t",
"cc77768227277c777ccccc7cc77*=us****fu*****=u****uszteuzsu***#=uu",
"c772772222277777cc77c77757*=uss=kzus**=uu**z*iu**uzzu*zu***#o*u*",
"77222223222272777777c7677i**sl**lszuussz*%*zue=*:*uue:*=&*XX*%%=",
"222222oo*222222227777777***%zu**&usu*:****:*eu*uu******:*u=*=*:*",
"%::**ooo*zzz**u222577<,uzzz%**:***uu*oooo*uz**zu*=***:+o*uu****u",
"s*ui*ooXo*ezu*z<2277<.. szz:*zssf**:oo**oo*ultz**o**u*-#o*uu**ta",
"*+-uu***o**uu**<<2277<..*%**zssu*o*=o=*u*oo*tt**oo*wu*:*o:*u=*sp",
"*=**ue*********u<<22<<<<uuu***:**o#oo**uu*o***:oo**uu***X#***udu",
"*t*=:=**@o%%***o#+<<<<<1<****%*=*u*:**=*u%:z**oo****u****o*u*uz*",
"<<*uuu=*oOo*ooooo*%o<<<<<<*****=*uw*:uz***hs*%X-*u%***u***uu*u**",
"<<<gz***uuu*#*oooo*o+.<<<<u*****u*uu*=uzu*su:*oo*uu**uz:=uuu*:*=",
"<<<****uu*=O*****oooo....*e***u******:*pzuzu**:o**uu*usz*u*%oooo",
"ssz***%****ouue**:o***...ou**uu*su**uu**luu*kzuoo**u*uas*****%**",
"fzzz*zzssz*Xo*uu>*oi=*k***=*huu%ssuu*zzu*uuuu:**o*****us*uzszuu*",
"ezzu*uuzo**oo**uu*ouu*oo-:**zz**zzu**=szue=u***oo%**uuezuzshu:**",
"Ouzo+uzoo:*:oo***==uz***zzsz:*:*ke******uu*%*+oo*uuzssztuiuu**o@",
"==qut:o#zke*%o***%*=zz*zssu******u*=oo**%u*****+***%*utuoo**oo+*",
"*zsh***zuu*ioo*z*******zs*ozleu**z**o#o***=o****oo*:**oooo****u-",
"qzq:********:o*lz*%uzssu**zassz*ez*oo*oo%*o#o*u**oo**oo*u#o***u*",
"%**qqq*=*qq*o+*zz*usszhz*%zuzk*o***o*u*#ooo*%*uu>%oooo:uu*oo**=X",
"**9q==*%*q0ooo*z***ehszzu*uez**o*%=o*u***ou***:e***oo*uuu**o***+",
"*%u***ut**uoo***%****%**oo**:*oo:**o*uu***u%*:**y*:*:*u*&**+*:oo",
"*%=*o**u****#%u****zz**:**%**=o=***oou*u:*euo*u****zz*****=::*o%",
"=*ooX**u***zo%ut**uuz=**u**uu#oo%*o+X**i**%z+*ui**utz*%:u:*uu+oo"
};
