/* XPM */
static char *_4979_5e0d83056d4e0f00af38bae2a3b89ede30f1441892e492f956a6bc7a4458ae4d[] = {
/* columns rows colors chars-per-pixel */
"64 64 44 1 ",
"  c #080A14",
". c #090A14",
"X c #090A15",
"o c #1E3616",
"O c #1F3616",
"+ c #1E3716",
"@ c #1F3716",
"# c #1E3617",
"$ c #1F3617",
"% c #1F3717",
"& c #263A16",
"* c #273A16",
"= c #263B16",
"- c #273B16",
"; c #263A17",
": c #273A17",
"> c #263B17",
", c #273B17",
"< c #341C26",
"1 c #341C27",
"2 c #4D2A32",
"3 c #4C2B32",
"4 c #4D2B32",
"5 c #2D4217",
"6 c #2C4317",
"7 c #2D4317",
"8 c #344C1A",
"9 c #344D1A",
"0 c #354D1A",
"q c #344C1B",
"w c #354C1B",
"e c #344D1B",
"r c #354D1B",
"t c #5E761E",
"y c #5F761E",
"u c #5E761F",
"i c #5F761F",
"p c #5F771F",
"a c #476820",
"s c #476920",
"d c #466821",
"f c #476821",
"g c #466921",
"h c #476921",
/* pixels */
"O==$O>&==qdif=h9=efh=>=ee-==e&O$$==OO>===ghug=he=gsh=>=re==>w=@O",
"=-&&@O===&=fie==eeeee==ee==&OOO==r-;o@=ee=-hie==hhiih-=ee-$O=OO=",
"==e=&OoO$==&=======>==>===OOOO=&reO$@====&==&==e===>=&=>=OO=====",
"qer=e===oO==OO>=O====e=====OOOeheeO=======;=e==e-=eee=-=$o=====e",
"ge==ee===oOOOOOOOO&==ee=====OhiieeOO=eeq====i&ee=8e==$OOO-=e===e",
"e*===e=qerO@O=OOOO===re===e=-O=he==OO=&e9==aiee==e===OO====ee==e",
"=-ee9-ee=@oO->=O@===e=e9==h==O==&==OOOO==9&hih=&====OOOO===ee===",
"====e>==Oo===r====OOh&===uh=====-&OOoOOO==&ehe>=====OOOO=e=&e-=e",
"e&=>====O===q9=====Ohi==hie===ree==OO==eiiihee=ehiiOO$O==e====eq",
"ee====OOO===ee==eeerhieehe&-===ehe==$====eshh9hhe=>OO==>>ee==ee&",
"ree=OO@==e==e>=-==eerhiee=>=====he===>=====whe===OOO=>===&ee-e=&",
"=========hh=&=eee==9eri9ehghe>>=&h=-=e=&&=====OOOoO===eeq==e==-=",
"&,==eee==hyq=eee--=>=eeeghe=&==e&==&ee=====-==@=-=%Oehhiie==&==e",
"e===&=ee==ii=ee===Ooo=&=======9ee==ee=-=huii==O=ee=OO=&hii====ei",
"=O=OO=====ehee======OoO======erq=O=ee===ehphh==Oei==OO==egh=eiii",
"-=>OO==eiprrehiihe==e>OOOOO-=>=====e=&e=eehhes=qii====hgq==ehhye",
"-e====&=&hhesiif-OOOeeOO@-O@O--==r===ee&==ehe==hah=>ehih===hghh=",
"=e===eer==e=hhe=OO==Oee=O=&======e==9ee&===hh=ehe===iifeee=ree==",
"e==e==eee===e=OOO====&==O===&;==r&=ee=======eeq======9eq=======&",
"===ee=&OO&==-OO==qe=-=e-O==ee=e======&ipih====&>=======OOOO====-",
"r===e=&&OOO=q=====eee=s==er===r=ieO==deige====-qee-=h=OO==e===>=",
"9e===>=&==OOhe===-==e=gu=9===>e>iye=hehhe=-==OOOehq=hi=-rhe==e9=",
"er==eee=eheOee=he=====ei>-eie===hghq=hh-==9ee&=$==e=hih=he-;ee=4",
"Oe=e9e-==eheoO9e==ehipee=eie>===gehe=====he===O@====>ehOg=&=--44",
"=-==-&=====eeOOO=ee=rpye=hh=====ee9e====&=OO==O=O&=h==eeOgihg444",
"=s======OOOOOO=OO====ege=>=>&=-=>e9=->====OOOOOOO=fiiseehih==444",
"7h=ee==&eeOOOO=qOO==-==-=====&==ee>e=>=hgr&OOOO====ehihehh==4422",
"====er===eee===eeOoo===========O=e-ee===e9=>OOOr=====sheh>=e4444",
"&-===e==O$=====ee====O>-OOOOOOOO-==ee-===ee==OOee========&=44444",
"=====&-OO===-===e=-==@OOOOO=eOOO===&ee;&========eq=========44444",
"=&=>O$Oq=eeeO=e====ee-=&===ee=O=====Oe=e===>O=e====gh===-=444444",
"=>OOo=====ehr=ee,=eeh===e==erOOO==OOO==e=-=hO=qe,=eqh===e=443444",
"O&=Oo*===hhih&h9-hhh&=>eq===e=%$O=&OO====fhih=he=fhg==>ee4441144",
"=e==OO=e==ehiq=&hfpih==ee====OO=>e==OO&ee==hpe==hfiih==ee1411444",
"re=$@O=er=OO-h=eeii=OO>e==-=&===qeOoO>==OOoO=========&===1114444",
"ee=O====>=Oeeeeehh=OOOO-======eheeO=@OOOOe=O@O====*===e==<114114",
"eq>>==e===iihOeOOOOOO=O=eeqh==iieeOOO==e=re>=$O===e==de==o1<1114",
"r===ee===hse=-====eee=OO&eeeh=>he=OO==>e==re=OO&,=h-=i==&=O11114",
"&==eee========&=-9e==OOO===fh====e&=e=ee=&=,OO=&=9hiqee=====1141",
"======OO=ere====ee==>=eeeO==oO===r=he=e=====O=ehiheheeegihe=$111",
"->e=>O=o===eq========eee9=e==ei====pe======e====eihq9ehie===$111",
"hee==eeO===>e==iiih====ee===9ii,fhey=>:ee==h=ee==ehhe=he===$O=11",
"h9==ee=O=ie@==shihr===$oqq==ig=&gihreiih&==hee-=>>ee9>====oo==11",
"=h-=>=OO=iie=hehhe=&er>O====he===eie=>====>=9e-er========e---=..",
"==>==OOO=hhh==eh=-==eOOehhh===>===ee=OOOO=eh==he=--==>@O=eq===..",
"i=er=OOoO=9he=sh====O@hiihh==hiti===OO==OO=eheh==O==e=;$O=ee>...",
"=@=ee===O==ee===ghrO$OO>=&==hiie=O>-O=>e=OO=qq==OO=8e===@>=e-...",
"===-r9=========ehiih====eee===>==OOOO==eq=O===>OO==ee===o$===...",
"=q===-=&#O&&===O$OOOOO=e9========e=>==>=e&>h=&OO====e====O=e....",
"=e&eee==O@O=#OOOO=&OO$=>=e=======e8==eh=&=si==O==e&-==e===ee.. .",
"r->ah==-eee=$&OOOO=O@==e=e0=====e=ee=-ehe=ie>=O@=ee==eh>=eeeX...",
"=======e9=-+=====O@OO=ee>=q===e======>=yhehe===O==ee=eih=e=&....",
"yih===&====Oee9==>O==>ehOOe==ee=ie==ee==gee=hhe@O&=q=eii=====...",
"phhh=hhiih=@o=er,=Or>=h===-=hee&iiee=hhe=eeee===O>====ei=ehihe9=",
"ehhe=qehO==OO>=ee=Oee=OO;>==hh==hhe==-uhee=e===OO===eeehehihe===",
"+ehO@ehOo>=>OO=====qh===shih>=>=he======qe=&=OOO=eefiiheeeee==O$",
"--7re>O$hh9=&O&==&=&hh=hiie======q==OO==&e===&=@=====eqeOO==OOO=",
"*hih===hee=rO#=h=======hi=Ohg9e==h==O$O===-O====OO=>==OOOO====e&",
"7h7>==>=====>O=gh=&ehiie==hiiih=9h=O$=OO&=OOO=e==OO==OO=e$O===e=",
"===777=-=77=O@>hh=eiihhh==hehf=O=>=O=e=OOOO===ee-&OO$O=ee=OO==-o",
"==57--=>=76OOO>h===9sihhe=e9h==O===O=e&==Oe===>9===OO=eee==O===@",
"=&e&-=eq==eO$===&=======OO==;=OO===O=ee===e====&w=>===e=-==O=>OO",
"=&-=O==e=&==O&e====gh==>=&&==-O-=>=OOe=e>=eeO=e====hh==-=&-===O&",
"-=OOO==e=-=hO&eq==erh===e==ee$OO&=O@O>=r==&sO=ee==qqh==>e>=ee@OO"
};
