/* XPM */
static char *_6165_7fdd36215c47dc33664fc438843f37f8fb99e8f047247b0a28a445e0442a1979[] = {
/* columns rows colors chars-per-pixel */
"64 64 59 1 ",
"  c #080A14",
". c #090A14",
"X c #1E3616",
"o c #1F3616",
"O c #1E3716",
"+ c #1F3716",
"@ c #1E3617",
"# c #1F3617",
"$ c #1E3717",
"% c #1F3717",
"& c #263A16",
"* c #273A16",
"= c #263B16",
"- c #273B16",
"; c #263A17",
": c #263B17",
"> c #273B17",
", c #241427",
"< c #241527",
"1 c #251527",
"2 c #341C26",
"3 c #341C27",
"4 c #351C27",
"5 c #341D27",
"6 c #4D2A32",
"7 c #4C2B32",
"8 c #4D2B32",
"9 c #4D2B33",
"0 c #2D4316",
"q c #2D4217",
"w c #2C4317",
"e c #2D4317",
"r c #344C1A",
"t c #344D1A",
"y c #354D1A",
"u c #344C1B",
"i c #354C1B",
"p c #344D1B",
"a c #354D1B",
"s c #5E761E",
"d c #5F761E",
"f c #5E761F",
"g c #5F761F",
"h c #5F771F",
"j c #476820",
"k c #476920",
"l c #466821",
"z c #476821",
"x c #466921",
"c c #476921",
"v c #7A4840",
"b c #7A4940",
"n c #7A4841",
"m c #7B4841",
"M c #7A4941",
"N c #AD7756",
"B c #AD7657",
"V c #AC7757",
"C c #AD7757",
/* pixels */
"o==#X:&==ulgz&ct=pzc=:=pp-=:p=o##==oo:===xcfx=cp=xkc=:=ap===a=+o",
"=-&&+o==:==zgp==ppppp==pp===ooo==a-;X+=pp==chp==ccggc==pp=@o=oo=",
"==p=&oXo#========:===-:===oooo==apo#+====&==&==p===:=====oo=====",
"upa=p===Xo==oo:=o===:p===&=+oopcppo=======&=p==p-=ppp-==#X====&p",
"xp==pp===ooooooooo===pp=====ocgfppoo:ppt====g&pp=pp==oooo==p===p",
"p*===p=upao+X=oooo===ap===p=-o=cp==oo=&py==xgpp==p===oo====pp-=p",
"=-ppt-pp=+Xo-:=o+===p=pt==c==o==&==oooo==t&cgc==;===oooo===pp===",
"====p:==oX===p====ooc====gc==&===&oooooo==;pkp:=====oooo=p=;u==p",
"p&=:====o===up=====ocg==cgp===ppa==oo==pgggcpp=pcggoooo==p====au",
"pp==-=ooo=:=pp==pppacgapcp&-===pcp==o====pcxctccp==oo===:pp==pp=",
"app=oo+==p==p:=-==ppacgpp=:=====cp===:=====icp===ooo=:===&pp=p=&",
"=========cc=&=ppp==puafpucccp::==c=-=p=&&=====ooooo===ppp=:p==-=",
"&>==ppt==cdp=ppp-==:=pppxcp====p&===pp=====-:=+===$opccggp==&==p",
"t===&=pp==gg=pp===ooX==&======ppp:=pp=-=cgfg==o=tp=oo=*cgg====pg",
"=o=oo==:==pzpp======oXo======pau=o=pp===pcgcc==opg==#o==pcc:pggg",
"==:oo==pggaapcggcp==a;oo+oo-=:=====p=&p=ppckpc=ugg====cxu-=pccgp",
"-p====&=&ccpkggz-oooppoo+-ooo--==a=&=pp===pcp==cjc=:pcgc===cccc=",
"=p===ppa==p=ccp=oo==opp=o==-=====p==tpp&&==cz=pcp===ggcppp=app==",
"p==p=88888888=o+o--=====o-==&===a==pp=======ppp=====&tpu=======&",
"===8888888889889=up===p=o=&pp=p=======ghgc=============oooo=====",
"a=88888898888888CCCCp=j==pa===a=gpo=CCCCCCCCCC=upp-=c=#X==p=====",
"8868868nnn8888888CCCCCCCCp===:p:gdCCNnnCCnnnCCCopcu=cg==pcu==pt=",
"88888888mnn888888C8CCnCCCCCCC===CCCCCCC82CnCvnCmC=p=cdc=cp=;pp==",
"8888nnnn88nnn8888888nnCnnnCCCCCCCCCCCCC83BnMnnnCCC==:pcox===--=-",
"688888nnnnnnnMn88888nnmnCCCNCCCCCCCNVCCC83nnnnnnnnCC==apocgcx===",
"888888nnnn88nnn8888888nCCnnnnCCCVCCCCnCCC8nn<,<nn88338ppcfc===p=",
"88n8888nn88mnn888888888nnnnmCCnnCCCBnCNnmnMnnnnn8883...pcc===ap=",
"688MvnnMmnnnnnnvnn88nm8nvnnnCnmCCnnnnCCnnnnvn88n88333.3pc==ppp=o",
"88nnnnnnnnnnnnnnnn888nnnvnnnnnnCCCnnnnCCnnnnnn8983333<3==&=:==&o",
"8nnnn888nnn88nnn88888nnnnnnnnnnnCnnnnnnnnvnnnm8883343<3:======o%",
"888888vnnn88nnnn8n88nnnnnnnnnnnnCnnnnnnnnnnv8nn895333<3=-==&==o=",
"88888nnnvnnnnnnnnn88n8nnnnnnnnnnnnnnnnnnnnnn8888333<<<3=p==ppoo+",
"8898nnvnnnnvnnnnn88888nnnnnnnnnnnnnnnnnn88n88833333333=pp=:=p=oo",
"888nnn8mnnn8nnnnnnn8nnnnnnvnnnnnnnnnnnnnn883323333333==pp=oX=oo=",
"868nn8nnnn88nnn88n7988nnnnnnnnnnnnnnn8n883333========*==========",
"898888nnn88nnnnn98888nnnbnnnnnnnnnnvn88833=ooo====*===p==o:==&=p",
"888888nnnnnnnnnmmn888nnnnnnnnnnnnnm8nm883ap==#o===p==xp==Xo====p",
"33688nnnnnnnnvnnm88nnn8nMnnnnnnnn8nn8888:=ap=oo&-=c-=g====o+===p",
"3889nnn8n88n88nn838n788nnvnnnn6nn78n888p===-oo===tcgppp====-o===",
"38nnnn8888nn88n8838888nnn8nnnn68nn8888p=====o&pcgcpcpppxgcp=#==u",
"388888888n8n8888338388n888nnnnn8nn78p======p=-==pgcutpcgp===#-pp",
"388888888n883883333388888nM88n88888g===pp==c=ua==pccp=cp===#o=p=",
"33883883888335333333383888868n8886cppggc===zpp-&:=ppt::===XX==&-",
"338348733333323ccp33333333588887=pgp=:====:=tp=up========p-=-=:=",
".<2388<<=ccc=&pc==-=poop..3438881=pp=oooo=pc==cp--===:%o=pp====p",
".<3333<3o=tcp=cc=:==Xocgh.<<33388<==oo:=oo-pcpc-=o==p&;#o=pp==ps",
"..<333<=o==pp===ccao#oo:=....,3381<-o==p=oo=ur==oo=rp===o:=p-=gd",
"..<<33<-=======pcghc==:=p.....<<<<<oo==pp=o====oo==pp===X#===phu",
". =<<53<@+&&===o#+oooo=pt=....==<<<<====p&=c==oo====p====o=p=pc:",
".p=p<<3<<#o=ooooo=&oo#=:=....====<<<,<c===kg==o==p&===p&==ap=p==",
"a=:zc<<,<<p=#=oooo=o+==p=....===p=<<<<<cp=gp:=oo=pp==pc:-ppp=:==",
".=====<<<<<O=====oooo=pp:...==p====<<<<dcpcp===#==tp=pgc=p=&oooo",
".gc===&<<<<oppt==:o==:aco...=pp=gp==pp==xpp=czpoo==p=pgg=====&==",
"hccc-ccggc=oX=pp>-oa=:c===-&cpp&ggpa=czp=pppp&=&o=====pg=pcgcpp=",
"pccp=ppco==oo::pa=opp=oo;:==cc&=ccp==-gcpp:p===oo:==pppcpcgcp===",
"Opco+pcoo:=:oo:====pc=&=kcgx;=:=cp=*====pp=&=ooo=ppcggcppppp&=o#",
"--0pu:o#cct=&o===&==cc=cggp:=====p==oo==&p=====+&====pupoo==o#o=",
"=cgc===cpp=ao#=c=======cg=ocxtp==c==o#o===-o====oo=:==o#oo====p&",
"ece:========:o=xc=&pcgdp==cgggc=tc=oo=oo==ooo:p==oo==oo=p#o===p=",
":==eee=-=ee=o+=cc=aggccc==cacl=#===o=p=oooo===pp-;oooo=pp=oo==-X",
"==qe--===ewooo=c===pkgccp&ppx-&o===o=p===op===:t===oo=ppp==#===+",
"=&p===pu==poo===&=====&=oo=&:=oo&==o=pp===p====:i=:===p=-==o=:oo",
"=&-=o==p====X&p:===cc==:==&==*o-===oop=p:=ppo=p====cc=====-===o&",
"-=ooo==t===co&tu==ppc===p==up#oo&=o%o==a==&co=pp==puc==:a:=pa+oo"
};
