/* XPM */
static char *_64650745d8b4ca5d6790c99b4946ef3BB7CB9c1LTT4XPC7[] = {
/* columns rows colors chars-per-pixel */
"64 64 42 1 ",
"  c #090A14",
". c #1E3616",
"X c #1F3616",
"o c #1E3716",
"O c #1E3617",
"+ c #263A16",
"@ c #263B16",
"# c #273B16",
"$ c #263A17",
"% c #263B17",
"& c #241427",
"* c #241527",
"= c #251527",
"- c #341C26",
"; c #341C27",
": c #351C27",
"> c #341D27",
", c #4C2B32",
"< c #4D2B32",
"1 c #4D2B33",
"2 c #2C4317",
"3 c #2D4317",
"4 c #344C1B",
"5 c #354C1B",
"6 c #344D1B",
"7 c #5E761F",
"8 c #5F761F",
"9 c #5F771F",
"0 c #466920",
"q c #476920",
"w c #466821",
"e c #476821",
"r c #466921",
"t c #476921",
"y c #7A4840",
"u c #7A4841",
"i c #7B4841",
"p c #7A4941",
"a c #AD7756",
"s c #AD7657",
"d c #AC7757",
"f c #AD7757",
/* pixels */
"X@@@@@@@@5w7w@w4@4ww@@@44%@@4@Xo++@$o@@@@0q80%06@qqq@@@44@@@4@XX",
"@@@@oo@+@@@w74@@44444@@44%@@XXX@+4@$oO@44@%q84@@qq88w@@44@oX@@X@",
"@@4@@oooX@@@@@@@@@@@@@@@@@ooXX@@44XoX@@@@@@@%%%6%%%%@@@+@XX@@@@@",
"444@6%%%XX@@XX@@.@@@@4@@@@@oX+6044o@@@@@@@@@4%%6%%444@@+XX@@@@@4",
"w4@@44%%@XX@XXXXo.@@%44%@@@@@07744XX@444@@@%7@44%66@#@..o@@4@@@4",
"4@@@@4%444XXX@XXo+@@%44%@@6@%X@04@@XO@@44@@q944@%6@@++.+@@@44@@4",
"@@444@44@XXX@@@Xo@@@4@44@@0%%o@@@@@XXXX@@4@q70@@%@@@o..+@@@44@@@",
"@@@@4@@@XX@@@4@@@@o%0@%%%90%@@@@@@XXXXXX@@@406@@@@@@oo..@4@@4@@4",
"4@@@@@@@X@@@44@@@@@o07%%q86@@@444@@Xo@@4777044@4w77oX@X@@4@@@@66",
"44@@@@XXX@@@44@@44460966q6@#@@@4w4@@o@@@@400w4w05@@oX@@@@46@@66@",
"444@XXX@@4@@4@@@@@4460966%@@@@@@w4@@@@@@%%%6w4@@@XXo@@@@@@46@6@@",
"@%@@@@@@@00@%@444@@466966qq06@@@@w@@@4@@%%%%@@XXXXX@@@554@@4@@@@",
"@%@@544@%096%444@@@@@4440q6%@@@4@@@@44@@%@%#%%X@@@XX60w796%%@@@6",
"4@@@@@44%%99%46%@@Xoo@@+%%%%@@444@@44@@@0999%%X@55@Xo@@w99%%@@67",
"++@oX@@@@@6064@@@@@@Xoo++@%%@444@@@44@@@6q9qq@@+47@@%o@%60r%6977",
"+@%o@@@67966609904@@4@XXX+@#@@@@@@@4@@4@66qq6q@577@@@%004%%6rr96",
"@4@@@@@@+ww4w77w@XXX44XX.+.oo@@@@6@@@66@@@5q6#+qww@@4080%%@www0@",
"@4@@@666@@5@004@XX@@X44@+@++@@@@@6@@655+@@@qq+6q4@@@880444@444@@",
"4@@6@@665+@@4@XXX@@@@@@@o@@@@@@@6+@66@@@@@@@656+@@@@@446@@@+@@@@",
"@@@44@@@o@@@@X@@@44@@@4@@@@64@4@@@@@@<<<,,,,<<<+@@@@@@@X%XX@@@@@",
"4@@@4@@@@oo@4@@@@@444@0@@55@#+6+86@<<,<<,,,,111<ssaaq#%X%%4%@@@@",
"44@@@@@@%%oo04@@@@@@4@07@6@@#+5+98<<<<<<,,11111<,sasffffa04%@44@",
"44@@444@404o44@w4@%%%%47@+576@++,,,,<iii<<<<,1,,,s,sfiffaaffa4@@",
"o4@444@@@404XX44@@409944@686@@+<1,,,<<iii<<<,,,,,,,1iifiiifaassd",
"@@@@@@@@@@@44.oo@44@4774@00@##,11<iiyi<<iyy,,,111111yiiiafdddafd",
"@0@@%%@@XXXo+o+o@@@@@404@@@@#1,,<<<<iiyyiiyyu1111111,,pdfippidfd",
"20@44%@@66XX@o@4oo@@@@@@@@@@#,1,<<<<iiyy,,yiu1111,11,,,iiiipddii",
"%@@@44@@%444@@@44ooo@@@@@#@@111,i,<<<yy,,yyi1111,,1,iu,uiiipdiid",
"%%@@@4@@oo@@@@@44@@@@o@@@+XX,,,,,yiiyyyyyiiiyyyi,,,11uuuuuuuiiid",
"@%@@@@@Xo@@%@@@@4@@@@o%oXXo,,,,1iyyiyyiiiiiiyyyi,,111uuuuuuuiipi",
"@@@@XXX4@444o@6@@@@44@@@@@@,11,iyyi,,,iii,,yyy,<<111uuuuuuuuyypp",
"@@@oX@@@@@406@54@@440%@@4@,,11,,,,,,ippi,,iyyy<i11,iu,uuuuyyyypp",
"X@@Xo@@@%008w@w4@000@@@44#<1<1<<,,,iyuuuyyyyyuuu,11111yyiiyyyuuu",
"@4@@XX@6%%4084@@0w87r@@44<<1--<<1,yyyuuuiiyyuuu1,,11yyyyiiyyyyuu",
"44@XXX@64@X@@0@4487@%o@4#-1--1111iii,uuui,iiuuuui11111yyiiipuuuu",
"64@X@@@@@@O6444400@oXoX@%---<1111iy,iuuu,,piu,1u11111yyyiiiiyuuu",
"64@@@@6@@%880%4X%$XXX@X@6---1-;11,,,uuu,,iiiyy1,,,,11yyyuuuuuuuu",
"6@@@44@@@004@@@@%%444@XX%6--;>;1111,uuuiiiiiyyii,,,iyy,yuyiuuuuu",
"@@@444@@@@%@@@@@@44+@oXX@@%-;;-1;1,iuiuuiyyiiyi,,,1i111yuuuuui,i",
"@@@@@@X@@444@@@@44@+@@444@%%;-1;;1yuu,i,,i,,yy,,,-1,11yyu,uuuu,,",
"@@6@@@@X@@@44@%%@@@@@4666@6@@-;;;iii,111iy<,i,1,;;,;11i,,1iiiiy,",
"046@@44X@%@@4@%877w@@@@66@@@6-;;;1,,,,11ii,,1111;;;;1,,,,uu1,i,,",
"04%@44@X%84%@@007w4@@@o@66%%90--;1,1,,1,i<11-1,-;;;;;1>,,111,i11",
"%0%@@@XX%884@w40w4@@44@X@@@%q6&-;;11;,1;,<1-----6@@;;;>>>;111111",
"@@@@@XXX@00t%%60@@@@4oX4qqq%%%&>;;,>>11>--;;;-;5@@@@@@oX*-;<1,& ",
"7@66@XXXX@406%00@@@@oow790q%%*&>;;>-11>>-+@5050@@X@@4@@Xo*-;1,& ",
"@o@44@@@X@@46%$@w04XX$o@@@@@0*>>;-&&   6@..@55@@XX@54@@@@&;;,&& ",
"@@@@44@@@%@@@@$6077w@@@@666%#&>>&&&    64@.@@@@XX@@56@@@X&*;,&  ",
"@4@@%#%%X@@@@@@XXoXXXX@64@@@*>>*&&%     6%%0@@XX@@@@6%%@o@&-*&0%",
"@6@666@@XXX@XXXXX@+XXO@$@4@@&>&&&66%     %07@@X@@4@@%%6%@&&&*6@@",
"6@@00%%%654@X@XXXX@Xo@@4@44@&*&&6%66%     76$@XX@44@%6q@@&&&&%@@",
"@@@$%%%46@@X@@@@@XX$X@44@@4@&&&&&@%%%%     6@@@X@@44%480@&&&oooo",
"770%%%%%@@@X444%@@o@@@4woo6%%&&*&6@@66@    @006XX@@4@477@&&&@%@@",
"8000%00870@XX@44@@X6@@w+@@%@044%9966@004@6446@$$@@@@@@67@407066@",
"6006%660@@@Xo%%44@o44@%+$$@%00%%006@@@8044@4@@@XX@@@444040704+@@",
"X60%O60OX@@@oo@%@@@4w@%%0090%%%%q6@@@@@@64@@@XXX@44w77046644+++%",
"@%244%X%w04@@X@@@@@@qq%q884%%%@@%6+@oo@@+4@@@@@o@@@@@444oo@@XXX@",
"@08w@@@044@4XX@0@%@@%%%t8@%0044@%q++ooo@@@@X@@@@XX@$@@oXoo@@@@4@",
"302%@@@@@@@@@X@0q%@4q884@@08770@6q%+o@o.@+XXX@4@@XX@@oo@4o%@@@4@",
"@%@222@@@22@X@@0q@488qqt@@0400@X%%@@@5@.XXX@@@46@@XXXX@44%XX@@@X",
"@@33@@@@@22XXX@w@@@408004@440@@X++++@5@@@$6@@@@6@@@X%@644@@X@@@o",
"@@4@@@64@@4XX@@@@@@@@%%@XX@@@@XX+++o@54@@@6@@@@@6@$@@@6@@@@X@@XX",
"@@@#X@@4@@@@X@4@@@%00%@@@@@@@@o+@@%oX4@4%@66X@6@@@@00%@@@@@@@@X@",
"@@X%X@@4@@@wX@44@%440@@@4@@44Xoo@@XoX@@4@@$0X@66@$660@@@4@@44oXX"
};
