/* XPM */
static char *_2150_f56a8e9c085d5231c64ff98ca69a4d320ade00d007f22d2cf418ae2ca4eac0ba[] = {
/* columns rows colors chars-per-pixel */
"64 64 54 1 ",
"  c #090A14",
". c #090A15",
"X c #1E3616",
"o c #1F3616",
"O c #1E3716",
"+ c #1F3716",
"@ c #1E3617",
"# c #1F3617",
"$ c #1F3717",
"% c #263A16",
"& c #273A16",
"* c #263B16",
"= c #273B16",
"- c #263A17",
"; c #273A17",
": c #263B17",
"> c #273B17",
", c #241527",
"< c #341C27",
"1 c #351C27",
"2 c #341D27",
"3 c #4D2A32",
"4 c #4D2B32",
"5 c #4D2B33",
"6 c #2D4217",
"7 c #2C4317",
"8 c #2D4317",
"9 c #344C1A",
"0 c #354C1A",
"q c #344D1A",
"w c #354D1A",
"e c #344C1B",
"r c #354C1B",
"t c #344D1B",
"y c #354D1B",
"u c #5E761E",
"i c #5F761E",
"p c #5E761F",
"a c #5F761F",
"s c #5F771F",
"d c #466920",
"f c #476920",
"g c #466821",
"h c #476821",
"j c #466921",
"k c #476921",
"l c #7A4840",
"z c #7A4841",
"x c #7B4841",
"c c #7A4941",
"v c #AD7756",
"b c #AD7657",
"n c #AC7757",
"m c #AD7757",
/* pixels */
"o**oo****ekak*kt*thk%:*tt***t*+o#**oo:***jkaj*kt*kkk*:*yt***y:oo",
"*=*%+o=****hat**ttqtt**tt***ooo**y=%X#*tt**kat**kkaak**tt*oo%oo*",
"**t**#Xo#***:*******:*:***Xooo**yto#o%****%*%**t***:*****oo*****",
"tty*t:**Xo=*oo:*o****t*****oXotktto****%**%*t**t=*ttt***o#*****t",
"kt**tt**:oo+oooooo***tt*****ofaateoo*ttt*:**a%tq*tt**Xooo**t*=*t",
"t%=**t*eyto$o=oooo*:*yt***t**o*kt**o#*%tt**katt**t***oo****tt**t",
"**ttq=tt*oXo=**oo***q%qt**k**o*=%**Xooo**t*kak*=****oooo***tt%**",
"****t***o#***t:***ook*=**ak*****=%oXooo+***tkt**%***oooo*t%*t:*t",
"t=*:**%*o***rt**%**okp:*kat***ttt=*#o**tapakqt*tkaaoooo**t**:*te",
"tq****ooo**=tt**ttytkattkt-=***ekt**o****ykkktfkt**oo****te=*tt*",
"ttt*ooo=*t**t:*=*%tttkstt*****=*kt***:*****ykt***ooo*=****te*t*%",
"*%****%*=fk*-*tyt:*ttyattkkkt:***k***y********oo+o+***tty**t****",
"%:**ttt**kit*ttt****:tttjkt**%*t****tt*=**%*:*o***$owkkaat**%**t",
"q*****yt**aa*tt***ooX*******%*tet:*et*=*kaaa**o*tt*oo*%kaa****ta",
"*o*o+*****tktt****=*o@+*****=tyt*o*tt***tkakf**ota**oo*=tkk*taaa",
"*%:oo**eaatytkiake**t=o+ooo*%>**:**t**e*ttfktk*taa***:kfe**ekkpt",
"*t:***-**kktkaah*ooottoo+=ooo=***y***te***tft**kfk*:tkak***kkkj*",
"*t:**tty=*t*kkt*oo**ott*o********t**tet&%**fk*tkt***apktyt*ttt*:",
"q**e*:ttt***t*oXo*****=*o*******t**tt*******ttt****==qte****%***",
"***tt**+o%***oo**tt=**t*o**tt*t******%aaak***:*******>*+ooo*****",
"t:**t*%*o+#*t**%**ttt*k**ty*:*y*ato:*ktskt**=**ttt:*k%oo**t**&**",
"bt********oobmmmmmmmmmja*t:*:>t*aat*ktkky***:oootkt*ka**ekt**tq*",
"mmmmmtt*tkmmmlzmmzzzmmma>=tat***kkk9*kk=**qtt*:o**t*kak*kt*-tt**",
"zxmmmm**mmmmmmm4<mzmzzmzmtat****ktfq*****ky***oo*%***tkog***=**=",
"mmmvmmmmmmnmmmm4<mzzzzzmmmk*****tttt****%=oo**o*o%*k*=ttokakk**%",
"mzzzcmmmvmmmmmmb4<zzczzzzzmm:***:tt*>:****oo+oooo*haaktqkaf%**t=",
"zzzzmmmbmmmmmzmmb4zz,,,zz44<<4**tt:t%**kjt*oooo****ekaktkj%**tq*",
"zzxzmzzxmmmmzmmzzzzzzzzz444<   o*t&tt***tt**oooy*****kktk**ytt*o",
"zzzzzzzmmzxzzmmzzzzzz44z44<<< <o**:tt**:*tt-%ooqt**************o",
"zzzczzzlmmzczzmmzzzzzx444<<<<,<o=***tt-*********tt****=*******o$",
"zzzlzzzzmzzzzzzxzzzzzz444<<<<,<****:ot*t***=o*t***%kk******%**o*",
"zzzzzzzzzzzzczzzzzzz4zz44<<<<,<o**ooo**t***ko*tt>*ttk**=t**qtooo",
"zzzzzzzzzzzzzzzzzzzz4344<1<,,,<oo*%oo****kkak*kt*kjd***tt=:*t*oo",
"zzzzzzzzzzzzzzzz44z445<<<<<<<<o**t**oo%tt**kat:*kkaak**tt*oo:o#*",
"zzzzzzzzzzzzzzczx44<<<<<<<<<<***ttoXX:*%ooXo***=**=**%**********",
"zzzzzzzzzzzzz4z44<<<<oX-******qktto*Xoooot=Xoo****=***t**o*****e",
"czzzzzlzzzx4z44422#o+*o*ttyk**uattooo**t*tt**oo***t*%kt**Xo****t",
"zzzzzzzzz4zz4444<*ttt*oo*tttk**ky*o#**>e*%yt*o#*>*k**s**:*+o=**y",
"zzzzzz4zz44z454*=te**ooo***kk***%t**t*te***=oo**:qkattt*=***o***",
"z4czzz44cz4444**tt****ttto*%oo***t*kt*t***=*X*tkakektttkakt*#*:t",
"44zczzz4zz44e********ttet*t**ta****at******t****tajeqekat***#*tt",
"3zz44z44444*t**aaak****tt***tai=kkta=**tt**k:tt**tkkt*ht**:oo*t*",
"44444z4444to*=kfakt=**#ott**aj**jakttiak***ktt=*:*ttq***%*@X***=",
"<<444444  at*ktkkt%%tt*o****kt***tat****&*:*qt=tt=*******e*:=*:*",
"<<<445,    k=*tk****tootkkk*******tt:oooo*tk**jt*%=**:oo*tt**>*t",
",<<4,, ..   t*kk****o+kaakk**haaa:**oo**oo*tktk**o**t*:#o*tt*=ta",
",<44,**      *%%kkyoooo:****kaa0*#*>o:*t*oo*et**XX*9t***o:*t**ai",
",<44,t%      **tkaak****ttt******ooo+**tt*o****+o**tt***Xo***tst",
",,4,*=**      *o#+oooo*tq:**%****t******t*-k%*oo**%*t**%*o*t*tk*",
",,,,tt**o      oo*%Oo#*:*t*******te**tk***kp**o**t****t***tt=t*=",
",,,fk***wy     ooo*oo**e*te***:*t:tt**tkt*at*:o+*tt=*tk:=qtt**%*",
",,*****tt:*O    *oo#o*tt:*t***t******:*aktkt***o**tt=tik=t**oooo",
",,k***%****X    **o***tkoot*%te:it**tt**ktt*kktoo**t*tpa*****%**",
"akkk*kjiak*oo*tt>*+t**k***=*ktt%aatt*kkt=tttt***o*:*%*ta*tkaket*",
"tkkt*tqko**oo:*tt%ott*oX::**kk**kft***aktt*t***oo***tttktkakt*=*",
"othootk@X:**oo*;**%tk:**kkak:***kt******tt**%ooo*ttkaakttttt**o#",
"*=8te:ookkt*%o%****=fk*kaat******t=*oo***t*****o*****tetoX**oo#%",
"*kak=**ktt*yoo%k*****%%ka=okjtt**k**ooo***=o****Xo=***oooo****t*",
"8k8:********:o*kk*%tkaay**kpaak*tk*@o*oo%%oXo=t**oo%*oo*too***t*",
"***886**=88*o+*kf*taakkk**ktkk*o***+=t*$oo+*:*tt**o#oo*tt*oo***X",
"**68=****87ooX*k**:ykakkt*yqk**+***o*y***ot***>e***oo*tty*=o***+",
"*%t***eq**too****%****=*oo****oo***o=tt*%*t*****e***=%q****o**oo",
"*%=*o**t****o%t**>=kk**=*=%*:*o=***oot*t**tyo*t****kf****==***o*",
"=*ooo**t***ko%ye**ttk***t**ttXoo%*o+o**y***ko*rt**tek***t**ttooo"
};
