/* XPM */
static char *_cc99d6aafcd4bd6c838e005989412e9b24B6KNnOWld1J3W[] = {
/* columns rows colors chars-per-pixel */
"64 64 42 1 ",
"  c #090A14",
". c #1E3616",
"X c #1F3616",
"o c #1E3716",
"O c #1E3617",
"+ c #1F3717",
"@ c #263A16",
"# c #263B16",
"$ c #273B16",
"% c #263A17",
"& c #263B17",
"* c #273B17",
"= c #241526",
"- c #241527",
"; c #251527",
": c #341C26",
"> c #341C27",
", c #351C27",
"< c #341D27",
"1 c #4D2A32",
"2 c #4C2B32",
"3 c #4D2B32",
"4 c #4C2B33",
"5 c #2D4316",
"6 c #2C4317",
"7 c #2D4317",
"8 c #344C1B",
"9 c #344D1B",
"0 c #354D1B",
"q c #5F771E",
"w c #5E761F",
"e c #5F761F",
"r c #5F771F",
"t c #476920",
"y c #466821",
"u c #476821",
"i c #466921",
"p c #476921",
"a c #7A4840",
"s c #7A4841",
"d c #7B4841",
"f c #7A4941",
/* pixels */
"X###@@@@@9ywy#y9#8yy###99###8#XXX##%X###$yyey#y9$ytt###88###8#XX",
"####oo@@###yw9##88899##99###XXX##8#%oX#89##ye9##yyqqy##89#oX#XX#",
"##8##oooo#################XXXX##88#Oo%######$##9&&&&##@@#XX#####",
"888#9&&&XX##XX##.####9#####XXX8y88X#########9&#9#$998##@XX#####9",
"y8##88&&#@XXXXXXo.@#$89#####Xyww88XX#888####w#99#99$#o..o##9###8",
"8####8&889XXX#XX.@###99###9##X#y8##XX##89$#yw99#$9####.@###98#&8",
"##888#88#oXX###Xo###9#99##y########XXXX##9#twy######@..@###99&&&",
"####8###XX###9#####oy##&#wy####@##XXXXXX###9y9######o...#9##9&&9",
"9#######X###99##&&&oyq&&yw9###998##oX##8wwwy88#9yww..oo##9####99",
"98####XXX###99##9999yw99y9#####9y8#######8yyy8yy8@@..###&99##99#",
"998#XXX##8##8###&&889yq99#######y8#########8y8@@#X..##@###99#9##",
"#########yy###999&&899q99iyy9###&y###9#######@.#..@###889##9####",
"####888##ue9#999###%#888ii9####9&&##99####&$&&o###XX8yywe9#####9",
"9#####88##we#99###XXX#########889&#99###ywqe#&o#88#X@#@yee####8w",
"@.##.##$##9u99######XX.######888&o#99###9yett&#@8w##X###9ty#9ewe",
"@@#X@##9ee999ywwi8##8%...@######&##9##9#99yt9y#9ww####yt8#$9tye9",
"#8######@yy8yqwy#.o.88o..@#XX###$9##$99&##9y9##yuy##9ueu$&$tiuu&",
"#8###998##8#yy8@.@##o88#o@#######8##999&###yy#9y9###ewu999$999&&",
"8##8##998###8#o..@@#####@@&&@###9$#99$&&####999@####&32233333#&#",
"###89##X.####o##@88###8#o#&98#8#######qqwy####@@###1112233333333",
"8###9###oo##8#####998#y##88&##8#q9@#&t9qy9$####89933333333333333",
"88########ooy8######8#yq#8&&##9#ew8#t9tu9####o@o313333dda3333333",
"88##888#9y8o99#y9#####8q##9w9###yyy8#tt$##999#&33333333fff333333",
"o8#888###9y8oo88##9yew99#9w9####y8y8##&##y9##&33333ddff33daa3333",
"&&&&#######99XXX#99$8ww8#yy#####9999######oo#13344444sssddffaa41",
"&i#&####XXXXX##Xo####8y8#########99#######ooo13344444sssf31faa21",
"5y#99###88XXXX#9..####@@########99#9###yy9@@11331a4444ds33fff122",
"####99###888###98o@o###@#######X#9#99###89@#113311aaaaddfdddddff",
"##@@#9##oo#####98####o@@XoXXXXXX###89$$$#99333331dffaaaddddadaad",
"##@@#@#XX#######8####o@#X#o#8XXX####99####$33333aadd444asa44daa4",
"###@oXX9#989X#9####98######88#o#####X9#9&#33333311134asss44addd4",
"###@o#####8y9#99##99y###8##88ooX##oX@#$9&&3333333222ssssdasdddda",
"@##.o####yywy#y8#yyy###98###8#o@X##XX####444::11133afaadddadddss",
"@8##@o#8##9yw8##yywwy##98####..##9##XX#88>4::41133daf1addd4addss",
"88#...#89#.o@y#89ew#XX#9########89XXX###X>::444111ff1fdds44aaa44",
"88#.######.99988uy#XX#X#######9y99X#XXXX%<<:4::432331add44aaafs4",
"89##$$9###wqt#9@#@..X#X#999y##ee99XXX##8#9::>>:233322fdddddaaddd",
"9###99$##yy9#$####889#XX#999y##y9#XX###9##9:>>:2::33dfdfddaaddss",
"###999##$$$&#####88##XXX###yy####9##9#99##&&>>2>:33dff1f44a44as4",
"######oo#999####98####999X##o####9#y9#9#&&&&o>>><1dfd1324aa44a44",
"##9##@#.###99#&######9999$9##9e####w9&&&&##9#:>>:33322444af14411",
"y89##98.####9#&ewwy####99$##9qe#yy9e&&&99##y#8>>:33314444a44:41:",
"y9##88#X#w8###ytwy9###XX99#&et##uey98wwi###y88>>:<33:14:414><<::",
"#y####XX#ww9#y9yy9##88#X###&y9##$9e9#%####&#99&><<3::14>>>::<::&",
"#####XXX#iuu##9y####8XX8iuu&##&&##88#XXX##8y##i-<<>>44::#89$$##8",
"w#88#XXXX#9i9#iy####Xoireiu&#iere###XX##@o#8y8==>><;==#XX#89$$8r",
"#X#88###X##98$##yy9#XoX&$$##ier8#X##X##8@oo#89=:>>;;9###X&&9&$rw",
"####88#########8yewi&&&&999$##%##@XXX##88@.###=:-;; 8###X#&&&8r8",
"#9##$$###X#####.......#88########9&$&&##8#%i##---   9$###X#9#9i#",
"#9#999##Xo##.....@@...###8#######99$#9y#&#iw##X---  #$9###99#9##",
"9##iy#&&888#.#.@.@#o@@@8#88#####9#99#$9t9&w8%#o=---  9y##999@@##",
"######&99##X#@@@#oo#.@88##8###8#######&ei9i8###o---   eu#9$#.@#X",
"wwy###&&###X888##&o&#@8yoo9##99$e9##99$#i99#yy8X@#    ee####@###",
"wyyy#yiqwy#X.#88##o9#@y@####y99#eq99&ut9#9998###.#####9e#8ywy88#",
"9ii9#99iX##Xo##89@.99@#@####yu##yy9##$ei98#9###X.###899u8iwy8###",
"X9u#X9iXX###oX#####9y#&&yywi####t9######99###XXX#88ywwy98888##.o",
"##688@X#yy9##X##$###tt&tqe9#####&9#@.X###9#####X#####899oX&&Xoo#",
"#ywy###y99#9XX#y####&&&ur#Xyy88##t##...####X####XX####XXXX&&&&9#",
"7y6##########X#yy#&9tee9##ywwwy@9t#@@#..##XX##8##XX##XX#8oo&@@9#",
"###666###66#X##yy$9qqtuu##y8yy@.#$##@8#.XXX###88##XXXX#98&XX@@@@",
"##77#####66.XX#y###9yqyy8#88y##.###X@8###X9####8###X##888@@.###o",
"##8###88##8oX#######&&&&@X####@.###X#88###9#####8#####8##@@@#&oo",
"@@$#o##8##@@.#8####yy#&&######X####Xo8#8##99X#8####yy#########o#",
"#@@%o##8##@y@#88##99y#&&8##88oXX##ooo##8###yo#88##88y###9##88ooo"
};
