/* XPM */
static char *_7fdd4cf4e2c4cc1e77afc8f4078b291DvXLhVTFTl7h9Zq0[] = {
/* columns rows colors chars-per-pixel */
"64 64 22 1 ",
"  c #1E3616",
". c #1F3616",
"X c #1E3716",
"o c #1F3617",
"O c #263A16",
"+ c #263B16",
"@ c #273B16",
"# c #263A17",
"$ c #273B17",
"% c #2D4217",
"& c #2C4317",
"* c #344C1A",
"= c #344D1A",
"- c #344C1B",
"; c #354C1B",
": c #344D1B",
"> c #5F761E",
", c #5E761F",
"< c #5F771F",
"1 c #476920",
"2 c #476821",
"3 c #466921",
/* pixels */
".+++.OO++-3,3+3-+-11+++::+++:+...++..++++11,3$1:+333+++--+OO-+OX",
"++++..+++++3,-++-----++::+++...++:++..+::++1,:++33>>3++--+XX+.XO",
"++-++OXX.OO+++++OO++++++++XX..++::.o.++++++++++:$$++O+OO+.X+++OO",
"---+:+++..++oo++.++++-+++++X..:3::.+++++++++:++:$$::-OOO+X+++OO*",
"2-++--+++X..o....++++::$++++#3,,::..+:::+++$<+::$::++.  X++:+++-",
"-++++-+::-..o+....+++::$++:+O.+1:++..++::++1<::$$:+++.XO+++:-++-",
"++--:+::+oXo+++..+++:+::++3+O.+++++....++:+1<3@@++++.+.X+++--+++",
"++++:+++..+++:++++..1+$$+,3+O+++++......+$@:3-++++++..XX+-++-++-",
":+++++++++++--+++++X1<$$3<-+++:::++..O+:,,,3--+-3,,...O++:++++:-",
"::++++...+++--++::::3<::3-+++++:3:++O++++:333-33-++..OO++::++::+",
":::+XXO+O:++:+++@$--:3,:-+++++++3:+++++++++:3-+++X..OO++++::+-++",
"++++OO@+O33+++::=++-::>:-333:++++3+++:++++++++.....+OO--:++:++++",
"++++---++3<-+:::+++++---33:++++:++++--++++$$$$.+++X.:33,,:+++++-",
":+++++::++<<+::+++XXX+++++$$++::-++--+$+1,,,++.+::+..OO3,<++++-<",
"+.+o.+++++:3--++++++X..O++$$+:::+.+--$$+:1,31$$o:,++#.++:33+-<,,",
"+++..++:,<:--3,,3-++-+.....++++++++-++:+::13:1+:,,++++11:$+-13,:",
"+:+++++++33:3,,3+...--XXX+OXXO+++:+++::+++:3:++331$$-1,3+++1113$",
"+:+++::-++-+33:O..++.--+o+OO+O+++:++:::++++33+-1:+++,,1---+:::$$",
":++:++::-+++-+#X.+++++++o+++++++:++::+++++++::-++++++-::+$++++++",
"+++::++..++++X.#+--+++-+o++::+:+++++++<<<3++++++++++++OXXXX+++++",
":+++:+++...+:+++++::-+3++::+++:+,:++$1:<3=+++++-::++3$..++:+++++",
"::++++++++..1:++++++:+1<+:++++:+,,:+3:33-++++...:1:+1,##:1:++::+",
":-++:::+:3-.::+3:+++++-<++:,:+++333-+11@++::-+O.++:+3,1#1:++::++",
"X-+:::+++-3-.#::++-3<<:-+:,:++++3:3:+++++3:+OO..++++$:3#3+++++++",
"++++$++++OO*-X..+::+:,,-+33@++++::--$$$$++..++.O#+$1+$::#3,31$++",
"+3++++++# ...X+.X++++:3-+++@+++++:-+$$++++.....#.+1,<1::3,3+$$:+",
"&3+-:#++::..XX+:+.++++++++++++++::+-+++13:+....+OO+:3,1:23+#+::+",
"++++:-++O:::+++::..X+++++++++++.+:+-:+++::++...:OO$$@31:2++:::+.",
"+++++*++..+++++::++++.O+O.......+++*:$+++::++XX--++++++++++++++.",
"+++++++..O++++++:+++O......+:...++++::++++++++++--++++++++++++..",
"++++...*O::-.+-++++::+++O++::+.+++++#:+:++++X+:++++31+++++++++.+",
"+++..+++++:3-+-:++-:3#++:O+::...++   ++:+++3.+::++--3+++-++--...",
"X+#XXO+++33,1+3-+333++O::+++:+...++..++++31,1+3-+133+++::+++-+..",
"O:++..+:++-3<-++33,,3++::++++..$+*++..+:-++3,:++33,,1++::+..+..+",
"::+...+:-+..+1+-:,,+..O:++++++$$-:...+++.XXX++O++++++++++OO+++++",
"::+.++++++O-----22+...XO++++++:1::.+....X-+X#.OO+++$++:++#O++++-",
"::++++:+++,,3#*.+#  .+.O:::1$+,,::...++-+--+O.#+++:$$1:++.X++++-",
":+++::+++31-++OO++**:+OX+:::1++1:+..+++:++--O..+++1$$,++++.X+++-",
"+++:::$+++++++++#-*O+...++$13$+++:++:+::++++..+++:1,:::$++++X+++",
"+++++OOX+---++++:*++++:::.+$oo+++:#3:+:++++O.O:3,1:1:::1,3-+X++:",
"++-++X+X+++::++++++++::::+:++:,++##,:@+++++:++++:,1:::1,-+++.+::",
"3:-++-:X++++:++,,,3++++::+++:,,+33:,+++::+$1+::+$:11:$1:+++..+:+",
"3-++--+#+,-.++33,3:+++..::++,1$+3,3::,,3+++1::++++:::+++++XX++++",
"+3+++O..+,,-+3:33:#+::+.+++$1:$+@:,:+@++++$$::+-:++++++++-++++++",
"+++++...O313++:1+++#:..:133$+$$$@$--+X...+:3++3-+OOO++X.+::++++:",
",+::+....O-3:$31+++#..3,,13$+1,,,+++..++..+:3*3++#+O:++o.+::++:,",
"+X+--+O+#O+::+$+11-.  ++++++1,,:+.++.++:+..+--++..+::+++.+$:$$,,",
"++++--++++++++$:3,,2+O++:::++$+++....++::++++++..+O::+++..$$$:>:",
"+:++++++XX+#+++..X....+::++++++++:+++$++:++3++..++++:$$++X+:+:1$",
"+-+:--++.#.+.....OO...+++:+++++++::++:3+++3<++.++:++++:+++::+:++",
":++33+++*--+.+....O..++:+::+++++:+::++:1:+<-++..+::++-3++:::++++",
"+++++++-*++.++++O....+::++:+++:+++++++$,3:3-+++.++::+-<3+:++...X",
"<<3++++++++.:::+++#O+#-2..:++::+,:$$::++3::+33-..++-+-,<++++++++",
"<133+33<,3+..+::++ *++3#++++3::#,,::+11:$::::+++.+++++:,+:3,3-:+",
"-33-+--3.++..++::+.::+# ++++13$+11:$++,1::+:+++..+++--:3:3,3:O++",
"X-3+.-3X.+++..+++++:3+$$33,3++++1:++++$+::+++...+::3,,3:::::+#.O",
"$$&:-+.X33:++.++++++33$3,,:#+++++:OO..+++:+++++.+++++:::..++.+.O",
"$1,1+++3::+:o.+3++++++$1,+#33::+$3OO...++++.++++..++++....++++:O",
"&1&@+++++$+++.+31++:3>>:++3,,,3+:1+..+..OO...+:++..++..+:..++O:O",
"$$@&&&++$&&+.#+31+:,,311+#3:33+.+++#+:+....O++::++....+::+..+OOX",
"++&&+++++&&...+2+++:1,13:+--3++.+++.+:+++#*O+++:+++..+:::OOX+++X",
"++:+++--++-..+#+++++$+++..++++..+++.+::+++-O++++:+++++:++OOX++XX",
"++++.++-++++.+:+++$11$++++++++o++++..:+:++::.+:++++33+++++OOOOXO",
"+++..++-+++2.+::++::1+++-++-:...O+.X.++:++#3.+::++::3+++:+O:-OXX"
};
