/* XPM */
static char *_1719_d439af4d622a28c03b238157f380b3295e85501822b5e9f00aaeef7cc1640fac[] = {
/* columns rows colors chars-per-pixel */
"64 64 50 1 ",
"  c #090A14",
". c #090B14",
"X c #090A15",
"o c #1E3616",
"O c #1F3616",
"+ c #1E3716",
"@ c #1F3716",
"# c #1E3617",
"$ c #1F3617",
"% c #1E3717",
"& c #1F3717",
"* c #263A16",
"= c #273A16",
"- c #263B16",
"; c #273B16",
": c #263A17",
"> c #263B17",
", c #273B17",
"< c #241527",
"1 c #341C26",
"2 c #341C27",
"3 c #351C27",
"4 c #4D2A32",
"5 c #4C2B32",
"6 c #4D2B32",
"7 c #4D2B33",
"8 c #2D4217",
"9 c #2C4317",
"0 c #2D4317",
"q c #344C1A",
"w c #344D1A",
"e c #354D1A",
"r c #344C1B",
"t c #354C1B",
"y c #344D1B",
"u c #354D1B",
"i c #5F761E",
"p c #5F771E",
"a c #5E761F",
"s c #5F761F",
"d c #5E771F",
"f c #5F771F",
"g c #476820",
"h c #476920",
"j c #476821",
"k c #466921",
"l c #476921",
"z c #7A4840",
"x c #7A4841",
"c c #7B4841",
/* pixels */
"O--OO----rjsl-ly-yjl->-yy---y>OO$--OO>---llsk-ly-lll->-uy---u-OO",
"-;-*@O-----jsy--yyyyy--yy--*OOO--u;*oO-yy--lsy--llssl->yy-OO*OO-",
"--y--$oO$------------->---#OOO--uyO$O----*--*--r--->-->--OO-----",
"yyu;y>--oO,-OO>-O----y*>---OoOylyyO-------*-y--y;-yyy---O$-----y",
"ly--yy-->OO@OOOOOO---yy-----OlssyyOO-yyy----s*yw-yy--oOOO--y-;-r",
"y*---y-ruwO@O-OOOO--*uy---r--O>ly--O$-*yy--lsyy--y--*OO----uy--y",
"--yyw;uy-OoO;--OO---w-yy--l--O--*--oOOO--y-lsl-;----OOOO-;*yy---",
"----y---O$---y----O@l---*sl------*OOOOO@---yly--*---OOOO-y-*y--y",
"y-->----O---ry--*--Ols>-lsw---yyy--OO--ysaslwy-ylssOOOO*-y----yr",
"yy----OOO--;yy--yyyylsyyly:;---rly--O---;ullkyhly--OO---;yy;-yy;",
"yyy-OOO;-y->y:-;-*yyylsyy-----;-ly--->---;-tly---OOO-;----yy-y-*",
"-----;---hl-*-yuy>-yyusyyljly>---l---u--------OO@O&;--yru--y----",
"*>--yyy--liy-uyy---->yyykly--*-y----yy--;--->-O---&Oyllssy--*--y",
"y-----uw--ss-yy---OOo-----;-=-yry:-wy-;-lsss--O-yy-oO-*lss----ys",
"-O-O@-----ylry----;;O#@------yuy-O-yu--=ylsll--Oys--OO-;yll-ysss",
"---OO--yssyuylpslr--y-OOOO@-*>-->--y--y-yyhlyl*uss----lkr--yljsy",
"-y----*-*llylsfj-OOOyyOO@;OOO;---u---yr---yly--lhl->yjsl---lllk-",
"-y---yyu--y-lly*OO;-Oyy-O-----*--y--yry**--hl-wly---sslyyy-yyy--",
"666u--yyy---y;OOO-----;-O----->-y--yy------>yyy-----;wyr--------",
"66666--@O----OO--ry;--y-O--yy-y------*sssk--->---*->---@OOO-----",
"666666*-O@O-y--*--yyy-l>-yu->-u-syO>-lydly-----yyy--l-OO--y--=--",
"xx666666--OOly-----;y-ka-y--->y-ssy-lyllr----OOOyly-ls--rly--yw-",
"x66666666lyoyw-ly-;---ys>;yfy---lllr-ll;--wyy-,O--y-lil-ly-:yy--",
"6xxxx66666lwOOyw--wkafyy-ysy----lygw-*---ly---OO-*---ylOk---;--;",
"xxz66666666yyOOO-yy-ypsy-jl-----yyyy----*-OO--O-O*-l--yyOlsll---",
"xxx66666666OOO-O%----yly->->>--->yw-;>----OOOOOOO-jsslyylsh*--y-",
"xx6666x66666$O-w$O--------------yy>y*--lky-OOOO----whslylk=--yw-",
"xxxzxx676666---yyOOO-----------O-y=yy-;-wy--OOOu-----klyl--uyy-O",
"xxxxxxx666666--yy----O-;OoOOOOOO-->yy-;>-yy:*OOwy---;----------O",
"x666xxxc66676---y;*--OOOOOO-yOOO-;--yy:--------,yy-------*----O&",
"xxx66666665666y----yy--=---yu-O*--->Oy-y----O-y---*lj------:--O-",
"xxxx7666666666yy;-yyl---y;;yyOOO--OOO--y---lO-ty,-yyl---y--yyOOO",
"xxxxx6666621666w;lll-->yy---y>$OO-*OO----llsl-ly-llk---yy->-y-OO",
"xx6xxx666662262*ljssl--yy*---OO--u--OO*yy--hsy>-llssl--yy-OO>OO-",
"xxx6xx666664222yyss-OO-w*------;yrOo#>-*OOoO---;--;--*------*;--",
"xxx666666226232ylk-OOOO:----*-ylyyO-oOOOOy;O$O----;---y--O-----y",
"xxx66666622223yOOOOO@-O-yyul--ssyyOOO--y-yw--OO---y-=ly--oO----y",
"xxxz661262222-----yyy-OO-yyyl--ly-O$-->y-*ur-O$-,-l--f-->-OO;--u",
"x6xxx6622621----;yy--OOO---ll---;y->y-yr---;OO-->qlsyyy-;---O---",
"666xxx62222w----yy-;--yyyO-*OO---y*ly-y-----o-ylslrlyyyjsly-$->y",
"66676661222yr--------yyrw-y--ys----sy--;---y--->yskrwrliy--;&-yy",
"6566665222;-y--fssl----yy-*-yss;llys---yy--l>yy--ylly-jy-->OO-y-",
"2662662222yO-;lhsky;--$Oyy--sk--kslyyssl---lyy;->-yyw----;oo---;",
"26622622 ssy-hyllu-*yy-O----ly---ysy;-->----wy-yy;-------y->;->-",
"<266222  lgl;-yl----yOOrllk---->--yy>OOOO-yl--ky----->@O-ry--,-y",
"s<221<<  -yjy-ll----O@lssll->jsss---OO--OO-ylyl--O--y->$O-yy-;yf",
"<212<<    -ry-*-kluOOOO>----lssq-O-;O*-y-OO-ry--@O-qy---O>-y--si",
"<22<<   X *----ulssl----yyy------OOOO--yy-O----@O--yy---oO---yfy",
"22<<-.    -*---O$@O$OO-yw--------y------y->l--OO--*-y*-*-O-y-yl-",
"<<<yyy    O>OOOOO-*@O$->-y-------yr--yk---ls--O--y----y---yy-y*-",
"<<-hj-    y-O-OOOO-OO--r-yq-----y:yr--yly-sy->O@-yy--yl>;wyy--*-",
"<----.    -+----;@OOO-yy>-y---y--*--->-slyly---O--yy;yil;y->OOOO",
"sfl--    --oyyy---O->-ylOOy-*yy>sy--yy--lyy-llyOO--y-yas;-*;-*--",
"slll-lkisl-OO-yy,-Oy--l-----lyy*ssyy-ljy;yyyy---O->>*-ys-ylslry-",
"rlly-ywhO--OO>-wy-Oyy-Oo>>--ll--lhy---slyy-y---OO---yyylylsly>;;",
"OyjOOyl$O>--Oo-,->-yl---hlsl>->-ly--*---yy>--OOO-yylssjyyyyy--O$",
"-;0yr>OOljy-*O-----;ll-lssy------y;-OO--=y-----O---;-yryOo--OOO-",
"-lsk---lyy-uOO*l->---**ls;Olkyy--l--OOO---;O----OO----OOOO-*-=y-",
"0l0>-------->O;ll-*ylssy--lasdl-yl-#O-OO*-OOO>y--OO--OO-yOO---y-",
">--000---00>O@-lh-ysslll--lyll*O---O-y-&OOO---yy--@$OO-yy-OO---o",
"--80;----09OOo-l-->thally-uwl--O---O-u-->Oy---,r---OO-yye-;O-->@",
"-*y---rw--yOO----*----*-OO----OO---O-yy-:-y-----r--*--r----O-*OO",
"-*;-O--y----O*y--;;ll--;--*---O;---OOy-r--yyO-y----lh---->;*--$-",
";-OOO--y---lO*yr--yul---y--yw$OO*-O@O>-y-;-lO-yy--yrl---y>-yyOOO"
};
