/* XPM */
static char *_6501_587235a5a0e47d8483d6003f8fca25dff7a2331a4ecfd50a2450d3fb2505e961[] = {
/* columns rows colors chars-per-pixel */
"64 64 48 1 ",
"  c #090A14",
". c #1E3616",
"X c #1F3616",
"o c #1E3716",
"O c #1F3716",
"+ c #1E3617",
"@ c #1F3617",
"# c #1F3717",
"$ c #263A16",
"% c #273A16",
"& c #263B16",
"* c #273B16",
"= c #263A17",
"- c #273A17",
"; c #263B17",
": c #273B17",
"> c #241527",
", c #341C27",
"< c #351C27",
"1 c #341D27",
"2 c #4D2B32",
"3 c #2D4217",
"4 c #2C4317",
"5 c #2D4317",
"6 c #344C1A",
"7 c #354C1A",
"8 c #344D1A",
"9 c #344C1B",
"0 c #354C1B",
"q c #344D1B",
"w c #354D1B",
"e c #5F761E",
"r c #5E761F",
"t c #5F761F",
"y c #5F771F",
"u c #476820",
"i c #476920",
"p c #466821",
"a c #476821",
"s c #466921",
"d c #476921",
"f c #7A4840",
"g c #7A4940",
"h c #7A4841",
"j c #7B4841",
"k c #AD7756",
"l c #AC7757",
"z c #AD7757",
/* pixels */
"X&&XX&&&&9atd&dq&qad&;&qq&&&q&XX@&&XX;&&&ddts&dq&ddd&;&wq&&&w&XX",
"&*&$OX;&&&&atq&&8qqqq&&qq&*&XXX&&w*$.X&qq&&dtq&&ddttd&&qq&X+$XX&",
"&&q&&@XX@&&&;&&&&&&&&&;&&&.XXX&&w8X@X$&&;$&&$&&q&&&;&&&&&XX&&&&&",
"qqw&q;&&.X*&XX;&X&&&&q&&&&&X.XqdqqX&&&&&&&$*q&;q*&qqq&&=X@&&&&&q",
"dq;&qq&&;XXOX.OXXX&&&qq&$$&&XdttqqXX&qqq&&&;t$q8&qq&&.XXX&;q&%&q",
"q$&&&q&9wqXOX&XXX@&&&wq&&&q&&X&iq;&X#&$qq&&dtqq&&q&&&XX&&&&qq&&q",
"&&qq8*qq&@.X*&&XX&&&8%qq&&d&&X$&$&&.XXX&&q&dtd&*&&&&XXXX&&&qq&&&",
"&&&&q&&&X@&&&q&&&&XXd&*;&td&*&&&&$XXXXXO&&&wdq;&$&&&XXXX&q&&q&&q",
"q&&;&&&&@&&;9q&&$&&Xdt;&dtq&&;qqq&&XX&&qtrtd8q&qity@XXX&&q&&$&q9",
"qq&&&&XXX&&*qq&&qqqqdtqqdq=*&&&9dq&&X*&&&wdddqidq&&XX&&&&q9*&qq&",
"qqq&XXX*&q&&q;&:&$qqqdyqq&&&&**&dq&;&;&&&&&0dq&&&XXX&*&&&&qq&q&&",
"&&&$&&&&&id&$&qwq;&qqwtqqdddq;&&&d&&&w&&&&&&&&XXOXO&&&qqw&&q&&&&",
"$;&&qqq&&de9;qqq&&&$;q9qsdq&&$&q&&&&qq&&&;;;;&X&&&#Xqddttq&&$;&q",
"q&&&&&wq&&tt&qq&&&XX.&&&&&&&$&q9q;&qq&*&dttt&&X&qq&XX&$dtt&&&&qt",
"&X&XO&&&&&qdqq&&&&*&X+O&&&*&&qwq&X$8q&&&qdtdi&&Xqt&&XX&*qad&qttt",
"$&&XX*&qttqwqdetd9&&q*XXXXX&%;&&;$&q&&q&qqidqd&qtt&&&&dd9&&qddtq",
"&q&&&&$&$daqdtta&@XXqqXXO*XXX*&&&w&$&q9&&&qdq&&did&;qdta&&*ddds&",
"&q&&&qqw&&q&ddw&XX&&Xqq;X&&&&&&&&q*&q9q$$&&id&qdq&&&tydqqq&9qq&&",
"q&&q&&qqq&&&q&XXX&&&&&*&X&&&&&&&q&&qq&&&&&&&qqq=&&;&*8q9&&&&$&&&",
"&&&qq&&OX&&&&XX&&qq*&&q&X&&qq&q&&&&&&$tttd&&&;&&$&&&&&&OXXX&&&&&",
"q&&&q&$&OOX&q&&$&&qqq$d&&qw&;*w&tqX;&dqydq&&&&&qqq&&d&XX&&kzzzzz",
"8q$&&&&*&&XXdq&&&&&&q&sr&q&&&;q&ttq&dqddq&&&&XXXqdq&at&&9zzzhhgz",
"qw&&qqq&qdqXqq&dq=*&&&qt;*9tq&&&ddd9&dd*&&8qq&;X&&q&dtdzhzhhzhz,",
"Xq&9q8&&$qd8XXqq&&8styqq&qtq&&&&dqi8&&&&&dq&&&XX$$&&&qzzljhhhfz,",
"&*&&*&&&&&&qqXXX*qq&qyeq&ud&&&&&qqqq&&&*$&XX&&X&X$&dzzhhhhhhhh,2",
"&d&&&&&;X@XXXX&@#&&$%9dq&;&;;&&&;qq&*;&&&*XXXXXXX&2,,22hh>>>hh2z",
"5d&qq*&&8q.X@X&qXX&&&&&&&&&&&&&&qq;q$&&dsq&XXXX&&   ,222hhhhhhhh",
"&&&&qw&&&qqq&&&qqXXX&&&&&&&&&&&X&q%qq&&&qq&&XXXw&, ,,,22j22hhhhh",
"$&&&&q&&XX&&*&&qq&&&&X&*XXXXXXXX&&;qq&&;&qq=$XX8q,>,,,,222hhhhhh",
"&&&&&&%XX&$&&&&&q*&&&XXXX@X&qXX@&&&&qq=&&&&&&&&&q,>,,,,222hhhhhh",
"&*&&X@.q*qqwX&q&&&&qq&&%&&&qw&X&&&&;Xq&q&&&*X&q*&,>,,,,22hh2hhjh",
"&=OXX&&&$&qdw&qq*&qqd&&&q&*qqXXX*&XX.&&9&&&dX&9q:,>>>,,,2222hhhh",
"X&&X.$&&&ddtd$d8*ddd$&;qq&&&q&+XX&$OX*&&&ddtd;dq&d,,,,,,,,222h22",
"&q&*XX&q&&qdtq&$datta&&qq&&&&XX&&q&&XX$qq&&dtq;*ddt,,<,1,,,,,22h",
"qq$XXX&qq&X.&d&qqtt&XX&8$&&&&&;&qqX..;&$XX.X&&&*=&*&&$&&&&&,,,,2",
"qq*X&&&&&;.qqqqqds&XXXX=&&&&&&qdqqX&.XXXXq*XXX&&&&*&&&q*&X&&$&,,",
"q9&&&&q&&&ttdXqXXXXXO&X&9qwd&&ytqqXXX&&q&qq&&XX&&&q&$dq&&.X&&&&,",
"q&&$qq&&&ddq&&*&*=qqq&OX&qqqd&&iq&XX&&;9&$wq&X@&:&d&&y&&;&XX*&&w",
"&&&qqq&&&&&&&&&&*qq&&XXX&&&dd&&&&q&&q&q9&&&*XX&&;8dtqqq&*&&&X&&&",
"&&$&&&XX&qw8&&&&q9&&&&qqqX&$XX&&&q&dq&q&&&*&.&qdrd9dqqqdtdq&@&&q",
"&&q&;X&.&&&q9&&&&;&&&qq9q&q&&qt&*&&tq&*&&&&8&&&&qes989dtq&;&#&q8",
"dqq&&q9X&&&&q&&tttd&&&&qq*&&qtt*ddqt&&&qq&&d;qq&&qddq&aq&&;XX&q&",
"d8&&qq&X&t8X&*sitdq*&&XXqq&&ts&&stdqqttd&&&dqq*&;&qq8&&&&&..&&&:",
"&d&&&&XX$teq&aqdd9&$qq&X&&&&dq&&&qtq&&&&&&;&8q&qq*&&&&&&;q&;&&=&",
"&&;&&XXX&did*&qd&&&&qXXqddd&&&&&&&qq;XXXX&8d&&sq&&&&$;OX&qq&&:&q",
"t&qq%@X.X&qaq&dd&&&&XOdttdd&&attt&&&XX&&XX&qdqd&&X&&q&;@X&qq&*qt",
"&X&qq&&&@&&9q&$&ddwXXXX;;&&&dtt7&X&*X$&q&XX&6q&&XX&6q&&&X;&q&&te",
"&&&*qq$&$&&&&&&qdttd&&&&qqq&&&&&;XXXX&;qq&X&&&&OX&;wq&&&.X&&&qyq",
"&q&&&*&&+X&$&&&.@OXXXX&q8&&&&&;&&q&&&&&&q&=d*&XX&&$&q&&$&X&q&qd&",
"&q&qqq&&XXX;XXXOX&$OX@&;$q&&&&&&&q9&&qd&&&dt&&X&&q&&&&q&&&qq&q&&",
"w&&id&&&qqq&@&X@XX&XX&&9&q9&&&&&q;qq&&qsq&t8&;X#&qq*&qd;*8qq&&$&",
"&;&*&&&qq&&o&&&&&XX.X&qq;&q&&&q&&$&&&;&tdqdq&&&X&&qq*wed*q&&XXXX",
"ttd&&&$&&&&.qqq&*&X&&&qd@Xq&$qq&tq&&qq&&dqq&ddqXX&&q&qrt&&&&&$&&",
"tddd&dsetd&XX&qq:&Xq&&d&&&*&d9q$ttqq&diq*qqqq&&&X&;&$&qt&qdtd9q;",
"qddq&q8dX&&XX;&qq&Xqq&X.;;&&dd&&diq&&&tdqq&q&&&XX&&&qqqdqdtdq&*&",
"XqaXXqd@X;&&XX&-&&&qd&&&ddtd;&&&dq&&&&&&qq&&&XXX*qqdttdqqqqq&&X@",
"&*599;XXddq&$X&&$&&*dd&dttq&&&&&&q*&XX&&&q&&&&&X&&$&&q9qX.&&XXX&",
"&dtd&&&iqq&wXX$d&&&&&$$dt*Xdsqq&;p&&XXX&&&*X&&&&XX&&&&XXXX&&&&q&",
"5d5;&&&&&&&&=X&dd&$qdetq&&drttd&qd&+X&XX$&XXX&8&&X.$&XX&qXX&&&q;",
"&&&555&&&55&XO&di&qttddd&&dqdd&X&&&X&q$#XXX*&&qq&&X@XX&qq;XX&&&.",
"&;35:;&&&54XX.&d&&;wdtsdq$w8d&&X$&&@&w&;&Xq&&&:9&&&XX&qqw&*X&&;O",
"&$q&&&98&&qXX&&&&$&&&&&$XX&&&&XX&&&X&qq&$&q&&&&&9&&;&&q&&&&X&&XX",
"&$%&O&&q&&&&.$q&&**id&&*&&$&&&X*&&&XXq&q&&qqX&q&&&&di&&&&&*&&&X&",
"*&XXX&&q&&&dX$q0&&qqd&*&q&&qq@XX$&XOX&&q&&&sX&qq&&q9d&&&q;&qqXXX"
};
