/* XPM */
static char *_2186_45e7574fc3fed99554ab72af9fa0dfbd04578b5ac2fe2367607eef9d8ef9d6eb[] = {
/* columns rows colors chars-per-pixel */
"64 64 50 1 ",
"  c #080A14",
". c #090A14",
"X c #1E3616",
"o c #1F3616",
"O c #1E3716",
"+ c #1F3716",
"@ c #1E3617",
"# c #1F3617",
"$ c #1E3717",
"% c #1F3717",
"& c #263A16",
"* c #273A16",
"= c #263B16",
"- c #273B16",
"; c #263A17",
": c #273A17",
"> c #263B17",
", c #273B17",
"< c #241527",
"1 c #251527",
"2 c #341C27",
"3 c #4D2A32",
"4 c #4C2B32",
"5 c #4D2B32",
"6 c #4D2B33",
"7 c #2D4217",
"8 c #2C4317",
"9 c #2D4317",
"0 c #344C1A",
"q c #354C1A",
"w c #344D1A",
"e c #344C1B",
"r c #354C1B",
"t c #344D1B",
"y c #354D1B",
"u c #5F761E",
"i c #5E761F",
"p c #5F761F",
"a c #5F771F",
"s c #476920",
"d c #476821",
"f c #466921",
"g c #476921",
"h c #7A4840",
"j c #7A4841",
"k c #7B4841",
"l c #7A4941",
"z c #AD7756",
"x c #AD7657",
"c c #AD7757",
/* pixels */
"o==oo====edpg=gt=tdg=>=tt===t=oo#==oo>===ggpf=gt=ggf=>=yt===y=oo",
"=-=&+o=====dpt=&ttttt==tt===ooo==y-&Xo=et==gpt==ggppg==tt=oo&oX=",
"==y==#Xo#=============>===Xooo>=yto#o===>&>=&==t===>==-=>oo=====",
"tty=e>=&Xo-=+o>=o====t=====#Xotgtto=======&=t>=t-=ttt===o#==>==t",
"gt==tt==>oo+oooooo===tt=====ogppytoo=ett====p&tw=tt==XXoo==t=*=t",
"t&===t=eyto+o=oo+o===yt===t==o=gt==o#=&tt==gutt==t===oo====tt==t",
"==tew-tt=oXo-==oo===w=tt==g==o=&&==Xooo==t=gpg=-====ooo#==-tt===",
"====t===##===t====oog====pg=====&&ooooo+===tgt=&&===oooo=t==t=&t",
"t=======o===et==&==ogp>>gpt===ttt==oo==tpipgwt=tgppoooo==t====te",
"tt====ooo==-tt==ttttgpttgt;*===egt==o====yggstsgt==oo====tt,=tt=",
"ttt=o+o-=t==t>=-=&tttgptt=>===,=gt===>=====rgt===ooo=,====tt=t=&",
"=========sg=&=tyt>=ttypttggst,==>g===y========oo+o+===tty==t====",
"&>==ttt==gut=ttt====>tttfgt=-&-t====tt===>==>=o==>%otggppt==&=>t",
"y=====yt==pp=tt===ooX=======&=tet>=tt=-=gppp==o>tt=o#=&gpp====tp",
"=o=o+=====tgtt==&=-=o@+======eyt=o=tt===tgpgg==otp==oo=-tgg=tppp",
"=-=oo==wpitytgupge==t=oooXo=&>=->==t==t=ttsgtg=wpi====gge==tgspt",
"=t======&ggtgppd=ooottoo+-ooo-===y===te===ygt=&gsf=>tgpg===gggf=",
"=t>==tty-=t=ggt=oo==ott=o==&====>t==tet&&==sg=tgt===ppgttt=ttt==",
"t==t==ttt===e=ooo====>-=o=======t==tt=======ttt====>-wwe====&===",
"===tt==+o====oo==tt-=>e=+==tt=t======&pppg===>========&+ooo=====",
"t===t=&=o+o=t==&==ttt=g==ty=>=y=pt+>=gtagt=====ttt==g=oo==t=-*==",
"wt========oogt======t=fi=t===>y=ppt=gtggt-=&=oo#tgt=gcccccccccc=",
"ty==ttt=tgtott=gt=-===tp>-tpe===dgge=dg-==wtt=>+==t=ccchjjccjjcz",
"ow=etw==&tgwoott==tfpatt=tpt====gtst====-gt===#o=&cjcjjcjc24cccc",
"=-==-======ttooo=tt=tapt-dg=====tttt==-=&=oo==o=occcjjjjjx25zccc",
"=g======o#oooo=o#==&=tgt=>=>>===>tt*-=====oooXoccjjkjjjjj25ccxcc",
"9d=yt-==ttOo#o=too============>=tt>t&==gft=Xo32255jj<<<jj5cccjcc",
">===ty===tet===ttooo=>=======>=o=t*tt===tt==.  2555jjjjjjjjlccjc",
"&====t==#o==-==tt====o=-oooooooo==>tt==>=tt;2.22255j55ljjjhhccjj",
"======-oo=======t->==oooooo=to+o====tt:=====2<2222555jjjjjjzcjjj",
"===-o#Xt-ytto=t>==>tt==*===ty=o===&>ot=t====2<2222545jljjjjjjjjl",
"==ooo===&=tgt=tt-=ttg===t=-tto%o==ooo==t===g2<222255jj5jjjjljjjj",
"o==oX&===dgpd&gw-ggg==>tt===t=#oo=&oo==-=ggp21<<2226555jjjjjjjjj",
"=t=-oo=t==tgpt=&gdppg==tt&==&oo==t&-oo&tt==gp22222222535j55jjjjj",
"tt=ooo=tt=oX=g=tyap=oo=w&==-====ttoXo>=&ooXo==222222222255jjj5jj",
"tt=o=====>otttttgf=oooo;=====>tgtto=Xoooot-ooo====-===22225555jj",
"tt====t===ppgowo+ooo+=o=wtyg==ppttooo==t=tt&=oo===t=&gt==2255jj5",
"t=>&tt===ggt=-=&==ttt=oo=tetg==gt=oo==>e=&yt=o#=,=g==a==>=o5555j",
"===ttt=======&>=-tt==ooo===gg====t==t=te===-oo==>wsptet=-===555j",
"==&===oo=tyw====tt====tttX=&oo===t=se=t=====X=tgpgegtttgpgt=#555",
"==t=>o=X===te========wtet=t==tp====pt======t=>==tpfewegpt===%=t5",
"gtt=&teo====t==pppg-===tt===tpp-ggtp===tt==s>tt==tggt=dt-&>oo=t=",
"gw==tt-o=pto=-gspgt-&=#ott==pf==fpgttupg===gtt-->=ttw==>==XX=-=-",
"=g====oo=ppt=gtgst=&tw=X====gt===tpt======>=wt=tt*==--===t=>-->=",
"=->==ooo=gsg==tg====tootggg=======tt>oooo=tg==ft=-===>Oo=tt==,=t",
"p=tt=%oXo=tdt=gd====oOgppgg==dupp>==oo==oo=tgtg==o==t=>@o=tt=-tp",
"=o=tt===#==et=&=ggyoooo>====gipq=o=-o==t=Xo=et==oo=0t=-=o==t=&pu",
"===-et&>=======tgapg==-=tty======oooo==tt=o====+o==tt==>Xo===tat",
"=t==--==@o>&===o#+oooo-tw&>======t======t=>g==oo=&&=t==&=o=t=tg.",
"=t=ttt==Xoo>oXooo=&+o#=>=t=======te==tg===gp==+==t====t===te=...",
"y==sg===ttt=o=oooo=oo=&e=te=====t>tt==tgt=pt=>o+=tt-=tg>-wtt....",
"=======tt=-O=====oooo=tt>-w===t==&===>=pgtgw&==o==tt-tug-t=>....",
"ppg>==&====Xttt===#=&=egoot=&tt=pt==tt==gyt=ggtoo==t=tip=====&==",
"pggg=gfupg=oo=tt,=ot==g&==*>gtt&pptt=ggt-tttt===o=>=&=tp=tfpgey=",
"tsgt=ttgo==oo>=tt=ote=oX;;=-gg==gst===pftt-t===oo==&tttgtgpgt=-=",
"otdootg#o>==oo=:=-=td===ggpg>===gt======tt===ooo=ttgppgytttw==o#",
"=-9te>ooggt-&X==&==-gg=gppt======t-=Xo===y=====o=====tetoX==o#o>",
"=gpg===gtt=yoo&g=====&&gp-ogftt==g==ooo===-o&===oo====+ooo====t=",
"9g9>=====-=>>o=gg=&tgppt==gippg=tg=@o=oo&=ooo=t==oo==+o=too===t-",
"===999===99=#O=gs=tapggg==gtgg=o===o=t=$oo+===tt=&o#oX&tt=oo===X",
"==79-====98ooX=g==>ygpggt=ywg=&#===o=r===ot===,e===oo=tty=-o===+",
"=&t=&=ew==too====&======oo====oo&==o=ty=&>t=====r=====t--=-o==oo",
"=&-=o==t====o&y==--gg==-==&===o-===oot=t==tto=t====gs=====,&->o=",
"-=ooo==y===go&te==ttg===t==ttooo&=o+o==t===go=tt==teg==-t>=ttooo"
};
