/* XPM */
static char *_5368_1b2bd31ebca3a883f423c2c21b12f76986d63fb6ec71fdfc6eba74fe54de2ca2[] = {
/* columns rows colors chars-per-pixel */
"64 64 53 1 ",
"  c #090A14",
". c #1E3616",
"X c #1F3616",
"o c #1E3716",
"O c #1F3716",
"+ c #1E3617",
"@ c #1F3617",
"# c #1F3717",
"$ c #263A16",
"% c #273A16",
"& c #263B16",
"* c #273B16",
"= c #263A17",
"- c #273A17",
"; c #263B17",
": c #273B17",
"> c #241427",
", c #241527",
"< c #251527",
"1 c #341C26",
"2 c #341C27",
"3 c #351C27",
"4 c #341D27",
"5 c #4D2A32",
"6 c #4C2B32",
"7 c #4D2B32",
"8 c #4D2B33",
"9 c #2D4217",
"0 c #2C4317",
"q c #2D4317",
"w c #344C1A",
"e c #354C1A",
"r c #344D1A",
"t c #354D1A",
"y c #344C1B",
"u c #354C1B",
"i c #344D1B",
"p c #354D1B",
"a c #5F761E",
"s c #5F771E",
"d c #5E761F",
"f c #5F761F",
"g c #5F771F",
"h c #466820",
"j c #466920",
"k c #476920",
"l c #476821",
"z c #466921",
"x c #476921",
"c c #7A4840",
"v c #7A4841",
"b c #7B4841",
"n c #7A4941",
/* pixels */
"X&&XX&&&&ylfx&xi&rlx&;&ii&&&i&XX@&$OX;&&&xxfz&xi&xxx&;&pi&&&i&XX",
"&*&$O@&*&&&lfi&&iiiii&&ii&&&XXX&&p*$.X&ii&&xfi&&xxffl&&ii&XX$XX&",
"&&i&&@.X@&:&&&*&&&&&&&;&&&.X.X&&piX@X&&&&$&&$&&i&&&;&&&&&XX&&&&&",
"iip&i;&&.X*&XX;;X&&&&i&&&&&X+XixiiX&&&&&;&$&i&&i*&iri&&&X@&&&&&i",
"xi&&ii&&;XXOX@XXXX&&*pi&&&&&XxffiiXX&iii&&&&f$ii&ii&&.XXX&$i&*&i",
"i$&&&i&ypiXOO&XOXO&&&pi&&&i&&X&xi&&X#&$ii&&xfii&&i&&&XX&&&&ii&&i",
"&&iir*ii&X.X*&&XX&&&r&ii&&x&&X$&$&&oXXX&&i&xfx&*&&&&XXXX$&&ii&&&",
"&&&&i&&&X@&&&i&&&&XXx&&&&fx&&&&$&$XXXXX#&&&ixi&&$$&&XXXX&i&&i&&i",
"i&$;&&&&X&&&yi&&$&&@xf;&xfi&&&iii&&XX&&ifdaxri&ixffXXXX&&i&*&&ry",
"ii&&&&XXX&&*ii&&iiiixfiixy-*&&&yxi&&X;&&&pxxxikxi&$XO&&&&ii*&ii&",
"iii&XXX*&i&&i;&*&$iiixfii&&&&&:&xi&;&;&;&&&uxi&&&XXX&*&&&&ii&i&$",
"&&$&&&&&;jx&$&ipi;&iiufiixxxi:&&;k&&&p&&&&&&&&XXOXO&&&iip&&i&&*&",
"$;&$iii&&xai&iii&&&&;iiizxi&&$&i&&&&ii&&&&&&;&X&&&#Xixxffi&&$;&i",
"i&$&&&pi&&ff&ii&&&XXX&&&&&&&$&iyi;&ii&*&xfff&&X&ip&XX&$xff&&&&if",
"&X&XO&&&&&ixii&&&**&X+O*&&&&&ipi&X&ii&&&ixfxx*&Xif&&XX&*ilx*iffd",
"&$&XX&&iffipixsfxu;&i$XXX.X&$;&&;&$i&&i&iikxix&iff&&&&xxy&&ixxfi",
"&i&&&&$&$xxixffl&@XXiiXXO*XXX*&&&p&&&iy=&&ixi&&xkx&;ixfx&&&xxxz&",
"&i&;&iip&&i&xxi&XX&;Xii&X&&&&&&&&i&&iyi$$&*kx&ixi&*&ffxiii&iii&&",
"i&&77777777&i&XXX&&&&&*&X&&&&&&&i&&ii&&&&&&&iii&&&$&*tiu&&&&$;&&",
"7777777777777.X&&ii*&&i&X&&ii&i&&&&&*$ffax&&&;&&&&&&;&$OXXX&&&&&",
"77775777777777&$&&iii&x&&ip&;&p;fiX;&xigxi&&&&&iii&&z&XX&&i&*%&&",
"7777777cvv777677&&&&i&zd&i&&&;i&ffi&xixxi&&&&XXXiki*xf&&yxi&&ir&",
"777777vvv77777777&:&&&if;*ifi&&&xxxy&xx*&&wii&;X&&i&xfx&xi;=ii&&",
"7777vvc77nvvv77777rzfgii&ifi&&&&xikr&&&&&xi&&&XX&$*&&ixXz&&&*&&*",
"77vvvvvvvvv77787777&igfp&lx&&&&&iiii&&&$$&XX*&X&X$&x&&iiXxfxx&&&",
"77vvv77vvvv77777777&&ixi&;&;;&&&=ii&*;&&&&OXXXXXX&lffxiixfh$&&i&",
"777vvv77vv7777b77777&&&&&&&&$&&&ii;y$&&xzi&XXXX&&&&ixfxixz$&&ir&",
"vvvvvvvvvvvvvv777777&&&&&&&&&&&X&i%ii&&&ii&&XXXp&&&&&xxix&&pii&X",
"vvvvvvvvvvvvvvv777777X&*XXXXXXXX&&;pi;&;&ii=$OXwi$&&*&&&&&&&&&&X",
"7vvv77vbv778vvvv77777XXX@XX&iXXX&&&&ii=&&&&&&&&&ii&&&&*&&&&&&&.O",
"7vvvv77vvvv57777777777&%&&&ip&X&&&&;Xi&i&&&&X&i&&&$zx&&&&&&$&&X&",
"vvvvvvvvvcvv7777777777&&i&*iiXXX&&XXX*&i&;&xX&yi*&iix*&&i&&iiXXX",
"vvvvvvvvvvvvv7777522777ii&&&i&@XX&$XX&&&&xxfx&xi&xxz&&&ii&;&i&XX",
"vvvvv7vvvv7vvv887772272ii$&&&XX&&i&&XX$ii&&xfi:&xxffx&&ii&XX;XX&",
"77vvv77vvvv7vv777757222r$&&&&$&&iiX..;&%.X.X&&&*&&*&&$&&&&&&&&&&",
"7vvvvv77vvv777777117232=&&&&&&ixiiX&+X@XXi*XXX&&&&*&&&i&*X&&&&&r",
"vvvvvvvvvnv77777722222X&iipx&&fgiiXXX&&i&ii&*XX&&&i&$xi&&.X&&&&i",
"vvvvvvvvvvvv772272212&XX&iiix&&xi&XX$&;y&$ti&X@;-&x&&g*&;&XO*&&p",
"7cv77v77v7vvv7722722&XXX&&&xx&&&&y&&i&iw&&&*XX&&;rxfiii&*&&&X&&&",
"77v77vv7777vvv72222&&&iiiX&$XX&&&i&xi&i&&&&&.&ixfxyxiiixfxi&@&&i",
"77777vv777777772222&&iiyi&i&&if&&$&fi&&&&&&i&&&&ifzyryxfi;&*#&ir",
"277277v77777777222x&&&&ii&&&yff*xxif&&*ii&&x;ii&&ixxi&li&&;XX&i&",
"224227772772773122i*&&XXii&&fz&&zfxiifdx&&&xii*&;&iir&&&&*..&&&*",
"&2222212277227222i&$ii&X&&&&xy&&&ifi&&&&&&;&ri&ii*&&&&&&&i&;*&;&",
"&&;&&XXX22752222,&&&iXXixxx&&&&&&&ii;OXXX&ix&&zi&&&&&;OX&ii&&-&i",
"f&ii&@X.X&,,,222,,&&XOxafxx&&lfff&&&XX&&XX&ixix&&X&&i&;.X&ii&*if",
"&X&ii&&&@&&y,>222,uXXXX;&&&&xffe&X&*X$&i&XX&yi&&@X&ri&&&X;&i&&fa",
"&&&*ir$&&&&& ,,,2,fx&&&&iii&&&&&&XXXX&&ii&X&&&&OX&&ir&&&.X&&&igi",
"&i&&&*&&+X&$   ,,,@XXX&ir&&&&&&&&i&&&&&&i&;x&&XX&&$;i&&$&X&i&ix&",
"&i&iii&&XXX;  ,,,&$OX@&;&i&&&&&&&iy&&ix&&*xf;&X&&i&&&&i&&&ii&i&&",
"i&&kz&&&iii  ,,<,X&XX&;y&iy&&&&&i;ii&&ixi&fi&;XO&ii*&ix&*rii&&$$",
"&&&&$;&ii&   ,,,&XXXX&ii;&i&&&i&&$&&&;&fxixi&&*X&&ii*pax*i&&XXXX",
"ffx&&&$&&&    i&*&X&&&ixXXi&$ii&fi&&ii&&xii&xxiXX&&i&idf&*&&&&&&",
"fxxx&xzafx&XX&ii:&Xi&&x*&&*&xii$ffii&xxi*iiii&;&X&;&&&if&ixfxyi&",
"ixxi&irxX&&XX;&ii&Xii&X.=;&&xx&&xki&&&fxii&i&&&XX&&&iiixixfli&*&",
"XilXXix@X;&&XX&-&&&ix&&&xxfx;&&;xi&&&&&&ii&&&XXX&iixffxiiipi&;X@",
"&*qiu;XXxzi&$X&&&&&*xx&xffi&&&&&&i*&XX&&&r&&&&&X&&&&&iyiX.&&XXX&",
"&xfx&&&xii&pXX$x&&&&&$$xf*Xkzii*&x$&XXX&&&*X&&&&XX&&&&XXXX&&&&i&",
"qxq;&&&&*&&&;X&xx&$ixfgi&&xdffx&ix&+X&XX$&XOX&i&&@X&&XX$iXX&&&i&",
"&&&qqq&&&qq&XO&xk&iffxxx&&xixx&X&&&X&r&#XXX&;&ii&$X@XX&ii&XX&&$.",
"&&9q%&&&&q0@..&x&&;pkfkxi&prx&&X&&&X&p&&&Xi;&&:y&&&XX&iip&*X&&&O",
"&$i&&&yr&&iXX&&&&$&&&;&&XX&&&&XX&&&X&ii&$&i&&&$&y&&&&&i&&&&X&&XX",
"&$*&X&;i&&*&X$i&&**xx$&*&&$&&&X*&&&XXi&i&&iiX&r&&&&xk&&&&&*&&&X&",
"*&XOX&&i&&&xX$iy&&iyx&&$i&&ii@XX$;XOX&&i&&&zX&ii&&iyx&&&i;&iiXXX"
};
