/* XPM */
static char *_f197a6b150d47ccef3c894895f59214AAKeopuUZMuap9rz[] = {
/* columns rows colors chars-per-pixel */
"64 64 45 1 ",
"  c #090A14",
". c #090B14",
"X c #090A15",
"o c #1E3616",
"O c #1F3616",
"+ c #1E3716",
"@ c #1E3617",
"# c #1F3717",
"$ c #263A16",
"% c #263B16",
"& c #273B16",
"* c #263A17",
"= c #263B17",
"- c #273B17",
"; c #241427",
": c #241527",
"> c #341C26",
", c #341C27",
"< c #341D27",
"1 c #4D2A32",
"2 c #4C2B32",
"3 c #4D2B32",
"4 c #4D2B33",
"5 c #2D4217",
"6 c #2C4317",
"7 c #344C1A",
"8 c #344D1A",
"9 c #344C1B",
"0 c #344D1B",
"q c #354D1B",
"w c #5F761E",
"e c #5E761F",
"r c #5F761F",
"t c #5F771F",
"y c #466920",
"u c #476821",
"i c #466921",
"p c #476921",
"a c #7A4840",
"s c #7A4841",
"d c #7B4841",
"f c #7A4941",
"g c #AD7756",
"h c #AC7757",
"j c #AD7757",
/* pixels */
"O&&O%%%%%7iei&i7%9ii&%%q0&&&0&OOO&%*O%%%%iiei&i0%iii%=&00&%%0&OO",
"&&&&++&%%%&ie9&&9988q&=q0&%%OOO&=0%%OO%99%*ie0**iitei%%99&OO&@O&",
"&&9&%+++O%%%%*&&%%%%&%%%%%+@OO%%99@OO%%%&%&=&&&9%%%%%%%%&OO%%%%%",
"999&8%%%OO%%OO*&O%%%&q%%%%%@OOqi99@%%%%%&&&%9%&9&%997%%%@O&%%%%0",
"i9%%99%%%@OO@OOOOO%%%08%%%&&Oitt90OO%999&%%%e&09&99%%%OO+%%9%%%9",
"9&%%%9%800O@O%OO++%%%89%%%0%%@%i9%%OO%%90&%ie09%%9%%%+O%%%%99%%9",
"&%999%99&OOO&==O@%%%0%98%%i%%O%%%%%OOOO%%0&iei=&%%%%OOOO%%%99%%%",
"%%%%9%%%OO%%%0==%%@*i%%%%ei%%%%%%%OOOOO@&&&qi0%%&%%%OOO+%9%%9%%9",
"0***%%%%O&%%99%%%%%+it%%ie9&%%009%%O@%%qttei99%9ieeOOOO&%9%%%%00",
"00=*%%O@O%%%99%%9999it99i0&&=%%0i9%%@%%%%0iii9ii0%&OO%&&%80%%00%",
"997**O@&%9%%9%%%%%909yt90&==&%%%i0%%%=%%%%%9i7%%&OOO%%&&=%08%0%%",
"%%%%%%&&&ii%%%999%&098t99iii0=%&%i%%%0%%%%%%%%OOOO@%%%990%%0%%%%",
"%%%%qqq&%it0%999%%%%&000ii9%%%=0%%&&99%%%%&&%&O%&*@O7iiet9%%%%%q",
"9%%%%%00%%tt%98%%%O@O&&=&&%%&=900%&09%%%pttt&&O%99=OO&&iet%%%%0t",
"%@%@+%%%%%8i99%%%%%%++O%==%%%909%@%09%%%9ptpi&&*9e==%O&&9ii%9ett",
"%%%@+%%9tt888ytti9%%0%OO@++%&=&%=%%q%%0%98pp9i&9te%=&&pp9%%9iit0",
"%0%%%%%%&ii7iewu&OOO99@O@&OOO%%%%9%%&99&%%9yq&&piy%%8yey&%%iiii%",
"%9%%%988&&7&ii7&OO%%O99&O%%%%&%%%9%%999&%%%yi&9i9%%%eey999%777%%",
"9%%9%%899&&&9&@@O&&%%%=&O%%&%%&%9%%99%&&%%&24411242%&977&&&&%%%%",
"%%%99%%+@&&&&@@&&77%%%9%O%%90%9%%%%%%%tt2444441124441&&o%OO&%%%%",
"0%%%9%%%*@hjjjjjgghh9%i%&90&&&q-tq+%gggg23334111222233$o&&0%%%%%",
"90%%%%%%-jhhaaajgddhhhie&9&&&&qjggjjggg4223344ffa22233330i0%&99%",
"80%%889hsjssjsj<1jhhhhhh=&0jjhjjjjfjg4g333334asa4444333329%%99%%",
"@0%qq8hhjsssssj,1jhhhhhhjjjjjjssfjff2443333asa44aaaf333312%%%%%%",
"%%%%hhfffffass<4jjjjjjjjjjjjjjjjffff14444aasssssaa323333142yy&%%",
"%i4<<11ff;;;ss4jjjdjjjjjjjjssssjjf1111444aas44ssda343333242&&&9%",
"6...>144ffffssssdjjdjjjjssjjssssf111114444ssa44sd4443a234422%99%",
"&<.<<<41a11assasfjjdsssjjssjssssf1fa44aasssaasaadadaa344442297%%",
"&<;>,,<111fffassjjdsssjjjsssssssdda423aasssfaaaaaaafad4122242%%+",
"&<;>,,<111ffaassffsssssjssssssssfaa42233sss44aaa444faaa422242%++",
"&<;<,,,14ff4aaasfaassssjssssssssffaa44a3sssa44ffaa143333234422@%",
"&<;;;,,,4411aaasaassssssssssssssff4a24ddsssafafffaa43333334412@*",
"O%,,<<<<,,122a22ssssssssssssssssfa11414fsssasssssass422333>>113*",
"%9%,,<<<,<,<,22ssssassssssssssssaaff4fffsass4ssas4ssa423333<<1,&",
"99&OOO%09&O<,<,24f4assssssssssssff1144f14fss44aasa4aa1113333>>,&",
"99&O&&%%&&O999<>444ssssassssssssa1114111sssaa44asa4444413<<3<>,7",
"90**%%0%&&eei%7>11ff1faasssssssaa44442aaaaaaffaass4441112,,,<,&9",
"9%==99%%&ii9%%&%1111ff4assssaas4fdd4223affaafffassa411<<2,,,<&&9",
"%%=999%&%&&&%%&&%411f14a4sssfaf111d1>><1ff11f12a4aas114<,2,,O%&%",
"%%%%%%O@%909&&&%994414a44sss4aaf441,,><<1f11af2444asf14<,,,%@%%9",
"%%8%%+%+%%%99%%%&%&&44a2ffff111f44<<,,,,2221af144444222,,,,%@%99",
"i99%%80*%%%%9%%ttti&&414411ff11a4<>>%&,,,21,41142441112,,,&+O&9*",
"i9%%00=@%e9+%%iiti9&&&o24f1111<><<y97ee,,,,,>144>11<11,,,>O*%%*%",
"%i%%%=OO%et9%y9yp9&&99224111<<<>&9t9%%%&&,,,><<<>41>>1,,X9%%%%%%",
"%%%%%+++=iii&&9p%%&&9222111,>>  &&77&@O@O&9i%%i;:>44,,, ..9%%%%0",
"t%99%+++O=9y9&py%%&&;232,,,,X   t&&&@@&&OO&9i9y%::>>,,;....9%%0e",
"%O%99%%%%*&99&%%yy9;33<<,,> X . &@&&o&&7&@O%99%%O:>>,;  ....&&ee",
"%%%%99%%=%&&&&%9pet;<<<<;97   ..&*@oo&&79%+%%%%OO:>>;&  ..XX%0e0",
"%9%%%%%%+O%%%&%+@@::<:::9%%%XX..%0%%%%%%9%%i%%OO%:<::%%%..XX.9i&",
"%9%999%%OO+%*OOO@::::::%%9%%.....0q%%qi%%%ie%%O%%:;;:%9%%.X..9&&",
"9%%ii%%%999%O%O@@:::::&9%99%&....%qq%%qi9%e9%%OO::::%9i%%...X&&&",
"%%%%%%%99%%+%%%%::::@&99%%9%&&...%%%%-%ti9i7%%%;:;::%9ti%9...OOO",
"eei&&&&%&&%+999%;;;;&&7y++9%%9...9%%00%%i99%ii7;:::9%9tt%%%%%%%%",
"tiii&iieei%+O*99*%@0&&i&%%%%i98%et99%ii0%9999%&&@&&&%%9t%9iey99%",
"9ii7&77iO&%+@%%99%O97&*O%%%%ii%%ii9%%%ti00%9%%%O@&&&999i9iei9%%%",
"%9i*O7iOO&%%++%%%%%9i%&&iiti&%%%i9%%%%%%08%%%OOO%q0itti99999%%OO",
"&&600%@Oii7%%O%%%%%%ii&iee9&%%%%%9%%OO%%%7&&&&%O%%**%999++%%OOO%",
"&iei&%&i99&7OO%i%%%%&%&pe%Oii99%%p%%+O@%%%&O&&%%++*%%%++O*%%%%9%",
"6i6=%%%%&&&&%O%ii%%9itt9%%ieeei%8p%%O%OO%%O@O%9%%++%%+O*7@@&%%9%",
"&&%666%%&66&OO&ii%9eeppp&&i7ii%O%%&%%9%O+++%%%99%%%+++*99%OO%%&@",
"&&66%%%%%66OOO%i%%%9ieii9&77i%%O%%%O%9**%O9%%%*9%%&oO%799%%+%%%@",
"&&9&%%97%%9OO%%%%%%%%%%%*O%%%%%O%%%O%90*%%9%%%*%7%&&%&9*%%%+%%++",
"%%&&%%%9%%%%O%9%%%&ii%%%%%&%%%O%%%%O+9%0%%97+%9%%%&yi&%%&&%%%%+%",
"&%@%+%%9%%%iO%99%&99i%%%9%%99OOO%%+++%%9%%%i+%99%&77i%%%9&%99+&+"
};
