/* XPM */
static char *_9321cc482444076bc8356bc58202219Y1f1jE44N0KUeDYc[] = {
/* columns rows colors chars-per-pixel */
"64 64 96 2 ",
"   c #010100",
".  c #000001",
"X  c #000101",
"o  c #1E3616",
"O  c #1F3616",
"+  c #1E3716",
"@  c #1F3716",
"#  c #1F3717",
"$  c #263A16",
"%  c #273A16",
"&  c #263B16",
"*  c #273B16",
"=  c #263A17",
"-  c #263B17",
";  c #273B17",
":  c #282928",
">  c #292928",
",  c #282829",
"<  c #282929",
"1  c gray16",
"2  c #2D4217",
"3  c #2C4317",
"4  c #2D4317",
"5  c #344C1A",
"6  c #344D1A",
"7  c #354D1A",
"8  c #344C1B",
"9  c #344D1B",
"0  c #354D1B",
"q  c #5F761E",
"w  c #5E761F",
"e  c #5F761F",
"r  c #5F771F",
"t  c #7D4932",
"y  c #466920",
"u  c #476920",
"i  c #476821",
"p  c #466921",
"a  c #476921",
"s  c #29346A",
"d  c #29356B",
"f  c #464646",
"g  c #474646",
"h  c #464746",
"j  c #474746",
"k  c #464647",
"l  c #474647",
"z  c #464747",
"x  c gray28",
"c  c #747574",
"v  c #757574",
"b  c #747575",
"n  c #ED1D24",
"m  c #804C36",
"M  c #814D36",
"N  c #814D37",
"B  c #9C5A3C",
"V  c #FE7E00",
"C  c #FF7F01",
"Z  c #946E51",
"A  c #946F51",
"S  c #AD6342",
"D  c #AD6343",
"F  c #C8724E",
"G  c #C8734E",
"H  c #C9734E",
"J  c #C9734F",
"K  c #B4845E",
"L  c #B5845E",
"P  c #B5855E",
"I  c #B4845F",
"U  c #B5845F",
"Y  c #E5AB7A",
"T  c #E4AA7B",
"R  c #E5AA7B",
"E  c #384894",
"W  c #384994",
"Q  c #394994",
"!  c #384895",
"~  c #394895",
"^  c #3E51B4",
"/  c #3F51B4",
"(  c #3E50B5",
")  c #3F50B5",
"_  c #3E51B5",
"`  c #3F51B5",
"'  c #4057C2",
"]  c #4157C2",
"[  c #4156C3",
"{  c #4057C3",
"}  c #4157C3",
"|  c #9F9E9E",
" . c #9E9E9F",
".. c #FFBC8A",
"X. c #FEBC8B",
"o. c #FEFFFE",
/* pixels */
"O & & & O - - - - 6 y q y & y 6 & 6 p p & & & 5 8 - & & 8 & . . . . . . . - - & - p p r u & y 8 - u u u & & & 6 6 = $ $ 6 $ + $ ",
"& & & & + O - - & & & y q 6 & & 6 6 6 6 5 & & 8 8 - & & O . ..........X.... & 8 6 & & p r 8 - - y u r r p & & 6 6 = + + $ + + = ",
"& & 8 & - O O O o $ $ $ & - & & & & & & & & & & & & O O . ..Y Y Y Y Y Y Y Y . - & & & & & & & 8 & & & * = & & & = o o & $ $ = = ",
"8 8 8 & 8 - - - o $ $ $ O O & & o & & & & 5 & & & & & . X.Y Y Y Y Y Y Y Y Y K . & & & & 8 & & 8 & & 8 8 6 & & & = o = & $ $ = 6 ",
"i 8 - - 6 6 - - = O O = O O O O o o & & - 9 6 - & & & . . . . q . . . - . . K . & & & & q - 6 6 - 8 8 & & & o o O & & 6 $ $ $ 6 ",
"8 & - - & 5 - 8 6 6 O + O & O O $ o & & - 8 6 - & & 8 . ..Y Y . . . Y . . . K . 6 - & p q 6 6 - & 8 & & = $ o = & & & 6 6 = = 6 ",
"& & 8 6 6 & 8 8 = O O O & - - O + & - - 9 - 8 x & & p . ..Y Y K Y Y Y U Y Y K . - 6 - p q p - - & - - & O O o o & & & 6 6 & = $ ",
"& & - - 6 & & & O O & - - 5 - - & - + + y - - x x q p . ..Y Y Y Y Y Y Y Y Y K . - - - 8 p 6 - - - - - - O O O o & 6 & & 6 & = 6 ",
"6 = & & & & - - O = & & 6 6 - - & & & O p q - - p x 8 & . Y Y D B . Y Y Y K . 8 r r r a 6 6 - 6 p w q O O O O & & 6 & & & & 9 9 ",
"6 6 & & & $ $ + O & & & 6 5 - - 6 6 5 8 p q 8 8 p 8 g g & . D B t R Y Y K . - - & 8 u a y 6 p p 8 & & O O & & & & 8 9 - & 9 9 & ",
"6 6 6 = + + + - & 6 & & 5 - - & & & 6 6 8 p r 8 8 & & & x C B t U K K U . - - - - - - 8 y 6 = = & O O O & & & & - - 8 9 & 9 & & ",
"= = & & & $ - - & y p & - - 5 5 5 & & 6 8 8 q 6 8 p p . . n C A A A A . . . . - - - - - & & O O O O O & & & 6 6 8 - - 9 & & & & ",
"& & & & 6 6 8 - - u r 7 - 5 6 8 * & & & - 8 8 . . . . . v . ....K K K K . x . . . . * * - - = = & - + O 6 p p q w 8 & & & & & 8 ",
"6 = & & & & 8 8 - - r r - 5 8 & - - & $ + - . . v v . v g . o...R R o. .. x j . . . . . - - - - 8 8 - O O = = y w q & & & & 6 r ",
"& O & & O & - - - - 8 u 8 8 - - - - - - + . v v . x . v x . o.o.Y K o. .. g j . j . . . . * - + 8 q - - $ O - - 8 p p & 6 q q q ",
"& & & O & - - 6 r r 8 8 8 p r r u 8 - - . v . . x x . g g . o.o.o.o.o. .. g j . > > j . . u - 7 q q - - - * y p 6 - & 6 p p r 8 ",
"& 5 & & & & & & - y y 6 y q q u - $ O . v g . v g x . v g g . o.o.o. .. g g . . g g > . > . & u p p - - 6 y q p = = - y y p p - ",
"& 5 & & & 8 8 8 - - 6 - p y 8 & o o . v g g g . b g . . v x . o.o. .. x j g . < g > . < > > . u 8 - - - q q y 6 6 6 - 6 6 6 - - ",
"5 & & 6 - - 8 8 6 - - - 8 - O o o & . v x g x . v x g l . x g . | . g x x . < g x < . > > > . & - - & & $ 6 6 5 = & & - & & - & ",
"& & & 5 6 - - + + - - - - O O - & 6 . v x g x . . b g x g . v . . x x g . < x x < . < < < > > . & * * & = = = O O O + - & & & & ",
"6 - & - 8 - - - O O O - 6 - - - & & . b g g g . . v x x j j . . x g . . < g g g < . > < < < > . 8 8 - - u - & $ & & 6 & & - & & ",
"6 6 & - - - & - - - O O p 6 - - & . g g x x . . . v x x x j j . . . < < . g x < > . < < < < < . 8 y 8 - u r - - 6 y 6 & & 6 6 & ",
"6 6 - - 6 6 6 - 8 p 8 O 5 5 - p 8 . b g x x . q - . v x x g . < < < g g . . . x . * . > < < > . - - 8 - u r u - y 5 & & 6 6 - & ",
"O 6 - 6 6 6 & & & 8 p 8 O & 8 6 - . g x g g . 8 - . v g < . v g g x x g g x x g . a 0 . < < < > . - - - - 7 y + y & & - - & & & ",
"- - - - & & & & & & & 8 6 O O O - 8 . v g x . 8 . v v g < . v j g g h h g h h h > . = . : : < > . & & p - - 8 8 & i q p p & & & ",
"- y & - & - & & O O O O O O - O O - . v g g . 8 . v g . < . v g j j h x h h . k > . = . : : < . & & a r r p 8 8 p q p & & & 8 & ",
"3 y & 6 5 & & & 8 8 O O + + & 8 O $ . v g x . & . v g . < . v g x x x x x x . x > . * . < < < . & & & 8 p r p 6 p i & & = 5 8 & ",
"& & & & 5 5 & & - 8 8 8 & & & 8 5 + . v g g . & . v . x < . v g g x g x x x x . < . & . < < < . & & * & & p p 6 p & & 6 5 5 = $ ",
"& & & & & 8 & & + = & & & & & 8 6 & . v g g . & . v . g < . v v x g g g g g g . < . 8 . < < < . 5 & & & & & & & & & & & = & & O ",
"& & & & & & & O O = & & & & & & 8 & & ..Y I K O . < < < < . v > < < < < , , : : < . & . < < < . 5 8 & & & & & & & & & & = = O + ",
"& & & & & O O 5 = 6 6 6 O & 6 & - - T ..Y & I & . . . . . . . . . . . . . . . . . . & ..Y Y K * & & & p p & & & & & & & - - O - ",
"& & O O O & & & & & 6 p 6 & 8 8 - - T Y Y Y I & . ] Q Q Q Q Q E s s Q Q / / Q / Q . - ..Y Y K 8 & & 8 8 p & & & 6 & & 6 6 O O O ",
"o & & o $ & & - - p p q p & y 8 = i T i Y & & 8 . } Q ! Q / / / s s / / / / / / ! . p ..Y Y K 6 & p p p & & & 8 8 * - - 6 - + + ",
"& 8 & & + + & 7 - - 8 p q 8 & & p i T w p K & 8 . } Q ( / / / / s s ` ` / / / / Q . & p Y Y T & p p q q a & & 8 8 - O O - + + - ",
"8 8 & o + + & 8 8 & O O & p & 5 5 q T & & $ K 8 . } _ _ / / / Q d s Q ` _ _ / _ Q . O O ..Y & & & & & & - & - - * & & & & & - & ",
"7 8 & o & & - - - - O 5 5 5 8 8 y p $ o o o O . } } ( / / _ s . . . . s } _ _ _ Q Q . O O & & & & & & & - & 8 - - = & & & & & 7 ",
"8 8 & & - - 8 - - & r r y & 8 O & O O O O - O . } { ( ( / d d . 8 8 . d d ` ` / / ! . & = O + - & & 8 * & a 8 & & o o $ & & & 6 ",
"8 & & & 8 8 - - - p a 5 & & & & & & 5 5 5 & O . { } ` ` / s Q . 8 - . } ` ` / / ^ Q . 8 & O = - & & p * * r - & & & o $ & & & 6 ",
"& & & 8 8 8 * - & * & & & & & & - 8 8 & & O O . } ] ` / / / Q . & 8 . } _ _ / / ^ Q . & + + - - & 5 a r 8 8 8 * & & & & o & & & ",
"& & & & & & & O & 8 8 5 & & & - 8 8 & & & & 5 . } ] ] ( / Q Q . & 8 . } _ _ _ / ^ Q . & + & 8 p q p 8 p 8 8 8 a q y 8 & o & & 5 ",
"& & 7 - - + & + & & & 6 6 - - - & & - - & 8 8 . { { ] ( / Q . . & - . . { / / / ! ! . 8 & & & & 6 q y 7 7 8 y q 5 & & & # & 8 8 ",
"y 8 7 & & 9 8 o & - & & 6 - - q w q p - & & - . { { ( ( / ! . & p a 8 . { / / / ! ! . p & 7 8 & & 5 y y 8 - y 8 & & & O O & 8 & ",
"u 7 - & 6 6 & $ - q 6 O - - y y q p 8 - - - O . } ] / / / ! . & a r a . { / / / Q Q . p 6 6 - - & & 7 6 7 - & & & & O O & & & & ",
"& u & & & & o o - q q 6 & y 8 y p 8 - - 8 8 - O . ] / / ! Q . & * 8 r . { / / / Q . - - 7 8 - 8 8 & - - - - & & & 5 & & & & - & ",
"& & - & & O O O & y y y - - 8 u - - - - 8 O O 8 . } } / Q . . & - - 6 . . ] / / ! . 8 p & & p 8 & - - - - & o o - 8 8 - & & & 8 ",
"q & 8 6 & O O O $ & 6 y 8 - u u - - - - + & p q . ] } ( Q . r r r - & & . ] / / Q . & 8 p 8 y - & O & - 6 - & o = - 8 8 & - 8 e ",
"& O & 8 8 - & & + & - 7 8 - - - y y 8 O O O O & . } / / ! . r 8 - O - - . s / / ! . & & 8 8 - - & + & 8 6 - & - + - - 8 - - e r ",
"& & & & 8 5 & & & & & & & - - 8 u r q p & & & & . } / Q . . & & - = + + . . / / ! . O & - - - O O - - 8 6 & & - + + - - - 8 e 5 ",
"& 8 - - & & & & = O - - - - - o O O O O O O - . ] } / ! . & & & - 8 - - & . / / Q Q . y & & o o & & & & 8 - - - - + - 7 - 6 y - ",
"& 8 - 6 8 8 & & O O O - O O O + O - & O O O - . ] ] / ! . & & & - 8 8 - & . / / ^ Q . q & & o & & 8 & & - - 8 - - - 8 8 - 6 - - ",
"6 - - y p & & & 8 8 8 - o & O O O O - O O & & . { { / ! . & & & 8 - 8 8 & . / / Q Q . 8 & & o o - 8 8 & - 8 p - - 6 6 6 & & - - ",
"& - - - & & & 8 8 & - O & & & - - O O O O & 8 8 . { / / Q . 8 & - - & & . } / / Q . y 7 & & $ $ - - 8 8 - 8 w p - 6 & & o & + + ",
"q q p & & & & & & & & o 8 8 8 & & & O - = = 5 y . ] / / Q . 8 & r 8 & & . ] / / ! . 8 & y y 8 + + - & 6 & 6 q w & = = = & & & & ",
"q y p p & p p w q y & o o & 8 8 - - O 6 = = y = . } / / Q . 8 & r r 8 8 . ] / / E . 8 8 8 & - & $ - & & & & 8 q & 6 y q y 8 8 & ",
"6 y p 6 & 5 8 p O & & o o $ - 8 6 - O 6 6 = & $ . ] / / Q . & & y u 8 - . ] / / Q . - 8 & & - O o & & & 6 6 8 p 6 p q y 5 $ & & ",
"O 6 y & O 5 p O O & & & o $ & & & = = 6 y = - * . } / Q Q . & & p 8 - - . Q / ` Q . - - - O O O & 6 6 y q q p 8 6 6 6 6 = $ $ o ",
"- - 3 8 8 - O - p p 8 & - O = = - * - - y u * u . ] / Q . . & & - 8 & & . . Q ^ Q . & & & & - O & & & & & 8 8 5 O O & & O O O & ",
"- i q i $ & & p 8 8 & 8 $ O & p - - - - - - * u . Y Y K . 8 8 & - y & & O . Y Y K . & & & & - - O O & & & & O O O O & & & & 8 & ",
"3 p 3 - $ $ & & & & & - & O & p u * * 8 u r . . . Y Y K . q p & 8 y - = O . Y Y K . $ & O & 8 - & O O & & O O & 6 O O & - - 8 - ",
"- - - 3 3 3 & & & 3 4 - O & & y u * 0 r r . H H G K K K . p & O - - - - . G L L . . . . . & 8 8 - & O O O O & 6 6 & O O - & - O ",
"- & 3 3 & & & & & 3 3 O O O & i * * . . . H D D D D D m . & & O & & & O . G G . . G G m . . & 8 - & & O & & 6 6 6 & - O - & & + ",
"- & 5 & & & 6 6 & & 8 O O & & & * . H D D D D D D D D m . & O O & & & O . G D D D D D D m . . & 8 & & & & - 5 & - - - O & & O + ",
"$ & & - O & & 8 & & & & O & 6 & * . m M m m m m m m m m . & O & & & & O . G D D D D N m m m . & & & & p y - & & & & - - - - O - ",
"& & O & O & & 8 & & & i O & 8 6 * .   . . . . . . . . . . O O O & & O & . . . . . . . . . . . 8 & & 8 6 y & & - 6 & - 6 6 O O O "
};
