/* XPM */
static char *_ac26de5133742e6f50624316cfbad6fy5yZlfiGmdl5jvKG[] = {
/* columns rows colors chars-per-pixel */
"64 64 93 2 ",
"   c black",
".  c #010101",
"X  c #1E3616",
"o  c #1F3616",
"O  c #1F3716",
"+  c #1E3617",
"@  c #263A16",
"#  c #273A16",
"$  c #263B16",
"%  c #273B16",
"&  c #263A17",
"*  c #263B17",
"=  c #273B17",
"-  c #292828",
";  c #282928",
":  c #292928",
">  c #282829",
",  c #282929",
"<  c gray16",
"1  c #2D4316",
"2  c #2C4317",
"3  c #2D4317",
"4  c #344C1A",
"5  c #344D1A",
"6  c #354D1A",
"7  c #344C1B",
"8  c #354C1B",
"9  c #344D1B",
"0  c #5F761E",
"q  c #5E761F",
"w  c #5F761F",
"e  c #5F771F",
"r  c #7D4932",
"t  c #476820",
"y  c #466920",
"u  c #476920",
"i  c #466921",
"p  c #476921",
"a  c #29346A",
"s  c #28356A",
"d  c #29356B",
"f  c #464646",
"g  c #474746",
"h  c #464747",
"j  c gray28",
"k  c #747574",
"l  c #757574",
"z  c #747475",
"x  c gray46",
"c  c #ED1D24",
"v  c #814D36",
"b  c #804C37",
"n  c #814D37",
"m  c #9C5A3C",
"M  c #9C5B3D",
"N  c #FF7F01",
"B  c #946F51",
"V  c #AC6243",
"C  c #AD6343",
"Z  c #C8724E",
"A  c #C9724E",
"S  c #C9734E",
"D  c #C9734F",
"F  c #B4845E",
"G  c #B5845E",
"H  c #B5855E",
"J  c #B5845F",
"K  c #B5855F",
"L  c #E4AB7A",
"P  c #E5AB7A",
"I  c #E4AA7B",
"U  c #E5AB7B",
"Y  c #384894",
"T  c #384994",
"R  c #394994",
"E  c #384895",
"W  c #394895",
"Q  c #3E50B4",
"!  c #3E51B4",
"~  c #3F51B4",
"^  c #3E50B5",
"/  c #3E51B5",
"(  c #3F51B5",
")  c #4156C2",
"_  c #4057C2",
"`  c #4056C3",
"'  c #4156C3",
"]  c #4157C3",
"[  c #9F9E9F",
"{  c #FFBC8A",
"}  c #FFBD8A",
"|  c #FFBD8B",
" . c #FEFFFE",
/* pixels */
"o $ $ $ o $ $ $ $ 5 i q i $ i 7 * 5 i i * * $ 5 5 * * $ 5 $               $ $ & $ u u 0 u $ i 4 $ i i i $ $ $ 5 5 $ $ $ 5 $ o o ",
"$ $ $ $ o o $ $ $ $ $ i q 7 $ $ 9 5 5 9 5 * * 5 5 * $ $ $   | { { | | | |   & 5 5 $ * u 0 5 $ $ i i q w u $ $ 5 5 $ o o $ o $ $ ",
"& $ 7 $ $ o o o + $ $ $ & & $ & $ $ $ $ * * * $ $ $ O O   | I I I I I I I U   = $ $ $ $ * $ $ 4 = & $ & $ $ $ $ $ o o $ @ @ $ $ ",
"7 7 7 $ 5 $ $ $ o o $ $ o & & $ o $ $ $ * 5 * $ $ $ $   | P I I I I I I I P J   $ $ $ $ 5 $ $ 5 = & 7 7 5 $ $ $ o o $ $ @ @ $ 4 ",
"i 7 * * 5 5 $ $ * o o o o o o o o o $ $ = 9 9 = $ $ $         e       *     J   * * $ * 0 * 5 5 = 5 5 * * o X X o * * 9 @ @ @ 7 ",
"7 $ * * * 5 $ 5 5 5 o O o & o o o o $ $ = 5 9 = $ $ 5   | I I       P       J   5 * $ u 0 9 5 * = 5 % % * o X & * * * 9 4 $ & 7 ",
"$ $ 7 5 5 * 5 5 * o o o * * & o o $ $ $ 9 * 9 9 $ $ i   | I P J I I U J U U J   * 5 * i 0 i * * = * * * o $ o X * $ * 5 9 & $ & ",
"$ $ * * 5 * * * & o * * * 5 & & $ $ o o y * = = $ 0 i   | I I P I I U U U P J   * * * 9 i 5 * * * * * * o o X X * 5 & & 9 & $ 9 ",
"5 * $ * * % * * X & $ $ 5 5 $ $ $ $ $ o i 0 = = i j 5 $   I I V M   P P I J   5 w w 0 i 9 9 * 9 u 0 0 X o o & $ $ 5 * * $ $ 5 5 ",
"5 5 $ $ * * o o X & $ $ 5 5 $ $ 5 5 5 5 i 0 5 7 i 7 j j $   V m r I I P J   * * * 5 p i y 5 y y 5 * $ X o & & & * 5 5 * $ 5 4 $ ",
"5 5 5 * o o o * $ 5 & * 7 & $ $ * * 5 5 5 i w 5 5 % $ $ h N m r J J J J   $ $ $ * * * 5 u 5 = = * o X X & & & & * $ 5 5 $ 4 $ $ ",
"* * $ * $ * % % $ y y & $ $ 5 5 5 * * 5 5 5 w 5 7 i i     c N B B B B         $ * * * * * * o o o o X $ $ $ 4 4 5 * * 5 $ $ $ $ ",
"* * % * 5 5 5 = * i e 5 $ 7 7 7 * * * * = 7 7           l   | { J J F J   j         % = & = o $ * * o o 4 y y q 0 7 $ $ $ $ $ 4 ",
"5 * % $ % * 5 5 * * e e $ 7 5 * * = O o & =     l l   l j    .{ I P  .[   j j           = = * = 5 5 * o O & & u q 0 $ $ $ $ 7 0 ",
"$ O $ O o * * * * * 7 i 5 5 * * = = = & o   x x   j   x j    . .I J  .[   j j   g         = = O 5 0 * * & o * * 7 i i $ 5 0 0 0 ",
"$ $ $ O o % * 5 0 0 7 7 5 u e e i 9 = &   l     j j   j h    . . . . .[   j j   , , g     p = 5 0 0 * * * * i i 5 = $ 7 i i 0 7 ",
"$ 6 $ $ $ $ $ $ $ u y 5 y 0 0 u * o o   l j   l h h   l h j    . . .[   j j     j j < . ,   = p u i * * 7 i 0 i & & * i u i i * ",
"$ 5 $ $ $ 5 7 7 $ * 5 $ y y 5 * o o   l j j j   l h     l j    . .[   j j g   > j <   < , ,   p 5 * $ * 0 0 i 7 9 9 * 5 5 5 * * ",
"5 $ $ 5 * * 7 7 5 * & & 5 * o o o *   l j j j   x h j j   j j   [   j j j   > j h ,   < , <   % $ $ $ $ $ 7 4 4 & = = * $ * * * ",
"$ $ $ 5 5 * * o X $ $ & * o o * * 5   l j j j     x h j j   l     j j j   , j g ,   > < < < < . $ $ $ $ $ $ $ o o o o = $ % % * ",
"5 $ * * 5 * $ $ X X X & 5 $ & & $ $   z j j j     l j j j j     j h     , g g g ,   , > , , ,   5 5 * $ u * o o $ $ 5 $ $ $ $ $ ",
"5 6 $ * * * $ $ * * & X y 5 & & $   j j h h       l j j j j j       > ,   h g > -   < , , , >   5 u 5 $ u 0 $ $ 5 i 5 $ $ 5 5 $ ",
"5 5 * * 7 5 5 $ 9 y 9 o 5 9 & y 5   z j j j   0 =   l j j j   , , , h j       g   %   < , , ,   * * 5 * u 0 i $ i 5 $ $ 5 5 $ $ ",
"O 5 * 7 7 5 $ % * 9 y 9 o o 9 5 $   j j j h   5 =   l j ,   x j g j j h g g j g   p 6   < , , ,   * * * * 5 i $ i $ $ $ % $ $ % ",
"* * * * = = = * * * * 5 9 o o & $ 5   l j j   5   l l h > . l j g j f f j f f f ,   %   , , > ,   $ & i $ $ 9 5 & y 0 i i $ $ $ ",
"* u $ $ & & * * o o O o o o $ o o $   l j j   5   l h   >   x j j j f f f j   f ,   &   , , ,   & $ p w q i 9 9 y q i $ $ $ 4 $ ",
"1 u $ 5 4 & $ $ 5 5 o o o o $ 7 & +   l j j   $   l j   > . x j g j j f j j   j ,   =   , > >   $ $ & 5 i q y 9 y y & $ & 4 4 $ ",
"* $ $ * 4 4 $ $ * 5 5 5 $ % $ 5 7 +   l j j   $   l   j >   x j j g j f j j j   ,   =   > > >   $ $ $ $ $ i y 5 y & $ 4 4 4 & & ",
"$ $ $ $ $ 5 $ $ o o * * * * $ 5 7 &   l h h   $   l   h >   l l j j j j j j j   ,   5   > > ,   7 * * * $ $ $ $ $ $ $ $ & & * o ",
"$ $ $ $ $ $ $ o o * * * % * $ $ 7 = $ { I J G $   > > > >   l > > > > , > > - - ,   %   > > >   7 7 * * $ $ $ $ $ $ $ $ & & o O ",
"$ $ $ $ o o o 4 * 5 5 5 O $ 5 % = * L { I $ J $               .                     * | I I F $ * * * u y * $ $ $ $ $ $ $ $ o $ ",
"$ $ O O o $ $ $ * * 5 u 5 $ 5 5 * * L I I I J $   ] W W W W W W a a W R ( ( R ( R   * | P P J 5 * * 5 5 y $ $ $ 9 $ $ 9 9 o o o ",
"o $ $ $ o $ $ $ * i i 0 i * i 7 $ i L i I $ & 5   _ R W W ( ( ( a a ( ( ( ( ( ( W   i | I I J 5 $ u i i * * * 5 5 * $ $ 5 $ o o ",
"& 5 $ * X o $ 5 * * 5 i 0 5 * $ i i I 0 i J & 7   ] T ( ( ( ( ( a a ( ( ( ( ( ( R   $ i P I I $ i i 0 0 i * * 5 5 % O O $ o o $ ",
"5 5 $ X X X $ 9 5 $ o o * i $ 7 5 0 L & & o J 5   ] ( ( ( ( ( R d d R ( ( ( ( ( Y   o o | L $ $ * * $ $ = * = = * * % $ $ $ $ $ ",
"9 5 $ X & & $ $ $ $ o 5 5 5 7 7 p i & o o o o   ] ] ( ( ( ( d         d _ ( ( ( W R   o & o $ $ * = & $ = = 5 = * o * $ $ $ $ 5 ",
"9 5 & & & $ 9 & $ $ w w i $ 5 o $ @ X X o $ o   ] _ ( Q ( a a   5 5   s a ( ( ( ( Y   $ * o o * * * 5 * $ u 5 & $ o o $ $ $ $ 5 ",
"9 & $ $ 9 9 $ $ $ p p 5 * * $ $ $ $ 7 4 5 $ o   _ _ ( Q ( d R   4 $   ] ( ( ( ( ( R   5 $ o o * * * u * * 0 & & $ $ o o $ $ $ 5 ",
"$ $ $ 5 7 7 $ $ & & $ $ & & $ $ $ 7 7 $ $ o o   ] ] ( ( ( ( R   & 7   ] ( ( ( Q ( R   $ O O * * $ 6 u 0 5 4 4 $ $ $ $ $ o $ $ $ ",
"$ $ $ $ & $ & $ & 7 7 7 $ $ $ $ 7 7 $ $ $ $ 5   ] ] ] Q ( R R   = 7   _ Q ( ( ( ( R   $ O $ 5 u 0 u 6 u 5 5 4 i 0 i 5 $ o $ $ 5 ",
"$ $ 5 * * o * o $ $ $ 5 5 & $ $ $ $ $ $ $ 5 7   _ _ ] Q Q W     = =     _ ( ( ( Y Y   5 * * * * 5 0 i 5 5 5 i 0 5 $ $ $ o $ 9 7 ",
"y 5 5 * * 5 5 o & & $ $ 5 & $ 0 0 0 i $ $ $ &   _ _ Q Q Q W   = i i 5   _ ( ( ( Y Y   i * 9 5 * = 5 i i 9 $ u 5 $ $ $ o o $ 7 $ ",
"y 5 * * 5 5 * o $ 0 5 o & $ i i q i 7 $ $ $ &   ] ] Q ( Q E   & p e i   _ ( ( ( R R   i 5 5 = = = = 7 7 9 $ $ $ $ $ o o = = & & ",
"$ y * * * * o o $ 0 0 5 $ i 5 i i 7 & $ 7 7 $ o   _ ( ( E E   & = 7 e   _ ( ( ( W   & & 9 9 * 5 9 = $ $ $ $ $ $ $ 9 $ $ * = = & ",
"$ $ $ $ * O O O $ u u u * * 5 u * * * = 7 o o 7   ] ] ( R     $ * * 7     ] ( ( Y   5 i = = y 5 = $ $ $ * * O o * 5 5 * * * * 5 ",
"0 $ 5 5 $ O O O O $ 5 u 5 * i u * * * = o o i q   ] ] ( R   0 0 0 * $ $   ] ( ( R   = 5 i 5 y * $ X $ $ 5 * $ o o * 9 5 * * 5 0 ",
"$ o $ 5 4 $ $ $ O $ $ 6 5 * * * i i 5 o o o o &   ] ( ( W   0 5 * o $ $   a ( ( W   + = 9 9 = * o o $ 5 5 * * * o * * 5 = = 0 0 ",
"$ $ $ $ 5 4 $ $ $ $ $ * * * * 5 u 0 0 i = = = =   ] ( R     $ $ * $ o o     ( ( W   o = = = = o o * * 5 5 * * * o o * = = 5 0 5 ",
"$ 7 $ $ $ $ $ $ + o * $ $ $ $ o o o o o o o $   ] _ Q Y   * * * = 7 & & $   Q ( W W   i $ $ O O * * * * 9 = * * * o * 5 * 5 i * ",
"$ 4 $ 7 7 7 $ $ o o o * o o o o o $ $ o o o $   ] ] ( Y   * * * = 5 5 & $   Q ( ( R   0 $ $ O $ * 5 * * = = 9 * * * 5 5 * 5 * * ",
"5 & & i i $ $ $ 7 7 7 * o $ o o o o $ o o $ $   _ _ ( W   * * * 5 = 5 4 $   ( ( R W   4 $ $ O O * 5 5 * = 9 i * * 5 5 5 * * * * ",
"* & & & $ $ $ 9 7 & & o $ $ $ $ $ o o o o $ 7 7   ] Q ( R   5 * = = $ $   ] ( ( R   y 4 $ $ $ O * * 5 5 = 5 0 i * 5 * * o o o o ",
"0 0 i $ $ $ $ $ * * * o 5 5 7 & $ $ o $ $ $ 5 y   ] ( ( R   9 * 0 9 = =   ] ( ( R   5 & u u 5 O O $ $ 5 $ 7 e 0 $ $ $ $ * * * $ ",
"0 i i i $ i i 0 0 i * o o & 7 5 $ $ o 7 $ $ i &   ] ( ( R   5 = 0 0 9 9   ] ( ( T   5 7 5 * * * o $ $ $ * * 7 0 $ 5 i 0 u 5 5 $ ",
"5 i i 9 $ 9 9 i o * = o o = = 5 5 $ o 5 5 $ $ &   ] ( ( W   & = y y 9 =   ] ( ( R   = 7 * * * o o $ $ $ 5 5 7 i 5 i 0 i 5 $ * $ ",
"o 9 i & o 9 i o o * = = o O = = $ $ $ 5 i $ * *   ] ( R W   & = y 9 * *   R ( ( R   = = * o o O $ 5 5 u 0 0 i 5 5 5 5 5 $ $ O O ",
"& $ 2 5 5 * o O u y 5 $ $ o $ $ = = = * i u % p   _ ~ R     * * * 9 * *     R ( R   $ $ $ $ * O * * * * & 9 9 5 o o $ $ o o o $ ",
"& i 0 i * * * i 5 5 $ 5 o o $ u = = = * * * * i   P I J   5 5 * * i * * $   I L J   & & & $ * = o X * * & & o o o o $ $ $ $ 5 $ ",
"1 i 1 $ * * & & * * * $ $ o $ i p = % 5 u e       I I J   w i * 5 i * o $   I I J   o $ o & 7 = * o o = = o o $ 5 o o $ & & 7 $ ",
"= = * 1 1 1 $ & * 1 1 * o $ $ i p = 5 e e   D D D J J J   i * o * * * o   D J J           & 7 7 * * O o o o $ 5 5 $ o o & & & & ",
"= * 1 1 $ $ $ & $ 2 2 + o o $ i = =       D C C C C C n   * * o & & & o   Z Z     D D n     $ 5 * $ $ o o $ 5 5 5 $ & o & $ $ O ",
"= * 5 * $ $ 7 7 $ $ 7 o o $ $ $ =   D C C C C C C C V n   * o o $ & & o   D V V C C V C b     $ 5 $ $ $ $ $ 5 $ * $ $ o $ $ X O ",
"$ * * * o $ $ 9 $ $ $ $ o $ 4 $ %   n n b n b b b b n r   * o * $ $ & o   D V C C C b b b b   $ $ $ $ u y $ $ $ * $ & & $ $ o & ",
"$ * o o o $ $ 9 $ $ $ i o $ 7 7 %                         o X X & $ & $                       5 $ $ 5 5 u $ $ * 5 $ & 4 4 O O O "
};
