/* XPM */
static char *a062bd144aa7404fa804cb6a832e2102V5ARjjYIskdpiFWT[] = {
/* columns rows colors chars-per-pixel */
"64 64 96 2 ",
"   c #010100",
".  c #000001",
"X  c #000101",
"o  c #1E3616",
"O  c #1F3616",
"+  c #1E3716",
"@  c #1F3716",
"#  c #1E3617",
"$  c #1F3617",
"%  c #1F3717",
"&  c #263A16",
"*  c #263B16",
"=  c #273B16",
"-  c #263A17",
";  c #263B17",
":  c #273B17",
">  c #282928",
",  c #292928",
"<  c #282829",
"1  c #292829",
"2  c #282929",
"3  c gray16",
"4  c #2C4317",
"5  c #2D4317",
"6  c #344C1A",
"7  c #344D1A",
"8  c #354D1A",
"9  c #344C1B",
"0  c #354C1B",
"q  c #344D1B",
"w  c #5F761E",
"e  c #5E761F",
"r  c #5F761F",
"t  c #5F771F",
"y  c #7D4832",
"u  c #466920",
"i  c #476920",
"p  c #466821",
"a  c #476821",
"s  c #466921",
"d  c #29346B",
"f  c #29356B",
"g  c #464646",
"h  c #474746",
"j  c gray28",
"k  c #757474",
"l  c #747574",
"z  c #757574",
"x  c #747575",
"c  c #ED1D24",
"v  c #804C36",
"b  c #814D37",
"n  c #9C5A3C",
"m  c #9C5B3D",
"M  c #FF7F01",
"N  c #946E50",
"B  c #946F51",
"V  c #AC6342",
"C  c #AC6243",
"Z  c #AD6343",
"A  c #C8734E",
"S  c #C9734E",
"D  c #C9734F",
"F  c #B4845E",
"G  c #B5845E",
"H  c #B4855E",
"J  c #B5855E",
"K  c #B4845F",
"L  c #E4AB7A",
"P  c #E5AB7A",
"I  c #E4AA7B",
"U  c #E5AA7B",
"Y  c #384894",
"T  c #394894",
"R  c #384994",
"E  c #394994",
"W  c #384895",
"Q  c #384995",
"!  c #394995",
"~  c #3E50B4",
"^  c #3E51B4",
"/  c #3F51B4",
"(  c #3E50B5",
")  c #3E51B5",
"_  c #3F51B5",
"`  c #4057C2",
"'  c #4157C2",
"]  c #4056C3",
"[  c #4057C3",
"{  c #4157C3",
"}  c gray62",
"|  c #9E9E9F",
" . c #9F9E9F",
".. c #FFBC8A",
"X. c #FFBD8A",
"o. c #FEFFFE",
/* pixels */
"O * * * O * * * * 7 p e p * p 9 ; 6 p s ; ; ; 7 7 ; * * 6 & X X X X X X X * * ; ; i i w i * p 7 ; i i i & & & 6 6 * ; * 7 * O O ",
"* * * * O O * * * * * p e 9 : : 6 6 6 6 q ; ; 7 7 ; * * & X ..............X ; 7 7 * ; i w 7 ; ; p p e r u & * 6 6 * O O * * O * ",
"* * 9 * * O O O O * * * * * : : & & ; * ; * ; ; * * ; + X ..P P I P I I I I X ; * * * * * * * 9 : : : : & & & & * + O ; * * * * ",
"9 9 9 * 7 * * * O O * * O ; : : O ; * * ; 7 ; ; * ; ; X ..P P I I P P I I I G X * * * * 7 * * 9 : : 9 9 6 & & & + + ; ; * * * 6 ",
"p 9 ; ; 7 7 * * & # + + O # # # O O ; * : 9 7 * * * * X X X X w X X X & X X G X * * * ; e ; q q : 6 6 ; ; ; + o O * * q * * * 6 ",
"9 * ; ; ; 7 * 7 6 6 & + # & & # O O * * : 6 7 j * * 7 X ..I I X X X U X X X G   8 * * i e 6 q * : 6 ; ; ; + + & * * * q 6 * * 6 ",
"* * 9 7 7 ; 7 7 & O # + & & & # O ; ; ; 9 ; 7 7 g * i X ..I I J U U U G P P G X ; 8 ; p e i ; * ; ; ; * O + + & * * * q 9 * * * ",
"* * ; ; 7 ; ; ; O O & & & 6 & & ; ; O & p ; ; ; * g i X ..I P P I U P P P P G   ; ; ; 7 p 7 ; ; ; ; ; * # + + + * q * * q * * 6 ",
"6 * * * * * * * O & * * 6 q * * ; ; ; O p e ; ; p g 7 * X I I C n X I I I G X 7 r r r p q q ; q p w w + & + O ; * q * * * * 9 q ",
"q 6 * * * * # # # & * * 6 q * * 9 9 7 7 i e 7 7 i 7 g g * X C n y I P I G X * ; ; 7 i p p 6 p p 6 * * + + ; ; ; * q q * * 9 q * ",
"q q 6 * # & # * * 6 * * q * * * * * 9 9 7 p e 7 7 * * * j M n y G G G G X * * * ; = ; 7 p 6 * * * O + + & & ; ; ; ; q q * 9 * * ",
"* * & & & & * * * u u * * * q 6 9 * * 9 7 7 t 7 7 p p X X c M N B N N X X X X * ; ; ; ; & * o o O O + & & & 9 9 q ; * q * * * * ",
"* * * * q q q & : s t 9 * 6 6 6 * * * * : 7 7 X X X X X k X ....G G G G X g X X X X : : * * o & * * O O 6 p p w w 7 ; ; * * * 9 ",
"q * * * & & q q : : t t * q q : * * * O & : X X x x X x j X o...U U o. .X g j X X X X X * * & * 6 6 * O O * * p t t ; ; * * q e ",
"* + * + * * * * : ; q p q q : : * * * * O X x k X j X x g X o.o.U G o. .X j j X j X X X X : : * 9 w * * * O * * 7 p p ; 9 t e e ",
"; * * + + * * q t t q 6 6 s t t p 7 * * X x X X j j X j g X o.o.o.o.o. .X j j X , , j X X i * 7 e w * * * * p p 7 * ; 9 i i r 9 ",
"* 6 * * * * * * * u p 6 p e e p * * ; X x g X x h h X x g g X o.o.o.} X h g X X h h >   1 X ; i p p * ; 9 p e p * * * p p p p ; ",
"* q * * * q 6 6 * * 6 ; u p 6 - O O X x g g g X k h X X x h X o.o.} X g g g X 1 j 1 X > , 1 X p 7 * ; ; e e p q q q * q 6 6 ; ; ",
"q * * q ; ; q q 6 * * * 7 : + O O & X x j g g X k g g g X j g X  .X g j g X 1 h h 1 X 1 , , X ; ; ; ; ; * 9 9 9 * * * * * * ; ; ",
"* * * q 7 ; ; + O * * & ; + & - & q X x g g g X X k g j j X k X X g g j X , g g 1 X > 1 1 1 1 X * * : ; * * * o O O O * * * * ; ",
"7 * * * 6 * * * + & O & 6 * * * * * X x g g g X X x g j j g X X g j X X 1 g g h > X 1 1 > > > X 7 7 ; * i ; & o ; ; 7 * * ; ; ; ",
"6 q * * ; * * * ; ; O O u 6 * * * X g g g j X X X x j j g j g X X X , , X g h 1 1 X > > > > 1 X 7 i 7 ; i w * * 7 i 7 * * 7 8 ; ",
"q q * * q q 6 ; 7 p 7 + 6 6 * u 6 X k g g g X w * X x g g j X , , , g g X X X g X : X 1 2 2 1 X ; * 7 * i w p * p 7 * * 8 8 * * ",
"+ 7 ; q q 6 * * ; 9 p 6 + + 6 6 : X j g j g X 7 * X x g , X k j j j g g j j g g X p 7 X 2 2 1 1 X ; ; : ; 7 i ; p ; * * ; * * * ",
"; ; ; ; ; ; ; * * * * 6 7 & # + * 9 X x g g X 7 X x k g , X x j j g g g j g g g , X * X < > 1 1 X ; ; i ; ; 7 q & u e i i ; ; ; ",
"; i ; ; ; ; ; * * + O O + # & + ; * X x g g X 7 X x g X , X x g j j g g j j X g , X & X > > 1 . * ; i e e p 7 6 p w p ; ; ; 6 ; ",
"4 i ; 7 6 ; * * 6 6 O # O # ; q o o X x g g X * X k g X , X k g g j g g g g X g 1 X * X 1 > > . ; ; ; 7 p e p 6 i p ; ; ; 6 6 ; ",
"; * * ; 6 6 * * & 6 6 6 ; ; ; 6 6 & X x g g X * X k X g , X x j g j g g j j g X 1 X * X > > > . * ; = ; ; i p 6 i & ; 6 q 6 ; ; ",
"* * * * * 6 * * # # ; ; ; ; * 6 6 * X x g g X * X k X j , X x x g g g g g j j X 1 X 7 X 1 1 1 X 7 * * * * * * * * * * * ; * * + ",
"* * * * * * * O # & ; ; * * * * 6 * * ..I G F & X , , , , X x , 1 , , , , , 1 1 1 X * X > 1 1 X 7 7 * * * * * * * * * * ; * & + ",
"* ; * * O O O 6 * 7 7 7 * * 6 * * * I ..I : G * X X X X X X X X X X X X X X X X X X ; ..P I K * * * * p p * * * * * * * * * + & ",
"* * * + O * * * ; * 7 i 6 * 6 6 * * I I I I G : X ' T T T T T T d d T T / / T / E X ; ..P P G 7 * * 7 7 p * * * 6 * * 6 6 + + + ",
"# * & # * * ; ; ; p p e s ; p 6 ; p U p U * * 9 X { E E T / _ _ d d / / / / ~ ~ W X p ..I I H 6 : i i p : * * 6 q * * * 6 * # # ",
"* 6 & & O O ; 7 ; ; 6 u e 6 ; * i p U e p G * 9 X { E ~ / _ _ _ d d / / / / ~ ~ E X * p P P L * p p e e p * * 6 q ; # # * + # & ",
"6 6 & O O O ; 7 6 ; + & ; s * 6 7 t U ; O O G 7 X ' / ~ / / ~ E d d T / _ _ ~ ~ Q X O O ..L & - * * ; ; * * : : * * * * * * & * ",
"q 6 & O * * ; ; ; ; + q 7 7 6 6 i i ; O O O O X { ' / / / / d X X X X d { _ _ ~ E E X O & O & & * * ; * : : 6 : * * * * * * * 6 ",
"7 q * * ; ; 7 ; ; * w w i ; 6 O * & O O & & O X ' ] ~ ~ _ d f X 7 7 X f f _ _ _ / T X * & # * ; * * 7 ; ; i 7 : * # # & * * * 6 ",
"7 * * * 7 7 ; ; * i p 6 * * * * * * 6 6 9 * O X ` { _ ~ / d E X 7 * X ' ~ _ _ _ / T X 7 & + + ; ; * i ; ; w : : * * # # * * * 6 ",
"* * * 7 7 7 ; ; ; ; ; ; * * * * & q 9 & * O O X ' { ~ _ / / T X ; 9 X ' _ _ _ _ / T X * # # ; ; * 8 u t 7 7 9 : * * & & + * ; * ",
"* * ; * ; ; O O ; 7 7 6 * * * * q q & & * * 7 X { { { ~ _ T T X ; 9 X [ _ _ _ _ / T X & # & 6 u w i 7 i 7 7 9 i e u q * ; * * q ",
"* * 7 ; * O ; O ; ; ; 6 6 ; ; * & & * * * 6 6 X ] ] ' ~ ~ W X X ; : X X { ~ ~ _ E Q X 9 : ; ; ; 7 e u q 6 6 p w 6 ; * * + * 7 7 ",
"u 7 8 * ; 7 7 O ; ; ; ; 6 ; ; e t e i ; * * ; X ` ' ~ ~ _ W X * p p 7 X { _ _ _ E E X p : 6 6 ; ; 7 u s 9 ; p 6 * ; * + + * 7 * ",
"u 7 ; * 7 7 ; O ; w 6 O ; ; i i t p q ; * * O X ' ' ~ / _ W X * p r p X { ~ ~ ~ E E X p 6 6 ; ; ; ; q q 6 : * ; * * + + * * * * ",
"* u ; ; ; ; O O ; e w 6 ; i 6 i p q ; ; 7 7 * O X ' _ / W W X : : 7 w X { ~ ~ ~ E X ; ; 6 6 ; 9 7 ; ; ; ; : ; ; * 7 * * * * * * ",
"* * * * * + & + * i i p ; ; 7 p * * * * 7 O O 9 X ' ' _ E X X * ; ; 7 X X ' / ~ Q X 7 p * * u 9 ; * * * * * + O ; 7 7 ; * * ; 9 ",
"e * 6 6 * + o o + * 6 p 7 ; p p * * * * % O p e X ' ' ~ W X r r w ; * * X ' / / E X * 7 p 9 p & ; ; * * 6 * * + & ; 7 7 * * 9 r ",
"* O * 6 6 * * * & * ; 7 7 ; ; ; p p 7 ; O O O * X ' _ _ W X r 7 ; O * * X d / / E X O * 9 7 : & O O * 7 6 * * & O & ; 7 ; ; r t ",
"* * * * 6 6 * * * * * * * ; ; 9 p t w p ; ; ; * X ' / E X X * * ; * O O X X / / E X O * : * * & O * * 7 6 * * & O O ; ; ; 9 t 9 ",
"* q * * & * * * % O * ; * * * O # + + + + + * X ' ` ~ W X * * * * 7 ; ; ; X ~ ~ E E X p * * O * * ; ; ; 7 = ; * * & ; q ; q u ; ",
"* q * q q q * * O O O * O O O % & * & + o & * X ' ` ~ W X * * * * 7 7 ; ; X ~ _ ~ E X w * * O ; * 7 * ; ; = 7 ; & & q 6 ; q * * ",
"6 ; ; p u & * & q q q * O * O O # # * # o & & X ' ' ~ W X * ; ; 9 : 7 9 ; X / ~ E E X 6 * * O O ; 9 9 * ; 7 u ; * 6 6 6 * ; * * ",
"; ; ; ; * * * 6 q * * O * * * * * # # # o & 6 6 X ' ~ ~ E X 7 ; ; ; * * X ' / / E X p 6 * * ; O ; * 9 9 ; 7 t u * 6 ; ; + + + + ",
"e e s ; ; ; & & * * * O q q q * * * - * & & 6 p X ' / ~ E X 7 ; r 9 ; ; X ' _ / E X 7 * p p 7 O O ; ; 7 ; 7 e e * * & & * * * * ",
"e p s p ; u u e e p * O O * q q * * # q & & p & X ' / _ W X 7 * r r 7 7 X ' / / E X 7 7 9 * ; ; O ; ; ; * ; 7 e * q p e i 7 7 * ",
"7 p p 7 ; 6 6 u O * * O O * ; 9 6 * O q 6 & * & X ' ~ _ T X * ; p p 9 ; X ' / / W X * 6 * * ; O O ; ; ; 7 q q u 9 p e u 6 & * * ",
"; 7 p + & 6 i * O ; * * O O * * * * * q u & * : X ' _ E T X * * s 7 ; ; X T / _ W X ; * ; O O O ; 6 6 i e e u 7 9 9 q q & & o & ",
"* * 4 9 9 * O ; p p 7 ; ; O * * * * * * i i : i X ' / T X X * * ; 7 * * X X T / T X * * * * * O & & & & ; 6 6 6 O % - ; O # # * ",
"* p e p * * * p 9 q ; 7 * O * p : : * * * * : i X I I G X 7 7 * ; i * * O X I I G X * * & & ; ; + + & & ; ; + # O O - - ; * 6 * ",
"4 p 4 ; * * * * ; ; ; ; * O * p i : : 7 a w X X X I I G X w p * 7 p ; & & X I I G X & : o * 9 ; * + & & ; + # * 7 & O - * * 6 * ",
"* * ; 4 4 4 * * ; 4 4 ; O O * p i : 7 w w X S S S G G G X p * O = ; ; ; X S G G X X X X X * 9 9 * * + + + + * q 9 ; O O * & ; + ",
"* * 4 4 * * * * * 4 4 O O O * p : : X X X S C C C C V v X * * O * * * o X A A X X S S b X X * 7 * * * + # * 6 q q * & + * * * + ",
"* * 7 * * * 6 6 * * 9 O O * * * : X S C Z Z Z C C C C v X * O O * * * o X S C C V C C V v X X * 7 * * * * * q * * & & * * * O O ",
"* * * * O ; ; 9 * * * * O * 7 * : X v b b b v b b b v v X * o * * * & o X S C C C C b v v v X * * * * i u ; & * * * ; ; * ; O : ",
"* * O ; & ; ; 9 * * * p O * 9 6 : X   X   X X X X X X X X & o o * * & * X X X X X X X X X X X 6 * * 6 6 u * * * q ; ; 6 6 O O O "
};
