/* XPM */
static char *_ae4c11b71d4472dea2180c3288c275bRK61yLLgn8n3rG3d[] = {
/* columns rows colors chars-per-pixel */
"64 64 87 1 ",
"  c black",
". c #010101",
"X c #1E3616",
"o c #1F3616",
"O c #1E3716",
"+ c #1F3716",
"@ c #1E3617",
"# c #1E3717",
"$ c #263A16",
"% c #263B16",
"& c #273B16",
"* c #263A17",
"= c #263B17",
"- c #292928",
"; c #282929",
": c gray16",
"> c #2C4317",
", c #2D4317",
"< c #344C1A",
"1 c #354C1A",
"2 c #344D1A",
"3 c #354D1A",
"4 c #344C1B",
"5 c #354C1B",
"6 c #344D1B",
"7 c #5F761E",
"8 c #5E761F",
"9 c #5F761F",
"0 c #5F771F",
"q c #7D4932",
"w c #466920",
"e c #476920",
"r c #476821",
"t c #466921",
"y c #476921",
"u c #29346A",
"i c #28356A",
"p c #29356B",
"a c #464746",
"s c #474746",
"d c #464647",
"f c #474647",
"g c gray28",
"h c #747574",
"j c #757574",
"k c #747575",
"l c gray46",
"z c #880005",
"x c #814D37",
"c c #9C5A3C",
"v c #946F51",
"b c #AD6243",
"n c #AC6343",
"m c #AD6343",
"M c #C9734E",
"N c #C9734F",
"B c #B4845E",
"V c #B5845E",
"C c #B4855E",
"Z c #B4845F",
"A c #B5845F",
"S c #B5855F",
"D c #E4AA7A",
"F c #E4AB7A",
"G c #E5AA7B",
"H c #E5AB7B",
"J c #384894",
"K c #394894",
"L c #384994",
"P c #384995",
"I c #394995",
"U c #3E50B4",
"Y c #3F50B4",
"T c #3E51B4",
"R c #3E51B5",
"E c #3F51B5",
"W c #4157C2",
"Q c #4056C3",
"! c #4057C3",
"~ c #4157C3",
"^ c gray62",
"/ c #9E9E9F",
"( c #9F9E9F",
") c #FFBC8A",
"_ c #FFBC8B",
"` c #FFBD8B",
"' c #FEFFFE",
/* pixels */
"o%%%o%%%%2r8t%t4%4tt==%22%%%4%       %**=ww7w=w1%tee%%%12%**2%oo",
"%%%%oo%%%%%t84**22442=%2<%*%% _`)`__` =12%=w01%%ww00w%%12%oo%*o%",
"%%4%%ooo@%%%**==%%%%===%==oo )FFFFFFGF =%%=====2==%*%%%%%oo*%%%%",
"444%2%%%oo%%X*==o%%%=2=%=** )HFFFFFFGHV %===3==3=*111%%%oo%%%%%4",
"r4==22%%$XXXXOOX=+=%=61====    0   %  S ====7%22=13=%%XX+==4%%%4",
"4%===2%2<<$X**XX++%%=66===1 `HH   F   V 1==t722==1%%%OX%===44%%4",
"%%422=22*XXX%%*O+===1=11==w `FFAFFHVHHV =1%t7t======X$XX=%%44%%%",
"%%==2===XX%%%2**==++t====7w `FFFFGHHHGS ***<w2=*====XXXX=2%%4%%4",
"<%%%%%%%X%%%44%%%*=+t0*=t04% FFnc FFHV 1000t22=2w77Oooo=%2====22",
"4<%%%%ooo%%%44%%2244t066e4%&% ncqFFFV ===1ttw2wt2==Oo===*22=%22=",
"44<%oo%%%<%%1*%&%%222t764&%%%zcqASSS ======1w2**%%OO=*==*%22%2=%",
"%%%%%%%%%ww%=%141%%122714te  zzvvvv    =====**O*ooO=**<<2==2%%%%",
"%%%%332%=t06=112====&63.    k ``AVAA f    ====+=**oo<tt701**%%%2",
"4%*%==2<==00=12===++*& .kk ks ')FF'( fs     ==+=22*oo**t70=*%%27",
"=o=o+=====4t22=====*o kk s kd ''GA'( dd g    ==*27$%%*%%2tt%<777",
"%==o+==100421t00t1=* h  ss sd '''''( ds --g .y=377%%*%tt1%%4tt72",
"%2%%%%%%%ww<t77t==% kd ksd kss '''( ff  gg: ; &ewt%%6t7t**=wwtw%",
"%4%=%222%%2%et2*oo hddd hs  ks ''/ fgf -g: ;:; e2%%%77t466=612*%",
"4==2==242===1*ooo* hdsd hdgd sf ( fff -fg- ::: &%%%%%661*=======",
"===22==o+===%*o**2 hsdd  hdds k  fff -ff; ;;::: %%%%%%%oooo=====",
"2%%=2==%++o=<%%%*% ksdd  kgggg  fd  ;ggg; :;;;; <<**t=oo%%4%%%%%",
"23%===%%==o+t<%%= dddd   kgdgff   -- gf;: ;;;;; 4t4%t7%%1w1%%31%",
"22==222=4t4o<<%w1 kddd 0= kddg ---gg   g & :;;: %%4%t7t%w1%%23=%",
"o<=222%%*4t<oo22= sdss 1= kd- kfgdddggfg e6 ;;;: %%%=2t%w=%%%%%%",
"%%%%***====22ooo=1 kdd 1 hhd- kggddaddaa; * --;; ==t**42+w0ee%*=",
"%t%%**==++++OO%o+= kdd 1 kg - kgdgggad a- @ ;;; %=e07t42w0w=%%1=",
",t%44*%%22%o+O=2@o kdd % hd - ksdddgdd d- % ;;; %%=1t7t1we==%61=",
"&%%%44%%%<<2===24% hdd % k d- kddddgddd - & ;;; %%&*%tt6e=&166%%",
"%%$%%4%%oX%%%*=24% kdd % k g- kkffsdddd - 6 ;-- 1%%%%%%%%%%%%%%o",
"%%%%%%%oX*%%%%==4%%`FVV% ---- k---------- * ;-- 66%%%%%%%%%%%%oo",
"%%%%ooo4*22<%%4=*=F`F%V%                  %`GHA%%%%tt%%%%%%%%%o%",
"%%%oo%%%**<w4%44==FFFFV% ~IIIIIIupIIEEIEI *`FHS6%%66t%%%6%%66ooo",
"+==oo%%%%tt7t%t<=wFtH==1 WLIIYEEuuEEYYERI t`FFV4%ttw===11==%1=O$",
"%6=*oo%6%%2t72%%ewF7tV=6 WIYYEEEupYYEERRI =tFFF%rt77t==11=OO=OO$",
"14%ooo%66%oo%t%<17H=++V1 ~EEEEEIppIEEEERL oo`F%%%%%%=&=*===%%%$$",
"44%o%%%%%%o44422ew=oo+o WWYEEEp    pQEEEII o%o%%%%%%==6*=+=%%%*2",
"24==%%6%%%88w%2o%*ooo=o WQYYEii 21 iiEEEYJ =%OO=%%4&&e6*%oo%%%=2",
"4===66%%%tt4%%%%%%<<2=o ~WYYEiI 4* ~YEEYYI 1%%O=%%r%%0*&%%oo%%*2",
"%%=266%%=***%%%%*<4*=+o WQEEEEI =1 ~EEYYYJ %XO==%4t0446&%%%%O%*%",
"%===%%o%=611%%%=2<**=*1 Q~QYEII =4 QEEEEYJ %X%2w0r4e456e7w2%%%*2",
"%%2%%+=+%%%44===**===22 QQWYYL  ==  QEEEJJ 1====10t222w72%==o=22",
"w22%%12o%%**2==777t===% QWEYEL =tt1 QEEUJJ t=42==1tt<%w2%%=oo=2=",
"w3=%22%o%72%==wt8t4===o QQEYEL *t0y WYYEII t42**==111%==%%oX%%==",
"=w=%%=oo%772=w2tt2**21=+ QEYLL *=10.WEEEI ==44=41=%%%%==%2**%%%%",
"%%%%%o++=www=*2t%%%%1oo2 WWYI  ===1  ~EEL 1t==t2=%%%*=OX=22=%%%2",
"7%42%o%++=2w2%tt%%%%++t7 ~WEI 000=%= ~EEI =1t1t%=%%%2=%XO=42%%27",
"*o%44%%%+==12***rt2%ooo= WEEL 01=+== iEEI +=22%%+o%22*==O==2=*77",
"**%%4<%%=====**2t77t==== WUI  ===+++  EEJ o===%%+%%42===oo===272",
"=2==%%%%@o=====XXXXXXX% WWYK ====4==* YYII t**OO%===2*===+=2=2t=",
"=2=244%%ooo=oo$XO*%XX$% WQYI ====44== YEYI 7****%4===*1===21=2==",
"2%=wt%%%466=X%XXOO=oX%% QQYL ===6=11= EELL 2$$oX=22=*2t==211====",
"*$==%%%<4**+%%%%**O+X%22 QYYI 2===== ~EEI w2%%%o==22%20t=2==O+++",
"77t%%%%%==*+<<<%==o***<r WEYL 1=02== ~EYI 1%tt2o+*%2*277%%%%%%%%",
"7wtt%tt77t*+o%2<==o2**t% WEYI 1=0022 WYYJ 224%%*O===%*27%2t7w22%",
"2ww2%24t%%=+o=%42*o22*%* WYYI *=wt4= WEEI %<%%=+O*%*222w4t7t2%%%",
"X2w%o2too%==oo**=**2t*%% WYII *=w2== IYEI **%%++*22w70w2442<%%o%",
"==,22=o*wt<%%o%%====ee&e WYK  %%=2$%  IEI %**==+%%%%%444oo==oXX%",
"=w7w***t22%<oo%t======&e FFA 66%=t$*o FFV *o===*oo%%%%oooo===%3%",
">w>=====%%%%%o%te*&6e0   GFS 7t%2w=*% FFV *%o=1*%oo*%oo%4oo=%%2%",
"===>>>**%>>%o%%te*600 NNNVVV t%o==== NVV     =22=*oooo%64=oo%%%o",
"=%,,%%%*%>>ooX$r&*   Mmmnnnq %%o**%X NN  NNx  %1===O%%662=*o%%%o",
"=%1%%%44%%4oo%%%& Nmmmmnnnnx %*o***X Nnnmmnnx  %2*=*%%6%%==o%%oo",
"%%%%o%%4%%%%o%<*& xxxxxxxxxx %o%%%*X Nnnmmxxxx %%%%wt%%%%%%*%%o%",
"%%o%o%%4%%%to%44&            ooo%%*&           2%%22t%%*2%%22ooo"
};
