/* XPM */
static char *_3e590139f2f4d82ce66c3e7640644f76sKKhJhuu7UFk25j[] = {
/* columns rows colors chars-per-pixel */
"64 64 90 1 ",
"  c #000100",
". c #010001",
"X c #000101",
"o c #1E3616",
"O c #1F3616",
"+ c #1E3716",
"@ c #1E3617",
"# c #1F3717",
"$ c #263A16",
"% c #273A16",
"& c #263B16",
"* c #273B16",
"= c #263A17",
"- c #263B17",
"; c #273B17",
": c #292828",
"> c #282928",
", c #282829",
"< c #282929",
"1 c #2C4217",
"2 c #2C4317",
"3 c #2D4317",
"4 c #344C1A",
"5 c #344D1A",
"6 c #354D1A",
"7 c #344C1B",
"8 c #344D1B",
"9 c #354D1B",
"0 c #5F761E",
"q c #5E761F",
"w c #5F771F",
"e c #7D4933",
"r c #466920",
"t c #476920",
"y c #466821",
"u c #476821",
"i c #476921",
"p c #29346A",
"a c #29356B",
"s c #464646",
"d c #464746",
"f c #474746",
"g c gray28",
"h c #747474",
"j c #757474",
"k c #747574",
"l c #757475",
"z c #ED1D24",
"x c #804C36",
"c c #814D36",
"v c #814D37",
"b c #9C5A3C",
"n c #FF7F01",
"m c #946E50",
"M c #AD6242",
"N c #AD6342",
"B c #AC6243",
"V c #AD6343",
"C c #C8724E",
"Z c #C9734E",
"A c #B4845E",
"S c #B5845E",
"D c #B5855E",
"F c #B5845F",
"G c #E4AA7A",
"H c #E4AB7A",
"J c #E5AB7A",
"K c #E4AA7B",
"L c #E5AA7B",
"P c #384894",
"I c #394894",
"U c #394994",
"Y c #394895",
"T c #384995",
"R c #394995",
"E c #3E50B4",
"W c #3F50B4",
"Q c #3E51B5",
"! c #3F51B5",
"~ c #4156C2",
"^ c #4056C3",
"/ c #4057C3",
"( c #4157C3",
") c #9E9E9F",
"_ c #9F9E9F",
"` c #FEBC8A",
"' c #FFBC8A",
"] c #FFBD8A",
"[ c #FFBC8B",
"{ c #FEFFFE",
/* pixels */
"O**OO&&&&8yqr&y5&8yy&&&88***7*XXXXXXX***&yyqr&r9&rrr&-&44&&&4&=O",
"****OO&&&&&yq4&&88778&&88;*-*X```````X%78&&yq7--rrwwr=&44&OO&+O*",
"**7*&+++O-*&--*&&&&&&&-&**OOX`JKKJJJKKX%&*--***9*&&&=&**&+O&-=**",
"888*8&&-OO&&O=--O-&&&8&&=**X`KJKKKJJKKDX&&&&6&&6*-884=*&++&&-==4",
"y8==44&-*O++OOOO+O&&*88&--&XXXX0XXX%XXDX---*w*88*84--O+++&-5&&-4",
"8-**-8&544++O-OOOO&&*88&--7X`JKXXXKXXXAX8&-yw88-*8---O+-&--54--4",
"--884-44*O++---OO&&&8*88-&rX`JJDKKJDJKAX*7&rqy*-***=OOOO&&&44&-&",
"--**4---OO&&&4--&&+Oy**-&qrX`KKJJKJJJKAX**&6y7&&-**=O+OO&4--4&-4",
"8*&&&&&&O*&&54&&&&&+yq-&rq7*XKKBbXKKKDX7qqqy48&8rqq@OOO-&4&&&&88",
"78&&&&O+O*&&54&&5455rq98r7*f*XBbeJJJDX%**7tty8rr4--@O--&&48&&88&",
"774&OO@==4-&7&&&--446rq97*&*snbeAASSX*%%***7y4&&&OOO----&&45&8&&",
"**&&&&**=rr&&&744--466q67ryXXznmmmmXXXX%****-&OOOOO*--844&&5&&&&",
"=---448*&yw8&777-*==*77XXXXXlX``DAADXgXXXX****O&&&++4rrqw9&&&&&8",
"4---&&88&&ww&76&**@@=*XXllXkfX{`KJ{_XggXXXXX-*O&47&+O&-yww&&&&8q",
"&+-+O-&&&&8y88&&****OXllXfXkfX{{JA{_XggXfXXXX**=7w&&=O*;8yr&7qqw",
"&&-+=&&9ww888rwwr7**XlXXgfXfsX{{{{{_XggX::fXXy*7ww&&*;rr9&&7yyq8",
"&5&&&&&&-yy8yqqr&OOXlgXlsgXlggX{{{_XggXXgg>X:X-trt**8yqr&&-rrrr&",
"&4&&&488&&4&rr4=OOXlgggXlfXXlgX{{_XgggX:g:X<::Xy7***qqy477-444&&",
"4&&4&-884&&&6-+=O*XlsggXksssXggX_XggsX:gg:X::<X---&&-844&**---&&",
"&&&48&&+O&&&-#+&&8XlsggXXlsggXkXXsggX:gg:X:<<<:X--&&-&&O+=O=----",
"5---8***+OO&7&***&XlsssXXlsgggXXggXX:ggg:X>><:<X88&&y&=O&&8&&*&&",
"54&-**=-&&OOr7*%*XgssgXXXlgggggXXX::Xgg::X>><<<X6y9-yq**8y8&&84&",
"55--444-4r4O77%r7XlfgfXq*XkgggX:::ggXXXgX-X:<<:X**7-rqr*y7&&88*&",
"&5-884--&4r4+=57*XgsgfX7*Xkg:XkggssggggfXy9X<>>:X**&*6r+y*&&&&&&",
"-&&&&&&**==45+++*4XhsgX7Xlkg:Xlgggssgsss:X&X::::X*-r&-54=rqrr**&",
"-y&&&&&&=O@@@@&+=*XhsgX7XlgX:XlgggsgssXs:X+X,::X=*ywqr54rqy&&*8-",
"2r&88&&*44@@++-8@=XhgsX*XkgX:XlgsssssgXg>X&X:,,X&&*6rqr4rr&&-88-",
"&&&&88-*-444---84@XhssX*XkXg:XkgsgsssggX:X*X,,,X&&&&&rr4r&&484==",
"&-&&&8&&++***&-44*XhggX*XlXs:XllggggggsX:X7X,,:X8---&&&&&&---==+",
"--&&&&&++-&&&&--4**`KADOX::::Xl:,::::,:::X&X,,,X88--&&&&------O+",
"-&&&OOO4-555==4&*-K`K*D*XXXXXXXXXXXXXXXXXX&`JJA**--yr&&&&&==&&O&",
"&&+O@-&&&-5r4=44**KKKKD*X~IIIIIIaaIIW!I!IX&`JHA8*&84r&&-4&*84OOO",
"@*&&O&--&ryqy-r4*yGrK&&7X~TTIEWWaaWWW!!!IXy`KKD7&rrr-**87*--4&++",
"&4&&@+-4*&7yq8&-yrGqrD*7X^I!!!!WppWWW!!!IX&rJJK&yyqqr*-84=@O-++&",
"44&+@@-47*++&y-84qG*=OD7X~!!!!WIapIW!!!ETXOO`K&&*******-=---**&&",
"44&+&&--&*+54488ur*OOOOX^~E!!EpXXXXp/!!!TIXO*O&&******8*=+--=**4",
"44--&-8-&*wwr=4O*OOOO*OX~^!!EaaX77Xaa!!!!IX*&++&&&6&*r8*&O+&&&=4",
"4---88-*-ry8--&-**444=OX^^!E!aIX7*X~!!E!!IX7&++-*&r&*w**&&O+&&=4",
"&&-448--&&&&--***88-&=OX~~!!!!IX&7X~E!!!WIX&++--&7yq888*&&&&+&-&",
"&&----O=*967---*88--&&7X/^~E!IIX*7X/!EEWWIX&+&4rwy6r888yqr4&+&-4",
"&&5&&+&O&&&66&;*--&&-88X^^^EWIXX**XX/WWETTX7----7wr654yq4&&&O&48",
"r44&&88O&&&&7**wqqy&--*X^~!!!IX&rr6X/!WWTTXy-84-&8ry8&y8&&&OO&8&",
"r5&&44-@&q7+&&rrqy4&**=X^/WW!TX&twrX/!!WIIXr44--&&888&--&&++=***",
"&t&&&-@@&qq5&r6ry4&&84*OX^!WITX&*7wX/E!!IX&&44-46*&&-&--&7&&-*--",
"&&&&&+OO&yyr**6r--&&8OO8X~~WIXX***4XX~!!IX8y**r4&-----+O&86&---4",
"w&88&+OOO&4y6&rr---&OOyqX^~EIXqqw*&&X~WWIX*8y8r--=&&8--O+&87--4q",
"&+&54&&&+*-99-&&yy4OOOO*X~!!IXq8*O-&Xa!WIX#*77*-@@*44&**+-&6&&qq",
"&&&&44&&&&&---&6yqqy-***X~EIXX--*=OOXXWWIX#&***=+-=84=*=O=&&&7q6",
"&8&&&&--+=-&&--+=@@+++*X~/WPX****7***X!WIIXr**OO---&9----+&8&8r&",
"&8&877--OO@=O@++@-=@&+*X//WPX&**=84**X!W!IXq=-O&-4&&*-9---88&8-&",
"8*&yy*-*488=O*++OO&O+$$X^^WIX&&&4=77*XWWITX4--OO-54-;9r&&988&&&&",
"*&*&---88-=+*&&&&OOOo$44X~EEIX8&--**X/WWIXr4--&O--44;9wr&9&&O+++",
"wwy&*&&*&&&O444*--O-*-8uX~!EIX7&q4&&X~!WUX6&rr4++&&7&5qq&&&&&&**",
"qyyy*rywqy&OO*44&-O8-*y*X~!WIX4*qq44X~!WIX664=&&+&&&&&6q&4yqy77*",
"7yr7&69y+&&OO&&47&O88--OX~EWIX-*yy8&X~!!IX&6=-=O+&&&564r9rqr4-&-",
"+7r&+7r+O&&&OO&&--&4y-**X~WIIX-*r8&&XIW!IX&&=OOO&44rqqt68884=-O=",
"*%255&++yy8*-O==&&&&tt*uX~!IXX**&8&&XXI!IX****&=&-==&744++==@@@&",
"*tqr&&&r67*8=O&r**&&-;%uXGGAX44*-y-&-XKKAX*O**&*+@==-&++=+--==5&",
"2r2&&&&&&&&&&O&yt%%7u0XXXKGAXqr*8t&+*XKKDX=%O*7&&+O=-++&4OO*&&4-",
"**&222&-&33&O+&yt*90wXZZZDADXy*O&&&+XZDDXXXXX*77&&OO=+&48-OO&&&+",
"**11&&&-*11@OO&y%%XXXZNNBBBxX**O*-*OXZCXXZZxXX*7&&&++&444**O&&&+",
"**4*&&44**4@O&&&%XZBNNNNBBBxX*OO***OXZBBBBBBxXX*5&&&&&4&***O&&++",
"-*&&+&-4====+-8&%XccccxcxxccX*@===*OXZBBBBxxxxX****rr-==****&&+&",
"**O*+--4==*r=-88%XXX.XX.XXXXX++@==O*XXXXXXXXXXX4**77r-==4**44+++"
};
