/* XPM */
static char *_324_7eabff82d4982721e42d4b4469bcf26c9e907954a8b7c0ad326d618587f7b21e[] = {
/* columns rows colors chars-per-pixel */
"64 64 56 1 ",
"  c #080A14",
". c #090A14",
"X c #1E3616",
"o c #1F3616",
"O c #1E3716",
"+ c #1F3716",
"@ c #1E3617",
"# c #1F3617",
"$ c #1F3717",
"% c #263A16",
"& c #273A16",
"* c #263B16",
"= c #273B16",
"- c #263A17",
"; c #273A17",
": c #263B17",
"> c #273B17",
", c #241527",
"< c #251527",
"1 c #341C26",
"2 c #341C27",
"3 c #351C27",
"4 c #341D27",
"5 c #4C2A32",
"6 c #4D2A32",
"7 c #4C2B32",
"8 c #4D2B32",
"9 c #4C2B33",
"0 c #4D2B33",
"q c #2D4217",
"w c #2C4317",
"e c #2D4317",
"r c #344C1A",
"t c #344D1A",
"y c #344C1B",
"u c #354C1B",
"i c #344D1B",
"p c #354D1B",
"a c #5F761E",
"s c #5E761F",
"d c #5F761F",
"f c #5F771F",
"g c #476820",
"h c #466920",
"j c #476920",
"k c #466821",
"l c #476821",
"z c #466921",
"x c #476921",
"c c #7A4840",
"v c #7A4841",
"b c #7B4841",
"n c #7A4941",
"m c #AC7756",
"M c #AC7757",
"N c #AD7757",
/* pixels */
"o**oo****yldx*xi*ilx*:*iy***i*oo#**oo:***xxdz*xi*xxx*:*pi***p*+o",
"*=*%+o*****ldi**titii**yi*=*ooo*%p=%Xo*ii**xdi**xlddx**ii*oo*oo*",
"**i*&oXo#*=********-**:***oooo**pto#o%***%**%*:i***:*****oo****:",
"ipp*i***Xo**oo:*o****i*****oooixyio*********i**i=:iii**:oX*=***i",
"xi**ii**=+oo#ooooo*%*ii*****oxddiioo*itt*:**a%ii*ii**oo+o**i**=p",
"i%*%*i*yii+Oo*oooo***pi***i**+*xi**oo*%ii*:xdip**i***oX****ii*%i",
"=*tir=ip*oXo=**oo***i*ii**x**o=*%**oooo**i*xdx******o+oo***iy***",
"****i***oo***i****ooj:***dx******-Xooooo***ixi*=%***+Xoo*i**i**i",
"i**:****o***yi***%*ojd**ldi***iii**oo*=pdadxii*ihddoooo**i****iy",
"ii:***ooo***iy**iiiixdiili%=***ixi%*o****ixxxixzi**oo****ii**ii%",
"iyi=o#o=*i**i:*=**iiixsii*******xi*=*:=**%*uxi***+oo******yi*i*%",
"******=**xx*%*iii:*iipdiijxxi:***x***i*******=ooooo***iii**i*:**",
"%-**iii**xai*iii*****iiizxi%***i****ii**=***:%o**%$oixxddi*=-**i",
"i**&**ii**dd*ii:**ooX*********iii**ii*>*xdfd**o*ii*oo*%xas****id",
"*o*Xo****=ixii******oXo****:*ipi*o*ii***ijsxx**+id*%oo**ixx*iddd",
"*==o#**iddipixddxi**i*ooooo**-*&>:*i**i*iilxix*idd****xxy**ixxdi",
"*i****%*%xxixddg*oooiioo+=ooX=***p***ti*%*ixi**xjx*:ixdx***xxlz*",
"*i***ipp**i*xzi*oo=*oii*o********y**iii&***xx*ixi***ddxiii*iiy**",
"i**i**iiy***i*ooo*******o*****%*i%*ii=******pii******tir********",
":**iy:%oo*:**#o**ii**=t*o**ii:p*******dddx**:***:******Xoo#*****",
"i**:y*%%ooo*i*=%**ipi*x=*tp%**p%dio**xidxi>%*=*iti**x*oo**i*****",
"ti****=***Xoji******i*zs*i**=-i*ddi*xixxi****oooili*za**ixy**it*",
"ip**iii*tli#ii*xi*****id:=idi:**xxxy*xx=**tii**o**p*xdx*xt*;ii*:",
"oi*iii***ixiooii**ixdfti*idi****xixi*****zi***oo****:ixoz***=**=",
"*=**=******tiooo*ii*ifdi*xx**=**ipii%=**%*oo**o*o%*l**iioxdxx***",
"*x******oooooo*oo%***ixi*:****%*:ii:=:**%*ooooooo*ldaxiyxax=**i*",
"ex*ii**%iiooXo*ioo*********:****ii:i***xzi*oooX****ixdlixx***ty*",
"****ip***itt=**ii#oo***:*******o*i=ii=**ii**#oop*>:**xxix**iyi*o",
"%****i*%oo*****ii:*=*o**oooXoooo***ii=**=ii**ooii****=*********o",
"****%*=oo****%=*i****Xooo+o*iooX**=*ii%****:****ii*********:**o$",
"**:*o#oi%tiio*i=***ii*&%***ii*o*****oi=i****o*i****xx*****&***o%",
"*%o+o*****ixi*ip=*iul***i**iiooo**oo+**y**:xo*yi>*iix***i%*iiooo",
"o**oX%***xzdj%xt=xxx**:ii***i*##o=%oo****zxdx:xt*xxz***ii*:*i*#o",
"*i:=+o*i*:ixdi*%jkddx**ii****oo*%i**oo%ii**xdi**xxddx**ii*o@*@o*",
"ii*oXo=pi*oo*x*iidd*oo*i*:*****%iioXo:**ooX88888888**%**********",
"ii*+****=*oipiiixx*oooo***-***txiio*oooo8887888808888*i**o%****i",
"iy****i*=*NNNNNNNNNNo*o*iiix**ddiiooNNNN88888688888888i**oo**:*i",
"p*%*yi***NNNvvvNNvvNNNoo>iiix*:NNNNNNNN88888888vvv888888**o+***p",
"***iii*NvNvvNvN28NNNNNNN***NNNNNNNvNN8N8888808vvv88688888*=*+***",
"******NNNvvvvvN28NNNNNNMNNNNNNvvvNvv88888868vvv88vvvv88888i*#**i",
"**i*NNvvvvvvvv28NNNNNNNNNNNNNNNNvvvv887888vvvvvvvvv88888888*#*ii",
"xi82288vv,,,vv6NNNvNNNNMNNNvvvvNNv88888888vvv88vvvv88888688#o*i*",
"x...2888vvvvvvvvvNNvNNNNvvNNvnvvv8888888888vvv88vv8888v88888%**=",
"*2.22288v88vvvnvvNNvvvvNNbvNvvvvv8vb888vbvvnvvvvvvcvvv888888=*:*",
"*2,2242888vvvvvvNNvvvvNNNvvvvvvvvvv8888vvvvvvvvvvvvvvvv888788**i",
"d2,2222888vvvvvvvvvvvvvmvvvvcvvvvvv888888vvv88vvv878vvvv88888*yd",
"*2,222388vv8vbvvvvvvbvvNvvvvvvvvvvnv888b8vvvb88vvcv88888888888da",
"*2,,,2128888vvvvvvvbvvvvvvnvvvvvvv8cv88vvvvvvvvvvvvv8888888888fi",
"*i22212222888v88vvvvnvvvvvvvvvvvvv888888vvvvvvvvvvvvv8886822888*",
"*i*222222222268vvvvvvvvvvvvvvvvvvvvv88vvvvvvv7vvvv8vvb886882282*",
"p**jx***iii222288v8vvvcvvvvvvvvvvv88888v88vvv88vvvv8vv898888222*",
"******%ii**O**22688cvvbvvvvvvvvvvvv888888cvvvv88vvv886888228222o",
"ddx***%****oiii388vv8vvvbvvvvvvvvvv8888vvvvvvvvvvvv88880822222**",
"slxx*xxddx*oo*ti8888vv8vvvvvbbvvv8vvv880vvvvvvvvvvvv882282242tt*",
"ixxi*iixo**oo::ii888v88vv6vvvvvvv886v8288vv68v78v8vbv8822822i***",
"oixooixoo:**oo****8888vv88vvvv8vvv85882288v88vv8888vvv82232i**@#",
"*=eiy:ooxxi:%o*>****88vv8vvvvv888v88282288888vv888888872222*ooo*",
"*xdx***xpi*uoo*x*****88888v88vv888882222208288v88888888222:***i*",
"exe:********:o*xx*%ixa8888v7887882822224222228882881862222o***i*",
"*=*eee***ee*oo*xx*iddxx888888822222222*oo222222228822822 *oo:**+",
"**qe=**:*ewooo:x*==ixdxx,,888122***o*t***oy**=:i,288122..-*o*=*+",
"*%i***ii**ioo******=***...,8822,***o*ii***i*%***y,222,,..**o=:Xo",
"*%=:o**i****o%y****kx**..,8822<,***ooi:y=*iio*i*,222,,....=***o=",
"=*ooo**i*>*xo-ty**iix**,,,,22,,o%*o+#*%i***xo*ip,22,,.....*iiooo"
};
