/* XPM */
static char *_1613_69bdfe69a11aadeb89303409d2c1a0501a82f671156dc2cd0c9ec988424affc9[] = {
/* columns rows colors chars-per-pixel */
"64 64 52 1 ",
"  c #090A14",
". c #090A15",
"X c #1E3616",
"o c #1F3616",
"O c #1E3716",
"+ c #1F3716",
"@ c #1E3617",
"# c #1F3617",
"$ c #1F3717",
"% c #263A16",
"& c #273A16",
"* c #263B16",
"= c #273B16",
"- c #263A17",
"; c #263B17",
": c #273B17",
"> c #241526",
", c #241427",
"< c #241527",
"1 c #251527",
"2 c #341C26",
"3 c #341C27",
"4 c #351C27",
"5 c #341D27",
"6 c #351D27",
"7 c #4D2A32",
"8 c #4C2B32",
"9 c #4D2B32",
"0 c #4D2B33",
"q c #2D4217",
"w c #2C4317",
"e c #2D4317",
"r c #344C1A",
"t c #344D1A",
"y c #344C1B",
"u c #354C1B",
"i c #344D1B",
"p c #354D1B",
"a c #5F761E",
"s c #5F771E",
"d c #5E761F",
"f c #5F761F",
"g c #5F771F",
"h c #476920",
"j c #466821",
"k c #476821",
"l c #466921",
"z c #476921",
"x c #7A4840",
"c c #7A4841",
"v c #7B4841",
"b c #7A4941",
/* pixels */
"o3<<<3339999cccccccccccccccccccccc999999ccccccccccccc999999999oo",
"*=33333333999c99ccvccccccccccccccccc99999cccccvccccccc999934999*",
"**i333333333399ccc9ccccccccccccbcc99999ccccccc9cccx9ccc99993393;",
"ipp*i***oo*33339099cccccccccxcccccc99999c99ccc99cccc9cv99999333i",
"zi**ii**=+oo#o3399cc9cccccccccccccc9999999cccbc99ccc99999339333p",
"i%*%*i*yii+Oo*Xo9999cc9cxcccccccc9ccv999ccccvccccccc9999733333%i",
"**tit=ip*oXo=**oo999c99cc9ccccccc999c9999ccccccccvccc99373353***",
"****t***o#***i****8999cc99cccc9ccc99993990cc98c99c9ccc933933i**i",
"i**;****o***yt***%*o99cc9ccccc999c993933999c99cc9999ccc3233***iy",
"ii;***o#o***ip**iiiil99999b99cc999993333899999bc99899993333*;yi%",
"iii*ooo=*i**i;*=**iiih9999c99899939333333992998c9999999333ti*i*%",
"******=**zz*%*iii**yipa99799993333233i**33333999399399333<*i*;**",
"%;**iii**zai*iii*****ii  <99933<=***ii***3336333399339333<*=-**i",
"i*****ii**ff*ii***ooX*   <9933<ii*;ii*=*zfff**o3339933343<<***if",
"*o*Xo****;ikii*****%o    ,<933<i*o%ii=*;ihdzk**oi   <,3333<*ifff",
"***oo**iffipizffzi*%i .   >73<<*:;*i**i=tikziz*if    <<<33<izzfi",
"*i****%*%zzizffk*ooo    +=<<3<***p***ti***izi**z  . .z<<<33<zkl*",
"*i***itp**i*zzi*oo     *o**<<<<**i**iii&***zz*y  .  fgz<<<3<ii**",
"i**i**iii***i*+oo     **o*;<<<<*i**ii=******pi     **iiy<<<<****",
";**iy;%oo*;**#o**    *i*o**i<<1*******ffdz*=*  .  *****<<><<****",
"i***y*%%ooo*y*=%**ipi*z=*tp*<<<*fio**zidzi:**    i**z*o<<<<*****",
"ti*;**=***Xohi******i*ld*i**=:i*ffi*zizzi****oooiki*zf**izi**it*",
"ip%*iii*tzioii*zi*%***yf;*ifi***zzzy*zh***tii**o**u*zdz*zi*-ii**",
"oi*iyi*;*iziooii=*ihfgii*ifi****zihi*****zi***oo*%**;izol***=**=",
"*=**=;***=*tiooo*ii*igfi*zz**=**ipii****%*oo**o*o%*k**iiozfzz***",
"*k******oooooo;oo%***izi*;*;****;ii;=-**%*ooooooo*kffziyzaz=**i*",
"ez*ii***iioooo*ioo****;******=**ii;i***zli*oooo****tzfzizz***iy*",
"****iu***iti***iiooo***********o*t=ii***ii**ooop**%**zziz**iii*o",
"%****i*%oo*****ii*%%*o*=oooooooo***ii=;**ii**ooii*%************o",
"***;**=oo*;**=*;i****Xooooo*iXo+****ii-*********ii*****%**;;**o+",
"****X#oi%iyio*i****ii*=%***ii*o*****oi*p**=*o*i****zl*****&***o*",
"*%++o*****izi*ii=*iyk***i**iiooo**ooo**i**;zo*yi:*iiz***i**iiooo",
"o**oX%***zzfh%zt=zzz**;ii***i*#oo=%oo****lzfz*zt*zzl***ii*;*i=#o",
"*i;=+o;i**izfi*%zkfgz**ii****oX*%i**oo%iy**zfi**zzffz**ii*o#*@o*",
"ii*oXo=pi*oo*k*iiff*oo*i*;*****%iioXo;**ooXo%********%**********",
"ii*+****=*oipiiizz*oooo*******tziio*ooooot*#oo****=***y**o*****i",
"iy****i*=*ffzoi#ooooo*o*iiiz**ffiiooo**i*ii**oo***i**zi**oo****i",
"i***yi***zzp****=%ipi*oX:iiiz**zp*oX*%;i;*pi*oo*=*z**f****oo***p",
"***iii****=*%***=ii**o+o***zz****r**i*ii***=oo***tzfiii****%+***",
"******oo*ipi=***ii****iiio**oo*%*i*zi=i****%o*tzfzikyiizfzi*#**i",
"**i*;#*X***iy**=****;iiii*p**if****fi**%***i****ifzitizfi***#%ii",
"zii**iio****i*=fffz*;=*iy*%*iff=zzyf***ii**z*ii**izkp=zi***#o*i*",
"zt**ii%o*fi+**zzfzi**;ooyi**fl**lfziiffz***zii=*;*iit***=*@X***=",
"*z;*-*oo*ffi*zizzi*%ii*o**=*zi***igt****=%;*ti;ii********i**=*;*",
"**;**ooo*zhz**iz****iooizhz*******ii%oo+o*ih*;zi*****;+o*ii****i",
"f*ii*oooo*ikp*zz****o+zffkz**zfff***+o**oo*iziz**o**i*;#o*ii**if",
"*o*ii***o%*ii***zlpoooo*****zffi*o*=o%=t*oo*yi;*oo*ri%**o;*i*=fa",
"***=iy***=*****izffz****iii**%***oo#o**ii;o****oo;=ii***Xo***pgi",
"*i***==*@o=%***o#+oX+o*tt******%*i*%*;**i*;z**oX****i****o*i*iz*",
"*i*uti=*ooo%oooo#*%oo#*;*i*******iy**ih%**zf**o**i****i***ii*i**",
"p**zz***iii*o=oooo*oo**i*ii**%;*i*ii**izi*fi**oo*ii**iz;=iii****",
"******%ii**X****;oooo*ii;*i***i***%**;*fzyzi***X**ii*ifz*i**oooo",
"ffz***%***=oitp%*;o***izooi**pt*fi**ii**zii*zkioX%*t*iff***=%%**",
"djzz*zzffz*oo*ii:*oi**z%**=*zii%ffii=zzi*iiii***o*****ig*izflti*",
"izzi*iizo**#o;*ii*oii%oo;;**zz**zzi**;fzii*i*;*oo***iiizizfzi***",
"oilooizoo;**oo*****pz***zzfz;*:*zi******ii***o$o*iizafzitiii%*X#",
"*=eiy;oozzi*%o*:*;%*zz*kdfi******p**oo***i*%**=o***=*iyioo**ooo*",
"*zfz**=zpi*poo*k*****%*zf*ollii**z**o#o***=o****oo*%**oooo****i*",
"eze;********;o*zz*%izsfi=%zdafk*uz*oo%#o%*oXo*i**oo**o+*i+o=**t*",
"***eee***ee*o+*zz*iffzzz**zizz*o***o;i*oooX=**iy**oooo*ii*oo;*%o",
"**qe=**;*qwooo;z*=*izazzi=itz**o***o*i***oy**=;i***oo*iii;*o***+",
"*%i***ii**ioo*=*********oo*;**oo***o*ii**%i*****y****=i=***o*;Xo",
"*%=;+**i**;*o%i****kz*****%***o=***+oi;i=*iio*i****zz*****=***o=",
"=*ooo**i*;*zo%ty**iiz***i**ii#oo%*o+#**y***zo*ip**iyz**%i;*iiooo"
};
