/* XPM */
static char *_165_737dfb5d182f800ceddd63a08b54bc117d4a684e7bd3740e651ac0b86c854b20[] = {
/* columns rows colors chars-per-pixel */
"64 64 50 1 ",
"  c #090A14",
". c #090A15",
"X c #1E3616",
"o c #1F3616",
"O c #1E3716",
"+ c #1F3716",
"@ c #1E3617",
"# c #1F3617",
"$ c #1F3717",
"% c #263A16",
"& c #273A16",
"* c #263B16",
"= c #273B16",
"- c #263A17",
"; c #263B17",
": c #273B17",
"> c #241527",
", c #341C27",
"< c #351C27",
"1 c #4D2A32",
"2 c #4C2B32",
"3 c #4D2B32",
"4 c #4D2A33",
"5 c #4D2B33",
"6 c #2D4317",
"7 c #344C1A",
"8 c #344D1A",
"9 c #354D1A",
"0 c #344C1B",
"q c #354C1B",
"w c #344D1B",
"e c #354D1B",
"r c #5F761E",
"t c #5E761F",
"y c #5F761F",
"u c #5F771F",
"i c #476920",
"p c #476821",
"a c #466921",
"s c #476921",
"d c #7A4840",
"f c #7A4841",
"g c #7B4841",
"h c #7A4941",
"j c #AD7656",
"k c #AD7756",
"l c #AD7657",
"z c #AC7757",
"x c #AD7757",
"c c None",
/* pixels */
"o**oo****0pys*sw*wps*;*w0***w*oo#**oo;***sata*sw*sss*;*ew***e*o+",
"*:*%+o*****pyw**8w8ww=*ww***ooo*%e=%Xo*ww**syw**ssyys**ww*oo%o#*",
"**w*&#Xo#*=***********;***oooo**e8o#+****%*=%=*w***;*****oo****;",
"wee*w***Xo**oo;*o****w*****ooows0wo*********w**w=;www**;oo*:***w",
"sw**ww**=+oo#ooooo*%*ww*****osyyww+#*www*;**y%ww*ww**oooo**w**=e",
"w%*%*w*wwe+Oo*oooo***ee***8**o*sw**oo*%ww**syww**0***oX****ww*%w",
"**8e8=we*oXo=**oo***w*ww**s**o=*%**oooo%*w*sys******oooo***ww***",
"**%*w;**oo***w****ooi;***ys******%X+oooo***wsw**%***oXoo*w*;w;*w",
"w**;***=o***0w***%*osy**syw***www**oo*=eyrysww*wiyyoooX*=w****w0",
"ww;***Xoo***ww*;wwwwsywwsw&=***wsw%*o=*=*wssswssw**oo****ww**ww%",
"www*oXo=*w**w;*=**wwwitww*******sw*=*;=**%*qsw***+oo******ww*w*%",
"******=**ss*%*www;*weeywwissw;***s*;*w*******=ooooo***0ww**w*;**",
"%;**wwe**srw*www*****wwwasw%=**w****0w******;*o**%$owasyyw*=-**w",
"w**%**ww**yy*ww***ooO*********www**w8*=;syyy**o*ww*oo*%sry****wt",
"*o*X+*****wsww******oXo****;*8ew*o*ww***witss**owu**oo**wss*wyyy",
"***oo**8yywewsyysw**w*ooooo**-**:;*w**w*wwpsws*wyy****ss0*=wpsyw",
"*w****%*%sswsyys*ooowwoo+=ooo=***e***8w***wsw**sss*;wsys***sspa*",
"*w***wwq%*w*ssw*oo=*oww*o********w%*www&***ss*wsw***yyswww*www*;",
"w**w**www=**e*o#o*******o;******w**ww=******eww******9w0********",
";**w0;%oo*;**oo**ww***w*o**ww*w=****%*yyys*************ooo#*****",
"w***0*%*ooo*w*=%**wew*s=*8e***e*ywo*=swysw:**=*w8w*;s*oX**w*****",
"8w**-*=***Xoiw******w*at*w*==;w%yyw*swssw****oo+wpw*sy**wsw**w8%",
"wq**www*8swoww*sw*****wy;=wyw***sss0*ss=**80w**o**w*sys*sw*-ww**",
"ow*w0w***wswooww**wsyuww*wyw****swsw****;sw**;oo****;wsoa***=**=",
"*=**=***;**88ooo*ww*wuyw*ss**=%*weww****%*oo**o*o%*p**wwXsyss**;",
"*s******oooooo*oo%***wsw*;*;****;ww;=;**%*#o#oooo*pyys80ars=**w*",
"6s*ww***wwoXoo*woo**************ww;w**%ssw*oo+o*=**wsyswss***w0*",
"****we**%www*=*wwooo***********o*w=ww***w0**oooe**%**psws**www=o",
"%****w*%#o*****ww****o**ooo+oooo***ww=***ww**ooww**********%***o",
"******=oo*******w****Xooooo*wooo****ww%***=;****ww*********;**o$",
"****o#ow%wwwo*w-***ww*=&***ww*o*%==*ow*w**=*o*w****ss*;***&***o*",
"*%o+o*****wsw*ww=*w0p***w**wwooo**ooo**w**;s+*00:*wws***w**wwooo",
"o**oX%***ssyi%s8=sss*=;ww***w*#X#=%oo****asys*s8*asa%**ww*;*w*#o",
"*w;*+o*w**wsyw*%spyys**ww****+o*%w**oo%ww**syw**ssyys**ww*X#*@o*",
"ww*oXo=ew*oo*s*wwty*oo*w*;*****%w8ooo;**ooXo*********%*%********",
"ww*+****=*owewwwss*oooo****=**8sww+*ooo#ow*ooo***;=***0**o****%8",
"w0*%**w*=*yysow#oo#oo*o*wwws**yywwooo**w*ww**#o***w%*sw**oo*%**w",
"w***0w***sse***;*%wew*oo:wwws**sw*oX**;w**ew*oX*=*s**y****o#***e",
"***www*;**=*%***=ww**ooo**=ss****8**w*ww***=oo***8aywww*****+**%",
"******oo*wew****ww****wweo**oo*%*w*iw=w*****o*8syswswwwsysw*#**w",
"**w*;#*X***w0********www0*w*;wy****ye**%***w*=**wysw8wsyw***#*ww",
"sww**wwo****8**yyys*;=*w0**%wyy=ss0y***ww**s*ww**wssw*sw;**#o*w*",
"s8**ww*o%tw+**ssysw**;oo0w*%ya**ayawwyys***sww:=;*ww8**==*XX***=",
"=s**-*oo*yyw*swssw*%w8;o*;**sw***wuw******;*8w*ww********w**=***",
"**;**ooo*sis**ws****woo0sis*****%*ww*oooo%wi**sw*****;+o*ww%***w",
"y*ww*ooXo*wsw*ss***;X+iytss**syyy***oX**#o*wsws**o*;e*;#o%8w**wy",
"*o*ww***o**ww;**sseoooo*****syyw*o*=+%*w*oo*0w;*oo*7w%**o;*w**rr",
"***=ww*********wpyys*;**www%*****oooo**ww;o****oo*=ww**=Xo***euw",
"*w***==*@o&%***o#+oo+o*87******%*w******w*;s**#o****w****o*w*8s*",
"*w*q8w=*ooo*ooooo*%oo#*;*w**=****w0**wi***sy=*o**0****w***ww*w**",
"e;*is***www*o*oooo*o#*%w*ww*****w*ww**wsw*yw**oo*ww**ws;=www****",
"***;**%ww**O****;oooo*ww;:w***w******;*ys3333133313w*wys*w**oooo",
"yys***%****owww%**X***esoow**ww*yw**xxxx3333353333333wyy*****%**",
"tpss*ssyysxxxkxxxjxx*cs***=*swwxzxxxxxx333333333333333wy*wsys8w*",
"wssw*wwsoxxxfffxkffxxxoo:;*xxkxxxxfxx3x333533333fff33333wprsw***",
"owsoowsxfxffxfx,3xlxxxxxxkxxxxfffxff33333313333fff3333333ww0;*X#",
"*=6w0;xxxffhffx,3xxxxxxxxxxxxxxxffff333313333fff33ffff5333**ooo*",
"*sysxxfffffdff,3xxxxxxxxxxxffffxxf332333333fhfffffff3333333***w*",
"6s3,,33ff>>>ff3xxxfxxxlxffxxfffff3333333333fff33gfff3333333***w*",
"*   ,333ffffgffffxxfxxfxxffxfffff3ff33333333dff33ff3333f3313;**o",
"*,.,,,33f33ffffffxxfffxxxffffffffff33533fffffffhffffffh33333***+",
"*,><,,,333ffffffxxffffhxffffffffffg33333ffffffffffffffff33133;Xo",
"*,>,,,,333fffffffffffffxfffdffffffff333333fff33ffd333ffff3333*o=",
"&,>,,,,33ff3hfffffffffffffffffffff3ff343f3dfff33hfff3333333333oo"
};
