/* XPM */
static char *_6112_0c6a120a6893d4e5de7abf094629b01c41547aeff8d0db237641503679255c9b[] = {
/* columns rows colors chars-per-pixel */
"64 64 42 1 ",
"  c #090A14",
". c #090B14",
"X c #1E3616",
"o c #1F3616",
"O c #1E3716",
"+ c #1F3716",
"@ c #1E3617",
"# c #1F3617",
"$ c #1F3717",
"% c #263A16",
"& c #273A16",
"* c #263B16",
"= c #273B16",
"- c #263A17",
"; c #273A17",
": c #263B17",
"> c #273B17",
", c #241526",
"< c #241427",
"1 c #241527",
"2 c #341C27",
"3 c #2D4217",
"4 c #2C4317",
"5 c #2D4317",
"6 c #344C1A",
"7 c #354C1A",
"8 c #344D1A",
"9 c #354D1A",
"0 c #344C1B",
"q c #354C1B",
"w c #344D1B",
"e c #354D1B",
"r c #5F761E",
"t c #5E761F",
"y c #5F761F",
"u c #5E771F",
"i c #5F771F",
"p c #476920",
"a c #466821",
"s c #476821",
"d c #466921",
"f c #476921",
/* pixels */
"o**oo****0syf*fw*wsf*:1111111*oo#**oX:***ffyd*f122,1*     **e*#o",
"*=*%+o*****syw**8e8ww111111*ooo*%e=%Xo*ww**fr1111,1if*    oo%oo*",
"**w*&#@+#*=*****=****1111 oooo**e8o#o****%**111111*::*    o****:",
"wee*w=*:oo**oo:*o****w  . *ooowf0wX*********11<11:eww   . *>***w",
"fw**8w**>+oo#oo+oo*%*w.  ***ofyywwoo*www*:=*y%ww*ww**    **w**=e",
"w%*%*w*www+Oo*oooo***ew***w**o*fw**oo*%w0**fyww**w***oX****ww*%w",
"**8w8=w9*oXo=**#o***w*ww**f:*o=*%**oooo**w*fyf******oooo***ww*%*",
"****8***oo***w****oop:***yf*****:%Xooooo***wfw:*%***oO+o*w%*w**w",
"w**:****o***0w***%*ofy**syw***www**oo%=eyryfww*wpyy+ooo**w****w0",
"ew:***ooo***ew**wwwwfywwfw%=***wfw%:+=*:*wfffwffw**oo****ww**ww%",
"www*ooo=*w**w:****wwwptww*******fw*=*:=**%*qpw***+oo******ww*w*%",
"***%**=**fs*%*www:*wweywwpffw:*=*f***w******:=ooooo***www**w*:**",
"%:**www**prw*ww8=****wwwdfw%**%w****ww******:*o**%$owffryw==-**w",
"w**%**ww**yy*ww***ooX*********www**ww*=*fyyy**o*ww*oo*%fry****wy",
"*o*Xo*****wfww******oXo*=**:*wew*o*ww***wptff**owy**oo**wff*wyyy",
"%**oo**wyywewfyyfw**w*ooooo**-**;:*w**w*wwffwp*wyy****ff0**wffyw",
"*w****%*%ffwstys*ooowwoo+=oo+=***e***8w***wfw**fpf*:wfyp***pfsf*",
"*w***wwe**w*ffw*oo=*oww*o********w**www&***ff*wfw***yyfwww*www**",
"w**w**www***w*ooo*******X****%**w**ww=:*****eww******8w0********",
">**wq:%oo=:**#o**ww**=w*o**ww*w*******yyyf*************ooo#*****",
"w**=0*%*ooo*w*=%**wew*f=*8e***e*ywo**fwyf8>**=*w8w**f*oo**w*****",
"8w***%=***Xopw******w*dt*w**=:w*tyw*fwfdw****ooowsw*fy**wfw**w8*",
"we**ww8*8fwoww*fw****:wy:=wy8***fff0*ff=*=8ww**o**e*fyf*fw*-ww*%",
"ow*w0w***wfwooww**wfyiww*wyw****fwfw*****fw***oo****:wfod**:=**=",
"*=**=******8wooo*we*wiyw:ff**=**eeww****%*oo**o*o%*s**wwofyfs***",
"*f******oooooo*oo%***efw*:*:****:ww:=:**%*oooo+oo=syyfw0frf=**w*",
"5f*ww***wwoooo*woo*************=ww:w*:=fdw*ooXo****wfyfwff***w0*",
"****we***w8w***wwooo***********o*w=ww***0w**oooe*****ffwf**0ww=o",
"%****w*%oo*****w9****o**oooooooo***ww=***ww**oowe**************o",
"***%**=oo*******w****Xooooo*woo+%***ww-****:****w8*********:**o$",
"*=*%o#ow%wwwo*w**=*ww*=%***ww*o*****ow*w****o*w****ff*****&:**o*",
"*%o+o*****wpw*ww=*w0s***w**wwo#o**ooo**8**:fo*0w>*wwf***w**wwooo",
"o**oX%***ffyp%f8=fff**:ww***w*#+o>%oo***%dfif*f8*ffd***w8*:*w*#o",
"*w:=+o*w*:wfyw*%fsyyf**ww****oo*%w=*oo%ww**fyw**ffyyf**8w*o#-#o*",
"ww*oXo=ew*oo*f*wwyy*oo*w*:*****%wwoXo:**ooXo****:*:**%**********",
"ww*+:***=*owewwwff*oooo***%***8fwwo*ooooow*ooo****=***w**o*****w",
"w0****w*=*yyfow#ooooo*o*wwwf**yywwooo**w*ww**oo***w**fw**o+****w",
"w***0w***ffe*%***&wew*oo>wwwf**fw*oX**:w**ew*oo*=*f**y****oo***e",
"***w8w**=*=*****=ww**ooo***ff:***8**w*ww****oo***8fywww***=*+***",
"******oo*wew****ww**:*wwwo**oo*%*w*fw=w*****o*8fyfwfw0wfyfw*#**w",
"**w*:#*X***w0********wwww*w*:wt=:**yw**%*=*w****wyfw8wpyw***#=ww",
"fww**wwo****w**yyyf*:=*w0***wyy=ff0y***ww*=f*ww**wffw*fw***#o=w*",
"f8**ww*o*yw+**ffyfw%::ooew**yd**dyfwwyyp***fww>*:*ww8***=*XX***=",
"*f**-*oo*yyw*feffw*%ww*o****fw***wiw******:*8w*ww********w**=%**",
"**:%*ooo*fpf=*wf****woowfpf*******ww*oooo*wp**fw*****:+X*ww****w",
"y*w0*ooXo*wfw*ff**%=o+fyyff**fyyy***oo**oo*wfwf**o**w*:#o*ww**wt",
"*o*ww***+**ww***ffeoooo*****fyyw*o*=o%*w*oo*0w:*oo*6w%**o:*w**yr",
"***=ww*********wfyyf****www******oooo**ww:#****oo*=ww**:Xo-**eiw",
"*w**%==*@o*%**=o#+oo+#*89******%*w******w*:f**oo*%**w****o*w*ws*",
"*0%q80=*ooo*Xooo#*%oo#*:*w*******wq**wp***fy**o**w****w*:*ww*w**",
"e**pf***wew*o*oooo*oo**w%ww*****w*ww**wfw*yw**oo*ww**wf:=www****",
"******%ww**O****:oooo*ww:*w**:w******:*yfwfe***X**ww*wyf*w**oooo",
"yyf***%****owww*%*o***wfoow**ww*yw**ww**fww*ffwoo%*8*wyy*****%=*",
"usff*ffyyp=oX*ww>*o8**f*=*>*fww%yyww*ffw*0www***o*****wy*wfyf8w%",
"wfpw*wwfo**oo:*ww*oww%oo::**ff**ffw***yfww*w***oo***wwwfwfyfw***",
"owfoowfoo:**oo**:**wf***fftf:*:*fw******ww*%*o+o*wwfryfwwwww*=X#",
"*=5w0:ooffw:&o*>****ff*ftyw******7:*oo***w*****o*****w0woo**ooo*",
"*fyf**=few*eoo*f*****%*fy*oadww**f**ooo***=o****oo*%**oooo****w*",
"5f5:****:***:o*ff*%wfryw=%fyyyf*9f*oo%#o%*ooo*w**oo*=oo*w+o***w%",
"***555***55*o+*ff*witfff**fwff*o***o*w*oooo=**w0**ooo#*ww*oo:**o",
"**34=*::*54ooo:f*=*wfyffw*w8f**o***X*w***o0**=:w***oo*www:*o*:*+",
"*%w*%*ww**woo***%%=*****oo****oo***o*ww***8*****0****=0=**%o*:Xo",
"*%=:o**w****o%w****sf*%***%***o=**%oow:w**wwo*w****ff*****=***o=",
"=*ooo**w*:*fo%w0%%wwp***w**ww#o#%*o+#**w***fo*we**w0f**%w:*wwooo"
};
