/* XPM */
static char *result[] = {
/* columns rows colors chars-per-pixel */
"64 64 143 2 ",
"   c #000000",
".  c #131419",
"X  c #0E2406",
"o  c #0E2801",
"O  c #0C2208",
"+  c #132A05",
"@  c #142A0A",
"#  c #173103",
"$  c #1A3503",
"%  c #1F3804",
"&  c #1B320C",
"*  c #122815",
"=  c #152C1E",
"-  c #1B3413",
";  c #1E331C",
":  c #233C05",
">  c #23330B",
",  c #213A0C",
"<  c #203614",
"1  c #243B14",
"2  c #21371D",
"3  c #25391C",
"4  c #293F1C",
"5  c #341C27",
"6  c #192D23",
"7  c #1F3325",
"8  c gray13",
"9  c #2B2B28",
"0  c #223624",
"q  c #273A24",
"w  c #25392C",
"e  c #323232",
"r  c #4D2B32",
"t  c #40393E",
"y  c #254004",
"u  c #2C4506",
"i  c #2D4B05",
"p  c #27400C",
"a  c #2C450D",
"s  c #2E4A0C",
"d  c #334F04",
"f  c #354D0D",
"g  c #375303",
"h  c #36520D",
"j  c #3D5A0D",
"k  c #294114",
"l  c #2E441C",
"z  c #334B16",
"x  c #344C1E",
"c  c #345014",
"v  c #3E5413",
"b  c #37511C",
"n  c #2A4025",
"m  c #2A412C",
"M  c #314427",
"N  c #334B25",
"B  c #3B5225",
"V  c #425F0B",
"C  c #415E15",
"Z  c #415D1F",
"A  c #456A07",
"S  c #4A6B06",
"D  c #46640D",
"F  c #4B6A0D",
"G  c #577804",
"H  c #56760C",
"J  c #557A0D",
"K  c #5C7D0B",
"L  c #446315",
"P  c #486515",
"I  c #4B6915",
"U  c #44621F",
"Y  c #48651F",
"T  c #4C6A1F",
"R  c #516D17",
"E  c #506C1F",
"W  c #537417",
"Q  c #5A7715",
"!  c #5C7B15",
"~  c #55731F",
"^  c #5B761E",
"/  c #5C7B1F",
"(  c #617C17",
")  c #617D1C",
"_  c #465F2A",
"`  c #446227",
"'  c #4B6426",
"]  c #476921",
"[  c #4C6927",
"{  c #4B642E",
"}  c #516B27",
"|  c #526C2E",
" . c #557225",
".. c #5B7627",
"X. c #5D7B27",
"o. c #4A6537",
"O. c #4D6930",
"+. c #536B37",
"@. c #5C7630",
"#. c #627D27",
"$. c #617C32",
"%. c #505051",
"&. c #5D5C5D",
"*. c #7A4841",
"=. c #5D7440",
"-. c #5F5865",
";. c #6B6C6C",
":. c #70706B",
">. c #AD7757",
",. c #648320",
"<. c #658228",
"1. c #7F877A",
"2. c #787D80",
"3. c #7C8484",
"4. c #828686",
"5. c #878B83",
"6. c #878B8A",
"7. c #8E9988",
"8. c #92958C",
"9. c #959B8E",
"0. c #9A9D8A",
"q. c #8E8F90",
"w. c #8F9495",
"e. c #959693",
"r. c #969A93",
"t. c #9B959B",
"y. c #9F9F9E",
"u. c #A1A19C",
"i. c #A7AAA7",
"p. c #AFA8AF",
"a. c #B0AEB6",
"s. c #ADB1B2",
"d. c #B5B7B6",
"f. c #BCBCBB",
"g. c #B9C0AE",
"h. c #BEC3BE",
"j. c #C0C4B5",
"k. c #C2C3BC",
"l. c #BDBFC4",
"z. c #BFC3C5",
"x. c #C3C2C4",
"c. c #C4CAC0",
"v. c #C4C4CC",
/* pixels */
"& < < < < & < < & b L ..I % O.a : s ] [ - % - c h % 1 # c k @ $ & - - $ - % & l y { ` ! S : } l , [ [ Y , < & x c > 1 1 l 2 @ > ",
"& 1 1 $ > & > < 1 , $ Y <.x : : l c c b k k % z z - 3 k @ - - - k b - - $ & p N l p : Y @.4 , : Y F H ^ Y s y d x < & & : < - , ",
": > x & 1 > > > - , , , 1 , & , < k , & & 1 & p y 1 - @ & - l % k b - p & & - y : & < k : 1 < a q , u % - = n - , & & > $ 1 > , ",
"c a c , a 4 $ < < # 1 1 X < 4 < - & , % a l k & & , - & & # s L c z $ - - k p % > 1 - % z & : B , $ s z b k - % % - - l > 1 , a ",
"O.a , : k B , , - & @ - & & & & & , , k & x x % , > 1 > $ [ X./ c k % - - N k c < p 3 y  .k s k 1 N b $ & & @ & > - < z u > 1 c ",
"x , : : 1 z : l c B - & & & & & - & & k : s c , - z z & 1 $ # Y c - 1 - - p - b M y < F ,.s s k 1 l , k k & @ p , < - c l , > a ",
"> , l z z 1 1 b k & & 1 p k & - - , - & c y l x < y _ 1 2 & k k p , % - @ - # 1 & b - L ..] y - - k 1 & & & & - , < > k c 1 , : ",
"1 > , , x : : : $ @ - 1 & k 1 1 & < < & { : : > :  .I : - 1 & 1 < < & - & - & & p & k c U z p & & , , % & - - & & z , : z , 1 x ",
"z l > , < < < 3 $ ; - - b c & , - : - & F X., u H R h , & 4 z s s : < - & > % N / ! ! I z N 1 c H @...$ # y - - 1 f > 3 > > b z ",
"x a , 1 1 < & # - % - l i f k & z B b a T ..c a ` z & 1 1 , , z [ c & - & 1 , & 1 a ' P Y i Y L k & $ 1 - $ - y $ b a : 1 z z , ",
"z x x , # + > < - g l ; c $ - l % < k d c D ^ f x 1 $ > 1 > < , ` _ , , > k & : u 1 : f ` c k & 1 - & - & < k , , 1 B u : x # , ",
": > , , , k , , k D Z 2 - , c l h 3 k c l h ^ z i Y | ` z , , , : b k , 1 l p k < + < 4 - & - < % # % & k , k s f > < x 1 q 1 , ",
": , , , l x z , & T K i k s h z 1 < & < - c c c T Y h , : , l k y y p % c N & , 3 1 : > < 3 + y - - 0 $ z ` I X./ i - 2 > < & h ",
"l 1 : , , 1 l x 3 < H ..k k z - > : < ; $ p & , $ , 1 - < & f h k & 1 k b p , - ' ^ ! ^ : 3 ; 1 z z & & 1 1 % [ ! ..k > u $ v W ",
"k > & > > , > : 1 > f Y x k y 1 , : & - $ - ; % - 1 - 1 4 x z l k & , B p : , 1 h P ) F C : & , g ^ l - - * : : d E ' % a R #.#.",
", < < & > $ , x H ! z f d ' ) ! ` c : p b & & - & - $ $ y , , < < 1 , b % : N > s f O.` c { y k Q X.: & p , ' Y l & , z ' I ! f ",
"> N 1 , & , : > , [ T c D X. .T , & - @ x k $ % # , < & > > 1 1 a z % 1 % c a 1 , p z ` c 1 & T [ P 3 ; c ] / P % : , ` T Y Y , ",
"1 l & < a x x B & : z k Y D c $ k X k 1 # z N - > - < - , , > 1 - N 1 p z b a & - 1 - ` Y i k Y x , % %  .J T z x x , z f i % p ",
"u l 1 x , : > b l k - & f p - 3 o , % $ % 1 & k % < - , , 1 : , s & y k l % n 1 % l , y h s l u % 1 : : k h i l - 4 1 # : n & k ",
": , & b z : , , & 1 < < p - * & 4 x z p 1 1 l : & 1 p x l < k , , 1 q k y - ~ ,. .] > 1 & % , > - , 3 , 1 o s 7 - + # 4 < < < - ",
"l , > a l , , , < + , % c 3 k y < 1 z a z k { $ 1 l a % : & B , / N $ & -  .y G I i & k < , 1 M N z - 1 [ y % * 1 p p p 1 - < : ",
"z c 4 > : > u & , : & $ ` c & y > , - 1 N % L / > z % i : : B & ,.S c : ` x T ] z , a & % $ , & c Y y k | W , > a ` c % p B z > ",
"x x : , k b k 1 x [ l < z s , ` c : , 1 , % g X.> y f | N 1 & , F ] L N : Z O.$ 0 , f l N : - < & k d # R / [ < T c 1 - x z : > ",
"# z , b z c , > - g Y N & # N s 3 & c L Q #.s M , z @.h % > k & O.i [ z : : p q , ] i y < - $ - % 1 ; l & z P $ T $ 2 < > : , 3 ",
", : , > > k & 1 < 1 & B M & - - < z z : f #.X.i : ' _ , , , , : a c z x : , , < > 1 # & < - > & # 1 & [ p - x h - Y J A +.& a - ",
", { , 1 , , k & # , $ $ , & % $ & 4 # < , i ] B & k k > & , < < y k l , k $ 1 < < 3 1 @ < 1 < & - , ' / ! I c k ` <.A - - - c p ",
"k ` y l z % p % x k & $ & & , c $ + 4 3 - k % - , : , , > 1 , # N 7.r.w.w.w.e.q.9.5.8.r.5.8.8.8.1 , y i D ^ } u I j 1 n < s c : ",
", 1 % u N z & k 1 x N l 4 1 , l B # & & - & - 4 < & l , , 1 1 & &                               & k - k a L ' N Y s 1 x c c & & ",
"& & , > : B 1 @ # % 1 , & < , z x & < > : & > > & - - - & - & - 1                               x $ < 0 < % # l 1 & - : > k - ; ",
"k , - 1 & < k & & $ , a 1 & & , f & 4 : : % & > - - $ , l > # & -             ;.x.x.q.          c c 1 - < p y & , k k & & 1 - $ ",
"k : & 1 & & > k k x z k : : x : , 1 & c s > < < > & > s N 1 & - 3           k.9 9 e 8 x.        & 1 $ ] ] $ < < , & & k 1 - - 1 ",
"% 1 & ; - 1 % 1 - p s ` z : x z : 1 N a O.c.l.h.l.z.x.k.h.h.c.v.z.        2.x.x.x.x.x.8 u.      1 1 l j [ < k % z , - c i & & $ ",
"& 1 > % > < > : - I S / ` y [ d , L E ] , h.z.v.0.s.a.a.t.t.x.h.k.        v.x.k.x.x.x.&.k.      % ' F ` 1 - n k b , > 1 x 1 # & ",
"1 l , > - & 1 b 1 ; b I / u & 0 ` Y W W } g.x.h.k.a.d.j.d.h.z.i.9.        l.x.f.y.r.u.p.f.      O.] W ,.I # $ c b & : + & & & 1 ",
"z k , , @ & , z z p O w & [ : z h <.W i $ & k l < l & : k > 1 y a         ;.h.f.c.z.x.. i.      & % 4 + k 7 p , , , , , 1 , > 1 ",
"f z , > - < , , % , : u b N c i Y ` & # 3 ; O p & & k > - 3 a D x           d.-.%.-.%.a.        : z - , 1 @ c & , > 1 & < < > z ",
"z z , , 1 a 4 , ; i  .W Y $ x & - $ $ - * < 1 - v i s [ y % $.K d             t k.k.:.          , : u , : F s l 2 < < 1 1 1 : x ",
"k : & , c k : 1 k [ ] s k > $ 3 - - z c c & - # , M 4 j _ % & | z                               < , } 1 & $., & < - @ & - , : z ",
"4 : , z x l , < $ - k % $ 4 < < 1 c z # , $ $ - : 4 y ] [ p , > 3 3.4.5.3.4.6.4.5.6.4.4.6.3.5.1.& b L ..g i x 3 : : > 1 < , # : ",
"& 1 4 > : % > & : z z N > : , < s c - 3 < < x a f - - , > & < 1 : N : _ B > z > , > < > % > b O.! L z } f n h A  .E h , + < 1 B ",
"% , N - < & & - y - & c z 3 : , 1 $ 1 0 > h z M s < s , - f ) < u - k / f : 2 , < > , N % y 1 & s $.A i b b U ,.x < 1 : < < z z ",
"[ f b y $ N z $ , 3 1 : z > , ~ ,.! D y , 1 $ z z 1 , 1 g ^ .., ` Y i  .- k & f c < : [ k k b - k y T T a , O.s : < - & > < 1 1 ",
"Y c $ p c c p # - ..i - < : [ A Q C B 1 & - 1 # i z 1 - / Y , # Y ^ Y h f ! ^ T , % , O.s b # k & , c z z - 1 & : 1 - & , , 1 1 ",
"% { % $ - & - ; % H ,.b 2 { d Y I c : # v N < - n $ y , I z < k % g ..f 1 # , ; < : % : c z # z a l - - k , % , 1 z < < , 1 & u ",
": 1 k k % & - - p ] A ] y 1 s Y & p & : x - & p L W L 2 : l # : ; $ b z , - , & & - k O.% % [ z y , < 3 , , - - - s z k > < & d ",
"=.p y N k $ & - - - h A : 1 O.] 1 , 1 < # % Y ,.Q D [ 0 > Y ,.+.) : # < : < & < & & 1 x { c ] % & & , : c p % - - : f z , 1 c X.",
"$ % & u z : p & - - y x x y # y L [ N - 6 & & - q - i # T ! J v - < 1 < @ 6 , d - > % & z c - p 2 & , s c - k - - - , z 1 > } #.",
"< & 1 k l N , < $ k - - $ 4 ; c L ,.J L % , : , z z f < < 3 > > < 3 # & : - : x l , % : < & 1 & & , , N N & & : + 3 1 , > f #.d ",
", z 1 1 & , : 2 & & % $ , , 4 - - @ # & 3 - - x z < 3 k 1 # p < 1 l > , & - 1 % z , k [ - : # - % , < k z < q > , & 2 N & z { y ",
"% B % f g B & , 6 2 ; ; & & & & - 1 k - O & k : p a $ & k , 3 : y h x : : z +.& & > ] ..< ; & 1 < N < & : : N 1 1 > z f y a p & ",
"h > & ] ] - 3 p u c p k & < & 1 & $ - & - 1 $ c < f b , & 1 - y m y c z < % h I j u  .c , 1 # - < N z k : u P % , x u c % - 1 ; ",
"< l & k y & , i z k < & < - % # & 1 & & & > b s & k l y < < c , 1 & & : & 3 i ^ Z z P u : 4 , & : , s f , z #.V , z & k & & & & ",
"( / T % - ; 1 % p % & - N N z y y - & 1 k : s [ < - M % k a f - Q c 1 > B z % , L b c l L ` c - , & , f 1 N ^ ( k % y , % k < , ",
"/ D L O.& ` U X. .] a $ # , k z k - & N $ % o., @ , 2 1 Y c x , Q #., N $ T } k k a i N z < 1 : & 2 1 , 3 0 i Q , s [ ..] c z : ",
"f Y T s k c h V - 1 - - & 1 k x l % & N c , & & , : : p U { 1 & } C j 1 1 $  .T N c 1 l , % 3 $ & 4 > : f z l } x O.T ~ i # k & ",
"= h L - - c ] - $ , a - & & & % , , , c ` p + 4 ' [ R I p , % < I z 4 & 1 1 1 : c s < - > # 2 & < a f ' H K Y z a h g k 1 q - - ",
", > 1 x x , & ; ] ] u : < - < & - , > : R { , I ! ! h - k , & 2 # c , 1 , o 1 p : z 1 & , < - & 1 , , , : l x x - & 3 1 & # & - ",
", E ! F , - : L f z : x > & , [ l # > , 3 - 1 I X.# $ [ D c c : k ` k & - & & & 1 < < & 1 > l > - > > < 1 , - # $ @ - % , k x 1 ",
"l _ d : , l > : & , , x < $ % Y C 2 q f D Q W z < % | X.W X.C , a ` p # < 3 - & - - , & & : z , - 1 & - 1 & # 1 z # - 1 & k N & ",
"1 1 3 k l k 3 3 1 l l 1 - - 1 Y ' 1 z #.) ] ] ] 1 1 ] x ] ] 1 < 1 1 1 2 1 z 1 ; - r r r r r r r r r r < < < 1 z x 1 - ; 1 1 1 - ",
"1 1 l k 4 1 1 1 1 l l < < < 3 ] 1 1 1 z ` ) ] ' x 1 z x ] 1 4 < 4 1 1 < >.>.>.>.r r r r r r r r r r r r r 3 z x x 1 1 < 4 1 1 2 ",
"1 1 b 3 1 1 x b 1 1 >.>.>.>.>.>.>.>.>.>.1 : 4 1 < 2 4 1 1 3 - >.>.>.>.>.>.>.>.r r r r r r r r r r r r r r r b 4 1 1 1 3 1 1 < < ",
"3 1 1 1 - 1 1 z 4 >.>.>.*.*.*.>.>.*.*.>.>.>.1 1 1 1 1 >.>.>.>.>.>.>.*.>.>.r >.r r r r r r r r r *.*.*.r r r r r 4 1 1 1 1 1 2 1 ",
"1 3 < < < 1 4 >.*.>.*.*.>.*.>.5 r >.>.>.>.>.>.>.>.>.>.>.>.>.*.*.*.>.*.*.r r r r r r r r r r r *.*.*.r r r r r r r 1 4 z x 2 - < "
};
