/* XPM */
static char *result[] = {
/* columns rows colors chars-per-pixel */
"64 64 138 2 ",
"   c #000000",
".  c #090A14",
"X  c #131419",
"o  c #0E2505",
"O  c #0E2801",
"+  c #0C2208",
"@  c #132A05",
"#  c #142A0A",
"$  c #173103",
"%  c #1A3503",
"&  c #1F3804",
"*  c #1B320C",
"=  c #122815",
"-  c #152C1E",
";  c #1B3414",
":  c #1E331C",
">  c #233C05",
",  c #23330B",
"<  c #213A0C",
"1  c #203614",
"2  c #253B15",
"3  c #22361D",
"4  c #25391C",
"5  c #293F1C",
"6  c #241527",
"7  c #341C27",
"8  c #1F3325",
"9  c gray13",
"0  c #2B2A28",
"q  c #223624",
"w  c #273A24",
"e  c #25392C",
"r  c #323232",
"t  c #4D2B32",
"y  c #40393E",
"u  c #254004",
"i  c #2C4506",
"p  c #2D4B05",
"a  c #27400C",
"s  c #2C450D",
"d  c #2E4A0C",
"f  c #334F03",
"g  c #354D0D",
"h  c #375303",
"j  c #36520D",
"k  c #3D5A0D",
"l  c #294114",
"z  c #2E441C",
"x  c #324B16",
"c  c #344C1D",
"v  c #345014",
"b  c #3E5413",
"n  c #37511C",
"m  c #2A4025",
"M  c #314427",
"N  c #344C25",
"B  c #3A5225",
"V  c #415D1F",
"C  c #456A07",
"Z  c #4A6B06",
"A  c #46640D",
"S  c #4B6A0D",
"D  c #577804",
"F  c #56770C",
"G  c #5C7D0B",
"H  c #446315",
"J  c #486515",
"K  c #4B6915",
"L  c #44621F",
"P  c #48651F",
"I  c #4C6A1F",
"U  c #516D17",
"Y  c #506C1F",
"T  c #537417",
"R  c #5A7715",
"E  c #5C7B15",
"W  c #55731F",
"Q  c #5D761E",
"!  c #5C7B1F",
"~  c #617C17",
"^  c #617D1C",
"/  c #465F29",
"(  c #446227",
")  c #4B6426",
"_  c #476921",
"`  c #4C6927",
"'  c #4B642E",
"]  c #516B27",
"[  c #526C2E",
"{  c #557225",
"}  c #5B7627",
"|  c #5D7B27",
" . c #4D6930",
".. c #536B37",
"X. c #5C7630",
"o. c #627D27",
"O. c #617C32",
"+. c #505151",
"@. c #5D5C5D",
"#. c #7A4841",
"$. c #5F5865",
"%. c #6B6C6C",
"&. c #70706B",
"*. c #AD7757",
"=. c #648321",
"-. c #658228",
";. c #7F877A",
":. c #787D80",
">. c #7C8484",
",. c #828686",
"<. c #878B83",
"1. c #878B89",
"2. c #8F9289",
"3. c #8E9988",
"4. c #92958C",
"5. c #959B8E",
"6. c #9A9D8A",
"7. c #8E8F90",
"8. c #8F9495",
"9. c #959693",
"0. c #969A93",
"q. c #9B959B",
"w. c #9F9F9E",
"e. c #A0A19C",
"r. c #A7AAA7",
"t. c #AFA8AF",
"y. c #B0AEB6",
"u. c #B5B7B6",
"i. c #BCBCBB",
"p. c #B8C0AE",
"a. c #BEC3BE",
"s. c #C0C4B5",
"d. c #C2C3BC",
"f. c #BDBFC4",
"g. c #BFC3C5",
"h. c #C3C2C4",
"j. c #C4CAC0",
"k. c #C4C4CC",
/* pixels */
"* 1 1 ; 1 * 1 1 * n H } K &  .s u d P ` & ; & v j % 2 $ x l # % ; * < % ; * * z < ) _ ~ Z > ` z < ` ` P < ; * c v , 2 2 c : # , ",
"* 2 2 % > * , 1 2 2 % L -.c > a m v v n l l ; x l l 3 l * ; ; ; l c ; ; % * l c x < > P O.2 a u P S F Q I d u f c 1 * * < 1 ; < ",
"> * c * 2 % , , * < < < 2 < * < 1 a < ; & l ; a > 2 ; # # ; z u l N & ; * * < > 2 * 1 2 > 1 2 s w < a & ; - m ; < * * , & 1 , < ",
"v s b < l l , 1 1 $ 2 2 o 1 5 1 * * < < a z a * * < ; * & $ a H v v % ; ; l a % > 1 1 > x * , N < % d v N l & ; & ; ; l , 2 < s ",
"' s s % l N < < & * # * # * * * * < < l ; c c % < , 2 > $ ` | ! v l % ; ; N l v ; s 4 > { l x 2 1 N n % * * # % * ; 1 x a , l v ",
"c 2 > > 2 x < l c B ; ; * & * * ; * * < > d x < ; c x * 1 * $ P v < < ; ; l * c N u 1 A =.d d l 2 z < l l * # l < 1 ; c l > < s ",
", > z z x l 2 n l * * ; ; l * ; ; < ; * v u x c ; u V 2 3 * l 2 < ; < ; # ; % 2 * n ; H | _ > ; 1 l ; * * * * * > 1 , l v 2 < > ",
"2 , > < c > > > % # ; l & l 2 2 * 1 1 * ' > > < > { U > 1 1 < 2 ; l # ; * ; * * < * l v L g l * * < > < * ; * * , x > > x < l m ",
"x z , < 1 1 1 4 % : & ; N v * a 1 u * * S | & a F ` j * * l x g d & l ; # , < c ! E E K x N a v S X.| % $ u ; ; 2 g > 4 , , N x ",
"c s < 2 2 1 * $ ; & ; z p d z * z B c d ` } x s ( x < 2 2 * < x ` v * ; * 2 < ; 2 s ) J _ p _ H x * % 2 ; % ; a % c s > 2 x x < ",
"x c c < $ @ , 2 ; p z : c % * z & 2 2 f v A Q g c 2 % , l , 1 1 _ ( * & , l * > a 2 > g ( v l * 2 ; * ; * ; z & < 2 N i > c % < ",
"> , < < > 2 < * z A L 3 ; & v z j 4 l v z j Q v p P [ ( x & < > u n l ; 2 l s l 1 @ 1 5 ; # ; 2 % % % ; l & s d g , 2 c 1 w 2 < ",
"> < , a z c x 2 * Y G p 2 d j x 2 ; * ; ; v v n I _ d a < < z l > a a ; v c * < 2 l > , , 4 @ u ; ; 3 % x ( K } ! p ; 3 , 1 * j ",
"l l < * < 2 z c 3 1 F } l z v ; , > 2 : % a * & % u ; ; 1 * g j a ; a l n a < ; / Q E Q u 4 ; 2 x x * * 2 ; & ` E Q l , d % b T ",
"2 , * * > < , , 2 , g _ c l u 2 < > * 1 % ; : * ; a 2 ; 5 c v l l ; < N a > > 2 j K ! S k u * ; h Q z ; * ; > > f Y / > i U o.o.",
"< 2 2 * * % a c F R x g f ) E R ) v > < n * * ; * ; % % > < < 1 ; l & n & < N , d g  .( n ' u l E | > * < 2 ) P z * > x / U R g ",
", N 2 < * < > , < ` I v A | { I > ; ; # N l % & % < 1 * * , 4 1 l x & 2 & v s 2 < u x ( x 1 < ` ) K 2 : v _ } K % > & ( _ _ _ < ",
"l l * 1 s c c N ; u l l I A v % 2 o l < $ x N ; , ; 1 ; < < > 2 ; N 2 a c v s * ; 2 ; P P p l _ c * & & { R I x c c 2 x j p & 2 ",
"a z 2 c < > > N z 2 ; * g a ; 3 @ a & % < 2 * l % 1 2 < , l < < d * a a z % m l & m > & j p x > % 2 > > l j p z ; 5 1 $ > z * l ",
"a > * n x > < < * 2 ; 2 a * = * z z x a 2 ; z > * 2 a z z 2 2 > < 2 w l u ; W =.| L , 2 < ; < , 1 < 4 < a O d 8 ; @ & 2 1 ; 1 1 ",
"l < , s x < < , 1 @ < & x 3 z u 1 2 x s x l ( & 2 z d & > > B < Q v % * & [ u D U p ; z 1 * l M N x ; 2 ) a & = 2 a a a 2 ; 1 > ",
"n v 2 , , > a * < > * % ( v & u % < ; 2 N & H ! , x & i , < N * =.Z n < ( n ` _ l > s * & % < * v P i l ` T * & s ( v % 2 n x , ",
"c c > < l n x 1 N ` l 2 x d ; ( v > < 2 > & h | , > g [ c l * < A ` H n u n  .% q a d l c > ; ; * l h $ T ! ) 2 I v 2 ; c x > , ",
"% z < n x v < , 1 f _ c * $ c d q , n H R o.d M < v X.g % < l *  .p _ x u u a q & P p s 3 1 % ; & ; : z * x K $ I % 3 1 , u < 4 ",
"> < < , < 2 * 2 1 < < N N # ; ; 1 x n > g o.} f > ` ' > < < < > d v c c % < < 2 , 2 $ , 1 ; , * % 2 < _ a ; c j * _ =.C  .* l ; ",
"2 ) < 2 a ; l * % < % $ < * < % # 2 $ 1 < p P c * l l , * , 1 1 > l z < z % 2 < 1 2 1 # ; 2 1 * ; * ) Q E K x l ( -.A & ; % v a ",
"l ( u l x & a * N l < $ # * < c $ @ 2 4 ; l * ; < > * < > 1 < % N 3.0.8.8.8.9.7.5.<.4.0.<.2.4.4.2 < u p A Q ] d K k 2 m 1 d g % ",
"< l > a c x * l 2 c c z z 2 < l n % * 1 1 * ; 2 2 * l < < 1 2 * *                               * 2 ; l s H ) N _ s 2 N x v ; * ",
"* * < , < N 1 * $ & l & * ; s x N , 2 < < * < , ; = ; ; # ; ; ; 2                               n % 3 8 2 % % z 2 * ; & > l ; : ",
"2 < 1 2 * 2 l * * % , a 2 * * < g * 2 > > % * , ; ; $ < z , % * ;             %.h.h.8.          v v 2 1 ; a > * * l l * * 2 ; % ",
"l > * 2 * * < l 2 c x s & < N > < 2 * v d , 1 1 < * > s N 1 * ; 4           d.0 0 r 9 h.        * l % I _ % ; 2 a * * l l ; * ; ",
"& 2 * ; * 2 & 2 ; a x ( v > x x > 2 N s ' j.h.a.g.g.h.j.a.d.j.k.a.        :.h.h.h.h.h.9 e.      2 2 l j ` 2 l % c & ; v d * * % ",
"* 2 , & * 1 , , < K Z ! L > ` f < H I _ a g.g.h.6.y.y.y.q.q.h.a.d.        k.d.d.h.h.h.@.d.      & ) S ( 2 ; m l c < , 2 c 2 @ * ",
"2 2 s , ; ; 2 v ; : c K ! p * q ( P T T ] p.h.a.d.y.u.s.p.a.g.r.5.        f.h.i.w.0.w.t.i.       ._ T =.K % % v c < > @ * * * 2 ",
"x l < * * * > x c a o e * ` > x j -.T p $ * l m 2 5 * < l , 2 u s         %.a.i.h.h.h.X r.      ; % 5 $ l 8 l & < < < < 2 < < 2 ",
"d x > , ; 1 < 2 & a > s n N c i L ( < $ q ; + a < * 2 > ; 3 s A N           u.$.+.@.+.y.        > x * 2 ; * x * < , 2 * 1 1 , x ",
"x x < * 2 l l < : p W T P % c * ; & % ; = 3 2 * x p d ` > & O.F f             y d.d.&.          < > g < & A s z 3 1 ; 2 2 2 < x ",
"x > * < v z > 2 l ( ` l 2 < % 2 ; * x v v * ; $ , N 2 k / < & ..c                               ; & ] 2 < O.u # 2 ; # * * < > v ",
"2 > 2 x c l < 1 % ; l & % 5 1 2 a v x $ < % % ; > 2 a P ` < < , 4 >.1.1.&.,.1.,.<.1.,.,.1.>.<.;.< n H W h p c z > > , 2 2 < $ > ",
"* 2 2 > > & , * > x x n , > 2 , d x ; 4 2 ; c p g 1 ; < , , 1 1 > N < ' B , c > < , 1 , * > x  .R H c ] d m g C { Y j < @ 1 2 N ",
"& 2 N 1 2 * * ; i ; < x x 4 < < 2 % 2 q < j x M g 1 g > 1 g ^ 1 i * l ! g > : 2 1 > < N > < 2 , g O.A i n N V ~ c 1 2 > 1 1 x x ",
"` d n u $ c x % , 3 1 > x , , W ! E A u < 1 % x x 5 , 1 f Q o.< ( P p { 1 2 , s v 1 > ) l 2 n 2 2 a I I d , [ g > 1 ; * , < l 2 ",
"_ n 2 4 c c 2 ; 1 ^ c 1 2 t t t t t t t t 2 1 ; c c 2 5 Q _ 1 2 P Q _ c c ^ o._ 2 2 2 _ c x 2 2 2 2 n c c 2 2 2 2 2 1 1 2 2 2 2 ",
"2 _ 2 2 2 2 ; 2 4 ^ ^ t t t t t t t t t t t t t 2 2 2 , _ c 2 2 2 c ^ c 2 2 2 2 2 2 4 2 c c 2 n n 2 2 2 2 2 2 4 4 c 2 2 2 2 4 2 ",
"2 2 2 2 2 2 ; ; 2 _ t t t t t t t t t t t t t t *.*.*.*.4 4 4 , 2 2 n c 2 1 1 1 1 4 c I 2 2 _ c 2 2 2 2 , 2 1 1 , V V 2 2 5 2 n ",
"^ 2 n c 2 3 3 ; t t t t t t #.#.#.t t t t t t t t *.*.*.*.*.*.*.*.2 2 4 1 1 2 2 1 1 2 c *.*.*.*.*.*.*.*.*.*.5 1 : 2 5 5 2 2 c ^ ",
"2 1 2 n c 2 2 t t t t t t t t #.#.#.t t t t t t t *.t *.*.#.*.*.*.*.*.*.*.2 2 c 4 1 *.*.*.#.#.*.*.t #.#.*.*.*.4 1 4 2 V 2 2 Q Q ",
"2 4 2 2 c c t t t t t #.#.#.#.t t #.#.#.t t t t t t t t #.#.*.#.#.#.*.*.*.*.4 c *.*.*.*.*.*.*.t 7 *.*.*.#.#.*.#.*.1 2 2 2 c Q c ",
"2 c 2 2 2 t t t t t t t t #.#.#.#.#.#.#.#.#.t t t t t t #.#.#.#.*.*.*.*.*.*.*.*.*.*.*.*.*.*.*.t 7 *.#.#.#.#.#.*.*.*.1 c 4 c ) 2 ",
"2 c 2 c c t t t t t t t t #.#.#.#.t t #.#.#.t t t t t t t t #.*.*.#.#.#.#.*.*.*.*.*.*.*.*.*.*.*.t 7 #.#.#.#.#.#.#.#.*.*., n 2 2 ",
"n 2 2 ) t t t t t #.t t t t #.#.t t #.#.#.t t t t t t t t t t #.#.#.#.#.*.*.*.*.*.*.*.*.*.#.*.*.*.t #.#.6 6 6 #.#.t t 7 7 t 2 2 ",
"2 2 2 2 t t t t t t #.#.#.#.#.#.#.#.#.#.#.#.#.#.#.t t t #.#.t #.#.#.#.#.*.#.#.#.*.*.*.*.#.*.*.#.#.#.#.#.#.#.#.#.t t t 7 . . . 1 ",
"^ ^ P t t t t t t #.#.#.#.#.#.#.#.#.#.#.#.#.#.#.#.t t t t #.#.#.#.#.#.#.*.t #.*.*.#.#.#.#.*.*.#.#.#.#.#.#.t t #.t t 7 7 7 . 7 2 ",
"Q _ ) t t t t t #.#.#.#.t t t #.#.#.t t #.#.#.t t t t t t #.#.#.#.#.#.#.#.#.#.#.*.*.#.#.#.#.*.*.#.#.#.#.#.#.t t t 7 7 7 7 6 7 5 ",
"c _ t t t t t t t t t t t #.#.#.#.t t #.#.#.#.t #.t t t #.#.#.#.#.#.#.#.#.#.#.#.*.#.#.#.#.#.#.#.#.#.#.#.#.#.t t t 7 7 7 7 6 7 2 ",
"1 c t t t t t t t t t t #.#.#.#.#.#.#.#.#.#.#.#.#.t t #.#.t #.#.#.#.#.#.#.#.#.#.#.#.#.#.#.#.#.#.#.#.#.#.t #.#.t t 7 7 7 7 6 7 1 ",
"2 t t t 7 7 t t t t t #.#.#.#.#.#.#.#.#.#.#.#.#.t t t t t t #.#.#.#.#.#.#.#.#.#.#.#.#.#.#.#.#.#.#.#.#.#.t t t t 7 7 7 6 6 6 7 2 ",
"2 7 t 7 7 t t t t t #.#.#.t #.#.#.#.t #.#.#.#.#.#.#.t t #.#.#.#.#.#.#.#.#.#.#.#.#.#.#.#.#.#.#.#.t t #.t t t 7 7 7 7 7 7 7 7 c 4 ",
"z 7 7 7 t t t t t t #.#.t #.#.#.#.t t #.#.#.t t #.t t t t t #.#.#.#.#.#.#.#.#.#.#.#.#.#.#.t #.#.#.t t 7 7 7 7 7 7 7 7 7 7 2 c 2 ",
"2 7 7 7 t 7 7 t t t t t t #.#.#.t t #.#.#.#.#.t t t t t t #.#.#.#.#.#.#.#.#.#.#.#.#.#.#.#.t #.t t 7 7 7 7 1 2 c c 2 1 1 2 2 2 1 ",
"2 2 7 7 7 7 7 t t t t t t #.#.#.#.#.#.#.#.#.#.#.#.t t t t #.#.#.#.#.#.#.#.#.#.#.#.#.t #.#.#.t t 7 7 2 1 1 2 c n c 2 2 3 2 2 2 1 ",
"2 2 c 7 7 7 7 t 7 7 t t #.#.#.#.#.#.#.#.#.#.#.#.t t t #.#.#.t #.#.#.#.#.#.#.#.#.t #.#.t #.t t t 7 4 2 2 2 2 c 2 2 2 2 1 2 5 3 1 ",
"4 2 2 2 7 7 t 7 7 t t #.#.#.t #.t t #.t t #.#.t t 7 t #.t t t #.#.#.#.#.#.t #.#.t t #.t t t t 2 2 2 2 ) I 2 2 2 2 2 2 2 2 4 1 2 ",
"2 2 1 4 1 7 7 7 7 t #.#.#.t t t t #.#.t t #.t t 7 7 t t t t #.#.#.t #.#.#.t t #.#.t t t t 2 c n 2 2 c n ) 2 2 2 c 5 2 c c 1 1 1 "
};
