/* XPM */
static char *result[] = {
/* columns rows colors chars-per-pixel */
"64 64 141 2 ",
"   c #000000",
".  c #090A14",
"X  c #131419",
"o  c #0E2406",
"O  c #0E2801",
"+  c #0C2208",
"@  c #132A05",
"#  c #142A0A",
"$  c #173103",
"%  c #1A3503",
"&  c #1F3804",
"*  c #1B320C",
"=  c #122815",
"-  c #152C1E",
";  c #1B3413",
":  c #1E331C",
">  c #233C05",
",  c #23330B",
"<  c #213A0C",
"1  c #203614",
"2  c #253B15",
"3  c #21371C",
"4  c #25391C",
"5  c #293F1C",
"6  c #241527",
"7  c #341C27",
"8  c #182D23",
"9  c #1F3325",
"0  c gray13",
"q  c #2B2B28",
"w  c #223624",
"e  c #273A24",
"r  c #25392C",
"t  c #323232",
"y  c #4D2B32",
"u  c #40393E",
"i  c #254004",
"p  c #2C4507",
"a  c #2C4A05",
"s  c #27400C",
"d  c #2C450D",
"f  c #2E4A0C",
"g  c #334F04",
"h  c #354D0D",
"j  c #375303",
"k  c #36520D",
"l  c #3D5A0D",
"z  c #294114",
"x  c #2E441C",
"c  c #334B16",
"v  c #344C1D",
"b  c #345014",
"n  c #3E5413",
"m  c #37511C",
"M  c #2A4025",
"N  c #314427",
"B  c #344C25",
"V  c #3A5225",
"C  c #415E15",
"Z  c #415D1F",
"A  c #456A07",
"S  c #4A6B06",
"D  c #46640D",
"F  c #4B6A0D",
"G  c #577804",
"H  c #56760C",
"J  c #557A0D",
"K  c #5C7D0A",
"L  c #446315",
"P  c #486515",
"I  c #4B6915",
"U  c #44621F",
"Y  c #48651F",
"T  c #4C6A1F",
"R  c #516D17",
"E  c #506C1F",
"W  c #537417",
"Q  c #5A7715",
"!  c #5C7B15",
"~  c #55731F",
"^  c #5D761F",
"/  c #5C7B1F",
"(  c #617C17",
")  c #617D1C",
"_  c #455F29",
"`  c #446227",
"'  c #4B6426",
"]  c #476921",
"[  c #4C6927",
"{  c #4B642E",
"}  c #516B27",
"|  c #526C2E",
" . c #557225",
".. c #5B7627",
"X. c #5D7B27",
"o. c #4D6930",
"O. c #536B37",
"+. c #5C7630",
"@. c #627D27",
"#. c #617C32",
"$. c #505051",
"%. c #5D5C5D",
"&. c #7A4841",
"*. c #5F5865",
"=. c #6B6C6C",
"-. c #70706B",
";. c #AD7757",
":. c #648320",
">. c #658228",
",. c #7F877A",
"<. c #787D80",
"1. c #7C8484",
"2. c #828686",
"3. c #878B83",
"4. c #878B8A",
"5. c #8E9988",
"6. c #92958C",
"7. c #959B8E",
"8. c #9A9D8A",
"9. c #8E8F90",
"0. c #8F9495",
"q. c #959693",
"w. c #969A93",
"e. c #9B959B",
"r. c #9F9F9E",
"t. c #A0A19C",
"y. c #A7AAA7",
"u. c #AFA8AF",
"i. c #B0AEB6",
"p. c #ADB1B2",
"a. c #B5B7B6",
"s. c #BCBCBB",
"d. c #B8C0AE",
"f. c #BEC3BE",
"g. c #C0C4B5",
"h. c #C2C3BC",
"j. c #BDBFC4",
"k. c #BFC3C5",
"l. c #C3C2C4",
"z. c #C4CAC0",
"x. c #C4C4CC",
/* pixels */
"* 1 1 ; 1 * 1 1 * m L ..I % o.d i f ] [ * < ; b l % 2 $ b z = % * ; & % ; & ; z s ' ` ! S > ' x < [ [ Y > 1 * m v , 2 z x 3 # , ",
"* 2 2 % , * , 1 2 < % U >.v > s x b b m z z * c z 2 4 z # ; ; ; z m ; ; % ; z B z s > Y +.5 d > Y F J ^ Y f i a v 1 * * > 1 ; < ",
"> , v * 2 % , , 1 < < < 2 < * < ; z < < * z * s s 2 ; # * ; x < d B & 2 * * & ; s * 2 2 > 2 2 p M & > < ; - M ; < * * , % 2 , < ",
"b z n < c 2 % < 1 $ 2 2 o 1 5 1 * * < ; d x s * * < ; * % $ d L b c % ; ; z s & , 1 ; > c * > B * % h c m z ; * & ; ; z , 2 < d ",
"{ d s % c v < 2 < % # ; * * * * * & * z & v v % < , z , % [ X./ b z & ; ; B z b ; d 3 >  .z f z 1 V m % * * * % * ; 1 c s , z b ",
"v < > < 2 c < z c V ; * # < * * ; * * z < d c s ; c c * 1 $ $ ] m & 2 ; ; z % m N i 1 F :.s b z 2 x s z z * # s , 1 ; b z < , d ",
", s z c c z z v z * * ; < z * ; ; < 2 * b i c v ; i Z 2 3 * z s < * & : * ; % 4 * m ; L X.] > ; ; z 1 * * * * ; > 2 , z b 2 < s ",
"2 , < < v , > > % * ; z ; z 2 2 * 2 ; * { & > , >  .R > 1 1 < 1 ; z $ ; * ; # * s * z b U h z % * < < < # ; ; * * c < > c < z x ",
"c c , < 1 1 1 4 % : * ; v b * ; ; > ; * F @.< s H T k < * z c f f & 2 ; * , < B / ! ! I b B 2 b H +.X.% $ > ; ; 2 h > 4 , , v c ",
"v d < 2 2 1 * $ ; % ; x j f x & c V v f T ..b s ` c < 1 2 < < c [ m * ; * 2 < < 2 s ' P Y a Y L z * % ; 2 % ; i & v d > 4 c c < ",
"c x v < $ # , 2 ; g x : b % * x & 2 z g b D ^ h v 2 % < 2 , 1 2 ` _ & 2 , z * > s 2 > h ` b z * 1 1 * ; * ; x < < 2 B p < v % , ",
"> , < < < 2 < * x D Z 3 2 ; b x k 3 z b x k ^ c a U } ` c < < , i m z & 2 z s z 1 @ 1 5 ; # ; 2 % $ * & z < z f h , 2 v 1 e z < ",
"< < < < x v c > * E K a 2 f k c 2 1 * 1 ; b k b T Y k < > < x z & s s ; b m * < 4 z > , 1 4 @ > ; 2 : $ c ` I ../ a 1 3 , 1 * k ",
"c 2 < < < z x v 4 ; H ..z z c ; , > ; : % d * ; % < 2 ; 1 * h k z & < z m s < ; _ ^ ! ^ > 4 : 2 c m * * 2 ; i ] ! ^ 2 , a % n W ",
"z , * , , < , , 2 , h T v 2 i 2 < & * 1 % * : * ; s ; 2 5 v b z z & ; V s > < 2 k I ) F C > * < j ^ x ; * ; % > j E ` < p R @.@.",
"< 1 1 * * % s v H ! c h g ' ( ! ` n > s B * * ; * ; % % > < < 2 ; 4 < m & > B , g f o.` b { i z ! / > * 2 2 [ Y x * > c _ R Q h ",
", B 2 < * < > , * [ [ b D X. .T < ; ; # B z % & $ < 1 , * , 2 2 z c & 2 ; b d 2 & i c ` b 1 < T ' I 4 3 b U / I & > < ` T Y Y & ",
"z z * 1 d v v V & i c z Y D b % z o z s $ c B ; , ; 1 ; < < , 2 ; m 2 s b m d * ; 2 ; ` Y a z Y v * & &  .Q T c v v 2 c k a % z ",
"< c 2 v 2 > , v x z ; * h s = 4 O & * % * 2 * z & 1 ; < < 2 < < f * s z x & M s 2 x < > k d c s % 1 > > z k a x ; 5 2 $ , x * z ",
"s < * v h > < < # 2 2 2 s ; = & x v c s s 2 x > * 2 s v z 2 2 < < 2 w z i * ~ :. .Y < z * & * , 1 < 4 < 2 O f 9 ; @ $ 2 1 1 ; 1 ",
"z < , d c < < , 1 @ < , v 3 5 i 1 2 c s c z { & 2 x d & < & V < / v % * & | i G I a * x 1 * z N B b ; 2 ' s & = 2 s s d 2 ; 2 > ",
"b v z * < % < < > < * % ` b & i $ < 2 2 B % L / , v & a > < m * :.S m > ` v [ Y c > d * & % < * c ] p z [ W < % d ` b % d B c > ",
"v v > < z m c 1 B [ z ; c f < ` b > < 2 < & j X., > h | B z * s A [ L v i Z o.% e < f z v > ; 1 * z g $ R / ' 2 Y b 2 ; v c < , ",
"% c > B c n , , 1 j ] v * $ m f 3 , m L Q @.f N > c +.k % , z * o.a [ c & i s w < ] a s 4 ; % ; < < : x * c I % T % 3 1 , i * 4 ",
"< < , , < 2 * 2 1 2 < B B ; ; ; 1 c m , h @...a i [ { > < < * < d b m v % < < 2 , 2 $ , 1 ; , * $ 2 & ' s ; v k ; T :.A o.* z ; ",
"< { s 2 s < z * $ < % $ < * * % * 2 $ ; < a Y v * z z , * , 1 1 i z x , z % 2 1 1 4 1 # ; 2 1 * ; * [ ~ ! I b z ` >.L & ; % b s ",
"z ` i z c * s & B z < $ * # , c % @ z 4 ; z * * & , * < & 2 > % B 5.w.0.0.0.q.9.7.3.6.w.3.6.6.6.z * i a D ^ } f I l < M ; c k % ",
"& z > s v c * 2 2 v v x 5 z < c v $ * ; 2 * ; 5 2 < z < < 2 2 * *                               * z 2 z s L ` B Y d z B b b * * ",
"; * < < < v 2 * $ & 2 < * 2 < c v < 1 > < , < , ; - ; ; * ; ; ; 2                               m % 3 9 1 & $ x 2 * ; > & z 1 : ",
"z < 1 2 * 2 z * * % < s 2 * * < h * z < & % * , ; ; $ < x , $ * ;             =.l.l.0.          b b 2 2 ; s s & < z z * * 1 ; % ",
"z < * 2 * * , z z B c s & < v > < 2 * b c < 1 1 < * , f B 2 * ; 4           h.q q t 0 l.        * z % T Y % 1 3 & * * z < ; ; < ",
"& 1 * ; ; 2 & 2 * s c ` b > c c > 2 B d { h.l.f.k.k.z.h.f.f.l.x.k.        <.l.l.l.l.l.0 t.      2 2 z k ' 2 z & c < ; m f * ; % ",
"* 2 , % * 1 , > < I S / U i [ g < P ] ] < h.k.x.8.p.i.u.e.e.l.f.h.        x.h.h.l.l.l.%.h.      & ' F ` 2 2 e z m < < 2 v 2 @ * ",
"2 z s , 1 ; 1 m 2 : v I / s * e ` Y W W } d.k.f.f.i.a.g.a.f.k.y.7.        j.l.s.r.w.r.u.s.      o.] W :.I % $ b v * , $ * * & 2 ",
"c z > , * * < c v s + r * [ i c k >.W a % * z x 2 5 < > d 1 2 > d         =.k.s.l.k.l.X y.      < & 5 @ z 9 s < < < < < z < , 2 ",
"h c < , ; ; s < & & > f m B b p U ` < $ 3 : + s < * 2 , ; 4 d F v           a.*.$.%.$.i.        & c ; < ; * m * < , 2 * 1 ; , c ",
"c c s * 2 c 2 < : f ~ W ' % v * ; & % * = : 2 ; b a h [ i > #.H g             u h.h.-.          < > h < % D f z 3 , 1 1 2 2 > c ",
"z < < < b z > 2 z ` T z 2 > % 4 ; ; c b b * ; $ , N 2 l ` < * | c                               1 * } 2 < #.< # 1 ; # < ; < < c ",
"z < < c v z < 1 % ; z & % 5 1 1 z b c $ s % % ; > z s Y [ < < , 4 2.2.4.<.3.4.2.3.4.2.2.4.1.3.,.< m L ~ j a v x > > , 2 2 < $ > ",
"* 2 2 , > , , * < c c m , > < < f c ; 4 1 ; v d h ; ; < , * 1 2 > B > ' B , c , < , 2 , % < c | ! L v } h e k A  .} k < @ 1 2 B ",
"& 2 B ; 2 * * ; i ; ; n c 4 < < 2 % 1 w < k c N d ; f > ; c ) 1 p ; z / h > 3 < 1 , < B % s 2 * f >.D a v m Y ! v 1 2 > , 1 c c ",
"[ f m i $ m c % < : < > c , * ~ ( ! D i < 1 $ c c 5 < 2 j / ..> ` U a  .; z * h b 1 > ' z z m ; z s T ] d s { k > 1 ; * , 1 z 2 ",
"Y b % s b b < $ ; X.a ; 1 > ' A ! C V z * ; 2 % a c 2 1 / Y < $ Y ~ Y k f ! / T < & s o.f m % 2 ; < b c b & 2 ; > 2 ; ; < < 2 2 ",
"& { < % ; * ; : & H :.V 3 { j ] I c < % b B 1 1 M % > < I c 1 z < j ..h z $ < : 1 > & & b b $ c d z ; ; z ; & * < v 1 1 < 2 * > ",
"> 2 z 1 & * ; ; s ] A I i 2 f Y & z * i v ; # s L W L 3 < z $ > 4 $ n x < ; * * * ; z | % > } c s < 1 3 < < ; 2 ; f b z , 1 * j ",
"+.s s m z % * ; ; ; b A i < o.] ; * 2 1 % > Y :.Q D T w , Y :.| ( > $ 1 > 1 * 2 * * 2 B { c U & * * < > b s * ; ; > h c < 2 c X.",
"* & * f c > s * ; ; i v B i % i P [ v 1 - * * ; e * p % } ( H C ; 1 2 1 # 8 < g ; & < * c b ; s 3 * s f b * z ; ; ; < c 2 > } @.",
"1 * 2 z x B < 1 % 2 ; ; % 5 : b L :.J L < < < , c c h 1 1 4 , , 1 3 $ * > ; > v x < % > 2 * 2 * * * & B B * * < @ 4 2 < , h @.a ",
"< c 2 2 * > > 3 * * , % < < 2 ; ; * @ * 3 ; 1 v c 2 4 2 2 , > , 2 x , < * ; 2 > v < z ' ; i % ; * < 2 z c 2 e % , * 4 N < c ' > ",
"& V & k j V * < 8 3 3 1 * * * * ; , 2 2 o * 2 > < d % , 2 , 5 > i h c < < c O.* * & Y ..1 : # 2 z B ; * , > V 1 2 , c h > d s * ",
"k 5 4 ] ] 4 5 2 v v v 2 1 4 ; 1 : : 1 1 1 2 2 v 2 m c 4 4 4 2 2 v 2 v m 2 5 c ' v 2 ) v 5 2 1 4 2 v v 2 2 v Y 1 2 m c m 2 2 2 2 ",
"2 2 2 2 2 2 2 m v 2 2 1 2 y y y y y y y y y y v 2 5 v 2 2 2 v 2 2 2 2 2 2 2 2 ) ] v ] v 2 2 2 ; 2 2 c m 2 v ) ` 2 v 4 2 4 : 1 1 ",
"( ^ ] 2 2 2 2 2 2 5 2 y y y y y y y y y y y y y ;.;.;.;.2 m v 2 ) c 2 2 m m 2 2 ] v m 2 [ ] c : 1 5 2 v 2 v ) ) 2 2 2 2 2 2 2 2 ",
"/ ] ] ] 2 ] Y / ) ] y y y y y y y y y y y y y y y ;.;.;.;.;.;.;.;.@.c v 2 ] Y v 2 v v v ;.;.;.;.;.;.;.;.;.;.v / 4 v ] ) ] v v 5 ",
"h Y ] v 5 v v Y y y y y y &.&.&.y y y y y y y y y ;.y ;.;.&.;.;.;.;.;.;.;.4 ) ] c v ;.;.;.&.&.;.;.&.&.&.;.;.;.Y c ] ) Y v 4 2 2 ",
"- v ] 1 1 v Y y y y y y y y &.&.&.y y y y y y y y y y y &.&.;.&.y ;.;.;.;.;.2 2 ;.;.;.;.;.;.;.y 7 ;.&.;.&.&.;.&.;.v v v 2 2 1 1 ",
"< 2 z c v 1 y y y y &.&.&.&.y y &.&.&.y y y y y y y y y &.&.&.&.;.;.;.;.;.;.;.;.;.;.;.;.;.;.;.y 7 ;.&.&.&.&.&.;.;.;.4 2 1 4 1 2 ",
"< ' ) ' 2 y y y y y y y &.&.&.&.&.&.&.&.&.y y y y y y y y y &.;.;.&.&.&.&.;.;.;.;.;.;.;.;.;.;.;.y 7 &.&.&.&.&.&.&.&.;.;.2 2 v 2 ",
"z ] z 5 2 y y y y y y y &.&.&.&.y y &.&.&.y y y y y y y y y y &.&.&.&.&.;.;.;.;.;.;.;.;.;.&.;.;.;.y &.&.6 6 6 &.&.y y 7 7 y m 2 ",
"2 4 2 x y y y y &.y y y y &.&.y y &.&.&.y y y y y y y y &.&.y &.&.&.&.&.;.&.&.&.;.;.;.;.&.;.;.&.&.&.&.&.&.&.&.&.y y y 7 . . . 1 ",
"2 2 x x y y y y y &.&.&.&.&.&.&.&.&.&.&.&.&.&.&.y y y y y &.&.&.&.&.&.&.&.&.&.;.;.&.&.&.&.;.;.&.&.&.&.&.&.y y &.y y 7 7 7 . 7 1 ",
"2 2 m y y y y y &.&.&.&.&.&.&.&.&.&.&.&.&.&.&.&.y y y y y &.&.&.&.&.&.&.&.&.&.&.;.;.&.&.&.&.;.;.&.&.&.&.&.&.y y y 7 7 7 7 6 7 1 ",
"2 2 2 y y y y &.&.&.&.y y y &.&.&.y y &.&.&.y y y y y y &.&.&.&.&.&.&.&.&.&.&.&.;.&.&.&.&.&.&.&.&.&.&.&.&.&.y y y 7 7 7 7 6 7 4 ",
"4 2 y y y y y y y y y y &.&.&.&.y y &.&.&.&.y &.y y y &.&.y &.&.&.&.&.&.&.&.&.&.&.&.&.&.&.&.&.&.&.&.&.&.y &.&.y y 7 7 7 7 6 7 1 "
};
