/* XPM */
static char *result[] = {
/* columns rows colors chars-per-pixel */
"64 64 139 2 ",
"   c #000000",
".  c #090A15",
"X  c #131419",
"o  c #0E2406",
"O  c #0E2801",
"+  c #0C2208",
"@  c #132A05",
"#  c #142A0A",
"$  c #173103",
"%  c #1A3503",
"&  c #1F3804",
"*  c #1B320C",
"=  c #122815",
"-  c #1B3414",
";  c #1E331C",
":  c #233C05",
">  c #23330B",
",  c #213A0C",
"<  c #203614",
"1  c #253B15",
"2  c #21371C",
"3  c #25391C",
"4  c #293F1C",
"5  c #241527",
"6  c #341C27",
"7  c #192D22",
"8  c #1F3325",
"9  c gray13",
"0  c #2B2B28",
"q  c #223624",
"w  c #273A24",
"e  c #25392C",
"r  c #323232",
"t  c #4D2B32",
"y  c #40393E",
"u  c #254004",
"i  c #2C4506",
"p  c #2C4A05",
"a  c #27400C",
"s  c #2C450D",
"d  c #2E4A0C",
"f  c #334F04",
"g  c #354D0D",
"h  c #375303",
"j  c #36520D",
"k  c #3D5A0D",
"l  c #294114",
"z  c #2E441C",
"x  c #334B16",
"c  c #344C1D",
"v  c #345014",
"b  c #3E5413",
"n  c #37511C",
"m  c #2A4025",
"M  c #314427",
"N  c #344C25",
"B  c #3A5225",
"V  c #415E15",
"C  c #415D1F",
"Z  c #456A07",
"A  c #4A6B06",
"S  c #46640D",
"D  c #4B6A0D",
"F  c #567804",
"G  c #56760C",
"H  c #557A0D",
"J  c #5C7D0B",
"K  c #446315",
"L  c #486515",
"P  c #4B6915",
"I  c #44621F",
"U  c #48651F",
"Y  c #4C6A1F",
"T  c #516D17",
"R  c #506C1F",
"E  c #537417",
"W  c #5A7715",
"Q  c #5C7B15",
"!  c #55731F",
"~  c #5D761F",
"^  c #5C7B1F",
"/  c #617C17",
"(  c #617D1C",
")  c #465F29",
"_  c #446227",
"`  c #4B6426",
"'  c #476921",
"]  c #4C6927",
"[  c #4B642E",
"{  c #516B27",
"}  c #526C2E",
"|  c #557225",
" . c #5B7627",
".. c #5D7B27",
"X. c #4D6930",
"o. c #536B37",
"O. c #5C7630",
"+. c #627D27",
"@. c #617C32",
"#. c #505051",
"$. c #5D5C5D",
"%. c #7A4841",
"&. c #5D7440",
"*. c #5F5865",
"=. c #6B6C6C",
"-. c #70706B",
";. c #AD7757",
":. c #648320",
">. c #658228",
",. c #7F877A",
"<. c #787D80",
"1. c #7C8484",
"2. c #828686",
"3. c #878B83",
"4. c #878B8A",
"5. c #8E9988",
"6. c #92958C",
"7. c #959B8E",
"8. c #9A9D8A",
"9. c #8F9495",
"0. c #969A93",
"q. c #9B959A",
"w. c #9F9F9E",
"e. c #A0A19C",
"r. c #A7AAA7",
"t. c #AFA8AF",
"y. c #B0AEB6",
"u. c #ADB1B2",
"i. c #B5B7B6",
"p. c #BCBCBB",
"a. c #B8C0AE",
"s. c #BEC3BE",
"d. c #C0C4B5",
"f. c #C2C3BC",
"g. c #BDBFC4",
"h. c #BFC3C5",
"j. c #C3C2C4",
"k. c #C4CAC0",
"l. c #C4C4CC",
/* pixels */
"* < < - < * < < * n K  .P & X.s u s U ] * & , v j % 1 % v a * % * * , % - % - l a ] _ Q A : { z , ] ] U , < * c v > 1 l z 2 # > ",
"* 1 1 % > > > < 1 , % I >.c : : z v v n l z * x z 1 ; a * = - - a N - - % * l N l u : ` @.1 , : U D H ~ ' s u f c < * * , 1 - , ",
"> * c * 1 % > > - , , , 1 , * , 1 l , , * l * a a 1 - # * - l a l n * - * * , u a * < 1 : 1 1 s m * : : < 7 m - , * * > % 1 > , ",
"b s b , x 1 * < < $ 1 1 o < 4 < - * * * a z a * * a - * * % s K v c % 1 - l , % > < < : x * : N , & d x n a - * % - - l : 1 , s ",
"[ s s % l n , : & * # - * * * * * , , a * c c % , , l > % ] ..^ v l & - - N l v - a 3 u | l x l < B n & * * * % * - < x , > 1 b ",
"c , : , 1 x , l c B - * * * * * - * * l u s x a - x x * < % $ U v , 1 - - a * B M u 1 S :.d d l 1 z , l l * # a , 1 - v l , > s ",
"> a x l x l 1 B l * * - 1 l * - - , - * v u x c - u ) < 2 * l 1 , * , - # - % 1 * n - K  .' u - - l - * * * * - > 1 > l v < , a ",
"1 * , , c : : : % * - 1 & l 1 1 * - 1 * X.& > , : | P & < < , 1 - l # - * - * * a * l v I x 1 & * , : , * - - # * x , : x , l z ",
"x l > , < < < 3 % ; & - N v * a < : - * D .., u H R j , * l x d d & l - * > , N ^ Q Q P x c - v D O...% % : - - 1 g : 3 > > c x ",
"B s , 1 1 < * @ - % - z f d l * x B c d Y  .v a _ x * < 1 * , c ] v * - * 1 , , < s ` L U p Y K l * % 1 - $ - u % n s : 3 x x , ",
"x c c , $ @ > 1 - f l ; x % * z & < l h b K ~ g c 1 % > l > - a ' _ * & > l * u a 1 : g _ v l - l - * - * - l a , 1 N i : c % > ",
": > , , , l , , z S I 8 - , v z j 2 l v l j ~ v p U } _ x , , > u n l - 1 l a l < @ < 4 - * - < & % & * l , l d g > 1 c < w l , ",
"> , * a z c x , * R J p l d d x l - * < - x v v Y U j & : , z l u a a * v c * , 3 l : > < 3 @ u - - q $ x _ P  .^ p < 2 > - * j ",
"l l , , , 1 z c 3 - G  .l z v - > : - ; % d * , % a - - < * g j l * l l n a * - ) ~ Q ~ : 3 ; < x x * * a - u ] Q ~ 1 > i % b E ",
"1 > * * > , > : 1 > g Y N l u 1 , & * - % * ; * - 1 1 - 4 N v l l * , N a , : l j L / D V : * , h ^ z - * = & : h R ` : s T +.+.",
", < < , > % , c G W x g f ` Q Q _ b : a N * * - * - % & u , , < - l , n & : N > d g X._ v ] u l W ..: * 1 1 ] U z * , x _ T W g ",
"> c 1 , * , : > , ] ' v S ..| Y > - - # c l % & $ , < > * > 1 1 a x & l * v s a , a x _ v < , Y ` P 3 ; v U ^ P % : , _ Y ' I , ",
"1 x * < s c c N , : l l Y S v % 1 o l , $ x B - > - < - , > > < - B - a v n s * - - & _ U p l ` c , & & | E Y x n c 1 x j p & 1 ",
"a x 1 c 1 : : N z 1 - * g a - 3 @ , * & * 1 * a & < - , , l , , d * a l z & m 1 , z , : j i x , & 1 : , l j p z - 4 < $ > z * l ",
"a , * c g : , , * 1 < 1 , - = , l c x a a < z , * 1 a N l 1 l : , 1 8 s u - ! :. .' , l - & , * 1 * 3 > l O i 8 - @ % 1 < < < < ",
"l > > s z : , > < @ , & v 3 l u 1 1 x a x l X.& 1 z s & , & B a ^ c & * * { u F P p * z < > a M N v - 1 _ a & = 1 a a u 1 - < : ",
"v n 1 > , > a * , , * % _ v * u % , < 1 N * K ^ > x & p : , N * :.A n & _ n { U z : s * & % , * v U p a { E , : a _ v % u B x : ",
"c c : : l n s 1 c ] l - c d , _ v : , 1 , & h ..> u g } c l * , D ' K N & C X.% q u d l c : - - # l f % E ..` - ] v l - c x , > ",
"$ x , B x v , > 1 f ' c * $ n d q * v K Q +.d M , x O.j % > l * X.p ] x u u a q , _ f a 2 < % - a * ; z * x P $ Y % 2 - > : , 3 ",
", , , > > l * 1 < 1 * B M * - - < x n : g +. .f : ` [ : , , , : s v v N & , , < > 1 % > < - > * $ 1 * ` u - N j - Y :.Z X.* a - ",
", [ a 1 , , l * $ , % $ , * * % * 1 $ < , p U c * l l > * > < < u l z > l % 1 < < 3 < # < < < * - , ] Q W P v a _ >.S * * * n s ",
"l _ u l x , a * c l & % * * , v $ @ 1 3 - l , - * : * , : < , $ N 5.0.9.9.9.0.9.7.3.6.0.3.6.6.6.1 , u p S ..] g P k 1 m - s j & ",
"* l : a c x * l l c c m 4 1 , l c $ * < < * - 4 1 , l , , 1 1 * *                               * 1 < l a K ` N U d 1 n v n & # ",
"* * , , , N < * $ * l * * - u c B > < , : * , * - - - - * - - - 1                               n & ; 8 < & % z l * - & & l < ; ",
"l , < 1 * 1 l * * % > a l * * , g * 1 , & & * > - - $ , z * $ * -             =.j.j.9.          v v 1 - - a u * * l l * - < - & ",
"l : * 1 * * > a l c x s & , c , , 1 * b d , < > > * > s c 1 * - 3           f.0 0 r 9 j.        * a % Y U % - 3 a * * l a - - - ",
"& 1 * - - 1 & 1 * a x _ v : v c : < N s [ k.j.g.h.h.j.k.s.f.j.l.h.        <.j.j.j.j.j.9 e.      1 < x j ] 1 l % c & - v d * * % ",
"* 1 > % * < > > a P A ..I u ] f , K R U , s.h.l.8.u.i.t.q.q.j.f.f.        l.f.f.j.j.j.$.f.      & ] D I l - w l B > > 1 c < $ * ",
"l l a > - - 1 b - ; n P ^ i * q ` ' E E { s.h.a.s.y.i.d.a.s.g.r.7.        g.j.p.w.0.e.t.p.      X.` E :.P $ % v n * , $ * * * 1 ",
"x l , > * * , g c a + e * ] : x j >.E p $ * l z < 4 > , l < 1 : s         =.h.p.j.h.j.X r.      * % 4 @ l 8 a , * , , , a , > 1 ",
"d x , > - - , 1 % a : a v N n i I _ * % 2 ; + a , * 1 > - 2 s S c           i.*.#.$.#.y.        & x - 1 1 # v - , : 1 * < < > x ",
"x x : * 1 l l , ; p | E ' & z * - & $ * = ; l - v i g ] : & @.G f             y f.f.-.          : u g , & S d l 3 < < 1 1 < , x ",
"x , * , v l , 1 a ` ' l 1 , & 3 - - x v v * - $ > N l k ) , , } x                               < * { 1 , @., * < - # * - , , v ",
"l , , x c l , 1 % - l & % 4 1 < a v x % a % & < & l a U ] , , > 3 1.4.4.-.2.4.2.3.4.2.2.4.1.3.,., n K | h f c 3 : : > 1 < : % : ",
", 1 1 > : & > * , x x n > : , , d v - ; - - c s g - - * : * < 1 : N , } B > x > , , 1 > % > v X.W K v { d m g Z | { j , @ < 1 B ",
"% 1 N - 1 * * - u - & v x 3 : , 1 * < q > j x M i - d , - g ( < i - a ..g : 3 , 1 , , c % a 1 * d >.S p n n I :.c - 1 : < 1 x v ",
"] d n : $ N x & a ; < , x > * ! :.Q S u , 1 % x x 4 , 1 f ....: _ U p | - l * d x 1 > ` l l n < l a U Y s , X.d , < - > > > l < ",
"' v % u v v a $ -  .f - < : ] Z W k B l * - - % p x 1 < ^ U , $ U ~ U j d Q ^ Y , & , X.d n % 1 - & v x v * l * : 1 < = , , < 1 ",
": [ , % - # * ; a A :.n 2 [ h U P v , % v c 3 < m % : , P x < l * h  .d l $ , ; < : & : v x $ x s z - - z & % , , x < < , 1 * u ",
"& l l < , * - - a ' Z ' u , p U & l * u c - * a L E L 2 , l $ , 3 % n x > - * * * - l } & & ] v a & ; ; > & - ; - d n l > < * h ",
"&.a a n l % * * - - v Z & 1 X.Y ; , - 1 % & U :.W L U q > U :.{ / u $ 1 : < * < * * 1 c [ x I & * * & u v l & - - & g x , 1 x ..",
"% & * d x : a * - - u c B u % u K ] N - 7 * * - w - i % R / G V - < 1 - # 7 : f - & , * x v < a ; * l d v * l - * - , x 1 : { +.",
"< * 1 1 c N , < % 1 - - % 4 ; v K :.H K & * u > x s g < < 3 > > < 3 $ * : - : N z , % : < * 1 * * , * N N * * a @ 2 < a > g +.p ",
", x 1 < * , : 2 * * : $ , , 1 - < * $ * 3 - < c x 3 3 1 1 > : < 1 z > , , - 1 : c , 1 ` - : $ - & * 1 l x 1 w % , * 3 M > x ` u ",
"& B * j h B > , 7 ; 2 2 * * * * = < 1 < + * 1 : : d % > 4 > 4 : : j x , , x o.* * : U  .< ; * 1 l N - * , : B 1 1 > x g u s a * ",
"x 4 l U ' 1 4 1 c c x 1 < 1 - < < < 3 < < 1 3 n 3 c x 1 1 1 1 1 x 1 c c 1 1 x ' x 4 ( c 3 1 < < 1 c v 4 1 x ` 3 1 c c c 1 4 1 4 ",
"4 1 1 1 1 1 1 x c 1 1 ; 4 1 1 4 3 < < ; - 1 c c 1 4 x 4 1 1 c 1 1 1 1 1 1 4 1  .' t t t t t t t t t t x 1 x ~ ' 1 c 1 1 - < - - ",
"~ ( ' 1 1 1 1 3 1 1 4 < x c c 1 * < - < 1 < c ` < < n 1 1 x c 1 +.n 1 1 ;.;.;.;.t t t t t t t t t t t t t n ~ ( 1 < 1 1 1 1 1 4 ",
"~ ' ' ' 4 ' ' ( +.' ;.;.;.;.;.;.;.;.;.;.1 : U < 1 3 1 1 { x c ;.;.;.;.;.;.;.;.t t t t t t t t t t t t t t t x ..1 c ` ( ' c x 1 ",
"c ' ' c 1 c c U - ;.;.;.%.%.%.;.;.%.;.;.;.;.- < 1 3 1 ;.;.;.;.;.;.;.%.;.;.t ;.t t t t t t t t t %.%.%.t t t t t x ] +.U x 1 4 1 ",
"< c ' - < x ` ;.%.;.%.%.;.%.;.6 6 ;.;.;.;.;.;.;.;.;.;.;.;.;.%.%.%.;.%.%.t t t t t t t t t t t %.%.%.t t t t t t t x c x 4 3 < < ",
"1 3 z x c 1 ;.;.;.%.%.%.%.%.;.6 t ;.;.;.;.;.;.;.;.;.;.;.;.;.;.;.%.%.%.%.t t t t t t t t t %.%.%.t t %.%.%.%.t t t t 1 1 < < < 1 ",
"1 _ ( U ;.;.%.%.%.%.%.%.%.%.6 t ;.;.;.;.;.;.;.;.;.;.;.%.%.%.%.;.;.%.t t t t t t t t t %.%.%.%.%.%.%.%.%.t t t t t t t 1 4 3 x 3 ",
"l Y t 6 6 t t %.%.5 5 5 %.%.t ;.;.;.%.;.;.;.;.;.%.%.;.;.%.%.%.%.%.t t t t t t t t t t %.%.%.t t %.%.%.%.t t t t t t t 4 4 1 x 4 ",
"1 . . . 6 t t t %.%.%.%.%.%.%.%.%.;.;.%.;.;.%.;.;.%.%.;.%.%.%.%.%.t %.%.t t t t t t t t %.%.%.t t %.%.t t t t %.t t t t 3 1 1 < ",
"1 6 . 6 6 6 t t %.t t %.%.%.%.%.%.;.;.%.%.%.;.;.;.%.%.%.%.%.%.%.%.%.%.t t t t t %.%.%.%.%.%.%.%.%.%.%.%.%.%.%.t t t t t 1 1 1 < ",
"1 6 5 6 6 6 6 t t t %.%.%.%.%.%.;.;.%.%.%.%.%.;.%.%.%.%.t ;.%.%.%.%.%.t t t t t %.%.%.%.%.%.%.%.%.%.%.%.%.%.%.%.t t t t t 3 < < ",
"1 6 5 6 6 6 6 t t t %.%.%.%.%.%.%.%.%.%.%.%.%.;.%.%.%.%.%.%.%.%.%.%.%.%.t t t t t t %.%.%.t t %.%.%.t t t %.%.%.%.t t t t 3 < 1 ",
"4 6 5 6 6 6 6 t t %.%.t %.%.%.%.%.%.%.%.%.%.%.%.%.%.%.%.%.%.%.%.%.%.t %.%.t t t %.t %.%.%.%.t t %.%.%.%.t t t t t t t t t t < < "
};
