/* XPM */
static char *result[] = {
/* columns rows colors chars-per-pixel */
"64 64 138 2 ",
"   c #000000",
".  c #090A14",
"X  c #131419",
"o  c #0E2505",
"O  c #0E2801",
"+  c #0C2208",
"@  c #132A05",
"#  c #142A0A",
"$  c #173103",
"%  c #1A3503",
"&  c #1F3804",
"*  c #1B320C",
"=  c #122815",
"-  c #152C1E",
";  c #1B3414",
":  c #1E331C",
">  c #233C05",
",  c #23330B",
"<  c #213A0C",
"1  c #203614",
"2  c #253B15",
"3  c #22361D",
"4  c #25391C",
"5  c #293F1C",
"6  c #241527",
"7  c #341C27",
"8  c #1F3325",
"9  c gray13",
"0  c #2B2B28",
"q  c #223624",
"w  c #273A24",
"e  c #25392C",
"r  c #323232",
"t  c #4D2B32",
"y  c #40393E",
"u  c #254004",
"i  c #2C4506",
"p  c #2C4B05",
"a  c #27400C",
"s  c #2C450D",
"d  c #2E4A0C",
"f  c #334F03",
"g  c #354D0D",
"h  c #375303",
"j  c #36520D",
"k  c #3D5A0D",
"l  c #2A4114",
"z  c #2E441C",
"x  c #324B16",
"c  c #344C1D",
"v  c #345014",
"b  c #3E5413",
"n  c #37511C",
"m  c #2A4025",
"M  c #314427",
"N  c #344C25",
"B  c #3A5225",
"V  c #415E15",
"C  c #415D1F",
"Z  c #456A07",
"A  c #4A6B06",
"S  c #46640D",
"D  c #4B6A0C",
"F  c #577804",
"G  c #56770B",
"H  c #557A0D",
"J  c #5C7C0B",
"K  c #446315",
"L  c #486515",
"P  c #4B6915",
"I  c #44621F",
"U  c #48651F",
"Y  c #4C6A1F",
"T  c #516D17",
"R  c #506C1F",
"E  c #537417",
"W  c #5A7715",
"Q  c #5C7B15",
"!  c #55731F",
"~  c #5D761F",
"^  c #5C7B1F",
"/  c #617C17",
"(  c #617D1C",
")  c #455F29",
"_  c #446227",
"`  c #4B6426",
"'  c #476921",
"]  c #4C6927",
"[  c #4B642E",
"{  c #516B27",
"}  c #526C2E",
"|  c #557225",
" . c #5B7627",
".. c #5D7B27",
"X. c #4D6930",
"o. c #536B37",
"O. c #5C7630",
"+. c #627D27",
"@. c #617C32",
"#. c #505051",
"$. c #5D5C5D",
"%. c #7A4841",
"&. c #5F5865",
"*. c #6B6C6C",
"=. c #70706B",
"-. c #AD7757",
";. c #648321",
":. c #658228",
">. c #7F877A",
",. c #787D80",
"<. c #7C8484",
"1. c #828686",
"2. c #878B83",
"3. c #878B8A",
"4. c #8E9988",
"5. c #92958C",
"6. c #959B8E",
"7. c #9A9D8A",
"8. c #8E8F90",
"9. c #8F9495",
"0. c #969A93",
"q. c #9B959B",
"w. c #9F9F9F",
"e. c #A0A19C",
"r. c #A7AAA7",
"t. c #AFA8AF",
"y. c #B0AEB6",
"u. c #B5B7B6",
"i. c #BCBCBB",
"p. c #B8C0AE",
"a. c #BEC3BE",
"s. c #C0C4B5",
"d. c #C2C3BC",
"f. c #BDBFC4",
"g. c #BFC3C5",
"h. c #C3C2C4",
"j. c #C4CAC0",
"k. c #C4C4CC",
/* pixels */
"* 1 1 ; 1 * 1 1 * n K  .P & X.s > d U ] & ; < v j % 1 % v 2 * % * ; < % ; ; % z u ` _ Q A > ] z < ] ] ' < 1 * n v , 2 2 z 3 # , ",
"* 2 2 % , , , 1 1 a % I ;.c < a z v v n l l * x l l 4 l * * ; ; l c ; ; $ $ 2 N z a > U @.2 a u U D H ~ ' d u p c 1 * * > 1 ; , ",
"> * c * 2 % , , ; < < < 2 < * < ; l > ; * l & s > 2 ; # * - z & l c * 2 % ; < > a * 1 2 , 2 2 i m < > < ; - m ; < * * , % 1 , < ",
"v s b < z 2 % 1 1 $ 2 2 O ; 5 1 ; & ; * s z ; * * < ; * & $ s K v v % ; ; 2 a & , 1 1 > x * > N < $ d v n 2 > ; & ; ; 5 > 2 < g ",
"[ s s % z c < < & * # ; * * * * * < & l & c c % < , l , % ] ..^ v l u ; ; N l v 1 a 4 > | l d l 1 N n & * * # % * ; 1 x < , 2 v ",
"N < > > 2 x > z x B ; * # < * * ; * * l < d x a ; x x * 1 % % U v ; < ; ; l % n N u 1 S ;.s v l 2 z < l l * # l < 1 ; v z > , s ",
", > z z x l 2 n l * * ; ; l * ; ; < 2 * v & x c ; a C 2 3 * l 2 a % ; ; * ; $ 2 * n ; K | ' > ; 1 l ; * $ * * ; > 2 , l v 2 < a ",
"2 , > < c > > > % # ; l & l 2 2 * 1 ; * [ > > , > | T & ; 1 < 2 ; l # ; # ; * * > * l v _ j 2 & * < > < * ; ; # * z < > x < l z ",
"x l , < 1 1 1 4 % 8 ; ; n v * u ; > * * D ..< a G ] j < * l x d d & 2 ; * , & N ^ Q Q P x N 2 v D O...% $ > ; ; 2 g > 4 , , N x ",
"N s > 2 2 1 * $ ; & ; z p d z * l ) n s ]  .v a _ x < 2 1 & < x ] n * ; * 2 * < 2 s ` L ' p U K x * % 1 ; % ; u % n s > 4 x x > ",
"x c N < $ @ , 2 ; f z : x % * z & 1 2 f v S ~ g c 2 % < l , 1 2 U _ & * , l * < a 2 > g _ v l * 1 ; * ; * ; l > > 2 N i < c % , ",
"> , < < < l < * l S I : ; & v z j 4 l v z j ~ v p U } _ x * & , u n l ; < z l l 1 @ 1 5 ; $ ; 1 % % % < l < z d g , 2 c 2 w 2 < ",
"< > , a z c x < * R J p l d j x 2 1 * 1 2 v j v Y ' j ; < < x z u u a ; v x * < 4 l > < 1 4 @ u ; 1 4 $ x _ P | ^ p 1 3 , 1 * j ",
"z 2 < * < l z c 3 1 G  .m l x ; , > ; 3 $ a ; ; % & ; 2 ; * d j l * l l n a > ; ) ~ Q ~ > 4 : 1 x x * * 2 ; u ] Q ~ 2 , p % b E ",
"l , * , , < , , 2 , g U c l u 2 < > * 1 % * : % ; a 2 ; z c v z l < ; N a < < 2 j P / D V > * < h ^ z ; * ; & & h R _ < i T +.+.",
"< 1 1 * * $ a c F Q v g p ` / Q _ v > < n * * ; * ; % % u 1 & 1 ; 2 > n & > c , d d X._ j [ > z W ..> * < 2 ] U z * > x ) T W g ",
", N 2 < * < > , > ] Y v S  .! Y < ; ; # N l % & % , 1 * , , 2 1 l d & 2 & v d < a a x _ v 1 < Y ` P 4 3 v I ^ P & > & _ ' ' U > ",
"l l * 1 s c N n ; & x l Y S v % 2 o l < % x N ; , ; 1 ; < , , 1 ; c 2 a x n s ; ; 2 ; ' U i l U c * & & | W Y d c N 2 x g p & 2 ",
"a x 1 c 2 > > N z l ; * g < ; 2 O > * % < 2 * l % 1 ; < < l < < d * a l z % m 2 % z * u j d z i & l > > l j p z ; 5 2 $ , c * l ",
"a > * N x > < > * 2 1 1 a ; = ; 5 c x a 2 1 z > * 2 a c z 1 l > < 2 w l u ; ! ;. .I , 2 * & < , ; * 4 , 2 O d 8 ; @ $ l ; 1 1 ; ",
"z < , s z > < , 1 @ < & x 4 z u 1 2 x s d l [ & 2 z d & < & B a  .n % * & ] u F Y f * z 1 < 2 m N v ; l ] a & = 2 a a a 1 ; 2 > ",
"v v 2 * > % a , < a * % _ v * u & < ; 2 N & K ^ , x & p > > N * ;.A n > _ N { ' l > s * & % < * v U u l ] E < & d _ v % a N x > ",
"c c > < l n z 2 x ] z ; x d & _ x > * 2 > & f +., > d } N 2 * < Z ] K c u C X.% q a d l N > ; ; * l h $ T ^ ` 1 Y v 2 ; c x > , ",
"$ x < n x v < , ; h U N * $ n d 4 * n K Q +.g m < v O.j & , l * X.p ] x u > < q > ' p a 2 ; % ; ; & : z * x P % Y % 3 1 * a , 4 ",
", < < , , l * 2 1 2 & N N * ; ; 1 x n > g +. .f > ` [ < < < * a d x n c & * < 2 , 2 $ , 1 ; , * % 2 & ` a ; c j ; Y H Z o.% l ; ",
"a [ a 2 < < l * $ < % % < * * % * 2 $ 1 > p U c * l l , * , 1 1 u l z , l % 2 1 1 4 1 # ; 2 1 * ; * ` ^ Q P d l _ :.K & ; ; v s ",
"l _ > l x < a * c l * % * # < x % @ 2 4 ; 2 < ; < > * < & 2 > $ N 4.0.9.9.9.0.8.6.2.5.0.2.5.5.5.2 < u p S  .Y g L k ; m 1 d g & ",
"& l > a N x * l 2 c N z 5 l < z N $ * ; 1 * ; 5 2 * z < < 2 2 * *                               * l ; l i K ` N U d a N n v * * ",
"* * < , a N 1 $ $ & l & * ; a x n , 1 , < * < % = * ; ; $ ; ; ; 2                               n % : 8 ; & % z 2 * ; > , l * 3 ",
"l * ; 2 * 2 l * * % , a 2 * * < g * l > > % * , ; ; % < z , % * ;             *.h.h.9.          v v 2 ; ; a a * * l l * * 1 ; % ",
"l a * 1 * $ < l l N x s & > N < < 2 * v d , 1 1 < * , d N 1 * ; 4           d.0 0 r 9 h.        * l % Y U % 1 4 u * * l < ; ; ; ",
"& 2 * ; ; 2 & 2 * a x _ v < x x > 2 N s X.j.h.g.g.g.h.d.a.a.h.k.a.        ,.h.h.h.h.h.9 e.      1 1 x j ] 2 l % x < ; v d * * & ",
"* 2 , % * 1 , , & P A ^ I > ] h u K R U < a.g.k.7.u.y.y.q.q.h.a.d.        k.d.d.h.h.h.$.d.      & ` D _ 1 1 w z x , < 2 c 1 $ * ",
"l l a , * ; 2 v ; : c P ^ i * q _ U E E { p.g.a.i.y.u.s.u.a.g.r.6.        f.h.i.w.0.e.t.i.      X.' E ;.P % % v c < < % * * * 2 ",
"x l < , * * < c N s + e * ] > x v :.E p % * l z 2 5 * > l , 2 u s         *.a.i.j.f.h.X r.      * % 5 @ l 8 a ; < * a * l < , 2 ",
"d x < , ; 1 < > % a > d n N v i U _ * $ 3 3 + a < * 2 < ; 4 i S N           u.&.#.&.#.y.        > x ; a 2 $ v * < , 2 * ; 1 , x ",
"x x > * 2 l 5 < : p ! E U & c * ; % % * = : 2 ; v i d ] > & @.G f             y d.d.=.          , u d > > S d z 3 1 ; 2 2 2 > x ",
"z > , < j z > 2 l _ Y l 5 < $ 4 ; ; x v v * ; $ , N l k ) < < o.n                               1 * { 2 < @.< * 1 ; # , ; < > x ",
"l > l x c l < 1 % ; l & % 5 1 1 2 v d % u % % ; > l a U ` > > , 4 <.1.3.,.1.3.1.2.3.1.1.3.<.2.>.< n K | h p N 2 > > , 2 2 < $ > ",
"* 2 2 * > & , * < x x n , > < < d x ; q 1 ; c d g 1 = < < * 1 2 > N > ` N , v , < , 2 , & , x X.Q K x { d m j Z | R j < @ 1 2 N ",
"% 2 N ; 2 * * ; u ; < j x 4 < < 2 % 1 q < j x M g 1 g > ; g ( 1 i * l ^ g , 4 < 1 , < c > > 2 * g @.S i c B C / c 1 l > 1 1 x x ",
"] d n u $ N x % , 3 1 > x , , ! ;.Q S a < 2 $ x x 5 < 1 f ~  .< ) U p | ; 2 * g v 1 > ` l 2 n 1 2 a Y R i < } s > 1 ; * , < l 2 ",
"' n 2 2 c n 2 1 2 +.n ; 2 1 ' ' ~ Y x 2 2 2 ; 1 c c 4 2 ( U 2 2 Y  .' x c ( ( U 2 5 2 t t t t t t t t c c 2 2 2 4 4 1 3 2 4 2 2 ",
"2 ' 2 2 2 2 1 ; 2 (  .x 2 ` n ' Y c 1 2 c c 2 1 2 2 2 2 _ c 2 2 2 c ( c 2 2 2 2 t t t t t t t t t t t t t 2 4 1 2 x 2 2 2 2 2 2 ",
"2 5 5 2 2 : ; 1 4 ' Y ' 2 4 x ' 2 5 2 2 c 2 : x ' ' ' 2 2 2 2 2 2 2 c c -.-.-.-.t t t t t t t t t t t t t t = , 2 c c 2 2 5 2 n ",
"( 2 x c 2 2 1 : 2 2 -.-.-.-.-.-.-.-.-.-.1 1 Y ..( ' ' 2 2 U +.-.-.-.-.-.-.-.-.t t t t t t t t %.%.%.t t t t t t , 2 c c 2 2 c ( ",
"2 3 4 x x 4 2 2 1 -.-.-.%.%.%.-.-.%.%.-.-.-.; 2 4 2 2 -.-.-.-.-.-.-.%.-.-.t -.t t t t t t t %.%.%.t t t 7 t t t t 4 2 c 2 2 ~ ~ ",
"2 1 2 2 n n 2 -.%.-.%.%.-.%.-.7 t -.-.-.-.-.-.-.c x -.-.-.-.%.%.%.-.%.%.t t t t t t t t %.%.%.t t %.%.%.-.t t t t t 2 2 2 c ( c ",
"2 n 2 2 2 4 -.-.-.%.%.%.%.%.-.7 t -.-.-.-.-.-.-.-.-.-.-.-.-.-.-.%.%.%.%.t t t t t t %.%.%.%.%.%.%.%.%.t t t t t t t t x 2 c ] 2 ",
"2 n 2 c -.-.%.%.%.%.%.%.%.%.7 t -.-.-.-.-.-.-.-.-.-.-.%.%.%.%.-.-.%.t t t t t t t t %.%.%.t t %.%.%.%.t t t t t t t t x 2 n 2 2 ",
"c 2 t 7 7 t t %.%.6 6 6 %.%.t -.-.-.%.-.-.-.-.-.-.-.-.-.%.%.%.%.%.t t t t t t t t t t %.%.%.t t %.%.t t t t %.t t t t t 2 2 2 2 ",
"2 . . . 7 t t t %.%.%.%.%.%.%.%.%.-.-.%.-.-.-.-.%.%.%.-.%.%.%.%.%.t %.%.t t t %.%.%.%.%.%.%.%.%.%.%.%.%.%.%.t t t t t t 2 ; : 2 ",
"+.7 . 7 7 7 t t %.t t %.%.%.%.%.%.-.-.%.%.%.%.-.-.%.%.%.%.%.%.%.%.%.%.t t t t %.%.%.%.%.%.%.%.%.%.%.%.%.%.%.%.t t t t t t 4 2 2 ",
"~ 7 6 7 7 7 7 t t t %.%.%.%.%.%.-.-.%.%.%.%.-.-.%.%.%.%.%.%.%.%.%.%.%.t t t t t t %.%.%.t t %.%.%.t t t %.%.%.%.t t t t t c x 2 ",
"x 7 6 7 7 7 7 t t t %.%.%.%.%.%.%.%.%.%.%.%.%.-.%.%.%.%.%.%.%.%.%.%.%.%.t t t %.t %.%.%.%.t t %.%.%.%.t t t t t t t t t t t 2 5 ",
"1 7 6 7 7 7 7 t t %.%.t %.t -.%.%.%.%.%.%.%.%.%.%.%.%.%.%.%.%.%.%.%.t %.%.t t %.%.%.%.%.%.%.%.%.%.%.%.%.t t t t t t t t t t 3 ; ",
"2 7 6 7 6 7 7 7 t t t t %.%.%.%.%.%.%.%.%.%.%.%.%.%.%.%.%.%.%.%.%.%.t t t t t t %.%.%.%.%.%.%.%.%.%.%.%.%.t t t t t 7 7 t t t 2 ",
"2 L 7 7 7 7 7 7 7 7 t t t %.t t %.%.%.%.%.%.%.%.%.%.%.%.%.%.%.%.%.%.%.%.t t %.%.%.%.%.%.%.t %.%.%.%.t %.%.%.t t t t t 7 7 t 7 2 ",
"5 Y 5 7 7 7 7 7 7 7 7 7 7 t t %.%.%.t %.%.%.%.%.%.%.%.%.%.%.%.%.%.%.t t t t t %.t t %.%.%.t t %.%.%.%.t %.%.t t t t t t 7 7 7 2 ",
"2 2 2 5 x 5 2 2 , 5 5 7 7 7 7 t t %.t %.%.%.%.%.%.%.%.%.%.%.%.%.%.%.%.t t t t t t %.%.%.%.%.t t %.%.%.t t t t t t 7 7 t 7 7 7 1 ",
"2 2 5 z 2 2 5 2 2 z 5 3 , 1 7 7 t t %.%.%.t %.%.%.%.%.%.%.%.%.%.%.%.%.t t t t %.%.%.%.%.%.%.%.%.%.%.%.t t t t t t 7 7 7 7 7 2 1 ",
"2 2 c 2 2 2 c c 2 2 x 1 1 4 2 7 t t t %.t %.%.t %.%.%.%.%.%.%.%.%.t %.%.%.t t t %.%.%.%.%.%.%.%.%.%.%.%.t t 7 7 t 7 7 7 7 4 ; 1 ",
"2 2 2 2 1 4 2 n 2 2 2 2 1 2 c 2 2 t t t t %.t t %.%.t %.%.%.%.%.%.t t t %.t 7 t t %.%.t t %.t t %.t %.%.%.t t 7 7 t 7 7 2 2 2 4 ",
"2 2 2 2 2 2 2 c 2 2 2 ` 1 2 c c 2 5 n t t t t %.%.t t %.%.%.t %.%.%.t t t t 7 7 t t %.t t %.%.t t t t %.%.%.t 7 7 7 7 c c 1 1 ; "
};
