/* XPM */
static char *result[] = {
/* columns rows colors chars-per-pixel */
"64 64 144 2 ",
"   c #000000",
".  c #131419",
"X  c #0E2406",
"o  c #0E2801",
"O  c #0C2208",
"+  c #132A05",
"@  c #142A0A",
"#  c #173103",
"$  c #1A3503",
"%  c #1F3804",
"&  c #1B320C",
"*  c #122815",
"=  c #152C1E",
"-  c #1B3414",
";  c #1E331C",
":  c #233C05",
">  c #23330B",
",  c #213A0C",
"<  c #203614",
"1  c #243B15",
"2  c #21361D",
"3  c #25391C",
"4  c #293F1C",
"5  c #341C27",
"6  c #192D23",
"7  c #1F3325",
"8  c gray13",
"9  c #2B2B28",
"0  c #223624",
"q  c #273A24",
"w  c #25392C",
"e  c #323232",
"r  c #4D2B32",
"t  c #40393E",
"y  c #254004",
"u  c #2C4506",
"i  c #2D4B05",
"p  c #27400C",
"a  c #2C450D",
"s  c #2E4A0C",
"d  c #334F04",
"f  c #354D0D",
"g  c #375303",
"h  c #36520D",
"j  c #3D5A0D",
"k  c #294114",
"l  c #2E441C",
"z  c #334B16",
"x  c #344C1E",
"c  c #345014",
"v  c #3E5413",
"b  c #37511C",
"n  c #2A4025",
"m  c #2A412C",
"M  c #314427",
"N  c #334B25",
"B  c #3B5225",
"V  c #425E0B",
"C  c #415E15",
"Z  c #415D1F",
"A  c #456A07",
"S  c #4A6B06",
"D  c #46640D",
"F  c #4B6A0D",
"G  c #577804",
"H  c #55760C",
"J  c #557A0D",
"K  c #5C7D0B",
"L  c #446315",
"P  c #486415",
"I  c #4B6915",
"U  c #44621F",
"Y  c #48651F",
"T  c #4C6A1F",
"R  c #516D17",
"E  c #506C1F",
"W  c #537417",
"Q  c #5A7715",
"!  c #5C7B15",
"~  c #55731F",
"^  c #5B761E",
"/  c #5C7B1F",
"(  c #617C17",
")  c #617D1C",
"_  c #455F2A",
"`  c #446227",
"'  c #4B6426",
"]  c #476921",
"[  c #4C6927",
"{  c #4B642E",
"}  c #516B27",
"|  c #526C2E",
" . c #557225",
".. c #5B7627",
"X. c #5D7B27",
"o. c #4A6437",
"O. c #4D6930",
"+. c #536B37",
"@. c #5C7630",
"#. c #627D27",
"$. c #617C32",
"%. c #505151",
"&. c #5D5C5D",
"*. c #7A4841",
"=. c #5D7440",
"-. c #5F5865",
";. c #6B6C6C",
":. c #70706B",
">. c #AD7757",
",. c #648320",
"<. c #658228",
"1. c #7F877A",
"2. c #787D81",
"3. c #7C8484",
"4. c #828686",
"5. c #878B83",
"6. c #878B8A",
"7. c #8F9289",
"8. c #8E9988",
"9. c #92958C",
"0. c #959B8E",
"q. c #9A9D8A",
"w. c #8E8F90",
"e. c #8F9495",
"r. c #959693",
"t. c #969A93",
"y. c #9B959B",
"u. c #9F9F9E",
"i. c #A0A19C",
"p. c #A7ABA7",
"a. c #AFA8AF",
"s. c #B0AEB6",
"d. c #ADB1B2",
"f. c #B5B7B6",
"g. c #BCBCBB",
"h. c #B8C0AE",
"j. c #BEC3BE",
"k. c #C0C4B5",
"l. c #C2C3BC",
"z. c #BDBFC4",
"x. c #BFC3C5",
"c. c #C3C2C4",
"v. c #C4CAC0",
"b. c #C4C4CC",
/* pixels */
"& < < - < > < < & b L ..I % O.a y s ] [ & - % c h $ < $ c k @ $ - & , $ - & & l p ' ` ! S : } l > [ [ Y , < & b z , < 1 l 2 @ > ",
"& 1 1 $ > & > < 1 , $ U <.x : p l c c b k k - z z 1 3 k & & - - k x , - $ & k x k p : T $.1 p : Y F J ^ Y s y d l < > & , 1 - , ",
": & x & 1 $ > > - , , , 1 % & , - k p - % k & p , < - @ $ = l % k x - - & & , : , & 1 1 : < 1 p n % p % - 6 n - , & & , $ 1 > , ",
"v a v , l 1 $ < < # 1 1 X < 4 < - & % & p l p & & , - & & $ a L c c % - - k , $ > 1 - : z & : B , $ s c b 1 % - % - - k : 1 , a ",
"{ k , % k b 1 : - & @ - & & & & & % , k & x x % p , 1 > $ [ X./ c k % - 1 N 4 c 1 p 3 y  .k s k - N b % & & & $ & < < z , > 1 v ",
"x , : , 1 z : k c B - & & & & & - & & k : u c , - z z & < % $ Y c , 1 - - p & b m y < D ,.s s k 1 l , k k & @ k , < - c z , > a ",
"> , z z z k 1 B k & & - - k & - - > 1 & c y z x < y Z 1 2 & k 1 , - , - @ - $ 1 & b - L ..[ y - < k < & & & & - , 1 > k z 1 , , ",
"1 > , , x : : : $ & - k % k k 1 & 1 - & { , : > : } R : - < , 1 - p @ - & - & & p & k c U f p - & , , , & & - @ & z , : z , k l ",
"z z > , < < < 3 $ ; - - b c & p - : - & F X., p H  .h , & k z s s % 1 - & > , x / ! ! I z N 1 c H @.X.$ # y - - 1 f : 3 > > x z ",
"x a , 1 1 < & # - $ - l i s k & z B b a T ..c a ` z & < < % , z [ b & - & 1 , & 1 a ' P Y i Y D k & $ < - $ - y $ b a : 3 z c , ",
"z l x , # + > 1 & d l ; z $ & l % 1 k g c D ^ f x - $ > k , < 1 U ` % - > k & , p 1 : f ` c k & < - & - & - l , , 1 x u , l $ , ",
": > , , , 1 , & l D Z 2 1 , c l h 3 1 c l h ^ z i T | _ z , , > y b k p 1 l p k 1 + < 4 - & - - $ $ $ , k , k u f > 1 x 1 q 1 , ",
", , > p l N z p & T K i 1 s c z , < & < - c c c T Y s p , , z k : p p % c N & , 3 1 : > < 3 + y - 1 ; # z ` I X.X.d - 2 > < & f ",
"z 1 , & , 1 l x 3 < H ..k k c - > , < ; $ p & , $ p - - - & f h k & p k b p , - ` ^ Q ^ y 3 ; 1 z x & & < - y [ ! ^ 1 > d $ v W ",
"k > & , > , > : 1 > f Y x k y 1 , : & - $ & ; & - p 1 - 4 x z z k & - N p , , p h I ( F C : & , g / l - & - : : d E ' : u R #.#.",
", < < & > $ , x H ! z f d ' ( Q ` c : p B & & - & - $ % : > : < - k p b $ : x > f s O.` c { y k ! X.: & 1 , ' Y l & , z _ R Q f ",
"> x 1 , & , : > & [ [ c D X.~ T > - - @ N k $ % # , < & & > 1 1 k z % 1 - c a 1 : p z ` c - & T ` I 3 2 s ] X.I % : % ` ] ] Y , ",
"k k & < a x l B % y z k Y D b $ k X k p $ z N - > - < < , , > 1 - b 1 p s b a & - - 1 U Y i z Y x > % %  .Q T z x x 1 z h i % 1 ",
"p z 1 x > : : B l k - & f , - 3 o % & $ , 1 & k % < - , , 1 , , s & p k x % n p - k & y h s z p % 1 : , k h i l - 4 1 # > l & k ",
"p , & x z : 1 , @ 1 1 1 p - * % k N z p p - l : & 1 p x l < k , , 1 0 k y & ~ ,.X.] : k - & > > - > 3 , 1 o s 7 - + $ 1 - 1 < < ",
"z , > a k , , > < + , , x 3 4 y < 1 z a z k O.$ 1 l u % , % B p / x $ & -  .y G R d & 4 < , 1 M N c - 1 ' p % * 1 p p p 1 - 1 : ",
"z z k & , : p > , p @ $ ` c % y % , - 1 M % L / > z % i : , N & ,.S b : ` x [ Y k : a & % $ , & c Y u k [ W % % a ` c $ p x z : ",
"x l : , z b k 1 x [ k - z s , ` f : , 1 , % g X.> p s | x k & , F [ L x y C O.$ q , s k b % - < & k g $ R X.' 1 T c 1 - x z , > ",
"$ z , x z c , > < d T x & # b s 0 & b L Q #.s M , z @.h % > k & O.i [ z : : p 0 , ` d p 2 - $ - % - - l & z I $ T $ 2 < > : , 3 ",
"> , , > , k & 1 < 1 , N N & - - < z b : f #...d : ' _ , , , % , s s x x : , & 1 > 1 $ > < - > & # 1 , ` p - z h - T J A +.% k - ",
"p { p 1 , , k & # , $ # & & & $ & 1 # < , i Y b & k k > & > < < y k l , k $ 1 < < 3 < @ < < < & - , ' / Q I c k ` <.A - - & c k ",
"k ` : k c & p & N k , # & & , c $ + 1 3 - 1 , - & : , , % 1 , $ N 8.t.e.e.r.r.w.0.5.9.t.5.7.9.9.1 , y i F ^ [ s P j - n - a f : ",
"% k % p x z & p 1 x x l l 1 , k x # & < < & - 3 1 , k , , 1 1 & &                               & 1 - k a L ' N Y s k x x v & & ",
"& & , , , B 1 & # % k & & < p z b > < , , > , : - - - - & & - - 1                               b $ 2 7 1 % $ k k & & % : k - ; ",
"k , - 1 & 1 k & & $ > p 1 & & , f & k , % $ & > * - # , l & $ & -             ;.c.c.w.          c c 1 1 - p p & & k k - & 1 - $ ",
"k , & 1 & @ > k k x z a % , x , , 1 & c s > < < > , > a N 1 & - 3           l.9 9 e 8 c.        & k $ T Y $ - 4 p & & k 1 - & - ",
"% 1 & - - 1 : 1 & p z ` c : b z : 1 N a { v.c.j.c.x.c.v.l.j.c.b.x.        2.c.c.c.c.c.8 i.      1 1 k h ' 1 k $ z , - c s & & % ",
"& 1 > % & < > : % I S / U : [ d p L } ] p j.x.b.q.d.s.a.y.y.c.j.l.        b.l.l.c.c.c.-.l.      % ' F ` - 1 q k x > > 1 x 1 # & ",
"k k p > < - 1 b - ; b I / i & 0 ` Y W W } h.x.j.l.s.f.k.f.j.z.p.0.        z.c.g.u.t.i.a.g.      O.] W ,.I $ $ c x , : + & & & 1 ",
"z k , > & @ , f N p O w & [ y z h <.W i # & p l 1 l & , f < 1 : a         ;.x.g.c.c.c.. p.      % $ 4 # k 7 p - , % p , k , > 1 ",
"s z , > - < , , % p : a b N x i U ` & # 3 ; O k > & 1 > - 2 a D x           f.-.%.&.%.s.        % z - 1 1 & c & , > < - 1 - > z ",
"z z p & 1 k k , ; i ~ W Y $ x & & % $ - * ; 1 & c i s [ y : $.H d             t l.l.:.          , : f , % D s l 3 < - 1 1 1 , z ",
"k , > , z z , 1 k ` T k k > $ 3 & - z c c & - # > N k j _ , , | z                               < & } 1 , $.% & < - + > - & , h ",
"k , p z x k , < $ - k % $ 4 < 1 1 c z $ p $ $ - % l p Y ' , , > 3 4.4.5.3.4.6.4.5.6.4.4.6.3.5.1., b L ~ g d x 4 : : > 1 < 1 $ : ",
"& 1 1 > : % > & , z z b > : , , s c - ; < - x a f - - % : & < 1 : N : ' N > z > , > 1 , # > v O.Q L b } s q f A  .E h , + < < b ",
"$ p N - < & & - y - & c z 4 , , 1 $ < 0 , h z M u - s , - h ) < u - k / f : 3 , < , , b $ p 1 & s $.D i b N ] ( x < 1 : < < z z ",
"[ s b y $ x z $ p 2 < : z > & ~ ,.! D y , < $ z z 4 , 1 g ^ .., ` U i  .- k & f z < , ' k k b - k p ] T u , O.s , < - & > , k 1 ",
"] z $ p c c p # & ..i - < : [ A Q j B k & - < $ i z 1 1 / Y , $ Y ^ Y h f Q ) ] , : , O.s b $ k , , z z x , 1 , : 1 - - , , 1 1 ",
"% O., $ - & & ; % J ,.N 2 { d Y I c , $ v x 2 < n $ : & I z - k % g X.s 1 $ , ; < : % % c z # z a k - - k % $ , 1 z < & , 1 & , ",
", p k < - & - - p ] A I y 1 s Y % k & y x - @ p P W L 2 , k # p 2 # b z > - , @ & - 1 | : % [ z p , < 3 : & - - - f c 1 > < > g ",
"=.p p x s # & & - - c A % , O.Y - & 1 < # % ] ,.Q D T 0 > Y ,.| ) : # < : < & < & & 1 x O.c U % & & & : c s % - - : f c , 1 z / ",
"$ % , a z : p & - - y x B y $ y Y [ x < = & & - q - i $ T Q J v - < 1 < @ 6 p d - % , & k c < p 3 & p s b - k - - & , z 1 , } #.",
"< & 1 k l N , < $ k - - $ 4 ; c D ,.J L , , , > z z s 1 - 4 > > < 3 # & : - : x l , $ : 1 & 1 & & , & b N @ & p + ; < p > f #.i ",
", z 1 1 & , : 2 & & % & , , 1 - - & # & 3 - - N z 1 2 k 1 $ p 1 1 l > , & - < : N , k [ - : # - & % - k z 1 q $ > & ; N & z { % ",
"% B % f g B & , = 2 3 - & & & & - - k - O & k : p a $ & k > 3 % y h z , , z +.& & % ] ..< ; & 1 1 B < & : : N 1 1 > z f y s p & ",
"h > & ] ] - 2 p s c , k $ 1 & < & # - @ - k $ c < f b , & 1 - y n p h z 1 % h I h i  .c % 1 $ - < N z k , u P % , b s c % - 1 3 ",
"< l & k p & y s z k 1 & < < & $ & k & & & & x s & l k y 1 - b & 1 & & : & 3 i ^ U z I p y k & - , , s f , z #.V > z & k & @ & & ",
"( ^ ] % - 2 - % , % % - N N b : p - & 1 k , s [ < - N % 1 a h 1 Q c 1 , _ a $ , L b z l L ` c - : & , f 1 N ^ ( k : % % , k 1 % ",
"/ D L O.& { ] /  .] p $ # & k z k & & b $ % o.% @ > 2 1 Y c x & Q #.p M $ T } k 1 a i x z < k % & 2 < , 3 0 u Q & s [ X.Y c z , ",
"f Y T u k c c D < 4 - - & 1 k z l , % x x p - & p % y p U ' k & } C h k 1 %  .T x c 1 l p $ 3 $ - 1 > , f z z } x O.[ ~ i $ k - ",
"= h L - & c Y - $ , p - & & , , , , & z ` p # 4 Y [ T I p > % < I z 1 & 1 1 - : z s 2 1 > # 2 & < a f } H K Y z s h d z - n & & ",
", > 1 x x > & 3 Y Y f , < - < : - , > : R ' , I ( Q h - k , & 3 $ b , 1 , o 1 p : z 1 & > 1 - > k , , , > z l N - & 4 < & & & - ",
"> R ( F : < , C s z : x & & > ` l # , , 3 < , I ..$ $ ' D z b : 1 ` 1 , - & & & 1 < < & 1 > k > & & > 1 k : - # $ & < - , p l 1 ",
"l Y l 1 4 1 4 1 1 1 1 1 3 < 1 ] ] 1 1 x ' ) ..x 1 1 ] ) ^ ) ] 1 x ] 1 < - 1 - 2 1 1 < < - 3 x 1 1 - ; 1 1 < < 1 x - - k 1 1 x 1 ",
"1 1 1 k l l 1 1 1 l k 3 < r r r r r r r r r r Y 1 1 ] x ] ] 1 3 1 1 4 < 4 z l - < 2 < 1 1 1 x z 1 4 < < < 2 4 z z 1 3 - 1 4 1 - ",
"1 1 l l 1 1 1 1 1 l k r r r r r r r r r r r r r >.>.>.>.] 1 1 < 3 1 3 < 1 x 1 1 1 3 x 1 1 1 1 x 1 1 4 - * < z x x 1 1 < 4 1 3 1 ",
"3 1 z 1 1 3 x x 1 1 r r r r r r r r r r r r r r r >.>.>.>.>.>.>.>.1 1 < 1 x b 1 1 1 x 1 >.>.>.>.>.>.>.>.>.>.x 1 1 1 1 3 1 1 < < ",
"1 1 1 1 < 1 1 b r r r r r *.*.*.r r r r r r r r r >.r >.>.*.>.>.>.>.>.>.>.x 1 b 4 1 >.>.>.*.*.>.>.*.*.*.>.>.>.O 4 1 1 1 1 1 2 1 ",
"1 3 < 1 < 4 1 r r r r r r r *.*.*.r r r r r r r r r r r *.*.>.*.*.*.>.>.>.>.>.>.>.>.>.>.>.>.>.r 5 >.*.>.*.*.>.>.>.1 1 x x 2 - < "
};
