/* XPM */
static char *_5601_446bc4168e158f3d3fe070d270b4d83027e752518fab8ae80f55e28a96b4a82f[] = {
/* columns rows colors chars-per-pixel */
"64 64 56 1 ",
"  c #090A14",
". c #090B14",
"X c #1E3616",
"o c #1F3616",
"O c #1F3716",
"+ c #1F3617",
"@ c #1F3717",
"# c #263A16",
"$ c #273A16",
"% c #263B16",
"& c #273B16",
"* c #263A17",
"= c #263B17",
"- c #273B17",
"; c #241526",
": c #241527",
"> c #251527",
", c #341C26",
"< c #341C27",
"1 c #351C27",
"2 c #341D27",
"3 c #4D2A32",
"4 c #4C2B32",
"5 c #4D2B32",
"6 c #4C2B33",
"7 c #4D2B33",
"8 c #2D4217",
"9 c #2D4317",
"0 c #344C1A",
"q c #344D1A",
"w c #354D1A",
"e c #344C1B",
"r c #354C1B",
"t c #344D1B",
"y c #354D1B",
"u c #5F761E",
"i c #5F771E",
"p c #5E761F",
"a c #5F761F",
"s c #5F771F",
"d c #476820",
"f c #466920",
"g c #476920",
"h c #466821",
"j c #476821",
"k c #466921",
"l c #476921",
"z c #7A4840",
"x c #7B4840",
"c c #7A4841",
"v c #7B4841",
"b c #7A4941",
"n c #AD7756",
"m c #AD7657",
"M c #AC7757",
"N c #AD7757",
/* pixels */
"o%%oo%%%%edal%lt%tjl&=%tt%%%t=oo+%%oO=%%%jlak&lt%lll%=&yt%%%y=oo",
"%&%#Oo%%%&%jat%%ttett%%tt%%&ooo%%y&#Xo%tt%%lat%%ljaal%%tt%oO#oo%",
"%%t%%+Xo+%%%%%%%%%=%%%=%%%oooo%%yto+o#=%%#%%#%%y%%%=#%%#%oo%&%%%",
"tty%t%%%Xo=%oo=%o%%%%t#%%%%oooeltto%%%%%%%#%t%%t&%ttt%%&o+%%%%%t",
"lt%%tt%%=oXooooooo%%%tt%%%%%olaaqtoo#tyt%%%%a#tt%ty%%oooo%%t%%%t",
"t#%%%t%ettoOX%oooo%%%yt%%%t%%o%lt%=oX%#t0%%jptt%%t%%%oo%%##tt%%t",
"%%ttq&tt%OXo&%%oo%%%t%tt%%l%%o%%#%%oooo%%t%ksl%%%%%%Xooo%%%te%%%",
"%%%%t#%%Xo%%%t%%%%oOg%&%&ag&==%%%#oooooo%%%tlt%%#=%%oXoo%t%%t%%t",
"t%%=$&%%o%%%et%%#%%ola%%lat%%%tyt%%oo%%taaaltt%tlsuoooo%%t%%%%qe",
"et=%%%Oo+%%=tt%%ttttlattly#&%%%tlt%%o%%%%qlgltlkt#%oo%%%%tt%%tt#",
"ttt%ooo%#t%%q=%&%%ttqlatt%%=%%%%lt%%%=%%%%%rlt%%%ooo%%%%%%tt%y%#",
"%%%%%%%%%gl%#%ttq=%ttyuttlllt=%%%l%%%t%%%%%%%%ooooO%%=ttt%%t#%%%",
"#=%%ttt%%luq%ttt%&%%%tttklt&%=&t%%%%tt%%%#%%%%o%%%@otllaat%%#%%t",
"t%%%%%tt%%aa%tt%%%ooX#%%=&%%%%ttt%%tt%&%laau%#X%tt%oo%#laa%%%%ta",
"%o%oo%%%%%tltt%#%%%%oXo%%%%%%tyt%o#tt%%&tgall%%ota%%oO&%tll%taaa",
"=%%oo%%taatytlaalt%%e%Xoooo%&==%=%%e%%t%ttlltg%taa%%%%lle%%tllut",
"%t&&%%#%#jltlaaj%ooottooO&ooo-%%%y%%#ty%%=tlt%%lgl%=tjal%%%llll%",
"%t%%%tty%%t%llt%oo%%ott%o%%%%%%%%t*%ytt#%%%ll%tlt%%%aalqtt#teq%%",
"t%%t&%tet%%%t%ooo%%#%%#%o%&%%%%%t%%tt%%%%%%%ttt%%%%%%qte%%%%%%%%",
"%%%tt%%Oo%%&%Oo%%tt#%%e%o%%yt%t%%%%%%%aaak%%%%=%%%%%%&%oooo%%%%&",
"t%%%t%#%oXo%t%%%%%ttt%l%%ey%%-y%ato&%leajt%%%%%tte%%l%oo%%t%%%%%",
"qt#%%%%%%%oolt%%%%%%t%kp%t%#%=t%aat%ltllt%%%%Oootlt%la%%tlq%%tq%",
"ty%&ttt%yltXtt%lw#%%%%ta=&tat%%%jlle%ll&%%qtt%%o%%t%lul=kt%*tt%%",
"ot%ttt%%%tltoott%%tlasqy%tat%%%%lelt#%%%%kt%%%oo%%%%%tgok%%%&%=&",
"%&%%&%%%%%%tqOOo%tt%tsst%ll%%%%%trtt%%%%*%oo=%o%o#%l%%ttOlajl%%%",
"&l##%%%%oXoooo%oo%%=%tlt%%%=%%%==tt%&=%%%%ooooooo%jaalttlal%%%t%",
"8l%qt%&%ttoooo%eoo%%%%%%%&#%%%%%tt=t%%%llt%+oo+%%==tlaltll%%%te%",
"%%%%ty%%%ttt#%%tyooo%&%=%##%%&%+%e&tt%%%tt&=oooy%%%&=lltk%%ttt#o",
"#%%%%t%%oX%%%%%tt%%%%o#&ooooooo+%%%qt&%%%tt%%oott%%%%%%%%%%%%%%o",
"%%%%%=&oo%%%%%%%t%&%%oXo++o%tooo%%%%tt*%%%#%=-%%tt%%%%=%%%%#%%o@",
"%%%%o+ot%ttto%t&%%%yq%%#%%%tt%o%%%%%@t%e%&%%o#t%%%%ll%%%&%%#&%o%",
"%%ooo%%%%%tlt%yt&%ttl%%%t%%qtooo%%ooo%%t&%%lo%et-#qtl%%%t%%qyooo",
"o%%oX$%%%llal$lq&ljl%%&tt%%%t%+oo%#oo%%%%llal%lt%llk%%%tt%=%t%oo",
"%t%&oo%t%$tluy%#ljasl%%et&%#%oo%%t%%oo#tt%%gat%=llaal%%qt%oo=oo%",
"tq%oo+%tt%oo&55555555o%t%=%%%%%%ttoXo=%%ooXo%%%%%%%%=#%%%%%%%#%%",
"tt%o&%%%%&o5555555555455%%%%%%tltt+%ooooot%Xoo%=%%&%##t%%X%%%%=t",
"te*%%%t%%#55557355555555MNmM%%aityooo%&y%tt%NNNNNNNNNNy%&oo&%%%t",
"t%%%tt%&555555ccc55555555NNNNNNNN%oo%%=y%%NNNccNNcccNnN%%%oo%%%y",
"%%%tte%55555553vcc5555555N5NNcNNNNNNN%qtNNnNmNN5<NcNccncN%%%o%%%",
"%%%%%%57555cccc55ccc55555555ccNcccNNNNnNNNNMNNN5<NcccccNNNt%+%%e",
"%=t%=55555555ccccccvcc555555ccccNNNNNNNNNNNNNNNN5<bcccccccMN+%tt",
"ltt%%55555555cccc55ccc55555555cNNccxcNNNNNMNNcNNN5cc:::cc55<<5t%",
"lq%%35555c5555bc55czc5555555555cccczNNccNNNNcnNccccccczc553<   &",
"%k#%555535czccccbcccccccc557cc5cccccNccNNccccNNcccccc55c55<<< <%",
"%%*555555cccccccvcccccvcc5555cccczcccccMNNccccNncccccc555<<<<:<t",
"u%t45555cccc557ccc55ccc555555cccccccccbcNcvcccczcccccc555<<<<:<u",
"&o55355555555cccc45cccc5c555ccccccccccccNccccbcbcccc5cc55<<<<:<u",
"%%5555555555ccccccccccccc55cc5cccccccccccccccccccccv5555<1<:::<t",
"%555<<45555bcccccccccccc557555ccccccccvcccccbccc55c555<<<<<<<2l%",
"%<5<<55555ccc5cccz5ccccccc55cczcccccccccccccccccc55<<<,<<<,<<t%#",
"y<<<555555cc5czcc55ccc55c55555cvccccccccccccc5c55<1<<tl=&ttt%%%%",
"%<<<5<<555555ccc55ccccc555555cccccccccccccccc555,<tt=tal%t%%oooo",
"ua<<<<<555555vccccccccccc5555ccccvccccccccc5cc55<%=t%qaa%%%%=#%%",
"ahl<<<<5<<55cccccbcccccc555ccc5cccvccbccc5cc5555o%%%%=ta%tlaltt%",
"tjle<<5<<55ccc5c55c55cc57<5c555bxccccc5cc57c555+o%%=yttltlilt%%=",
"otjoo,<<<5ccc5555cc55c55<<5555ccc5cccc55cb5555oo&ttlaalttttt#%o+",
"%&9qe<<<<55555555cc55555<<5<55c555ccccc5cc55%=%o%%%%%tetoX%%oOo&",
"%lal%%<<<55555565c55<55<<<<155555cc55c55555o%%%%oo%%%%ooOo%%%%t%",
"9l9=%%<<<<55<55<555<<<<<<<<<<3<555574c5455ooo%t%%+X%#oo%too%%%t%",
"%%%989% ,<5<<55<<<<<<<<l&=<<<<<<<<5555555oo%%#tt%%OoXo=tt%oo%%%X",
"%%89&%%  <<<55<:%%%tlallt%tqj&%O<<<555:;%ot%%%=t%%%oo%ttt&%o=%%O",
"%#t%%%t  ::<,<:%%#=%%%%%Oo#%%%oo:<<55:   %y&&%%=e=%%%%t%#%%o%%oo",
"%#&%O%    ::<<<:%%%fl%%%%%#%#&X&::<<55:  %tto%t%%%%ll%%=%%&%%%o%",
"&%ooo%   . ::<<>%%ttl%%%t%%et+oo#::<1:;::%%lo=tt%%tel%%%t=%ttooo"
};
