/* XPM */
static char *_9485_515eb35454f3fcb05cb58a8e3d8bc6c820077d629b877acf1a850968b492ad43[] = {
/* columns rows colors chars-per-pixel */
"64 64 55 1 ",
"  c #080A14",
". c #090A14",
"X c #1E3616",
"o c #1F3616",
"O c #1E3716",
"+ c #1F3716",
"@ c #1E3617",
"# c #1F3617",
"$ c #1F3717",
"% c #263A16",
"& c #273A16",
"* c #263B16",
"= c #273B16",
"- c #263A17",
"; c #263B17",
": c #273B17",
"> c #241526",
", c #241527",
"< c #251527",
"1 c #341C26",
"2 c #341C27",
"3 c #351C27",
"4 c #341D27",
"5 c #4D2A32",
"6 c #4C2B32",
"7 c #4D2B32",
"8 c #4D2B33",
"9 c #2D4217",
"0 c #2C4317",
"q c #2D4317",
"w c #344C1A",
"e c #344D1A",
"r c #344C1B",
"t c #354C1B",
"y c #344D1B",
"u c #354D1B",
"i c #5F761E",
"p c #5F771E",
"a c #5E761F",
"s c #5F761F",
"d c #5F771F",
"f c #476820",
"g c #476920",
"h c #476821",
"j c #466921",
"k c #476921",
"l c #7A4840",
"z c #7A4940",
"x c #7A4841",
"c c #7B4841",
"v c #7A4941",
"b c #AD7756",
"n c #AD7657",
"m c #AC7757",
"M c #AD7757",
/* pixels */
"o**+#*7777xxxx77lxx775777777xxxxnMMMMMMMMMMMmMM72MxxlxxMMM**u;oo",
"*=*%+7777777xxxxxxxxv777777577xMMxxxxMMMMMMMMMMM72xxxxxxxxMM%o#*",
"**y**7777777xxxx77xxx7777777777xxxxxMMxxbMMMMxMMM7xx,,>xx77225**",
"yyu*7777x7777xx77xxz77777777xx7xxxxxMxxbmxMMxMMxlxxxxxxx7772...u",
"ky**75777xxxxxxxxxxxxxxx77777xxxxxxxxxxMMMxxxMMxlxxxx77x76222.2y",
"y%*77777xxxxxxxxxlxxxxxx77777xxxxvxxxxvxMxxxxxMMxxxxxx7772222,2y",
"**y7777xxvx777cxx77xxx777777xxxxxxxxxxllMxxxxxxxxxxxxx7772222,2*",
"**7777757777xxxx77xxxx7x777xx8xxxxxxxxxxxxxxxxxxxxxx7xx774222,2y",
"y*777777777xxxxxxxxxxxxx777777xxxxlxxxxxxxxxxxxxxxxx7777222,,,2r",
"r777227776xxlxxxvxxvxxx77777xxxxvxxxxxlxxxxxxxxx77x67722222222y%",
"y27227777xxx7xxxx7xxxxxxx77757xxxxxxxxxxxxxxx7xxx772222221222u*%",
"*23277777xx7xxxx77xxx77x77777xxxxxxxxxxxxxxxx77772224;yyy**y****",
"%22272277775xxx77xxxxx7777777xxxxxxxxxxxxxx7xx7722$oykkssy**%**y",
"y*2221276777cxvxxxxxxxxx777xxx7xxxxxxxxxx7xx7777yy*oo*%kas****ys",
"*o*22227277xxxxxxxvxxxx7777x757xxxxlxx7xx77x777oys**o+=*ykk*ysss",
"***o227227xxx7x77x77xx77727777xxx7xxxx77xx7777*yss%*%*kkr**yhkiy",
"%e=**2222xxx7777xx77x757228277x777xxxxx7xx77y**kgk*;yksk***kgkk=",
"*y**=22227777777xx777777222277777xx77x77777kk*yky=**sskeyy*yry**",
"y**y=*2227777777x77627722122272777777x7777**yyy******eyr********",
"***yr*,22277287277724222o**22222227767777k****;***=****oooo****=",
"r***y*,2227227722222222**yu*;=u*,22777,..y*****yyy*:k*oo**y*****",
"ey***,,3222277222***y%ja*y*%%:y*s,4277,...***oo+rky*ks=*yke**ye*",
"yu*=y,2223,,...ku*****ys;=ysy***h,227,,....yy**o**y*kik*ky*-yr**",
"oy*yy,22,,,... y**yksdyy%ysy****k,,27,.....***oo*****ygoj***=**=",
"*=**,22<,,*.....*yy*ydsu*kk*****yu,2,,**....**o*o%*k**yy+kskk***",
"=k%*,2,,,Xoo.....**;*yky*;*;****;,,,,;*** ....ooo*hsskyyksk***y*",
"9k*y,,,,yyooo... .***;***=**%***y,,,,**kjy.....****ykskykk***yr*",
"****,,,,,yyy**.....o*%*;**=**=*o*,,,y***yy=....u****;kkyj**yyy*o",
"%****,,,,o*****....**o%*ooooo+o#*,,,y=***yy**ooyy*********;;**%o",
"****%*=#o**%****y****o@o#oo*yooo****yy-***%*;=**yy****;****%**o$",
"****o#ou;yyyo*y=;**ue**%***yy*o*****$r*y****o%y****kk******%=*o*",
"**ooo*****yky*yy=*yyk***y**eyooo**ooo;*y==*ko*ry:%yyk*;*y=*yuooo",
"#;*oX&***kkdk%ke=khk**;yy***y=#oo*%oo****kksk*ky*kkj=**yy*;*y*oo",
"*y*=oo*y*&yksy*%khssk**ry**%*Xo**y**oo%yy**ksy**kkssj**yr*oo*oo*",
"ey*ooo*rr*oo*k*yrss*oo*y%***%*=*yyoXo;**ooXo********;%**********",
"yy*o=*****oyyyyykk*oooo*******ykyy#=ooo+oy*ooo%;**=***y**X****;e",
"yy-***u**%sdkoyooo#oo*o*yuyk**ssyuooo*=u*yy*%oo***y%*ku**oo=***y",
"y***yy*=*kky=*%***yyy*oo*yyrk**ky*oo**;y**uy*oo;=*k**s****oo***u",
"%**yyy*******=**=yy**ooo**=kk****y%*u*yy;**=oo***eksyry*****X***",
"******oX*ruy*=*=yy****yyyo**Xo***y*ky*y**;**o*yjskykyuyksky*#**r",
"*;y*;o*X***er*;******yryy*y**ys%***sy**%***y****yskreyksy**:#*yy",
"kyy**yyo=***y**ssak****uy***yss=kkrs**&yy**k*yy**ekky*ky***#o*y*",
"ge**yy*o*syo**kksky***ooyu**sj**jskyyssk***kyy***%yye*****Xo***=",
"*j%***oX*ssy*kykky*%yy*o****ky***ysy******;*ey*ry********y**=*;*",
"**;;*o#o*kgh**yk%***yooykkk*;****%yy*oooo*yg**ky*****;+X*yy****y",
"i*yy*ooXo*yky*kk;***o+ksskk**ksis***oo*-oo;rkyk**o**y*;#o*ty**ys",
"=o*yy**%o**yy***kkuoooo*****kssy*o*=o;*y*oo*ry**X+*wy***o;*y**ai",
"*%**ry***==****ykssk****yyy******+oo+**yy*o**%*oo**yy***Xo*%*ydy",
";y***=*;@o*%*;=o#+oooo*ye********y******y*;k**Xo****y****+;y*yk*",
"%y*yyy**#oo*#oooo*%oo#*;*y=******yr**yk%**ks**o=*y****u***yy%y*-",
"u**gk;**yuy*o*oooo*o#=*y*yy*****y*yr**eky*sy*;oo*yy**yk;=yyy****",
"**%****yy**O*%***+ooo*yy;*y***e******;*skyky**%o**yy;ysh*y**oooo",
"isk**%%****#yyy***o***ekooy*%yy*ay**uy**kyy*kfyoo*;y*rss*****%**",
"sjkk*kkask*o+*yy:*oy*=k*=*=*kyy%sdyy*kky;yyyy***o*****ys*ykskyy*",
"yhkr*yyko**oo;*ey*oyy%oo;;**kk**kky***dkyy*y***#o***uuykykpky***",
"oykooykXo;**oo*****yk=%*jksk;***ky******ry=**+oo=yyksskyyyyy**o#",
"*=qer:ookky*%o******kk*kssy*****;y**oo***y***;*o*****yryoX*;o+o=",
"*jsk***kyr*uoo*k*;*-*%*ks*okjyy**k**ooo***=o****oo****oooo***;y*",
"qkq;********;o;kk*%yksiy**gsssk*yk*oo*oo%*X#X*y**#o**oo*yoo***y*",
"=**qqq*;*qq*o+*kk*ysskkk*;kykk%#=**+*y*oooo*=*yy**+ooo;yy;oo***X",
"**9q=****q0ooo*k***ykskky*yeh=*+**%o*y*%*oy***;y=**oo*yyy=*o***+",
"*%y***yr*=y#o***********oo%***oo***o*yy***u****;r;****y*%**o**oo",
"*%=*+**y****o%r**%*jj*****%*%*o=***ooy*y**yyo*y****kk**;**=***o*",
"=*ooo**e***ko%rr**yyk***y**yy#oo%*o+o**y***kX*yy**yyk***y;*yeoXo"
};
