/* XPM */
static char *_935_8f46d42cee749db837fe169c618092f1886c56e36ee4bc4aa41c87f0507ad358[] = {
/* columns rows colors chars-per-pixel */
"64 64 55 1 ",
"  c #080A14",
". c #090A14",
"X c #080A15",
"o c #090A15",
"O c #1E3616",
"+ c #1F3616",
"@ c #1E3716",
"# c #1F3716",
"$ c #1E3617",
"% c #1F3617",
"& c #1E3717",
"* c #1F3717",
"= c #263A16",
"- c #273A16",
"; c #263B16",
": c #273B16",
"> c #263A17",
", c #263B17",
"< c #273B17",
"1 c #241527",
"2 c #251527",
"3 c #341C26",
"4 c #341C27",
"5 c #351C27",
"6 c #341D27",
"7 c #4D2A32",
"8 c #4C2B32",
"9 c #4D2B32",
"0 c #4D2B33",
"q c #2D4217",
"w c #2C4317",
"e c #2D4317",
"r c #344C1A",
"t c #344D1A",
"y c #354D1A",
"u c #344C1B",
"i c #354C1B",
"p c #344D1B",
"a c #354D1B",
"s c #5F761E",
"d c #5F771E",
"f c #5E761F",
"g c #5F761F",
"h c #5E771F",
"j c #5F771F",
"k c #476820",
"l c #476920",
"z c #466821",
"x c #476821",
"c c #466921",
"v c #476921",
"b c #7A4840",
"n c #7A4841",
"m c #7B4841",
"M c #7A4941",
/* pixels */
"+;999999999nnnnnnnnnmnnn999999nnnbnnnnnnmnmnnnnnnnnn99994441115+",
";989449999nnnnnnnnnnnnn99999nnnnnMnnnnnnnnnnnnnn99n99944444444+=",
",49449999nnn9nnnn9nnnnnnn99999nnnnbbnnnnbnnnnnnnn994444444444;;;",
"t44499999nn9nnnn99nnn99n99999nnnnnnnnnnnnnnnn9n994644;;:++;;;;;a",
"v34594499999nnn99nnnnn9999999nnnnnnnnnnnnnn9n99944p;;++++;;p;;;p",
"p=4446699999nnnnMnnnmnnn999nnn9nnnnnnnnnn9nn99994p;;;++;;==pp;;p",
";,p44469449nnnnnmnnnnnn9999n999nnnnnnn9nn99n999;;;;;+%++;;;pp;;;",
";;;;449449nnn9n99n99nn97949999nnn9nnnb99nn9999;;=,;=++++;p;;p;;p",
"p;:>-4444nnn9999nn99n999444499n999nnnnm9nn99pp;pvjs++++;;p;;;;uu",
"pp,;;44440999999nn999999444449999nn99n99999vvpvcp;;++;:;;pp;;pp=",
"ppp;++4449997999n99949944444444498999m9999;ivp;;;+++;;,;;;pp;a;=",
";;;;;;;4449949949996444ppvv4433444999999..;;;;++++#;;,ppp;;p;:;;",
"=,;;up1444944094444444ppcvp:;;;p4649991....;,,+;;;*+pvvggp;;-;;p",
"p;;;;144444499454;++O;;;;;;;;;pp144911......;:O;pp;++;=vgg;;;;pg",
";+;+114444411..=;;;;+$+;;;;:;pap14991;;......;;+pg;,+#:;pvv;pggg",
";;;+144112p... gvp;;p;+++++;;,,;14991;t......v;pgg;;;;lvu;;plvsp",
";p:11511=xv....z;+++pp++#:+++:;;1191=pp;......;vlv;,pvgv;;;vvvv;",
"=p;1111a;,p....;++:;+pp;+;=;;;;11111ppp>;......vp;;;ggvtpp;pup;;",
"p;;1111pp;;;....+;;;;;=;+;;;;;,1111pp;;;;;...o.;=;;;;tpu;;;;;;;;",
";;;111;++;;;.o...pp;;,p;#;;ap;p111;;;;gggv;;X...;;;;;;;#+++;;;;:",
"p;;;p;=;+++;p....;ppp;v;;aa;;:a111+;;vpgxp;,... pp;;x;++;;p;;;;;",
"tp;;;,;;;;%+vp;;;;;;p;cf;a;;;>p;ggp:vpvvp;;;;#++pvp;vg;,pvt;;pt;",
"pa;:ppp=pvp+pp;ca;;;;;pg,:pgp;;;xcvu:vl:;;tpp;;+;;p;vsv,vp;,ap;;",
"+p;ppp;;;pvp++pp;;pvgjpp;pgp;;;;vpvp=;;;;vp;;;++;;;;;pl+c;;;:;;:",
";:;;<;;:,;;pt#++;pp;pjgp;vv=:;;;pppp;;;;=:++;;+;+=;v;;pp#vgvl;;;",
":v=;;;;;+O++++;++;;,;pvp;,:,;;;;,pp;:>;;;;+++++++;xfgvppvgv;;;p;",
"qv;pp;;;pp++++;p++;,;;;;;:>;;;;;pp,p;;;vcp;O+++;;;;pvgvpvv;;;uu;",
";;;;pa;;;ppp;;;pp#++;;;<;;;;=:;+;p:pp;;=pp:,+++a;;;;,vvpc;;ppp;+",
"=;;;;p,;++;;;;;pp;;;;+>;+++++%+%;;;tp:;;;pa;;++pp;;;;;:;;;;;;;;+",
";;;;,;:++;;;;;;;p;;;;+O+%++;p#++;;,;pp,;;:=;,:;;pp:;;;,;;;;=;;+*",
";;;;+%+p;ppp+;p:;;;at:;=;;;pp;+;;;;;*p;p;;,;+=p;;;;vv;;;,;;=:;+;",
";;+++;;;;;pva;pp:;ppv;;;p;;tp+++;;+++;;p:;;v+;up<=ppv;;;p::pa+++",
"+;;+O-;;;vlgv=vr<vxv;;,pp;;;p;+#%;=++;;;;vvgv;vp;vvc;;;pp;,;p;++",
";p;:++;p;-pvgp;=vxggx;;up;;=;++;;p;;++=pp;;vgu;;vxggv;;pp;++;++;",
"pa;+++;pp;++;v;pugg;++;p;;;;;;;;pp+O+>;;++O+;;;;;;;;,=;,;;;;;;;;",
"pp;+:;;;:;+pppppvv;++++;;;;;;;pvpp%;+++++p;O++;,;;:;;;p;;O;;;;,p",
"pu>;;;p;;=gjv+p++++++;+;papv;;ggpa+++;:p;pp;=++;;;p;;va;:++::;;p",
"p;;;pp;:;vvp;;;;;;app;++;ppuv;;vp:++;;,p;,ap;++;:;v;;g;;;;++;;;a",
";;;ppp;;;;;;;:;;:pp;;++#;;;vv;;;;p;;p;pp;;;:++;;;tvgpup;;;;;+;;;",
";;;;;,+O;pap;:;:pp;;;;ppu+;;O%;;=p;vp;p,;,;;+;tcgvpvpppvgvp;%;;u",
";,p;,+;O;;;pu;,;;;;;;pupp;p;;pg;,;;gt;;;;;;p;=;;pglrtpvgp;;<%;pp",
"vpp;;pp+:;;;p;=ggfv;;;=pt;;;pgg:vvpg;;;pp:;v;pp;;tvvp;vp;;;$+;p;",
"vt;;pp;+,gp+;;vvgvp;;=++pp;;gc;;cgvppggv;;;vup<;;;ppt;;;;;OO;;;:",
";c=;;;+O;ggp;vpvvp;=pp;+;;;,vp;;;pgp;;;;;;,;tp;pp;;;;,;;;p;;:;,;",
";;,;;+%+;vlv;;pv;;=;u++pvvv;,;;;;=pp;++++;pl;;vp;;,;;,#+;pp;,;;p",
"s;pp;++O+;pvp;vv,;;;+#vggvv;;vgsg;;;+%;>O+;uvpx;;+;;p;,%+;ap;;pg",
":+;up;;;+;;pp;;;vva#+++;;;;;vjgp;+::+;;p;++;up;,++;rp;;;+,:p;;gs",
";;;;pp;,;::;;;;pvggv;;;;ppp;;;;;;#++#;;pp;+;;=;#+;;pp;;;O+;;;pjp",
";p;;;-;,&+;=;;;+*#++++;py;;;;;;;;p;;;;;;p;,v;;++;;;;p;,;:+;p;pv;",
";p;ppp;;+++;+++++;=++%;,;p:;;;;;;pu;;pv;;;vg;;+:;p;;;:a;;;pp=p;>",
"a;;lv,;;ppp;+;++++;++;;p;pp;;;;;p;pu;;tvp;gp;,++;pp;;pv,:ppp;;;;",
";;;;;;;pp;;@;;;;;++++;pp,;p;;;p;;;;;;>;gvpvp,;;+;;pt,pgk;p;;++++",
"sgv;;;=;;;;%ppp;;;+;;;tv+#p;;pp;gp;;ap;,vpp;vvp++;,p=ufg;;;;;=;;",
"gcvv=vvfgv;++;pp<;+p;;x;;;:;vpp=gjpp;vvp,pppp;;;+;;;=;pg;pxgvpp,",
"pvvu;ppv+;=++,;pp;+pt=++,<;;vv;;vvp;;;hvpp;p;;;%+;;;pppvpcdvp;;;",
"+tv++pvO+;;;++;;;;;pv:=,vvjv,;;;vp;;;;;;up;;;#++:ppvggxppppp;;+%",
";:etu,++vvp;-+;;;;;;vv;vggp;;;;;;p;;++;;;p;;;,;+;;;;;pup+O;;+#+<",
";vgv;;;vpp;a++;v;,;=;=:vg;+vcpp;:v;;+++;;;:+;;;;++;;;;+%++;;;;p;",
"eve,;;;;;,;;,+,vv;=pvggp;;vgggv;pv;++;++=;+++;p;;%+;;++;p+#;;;p;",
";;;eee;;;ee;+#;vv;pggvvv;,vpvv=+<;;#,p;++++;;;pp;;#+++,pp;+%;;;O",
";;qe:;;;;ew+++;v;;;pvgvvp;ptx:;*;;;+;p;;;+p;;;,p;;;++;ppp:;O;=;#",
";=p;;;pu;<p++;;;;=;;;;;;++=;;;++;;;+;pp;;;a;;;;,u,;;=;p;=;;+;;++",
";=:;#;;p;;;;+=u;;;;cv;;;:,=;=;%:;;;++p;p:;pp+;p;;;;vv;;,;;:;;;+;",
":;+++;;t;;;v+=uu;;ppc;;;p;;pp%++=;+#+;;a;;,v+;pp;;piv;;;p,;pp+++"
};
