/* XPM */
static char *_5409_f166d74dea3c03b63e8617d6ab8525c96052ec2815c9f855f4da7d2e0c9d0246[] = {
/* columns rows colors chars-per-pixel */
"64 64 38 1 ",
"  c #090A14",
". c #1E3616",
"X c #1F3616",
"o c #1E3716",
"O c #1F3716",
"+ c #1E3617",
"@ c #1F3617",
"# c #1F3717",
"$ c #263A16",
"% c #273A16",
"& c #263B16",
"* c #273B16",
"= c #263A17",
"- c #263B17",
"; c #273B17",
": c #241527",
"> c #251527",
", c #341C27",
"< c #2D4217",
"1 c #2C4317",
"2 c #2D4317",
"3 c #344C1A",
"4 c #344D1A",
"5 c #354D1A",
"6 c #344C1B",
"7 c #354C1B",
"8 c #344D1B",
"9 c #354D1B",
"0 c #5F761E",
"q c #5F771E",
"w c #5E761F",
"e c #5F761F",
"r c #5F771F",
"t c #466920",
"y c #476920",
"u c #476821",
"i c #466921",
"p c #476921",
/* pixels */
"X&&XX&     e::,,:8up*-&88&&&8&XX@&&:::>:::iei&p8&ppp&-&98&&&9-XX",
"&*&%OX    *ue::::::88*&88&&&XXX&&9*$.::::::ye8&&pueep$&84&XO$XX&",
"&&8&&+    &&&&::::::&&-&&&XOXX&&98X@X& ::::&$&&9&&&-&&&&$XX&**&&",
"889&8&     &XX-:::::&8&&&&&XXX8i88X&-&    $&8&&8*&888&&*XX&&&&$8",
"p8&&88&    .XXXXXX&&&88&&&&&Xpee48XX$89   =&e=48&88&&XX.X&&8&&&8",
"8$&&&8&688XOX&XXXX&&&99&&&8&&X&p4&&XX&$86&&uw88&&9&&&XX&&$=88&&8",
"&&884*88&O.X*&$XX&&&8&88&&p&&X&&$&&XXXX&*8&pep&&&&&&XXXX&&&88&&&",
"&&&&8$$*.@&&&8&&&&XXp-&&&ey*&&&&*$XOXXXX&&&8p8&&$-&&XXXX&8&&8&&8",
"8&&-%&&&X&&&68&&$&&Xpe&&pe8&-&888-&XX&&8eeep68&8pe0XXXX&&8&&&&66",
"68-&&&OX@&&;88&&8888pr88p9$%*$&8p8&&X&&&&8ppp8pi8&&XX&&$&88&&88$",
"888&XXX&&8&&4-&*&$484p088&&-&&&&p8&*&-&&&&&7p8&&&XXX&&&&&&88&9&$",
"&&&&&&&&&pp&$&884-&889088ppp8-&&&p&&&8&&&&&&&&X@XXO&-=886&&8&&&&",
"$-&&888&&u08&888&*-&&888ip8*&&&8&&&&88&&&$&&-&O&&&#X8ppee8&&$&&8",
"8*&&&&88&&er&88&&&XX.&&&-*&&&&888&&88&*&pee0&$.&88&XX&$pee&&&&4w",
"&X&XX&&&&&8p84&$&&-&X.X&&&&&&898*X&88&&&8pepp&&X8e&&XO*&8pp&8eee",
"&$&XX&&8ee898peep8&&8&OXXXX&&--&-&&6&&8&88pp8p&8er&&&&pp3&&8pp08",
"&8*&&&$&$up8peeu&XOX88XXO*XXX*&-&9&&$88&&&8p8&&iyp&-8pep&&&pppp&",
"&8&&&889&&8&pp8&XX&&X68&X&&&&&&&&8=&988$&&&yp&8p8&&&eep488&868&&",
"8&&8*&886&&&8&XXX&$$&&$&X&&&&&&&8&&89&&&$&&-888&&&&&&486&&&&&&&&",
"&&&88&&XX&&&&XX&&88&&&8&X&&99&8*&&&&&&eeep&&&&-&&&&&&&&XXXX&*&&*",
"8&&&8&$&XXX&8&&&&&888&p&&85&&*9&e8X&*p8eu8&&&&&888&&p&X.&&8&&&&&",
"48&&&&&&&&XXp8-&&&&&8&iw&4&&&&8&ee8&p9pp8&&&&XXX8p8&pe&&8p4-&84&",
"88&*888&8p8X88&p9&&&*&8e-*8e8&&&uip6&pp*&&488&&X&&8&p0i&p8&=88&&",
"X8&888&&&8p8XX88&&8per88&8e8-&&-p6p8$&&&$p8-&&OX-&&&&8yXi&&&*&&*",
"&*&&%$&&&&&84O.X&88-8re8&pp&&&&&8888&&&&$&XX&&X&X$&p&*88#pepp&&&",
"*p$&&&-&X.XXXX&XX&$--8p8&&&-&&&&-86&*-&&&&XXXXXXX&uewp88pep&&&8-",
"<p-88&&&89XXXX&8XX&&&&&&&*&&&&&&88-8&&&pi8&XXXX&&&-8pep8pp&&&86&",
"&&&&89&&&889*&&88XXX&*&-&&&$-*&X&8*88&$&88*-XXX9*&&&-py8i&&886*X",
"$&&&&8&&XX&&&&&88&&&&X$&XX.XXXX@&&-49*&&&88&&XX86&&&&&&&&$&&&&&X",
"&&&&&&*XX&&&&&&&8&&&&X..@XX&8XXX&&&&88=&&&$&-*&&48&&&-&&&&&$&&X#",
"&&&&X@X8&888X&8*&&&94&&$&&&88&X&&&&&#8&8&&&&X$8&&&&pp&*&&&&$*&X&",
"&&XXX&&&&&8p8&88*&88p&&&8&&48XXX&&XXX$&8*&&pX&68;=88p&&&8&&89XXX",
"X&&X.%&&&ppep$p4*pup&&-88&&&8&@XX&$XX&&&&ppep&i8&ppi&&&88&-&8&X@",
"&8**XX&8&%8pe4&$pueep&&68&&$&XX&&8&&XX$88&&pe8&&ppwep&&88&XX&XX&",
"88&XXX&88&XX&p&86ee&XX$6&&&&&&&&88X.X-&&XX.@&&&&$&&&-$&&&&&&&&&&",
"88&X*&&&&&X88888pp&X.XO&&&&$&&8p88@=XXXXX8&XXX&-&&*&&&8&&.&&&&-8",
"86=&&&8&&$erpX8X@XXXX*O&998p&&ee89.XO&*9&98&$X@&&&8&&p9&&XX*&&&8",
"8&&&88&**ip8&&&&&&898&X@&886p&&p8&XX&&-9&&98&OX-*&p&&e&&&&XX&&&9",
"&&&898&&&*-&&*&&*48&&XXX&&&pp&&&&8&&8-88&&&*XX&&&4pe868&&&&&X&&$",
"&&&&&&X.&898&&&*88&&&&888X&&.X&&&8&p8&8&&-&-X&8iep8p888pep8&@&&6",
"&-8&=X&.&$&86&-&&&&$&8688&8&&8e&&&&e8&&&&&&8&&&&8ep646pe8&&;@&88",
"p88&&48X*$&&8&&eewp&&&&88&&-8ee*pp8e&*&88&&p&89&&4pp8&p4&&&@X&8&",
"p4&&88&X&e8X&&ppep8&&&XX88&$ei&&tep88eep&&&p88*&&&984&&&&&.o&&&*",
"&t$&&&X.&eq8&p8pp8&$88&X&&&&p8&&&8e8&&&&&&-&48*88&&&&&&&&8&&%&-&",
"&&-&&X@.&pyp&&8p&&&&8XX8ppp&-&&&&$88&XXXX$9y-&p8&$&&&-OX&88&&&&4",
"0&88&XX.X&8p8&pp-&&&XOpeeup&&pe0e&&&X.&=XX*6p4p&&X&&8&-@X&96&&8e",
"*X&84&$&X&&88&&&pi9XXXX&-&&&pee8&X&*X&&8&XX&68&&XO&38&*&O-&8&&r0",
"&&&&88&&&**&&&&8peep&&&-868*&&&&&OXXO&&88&X&&$&XX&-88&&&.@&&&8r8",
"&8&&&*&-+X$$&&&X@OXXXX&84&-&&&&&&4&&&&$&8&-p&&XX&&&&8&&&&X&8&8p&",
"&6&888&&@XX-XXXXX&$XX@&-&8*&&&&&&86&&8p&&&pe&&X*&4&&&&9&*&88$8&$",
"9&*yp-&&888-.&XXXX*XX&&4&88&&&&&8&86&&4p6&e8&-XX&88&&8p-*888&-&&",
"&&&&&&&84&&o&&&&&XOXX&88-&8&&&8&&&&&&-&ei8p8&&&X&&88-8eu&8&&XXOX",
"0ep&*&$&&&&@888&&&X&&&8pXX8&&88&e8&&98&&p88&pp8XX&;8&8ee&&&&&$&&",
"eipp&ppwep&XX&88;&X8&&p&&&*&p88$er88&up8-8888&&&X&&&&&8e&8pep88&",
"8pp6&88pX&&XX-&88&X88$XX;-&&pp&&pp8&&&rp88-8&&&@X&&$988i8yqp8&&&",
"X8iXX8p.O-&&XX&&&&&8p*$&ipei-&&&p8&&&&&&68&&&OXX*48peep88868-&X@",
"&*246-XXpi8&$.&&-&&&pp&pee8$$&&&&8&&XX&&&8&&&-&X&&&*-868X.&&.OX*",
"&pep&&&p88$9XX&p&-&$&$&pe&Xpi88&&i&&OXX&&&*X&&&&XX&&&&XXXX&&&&8&",
"2p2--&&&&&&&-X-pp&$8pee8&&peeep&8p&XX&XX$&XXX&8$&@X&&XX&8XX&&*8-",
"&&&222&&&22&XO&pp&8eeppp&-p9pp$X*&&O&8&OXXX&&&88&&OXXX-88&XX&&&.",
"&&<2*&*&&21XXX&p&&&8pepp8*84u*&O&&&X&8&$&X8&&&-4&&$XX&888*&X&&&O",
"&$8&&&86&*8XX&&&&&&&&&&&XX$&&&XX&&&X&88-&&9&&&&-6-&&&&4&$&&X&&XX",
"&$**O&&8&-&&X$6&&&&ip&&&&&$&$&X*&&&XX8*8&&88X&8&&&&pp&&-&&%&&&X&",
"*&XXX&&4&&&p.$66&&88p&&$8&&88@XX$&oOX&&8&&&iX&88&&86p&&&8-&88XXX"
};
