/* XPM */
static char *biggrass[] = {
/* columns rows colors chars-per-pixel */
"128 128 20 1 ",
"  c #1E3616",
". c #1F3616",
"X c #1E3716",
"o c #1F3617",
"O c #263A16",
"+ c #263B16",
"@ c #273B16",
"# c #263A17",
"$ c #273B17",
"% c #2C4317",
"& c #344C1A",
"* c #344D1A",
"= c #344C1B",
"- c #344D1B",
"; c #5F761E",
": c #5E761F",
"> c #5F771F",
", c #476920",
"< c #476821",
"1 c #466921",
/* pixels */
"..++++++..++++++++==11::11++11==++==<<11++++++=---++++++=*++XX....+++++...++++++++,,,,>:11++,,--++111111++++++====++OOOO==++OOXX",
"..++++++..++OO++++==1<::11++11==++==11<<++++++=---++++++==++#X....++++....++++++++,,,,>>11$+11--++111111++++++====++OOOO==++OOXX",
"++++++++....++++++++++<<::==++++==&&&&==&&++++==--++++++......++++==++##....++==--++++,,>>==++++1111;;>>11OO++====++XXXX++..XXOO",
"++++++++....++++++++++<<::==++++&&&&&&==&&++++==--++++++......++++==+++#....++==--++++,,:>-=++++1111;;:>11+O++====++XXXX++..XXOO",
"++++==++++++XXXX..OOOO+++++#+++++++O++++++++++++++++XXXX....++++==--XX  .X++++++++++++++++++++--$$$$++++##OOOOOO++..XX++++OOOOOO",
"++++==++++++XXXX..OOOO+++++#++++++#O++++++++++++++++XXXX....++++*=--.X  .X++++++++++++++++++++--$$$$++++##OOOOOO++..XX+++++OOOOO",
"======++--++++++....++++    ++++..++++++++==++++++++++XX..XX==<<*---..++++++++++++++++++=*++++*-$$$$--==&&OOOOOO++XX++++++OOOO**",
"======++--++++++....++++#  .++++..++++++++==++++++++++XX...X*=<<----..++++++++++++++++++==++++--$$$$---=&&OOOOOO++XX++++++OOOO&*",
"<<==++++====++++++         #    ..++++++++----$$+++++++++#11::::----....++=-----++++++$$>>++--==$$----++++O.XXX XX++++**++++++==",
"<<==++++====+++++#  #         # ..++++++++----$$++++++++++11::::----....++==----++++++$$>>++-===$$----++++..XXXXXX++++**++++++==",
"==++++++++==++--====   #oo##    ....++++++----$$++++=-+++#  ++<<--++++....++++----++++,,>>----$$$$--++++++..XXOO++++++=*==++++==",
"==++++++++==++--====    oo###   ....++++++----$$++++==+++#  ++1<--++++....++++----++++,,>>----$$$$--+++++O..XXOO++++++====++++==",
"++++======++----++   X  ++++##....++++++--++----++++11++++..++++++++++......X.++++--++,,>>11+++$++++++++..++..XX++++++====++++++",
"++++======++----++#     ++++##....++++++--++----++++11++++..++++++++++......XX++++--++,,>>11++++++++++++..++..XX++++++====++++++",
"++++++++=-++++++    ++++++&=++++++++....,,++$$$$++>:11+++O++++++++++............++$$$$--11==++++++++++++....XXXX++==++++==++++==",
"++++++++--++++++#   ++++++&&++++++++...+,,++$$$$++>>11++OO++++++++++............++$$$$--11==++++++++++++....XXXX++==++++==++++==",
"-=++++++++++++++#+++++++&&==++++++++++XX,,>>$$$$11>>==++++++------++++XX..###+&&::::::11====++==<<::;;      ++++++*-++++++++--==",
"-=++++++++++++++#+++++++=&==++++++++++XX,,>>$$$$11>>==++++++------++++.X.###++&&::::::11====++==1<::;;. O   ++++++--++++++++--==",
"--==++++++++......++++++====++++--------11>>----11==++++++++++--<1--++++++++++++++==111111==1111&&OOOO    OO##++++----++++----++",
"--==++++++++...#..++++++====++++--------11>>----11==++++++++++--<<--++++++++++++++==111111==1111==OOOO    ####++++----++++----++",
"----&=++  XX+++++#&=++++--+++++++++$====--11>>--==++++++++++++++11--++++++++++++++++++==11==++++++     OOOOO++++++++----++==++++",
"----&&++  XX++++##&&++++--+++++++++$====--11:>--==++++++++++++++11--++++++++++++++++++*=11==++++++      OOOO++++++++----++==++++",
"++++++++#+++++++##1111++++++-=====++++==----:;=-==111111--++++++++<1++++++--++++++++++++++++........ OOOOOOO====--++++--++++++++",
"++++++++#+++++++##1111++++++-=====++++==----::====111111--++++++++<<++++++--++++++++++++++++........  +OOOOO====--++++--++++++++",
"++++++++======++++11>>==++------++++++++++======1111--++++++++--++++++++====++++++++$$$$$$$$..++++++XXXX&=<<11:::>-*++++++++++==",
"++++++++======++++11>>==++------++++++++++======1111--++++++++--++++++++====++++++++++$$$$$$..++++++XX.X&&<<11:::>-*++++++++++==",
"--++++++++++=---++++>>>>++----++++++XXXX  ++++++++++####++++----==++++====++$$++,1::::::++++..++==--++....O+++11::>>++++++++==>>",
"--++++++++++==--++++>>>>++----++++++XXXXX ++++++++++#%##++++----==++++====++$$++,1::::::++++..++==--++....O+++11::>>++++++++==>>",
"++..++XX..++++++++++--11====++++++++++++XX....++++++##$$++-----=++X.++====$$$$++**,,>>11,,$$$$..==::++++++..++++=-1111++==>>::::",
"++..++ X..++++++++++--11====++++++++++++XX....++++++##$$++-----=++XX++====##$$++--11:>11,,$$$$.+-=::++++++..+++%=-1111++==>>::::",
"+++++#  X.++++--::>>--====11::::11==++++==++.........X++++++++++++++++-=++++--++----1111=-,,++-->>::++++++++11,,--##++==1111::--",
"+++++## XX++++--::>>--====11::::11==++++==++.........+++++++++++++++++--++++--++----1111==,,++--:>::++++++++1111--##++==,,11::--",
"++==++++++++++++++1111=-11::::<1++X.....====XXXXXX####.. X++++++++--++++++----++++++--11==++++<<11,,+##$==<1>:11++++++,,,,,,,,++",
"++==++++++++++++++1111==11::>>11++......====XXXXXX##+#..XX++++++++--++++++----++++++--11==++++<<1111+#$$==<1::11++++++,,,,,,,,#+",
"++=-++++++----==++++==++1111==+#....++++..====++  ++++++++++++++++--++++------++++++++1111++==1,=-++++++::::1,======++==----$$$$",
"++--++++++----==++++==++1111==+#....++++..====++  ++++++++##++++++--++++------++++++++1111++==<<==++++++::::11======++-=----$$$$",
"--++++--++++----==++++++==++++XX..++++++++++++++# #+++++++++++++--++++----++++++++++++++*---==++++++++++++==--==++$$++++++++++++",
"--++++--++++----==++++++==++#+XX..++++++++++++++  ##++++++++++++--++++----++++++++++++++**--==++++++++++++==---=++$$++++++++++++",
"++++++--==++++XX..++++++++XX  ##++====++++++==++X ++++--&=++==++++++++++++++>>>>>>11++++++++++++++++++++++++++XXXXXXXX++++++++++",
"++++++---=++++.X..++++++++XX  ##++====++++++==++XX++++--==++==++++++++++++++>>>>>>11++++++++++++++++++++++++++..XXXXXX++++++++++",
"--++++++--++++++......++--++++++++++----==++11++++----++++++==++>>=-++++$$,,-->>11**++++++++++==----++++11$$....++++--++++++++++",
"--++++++--++++++......++--++++++++++----==++11++++----++++++-=++:>==++++$$,,-->>11**++++++++++==----++++11$$....++++--++++++++++",
"----++++++++++++++++....11--++++++++++++=-++11>>++--++++++++--++::::--++11--1111==++++++++......--,,--++,1>>####--,,--++++----++",
"----++++++++++++++++....,,--++++++++++++==++,1>>++--++++++++--++::::--++11--1111==++++++++......--,,--++,<>>####--,,--++++----++",
"--==++++------++==11==..----++11--++++++++++==>>++++==>>--++++++111111==++,,,,++++++----==++++..++++--++11>><<##,,--++++----++++",
"--==++++------++==11==..----++11--++++++++++==>>++++-=:>--++++++111111==++,,,,++++++----==++O+..++++--++11>>11##,,--++++----++++",
"XX==++------++++++==11==.#++--==++++==11>>>>-*==++--::--++++++++11--11--++++++++++11--++OOOO....+++++++++$--11++11++++++++++++++",
"XX==++------++++++==11=&.X##--==++++==11>>>>-*==++--::--++++++++11--11--++++++++++11--++OOOO....+++++++++#--11++11++++++++++++++",
"++++++++$$+++++++++++O&&==XX....++----++==::::==++1111++++++++++----====##$$$$$$++++XX..++++..++#+++$+1<++$$----##11::11<<##++++",
"++++++++$+++++++++++OO&&==XX....++----++==::::==++1111++++++++++----====$#$$$$$$++++.X..++++..++#+++$+1<++$+----##11::111<##++++",
"++11+++++++++++++#........XX++..XX++++++++==11==++++++++++++++++++--==++$$$$++++++++..........###.++,,>>>>,,----<<>>11+++###--++",
"++11++++++++++++##........XX++..XX++++++++==11==++++++$+++++++++++--==++$$$$++++++++..........##..++,,>>>>11----1<>>11++##%#--++",
"%%11++==--++++++----....XXXX++--++..++++++++++++++++++++++++++++----++==++++++,,11--++XX......+++###++--11>>,,*-<<11+++#++----++",
"%%11++==--++++++----......XX++--++..++++++++++++++++++++++++++++----++==++++++,,11--++.X......++++##++--11:>,,*-<<11++++++----++",
"++++++++====++++++--====++++++--==..+XXX++++++++++++++++++++++..++--++==--++++++--==++++......--OOOO$$$#++<<,,-*<<++++----=-+++.",
"++++++++====++++++======++++++--==...XXX++++++++++++++++++++++..++--++==--++++++---=++++......--OOOO$$$+++1<11-*<<++++----==++..",
"++++++++++==++++....++++++++++--=-++++++++XX+#++++#.............++++++==--$$++++++----++++XXXX==&&++++++++++++++++++++++++++++XX",
"++++++++++==++++....++++++++++--==++++++++.X++++++..............++++++==--$$++++++----++++XXXX==&&++++++++++++++++++++++++++++.X",
"++++++++++++++....++++++++++++++--++++++++..#.  ......++==......++++++++----++++++++++++++++++++&===++++++++++++++++++++++++....",
"++++++++++++++....++++++++++++++--++++++++..    .....X++-=......++++++++----++++++++++++++++++++&===++++++++++++++++++++++++....",
"++++++++......=*++======XX++==++++++++--==++++++##++++==--++..++++++++++##--++--++++++++XX++--++++++++11,,++++++++++++++++++..++",
"++++++++......==OO======.X++==++++++++--==++++++##++++==--++..++++++++++##--++--++++++++XX++==++++++++1111++++++++++++++++++..++",
"++++++X...++++++++++=-11-=++==--++++==--<1+#++++&=++++&=--X.....++++...XXX++++--++++++<1XX++====++++====<1++++++==++++====......",
"++++++XX..++++++++++=-11--++==--++++==--<1+#++++&&++++&&--XX....++++...XXX++++--++++++<<.X++====++++====<<++++++==++++====......",
"XX++#+X   ++++++++1111::1<++11==++111111++++++-=**++++++==++......++++....++++++++11<<::11++11&=++111111++++++----++#+++&&++....",
"XX++#+X   ++++++++1111::1<++11==++111111++++++-=**++++++*=+O...O..++++....++++++++1111>>11++1<&&++<<1111++++++----++##++&&++....",
"++==++++....++--++++==11::==++++1111::::11++++==**++++++++....$$++==++++....++====++++11>>*=++++1111::::,,++++----++....++....++",
"++==++++...+++--+++O==11::==++++1111::::11++++==--++++++++....$$++**++++....++-===++++11:>==++++1111::::,,++++----++...#++....++",
"===-++......++--==++    ++1,++====::::++....++==++++++++++++$$$$==*-XX....++++++..XXXX  ++++++++++++++++++++++++++++++++++++++++",
"==--++......++--==++ #  ++,,++====::::++....++==++++++++++++$$$$==**.X....++++++..XXXXX ++++O+++++++++++++++++++++++O+++++++++++",
"----++..++++++++++++++=========&<<<<++......  ++++++++++++++=-11===*..++......XXXX==++..++..OOOO++++++++++++--++++##OO++++++++==",
"----++..++++++++++++++=========&<<<<++........O+++++++++++++=*11==**..++......#XXX==++..++..OOOO++++++++++++--++++##OO++++++++==",
"----++++++++--++++++::::11+#==..++##XXXX..++..++------11$$#+::::====    ..++++&=++====++++..##++++++--$$$$,,--++++..XX++++++++==",
"----++++++++--++++++::::<<+#==..++++XXXX..++..++------,,$$#%::::====  # ..++++==++====++++..##++++++--$$$$,,--++++..XX++++++++==",
"--++++++---=++++++11,,==++++++++++++&&=&--++++.X++----**,,##++<1==++    ++++++==++++====++..XX++++++,,++$$::++++++++..XX++++++==",
"--++++++---=++++++11,,==++++++++++++&&&&--++++..++------,,##++<1-=++#   ++++++==++++====O+...X++++++,,$+$$::++++++++..XX++++++==",
"++++++--====++++++++++++++++++++##&&&&##++......++++##1,11##++++++--++++--++=---++++++++....++++++==,,>:------$$++++++++  ++++++",
"++++++--====++++++++++++++++++++##=&&&##++......++++##,,11##++++++--++++--++==--++++++++....++++++==,,>>------$$++++++++  ++++++",
"++++++++++OO++..++======++++++++==&&++++++++------..++%+    ++++++--+#11--++--++++++++OO..OO--11::<,=-,,------,,::11==++XX++++==",
"++++++++++OOO+..++======++++++++==&&++++++++------..++## #  ++++++--++11--++--++++++++OO..OO--11::<1--,,------,,::11==++XX++++==",
"++++==++++XX++XX++++++====++++++++++++++++--------++--++++--::+++++###::=-++++++++++++--++++++++*=>>,,------1<::==++++++..++=---",
"++++==++++XX++XX++++++====++++++++++++++++==------++--++++--::++++++##::==++++++++++++--++++++++*=>>,,------,<:>==++++++..++==--",
"11--==++++==--XX++++++++==++++:>::::11++++++++----++++++-=>>>>++1111==::++++++----++$$11++----++##--,,,,--##,,==++++++....++--++",
"11--==++++==--XX++++++++-=++++:>::::11++++++++----++++++-=>>>>++1111-=::++++++----++$$,,++----++##--,,11--++,,==++++++....++--++",
"11==++++====++++++::==..++++1111::11==++++++X   ----++++>>,,++++11::11---->::><<++++++,,----++++%+++------++++++++++XXXX++++++++",
"11==++++====++##++::=&..++++1111::11--++++++X # ----++++::11##++11::11--==>>:>1<++++++,,----++++++++------++++++++++XXXX++++++++",
"++11++++++++    ++::::&&++11--1111==+#++====++..++++++$$<,*-$$++##--::--++++++++++++$$$$--**++====+++++++++++++#++==++++++++++++",
"++11++++++++#   OO::::&&++11--1111==+#++--==++..++++++$$<,*-$$+++#--::--++++++++++++$$$$---*++====+++++++++++++#++==++++++++++++",
"++++++++++......##111111++++--,,++++++##--....==,,<111$$++++%###+$$$-===++..X...+.++--11++++11==+++++++O++++XX# ++----++++++++--",
"++++++++++......##111111++++--,,++++++##--....--,,<111$$++$+####++$$--==++X.XX....++-*11++++11==++++++OO++++XX  ++----++++++++--",
"::++====++........++&&11--$$,,,,++++++##X...11>>::,,11#$++11::::>>++++++....++++....++==11==<1+++++#++OO--++++X +X++----++++--::",
"::++====++.......#++&&11--++11,,++++++##X...11::::,,11#$++<<::>>>>++++++....++++....++*=1,==<<++++##++OO--++++XX..++----++++--::",
"++XX++====++##++##++++----++$$++<111==..    ++++++++++++,,>:>>=-++..++++..++++--++....++====++++....++==--++++++..++$$--$#++::::",
"++XX++====++##++#+++++----++$$++<<11==..    ++++++++++++,,::>>=-++..++++..++++--++XX..++====++++....++==--++++++..++$$--$##+::::",
"++++++++==&=++++++++++++++++$$==11::::<<++++++++------+++++$++++++X.......++++=-==++++++++++++X...++++===-++++++....$$$$$$=*>>--",
"++++++++==&&++++++++++++++++++-=11::::<<++++++++------++++$$++++++X.......++++====++++++++++++XX..++++====++++++....$$$$$$==:>--",
"++--++++++++++++XXXX++++++++++..... ........++----++++++++++++++++--++++++$$++++==++++11++++....++++++++--##%#++++XX++--++--1,++",
"++==++++++++++++XXXX++++++++++..... ........++----++++++++++++++++--++++++$$++++*=++++11++++....++++++++--####++++XX++--++--1,$#",
"++==++--====++++..++..++..........OO++......++++++--++++++++++++++----++++--11++++++11>>++++..++++==++++++++=-++++++----++--++++",
"++==++--====++++..##..++..........OO++......++++++--++++++++++++++----++++--11++++++11>>++++..++++==++++++++--++++++----++--++++",
"--++++1111++++++======++..++........++....++++*-++----++++++++++--++----++++--1,--++>>==++++....++--=-++++==11++++------++++++++",
"--++++1111++++++======++..++........++....++++==++----++++++++++--++----++++--,,--++>>==++++....++--=-++++==11++++------++++++++",
"++++++++++++++===*++++..++++++++OO........++&===++++--++++++--++++++++++++++##>>11--11==++++++..++++----++==>>11++--++++......XX",
"++++++++++++++===*++++..++++++++OO........++&&==++++--++++++--++++++++++++++++>>11--11==++++++..++++----++==>>11++--++++.....+XX",
">>>>11++++++++++++++++..&===*-++++++##++++##--<<X...--++++----++>>=*#$$$----++++11----%+1111==..X.++++==++==::>>++++++++++++++++",
">>>>11++++++++++++++++..====--++++++##++++##--<<X...--++++----++:>==##$$----++++11----++1111==..XX++++==++==::>>++++++++++++++++",
">>111111++1111>>>>11++....++----++++X.==++++<<##++++++++11----##::::----++,1,,--##----====++++++..++++++++++--::++--11::11====++",
">>,,1111++1111>>::<<++....++----++++X.==++++<<##++++++++11----##::::----++,1,,--##---*====++++++..++++++++++-=:>++--11::11====++",
"==1111==++====11..++++....++++----++.X--=-++##X.++++++++1111++++,,,,--$$++++::,1----++--++++++....++++++======11--11::11==++++++",
"==1111==++====11..++++....++++--==++.X--=-++##XX++++++++,,11##++,,,,--$$++++::,1----++--++++++....++++++====-=11--11::11==++++++",
"XX==11++X.==<1XX..++++++....++++++++++--11++$$++<111::11++++++++,,--++++++++++++----++++++......++=---11>:::11--------==++##..++",
"XX==11++X.==<1XX..++++++..XX++++++++++--11++$$#+<111::11++++++++,,--++++++++##++----++++++......++==--11>>::11--------==++##..++",
"$$$$%%-===++..XX1111--++++  #+++++++++++1111$$,,::::==++++++++++++--OOOO....++++++&&++++++++++X#++++++++++==--==X...++++..++..++",
"$$$$%%-===++..XX1111--++++  #+++++++++++1111$$,,::::-=#+++++++++++--OOOO....++++++&&++++++++++XX++++++++++==---=XX..++++..++..++",
"$$,,>>,,++++++<<--==++--X   ++<<++++++++++++$$,,::++++1111====++$$11+O++......++O+OO++..++++++++....++++++++XX......++++++++==++",
"$$11::,,++++++<<----++-=X # ++<<++++++++++++$$,,::++#+1111====++$$11++++......++OOOO++..++++++++....++++++++#X......++++++++-=O+",
"%%,,%%+$++++++++++##++++++.X++11,,++++*=11:;;;==++++11::::::11++--,,++....++....OOOO    ..++==++++....++++..X.++==X...++++OO--++",
"%%,,%%$$++++++++++#%++++++.X++11,,++++*=11>>;;**++++11::::::11++--,,++X+..++....OOOOO   ..++==++++....++++..XX++-=XX..++++OO--O+",
"$$$$++%%%%%%++++##%%%%++..##++111,++*->:>:<11,,,++##11-=1111++..++++++##++==++..      ##++++=**-++++........++----++....++OO++..",
"$$$$++%%%%%%++++##%%%%++..##++1111++-->>>:<111,,++##11-=1111++..++++++##++==++..  O   ##++++==--++++........++----++....++OO++..",
"++++%%%%++++++++++%%%%......++<<++++++--,,::<<11==##====11++++..++++++..++--++++++##==+#++++++--++++++XX..++==--&&OOOOXX++++++..",
"++++%%%%++++++++++%%%%......++<<++++++--,<:>1<11-=##====11++++..++++++..++==++++++##==++++++++--++++++.X.X++*=--=&OOOOXX++++++  ",
"++++-=++++++====++++--....++##++++++++++++++++++X  #++++++++....++++++..++==--++++++==++++++++++=*++++++++++*-++++OOOOXX++++XX  ",
"++++-=++++++====++++--....++##++++++++++#+++++++XX  ++++++++....++++++..++==--++++++==++++++++++==++++++++++*-++++OOOOXX++++XXX ",
"++++++++..++++==++++++++.X++=-++++++$$,,1,$$++++++++++++++++  ++++++++..XX--++--++++----X.++--++++++++<<11++++++++++###O##++XX++",
"++++++++..++++==++++++++.X++=-++++++$$,,11$$+++++++++++++#++# ++++++++...X--++--++++----XX++--++++++++1<11++++++++++###O###+XX++",
"+++++++...++++==++++++<<..++----++++----,,++++++==++++====    ..++++..XX..++++--++++++<1..++----++++----11++++++==++++==&&++XX  ",
"++++++....++++==++++++<<..++----++++----,,++++++==++++====#   ..++++..XX..++++--++++#+<<..++----++++----11++++++==++++=&&&++XX  "
};
