/* XPM */
static char *_1874b7fd90146b5c25df94c68a74dffxmRMgwCie8hTgCWj[] = {
/* columns rows colors chars-per-pixel */
"64 64 193 2 ",
"   c #010102",
".  c #030902",
"X  c #04030A",
"o  c gray4",
"O  c #080405",
"+  c #1A1B1F",
"@  c #162A0D",
"#  c #1A2E0D",
"$  c #162C05",
"%  c #1D3504",
"&  c #1F3904",
"*  c #1D330C",
"=  c #1F390C",
"-  c #162810",
";  c #1B2E12",
":  c #192C1C",
">  c #142711",
",  c #1E3314",
"<  c #1E331B",
"1  c #1F3819",
"2  c #203606",
"3  c #233B04",
"4  c #283F07",
"5  c #21360D",
"6  c #243B0D",
"7  c #293D0E",
"8  c #223614",
"9  c #253B14",
"0  c #293E14",
"q  c #22361A",
"w  c #28351A",
"e  c #253A1B",
"r  c #293D1B",
"t  c #283613",
"y  c #1D2E24",
"u  c #1C3023",
"i  c #1F3028",
"p  c #2C2C2C",
"a  c gray15",
"s  c #233622",
"d  c #293724",
"f  c #263A22",
"g  c #2A3C22",
"h  c #24362A",
"j  c #273929",
"k  c #2B3D29",
"l  c #32312C",
"z  c #2A3C30",
"x  c #353535",
"c  c #264106",
"v  c #2A4204",
"b  c #2F4B06",
"n  c #26410C",
"m  c #2A420D",
"M  c #2E4A0E",
"N  c #324C01",
"B  c #384F07",
"V  c #30470F",
"C  c #334D0D",
"Z  c #365007",
"A  c #36500D",
"S  c #3A540B",
"D  c #264013",
"F  c #2B4214",
"G  c #2E4A14",
"H  c #274019",
"J  c #2C421B",
"K  c #304715",
"L  c #334C14",
"P  c #394D15",
"I  c #31461C",
"U  c #344B1C",
"Y  c #394E1D",
"T  c #365015",
"R  c #395315",
"E  c #35511B",
"W  c #3A521B",
"Q  c #3F5A15",
"!  c #2D4122",
"~  c #2E422A",
"^  c #324622",
"/  c #354B23",
"(  c #394E24",
")  c #34462B",
"_  c #354A2B",
"`  c #394D2A",
"'  c #365023",
"]  c #3A5222",
"[  c #375028",
"{  c #3B512A",
"}  c #2E4330",
"|  c #445F13",
" . c #435E1C",
".. c #40551A",
"X. c #4B6B0E",
"o. c #58770C",
"O. c #466316",
"+. c #496515",
"@. c #476A10",
"#. c #4B6915",
"$. c #46631C",
"%. c #4A651C",
"&. c #4C691C",
"*. c #506E12",
"=. c #526D1D",
"-. c #557415",
";. c #587613",
":. c #5C7C13",
">. c #54731D",
",. c #5A761C",
"<. c #5C7A1C",
"1. c #567915",
"2. c #617B1D",
"3. c #435D24",
"4. c #41572A",
"5. c #465E2C",
"6. c #485F2C",
"7. c #485F32",
"8. c #466224",
"9. c #4A6524",
"0. c #4D6A24",
"q. c #46622B",
"w. c #4B642B",
"e. c #4D692B",
"r. c #516C24",
"t. c #506228",
"y. c #526B2B",
"u. c #567224",
"i. c #5A7523",
"p. c #5C7A24",
"a. c #56712A",
"s. c #5B752B",
"d. c #5D7A2B",
"f. c #4C6432",
"g. c #4E6933",
"h. c #4B643A",
"j. c #536C32",
"k. c #546B3A",
"l. c #5C7533",
"z. c #5E7B32",
"x. c #617C22",
"c. c #627C2B",
"v. c #617B35",
"b. c #423C40",
"n. c #515152",
"m. c #5D5C5D",
"M. c #5D7342",
"N. c #667F45",
"B. c #5F5965",
"V. c #6B6C6C",
"C. c #706F6B",
"Z. c #777C7F",
"A. c #767779",
"S. c #648225",
"D. c #65812C",
"F. c #7E8679",
"G. c #7B8383",
"H. c #7D848C",
"J. c #818585",
"K. c #868A82",
"L. c #858A8A",
"P. c #8D8E8F",
"I. c #868987",
"U. c #8D9887",
"Y. c #8E9188",
"T. c #91948B",
"R. c #949A8D",
"E. c #999C89",
"W. c #8E9394",
"Q. c #949592",
"!. c #959992",
"~. c #9E9E9D",
"^. c #9A9499",
"/. c #9FA09B",
"(. c #AEA7AE",
"). c #A6A9A6",
"_. c #B7BFAC",
"`. c #AFACB5",
"'. c #B0AEB1",
"]. c #ACB0B1",
"[. c #B4B6B5",
"{. c #BBBBBA",
"}. c #C0BFBA",
"|. c #BFC3B4",
" X c #BFCDB6",
".X c #BDC2BD",
"XX c #C2C3BC",
"oX c #C3C9BF",
"OX c #BCBEC3",
"+X c #C1BFC4",
"@X c #BEC2C4",
"#X c #C2C2C3",
"$X c #C3C3CB",
/* pixels */
", e w q e 8 e e 8 ] $.s.&.6 g.K n L 9.e.9 9 9 E R 5 r % E J , = , 9 9 = 1 9 8 ! F w.q.<.X.7 e.^ 9 e.e.9.0 e 8 ( Y t r J ^ s ; t ",
"9 r r 5 t 8 t e e F & 8.D./ 7 F ^ Y E ] J J 9 U I r g J , < < e J / 1 1 * , J / I F 7 9.l.J F m 9.#.1.i.9.K c C / w 8 , 0 e q 9 ",
"7 8 / 8 r 5 8 t q 9 9 9 H 9 8 9 e H 9 9 9 J 9 F 0 r q ; , < ! D I ' 9 e , 8 0 7 F , e J 6 r r K ~ 9 F 6 e u k e F 8 8 t 5 e t F ",
"W K Y F I J 5 q e * J H @ e ! e 1 8 9 9 F ! H 8 8 9 e 8 9 % G $.W U = e e J 0 6 t e e 6 Y 8 6 { 9 2 L E ] r 9 9 = < q I 6 r 0 K ",
"f.K F 2 I ( 0 0 9 8 ; 1 , 8 , , 8 9 9 J 9 / / = 0 t J t = e.d.p.W J 6 1 e _ J E e F g v a.J U J e [ ] 2 , 8 , = 8 q e U F t H W ",
"/ F 7 0 J U 0 I U [ e , , 9 , 8 1 8 8 H 7 G E F < U U 8 e 5 % 9.Y 9 r 1 1 H 9 ] ) m w +.x.K T J r ^ 0 J J 8 ; J 9 e q Y I 0 t K ",
"t F I I U I J ( J , , e H J 9 1 1 t e 9 E n U / e m 3.r f 8 J H 0 t 9 e , 1 * r 8 ] e $.d.e.n 1 e J e 8 , 8 , 1 0 r t I W r 9 F ",
"r 8 0 0 / 6 7 7 = , e r 9 J r r 8 e e , f.7 7 t 7 a.=.6 e e 9 r e r , 1 , 1 , , 0 8 J W 8.P H 9 8 9 0 9 , 1 1 , 8 U 0 6 U 9 J ^ ",
"U I t 9 e e e g = s 9 q / E 8 D e 4 q 8 #.d.9 F -.r.R 9 , J Y L L 6 r 1 , t 9 / p.<.<.&.U [ r E *.l.s.= * 7 e 1 r P 7 g w 9 ( U ",
"( K 0 r r e 8 * e 3 r ! C L ! 8 I 4.( K 0.s.W K q.U 9 r r 9 9 U e.Y 8 q 8 r 9 9 r K t.%.9.b 9.$.I 8 = e e 2 1 m 5 ] K 7 r U U F ",
"U / / 9 * # t r < A ! s U 2 9 ! 3 r J C W O.i.P / H = t J t e H 8.5.9 9 t J 8 0 F J 6 P q.E J 1 r e , e , e ! D 0 r ( V 0 / % 9 ",
"7 t 0 9 0 J 9 8 ! +.8.g r D E ^ R g J W ^ R i.E M 9.j.q.U 9 9 t m ] J 9 r I F J e # e ! e , 1 e = * = 9 J 9 I L P t r / e k J 9 ",
"0 0 8 F ^ ( U F 8 r.:.b r L T U H e , e r U W E r.9.T D 0 0 I I n F F 9 Y / 8 9 g J 4 t w g # m q e f * U q.&.s.p.C e f t e , R ",
"I J 0 8 9 J ^ / d e ;.s.! I Y e t 0 e s * F 8 9 = D e e e 8 L R J 9 H J ] F 9 e 6.i.<.i.m g s e U Y , 8 r e c e.<.i.J t M & ..>.",
"J t 8 8 t 9 t 6 J t L 0./ J m r 0 3 8 w = 8 f 8 e H e e ! / E I J 9 9 [ F 7 0 H R &.x.#. .n 8 9 S i.^ e , < 6 6 B r.6.6 V =.c.c.",
"9 e e 8 8 5 F / ;.,.Y P C t.2.,.q.W 7 0 ( 8 , 1 , 1 = = m 9 9 e e r 9 ] 6 7 / t L L g.q.W f.n I ,.p.7 8 H H e.9.^ 8 F U 6.=.,.P ",
"t ( r 9 8 0 7 t 9 e.0.E O.d.u.0.t q < ; / I & 9 = 9 w 8 8 t r r J U 6 r 9 W K H D D U q.E e 9 0.w.&.g s E 9.p.&.3 7 9 q.0.9.9.D ",
"J I 8 e K / / ( 9 n I J 0.O.W = J @ J 0 & U ( q t q e q 0 9 t e q ( r F U ] K 8 e e H 8.9.M I 9./ 9 3 3 a.,.0.U ( ( H U T M 6 H ",
"F I r / 0 7 0 ( ^ J q 8 P F < g $ D 9 = 9 r 8 J 5 w e 0 9 J 9 0 L 8 F J ^ 6 ~ r 9 ! 9 n R G U F 3 r 7 0 J R C ^ < ! r * t ^ 8 J ",
"F 0 8 ( U 7 0 0 , r e r F < : 9 ! / U F H e ^ 7 8 r F / I r J 0 0 r j J v 9 u.S.s.8.t r 9 9 9 t e 9 g 9 H $ G h q # 5 J e e e e ",
"I 9 t K I F 0 8 e # 9 6 Y g ! c w r U K U J f.3 r ^ G 6 0 5 { 0 i.( = , 9 y.v o.=.C 8 ! w 9 J ) _ E e r w.F 3 : r F F F r q r 7 ",
"Y Y J 8 0 2 F 8 9 F , = q.E 9 m 5 0 e r _ 6 $.p.t U 6 M 6 0 ( 8 S.X.] 7 q.[ y.9.I 7 K 8 6 = 9 , E 9.V J y.>.9 6 K q.E = F ( U 6 ",
"/ / 6 0 I ] I r / e.I e U L 9 q.W 7 9 r 0 3 Z c.t F L j.( J 8 0 #.e.$.' n 3.g.& j F L I ( 6 1 e , J A % =.p.w.e 0.E H e / U 0 t ",
"2 U 0 ( U W 9 t e A 9./ 8 * ( L d 8 ] $.,.c.L ) 9 W l.R 2 t J 8 g.b e.U n n D j D 8.C F f e = 1 D 9 f ! 8 U &.5 0.= f e t m 9 g ",
"9 9 9 t t J 8 r e H 9 [ _ , 1 1 e U ] 6 P c.s.C 4 w.7.F D 9 9 0 G E ] / 6 9 9 r t J * 8 e 1 t 8 % r 9 w.F e / R < 0.1.@.k.8 J e ",
"F f.F H 0 9 J 8 * 9 = * 9 8 9 = , J * e 0 M 9.( 8 I J t 8 t e e n I ^ t I = r e w g e ; e r w , < 9 w.i.,.&.E J q.D.O.9 e 8 Y F ",
"J q.n I Y 9 F 9 / I 9 * , , 9 Y 5 # J g q J 9 1 9 6 8 0 6 r 0 5 _ U.!.P.W.W.Q.P.R.K.Y.!.K.Y.T.T.J 9 c C +.i.r.L &.Q H ~ e K P 6 ",
"9 J 6 F / U 8 J H / / ^ ! J 9 I ( * 8 q e 8 1 ! r 8 J 0 9 r r 8 8 .                             8 J e J K $.w.` 9.G H [ Y W 9 , ",
"8 8 0 t D ( r , * 9 J 9 8 e F U ( 8 e 9 0 8 9 6 < < 1 < , 1 < 1 r .                   o       O ' = f h e 3 % ! r 8 1 6 6 J e s ",
"J 9 e r , r J 8 , = t F r 8 8 9 P 8 J 0 6 = 8 t 1 1 * 0 ^ t % 8 q   X X X     V.#X#XP.o   O     E W r e e F F 8 t J J 9 8 e < = ",
"J 0 8 r 8 , t J J / U K 6 0 / 0 F r , W L t w w t 9 t K ( r 8 q g           XXl p x a #Xo       , J & 0.9.= e g D , , J H q 1 H ",
"6 r 8 < 1 r 6 H 9 0 U w.W 6 Y U 6 r [ K f.oX@X.X@X@X#XoX.X.X#X$X.X  X     Z.+X+X#X#X#Xa ~.      r r I R w.r J 3 U 0 w W G 8 , = ",
", r t = 8 e t 6 D &.X.p.8.n e.A D $.r.9.0 .XOX$XE.].`.(.^.^.#X.X}.X       $XXX}.#X#X+Xm.XX.     6 w.#.8.r e k I ( t t H / r * 8 ",
"J J F t q q r Y e s ' &.p.M , j q.9.>.>.y.|.#X|..X`.[.|._..XOX).R.  X     OX#X{.~.!./.(.{.  .   g.9.>.S.&.2 2 E ( 9 6 * 8 8 8 r ",
"U I 0 8 , , 9 U / F > z 8 e.m U R D.>.M * 8 J ^ r ! 8 0 I w r m K O     . V..X{.#XOX#X+ ).    X 9 = ! * J h F D 9 9 F 9 J 9 t r ",
"L U F t q e 0 0 6 D 7 K ] [ Y V 8.q.9 * f s > F 9 8 J t q f K +.(   X X     [.B.n.m.n.`.    X   6 Y < H r , Y 8 9 t r , e e t U ",
"Y U 0 8 r I J 0 s M u.>.9.= / 8 1 6 2 1 : f r 1 W M L e.m 6 v.;.C   X         b.XXXXC.        . t n L 0 6 +.G ! f w q r r r 0 U ",
"I 0 8 0 Y I 0 r J w.0.I J 9 = g 1 1 U E E 8 < * t _ J Q 5.9 9 j.Y       . .   O       X         e 9 y.r 9 v.D , r q ; 8 q 9 0 W ",
"J 0 0 U ( I 9 w 2 e J 6 2 ! w e r W U 2 D = = e 6 J F 9.e.D 0 t g G.J.I.Z.J.I.J.K.L.J.J.L.G.K.F.9 ] $.u.S C / ! m 7 t r e 0 * 7 ",
"8 r r t 4 6 t , 0 U U ( t 6 F 9 L U e g e e / G P e < 9 6 , w r 3 ` 7 t.` t Y t 0 t r t 5 t Y g.,.$.Y y.L ~ T @.a.0.R 0 # e r ( ",
"= H _ e r 8 8 1 m q 9 W U g 0 0 r 5 r j t R U _ L e L 0 q P x.e M 1 J p.P 7 d F e 9 9 ' 3 F r 8 L v.+.M ' ( 8.2.( q J 7 w r U E ",
"e.L ] n % ( U = 0 g w 7 U t 9 u.x.<.O.m 9 r 2 U U ! 9 r Z i.s.0 q.9.C a.q J 8 L Y e 7 w.J J ] e J F 0.0.G 0 g.L 0 e q 8 8 9 J r ",
"9.W & F E E D * q s.C q w n e.@.,. .{ J 8 q e = M U r e p.9.9 5 9.i.9.R L <.p.0.9 6 D g.L ] = H 9 0 Y U Y 9 r 9 7 J < < 0 9 r r ",
"6 f.9 = r , 1 s 0 -.<.( f f.A 9.&.W 0 % W / f e ~ = n 9 &.Y e J 9 S s.L J 2 9 s r 7 6 6 W U * U K J 1 1 J 9 = 9 0 U e q 0 r , F ",
"7 H J r 9 8 < < 0 8.#.&.n H G 9.9 H 9 n / q , F $.>.$.f 0 I % F f 5 ] U 9 q 9 , 8 1 J j.6 6 y.Y F 9 e f t 9 1 e 1 L Y J t e 8 A ",
"M.F F ' J * 8 8 1 e R #.n H g.9.e 9 e e = 6 9.S.,.+.0.j t 9.S.j.x.4 % r 7 e , r , , J / f.E 8.6 8 8 9 7 W F 9 1 e n L Y 9 r Y p.",
"2 6 9 G U 6 F 9 < e n ' { n % n $.e./ e u , , q k q M 5 0.,.1...q w J q ; i F A e 6 9 , U E e F f , D L W 9 ! 1 1 1 9 U r 0 y.c.",
"r , r J / [ t w 6 J q 1 = ! f E $.S.1.$.D 9 F t Y U L e e g t t w d * , n 1 6 / ^ 9 = 7 r 8 r , , 9 9 ( _ , 8 D # f e F t P c.N ",
"0 I r r , 0 7 f 8 , 6 5 0 9 r q q , * , f q e / U r f J r 5 F e H ^ t 0 8 q r 6 ' 9 J e.q m = < 9 9 e J U r k 5 9 8 f _ 9 U f.n ",
"3 4.9 T S { 8 9 u f f f 8 8 , , < e J e - , J 7 F K 5 8 J t g 6 n T U 0 0 Y k.8 8 6 9.s.e s , r r ( e 8 7 7 ` r r t U P c K F 8 ",
"R t 8 0.9.q g F L E F J 5 e 8 e 8 * e , 1 J = E w P ] 0 8 r q c } F R U e = R &.R M a.W 9 r = < w ` U J 0 V %.6 9 ' G E 6 9 r f ",
"r ! 8 J F 8 7 C U J r , e e 9 = 8 r 8 , , t ' L , ! I m e e ] 9 r 8 8 7 8 g M i.8.U &.F m J 9 q 9 0 L P 9 W c.| 9 Y 8 J 8 , , , ",
"2.i.0.6 1 f r 9 F 6 9 e _ _ Y n F 1 , r J 7 G e.r < _ 6 J K T H ,.W r t 4.U 5 9 $.] Y ! $.q.W < 6 8 F L r _ i.2.J 6 n 9 9 J r 9 ",
"p.+.$.g.9 7.9.p.u.9.F = * 9 J Y H 9 9 / = 6 h.D , 9 f r 8.W / 9 ,.c.F _ 2 0.y.I J K C / U e J 3 , f r 9 g d V ,.9 L y.s.9.E U 7 ",
"P 9.0.G H E R O.e g < 1 , r J U ^ 9 9 / Y D 1 , F 3 c F 8.f.J , y. .R J r 3 a.r./ E J ^ F 2 g = < J t 0 L Y U y./ g.r.u.C % J 9 ",
"u R $.1 < E 9.1 = 9 F 1 8 8 9 9 9 9 9 Y q.F * ! 9.e.r.&.F t 6 e &.U J , r r e 4 E L f e t % d , w L P e.-.:.9.U K R A I e k < 1 ",
"9 t J ( ( 9 , s 9.9.L 0 w q e 6 < F t 7 =.w.9 &.2.,.R 1 J D 8 f 2 ] 9 H 9 $ J H 4 U r 8 9 r q 8 H 9 0 0 7 I / / 1 , g r 8 * 8 e ",
"9 0.,.+.F q F $.L U 6 / 8 , 9 e.^ * 9 9 g q H &.s.2 = e.O.E ] n J q.J 8 1 , 8 8 r e w , r 9 J t 1 8 t e J F 1 * = , e 9 9 H ^ r ",
"^ q.C c 8 ^ 8 6 9 F 0 ^ e = 3 8. .s k T +.,.>.E r 5 j.d.>.d.Q 9 K q.F * e g q , q q t 8 8 0 U 0 e e , q e , * H U * 1 e 8 J / 8 ",
"5 ! s k 0 J e ~ e r I # q 1 D e.r.F N o.d.r.#.e.e 6 9.A 0.$.n < F F t , e / , r q w e e 8 K K ( 8 e 8 < e , H ( [ 9 , 8 0 9 r 6 ",
"J 0 F I H 9 9 2 r J F 9 , 1 9 q.3 k j ' 9.u.r. .W r J L 8.e e 1 9 , 8 e H ( 9 7 e 5 I 0 r e t ( 9 r 9 * * 8 ] J J J e , r 8 8 8 ",
"8 7 K K t 9 Y W 9 F I 9 , e D 9 0 t q J c 6 ~ r # e r J r 8 1 = e e J 8 , ] G D r 7 Y 6 9 e r 9 ^ n 6 D F 6 / J 9 r e , H r 1 e ",
"r e e e * 9 J ^ e 6 D 9 , r [ 9 j 8 F $.&.= e 2 g 7 8 8 q J % r H 9 r , , ^ J I e 0 U K 8 r / 6 J 6 F ] q.m 0 8 0 9 9 9 F 9 1 < ",
"8 e , f 9 9 7 ] w 8 D h.= 0 I U 6 F U L g.1 r 0 U 0 0 U / e < 1 9 9 , = 9 H 9 ] r 8 3 k.= 9 ] U e J U Q q.7 F e ( 6 D U U = , f "
};
