/* XPM */
static char *ab627c567d234e3ce560702fe0ecfcd34zbkk7rNlW0RL4jM[] = {
/* columns rows colors chars-per-pixel */
"64 64 25 1 ",
"  c #563F3D",
". c #55403E",
"X c #59413E",
"o c #4E3E46",
"O c #513F44",
"+ c #4F4047",
"@ c #524046",
"# c #5C4342",
"$ c #554248",
"% c #5B4549",
"& c #614642",
"* c #674845",
"= c #6B4B47",
"- c #624749",
"; c #664A4C",
": c #6A4B4A",
"> c #724F4B",
", c #77514C",
"< c #79524D",
"1 c #724F50",
"2 c #765251",
"3 c #7C5551",
"4 c #815651",
"5 c #865954",
"6 c #8B5C56",
/* pixels */
"oo@%:>,,,,,<<,,,,,<,<,>:%$oo++@oo+@%;>,,,,,,,,,,,,,,,,>=#Ooooooo",
"o@%%:>,,,,,,,,,,,,,<,,>:-$OO++$oo+%%:>,,4,,,,,,,,,>4,,,*-Oooo%o$",
"$%%-:>,,,,,,,,,,,,,,<<>:;%$$$$@@$$%-:,,,,,,,,,,,,,,,,,,>;-Oo$o$o",
"%%-;:,,,<,,,,,,,,,,,<<>>1;;%$$$@$%;;:,,<,,,,,,,,,,,,,,,=>;;-%$$o",
";:::>,,,,,,,,,<,,,,,,,,<222;%$$%-;:>,,,,,,,,,,,,,,,,,,,,2211;$oo",
">>>,,,,,,<,,,,,,,,,,,,<<4532;%$%;:>,,,,,,,,,,,,,,,,,,,,44521;o$o",
",,,,,,,,,,,,<,,,,,,,,,<45652;$$%;>,,,,,,,,,,4,,,,,,,,,4456521$oo",
",,,,,,,,,,,,,,,,,,,<,,<45652;%%%:>,,,,,,,,,,,,<,,,,,,,,45652;-oo",
",,,,,,,4,,,,,,,,,,,,,,<55652;%%%;>,<,,,,,,,,,,,,,,,,,,<46652;%oo",
",,,,,,,,,<,<,,,<,,,,,,<45652;%$-=>,,,<,,,,,,,,,,,,,,,,<45652;%$o",
",,,,,,,,,,,,,,,,,,,,,,<45652;%$%*,,<><<,,,,,,,,,,,,,,,<45652;%oo",
",,,,,,,,,,,,,,,,,,,,,,335652;%$-;>,,<,,,,,,,,,,,,,,,,,,55652;%oo",
"4,,,,,,,<,,,<,,,,,,,,,345652;%$%;>,,<,,,,,,,,,,,,,,,,,245652;%$o",
">,,,,,,,,,,,,,,,,,,,,,,45652;$$%:>,<<,,,,,,,,,,,,,,,,,<45652;%+o",
",,,,,,,,,,,,,,,,,,,,,,245652;%$;;>,,,,,,,,,,,,,,,,,,,,255652;%+o",
",,,,,,,,,,,,,,,,,,,,,,335652;%$%=>,,<,,,,<,,,,,,,,,,12335652;%oo",
",,,,,,,,,,,,,,,,,,,,>,<45652;$$%*>,<,,,,,,,,,,,,,,,,,,<36652;%$+",
",,>>,,,,,<,,,,,,,,,,<<<46652;$%%=>,,,,,,,,,,,,,,,,,,,<<45652;%++",
",>44,,,,><,,,<<,,,,,<<<46662;%$%*,,<,,,,,,,,,,,,,,,,<<<55652;%++",
"4>>>,,,,<<><,>,,,,,<<4456652;%$%=:,<<,,,>,,,,,,,,,,<<4456652;$+o",
",,,>,,,>,,>>,,,,,<<<45566662;%%#:>,,<,,,<<><,,,,,,<<45666652;%$o",
",,,4,,>4<<<<,,,,,<<<45666662;%$%:>,,<,,,><<>,,,,,,<355666652;%+o",
">>,>>,4><<<<<<<<,<<566666532;$$%::,,<<<<<<<<<<4<<<3456666622;$++",
"====4444444444444455666643,;;$@#%*=,<444444444444445666653,1%$@o",
"&&==<5556555466455666665,>=##@@$#&=><45565555555556666643>=#%$@+",
"X&*=,5666666666666666664>*##$@@$##&=<5666666666666666653>*#.$@@@",
" X&=>456555545445655653,=##@@O@@@.#=,455645454555555663,=##@@@+@",
" XX&:,<<4<<<4,44<<<<<,,=&X.o@@@o@.#*:,<<<,44<4<<<<<<3<,=&#o o@+@",
"  O&*============:=====&#$@@o@o@@@$#*===========>======&#$@+@@+@",
"OOO%##&&&&&&&&&&&&&&&&##@#@++@@+@@@@##&&&&&&&&&&&&&&&&&##@@o@+o@",
"OOOOO#&#X&XX&&X&XX&&X&X##@@@@@+@+@@##XX&&X&&XX&X&XX&#X##@@@$@@@@",
"ooO%#&&&&&&&&&&&*&&&&&&X@+o+o@@+++@%#&&&&&&&&&&&&&&&&&##$@ooo+@+",
"ooOO&============*=*==*-%$+oo@$oo+$%&==================&X ooo$oo",
"oO-&==>,>>>,>>>>,>,,,>::%$++++++o@$%;:>,,,>>>>>,>>>>,>==&O$o$oo$",
"O%O*=>,,,,,,,,,,,,,,<,>:;%$$$$$+@$%-=>,,,,,,,,,,,,,,,,,==-%$$o$o",
"%-*==><<,,<,,,,,<,<,<<,,1;;-$$$$%#-::,,<,,,,,,,,,<,,<,,>1;-%%$$o",
";::>>,,<,,<,,,,4,,,,,,,2221;-$$$%;==,,,<,,4,,,,,<,,<,,,<222;-$oo",
">>>>,,,,,,,,,,,,,,,,,,,44532;$$%;=,,,,,,,,,,,,<,,,,,,,<44532;$$o",
",,<,,,,,,<,,,,,,,,,,,,245652;%$-=,,<<,,,,,,,,,,,,<,,,,<45652;%+o",
"<,,,,,,,,,,,,,,,,,,,,,345653;%%%:>,<<,,,,,,,,,,,,,,,,,<45652;%oo",
",<<,,,,,,,,,,,,,,,,,,,<45652;%$%->,,,,,,,,,,,,,,,,,,,<<46652;%$o",
",,,,,,,<,,,,,,,<,,,,,,<45652;%$%:>,,<,,<,,,,,,,,,,,,,<<45652;%oo",
",,,<,,,,,,,,,,,,,,,,,<<45652;%$%:>,,,,,<,,,<,,,,,,,,,,<55652;%+o",
",,,,,,,,,,,,,,,,,,,,,<<45652;%$-:,,<<,,,,,,,,,,,,,,,,,<45652;%oo",
",,,<,,,,,,,,,,,,,,,,,,<45652;%$&-,,,,,,,,,,,,,,,,,,,,,245652;%$o",
",,,,<,,,,,,,,,,,,,,,,,<45652;%$%;>,,<,,,<,<,,,,,,,,,,,<45652;%+o",
",,,,,,,,,,,,<,,,,,,,,<<45652;%$%;>,,,,,,,,,,,<,,,,,,,,255652;%+o",
",,,,,,<,,,,,,,,,,,,,,<<45652;%%%*,,,<,,,,,,,,,,,,,,,12335652;%oo",
",,,,,,,,,,,,,,,,,,,,,,<4555<;%$%=>,,,,,,,,,,,,,,,,,,,,<36652;%$+",
",,,,,,,,,,,,,,,,,,,,,,<45653;%$%=,,,,,,,,,,,,,,,,,,,,<<45552;%++",
",,,,,,,,,,,,,,,,,,<<,<355652;%%%*,,,,,,,,,,,,,,,,,,,<<345662;%++",
"4,,,,,,,,,,,,,,,,,<<<3456662;%@%*>,,<,,,,,,,,,,,,,,<<4466652;$+o",
",,,,,,,,,,,,,,,,,,,<45666652;$%%:>,,<,,,,,,,,,,,,,<<45666652;%@+",
",,,,,,,,,,,,,,,,,,<<46666652;%$%:>,,,<,,,,,,,,,,,,<<46666652;%+o",
">,>,,,<<3,<<<,<<<<<555666632;%$%*:,,<<<<<<<<<<<<,<3456666641;%@+",
"===,,4444444444444556666632:%$$%%*=,<4444444444433556666542;%$+o",
"&**><4565665555555666664,>:##$$$%&=><45555555556556666552>*#%$@o",
"XX&=<566656556666666665<>*##$@@@#X#><566656666666666665<>=##$$+@",
"XX#=,455566655555555654,=#..OO@@@X#=,455555554545555664,=##.O@@@",
" O#*=><<<<,<<<<<<<<<4<<=&#@O@@@o@X#&>,<34<<<4,4,<<<<3<,:##OO@+@+",
"OO##&===============:==&%#oo+@o++##XX=>=========>======&#$@+@O+@",
"@@#$#&&&&&&&&&&&&&&&&&###@@@+$@@+@@@##&X&&&&&&&&&&&&#&###@@o+@+@",
"@@oOXXXXXXXXXX XXXXXXXX.O@+@+@@++@@@.XXXXXXX XXXXXXXXX.#O@o$$@@+",
"+O@@                   O@@+@@+@@+@+@.XXX               OO@$+o@o@"
};
