/* XPM */
static char *_b6340abd4b546279739ab283e4c63b7FEMnqF5yjY97Z4S5[] = {
/* columns rows colors chars-per-pixel */
"32 39 248 2 ",
"   c #1C3702",
".  c #1C340C",
"X  c #1E3A0C",
"o  c #173800",
"O  c #1E3512",
"+  c #1E3C12",
"@  c #1D3C1C",
"#  c #17311B",
"$  c #1A2E12",
"%  c #262C0C",
"&  c #342B05",
"*  c #2C3C02",
"=  c #23350C",
"-  c #233C0D",
";  c #2B3B0D",
":  c #243904",
">  c #3B3E00",
",  c #323C0C",
"<  c #34370A",
"1  c #2A2E12",
"2  c #202B1A",
"3  c #3C2415",
"4  c #312C12",
"5  c #3A2915",
"6  c #213413",
"7  c #2B3313",
"8  c #243C13",
"9  c #2A3C15",
"0  c #253C1B",
"q  c #2A3D1B",
"w  c #25371C",
"e  c #323316",
"r  c #39341C",
"t  c #323B1A",
"y  c #3A3A1C",
"u  c #393716",
"i  c #1E3A23",
"p  c #243A24",
"a  c #293D21",
"s  c #263A28",
"d  c #3B3E22",
"f  c #353924",
"g  c #413900",
"h  c #4B3803",
"j  c #4D2D1A",
"k  c #442B1D",
"l  c #522E1C",
"z  c #5D2E14",
"x  c #473619",
"c  c #55341D",
"v  c #66361F",
"b  c #4B2D21",
"n  c #443423",
"m  c #4E3323",
"M  c #4C3D2B",
"N  c #463926",
"B  c #523422",
"V  c #533B23",
"C  c #513B2C",
"Z  c #5D3D2B",
"A  c #583A28",
"S  c #623B24",
"D  c #603C2A",
"F  c #693F27",
"G  c #613F33",
"H  c #1E4203",
"J  c #1E410B",
"K  c #1E4213",
"L  c #24430E",
"P  c #2C440D",
"I  c #274706",
"U  c #354401",
"Y  c #3B4301",
"T  c #354900",
"R  c #384907",
"E  c #264113",
"W  c #2B4215",
"Q  c #2B431B",
"!  c #2E4A1A",
"~  c #274518",
"^  c #314615",
"/  c #344A14",
"(  c #32451B",
")  c #3C441C",
"_  c #334B1C",
"`  c #3C471C",
"'  c #365317",
"]  c #2C5010",
"[  c #3F651A",
"{  c #2B4224",
"}  c #2B462B",
"|  c #294926",
" . c #354622",
".. c #354C24",
"X. c #3B4C24",
"o. c #3B442C",
"O. c #334C2B",
"+. c #3A4C2B",
"@. c #384629",
"#. c #3B5124",
"$. c #37522A",
"%. c #39522A",
"&. c #2D4B31",
"*. c #334B34",
"=. c #3A4A31",
"-. c #3B5232",
";. c #345139",
":. c #454501",
">. c #4C4704",
",. c #564806",
"<. c #595600",
"1. c #47441B",
"2. c #57481C",
"3. c #475D1D",
"4. c #525415",
"5. c #655918",
"6. c #5A6708",
"7. c #49681A",
"8. c #5D6312",
"9. c #56631C",
"0. c #566519",
"q. c #5B7B1C",
"w. c #577A17",
"e. c #61610A",
"r. c #646602",
"t. c #687907",
"y. c #707B00",
"u. c #6D621D",
"i. c #656C19",
"p. c #647B14",
"a. c #697A18",
"s. c #777511",
"d. c #414425",
"f. c #44442B",
"g. c #4B442B",
"h. c #434B2A",
"j. c #4C492D",
"k. c #444D23",
"l. c #5B4326",
"z. c #55432C",
"x. c #544C29",
"c. c #43572A",
"v. c #515629",
"b. c #4D4933",
"n. c #564531",
"m. c #4E5B3A",
"M. c #465F35",
"N. c #555A34",
"B. c #684532",
"V. c #6B5B28",
"C. c #4B6524",
"Z. c #4D6B26",
"A. c #45652B",
"S. c #4C632D",
"D. c #496A28",
"F. c #526B2A",
"G. c #576527",
"H. c #4E7E2E",
"J. c #5A7E23",
"K. c #5C7E2C",
"L. c #577628",
"P. c #4B6332",
"I. c #4B6239",
"U. c #476836",
"Y. c #54623C",
"T. c #566836",
"R. c #547E32",
"E. c #59743B",
"W. c #5C7B3B",
"Q. c #587736",
"!. c #636724",
"~. c #647D24",
"^. c #6B7C23",
"/. c #687728",
"(. c #667C36",
"). c #6B7233",
"_. c #586B44",
"`. c #5B7646",
"'. c #4F6840",
"]. c #67774B",
"[. c #667745",
"{. c #598015",
"}. c #658214",
"|. c #69821D",
" X c #6F8405",
".X c #5E8324",
"XX c #5B832B",
"oX c #53812D",
"OX c #59823B",
"+X c #538334",
"@X c #66842B",
"#X c #648337",
"$X c #728536",
"%X c #558740",
"&X c #618143",
"*X c #A79F1A",
"=X c #ADAD0C",
"-X c #AFAE06",
";X c #B2AB05",
":X c #B3AC0B",
">X c #BAA70A",
",X c #ADB30A",
"<X c #B3B30B",
"1X c #BCB40C",
"2X c #B1B207",
"3X c #ACAD1C",
"4X c #A7AC17",
"5X c #B2AE14",
"6X c #B4AC1B",
"7X c #BAAB17",
"8X c #AFB510",
"9X c #ACB31C",
"0X c #A6B51D",
"qX c #B3B213",
"wX c #BAB314",
"eX c #B4B31A",
"rX c #BBB718",
"tX c #9DB22C",
"yX c #9DB433",
"uX c #9BB43C",
"iX c #94B436",
"pX c #9AAA25",
"aX c #ADAE2A",
"sX c #A8AC24",
"dX c #B2AB29",
"fX c #A3B323",
"gX c #ABB223",
"hX c #AFB923",
"jX c #A4B22A",
"kX c #ADB02A",
"lX c #B4B123",
"zX c #B5B926",
"xX c #A5AB34",
"cX c #ACAC33",
"vX c #A5AB3D",
"bX c #ADAD3B",
"nX c #B4AD36",
"mX c #ACB134",
"MX c #A7B538",
"NX c #C1B10E",
"BX c #9BA747",
"VX c #94B347",
"CX c #ADAD42",
"ZX c #A4AC48",
"AX c #B1AB43",
"SX c #B2A74B",
"DX c #A8B247",
"FX c #B0AE4F",
/* pixels */
"0 ~ + L H ' O.=.I.S.#.8 E K E ! Q - T T > :.Y P f p K + ; 9 # s ",
"+ 8 X o o L w f U * R   W - ! ....P @XZXvXAXFX(.].~ `.`.: : p i ",
"q 9 8 - 8 O O.].^.DXDXY U ` _ ! ~ K.yX4XzXsXlXxXJ.OXH D.D.: L O ",
"m. .- E  .w p [.CXsXaXMXFX).P `.Q.|.fX8XeX5XwXmX{.oX] A.] D.L / ",
"f p . - ( #.| Q.mX:XqXqX3XMX/.R.}.tXhXqX4XrXeXpXXX%XK U._ - * F.",
"2 p + 8 ; _ ~ ~.gX;X1X1X:XgX.X.XyXhX4XqX7X4X0X Xq.[ ] A.P.^ / S.",
"7 - 8 - ; P K XXfX<X-X-XrXsXw.XXjX=X5X=XwXqXtX X6.6.6.I 4.,  .q ",
"L W #.* * I I .XtX9X8XqX3XMXXXq.aXwX:XeX5XlXy.jXmXMXmXxXBXY 9 p ",
"@ 8 R Y Y T I K.p.mX9X5X<.BXJ.w.cX=XrX5XdX<.9XqX7X7X7X6XaX:.L } ",
"@ P BXCXCXZXDX}.w.}.bXcX,.^.#X7.r.dX4XnX>.nXeX1XNX>XNXNXsXBX! @ ",
"W $XcXlX3X3X0XtXp.a.5.u.5.> 3.(.8.e.u.>.e.bXeX8X<XqX:X5XMX^.~ # ",
"T BXlX;X<X8X,X0XuXp.V.V.u.g !.9.9.i.V.g <.a.MXfX0XhX4XfXp.OX..| ",
"T ZX6XNXwX<X,X4XuXa.2.5.SXAX> u.G.9.:.<.i.6.w.VXiXuXuX}.q.Z...| ",
"T FXsX>X;X2X<XhXuX^.>.h bXnXbXr.8.e.mXmXCX@XXX+X@X{.q..XZ.P %.{ ",
"R BXnX6XwX8X9Xy.}./.2.h SXcXdXmXr.ZX9XzXvX6.@X7.L.7.0.Z.P.-.{ p ",
"U !.e.cX9X9X3XaXCXa.,.g >.s.mXxXr.AX5X4XMX}.L.(.C.3.Z.S.O.*.s =.",
"h.; G.^.uXfXlXNX7XdXa.0.:.).).9.h SXAXDX{.XXoX+XC.S...O.*.;.0 +.",
"@.t ) 3.}.t.6X>X1X4XuX~.Y [.].) h ,.<.a.oX+XoX+XW.T...} ;.{ 8 - ",
"q 6 ! L.q.yXzX:X;XhXMXa.v.v.X.X.x x !.G.D.oX+X+XW.c.#.$.~ ~ ..8 ",
"W X _ 7.q.uXkX6XgXjXVX@XG.1.( ( ) y 1.T.D.A.%XOXQ.E.#.E + . ..X.",
"L A.I Z.7.@XvXMXCXt.@XC.1., / E.[.( f.o.P.D.A.U.P.! ..! A.K M.+.",
"C.D.T.I D.F.i./.0.Z.G./ x.T.L.(.E.[.o.o.k.' U.M.$.$..._ E.! ~ w ",
"I W.Q._ .. .P.T.X.-._ ( ) v.(.K.R.&Xf o.X.) O.$.} } q 8 - E 0 w ",
"Z.A.- . } *.-. .*.&.O.9 u Y.W.R.H.R.h.r g.f.@.*.;.*.Q = . + @ 0 ",
"  X 8 $ p s ;.O.&.&.| m.7 N.E.W.+XOX1.g.g.b.o.;.&.} ..9 8 O O w ",
"8 ~ X.=.=.p { { &.| ~ c.N.X.E.W.OX' v.n.x n o.a } p ^ / 0 8 0 8 ",
"W { ( Q w O . + K K ^ N.N.& k.P.S.#.1.l.3 n  .X.0 8 L ^ 8 O 8 8 ",
"` #.( 6 w Q ..| ! X : u & g.1.` X.j.V j m 5 d.W 8 W   - . 0 O.I.",
": I L J ( ( O.....8 ` < & 2.x.x.g.n.A B.j 3 e = ; L 9 #.8 8 9 8 ",
"(.W.%.E - W +.+._ 9 % u 2.l.l.x V V B.v Z k 4 k./ - 9 c.W _ X.9 ",
"F.D.' J 8 _ =.O  .h.4 z.A A A B.z v z v S z.r m.( 6 a -._ _ W = ",
"Z.] H J _ +.+.2 9 e 4 C V l.B.l c v z l.D C g.1 7 q q { #._ - ` ",
"L - - ~ ! X.9  .Y.% b.z.g.C m m D S c l Z C n.g.1 f  .+.8 X Y.! ",
"- E _ X 8 - m._.7 N r g.n n.n C D B l j C C M g.b.% t ( Y. .U.X ",
"U.I.$.. . . . Q 7 j.d.r N n M C B l Z B b M M j.b.7 = ; ....W E ",
"'.'...I.9 9 q 7 ..X.d.d f b.N m B l B k n b.f.1 7 % : W 9 ..8 . ",
". 8 O . 8 = .  ...7 d.1 r f.b.n m b m m r 4 X.< X.q _ c.- q . . ",
"+ 8 + . O . ..8 8 X.t 9 1 h.y r b A b 5 5 f.N.; ; 9 v.`.W 0 6 0 ",
"O 0 0 . . E 8 ..7 %. .7 t t t e k 3 3 M f 1 #.P.` - `.^ 9 O q 6 "
};
