/* XPM */
static char *IAlwaysComeBack[] = {
/* columns rows colors chars-per-pixel */
"73 100 60 1 ",
"  c black",
". c #010101",
"X c #020202",
"o c #030303",
"O c #050305",
"+ c #08010B",
"@ c #0D0212",
"# c #1B0526",
"$ c #230731",
"% c #280738",
"& c #390B50",
"* c #400C5A",
"= c #4F0F6E",
"- c #531075",
"; c #541076",
": c #541176",
"> c #551177",
", c #58107C",
"< c #59117C",
"1 c #59117D",
"2 c #6B6B6B",
"3 c #717171",
"4 c #7F7F7F",
"5 c #5C1182",
"6 c #611289",
"7 c #691494",
"8 c #6A1495",
"9 c #6D1499",
"0 c #6D149A",
"q c #6E159A",
"w c #6E159B",
"e c #7315A1",
"r c #7416A3",
"t c #7616A7",
"y c #7716A8",
"u c #7816A9",
"i c #7917AA",
"p c #7B17AD",
"a c #9544BD",
"s c #9646BE",
"d c #994CC0",
"f c #9B4FC1",
"g c #A159C4",
"h c #848484",
"j c #9C9C9C",
"k c #9D9D9D",
"l c #AEAEAE",
"z c #AFAEAF",
"x c #B7B7B7",
"c c #B7B7B8",
"v c #D5B4E5",
"b c #D9BDE8",
"n c #CDCDCD",
"m c #CECECE",
"M c #D6D6D6",
"N c #D7D7D7",
"B c #E5D1EF",
"V c #EADAF2",
"C c white",
"Z c None",
/* pixels */
"ZZZZZZZZZZZZZZZZZZZZZZZZZZZZZZZZZZZZZZZZZZZZZZZZZZZZZZZZZZZZZZZZZZZZZZZZZ",
"ZZZZZZZZZZZZZZZZZZZZZZZZZZZZZpppppppppppppppppppppppZZZZZZZZZZZZZZZZZZZZZ",
"ZZZZZZZZZZZZZZZZZZZZZZZZZZZZppppppppppppppppppppppppZZZZZZZZZZZZZZZZZZZZZ",
"ZZZZZZZZZZZZZZZZZZZZZZZZZZZpppppppppppppppppppppppppppZZZZZZZZZZZZZZZZZZZ",
"ZZZZZZZZZZZZZZZZZZZZZZZZZZpppppppppppppppppppppppppppppZZZZZZZZZZZZZZZZZZ",
"ZZZZZZZZZZZZZZZZZZZZZZZZZZpppppppppppppppppppppppppppppZZZZZZZZZZZZZZZZZZ",
"ZZZZZZZZZZZZZZZZZZZZZZZZZZpppppppppppppppppppppppppppppZZZZZZZZZZZZZZZZZZ",
"ZZZZZZZZZZZZZZZZZZZZZZZZZZppe6666666666upr6666666666pppZZZZZZZZZZZZZZZZZZ",
"ZZZZZZZZZZZZZZZZZZZZZZZZZZpp>          wp1          8ppZZZZZZZZZZZZZZZZZZ",
"ZZZZZZZZZZZZZZZZZZZZZZZZZZpp>ooo O   Oo9p1ooO oooooo8ppZZZZZZZZZZZZZZZZZZ",
"ZZZZZZZZZZZZZZZZZZZZZZZZZZpp>oO3jjjjj4Owp1oo2jjjjjho8ppZZZZZZZZZZZZZZZZZZ",
"ZZZZZZZZZZZZZZZZZZZZZZZZZZpp>o xCCCCCm wp1oozCCCCCMo8ppZZZZZZZZZZZZZZZZZZ",
"ZZZZZZZZZZZZZZZZZZZZZZZZZZpp>OOcCCCCCmO9p1OOzCCCCCMO8ppZZZZZZZZZZZZZZZZZZ",
"ZZZZZZZZZZZZZZZZZZZZZZZZZZpppppbCCCCCBppppppvCCCCCVppppZZZZZZZZZZZZZZZZZZ",
"ZZZZZZZZZZZZZZZZZZZZZZZZZZpppppsgggggdppppppsgggggdppppZZZZZZZZZZZZZZZZZZ",
"ZZZZZZZZZZZZZZZZZZZZZZZZZZpppppppppppppppppppppppppppppZZZZZZZZZZZZZZZZZZ",
"ZZZZZZZZZZZZZZZZZZZZZZZZZZppt99999999999999999999999uppZZZZZZZZZZZZZZZZZZ",
"ZZZZZZZZZZZZZZZZZZZZZZZZZZpp-                       8ppZZZZZZZZZZZZZZZZZZ",
"ZZZZZZZZZZZZZZZZZZZZZZZZZZpp-                       8ppZZZZZZZZZZZZZZZZZZ",
"ZZZZZZZZZZZZZZZZZZZZZZZZZZpp-                       8ppZZZZZZZZZZZZZZZZZZ",
"ZZZZZZZZZZZZZZZZZZZZZZZZZZpp5##+                 @##9ppZZZZZZZZZZZZZZZZZZ",
"ZZZZppppppppppppppppppppppppppp$                 &pppppZZZZZZZZZZZZZZZZZZ",
"ZZZZppppppppppppppppppppppppppp$                 &pppppZZZZZZZZZZZZZZZZZZ",
"ZZZZppppppppppppppppppppppppppp$                 &ppppZZZZZZZZZZZZZZZZZZZ",
"ZZZZppppppppppppppppppppppppppp*%%%%%%%%%%%%%%%%%=pppZZZZZZZZZZZZZZZZZZZZ",
"ZZZZppppppppppppppppppppppppppppppppppppppppppppppppZZZZZZZZZZZZZZZZZZZZZ",
"ZZZZpppppppppppppppppppppppppppZZZZZZZZZZZZZZZZZZZZZZZZZZZZZZZZZZZZZZZZZZ",
"ZZZZpppppppppppppppppppppppppppZZZZZZZZZZZZZZZZZZZZZZZZZZZZZZZZZZZZZZZZZZ",
"ZZZZpppppppppppppppppppppppppppZZZZZZZZZZZZZZZZZZZZZZZZZZZZZZZZZZZZZZZZZZ",
"ZZZZpppppppppppppppppppppppppppZZZZZZZZZZZZZZZZZZZZZZZZZZZZZZZZZZZZZZZZZZ",
"ZZZZpppppppppppppppppppppppppppZZZZZZZZZZZZZZZZZZZZZZZZZZZZZZZZZZZZZZZZZZ",
"ZZZZpppppppppppppppppppppppppppZZZZZZZZZZZZZZZZZZZZZZZZZZZZZZZZZZZZZZZZZZ",
"ZZZZppppppppppppppppppppppppppppppppppppppppppppZZZZZZZZZZZZZZZZZZZZZZZZZ",
"ZZZZppppppppppppppppppppppppppppppppppppppppppppZZZZZZZZZZZZZZZZZZZZZZZZZ",
"ZZZZppppppppppppppppppppppppppppppppppppppppppppZZZZZZZZZZZZZZZZZZZZZZZZZ",
"ZZZZppppppppppppppppppppppppppppppppppppppppppppZZZZZZZZZZZZZZZZZZZZZZZZZ",
"ZZZZppppppppppppppppppppppppppppppppppppppppppppZZZZZZZZZZZZZZZZZZZZZZZZZ",
"ZZZZppppppppppppppppppppppppppppppppppppppppppppZZZZZZZZZZZZZZZZZZZZZZZZZ",
"ZZZZppppppppppppppppppppppppppppppppppppppppppppZZZZZZZZZZZZZZZZZZZZZZZZZ",
"ZZZZppppppppppppppppppppppppppppppppppppppppppppZZZZZZZZZZZZZZZZZZZZZZZZZ",
"ZZZZppppppppppppppppppppppppppppppppppppppppppppZZZZZZZZZZZZZZZZZZZZZZZZZ",
"ZZZZppppppppppppppppppppppppppppppppppppppppppppZZZZZZZZZZZZZZZZZZZZZZZZZ",
"ZZZZpppppppppppppppppppppppppppZZZZZZZZZZZZZZZZZZZZZZZZZZZZZZZZZZZZZZZZZZ",
"ZZZZpppppppppppppppppppppppppppZZZZZZZZZZZZZZZZZZZZZZZZZZZZZZZZZZZZZZZZZZ",
"ZZZZpppppppppppppppppppppppppppZZZZZZZZZZZZZZZZZZZZZZZZZZZZZZZZZZZZZZZZZZ",
"ZZZZpppppppppppppppppppppppppppZZZZZZZZZZZZZZZZZZZZZZZZZZZZZZZZZZZZZZZZZZ",
"ZZZZpppppppppppppppppppppppppppZZZZZZZZZZZZZZZZZZZZZZZZZZZZZZZZZZZZZZZZZZ",
"ZZZZpppppppppppppppppppppppppppZZZZZZZZZZZZZZZZZZZZZZZZZZZZZZZZZZZZZZZZZZ",
"ZZZZpppppppppppppppppppppppppppZZZZZZZZZZZZZZZZZZZZZZZZZZZZZZZZZZZZZZZZZZ",
"ZZZZpppppppppppppppppppppppppppZZZZZZZZZZZZZZZZZZZZZZZZZZZZZZZZZZZZZZZZZZ",
"ZZZZppppppppppppppppppppppppppppZZZZZZZZZZZZZZZZZZZZZZZZZZZZZZZZZZZZZZZZZ",
"ZZZZppppppppppppppppppppppppppppppppppppppppppppppppppppppppppppppppppppZ",
"ZZZZppppppppppppppppppppppppppppppppppppppppppppppppppppppppppppppppppppZ",
"ZZZZppppppppppppppppppppppppppppppppppppppppppppppppppppppppppppppppppppZ",
"ZZZZppppppppppppppppppppppppppppppppppppppppppppppppppppppppppppppppppppZ",
"ZZZZppppppppppppppppppppppppppppppppppppppppppppppppppppppppppppppppppppZ",
"ZZZZppppppppppppppppppppppppppppppppppppppppppppppppppppppppppppppppppppZ",
"ZZZZppppppppppppppppppppppppppppppppppppppppppppppppppppppppppppppppppppZ",
"ZZZZppppppppppppppppppppppppppppppppppppppppppppppppppppppppppppppppppppZ",
"ZZZZppppppppppppppppppppppppppppppppppppppppppppppppppppppppppppppppppppZ",
"ZZZZpppppppppppppppppppppppppppZZZZZZZZZZZZZZZZZZZZZZZZZZZZZZZZZZZZZZZZZZ",
"ZZZZpppppppppppppppppppppppppppZZZZZZZZZZZZZZZZZZZZZZZZZZZZZZZZZZZZZZZZZZ",
"ZZZZpppppppppppppppppppppppppppZZZZZZZZZZZZZZZZZZZZZZZZZZZZZZZZZZZZZZZZZZ",
"ZZZZpppppppppppppppppppppppppppZZZZZZZZZZZZZZZZZZZZZZZZZZZZZZZZZZZZZZZZZZ",
"ZZZZpppppppppppppppppppppppppppZZZZZZZZZZZZZZZZZZZZZZZZZZZZZZZZZZZZZZZZZZ",
"ZZZZpppppppppppppppppppppppppppZZZZZZZZZZZZZZZZZZZZZZZZZZZZZZZZZZZZZZZZZZ",
"ZZZZpppppppppppppppppppppppppppZZZZZZZZZZZZZZZZZZZZZZZZZZZZZZZZZZZZZZZZZZ",
"ZZZZpppppppppppppppppppppppppppZZZZZZZZZZZZZZZZZZZZZZZZZZZZZZZZZZZZZZZZZZ",
"ZZZZpppppppppppppppppppppppppppZZZZZZZZZZZZZZZZZZZZZZZZZZZZZZZZZZZZZZZZZZ",
"ZZZZpppppppppppppppppppppppppppZZZZZZZZZZZZZZZZZZZZZZZZZZZZZZZZZZZZZZZZZZ",
"ZZZZppppppppppZZZZZZZppppppppppZZZZZZZZZZZZZZZZZZZZZZZZZZZZZZZZZZZZZZZZZZ",
"ZZZZppppppppppZZZZZZZppppppppppZZZZZZZZZZZZZZZZZZZZZZZZZZZZZZZZZZZZZZZZZZ",
"ZZZZppppppppppZZZZZZZppppppppppZZZZZZZZZZZZZZZZZZZZZZZZZZZZZZZZZZZZZZZZZZ",
"ZZZZppppppppppZZZZZZZppppppppppZZZZZZZZZZZZZZZZZZZZZZZZZZZZZZZZZZZZZZZZZZ",
"ZZZZppppppppppZZZZZZZppppppppppZZZZZZZZZZZZZZZZZZZZZZZZZZZZZZZZZZZZZZZZZZ",
"ZZZZppppppppppZZZZZZZppppppppppZZZZZZZZZZZZZZZZZZZZZZZZZZZZZZZZZZZZZZZZZZ",
"ZZZZppppppppppZZZZZZZppppppppppZZZZZZZZZZZZZZZZZZZZZZZZZZZZZZZZZZZZZZZZZZ",
"ZZZZppppppppppZZZZZZZppppppppppZZZZZZZZZZZZZZZZZZZZZZZZZZZZZZZZZZZZZZZZZZ",
"ZZZZppppppppppZZZZZZZppppppppppZZZZZZZZZZZZZZZZZZZZZZZZZZZZZZZZZZZZZZZZZZ",
"ZZZZppppppppppZZZZZZZppppppppppZZZZZZZZZZZZZZZZZZZZZZZZZZZZZZZZZZZZZZZZZZ",
"ZZZZppppppppppZZZZZZZppppppppppZZZZZZZZZZZZZZZZZZZZZZZZZZZZZZZZZZZZZZZZZZ",
"ZZZZppppppppppZZZZZZZppppppppppZZZZZZZZZZZZZZZZZZZZZZZZZZZZZZZZZZZZZZZZZZ",
"ZZZZppppppppppZZZZZZZppppppppppZZZZZZZZZZZZZZZZZZZZZZZZZZZZZZZZZZZZZZZZZZ",
"ZZZZppppppppppZZZZZZZppppppppppZZZZZZZZZZZZZZZZZZZZZZZZZZZZZZZZZZZZZZZZZZ",
"ZZZZppppppppppZZZZZZZppppppppppZZZZZZZZZZZZZZZZZZZZZZZZZZZZZZZZZZZZZZZZZZ",
"ZZZZppppppppppZZZZZZZppppppppppZZZZZZZZZZZZZZZZZZZZZZZZZZZZZZZZZZZZZZZZZZ",
"ZZZZppppppppppZZZZZZZppppppppppZZZZZZZZZZZZZZZZZZZZZZZZZZZZZZZZZZZZZZZZZZ",
"ZZZZppppppppppZZZZZZZppppppppppZZZZZZZZZZZZZZZZZZZZZZZZZZZZZZZZZZZZZZZZZZ",
"ZZZZppppppppppZZZZZZZppppppppppZZZZZZZZZZZZZZZZZZZZZZZZZZZZZZZZZZZZZZZZZZ",
"ZZZZppppppppppZZZZZZZppppppppppZZZZZZZZZZZZZZZZZZZZZZZZZZZZZZZZZZZZZZZZZZ",
"ZZZZppppppppppZZZZZZZppppppppppZZZZZZZZZZZZZZZZZZZZZZZZZZZZZZZZZZZZZZZZZZ",
"ZZZZppppppppppZZZZZZZppppppppppZZZZZZZZZZZZZZZZZZZZZZZZZZZZZZZZZZZZZZZZZZ",
"ZppppppppppppppppZppppppppppppppppZZZZZZZZZZZZZZZZZZZZZZZZZZZZZZZZZZZZZZZ",
"ZppppppppppppppppZppppppppppppppppZZZZZZZZZZZZZZZZZZZZZZZZZZZZZZZZZZZZZZZ",
"ZppppppppppppppppZppppppppppppppppZZZZZZZZZZZZZZZZZZZZZZZZZZZZZZZZZZZZZZZ",
"ZppppppppppppppppZppppppppppppppppZZZZZZZZZZZZZZZZZZZZZZZZZZZZZZZZZZZZZZZ",
"ZppppppppppppppppZppppppppppppppppZZZZZZZZZZZZZZZZZZZZZZZZZZZZZZZZZZZZZZZ",
"ZppppppppppppppppZppppppppppppppppZZZZZZZZZZZZZZZZZZZZZZZZZZZZZZZZZZZZZZZ",
"ZppppppppppppppppZppppppppppppppppZZZZZZZZZZZZZZZZZZZZZZZZZZZZZZZZZZZZZZZ",
"ZppppppppppppppppZppppppppppppppppZZZZZZZZZZZZZZZZZZZZZZZZZZZZZZZZZZZZZZZ"
};
