/* XPM */
static char *_e061e6679fc49c3ff3210ab904e7741NPElsBiwvgGdLW3Q[] = {
/* columns rows colors chars-per-pixel */
"64 64 224 2 ",
"   c #030506",
".  c #0A0204",
"X  c #04030B",
"o  c #09060E",
"O  c #0C0B0D",
"+  c #140507",
"@  c #140A0D",
"#  c #1C0D0E",
"$  c #060013",
"%  c #090313",
"&  c #080516",
"*  c #0C021B",
"=  c #1C0B13",
"-  c #16091B",
";  c #131314",
":  c #191517",
">  c #16151B",
",  c #18151B",
"<  c #1A1B1D",
"1  c #2D0C10",
"2  c #290B19",
"3  c #28191B",
"4  c #3B1214",
"5  c #3D191C",
"6  c #0D0022",
"7  c #0E002B",
"8  c #120325",
"9  c #180A25",
"0  c #13012D",
"q  c #1A1227",
"w  c #1B1C20",
"e  c #170036",
"r  c #1A0136",
"t  c #170038",
"y  c #2A0F2C",
"u  c #340D23",
"i  c #231E2A",
"p  c #260636",
"a  c #2A0736",
"s  c #390B37",
"d  c #3A0C35",
"f  c #1F2023",
"g  c #242425",
"h  c #262529",
"j  c #282729",
"k  c #2A2A2C",
"l  c #382528",
"z  c #292634",
"x  c #2D2C32",
"c  c #322E33",
"v  c #2E3136",
"b  c #343437",
"n  c #373439",
"m  c #3A3B3D",
"M  c #421414",
"N  c #46181A",
"B  c #631D1D",
"V  c #71201F",
"C  c #491328",
"Z  c #521824",
"A  c #461035",
"S  c #4D1235",
"D  c #521436",
"F  c #5E1836",
"G  c #631D21",
"H  c #6A1E28",
"J  c #6A1C34",
"K  c #4D3030",
"L  c #6B2525",
"P  c #752323",
"I  c #792134",
"U  c #6C3133",
"Y  c #683334",
"T  c #6D4129",
"R  c #383941",
"E  c #3C3D42",
"W  c #413F42",
"Q  c #5F3E41",
"!  c #374147",
"~  c #3C4246",
"^  c #3C4448",
"/  c #444447",
"(  c #4A464D",
")  c #4C494E",
"_  c #594C4E",
"`  c #454B52",
"'  c #4D4B51",
"]  c #554C51",
"[  c #4E5152",
"{  c #535255",
"}  c #55545A",
"|  c #595559",
" . c #5B5C5D",
".. c #704A4D",
"X. c #695957",
"o. c #555B62",
"O. c #5D5C62",
"+. c #635E65",
"@. c #645F68",
"#. c #5B6369",
"$. c #636164",
"%. c #64646A",
"&. c #67676B",
"*. c #79656B",
"=. c #636E74",
"-. c #6C6C74",
";. c #736E76",
":. c #647176",
">. c #647179",
",. c #6B7479",
"<. c #727176",
"1. c #75727A",
"2. c #79767E",
"3. c #7C797C",
"4. c #82262A",
"5. c #962C2D",
"6. c #9B2D2D",
"7. c #862534",
"8. c #982B33",
"9. c #8D3435",
"0. c #913637",
"q. c #A22E34",
"w. c #A43435",
"e. c #AB3133",
"r. c #A63B3D",
"t. c #AB3C3D",
"y. c #B43533",
"u. c #BD3733",
"i. c #9C5127",
"p. c #B05438",
"a. c #BC5639",
"s. c #C25E33",
"d. c #C06029",
"f. c #C86536",
"g. c #863E40",
"h. c #894447",
"j. c #9A4447",
"k. c #9D4A4C",
"l. c #855559",
"z. c #985559",
"x. c #A2494A",
"c. c #B94D4E",
"v. c #B65549",
"b. c #8E604D",
"n. c #BB6C4C",
"m. c #8F5C62",
"M. c #925D62",
"N. c #956064",
"B. c #996668",
"V. c #906C72",
"C. c #8A757B",
"Z. c #8D797B",
"A. c #937C7D",
"S. c #A57463",
"D. c #AC7071",
"F. c #C1644E",
"G. c #C97972",
"H. c #B5867B",
"J. c #6F7780",
"K. c #7B7B83",
"L. c #837D85",
"P. c #8D7A81",
"I. c #957A81",
"U. c #75838B",
"Y. c #7C828A",
"T. c #7F8B93",
"R. c #84848C",
"E. c #89858D",
"W. c #8B8D8D",
"Q. c #968B8E",
"!. c #898790",
"~. c #858B93",
"^. c #8B8A92",
"/. c #938D95",
"(. c #86959D",
"). c #8D939C",
"_. c #87989F",
"`. c #91949C",
"'. c #9B9A9A",
"]. c #A59694",
"[. c #8797A0",
"{. c #8D96A0",
"}. c #8B99A2",
"|. c #9197A1",
" X c #929BA4",
".X c #949FA9",
"XX c #95A2AD",
"oX c #9BA2AA",
"OX c #97A6B0",
"+X c #98A7B1",
"@X c #9AABB5",
"#X c #9BAEB9",
"$X c #9DB1BB",
"%X c #A3A3A4",
"&X c #A9AAAA",
"*X c #B1A9AD",
"=X c #A2B4BD",
"-X c #ACB3B8",
";X c #BBBABA",
":X c #CA8E8F",
">X c #D48182",
",X c #D1A5A1",
"<X c #EBBDBC",
"1X c #F1BFBF",
"2X c #A7B8C3",
"3X c #A9B9C2",
"4X c #B8C4CB",
"5X c #C6C8C9",
"6X c #D6C6C5",
"7X c #C2CED4",
"8X c #D4CFD1",
"9X c #C5D1D7",
"0X c #CAD5DB",
"qX c #D1D6DA",
"wX c #DCDCDC",
"eX c #D9DDE0",
"rX c #DDE4E8",
"tX c #E2E2E2",
"yX c #E7E9EA",
"uX c #E2E9ED",
"iX c #F4E6E6",
"pX c #EDF2F4",
"aX c #F1F3F4",
"sX c #F8FAFA",
/* pixels */
"e e e e e e e e e e e r e e e e r t e 6 * o                 X & 6 e t t t t t e e e e e e e e e e e e e e e e r e e t t t t t t ",
"e e e e e e e r e e e e e e r e t e 0 8 * o .   O   O     . % * 8 0 e t t t e t e e e e e e e e e e e e e e e e e e t t t t e e ",
"e e e e r e e e e r e e e e e r t r e 8 * o o O @ # # # # # 2 = 9 0 e e e e e t e e e e e e e e e e e e e e e e t t r q e e e e ",
"e e e e e e e e e e e e e e t r t e 0 6 & O + # 1 4 N N N M 4 2 2 8 6 0 e e t t t t e t t t t e t e e e e e e e t t e e e e e e ",
"e e r e e e r e e e e e e e e e e e 0 6 * o @ 1 N L P P P V B N 2 - 6 6 7 e t t e t t r t t t t e e e e e e e e e t e e e e e e ",
"e e e e e e e e e e e e e e e r e e e 6 $ o # 4 B 4.5.6.6.5.I L 4 = & * 6 e e t e e e e t e e e e t e e e e e e t e t t e e e e ",
"e e e e e e e e e e e e e e r t e e e 7 * & = 4 B 4.5.w.p.w.0.L N # X $ * 0 e 0 e 0 0 0 0 e e e e e t e e t t e e t t t e e e e ",
"r e e e e r e e e e e e e e e t e e e 0 6 * - 2 N B P 0.j.j.h.U 5 ; X X $ * 6 6 6 6 6 6 6 * 6 8 7 e t t t e t e t e r r e e e e ",
"e e e e e e t t e e e e e e e e e e e 0 0 8 9 2 2 4 Z Y ..z.l.Q l #     X $ $ $ % % % $ $ & $ 6 0 e t r t e e e e e e e e r e e ",
"e e e e t t e t e e e e e e e e e e e e e e 8 8 - = l K X.*.*.| n < .   X o o o % o o o X & & * 8 e e e e e e e e e e e e e e e ",
"e e e e e t e t e e e e e e e e e e e e 0 e 8 6 - , h W +.;.;.+./ k < > < < w w w w w w w w w q 9 0 e 0 e e e e e e e r e e e e ",
"e e e e t e e e e e e e e e e e e e e 0 7 6 8 q i z W ] @.2.2.-.O.` ^ ! ~ ~ ^ ! ^ ~ ~ ^ ! ! R R i q 8 0 0 e e e e e e e e e r e ",
"e e e e e e e e e e e e e e e e r r e 0 6 * - i n ( | %.,.3.K.K.1.>.>.=.=.>.>.=.=.:.:.>.>.:.#.^ z q 6 6 8 e e t t e e e e r r t ",
"e e e e e e e e e e e e e e e e e e e 6 * & > x ( @.;.2.C.L.R.^.(.(.[.[.[.[.[.[._.(._.}.}._.U.#.R q & & 6 e t t e e e e e r t t ",
"e e e e e e e e e e e e e e e e e 0 0 8 - > j / O.2.E.E.E.E.^.). XOX@X#X@X#X@X@X#X+X#X$X$X@XT.>.! w o & 6 0 t t t e e e t t e e ",
"e e e e e e e e e t e e e e e 7 0 0 9 q i x E } ;.E.`.`.).).).}.XX@X#X$X$X#X#X$X$X$X$X=X2X#X}.>.^ w O $ * e r t t e e e e e e t ",
"e e e e e e e e e e e r r t 0 7 6 * 9 h n ( O.-.R.{..X.X X XXX X+X@X#X#X#X#X#X#X#X#X#X$X$X#X_.:.^ < O $ 6 e e e t e e e e t t e ",
"e e e e e r e e e e e e t e e 6 * & > x ( @.2.~.{..XOX+X+XOX+X+X@X#X#X#X#X#X#X#X#X#X#X#X$X#X_.:.~ < % % * e e e t e e e e r e t ",
"e e e e e e e e e e e e t e 0 6 $ % > b } 2.~.|..X+X#X=X2X2X=X2X=X4X3X3X-X=X-X3X2X2X4X4X4X3XXX,./ < o % 6 0 e t t e e e e t t e ",
"e e e e e e e r e e e t t e e * $ o > m O.L.|..X+X@X=X3X4X4X7X9X9X4X9X9X0X0X9X9X0X4X0X0XwX4X-XW.[ i o % * e t t t e e e t r e t ",
"e e e e e e e e r t t t t e 0 6 $ o < E %.T..X+X@X#X=X4X9XqXrXyXuXuXuXuXuXrXuXuXuXuXpXpXpXuX5X_. .g % X 6 0 e t e e e e e e e e ",
"e e e e e e e e e t e t t e 0 6 $ % w E =.(.OX@X@X#X=X4XqXyXpXaXaXaXpXaXpXpXaXpXpXpXpXsXaXyXqX'. .g O $ * e t t e e e e e e e e ",
"e e e e e e e e e e t t r t e * $ % w ^ =.(.@X#X$X#X3X4XrXpXsXaXyXtXtXwXwXwXwXtXtXeXrXrXrXwX;XH.{ g O X 6 0 t t t e e e e e e e ",
"e e e e e e e e t e t t t e 0 6 % o w ^ >.[.@X2X$X$X3X9XrXaXaXwX5X&X%X'.%X'.%X%X%X%X%X%X&X%XW.&.~ < o $ * 0 t t e e e e e e e e ",
"e e r r e e e e e e e t t e e * % o w ^ :._.#X=X#X#X=X9XrXaXyX5X'.<. .{ {  . . .$.$.$.$.$. .[ m g ; % $ 6 7 e t t e e e e e e e ",
"e e t t e e e e e t e e t e 0 6 $ o < ^ :.(.@X$X#X#X3X9XuXaXtX;X3./ k g g k k k j j j k k j g < ; O O $ 6 e e t e e e e e e e e ",
"e t r t e e e e e e e t t e 0 6 % o < ^ =.(.+X#X@X#X3X9XyXaXtX*X3./ k g g k g < ; O O ; g g g g ; O O * 6 e e t e e e e e e e e ",
"t e t e e e e e e e e e r e 0 6 % o < ~ #.~.oX+X@X#X3X9XyXaXyX5X'.<. . . . .[ m g O O g m [ [ ~ j ; % $ 6 0 e t e e e t e e e e ",
"e t e t e e e e e e e t t e 0 6 % o < m $.Y.`.oX+X@X3X9XrXaXaXtX5X&X&X%X&X%XW.#.b ; : m %.W.W.,./ < o $ 6 e e t t t e t t e e t ",
"t e e e t t e e e e e e t e 0 6 % o : b | 1.^.).oX+X2X7XrXaXsXsXyXtXwXwXtXwX3XH.[ g g [ W.;X;XW.| g o $ * 0 e e t e t e e e t t ",
"e e e e e e e e e e e t t e 0 6 $ % : k ( +.2.R.).oX#X4XqXyXyXiXiXiXiXiXiXtX5X].X.l K *.].6X<X`.X.g o $ 6 e t t t e e t e t e t ",
"t e e e e e e e e e e e t r e 6 $ o ; f b (  .;.Y.).oX-X4X5X8X8X6X<X<X<X1X<X,XH.b.T T b.H.,X*XH._ g o $ * e t t t e t e t e t e ",
"e e e e e t e t e e e t t r 0 6 * o O : i j W | ,.L.|.XX@X*X*X,X:X:X>X>X>X>XG.n.b.i.i.p.n.G.D.l.K 3 X & 6 7 t t t t e t e e e e ",
"e e e e t e t e e e e t t r e 8 * o     O > h W @.K.L./././.Q.I.S.n.c.c.c.c.v.v.d.d.d.f.F.v.x.Y Z 3 o $ 6 0 e t t e t e e e e e ",
"e e e e e t e t e e e t e t e 7 * & $ X   o : c ] *.I.I.I.P.V.M.k.x.t.t.t.t.p.a.d.f.f.s.a.p.0.L 5 # % & 6 e e t t t e t e e e e ",
"e e e e r e t e e e t t t t e 7 8 * $ X     ; l Q l.M.M.M.M.z.z.z.k.j.j.j.j.x.x.n.n.n.n.v.k.9.Y 5 ; $ & 6 e e t t e t e e e e e ",
"e e e e e t e t e e e e e e e 7 0 6 6 & $ X # 5 U g.k.x.x.x.z.z.z.z.m.m.m.m.M.B.S.S.S.B.B.N.X.Y l ; O $ 6 e e r r e e e e t e e ",
"e e e e t e t e e e e e e e e e r e 7 6 $ o # 5 H 0.t.t.t.t.x.k.M.V.C.C.C.C.C.Z.Z.A.A.H.A.C.*._ c : % $ 6 0 t t t e e e t e e t ",
"e e e e t e e e e e e e e e t p p p y 8 * o # C U 0.r.t.t.t.x.z.V.R.!.~.!.!.E.E.E.E.!.!.^.E.1.| n > O $ 6 0 e t t t e e t e t e ",
"e e e r e t t e e e e e e t t a d A A u = @ , 5 Y h.x.x.x.x.z.B.A./.|.}.{.|.{.).{.{.).|. X).Y.#.m > o $ 6 e e t r e e e e t e t ",
"e e e e e e e e e e e e e e r s D J J C 1 @ 2 l Q l.M.M.M.B.V.I./. XoX+XOXXXOX.XXX.XXXOXOX.XT.#.~ w o $ 6 0 t r t e e e e e e e ",
"e r e e e r e e e e e e e t a A J 7.4.G 4 # : k ' *.C.C.C.I.P.^.`..X+X+X+XOXOXOXOXOXOX@X#X+X(.=.~ < % % * e e t t e e e e e r e ",
"e e e e e e e e e e t r e p d F 7.8.5.B M # : b } ;.L.L.P.L.^.^.~.(.[.[.[.(.[.(.(.[.{..XOXXX~.=.~ < % $ 6 0 t t e e e e e e r e ",
"e e e r e e e e e e r p s A F I 8.q.6.P M # < v } 1.E.!.^.L.L.K.J.>.>.>.>.>.>.=.=.>.J.U.(.}.~.=.~ < o $ * e t r t e e e e e e r ",
"e t e e e e e e e t p s D J I 8.w.e.6.V M # > v } -.L.^.^.E.K.-.o.` ! ! ! ^ ^ ! R R ` #.K.~.L.%.m < o $ 6 0 e r r e e e e t r t ",
"t t t e e e e e t e p A J 7.8.e.e.e.5.V M # , v } ;.L.^.!.L.1.$./ z < : < w w > w w x / %.2.1. .m : O $ 6 0 e r r e e e e e t e ",
"e t e t e e e e e e a D I 8.e.y.u.e.5.L 4 # , b } ;.L.L.L.;.%.] n 3 # + O . O O O > h R } %.$.] v > & * 6 e t r t e e e e t e t ",
"r e e e e e e e e e a D I q.y.u.u.y.5.P M # , v | ;.L.2.&.+.] K K M 4 1 + .   ; w x n / ) ' ( R h 9 * 6 7 e t t t e e e t e t e ",
"e e e e e e e t t t a D I w.y.u.u.y.6.V 4 # : b } 1.3.-.} W n K G B B M 1 + O f n ( ] ' W n c i q 8 0 0 0 e e e e r t e e e e e ",
"e e e e e e e 0 t t a D U 8.e.u.y.e.5.V 4 # < b } ,.;.O.E j 3 N L 4.4.B 4 # : k ' @.@.| E h > - 9 0 0 e e e e e t t e t e e e e ",
"e e e e e e e e 7 t r A J 7.8.q.q.8.4.B 4 # > x ' +.@.' z q = 4 L 4.4.G 4 @ : x ' +.@.' n - & * 8 e e e t e e e e t e e e e e e ",
"e e e e e e e e t t r d D J I I I J H C 1 @ ; f n ( ( R i - - u Z H J N 4 @ ; g m ' ' E h 9 * * 6 e r e r e e e r t e t e e e e ",
"t e t e e t e e e e r a d A S D D S A u - O O < g x k z q 8 9 y d A A u 2 O O ; j c c z q 9 0 7 0 e e r r t t e e e e r e e r e ",
"e t t e t e t e e e r r p p a a a p y 9 - o O O ; ; > q 9 0 e e p p a 9 - @ O O ; ; > - 9 8 e 0 e e e e t t e t e e e e e e e e ",
"r e t e e e t t e e e e e e t t e e e 8 * & O o o o & 6 8 e e t e e 0 9 * & o o o o & * 8 e e e e e e e t t t e e r e e e r e e ",
"t t e t e e t t e e e e e e e e e e e 8 8 * & & % $ * * 0 e e t e e e 0 8 * & $ % $ * 8 0 e r e e e e e e r e t e e e e e e e e ",
"e t t r e t r t e e e e e e e e e e 0 7 7 q 9 6 6 6 6 8 e e t t t e e 7 0 6 6 6 6 6 6 7 0 e e e t e e e e e t e e e e e e r e e ",
"e e t e t e t t e e e e e e e e e e t e 0 e e 7 0 e 0 e e e e e t e e e e e 0 e e 0 0 e e e e e e e e e e e e e e e e e e e e e ",
"t e e t e t r r e e e e e e e e e e e e t e e e e e e e e e e e e t e t e e e e e e e e e e e e e e e e e t e e e e r r e e e e ",
"e t t e t e e e e e e e e e e e e e e e t t t t t e e e e e e e t e t e t t t e t t t t e e e e e e e t t t e e r e r e e e e e ",
"e e e e e e e e t r e e e e e e e t e t e e t t e e t e e e e e e e e e e e e e e t e e t e t e e e e e r e e e e e e e e e e e ",
"e e e e e e e e t e t t e e e e t e t e e e e t e e e e e e e e e e e e e e e e e e e e r t e t e e e e e e e e e e e e e e e e ",
"e e e e e e e e e t t e e e e e t t t t e e t e e e e e e e e e e e e e e e e e e e e e e t r t e e e e e e e e e e e e r e e e ",
"e e e e e e e e t e e e e e e e t t t t e t e t e e e e e e e e e e e t e e e e e e e e t e e e e e e e e e e e e e e e e e e e "
};
