/* XPM */
static char *midtree[] = {
/* columns rows colors chars-per-pixel */
"53 64 252 2 ",
"   c #1D350D",
".  c #1F3A0D",
"X  c #1C3903",
"o  c #1E3512",
"O  c #1E3B12",
"+  c #1C381B",
"@  c #1A2E12",
"#  c #272D0D",
"$  c #24360D",
"%  c #233C0D",
"&  c #2A3B0C",
"*  c #283B04",
"=  c #363B0A",
"-  c #282E14",
";  c #392A16",
":  c #213614",
">  c #2C3414",
",  c #243C13",
"<  c #2A3C15",
"1  c #24361C",
"2  c #253B1A",
"3  c #2B3D1C",
"4  c #2D371A",
"5  c #333C13",
"6  c #35341B",
"7  c #3A341C",
"8  c #343B1B",
"9  c #3B3B1D",
"0  c #363515",
"q  c #342B05",
"w  c #243B24",
"e  c #293C26",
"r  c #3B3C23",
"t  c #383A24",
"y  c #1E3A23",
"u  c #483A06",
"i  c #472C1C",
"p  c #552F1A",
"a  c #47381A",
"s  c #53321E",
"d  c #58351B",
"f  c #63351D",
"g  c #4C2E21",
"h  c #453523",
"j  c #4D3323",
"k  c #453C26",
"l  c #4B3C25",
"z  c #4C3C2A",
"x  c #453C28",
"c  c #533422",
"v  c #553A25",
"b  c #523C2B",
"n  c #5B3C29",
"m  c #5A3B25",
"M  c #623B25",
"N  c #1E4108",
"B  c #1E4213",
"V  c #264706",
"C  c #24420D",
"Z  c #2B440D",
"A  c #2A490A",
"S  c #344303",
"D  c #3B4302",
"F  c #354900",
"G  c #37460A",
"H  c #254213",
"J  c #2B4214",
"K  c #2E4C13",
"L  c #274419",
"P  c #2C441B",
"I  c #2D4A1B",
"U  c #324615",
"Y  c #32451C",
"T  c #3B441C",
"R  c #334A1C",
"E  c #384A17",
"W  c #2D5113",
"Q  c #3B531B",
"!  c #3C5B1C",
"~  c #365517",
"^  c #32520F",
"/  c #2C4324",
"(  c #2A4926",
")  c #2B442B",
"_  c #2D4A2C",
"`  c #264421",
"'  c #334522",
"]  c #3C4422",
"[  c #354B23",
"{  c #3B4C24",
"}  c #3B442B",
"|  c #344C2B",
" . c #3A4C2B",
".. c #33452A",
"X. c #3C5225",
"o. c #3B532B",
"O. c #385526",
"+. c #2E4B31",
"@. c #2F4630",
"#. c #334C33",
"$. c #3A4A30",
"%. c #344F38",
"&. c #385134",
"*. c #474704",
"=. c #544809",
"-. c #49580D",
";. c #595706",
":. c #45441C",
">. c #474A1B",
",. c #47591B",
"<. c #595A14",
"1. c #574819",
"2. c #635A14",
"3. c #5B6608",
"4. c #57670E",
"5. c #4C6A1B",
"6. c #466218",
"7. c #55641D",
"8. c #5D6B1A",
"9. c #596417",
"0. c #5B7B1C",
"q. c #587718",
"w. c #5E710D",
"e. c #646508",
"r. c #666718",
"t. c #697B1A",
"y. c #647919",
"u. c #767617",
"i. c #6C7B05",
"p. c #434B24",
"a. c #44442B",
"s. c #4B432B",
"d. c #474827",
"f. c #54422D",
"g. c #564627",
"h. c #425425",
"j. c #43542B",
"k. c #445C2C",
"l. c #495726",
"z. c #525829",
"x. c #4B4932",
"c. c #554531",
"v. c #4C5D34",
"b. c #475834",
"n. c #545B34",
"m. c #63412E",
"M. c #6A5B26",
"N. c #674531",
"B. c #4B6424",
"V. c #4C6A24",
"C. c #45642B",
"Z. c #4C632D",
"A. c #4B6A2A",
"S. c #456626",
"D. c #556926",
"F. c #4E7929",
"G. c #5B7D24",
"H. c #567529",
"J. c #597829",
"K. c #4A6333",
"L. c #4A6637",
"P. c #536B35",
"I. c #556737",
"U. c #4D7434",
"Y. c #547D32",
"T. c #59743B",
"R. c #5B7B3A",
"E. c #577735",
"W. c #626523",
"Q. c #677927",
"!. c #647836",
"~. c #75792A",
"^. c #4F6840",
"/. c #5B7544",
"(. c #5B6940",
"). c #657746",
"_. c #606F44",
"`. c #837B27",
"'. c #5A811B",
"]. c #668218",
"[. c #75891A",
"{. c #73890D",
"}. c #5D8225",
"|. c #57822B",
" X c #548233",
".X c #588239",
"XX c #688729",
"oX c #778927",
"OX c #789428",
"+X c #708934",
"@X c #5A8340",
"#X c #868919",
"$X c #8C9516",
"%X c #98A31A",
"&X c #AEAE09",
"*X c #B4AD0B",
"=X c #B7AB09",
"-X c #ADB20B",
";X c #B3B30C",
":X c #B9B30C",
">X c #ABAD15",
",X c #AAAC19",
"<X c #B3AE15",
"1X c #B4AD1B",
"2X c #B9AC17",
"3X c #AEB412",
"4X c #ACB31C",
"5X c #A6B41D",
"6X c #B3B214",
"7X c #BAB314",
"8X c #B4B31A",
"9X c #BAB519",
"0X c #858B26",
"qX c #869726",
"wX c #989724",
"eX c #858C34",
"rX c #889634",
"tX c #959D36",
"yX c #938E30",
"uX c #8DA42A",
"iX c #98A828",
"pX c #9EB22C",
"aX c #97A837",
"sX c #9CB436",
"dX c #8CA531",
"fX c #ABAD24",
"gX c #ACAD2C",
"hX c #A4A828",
"jX c #B2AD23",
"kX c #B1AC2B",
"lX c #A4B324",
"zX c #ACB324",
"xX c #A5B32B",
"cX c #ABB32A",
"vX c #AFB923",
"bX c #B3B222",
"nX c #B3B429",
"mX c #A6AB3C",
"MX c #ACAD3B",
"NX c #A9AA34",
"BX c #B2AD37",
"VX c #ABB234",
"CX c #A6B538",
"ZX c #A6B336",
"AX c #A29A2E",
"SX c #C1B10E",
"DX c #9CA745",
"FX c #91B043",
"GX c #AAAD44",
"HX c #B1AA49",
"JX c #A8B245",
"KX c #9C9842",
/* pixels */
"2 L L , O C N N ^ ^ |  .$.b.L.Z.k.X.< , H H B H H I I P % % F F F D = *.*.D Z U t e w B B O % & < 2 @ y e ",
"2 , L O O X N N K K / ..} o.h.h.Q R H % H H H J J I ' I Z Z -.5.8.r.r.r.r.r.,.,.b...w [ O.[ J * < , + w w ",
"O O , . . X X X N C 1 e t G S * S F * X J % % P I [ [ [ J ~ XXrXGXmXGXHXHXHX!.!.).k.L /././.R * * $ w y y ",
"L < < , , X . % O : ( j.I.D.r.rXrXeX-.S S U U Y R I I I V.G.dXiXlXcXcXgXBXkXaXrX|.F.U.W ! U.S.O.* % < + : ",
"3 P < , , % , , o + | b.).+XoXGXJXJX9.*.G G >.R R [ I I J.XXsXlX>XvXnXfXnXbXgXdX'.|. XV W A.V.S.% * C % O ",
"b.b.' < % H J ' 3 2 w b.).KXGXfXgXgXVXCXHXKX!.E K /.T.E.].oX5X5X3X8X6X<X6X7XgXaX'.|. XW W C.~ ^ V.O.C U U ",
"x.} / 2 % , J Y / Y ` &.!.tXMX>X,XbXzXcXMXaXeX7.B.R.E.G.OXqXvX4X6X3X8X6X8X6XgXuX'. X XW W L.O.W ~ ^ C Q ,.",
"t e w o   % J Y [ { ( o.T.aXVX=X*X6X<X8X1XcXCXoXQ.Y.}.].iXpXvX4X6X>X>X9X9X8XlXqX X.X@XB I L.X.R C % * ,.A.",
"- 1 w , . , < Z R R L ! XXiXfX=X=X:X:X:X;X8XzXXX}.}.OXiXlXzX,X3X6X<X2X,X>X5X{.{.0.F.5.A W C.C.k.K U K l.Z.",
"@ 1 w , , , % 5 U R H ! G.iX4X&X;X:X:X:X*X<XzXXX}.}.OXsXvXzX,X>X6X<X<X>X5XlX{.{.q.5.6.^ ~ S.C.K.U U U h.k.",
"- 1 % , , % & & Z Z B ! }.uX5X;X&X&X&X*X9X8XfX].'.|.OXxX3X&X<X&X&X7X7X6X5XpX{.i.3.3.4.3.;.V -.1.= 5 ' P 3 ",
"< < , P I * * * Z V C ! }.uXlX3X;X-X-X*X8XzXxXXX}.}.qXxX6X<X*X<X<X6X<X8X%X$X$X$XqX[.$XOX[.Q.Q.oX= G P 3 3 ",
"C H J [ X.* * * V V V ^ }.uXxX4X3X3X6X>X,XgXCX+X|.0.qXzX2X7X*X<X8X<X=XjX$Xi.pXxXcXVXMXBXgXNXDXDXD G < 3 y ",
"+ , , G G D D D F F V 6.|.].[.VXcX8X<X>Xe.oXDXXXG.q.qXgX>X*X7X6X<XjXwXe.#X<X6X6X2X1XjX2X1XjXgXgX*.D H ` ) ",
"+ O H ,.6.<.<.<.4.6.,.5.}.y.t.iXhXzX,X,X;.u.tXXXG.q.oXwX>X<X8X<X1XwX#Xu.$X8X7X7X2XSX2X2X2X1XjXfX<.,.H L ) ",
"+ , Z +XDXMXMXGXGXGXJXdX].0.q.].0XMXNXhX=.<.Q.XXY.5.4.e.hXfX>X1XBX;.2.BX2X8X:X:XSX=X=XSXSXSX1XfXGX+XI L y ",
"L Q D.rXmXkXkXkXcXgXxXiXuX].w.].[.`.`.`.2.<.;.D.D.J.r.e.u.#X`.`.u.;.r.BXvX9X3X;X:X*X<X*X:X7XcXxXoXQ.L B + ",
"J h.+XaXNXjXjXzX4X4X5XpXpX{.t.].r.2.r.M.2.=.= ,.B.!.Q.9.2.e.r.;.=.;.u.MXcX9X3X3X;X;X7X*X*X6XcXcX~.D.L + + ",
"F 7.DXgX8X=X*X;X3X3X-X3X5XsXaXw.W.M.M.M.r.1.u <.W.8.7.7.r.r.M.1.u ;.;.[.uXCXpX5X5XvXvX3X,XlX[.].R.U.[ ( ` ",
"F 8.DXcXjX=X;X:X-X-X-X3X5XsXaX].r.M.M.W.`.u.2.<.z.<.9.7.9.r.<.1.*.;.e.w.OXuXpXsXpXxXcXlX%XuX[.y.Y.U.[ ( ( ",
"F 8.GXkX1XSXSX9X:X;X-X-X>XsXsXt.r.1.2.M.HXHXMX=.*.r.W.D.D.<.*.*.;.r.r.3.w.q.FXFXsXsXsXsXuX].'.0.V.B.[ ( ( ",
"F 8.GXVX,X=X=X*X&X;X-X;X5XsXaXt.r.=.u 2.HXHXBXyX`.e.r.<.3.e.0XwX#XtXrXy.G.XX+X+XOXOXXXXXXXXXq.H.~ Q o.' / ",
"F 8.HXNXfX=X=X=X&X;X;X;XvXsXaXQ.2.=.u =.MXBXBXBXNXe.r.3.e.u.VXVXVXGXaXXX|.|. X XXX'.'.'.0.}.H.A.J Y o.( / ",
"G D.DXMXBX1X2X7X6X;X3X%Xi.].t.Q.W.1.u =.HXHXNXkXjXMX#Xe.tXGX4XvXbXNXtX3.y.XX5.5.J.5.5.5.7.V.Z.K.o.| / w w ",
"F <.eXrXwXjX1X1X3X3XfX%X$X#XOXQ.r.1.u =.eXyXwXhXkXNX#Xe.KXHX8X8XbXVXaXw.0.Q.H.V.H.B.6.7.D.V.k.k.#.#.) e ) ",
"D -.W.r.e.NXkX,X4X4X,XjXkXBXmXt.<.=.u u *.2.u.hXBXNX#Xe.AXBX<X>X>XZXaX].0.J.!.!.B.6.,.A.A.Z.o.| #.@.w ..$.",
"T :.G ,.D.0XqXsXlXlXbX8X2XjXjXwX#Xr.<.-.*.<.~.`.~.t.<.=.AXHXBXMXCXOX].}.|.|.|.Y.B.Z.B.X.X.o.#.| %.| 3 .. .",
"j.] & l.D.Q.OXaXiXlXbX2XSXSX2XjXwX].8.9.u <.!.!.!.7.=.u KXKXmXmXGX'.'.|.|.|. XY.V.Z.Z.[ [ | #.%.%.@.1 ' | ",
"} ' 8 Y T ,.5.].i.i.1X2X=X:X:X,XlXsXXX8.D z.).)._.9 :.u =.=.;.e.0.|. X X X|. X X!.T.I.X.| _ #.%./ 3 , , % ",
"' 8 > Y E V.q.].[.qXbX1X=X=X;X4XxXsXoXQ.-.z.I.I.I.] a u u =.<.r.8.F.F. X X|. X XR.P.v.[ [ | ( ( / L P , O ",
"2 1 : P R J.J.0.uXsXvX8X=X=X=XvXcXCXOXy.z.z.l.p.{ { :.a a :.W.D.D.V.F. X X X X XR.K.j.X.O.O.( L L L [ P , ",
"J < . J R 5.5.0.dXsXnXbX2X,X5XxXsXFXoXXXz.z.>.T Y Y T 9 a 9 1.z.P.A.S.C.U.@X@XY.E.T.E.X.[ L H B . < [ [ ' ",
"J J H K I 5.5.q.OXaXgXcXjXzXzXiXdXFXXXQ.D.1.:.E Y [ p.p.9 9 d.z.I.Z.A.C.U..XR.Y.E.P.P.X.R L L L . H O.[ { ",
"C K C.W A V.V.5.XXXXmXZXCXGXmXi.t.XXA.B.:.5 = U Q T.!.).[ Y a.} } k.A.V.A.C.L.L.K.X.I | R I O.S.B I b.o. .",
"~ O.S.l.! ~ ! 5.H.J.0XeXrX0XoX8.G.J.,.Q d.>.l.,.B.!.!./.I.v.a.} } j.k.O.C.C.L.L.k.O.| [ [ I C.P.L I O.( / ",
"V.V.V.P.P.A ~ V.A.P.r.W.Q.8.7.V.D.z.,.E g.n.I.H.J.!.!.T._.T.} } } p.>.~ O.L.L.&.| O.O.[ [ R Z.T.I I P 2 1 ",
"A ! E.E.E.R R [ [ { Z.I.I.l.{ o.X.Q Y Y :.p.z.E.!.|.R.Y./.T.t t } { { T O.| O.| ) _ ) P < 2 J H L H L 2 1 ",
"^ ! E.P.A.P P | { | k.v.Z.o. .&. .R Y Y T p.n.!.!.|.Y.|..XT.} ' r { p.] | | O.#._ +._ 3 < % % % H < 2 2 2 ",
"V.V.S.I %   : +.#.#.o. .' #.+.+._ | 3 < 0 d.I.T.R.Y.Y. XY.E.d.r 7 s.a.a.} ..#.%.%.%.#.P 2 $ $   O O + + 2 ",
"K K I H : o + e e ) &.#.| +.+.+._ |  .{ > d.n.T.R.Y.Y. XY.H.d.d.x s.s.x.a.} %.#.+.+._ ' Y , % : O o + 2 1 ",
"X X . , , @ + w w e %.#.| +.+.+._ ( b.b.> ] n.T.T.R.R. X.XE.:.d.s.s.s.x.a.} %.%.+.+.) [ R < < , o o o + 1 ",
", , J ' [  .$.$.e w ) ) / _ +.( ( L h.j.n.x.{ P.T.R..X.X! Q z.g.c.a a k x } / e ) ` w P K E L 1 , , 3 , , ",
"< H L ' { ......w 2 3 P w ` ( ` L K o.l.n.h.T v.P.E.E.E.O.Q l.f.f.i i h r } ' / ` ` 2 J J U J 1 O , 2 < , ",
"J P / Y Y P 3 1 o o     O B B B H U v.n.n.:.q :.p.K.K.Z.X.h.:.1.g.i ; h r ' { ' 2 , , H C U J , o o , , , ",
"T R [ R Y > , 1 1 L P ` ` L K . % & T a a a a >.p.h.h.j.l.d.g.s s i i i 7 ] Y P : L < . * H %   : 3 / o.j.",
"T E X.R P : : 2 P P [ [ ( I I . % * 5 0 q 0 s.:.:.>.T { s.s.l s s c i ; 7 a.J < < < J X X % %   3 ` o.&.K.",
"* * V C H N H Y R Y | [ | [ [ , J T = = q u 1.g.g.g.g.s.c.f.m m.N.s i ; ; 0 $ $ % & C < P X.P , , , < , , ",
"Q ! ! R I C , J J Y | | [ [ R , 4 5 0 = 0 1.g.g.g.:.d.f.f.f.M m.M v s ; ; > 5 U J Z C < Y X.Y , J 3 Y L 2 ",
"!.!.R.K.O.< , % H J  . . .' R < > # 0 9 1.1.g.g.m a a v d m N.M f n v i ; ; p.p.U Z % < Y k.R J R R { Y < ",
"H.D.F.O.~ C B , J R $.' : ' ' { 8 q k l m n m m n m.f d f f f f M M n v a 0 b.j.Y < : 3 / o.[ R R R J < > ",
"H.A.S.~ W N C H R ' $.' o P ' a.9 - l f.n m m n n m.M p f f p f f M n f.k t x.j.Y 2 o w ' $.[ R R Y J & % ",
"V.! ^ C N N H R {  . ./ - 2 < 0 > ; l b v v g.N.m.p d d f f p M g.M n b z s.> > > < 3 3 P / ' X.R P % U T ",
"~ ~ C C V H H R [  .Y t 1 } { > 6 h s.f.s.f.b n n s c n M f p d m M n b b x.r 6 - 4 t P ' ../ R J I X.R R ",
"C H % % % L P I [ { < e ' v.n.# 9 x.f.f.s.b b c j j n M M m c p p n n b c.c.s.k # 6 t ' '  .P , . Y I.X.R ",
"% C H I I . % H H J b.v.^.] 8 r 9 7 s.s.h z c.k j z n M c c p p g b b b b z s.s.s.8 # 8 8 R j.v.Y { L.( % ",
"J P P R R . . : : * b.b.n.8 > k h 9 k x h z b k h b b n c p p j s j b b z z s.x.x.8 # 4 8 Y j.v.' X.C.L . ",
"L.L.L.o.O.            : P < > s.d.] 7 7 l h h x b b b c s s n n j g g z z z x.x.x.r > $ $ & Y [ [ R J J H ",
"^.L.^.o.| [ Y , % : , 2 < 8 ' p.d.d.t t t x z z z c j c p s v c g g j x.x.x t 9 9 > $ $ & & P Y [ Y H : . ",
"^.^.^.o.[ L.o.< < < 2 > > ' [ { { a.r r t a.x.x h j c c g s c j i h h x.x.a.> - > # # * * J J < [ / : .   ",
"O , J : : : % , % $ $ 2 Y [ ' > 8 ] 0 > 7 r a.x.x.h j g g g g g g t 0 ; 9 { = = { Y 1 R ' j.J % L <       ",
"O . < O O     : $ $ , < Y / I 8 9 ] > > 6 ] a.a.x h h j g g g g g 7 7 6 ] j.= 5 T Y 2 T h.K.R , 3 : o O o ",
"O O , O O     o     | Y < , < [ Y 8 < 4 - t p.9 t 7 i g c p g g ; ; ; a.x.n.< & & < < z.I./.X.J 3 : : 1 3 ",
"o , 2 , +       . , L P / < < X.[ ' < > > 8 t 8 6 6 7 g i i i h h 7 6 6 ] j.h.Q U J % I.I.X.R < , : 2 2 : ",
"o + 2 2 ,       , H , P [ 4 > O.{ ' > > 8 8 8 8 8 > ; i ; ; ; h z t 6 > Y X.v.k.T < % /.I.U < 2 o O < > o "
};
