/* XPM */
static char *_191f13545bf4a41df6d230586629f27oWbPOIsSJdijsgZt[] = {
/* columns rows colors chars-per-pixel */
"64 64 70 1 ",
"  c #1E3616",
". c #1F3616",
"X c #1F3716",
"o c #1F3617",
"O c #263A16",
"+ c #273A16",
"@ c #263B16",
"# c #273B16",
"$ c #263A17",
"% c #273A17",
"& c #263B17",
"* c #273B17",
"= c #40221E",
"- c #40221F",
"; c #41221F",
": c #552E23",
"> c #552F23",
", c #603E21",
"< c #613E21",
"1 c #603F21",
"2 c #613F21",
"3 c #2D4217",
"4 c #2C4317",
"5 c #344C1A",
"6 c #344D1A",
"7 c #354D1A",
"8 c #344C1B",
"9 c #354C1B",
"0 c #344D1B",
"q c #354D1B",
"w c #164120",
"e c #304C2E",
"r c #314C2E",
"t c #304D2E",
"y c #314D2E",
"u c #304C2F",
"i c #304D2F",
"p c #2B4032",
"a c #2A4132",
"s c #2B4132",
"d c #2A4033",
"f c #2B4033",
"g c #2A4133",
"h c #2B4133",
"j c #5F761E",
"k c #5E761F",
"l c #5F761F",
"z c #5E771F",
"x c #5F771F",
"c c #466920",
"v c #476920",
"b c #466821",
"n c #476821",
"m c #466921",
"M c #476921",
"N c #566424",
"B c #576424",
"V c #566524",
"C c #576524",
"Z c #576425",
"A c #4E8234",
"S c #4F8234",
"D c #4E8334",
"F c #4F8334",
"G c #4E8335",
"H c #4F8335",
"J c #82A828",
"K c #83A828",
"L c #83A928",
"P c #83A929",
/* pixels */
".@@@.@@@@8mkm@m8O0ccO@@00@@gFLLLLLFs@@@@@vvxm@v0@nnv@@@00&@@0&..",
"@@@@..@@@@@mk8++00000@@00@gALLLLLLLFgOO68@@mx0@@mnjjm@@00@X.@..@",
"@@8@@XXX.@@@OO**@@@@@@@@@gFJLLLLLLLLFs@@@@@@@@@0****@@@O@.X@@@@@",
"888@8@@@..@@.O@*.@@@@0@@gDJJLLLLLLLLJFs@@@@@0@@0**000O@O..@@@$@0",
"b8@@88@@@.........@@@56OgJKKSKLLLLKKJDs0*@@*k@66*00@@O...@@0@@@0",
"8@@@@8@000...O..X.@@+56sDJKKKKLLLLKKJJs08*@mk55@@0@@O..O@@@00@@0",
"@@880@00@...@@O..O*@8+8sDKDKKKLLLLSKJJDp*8@vkv@@@@@@....@@@00@@@",
"@@@@0@@@..@@@0@@O@OXv*pDDKKDFKLLLLKKKJDDg++8v8@O@@@@....@0@@0@&0",
"0@@@@@@@.@@@00@@####vsDKLLLLFFFFFFFLJFFFDagv88O6mkk....@@0$@@@00",
"50@@@@XX.@@@00$@787ssFKKLFFLLFFFFLLLFJJJFFFsv8vv5@@..@@@$00@@00@",
"500@XXX@@0@@0@$&**yFFKKKLLFFFLLLLLLFFJKKJFFFp8##@...@@@@@@00@0@@",
"OO@@@@@@@mm@@@008sFFKKKKLLLFFFLLLLLFFKKKJJJFNpOO...@@@000@@0@@@@",
"@@@@000@*mj8@000yFFLLFKKLLKFFLLLLLLFFKKKJJLLFjs#$$O.5bmkl0*$@@@0",
"0@++@@00**jj@08gFFLLLKKKLLKFLLLLLLLLFLLKKJLLFCs#00O..@@bll@@@@8l",
"O.@OX@@@**8v88@gFLLLLLKKKKFKLLLLLLLLFFLLKKLLLFCs5zOO@.@@0mb@5kll",
"OOO.X@@0xx668vgDLLLLLLKKKKFLLLLLLLLLKFKKFKLLLFCylz@O@@bv0@@5mml0",
"@0@@@@@@Ocb0mkgDJKKKKKKKKFFKKKKLKKFKKFSFFKJPPAVVam@@5bkm@@@mmmm@",
"@0@@@000OO0OmaVAKKKKKSKKFFFKKKFKLKKKKHSSPKJPAANVd$@@kkb000@000@@",
"0@@0OO000OOO5gNADKKKLFFFSFSKKKKKLLKKDFNSFPPAAAZZVg@@@585@@@@@@@@",
"@@@00OOOO@OOOaNNDDDDFFFFCFFFKKKKLLKKFCNNSSFFFVZZVVg@@$$ ...@@@@@",
"0@@@0@@@@O.OyCCjBSFFFHCCSFCSFKLLLLLFFCCNjCCZNNNVVNNpn*O **0*@@@@",
"00@@@@@@*+.pCFFFBBZZjjCFFFCSFFKLLLFFSZZBjCBZNVNANNNNfl@@8m0*@55@",
"00@@000O8vsCFKLLSSFFFFFFFFCCFFFFFFFFBBBBBCBBVVFFAVVNVfm@m8+@88@@",
".0O000@@+pCSKKLLKSFFFFFFFSSCCFFFFFFFBBBBBCCBFFFFAANNVfv@v@++@@@@",
"@@@@***@gCCDKKKLKFFFLLLLLLFCCCFFFFCCCCZCBCNNAAFFFFFNNCp5Xvkmv*@@",
"@m@@**@@gCDJKKKKKFSKLLLLLLLFCCCCCjCCBFFCBZCCVFFFFDFNNCp5vxm@**8@",
"4m@08+@@pDJJSKKKKSKKLLLLKKLFFCCjCCCFFFFFVNNNVAAFFFFNNNp5vm@&@08@",
"@@@O88@dCDKKKKKKSKKKLLLLKKKFFFFFCCHFFFFFANNVNAAFFFFNNNNgm@@000OO",
"@@@@@0@dCDKKKKDDSKKKKKLLKKLLFFFFFFFFFFFFFFVVBDDDFDDCNNNg@@@@@@@.",
"@@@@@@@dCDKKKDNNFKSKLLLLKKLLFFFFFFFFFFFFGFVVBBNDFDACNNNg@@@@@@..",
"@@@@.. 0pCDDDNNNFPJKLLLLKFLFFFFFFFFFFFFFAACNBCBCDDVNNNCg@@@@@@.@",
"@@...@@@gCNNNNNNFPJKLLLLKKLFFFFFFFFFFFFFAACNCCBBBZNNNNNg0@@00...",
"@@@.@*++gANVVVNVFLLLKPFKKKPFAFANZAAFFFFFAFVVNNVVNVNNVgg88@@@8O..",
"@5@@.++sCAAAAAAVFLLLKPPKKKFFHAAVZFFFFFFFAGVVNNNyyuuyttg80@XX@O.O",
"55@...fZDSKKFFFVjLLLKKKKKKFFFFFVNNFFFFFAFGNVNZuZNNeeeeeg@@@@@@O@",
"88@.@@pFDKKKPFFFCCLLKKPPKAFFFFFVNNFFFAFFAANNNuyVNVVVVeeeaX@@@@@0",
"88$$*sCFKKKKJFFFCCCKPKKAAFFFFAVVCCBDFFFFFVVNVeyCNNNNNZeea..@@@@0",
"8@@$8yFFKKSKJFFFCyCSFFAAAAFFAVVeNCBZFFFFVVNNyiyVNNNNBZVeeg..@@@0",
"@@@5yCFFLLKKKFHFCuCCAFAAFAFFFVVeeNNZZNNVVVVteeeVNNNNBNCeeaO@O@@@",
"@@@@yFFFLKKKKFFFSCuBZVVVVVVVVVeteeyZZNNNteytteyVNNNNCNNNeeaO @@0",
"@@0*gDDDJJJJDAFFSFyyeCCCCCCeeetteettyeeyettttyetNNNNNCVNeeg@OO00",
"b50$gDSDDFFDFFFHFFyyeeeeyeeeeetteettyeeeetttttttNNNNCCNNttgX O0@",
"m0$@gFFFFFFFFFFHFSyyeeeteeeeettteeCFAAFFFCVetttteCCCCCCCttgX@@@@",
"$m@@sCFFFFFFFFFAFyyuFDDFCCeuettteVGFFGFFFCVVtttteeNNNCCCteg@@@@@",
"@@*@sCDSFFFFFFFFFeDFFFFFDDCyettteFFFFFFFFFVNNutteeeeVVVyeyg*@@@0",
"l*00@sCFFFFFFFFFNFFFDFFFDDDCCettVFFFFGFFFFVVNueeaeeettyyeyg8@@0k",
"@X@05pyCDFFFDFFNNFFFFDFFDDDNCeeeFFFFFFFGFFVVNyeegatttteeteg8@@kk",
"@@$$55peNFFFFNVVFFFDFFFFDDDNNCeeFFFFFFFFFFVVZyeegattteyeea++@0k0",
"@0@@@@gyyCCCCNCCSFFFFSFFFDDCCNeeFFFFFFFSFDNNCteegggyyyyysO@0@0v@",
"@0@088@geeeCNNNNDDFFFFFFFDDCCNCeFFFFFFFSFDNNNteegggsgggsOO00@0@@",
"8@@mm@@@ggyeeeeeCDSDFFFFSSDCNNCeCDFFFFDDFCNNeteeg85@*8m@@000@@@@",
"@@@@@@@80@ssaassCDSDFFFFFDNNCCeyuDFFSFDDDCNNttes+@68+8km@0@@....",
"kjm@@@@@@OO.000sCDDDSSDDFFNNNueeuBSDDDDDCNNNurrsO@@0@0kk&$$$@@@@",
"jmmm@mmkkcO. @00yrCNSSSDCCNNuyyeuuCDDDDDNNNyuuep.@@@@@0k@0mlv05@",
"8vm8@88m.@O..O@0grNNCCNNNNNyyerseyyBNNNNCCyeuup .@@@000v0mlm5@@@",
"@8m.@8m..@OO.O@@OsrNNNCNNuuuygs:geyyNNNNCCeeup@ @00vkkv50000@@..",
"&&405@..mm0@@.@@@@syrrurueggf,,,1suuurrreuuup+O @@@@@000O.@@...@",
"*mlm@@@m00@0..@m@@@gssppgg,,,,,,11pprrrreeup*+O+..@@@@....@@@@0@",
"4m3$@@@@@@@@@.@mv@#8v=11,,,,:,,,111::pppffdO%%8%@..@@..$8..$O@0@",
"**$433@@@44@..@mv@6j=111,w:::,:,11:@:<<1:@.@%%88@@....@00$..@OO.",
"*@33@@@@@34...@m###6;;;<,w>>:,:,22:-::<o::-@@@$0@@@..@000@@.@O@X",
"@@8@@@00@@5..@@@**#@%%n;w:@>::w,:::-;9-ww--$@@@@0@@@@@0@@@@.@@..",
"@@@@.@@0@@@@@@8@*++vn*%%**++$@.@$$& $0&0@@08@@0@@@@mm@@@@@@@@@.@",
"@O.O.@@0@@@m.@88*+8un*%*8***0.$.+&   *&0@@@b.@00@@55m@@@0@@00..."
};
