/* XPM */
static char *e727ced23838453eb25035c2b39a9168zjQIB4Ar6n9FJwQm[] = {
/* columns rows colors chars-per-pixel */
"64 64 255 2 ",
"   c #010C03",
".  c #080909",
"X  c #130708",
"o  c #031102",
"O  c #061309",
"+  c #15170A",
"@  c #080B15",
"#  c #1A1917",
"$  c #0F0D13",
"%  c #270100",
"&  c #3A0A08",
"*  c #241C15",
"=  c #2B1C1C",
"-  c #261819",
";  c #361A1A",
":  c #30120D",
">  c #1A2A0A",
",  c #1D3505",
"<  c #1D340C",
"1  c #1D390B",
"2  c #1C2812",
"3  c #1E3312",
"4  c #1C3A12",
"5  c #1B3A17",
"6  c #25290B",
"7  c #392B0D",
"8  c #233C04",
"9  c #22350C",
"0  c #2A340D",
"q  c #243B0C",
"w  c #2A3C0D",
"e  c #273904",
"r  c #38360A",
"t  c #2B231B",
"y  c #2B2C1C",
"u  c #272818",
"i  c #3C2B13",
"p  c #352819",
"a  c #233513",
"s  c #2B3514",
"d  c #253B13",
"f  c #2A3C14",
"g  c #24341A",
"h  c #2B351B",
"j  c #253B19",
"k  c #2A3C1B",
"l  c #31341B",
"z  c #333A1B",
"x  c #373614",
"c  c #1C1A21",
"v  c #2D1C23",
"b  c #241B23",
"n  c #341D22",
"m  c #3B1B24",
"M  c #371824",
"N  c #2D2323",
"B  c #2A2824",
"V  c #332325",
"C  c #35222A",
"Z  c #392928",
"A  c #2C3423",
"S  c #2B3B23",
"D  c #2A3526",
"F  c #333323",
"G  c #383728",
"H  c #3C3638",
"J  c #382A31",
"K  c #561B18",
"L  c #46150F",
"P  c #46270D",
"I  c #462A14",
"U  c #562819",
"Y  c #433818",
"T  c #4F2F13",
"R  c #672D1F",
"E  c #691D24",
"W  c #4D2425",
"Q  c #4C252B",
"!  c #442C2D",
"~  c #4C2B2C",
"^  c #472827",
"/  c #522525",
"(  c #542A25",
")  c #532B2C",
"_  c #582828",
"`  c #44322C",
"'  c #473729",
"]  c #533528",
"[  c #452C33",
"{  c #4C2C33",
"}  c #4A2935",
"|  c #532C33",
" . c #562C35",
".. c #4C3132",
"X. c #473536",
"o. c #533233",
"O. c #563537",
"+. c #782727",
"@. c #793529",
"#. c #6E322F",
"$. c #691B19",
"%. c #1E4219",
"&. c #2B410C",
"*. c #28440A",
"=. c #33490B",
"-. c #254215",
";. c #2B4214",
":. c #25411A",
">. c #2C431B",
",. c #2D4B1C",
"<. c #344C13",
"1. c #32451B",
"2. c #344C1C",
"3. c #3B4C1D",
"4. c #364516",
"5. c #385118",
"6. c #2D4723",
"7. c #334522",
"8. c #344B23",
"9. c #3A4C24",
"0. c #354A2A",
"q. c #3C4C2A",
"w. c #394528",
"e. c #3B5123",
"r. c #375226",
"t. c #3C4835",
"y. c #2F5126",
"u. c #45451A",
"i. c #454526",
"p. c #475B28",
"a. c #464737",
"s. c #495C33",
"d. c #54573D",
"f. c #554B27",
"g. c #7A432C",
"h. c #6C453A",
"j. c #75443D",
"k. c #79443D",
"l. c #7B4A3D",
"z. c #784636",
"x. c #6B5332",
"c. c #4B642C",
"v. c #486629",
"b. c #52682A",
"n. c #4C6334",
"m. c #496537",
"M. c #536B34",
"N. c #566738",
"B. c #5B733C",
"V. c #597437",
"C. c #537435",
"Z. c #64733A",
"A. c #496319",
"S. c #3F3D41",
"D. c #484747",
"F. c #5A5648",
"G. c #554E51",
"H. c #6C4544",
"J. c #6A4749",
"K. c #744543",
"L. c #7A4542",
"P. c #744944",
"I. c #7B4A44",
"U. c #794649",
"Y. c #744B4B",
"T. c #7B4C4B",
"R. c #74464A",
"E. c #7A514A",
"W. c #744C52",
"Q. c #7A4C52",
"!. c #695555",
"~. c #7A5352",
"^. c #6A4950",
"/. c #5B6C43",
"(. c #597042",
"). c #657845",
"_. c #736A54",
"`. c #685D62",
"'. c #6D6569",
"]. c #757070",
"[. c #5E5D62",
"{. c #523241",
"}. c #9D1C28",
"|. c #A91E28",
" X c #B31F2F",
".X c #8D2C2A",
"XX c #872929",
"oX c #98272A",
"OX c #863329",
"+X c #872B33",
"@X c #972933",
"#X c #873633",
"$X c #983639",
"%X c #99342C",
"&X c #A2232A",
"*X c #AB222B",
"=X c #A7282B",
"-X c #B2242C",
";X c #A92933",
":X c #B42433",
">X c #B42B33",
",X c #BA2A38",
"<X c #A83739",
"1X c #B9353A",
"2X c #A8312D",
"3X c #C4353C",
"4X c #C8363B",
"5X c #CC2D3B",
"6X c #834939",
"7X c #8D503C",
"8X c #A8423C",
"9X c #B83843",
"0X c #B23142",
"qX c #983846",
"wX c #C73944",
"eX c #824A46",
"rX c #825245",
"tX c #90544F",
"yX c #B54446",
"uX c #B35154",
"iX c #997958",
"pX c #8B6A58",
"aX c #AC745B",
"sX c #A87657",
"dX c #AD725B",
"fX c #966767",
"gX c #997964",
"hX c #8C7D71",
"jX c #A47562",
"kX c #A97866",
"lX c #B27865",
"zX c #AB7071",
"xX c #A05B60",
"cX c #CC4A4E",
"vX c #E55F65",
"bX c #D7696E",
"nX c #E5686A",
"mX c #DE5F68",
"MX c #7E8176",
"NX c #948258",
"BX c #A6805D",
"VX c #978365",
"CX c #88847C",
"ZX c #988375",
"AX c #AB826D",
"SX c #917E81",
"DX c #B97C83",
"FX c #93908E",
"GX c #A99C99",
"HX c #B0A198",
"JX c #B09EA1",
"KX c #AFA1A3",
"LX c #B2A3A5",
"PX c #CB9E9C",
"IX c #DCB5B6",
/* pixels */
"a 9 s k > k g f s 3.v.C.v.8 c.5.6 3.N.p.w &.q 2.r.f s j 0.S u I P I I I K L T P w m.m.C.v.*.A.=.*.v.A.v.e w q 8.8.k d d 6.-.1 1 ",
":.:.k s 3 5 k h f q %.m.C.5.w 8 p.2.;.9.3.w 1 e.8.a l G a h u _.pXpX_._.pXpXpX_.q.d %.m.N.4.Y r A.b.V.V.N.w q 8.7.f 3 a :.4 < d ",
"4 f 1.k %.4 g d s s a f f d 1 >.4 5 :.:.1 4 -.3 S i L tX_.CXCXCXCXSXMXFXFX].hXCXFX].hXhXfXpXeXtXP T &.q w 0 -.>.k h a f k h j k ",
"y.2.9.:.y.%.4 4 f < j d 3 k k j 5 :.4 4 ,.y.:.k p W xXzXZXHXFXFXGXFXGXFXFXFXSXFXSXFXSXFXSXzXDXzXtX7X] f.' x s h < d s l s k k 7.",
"n.2.;.9 >.y.-.:.h a 5 5 3 > 3 3 3 3 j j 4 5.4.7 gXfXxXfXPXHXHXHXKXKXKXKXGXKXKXKXHXLXGXPXIXIXIXPXbXtXqX+.+XK P u 3 f k 3.f 4 d q.",
"2.d f q >.2.f 4.Y f.7 i l ` p p i i i Y r ] R sXdXtX+X+.tXfXpXfXfXfXfXfXfXfXfXfXfXfXfXfXzXzXxXxX+XoX:X}.;XoX@.T x s r i.r.-.d 2.",
"d k 1.2.,.w i.R $.<X<X<X$X7X$X$X$X<XyXyX8XyX4X8X=XoX@XXX+.#X@X@X@.#X#X+X$X@X+X$X$X$X@X<X$X0X0XyX1X1X:XwX:X;X<X%XOXU P 4.e.;.9 w ",
"f f 0 x u.r 7X8X1X3XwX9XcXbXbXmXvXvX4X4X4X4X5X4X5X>X>X1X9X<XwX3X<XyX<X1X9X1XwXmXnXnXcXnXcX9XyXcXyX0X9XwX0X1X4X,X1X%X@.T 4.w ;.4.",
"e.9 r P K tX1X,X4X1X.X+.#X$X$XyX9XcXwX5X5X3X4X4X4XwX3X3X4X4X5X5X3X1X1X3X3X3XwXcXcXyX4XcXwX9X9XuX@X+.+.OXoX9XwX5X4X2XoX#Xr q r.,.",
"9.i.I tX8X>XwXwX}..XL % X % #.+X0X0X,X5X-X4X4X4X4X1X3X3X4X4X5X5X5X>X>X-X X|.|.*X}.oX=X&X X9XbXqXK & X % $.+X<XwX3XcXwX.XI e.,.%.",
"9.' 6XoX3X5X0X@XE L Q {.J X J./ +.@X X X-X|.|.|.=XoX&X&X=X=X*X|.-X*X&X&X|.|.*X*X=X&X|.|.;X@X+.) ) + a.t O.L E 9XwX,X0X#XI 9.1 %.",
"f Y R XX-X,X;XE : D.. S.H c . O.& +.}.wX:X|.|.-X&X&X&X&X&X&X&X&X|.|.&X&X;X*X|.|.}.|.|.&X@XqX% O.X X D.t y F.L $X9X,X<X#X7 f -.q ",
"s x i K @X;X+XE J S.c G.S.G.b } ; R ;X0X X X X|.&X=X*X X|.|.&X&X*X-X-X>X:X:X X:X>X-X-X>X<XE = G - J G.G.u !./ E 0X0X$Xg.i w f u.",
"q.z f.% $.@X+./ G.D D.G.].'.[.{.X.& @X|.:X,X,X;X2X2X:X,X5X>X>X2X-X>X>X>X:X:X:X,X-X-X-X=X$X% !.B H '.`.'.!.t J.W +..X@.P r &.4.Z.",
"5 a p L +.@X+XK G.S.G.'.!.'.D.F.a.& +.oX;X;X2X>X2X2X>X>X>X>X2X>X2X2X=X&X|.&X&XoX2X=X}.%X+XX J.S.G.'.[.'.!.X.!.i #.#.f.P 5.C.Z.Z.",
"%.5 l P #.+.#.& G J - D.D.!.t y u o.R +.R +.OX.X.X.X.X.X.X.X.XOXOXOXOX.X.X.XOXOX@.OX@.R ( ~.y B @ B G.[.N O.p F.' 7 r 5.A.A.Z.=.",
"5 0.k 0 i Y 7 l 2 a.X X.H .   a.  g y l i.' 7 r 7 i i i 7 P i r r ' Y 7 P u.u.I r Y u.x.i.h o t.@ c D.B t F.. d.f ;.q C.v.v.v.*.",
"6.6.q f ;.3.9.9.h g y X.H X [.J t A G a a w.0.9 < w.9 f k f f q f 8.q q 3.5.5.e 9 q f s.m.:.0.D t.@ D.# a.. d.9.8.5.*.-.6.r.1 q ",
":.>.j 9.w s >.7.t.F t V C V J ` ..! ` ' ` l F h 9 s f ;.d 9 f ;.3.f d e.2.e w e =.w e >.w.7.q.s + y g 3 S 9.7.3.;.e f s w 9 s w ",
">.f q 8.>.>.:.g g G B J X.[ ..! Q ) ~ ~ ! G G G s x f 2.u.s i.e w q w d ;.q Z.V.b.N.0 s z 7 x x I p x l 0 x 0 w 6 w , f f s z z ",
"4.f 1 f 8.-.h s h F H X.[ ^  .| ) ~ Q  .^ | { ~ hXhXiXVX7 r 3.x Z.i.;.e e b.=.V.b.u.r Y iXgXkXkXgXAXgXjXiXVXx 6 4.9 e.f k d -.:.",
"9.2.f q >.s h S G Z ! X.} | Q eXY.H. .Q |  .^ ) ) AXgXgXVXVXgXgXVX/.u.x b.=.b.b.u.r NXNXBXl.6XdXjXg.z.l.AXiXiXY u.N.1.-.a 8.y.5 ",
"3.3.q f 8.q.G ' G ` [ ! ~ Q  ._ Y.~.J.Q  . .) | ( gX] kXjX6XjXkXsXiXsXiXiXx.x.r NXNXNXiXiXsXsXR P gXrXiXz.l.iXx.gXz x ;.,.r.d -.",
"e 1.;.q.7.a.` G ..! { ..J.~.R.U./ ) Y.Y.W.Q | ) ) W ( _ k.k.lXg.z.6XsXsXsXBXiXBXBXiXBXsXBXsXjXU L kXj.k.l.I.z.kXkXVXx 0 f a -.d ",
"1 -.q 9 z G ! ~ { | { ~ o.W U.T.K.T.Q.P.K.K.Y.Q | Q } ) K.l.l.6XlXaXaXBXsXaXsXdXdXaXsXsXsXsXlXaXU ; T.P.K.L.h.P.Y.h.ZXgXd.x k d ",
";.n.a w.z ` ~ | ) Q | ~ / ) eXK.T.T.U _ L.I.T.| )  . .Q ] ( z.jXjX7Xg.6X6XsXdXdXdXdXdXdXlXOXdXdXzX/ K.T.& ; L J.P.o.I ; i G t.h ",
"-.m.a w.F ~  .Q  . .W./ ) W / T.P.W _ I.z.z._ / } } } } o.^ T l.l.g.z.z.BXsX7XOXsXAXkXlXOXlXdX6X6XeXL.U.Y.T.K.R.| ~ O.= X . + A ",
"d >.z G Z { | | | / Q R.H.~.P.Y.Y.T.k.l.l.rXI.P.W.W. .} J.Y.] h.z.I.I.z.kX7Xg.BXsX@.6X6X7XBXlX6X6XeXk.T.K.Q O.W.~ [ = n = $ N B ",
"d 3 G G ~ o.Q  .|  .~.H.Y.Y.P.R.K.K.I.k.l.z.h.E.W.^.{ | ) T.T.eXh.l.P.I.l.z.6XlXlXaX6X6Xz.z.kXsXl.k.eXj.T.R.^ ~ O.C M v v - v C ",
"k h F ` { ~ }  .Q R.Y.Y.Y.( ) ( T.j.eXU U I.E.H.^  .Q o.( K.tX#.E.h.j.P.z.I.6Xl.lXz.k.k.I.I.h.E.z.I.k.I.K.~.| } J M v J V # J B ",
"k z Z ' ~ }  .{ o.m o.( W ( Y.Y.P.P.( ( K.L.I.L.) Y.Q ( T.K.L.eXI.P.I.L.I.l.I.j.jXE.z.I.z.k.rXj.I.I.h.T.) H.W. . .M m n N # c D ",
"F F ` ! { { { } [ o.W ) ( P.R.P.K.j.I.eXL.eXj.T.R.P.) ) P.( T.k.L.eXL.I.z.I.K.k.I.j.l.z.l.l.L.L.P.T.Y.H.~ } }  .M M m - - c 2 D ",
"l Z ` ..M M } } { ~ ~ ) Y.T.L.L.l.z.k.6XI.k.K.T.K.) o.W ) / P.L.L.P.P.L.I.I.L.k.l.l.l.l.j.E.L.T.) Q W.} ! ..n n n n ; = t l u h ",
"Z p ! ; M } } } { ! o.~.H.P._ L.j.eXk.U rXk.I.T.Q.J.J.) P.Y.j.L.P.I.k.I.k.eXk.eXI.I.k.I.j.j.T.P.R. .~ V t * V t = t t u u u a h ",
"' t v C [ } {.} } { Q H.P.( I.U.Y.R. ._ L.j.R./ ) J.{ | | ( Q.L.I.l.k.I.I.I.k.I.eX#.L.eXK._ P.o...: = t y y h A F A F F S k a k ",
"a.u B n [ J M {.{ | W O.( ( P.L.W. ./ U.U.U.rXK.( )  .W )  .| eXP.I.k.K.P.K.L.L.L.U.eXH.P.) ) ~ 6 t x s h k 0.S h g h h h j j 6.",
"t.a.u - V v M } { } ~ / ) / I.Y.R.R.Q.R.T.L.K.K.Y.H.| ) ) | _ K.@.eXk.I.P.P.I.eXeXeXL.E P.Y.~ ~ 7 s i.;.;.m.r., f a 9 a d 5 %.y.",
"w.l F B - Z m [ m m | Q ) T.P.P.R.Y.Y.R.K.eXK.~.Y.~ ~ | Q Y.Q.Q._ L.P.E.j.P.K.K.L._ eXU.) ) ! G z 0 p.q 1 C.&.-.-.q a d -.:.%.,.",
">.s h t.N = X.M m | { ) Y.H.Y.( Y.U U K.) _ H.W.~ m m ; | ^.Q ( _ I.L.K.P.P.K.] U.W ( H.^ ' ' h 0 u.M.V.5.5.*.*.*.q q 9 a 4 1 >.",
"1 >.s h G * N n M }  .^.^.~.Q ) ( ( P.P.) / W.} M m n n V [ ~ ) R.eXL.( Y.P.Q.U ( ~.W ] ' G i.F.).p.5.p.<.5.5.v.B.s.e.f d d f 8.",
"1 ;.8.s h y t n M { }  .{ Q | ~ ! ] Y.W.}  .} } C v v C = V ! ~ ^.| _ _ K.Y.Y.Y.) H.' ' l l l w 4.).c.=.5.5.p.).2.w >.s 9 s q.8.",
"M.*.2.>.h a.* C v } ..} { { }  ...^ { } M } } C - v H B * y * ` W...Q J.~.U / Q ~ ' Z /.z 1.9.q ;.;.n.M.<.*.c.2.w d f a 9 k 7.f ",
"v.<.&.q w.t.u v n n {.} m [ [ v [ X.[ M V m = t p i.l k _.d.6 t = m }  .Q ~ W.^ ^ ` l d.9.9.1 &.f q 5.8.2.q -.-.a :.9 3 d j f s ",
"*.v.q d S D u X n v J M v } X.n V = N = ; * t s s f 0 &.s.3.z s N b n n ~ ..o.~ ` Z G S 9.2.1 ,.2.;.q 4 d -.4 d -.6.j d f ;.9 ;.",
"&.&.1 6.A g $ . . v C M X.[ v * # l F F a.l 6 3.N.c.c.8 =.r e z X $ C v v [ ! ! ` ` H d.s f m.2.>.4 f -.4 d d d 3 y.0.>.4 q q 2.",
"(.9 w.t.S   . . $ v v b n v - * z k f f 0 s p.).M.v.b.*.8 p.)./.. $ X $ t V ; V ! X.X.6 F.w.s.*.1 4 ;.a q.;.d 4 4 :.8.8.q q 5.B.",
"f s j 0.  O @ @ @ $ v v v v = F p.c.1.q 6 , s f q *.1 *.c.B.(.7.. @ . . . # C = M n [ Z 6 7.>.d d < d 1.q.h 6.3 k 3 -.8.w w N.Z.",
"s k S D O O   $ @ $ C b N N # a.m.B.C.c.-.f :.4 r.,.5.8 q &.f S @ @ @ . + F Z * v n V v * A h a 9 k f 9.w.a g k 3 d a ;.e 5.).=.",
"f q.S O @ O O o g D A * # N - B 3 a < 1 a 3 k 6.8.;.1 *.f j j D @ @ @ o k s s l # b b b b b N A k s f f 8.h >.s j a k 8.f 2.s.f ",
"z S D   O O o D g u A * # b b B D D j f > < 6.d d ;.&.-.d k S   @ @   o w 9.M.w k # c c c c b D h 8.f 1 f f 0.:.d j 8.8.d 2.k w ",
"9.d S O O   o A t.t.G D # # c c 2 3 S 3 -.-.3 9.:.9.e.q , f S O @ @ o q.s q 4.N.i.S 2 # B # # F h r.7.>.f ;.c.*.w e.1.9.d d f f ",
";.w j   o o S 0.7.k S A B # b # > S 3 3 < f e.8.a >.;.;.;.q t.    O S k f q ;.(.s.q.F.a.# + # 2 k j 2.9.q 5.).v.8 2.8 ;.9 < 9 1 ",
"b.V.c.;.f f 1 w q w 0 a S 2 2 + > g a >.f ;.>.m.a 1 2.;.w 2.q.o o + 9 d 8.9.q w N.1.i.z + 6 u + h 3 >.2.q <.b.Z.*.8 *.w q f f k ",
"Z.A.v.c.8 n.M.V.M.b.&.9 h d 7.i.g 6.> q.q f m.;.q >., *.p.9.0.a (./.9.9.< m.m.2.e 9.3.2.w.S g D 3 j f f w *.=.V.8 =.b.B.n.8.8.h ",
"=.A.C.8.a r.,.n.&.;.1 3 5 h S 0.0.j < 2.r.q a , ;.q 8 &.M.m.a k n.p.2.>.< ,.(.m.3.<.&.4.k s S g 3 k d ;.5.5.=.b.5.b.M.N.2.< 6.j ",
"*.=.c.q a 8.m., , q f S 3 g h S g f w <.c.q q f c.c.B.v.q f ;.q b.2.f w d d d *.2.3.e f s 3 j 3 k 0.8.n.N.B.b.<.=.5.<.2.d k 3 g ",
"*.*.;.8.y.d , , c.c.2.;.a q f d 4 >.q *.c.c.q n.B.C.5., ;.q w q 9 3.q ;.4 > -.-.f >.;.a f f g j k d ;.f d 2.9.2.8 8 f f d < g j ",
"8 c.(.s.:.d -.n.,.2.4 2.1 , f m.>.a e 8 *.8 8 M.B.*., c.p.<.e.1 1.s.>.3 1 1 4 q d k f < f j >.1 a a d d f f q 9 d < j d d j 7.h ",
";.c.8.j d 6.1 w q ;.-.>.f 1 1 n.s.q ;.5.v.V.M.2.q q M.B.V.Z.n.f 7.s.>.< a :.1 4 d 5 a 3 d j y.:.f a 1 a j 3 3 k 7.3 a j j S 0.d ",
"< >.j k A 6.d >.*.:.>.1 4 1 ;.n.N.w 1.V.V.b.b.M.q f n.5.b.c.;.9 k 7.g 1 -.2.3 d d a j S j d >.r.1 d a a f a k 8.q.g g a j j >.a ",
"f k k 6.S k d 4 k >.6.d 3 a -.c.q :.w 3.v.V.c.p.r.;.;.2.c.8 f a k g d d -.9.:.d d 5 7.j d f d r.-.;.f < < s 9.7.7.:.a 3 k d s a ",
"w d 7.7.j h 0.9.d d 6.f 3 a d w f f 9 &.8 8 ;.;.> d -.;.f q ;.3 k g k a 4 9.8.j f f q.s d f -.f 8.f q f :.q 8.:.d k j < j d 5 a ",
";.q d g < h >.1.s q :.k 3 f 8.f k 3 ;.c.v.8 ;.1 :.j f 1 d f , a j j h 4 3 8.>.8.f s 1.8.a f 8.f f 9 ;.s.M.f f q f w f f k d a s ",
"8 f < f a f f 3.f d h m.3 ;.1.2.a >.<.<.M.e f f 8.-.f 7.0.3 a 3 j j 5 a 4 :.a 8.f w s N., q r.8.a >.1.e.s.q &.q 3.q -.7.9.3 3 j "
};
