/* XPM */
static char *_38b8ebf8d9648b0b47c7bde10492778odZSMCCzhTeyHl33[] = {
/* columns rows colors chars-per-pixel */
"64 64 50 1 ",
"  c #080A14",
". c #090A14",
"X c #090B14",
"o c #090A15",
"O c #1E3616",
"+ c #1F3616",
"@ c #1E3716",
"# c #1F3716",
"$ c #1E3617",
"% c #263A16",
"& c #273A16",
"* c #263B16",
"= c #273B16",
"- c #263A17",
"; c #263B17",
": c #273B17",
"> c #241526",
", c #241527",
"< c #341C26",
"1 c #341C27",
"2 c #341D27",
"3 c #4D2A32",
"4 c #4C2B32",
"5 c #4D2B32",
"6 c #4D2B33",
"7 c #2C4317",
"8 c #344C1A",
"9 c #344D1A",
"0 c #344C1B",
"q c #354C1B",
"w c #344D1B",
"e c #354D1B",
"r c #5E761E",
"t c #5F761E",
"y c #5E761F",
"u c #5F761F",
"i c #5E771F",
"p c #5F771F",
"a c #476920",
"s c #466821",
"d c #476821",
"f c #466921",
"g c #476921",
"h c #7A4840",
"j c #7A4841",
"k c #7B4841",
"l c #7A4941",
"z c #AD7756",
"x c #AC7757",
"c c #AD7757",
/* pixels */
"+***+****0fif*fq*0fg***ww***9-##+***+****ggpf*f0*aff*--99-%*0*@@",
"****+#*****fiq--00000**0w***++#**0**#+*00**gp0**fgpis**89-@@*%@%",
"**0**###+***;;;;**********-+++*-00#++******;**-0;***-*---@@***%%",
"000*0***++**#+;;+****0*****+++9s00#;********9*;0;=008**-@@*****8",
"s0**00**%@@@#*++##***w0;**;;@fpi00++*000****p*99;00:*#-@+**0***9",
"0****0*w88@-#*++##***00;**9**+*f0**++**00**fp09*=0*;--@-***08**9",
"**00w*ww-@@@*-*+****w*00*-f**#*****++++*;0*fps******+##@***09***",
"****w***OO***9--**##g*;-*if*******++++++---8f8******####*0**0**8",
"0*******%%**99--***#fi**fi0***ww0**##**wiiif99*9spp++++**0****w0",
"e0****##O%--89**wwwwfi00fw*****wf0**#***;0fff9ff8**++****0w**ww*",
"ew0*###*%8--9*****009fp00*******a0***;*****0f9--*+++******ww*0**",
"********%ss-*-99w**090p00faa0****f***0***=**%%@+++****900**w****",
"****000**gi0*900*****000fg0=***0**;;0w*****;;;--**++9ffpt0-****0",
"w***;*00;-pi*90***#+#***;;;;**000*;0w;**gttt;;@-88-++-*ftp-***9i",
"*#*#+***;*0f88******+#+******009*#*0w;**0apgg=*-8p---+;&0ff*0pip",
"***#+**0ppqqqfiif0**0*++*##**-*****0;;w*00gg0g*0pi--;*gg0**0ffp0",
"*0*******ff0fptg=*$$80++@-+++***=0**:00;**0fq**fsf**9fpf*-*ffff*",
"*0***eww--9*ff0&+%**+80*+---*****0**000&*;;ff*qf8***ips8qq*090**",
"0**0**ww8*&&044344434-**%-:;****w**00=::**;;qqq***-*-000-;;**-**",
"***00**#%*=4444444334444*;;09-9*****=:pppg;;--::****---%+#******",
"w***w***@@44456666554436zzzx;-0-p0:*&gepa0&;ccccxxzzxx$$**0***-*",
"w0******5544566khh5543664zxxxxxxzpe*gqgg0*zzckkcxhkkxxx;wa0**09*",
"w0;*990655565566hhh655636z6xxkxxzzzzxgg:xxzzccc6<zkzkkxkzw**00**",
"#w;009666556hhhh66hhh5666666kkxhkkzzxxxxxxzzccc6<zhhkkkxzz******",
"*****665555566hhhhhkjhh66644kllhzxzzxxxxxxxxxxcc61kkkkkkkkzzf***",
"*a***555555566hhhh66jjj6664444hxzklklxxxxxxxxkccx6lk,>>hh442240*",
"7g*0555555h5666kh66kjj664444444klkkkxxllxxxxkcckljkkkkkh6662XX.*",
"**;*5555555hkkhhhkkkjjhhhh64kk4klkkkxllxxkkjkcckhhkkk64k6622<o<+",
"***6555555hhhhhhhhhhkkhhhh343kkkhhjjkkkxxxjjjjxxhhhjhk434111<,2+",
"***655555hhhh666khh44khh66446kkkhjjjkkkkxjkkjjjjhhjjkk444111<,2$",
"**665555555566hhkk64kljj6h64khkkhjjjlkkkxhjjjjjjjjjj3kk441112,1-",
"**66555555556hhhkkkkkljjhh66h6kkjjjllkkkjjjjjjjjjjjj3344122,,,2+",
"%333<<635566kkkkhkhhjjhhh64566kkjjjjjjjjkkkkllhk66k466<<<<2221++",
"-<62<663566hkk6kjhh6jhhkhhh5kkkkjjjjhjjjkkkkllhhk44122<<<<221++*",
"01226333556hk6kkjj66jjh46h5566hhjjjjjjjjkkhhl4h441112***********",
"012<6<14554446kkj66jjjhh6664466hjjjjjjjjkkhhl44411*;**w**#*****0",
"00112114545566hhjjjjkkkkhh66666hjjjjjjjjhhh6hh661*0;;fe*;++-***0",
"0;*1221422556hhhjjjjkkkhh6466khh6jjjjjjjh5hh5446**g;;p;:;;++***0",
"***w<26<<455hhh6h66j44hh42223k336hjjjjj6h55h556**0fp000=;*--%***",
"*****<<<<46hhh5666jj44h4<222<633jhj6jjj66h5555waif0f000gpf8-+**0",
"**w;;2221433336664kk444322111144j664kkhk4h36****0igw00fi9***+*00",
"a00*;w22143366664644163122**11<4j66hk344434a=0w*=wag0;f0***++*0*",
"a0;*9922<144<36<4441112220**pa<<114433k46*&g00*=**000;****++****",
";a****+o1141<66<2211111%***:g0**1111344366*=00*00;**;;***0******",
";**&*+o o<<2442,>***0$$0aff***;*oo222444666g**g0;*****##*e0****0",
"p&00*oXXo><<1<,,****$$stpgg**gptoo  <<11664>g0g**#**w**##*00**9i",
"*%*0.   oo,111>*ss0*+++*=**=gti0o   o<<1<<66>0:*#-*w0***#**0;*ii",
"--**.   oo*,11>0sppf---*000*****o   o**,<<<<,:;##**00***##*;;0i9",
"-0-    .*+*,,<,+++++++;00;;*****XXXX****,,,1>>+@****0****-;0*wa;",
"-9*   X*+++>,,,++**+++;;;0*;***XXXXX;0f*-,,,>>>-*9**;:0**-00*w**",
"9**   o-988*,>,,++*+$**0*ww***;XooX0**0a9-,,,,>+*09*;0g**900****",
"***X  -99**+,,,,,++#+;00;*w***0X X*****is9s0,,>>**00*0tf*9**####",
"ipf***--***+0,,>,*+*--0s##9**00X .**09;*s00;>>>>#**9*0pi********",
"pffs*fsiif*++*00**+0*-s%****f00;pp00*ff0*0008*-*#*****0p*0fif00*",
"0ff0*88s***++-*00*+99**%****ff;;aa0&;*iaww;w-*-@+***090f0fif0***",
"+0a*%8s++-**++*****9s*-*aais;;;;d0***;**ww;;--@#*00fiif00000**##",
"*&700-++sf0-*+******af*gpp0******0**%+--*9-****#*****000#%--@@@%",
"-fpf***f00-0++*f******&fp*+ss99**g**O++-***#***-++****##++--%%9%",
"7g7**********+*fg**0ftt0**fpiis*0g**+-++**#@#*9-*++**+#*8+@-**9*",
"***777***77*++*fg*0ptadd--f9fs*+&-*+-9-####-**90**++++*08*-+***+",
"**77****;77+++*f*-*qspff9*09s**+***+-9-**%8-;;;0***++*909**+***+",
"**0=**99;;0++************+****++*-*+*99***0-*;;;0*****9*-**+**++",
"--=*+-*0****+*0;***ff*********+****++9*9**00#*0;***ff***--****+*",
"--%*-**0***f+*00**00f***0**09+++-*+++*-9***f**00**09f***0;*99+++"
};
