/* XPM */
static char *eb759a6609a84678d5f802f6c6b668a9v7GjoD9jcEa6DcsL[] = {
/* columns rows colors chars-per-pixel */
"64 64 62 1 ",
"  c None",
". c #1E3616",
"X c #1F3616",
"o c #1E3716",
"O c #1F3716",
"+ c #1E3617",
"@ c #1F3617",
"# c #1F3717",
"$ c #263A16",
"% c #273A16",
"& c #263B16",
"* c #273B16",
"= c #263A17",
"- c #263B17",
"; c #273B17",
": c #40221F",
"> c #41221F",
", c #552E23",
"< c #552F23",
"1 c #603E20",
"2 c #603E21",
"3 c #613E21",
"4 c #603F21",
"5 c #2D4217",
"6 c #2C4317",
"7 c #2D4317",
"8 c #344C1A",
"9 c #344D1A",
"0 c #344C1B",
"q c #354C1B",
"w c #344D1B",
"e c #354D1B",
"r c #304C2E",
"t c #304D2E",
"y c #314D2E",
"u c #304D2F",
"i c #2B4032",
"p c #2A4132",
"a c #2B4132",
"s c #2B4133",
"d c #5F761E",
"f c #5E761F",
"g c #5F761F",
"h c #5F771F",
"j c #466920",
"k c #476920",
"l c #466821",
"z c #476821",
"x c #466921",
"c c #476921",
"v c #566424",
"b c #576424",
"n c #566524",
"m c #566425",
"M c #4F8234",
"N c #4E8334",
"B c #4F8334",
"V c #4F8335",
"C c #B5B00C",
"Z c #B4B00D",
"A c #B5B00D",
"S c #B5B10D",
/* pixels */
"                                                                ",
"X&&XX$--&wzgc&cw&wcc&&&ww&&&w&XX@&$XX;&&&ccgc&cw&ccc&;&ww&&&w&X$",
"&&&&XX$$&&&zgw&&wwwww&&ww&&&XXX&&w%$XX&w0&&zgw&&ccggc&&ww&XX$XX$",
"&&w&$X.$X&&&&&&&&&&&&&;&&&XXXX&&ww$@X&&&&&&&&&&w&&&;&&&&&XX&$$$$",
"www&w&&&.X$$XX&&X&&&&w&&&&&$++8zwwX&&&&&&&&&8&&w&&www&&&oo&&---w",
"cw&&ww&&=XXXXXXXXX&&&ww&&&&&XzggwwXX&www&&&&g&w8&ww&&XXXo&&w---w",
"w&&&&w%wwwXX$&XXXX&&&ww&&&w&&X&zw&&XX&&ww&&cgww&&w&&&XX&&&&ww&&9",
"&&www%ww$X.X&&&XX&&&w&ww&&c&&X&&&&&XXXX&&w&cgc&&&&&&XXXX&&&ww&&&",
"&&&&w&&&XX&&&w&&&&$.j&&&-dk&&&&&&&XXXXXX&&&wcw&&&&&&XXXX&w&&w&&w",
"w&&&&&&&X-&&ww&&&&&ojd&&kdw&&&www&&XX&&wgggcww&wzggXXXX&&w&&&&w8",
"ww&&&&XXX---w8&&wwwwzgwwcw&*&&&wcw&&X&&&&wcccwjjw&&XX&&&&ww&&ww&",
"www&XXX&-w--w&&&&&ww8zgww--*&&&&c0&&&;&;&&&0z8&&&XXX&&&&&&ww&8&&",
"&&&&&&&&&cc&&&www-&wwwh9wcccw--&&c&&&w&&&&----XXXXX&&&www&&w&&&&",
"&&&&ww8&&cgw&w8w&&&&-ww9jkw-*-&w&&iiiissp&---&X&&&XXwzcggw&&&&&8",
"0&&&&&ww&&gg&ww&&&XXO--aiii*--wwwpVCSCCVVidd&&$&ww&XX&&cgg&&&&wg",
"&X&XX&&&&&wcww&&&&--XOiBBCCiiiwiiVCCSCAAVVick-&owg&&XX&&wcc&8ggg",
"&&&XX&&wggwwwcggcw&&w&pNAAACAViBVVAAAAAABBicwc&wgg&&&&cj0&&wccgw",
"&w&&&&&&&ccwcggz&XXXwwpNAAAAACVVVAAAAAACBBicw&&ccc&&wcgc&&&cccc&",
"&w&&&w0w&&w&ccw&XX&&$wiBAACAAAVVCCAAAAAVBnpcc&wcw&&&ggcwww&www&&",
"w&&w&&www&&&w&XXX&&&$-iBAAACAAVVAAAAAACVmnmppww;&&&&&ww0&&&&&&&&",
"&&-ww&&$X&&&&XX&&ww;$&pNCCSCCSNNAAAAAAVACCCCCs&&&&&&&&&XXXX&&&&&",
"w&--w&$$XXX&w&&&&&sspppNVCCC2CNbAAAAA2CACCAACp&www&&c&XX&&w&&&&&",
"9w--$$$$&&XXcw&&&pAACCCBBBCC2VNbmCAA2AAAACAACCpXwcw&cg&&0z0&&ww&",
"ww-$www$wcwXww&jiVACCCCCBVmmm,mVmmn,nAACAAAASNp$&&w&cgc&cw&&ww&&",
"ow&www&&&wjwXXwwiSSSAAAAAVmmm,mmmmm,mNZCCCCCVVta&&&&&wcXc&&&&&&&",
"&&&&&&&&&&&wwXXXiSCCAAAAAV2nAC,mmm,mbbVCCCCVVmriX&&c&&wwXcgcc&&&",
"&j&&&&--XXXXXX&XsACCAAAACV2,CSCbbmCCCNVNBBNVmrriX&zggcwwcgc&&&w&",
"5j&ww--$wwXXXX&wsAACAAAVVV2,CCCSbCCZCNNbNbnnnri-&&&wcgcwcc&&&ww&",
"&&&&ww$$&www&&&wsmmCCSAASV2,,VSSmCCCCVNBnrnnrrpw&&&&&zcwz&&8ww&$",
"&&&&&w$$XX&&&&&wwinVCCAACCVm,VBn,CCCVVBBnnrrrupww&&&&&&&&&&&&&&+",
"&&&&&&&XX&&&&&&&w&inVVCACCAV,NBr,2mNBBBBBnrrrs&&w0&&&&&&&&&&&&+X",
"&&&&XX$8&wwwX&w&&&inVCCACCCVnnrr,,bbbBBBBntrp-w&&&&cz&&&&&&$&&+&",
"$$.$$&&&&&wc0&ww&&pnVCSSZZZfm,,,,,rnnbNNNnti$&8w&&wwz&&&w&$wwXXX",
".$$..&&&&ccgc&j0&cpnbVSSZVVmu,,VV,rrnnbbnttij&jw&zcc&&&0w&$$w$XX",
"&8&&++&w&&wcgw&&czgpbbBBmmmuumVVVV,rrrbbtttig8&&ccggz&&ww&$X-XX$",
"88$..+&ww&XX&c&wwggprrnnuuuu,mVVVVr,rrrrttio&&&&&&&&&&&&&&$$----",
"8w&X&&&&&&Xwwwwwcc&Xprrruuu:,bfVBBr,ttttttioXX$$&&&&&&w&&.&&-&&w",
"w8&&&&0&&&ggcXwXXXXXXprruusx%nVVBBr24rtttiw&-XX$&&w&&jw&&oo&&&&w",
"w&&&ww&&&ccw&&&&&&www&ppiiywcrmVBnr4<pppi&ww&o$$&&c&&g&&&&oo&&&w",
"&&&www&&&&&&&&&&&ww&&XX$--;cc>rmnr44>-ww&&&&oo&&&wcgwww&&&&&o&&&",
"&&&&&&XX&www&&&&0w&&&&ww0X&&>22rr22,,>q%%%%%o&wkgcwc8wwcdj0&X&&0",
"&&w&&X&X&&&w0&&&&&&&&www0=0&:2224422,%%%%%%q&&&&wgc8wwcg0&&&X&ww",
"cww&&wwX&&&&w&&gdgc&$$rw0==>2222,2222>-w0;%z&ww&&wccw&cw&&&XX&w&",
"cw&&ww&X&g8X&&ccdcw&$rr$00>32222,2,224>c;;%yww&-&&8ww&&&&&XX&&&&",
"$c&&&&XX&gg8-jwcjw--wrrO%%>3r22<,2,2222>;;;rww-ww&&&&&&&&w&&&&;&",
"$$;&&XXX&jjj--wk-&--wrOwm%33r2,<22,,4r44>%wr&&cw;&&&&;XX&ww&&&&0",
"g=ww&XXXo&wk9&jj&&r-XOcf>r,,r<<r2,,,,rr42>&0crc-&X;&w&;@X&ww&&wg",
"-X&ww&&&$&-ww*--jjrXXXO--rr,<<r,,,2,,rt42>X&0r--XX&8w&&&X&&w&&gg",
"----ww-&&---&&&wcgrc--&&wtt<,rr<,,,,,rr::&X&&r&XX&&ww&&&XX&&&wgw",
"-w&&-%-&.$$$&&&oXOXXXX&99&r%,rr<,,,,,:r&w&;c&&XX&&&&w&&&&X&w&wc&",
"&w&www&&XXX$..ooX-$XXX--%q%%>rr>,,,>:wc&&&cg&&X&&w&&&&w&&&ww&w&&",
"w&&jc&&&8ww$$&ooXX-XX--w%qq%&&&&>>%w--wcw&gw&&XX&ww&&wc&&www&&&&",
"&&---&&w9&-o$$$$-XOXX&ww%%0%%%w&%%%%&&&gcwcw&&&X&&ww&wgc&w&&XXXX",
"ggj-&&&-&--X888$$$X-&&wc@@0;&w0&gq%%ww&&cww&ccw@X&&0&wgg&&&&&&&&",
"gjjc&jkdgj-oX$w8;$Xw&&c&%%%;cww&ggqq&ccw&ww00&&&X&&&&&8g&wcgcww&",
"9jcw&wwko--XX$$ww&Xww&XX%%%%cc&&zzq%&&gcww&w&&&XX&&&wwwcwcgcw&&&",
"XwcXX8jXo&&&XX&&&&&wc&&&ccgc;&&&zq&&&&&&ww&&&XXX&wwcggz8ww0w&&XX",
"&&6w8&X$jjw&&X&&&&&&cc&cggw&&&&&;q&&++&&&0&&&&&X&&&&&088XX&&XXX&",
"&cgc&&&kww&wXX&c&&&&&&&cg&Xccww&;z;;$++&&&&X&&&&XX&&&&++XX&&&&0&",
"5c6;&&&&&&&&&X&cz&&wcgg0&&cgggc&0z;=+&++&&XXX&w&&XX&&X$&wXX&&&w&",
"&&&557&&-75&XX&cc&wggccc&&cwcc;X&&&X$8$+XXX&&&ww&&XXXX&ww&XX&&&X",
"&&55&&&&-55XXX&c&&&wcgczw&w8c&&X&&&X$8&$&X0&&&;w&&&XX&www&&X&&&X",
"&&w-&&ww--wXX&&&&&&&&&&&XX&&&&XX&&&X&88&&&w&&&&&0&&&&&w&&&&X&&XX",
"&&--o&&w&-&&X&w&&&&cc&&&&&&&&&X&&&&XX8&8&&w0X&w&&&&cc&&&&&&&&&X&"
};
